<?xml version="1.0" encoding="iso-8859-1"?>
<!-- Generator: Adobe Illustrator 26.0.1, SVG Export Plug-In . SVG Version: 6.00 Build 0)  -->
<svg version="1.1" id="GeorgeSamuel.me" xmlns="http://www.w3.org/2000/svg" xmlns:xlink="http://www.w3.org/1999/xlink" x="0px"
	 y="0px" viewBox="0 0 512 512" style="enable-background:new 0 0 512 512;" xml:space="preserve">
<g id="www.GeorgeSamuel.me">
	<rect style="fill:#FFFFFF;" width="512" height="512"/>
	<circle style="fill:#FFFFFF;" cx="256" cy="256" r="256"/>
	<path style="fill:#4A4C34;" d="M245.432,493.442c-6.247-0.118-12.455-0.749-18.645-1.522c-9.699-1.211-19.289-3.027-28.764-5.448
		c-31.717-8.106-60.592-22.1-86.401-42.217C71.34,412.856,43.724,372.673,28.925,323.75c-3.488-11.533-5.946-23.297-7.554-35.243
		c-2.01-14.931-2.754-29.918-1.83-44.956c3.403-55.379,23.434-103.946,60.371-145.326c29.675-33.244,66.061-56.207,108.728-69.137
		c12.115-3.671,24.47-6.239,37.025-7.885c13.341-1.749,26.733-2.372,40.166-1.829c27.38,1.107,53.81,6.721,79.232,16.995
		c65.946,26.651,116.788,81.794,137.977,149.678c3.672,11.766,6.411,23.748,8.151,35.955c1.005,7.054,1.898,14.117,1.989,21.255
		c0.013,1.047,0.391,2.057,0.274,3.112c0,6.741,0,13.481,0,20.222c0.116,1.11-0.273,2.173-0.283,3.276
		c-0.057,6.252-0.819,12.444-1.635,18.631c-1.577,11.95-4.061,23.711-7.547,35.244c-14.668,48.522-41.98,88.467-81.782,119.795
		c-26.076,20.525-55.311,34.769-87.477,42.973c-9.476,2.417-19.068,4.224-28.769,5.426c-6.136,0.76-12.289,1.385-18.481,1.502
		c-1.693-0.076-3.395-0.353-5.059,0.231c-3.978,0-7.955,0-11.933,0C248.827,493.089,247.125,493.366,245.432,493.442z
		 M474.644,256.489c0.149-119.471-96.986-218.16-218.057-218.232c-121.134-0.072-218.32,98.602-218.344,218.138
		c-0.024,120.263,97.832,218.361,218.167,218.329C377.547,474.691,474.787,376.024,474.644,256.489z"/>
	<path style="fill:#946247;" d="M245.432,493.442c1.693-0.076,3.395-0.353,5.059,0.231c-1.657,0-3.315,0-4.972,0
		C245.429,493.618,245.4,493.541,245.432,493.442z"/>
	<path style="fill:#946247;" d="M267.482,493.442c0.032,0.1,0.003,0.177-0.087,0.231c-1.657,0-3.315,0-4.972,0
		C264.086,493.089,265.789,493.366,267.482,493.442z"/>
	<path style="fill:#946247;" d="M261.923,126.25c2.587,1.381,5.062,2.7,7.535,4.024c9.004,4.822,17.995,9.669,27.026,14.441
		c1.131,0.598,1.547,1.233,1.542,2.535c-0.055,13.094-0.034,26.188-0.034,39.282c0,0.592,0,1.183,0,1.872
		c0.904-0.048,1.339-0.603,1.844-0.96c8.807-6.212,18.407-10.693,28.901-13.184c8.158-1.936,16.429-2.698,24.816-2.251
		c23.507,1.254,43.282,10.723,59.628,27.413c12.579,12.844,20.294,28.305,22.958,46.091c4.469,29.838-3.955,55.689-25.208,77.038
		c-12.915,12.973-28.662,21.053-46.796,24.156c-8.539,1.461-17.139,1.599-25.746,0.521c-20.423-2.557-37.869-11.293-52.301-25.835
		c-10.972-11.056-18.743-24.098-22.487-39.36c-1.6-6.523-2.274-13.146-2.257-19.859c0.064-25.967,0.089-51.934,0.133-77.901
		c0.019-11.271,0.042-22.542,0.078-33.812c0.024-7.513,0.074-15.027,0.122-22.54C261.682,127.434,261.582,126.929,261.923,126.25z
		 M349.444,210.885c-27.052-0.196-48.716,21.389-48.826,48.796c-0.114,28.453,22.683,48.812,48.54,48.938
		c27.1,0.132,49.135-21.677,49.177-48.569C398.378,232.705,376.713,210.919,349.444,210.885z"/>
	<path style="fill:#4A4C34;" d="M214.913,330.049c-0.735-0.003-1.062,0.419-1.454,0.686c-10.589,7.221-22.135,12.121-34.791,14.294
		c-7.714,1.325-15.481,1.589-23.273,0.863c-21.132-1.971-39.196-10.614-54.043-25.649c-11.832-11.983-19.905-26.241-23.679-42.766
		c-2.132-9.338-2.508-18.781-1.629-28.317c2.677-29.017,21.925-59.204,54.775-72.641c9.177-3.754,18.747-5.779,28.663-6.138
		c27.716-1.002,50.969,8.928,69.891,28.974c10.693,11.328,17.565,24.794,20.658,40.113c1.03,5.099,1.546,10.26,1.527,15.468
		c-0.105,29.609-0.207,59.218-0.311,88.827c-0.001,0.276-0.016,0.552-0.012,0.828c0.007,0.471-0.203,0.712-0.688,0.703
		c-0.386-0.007-0.773,0.006-1.16,0.006c-10.881,0-21.763,0.003-32.644-0.002c-2.041-0.001-1.824,0.189-1.828-1.895
		C214.907,338.987,214.913,334.569,214.913,330.049z M164.25,309.594c2.194-0.081,5.11-0.257,8.002-0.76
		c8.448-1.471,16.017-4.949,22.701-10.246c14.727-11.669,21.3-26.955,19.644-45.662c-0.76-8.587-3.93-16.368-8.807-23.459
		c-13.995-20.351-37.094-26.505-57.201-20.166c-14.073,4.437-24.475,13.538-31.019,26.708c-7.598,15.292-7.119,30.701,0.656,45.825
		C126.228,297.398,143.704,309.778,164.25,309.594z"/>
	<path style="fill:#4A4C34;" d="M256.829,389.192c0-5.463,0-10.759,0-16.056c0-0.442,0.032-0.886-0.005-1.325
		c-0.058-0.674,0.278-0.889,0.883-0.849c0.055,0.004,0.11,0.002,0.166-0.001c2.57-0.117,2.57-0.117,2.57,2.461
		c0,6.903,0,13.806,0,20.709c0,0.387,0.006,0.773-0.008,1.16c-0.008,0.21,0.015,0.43-0.202,0.586
		c-0.456,0.328-2.708,0.105-3.119-0.355c-0.441-0.494-0.841-1.024-1.256-1.54c-4.015-4.991-8.026-9.983-12.047-14.969
		c-0.334-0.414-0.594-0.907-1.316-1.335c0,0.561,0,0.971,0,1.381c0,5.191,0.004,10.382-0.002,15.573
		c-0.002,1.345-0.016,1.373-1.35,1.365c-2.776-0.017-2.24,0.272-2.25-2.279c-0.028-6.958-0.01-13.917-0.009-20.875
		c0-0.387,0.001-0.773,0.004-1.16c0.002-0.22,0.004-0.448,0.19-0.605c0.375-0.316,2.746-0.081,3.123,0.333
		c0.371,0.408,0.701,0.852,1.047,1.282c4.154,5.162,8.306,10.325,12.465,15.483C255.976,388.507,256.166,388.921,256.829,389.192z"
		/>
	<path style="fill:#4A4C34;" d="M282.277,383.314c0-3.646,0.001-7.293,0-10.939c-0.001-1.483-0.098-1.414,1.46-1.414
		c4.917,0.001,9.833-0.001,14.75,0.001c1.545,0,1.445-0.12,1.447,1.418c0,0.276-0.023,0.554,0.002,0.828
		c0.06,0.66-0.254,0.854-0.875,0.843c-1.546-0.027-3.093-0.008-4.64-0.008c-2.32,0-4.64-0.004-6.961,0.001
		c-1.559,0.003-1.566,0.009-1.573,1.484c-0.008,1.602-0.009,3.204,0.001,4.807c0.009,1.36,0.018,1.376,1.329,1.38
		c3.094,0.01,6.187-0.008,9.281,0.007c2.034,0.01,1.958-0.368,1.942,1.957c-0.008,1.12-0.037,1.142-1.261,1.147
		c-3.315,0.013-6.629-0.002-9.944,0.008c-1.328,0.004-1.338,0.02-1.346,1.366c-0.011,1.768-0.011,3.536,0,5.304
		c0.008,1.36,0.018,1.376,1.339,1.379c3.922,0.008,7.845-0.001,11.767,0.005c1.495,0.002,1.495,0.013,1.495,1.561
		c0,1.537,0,1.549-1.502,1.551c-5.082,0.006-10.165,0.006-15.247,0c-1.447-0.002-1.458-0.014-1.46-1.416
		C282.273,390.828,282.277,387.071,282.277,383.314z"/>
	<path style="fill:#4A4C34;" d="M371.888,375.694c-2.379-1.344-4.725-2.058-7.275-1.994c-1.171,0.029-2.314,0.221-3.383,0.701
		c-1.364,0.613-2.232,1.65-2.278,3.184c-0.046,1.515,0.87,2.434,2.153,3.052c1.353,0.653,2.812,0.969,4.257,1.326
		c1.553,0.384,3.114,0.747,4.591,1.379c2.472,1.058,4.128,2.745,4.168,5.608c0.042,2.987-1.375,5.16-4.076,6.233
		c-4.931,1.957-9.727,1.389-14.291-1.29c-0.742-0.435-1.029-0.938-0.489-1.73c0.337-0.493,0.424-1.133,0.961-1.652
		c1.845,1.308,3.88,2.236,6.15,2.569c1.654,0.243,3.299,0.239,4.933-0.173c0.649-0.164,1.265-0.405,1.813-0.785
		c2.008-1.392,1.959-4.059-0.097-5.383c-0.844-0.544-1.792-0.855-2.752-1.114c-1.331-0.359-2.674-0.674-4.007-1.027
		c-1.121-0.296-2.204-0.695-3.264-1.176c-4.933-2.239-4.399-8.819-0.607-11.121c1.2-0.729,2.476-1.209,3.854-1.422
		c3.416-0.53,6.716-0.192,9.83,1.392c1.028,0.523,1.022,0.555,0.592,1.634C372.45,374.464,372.19,375.008,371.888,375.694z"/>
	<path style="fill:#4A4C34;" d="M319.62,390.454c1.871,1.354,3.862,2.251,6.082,2.603c1.71,0.271,3.412,0.286,5.091-0.168
		c0.527-0.142,1.056-0.343,1.525-0.618c2.336-1.374,2.332-4.253,0.002-5.627c-1.155-0.681-2.452-0.984-3.73-1.328
		c-1.278-0.343-2.562-0.663-3.84-1.008c-0.855-0.231-1.659-0.59-2.457-0.975c-4.647-2.248-4.213-8.323-0.843-10.746
		c1.236-0.889,2.605-1.421,4.098-1.675c3.356-0.573,6.601-0.245,9.699,1.207c1.328,0.622,1.323,0.66,0.793,1.974
		c-0.203,0.502-0.436,0.991-0.7,1.587c-1.682-0.914-3.349-1.582-5.159-1.851c-1.498-0.223-2.973-0.16-4.437,0.198
		c-0.701,0.171-1.36,0.456-1.94,0.898c-1.949,1.488-1.852,4.097,0.208,5.407c0.991,0.63,2.113,0.943,3.231,1.246
		c1.33,0.362,2.672,0.679,4.007,1.026c1.017,0.265,1.991,0.646,2.935,1.111c4.579,2.258,4.163,7.914,1.12,10.383
		c-1.23,0.998-2.634,1.601-4.183,1.875c-3.988,0.705-7.812,0.27-11.375-1.748c-1.575-0.892-1.56-0.94-0.781-2.543
		C319.155,391.292,319.372,390.917,319.62,390.454z"/>
	<path style="fill:#4A4C34;" d="M141.092,383.391c0-3.702-0.005-7.403,0.003-11.104c0.003-1.295,0.018-1.319,1.218-1.321
		c5.082-0.01,10.164-0.01,15.246,0c1.169,0.002,1.17,0.026,1.199,1.171c0.007,0.276-0.031,0.557,0.006,0.828
		c0.123,0.903-0.311,1.102-1.138,1.094c-3.811-0.034-7.623-0.014-11.435-0.015c-1.437,0-1.502-0.175-1.495,1.396
		c0.008,2.044-0.009,4.088,0.007,6.132c0.009,1.167,0.028,1.192,1.182,1.197c3.314,0.014,6.629-0.001,9.943,0.009
		c1.437,0.004,1.437,0.02,1.446,1.464c0.002,0.276-0.017,0.554,0.001,0.828c0.045,0.669-0.308,0.843-0.911,0.837
		c-1.988-0.019-3.977-0.006-5.966-0.006c-1.436,0-2.873-0.007-4.309,0.002c-1.378,0.008-1.385,0.015-1.39,1.48
		c-0.007,2.376,0.002,4.751-0.003,7.127c-0.004,1.47-0.01,1.47-1.396,1.493c-2.209,0.037-2.209,0.037-2.209-2.171
		C141.092,390.352,141.092,386.872,141.092,383.391z"/>
	<path style="fill:#4A4C34;" d="M208.503,384.939c0-3.199,0.009-6.398-0.004-9.597c-0.005-1.269-0.027-1.287-1.266-1.295
		c-2.095-0.014-4.192-0.032-6.286,0.01c-0.794,0.016-1.059-0.254-1.045-1.047c0.045-2.496-0.123-2.035,2.015-2.042
		c5.68-0.02,11.36-0.012,17.04-0.004c1.925,0.003,1.69-0.223,1.716,1.813c0.001,0.11-0.013,0.222,0.001,0.331
		c0.094,0.728-0.239,0.959-0.946,0.946c-1.874-0.033-3.75-0.011-5.625-0.01c-0.386,0-0.773,0.02-1.158-0.002
		c-0.628-0.036-0.897,0.231-0.881,0.868c0.025,0.992,0.004,1.985,0.004,2.978c0,5.515,0.003,11.03-0.002,16.546
		c-0.001,1.531,0.243,1.582-1.47,1.569c-2.469-0.019-2.072,0.209-2.089-2.129C208.487,390.896,208.503,387.918,208.503,384.939z"/>
	<path style="fill:#4A4C34;" d="M178.16,383.273c0-3.748,0.028-7.496-0.021-11.243c-0.011-0.888,0.276-1.094,1.12-1.096
		c2.48-0.007,2.48-0.045,2.48,2.396c0,6.889,0,13.778,0,20.667c0,0.386-0.022,0.773,0.003,1.157
		c0.043,0.657-0.287,0.819-0.892,0.862c-2.692,0.191-2.691,0.209-2.691-2.492C178.16,390.107,178.16,386.69,178.16,383.273z"/>
</g>
</svg>
