<?xml version="1.0" encoding="utf-8"?>
<!-- Generator: Adobe Illustrator 26.0.1, SVG Export Plug-In . SVG Version: 6.00 Build 0)  -->
<svg version="1.1" id="GeorgeSamuel.me" xmlns="http://www.w3.org/2000/svg" xmlns:xlink="http://www.w3.org/1999/xlink" x="0px"
	 y="0px" viewBox="0 0 512 512" style="enable-background:new 0 0 512 512;" xml:space="preserve">
<style type="text/css">
	.st0{fill:#FFFFFF;}
	.st1{fill:#F63548;}
	.st2{fill:#272B2E;}
</style>
<g id="www.GeorgeSamuel.me_00000083068072566065053030000015346415315802889112_">
	<rect class="st0" width="512" height="512"/>
	<circle class="st0" cx="256" cy="256" r="256"/>
	<g id="www.GeorgeSamuel.me">
		<path id="Path_5302" class="st1" d="M360.8,149.2c4.2,0.1,8.3,0.3,12.5,0.5c5.3,0.3,10.7,0.7,15.7,2.7c7.1,3,12.7,8.9,15.2,16.3
			c2.5,7.3,2.2,15.3-0.7,22.5c-4.6,11.4-14.7,19.6-24.4,27.2L328.2,258c6.3,0.7,12.7,1,19.1,0.8c5.2-0.2,10.8-0.8,14.9-4
			c4.1-3.2,6.1-9.7,2.8-13.8c-0.7-0.8-1.6-1.8-1.3-2.8c0.2-0.5,0.6-0.9,1.1-1.2l17.5-12.8c0.4-0.4,1-0.6,1.6-0.6
			c0.5,0.1,0.9,0.4,1.2,0.8c5.5,5.8,8.5,13.5,8.3,21.5c-0.2,7.9-2.9,15.6-7.7,21.9c-5.1,6.7-12,11.8-20,14.5
			c-14.4,4.9-30.1,1.7-45.2,2.3c-9.6,0.3-20.4,1.8-27.7-4.4c-5.5-4.7-7.2-13-4.5-19.7c2.5-6.4,8.1-10.9,13.4-15.1l70-55.2
			c3.4-2.7,7-5.8,7.7-10.1c0.2-0.9,0-1.9-0.5-2.7c-0.8-0.9-2.1-1-3.3-1c-11.9-0.1-23.8-0.1-35.7,0.2l12.9,18.1
			c0.8,0.6,0.9,1.7,0.3,2.5c-0.2,0.2-0.4,0.4-0.7,0.6l-18,13c-0.6,0.7-1.6,0.8-2.3,0.3c-0.2-0.2-0.4-0.4-0.5-0.7l-16.9-22.9
			c-2.6-3.5-5.2-7-6.6-11.1c-3.3-9.7,3.7-21.7,13.2-24.8c2.1-0.6,4.2-1,6.4-1.2C338.6,149.1,349.7,148.7,360.8,149.2z"/>
		<path id="Path_5303" class="st2" d="M185.8,215c1.5-2,1.3-4.8,1.5-7.3c0.2-2.5,1.3-5.5,3.8-5.9c2-0.3,4.5,1.1,6-0.2
			c0.7-0.7,1-1.6,1.1-2.6l2.6-14.7c0-0.7,0.3-1.4,0.8-2c0.7-0.5,1.5-0.7,2.3-0.6l13.7,0c0.5-0.1,1.1,0.1,1.5,0.4
			c0.3,0.5,0.4,1.1,0.2,1.6l-2.9,15.6c-0.3,0.8-0.1,1.6,0.3,2.2c0.5,0.4,1.1,0.5,1.7,0.4l39.7-0.1c1.2,0,2.6,0.1,3.3,1
			c0.4,0.6,0.6,1.3,0.6,2l4.4,34.6l17.4-34.6c0.4-0.9,1-1.7,1.7-2.3c0.9-0.5,2-0.7,3.1-0.6c5.1-0.1,10.2,0.1,15.3,0.4l-30.9,56.7
			c-0.9,2.8-3.6,4.5-6.5,4l-10.8-0.1c-1.2,0.3-2.4-0.4-2.7-1.6c-0.1-0.2-0.1-0.4-0.1-0.6l-10.3-57.2L231.4,261
			c-0.1,0.6-0.3,1.2-0.7,1.6c-0.5,0.4-1.2,0.5-1.8,0.4l-13.7,0c-0.5,0.1-1-0.1-1.4-0.3c-0.6-0.5-0.5-1.4-0.4-2.2l7.5-39.4
			c0.3-1.5,0.5-3.2-0.3-4.5c-1.3-2-4.5-1.6-6.2,0.1s-2.1,4.2-2.6,6.5l-6.6,36.8c0,1-0.5,1.9-1.2,2.6c-0.7,0.4-1.4,0.5-2.2,0.4
			l-13.7-0.1c-0.7,0.2-1.4-0.2-1.6-0.9c-0.1-0.3-0.1-0.7,0.1-1l8.3-44.9c-2.9-0.4-5.7-0.4-8.6,0l1.3,7.1c0.2,0.6,0.1,1.2-0.2,1.8
			c-0.5,0.5-1.1,0.7-1.8,0.6l-13.2,0.1c-0.9,0.1-1.8-0.1-2.6-0.5c-0.7-0.6-1.3-1.4-1.6-2.3c-2.5-4.6-8.5-6.8-13.6-5.7
			c-5.2,1.1-9.5,4.9-12.1,9.5c-3,5.4-3.6,12.6,0.4,17.3c4.9,5.6,14.5,4.6,20-0.4c1.4-1.3,2.7-2.8,4.5-3.5c1.2-0.4,2.4-0.5,3.7-0.5
			c4.6,0,9.2,0.1,13.8,0.4c-5.2,12.6-16.4,21.7-29.8,24.3c-11.2,2-24-1.7-30.1-11.3c-13.2-21,7.2-48.5,28.7-52.5
			C166.1,198.3,180.1,203.8,185.8,215z"/>
		<path id="Path_5304" class="st2" d="M275.7,303.8c5.7-5,13.2-8.4,20.8-7.8c7.6,0.6,15,5.9,16.6,13.3c0.9,4,0.1,8-0.6,12l-7,36.9
			c0,0.4-0.2,0.7-0.4,1.1c-0.6,0.6-1.4,0.9-2.3,0.7h-13.9c-0.7,0.1-1.4-0.1-1.9-0.6c-0.3-0.6-0.4-1.2-0.2-1.8l5.7-29.5
			c0.8-4.2,1.5-9.1-1.3-12.4c-2.4-2.8-6.7-3.4-10.1-2c-3.4,1.6-6,4.3-7.4,7.8c-1.4,3.4-2.3,7-2.8,10.6l-4.4,25.2
			c0.1,1.4-0.9,2.7-2.3,2.8c-0.2,0-0.5,0-0.7,0h-14c-0.8,0.2-1.7-0.3-1.9-1.1c-0.1-0.4,0-0.8,0.2-1.2l7.8-40.8
			c0.4-1.3,0.3-2.6-0.1-3.9c-1.1-2.2-4.6-2.1-6.4-0.3c-1.8,1.7-2.3,4.3-2.8,6.8l-7,38.2c0.1,1.2-0.8,2.3-2.1,2.3c-0.2,0-0.4,0-0.6,0
			l-14.2,0c-0.6,0.1-1.2-0.1-1.6-0.5c-0.3-0.5-0.3-1-0.1-1.5l8.2-43.5c0.2-0.8,0.2-1.9-0.5-2.3c-0.3-0.2-0.7-0.2-1.1-0.2l-5,0
			c-0.6-0.1-1.2,0-1.8,0.3c-0.7,0.6-1.2,1.5-1.2,2.5l-7.7,42.6c0,0.8-0.4,1.6-0.9,2.2c-0.7,0.4-1.5,0.6-2.3,0.5l-14,0
			c-0.4,0.1-0.9-0.1-1.3-0.3c-0.5-0.4-0.4-1.2-0.3-1.9l8.1-43.2c0.8-4.1,0.7-15.2,5.1-16.4c3.1-0.9,7.6-0.2,10.9-0.2
			c3.8,0,7.6,0,11.5,0.2c1.2,0,2.5,0,3.3-0.9c0.4-0.5,0.6-1.2,0.7-1.8l2.8-15.8c0-0.7,0.3-1.4,0.9-1.9c0.5-0.3,1.1-0.4,1.7-0.4
			l14.8,0c0.4,0,0.7,0,1.1,0.2c0.5,0.4,0.5,1.2,0.4,1.8l-3.1,16.8c-0.1,0.4-0.1,0.9,0.1,1.3c0.4,0.4,0.9,0.6,1.5,0.5l21.6,0
			c0.7,0,1.7,0.1,2,0.8c0.1,0.4,0.1,0.7,0,1.1L275.7,303.8z"/>
		<path id="Path_5305" class="st2" d="M474.1,315.3L474.1,315.3l-15.3,0.3c-0.5,0.1-1.1,0-1.5-0.3c-0.4-0.3-0.6-0.7-0.8-1.2
			c-1.8-3.5-7.3-4.2-9.9-1.3c-0.7,0.7-1.1,1.6-1.2,2.6c-0.1,2.3,2.2,4,4.3,4.9c3.7,1.6,7.7,2.4,11.5,3.9c3.8,1.5,7.5,3.7,9.4,7.3
			c1.9,3.5,1.8,7.8,0.8,11.6c-1.2,4.3-3.6,8.1-6.8,11.1c-3.1,2.7-6.7,4.9-10.6,6.2c-6,2.2-12.7,3.1-18.9,1.4
			c-6.2-1.7-11.8-6.3-13.7-12.4c-6.5,8.3-16.6,13.2-27.2,13c-5.3-0.1-10.7-1.6-14.8-5s-6.6-8.9-5.7-14.1c0-0.5,0.3-1,0.7-1.3
			c0.3-0.2,0.7-0.2,1.1-0.2l14.3,0c0.5,0,1.1,0.1,1.5,0.3c0.7,0.5,0.9,1.4,1.3,2.2c1.4,3.3,6.1,3.7,9.3,2.1c1.9-0.9,3.6-2.6,3.6-4.7
			c0-2.8-3.1-4.5-5.7-5.5l-8.7-3.5c-3.1-1.2-6.2-2.5-8.6-4.8c-6.6-6.4-3.2-16.5,2.4-22.3c6.4-6.5,15.3-9.9,24.4-9.2
			c4,0.2,7.9,1.4,11.2,3.6c3.4,2.2,5.6,5.8,6,9.8c0.1,1,0.1,2.3,1.1,2.7c4.3-10,15.3-16,26.2-16.2c5.4-0.1,11.1,1.1,15.3,4.5
			C473.3,304.3,475.7,310.2,474.1,315.3z M424.6,338.4c-0.1,3.4-0.1,3.4,3.2,3.4c3.3,0,6.5,0,9.8,0c0.8,0,1.5-0.1,1.9,1
			c1.4,3.9,3.4,5,7.3,4.5c2.9-0.4,5.5-2.5,5.9-4.7c0.4-2.4-0.6-3.9-3.9-5.6c-0.8-0.4-1.5-0.7-2.3-1c-3.8-1.5-7.6-3-11.5-4.6
			c-6-2.4-9.5-7.6-8.9-13.6c0.2-1.8-0.3-2.2-2-2.2c-4.4,0.1-8.8,0-13.2,0c-0.8,0-1.6,0.2-2-1c-1.1-3.2-2.3-3.9-5.7-3.7
			c-2.8,0.2-5,1.8-5.4,4c-0.4,2,0.8,3.8,3.6,5.1c4.2,1.9,8.8,2.8,13,4.6C421,327.2,424.8,331.2,424.6,338.4z"/>
		<path id="Path_5306" class="st2" d="M83,251.2c-3.3,0-6.5,0-9.8,0c-1.1-0.1-2.2,0.5-2.9,1.4c-2.3,3-4.7,5.9-7,8.9
			c-0.7,1-1.8,1.6-3,1.5c-6.8-0.1-13.7,0-20.5,0c-0.6,0-1.4,0.3-1.7-0.4c-0.3-0.7,0.4-1.2,0.8-1.6c9.5-10.8,19-21.7,28.5-32.5
			c9.6-11,19.2-22,28.8-33.1c3.6-4.1,7.2-8.2,10.8-12.3c0.6-0.8,1.6-1.2,2.6-1.2c5.6,0,11.2,0.1,16.8,0c1.7,0,2.1,0.6,1.8,2.2
			c-1.6,8.4-3.2,16.7-4.7,25.1c-1.9,10.4-3.9,20.8-5.8,31.2c-1.3,6.9-2.6,13.8-3.8,20.7c-0.3,1.5-0.8,2-2.4,2
			c-5.5-0.1-11-0.1-16.4,0c-1.9,0-2.4-0.7-2-2.4c0.5-2.4,0.9-4.9,1.5-7.3c0.3-1.6-0.1-2.2-1.8-2.1C89.6,251.3,86.3,251.2,83,251.2z
			 M102.1,213.1c-0.6,0.3-0.9,0.4-1.1,0.6c-5.2,6.6-10.4,13.2-15.5,19.7c-0.9,1.2-0.3,1.4,0.8,1.4c3.3,0,6.5-0.1,9.8,0
			c1,0.2,1.9-0.4,2.1-1.4c0-0.1,0-0.2,0-0.3C99.5,226.6,100.8,220.1,102.1,213.1z"/>
		<path id="Path_5307" class="st2" d="M360.1,354.9c-4.5,3.2-9.6,5.4-15,6.4c-11.3,2-24-2.6-29.7-12.5c-14.2-24.6,13.7-54,38.6-52.3
			c3.8,0.2,7.5,1.2,10.9,2.9c5.6,3,9.8,8,11.8,14c2,6,2.2,12.4,0.7,18.5c-0.1,0.7-0.4,1.3-0.8,1.8c-0.8,0.9-2.2,1-3.4,1l-41.2,0
			c-0.6-0.1-1.3,0.1-1.8,0.5c-0.3,0.5-0.4,1.1-0.3,1.6c0.7,4.4,3.9,7.9,8.2,9.2c4.2,1.1,8.8,0.4,12.4-2c1.6-1.1,3.2-2.4,5-3
			c1.4-0.4,2.8-0.5,4.2-0.4l12.4,0.1c0.2,0,0.4,0,0.6,0.1c0.4,0.3,0.2,1-0.1,1.4C369.2,347.2,365,351.5,360.1,354.9z M346.6,322.3
			c4.1,0,8.2,0,12.3,0c1.5,0,1.9-0.6,1.6-2c-0.6-2.7-2.3-5.1-4.6-6.6c-7.3-4.6-18.9-1-22.6,6.9c-0.6,1.2-0.3,1.6,1,1.6
			C338.3,322.2,342.4,322.3,346.6,322.3z"/>
		<path id="Path_5308" class="st2" d="M183.1,277.4H203c2.6,0,2.5,0,2.2,2.5c-0.6,4.9-1.8,9.6-2.6,14.5c-0.2,1.5-1,1.8-2.3,1.8
			c-6.9,0-13.8,0-20.7-0.1c-1.8,0-2.5,0.7-2.8,2.4c-0.5,3.2-1.1,6.4-1.7,9.6c-0.3,1.5,0.3,2,1.8,2c6.5,0,12.9,0,19.4-0.1
			c1.8,0,2.3,0.5,2,2.3c-0.7,4.9-1.9,9.6-2.6,14.4c-0.2,1.4-1,1.8-2.4,1.8c-6.5,0-13.1,0-19.6-0.1c-1.9,0-2.7,0.5-3,2.5
			c-1.5,9-3.3,18-4.9,27c-0.3,1.6-1,2-2.6,2c-5.4-0.1-10.8-0.1-16.2,0c-1.5,0-2-0.4-1.7-2c2.5-13,4.8-26.1,7.2-39.1
			c2.5-13.4,5-26.8,7.5-40.2c0.3-1.5,1.3-1.5,2.3-1.5L183.1,277.4z"/>
		<path id="Path_5309" class="st2" d="M217.2,277.4c2.5,0,5,0,7.5,0c1.3,0,1.9,0.3,1.6,1.7c-0.7,3.6-1.3,7.3-1.9,10.9
			c-0.1,1-1,1.8-2,1.8c-0.1,0-0.1,0-0.2,0c-5,0-10.1,0-15.1,0c-1.3,0-1.8-0.3-1.5-1.8c0.7-3.5,1.3-7.1,1.9-10.7c0-1.1,1-2,2.1-2
			c0.1,0,0.3,0,0.4,0C212.4,277.5,214.8,277.4,217.2,277.4L217.2,277.4z"/>
		<path id="Path_5310" class="st2" d="M234.5,195.7c-2.5,0-5,0-7.5,0c-1.2,0-1.7-0.5-1.4-1.7c0.7-3.6,1.4-7.2,2.1-10.9
			c0.2-0.8,0.5-1.3,1.4-1.3c5.2,0,10.5,0,15.7,0c1,0,1.3,0.5,1.2,1.3c-0.4,3.9-1.3,7.7-2,11.5c-0.2,1-1,1-1.8,1
			C239.6,195.7,237.1,195.7,234.5,195.7L234.5,195.7z"/>
	</g>
</g>
</svg>
