<?xml version="1.0" encoding="utf-8"?>
<!-- Generator: Adobe Illustrator 26.0.1, SVG Export Plug-In . SVG Version: 6.00 Build 0)  -->
<svg version="1.1" id="GeorgeSamuel.me" xmlns="http://www.w3.org/2000/svg" xmlns:xlink="http://www.w3.org/1999/xlink" x="0px"
	 y="0px" viewBox="0 0 512 512" style="enable-background:new 0 0 512 512;" xml:space="preserve">
<style type="text/css">
	.st0{fill:#111111;}
	.st1{fill:#FFFFFF;}
</style>
<g id="www.GeorgeSamuel.me">
	<rect class="st0" width="512" height="512"/>
	<circle class="st0" cx="256" cy="256" r="256"/>
	<path id="Path_7218" class="st1" d="M216,259.5h-18.4c-0.7-0.2-1.4-0.5-1.9-1.1c-6.5-5.5-13.3-11-19.8-16.4
		c-0.4-0.3-0.9-0.6-1.4-0.7h-15.6v18.2H147v-29h44c2,0,4.1-0.3,6-0.9c2.6-0.6,4.3-3,4.1-5.7c0.4-2.7-1.4-5.1-4.1-5.7
		c-2.1-0.6-4.3-0.9-6.5-0.9H147v-11.1h44.6c4.8-0.2,9.6,0.9,13.8,3.2c5.7,3.1,8.8,9.5,7.8,15.9c-0.2,6.4-4.5,12-10.6,14
		c-2.9,0.9-5.9,1.6-8.8,2.1L216,259.5L216,259.5z"/>
	<path id="Path_7219" class="st1" d="M308.4,221.1v38.2h-11.7v-53.2h10.1c0.6,0.1,1.1,0.4,1.4,0.9l44.2,36.6
		c0.4,0.2,0.5,0.5,1.1,0.9v-38.2h11.9v53.2h-10.3c-0.5,0-1.1-0.5-1.4-0.9L309.4,222C309.3,221.6,309.1,221.5,308.4,221.1z"/>
	<path id="Path_7220" class="st1" d="M288.4,248.4v11h-64v-31.5h52.2v10.1h-40.9v10.6L288.4,248.4z"/>
	<path id="Path_7221" class="st1" d="M69.9,259.3L99.8,208c0.3-0.7,0.8-1.2,1.4-1.6c0.8-0.4,1.6-0.5,2.5-0.4h7.3
		c2.5,0,2.7,1.6,3.9,3.5c2.5,4.2,5,8.3,7.4,12.6c5,8.3,9.7,16.6,14.7,25.1l3.5,6c0.4,0.7,2.8,6,3.5,6l-11,0.2
		c-0.8,0.1-1.6-0.1-2.3-0.4c-0.5-0.4-0.9-0.9-1.2-1.4l-22.6-39.8l-22.6,39.8c-0.3,0.6-0.7,1.1-1.2,1.4c-0.6,0.3-1.3,0.4-1.9,0.4
		L69.9,259.3z"/>
	<path id="Path_7222" class="st1" d="M368.8,259.3c1.6-2.7,3-5.3,4.4-7.8c8.5-14.5,17-29.2,25.6-43.7c0.5-1.2,1.7-1.9,3-1.8
		c2.8,0.2,5.8,0,8.7,0c0.6,0,1.1,0.4,1.4,0.9c10.1,17.2,20.2,34.1,30.1,51.3c0.1,0.4,0.3,0.7,0.5,1.1c-0.5,0-0.9,0.2-1.2,0.2h-10.4
		c-1,0.1-2-0.5-2.3-1.4c-7.3-12.9-14.7-25.8-21.9-38.7c-0.3-0.5-0.6-1-0.9-1.4c-1.2,2.1-2.5,4.1-3.5,6.2l-19.1,34
		c-0.5,1-1.6,1.6-2.7,1.4h-9.9C370,259.5,369.4,259.5,368.8,259.3z"/>
	<path id="Path_7223" class="st1" d="M224.3,217v-10.8h64V217H224.3z"/>
	<path id="Path_7224" class="st1" d="M416.6,286h3.7c2.5,0,7.1-0.2,8.5,2.5c0.3,0.8,0.4,1.6,0.4,2.5v9.9c0.1,0.9-0.1,1.8-0.5,2.7
		c-0.9,1.6-3,1.9-4.8,2.1c-5.2,0.5-10.5,0.4-15.7-0.2c-1.5,0-3-0.7-3.9-1.9c-0.4-0.7-0.5-1.5-0.4-2.3c-0.2-3.5-0.2-7,0-10.4
		c0-1.1,0.2-2.2,0.7-3.2c1-0.9,2.3-1.4,3.7-1.4C410.9,286,413.8,286,416.6,286z M416.4,289l-6.9,0.2c-0.7-0.1-1.3,0.2-1.8,0.7
		c-0.1,0.3-0.2,0.7-0.2,1.1v10.1c-0.1,0.5,0.1,1,0.4,1.4c0.3,0.2,0.7,0.3,1.1,0.4c4.8,0.2,9.7,0.2,14.5,0c0.4,0,0.7,0,1.1-0.2
		c0.4-0.3,0.5-0.8,0.4-1.2c0.2-3,0.2-5.8,0.2-8.8c0.1-0.8-0.1-1.6-0.4-2.3c-1.1-1.9-5-1.1-6.7-1.1L416.4,289z"/>
	<path id="Path_7225" class="st1" d="M310.3,286h7.1c1.1,0,2.2,0.3,3.2,0.7c1.4,0.5,2.3,1.9,2.3,3.4v11.5c0,1.5-0.9,2.8-2.3,3.2
		c-1.4,0.5-2.8,0.8-4.2,0.9c-4.1,0.2-8.3,0-12.6,0c-0.7,0-1.3,0-1.9-0.2c-3.5-0.5-4.6-1.8-4.6-5.3v-9.4c-0.4-2.2,1.1-4.2,3.3-4.6
		c0,0,0.1,0,0.1,0h0.2c1.2-0.2,2.4-0.3,3.5-0.4C306.4,285.8,308.4,286,310.3,286L310.3,286z M310.3,289h-6.5c-2.1,0-2.5,0.5-2.5,2.5
		v8.8c0,1.6,0.5,2.3,2.1,2.3h13.8c1.4,0,2.1-0.7,2.1-2.3v-8.8c0-2.1-0.4-2.7-2.7-2.7C314.4,289,312.4,289,310.3,289L310.3,289z"/>
	<path id="Path_7226" class="st1" d="M163,305.7v-2.8h17.1c0.9,0,2.5-0.5,2.7-1.1c0.3-1.4,0.2-2.9-0.2-4.2c-0.2-0.5-1.6-0.7-2.5-0.7
		H169c-1.3,0-2.6-0.2-3.9-0.5c-1.9-0.4-3.2-2.1-3-4.1c-0.4-5,1.9-5.8,5.7-6c5.8-0.2,11.7,0,17.5,0v2.8h-16.8c-2.5,0-2.8,0.4-2.8,2.8
		c-0.1,0.8,0.4,1.6,1.2,1.8h0.2c0.8,0.2,1.5,0.2,2.3,0.2h11.1c1.2,0,2.4,0.3,3.5,0.7c1.5,0.4,2.5,1.8,2.3,3.4v3.2
		c0.2,1.9-1.1,3.7-3,4.1c-1,0.3-2.1,0.5-3.2,0.5h-16.8C163.5,305.8,163.3,305.7,163,305.7z"/>
	<path id="Path_7227" class="st1" d="M190.6,305.8v-3h17.3c2.3,0,2.7-0.4,2.7-2.7c0-3-0.2-3.4-3.4-3.4h-12c-4.8-0.5-6.5-2.8-5.1-7.4
		c0.3-0.9,1-1.6,1.8-2.1c0.8-0.6,1.8-0.9,2.8-0.9H213v2.8h-16.8c-2.3,0-2.7,0.5-2.7,2.8c0,2.1,1.6,1.9,2.8,1.9c3.5,0.2,7.2,0,10.8,0
		c1.3,0,2.6,0.2,3.9,0.4c2.1,0.2,3.6,2.1,3.4,4.2c0,0,0,0,0,0v1.4c0,4.2-1.2,5.7-5.7,5.8c-4.2,0.2-8.8,0-13.1,0L190.6,305.8z"/>
	<path id="Path_7228" class="st1" d="M261.5,301.1v-14.9h3.5v19.5c-1.6,0.4-3.3,0-4.6-1.1c-5.5-4.4-11.1-8.7-16.8-12.9
		c-0.3-0.2-0.7-0.4-1.1-0.5v14.7H239v-19.5c1.5-0.4,3.1-0.1,4.2,0.9C249.3,291.7,255.3,296.3,261.5,301.1z"/>
	<path id="Path_7229" class="st1" d="M291.2,286h3.5v19.5c-1.4,0.4-2.9,0.1-4.1-0.7c-5.8-4.4-11.7-8.8-17.3-13.4
		c-0.2-0.2-0.4-0.2-0.9-0.5v14.7h-3.5V286c1.6-0.4,3.3,0,4.6,1.1c5.8,4.6,11.7,9,17.7,13.6L291.2,286z"/>
	<path id="Path_7230" class="st1" d="M112.7,291v14.7h-3.5v-19.5c1.7-0.4,3.5,0.1,4.8,1.2l16.5,12.7c0.4,0.2,0.7,0.5,1.2,0.9v-15
		h3.5v19.5c-1.4,0.4-2.9,0.1-4.1-0.7c-5.7-4.4-11.5-8.8-17.3-13.3C113.4,291.4,113,291.2,112.7,291z"/>
	<path id="Path_7231" class="st1" d="M432.5,286.2c1.5-0.3,3.1,0,4.4,0.9l16.5,12.7c0.4,0.4,0.9,0.5,1.4,1.1V286h3.5v19.5
		c-1.6,0.4-3.2,0-4.4-1.1c-5.5-4.4-11.1-8.7-16.8-12.9c-0.4-0.2-0.8-0.5-1.1-0.9v14.7h-3.5V286.2z"/>
	<path id="Path_7232" class="st1" d="M159.1,302.6v3h-20.2v-19.5h20.2v2.8h-16.3v4.8h15.4v2.8h-15.4v6L159.1,302.6z"/>
	<path id="Path_7233" class="st1" d="M57.9,288.9v5.8h15.2v3H57.7v8.1H54v-19.5h20v2.8L57.9,288.9z"/>
	<path id="Path_7234" class="st1" d="M338.9,302c2.1-3.2,3.9-6.2,5.8-9.2c1.2-1.6,2.2-3.2,3.2-5c0.5-1.4,2-2.1,3.4-1.8h1.6
		c-0.3,0.5-0.5,0.9-0.7,1.4c-3.7,5.7-7.4,11.5-11.3,17.2c-0.7,1.2-2.1,1.6-3.4,1.1c-0.4-0.2-0.7-0.5-0.9-0.9L325,287.3
		c-0.2-0.2-0.2-0.5-0.4-0.7c2.8-0.9,3.7-0.5,5.3,1.8l8.1,12.6C338.4,301.1,338.6,301.4,338.9,302z"/>
	<path id="Path_7235" class="st1" d="M375,305.7h-0.2c-2.2,0.6-4.6-0.5-5.5-2.7c-2.5-4.4-5.5-8.7-8.3-13.3c-0.9,1.4-1.8,2.7-2.7,3.9
		c-2.1,3.2-4.4,6.4-6.4,9.9c-1.2,2.3-3,2.5-5.5,2.1c1.8-2.8,3.5-5.5,5.5-8.1c2.3-3.5,4.6-6.9,6.9-10.4c0.8-1.1,2.2-1.4,3.4-0.7
		c0.2,0.2,0.5,0.4,0.5,0.5c4.1,6,8.1,12.2,12,18.4C375,305.3,375,305.5,375,305.7z"/>
	<path id="Path_7236" class="st1" d="M383.9,288.8v16.8h-3.7V289h-10.3v-2.8h23.9v2.7H383.9z"/>
	<path id="Path_7237" class="st1" d="M82.8,286h23.9v2.8h-9.9v16.6h-3.9v-16.6H82.7L82.8,286z"/>
	<path id="Path_7238" class="st1" d="M76.5,286H80v19.5h-3.5V286z"/>
	<path id="Path_7239" class="st1" d="M235.3,305.7h-3.5v-19.5h3.5V305.7z"/>
	<path id="Path_7240" class="st1" d="M400,305.7h-3.5v-19.5h3.5V305.7z"/>
</g>
</svg>
