<?xml version="1.0" encoding="utf-8"?>
<!-- Generator: Adobe Illustrator 26.0.1, SVG Export Plug-In . SVG Version: 6.00 Build 0)  -->
<svg version="1.1" id="George_Samuel" xmlns="http://www.w3.org/2000/svg" xmlns:xlink="http://www.w3.org/1999/xlink" x="0px"
	 y="0px" viewBox="0 0 512 512" style="enable-background:new 0 0 512 512;" xml:space="preserve">
<style type="text/css">
	.st0{fill:#FFFFFF;}
	.st1{fill:#EE4035;}
	.st2{fill:#27A9E3;}
</style>
<g id="www.GeorgeSamuel.me_00000068651417084942886420000012299368070767714978_">
	<rect class="st0" width="512" height="512"/>
	<circle class="st0" cx="256" cy="256" r="256"/>
	<g id="www.GeorgeSamuel.me">
		<path class="st1" d="M395.1,71.9c-1.5-1.5-3.8-0.8-5.4,0c-41.6,19.3-83.2,37.8-124.8,57c-3.1,1.5-6.2,3.9-5.4,6.9
			c10.8,6.9,22.4,11.6,34.7,15.4c0.8,0,2.3,0.8,3.1,1.5c0.8,1.5,0.8,2.3,0.8,3.9V243c0,3.1,0,6.9-3.1,8.5c-2.3,0.8-4.6,0.8-6.2-0.8
			h-26.2c-0.8,0-0.8,0-1.5,0H254c-0.8,0-1.6,0-2.3-0.8c-0.8-0.8-1.5-2.3-0.8-3.1c0-21.6,0-43.2,0.8-64c0-1.5,0-3.9-1.5-5.4l-0.8-0.8
			c-0.8-0.8-1.5-0.8-2.3-0.8c-4.6-2.3-9.2-3.9-13.9-6.2c-1.5-0.8-3.1-0.8-4.6-0.8c-1.5,1.5-1.5,3.1-1.5,4.6v192.7
			c0,2.3,0,4.6,1.5,6.9c1.5,1.5,3.1,3.1,5.4,3.8c51.6,20.8,104,41.6,155.7,63.2c1.5,0.8,3.9,1.5,4.6,0c0.8-0.8,0.8-2.3,0.8-3.1V75
			C395.8,74.2,395.8,72.7,395.1,71.9z M297.2,364.7c-0.8,0.8-1.5,0-2.3,0c0,0,0,0-0.8,0c-13.9-4.6-27-9.2-40.8-13.9
			c-0.8,0-2.3-0.8-2.3-1.5c-0.8-0.8-0.8-1.5-0.8-2.3v-65.5c0-2.3-0.8-9.2,0-10.8c0.8-0.8,3.1-1.5,6.2-1.5h30.8c0.8,0,1.5,0,3.1-0.8
			h4.6c0.8,0,1.5,0.8,1.5,0.8c0,0.8,0.8,1.5,0.8,2.3c0.8,31.6,0.8,61.6,0.8,91.7C297.9,364,297.9,364.7,297.2,364.7z M352.7,380.2
			c0,1.5,0,3.1-1.5,3.1c-0.8,0-0.8,0-1.5,0c-10-3.1-20-6.9-30.1-10c-0.8,0-1.5-0.8-1.5-0.8c-0.8-0.8-0.8-1.5-0.8-2.3v-92.5
			c0-4.6-0.8-6.9,4.6-6.9h27.7c0.8,0,2.3,0,2.3,0.8c0.8,0.8,0.8,1.5,0.8,2.3V380.2z M352.7,132.8v113.3c0,1.5,0,3.1-1.5,3.9
			c-0.8,0.8-1.5,0.8-2.3,0.8h-27.7c-1.5,0-2.3,0-3.1-0.8c-0.8-0.8-0.8-1.5-0.8-2.3V159c-0.8-3.1-2.3-12.3,0-15.4
			c2.3-3.1,11.6-4.6,15.4-6.2c5.4-2.3,11.6-3.8,17-6.2c0.8,0,2.3-0.8,3.1,0C352.7,132,352.7,132,352.7,132.8z"/>
		<path class="st2" d="M287.9,249.9c-0.8-0.8-0.8-0.8-1.5-1.5c-1.5-3.1-1.5-6.2-1.5-9.2c0-26.2,0.8-51.6,0.8-77.8
			c0-2.3,0-4.6-1.5-6.9c-1.5-1.5-3.1-3.1-5.4-3.8c-29.3-15.4-59.3-30.1-88.6-44.7c-15.4-7.7-30.1-14.6-45.5-22.4
			c-3.9-1.5-6.9-3.8-10.8-5.4c-3.8-2.3-6.9-3.9-11.6-5.4c-7.7,0-4.6,12.3-4.6,17v352.2c47.8-16.2,94.8-33.1,141.8-50.9
			c-12.3-5.4-24.7-10.8-37-16.2c-1.5-0.8-3.1-1.5-4.6-3.1c-0.8-1.5-0.8-3.1-0.8-4.6v-90.9c0-4.6,3.1-11.6,6.9-9.2c0,0,0.8,0,0.8,0.8
			v-17.7l-0.8,0.8c-2.3,0.8-5.4,0-6.2-2.3c-0.8-2.3-1.5-4.6-0.8-6.9c0-14.6,0.8-30.1,0.8-44.7v-32.4c0-2.3-0.8-6.9,3.1-5.4
			c13.1,5.4,27,10.8,39.3,17c0.8,0,2.3,0.8,2.3,1.5c0.8,0.8,0.8,1.5,0.8,2.3v67.8c0.8,0.8,0.8,1.5,0,2.3H287.9z M161.5,133.5
			c11.6,4.6,23.1,9.2,33.9,14.6c1.5,0.8,3.9,1.5,4.6,3.1c0,0.8,0.8,1.5,0.8,2.3v91.7c0,2.3,0,5.4-2.3,6.2c-0.8,0.8-2.3,0.8-3.1,0.8
			h-32.4c-0.8,0-1.5,0-2.3-0.8c-0.8-0.8-1.5-2.3-1.5-3.8V144.3C159.2,142,157.7,132,161.5,133.5z M200.8,374.8v2.3
			c0,0.8,0,1.5-0.8,1.5c-0.8,1.5-2.3,1.5-3.9,2.3c-10.8,3.1-21.6,5.4-32.4,8.5c-0.8,0.8-2.3,0-3.1,0c-0.8-0.8-0.8-1.5-0.8-3.1v-94.8
			c-0.8-6.2-0.8-12.3,0-19.3c0.8-5.4,6.2-3.8,10.8-3.8h27c0.8,0,1.5,0,2.3,0.8c1.5,1.5,1.5,3.1,1.5,4.6
			C200.8,307.7,200.8,341.6,200.8,374.8z"/>
		<path class="st2" d="M286.4,270.7c-0.8,0.8-0.8,1.5-0.8,1.5c0,26.2,0,53.2,0,79.4c0,1.5,0,3.9-2.3,4.6c-0.8,0-1.5,0-2.3,0
			c-3.9-1.5-8.5-2.3-12.3-3.9c-1.5,0-3.1-1.5-3.9-2.3c-0.8-1.5-0.8-2.3-0.8-3.9c0-23.9,0-48.6,0-72.4c0-0.8,0-1.5-0.8-2.3l-0.8-0.8
			L286.4,270.7L286.4,270.7z"/>
	</g>
</g>
</svg>
