<?xml version="1.0" encoding="utf-8"?>
<!-- Generator: Adobe Illustrator 26.0.1, SVG Export Plug-In . SVG Version: 6.00 Build 0)  -->
<svg version="1.1" id="George_Samuel" xmlns="http://www.w3.org/2000/svg" xmlns:xlink="http://www.w3.org/1999/xlink" x="0px"
	 y="0px" viewBox="0 0 512 512" style="enable-background:new 0 0 512 512;" xml:space="preserve">
<style type="text/css">
	.st0{fill:#FFFFFF;}
	.st1{fill:#662483;}
	.st2{fill:#EB6095;}
</style>
<g id="www.GeorgeSamuel.me_00000039101621366728098960000005011923065071056814_">
	<rect class="st0" width="512" height="512"/>
	<circle class="st0" cx="256" cy="256" r="256"/>
	<g id="www.GeorgeSamuel.me">
		<path id="Path_8858" class="st1" d="M102.8,309.7c0.2-0.4,0.2-0.7,0.4-1.1c6.2-13.1,12.2-25.9,18.3-39c0.2-0.4,0.4-0.8,0.5-1.3
			c-2.4,0.4-4.5,0.5-6.7,0.9c-7.3,1.1-14.7,2.2-21.9,3.4c-21,4-41.2,10.3-60.2,20.1c-1.8,0.9-3.6,2-5.4,3.1
			c-0.4,0.2-0.5,0.4-0.9,0.5l-0.4-0.4c0.3-0.1,0.6-0.3,0.9-0.5c9.6-9.4,20.7-16.5,32.5-22.5c16.5-8.2,33.9-14.4,51.9-18.5
			c11.5-2.7,23.1-4.6,34.8-5.8c14.1-1.5,28.3-2,42.4-1.5c9.1,0.4,18.1,0.7,27.2,1.6c15.5,1.3,31,3.6,46.2,6.9
			c12.9,2.7,25.6,5.8,38.4,8.7c10.4,2.3,21,4.2,31.6,5.4c9.2,1.1,18.5,2.2,27.7,2.9c11.9,0.9,23.8,0.9,35.7,0
			c13.4-1,26.8-3.4,39.7-7.1c13.8-4.2,26.8-10.2,38.1-19c3.4-2.7,6.5-6,9.8-9.1c0.4-0.4,0.7-0.9,1.1-1.3l0.2,0.2
			c-0.3,0.7-0.7,1.4-1.1,2c-4.7,7.3-10.5,13.8-17.2,19.2c-11.7,9.4-25,16.5-39.4,21c-1.3,0.4-2.5,0.9-4,1.3
			c-0.7,0.2-0.9,0.7-0.9,1.5v18.7c0.1,1.1-0.5,2.2-1.6,2.5c-5.7,3-11.8,5.3-18.1,6.9c-0.1,0-0.2,0.1-0.2,0.2c0,0,0,0,0,0h-73.1
			c-0.4-0.5-0.9-0.9-1.1-1.5l-9.2-20.1c-0.3-0.9-1.1-1.5-2-1.6c-3.3-0.5-6.5-1.1-10-1.6c-13.2-2-26.3-4.4-39.4-7.3
			c-0.9-0.2-1.3,0-1.8,0.9c-4.5,10-9.2,19.8-14,29.6c-0.4,0.5-0.9,1.1-1.3,1.6h-61.1c-0.5-0.6-1-1.3-1.5-2
			c-6.2-13.2-12.3-26.7-18.5-39.9c-0.5-0.9-1.1-1.5-2.2-1.3c-10.9,0.4-21.8,0.5-32.6,0.7c-2.3-0.1-4.5,1.3-5.3,3.4
			c-5.8,12.5-11.6,24.8-17.4,37.4c-0.4,0.6-0.8,1.2-1.1,1.8C108.1,309.8,105.5,309.7,102.8,309.7z M188.6,267.3
			c0.2,0.5,0.2,0.7,0.4,0.9c2.9,6.3,5.8,12.9,8.9,19.2c5.4,10.9,14,17.2,26.5,17.8c5.3,0.3,10.6-1.1,15.1-4c7.6-5.1,9.2-14.3,4-21.8
			c-1.9-2.6-4.3-4.9-6.9-6.7c-0.6-0.4-1.3-0.7-2-0.9c-6-0.9-12.2-1.6-18.1-2.4c-5.4-0.5-11.1-1.1-16.5-1.6
			C196,267.7,192.4,267.5,188.6,267.3L188.6,267.3z M347.1,289.1c0,0.2-0.2,0.2-0.2,0.4c1.8,1.8,3.4,3.8,5.4,5.6
			c8.7,7.6,19,11.1,30.6,10.9c7.2,0,14.2-2.2,20.1-6.2c0.9-0.6,1.4-1.5,1.5-2.5v-12.1C385.6,288.6,366.3,289.9,347.1,289.1
			L347.1,289.1z"/>
		<path id="Path_8859" class="st2" d="M337.5,265.9c-2.9-0.5-5.6-0.9-8.5-1.3c-6.9-1.1-13.8-2.4-20.7-3.4c-0.9-0.1-1.7-0.7-2-1.6
			c-4.7-10.3-9.6-20.9-14.3-31.2c-0.3-0.6-0.6-1.2-0.9-1.8c-1.8,4-3.6,7.8-5.6,11.8c-2.4,4.9-4.7,9.8-6.9,14.7
			c-0.2,0.8-1.1,1.3-1.9,1.1c0,0-0.1,0-0.1,0c-2.2-0.5-4.5-1.1-6.9-1.6c0.1-0.4,0.3-0.9,0.5-1.3c7.4-16,15.1-31.9,22.5-47.9
			c0.4-0.9,1.2-1.5,2.2-1.5c3.1,0,3.1-0.4,4.5,3.1c2.7,6.3,5.8,12.7,8.7,19c2.9,6.2,5.8,12.3,8.5,18.7c0.2,0.5,0.4,0.9,0.7,1.3
			c0.9-2.5,1.8-4.9,2.7-7.3c7.6-17.4,21-28.1,39.2-32.8c12.2-3.1,24.1-2.7,35.9,2c11.4,4.7,20.1,12.9,26.7,23.4
			c-2.5,1.8-5.3,3.4-7.8,5.3c-0.5-1.1-1.1-2-1.6-2.9c-2.1-3.8-4.6-7.4-7.4-10.7c-6.5-7.3-14.3-11.2-24.1-11.2
			c-10.5,0-20.1,2.9-28.3,9.8c-6.3,5.4-10.9,12.5-13.2,20.5c-2.4,7.8-3.2,16-2.2,24.1C337.3,264.6,337.5,265.2,337.5,265.9z"/>
		<path id="Path_8860" class="st2" d="M259.5,226.3c-3.3,1.5-6.2,2.9-9.4,4.4c-0.3-0.6-0.5-1.3-0.7-2c-1.4-4-3.5-7.7-6.3-10.9
			c-5.1-5.8-11.6-8.3-19.2-8.7c-4.7-0.3-9.3,0.7-13.4,2.9c-5.4,3.3-8.2,7.8-7.8,14.3c0.3,2.4,1.2,4.6,2.7,6.5
			c2.7,3.6,6.3,6.2,10,8.5c1.3,0.9,2.7,1.6,4,2.5c0.4,0.2,0.7,0.5,1.1,0.7c-2.2-0.2-4.2-0.4-6.2-0.4c-7.1-0.5-14.1-0.9-21-1.5
			c-0.9,0-1.6-0.5-2-1.3c-2.7-4.9-3.1-10-2.4-15.4c1.6-11.4,8.7-18.3,19.2-21.9c5.4-2,11.2-2.4,17-2.2c5.6,0.1,11.1,1.2,16.3,3.3
			c8,3.4,13.2,9.4,16.7,17.4C258.4,223.8,259,225.1,259.5,226.3z"/>
		<path id="Path_8861" class="st2" d="M177,242.5h-5.1c-3.8,0.2-7.8,0.2-11.6,0.4c-0.9,0.1-1.7-0.4-2-1.3c-2.2-5.1-4.5-10-6.9-15.2
			c-0.1,0.4-0.3,0.7-0.5,1.1c-2.5,5.3-4.9,10.3-7.4,15.6c-0.2,0.9-1.1,1.5-2,1.5c-2.5,0.4-5.3,0.7-7.8,1.1h-0.5l0.5-1.1
			c6.5-13.8,12.9-27.6,19.4-41.3c0.7-1.5,0.9-1.6,2.5-1.5h0.2c2.9-0.2,2.5-0.5,4,2.5c5.6,12.1,11.2,24.5,16.9,36.6
			C176.5,241.4,176.6,242,177,242.5z"/>
	</g>
</g>
</svg>
