<?xml version="1.0" encoding="utf-8"?>
<!-- Generator: Adobe Illustrator 26.0.1, SVG Export Plug-In . SVG Version: 6.00 Build 0)  -->
<svg version="1.1" id="GeorgeSamuel.me" xmlns="http://www.w3.org/2000/svg" xmlns:xlink="http://www.w3.org/1999/xlink" x="0px"
	 y="0px" viewBox="0 0 512 512" style="enable-background:new 0 0 512 512;" xml:space="preserve">
<style type="text/css">
	.st0{fill:#FFFFFF;}
	.st1{fill:#A66C46;}
	.st2{fill:#124082;}
</style>
<g id="www.GeorgeSamuel.me_00000023970671532456521620000000662536655218367639_">
	<rect class="st0" width="512" height="512"/>
	<circle class="st0" cx="256" cy="256" r="256"/>
	<g id="www.GeorgeSamuel.me">
		<path class="st1" d="M357.8,48.8c0,2.4-0.8,4.8-1.6,7.2c0,0.8-0.8,0.8-1.6,0.8c-1.6,0-3.2,0-4.8,0.8c-3.2,0.8-5.6,2.4-7.2,4.8
			c-0.8,1.6-1.6,1.6-3.2,1.6c-2.4,0.8-4.8,1.6-7.2,2.4c-0.8,0.8-2.4,1.6-2.4,2.4c-0.8,0.8-0.8,2.4,0,3.2c0,2.4,1.6,3.2,2.4,2.4
			c1.6,0,3.2-0.8,4.8-0.8c0.8,0,2.4,0,3.2,0.8c2.4,1.6,4.8,2.4,7.2,3.2c0,0.8-1.6,0.8-1.6,0.8c-4,1.6-7.2,4-9.6,7.2
			c-2.4,3.2-5.6,6.4-7.2,10.4c0,0.8-0.8,1.6-1.6,1.6c-0.8,0-0.8,0.8-1.6,0.8c-2.4,0.8-3.2,3.2-5.6,3.2c-2.4,0-4,1.6-5.6,2.4
			c0,0-0.8,0-1.6,0V103c0.8-0.8,0.8-2.4,0-3.2c-1.6,0-1.6-0.8-2.4-1.6c-0.8-0.8-0.8-0.8-1.6,0c-1.6,1.6-3.2,2.4-4.8,4
			c0,0-0.8,0.8,0,0.8c0.8,0.8,0.8,2.4,0.8,3.2c0,4.8,0,9.6,0,15.1c0,0.8,0,1.6,0,1.6c0.8,0,0.8-0.8,1.6-1.6c1.6-3.2,3.2-6.4,4.8-9.6
			c0.8-1.6,1.6-1.6,2.4-1.6c0.8,0,1.6,0,1.6,0c2.4,0.8,4.8,1.6,7.2,0.8c0.8,0,1.6,0,1.6,0c0.8,0,0.8,0.8,0.8,0.8c0,0.8,0,0.8,0,1.6
			c0,4,0.8,8,2.4,12c1.6,3.2,4,6.4,7.2,8.8c0.8,0.8,0.8,0.8,1.6,1.6v0.8c-1.6,0-2.4,0-3.2-0.8c-1.6-1.6-2.4-3.2-4-4.8
			c-3.2-4.8-5.6-9.6-8-14.3c0-0.8-0.8-1.6-0.8-2.4c-0.8,0-0.8,0-1.6,0c-1.6,0-4,0-5.6-0.8c-0.8,1.6-0.8,2.4-1.6,4
			c-1.6,3.2-3.2,6.4-5.6,8.8c-0.8,1.6-1.6,3.2-1.6,4.8c0,12-1.6,23.1-6.4,34.3c-8,20.7-21.5,35.9-40.6,47c0,0-0.8,0-0.8,0.8
			c-0.8,0.8-1.6,0-2.4,0c-2.4-1.6-4.8-2.4-7.2-4c-20.7-13.5-33.5-32.7-39-56.6c-1.6-6.4-2.4-13.5-2.4-19.9c0-2.4-0.8-4-1.6-5.6
			c-2.4-4-4.8-7.2-6.4-12c0-0.8-0.8-0.8-1.6-0.8c-0.8,0.8-2.4,0.8-3.2,0.8c-1.6,0-2.4,0-3.2,1.6c-2.4,5.6-4.8,11.2-8.8,16.7
			c-0.8,1.6-2.4,2.4-3.2,4c-0.8,0.8-1.6,0.8-3.2,0.8h-0.8v-0.8c0.8-0.8,1.6-1.6,2.4-2.4c3.2-3.2,5.6-6.4,7.2-10.4
			c1.6-3.2,1.6-6.4,1.6-9.6c0-0.8,0-0.8,0-1.6c0-0.8,0-1.6,1.6-1.6c0.8,0,0.8,0,1.6,0c2.4,0,4.8,0,7.2-0.8c0.8,0,0.8,0,1.6,0
			c1.6,0,2.4,0.8,3.2,1.6c1.6,3.2,3.2,6.4,4,9.6c0,0.8,0.8,0.8,0.8,1.6h0.8c0-0.8,0-1.6,0-1.6c0-4.8,0-9.6,0-13.5c0-0.8,0-1.6,0-2.4
			c0.8-1.6,0-2.4-1.6-4c-0.8-0.8-1.6-1.6-2.4-1.6c-1.6-1.6-2.4-1.6-3.2,0c0,0.8-0.8,0.8-0.8,1.6c-0.8,0.8-0.8,1.6,0,2.4
			c0,0,0,0.8,0.8,0.8c-0.8,0-1.6,0-2.4-0.8c-1.6-0.8-4-1.6-5.6-2.4c-0.8,0-1.6-0.8-2.4-1.6c-0.8-0.8-2.4-1.6-4-2.4
			c-1.6-0.8-2.4-1.6-3.2-2.4c-2.4-4.8-5.6-8.8-9.6-12.8c-1.6-1.6-3.2-2.4-5.6-3.2c-0.8-0.8-1.6-0.8-2.4-0.8c0-0.8,0.8-0.8,0.8-0.8
			c2.4-0.8,4-1.6,5.6-2.4c0.8-0.8,1.6-0.8,2.4-0.8c2.4-1.6,4-0.8,5.6-0.8s2.4,0,3.2-0.8c0.8-1.6,0.8-2.4,0-4
			c-0.8-0.8-1.6-1.6-2.4-2.4c-2.4-1.6-4.8-2.4-7.2-2.4c-1.6,0-2.4-0.8-3.2-1.6c-2.4-4-6.4-5.6-11.2-5.6c-1.6,0-2.4-0.8-2.4-1.6
			c-0.8-1.6-1.6-4-1.6-5.6c0.8-0.8,0.8,0,1.6,0c1.6,1.6,3.2,2.4,4.8,4c0.8,0.8,2.4,1.6,4,1.6c3.2,0,5.6,1.6,7.2,4c1.6,2.4,4.8,4,8,4
			s5.6,1.6,8,4c0.8,0.8,0.8,0.8,0,1.6l-0.8,0.8c-1.6,1.6-2.4,3.2-1.6,5.6c0,0,0,0.8,0,1.6c0,1.6-0.8,2.4-2.4,2.4
			c-1.6-0.8-4-0.8-5.6-1.6c-0.8,0-1.6,0-2.4-0.8c-0.8,0-1.6,0-1.6,0.8c0,0-0.8,0.8,0,0.8c0.8,0.8,1.6,0.8,1.6,1.6
			c3.2,2.4,5.6,4.8,8,7.2c0.8,1.6,2.4,3.2,3.2,4.8c0.8,0.8,0.8,1.6,2.4,2.4c1.6,0.8,2.4,0.8,4,0c2.4-1.6,4.8-2.4,6.4-4
			c0.8,0,1.6-0.8,2.4-0.8c1.6,0,4,0,5.6,1.6c3.2,3.2,6.4,6.4,9.6,9.6l0.8,0.8c0.8,0.8,1.6,0.8,2.4,0.8c1.6,0,4,0,5.6,0
			c8-0.8,15.9-0.8,23.1-0.8h0.8h0.8v0.8c-0.8,1.6-2.4,2.4-4,2.4c-3.2,0-6.4,0-9.6,0.8c-5.6,0-11.2,0.8-17.5,0.8
			c-1.6,0-2.4,0.8-4,0.8c-2.4,0-2.4,0-2.4,2.4c0,8,0,16.7,0,24.7c1.6,32.7,15.9,57.4,43.8,74.1l0.8,0.8c0.8,0.8,1.6,0.8,2.4,0
			c1.6-0.8,3.2-2.4,5.6-3.2c15.9-11.2,27.9-25.5,34.3-43c3.2-8,4.8-15.9,5.6-23.9c0.8-5.6,0-11.2,0-16.7c0-4,0-8.8,0-12.8
			c0-0.8,0-1.6,0-2.4c0-0.8,0-0.8-0.8-0.8c-2.4,0-4-0.8-6.4-0.8c-8.8-0.8-17.5-0.8-26.3-1.6c-1.6,0-3.2-0.8-4.8-2.4v-0.8
			c0,0,0,0,0.8,0c4,0,8,0,12,0c1.6,0,4,0,5.6,0c3.2,0,7.2,0,10.4,0.8c2.4,0,4-0.8,5.6-2.4c2.4-2.4,4.8-4.8,7.2-7.2
			c0.8-0.8,1.6-0.8,1.6-1.6c1.6-2.4,4-2.4,6.4-0.8c2.4,0.8,4,2.4,6.4,3.2l0.8,0.8c2.4,1.6,4,0.8,5.6-0.8c0,0,0-0.8,0.8-0.8
			c2.4-4.8,6.4-8.8,10.4-12c0.8-0.8,1.6-1.6,2.4-1.6c0,0,0-0.8,0-1.6c-0.8-0.8-1.6,0-2.4,0c-1.6,0.8-4,0.8-5.6,1.6
			c-0.8,0-0.8,0-1.6,0.8c-1.6,0-2.4,0-2.4-2.4c0-0.8,0-0.8,0-1.6c0.8-1.6,0-3.2-0.8-4.8c-0.8-0.8-0.8-0.8-1.6-1.6
			c-0.8-0.8,0-0.8,0-1.6c2.4-1.6,4.8-3.2,7.2-4c0.8,0,1.6,0,3.2-0.8c1.6-0.8,3.2-1.6,4.8-2.4c0.8-0.8,1.6-1.6,1.6-2.4
			c1.6-1.6,3.2-2.4,5.6-2.4c1.6,0,3.2-0.8,4.8-1.6C353.9,52,355.4,50.4,357.8,48.8z"/>
		<path class="st2" d="M365,255.2c0.8-4,2.4-8,3.2-11.2c0.8-0.8,1.6,0,2.4,0c2.4,0.8,4.8,0.8,7.2,0.8c28.7,0,57.4,0,86.1,0
			c2.4,0,5.6,0,8-0.8c0.8,0,1.6,0,0.8,0.8c-0.8,3.2-1.6,7.2-2.4,10.4c-0.8,0-0.8,0-1.6-0.8c-1.6-1.6-3.2-2.4-5.6-2.4
			c-3.2,0-7.2,0-10.4,0c-1.6,0-1.6,0-1.6,1.6c0,0.8,0,1.6,0,2.4c0,14.3,0,29.5,0,43.8c0,1.6,0,3.2,0,4.8c0,2.4,1.6,4.8,3.2,6.4
			l0.8,0.8c0,0.8-0.8,0.8-1.6,0.8c-4.8,0-8.8,0-13.5,0c-1.6,0-2.4,0-4.8,0c3.2-2.4,4-5.6,4-8.8c0-0.8,0-2.4,0-3.2c0-5.6,0-12,0-17.5
			c0-8.8,0-18.3,0-27.1c0-0.8,0-1.6,0-2.4c0-0.8,0-0.8-0.8-0.8c-0.8,0-1.6,0-1.6,0c-12,0-24.7,0-36.7,0c-3.2,0-3.2,0-3.2,3.2
			c0,15.1,0,31.1,0,46.2c0,0.8,0,1.6,0,2.4c0,2.4,0.8,5.6,3.2,7.2l0.8,0.8c-2.4,0-15.9,0.8-18.3,0l0,0c2.4-2.4,3.2-5.6,3.2-8.8
			c0-0.8,0-1.6,0-2.4c0-15.1,0-30.3,0-45.4c0-0.8,0-1.6,0-2.4c0-0.8,0-1.6-1.6-1.6c-4,0-7.2,0-11.2,0c-2.4,0-4.8,0.8-6.4,2.4
			C366.6,255.2,366.6,255.2,365,255.2z"/>
		<path class="st2" d="M313.2,242.5c7.2,0,13.5,1.6,19.1,4.8c9.6,5.6,15.9,13.5,17.5,24.7c2.4,15.1-3.2,28.7-16.7,36.7
			s-27.9,8-41.4,0c-19.9-12-23.1-39.8-5.6-55.8C294.1,245.6,302.9,242.5,313.2,242.5z M286.9,276.7c0,7.2,1.6,13.5,5.6,19.1
			c6.4,8.8,16.7,12.8,27.9,10.4c8.8-2.4,14.3-8,16.7-16.7c3.2-9.6,1.6-19.1-4-27.9c-3.2-4.8-8-8.8-13.5-10.4
			c-4.8-1.6-9.6-1.6-14.3,0c-8,2.4-13.5,7.2-16.7,15.1C286.9,269.5,286.9,273.5,286.9,276.7z"/>
		<path class="st1" d="M255.8,352.4c-8,0-15.9,0-23.9,0c-26.3,0-51.8,0-78.1,0s-53.4-0.8-79.7-0.8c-10.4,0-19.9,0-30.3,0
			c-0.8,0-1.6,0-2.4,0c-1.6,0-1.6-0.8-1.6-2.4c0,0,0-0.8,0.8-0.8c0,0,0.8,0,1.6,0c9.6,0,19.1,0,28.7,0c23.1,0,47,0,70.1-0.8
			c20.7,0,42.2,0,63,0c21.5,0,43.8,0,65.3,0c26.3,0,51.8,0,78.1,0c25.5,0,51,0,77.3,0.8c15.1,0,30.3,0,44.6,0.8c0.8,0,0.8,0,1.6,0
			c0.8,0,1.6,0.8,1.6,1.6c0,0.8,0,0.8-0.8,0.8c-0.8,0-1.6,0-2.4,0c-14.3,0-28.7,0-43,0c-13.5,0-26.3,0-39.8,0
			c-31.1,0.8-62.2,0-93.2,0C279.7,352.4,267.8,352.4,255.8,352.4L255.8,352.4z"/>
		<path class="st2" d="M111.6,312.6c-6.4,0-12.8,0-19.1,0c0-0.8,0.8-0.8,0.8-1.6c0.8-0.8,1.6-2.4,0.8-4c0-0.8,0-0.8-0.8-1.6
			c-2.4-5.6-4.8-11.2-6.4-16.7c-0.8-0.8-0.8-1.6-2.4-1.6c-7.2,0-15.1,0-22.3,0c-1.6,0-1.6,0.8-2.4,1.6c-1.6,5.6-4,10.4-5.6,15.9
			c0,0.8,0,1.6-0.8,1.6c0,1.6,0,3.2,1.6,4.8l0.8,0.8c-3.2,0.8-13.5,0.8-16.7,0c0,0,0-0.8,0.8-0.8c3.2-2.4,4.8-5.6,6.4-9.6
			c2.4-4,4-8.8,6.4-14.3c4-10.4,8.8-21.5,12.8-31.9c0-0.8,0.8-2.4,0.8-3.2c0.8-2.4,0.8-4.8-1.6-7.2c0.8-0.8,0.8-0.8,1.6-0.8
			c4,0,8,0,12,0c1.6,0,2.4,0.8,3.2,2.4c3.2,8,6.4,16.7,10.4,24.7c4,9.6,8,19.9,12,29.5c0.8,1.6,1.6,4,3.2,5.6c0.8,1.6,2.4,3.2,4,4.8
			C110.8,311.8,111.6,311.8,111.6,312.6z M83.7,279.1c-1.6-4-3.2-8-4.8-12.8c-1.6-4-3.2-8-4.8-12c-0.8,0-0.8,0.8-0.8,0.8
			c-3.2,7.2-5.6,15.1-8.8,22.3c0,0.8,0,0.8,0,1.6C70.2,279.1,76.5,279.1,83.7,279.1z"/>
		<path class="st2" d="M123.6,299c0.8,0.8,1.6,1.6,2.4,1.6c5.6,4,11.2,5.6,17.5,6.4c4.8,0,8.8-0.8,12.8-3.2c1.6-0.8,2.4-2.4,3.2-4
			c1.6-3.2,0.8-5.6-0.8-8c-0.8-1.6-2.4-3.2-4-4c-2.4-1.6-4.8-2.4-7.2-4c-4-1.6-8-3.2-11.2-5.6c-2.4-1.6-4.8-3.2-7.2-5.6
			c-6.4-6.4-6.4-19.1,2.4-24.7c2.4-1.6,5.6-3.2,8.8-4c8-1.6,15.9-1.6,24.7,0.8c1.6,0,1.6,0.8,1.6,1.6c0,3.2,0,6.4,0,8.8v0.8h-0.8
			c-3.2-2.4-7.2-4-11.2-4.8c-3.2-0.8-5.6-0.8-8.8,0c-1.6,0-3.2,0.8-4.8,2.4c-4,2.4-4.8,8-2.4,11.2c0.8,1.6,2.4,2.4,3.2,3.2
			c2.4,1.6,4.8,3.2,7.2,4c3.2,1.6,6.4,3.2,9.6,4.8c2.4,0.8,4,2.4,5.6,3.2c1.6,0.8,2.4,1.6,3.2,2.4c5.6,4.8,6.4,11.2,4,17.5
			c-1.6,4-4,7.2-7.2,9.6c-4,3.2-8.8,4.8-13.5,5.6c-7.2,0.8-14.3,0-21.5-1.6c-1.6-0.8-2.4-1.6-3.2-3.2c-0.8-2.4-1.6-5.6-1.6-8
			C123.6,300.6,123.6,299.8,123.6,299z"/>
		<path class="st2" d="M255.8,299.8c-1.6,4-3.2,7.2-4.8,10.4c0,0.8-0.8,1.6-1.6,1.6c-1.6,0.8-4,1.6-5.6,1.6
			c-9.6,1.6-19.1,0.8-27.9-2.4c-10.4-4-17.5-12-19.9-23.1c-1.6-8-1.6-15.9,1.6-23.9c4-9.6,11.2-15.9,20.7-19.1
			c6.4-2.4,12-2.4,18.3-1.6c4,0,8,0.8,11.2,1.6c1.6,0.8,1.6,0.8,2.4,2.4c0,3.2,0,5.6,0,8.8c0,0.8-0.8,0.8-0.8,0.8l-0.8-0.8
			c-4-2.4-8-4-12-4c-4.8-0.8-9.6-0.8-14.3,1.6c-5.6,2.4-9.6,6.4-12,12c-4.8,11.2-2.4,25.5,6.4,33.5c4.8,4.8,10.4,6.4,16.7,7.2
			c7.2,0,13.5-1.6,19.1-4.8C253.4,300.6,254.2,299.8,255.8,299.8z"/>
		<path class="st1" d="M285.3,76.7c1.6,0,2.4-0.8,3.2-1.6c0.8-0.8,0.8-0.8,1.6-1.6c1.6-1.6,4-2.4,6.4-1.6c0.8,0,1.6,0.8,0.8,1.6
			c-3.2,3.2-4.8,6.4-6.4,10.4c-0.8,0.8-0.8,2.4-0.8,3.2c-0.8,1.6-0.8,1.6-2.4,1.6c-1.6,0-3.2,0-4.8,0c-8.8-0.8-17.5-0.8-26.3-0.8
			c-8.8,0-18.3,0.8-27.1,0.8c-0.8,0-2.4,0-3.2,0c-1.6,0-1.6,0-2.4-1.6c-0.8-3.2-2.4-6.4-4-9.6c-3.2-1.6-4-3.2-5.6-4
			c-0.8-0.8-0.8-1.6,0.8-1.6c2.4-0.8,4.8,0,6.4,1.6c0.8,0.8,1.6,1.6,1.6,2.4c0.8,0.8,0.8,0.8,1.6,0.8c0,0,0.8,0,0.8-0.8
			c0-0.8,0-1.6,0-1.6c-0.8-1.6,0-2.4,0-4c0.8-1.6,2.4-3.2,4.8-3.2c2.4,0,4,1.6,4.8,3.2c0,0.8,0,1.6-0.8,0.8h-0.8
			c-1.6,0-3.2,1.6-2.4,3.2c0.8,0.8,1.6,1.6,2.4,2.4c4,1.6,8,1.6,11.2-0.8c1.6-0.8,2.4-3.2,2.4-5.6s-2.4-4-5.6-3.2l-0.8,0.8
			c-0.8,0-0.8,0.8-1.6,0.8c-0.8,0-0.8-0.8-0.8-1.6c0-4,3.2-7.2,7.2-7.2c3.2,0,5.6,0.8,7.2,3.2c0.8,0.8,0.8,0.8,0.8,1.6
			c1.6,1.6,2.4,1.6,2.4,0.8c1.6-2.4,3.2-3.2,5.6-4c3.2-0.8,6.4,0,8.8,2.4c1.6,0.8,1.6,2.4,0.8,4.8c0,0.8-0.8,0.8-0.8,0
			c-0.8,0-0.8-0.8-1.6-0.8c-1.6-1.6-4.8-0.8-4.8,3.2c0,2.4,0.8,4.8,3.2,5.6c3.2,1.6,6.4,1.6,9.6,0.8c0.8,0,1.6-0.8,2.4-1.6
			c0.8-1.6,0.8-2.4,0.8-3.2c-0.8-0.8-1.6-1.6-2.4-0.8h-0.8c-0.8,0-1.6-0.8-0.8-1.6c0.8-1.6,1.6-3.2,4-3.2c2.4-0.8,5.6,0.8,6.4,4
			c0,1.6,0,2.4,0,4C285.3,75.1,284.5,75.9,285.3,76.7z M259,77.5c0-2.4-1.6-4-4-4c-2.4,0-4,1.6-4,4c0,2.4,1.6,4,4,4
			C257.4,81.5,259,79.9,259,77.5z"/>
		<path class="st1" d="M235.1,201.8c-1.6,0-2.4,0-4,0c-18.3,0-37.5,0-55.8,0c-0.8,0-0.8,0-1.6,0c-1.6,0-1.6,0-1.6-2.4
			c0-2.4,0-2.4,2.4-2.4c4,0,8,0,12.8,0c0.8,0,1.6,0,2.4,0s1.6,0,1.6-0.8c0.8-2.4,0.8-4-0.8-6.4c-3.2-4-7.2-7.2-12.8-8.8
			c-1.6-0.8-3.2-1.6-3.2-4c0-3.2-1.6-6.4-2.4-9.6c0-0.8-0.8-0.8-0.8-1.6c0,0-0.8-0.8-0.8,0c-0.8,0-1.6,0.8-1.6,0.8
			c-4,2.4-7.2,3.2-12,4.8c0,0-0.8,0-1.6,0c0.8-0.8,1.6-0.8,2.4-1.6c5.6-3.2,11.2-6.4,15.1-12c1.6-1.6,2.4-4,4-5.6
			c1.6-4,2.4-7.2,0.8-12c0.8,0,0.8,0.8,1.6,0.8c2.4,2.4,4,5.6,4.8,9.6c0.8,2.4,0.8,4.8,0.8,8c0,4.8,0,9.6-1.6,14.3v0.8
			c-0.8,1.6,0,2.4,0.8,3.2c4,4,8,7.2,12.8,9.6c0.8,0,0.8,0.8,1.6,0.8c1.6,0.8,2.4,1.6,2.4,3.2c0,1.6,0.8,3.2,1.6,5.6
			c0,1.6,0.8,1.6,2.4,1.6c0.8,0,0.8,0,1.6,0c8,0,15.9,0,23.9,0c0.8,0,1.6,0,2.4,0.8C231.9,198.6,233.5,200.2,235.1,201.8z"/>
		<path class="st1" d="M334.7,140.5c-1.6,3.2-1.6,5.6,0,8.8c0.8,3.2,2.4,5.6,4.8,8c4,4.8,8.8,8.8,14.3,12c0.8,0.8,2.4,0.8,3.2,1.6
			c-2.4,0-4.8-0.8-7.2-1.6c-2.4-0.8-4.8-2.4-7.2-3.2c-1.6-0.8-1.6-0.8-2.4,0.8c-1.6,3.2-2.4,6.4-3.2,8.8c0,0.8,0,0.8,0,1.6
			c0,1.6-0.8,3.2-3.2,3.2c-4,0.8-6.4,3.2-9.6,5.6c-1.6,1.6-3.2,2.4-4,4c-0.8,1.6-0.8,4.8,0,5.6l0.8,0.8c1.6,0,2.4,0,4,0
			c4,0,8.8,0,12.8,0c0.8,0,1.6,0,2.4,0c0.8,0,0.8,0,0.8,0.8s0,1.6,0,2.4s-0.8,0.8-0.8,0.8c-0.8,0-1.6,0-1.6,0c-19.1,0-39,0-58.2,0
			c-0.8,0-2.4,0.8-2.4-0.8c0-0.8,0.8-1.6,1.6-1.6c1.6-1.6,2.4-2.4,4.8-1.6c8,0,15.1,0,23.1,0c0.8,0,0.8,0,1.6,0c1.6,0,1.6,0,2.4-1.6
			c0.8-1.6,0.8-3.2,1.6-4.8c0-2.4,1.6-4,3.2-4.8c4.8-2.4,8.8-5.6,12.8-8.8l0.8-0.8c0.8-0.8,0.8-1.6,0.8-2.4v-0.8
			c-1.6-5.6-1.6-12-1.6-17.5c0-3.2,0.8-7.2,2.4-10.4C332.3,142.8,333.1,141.2,334.7,140.5C333.1,141.2,333.9,140.5,334.7,140.5
			L334.7,140.5z"/>
		<path class="st1" d="M269.4,180.3c0,0.8,0,0.8-0.8,0.8c-1.6,0.8-2.4,1.6-3.2,3.2c-1.6,1.6-2.4,4-2.4,5.6c-0.8,3.2-1.6,5.6-1.6,8.8
			c0,1.6-0.8,1.6-1.6,2.4c-5.6,3.2-3.2,2.4-8.8,0c-0.8-0.8-1.6-1.6-1.6-3.2c0-3.2-0.8-6.4-2.4-9.6c-0.8-3.2-2.4-5.6-5.6-7.2
			c-0.8-0.8-0.8-0.8-0.8-1.6c2.4-5.6,6.4-10.4,12-13.5c1.6-0.8,2.4-0.8,4,0c5.6,3.2,8.8,8,12,13.5
			C269.4,180.3,269.4,180.3,269.4,180.3z M251.9,177.9c0,1.6,1.6,3.2,3.2,3.2c1.6,0,4-1.6,4-3.2c0-1.6-1.6-3.2-3.2-3.2
			C253.4,174.7,251.9,176.3,251.9,177.9z"/>
		<path class="st1" d="M396.9,134.1c-3.2,0-4-0.8-5.6-2.4c-0.8-1.6-1.6-3.2-2.4-4.8c-0.8-1.6-1.6-3.2-2.4-4c0-0.8-0.8-0.8-0.8-1.6
			c-0.8-0.8-1.6-0.8-1.6,0c0,0.8-0.8,0.8-0.8,1.6c0,1.6,0,2.4,0,4c0.8,1.6,0.8,3.2,1.6,5.6c0.8,3.2,1.6,6.4,1.6,9.6
			c0,2.4,0,4.8-0.8,8c0,1.6-0.8,3.2-2.4,4c-1.6,2.4-4,2.4-6.4,0.8c-1.6-0.8-3.2-2.4-4-5.6c0.8,0,0.8,0.8,0.8,0.8l0.8,0.8
			c0.8,0.8,2.4,0.8,3.2,0.8c1.6,0,2.4-1.6,3.2-3.2c0-1.6,0-2.4-0.8-4c-0.8-1.6-1.6-4-2.4-5.6c-0.8-2.4-2.4-5.6-4-8
			c-1.6-4.8-3.2-8.8-3.2-14.3c0-1.6,0-3.2,0.8-4.8c0.8-3.2,3.2-5.6,6.4-6.4c3.2-0.8,5.6,0,7.2,2.4c1.6,1.6,1.6,3.2,2.4,5.6
			c0.8,3.2,1.6,7.2,2.4,10.4C392.9,129.3,393.7,131.7,396.9,134.1z"/>
		<path class="st1" d="M136.3,150c-0.8,3.2-3.2,5.6-6.4,5.6c-1.6,0-3.2-0.8-4.8-1.6c-0.8-0.8-1.6-2.4-1.6-3.2
			c-0.8-2.4-0.8-5.6-0.8-8c0-4.8,1.6-8.8,2.4-12.8c0.8-1.6,0.8-4,0.8-5.6c0-0.8,0-1.6-0.8-2.4c-0.8-0.8-1.6-0.8-1.6,0
			c-0.8,0.8-1.6,2.4-2.4,4c-0.8,1.6-1.6,4-2.4,5.6c-0.8,0.8-1.6,1.6-2.4,2.4c-0.8,0-0.8,0.8-1.6,0.8H114v-0.8
			c0.8-0.8,1.6-2.4,2.4-3.2c0.8-1.6,0.8-3.2,1.6-4c0.8-3.2,1.6-7.2,2.4-10.4c0-1.6,0.8-3.2,1.6-4c3.2-5.6,9.6-5.6,13.5-0.8
			c1.6,2.4,1.6,4.8,2.4,7.2c0,4.8-0.8,8.8-2.4,13.5c-0.8,2.4-2.4,4.8-3.2,7.2c-0.8,2.4-2.4,4.8-3.2,7.2c0,0.8-0.8,2.4-0.8,3.2
			c0,3.2,3.2,4,5.6,3.2C134.7,151.6,135.5,150.8,136.3,150L136.3,150z"/>
		<path class="st1" d="M258.2,157.2c0-13.5,4-25.5,12-36.7c2.4-4,5.6-7.2,9.6-10.4c0.8-0.8,2.4-1.6,4-1.6c4,0,8.8,0.8,12.8,0.8
			c1.6,0,1.6,0.8,1.6,1.6c0,1.6,0,2.4,0,4c0,0.8-0.8,1.6-1.6,1.6c-1.6,0-2.4,0-4,0.8c-6.4,1.6-12,4.8-16.7,9.6
			c-8,7.2-12.8,16.7-15.1,27.1c-0.8,2.4-0.8,5.6-0.8,8v0.8c0,0,0,0-0.8,0c0,0,0,0-0.8,0c0-0.8,0-0.8,0-1.6S258.2,158.8,258.2,157.2z
			"/>
		<path class="st1" d="M252.6,157.2c0,0.8,0,2.4,0,4c0,0.8,0,0.8,0,1.6c0,0-0.8,0-0.8,0.8c0,0,0,0,0-0.8c0-0.8,0-1.6,0-1.6
			c-0.8-6.4-2.4-12.8-4.8-19.1c-4.8-9.6-11.2-16.7-20.7-21.5c-3.2-1.6-7.2-3.2-10.4-3.2c-0.8,0-0.8,0-1.6,0c-0.8,0-0.8-0.8-0.8-0.8
			c0-1.6,0-3.2,0-4.8c0-0.8,0.8-0.8,1.6-0.8c2.4,0,5.6-0.8,8-0.8c1.6,0,3.2,0,4.8,0c1.6,0,3.2,0,4,1.6c2.4,2.4,5.6,4.8,7.2,7.2
			c7.2,9.6,12,19.9,13.5,31.9C252.6,151.6,252.6,154,252.6,157.2z"/>
		<path class="st1" d="M254.2,150.8c0-12-1.6-23.1-6.4-34.3c-0.8-2.4-1.6-4-2.4-6.4c0-0.8,0-1.6,0.8-1.6c0.8-0.8,1.6-1.6,2.4-2.4
			c2.4-2.4,4.8-4,6.4-7.2c0.8-0.8,0.8-0.8,1.6,0c2.4,3.2,4.8,6.4,8,8.8c1.6,1.6,1.6,1.6,0.8,3.2c-4,7.2-5.6,15.9-7.2,23.9
			c-0.8,4-0.8,7.2-0.8,11.2c0,4.8,0,9.6,0,14.3c0,1.6-0.8,2.4-0.8,1.6c-0.8,0-0.8-0.8-0.8-1.6C254.2,157.2,254.2,154,254.2,150.8z"
			/>
		<path class="st1" d="M149.1,161.2c-0.8-0.8-1.6-1.6-2.4-2.4c-1.6-1.6-3.2-4-4.8-6.4c-3.2-5.6-3.2-11.2,0-16.7
			c0.8-1.6,1.6-3.2,3.2-4c3.2-4,6.4-8,8.8-12.8c0,0,0.8-0.8,0.8-1.6c-0.8,3.2-1.6,6.4-3.2,8.8c-0.8,1.6-2.4,4-4,5.6
			c-0.8,1.6-1.6,2.4-2.4,4c-3.2,4.8-2.4,9.6,0,14.3c1.6,3.2,4,6.4,8,8.8c0.8,0.8,2.4,1.6,4,2.4c1.6,0.8,1.6,1.6,0,2.4
			c-3.2,2.4-6.4,4-8.8,6.4c-0.8,0-0.8,0.8-1.6,0.8c-0.8,0-0.8,0.8,0,1.6c3.2,5.6,4,11.2,6.4,16.7c0.8,3.2,2.4,5.6,4,8
			c0.8,0.8,0.8,1.6,0.8,2.4s0,1.6,0,2.4c0,0.8,0,1.6-0.8,0.8c-2.4-1.6-4.8-2.4-8-3.2c-0.8,0-0.8-0.8-0.8-1.6c0-1.6-0.8-2.4-1.6-2.4
			c-2.4-1.6-2.4-2.4-2.4-3.2c0-1.6,0-3.2,0-4.8c0-4.8-1.6-9.6-4-14.3c-0.8-0.8-0.8-2.4-1.6-3.2c-0.8-2.4-0.8-3.2,1.6-3.2
			c3.2-0.8,5.6-2.4,8-4C149.1,162,149.1,162,149.1,161.2z"/>
		<path class="st1" d="M356.2,117.3c0.8,0.8,0.8,0.8,1.6,1.6c2.4,4,4.8,8,8,11.2c0.8,0.8,1.6,2.4,2.4,4c2.4,4,3.2,8,3.2,12
			c0,2.4-0.8,4-1.6,5.6c-1.6,3.2-4,6.4-7.2,8.8c-0.8,0.8-0.8,0.8,0,1.6c2.4,1.6,4.8,3.2,8,4h0.8c1.6,0.8,1.6,1.6,1.6,3.2
			c-0.8,1.6-1.6,3.2-2.4,5.6c-1.6,4-3.2,8-3.2,12c0,1.6,0,4,0,5.6c0,0.8,0,1.6-0.8,2.4c-0.8,0.8-1.6,1.6-1.6,2.4s0,0.8-0.8,0.8
			c-3.2,0.8-5.6,2.4-8.8,3.2c-0.8-3.2-0.8-4.8,0.8-6.4c1.6-1.6,2.4-3.2,3.2-5.6c0.8-2.4,1.6-4.8,2.4-7.2c1.6-4,2.4-8,4.8-12v-0.8
			c-0.8-0.8-2.4-1.6-3.2-2.4c-3.2-1.6-5.6-4-8.8-5.6c-0.8,0-0.8-0.8,0-1.6c0.8-0.8,2.4-0.8,3.2-1.6c3.2-1.6,5.6-4,7.2-7.2
			c2.4-3.2,3.2-5.6,3.2-9.6c0-2.4-0.8-4.8-1.6-6.4c-0.8-1.6-1.6-2.4-2.4-3.2c-1.6-2.4-3.2-4.8-4.8-7.2
			C357.8,123.7,357,120.5,356.2,117.3z"/>
		<path class="st1" d="M216,126.1c4.8,0.8,9.6,2.4,14.3,4.8c7.2,4,12,10.4,15.1,18.3c1.6,4.8,3.2,9.6,3.2,14.3v0.8
			c0,0.8-0.8,1.6-0.8,1.6c-0.8,0-0.8-0.8-0.8-1.6c-3.2-14.3-12.8-22.3-26.3-26.3c-2.4-0.8-4.8-0.8-6.4-0.8c-0.8,0-1.6-0.8-1.6-1.6
			c0-2.4,0-4.8,0-7.2c0-1.6,0-1.6,1.6-1.6C215.2,126.1,215.2,126.1,216,126.1z"/>
		<path class="st1" d="M297.3,131.7c0,0.8,0.8,3.2,0,4c-0.8,1.6-3.2,0.8-4.8,0.8c-14.3,2.4-26.3,12.8-29.5,26.3c0,0.8,0,1.6-0.8,2.4
			c0,0,0,0-0.8,0h-0.8c-0.8-0.8-0.8-0.8-0.8-1.6c0.8-11.2,5.6-21.5,13.5-28.7c5.6-4.8,12-7.2,19.1-8.8c0.8,0,1.6,0,1.6,0
			c0.8,0,1.6,0,1.6,1.6C297.3,128.5,297.3,130.1,297.3,131.7z"/>
		<path class="st2" d="M279.7,385.1c3.2,0,5.6,0.8,8.8,2.4c8,4.8,8.8,15.9,2.4,22.3c-5.6,5.6-15.1,6.4-22.3,0.8
			c-6.4-5.6-7.2-16.7,0-22.3C272.6,385.9,275.8,384.3,279.7,385.1z M268.6,398.6c0,3.2,0.8,5.6,2.4,8c2.4,3.2,6.4,4.8,10.4,4
			c4-0.8,7.2-3.2,8-8c0.8-4,0-7.2-1.6-10.4c-1.6-2.4-3.2-3.2-5.6-4C275.8,386.7,268.6,390.7,268.6,398.6z"/>
		<path class="st2" d="M280.5,465.6c1.6-2.4,1.6-4.8,1.6-6.4c0-4.8,0-10.4,0-15.1c0-1.6,0-4-1.6-5.6c5.6,0,10.4-0.8,14.3,0.8
			c6.4,1.6,11.2,5.6,11.2,13.5s-5.6,12-11.2,12.8c-1.6,0-3.2,0.8-4.8,0.8C286.9,466.4,283.7,466.4,280.5,465.6
			C281.3,465.6,281.3,465.6,280.5,465.6z M286.1,451.2c0,3.2,0,5.6,0,8.8c0,1.6,0,2.4,2.4,2.4s4.8,0,7.2-1.6s4-3.2,4.8-5.6
			c0.8-2.4,0.8-5.6-0.8-8c-0.8-3.2-3.2-4.8-6.4-5.6c-1.6,0-3.2-0.8-5.6,0c-1.6,0-2.4,0-2.4,2.4C286.1,445.7,286.1,448.8,286.1,451.2
			z"/>
		<path class="st2" d="M336.3,437.7c2.4,0,4.8,0,7.2,0c0,0.8-0.8,2.4-0.8,3.2c0,0.8,0,2.4,0,3.2c0,0.8,0,2.4,0,3.2c0,4,0,8,0,11.2
			c0,3.2,0,3.2,1.6,5.6c-0.8,0.8-2.4,0-3.2,0c-0.8,0-2.4,0-3.2,0c2.4-4.8,0.8-8.8,1.6-12.8c-0.8,0-0.8,0-0.8,0c-4,0-8,0-12.8,0
			c-1.6,0-1.6,0-1.6,1.6c0,2.4,0,5.6,0,8c0,1.6,0.8,2.4,1.6,4c-1.6,0.8-2.4,0-3.2,0s-2.4,0-3.2,0c1.6-2.4,1.6-4.8,1.6-6.4
			c0-5.6,0-10.4,0-15.9c0-3.2,0-3.2-0.8-5.6c2.4,0,4.8,0,7.2,0c-1.6,3.2-0.8,6.4-0.8,9.6c0,0.8,0,1.6,1.6,1.6c4,0,8,0,12.8,0
			c0.8,0,1.6-0.8,1.6-0.8C337.9,444.1,338.7,440.9,336.3,437.7z"/>
		<path class="st2" d="M173,465.6c-2.4,0-4.8,0-7.2,0c0-0.8,0.8-1.6,0.8-3.2c0-0.8,0-2.4,0-3.2c0-4.8,0-10.4,0-15.1
			c0-2.4,0-4-1.6-6.4c4.8,0,8.8,0,12.8,0.8c3.2,0.8,5.6,2.4,5.6,4.8c0.8,3.2-0.8,5.6-3.2,7.2l0,0c-0.8,0.8-2.4,0.8-2.4,1.6
			c0,1.6,0.8,1.6,1.6,3.2c0.8,0.8,1.6,2.4,2.4,3.2c2.4,2.4,4.8,4.8,7.2,7.2c-1.6,0.8-4.8,0.8-5.6,0c-0.8,0-1.6-0.8-2.4-1.6
			c-3.2-4-6.4-8-8.8-12.8c0.8-0.8,1.6-0.8,2.4-0.8c0.8-0.8,2.4-0.8,3.2-1.6c1.6-1.6,1.6-3.2,0.8-4.8c-0.8-1.6-2.4-2.4-4-3.2
			c-0.8,0-0.8,0-1.6,0c-2.4,0-2.4,0-2.4,2.4c0,5.6,0,11.2,0,16.7c0,0.8,0,1.6,0,3.2C172.2,464,172.2,464.8,173,465.6z"/>
		<path class="st2" d="M86.1,385.1c4,0,7.2,0,10.4,0c1.6,0,2.4,0,4,0.8c4,1.6,5.6,6.4,2.4,9.6c-0.8,0.8-1.6,1.6-2.4,2.4
			c-0.8,0.8-1.6,0.8-2.4,1.6c0.8,1.6,2.4,3.2,3.2,4.8c1.6,1.6,2.4,3.2,4,4.8s3.2,2.4,4,4c-4,0.8-6.4,0.8-8.8-2.4
			c-2.4-3.2-5.6-6.4-7.2-10.4c0-0.8-0.8-0.8-0.8-1.6c0.8,0,1.6-0.8,2.4-0.8c0.8-0.8,2.4-0.8,3.2-1.6c2.4-2.4,1.6-6.4-2.4-8
			c-0.8,0-2.4,0-3.2,0c-0.8,0-0.8,0.8-0.8,1.6c0,0.8,0,2.4,0,3.2c0,4.8,0,9.6,0,14.3c0,1.6,0,4,1.6,5.6c-1.6,0.8-2.4,0-4,0
			c-0.8,0-2.4,0-3.2,0c1.6-2.4,1.6-4.8,1.6-7.2c0-4.8,0-9.6,0-15.1c0-0.8,0-2.4,0-3.2C87.7,387.5,86.9,386.7,86.1,385.1z"/>
		<path class="st2" d="M187.3,385.1c1.6,0,3.2,0,4.8,0c1.6,0,1.6,0.8,2.4,1.6c1.6,4.8,4,9.6,5.6,13.5c0.8,2.4,1.6,4,2.4,6.4
			c0.8,2.4,1.6,4,3.2,5.6c0,0,0,0,0,0.8l0,0c-2.4,0-4.8,0-6.4,0c-0.8-0.8,0.8-1.6,0-2.4c0-0.8-0.8-1.6-0.8-2.4
			c-0.8-1.6-1.6-3.2-1.6-4.8c0-0.8-0.8-1.6-1.6-1.6c-2.4,0-5.6,0-8,0c-0.8,0-1.6,0.8-1.6,1.6c-0.8,1.6-1.6,3.2-1.6,4.8
			c-0.8,1.6-0.8,2.4,0,4c-2.4,0.8-4.8,0-7.2,0c1.6-1.6,2.4-2.4,3.2-3.2c0.8-1.6,0.8-2.4,1.6-4c1.6-4.8,4-9.6,5.6-14.3
			c0-0.8,0.8-2.4,0.8-3.2C188.1,387.5,188.1,386.7,187.3,385.1z M190.5,399.4L190.5,399.4c0.8,0,2.4,0,3.2,0c0.8,0,0.8,0,0.8-0.8
			c-0.8-2.4-2.4-5.6-3.2-8c0,0,0,0-0.8,0h-0.8c-0.8,2.4-2.4,5.6-3.2,8c0,0.8,0,0.8,0.8,0.8C188.1,399.4,188.9,399.4,190.5,399.4z"/>
		<path class="st2" d="M424,413.8c-1.6,0-2.4,0-4,0c-0.8,0-2.4,0-4,0c1.6-1.6,0.8-2.4,0.8-4c-0.8-1.6-1.6-3.2-1.6-4.8
			c0-0.8-0.8-1.6-2.4-1.6c-2.4,0-4.8,0-8,0c-0.8,0-1.6,0.8-1.6,1.6c-0.8,1.6-0.8,3.2-1.6,4.8c-0.8,1.6-0.8,3.2,0,4
			c-1.6,0-2.4,0-3.2,0s-2.4,0-3.2,0c0-0.8,0-0.8,0.8-1.6c0.8-0.8,1.6-2.4,2.4-4c2.4-6.4,4.8-12,7.2-18.3c0.8-1.6,1.6-2.4,0-4h0.8
			c6.4,0,4.8-0.8,7.2,4.8c2.4,5.6,4.8,12,7.2,17.5C421.6,409.8,422.4,411.4,424,413.8C424,413,424,413,424,413.8z M408.8,389.9
			c-1.6,3.2-2.4,5.6-3.2,8.8c0,0.8,0,0.8,0.8,0.8c8,0,7.2,1.6,4.8-5.6C410.4,392.3,409.6,391.5,408.8,389.9z"/>
		<path class="st2" d="M271,465.6c-2.4,0-4.8,0-6.4,0c-0.8,0-0.8,0-1.6,0c0.8-2.4,0.8-2.4,0-4s-0.8-2.4-1.6-4
			c-0.8-1.6-1.6-2.4-3.2-2.4c-2.4,0-4.8,0-6.4,0c-1.6,0-1.6,0.8-2.4,1.6c-0.8,1.6-0.8,3.2-1.6,4.8c-0.8,1.6-0.8,2.4,0,4
			c-2.4,0-4,0-6.4,0c0-0.8,0-0.8,0-0.8c0.8-0.8,1.6-2.4,2.4-4c2.4-6.4,4.8-12.8,8-19.1c0.8-1.6,0.8-1.6,0-4c1.6,0,3.2,0,4.8,0
			c0.8,0,0.8,0.8,1.6,0.8c0.8,0.8,0.8,2.4,1.6,3.2c2.4,5.6,4.8,11.2,6.4,16.7C267.8,460.8,268.6,463.2,271,465.6z M255,442.5
			c-0.8,1.6-0.8,2.4-1.6,4c-0.8,1.6-1.6,3.2-1.6,5.6c1.6,0.8,4,0,5.6,0c1.6,0,1.6,0,0.8-1.6c-0.8-2.4-1.6-4.8-2.4-7.2
			C255.8,442.5,255.8,442.5,255,442.5z"/>
		<path class="st2" d="M362.6,413h-0.8c-2.4,0-4,0-6.4,0c-0.8-0.8,0.8-0.8,0-1.6c0-0.8,0-1.6-0.8-1.6c-0.8-1.6-1.6-4-2.4-5.6
			c0-0.8-0.8-0.8-1.6-0.8c-2.4,0-5.6,0-8,0c-0.8,0-1.6,0.8-1.6,1.6c-0.8,1.6-1.6,3.2-1.6,4.8c-0.8,2.4-0.8,2.4,0,4
			c-1.6,0-3.2,0-4.8,0c0,0-0.8,0-1.6-0.8c2.4-2.4,3.2-6.4,4.8-9.6c1.6-4,3.2-8.8,5.6-12.8c0.8-2.4,0.8-2.4,0.8-4.8c0,0,0,0,0.8,0
			c1.6,0,4-0.8,4.8,0c1.6,0.8,1.6,2.4,2.4,4c2.4,5.6,4.8,12,7.2,17.5C360.2,409,361,411.4,362.6,413L362.6,413z M348.3,389.9
			c-1.6,3.2-2.4,6.4-4,8.8c0,0.8,0,0.8,0.8,0.8c2.4,0,4,0,6.4,0c0.8,0,0.8-0.8,0.8-0.8C350.7,396.2,349.1,393.1,348.3,389.9z"/>
		<path class="st2" d="M144.3,413C144.3,413,144.3,413.8,144.3,413c-3.2,0.8-4.8,0.8-7.2,0.8c-0.8-0.8,0.8-1.6,0-2.4
			c0-0.8-0.8-1.6-0.8-2.4c-0.8-1.6-1.6-3.2-1.6-4.8c0-0.8-0.8-0.8-1.6-0.8c-2.4,0-5.6,0-8,0c-0.8,0-1.6,0-1.6,0.8
			c-0.8,1.6-1.6,3.2-1.6,4.8c-0.8,1.6-0.8,2.4,0.8,4c-2.4,0-4.8,0-6.4,0c0-0.8,0-0.8,0.8-1.6s1.6-2.4,2.4-3.2
			c2.4-6.4,4.8-12,7.2-18.3c0.8-2.4,0.8-2.4,0.8-4.8l0,0c1.6,0,4-0.8,5.6,0c1.6,0.8,1.6,3.2,2.4,4.8c2.4,5.6,4.8,12,7.2,17.5
			C141.9,409.8,142.7,411.4,144.3,413z M129.1,389.9c-1.6,3.2-2.4,5.6-3.2,8.8c0,0.8,0,0.8,0.8,0.8c1.6,0,4,0,5.6,0
			c0.8,0,0.8,0,0.8,0C132.3,396.2,130.7,392.3,129.1,389.9z"/>
		<path class="st1" d="M156.2,112.6c0-1.6,0-2.4,0-4c0-7.2-2.4-13.5-6.4-19.9c-1.6-1.6-2.4-4-4-5.6c-0.8-1.6-2.4-3.2-3.2-4.8
			c-1.6-3.2-3.2-7.2-2.4-10.4c0.8-6.4,6.4-10.4,12.8-10.4c0,0.8-0.8,0.8-1.6,1.6c-4,4.8-4.8,10.4-4,16.7c0,1.6,0.8,3.2,1.6,4
			c0.8,1.6,2.4,4,3.2,5.6c1.6,3.2,3.2,5.6,4.8,9.6C158.6,100.6,158.6,107,156.2,112.6L156.2,112.6z"/>
		<path class="st1" d="M354.6,112.6c-1.6-2.4-1.6-4-1.6-6.4c0-5.6,0.8-10.4,3.2-15.1c0.8-2.4,2.4-4,3.2-6.4c0.8-0.8,0.8-1.6,1.6-2.4
			c3.2-5.6,3.2-11.2,0.8-17.5c-0.8-2.4-2.4-4-3.2-5.6c0,0-0.8-0.8-0.8-1.6c0.8,0,2.4,0,3.2,0.8c7.2,2.4,10.4,8,9.6,15.1
			c-0.8,2.4-1.6,5.6-3.2,7.2c-1.6,2.4-3.2,4.8-5.6,7.2c-4.8,6.4-7.2,14.3-7.2,22.3C354.6,111,354.6,111.8,354.6,112.6z"/>
		<path class="st1" d="M214.4,146.8c0-1.6,0-2.4,1.6-2.4c8.8,0.8,16.7,4,23.1,9.6c3.2,2.4,4.8,5.6,6.4,9.6c0,0.8,0.8,1.6,0.8,2.4
			c0,0.8,0.8,1.6,0,1.6c-0.8,0.8-0.8,0-1.6-0.8c-4.8-6.4-11.2-9.6-18.3-11.2c-2.4-0.8-5.6-0.8-8,0c-1.6,0-1.6,0-2.4-1.6
			C215.2,150.8,214.4,148.4,214.4,146.8z"/>
		<path class="st1" d="M290.1,155.6c-7.2,0-13.5,2.4-19.1,6.4c-1.6,1.6-3.2,3.2-4.8,4.8c0,0.8-0.8,0.8-0.8,0.8h-0.8
			c0-0.8,0-1.6,0-1.6c1.6-4,4-7.2,6.4-10.4c5.6-5.6,12.8-8.8,20.7-10.4c0.8,0,2.4,0,3.2-0.8c0.8,0,0.8,0.8,0.8,1.6
			c0,3.2-0.8,5.6-1.6,8.8c0,0.8-0.8,0.8-1.6,0.8C292.5,155.6,290.9,155.6,290.1,155.6z"/>
		<path class="st2" d="M227.9,465.6c-2.4,0-4.8,0-7.2,0c2.4-4,0.8-8,1.6-11.2c0-0.8-0.8-1.6-0.8-2.4c-2.4-3.2-4.8-7.2-6.4-10.4
			c-0.8-0.8-1.6-2.4-3.2-3.2c2.4-0.8,4,0,5.6,0c0.8,0,0.8,0.8,1.6,1.6c1.6,2.4,2.4,4,4,6.4c0.8,0.8,0.8,1.6,1.6,2.4
			c0,0,0.8,0.8,0.8,0c1.6-2.4,3.2-4.8,4.8-7.2c0.8-1.6,0-2.4-0.8-4c2.4,0,4.8,0,6.4,0c0.8,0.8,0,1.6-0.8,1.6c-2.4,4-5.6,8-8,12
			c-0.8,1.6-1.6,2.4-1.6,4c0,0.8,0,1.6,0,2.4C227.1,462.4,227.1,462.4,227.9,465.6z"/>
		<path class="st2" d="M365,385.9c7.2-0.8,6.4,0.8,8.8,4c1.6,2.4,3.2,4.8,4.8,7.2c0.8,0,0.8,0,1.6-0.8c1.6-1.6,2.4-4,4-5.6
			c1.6-1.6,1.6-1.6,0-4.8c1.6-0.8,3.2,0,4.8,0s1.6,0.8,0.8,1.6c-2.4,3.2-4.8,6.4-6.4,10.4c-0.8,1.6-2.4,2.4-2.4,4
			c-0.8,1.6,0,3.2,0,4.8l0,0c0,4,0,4,1.6,6.4c-1.6,0-2.4,0-4,0c-0.8,0-2.4,0-4,0c1.6-1.6,1.6-4,1.6-5.6c0-2.4,0-4.8,0-7.2
			c-0.8-2.4-2.4-4-3.2-5.6c-0.8-1.6-1.6-2.4-2.4-4C369,389.1,367.4,387.5,365,385.9z"/>
		<path class="st2" d="M167.4,400.2c-0.8,0-1.6-0.8-2.4-0.8c-5.6,0-4.8-0.8-4.8,4c0,0.8,0,0.8,0,1.6c0,2.4,0,4.8,1.6,7.2
			c-2.4,0-4.8,0-7.2,0c0-0.8,0.8-1.6,0.8-2.4c0-0.8,0-1.6,0-2.4c0-0.8,0-1.6,0-2.4c0-4.8,0-9.6,0-14.3c0-0.8,0-2.4,0-3.2
			s-0.8-1.6-0.8-2.4h0.8c4,0,8.8,0,12.8,0c0.8,0,1.6,0,1.6,1.6c0,0.8,0,1.6,0,2.4c-0.8,0.8-0.8,0-1.6,0c-2.4-1.6-4.8-0.8-7.2-0.8
			c-0.8,0-0.8,0.8-0.8,0.8l0,0c0,2.4,0,4,0,6.4c1.6,0.8,4,0,5.6,0.8c0.8,0,0.8,0,1.6,0.8C167.4,398.6,167.4,399.4,167.4,400.2z"/>
		<path class="st2" d="M306,413c1.6-2.4,1.6-4.8,1.6-7.2c0-4.8,0-8.8,0-13.5c0-1.6,0-2.4,0-4c0-1.6-0.8-2.4-1.6-4c2.4,0,4.8,0,7.2,0
			c0,0.8-0.8,1.6-0.8,3.2c0,0.8,0,2.4,0,3.2c0,4.8,0,9.6,0,14.3c0,0.8,0,1.6,0,2.4c0,0.8,0,1.6,1.6,1.6c4,0,7.2,0.8,11.2-1.6
			c0,0,0,0,0.8,0c0,1.6-0.8,4-1.6,4.8c0,0.8-0.8,0.8-1.6,0.8c-0.8,0-0.8,0-1.6,0c-4,0-8,0-12,0C307.6,413.8,306.8,413.8,306,413z"/>
		<path class="st2" d="M235.1,408.2c0,0.8,0,0.8,0,0.8c-0.8,1.6-0.8,3.2-1.6,4c-0.8,0.8-3.2,0-4,0c-3.2,0-7.2,0-10.4,0
			c-0.8,0-1.6,0-2.4,0c1.6-1.6,1.6-3.2,1.6-4.8c0-5.6,0-11.2,0-16.7c0-0.8,0-2.4,0-3.2c0-0.8-0.8-1.6-0.8-3.2c2.4,0,4.8,0,7.2,0
			c-0.8,0.8-0.8,2.4-0.8,3.2c0,1.6,0,3.2,0,4.8c0,4.8,0,10.4,0,15.1c0,1.6,0,1.6,1.6,2.4c1.6,0,4,0,5.6,0
			C231.1,409.8,232.7,409,235.1,408.2z"/>
		<path class="st2" d="M195.3,437.7c3.2,0,5.6,0,7.2,0c-0.8,0.8-0.8,1.6-0.8,3.2c0,0.8,0,2.4,0,3.2c0,5.6,0,10.4,0,15.9
			c0,1.6,0,4,1.6,5.6c-2.4,0-4.8,0-7.2,0c0-0.8,0.8-2.4,0.8-3.2c0-0.8,0-2.4,0-3.2c0-5.6,0-10.4,0-15.9
			C197.7,440.9,197.7,439.3,195.3,437.7z"/>
		<path class="st1" d="M278.9,168.3c-3.2,0-6.4,0.8-9.6,2.4c-0.8,0-0.8,0.8-1.6,0.8l-0.8-0.8c0-0.8,0.8-0.8,0.8-1.6
			c4.8-4.8,9.6-6.4,15.9-7.2c2.4,0,4,0,6.4,0.8c0.8,0,1.6,0.8,0.8,1.6c-0.8,0.8-0.8,2.4-1.6,3.2c-0.8,0.8-0.8,2.4-1.6,2.4
			c0,0.8-1.6,0-2.4,0c-0.8,0-2.4-0.8-3.2-0.8C281.3,168.3,279.7,168.3,278.9,168.3z"/>
		<path class="st1" d="M225.6,162c6.4,0,12,2.4,16.7,7.2c0.8,0.8,0.8,0.8,0.8,1.6l-0.8,0.8c-0.8,0-0.8,0-1.6-0.8
			c-5.6-3.2-11.2-3.2-16.7-0.8h-0.8c-0.8,0-0.8,0-1.6-0.8c-0.8-1.6-1.6-4-2.4-5.6c0-0.8,0-1.6,0.8-1.6C222.4,162,224,162,225.6,162z
			"/>
		<path class="st1" d="M255,45.6c1.6,2.4,3.2,4.8,4.8,7.2c0,0.8,0,0.8,0,1.6c-0.8,2.4-2.4,4-4,6.4c-0.8,0.8-0.8,0.8-1.6,0
			c-1.6-2.4-2.4-4-4-6.4c-0.8-0.8,0-1.6,0-2.4C252.6,50.4,253.4,48,255,45.6z"/>
		<path class="st1" d="M230.3,183.5c-1.6-1.6-3.2-4-4-5.6c-0.8-0.8,0-1.6,0.8-1.6c3.2-2.4,7.2-3.2,11.2-3.2c0.8,0,1.6,0,3.2,0.8
			c0,0,0.8,0,0.8,0.8v0.8c-0.8,0-0.8,0.8-1.6,0.8c-3.2,0.8-5.6,3.2-7.2,5.6C231.9,181.9,231.9,182.7,230.3,183.5z"/>
		<path class="st1" d="M279.7,183.5c-0.8-0.8-0.8-1.6-1.6-2.4c-1.6-2.4-4-4.8-7.2-5.6h-0.8c-0.8,0-0.8-0.8-0.8-0.8
			c0-0.8,0.8-0.8,0.8-0.8c4-0.8,7.2-0.8,11.2,1.6c0,0,0.8,0,0.8,0.8c3.2,1.6,3.2,1.6,0.8,4C282.1,180.3,281.3,181.9,279.7,183.5z"/>
		<path class="st1" d="M136.3,150L136.3,150C137.1,150,137.1,150,136.3,150C137.1,150,136.3,150,136.3,150L136.3,150z"/>
		<path class="st1" d="M334.7,140.5L334.7,140.5L334.7,140.5z"/>
	</g>
</g>
</svg>
