<svg width="121" height="116" viewBox="0 0 121 116" fill="none" xmlns="http://www.w3.org/2000/svg">
<g clip-path="url(#clip0_8129_22212)">
<rect width="120.455" height="115" transform="translate(0.0214844 0.171875)" fill="white"/>
<path d="M58.4153 114.419C56.5513 114.493 54.6852 114.598 52.8212 114.628C52.2692 114.632 51.6936 114.479 51.1554 114.308C50.685 114.152 50.4648 113.82 50.5084 113.273C50.6303 111.612 50.7578 109.944 50.7287 108.285C50.701 106.812 51.0923 105.458 51.652 104.131C52.1237 103.01 53.0734 102.229 54.2398 101.931C56.0332 101.468 57.8764 101.123 59.7224 100.927C61.2705 100.764 62.5748 101.439 63.3991 102.737C63.9837 103.662 64.621 104.586 64.9742 105.592C65.5651 107.27 65.9807 109.002 66.4205 110.725C66.7108 111.839 66.5736 112.069 65.4799 112.589C63.255 113.645 60.8258 113.943 58.4181 114.432L58.416 114.419H58.4153ZM63.5258 110.157C63.3901 109.24 63.2619 108.466 63.1594 107.689C62.9205 105.858 61.8468 104.518 60.424 103.355C57.6305 101.067 53.8942 102.71 53.2161 105.635C52.7679 107.582 53.0879 109.515 53.1115 111.536L63.5245 110.15V110.156L63.5258 110.157ZM53.4945 112.738C53.7723 113.455 54.2856 113.723 54.8653 113.639C57.3188 113.282 59.7598 112.883 62.2021 112.452C62.536 112.395 62.8228 112.114 63.1324 111.935C59.8408 111.701 56.6926 111.989 53.4959 112.744V112.738L53.4945 112.738Z" fill="#807890"/>
<path d="M82.1166 103.758C81.5749 104.487 81.063 105.232 80.4763 105.928C80.3059 106.135 79.9506 106.288 79.6631 106.314C77.7347 106.511 75.8056 106.666 73.8543 106.838C74.0829 105.381 75.3609 104.08 76.652 103.951C78.3976 103.776 80.1473 103.639 81.8914 103.483L82.1131 103.755L82.1172 103.758H82.1166Z" fill="#807890"/>
<path d="M75.5403 109.673C73.8855 109.79 71.9959 108.665 70.0405 106.3C71.4265 104.771 72.025 102.575 74.2132 101.464C75.0783 103.386 75.7571 107.847 75.5403 109.673Z" fill="#807890"/>
<path d="M84.3601 104.18C82.0806 107.785 81.5153 108.449 80.2692 108.941C79.519 107.624 78.78 103.49 78.8492 100.959C80.4292 100.621 82.5162 101.831 84.3615 104.187L84.3601 104.179V104.18Z" fill="#807890"/>
<path d="M18.6509 97.384C17.278 96.1877 15.8801 95.013 14.5391 93.7858C14.145 93.4198 13.8534 92.9259 13.6006 92.4439C13.3837 92.0189 13.4759 91.6365 13.9164 91.2784C15.2429 90.1857 16.5784 89.0916 17.7968 87.8986C18.8767 86.8387 20.165 86.1428 21.5511 85.58C22.7224 85.1025 23.9768 85.1865 25.0242 85.7565C26.6381 86.6301 28.1987 87.6205 29.6505 88.7178C30.8669 89.6393 31.2853 90.9891 30.8987 92.459C30.621 93.5044 30.3813 94.5847 29.8805 95.5324C29.0451 97.1151 28.0449 98.6177 27.0696 100.131C26.4428 101.113 26.1747 101.184 25.0131 100.818C22.6511 100.075 20.7109 98.6597 18.6432 97.3932L18.6509 97.3833V97.384ZM25.4474 97.792C26.0355 97.0528 26.5231 96.4199 27.0315 95.8013C28.2299 94.3466 28.4709 92.6806 28.3331 90.9058C28.0664 87.4172 24.1971 86.0778 21.5338 87.692C19.7633 88.7689 18.5463 90.349 17.0535 91.7945L25.4515 97.7867L25.4474 97.792ZM16.4267 92.9004C16.0873 93.593 16.2507 94.1262 16.7224 94.4555C18.7243 95.8453 20.7483 97.1971 22.7979 98.5279C23.0764 98.7109 23.4892 98.7043 23.8411 98.7856C21.6889 96.4159 19.2479 94.5119 16.4232 92.9056L16.4274 92.9004H16.4267Z" fill="#807890"/>
<path d="M43.3711 105.714C42.4436 105.867 41.5251 106.051 40.5907 106.151C40.315 106.183 39.9499 106.053 39.7276 105.879C38.2176 104.727 36.7373 103.545 35.2287 102.36C36.4776 101.483 38.3533 101.419 39.3632 102.192C40.7278 103.236 42.0681 104.311 43.4175 105.369L43.3711 105.709V105.714Z" fill="#807890"/>
<path d="M34.3039 105.495C33.0467 104.469 32.5508 102.409 32.9338 99.427C35.0562 99.2742 37.119 98.1212 39.4955 98.8013C38.6719 100.739 35.8209 104.348 34.3039 105.495Z" fill="#807890"/>
<path d="M44.6435 107.515C40.3392 108.538 39.4436 108.628 38.1947 108.142C38.647 106.709 41.212 103.291 43.1515 101.548C44.5209 102.367 45.093 104.619 44.638 107.521L44.6428 107.515H44.6435Z" fill="#807890"/>
<path d="M3.25407 58.7136C3.17649 56.9486 3.06566 55.1816 3.0338 53.4166C3.02895 52.8939 3.19103 52.3488 3.37182 51.8392C3.53599 51.3939 3.88648 51.1853 4.46487 51.2266C6.21872 51.3421 7.98019 51.4627 9.73266 51.4352C11.2877 51.409 12.7181 51.7795 14.1194 52.3095C15.3039 52.7561 16.1281 53.6554 16.4433 54.7599C16.9323 56.458 17.2967 58.2033 17.5031 59.9512C17.6749 61.4171 16.9628 62.6521 15.592 63.4327C14.6146 63.9862 13.6387 64.5896 12.5768 64.9241C10.8049 65.4836 8.97488 65.8771 7.15522 66.2936C5.97905 66.5684 5.73593 66.4386 5.18733 65.4029C4.07212 63.2962 3.75695 60.996 3.24091 58.7162L3.25407 58.7142V58.7136ZM7.75577 63.5533C8.72344 63.4248 9.54079 63.3034 10.3623 63.2064C12.2956 62.9801 13.7107 61.9635 14.9388 60.6163C17.3556 57.9711 15.6197 54.4332 12.5311 53.7911C10.4745 53.3668 8.4339 53.6698 6.29907 53.6921L7.76269 63.552H7.75646L7.75577 63.5533ZM5.03009 54.0541C4.27299 54.3172 3.98969 54.8032 4.07766 55.3521C4.45517 57.6753 4.87701 59.9866 5.3321 62.2993C5.39236 62.6154 5.68882 62.887 5.87723 63.1801C6.12521 60.0634 5.82112 57.0824 5.02316 54.0555H5.0294L5.03009 54.0541Z" fill="#807890"/>
<path d="M14.5128 81.1561C13.7426 80.6432 12.9564 80.1585 12.2215 79.6029C12.0026 79.4416 11.8412 79.1051 11.8135 78.8329C11.6057 77.0069 11.4422 75.1803 11.26 73.3327C12.7985 73.5491 14.1727 74.7592 14.3092 75.9818C14.4941 77.6346 14.6389 79.2914 14.8031 80.9429L14.5156 81.1528L14.5128 81.1567V81.1561Z" fill="#807890"/>
<path d="M8.26627 74.929C8.14297 73.3621 9.33091 71.5729 11.8287 69.7213C13.4433 71.0337 15.7631 71.6004 16.9358 73.6724C14.9063 74.4916 10.1954 75.1343 8.26627 74.929Z" fill="#807890"/>
<path d="M14.0681 83.2805C10.2605 81.122 9.55949 80.5868 9.03998 79.4068C10.4302 78.6965 14.7968 77.9967 17.4698 78.0623C17.8266 79.5583 16.5486 81.5345 14.0605 83.2818L14.0688 83.2805H14.0681Z" fill="#807890"/>
<path d="M21.2449 21.0611C22.5084 19.7612 23.7489 18.4376 25.0449 17.1678C25.4314 16.7946 25.953 16.5185 26.4621 16.2791C26.911 16.0738 27.3148 16.161 27.693 16.5782C28.847 17.8342 30.0024 19.0987 31.2624 20.2524C32.3818 21.275 33.1167 22.4949 33.711 23.8073C34.2153 24.9164 34.1266 26.1042 33.5247 27.0959C32.602 28.6242 31.5561 30.1019 30.3972 31.4766C29.424 32.6283 27.9985 33.0245 26.4462 32.6585C25.3421 32.3955 24.2013 32.1686 23.2003 31.6944C21.5289 30.9034 19.942 29.9563 18.344 29.0328C17.3071 28.4392 17.2322 28.1854 17.6181 27.0854C18.4029 24.8489 19.8977 23.0117 21.2352 21.0539L21.2456 21.0611H21.2449ZM20.8141 27.4967C21.5947 28.0535 22.2632 28.5153 22.9163 28.9967C24.4527 30.1314 26.2121 30.3596 28.0865 30.2291C31.7708 29.9766 33.1853 26.3128 31.4806 23.7909C30.3432 22.1145 28.6746 20.9621 27.1479 19.5487L20.8196 27.5006L20.8141 27.4967ZM25.98 18.9551C25.2486 18.6337 24.6854 18.7885 24.3377 19.2351C22.8699 21.1307 21.4423 23.0472 20.0369 24.9879C19.8436 25.2516 19.8506 25.6425 19.7647 25.9757C22.2673 23.9378 24.2781 21.6265 25.9745 18.9518L25.98 18.9557V18.9551Z" fill="#807890"/>
<path d="M12.4473 44.4684C12.2859 43.5901 12.0919 42.7204 11.9866 41.8356C11.952 41.5746 12.0898 41.2289 12.2734 41.0184C13.4897 39.5886 14.7386 38.1869 15.9896 36.7584C16.9157 37.941 16.9836 39.7171 16.1676 40.6734C15.0642 41.9655 13.9289 43.2346 12.8123 44.5123L12.4528 44.4684H12.4473Z" fill="#807890"/>
<path d="M12.6793 35.8828C13.762 34.6924 15.9376 34.2228 19.0872 34.5855C19.2486 36.5951 20.4664 38.5484 19.7481 40.7987C17.7012 40.0189 13.8908 37.3192 12.6793 35.8828Z" fill="#807890"/>
<path d="M10.5459 45.6733C9.46528 41.5976 9.36969 40.7495 9.88296 39.567C11.3965 39.9952 15.0067 42.424 16.8478 44.2605C15.9827 45.5572 13.604 46.0989 10.5389 45.668L10.5459 45.6726V45.6733Z" fill="#807890"/>
<path d="M62.0844 6.48211C63.9484 6.40865 65.8144 6.30371 67.6784 6.27354C68.2305 6.26895 68.8061 6.42242 69.3443 6.59361C69.8146 6.74906 70.0349 7.08093 69.9913 7.6286C69.8694 9.2893 69.7419 10.9572 69.771 12.6166C69.7987 14.0891 69.4073 15.4435 68.8477 16.7703C68.3759 17.8919 67.4263 18.6724 66.2598 18.9708C64.4665 19.4339 62.6233 19.7789 60.7773 19.9743C59.2292 20.137 57.9249 19.4627 57.1006 18.1648C56.5159 17.2393 55.8787 16.3152 55.5254 15.3097C54.9346 13.6319 54.519 11.8991 54.0791 10.1761C53.7889 9.06237 53.926 8.83215 55.0198 8.31269C57.2446 7.25671 59.6739 6.95828 62.0816 6.46965L62.0837 6.48211H62.0844ZM56.9731 10.7447C57.1089 11.661 57.237 12.4349 57.3395 13.2128C57.5785 15.0434 58.6522 16.3834 60.0749 17.5463C62.8685 19.8346 66.6048 18.191 67.2829 15.2664C67.7311 13.3191 67.411 11.3868 67.3875 9.36538L56.9745 10.7513V10.7454L56.9731 10.7447ZM67.0051 8.1638C66.7274 7.44692 66.2141 7.17866 65.6343 7.26196C63.1809 7.61942 60.7399 8.01885 58.2975 8.44977C57.9636 8.50683 57.6769 8.78755 57.3672 8.96595C60.6588 9.20076 63.8071 8.91282 67.0038 8.15724V8.16315L67.0051 8.1638Z" fill="#807890"/>
<path d="M38.3831 17.1429C38.9248 16.4135 39.4367 15.6691 40.0234 14.9732C40.1938 14.766 40.5491 14.6131 40.8366 14.5869C42.765 14.3901 44.6941 14.2354 46.6453 14.0629C46.4167 15.5196 45.1388 16.8209 43.8476 16.9501C42.1021 17.1252 40.3524 17.2623 38.6082 17.4177L38.3866 17.1455L38.3824 17.1429H38.3831Z" fill="#807890"/>
<path d="M44.9587 11.2281C46.6135 11.1114 48.5031 12.2362 50.4585 14.6013C49.0725 16.1302 48.474 18.3268 46.2858 19.4372C45.4207 17.5154 44.7419 13.0547 44.9587 11.2281Z" fill="#807890"/>
<path d="M36.1395 16.7218C38.4191 13.1164 38.9843 12.4526 40.2305 11.9607C40.9806 13.277 41.7197 17.4118 41.6505 19.9428C40.0705 20.2806 37.9834 19.0705 36.1381 16.7145L36.1395 16.7224V16.7218Z" fill="#807890"/>
<path d="M101.849 23.5176C103.222 24.7139 104.62 25.8886 105.961 27.1157C106.355 27.4817 106.646 27.9756 106.899 28.4577C107.116 28.8827 107.024 29.2651 106.583 29.6232C105.257 30.7159 103.921 31.8099 102.703 33.003C101.623 34.0629 100.335 34.7588 98.9486 35.3215C97.7773 35.799 96.5229 35.7151 95.4755 35.1451C93.8616 34.2715 92.301 33.2811 90.8492 32.1838C89.6328 31.2623 89.2144 29.9124 89.601 28.4426C89.8787 27.3971 90.1184 26.3169 90.6192 25.3691C91.4545 23.7865 92.4548 22.2838 93.4301 20.7707C94.0569 19.7888 94.325 19.718 95.4866 20.0833C97.8486 20.8264 99.7888 22.2419 101.856 23.5084L101.849 23.5182V23.5176ZM95.0523 23.1096C94.4642 23.8488 93.9766 24.4817 93.4682 25.1002C92.2698 26.555 92.0288 28.2209 92.1666 29.9957C92.4333 33.4844 96.3026 34.8237 98.9659 33.2096C100.736 32.1326 101.953 30.5526 103.446 29.107L95.0481 23.1148L95.0523 23.1096ZM104.073 28.0012C104.412 27.3086 104.249 26.7753 103.777 26.4461C101.775 25.0563 99.7514 23.7045 97.7018 22.3737C97.4233 22.1907 97.0105 22.1973 96.6586 22.1159C98.8108 24.4856 101.252 26.3897 104.076 27.9959L104.072 28.0012H104.073Z" fill="#807890"/>
<path d="M77.1286 15.1871C78.0561 15.0343 78.9746 14.8507 79.909 14.751C80.1847 14.7182 80.5498 14.8487 80.7721 15.0225C82.2822 16.1742 83.7624 17.3568 85.271 18.5413C84.0222 19.4182 82.1464 19.4825 81.1365 18.7099C79.7719 17.6651 78.4316 16.5901 77.0822 15.5328L77.1286 15.1924V15.1871Z" fill="#807890"/>
<path d="M86.1958 15.4068C87.453 16.4319 87.9489 18.4921 87.5659 21.4744C85.4435 21.6272 83.3807 22.7802 81.0042 22.1001C81.8278 20.162 84.6788 16.5539 86.1958 15.4068Z" fill="#807890"/>
<path d="M75.8562 13.3867C80.1605 12.3635 81.0561 12.273 82.305 12.759C81.8527 14.1921 79.2877 17.6106 77.3482 19.354C75.9788 18.5348 75.4066 16.2824 75.8617 13.3801L75.8569 13.3867H75.8562Z" fill="#807890"/>
<path d="M117.246 62.1878C117.323 63.9528 117.434 65.7198 117.466 67.4848C117.471 68.0075 117.309 68.5525 117.128 69.0622C116.964 69.5075 116.613 69.7161 116.035 69.6748C114.281 69.5593 112.519 69.4386 110.767 69.4662C109.212 69.4924 107.782 69.1219 106.38 68.5919C105.196 68.1452 104.372 67.246 104.056 66.1415C103.567 64.4434 103.203 62.6981 102.997 60.9502C102.825 59.4843 103.537 58.2492 104.908 57.4687C105.885 56.9152 106.861 56.3117 107.923 55.9772C109.695 55.4178 111.525 55.0242 113.344 54.6078C114.521 54.3329 114.764 54.4628 115.312 55.4984C116.428 57.6052 116.743 59.9053 117.259 62.1852L117.246 62.1872V62.1878ZM112.744 57.348C111.776 57.4766 110.959 57.5979 110.137 57.695C108.204 57.9213 106.789 58.9379 105.561 60.2851C103.144 62.9303 104.88 66.4681 107.969 67.1103C110.025 67.5346 112.066 67.2316 114.201 67.2093L112.737 57.3494H112.743L112.744 57.348ZM115.47 66.8472C116.227 66.5842 116.51 66.0982 116.422 65.5492C116.045 63.2261 115.623 60.9148 115.168 58.6021C115.107 58.286 114.811 58.0144 114.622 57.7212C114.374 60.838 114.679 63.819 115.477 66.8459H115.47L115.47 66.8472Z" fill="#807890"/>
<path d="M105.986 39.7454C106.756 40.2583 107.543 40.743 108.278 41.2986C108.496 41.4599 108.658 41.7964 108.685 42.0686C108.893 43.8946 109.057 45.7212 109.239 47.5688C107.701 47.3524 106.326 46.1423 106.19 44.9197C106.005 43.2669 105.86 41.6101 105.696 39.9586L105.983 39.7487L105.986 39.7448V39.7454Z" fill="#807890"/>
<path d="M112.233 45.9717C112.357 47.5386 111.169 49.3279 108.671 51.1794C107.056 49.867 104.737 49.3003 103.564 47.2284C105.593 46.4092 110.304 45.7664 112.233 45.9717Z" fill="#807890"/>
<path d="M106.432 37.6203C110.239 39.7789 110.94 40.3141 111.46 41.494C110.069 42.2043 105.703 42.9042 103.03 42.8386C102.673 41.3425 103.951 39.3663 106.439 37.619L106.431 37.6203H106.432Z" fill="#807890"/>
<path d="M99.2548 99.8402C97.9913 101.14 96.7507 102.464 95.4547 103.734C95.0682 104.107 94.5466 104.383 94.0375 104.622C93.5887 104.828 93.1848 104.74 92.8066 104.323C91.6526 103.067 90.4973 101.803 89.2373 100.649C88.1179 99.6264 87.383 98.4065 86.7887 97.094C86.2844 95.9849 86.3731 94.7971 86.975 93.8054C87.8976 92.2772 88.9436 90.7995 90.1024 89.4248C91.0756 88.273 92.5012 87.8769 94.0535 88.2429C95.1576 88.5059 96.2984 88.7328 97.2993 89.207C98.9708 89.998 100.558 90.9451 102.156 91.8686C103.193 92.4622 103.267 92.716 102.882 93.8159C102.097 96.0525 100.602 97.8896 99.2645 99.8475L99.2541 99.8402H99.2548ZM99.6856 93.4047C98.9049 92.8478 98.2365 92.3861 97.5833 91.9047C96.047 90.77 94.2876 90.5418 92.4132 90.6723C88.7289 90.9248 87.3144 94.5886 89.0191 97.1105C90.1565 98.7869 91.8251 99.9393 93.3518 101.353L99.6801 93.4008L99.6856 93.4047ZM94.5196 101.946C95.2511 102.268 95.8142 102.113 96.1619 101.666C97.6297 99.7707 99.0573 97.8542 100.463 95.9135C100.656 95.6498 100.649 95.2589 100.735 94.9257C98.2324 96.9635 96.2215 99.2749 94.5252 101.95L94.5196 101.946V101.946Z" fill="#807890"/>
<path d="M108.052 76.433C108.214 77.3112 108.408 78.1809 108.513 79.0657C108.548 79.3268 108.41 79.6724 108.226 79.883C107.01 81.3128 105.761 82.7144 104.51 84.1429C103.584 82.9604 103.516 81.1842 104.332 80.228C105.435 78.9359 106.571 77.6667 107.687 76.3891L108.047 76.433H108.052Z" fill="#807890"/>
<path d="M107.82 85.0186C106.738 86.2091 104.562 86.6787 101.412 86.316C101.251 84.3063 100.033 82.3531 100.752 80.1028C102.799 80.8826 106.609 83.5822 107.82 85.0186Z" fill="#807890"/>
<path d="M109.954 75.2282C111.034 79.3039 111.13 80.1519 110.617 81.3345C109.103 80.9062 105.493 78.4774 103.652 76.641C104.517 75.3443 106.896 74.8025 109.961 75.2334L109.954 75.2288V75.2282Z" fill="#807890"/>
<path d="M57.7839 29.8808C57.7839 29.8808 55.1702 27.8116 53.4723 30.3177C51.7745 32.8238 53.2067 36.0391 53.714 37.3158C54.2214 38.5925 55.7195 44.9494 55.7195 44.9494C55.7195 44.9494 56.0191 46.0161 58.2163 47.4347C60.4135 48.8532 60.014 44.8614 60.014 44.8614L57.7839 29.8808Z" fill="#21201E"/>
<path d="M96.0495 114.681L83.8859 114.824L83.1788 114.832L44.8923 115.281L40.9333 115.327L24.4492 115.52H24.4482C24.4482 115.52 24.4792 114.741 24.5551 113.359C24.5671 113.138 24.5801 112.902 24.5951 112.65C24.62 112.211 24.649 111.726 24.6829 111.2C24.6969 110.975 24.7119 110.743 24.7279 110.502C24.7339 110.423 24.7389 110.342 24.7439 110.26C24.7978 109.444 24.8607 108.549 24.9336 107.585C24.9486 107.392 24.9636 107.196 24.9786 106.999C24.9946 106.8 25.0095 106.6 25.0255 106.396C25.0415 106.193 25.0585 105.988 25.0754 105.779C25.0924 105.571 25.1094 105.36 25.1274 105.147C25.1454 104.934 25.1633 104.719 25.1813 104.501C25.2003 104.284 25.2193 104.063 25.2382 103.841C25.8794 96.512 26.989 86.8111 28.8417 77.9992C28.9815 77.3315 29.1443 76.6894 29.3281 76.0709C29.401 75.8231 29.4779 75.5801 29.5578 75.3408C29.6377 75.1006 29.7206 74.8651 29.8065 74.6335C29.9353 74.2854 30.0711 73.9459 30.2139 73.614C30.4037 73.1724 30.6044 72.7449 30.8172 72.3316C30.976 72.0224 31.1408 71.7207 31.3115 71.4266C31.4813 71.1325 31.6571 70.846 31.8389 70.567C31.8998 70.4743 31.9607 70.3816 32.0216 70.2909C32.1445 70.1083 32.2693 69.9287 32.3972 69.7528C32.4611 69.6648 32.525 69.5778 32.5899 69.4917C32.9125 69.0596 33.2491 68.6482 33.5966 68.2557C33.6666 68.1772 33.7365 68.0987 33.8064 68.0221C34.087 67.7138 34.3747 67.4188 34.6693 67.1341C34.7432 67.0632 34.8171 66.9932 34.891 66.9233C41.6385 60.59 51.2602 60.2155 52.5366 59.9223C52.5546 59.9176 52.5726 59.9138 52.5916 59.9091C52.6545 59.894 52.7184 59.876 52.7823 59.8571C52.8123 59.8486 52.8412 59.8391 52.8712 59.8296C52.9012 59.8202 52.9311 59.8107 52.9611 59.8003C52.991 59.7899 53.021 59.7795 53.05 59.7682L53.1399 59.7341C53.1678 59.7237 53.1968 59.7124 53.2248 59.7001C53.5284 59.5753 53.836 59.4116 54.1386 59.2064C54.1885 59.1724 54.2385 59.1374 54.2884 59.1005C54.3184 59.0788 54.3493 59.0561 54.3803 59.0324C54.4412 58.9861 54.5021 58.9388 54.5621 58.8887C54.592 58.8641 54.622 58.8395 54.6519 58.813C54.6819 58.7875 54.7109 58.762 54.7398 58.7364C54.7708 58.709 54.8008 58.6816 54.8307 58.6532C54.8896 58.5984 54.9476 58.5416 55.0065 58.483C55.0365 58.4537 55.0644 58.4244 55.0924 58.3941C55.1213 58.3638 55.1493 58.3326 55.1783 58.3024C55.2072 58.2712 55.2352 58.2399 55.2632 58.2078C55.2911 58.1756 55.3191 58.1435 55.3461 58.1104C55.3481 58.1094 55.3491 58.1085 55.3491 58.1075C55.376 58.0754 55.402 58.0432 55.429 58.0101C56.204 57.0503 56.8262 55.7206 57.0769 53.9692C57.6102 50.2423 57.0499 42.0781 57.0499 42.0781L60.2359 43.8522L66.405 47.287C66.3062 49.637 66.2692 51.5265 66.3631 53.0632C66.5169 55.5816 67.0232 57.1562 68.1938 58.2674H68.1948C68.2807 58.3496 68.3706 58.4291 68.4634 58.5047C68.5094 58.5445 68.5573 58.5823 68.6053 58.6182C68.6532 58.656 68.7021 58.6929 68.7531 58.7289C68.803 58.7657 68.8549 58.8017 68.9069 58.8357C68.9588 58.8717 69.0127 58.9067 69.0667 58.9398C69.3373 59.1119 69.6329 59.2707 69.9555 59.4192C69.9575 59.4202 69.9595 59.4211 69.9605 59.4221C70.0235 59.4514 70.0874 59.4807 70.1523 59.5081C70.2192 59.5384 70.2871 59.5677 70.356 59.5951C70.4249 59.6244 70.4948 59.6528 70.5658 59.6802C70.6337 59.7077 70.7026 59.7341 70.7735 59.7606C70.8494 59.789 70.9263 59.8174 71.0052 59.8457C71.164 59.9025 71.3288 59.9583 71.4986 60.0131C71.5595 60.0339 71.6214 60.0528 71.6844 60.0727C71.8841 60.1351 72.0918 60.1975 72.3056 60.259C72.3715 60.277 72.4374 60.2959 72.5043 60.3138C72.5293 60.3214 72.5542 60.328 72.5792 60.3346C72.6831 60.363 72.7889 60.3923 72.8968 60.4207C73.0586 60.4623 73.2234 60.5049 73.3922 60.5474C74.2371 60.7593 75.1569 61.0174 76.1227 61.3267C76.3634 61.4042 76.6071 61.4846 76.8538 61.5678C77.1005 61.652 77.3492 61.739 77.5998 61.8298C77.8505 61.9206 78.1032 62.0142 78.3579 62.1116C84.7208 64.5467 92.0256 69.156 93.1691 77.288C94.6322 87.6963 96.0475 114.681 96.0475 114.681H96.0495Z" fill="#D2BEA6"/>
<path d="M96.0485 115.51H92.2892H83.8849H83.1778H44.8913H43.53H40.9323H32.8995H24.4482C24.4482 115.51 24.4582 115.996 24.4822 115.51C24.4922 115.3 24.5042 115.803 24.5191 115.51C24.5301 115.309 24.5411 115.748 24.5541 115.51C24.5671 115.289 24.5801 115.762 24.5941 115.51C24.62 115.071 24.649 111.716 24.6819 111.19C24.6969 110.965 24.7119 110.733 24.7269 110.492C24.7329 110.413 24.7379 110.332 24.7429 110.25C24.7978 109.434 24.8607 108.539 24.9326 107.575C24.9476 107.382 24.9626 107.186 24.9776 106.989C24.9936 106.79 25.0085 106.589 25.0245 106.386C25.0275 106.344 25.0315 106.3 25.0355 106.257C25.0475 106.096 25.0615 105.933 25.0745 105.769C25.0814 105.681 25.0884 105.592 25.0964 105.503C25.1064 105.382 25.1164 105.26 25.1264 105.137C25.1444 104.924 25.1623 104.708 25.1803 104.491C25.1993 104.273 25.2183 104.053 25.2372 103.831C25.402 101.948 25.5978 99.9091 25.8285 97.769C25.8555 97.5203 25.8824 97.2697 25.9114 97.0172C26.185 94.5414 26.5066 91.9417 26.8822 89.3004C26.9171 89.0507 26.9541 88.8011 26.991 88.5505C27.3625 85.9924 27.787 83.4031 28.2694 80.8573C28.3163 80.6076 28.3643 80.358 28.4132 80.1083C28.551 79.3971 28.6929 78.6907 28.8407 77.989C28.9805 77.3214 29.1433 76.6792 29.3271 76.0608C29.4 75.813 29.4769 75.5699 29.5568 75.3307C29.6367 75.0905 29.7196 74.855 29.8055 74.6233C29.9343 74.2753 30.0711 73.9358 30.2129 73.6039C30.3767 73.2218 30.5505 72.8501 30.7323 72.4889C30.7592 72.4331 30.7882 72.3773 30.8162 72.3215C30.914 72.1305 31.0139 71.9432 31.1178 71.7579C31.1807 71.6425 31.2446 71.529 31.3105 71.4165C31.4813 71.1224 31.6571 70.8358 31.8379 70.5569C31.8988 70.4642 31.9597 70.3715 32.0206 70.2807C32.1445 70.0982 32.2693 69.9185 32.3962 69.7426C32.4601 69.6547 32.524 69.5677 32.5889 69.4816C32.9125 69.0494 33.2491 68.638 33.5956 68.2456C33.6656 68.1671 33.7355 68.0886 33.8054 68.012C34.087 67.7037 34.3747 67.4087 34.6683 67.124C34.7422 67.0531 34.8161 66.9831 34.89 66.9131C35.9117 65.9532 37.0003 65.1314 38.1149 64.425C38.4994 64.181 38.8869 63.9522 39.2754 63.7356C45.2109 60.4304 51.5189 60.1458 52.5356 59.9122C52.5536 59.9084 52.5716 59.9046 52.5906 59.8989C52.5956 59.897 52.6006 59.8961 52.6055 59.8942C52.6635 59.88 52.7224 59.864 52.7813 59.8469C52.8113 59.8375 52.8402 59.829 52.8702 59.8195C52.9002 59.81 52.9301 59.7996 52.9601 59.7902C52.9891 59.7798 53.019 59.7694 53.049 59.758L53.1389 59.724C53.1678 59.7136 53.1958 59.7022 53.2238 59.6899C53.5274 59.5651 53.835 59.4015 54.1376 59.1963C54.1875 59.1623 54.2375 59.1273 54.2874 59.0904C54.3174 59.0686 54.3483 59.0459 54.3793 59.0223C54.4402 58.9769 54.5011 58.9287 54.5611 58.8785C54.591 58.854 54.621 58.8294 54.651 58.8029C54.6809 58.7783 54.7099 58.7528 54.7388 58.7263C54.7698 58.6989 54.7998 58.6714 54.8297 58.6431C54.8896 58.5882 54.9486 58.5315 55.0055 58.4728C55.0355 58.4435 55.0634 58.4142 55.0914 58.3839C55.1203 58.3546 55.1493 58.3234 55.1773 58.2922C55.2062 58.261 55.2342 58.2298 55.2622 58.1976C55.2911 58.1655 55.3181 58.1333 55.3451 58.1002C55.3471 58.0993 55.3481 58.0974 55.3481 58.0974C55.375 58.0653 55.402 58.0331 55.429 58C62.9304 61.0347 66.9194 59.1216 68.1928 58.2572H68.1938C68.2797 58.3386 68.3696 58.418 68.4624 58.4946C68.5084 58.5334 68.5563 58.5712 68.6043 58.6081C68.6532 58.6459 68.7021 58.6818 68.7521 58.7187C68.803 58.7547 68.8539 58.7906 68.9059 58.8256C68.9588 58.8606 69.0118 58.8956 69.0657 58.9296C69.3373 59.1008 69.633 59.2597 69.9545 59.4091C69.9565 59.41 69.9585 59.411 69.9595 59.4119C70.0225 59.4412 70.0864 59.4696 70.1513 59.498C70.2182 59.5282 70.2861 59.5575 70.355 59.585C70.424 59.6143 70.4939 59.6427 70.5648 59.6701C70.5648 59.6701 70.5658 59.6701 70.5688 59.671C70.6357 59.6985 70.7036 59.7249 70.7725 59.7505C70.8484 59.7788 70.9253 59.8072 71.0042 59.8356C71.163 59.8923 71.3278 59.9481 71.4976 60.003C71.5585 60.0238 71.6204 60.0427 71.6834 60.0625C71.8831 60.125 72.0908 60.1874 72.3046 60.2488C72.3126 60.2507 72.3215 60.2536 72.3295 60.2555C72.3875 60.2715 72.4444 60.2876 72.5033 60.3037C72.5283 60.3113 72.5533 60.3179 72.5782 60.3245C72.6821 60.3529 72.7879 60.3822 72.8958 60.4106C73.0576 60.4522 73.2224 60.4947 73.3912 60.5373C74.2361 60.7491 75.156 61.0073 76.1217 61.3165C76.3624 61.3931 76.6071 61.4735 76.8528 61.5577C77.0995 61.6418 77.3482 61.7288 77.5989 61.8196C77.8495 61.9104 78.1022 62.004 78.3569 62.1015C79.818 62.6604 81.3281 63.3337 82.8022 64.1394C83.2047 64.3579 83.6042 64.5877 83.9997 64.8269C86.958 66.619 89.6665 68.9766 91.3924 72.0387C91.5262 72.2752 91.654 72.5154 91.7749 72.7603C92.453 74.1297 92.9364 75.6314 93.1681 77.2779C93.2959 78.1886 93.4238 79.2269 93.5506 80.3627C93.5776 80.6086 93.6046 80.8592 93.6315 81.1145C93.6775 81.5391 93.7224 81.9751 93.7673 82.4224C93.7673 82.4243 93.7673 82.4252 93.7673 82.4271C93.9651 84.3942 94.1579 86.5655 94.3436 88.8238C94.3636 89.0744 94.3846 89.3259 94.4045 89.5784C94.6083 92.1148 94.802 94.7428 94.9798 97.3009C94.9968 97.5534 95.0148 97.8059 95.0318 98.0565C95.2195 100.8 95.3893 103.444 95.5331 105.785C95.5481 106.041 95.5641 106.293 95.5791 106.541C95.8108 110.357 95.9696 114.492 96.0235 115.51C96.0385 115.769 96.0455 115.51 96.0455 115.51H96.0485Z" fill="#912B39"/>
<path d="M66.1261 88.535L66.6561 84.945C66.5661 84.955 66.4461 84.975 66.3161 84.985C66.1861 84.995 66.0661 85.005 65.9761 85.005L66.0761 84.315C66.1761 84.315 66.2761 84.295 66.3661 84.265C66.4661 84.225 66.5661 84.175 66.6461 84.115C66.7361 84.055 66.8061 83.985 66.8761 83.895C66.9361 83.815 66.9861 83.725 66.9961 83.625H67.7361L67.0161 88.535H66.1261Z" fill="#E8DFCE"/>
<path d="M72.9168 83.885C72.7768 83.715 72.5668 83.625 72.2968 83.625H72.1168C71.8668 83.625 71.6168 83.715 71.4368 83.885C71.2468 84.065 71.1168 84.305 71.0768 84.615L70.9268 85.575H71.7568L71.8968 84.635C71.9268 84.415 71.9968 84.305 72.0968 84.305H72.1168C72.2268 84.305 72.2568 84.415 72.2368 84.635L72.0268 85.995C71.9568 85.945 71.8768 85.895 71.7968 85.865C71.7168 85.825 71.6368 85.805 71.5568 85.805H71.5368C71.2768 85.805 71.0868 85.895 70.9768 86.075C70.8768 86.245 70.7968 86.485 70.7568 86.795L70.6468 87.575C70.6268 87.735 70.6168 87.865 70.6068 87.995C70.5968 88.095 70.6068 88.205 70.6368 88.305C70.6568 88.385 70.7068 88.455 70.7768 88.495C70.8668 88.555 70.9768 88.575 71.0768 88.565H71.1068C71.2068 88.565 71.2968 88.545 71.3868 88.515C71.4868 88.475 71.5868 88.425 71.6768 88.375L71.6568 88.535H72.4968L72.5368 88.275L73.0568 84.625C73.1068 84.305 73.0668 84.065 72.9168 83.885ZM71.7668 87.755C71.7268 87.895 71.6668 87.965 71.5768 87.965H71.5568C71.4568 87.965 71.4268 87.855 71.4668 87.645L71.5868 86.735C71.6268 86.515 71.6968 86.405 71.7868 86.405H71.8568C71.8568 86.405 71.9068 86.415 71.9168 86.425C71.9368 86.445 71.9568 86.465 71.9568 86.485L71.7668 87.755Z" fill="#E8DFCE"/>
<path d="M74.5168 85.5737L74.6568 84.6237C74.6668 84.5437 74.6668 84.4637 74.6568 84.3937C74.6368 84.3337 74.6068 84.3037 74.5468 84.3037H74.5268C74.5268 84.3037 74.4668 84.3137 74.4468 84.3337C74.4268 84.3537 74.4068 84.3737 74.3968 84.3937C74.3568 84.4637 74.3368 84.5437 74.3268 84.6237L74.2568 85.0437C74.2268 85.2237 74.2568 85.4138 74.3668 85.5638C74.4768 85.7038 74.5868 85.8437 74.7068 85.9737C74.8368 86.1137 74.9468 86.2637 75.0368 86.4237C75.1368 86.5837 75.1668 86.7937 75.1368 87.0537L75.0568 87.5537C75.0268 87.8237 74.9068 88.0838 74.6968 88.2738C74.5068 88.4438 74.2668 88.5437 74.0068 88.5437H73.8368C73.5668 88.5437 73.3668 88.4538 73.2268 88.2738C73.0868 88.0938 73.0368 87.8537 73.0868 87.5537L73.2168 86.5837H73.9668L73.8268 87.5337C73.8068 87.7537 73.8568 87.8637 73.9668 87.8637H74.0068C74.1268 87.8637 74.2068 87.7537 74.2368 87.5337L74.2968 87.1137C74.3168 86.9937 74.3068 86.8638 74.2668 86.7438C74.2268 86.6338 74.1668 86.5337 74.0968 86.4437C74.0168 86.3537 73.9368 86.2537 73.8568 86.1737C73.7668 86.0837 73.6868 85.9838 73.6168 85.8838C73.5468 85.7738 73.4868 85.6537 73.4468 85.5337C73.4068 85.3837 73.3968 85.2337 73.4268 85.0837L73.4968 84.5837C73.5268 84.3137 73.6568 84.0637 73.8568 83.8637C73.9468 83.7737 74.0568 83.7037 74.1768 83.6637C74.2968 83.6137 74.4268 83.5938 74.5568 83.5938H74.6468C74.9168 83.5938 75.1168 83.6837 75.2668 83.8637C75.4068 84.0437 75.4568 84.2837 75.4068 84.5837L75.2668 85.5537H74.5168V85.5737Z" fill="#E8DFCE"/>
<path d="M76.8566 85.5737L76.9966 84.6237C77.0066 84.5437 77.0066 84.4637 76.9966 84.3937C76.9766 84.3337 76.9466 84.3037 76.8866 84.3037H76.8666C76.8666 84.3037 76.8066 84.3137 76.7866 84.3337C76.7666 84.3537 76.7466 84.3737 76.7366 84.3937C76.6966 84.4637 76.6766 84.5437 76.6666 84.6237L76.5966 85.0437C76.5666 85.2237 76.5966 85.4138 76.7066 85.5638C76.8166 85.7038 76.9266 85.8437 77.0466 85.9737C77.1766 86.1137 77.2866 86.2637 77.3766 86.4237C77.4766 86.5837 77.5066 86.7937 77.4766 87.0537L77.3966 87.5537C77.3666 87.8237 77.2466 88.0838 77.0366 88.2738C76.8466 88.4438 76.6066 88.5437 76.3466 88.5437H76.1766C75.9066 88.5437 75.7066 88.4538 75.5666 88.2738C75.4266 88.0938 75.3766 87.8537 75.4266 87.5537L75.5566 86.5837H76.3066L76.1666 87.5337C76.1466 87.7537 76.1966 87.8637 76.3066 87.8637H76.3466C76.4666 87.8637 76.5466 87.7537 76.5766 87.5337L76.6366 87.1137C76.6566 86.9937 76.6466 86.8638 76.6066 86.7438C76.5666 86.6338 76.5066 86.5337 76.4366 86.4437C76.3566 86.3537 76.2766 86.2637 76.1966 86.1737C76.1066 86.0837 76.0266 85.9838 75.9566 85.8838C75.8866 85.7738 75.8266 85.6537 75.7866 85.5337C75.7466 85.3837 75.7366 85.2337 75.7666 85.0837L75.8366 84.5837C75.8666 84.3137 75.9966 84.0637 76.1966 83.8637C76.2866 83.7737 76.3966 83.7037 76.5166 83.6637C76.6366 83.6137 76.7666 83.5938 76.8966 83.5938H76.9866C77.2566 83.5938 77.4566 83.6837 77.6066 83.8637C77.7566 84.0437 77.7966 84.2837 77.7566 84.5837L77.6166 85.5537H76.8666L76.8566 85.5737Z" fill="#E8DFCE"/>
<path d="M70.4565 83.895C70.2965 83.715 70.0665 83.625 69.7865 83.625H68.5865L67.8765 88.535H68.7665L68.8765 87.735H69.2065C69.4565 87.745 69.7065 87.685 69.9265 87.555C70.1265 87.425 70.2565 87.205 70.3065 86.895L70.6365 84.645C70.6765 84.315 70.6265 84.065 70.4565 83.895ZM69.7165 84.785L69.4465 86.615C69.4165 86.875 69.3465 87.015 69.2265 87.015H68.9865L69.3765 84.355H69.5865C69.7165 84.355 69.7665 84.495 69.7165 84.785Z" fill="#E8DFCE"/>
<path d="M96.0508 114.678L92.2915 114.723C93.5589 114.59 94.8063 114.443 96.0288 114.281C96.0438 114.54 96.0508 114.678 96.0508 114.678Z" fill="#6B4E46"/>
<path d="M57.4263 43.5C57.4263 43.5 57.692 47.5996 60.818 51.3899C62.8624 53.8685 65.0766 53.5631 66.364 53.0543C66.2691 51.5175 66.307 49.6281 66.4049 47.278L60.2357 43.8433L57.4253 43.5H57.4263Z" fill="#21201E"/>
<path d="M54.9613 39.3184C55.7343 39.2238 56.2417 39.4158 56.5433 39.6068C56.4943 35.7673 56.8968 31.0938 56.8968 31.0938H72.0107L71.9707 39.5435C71.9707 39.5435 71.9427 39.9615 71.9707 42.6132C72.0047 45.8361 69.2392 50.7499 65.5329 50.7499C59.8331 50.7499 57.7417 46.7875 56.9388 43.7215C56.0389 43.9097 54.6317 44.0204 54.1473 43.0359C53.4142 41.5464 53.5591 39.4896 54.9613 39.3184Z" fill="#D2BEA6"/>
<path d="M63.2526 42.3279C63.4986 42.3279 63.698 42.1391 63.698 41.9062C63.698 41.6732 63.4986 41.4844 63.2526 41.4844C63.0066 41.4844 62.8071 41.6732 62.8071 41.9062C62.8071 42.1391 63.0066 42.3279 63.2526 42.3279Z" fill="#21201E"/>
<path d="M67.9064 42.3279C68.1524 42.3279 68.3518 42.1391 68.3518 41.9062C68.3518 41.6732 68.1524 41.4844 67.9064 41.4844C67.6604 41.4844 67.4609 41.6732 67.4609 41.9062C67.4609 42.1391 67.6604 42.3279 67.9064 42.3279Z" fill="#21201E"/>
<path d="M65.1005 39.0856C65.1005 39.0856 64.8249 39.1556 63.5874 39.1556C62.35 39.1556 61.7997 39.2691 61.8217 39.1556C61.9186 38.6685 64.1258 38.4236 64.4943 38.4756C64.8628 38.5276 65.2523 38.7716 65.0995 39.0856H65.1005Z" fill="#21201E"/>
<path d="M67.047 39.0856C67.047 39.0856 67.3227 39.1556 68.5601 39.1556C69.7975 39.1556 70.3478 39.2691 70.3258 39.1556C70.229 38.6685 68.0218 38.4236 67.6532 38.4756C67.2847 38.5276 66.8952 38.7716 67.048 39.0856H67.047Z" fill="#21201E"/>
<path d="M56.1871 39.2097L57.1029 42.2435C57.1029 42.2435 57.1708 38.613 57.6123 36.3008C58.0537 33.9876 59.41 33.4098 60.7843 33.1848C60.8252 33.1781 60.8711 33.1781 60.9211 33.1848H70.8445C70.8445 33.1848 73.7218 32.293 70.8894 29.2545C70.6068 29.1183 68.9699 28.8223 68.6513 28.74C64.7642 27.7442 58.8357 26.3058 57.7831 29.8748C57.7831 29.8748 56.1881 28.5679 55.6458 31.5676C55.1025 34.5655 56.1891 39.2097 56.1891 39.2097H56.1871Z" fill="#21201E"/>
<path d="M52.6074 59.8952C61.8667 65.1825 68.5712 61.6002 71.0051 59.8356C69.7976 59.4034 68.8808 58.9107 68.1946 58.2572C66.9233 59.1206 62.9333 61.0357 55.4298 58C54.5779 59.0535 53.5392 59.6625 52.6074 59.8942V59.8952Z" fill="#6B4E46"/>
<path d="M65.9535 44.8523C65.9765 44.839 66.0914 44.821 66.1843 44.8069C66.4999 44.7577 66.8934 44.6972 66.9553 44.4863C66.9892 44.3737 66.9203 44.2498 66.7456 44.107C66.0954 43.5784 66.2092 42.4143 66.2102 42.4029L66.0754 42.3906C66.0704 42.4407 65.9535 43.6333 66.6577 44.2054C66.7825 44.3075 66.8424 44.3945 66.8254 44.4522C66.7865 44.5837 66.381 44.647 66.1633 44.6811C66.0065 44.7057 65.9216 44.7199 65.8796 44.7463L65.9545 44.8532L65.9535 44.8523Z" fill="#21201E"/>
<path d="M65.976 45.4907C65.976 45.4907 64.8224 45.3829 64.0334 44.9375C64.0334 44.9375 64.2262 46.253 65.976 45.4907Z" fill="#21201E"/>
<path d="M72.0119 38.4677C72.0119 38.4677 71.5694 35.7602 69.9415 34.2187C69.9415 34.2187 65.9256 32.8484 63.998 37.3452C62.0705 41.8429 56.1899 39.2054 56.1899 39.2054L56.959 38.8365C56.959 38.8365 61.3494 40.344 62.8635 37.4312C62.8635 37.4312 60.9229 39.9326 56.5435 38.4677L57.4274 31.3921L72.3584 30.5391C72.3584 30.5391 73.7207 33.379 72.0119 38.4677Z" fill="#21201E"/>
<path d="M56.051 30.2835C56.051 30.2835 54.3202 27.5221 56.817 25.8198C59.3138 24.1176 64.2076 25.016 65.6558 25.8198C67.1039 26.6237 69.9264 24.1176 72.0107 26.2454C74.0951 28.3732 71.798 32.3451 71.798 32.3451L56.051 30.2835Z" fill="#21201E"/>
<path d="M69.9406 34.2187C69.9406 34.2187 69.1806 38.7637 72.1378 39.9742C72.1378 39.9742 74.2482 34.9942 72.3576 30.5391L69.9406 34.2187Z" fill="#21201E"/>
<path d="M44.8913 115.277L40.9324 115.323C42.0909 103.706 45.7672 73.0869 45.8541 72.3672C45.8022 73.0821 43.6939 102.394 44.8913 115.277Z" fill="#21201E"/>
<path d="M83.8861 114.819L83.179 114.827L79.5156 73.0625L83.8861 114.819Z" fill="#21201E"/>
<path d="M93.7704 82.4248C91.3195 68.3775 77.3182 62.0783 72.3306 60.2578C72.3885 60.2739 72.4454 60.29 72.5043 60.306C72.5293 60.3136 72.5543 60.3202 72.5793 60.3268C72.6831 60.3552 72.789 60.3845 72.8968 60.4129C73.0586 60.4545 73.2234 60.4971 73.3922 60.5396C74.2371 60.7515 75.157 61.0096 76.1228 61.3189C76.3635 61.3955 76.6081 61.4759 76.8538 61.56C77.1005 61.6442 77.3492 61.7312 77.5999 61.822C77.8506 61.9128 78.1032 62.0064 78.3579 62.1038C79.8191 62.6627 81.3291 63.336 82.8033 64.1418C83.2058 64.3602 83.6053 64.59 84.0008 64.8293C86.959 66.6214 89.6676 68.979 91.3934 72.0411C91.5272 72.2775 91.6551 72.5177 91.7759 72.7627C92.454 74.132 92.9374 75.6338 93.1691 77.2802C93.297 78.1909 93.4248 79.2293 93.5517 80.365C93.5786 80.6109 93.6056 80.8615 93.6326 81.1169C93.6785 81.5415 93.7234 81.9774 93.7684 82.4248H93.7704Z" fill="#21201E"/>
</g>
<defs>
<clipPath id="clip0_8129_22212">
<rect width="120.455" height="115" fill="white" transform="translate(0.0214844 0.171875)"/>
</clipPath>
</defs>
</svg>
