<svg width="121" height="116" viewBox="0 0 121 116" fill="none" xmlns="http://www.w3.org/2000/svg">
<g clip-path="url(#clip0_8129_22210)">
<rect width="120.455" height="115" transform="translate(0.476562 0.171875)" fill="white"/>
<path d="M52.3076 108.646C52.5934 108.461 52.7656 108.315 52.9701 108.228C53.5429 107.985 53.6721 108.057 54.0009 108.582C54.5128 109.408 54.9971 110.262 55.5867 111.033C56.6247 112.387 58.116 113.063 59.7006 113.509C60.161 112.401 60.692 111.364 61.0149 110.27C61.1739 109.728 61.0747 109.044 60.8857 108.489C60.3691 106.995 59.7388 105.54 59.1553 104.071C59.0273 103.751 58.8981 103.427 58.7439 103.034L59.9685 102.505C60.0785 102.613 60.2052 102.68 60.2555 102.787C60.9897 104.337 61.7432 105.88 62.4368 107.448C62.9426 108.59 62.9008 109.778 62.5193 110.937C62.2084 111.879 61.8508 112.811 61.486 113.737C61.1871 114.484 60.3332 114.911 59.5511 114.621C58.1854 114.116 56.8316 113.561 55.515 112.947C55.0246 112.717 54.5834 112.311 54.2258 111.9C53.4138 110.957 52.8063 109.89 52.3112 108.655L52.3076 108.648V108.646Z" fill="#D36A57"/>
<path d="M84.4005 99.2385C85.0989 98.9579 85.4027 98.3028 85.1181 97.6992C84.8657 97.1643 84.1303 96.8597 83.5993 97.0704C83.0109 97.3029 82.7239 98.0749 82.9978 98.6796C83.274 99.2912 83.7727 99.4916 84.4017 99.2385H84.4005Z" fill="#D36A57"/>
<path d="M73.4928 103.948C74.2091 103.664 74.4961 103.048 74.2008 102.42C73.9365 101.851 73.2572 101.554 72.7059 101.771C72.1211 101.998 71.8245 102.778 72.0912 103.378V103.381C72.3603 103.988 72.8721 104.194 73.4928 103.948Z" fill="#D36A57"/>
<path d="M80.6813 104.828C80.0917 105.075 79.7724 105.752 80.0068 106.265C80.24 106.786 81.0436 107.065 81.638 106.834C82.2562 106.593 82.4847 106.067 82.2263 105.484C81.9357 104.836 81.3079 104.568 80.6824 104.828H80.6813Z" fill="#D36A57"/>
<path d="M76.699 96.3763C77.3651 96.114 77.5768 95.657 77.3101 95.0523C77.0291 94.4075 76.3905 94.1257 75.7698 94.372C75.1934 94.5999 74.8609 95.2962 75.0834 95.8105C75.3154 96.3442 76.0855 96.6157 76.6978 96.3763H76.699Z" fill="#D36A57"/>
<path d="M14.521 83.582C14.8498 83.6805 15.077 83.7194 15.2756 83.8168C15.8305 84.094 15.852 84.236 15.6295 84.8098C15.2744 85.7077 14.8785 86.6034 14.6178 87.5253C14.1598 89.146 14.5377 90.6853 15.1608 92.149C16.3531 91.8031 17.531 91.5535 18.6241 91.1137C19.1646 90.8949 19.6621 90.3932 19.9981 89.9065C20.8963 88.5871 21.6903 87.2092 22.5275 85.8555C22.7092 85.56 22.8922 85.261 23.1182 84.9014L24.3141 85.489C24.295 85.6379 24.3189 85.7764 24.2627 85.8807C23.4543 87.3971 22.665 88.9238 21.8171 90.4207C21.2 91.5111 20.205 92.2212 19.0211 92.6576C18.0572 93.0126 17.0742 93.3253 16.0912 93.6288C15.2947 93.8705 14.4145 93.4971 14.1622 92.7309C13.7233 91.3931 13.3322 90.0336 13.0129 88.6638C12.8945 88.153 12.9507 87.57 13.0632 87.0466C13.3263 85.8509 13.819 84.7308 14.5186 83.59L14.5221 83.5831L14.521 83.582Z" fill="#D36A57"/>
<path d="M42.2119 101.747C42.8768 102.095 43.6003 101.914 43.916 101.324C44.1958 100.802 43.9854 100.061 43.4819 99.7952C42.9246 99.4997 42.1162 99.7654 41.7933 100.347C41.4668 100.935 41.6139 101.434 42.2119 101.747Z" fill="#D36A57"/>
<path d="M31.566 96.5162C32.2441 96.8758 32.9269 96.7063 33.2546 96.0936C33.5548 95.5404 33.373 94.8475 32.8528 94.5691C32.3039 94.2737 31.4811 94.5371 31.1582 95.1109V95.1143C30.8269 95.6927 30.9788 96.2047 31.566 96.5162Z" fill="#D36A57"/>
<path d="M35.3295 102.448C34.7603 102.16 34.008 102.344 33.7354 102.838C33.4555 103.338 33.7294 104.113 34.2879 104.414C34.8715 104.727 35.4431 104.57 35.7564 104.013C36.1056 103.392 35.9322 102.755 35.3295 102.448Z" fill="#D36A57"/>
<path d="M39.7459 94.1957C40.375 94.5313 40.8796 94.4042 41.2085 93.8281C41.5601 93.2153 41.3915 92.5613 40.8043 92.2509C40.259 91.9612 39.4828 92.1467 39.2018 92.6346C38.9112 93.1409 39.1695 93.8865 39.7471 94.1957H39.7459Z" fill="#D36A57"/>
<path d="M11.4224 39.6621C11.5468 39.9702 11.6568 40.1638 11.701 40.3745C11.8206 40.9632 11.719 41.0674 11.1115 41.2587C10.1571 41.5531 9.17889 41.8142 8.26403 42.1944C6.65556 42.8622 5.63546 44.1048 4.82823 45.4838C5.85431 46.1607 6.79189 46.8868 7.83232 47.4309C8.34775 47.7 9.06767 47.7596 9.67399 47.7069C11.31 47.5568 12.9316 47.2923 14.558 47.0747C14.912 47.0266 15.2708 46.9773 15.7049 46.9223L15.9704 48.1833C15.8364 48.2624 15.7384 48.3654 15.6188 48.3895C13.8764 48.7308 12.1387 49.0904 10.3879 49.3882C9.11312 49.6058 7.91364 49.3035 6.8182 48.6884C5.92846 48.1879 5.05904 47.6473 4.198 47.0999C3.50438 46.6543 3.26042 45.7621 3.72801 45.0955C4.546 43.933 5.41183 42.7923 6.33147 41.6997C6.67469 41.2931 7.18534 40.9712 7.68403 40.7296C8.82491 40.181 10.0459 39.8511 11.4128 39.6644H11.4212L11.4224 39.6621Z" fill="#D36A57"/>
<path d="M13.8596 71.7209C13.9888 72.4356 14.5891 72.8651 15.2672 72.7334C15.8687 72.6177 16.3411 71.9981 16.2442 71.454C16.1378 70.8527 15.4167 70.4129 14.7398 70.5343C14.0557 70.6569 13.7412 71.0772 13.8584 71.7209H13.8596Z" fill="#D36A57"/>
<path d="M11.4917 60.4876C11.6209 61.2195 12.1841 61.6249 12.8897 61.4886C13.5283 61.3684 13.9804 60.8003 13.8835 60.2368C13.783 59.6412 13.0548 59.1899 12.3839 59.3056H12.3803C11.7022 59.4202 11.3793 59.8531 11.4917 60.4876Z" fill="#D36A57"/>
<path d="M8.99592 67.0045C8.87513 66.3987 8.25805 65.9497 7.68283 66.0539C7.10043 66.1558 6.63762 66.8442 6.74046 67.4501C6.84929 68.0811 7.33363 68.4121 7.98419 68.2999C8.7089 68.1728 9.12148 67.6459 8.99592 67.0045Z" fill="#D36A57"/>
<path d="M18.4865 65.1664C18.6049 65.8467 19.0235 66.1456 19.698 66.0322C20.4179 65.9131 20.846 65.3794 20.7336 64.746C20.6308 64.1573 19.9946 63.6912 19.4217 63.7851C18.8274 63.8836 18.3801 64.541 18.4865 65.1664Z" fill="#D36A57"/>
<path d="M45.3463 9.95813C45.1729 10.2433 45.0832 10.446 44.9385 10.611C44.5331 11.0679 44.3836 11.0565 43.849 10.7209C43.0143 10.1895 42.1903 9.62026 41.3101 9.17243C39.7627 8.38445 38.1123 8.39476 36.4823 8.65017C36.5696 9.84016 36.5613 10.9958 36.7658 12.1136C36.8674 12.6668 37.268 13.2429 37.689 13.6644C38.8323 14.796 40.058 15.8451 41.2503 16.9274C41.5111 17.1622 41.7742 17.4005 42.0899 17.6914L41.2264 18.6763C41.0793 18.6248 40.9334 18.6168 40.8402 18.5412C39.4756 17.4497 38.098 16.3731 36.7634 15.2472C35.7911 14.4283 35.29 13.3414 35.1094 12.1388C34.9635 11.1607 34.8631 10.1723 34.7722 9.18618C34.7028 8.38903 35.2793 7.64915 36.1152 7.58501C37.5742 7.47277 39.0451 7.41092 40.5101 7.41665C41.0554 7.42009 41.6366 7.60219 42.1449 7.82439C43.3037 8.33635 44.3346 9.0453 45.3391 9.9524L45.3451 9.95813H45.3463Z" fill="#D36A57"/>
<path d="M20.693 31.7709C20.1907 32.3138 20.2146 33.0308 20.7432 33.4557C21.2132 33.8336 22.0132 33.8016 22.3971 33.3904C22.8216 32.9357 22.7308 32.1225 22.2105 31.6907C21.6843 31.2544 21.1438 31.2807 20.693 31.7709Z" fill="#D36A57"/>
<path d="M28.3873 22.9943C27.8707 23.5475 27.891 24.2221 28.4411 24.6653C28.9374 25.0685 29.6837 25.0525 30.0819 24.6287C30.5053 24.182 30.4203 23.3551 29.9073 22.9256L29.9049 22.9233C29.3895 22.4869 28.8346 22.5144 28.3873 22.9943Z" fill="#D36A57"/>
<path d="M21.5121 25.1886C21.9319 24.7214 21.9128 23.978 21.4691 23.6127C21.023 23.2404 20.1727 23.3229 19.7422 23.7776C19.295 24.2529 19.3273 24.821 19.8235 25.2379C20.3784 25.7018 21.0661 25.6823 21.5121 25.1875V25.1886Z" fill="#D36A57"/>
<path d="M28.9291 31.1491C28.4483 31.6622 28.4639 32.1616 28.9781 32.5956C29.5234 33.0606 30.2266 33.048 30.6739 32.5693C31.0901 32.1249 31.0745 31.3587 30.6404 30.9876C30.1896 30.6039 29.3728 30.6795 28.9303 31.1491H28.9291Z" fill="#D36A57"/>
<path d="M90.7448 16.8381C90.4039 16.8862 90.1815 16.9458 89.9579 16.94C89.3324 16.9206 89.2475 16.8026 89.1889 16.1921C89.1016 15.2358 89.0526 14.2646 88.8708 13.3254C88.5491 11.675 87.5111 10.4461 86.2865 9.38548C85.3692 10.1929 84.4209 10.9065 83.6352 11.7574C83.2465 12.1789 83.0265 12.8375 82.9439 13.4159C82.7323 14.977 82.6414 16.5495 82.5003 18.1163C82.4704 18.4576 82.4405 18.8035 82.401 19.2215L81.058 19.1895C81.0078 19.0474 80.9241 18.9329 80.9265 18.8161C80.9671 17.1141 80.9875 15.411 81.0736 13.7102C81.1357 12.471 81.711 11.4184 82.5804 10.5331C83.2884 9.81383 84.0322 9.12205 84.7796 8.44059C85.3871 7.89197 86.3498 7.8622 86.9239 8.4486C87.926 9.47138 88.8935 10.5342 89.8012 11.6349C90.1384 12.0461 90.3525 12.5947 90.4876 13.1135C90.7926 14.3012 90.856 15.5141 90.7424 16.8324V16.8404L90.7448 16.8381Z" fill="#D36A57"/>
<path d="M57.5671 11.9785C56.8101 11.9407 56.2409 12.4057 56.2229 13.0677C56.2074 13.6541 56.7324 14.2348 57.3076 14.2646C57.9438 14.2989 58.5513 13.724 58.5788 13.0654C58.6063 12.4 58.2488 12.0117 57.5671 11.9785Z" fill="#D36A57"/>
<path d="M69.5296 12.2683C68.7559 12.227 68.2177 12.6623 68.1998 13.3506C68.1795 13.9737 68.6578 14.5223 69.2522 14.5566C69.8812 14.5956 70.5031 14.016 70.5342 13.3643V13.3609C70.5688 12.7023 70.2005 12.3049 69.5296 12.2683Z" fill="#D36A57"/>
<path d="M63.4509 8.48875C64.0943 8.51165 64.6887 8.03405 64.7102 7.47399C64.7353 6.9082 64.1374 6.32294 63.4988 6.28399C62.8314 6.24505 62.3878 6.62301 62.3579 7.25638C62.3256 7.9619 62.7705 8.46355 63.4509 8.48989V8.48875Z" fill="#D36A57"/>
<path d="M63.2106 17.758C62.4918 17.7179 62.0948 18.0409 62.0601 18.696C62.0207 19.3946 62.4691 19.9123 63.1388 19.949C63.7607 19.9833 64.3766 19.4943 64.4089 18.9376C64.4412 18.3604 63.8707 17.7969 63.2106 17.758Z" fill="#D36A57"/>
<path d="M113.434 55.1218C113.182 54.8962 112.995 54.7668 112.86 54.5961C112.486 54.1151 112.53 53.9788 112.992 53.555C113.719 52.8942 114.481 52.2517 115.134 51.529C116.281 50.2588 116.637 48.716 116.739 47.1378C115.508 46.9545 114.334 46.69 113.15 46.6315C112.564 46.6029 111.888 46.8492 111.365 47.1481C109.959 47.9636 108.619 48.8752 107.252 49.7468C106.954 49.937 106.654 50.1305 106.288 50.3607L105.477 49.3345C105.562 49.2085 105.602 49.0734 105.701 49.0035C107.115 47.9727 108.518 46.9259 109.96 45.9295C111.01 45.2033 112.229 44.9777 113.493 45.0762C114.521 45.1575 115.55 45.2835 116.574 45.4186C117.401 45.5309 118.025 46.2341 117.905 47.029C117.694 48.4171 117.43 49.8041 117.097 51.1705C116.973 51.679 116.657 52.1818 116.319 52.6067C115.539 53.5756 114.588 54.3797 113.442 55.1161L113.434 55.1207V55.1218Z" fill="#D36A57"/>
<path d="M96.7158 27.2503C96.2745 26.6605 95.5403 26.523 94.989 26.9228C94.4998 27.2767 94.354 28.0326 94.6876 28.4816C95.0559 28.9798 95.9038 29.076 96.4599 28.6854C97.0208 28.2914 97.1141 27.7806 96.7158 27.2503Z" fill="#D36A57"/>
<path d="M103.937 36.3878C103.488 35.7819 102.797 35.6513 102.224 36.0671C101.704 36.4405 101.553 37.1403 101.895 37.6075C102.256 38.1023 103.116 38.2066 103.667 37.824L103.67 37.8217C104.228 37.4369 104.324 36.9135 103.935 36.3889L103.937 36.3878Z" fill="#D36A57"/>
<path d="M103.233 29.4792C103.616 29.9751 104.377 30.1229 104.848 29.7896C105.326 29.4551 105.432 28.6431 105.064 28.1403C104.681 27.6169 104.095 27.5207 103.559 27.8918C102.963 28.3075 102.83 28.9535 103.233 29.4792Z" fill="#D36A57"/>
<path d="M95.5163 35.0786C95.1014 34.5151 94.5895 34.4189 94.0322 34.8026C93.4379 35.2092 93.2932 35.8677 93.6818 36.3923C94.0418 36.8802 94.8251 37.0359 95.2999 36.713C95.7914 36.3774 95.8966 35.5986 95.5163 35.0797V35.0786Z" fill="#D36A57"/>
<path d="M96.3284 95.9801C96.3559 95.6503 96.3439 95.4304 96.4001 95.2231C96.5592 94.6424 96.6991 94.5909 97.3317 94.6722C98.3243 94.8039 99.3241 94.9745 100.32 95.0123C102.072 95.0799 103.554 94.3835 104.907 93.4764C104.288 92.4399 103.773 91.3965 103.082 90.4734C102.74 90.0164 102.118 89.6637 101.547 89.4598C100.005 88.9146 98.4248 88.4805 96.8605 87.9995C96.5197 87.8953 96.1741 87.791 95.7579 87.6605L96.0904 86.4132C96.2459 86.3983 96.3822 86.3445 96.4994 86.3743C98.2227 86.7912 99.9519 87.1886 101.664 87.6479C102.912 87.9812 103.855 88.7531 104.563 89.761C105.139 90.5822 105.677 91.4309 106.204 92.2807C106.627 92.9702 106.443 93.8762 105.72 94.2816C104.456 94.9894 103.159 95.656 101.835 96.2596C101.342 96.4829 100.736 96.5608 100.178 96.5723C98.9019 96.5929 97.6522 96.3821 96.3355 95.9824L96.3272 95.9801H96.3284Z" fill="#D36A57"/>
<path d="M108.658 66.0837C108.865 65.3862 108.519 64.7494 107.848 64.5867C107.254 64.4413 106.547 64.8032 106.388 65.3323C106.211 65.9187 106.662 66.614 107.327 66.7869C107.998 66.961 108.473 66.7125 108.658 66.0848V66.0837Z" fill="#D36A57"/>
<path d="M105.701 77.1888C105.915 76.4753 105.592 75.8763 104.895 75.7056C104.266 75.5487 103.599 75.8729 103.432 76.4203C103.253 76.9987 103.703 77.7088 104.361 77.8818H104.365C105.027 78.0616 105.514 77.8062 105.701 77.1877V77.1888Z" fill="#D36A57"/>
<path d="M110.902 72.3544C110.735 72.95 111.089 73.612 111.655 73.7563C112.225 73.9063 112.955 73.478 113.137 72.8893C113.324 72.2754 113.039 71.776 112.401 71.6077C111.691 71.421 111.081 71.7245 110.903 72.3544H110.902Z" fill="#D36A57"/>
<path d="M101.519 70.0672C101.719 69.4052 101.479 68.9619 100.819 68.7833C100.117 68.592 99.4892 68.8944 99.3026 69.5117C99.1292 70.0855 99.4903 70.7693 100.05 70.9228C100.63 71.0808 101.332 70.6742 101.519 70.066V70.0672Z" fill="#D36A57"/>
<path d="M63.9565 24.1388C63.9565 24.1388 61.5196 21.8432 55.9537 25.6051C50.3877 29.3671 50.7872 38.7446 49.7226 44.5458C48.6579 50.347 42.6775 62.9738 44.608 65.652C46.5386 68.3302 47.7251 67.3728 47.7251 67.3728L77.5543 66.0978C77.5543 66.0978 74.3583 58.1272 74.8907 53.1534C75.423 48.1796 77.5543 50.1251 77.1548 44.146C76.7553 38.1679 74.0917 27.3479 71.0955 24.9777C68.0993 22.6084 63.9565 24.1388 63.9565 24.1388Z" fill="#21201E"/>
<path d="M58.645 46.4392C58.645 46.4392 55.9954 46.2403 54.4234 41.7801C52.8523 37.3199 51.3652 30.3786 57.045 26.808C61.817 23.8074 73.2505 23.7385 73.5171 32.283C73.7838 40.8274 71.6955 41.7801 71.6955 41.7801L58.645 46.4392Z" fill="#21201E"/>
<path d="M24.9038 115.532L96.504 114.684C96.504 114.684 95.0888 87.3898 93.6257 76.8625C92.1625 66.3353 80.6042 61.6446 73.8468 59.9305C71.3809 59.304 69.731 58.666 68.6493 57.6244C67.4778 56.5005 66.9725 54.9079 66.8187 52.3607C66.7248 50.8064 66.7617 48.8953 66.8606 46.5184L60.6914 43.0444L57.5055 41.25C57.5055 41.25 58.0658 49.5084 57.5324 53.2771C57.2818 55.0485 56.6595 56.3934 55.8845 57.3642C55.0106 58.4575 53.943 59.0773 52.9912 59.2983C51.1975 59.7153 32.8877 60.2949 29.2962 77.5809C25.7038 94.8668 24.9038 115.532 24.9038 115.532Z" fill="#D2BEA6"/>
<path d="M96.505 114.679L83.102 114.838L81.0706 114.861L73.3484 114.953L54.6751 115.174L48.0574 115.253L40.7208 115.34L24.9038 115.527C24.9038 115.527 25.7048 94.8629 29.2972 77.577C31.8021 65.5155 41.4738 61.5881 47.7009 60.1734C48.422 60.0098 49.0951 59.8798 49.7074 59.7755C50.8259 59.5823 51.7348 59.4742 52.334 59.3958C52.6356 59.3565 52.8584 59.324 52.9912 59.2934C53.0152 59.2886 53.0381 59.2829 53.0621 59.2752C53.9949 59.0419 55.0326 58.4259 55.8845 57.3594C63.388 60.4298 67.378 58.4928 68.6493 57.6195C69.3365 58.2805 70.2523 58.7788 71.4598 59.2159C71.6006 59.2666 71.7454 59.3164 71.8942 59.3661C72.4795 59.5593 73.1287 59.743 73.8477 59.9257C74.0025 59.9649 74.1594 60.0051 74.3181 60.0481C74.5259 60.1026 74.7366 60.161 74.9513 60.2212C81.7927 62.1495 92.2404 66.8842 93.6267 76.8577C95.0898 87.385 96.505 114.679 96.505 114.679Z" fill="#21201E"/>
<path d="M67.5213 84.66L68.0513 81.07C67.9613 81.08 67.8413 81.1 67.7113 81.11C67.5813 81.12 67.4613 81.13 67.3713 81.13L67.4713 80.44C67.5713 80.44 67.6713 80.42 67.7613 80.39C67.8613 80.35 67.9613 80.3 68.0413 80.24C68.1313 80.18 68.2013 80.11 68.2713 80.02C68.3313 79.94 68.3813 79.85 68.3913 79.75H69.1313L68.4113 84.66H67.5213Z" fill="#E8DFCE"/>
<path d="M74.312 80.01C74.172 79.84 73.962 79.75 73.692 79.75H73.512C73.262 79.75 73.012 79.84 72.832 80.01C72.642 80.19 72.512 80.43 72.472 80.74L72.322 81.7H73.152L73.292 80.76C73.322 80.54 73.392 80.43 73.492 80.43H73.512C73.622 80.43 73.652 80.54 73.632 80.76L73.422 82.12C73.352 82.07 73.272 82.02 73.192 81.99C73.112 81.95 73.032 81.93 72.952 81.93H72.932C72.672 81.93 72.482 82.02 72.372 82.2C72.272 82.37 72.192 82.61 72.152 82.92L72.042 83.7C72.022 83.86 72.012 83.99 72.002 84.12C71.992 84.22 72.002 84.33 72.032 84.43C72.052 84.51 72.102 84.58 72.172 84.62C72.262 84.68 72.372 84.7 72.472 84.69H72.502C72.602 84.69 72.692 84.67 72.782 84.64C72.882 84.6 72.982 84.55 73.072 84.5L73.052 84.66H73.892L73.932 84.4L74.452 80.75C74.502 80.43 74.462 80.19 74.312 80.01ZM73.162 83.88C73.122 84.02 73.062 84.09 72.972 84.09H72.952C72.852 84.09 72.822 83.98 72.862 83.77L72.982 82.86C73.022 82.64 73.092 82.53 73.182 82.53H73.252C73.252 82.53 73.302 82.54 73.312 82.55C73.332 82.57 73.352 82.59 73.352 82.61L73.162 83.88Z" fill="#E8DFCE"/>
<path d="M75.9121 81.6987L76.0521 80.7487C76.0621 80.6687 76.0621 80.5887 76.0521 80.5187C76.0321 80.4587 76.0021 80.4287 75.9421 80.4287H75.922C75.922 80.4287 75.862 80.4387 75.842 80.4587C75.822 80.4787 75.802 80.4987 75.792 80.5187C75.752 80.5887 75.732 80.6687 75.722 80.7487L75.652 81.1687C75.622 81.3487 75.652 81.5388 75.762 81.6888C75.872 81.8288 75.9821 81.9687 76.1021 82.0987C76.2321 82.2387 76.3421 82.3887 76.4321 82.5487C76.5321 82.7087 76.562 82.9187 76.532 83.1787L76.452 83.6787C76.422 83.9487 76.302 84.2088 76.092 84.3988C75.902 84.5688 75.662 84.6687 75.402 84.6687H75.232C74.962 84.6687 74.762 84.5788 74.622 84.3988C74.482 84.2188 74.432 83.9787 74.482 83.6787L74.612 82.7087H75.362L75.222 83.6587C75.202 83.8787 75.252 83.9887 75.362 83.9887H75.402C75.522 83.9887 75.6021 83.8787 75.6321 83.6587L75.6921 83.2387C75.7121 83.1187 75.7021 82.9888 75.6621 82.8688C75.6221 82.7588 75.5621 82.6587 75.4921 82.5687C75.4121 82.4787 75.332 82.3787 75.252 82.2987C75.162 82.2087 75.082 82.1088 75.012 82.0088C74.942 81.8988 74.882 81.7787 74.842 81.6587C74.802 81.5087 74.7921 81.3587 74.8221 81.2087L74.892 80.7087C74.922 80.4387 75.052 80.1887 75.252 79.9887C75.342 79.8987 75.4521 79.8287 75.5721 79.7887C75.6921 79.7387 75.822 79.7188 75.952 79.7188H76.042C76.312 79.7188 76.5121 79.8087 76.6621 79.9887C76.8021 80.1687 76.8521 80.4087 76.8021 80.7087L76.6621 81.6787H75.9121V81.6987Z" fill="#E8DFCE"/>
<path d="M78.2519 81.6987L78.3919 80.7487C78.4019 80.6687 78.4019 80.5887 78.3919 80.5187C78.3719 80.4587 78.3419 80.4287 78.2819 80.4287H78.2619C78.2619 80.4287 78.2019 80.4387 78.1819 80.4587C78.1619 80.4787 78.1419 80.4987 78.1319 80.5187C78.0919 80.5887 78.0719 80.6687 78.0619 80.7487L77.9919 81.1687C77.9619 81.3487 77.9919 81.5388 78.1019 81.6888C78.2119 81.8288 78.3219 81.9687 78.4419 82.0987C78.5719 82.2387 78.6819 82.3887 78.7719 82.5487C78.8719 82.7087 78.9019 82.9187 78.8719 83.1787L78.7919 83.6787C78.7619 83.9487 78.6419 84.2088 78.4319 84.3988C78.2419 84.5688 78.0019 84.6687 77.7419 84.6687H77.5719C77.3019 84.6687 77.1019 84.5788 76.9619 84.3988C76.8219 84.2188 76.7719 83.9787 76.8219 83.6787L76.9519 82.7087H77.7019L77.5619 83.6587C77.5419 83.8787 77.5919 83.9887 77.7019 83.9887H77.7419C77.8619 83.9887 77.9419 83.8787 77.9719 83.6587L78.0319 83.2387C78.0519 83.1187 78.0419 82.9888 78.0019 82.8688C77.9619 82.7588 77.9019 82.6587 77.8319 82.5687C77.7519 82.4787 77.6719 82.3887 77.5919 82.2987C77.5019 82.2087 77.4219 82.1088 77.3519 82.0088C77.2819 81.8988 77.2219 81.7787 77.1819 81.6587C77.1419 81.5087 77.1319 81.3587 77.1619 81.2087L77.2319 80.7087C77.2619 80.4387 77.3919 80.1887 77.5919 79.9887C77.6819 79.8987 77.7919 79.8287 77.9119 79.7887C78.0319 79.7387 78.1619 79.7188 78.2919 79.7188H78.3819C78.6519 79.7188 78.8519 79.8087 79.0019 79.9887C79.1519 80.1687 79.1919 80.4087 79.1519 80.7087L79.0119 81.6787H78.2619L78.2519 81.6987Z" fill="#E8DFCE"/>
<path d="M71.8517 80.02C71.6917 79.84 71.4617 79.75 71.1817 79.75H69.9817L69.2717 84.66H70.1617L70.2717 83.86H70.6017C70.8517 83.87 71.1017 83.81 71.3217 83.68C71.5217 83.55 71.6517 83.33 71.7017 83.02L72.0317 80.77C72.0717 80.44 72.0217 80.19 71.8517 80.02ZM71.1117 80.91L70.8417 82.74C70.8117 83 70.7417 83.14 70.6217 83.14H70.3817L70.7717 80.48H70.9817C71.1117 80.48 71.1617 80.62 71.1117 80.91Z" fill="#E8DFCE"/>
<path d="M96.5054 114.678L83.1024 114.836L81.071 114.86L73.3488 114.952C73.3198 113.475 73.2989 111.941 73.2859 110.363C73.2809 109.714 73.2769 109.058 73.2739 108.395C73.2659 106.48 73.2679 104.513 73.2789 102.516V102.514C73.2789 102.227 73.2819 101.939 73.2839 101.65C73.2859 101.307 73.2879 100.962 73.2909 100.618C73.2929 100.306 73.2959 99.9943 73.2989 99.6815C73.3188 97.4442 73.3478 95.185 73.3838 92.9353C73.3947 92.2782 73.4057 91.622 73.4177 90.9678C73.4587 88.6875 73.5066 86.4272 73.5575 84.2206C73.5735 83.5587 73.5895 82.9025 73.6055 82.2511C73.6644 79.9134 73.7263 77.6504 73.7892 75.504C73.8092 74.8354 73.8292 74.1783 73.8492 73.5336C73.9241 71.0773 73.999 68.8046 74.0699 66.7854C74.0939 66.0987 74.1168 65.4416 74.1388 64.816C74.2087 62.8953 74.2706 61.2789 74.3186 60.0469C74.5263 60.1014 74.737 60.1597 74.9518 60.22C76.4379 60.6389 78.0938 61.1899 79.7896 61.8987C79.8835 61.9379 79.9784 61.9771 80.0723 62.0182C81.6733 62.7021 83.3042 63.5257 84.8562 64.5118C85.7491 65.079 86.616 65.6998 87.4359 66.3789C89.5632 68.1379 91.376 70.2853 92.5115 72.8889C92.7822 73.5077 93.0149 74.1534 93.2026 74.8249C93.3864 75.4762 93.5292 76.1534 93.6271 76.8565C93.8099 78.1755 93.9926 79.7585 94.1714 81.5175C94.2363 82.1497 94.3002 82.804 94.3632 83.4774C94.5609 85.5731 94.7527 87.8505 94.9344 90.1882C94.9854 90.8386 95.0353 91.4938 95.0852 92.1519C95.253 94.4006 95.4118 96.6733 95.5587 98.8666C95.6026 99.5294 95.6465 100.186 95.6875 100.831C95.8463 103.267 95.9861 105.559 96.105 107.55C96.1459 108.243 96.1839 108.9 96.2188 109.514C96.4006 112.662 96.5054 114.678 96.5054 114.678Z" fill="#618792"/>
<path d="M54.6751 115.18L48.0575 115.258L40.7208 115.345L24.9038 115.533C24.9038 115.533 24.9957 113.161 25.2574 109.351C25.3003 108.733 25.3462 108.077 25.3982 107.387C25.547 105.401 25.7348 103.134 25.9725 100.681C26.0334 100.04 26.0983 99.3853 26.1672 98.7205C26.3869 96.5827 26.6416 94.3321 26.9362 92.025C27.0191 91.3765 27.105 90.7241 27.1949 90.068C27.4945 87.8604 27.8321 85.6174 28.2096 83.3849C28.3195 82.7325 28.4333 82.0812 28.5512 81.4327C28.7849 80.1376 29.0336 78.8511 29.2972 77.5827C29.503 76.5918 29.7567 75.6563 30.0543 74.7725C30.279 74.0992 30.5297 73.4554 30.8023 72.8414C31.9918 70.1603 33.5998 68.0234 35.4115 66.3199C36.1476 65.6265 36.9176 65.0047 37.7076 64.4461C39.4903 63.1845 41.3719 62.2471 43.1836 61.546C43.2775 61.5087 43.3714 61.4733 43.4643 61.4389C44.9624 60.8765 46.4055 60.4728 47.7009 60.1792C48.422 60.0156 49.0951 59.8855 49.7074 59.7812C49.9021 61.1395 50.1368 62.8315 50.3975 64.8259C50.4804 65.4543 50.5643 66.1114 50.6522 66.7982C50.9068 68.8126 51.1815 71.0747 51.4631 73.5578C51.536 74.2005 51.6099 74.8586 51.6839 75.5301C51.9166 77.6449 52.1523 79.9013 52.386 82.2859C52.4499 82.9334 52.5128 83.5915 52.5767 84.2582C52.7805 86.416 52.9822 88.6705 53.176 91.0111C53.2299 91.6606 53.2838 92.3177 53.3358 92.9805C53.5095 95.1547 53.6763 97.3977 53.8331 99.7019C53.8341 99.7124 53.8341 99.722 53.8351 99.7325C53.8681 100.224 53.902 100.721 53.934 101.219C53.945 101.38 53.955 101.54 53.965 101.702C54.1078 103.901 54.2406 106.153 54.3615 108.452C54.3964 109.104 54.4294 109.76 54.4613 110.42C54.5392 111.987 54.6101 113.574 54.6751 115.18Z" fill="#618792"/>
<path d="M57.8809 42.6875C57.8809 42.6875 58.1465 46.8339 61.2726 50.6676C62.0106 51.5725 62.7707 52.111 63.5017 52.4046C65.0558 53.0292 66.7656 51.9216 66.7646 50.308C66.7646 49.1936 66.8015 47.9358 66.8605 46.5087L60.6913 43.0347L57.8809 42.6875Z" fill="#21201E"/>
<path d="M55.0374 41.5422C55.5217 42.5369 56.4965 43.1051 57.3954 42.9147C58.1984 46.0157 60.2897 50.0235 65.9895 50.0235C69.6948 50.0235 72.4613 45.0535 72.4273 41.7937C72.3993 39.1117 72.4273 38.6889 72.4273 38.6889L72.4523 30.3281H57.1337C57.0498 31.9226 56.9779 36.9796 56.9999 38.753C56.6993 38.5598 56.1909 38.3656 55.4179 38.4613C54.0157 38.6344 54.3043 40.0347 55.0374 41.5422Z" fill="#D2BEA6"/>
<path d="M63.8068 41.6032C64.0528 41.6032 64.2522 41.4122 64.2522 41.1766C64.2522 40.941 64.0528 40.75 63.8068 40.75C63.5608 40.75 63.3613 40.941 63.3613 41.1766C63.3613 41.4122 63.5608 41.6032 63.8068 41.6032Z" fill="#21201E"/>
<path d="M68.463 41.6032C68.709 41.6032 68.9084 41.4122 68.9084 41.1766C68.9084 40.941 68.709 40.75 68.463 40.75C68.217 40.75 68.0176 40.941 68.0176 41.1766C68.0176 41.4122 68.217 41.6032 68.463 41.6032Z" fill="#21201E"/>
<path d="M66.4315 44.708C66.4315 44.708 65.278 44.599 64.489 44.1484C64.489 44.1484 64.6818 45.4789 66.4315 44.708Z" fill="#21201E"/>
<path d="M66.5546 43.9129C66.8262 43.9129 67.0739 43.8259 67.2097 43.7025C67.3076 43.6135 67.3436 43.5092 67.3106 43.4098C67.2237 43.1486 66.9341 42.3748 66.9321 42.3672L66.7913 42.416C66.7943 42.4236 67.0829 43.1946 67.1688 43.4538C67.1878 43.5112 67.1458 43.5647 67.1079 43.5992C66.9431 43.7493 66.5516 43.8345 66.205 43.7111L66.1531 43.8459C66.2859 43.8938 66.4237 43.9138 66.5566 43.9138L66.5546 43.9129Z" fill="#21201E"/>
<path d="M62.3462 38.0978C62.3462 38.0978 65.0048 38.313 65.5671 38.182C65.5671 38.182 65.5431 37.9027 65.0558 37.763C64.5684 37.6234 63.1452 37.7745 62.3462 38.0978Z" fill="#21201E"/>
<path d="M70.7331 38.0972C70.7331 38.0972 68.0735 38.3125 67.5122 38.1805C67.5122 38.1805 67.5362 37.9012 68.0246 37.7625C68.5129 37.6238 69.9341 37.7749 70.7331 38.0972Z" fill="#21201E"/>
<path d="M55.9517 32.9141C56.0036 35.5731 56.6428 38.3422 56.6428 38.3422L56.7836 38.8138C57.6555 41.8296 57.1811 45.2042 57.1571 45.3744C57.2011 45.2319 57.9192 42.8655 57.8802 40.9334C57.8552 39.6727 57.8622 37.8697 57.8702 36.7142C57.9262 36.2532 57.9911 35.8065 58.068 35.4C58.3087 34.126 58.82 33.3722 59.4582 32.9141H55.9517Z" fill="#21201E"/>
<path d="M45.5069 75.6016C45.5069 75.6016 45.5059 75.6063 45.5049 75.615L45.5069 75.6016Z" fill="#6B4E46"/>
<path d="M83.101 114.839L81.0696 73.2031V114.863L83.101 114.839Z" fill="#21201E"/>
<path d="M40.7202 115.339L48.0569 115.252C45.6379 107.222 41.659 90.9409 43.17 74.6172C43.17 74.6172 40.1948 94.5804 40.7202 115.339Z" fill="#21201E"/>
<path d="M71.8932 59.3661C62.6859 64.4126 55.0875 61.0189 52.333 59.3958C52.6346 59.3565 52.8573 59.324 52.9902 59.2934C53.0141 59.2886 53.0371 59.2829 53.0611 59.2752C53.9939 59.0419 55.0316 58.4259 55.8835 57.3594C63.387 60.4298 67.3769 58.4928 68.6483 57.6195C69.3355 58.2805 70.2513 58.7788 71.4588 59.2159C71.5996 59.2666 71.7444 59.3164 71.8932 59.3661Z" fill="#D2BEA6"/>
<path d="M53.9352 101.218L51.696 92.9533L51.1597 90.9762L49.323 84.1965L48.7857 82.2147L46.947 75.4283L46.4097 73.4454L44.5681 66.6514L44.0307 64.6667L43.1848 61.5446C43.2787 61.5073 43.3726 61.4719 43.4655 61.4375L44.3433 64.6762L44.8807 66.66L46.7213 73.4531L47.2586 75.4359L49.0983 82.2223L49.6346 84.2032L51.4713 90.982L52.0076 92.9581L53.8343 99.7005C53.8683 100.203 53.9022 100.709 53.9352 101.218Z" fill="#21201E"/>
<path d="M80.0737 62.018C79.9458 62.7526 79.791 63.6508 79.6142 64.6838C79.5104 65.2969 79.3975 65.9588 79.2777 66.6618C78.9421 68.638 78.5536 70.9412 78.1351 73.4367C78.0253 74.0833 77.9144 74.7433 77.8025 75.4138C77.437 77.587 77.0545 79.8711 76.668 82.1859C76.5581 82.843 76.4473 83.503 76.3374 84.163C75.9579 86.4366 75.5774 88.7178 75.2078 90.9321C75.097 91.5969 74.9871 92.2559 74.8782 92.9064C74.287 96.4588 73.7357 99.7702 73.2803 102.513C73.2833 101.884 73.2873 101.252 73.2923 100.618C73.6778 98.2972 74.1132 95.6773 74.5736 92.9121C74.6825 92.2617 74.7924 91.6036 74.9022 90.9388C75.2717 88.7245 75.6523 86.4433 76.0318 84.1697C76.1426 83.5097 76.2525 82.8497 76.3634 82.1926C76.7499 79.8788 77.1314 77.5947 77.4969 75.4215C77.6088 74.751 77.7196 74.091 77.8285 73.4444C78.248 70.9517 78.6365 68.6494 78.9721 66.6704C79.0919 65.9684 79.2048 65.3065 79.3096 64.6924C79.4954 63.6039 79.6582 62.6608 79.791 61.8984C79.8849 61.9377 79.9798 61.9769 80.0737 62.018Z" fill="#21201E"/>
<path d="M73.2677 45.6947C73.2677 45.6947 70.7809 44.9304 70.7339 40.4664C70.6271 30.3275 65.8032 32.9101 65.8032 32.9101C58.1798 31.2524 57.8812 37.7146 57.8812 37.7146L55.9517 35.419L56.9114 29.1797H72.4507L73.2677 45.6947Z" fill="#21201E"/>
</g>
<defs>
<clipPath id="clip0_8129_22210">
<rect width="120.455" height="115" fill="white" transform="translate(0.476562 0.171875)"/>
</clipPath>
</defs>
</svg>
