<svg width="121" height="116" viewBox="0 0 121 116" fill="none" xmlns="http://www.w3.org/2000/svg">
<g clip-path="url(#clip0_8129_22213)">
<rect width="120.455" height="115" transform="translate(0.111328 0.171875)" fill="white"/>
<path d="M66.34 111.642C67.6143 111.829 68.2237 111.149 68.7121 109.026C69.2842 108.815 69.4955 108.822 70.0585 109.086C70.0869 110.044 69.7841 110.891 68.9749 111.529C68.1735 112.16 67.1775 112.179 66.1377 112.169C66.3838 112.739 66.7665 113.098 67.2754 113.339C67.6143 113.502 67.9776 113.497 68.3126 113.327C68.6038 113.18 68.8976 113.011 69.1411 112.801C69.6321 112.38 70.1371 112.456 70.6886 112.653C69.8769 113.865 67.9776 114.162 65.7357 113.424C65.8877 114.093 66.2433 114.6 66.8567 114.84C67.4275 115.063 68.064 115.133 68.7546 115.288C67.5383 115.921 65.4896 115.25 64.433 113.932C63.0105 114.503 61.5906 114.445 60.154 113.761C60.4104 113.422 60.7596 113.522 61.0649 113.532C61.217 113.537 61.3664 113.605 61.5107 113.658C62.6253 114.076 63.3417 113.832 64.0065 112.766C63.8352 112.762 63.6934 112.763 63.5543 112.754C62.9564 112.714 62.3367 112.754 61.7646 112.614C60.6127 112.331 59.9581 111.539 59.5432 110.427C59.8705 110.385 60.1256 110.345 60.3807 110.319C60.7389 110.283 60.9387 110.436 61.1074 110.743C61.3394 111.164 61.6022 111.598 61.9553 111.931C62.6266 112.56 63.4151 112.475 64.1135 111.769C63.7372 111.63 63.3597 111.515 63.0067 111.356C61.5546 110.693 61.0327 109.009 61.8496 107.699C61.981 107.49 62.1498 107.383 62.3882 107.397C62.6717 107.412 62.9551 107.468 63.2966 107.515C63.227 107.787 63.1768 108.006 63.1162 108.22C62.9307 108.841 62.9075 109.463 63.1729 110.069C63.37 110.524 63.6612 110.904 64.2397 111.131C64.2166 110.939 64.1908 110.806 64.1843 110.671C64.1663 110.29 64.281 109.933 64.6443 109.752C64.9935 109.58 65.0863 109.318 65.1649 109.003C65.4445 107.879 65.737 106.762 66.0269 105.641C66.2665 104.707 66.5139 104.605 67.5434 105.073L66.4727 109.253C66.3941 109.561 66.3271 109.842 66.5384 110.152C66.7394 110.448 66.6801 110.801 66.5616 111.128C66.4998 111.301 66.4199 111.468 66.3464 111.643H66.3413L66.34 111.642Z" fill="#618792"/>
<path d="M50.3846 110.882C50.5573 110.753 50.7493 110.648 50.9554 110.57C51.1629 110.491 51.3819 110.438 51.6061 110.415C51.8149 110.391 52.0262 110.402 52.2323 110.445L52.7774 109.167C52.5841 109.124 52.347 109.084 52.0648 109.048C51.7826 109.01 51.5417 108.982 51.3446 108.966L54.187 102.323L52.3689 101.914L48.4854 111.006L49.9929 111.345C50.0831 111.165 50.2171 111.007 50.3846 110.883V110.882Z" fill="#618792"/>
<path d="M37.9894 108.119C38.1994 108.519 38.5795 108.781 39.131 108.907L39.5021 108.99C40.0213 109.11 40.569 109.044 41.0302 108.803C41.516 108.558 41.8819 108.15 42.1306 107.579L42.9127 105.796L41.199 105.412L40.4478 107.159C40.2855 107.564 40.0948 107.742 39.8757 107.691L39.8345 107.681C39.6271 107.634 39.6013 107.409 39.7662 107.006L40.8498 104.488C40.9735 104.622 41.1114 104.743 41.2622 104.851C41.4 104.953 41.5598 105.027 41.7312 105.067L41.7724 105.076C42.3084 105.197 42.731 105.111 43.039 104.821C43.3469 104.53 43.6162 104.104 43.8469 103.543L44.4615 102.082C44.5774 101.798 44.6728 101.543 44.7462 101.311C44.8145 101.114 44.8454 100.908 44.8364 100.701C44.83 100.538 44.763 100.382 44.647 100.258C44.4847 100.116 44.2811 100.022 44.062 99.9856L44.0002 99.9712C43.8043 99.9301 43.6033 99.9229 43.4062 99.9482C43.182 99.9748 42.9604 100.022 42.7478 100.091L42.8715 99.7794L41.1578 99.3947L38.0757 106.648C37.8103 107.227 37.7832 107.717 37.9933 108.119H37.9894ZM42.2569 101.222C42.4076 100.975 42.5725 100.872 42.7516 100.912L42.7929 100.922C42.999 100.967 43.0081 101.189 42.8186 101.587L42.1241 103.274C41.936 103.671 41.744 103.849 41.5521 103.805L41.4103 103.774C41.3627 103.763 41.3201 103.738 41.2892 103.701C41.2583 103.666 41.2428 103.622 41.2415 103.577L42.2556 101.223L42.2569 101.222Z" fill="#618792"/>
<path d="M35.5542 104.141L34.0247 103.798L33.2633 105.587C33.0107 106.143 32.9875 106.626 33.1962 107.032C33.405 107.439 33.7838 107.704 34.334 107.828L34.5247 107.872C34.7875 107.934 35.0594 107.949 35.3261 107.914C35.5928 107.879 35.8505 107.797 36.0812 107.672C36.585 107.397 36.9715 106.972 37.1751 106.467L37.5668 105.536C37.6982 105.262 37.7588 104.964 37.7459 104.665C37.7279 104.41 37.6712 104.158 37.5784 103.916C37.4869 103.684 37.3722 103.461 37.2356 103.249C37.1042 103.044 36.9831 102.834 36.8736 102.617C36.7692 102.412 36.6996 102.194 36.6687 101.971C36.6417 101.727 36.6816 101.481 36.786 101.255L37.1184 100.469C37.2962 100.069 37.5088 99.8962 37.7562 99.9517L37.8387 99.9698C38.0706 100.022 38.1131 100.251 37.9649 100.658L37.2125 102.411L38.7419 102.755L39.4853 100.96C39.7327 100.402 39.7546 99.9192 39.5523 99.5139C39.3501 99.1087 38.9738 98.8446 38.4236 98.7204L38.0732 98.642C37.5487 98.5202 36.9947 98.5901 36.5296 98.8361C36.0167 99.1063 35.6315 99.538 35.4421 100.053L35.0298 100.979C34.8352 101.457 34.7978 101.875 34.9164 102.235C35.0323 102.589 35.1857 102.932 35.3738 103.259C35.5542 103.567 35.7165 103.885 35.8621 104.209C36 104.552 35.9897 104.93 35.8325 105.263L35.482 106.045C35.4215 106.194 35.3338 106.334 35.223 106.456C35.1882 106.5 35.1406 106.535 35.0852 106.556C35.0298 106.576 34.9692 106.581 34.9099 106.57L34.8687 106.561C34.7579 106.535 34.6999 106.465 34.696 106.336C34.6986 106.183 34.7334 106.031 34.7991 105.89L35.5516 104.138L35.5542 104.141Z" fill="#618792"/>
<path d="M28.4031 105.955C28.6118 106.363 28.9919 106.628 29.5421 106.753L29.7277 106.795C29.9905 106.857 30.2624 106.872 30.5304 106.837C30.7984 106.802 31.0548 106.72 31.2867 106.595C31.7905 106.32 32.1771 105.895 32.3819 105.39L32.7736 104.459C32.9038 104.185 32.9656 103.887 32.9527 103.588C32.936 103.332 32.8793 103.08 32.7852 102.839C32.6938 102.607 32.5791 102.384 32.4438 102.172C32.3111 101.967 32.19 101.756 32.0817 101.54C31.9774 101.335 31.9078 101.117 31.8769 100.894C31.8498 100.65 31.8897 100.404 31.9941 100.178L32.3265 99.3922C32.5044 98.9918 32.717 98.8193 32.9643 98.8748L33.0429 98.8929C33.2749 98.9447 33.3174 99.1751 33.1692 99.5815L32.4167 101.334L33.9462 101.678L34.6909 99.8842C34.937 99.3258 34.9589 98.8434 34.7579 98.4382C34.5569 98.0318 34.1807 97.7676 33.6305 97.6446L33.2787 97.5662C32.7543 97.4444 32.2003 97.5144 31.7338 97.7592C31.2223 98.0294 30.8371 98.4635 30.6502 98.9785L30.2379 99.9047C30.0433 100.382 30.006 100.801 30.1245 101.16C30.2405 101.514 30.3938 101.856 30.5819 102.183C30.7623 102.493 30.9247 102.809 31.0703 103.133C31.2081 103.476 31.1978 103.854 31.0406 104.187L30.6902 104.969C30.6296 105.12 30.542 105.258 30.4312 105.381C30.3964 105.426 30.3487 105.461 30.2933 105.481C30.2379 105.502 30.1773 105.507 30.1181 105.496L30.0768 105.486C29.966 105.461 29.9081 105.391 29.9042 105.262C29.9068 105.108 29.9416 104.956 30.0073 104.814L30.7597 103.062L29.2213 102.716L28.4598 104.506C28.215 105.064 28.1957 105.547 28.4044 105.954L28.4031 105.955Z" fill="#618792"/>
<path d="M43.0403 109.244C43.289 109.66 43.7026 109.934 44.2824 110.063L46.7382 110.614L50.6089 101.517L48.7934 101.109L48.1633 102.589L47.5023 102.441C46.9831 102.309 46.4355 102.318 45.9239 102.466C45.4498 102.613 45.08 102.978 44.8145 103.558L43.048 107.725C42.7929 108.322 42.7903 108.829 43.0416 109.244H43.0403ZM44.9936 107.877L46.4535 104.482C46.6377 103.989 46.8542 103.771 47.1016 103.827L47.5796 103.934L45.4897 108.849L45.0581 108.752C44.7823 108.691 44.763 108.399 44.9975 107.878H44.9949L44.9936 107.877Z" fill="#618792"/>
<path d="M22.1759 95.8309C22.815 96.8802 23.762 96.9019 25.8403 95.9359C26.3737 96.2229 26.5 96.3821 26.6302 96.9586C25.848 97.5761 24.9526 97.8824 23.9153 97.6882C22.8884 97.4953 22.2519 96.7789 21.6115 96.0118C21.2881 96.5473 21.2275 97.0514 21.3435 97.5737C21.4195 97.9222 21.6502 98.1863 22.0006 98.325C22.306 98.4456 22.6294 98.5566 22.9567 98.6036C23.6138 98.7001 23.8664 99.1174 24.0455 99.6432C22.5276 99.8048 21.0935 98.6012 20.3114 96.5003C19.8489 97.0273 19.6453 97.605 19.827 98.2032C19.997 98.7592 20.3346 99.2681 20.6361 99.8723C19.3489 99.3767 18.6312 97.4591 19.0745 95.8647C17.7113 95.1797 16.8738 94.1051 16.5491 92.6265C16.9923 92.6036 17.1263 92.9208 17.3093 93.1499C17.3995 93.2633 17.4355 93.4153 17.4806 93.5552C17.8272 94.6309 18.4766 95.0036 19.7819 94.8251C19.6775 94.6973 19.5886 94.5936 19.51 94.4862C19.1711 94.0243 18.7511 93.5938 18.5114 93.0884C18.0295 92.0693 18.2821 91.0961 18.9521 90.0987C19.1917 90.3121 19.3837 90.4738 19.5641 90.6438C19.8167 90.8838 19.8141 91.125 19.662 91.4398C19.4546 91.8728 19.2562 92.3359 19.1982 92.8002C19.0925 93.683 19.6543 94.2064 20.6799 94.2788C20.5614 93.917 20.421 93.5696 20.3346 93.2114C19.9829 91.7353 21.0639 90.3037 22.6681 90.0854C22.9258 90.0504 23.119 90.1083 23.2569 90.2904C23.4218 90.5075 23.5507 90.7487 23.7246 91.0285C23.4528 91.1479 23.2402 91.2468 23.0224 91.3361C22.3872 91.5881 21.855 91.9572 21.5136 92.53C21.2572 92.9582 21.1206 93.408 21.292 93.9737C21.4376 93.8374 21.5316 93.7361 21.6424 93.6468C21.9504 93.396 22.3202 93.2573 22.6964 93.4104C23.0585 93.5588 23.3355 93.4635 23.646 93.3248C24.758 92.8291 25.8751 92.3455 26.9922 91.8595C27.9212 91.4531 28.1622 91.57 28.4121 92.6157L27.7808 92.8919C26.6044 93.408 25.4293 93.9218 24.2516 94.438C23.945 94.5731 23.6679 94.6997 23.5417 95.047C23.4193 95.3787 23.0881 95.556 22.7415 95.673C22.5598 95.7357 22.3691 95.7815 22.1772 95.837L22.1746 95.8322L22.1759 95.8309Z" fill="#618792"/>
<path d="M12.8614 83.6814C13.0765 83.7272 13.284 83.8032 13.4773 83.9045C13.6731 84.007 13.8522 84.1349 14.012 84.2844C14.1627 84.4219 14.2851 84.5835 14.3766 84.7608L15.7837 84.3628C15.6999 84.194 15.5852 83.9962 15.4396 83.767C15.2953 83.5379 15.1678 83.3437 15.0595 83.1881L22.3807 81.127L21.5896 79.5423L11.5742 82.3692L12.2313 83.6826C12.4375 83.6368 12.6539 83.6356 12.8614 83.6802V83.6814Z" fill="#618792"/>
<path d="M7.44073 72.8875C7.23715 73.2903 7.25518 73.7317 7.49484 74.2141L7.6559 74.5373C7.87881 74.992 8.27566 75.3514 8.76529 75.5395C9.27295 75.7421 9.84117 75.7554 10.4738 75.5817L12.4504 75.0426L11.703 73.5484L9.77417 74.0887C9.3348 74.2225 9.06808 74.1936 8.97273 74.0018L8.9547 73.9657C8.8645 73.7848 9.03716 73.6243 9.47653 73.4941L12.2558 72.7162C12.221 72.8899 12.2055 73.0672 12.2094 73.2444C12.2094 73.4085 12.2481 73.5725 12.3215 73.722L12.3395 73.7582C12.5728 74.2262 12.9078 74.4818 13.3433 74.5253C13.7788 74.5687 14.3006 74.5011 14.9126 74.3202L16.5168 73.8583C16.826 73.7667 17.0992 73.6762 17.3376 73.5858C17.545 73.5134 17.7357 73.4073 17.9032 73.2722C18.0346 73.1661 18.1236 73.0201 18.1545 72.8573C18.1725 72.6499 18.1248 72.4424 18.0166 72.2591L17.9895 72.2048C17.9019 72.036 17.7821 71.884 17.6378 71.755C17.4754 71.6067 17.2989 71.4752 17.1082 71.3606L17.4445 71.2569L16.6972 69.7626L8.71761 72.03C8.06951 72.1964 7.64173 72.4822 7.43686 72.8863L7.44073 72.8875ZM15.8623 71.7104C16.1625 71.6658 16.3506 71.7224 16.4292 71.8792L16.4472 71.9154C16.5374 72.0951 16.357 72.2398 15.9074 72.3484L14.0648 72.8923C13.6151 73.002 13.3484 72.9731 13.2647 72.8042L13.2028 72.6812C13.1822 72.639 13.1771 72.592 13.1874 72.5474C13.1977 72.5027 13.2247 72.4629 13.2621 72.4352L15.861 71.7104H15.8623Z" fill="#618792"/>
<path d="M9.24592 68.6252L8.57978 67.2925L6.60968 67.8509C5.98734 68.0126 5.57116 68.2972 5.36114 68.7024C5.15112 69.1088 5.16658 69.5514 5.40624 70.0314L5.48999 70.1979C5.60209 70.4282 5.75928 70.6369 5.95513 70.8105C6.15098 70.9842 6.37904 71.1205 6.62901 71.2121C7.17275 71.4099 7.76803 71.4268 8.31821 71.2616L9.33998 70.9673C9.65051 70.8925 9.93655 70.7514 10.1788 70.5561C10.3811 70.3836 10.5563 70.1858 10.6993 69.9663C10.8346 69.7553 10.9506 69.5321 11.0421 69.2994C11.131 69.0751 11.2315 68.8556 11.3436 68.6409C11.4492 68.4371 11.5884 68.2501 11.7559 68.0873C11.9427 67.9149 12.1734 67.7918 12.4259 67.7279L13.2892 67.4807C13.7337 67.3613 14.0107 67.4095 14.119 67.6254L14.155 67.6966C14.2555 67.8992 14.0906 68.0728 13.659 68.2188L11.7263 68.7615L12.3924 70.0942L14.3548 69.5201C14.9758 69.3524 15.392 69.0678 15.6046 68.6674C15.8172 68.267 15.803 67.8268 15.5634 67.3468L15.41 67.0405C15.1845 66.581 14.7813 66.2192 14.2852 66.0322C13.7402 65.826 13.1384 65.8128 12.5908 65.9949L11.56 66.271C11.0395 66.4266 10.6671 66.6594 10.4403 66.9705C10.2161 67.2757 10.0255 67.6013 9.87084 67.9438C9.72524 68.2682 9.5616 68.5854 9.3825 68.8929C9.18279 69.2077 8.85938 69.4357 8.48314 69.5285L7.61212 69.7601C7.44849 69.8095 7.27841 69.8324 7.10704 69.8276C7.04777 69.83 6.98979 69.8168 6.93696 69.789C6.88542 69.7613 6.8429 69.7191 6.81584 69.6696L6.7978 69.6334C6.74884 69.537 6.77332 69.4501 6.87769 69.3681C7.00782 69.2741 7.156 69.2041 7.31577 69.1655L9.2485 68.624L9.24592 68.6252Z" fill="#618792"/>
<path d="M3.27121 64.5236C3.06118 64.93 3.07536 65.3738 3.31501 65.8538L3.39619 66.0155C3.50829 66.2458 3.66548 66.4544 3.86133 66.6293C4.05718 66.803 4.28524 66.9405 4.53521 67.0309C5.07895 67.2287 5.67423 67.2456 6.22441 67.0816L7.24618 66.7873C7.55542 66.7125 7.84275 66.5714 8.08498 66.3749C8.28728 66.2036 8.46251 66.0046 8.60553 65.7851C8.74082 65.574 8.85679 65.3509 8.94956 65.1194C9.03846 64.8951 9.13896 64.6743 9.25106 64.4597C9.35672 64.2559 9.49587 64.0689 9.66338 63.9061C9.85021 63.7336 10.0808 63.6106 10.3334 63.5467L11.198 63.3007C11.6425 63.1813 11.9195 63.2295 12.0277 63.4454L12.0625 63.5141C12.1643 63.7168 11.9981 63.8904 11.5665 64.0364L9.63374 64.5791L10.2999 65.9117L12.2622 65.3377C12.882 65.17 13.2982 64.8854 13.5121 64.485C13.726 64.0846 13.7118 63.6444 13.4721 63.1644L13.3188 62.8581C13.0933 62.3986 12.69 62.0368 12.194 61.8486C11.6489 61.6436 11.0472 61.6315 10.4996 61.8161L9.46882 62.0922C8.94827 62.2478 8.5759 62.4806 8.34912 62.7917C8.12621 63.0969 7.93552 63.4225 7.77961 63.7638C7.63401 64.0882 7.47038 64.4054 7.28999 64.7141C7.09027 65.0289 6.76815 65.2569 6.39063 65.3497L5.51961 65.5813C5.35597 65.6307 5.18589 65.6536 5.01324 65.6488C4.95397 65.6512 4.89599 65.638 4.84316 65.6102C4.79162 65.5825 4.7491 65.5415 4.72204 65.4908L4.704 65.4546C4.65504 65.3582 4.67952 65.2713 4.78389 65.1893C4.91402 65.0952 5.06349 65.0253 5.22197 64.9867L7.1547 64.444L6.48469 63.1029L4.51459 63.6613C3.89483 63.8301 3.48123 64.1172 3.26992 64.5248L3.27121 64.5236Z" fill="#618792"/>
<path d="M9.65047 77.2846C9.4572 77.726 9.48813 78.1999 9.74067 78.704L10.8114 80.846L20.8242 78.007L20.0331 76.4235L18.4044 76.8854L18.1158 76.3089C17.9019 75.847 17.5527 75.4514 17.1108 75.1704C16.692 74.9147 16.1573 74.8713 15.5079 75.0389L10.9261 76.3438C10.2677 76.5296 9.84375 76.8444 9.65176 77.287L9.65047 77.2846ZM12.011 77.861L15.7566 76.8118C16.2836 76.6405 16.6006 76.6622 16.7075 76.8769L16.9162 77.293L11.5085 78.8283L11.3204 78.452C11.2005 78.212 11.4312 78.0154 12.0123 77.8622V77.8598L12.011 77.861Z" fill="#618792"/>
<path d="M7.84538 53.6524C7.36735 54.774 7.94073 55.4808 10.0422 56.3998C10.135 56.969 10.0809 57.1608 9.68018 57.6155C8.67646 57.4285 7.86213 56.963 7.37766 56.0826C6.89835 55.2106 7.09935 54.2977 7.34159 53.3509C6.69348 53.4486 6.23478 53.7188 5.87014 54.1288C5.62532 54.4014 5.5493 54.7355 5.65238 55.078C5.74129 55.3771 5.8521 55.6822 6.01574 55.9511C6.3443 56.4926 6.1536 56.9365 5.82633 57.396C4.74529 56.3853 4.8561 54.5859 6.12397 52.7045C5.39469 52.6936 4.78523 52.9059 4.39998 53.4112C4.04178 53.8828 3.8266 54.4472 3.51092 55.0442C3.12309 53.7935 4.27628 52.0725 5.88431 51.402C5.60729 49.9777 5.98223 48.6945 7.01431 47.5343C7.30937 47.8442 7.1277 48.1397 7.05039 48.4171C7.01173 48.5546 6.90737 48.6752 6.81846 48.7958C6.13556 49.7196 6.22962 50.4275 7.19341 51.2717C7.23593 51.1162 7.26556 50.9871 7.3068 50.8617C7.48074 50.325 7.57867 49.7509 7.85182 49.2589C8.4033 48.2711 9.37353 47.849 10.6234 47.7176C10.595 48.0263 10.5795 48.2675 10.5499 48.5051C10.5074 48.8392 10.3038 48.9875 9.94561 49.0732C9.4547 49.1913 8.94446 49.3349 8.51926 49.5821C7.71525 50.0549 7.62892 50.7929 8.20745 51.5877C8.43551 51.2754 8.6378 50.957 8.8839 50.6699C9.89794 49.4929 11.7675 49.3915 12.9504 50.4275C13.1398 50.594 13.2119 50.7712 13.1449 50.9859C13.0663 51.2416 12.9452 51.4876 12.8202 51.7891C12.5522 51.6649 12.3358 51.5708 12.1244 51.4671C11.5176 51.1596 10.8772 51.0004 10.1866 51.1065C9.66988 51.1861 9.2086 51.367 8.84267 51.8446C9.04754 51.8663 9.19056 51.8711 9.33358 51.8965C9.7343 51.9652 10.0809 52.1497 10.1878 52.5212C10.2896 52.8782 10.5422 53.0217 10.8514 53.1628C11.9595 53.6681 13.0586 54.1831 14.1615 54.6969C15.0802 55.1226 15.133 55.3722 14.4154 56.2068L13.7904 55.9174C12.6257 55.3771 11.4634 54.8392 10.2987 54.2989C9.99457 54.1578 9.71626 54.0348 9.34776 54.159C8.99471 54.276 8.64038 54.1445 8.32599 53.9636C8.15977 53.8695 8.00387 53.7586 7.83765 53.6524L7.84023 53.6476L7.84538 53.6524Z" fill="#618792"/>
<path d="M12.1875 39.261C12.2829 39.4467 12.3499 39.6457 12.3847 39.852C12.4208 40.0594 12.4259 40.2704 12.4001 40.4803C12.3782 40.6757 12.3203 40.8674 12.2288 41.0447L13.4387 41.8262C13.5263 41.6598 13.6216 41.4524 13.7221 41.2027C13.8226 40.9543 13.9064 40.7396 13.9682 40.5635L20.2547 44.6351L21.0858 43.0672L12.48 37.5002L11.792 38.8003C11.9595 38.9221 12.0935 39.0801 12.1863 39.2598L12.1875 39.261Z" fill="#618792"/>
<path d="M17.8234 28.5658C17.3609 28.6683 17.0027 28.9565 16.7501 29.4329L16.5813 29.7525C16.3404 30.1987 16.2875 30.7137 16.4357 31.1889C16.5826 31.6858 16.9266 32.1115 17.4652 32.4649L19.148 33.5756L19.9301 32.097L18.277 31.0224C17.8917 30.7836 17.75 30.5714 17.8505 30.382L17.8698 30.3471C17.9639 30.1686 18.2061 30.1951 18.5888 30.4351L20.9712 31.9836C20.8037 32.0669 20.6465 32.1658 20.5009 32.2791C20.363 32.3816 20.2509 32.5119 20.1723 32.659L20.153 32.694C19.9082 33.1571 19.903 33.5611 20.1375 33.9061C20.372 34.2522 20.7547 34.5923 21.2882 34.9264L22.6746 35.8116C22.9439 35.9804 23.19 36.1239 23.4129 36.2421C23.6023 36.3483 23.8097 36.4218 24.0275 36.4604C24.1976 36.4906 24.3754 36.464 24.5313 36.3857C24.7155 36.2699 24.8598 36.1046 24.9449 35.9117L24.9732 35.8586C25.0595 35.6898 25.1124 35.5077 25.1291 35.3207C25.1523 35.1097 25.151 34.8974 25.1291 34.6876L25.4255 34.8697L26.2076 33.3911L19.3387 28.965C18.7949 28.5947 18.2899 28.4596 17.8247 28.5621L17.8234 28.5658ZM24.0571 33.9941C24.2813 34.1859 24.3522 34.3595 24.2697 34.5151L24.2504 34.5501C24.1563 34.7286 23.9231 34.6864 23.552 34.4259L21.9491 33.4164C21.5781 33.1559 21.435 32.9424 21.5239 32.776L21.5884 32.6542C21.6103 32.6132 21.6464 32.5806 21.6902 32.5601C21.734 32.5408 21.7842 32.5348 21.8306 32.5444L24.0571 33.9941Z" fill="#618792"/>
<path d="M22.5083 27.2283L23.2067 25.9089L21.5123 24.815C20.9892 24.4604 20.4919 24.3326 20.0216 24.4327C19.5513 24.5328 19.1905 24.8198 18.9392 25.2938L18.8516 25.459C18.7279 25.6846 18.6532 25.9294 18.6287 26.1814C18.6055 26.4335 18.6339 26.6856 18.7138 26.9243C18.8877 27.4454 19.2446 27.8928 19.7252 28.1907L20.6078 28.7551C20.8629 28.936 21.1606 29.0578 21.475 29.1133C21.7443 29.1543 22.02 29.1579 22.2919 29.1266C22.5534 29.094 22.8111 29.0397 23.0624 28.9625C23.3046 28.8878 23.5507 28.8251 23.8007 28.7732C24.0365 28.7237 24.28 28.7093 24.5197 28.7298C24.7799 28.7587 25.0273 28.8504 25.2373 28.9963L25.9821 29.4739C26.3596 29.7247 26.491 29.9575 26.3789 30.171L26.3416 30.2421C26.2359 30.4423 25.9872 30.4303 25.5968 30.2047L23.9386 29.1278L23.2402 30.4472L24.9436 31.5253C25.4706 31.8751 25.9679 32.0029 26.4356 31.9089C26.9034 31.8148 27.2616 31.5302 27.5128 31.055L27.6726 30.7523C27.9161 30.3012 27.9664 29.7802 27.8143 29.3002C27.6468 28.7732 27.2835 28.3245 26.7887 28.0375L25.9151 27.455C25.4615 27.1716 25.0338 27.0437 24.6318 27.0715C24.2375 27.098 23.8458 27.1619 23.4631 27.2608C23.101 27.3561 22.7351 27.4345 22.3653 27.4948C21.9775 27.5442 21.5858 27.4514 21.274 27.2331L20.537 26.7398C20.3939 26.6506 20.269 26.5408 20.1659 26.4118C20.1259 26.3708 20.1014 26.3189 20.0924 26.2634C20.0834 26.208 20.0924 26.1513 20.1169 26.0994L20.1362 26.0645C20.1865 25.9692 20.2741 25.9318 20.4081 25.9571C20.5679 25.9933 20.7186 26.0584 20.8501 26.1513L22.5083 27.2283Z" fill="#618792"/>
<path d="M22.2094 20.2997C21.7378 20.3998 21.377 20.6869 21.1258 21.162L21.0407 21.3224C20.917 21.548 20.8423 21.794 20.8178 22.0449C20.7946 22.2969 20.823 22.549 20.9029 22.789C21.0768 23.31 21.4337 23.7574 21.9143 24.0565L22.7969 24.6209C23.052 24.8006 23.3497 24.9237 23.6641 24.9779C23.9334 25.0189 24.2091 25.0238 24.481 24.9912C24.7425 24.9586 25.0002 24.9044 25.2515 24.8272C25.4937 24.7524 25.7411 24.6885 25.9898 24.6366C26.2256 24.5872 26.4691 24.5727 26.7088 24.5932C26.969 24.6221 27.2164 24.7138 27.4277 24.8597L28.1725 25.3385C28.55 25.5894 28.6814 25.8221 28.5693 26.0356L28.5333 26.1031C28.4276 26.3033 28.1789 26.2913 27.7885 26.0658L26.1302 24.9888L25.4319 26.3082L27.1353 27.3864C27.6622 27.7349 28.1596 27.8627 28.6273 27.7699C29.095 27.677 29.4545 27.3924 29.7058 26.9172L29.8668 26.6133C30.1104 26.1622 30.1606 25.6412 30.0086 25.1612C29.8411 24.6342 29.4751 24.1868 28.9804 23.9009L28.1068 23.3184C27.6532 23.035 27.2254 22.9072 26.8234 22.9349C26.4292 22.9626 26.0388 23.0254 25.6561 23.1243C25.294 23.2195 24.9268 23.2979 24.557 23.3582C24.1692 23.4077 23.7775 23.3148 23.4656 23.0965L22.7299 22.6033C22.5869 22.514 22.4619 22.4043 22.3588 22.2752C22.3189 22.2342 22.2944 22.1823 22.2854 22.1269C22.2764 22.0714 22.2854 22.0147 22.3086 21.9641L22.3279 21.9291C22.3782 21.8338 22.4658 21.7964 22.5998 21.8217C22.7596 21.8579 22.9103 21.9243 23.043 22.0159L24.7013 23.0929L25.4035 21.7663L23.7092 20.6724C23.1822 20.3239 22.6835 20.1996 22.2132 20.2997H22.2094Z" fill="#618792"/>
<path d="M15.5286 32.9246C15.039 33.0596 14.6627 33.3756 14.3999 33.8749L13.2789 35.9939L21.8937 41.5501L22.7222 39.9834L21.3216 39.0789L21.6231 38.5085C21.8757 38.0647 21.9878 37.5617 21.9478 37.0624C21.9001 36.5969 21.6038 36.1784 21.0575 35.807L17.1109 33.2671C16.5452 32.9016 16.0182 32.7871 15.5286 32.9233V32.9246ZM16.5169 35.011L19.7278 37.0986C20.1993 37.3772 20.3784 37.622 20.2663 37.8355L20.0486 38.248L15.3946 35.2474L15.5917 34.8747C15.7167 34.6371 16.0259 34.6842 16.5156 35.0134V35.011H16.5169Z" fill="#618792"/>
<path d="M34.142 16.8686C32.9077 17.2183 32.6744 18.0782 33.2169 20.1888C32.7994 20.6121 32.6049 20.6905 31.9761 20.682C31.5071 19.8306 31.3872 18.9453 31.8202 18.042C32.2492 17.1472 33.137 16.7263 34.0789 16.3126C33.5931 15.8989 33.0816 15.7313 32.5121 15.7216C32.132 15.7132 31.806 15.8651 31.5831 16.1546C31.3885 16.4054 31.203 16.6768 31.0806 16.965C30.8332 17.5439 30.3436 17.6802 29.756 17.7273C29.9261 16.3066 31.4993 15.2658 33.8611 15.0197C33.4153 14.4794 32.8587 14.1659 32.1951 14.1984C31.5779 14.2298 30.9723 14.4252 30.2766 14.5663C31.0793 13.5025 33.2362 13.2746 34.7979 14.0332C35.8145 12.9417 37.121 12.4171 38.7329 12.4497C38.6582 12.8585 38.2974 12.9104 38.0178 13.0262C37.8786 13.084 37.7124 13.0828 37.5578 13.0925C36.3608 13.1685 35.8286 13.6798 35.723 14.91C35.8789 14.8436 36.0065 14.7858 36.1353 14.7375C36.6919 14.5313 37.2331 14.2442 37.8129 14.1369C38.9816 13.9234 39.9389 14.3709 40.828 15.2042C40.5522 15.3755 40.3409 15.5154 40.1245 15.642C39.8191 15.8193 39.5678 15.7626 39.2728 15.554C38.8682 15.2682 38.4301 14.9847 37.9585 14.828C37.063 14.5349 36.3917 14.9317 36.0889 15.8507C36.4922 15.8229 36.8852 15.7723 37.2769 15.7735C38.8927 15.7807 40.1425 17.0857 40.0136 18.598C39.993 18.8416 39.8899 19.0044 39.6683 19.0889C39.4055 19.1902 39.1246 19.2553 38.7947 19.3518C38.7316 19.078 38.6749 18.8609 38.6311 18.6426C38.51 18.0071 38.2433 17.439 37.724 17C37.3349 16.6708 36.8968 16.4465 36.2706 16.4766C36.3801 16.6394 36.4652 16.748 36.5334 16.8686C36.7254 17.205 36.7886 17.5729 36.545 17.8828C36.3105 18.1795 36.3479 18.4545 36.4239 18.7681C36.6932 19.8933 36.9483 21.0197 37.206 22.1474C37.4225 23.0856 37.2473 23.2786 36.1031 23.275L35.9549 22.637C35.6792 21.4479 35.4047 20.2623 35.1303 19.0732C35.0581 18.7632 34.9873 18.4822 34.6535 18.2905C34.3353 18.106 34.2245 17.7634 34.1794 17.4209C34.1549 17.2412 34.1498 17.0567 34.1343 16.8698H34.1394L34.142 16.8686Z" fill="#618792"/>
<path d="M48.8694 11.0724C48.774 11.2581 48.6491 11.4318 48.4996 11.5849C48.3488 11.7405 48.1762 11.8768 47.9842 11.9878C47.8077 12.0939 47.6118 12.1711 47.4057 12.2145L47.5075 13.5869C47.702 13.5471 47.934 13.4881 48.2045 13.406C48.4751 13.3252 48.7058 13.2517 48.8926 13.1878L49.4106 20.3262L51.2376 19.9572L50.5225 10.1884L49.0073 10.4959C49.0085 10.6937 48.9622 10.8915 48.8694 11.0712V11.0724Z" fill="#618792"/>
<path d="M61.3174 8.52884C60.9438 8.25386 60.4786 8.17185 59.9246 8.28401L59.5522 8.35999C59.0291 8.4613 58.5665 8.74472 58.2611 9.14994C57.9377 9.56723 57.796 10.0846 57.8372 10.6997L57.9583 12.6233L59.681 12.2736L59.547 10.3934C59.5058 9.96281 59.5947 9.72522 59.8163 9.6818L59.8576 9.67336C60.0663 9.63115 60.1939 9.82411 60.2325 10.2547L60.4245 12.9634C60.2506 12.8922 60.0702 12.8392 59.8846 12.803C59.7133 12.7668 59.5342 12.7656 59.3615 12.7994L59.3203 12.8078C58.7817 12.9176 58.4402 13.166 58.2985 13.5532C58.1568 13.9403 58.1104 14.4323 58.1632 15.0317L58.2869 16.5984C58.3127 16.8999 58.3475 17.17 58.3874 17.4076C58.417 17.6126 58.4853 17.8104 58.5884 17.9938C58.6696 18.1373 58.8023 18.2506 58.9647 18.3158C59.176 18.3785 59.404 18.3809 59.6179 18.323L59.6798 18.3109C59.8743 18.2687 60.0599 18.194 60.2261 18.0902C60.4168 17.9757 60.5933 17.843 60.7544 17.6947L60.7879 18.0251L62.5106 17.6754L61.9256 9.88924C61.896 9.2609 61.6937 8.80743 61.3187 8.53004L61.3174 8.52884ZM60.6706 16.4754C60.65 16.7588 60.5495 16.9192 60.3678 16.9554L60.3266 16.9638C60.1191 17.006 60.0083 16.8094 59.9954 16.3753L59.8382 14.5735C59.8241 14.1393 59.9143 13.9017 60.1075 13.8631L60.2493 13.8342C60.2969 13.8245 60.3472 13.8305 60.391 13.8498C60.4348 13.8691 60.4709 13.9029 60.4915 13.9427L60.668 16.4754H60.6706Z" fill="#618792"/>
<path d="M65.3555 11.1241L66.8927 10.8129L66.7497 8.89051C66.72 8.28629 66.5165 7.84368 66.1402 7.56147C65.764 7.27926 65.2988 7.19483 64.7461 7.307L64.5541 7.34559C64.2887 7.39624 64.0361 7.49393 63.8119 7.63383C63.5877 7.77373 63.3945 7.95222 63.2437 8.15966C62.9164 8.61192 62.767 9.15222 62.8159 9.69011L62.8945 10.6875C62.9036 10.9866 62.986 11.2809 63.1368 11.545C63.2708 11.7669 63.4383 11.9719 63.6354 12.1516C63.8248 12.3229 64.0323 12.4772 64.2526 12.6135C64.4665 12.745 64.6726 12.8849 64.8711 13.0356C65.0605 13.1779 65.2241 13.3456 65.3555 13.5349C65.4934 13.7436 65.5707 13.9812 65.581 14.2272L65.6467 15.0702C65.6725 15.5032 65.5604 15.7444 65.3117 15.795L65.2293 15.8119C64.9961 15.8589 64.8517 15.6696 64.7963 15.2427L64.6623 13.3576L63.1252 13.6688L63.2862 15.5876C63.3223 16.1906 63.5259 16.6344 63.8957 16.9178C64.2655 17.2013 64.7268 17.2857 65.2808 17.1735L65.6339 17.1024C66.1634 16.9998 66.6299 16.7116 66.9352 16.3004C67.2715 15.8493 67.4197 15.303 67.3501 14.7627L67.2921 13.7605C67.2458 13.2515 67.086 12.8596 66.8128 12.5834C66.5448 12.3108 66.2472 12.0648 65.9263 11.8465C65.621 11.6415 65.3272 11.422 65.0463 11.1892C64.7628 10.9359 64.5966 10.591 64.5837 10.228L64.5361 9.38136C64.5206 9.22096 64.5361 9.06056 64.5786 8.90498C64.5889 8.85071 64.616 8.80006 64.6559 8.75905C64.6971 8.71805 64.7487 8.6891 64.8079 8.67463L64.8492 8.66619C64.96 8.64328 65.045 8.68428 65.1082 8.79765C65.1777 8.93755 65.2164 9.0883 65.2215 9.24147L65.3555 11.1253V11.1241Z" fill="#618792"/>
<path d="M70.9579 6.58466C70.5803 6.30245 70.1152 6.21682 69.5624 6.32898L69.3756 6.36637C69.1102 6.41702 68.8576 6.51471 68.6334 6.65461C68.408 6.79451 68.216 6.973 68.0652 7.18044C67.7392 7.6327 67.5872 8.173 67.6374 8.71089L67.716 9.70827C67.7251 10.0074 67.8075 10.3004 67.9583 10.5658C68.0923 10.7889 68.2598 10.9927 68.4569 11.1724C68.6463 11.3436 68.8525 11.498 69.0741 11.6343C69.288 11.7646 69.4954 11.9057 69.6939 12.0564C69.8833 12.1987 70.0469 12.3664 70.1783 12.5557C70.3162 12.7643 70.3935 13.0019 70.4038 13.248L70.4682 14.091C70.494 14.5239 70.3819 14.7652 70.1332 14.8158L70.0546 14.8315C69.8214 14.8785 69.6771 14.6892 69.6217 14.2622L69.4877 12.3772L67.9505 12.6884L68.1116 14.6072C68.149 15.2102 68.3513 15.654 68.7211 15.9374C69.0909 16.2208 69.5521 16.3065 70.1049 16.1943L70.4579 16.1231C70.9875 16.0194 71.4539 15.7324 71.7593 15.3211C72.0943 14.8701 72.2412 14.3225 72.1703 13.7822L72.1123 12.78C72.066 12.2711 71.9062 11.8791 71.633 11.6029C71.365 11.3316 71.0674 11.0844 70.7466 10.8673C70.4412 10.6622 70.1474 10.4427 69.8665 10.2088C69.583 9.95671 69.4168 9.61179 69.404 9.24757L69.3576 8.40214C69.3421 8.24174 69.3576 8.08134 69.4001 7.92576C69.4104 7.87149 69.4374 7.82084 69.4774 7.77983C69.5186 7.73883 69.5702 7.70988 69.6281 7.69541L69.6694 7.68697C69.7802 7.66405 69.8652 7.70506 69.9284 7.81843C69.9979 7.95832 70.0366 8.10908 70.043 8.26345L70.177 10.1485L71.7232 9.83491L71.5802 7.9125C71.5428 7.30948 71.3354 6.86807 70.9579 6.58466Z" fill="#618792"/>
<path d="M56.2459 9.56595C55.8285 9.29218 55.3285 9.21379 54.7474 9.33198L52.2787 9.83248L53.008 19.6013L54.8325 19.2311L54.7139 17.6415L55.3788 17.5064C55.9071 17.4148 56.3967 17.1832 56.7884 16.8431C57.1479 16.5175 57.3115 16.0399 57.2819 15.4092L56.943 10.9372C56.8953 10.2956 56.6621 9.83731 56.2447 9.56475L56.2459 9.56595ZM55.1198 11.5909L55.3788 15.2427C55.4406 15.7613 55.3466 16.0459 55.0992 16.0966L54.6186 16.1943L54.223 10.9179L54.6572 10.8299C54.9343 10.7732 55.0876 11.0277 55.1172 11.5921H55.1198V11.5909Z" fill="#618792"/>
<path d="M81.2619 13.1781C80.2002 12.4931 79.3356 12.8585 77.9118 14.5711C77.2985 14.5289 77.1104 14.4372 76.7264 13.9705C77.1452 13.0961 77.8101 12.4569 78.8344 12.2109C79.8484 11.9673 80.7555 12.3544 81.6871 12.7862C81.7296 12.1723 81.5505 11.6947 81.2039 11.2702C80.9746 10.9868 80.6434 10.8433 80.2633 10.8601C79.9322 10.8746 79.5894 10.9072 79.2725 10.9976C78.6347 11.1773 78.2159 10.9048 77.8101 10.5032C79.1024 9.74094 80.9527 10.2439 82.6303 11.8189C82.8029 11.1556 82.7179 10.5526 82.2772 10.0883C81.8662 9.65652 81.325 9.33451 80.7749 8.91361C82.1638 8.83763 83.6997 10.274 84.0399 11.8901C85.5861 11.954 86.8385 12.5823 87.8164 13.7823C87.4286 13.9838 87.1606 13.751 86.8887 13.6195C86.7547 13.5544 86.6516 13.4314 86.546 13.3241C85.7355 12.4955 84.9779 12.4244 83.884 13.1154C84.0373 13.189 84.1649 13.2457 84.2847 13.3096C84.8052 13.5882 85.3812 13.8053 85.8322 14.1634C86.7393 14.8859 86.9622 15.8652 86.8204 17.0362C86.506 16.9409 86.2574 16.8734 86.0164 16.7938C85.6775 16.6804 85.568 16.4621 85.559 16.116C85.5448 15.642 85.5087 15.144 85.3464 14.7013C85.032 13.8631 84.2834 13.6195 83.3261 13.9705C83.6005 14.2479 83.8878 14.5035 84.1314 14.7918C85.1325 15.9785 84.822 17.708 83.4781 18.5558C83.2616 18.6921 83.0619 18.7186 82.8532 18.6101C82.6045 18.481 82.3751 18.3158 82.0891 18.1349C82.2785 17.9178 82.4241 17.7417 82.58 17.5717C83.0349 17.0869 83.3441 16.5381 83.3866 15.8832C83.4188 15.3936 83.3338 14.9329 82.9176 14.4927C82.8493 14.6748 82.812 14.8051 82.754 14.9293C82.5929 15.2802 82.3236 15.5552 81.9139 15.5697C81.5196 15.5829 81.3134 15.7807 81.0983 16.0328C80.3265 16.9313 79.5443 17.8201 78.7635 18.7126C78.1154 19.4567 77.8436 19.4483 77.1336 18.6089L77.5743 18.1035C78.3963 17.1604 79.2158 16.2209 80.0366 15.2778C80.2504 15.0318 80.4411 14.8051 80.3935 14.4408C80.3497 14.0923 80.5661 13.798 80.8251 13.552C80.9604 13.4217 81.1112 13.3036 81.258 13.1757L81.2619 13.1793V13.1781Z" fill="#618792"/>
<path d="M95.2857 20.342C95.0705 20.3878 94.8489 20.4047 94.626 20.3914C94.4018 20.3781 94.1802 20.3359 93.9689 20.266C93.7692 20.2033 93.5836 20.108 93.4187 19.985L92.3351 20.9148C92.4884 21.0318 92.6843 21.1645 92.9213 21.3116C93.1584 21.4588 93.362 21.583 93.5321 21.6782L87.8924 26.5084L89.3407 27.6155L97.0535 21.0017L95.8526 20.0851C95.6877 20.2105 95.4945 20.2986 95.2857 20.3432V20.342Z" fill="#618792"/>
<path d="M105.172 27.8652C105.168 27.4202 104.948 27.0294 104.509 26.6929L104.214 26.4674C103.803 26.1478 103.278 25.9862 102.75 26.0151C102.2 26.0393 101.679 26.2576 101.191 26.6712L99.6602 27.9593L101.026 29.0013L102.513 27.7313C102.847 27.4322 103.1 27.3502 103.274 27.4841L103.307 27.5094C103.472 27.636 103.39 27.8495 103.055 28.1462L100.911 29.9757C100.862 29.8045 100.794 29.6393 100.708 29.4813C100.632 29.3329 100.521 29.2015 100.384 29.0965L100.352 29.0712C99.9244 28.7444 99.5043 28.6503 99.092 28.7878C98.6797 28.9253 98.2403 29.1991 97.7726 29.6103L96.5421 30.6777C96.3063 30.8851 96.1014 31.0781 95.9288 31.2565C95.7754 31.4061 95.653 31.5786 95.5641 31.7691C95.4945 31.9174 95.4829 32.0863 95.5293 32.2455C95.6092 32.4397 95.7484 32.6073 95.9301 32.7279L95.979 32.7653C96.1362 32.8811 96.314 32.9703 96.5034 33.027C96.7173 33.0945 96.9389 33.1416 97.1631 33.1669L96.908 33.3972L98.2738 34.4393L104.412 29.1556C104.919 28.742 105.171 28.3114 105.168 27.864L105.172 27.8652ZM98.1308 32.3468C97.8808 32.5084 97.685 32.5337 97.542 32.4252L97.5097 32.3999C97.3448 32.2744 97.4402 32.0706 97.7945 31.7896L99.2015 30.551C99.5558 30.27 99.8097 30.188 99.963 30.305L100.075 30.3906C100.112 30.4196 100.14 30.4606 100.15 30.5052C100.16 30.5498 100.155 30.5956 100.134 30.6366L98.1295 32.3456L98.1308 32.3468Z" fill="#618792"/>
<path d="M105.523 32.4384L106.742 33.3683L108.258 32.0645C108.744 31.6653 108.987 31.2408 108.989 30.7898C108.989 30.3387 108.771 29.9455 108.332 29.6103L108.18 29.4945C107.972 29.3317 107.734 29.2087 107.476 29.1303C107.22 29.0531 106.95 29.0229 106.682 29.0422C106.101 29.0856 105.556 29.3112 105.137 29.6838L104.353 30.364C104.108 30.557 103.915 30.8006 103.787 31.0756C103.685 31.312 103.62 31.5628 103.591 31.8185C103.567 32.0633 103.567 32.3118 103.591 32.5578C103.614 32.7954 103.626 33.0342 103.625 33.2742C103.625 33.5009 103.585 33.7252 103.51 33.9399C103.421 34.1715 103.272 34.3765 103.073 34.5357L102.41 35.1098C102.064 35.398 101.793 35.4667 101.595 35.316L101.53 35.2665C101.345 35.1254 101.414 34.9011 101.735 34.5948L103.225 33.3212L102.006 32.3914L100.504 33.7059C100.022 34.1088 99.7787 34.5345 99.7735 34.9819C99.7671 35.4294 99.9848 35.8201 100.423 36.1554L100.703 36.3689C101.119 36.6921 101.65 36.8537 102.183 36.8211C102.769 36.7861 103.318 36.5534 103.727 36.1662L104.528 35.4993C104.925 35.1483 105.153 34.7865 105.212 34.4139C105.273 34.0485 105.293 33.677 105.275 33.3055C105.256 32.9546 105.256 32.6024 105.275 32.2515C105.31 31.886 105.494 31.5508 105.791 31.3132L106.468 30.7512C106.592 30.6402 106.736 30.551 106.892 30.4858C106.944 30.4593 107.003 30.4473 107.062 30.4521C107.122 30.4569 107.18 30.4762 107.227 30.51L107.26 30.5353C107.349 30.6028 107.367 30.6897 107.311 30.8066C107.238 30.9441 107.136 31.0672 107.011 31.1672L105.521 32.4408L105.523 32.4384Z" fill="#618792"/>
<path d="M112.807 33.7071C112.807 33.2548 112.589 32.8616 112.149 32.5263L112.001 32.413C111.794 32.2502 111.555 32.1259 111.298 32.0488C111.041 31.9716 110.771 31.9414 110.504 31.9607C109.923 32.0041 109.378 32.2297 108.959 32.6011L108.174 33.2813C107.93 33.4743 107.736 33.7179 107.61 33.9929C107.507 34.2293 107.441 34.4801 107.414 34.7358C107.39 34.9806 107.39 35.2291 107.414 35.4751C107.439 35.7139 107.45 35.9527 107.448 36.1915C107.448 36.4182 107.408 36.6425 107.333 36.8572C107.244 37.0888 107.095 37.2938 106.896 37.453L106.231 38.0258C105.886 38.3141 105.614 38.3828 105.417 38.2321L105.355 38.1838C105.17 38.0427 105.238 37.8184 105.56 37.5121L107.051 36.2385L105.832 35.3087L104.33 36.622C103.849 37.0248 103.606 37.4506 103.599 37.898C103.593 38.3454 103.808 38.7362 104.247 39.0715L104.528 39.2849C104.944 39.6081 105.475 39.7698 106.01 39.7384C106.596 39.7022 107.144 39.4682 107.551 39.0799L108.352 38.413C108.749 38.062 108.977 37.7002 109.036 37.3275C109.096 36.9621 109.116 36.5907 109.098 36.2204C109.079 35.8683 109.079 35.5173 109.098 35.1651C109.133 34.7997 109.317 34.4644 109.614 34.2268L110.291 33.6648C110.415 33.5539 110.559 33.4646 110.717 33.3983C110.768 33.3718 110.827 33.3597 110.887 33.3645C110.946 33.3694 111.004 33.3887 111.052 33.4224L111.084 33.4478C111.173 33.5153 111.191 33.6021 111.135 33.7191C111.062 33.8578 110.96 33.9796 110.835 34.0797L109.344 35.3533L110.57 36.2904L112.086 34.9866C112.566 34.5838 112.807 34.1557 112.808 33.7034L112.807 33.7071Z" fill="#618792"/>
<path d="M101.143 24.8007C101.112 24.3243 100.866 23.9106 100.405 23.5585L98.4477 22.0642L90.7425 28.6889L92.1895 29.7936L93.4432 28.7167L93.9702 29.1195C94.3773 29.4487 94.8747 29.6634 95.4043 29.737C95.9003 29.7973 96.4016 29.6188 96.9092 29.2039L100.433 26.1683C100.94 25.7342 101.177 25.2783 101.143 24.8019V24.8007ZM98.7505 25.2397L95.8617 27.706C95.4674 28.0751 95.1711 28.1836 94.9739 28.0328L94.5925 27.7422L98.753 24.1627L99.0971 24.4256C99.3161 24.5933 99.2001 24.8634 98.7466 25.2385H98.7492L98.7505 25.2397Z" fill="#618792"/>
<path d="M113.724 45.3597C113.635 44.1549 112.791 43.7509 110.471 43.7762C110.123 43.301 110.084 43.1069 110.234 42.534C111.226 42.2952 112.174 42.3832 113.018 42.979C113.854 43.57 114.095 44.4745 114.317 45.4248C114.855 45.0739 115.144 44.6446 115.282 44.1272C115.376 43.7822 115.29 43.4506 115.038 43.1828C114.819 42.9501 114.578 42.7197 114.306 42.5436C113.759 42.1891 113.725 41.7115 113.808 41.1652C115.251 41.6367 115.984 43.3034 115.715 45.5129C116.376 45.2259 116.827 44.7881 116.94 44.1754C117.045 43.6049 116.976 43.0092 116.984 42.3434C117.914 43.3131 117.672 45.332 116.533 46.5887C117.444 47.7597 117.7 49.0683 117.307 50.5324C116.898 50.3732 116.923 50.0331 116.865 49.7521C116.836 49.6134 116.874 49.4614 116.899 49.3167C117.086 48.2072 116.672 47.6078 115.413 47.2375C115.448 47.3955 115.48 47.5245 115.501 47.6524C115.592 48.2059 115.77 48.7643 115.753 49.3167C115.715 50.4311 115.037 51.2053 113.97 51.8313C113.853 51.5418 113.755 51.3175 113.671 51.092C113.554 50.7736 113.669 50.5577 113.952 50.3346C114.34 50.0295 114.733 49.693 115.001 49.2962C115.506 48.5436 115.242 47.8441 114.352 47.3629C114.291 47.7368 114.256 48.1071 114.167 48.4652C113.8 49.9378 112.162 50.7881 110.616 50.3346C110.368 50.261 110.221 50.1308 110.182 49.9101C110.134 49.6472 110.129 49.377 110.102 49.055C110.402 49.0586 110.639 49.055 110.878 49.0634C111.566 49.0936 112.218 48.9778 112.791 48.6003C113.22 48.3193 113.553 47.9684 113.66 47.3907C113.465 47.4546 113.334 47.5077 113.193 47.5426C112.8 47.6439 112.402 47.6186 112.134 47.3268C111.876 47.0457 111.583 47.0192 111.239 47.0192C110.007 47.0144 108.776 46.9963 107.545 46.9806C106.519 46.9698 106.357 46.7659 106.616 45.7227L111.208 45.7698C111.547 45.7734 111.854 45.771 112.129 45.5093C112.392 45.2608 112.773 45.2355 113.14 45.2705C113.334 45.2886 113.527 45.3247 113.725 45.3525V45.3573L113.724 45.3597Z" fill="#618792"/>
<path d="M116.484 60.089C116.311 59.96 116.159 59.808 116.032 59.6368C115.903 59.4643 115.8 59.2762 115.726 59.0772C115.655 58.8927 115.618 58.6961 115.618 58.4995L114.166 58.2872C114.163 58.473 114.175 58.6985 114.199 58.9638C114.224 59.2291 114.248 59.4559 114.274 59.6404L106.724 58.5248L106.702 60.2748L117.035 61.7956L117.052 60.3447C116.845 60.3025 116.65 60.2157 116.484 60.0902V60.089Z" fill="#618792"/>
<path d="M116.364 72.0142C116.734 71.7344 116.922 71.3279 116.93 70.7973L116.934 70.4403C116.944 69.9398 116.752 69.455 116.398 69.0871C116.034 68.6988 115.528 68.4552 114.879 68.3563L112.848 68.0391L112.829 69.6889L114.817 69.9856C115.274 70.0435 115.501 70.1786 115.498 70.3896V70.4295C115.496 70.6297 115.265 70.7032 114.809 70.6417L111.945 70.2136C112.057 70.0713 112.153 69.9181 112.231 69.7565C112.307 69.6081 112.348 69.4453 112.351 69.2801V69.2403C112.357 68.7241 112.174 68.3575 111.803 68.1416C111.432 67.9257 110.928 67.775 110.293 67.6894L108.633 67.4542C108.312 67.4108 108.024 67.3818 107.767 67.3661C107.547 67.3468 107.325 67.3661 107.112 67.4192C106.944 67.4614 106.796 67.5567 106.693 67.6906C106.581 67.8703 106.528 68.0765 106.539 68.2851V68.3454C106.539 68.5324 106.577 68.7181 106.646 68.893C106.724 69.092 106.823 69.2825 106.94 69.4622L106.588 69.4188L106.569 71.0686L114.81 72.2674C115.473 72.3808 115.989 72.2964 116.36 72.0154L116.364 72.0142ZM108.231 69.6552C107.94 69.5732 107.797 69.4453 107.798 69.2729V69.2331C107.801 69.0341 108.03 68.9774 108.486 69.0618L110.399 69.3199C110.855 69.4031 111.081 69.5382 111.079 69.7239V69.8602C111.076 69.906 111.06 69.9507 111.029 69.9868C110.999 70.023 110.956 70.0471 110.909 70.058L108.231 69.6564V69.6552Z" fill="#618792"/>
<path d="M112.763 75.1209L112.746 76.5922L114.781 76.8889C115.417 76.9963 115.924 76.9094 116.301 76.6284C116.679 76.3474 116.871 75.9422 116.877 75.4128L116.88 75.2282C116.886 74.975 116.841 74.7229 116.746 74.4865C116.65 74.2501 116.507 74.0343 116.324 73.8509C115.926 73.4518 115.397 73.1949 114.826 73.1201L113.769 72.9706C113.455 72.9115 113.131 72.9223 112.822 73.0007C112.561 73.0731 112.311 73.1816 112.08 73.3203C111.86 73.4554 111.652 73.6097 111.462 73.781C111.277 73.9462 111.085 74.103 110.884 74.2514C110.695 74.3925 110.482 74.5034 110.257 74.583C110.008 74.6626 109.744 74.6807 109.486 74.6349L108.593 74.507C108.137 74.4347 107.91 74.2791 107.913 74.0403V73.9607C107.917 73.7376 108.146 73.6483 108.602 73.6917L110.596 73.9884L110.612 72.5171L108.578 72.2373C107.941 72.136 107.434 72.2228 107.056 72.4978C106.679 72.7728 106.488 73.1744 106.482 73.7038L106.478 74.0415C106.467 74.5468 106.663 75.0365 107.024 75.4067C107.42 75.8144 107.956 76.07 108.533 76.1279L109.589 76.298C110.131 76.3691 110.574 76.31 110.923 76.1219C111.266 75.9374 111.589 75.7215 111.888 75.4767C112.17 75.2439 112.464 75.0244 112.768 74.8194C113.094 74.6168 113.491 74.542 113.872 74.612L114.764 74.7579C114.934 74.7796 115.098 74.829 115.251 74.9026C115.305 74.9243 115.351 74.9605 115.386 75.0063C115.42 75.0522 115.439 75.1076 115.44 75.1631V75.2029C115.439 75.309 115.377 75.3778 115.244 75.4103C115.083 75.4429 114.917 75.4441 114.756 75.4152L112.764 75.1185L112.763 75.1209Z" fill="#618792"/>
<path d="M116.244 81.2428C116.622 80.9617 116.815 80.5553 116.822 80.0259L116.824 79.8474C116.831 79.5941 116.785 79.3421 116.69 79.1057C116.595 78.8693 116.452 78.6534 116.269 78.4701C115.871 78.0709 115.341 77.814 114.77 77.7392L113.714 77.5897C113.399 77.5318 113.076 77.5415 112.767 77.6198C112.505 77.6922 112.255 77.7995 112.025 77.9394C111.804 78.0745 111.597 78.2289 111.406 78.3989C111.222 78.5654 111.03 78.7234 110.829 78.8705C110.639 79.0116 110.427 79.1238 110.201 79.2022C109.953 79.2818 109.689 79.2998 109.431 79.254L108.538 79.125C108.082 79.0526 107.855 78.897 107.858 78.6582V78.5823C107.861 78.3579 108.091 78.2687 108.547 78.3133L110.54 78.61L110.557 77.1386L108.522 76.8576C107.886 76.7575 107.38 76.8444 107.001 77.1181C106.623 77.3919 106.431 77.7935 106.425 78.3242L106.421 78.6631C106.411 79.1684 106.606 79.658 106.966 80.0295C107.362 80.4359 107.899 80.6916 108.477 80.7471L109.534 80.9171C110.075 80.9883 110.518 80.9304 110.867 80.7411C111.21 80.5565 111.532 80.3406 111.831 80.0958C112.113 79.8631 112.407 79.6436 112.713 79.4385C113.039 79.2359 113.435 79.1611 113.817 79.2311L114.708 79.377C114.879 79.3987 115.042 79.4482 115.195 79.5218C115.25 79.5435 115.296 79.5796 115.331 79.6255C115.364 79.6713 115.384 79.7256 115.385 79.7822V79.8221C115.384 79.9282 115.322 79.9969 115.189 80.0283C115.028 80.0608 114.862 80.062 114.701 80.0331L112.707 79.7364L112.689 81.2174L114.724 81.5141C115.36 81.6142 115.867 81.5226 116.244 81.2415V81.2428Z" fill="#618792"/>
<path d="M116.412 67.1551C116.791 66.8355 116.983 66.3965 116.989 65.8405L117.017 63.4767L106.68 61.9692L106.659 63.7167L108.341 63.9627L108.333 64.5995C108.311 65.1024 108.442 65.6005 108.71 66.0335C108.969 66.4339 109.431 66.6895 110.094 66.8029L114.827 67.4879C115.506 67.588 116.034 67.4771 116.412 67.1551ZM114.554 65.6765L110.693 65.1C110.139 65.0409 109.864 64.8926 109.866 64.655L109.871 64.1955L115.456 65.0083L115.451 65.4244C115.448 65.6897 115.148 65.773 114.554 65.6741V65.6765Z" fill="#618792"/>
<path d="M107.083 89.1795C108.033 88.363 107.845 87.4935 106.377 85.8123C106.557 85.2611 106.695 85.1116 107.267 84.8643C108.086 85.4408 108.602 86.1897 108.632 87.1799C108.66 88.1604 108.055 88.9009 107.399 89.6559C108.028 89.8319 108.566 89.7741 109.085 89.5522C109.432 89.405 109.655 89.1361 109.722 88.7851C109.78 88.48 109.822 88.1604 109.799 87.8504C109.754 87.2293 110.132 86.9061 110.639 86.6251C111.146 87.9747 110.21 89.5509 108.196 90.7316C108.848 91.0368 109.495 91.0935 110.078 90.7944C110.62 90.5158 111.075 90.0937 111.635 89.6848C111.406 90.9692 109.569 92.051 107.809 92.0016C107.399 93.3982 106.465 94.4016 104.997 95.0263C104.875 94.6271 105.175 94.4342 105.373 94.2159C105.471 94.1073 105.622 94.041 105.757 93.9686C106.801 93.4139 107.043 92.7373 106.568 91.5855C106.458 91.7085 106.371 91.8135 106.275 91.9087C105.869 92.3212 105.515 92.7988 105.042 93.1316C104.087 93.7986 103.018 93.7841 101.83 93.3946C101.999 93.128 102.125 92.917 102.262 92.7144C102.455 92.4309 102.707 92.3791 103.07 92.4478C103.566 92.5407 104.093 92.6191 104.59 92.5684C105.533 92.4683 105.953 91.8388 105.8 90.8872C105.449 91.0766 105.119 91.2804 104.765 91.4396C103.307 92.0884 101.575 91.4203 100.99 90.0068C100.896 89.7789 100.914 89.5907 101.072 89.4243C101.262 89.2265 101.485 89.0541 101.737 88.8321C101.921 89.0528 102.072 89.2253 102.214 89.405C102.617 89.9284 103.121 90.3325 103.794 90.517C104.296 90.6557 104.796 90.6798 105.346 90.3976C105.172 90.2951 105.045 90.2323 104.927 90.1515C104.598 89.926 104.371 89.6197 104.447 89.2422C104.52 88.8792 104.361 88.6476 104.145 88.3944C103.381 87.4898 102.63 86.5781 101.874 85.6675C101.244 84.9114 101.312 84.6641 102.345 84.2034L102.774 84.7184C103.573 85.6772 104.371 86.6348 105.17 87.5948C105.378 87.8444 105.572 88.0687 105.962 88.1073C106.335 88.1447 106.592 88.4088 106.792 88.6983C106.898 88.8502 106.988 89.0143 107.088 89.1771L107.084 89.1807L107.083 89.1795Z" fill="#618792"/>
<path d="M96.5008 100.383C96.5008 100.177 96.533 99.971 96.5962 99.7708C96.6593 99.5694 96.7534 99.3764 96.8732 99.1991C96.9827 99.0315 97.1245 98.8831 97.2881 98.7601L96.5601 97.565C96.4042 97.6795 96.2225 97.8279 96.0164 98.0112C95.8102 98.1945 95.6363 98.3537 95.4984 98.4876L91.7218 92.2657L90.2465 93.3402L95.4198 101.851L96.6426 100.959C96.5485 100.78 96.4995 100.584 96.5008 100.383Z" fill="#618792"/>
<path d="M86.4648 107.731C86.9299 107.827 87.386 107.711 87.8344 107.386L88.1347 107.166C88.5586 106.862 88.8446 106.42 88.9309 105.931C89.0289 105.424 88.9168 104.901 88.5946 104.363L87.5935 102.68L86.2032 103.694L87.1953 105.334C87.4324 105.706 87.4608 105.955 87.283 106.084L87.2495 106.109C87.0807 106.232 86.8758 106.109 86.6426 105.737L85.2137 103.374C85.4031 103.367 85.5899 103.342 85.7742 103.3C85.9455 103.262 86.1066 103.191 86.247 103.091L86.2805 103.067C86.716 102.75 86.908 102.388 86.8565 101.98C86.8049 101.574 86.6181 101.112 86.2934 100.593L85.4559 99.233C85.2923 98.9713 85.1363 98.7421 84.9895 98.5443C84.8683 98.3719 84.715 98.2211 84.5359 98.0981C84.3968 98.0016 84.2241 97.9534 84.0476 97.9606C83.8285 97.9908 83.6224 98.08 83.4549 98.2187L83.4046 98.2549C83.2487 98.3719 83.1173 98.5154 83.0142 98.6758C82.8957 98.8567 82.7978 99.0473 82.7217 99.2463L82.5388 98.9616L81.1485 99.9759L85.2858 106.754C85.6041 107.309 85.9971 107.634 86.4622 107.732L86.4648 107.731ZM83.3647 100.308C83.2526 100.043 83.2681 99.8589 83.4149 99.7528L83.4484 99.7287C83.6159 99.6069 83.8066 99.7383 84.0205 100.124L84.9972 101.684C85.2111 102.07 85.2407 102.319 85.0835 102.434L84.9688 102.517C84.9302 102.545 84.8825 102.56 84.8336 102.56C84.7846 102.56 84.7382 102.545 84.6996 102.517L83.366 100.306L83.3647 100.308Z" fill="#618792"/>
<path d="M81.624 107.032L80.3845 107.937L81.405 109.611C81.7116 110.143 82.1008 110.46 82.5698 110.561C83.0401 110.663 83.4975 110.55 83.9446 110.225L84.0992 110.111C84.3144 109.958 84.496 109.768 84.6339 109.551C84.7718 109.333 84.8633 109.095 84.9019 108.846C84.987 108.306 84.8723 107.758 84.5772 107.294L84.0438 106.427C83.8969 106.16 83.6869 105.93 83.4279 105.753C83.2037 105.607 82.9589 105.491 82.6986 105.409C82.4487 105.332 82.1909 105.276 81.9281 105.244C81.6756 105.212 81.4243 105.169 81.1756 105.115C80.9398 105.064 80.7144 104.979 80.5082 104.862C80.2866 104.729 80.1075 104.547 79.9851 104.33L79.5354 103.596C79.3112 103.217 79.3009 102.954 79.5019 102.808L79.5689 102.759C79.757 102.622 79.9748 102.734 80.2234 103.096L81.2181 104.74L82.459 103.835L81.4243 102.172C81.1112 101.643 80.7234 101.325 80.2582 101.221C79.7931 101.116 79.3382 101.227 78.8924 101.552L78.6077 101.76C78.1786 102.067 77.8913 102.516 77.8075 103.01C77.7135 103.553 77.8333 104.105 78.1464 104.565L78.6631 105.444C78.9401 105.884 79.2661 106.172 79.641 106.31C80.0083 106.446 80.3909 106.548 80.7814 106.614C81.1511 106.674 81.5184 106.753 81.8791 106.849C82.2515 106.961 82.5607 107.205 82.7411 107.528L83.1766 108.272C83.2643 108.41 83.3261 108.56 83.3583 108.718C83.3751 108.771 83.3738 108.828 83.3557 108.881C83.3377 108.934 83.3042 108.983 83.2591 109.019L83.2256 109.043C83.1354 109.108 83.0401 109.107 82.9318 109.03C82.8043 108.932 82.6999 108.811 82.6226 108.675L81.6279 107.032H81.624Z" fill="#618792"/>
<path d="M78.6811 113.397C79.1514 113.498 79.6101 113.386 80.0572 113.06L80.208 112.95C80.4231 112.797 80.6061 112.607 80.744 112.39C80.8818 112.173 80.9733 111.933 81.012 111.685C81.097 111.145 80.9823 110.597 80.6886 110.133L80.1551 109.266C80.0082 108.999 79.7969 108.769 79.5392 108.592C79.315 108.445 79.0702 108.329 78.8087 108.248C78.5587 108.171 78.301 108.115 78.0394 108.083C77.7856 108.053 77.5343 108.009 77.2857 107.954C77.0499 107.903 76.8244 107.818 76.6182 107.701C76.3966 107.568 76.2175 107.386 76.0938 107.169L75.6441 106.435C75.4199 106.056 75.4096 105.793 75.6106 105.647L75.6738 105.601C75.8619 105.463 76.0809 105.576 76.3283 105.937L77.323 107.581L78.5638 106.677L77.5292 105.014C77.2161 104.485 76.8283 104.168 76.3631 104.062C75.8993 103.956 75.4431 104.067 74.9973 104.392L74.7126 104.601C74.2835 104.909 73.9962 105.357 73.9111 105.852C73.8184 106.394 73.9408 106.947 74.2539 107.405L74.7705 108.284C75.0476 108.724 75.3736 109.013 75.7485 109.15C76.1157 109.285 76.4984 109.388 76.8875 109.453C77.2586 109.514 77.6245 109.592 77.9866 109.688C78.359 109.8 78.6682 110.044 78.8486 110.367L79.2828 111.11C79.3704 111.248 79.4323 111.398 79.4658 111.556C79.4825 111.609 79.4812 111.666 79.4632 111.719C79.4452 111.772 79.4117 111.82 79.3666 111.857L79.3331 111.881C79.2429 111.946 79.1475 111.945 79.0393 111.867C78.9117 111.77 78.8074 111.649 78.7301 111.513L77.7354 109.869L76.4868 110.78L77.5073 112.454C77.8204 112.982 78.2121 113.295 78.6824 113.397H78.6811Z" fill="#618792"/>
<path d="M90.5532 104.736C91.057 104.813 91.5428 104.681 92.0118 104.338L94.0038 102.885L88.8176 94.38L87.3449 95.4546L88.1889 96.8379L87.6529 97.2298C87.2186 97.5277 86.8849 97.9342 86.6904 98.4009C86.5177 98.8399 86.5911 99.3368 86.9107 99.8928L89.2892 103.783C89.6294 104.342 90.0507 104.66 90.5545 104.736H90.5532ZM90.6293 102.454L88.703 99.2692C88.4066 98.8266 88.3589 98.5323 88.56 98.3864L88.9478 98.1042L91.7502 102.697L91.3998 102.952C91.1769 103.115 90.9205 102.949 90.6318 102.452H90.6293V102.454Z" fill="#618792"/>
<path d="M55.8737 28.7373C55.8737 28.7373 59.526 25.7458 65.7851 30.8565C72.0442 35.9672 70.7118 39.3606 70.5121 43.0858C70.3123 46.8111 68.5815 51.2356 74.1745 54.9749C79.7674 58.7141 73.2426 63.1386 78.502 68.125C83.7623 73.1104 44.0127 72.7364 41.8155 70.5555C39.6183 68.3746 44.545 66.318 44.8117 62.9526C45.0783 59.5873 43.4774 56.5828 45.7755 52.2891C48.0736 47.9955 46.108 41.763 46.5255 37.2759C46.943 32.7888 53.1531 25.8711 55.8737 28.7382V28.7373Z" fill="#21201E"/>
<path d="M62.6889 51.1166C62.6889 51.1166 65.3385 50.9221 66.9105 46.5631C68.4815 42.204 69.9687 35.42 64.2889 31.9303C59.5169 28.9978 48.0834 28.9305 47.8167 37.2812C47.5501 45.632 49.6384 46.5631 49.6384 46.5631L62.6889 51.1166Z" fill="#21201E"/>
<path d="M26.2329 96.0142H94.4444C94.4634 96.16 94.4814 96.3049 94.5004 96.4498C94.4824 96.3049 94.4634 96.16 94.4454 96.0142C94.3785 95.5001 94.3096 94.9822 94.2387 94.4615C94.1838 94.0614 94.1288 93.6603 94.0719 93.2574C94.015 92.8545 93.956 92.4507 93.8971 92.0459C93.8572 91.7767 93.8172 91.5065 93.7763 91.2354C93.7143 90.8297 93.6524 90.424 93.5885 90.0173C93.5456 89.7462 93.5026 89.4751 93.4587 89.204C93.3708 88.6619 93.2809 88.1187 93.188 87.5765C93.0951 87.0353 93.0003 86.4931 92.9024 85.9527C92.8055 85.4133 92.7046 84.874 92.6018 84.3374C92.5758 84.2028 92.5498 84.0681 92.5239 83.9345C92.368 83.1305 92.2063 82.3312 92.0375 81.5395C91.8687 80.7477 91.6679 79.9914 91.4382 79.2697C91.2854 78.7883 91.1196 78.3218 90.9409 77.8712C90.8959 77.7581 90.851 77.6459 90.805 77.5347C90.7132 77.3131 90.6183 77.0944 90.5204 76.8803C90.4225 76.6653 90.3217 76.454 90.2188 76.2465C89.9601 75.7267 89.6855 75.2304 89.3948 74.7536C89.3369 74.6592 89.278 74.5648 89.219 74.4713C89.0413 74.1899 88.8585 73.9169 88.6707 73.6514C88.483 73.386 88.2902 73.127 88.0935 72.8755C81.4569 64.4126 69.7577 63.9919 68.3425 63.6704C68.3245 63.6666 68.3066 63.662 68.2886 63.6573C68.2247 63.6423 68.1608 63.6255 68.0958 63.6059C68.0659 63.5975 68.0369 63.5881 68.0069 63.5788C67.977 63.5694 67.947 63.5601 67.9171 63.5498C67.8871 63.5395 67.8571 63.5292 67.8282 63.518C67.7982 63.5068 67.7682 63.4956 67.7383 63.4843C67.7103 63.4741 67.6814 63.4628 67.6534 63.4507C67.5006 63.389 67.3468 63.317 67.194 63.2347C67.164 63.2189 67.133 63.203 67.1031 63.1852C67.0731 63.1684 67.0422 63.1515 67.0122 63.1328C66.9812 63.1151 66.9513 63.0973 66.9213 63.0786C66.8914 63.0609 66.8614 63.0412 66.8304 63.0216C66.8005 63.0029 66.7715 62.9833 66.7415 62.9636C66.7206 62.9496 66.7006 62.9365 66.6816 62.9225C66.6577 62.9066 66.6337 62.8898 66.6097 62.872C66.5418 62.8244 66.4739 62.7739 66.407 62.7206C66.378 62.6982 66.349 62.6757 66.3211 62.6533C66.2891 62.6271 66.2582 62.6009 66.2262 62.5738C66.1962 62.5486 66.1673 62.5233 66.1383 62.4981C66.1084 62.471 66.0774 62.4439 66.0474 62.4158C65.9885 62.3616 65.9306 62.3055 65.8717 62.2476C65.7268 62.1027 65.586 61.9475 65.4492 61.7802C64.6742 60.8313 64.053 59.517 63.8013 57.7857C63.268 54.1016 63.8292 46.0312 63.8292 46.0312L60.6423 47.785L54.4731 51.1802C54.572 53.5033 54.6089 55.371 54.5151 56.8901C54.3622 59.3795 53.8559 60.936 52.6844 62.0344C52.6414 62.0746 52.5975 62.1148 52.5525 62.1532C52.5136 62.1887 52.4726 62.2233 52.4317 62.256C52.4217 62.2644 52.4117 62.2728 52.4007 62.2812C52.3588 62.3158 52.3168 62.3495 52.2729 62.3813C52.225 62.4186 52.176 62.4551 52.1251 62.4906C52.0751 62.5271 52.0232 62.5626 51.9713 62.5963C51.9193 62.6318 51.8654 62.6664 51.8115 62.6991C51.5408 62.8692 51.2452 63.0263 50.9226 63.173C50.9206 63.174 50.9196 63.1749 50.9176 63.1758C50.8547 63.2048 50.7908 63.2338 50.7259 63.2609C50.6589 63.2908 50.592 63.3189 50.5231 63.3469C50.4542 63.3759 50.3843 63.4039 50.3134 63.4311C50.1885 63.4797 50.0607 63.5273 49.9299 63.5741C49.8709 63.5956 49.811 63.6161 49.7511 63.6377C49.6602 63.6685 49.5673 63.6993 49.4734 63.7302C49.3826 63.7601 49.2887 63.79 49.1948 63.819C49.1928 63.8199 49.1898 63.8209 49.1878 63.8209C49.1229 63.8414 49.057 63.8611 48.9911 63.8807C48.9251 63.9013 48.8572 63.9209 48.7903 63.9405C48.7224 63.9602 48.6535 63.9798 48.5846 63.9994C48.3768 64.0574 48.1621 64.1153 47.9404 64.1733C47.8755 64.1901 47.8116 64.207 47.7456 64.2238C47.6607 64.2453 47.5739 64.2668 47.487 64.2883C40.7285 65.9635 29.1702 70.5478 27.707 80.8365C27.6501 81.2384 27.5932 81.6647 27.5363 82.1144C27.5133 82.2939 27.4903 82.4771 27.4673 82.664C27.4224 83.038 27.3765 83.425 27.3315 83.8242C27.3095 84.0242 27.2866 84.2271 27.2646 84.4327C27.2077 84.9478 27.1517 85.4807 27.0968 86.0294C27.0748 86.2491 27.0529 86.4706 27.0299 86.695C26.986 87.1437 26.942 87.6018 26.8981 88.0682C26.8771 88.301 26.8551 88.5366 26.8332 88.7731C26.8112 89.0105 26.7902 89.2489 26.7682 89.4901C26.5964 91.4149 26.4297 93.4481 26.2709 95.5066C26.2579 95.6749 26.2449 95.845 26.2329 96.0142Z" fill="#D2BEA6"/>
<path d="M22.4438 115.532H98.2356C97.6224 110.794 93.0458 86.286 92.038 81.5484C89.5492 69.8341 79.9823 65.9705 73.7522 64.5655C73.7123 64.5571 73.6733 64.5477 73.6344 64.5393C73.3647 64.4795 73.102 64.4243 72.8474 64.3738C72.4189 64.2878 72.0114 64.214 71.6279 64.1504C71.3832 64.1093 71.1485 64.0719 70.9248 64.0373C70.8079 64.0195 70.6941 64.0027 70.5832 63.9878C69.9381 63.8943 69.4007 63.8307 69.0012 63.7793C68.6996 63.741 68.4769 63.7092 68.3441 63.6793C68.3201 63.6746 68.2971 63.669 68.2732 63.6615C67.3404 63.4334 66.3027 62.8314 65.4507 61.7891C57.9473 64.7898 53.9573 62.8968 52.6859 62.0433C51.9988 62.6893 51.083 63.1763 49.8755 63.6035C49.7347 63.6531 49.5899 63.7017 49.441 63.7503C48.9597 63.9055 48.4343 64.0551 47.862 64.2018C47.7562 64.2299 47.6483 64.257 47.5385 64.2841C47.5215 64.2888 47.5045 64.2925 47.4875 64.2972C47.3327 64.3355 47.1759 64.3748 47.0171 64.4168C46.9292 64.4393 46.8403 64.4626 46.7515 64.487C46.6306 64.5187 46.5078 64.5524 46.3839 64.586C46.1842 64.6412 45.9824 64.6982 45.7767 64.758C38.9414 66.7445 29.0549 71.3822 27.7086 80.8454C27.1903 84.4874 22.8893 109.693 22.4438 115.532Z" fill="#21201E"/>
<path d="M43.537 89.8944L44.067 86.3044C43.977 86.3144 43.857 86.3344 43.727 86.3444C43.597 86.3544 43.477 86.3644 43.387 86.3644L43.487 85.6744C43.587 85.6744 43.687 85.6544 43.777 85.6244C43.877 85.5844 43.977 85.5344 44.057 85.4744C44.147 85.4144 44.217 85.3444 44.287 85.2544C44.347 85.1744 44.397 85.0844 44.407 84.9844H45.147L44.427 89.8944H43.537Z" fill="#E8DFCE"/>
<path d="M50.3277 85.2444C50.1877 85.0744 49.9777 84.9844 49.7077 84.9844H49.5277C49.2777 84.9844 49.0277 85.0744 48.8477 85.2444C48.6577 85.4244 48.5277 85.6644 48.4877 85.9744L48.3377 86.9344H49.1677L49.3077 85.9944C49.3377 85.7744 49.4077 85.6644 49.5077 85.6644H49.5277C49.6377 85.6644 49.6677 85.7744 49.6477 85.9944L49.4377 87.3544C49.3677 87.3044 49.2877 87.2544 49.2077 87.2244C49.1277 87.1844 49.0477 87.1644 48.9677 87.1644H48.9477C48.6877 87.1644 48.4977 87.2544 48.3877 87.4344C48.2877 87.6044 48.2077 87.8444 48.1677 88.1544L48.0577 88.9344C48.0377 89.0944 48.0277 89.2244 48.0177 89.3544C48.0077 89.4544 48.0177 89.5644 48.0477 89.6644C48.0677 89.7444 48.1177 89.8144 48.1877 89.8544C48.2777 89.9144 48.3877 89.9344 48.4877 89.9244H48.5177C48.6177 89.9244 48.7077 89.9044 48.7977 89.8744C48.8977 89.8344 48.9977 89.7844 49.0877 89.7344L49.0677 89.8944H49.9077L49.9477 89.6344L50.4677 85.9844C50.5177 85.6644 50.4777 85.4244 50.3277 85.2444ZM49.1777 89.1144C49.1377 89.2544 49.0777 89.3244 48.9877 89.3244H48.9677C48.8677 89.3244 48.8377 89.2144 48.8777 89.0044L48.9977 88.0944C49.0377 87.8744 49.1077 87.7644 49.1977 87.7644H49.2677C49.2677 87.7644 49.3177 87.7744 49.3277 87.7844C49.3477 87.8044 49.3677 87.8244 49.3677 87.8444L49.1777 89.1144Z" fill="#E8DFCE"/>
<path d="M51.9277 86.9331L52.0677 85.9831C52.0777 85.9031 52.0777 85.8231 52.0677 85.7531C52.0477 85.6931 52.0177 85.6631 51.9577 85.6631H51.9377C51.9377 85.6631 51.8777 85.6731 51.8577 85.6931C51.8377 85.7131 51.8177 85.7331 51.8077 85.7531C51.7677 85.8231 51.7477 85.9031 51.7377 85.9831L51.6677 86.4031C51.6377 86.5831 51.6677 86.7731 51.7777 86.9231C51.8877 87.0631 51.9977 87.2031 52.1177 87.3331C52.2477 87.4731 52.3577 87.6231 52.4477 87.7831C52.5477 87.9431 52.5777 88.1531 52.5477 88.4131L52.4677 88.9131C52.4377 89.1831 52.3177 89.4431 52.1077 89.6331C51.9177 89.8031 51.6777 89.9031 51.4177 89.9031H51.2477C50.9777 89.9031 50.7777 89.8131 50.6377 89.6331C50.4977 89.4531 50.4477 89.2131 50.4977 88.9131L50.6277 87.9431H51.3777L51.2377 88.8931C51.2177 89.1131 51.2677 89.2231 51.3777 89.2231H51.4177C51.5377 89.2231 51.6177 89.1131 51.6477 88.8931L51.7077 88.4731C51.7277 88.3531 51.7177 88.2231 51.6777 88.1031C51.6377 87.9931 51.5777 87.8931 51.5077 87.8031C51.4277 87.7131 51.3477 87.6131 51.2677 87.5331C51.1777 87.4431 51.0977 87.3431 51.0277 87.2431C50.9577 87.1331 50.8977 87.0131 50.8577 86.8931C50.8177 86.7431 50.8077 86.5931 50.8377 86.4431L50.9077 85.9431C50.9377 85.6731 51.0677 85.4231 51.2677 85.2231C51.3577 85.1331 51.4677 85.0631 51.5877 85.0231C51.7077 84.9731 51.8377 84.9531 51.9677 84.9531H52.0577C52.3277 84.9531 52.5277 85.0431 52.6777 85.2231C52.8177 85.4031 52.8677 85.6431 52.8177 85.9431L52.6777 86.9131H51.9277V86.9331Z" fill="#E8DFCE"/>
<path d="M54.2675 86.9331L54.4075 85.9831C54.4175 85.9031 54.4175 85.8231 54.4075 85.7531C54.3875 85.6931 54.3575 85.6631 54.2975 85.6631H54.2775C54.2775 85.6631 54.2175 85.6731 54.1975 85.6931C54.1775 85.7131 54.1575 85.7331 54.1475 85.7531C54.1075 85.8231 54.0875 85.9031 54.0775 85.9831L54.0075 86.4031C53.9775 86.5831 54.0075 86.7731 54.1175 86.9231C54.2275 87.0631 54.3375 87.2031 54.4575 87.3331C54.5875 87.4731 54.6975 87.6231 54.7875 87.7831C54.8875 87.9431 54.9175 88.1531 54.8875 88.4131L54.8075 88.9131C54.7775 89.1831 54.6575 89.4431 54.4475 89.6331C54.2575 89.8031 54.0175 89.9031 53.7575 89.9031H53.5875C53.3175 89.9031 53.1175 89.8131 52.9775 89.6331C52.8375 89.4531 52.7875 89.2131 52.8375 88.9131L52.9675 87.9431H53.7175L53.5775 88.8931C53.5575 89.1131 53.6075 89.2231 53.7175 89.2231H53.7575C53.8775 89.2231 53.9575 89.1131 53.9875 88.8931L54.0475 88.4731C54.0675 88.3531 54.0575 88.2231 54.0175 88.1031C53.9775 87.9931 53.9175 87.8931 53.8475 87.8031C53.7675 87.7131 53.6875 87.6231 53.6075 87.5331C53.5175 87.4431 53.4375 87.3431 53.3675 87.2431C53.2975 87.1331 53.2375 87.0131 53.1975 86.8931C53.1575 86.7431 53.1475 86.5931 53.1775 86.4431L53.2475 85.9431C53.2775 85.6731 53.4075 85.4231 53.6075 85.2231C53.6975 85.1331 53.8075 85.0631 53.9275 85.0231C54.0475 84.9731 54.1775 84.9531 54.3075 84.9531H54.3975C54.6675 84.9531 54.8675 85.0431 55.0175 85.2231C55.1675 85.4031 55.2075 85.6431 55.1675 85.9431L55.0275 86.9131H54.2775L54.2675 86.9331Z" fill="#E8DFCE"/>
<path d="M47.8674 85.2544C47.7074 85.0744 47.4774 84.9844 47.1974 84.9844H45.9973L45.2874 89.8944H46.1774L46.2874 89.0944H46.6174C46.8674 89.1044 47.1174 89.0444 47.3374 88.9144C47.5374 88.7844 47.6673 88.5644 47.7173 88.2544L48.0473 86.0044C48.0873 85.6744 48.0374 85.4244 47.8674 85.2544ZM47.1273 86.1444L46.8573 87.9744C46.8273 88.2344 46.7573 88.3744 46.6373 88.3744H46.3974L46.7874 85.7144H46.9973C47.1273 85.7144 47.1773 85.8544 47.1273 86.1444Z" fill="#E8DFCE"/>
<path d="M63.4528 47.4531C63.4528 47.4531 63.1871 51.5056 60.0611 55.2523C59.323 56.1367 58.563 56.663 57.8319 56.95C56.2779 57.5604 54.568 56.4779 54.569 54.9008C54.569 53.8118 54.5321 52.5825 54.4731 51.1877L60.6423 47.7925L63.4528 47.4531Z" fill="#21201E"/>
<path d="M66.2975 46.327C65.8131 47.2992 64.8383 47.8545 63.9395 47.6685C63.1365 50.6992 61.0451 54.6161 55.3454 54.6161C51.6401 54.6161 48.8736 49.7587 48.9075 46.5729C48.9355 43.9516 48.9075 43.5384 48.9075 43.5384L48.8826 35.3672H64.2011C64.285 36.9255 64.3569 41.8679 64.335 43.6011C64.6356 43.4122 65.1439 43.2225 65.917 43.316C67.3192 43.4852 67.0306 44.8537 66.2975 46.327Z" fill="#D2BEA6"/>
<path d="M57.5262 46.3807C57.7722 46.3807 57.9717 46.1941 57.9717 45.9638C57.9717 45.7335 57.7722 45.5469 57.5262 45.5469C57.2802 45.5469 57.0808 45.7335 57.0808 45.9638C57.0808 46.1941 57.2802 46.3807 57.5262 46.3807Z" fill="#21201E"/>
<path d="M52.8724 46.3807C53.1184 46.3807 53.3179 46.1941 53.3179 45.9638C53.3179 45.7335 53.1184 45.5469 52.8724 45.5469C52.6264 45.5469 52.427 45.7335 52.427 45.9638C52.427 46.1941 52.6264 46.3807 52.8724 46.3807Z" fill="#21201E"/>
<path d="M54.9021 49.4219C54.9021 49.4219 56.0556 49.3153 56.8446 48.875C56.8446 48.875 56.6519 50.1753 54.9021 49.4219Z" fill="#21201E"/>
<path d="M54.7807 48.6513C54.509 48.6513 54.2613 48.5662 54.1255 48.4456C54.0276 48.3587 53.9917 48.2568 54.0246 48.1596C54.1115 47.9044 54.4011 47.1481 54.4031 47.1406L54.544 47.1883C54.541 47.1958 54.2523 47.9492 54.1664 48.2026C54.1475 48.2587 54.1894 48.311 54.2274 48.3447C54.3922 48.4914 54.7837 48.5746 55.1302 48.454L55.1821 48.5859C55.0493 48.6326 54.9115 48.6522 54.7787 48.6522L54.7807 48.6513Z" fill="#21201E"/>
<path d="M58.99 42.964C58.99 42.964 56.3313 43.1744 55.769 43.0463C55.769 43.0463 55.793 42.7733 56.2804 42.6368C56.7678 42.5004 58.19 42.6481 58.989 42.964H58.99Z" fill="#21201E"/>
<path d="M50.5986 42.9635C50.5986 42.9635 53.2583 43.1738 53.8195 43.0448C53.8195 43.0448 53.7956 42.7719 53.3072 42.6363C52.8188 42.5008 51.3976 42.6485 50.5986 42.9635Z" fill="#21201E"/>
<path d="M65.3806 37.8906C65.3286 40.4894 64.6895 43.1957 64.6895 43.1957L64.5486 43.6566C63.6767 46.6041 64.1511 49.9021 64.1751 50.0685C64.1312 49.9292 63.4131 47.6165 63.452 45.7282C63.477 44.4961 63.47 42.7339 63.462 41.6047C63.4061 41.1541 63.3412 40.7175 63.2643 40.3202C63.0236 39.075 62.5122 38.3384 61.874 37.8906H65.3806Z" fill="#21201E"/>
<path d="M75.8291 79.6172C75.8291 79.6172 75.8301 79.6219 75.8311 79.6303L75.8291 79.6172Z" fill="#6B4E46"/>
<path d="M49.4397 63.7503C58.647 68.6824 66.2454 65.3657 68.9999 63.7793C68.6983 63.741 68.4756 63.7092 68.3427 63.6793C68.3188 63.6746 68.2958 63.669 68.2718 63.6615C67.339 63.4334 66.3013 62.8314 65.4494 61.7891C57.9459 64.7898 53.956 62.8968 52.6846 62.0433C51.9975 62.6893 51.0816 63.1763 49.8741 63.6035C49.7333 63.6531 49.5885 63.7017 49.4397 63.7503Z" fill="#D2BEA6"/>
<path d="M47.5396 64.2807C47.8961 64.6724 48.3236 65.0893 48.8329 65.5053C50.5857 66.9356 53.6548 68.5893 58.4697 68.5893C58.7314 68.5893 58.997 68.5846 59.2687 68.5743C64.538 68.3799 67.6381 66.8318 69.3109 65.567C70.032 65.022 70.5564 64.4864 70.9259 64.0339C70.809 64.0162 70.6952 63.9993 70.5843 63.9844C70.2298 64.3994 69.7474 64.879 69.1052 65.3623C67.4683 66.5944 64.4311 68.1032 59.2567 68.2939C54.0783 68.4855 50.8364 66.7683 49.0297 65.2941C48.5772 64.9248 48.1897 64.5527 47.8631 64.1984C47.7573 64.2265 47.6494 64.2536 47.5396 64.2807Z" fill="#E8DFCE"/>
<path d="M67.6495 45.4115C67.6495 45.4115 61.9238 46.0659 59.5598 42.2958C57.1958 38.5257 56.7773 35.4408 54.4732 36.843C54.4732 36.843 52.9352 35.5034 51.3702 37.1543C49.8051 38.8061 49.6393 41.704 49.6393 43.4484C49.6393 45.1937 47.4092 46.0416 47.4092 46.0416L48.5407 34.2545L66.4181 33.4141L67.6495 45.4106V45.4115Z" fill="#21201E"/>
<path d="M54.4745 36.8387C54.4745 36.8387 53.4687 35.9347 52.7027 36.8387C51.9367 37.7426 51.704 46.3738 48.575 45.7503V45.3558C48.575 45.3558 49.8403 45.2511 50.106 43.288C50.3717 41.3249 49.6985 40.5452 50.8011 37.8969C51.9037 35.2485 54.0121 34.625 54.0121 34.625L54.4735 36.8377L54.4745 36.8387Z" fill="#21201E"/>
</g>
<defs>
<clipPath id="clip0_8129_22213">
<rect width="120.455" height="115" fill="white" transform="translate(0.111328 0.171875)"/>
</clipPath>
</defs>
</svg>
