<?xml version="1.0" encoding="utf-8"?>
<!-- Generator: Adobe Illustrator 26.0.1, SVG Export Plug-In . SVG Version: 6.00 Build 0)  -->
<svg version="1.1" id="George_Samuel" xmlns="http://www.w3.org/2000/svg" xmlns:xlink="http://www.w3.org/1999/xlink" x="0px"
	 y="0px" viewBox="0 0 512 512" style="enable-background:new 0 0 512 512;" xml:space="preserve">
<style type="text/css">
	.st0{fill:#FFFFFF;}
	.st1{fill:#1B191B;}
</style>
<g>
	<rect class="st0" width="512" height="512"/>
	<circle class="st0" cx="256" cy="256" r="256"/>
	<g id="www.GeorgeSamuel.me">
		<path id="Path_7330" class="st1" d="M106.2,391c1.4-0.9,2.6-1.6,4-2.6c11-7,19.7-16,25.6-27.7c2.2-4.3,4-8.8,5.4-13.4
			c0.9-3.5,2.1-7.3,3.1-10.8c0.7-3.1,1.4-6.3,1.9-9.6c0.7-3.3,1.4-6.3,2.1-9.6l2.1-8.5c3.1-11.3,7.8-21.6,16.7-29.6
			c1.4-1.2,2.6-2.3,4-3.5c0.5-0.2,0.7-0.7,1.4-1.2c-0.7-0.5-0.9-0.9-1.4-1.2c-6.8-3.4-13.1-7.6-18.8-12.7
			c-6.3-5.7-11.3-12.7-14.8-20.4c-2.8-5.8-5-11.7-6.8-17.8c-1.6-5.4-3.1-10.8-4.7-16.4c-1.2-4.7-2.3-9.6-3.5-14.3
			c-1.6-6.1-3.5-12.4-5.4-18.6c-1.9-6.4-4.4-12.6-7.5-18.6c-4.4-8.9-10.6-16.7-18.3-23c-5.3-4.3-11.3-7.7-17.6-10.1
			c-0.3-0.2-0.6-0.3-0.9-0.2c-0.6-0.3-1.2-0.7-1.6-1.2c2.3,0.5,4.7,0.9,7,1.6c5.8,1.7,11.4,4,16.7,6.8c7.9,4.5,14.9,10.3,20.9,17.1
			c0.7,1,1.4,1.8,2.3,2.6c0.6,0.7,1.4,1.1,2.3,1.2c5.6,0.5,11.1,1.6,16.4,3.1c6.2,1.8,12.2,4.3,17.8,7.5c4.1,2.3,7.8,5.3,10.8,8.9
			c0.7,0.8,1.7,1.3,2.8,1.4c13.4,0.2,26.2,5.8,35.5,15.5c0.9,0.9,2,1.4,3.3,1.4c8,0.5,15.8,3,22.8,7c6.9,4.2,12.6,10.3,16.2,17.6
			c2.6,5,4.6,10.3,5.9,15.7c1.2,4.9,2.1,9.9,3.1,14.8c0.2,1,0.3,2,0.2,3.1c0,0.2,0.2,0.7,0.2,0.9c0.6-0.2,1-0.8,0.9-1.4
			c0.4-2.3,0.8-4.5,0.9-6.8c1.6-9.2,4-18.3,8.2-26.5c4.5-8.2,10.6-14.8,19-18.8c3.2-1.6,6.6-2.8,10.1-3.5c3.4-1,7-1.6,10.6-1.6
			c0.9,0,1.8-0.5,2.3-1.2c3.3-3.5,7.1-6.6,11.3-8.9c4.4-2.6,9.1-4.5,14.1-5.6c3.5-0.7,7-1.2,10.6-1.4c0.9,0,1.8-0.5,2.3-1.2
			c4.7-5.6,10.8-9.4,17.4-12.4c5.2-2.4,10.6-4.2,16.2-5.4c3.8-0.9,7.6-1.5,11.5-1.9c1.1-0.2,2.1-0.8,2.8-1.6
			c6-7.3,13.3-13.6,21.4-18.6c6-3.6,12.5-6.3,19.3-8c2.1-0.5,4-0.9,6.1-1.4v0.2c-2.3,1.2-4.9,2.1-7.3,3.3
			c-9.7,4.6-18.1,11.6-24.4,20.2c-4.4,6.1-8,12.7-10.8,19.7c-1.6,4.2-3.3,8.5-4.7,12.7c-1.2,3.3-1.9,6.3-2.8,9.6
			c-0.9,3.5-1.9,7.3-2.8,10.8c-0.9,3.8-1.9,7.8-3.1,11.5c-0.9,3.5-1.9,7-3.1,10.6l-3.5,11.3c-4.2,12-10.1,22.8-19.7,31.5
			c-5.4,4.9-11.5,9-18.1,12.2c-0.5,0.3-1,0.7-1.4,1.2l0.9,0.9c8.1,6.1,14.3,14.4,17.9,24c2.1,5.7,3.8,11.5,4.9,17.4
			c1.2,5.4,2.1,10.6,3.3,16c1.4,6.9,3.3,13.7,5.6,20.4c4.6,12.3,12.6,23,23,31c3.1,2.3,6.3,4.2,9.6,6.6c0.2,0,0.2,0.2,0.7,0.5h-1.2
			c-9.9-3.5-19.3-7.8-27.5-14.6c-0.9-0.8-2.1-1.3-3.3-1.2c-6.9-0.4-13.6-1.7-20.2-3.8c-8.7-2.8-16.4-6.8-23-13.2
			c-0.5-0.6-1.3-0.9-2.1-0.9c-2.6-0.5-5.2-0.7-7.8-1.4c-12.7-2.8-23-8.9-29.8-20.4c-0.2-0.5-0.7-0.9-0.9-1.4
			c-0.3-0.3-0.7-0.5-1.2-0.5c-2.3,0.5-4.5-0.5-6.6-0.9c-5.8-1.6-11-4.8-15-9.2c-3.2-3.7-5.8-7.9-7.5-12.4c-0.9-2.3-1.6-4.7-2.6-7
			c-0.2-0.5-0.5-0.7-0.7-1.2c-0.2,0.5-0.5,0.7-0.7,1.2c-1.6,5.5-3.9,10.7-7,15.5c-4.2,6.3-9.6,10.8-16.9,12.9
			c-1.9,0.5-3.5,0.9-5.4,1.4c-0.7,0.2-1.5,0.1-2.1-0.2c0.2-0.2,0.5-0.5,0.7-0.5c9.9-3.3,16.7-9.9,20.9-19.3
			c3.1-6.1,4.7-12.9,5.9-19.5c0.5-2.6,0.9-4.9,1.2-7.5c0-0.7,0.2-1.4,0-1.9c-0.7-4.5-1.4-9.2-1.9-13.6c-0.5-3.5-0.7-7-1.2-10.8
			c-0.5-3.3-0.7-6.8-1.2-10.1c-0.5-3.8-1.2-7.3-1.9-11c-0.7-4.2-1.8-8.2-3.3-12.2c-1.4-4.2-3.3-8.2-5.6-12
			c-4.6-7.4-10.8-13.6-18.3-18.1c-2.8-1.6-5.9-3.1-8.7-4.7c-0.4-0.2-0.8-0.3-1.2-0.2c0,0.5,0,0.7,0.2,0.9c2.1,3.8,3.8,7.7,5.2,11.7
			c0.9,3.3,1.9,6.3,2.8,9.6c1.2,4.7,2.1,9.2,3.1,13.9c0.7,3.3,1.2,6.3,1.9,9.6c0.9,4,1.9,8,3.1,12c1,3.6,2.1,7.1,3.5,10.6
			c2.9,7.9,7.1,15.3,12.4,21.8c1.9,2.3,4.5,4.2,6.6,6.6l1.2,1.2c0,0.2,0,0.2-0.2,0.5c-0.7,0-1.2,0.2-1.9,0.2l-12-0.7h-0.9
			c-0.7,0-1.2,0.2-1.4,1.2c-0.2,1.2-0.2,2.3-0.5,3.5l-1.4,10.6c-0.5,3.5-1.2,7-1.9,10.6c-1.2,5.4-2.9,10.7-5.2,15.7
			c-0.2,0.5-0.5,1.2-0.7,1.6c0,0.2-0.2,0.5-0.2,0.7c-1.9,2.6-3.8,5.4-5.6,8c-3.6,4.4-8.1,7.9-13.2,10.3c-5.4,2.6-11.2,4.4-17.1,5.2
			c-2.6,0.2-5,1.3-6.8,3.1c-4.2,4-9.4,6.8-14.6,9.2c-6.8,2.8-14,4.7-21.4,5.6c-1.9,0.3-3.9,0.4-5.9,0.5c-1,0-2,0.3-2.8,0.9
			c-5.7,4.9-12.2,8.8-19.3,11.5c-2.8,1.2-5.6,2.1-8.5,3.3h-0.7C106.5,391.3,106.5,391.3,106.2,391z M390.2,153.1H389
			c-6.2,1.8-12.1,4.1-17.8,7c-6.6,3.5-12.4,8.2-16.2,14.8c-1.6,2.8-3.3,6.1-4.7,9.2c-2,4.5-3.6,9.3-4.7,14.1
			c-0.9,4.2-1.9,8.2-2.6,12.4c-0.9,5.2-1.9,10.1-3.1,15.3c-0.9,5.2-2.1,10.3-3.3,15.3c-1.4,5.9-3.3,11.7-5.9,17.1
			c-2.2,5-5.6,9.4-9.9,12.9c-0.5,0.5-0.9,0.7-1.4,1.2c0.1,0.1,0.3,0.2,0.5,0.2c0.2,0,0.7-0.2,0.9-0.2c5.9-2.3,11.6-5.2,16.9-8.7
			c5.9-3.7,11.2-8.3,15.7-13.6c8-9.4,12.4-20.2,16-31.9c0.9-3.3,1.9-6.8,2.8-10.1c0.9-3.8,1.9-7.8,3.1-11.5
			c0.9-3.5,1.6-7.3,2.8-10.8c1.4-4.9,3.1-9.6,4.7-14.6c1.9-5.7,4.3-11.3,7-16.7C389.7,154.3,389.9,153.8,390.2,153.1z M191.7,272.9
			v-0.2c-0.2-0.2-0.5-0.2-0.7-0.5c-2.4-1.9-4.5-4.1-6.3-6.6c-4.5-5.9-7-12.7-8.9-19.5c-1.2-3.8-1.9-7.5-2.8-11.3
			c-1.4-6.3-2.6-12.9-3.8-19.3c-1.2-6.3-2.3-12.7-4-18.8c-1.4-5.7-3.3-11.2-5.9-16.4c-3.8-7.8-9.2-14.1-16.7-18.3
			c-6.4-3.6-13.3-6.5-20.4-8.5c-0.3,0-0.7,0.1-0.9,0.2l0.7,1.4c0.5,0.8,0.9,1.7,1.2,2.6c1.9,4.5,3.8,8.9,5.4,13.4
			c1.6,4.7,3.1,9.4,4.5,14.1c0.9,3.3,1.9,6.6,2.6,9.9c0.9,4,1.9,7.8,3.1,11.7c0.9,3.5,1.6,7,2.8,10.6c1.6,5.2,3.3,10.3,5.4,15.5
			c3,7,7,13.5,12,19.3c8.7,9.9,19.7,16.2,31.9,21.1C191,273,191.3,272.8,191.7,272.9z M302.6,192.6c-0.4,0.2-0.8,0.2-1.2,0.2
			c-0.8,0.4-1.7,0.8-2.6,1.2c-6.9,3.3-13.2,7.9-18.3,13.6c-8,8.7-12.2,19.3-14.6,30.5c-0.7,3.8-1.4,7.3-1.9,11l-2.1,17.6l-2.1,16.9
			c-0.2,1.4-0.2,2.8,0,4.2l2.1,11.3c1.2,6.3,3.5,12.4,6.6,18.1c3.6,6.7,9.4,11.9,16.4,14.8c1.3,0.7,2.8,1.1,4.2,1.2
			c0.1-0.4,0-0.8-0.2-1.2c-1.7-3.6-3.1-7.3-4.2-11c-1.2-4.2-2.1-8.5-3.1-12.9c-0.9-4.6-1.5-9.2-1.9-13.9c-0.2-0.9-0.2-2.1-0.5-3.1
			s-0.5-1.2-1.4-1.2H277c-4,0.2-7.8,0.5-11.7,0.7c-0.6,0-1.3,0-1.9-0.2c-0.2-0.9,0.5-1.2,0.9-1.4c1.8-1.5,3.6-3.2,5.2-4.9
			c6.8-7.5,11.3-16.4,14.8-25.8c1.4-3.7,2.6-7.5,3.5-11.3c1.2-4.5,2.1-8.7,3.1-13.2l2.1-9.9c0.9-4.2,1.9-8.5,3.1-12.4
			c1.1-4.6,2.6-9.1,4.7-13.4C300.7,196.3,301.6,194.5,302.6,192.6z M372.8,373.9l0.2-0.2c-0.2-0.5-0.7-0.9-0.9-1.4
			c-2.5-2.7-4.8-5.6-6.8-8.7c-4.9-7.8-7.5-16.7-9.6-25.6c-1.4-6.1-2.6-12.4-4-18.6c-1.1-5.7-2.8-11.2-5.2-16.4
			c-3.7-8.9-9.7-16.7-17.4-22.5c-0.8-0.6-1.9-0.8-2.8-0.5c-3.1,0.9-6.3,2.1-9.4,3.1c-1.6,0.5-1.6,0.5-0.9,2.1
			c1.2,3.3,2.6,6.8,3.8,10.1c0.8,2.6,1.5,5.3,1.9,8c0.7,3.8,1.2,7.3,1.9,11c0.7,4,1.4,7.8,2.1,11.7c0.9,5.2,2.4,10.4,4.5,15.3
			c4.2,10.1,11,17.6,20.2,23.5c6.3,4,13.2,6.6,20.4,8.9C371.4,373.6,372.1,373.7,372.8,373.9z M138.2,373.9h1.2
			c1.9-0.5,3.5-1.2,5.4-1.6c6.2-2.1,12.1-4.9,17.6-8.5c8.6-5.5,15.2-13.6,19-23c2.4-6.4,4.2-13,5.2-19.7c0.5-2.1,0.7-4.5,1.2-6.6
			c0.7-3.8,1.2-7.5,2.1-11.3s1.9-7.5,3.1-11.3c0.8-2.3,1.7-4.6,2.8-6.8c0.5-1.2,0.2-1.4-0.9-1.9c-3.3-0.9-6.6-2.1-9.9-3.1
			c-0.8-0.3-1.7-0.1-2.3,0.5c-5.2,4-9.7,8.8-13.2,14.3c-2,3.5-3.8,7.1-5.4,10.8c-1.6,4-2.8,8-3.8,12.2l-2.8,12.7
			c-0.9,4.5-1.9,8.7-3.1,12.9c-1,3.8-2.3,7.6-3.8,11.3c-2.6,6.8-6.6,13-11.7,18.1C138.6,372.9,138.6,373.2,138.2,373.9L138.2,373.9z
			 M230.2,282.1c0-0.2,0-0.2,0.2-0.5l-0.7-0.7c-3.2-2.6-6-5.7-8.2-9.2c-3.6-5.8-6.2-12.1-7.8-18.8c-1.6-6.1-2.8-12.4-4.2-18.8
			c-0.9-4.7-1.6-9.4-2.8-13.9c-1.3-6.3-3.2-12.6-5.6-18.6c-2.1-5.2-5-10.1-8.7-14.3c-6-7.1-14.1-12.1-23-14.6h-1.2
			c0.4,0.5,0.7,1.1,0.9,1.6c0.7,1.4,1.6,2.8,2.3,4.2c3.6,7,6.3,14.4,8.2,22.1c1.4,5.4,2.6,11,3.8,16.7c1.2,6.1,2.3,12.2,3.3,18.3
			c1,5.3,2.4,10.5,4.2,15.5c3.2,8.9,9.3,16.5,17.4,21.6c6.3,4,13.2,6.6,20.4,8.9C229.3,282,229.8,282.1,230.2,282.1L230.2,282.1z
			 M280.7,281.8c0,0.2,0,0.2,0.2,0.5c0.5,0,1,0,1.4-0.2c0.5,0,0.9-0.5,1.4-0.5c5.7-1.6,11.1-3.9,16.2-6.8
			c7.5-4.1,13.6-10.3,17.6-17.8c3.5-6.6,5.2-13.6,6.6-20.9c0.7-3.5,1.2-7.3,1.9-10.8c0.9-5.2,1.9-10.1,3.1-15.3
			c0.7-3.8,1.7-7.6,2.8-11.3c1.2-3.8,2.3-7.5,3.8-11c1.7-4.6,3.8-9,6.3-13.2l0.9-1.9c-0.5-0.1-1,0-1.4,0.2c-1.2,0.5-2.3,0.7-3.5,1.2
			c-5.5,2-10.6,5-15,8.9c-5.5,5.1-9.8,11.4-12.7,18.3c-2.9,7.2-5.1,14.7-6.6,22.3l-2.8,14.1c-0.9,4.5-1.9,8.9-3.1,13.6
			c-1.2,5.2-2.9,10.2-5.2,15c-2.8,5.9-6.3,11-11.5,14.8C281,281.4,281,281.6,280.7,281.8L280.7,281.8z M326.5,355.6
			c0-0.5,0.2-0.5,0-0.7s-0.2-0.5-0.5-0.9c-4.2-5.6-6.6-12-8.5-18.6l-2.1-7.8c-0.7-3.3-1.4-6.6-2.1-10.1c-0.7-3.8-1.2-7.5-1.9-11.3
			s-1.4-7.8-2.1-11.5c-0.5-2.8-1.4-5.4-2.1-8.2c-0.5-1.6-0.7-1.6-2.3-1.4c-4,0.7-8.2,1.6-12.4,2.3c-0.9,0.2-1.6,0.2-2.6,0.5
			c-0.9,0.2-0.9,0.5-0.9,1.4c0.7,3.8,1.4,7.3,2.1,11c0.9,6.1,1.9,12.2,3.3,18.3c1.2,4.9,2.8,9.7,4.9,14.3
			c4.8,10.7,14.1,18.7,25.4,21.8C325.1,355.3,325.8,355.3,326.5,355.6L326.5,355.6z M184.4,355.6c0.6,0.1,1.3,0,1.9-0.2
			c0.7-0.2,1.2-0.5,1.9-0.7c5.2-1.6,10-4.3,14.1-8c5.5-5.2,9.6-11.6,12-18.8c2.4-7.1,4.2-14.4,5.2-21.8c0.7-5.2,1.6-10.3,2.6-15.7
			c0.2-1.6,0.2-1.6-1.4-2.1c-1.8-0.4-3.6-0.7-5.4-0.9c-3.1-0.7-6.1-1.2-9.2-1.9c-1.2-0.2-1.4,0-1.9,0.9c0,0.2-0.2,0.5-0.2,0.7
			c-1.2,4.9-2.3,9.6-3.3,14.6c-1.2,6.1-2.1,12.4-3.3,18.6c-1.1,6.7-2.8,13.3-5.2,19.7c-1.9,4.9-3.8,9.9-7.3,14.1
			C184.8,354.5,184.7,355,184.4,355.6L184.4,355.6z"/>
	</g>
</g>
</svg>
