<?xml version="1.0" encoding="utf-8"?>
<!-- Generator: Adobe Illustrator 26.0.1, SVG Export Plug-In . SVG Version: 6.00 Build 0)  -->
<svg version="1.1" id="George_Samuel" xmlns="http://www.w3.org/2000/svg" xmlns:xlink="http://www.w3.org/1999/xlink" x="0px"
	 y="0px" viewBox="0 0 512 512" style="enable-background:new 0 0 512 512;" xml:space="preserve">
<style type="text/css">
	.st0{fill:#FD0000;}
	.st1{fill:#FFFFFF;}
</style>
<g id="www.GeorgeSamuel.me">
	<rect class="st0" width="512" height="512"/>
	<circle class="st0" cx="256" cy="256" r="256"/>
	<g>
		<path d="M429.1,154.2v204.3v0.7c0,2,0,4-0.7,6c-4.7,30.6-30.6,52.6-61.9,52.6h-221c-33.9,0-61.9-27.3-62.6-61.9V156.2
			c0-4.7,0.7-8.7,1.3-13.3c6.7-27.3,30.6-46.6,58.6-47.9c0.7,0,0.7,0,1.3,0h224.3h0.7c3.3,0,6.7,0.7,10,1.3
			c26.6,5.3,46.6,26.6,49.3,53.2L429.1,154.2z"/>
		<path class="st1" d="M105.6,300h95.2c4,0,8-2.7,10-6c2-4.7,0.7-10-4-12.6c-0.7,0-0.7-0.7-1.3-0.7c-0.7,0-2-0.7-2.7-0.7h-97.2
			c0-1.3,0-43.3,0-44.6h95.2c1.3,0,3.3,0,4.7-0.7c3.3-1.3,5.3-4,6-8c0.7-5.3-3.3-10-8.7-10l0,0h-96.5c-0.7-1.3-0.7-41.9,0-44.6h0.7
			h92.5c6.7,0,12.6,0.7,18.6,2c8,1.3,15.3,4,22,8c8,4.7,13.3,12,16.6,20.6c2.7,8,4,16,2.7,24c-1.3,12.6-8,24-18.6,30.6
			c0,0-0.7,0.7-1.3,0.7c0.7,0.7,1.3,1.3,2,1.3c7.3,5.3,12.6,12.6,16,21.3c2,6,2.7,13.3,2,20c-0.7,5.3-2,11.3-4,16
			c-2,5.3-5.3,10-9.3,14c-5.3,4.7-11.3,8-18,10c-5.3,2-10.6,2.7-16.6,3.3c-5.3,0.7-11.3,0.7-16.6,0.7h-88.5c0-0.7,0-1.3,0-2V302
			C105.6,301.3,105.6,300.7,105.6,300z"/>
		<path class="st1" d="M272,343.9V236.8h89.9c4.7,0,8-3.3,8.7-8c0.7-3.3-1.3-7.3-4-9.3c-1.3-0.7-2.7-1.3-4-1.3H272
			c0-15.3,0-30,0-45.3h75.2c7.3,0,14.6,0.7,22,2.7c7.3,2,14,4.7,20.6,8.7c9.3,6,16.6,15.3,20,26c2,6,2.7,12.6,2.7,18.6
			c0,10-3.3,20-9.3,28c-4,5.3-8.7,10-14,13.3c-6.7,4-13.3,6.7-20.6,8.7c-4.7,1.3-10,2-14.6,2c-6,0-12,0-18,0h-16v63.9
			C318.6,344.6,274.7,344.6,272,343.9z"/>
	</g>
</g>
</svg>
