<?xml version="1.0" encoding="utf-8"?>
<!-- Generator: Adobe Illustrator 26.0.1, SVG Export Plug-In . SVG Version: 6.00 Build 0)  -->
<svg version="1.1" id="George_Samuel" xmlns="http://www.w3.org/2000/svg" xmlns:xlink="http://www.w3.org/1999/xlink" x="0px"
	 y="0px" viewBox="0 0 512 512" style="enable-background:new 0 0 512 512;" xml:space="preserve">
<style type="text/css">
	.st0{fill:#111111;}
	.st1{fill:#FFFFFF;}
	.st2{fill:#E81C75;}
</style>
<g id="www.GeorgeSamuel.me_00000028312092360466735800000012940180758895185838_">
	<rect class="st0" width="512" height="512"/>
	<circle class="st0" cx="256" cy="256" r="256"/>
	<g id="www.GeorgeSamuel.me">
		<path id="Path_7367" class="st1" d="M280.4,130.9c18-2.8,36.4-1.8,54,3c-2.3,7.9-1.1,16.4,3.4,23.4c-6.2,6-16.3,4.2-24.8,2.8
			c-21.2-3.5-42.9-2.3-63.5,3.5c-3.2,0.9-6.5,2.1-8.8,4.4c-1.9,2.1-2.8,5-3.7,7.6c-3.4,10.4-6.9,20.9-10.3,31.3
			c-2.1,6.7-2.8,16.5,4.1,18.1c5.1,1.2,9.6-4.2,10.3-9.4c0.7-5.1-0.9-10.4-0.5-15.6c0.5-9,7.1-17,15.4-20.4
			c8.3-3.4,18.1-2.5,26.2,1.4c-1.4,14.5-10.6,27.1-21.4,37c-10.8,9.9-23.2,17.7-33.8,27.8c-28.3,26.9-41.6,68.3-74.5,89.4
			c-8.8,5.7-18.9,9.7-26,17.5c-9.2,9.9-12.4,25-23.5,32.6c-3.2,2.1-7.4,3.7-11,2.1c-7.4-3.2-0.5-17.3,0.9-22.5
			c2.8-11.3,5.7-22.8,8.7-34.2c5.7-22.8,11.5-45.5,17.2-68.3c11.5-45.5,22.8-91,34.3-136.6c4.4-17.7,8.8-35.6,13.5-53.3
			c56.3,0.2,112.8,0.2,169,0.4c14.9,0,29.7,0,44.3,3.2c14.5,3.2,28.7,9.7,38.4,21.1c12,13.8,15.9,33.1,14.3,51.3s-8.1,35.6-15,52.4
			c-3.2-3.2-6.5-6.4-10.8-7.8c-4.2-1.4-9.6-0.5-12,3.2c-1.6,2.5-1.6,5.7-2.1,8.5c-1.4,9.2-7.8,17-15.6,22.1
			c-7.6,5.1-16.6,8.1-25.5,11.2c-3.4-11.5-6.9-22.8-10.3-34.3c-1.6-5.3-3.2-10.8-2.1-16.3c2.1-10.1,13.5-15.9,23.7-15.6
			c2.5,0.2,5,0.4,7.1-0.7c4.8-2.8,4.1-11.9,9.6-12.7c-3.4-7.3,1.8-15.8,0.5-23.5c-1.1-6.9-7.3-12.4-14-14.2s-14.2,0-20.4,3.4
			c-2.1,1.1-4.2,2.3-6.5,2.3c-3.5,0-6-3-8.7-5.3c-7.4-7.1-17.9-11.2-28.1-9.7C291.9,113.4,282.6,121,280.4,130.9z"/>
		<path id="Path_7368" class="st2" d="M183.8,432.5c-23.9-0.2-47.6-0.4-71.5-0.4c-1.6,0-3.2,0-4.2-1.2c-0.8-0.9-1.2-2-1.2-3.2
			c-3.9-26,10.6-42.8,31-56.8c15-10.3,31.2-19.1,47.1-28c1.6,4.6-1.2,9.4-4.6,12.9c-3.2,3.5-7.1,6.9-8,11.7
			c-0.9,4.8,3.4,10.4,7.8,8.7c2.5-1.1,3.7-3.9,5-6.2c8.1-15.9,28.9-21.1,46.6-19.6c17.7,1.4,35.2,7.6,53.1,7.3
			c7.4-0.2,16.1-2.3,19.1-9.2c2.3-5.7-0.2-12-2.7-17.5c-9.8-21.1-20.7-41.6-32.7-61.4c-0.9-1.6-1.9-3.2-1.6-5c0.3-1.1,0.8-2.1,1.4-3
			c13.3-19,32.4-33.2,54.5-40.4c3.6,12.7,9.7,24.6,18.1,34.9c1.6,1.9,3.4,3.7,5.7,4.2c2.1,0.5,4.4-0.4,6.4-1.2
			c15.7-6.8,30-16.4,42.1-28.5c18.8,17.5,20.7,46.6,16.1,71.9c-7.4,40-29.2,78.2-63.2,100.9c-21.6,14.5-47.1,22.1-72.8,25.8
			s-51.9,3.5-77.7,3.4L183.8,432.5z"/>
		<path id="Path_7369" class="st2" d="M224,337.5c-7.1-1.1-14.9-2.1-22.7-3.4c-0.6-0.3-1.1-0.6-1.6-1.1c0.3-0.5,0.7-1,1.1-1.4
			c12.1-9.1,23.6-19,34.5-29.6c2.8-2.7,2.8-2.7,5,0.7c3.8,5.9,8.6,11.1,14.2,15.4c5.1,4.2,10.3,8.5,15.2,12.7
			c0.5,0.4,0.5,1.1,0.9,1.6c-0.7,0-1.4,0.2-1.9,0.2c-3.6-1-7.5-1.1-11.2-0.4c-3.7,0.5-7.6,1.2-11.3,1.9c-3.2,0.5-6.4,1.4-9.6,1.9
			C232.6,336.6,228.8,337,224,337.5z"/>
	</g>
</g>
</svg>
