<?xml version="1.0" encoding="utf-8"?>
<!-- Generator: Adobe Illustrator 26.0.1, SVG Export Plug-In . SVG Version: 6.00 Build 0)  -->
<svg version="1.1" id="George_Samuel" xmlns="http://www.w3.org/2000/svg" xmlns:xlink="http://www.w3.org/1999/xlink" x="0px"
	 y="0px" viewBox="0 0 512 512" style="enable-background:new 0 0 512 512;" xml:space="preserve">
<style type="text/css">
	.st0{fill:#C6003D;}
	.st1{fill:#FFFFFF;}
</style>
<g id="www.GeorgeSamuel.me">
	<rect class="st0" width="512" height="512"/>
	<circle class="st0" cx="256" cy="256" r="256"/>
	<path id="Path_7371" class="st1" d="M179.5,179.9c8.8,24.5,29.6,49.8,14.8,78.4c-8.1,29.6-32.7,51.8-62.9,57
		c-30.4,2.7-58.5-2.4-81.5-20.8C34,214.9,67.3,133.5,134.4,87.7L179.5,179.9"/>
	<path id="Path_7372" class="st1" d="M295.9,434.2c-14.8,50.5-163.8,17.4-210.6-65.5c61.6,6.8,130.5-47.6,132-109.7L295.9,434.2"/>
	<path id="Path_7373" class="st1" d="M362.7,427.7c11.2-4.1,19.9-13.1,23.6-24.5L226.3,55c-11.5-2.7-23.5,0-32.7,7.5L362.7,427.7"/>
	<path id="Path_7374" class="st1" d="M437.4,352C505.6,248.6,448.5,78.9,301,55.2L437.4,352"/>
</g>
</svg>
