<?xml version="1.0" encoding="utf-8"?>
<!-- Generator: Adobe Illustrator 26.0.1, SVG Export Plug-In . SVG Version: 6.00 Build 0)  -->
<svg version="1.1" id="GeorgeSamuel.me" xmlns="http://www.w3.org/2000/svg" xmlns:xlink="http://www.w3.org/1999/xlink" x="0px"
	 y="0px" viewBox="0 0 512 512" style="enable-background:new 0 0 512 512;" xml:space="preserve">
<style type="text/css">
	.st0{fill:#181621;}
	.st1{fill:none;stroke:#89701B;stroke-width:2;}
	.st2{fill:none;stroke:#8C8B90;stroke-width:2;}
	.st3{fill:#FACA14;}
	.st4{fill:#FFFFFF;}
</style>
<g id="www.GeorgeSamuel.me">
	<rect class="st0" width="512" height="512"/>
	<circle class="st0" cx="256" cy="256" r="256"/>
	<path vector-effect="non-scaling-stroke" class="st1" d="M84.7,338.1c101.8-0.1,196.6,0,294.8,0c3.7,0,6.5-0.1,8.4-0.4
		c16-2.6,29.7-15.5,33.3-31.3c9.7-43.2,19.5-86.4,29.2-129.6c1.2-5.4,2-9,2.3-10.8c1.9-10.4-1.8-20.7-10.8-26.4
		c-5.3-3.4-11.1-4.3-17.3-4.3c-98,0-196,0-294,0c-18.3,0-36,12.9-40.1,31c-9.5,42.2-19,84.3-28.5,126.5c-1.1,4.8-2.1,9.5-3.1,14.3
		C55.2,324.3,67.7,338.1,84.7,338.1"/>
	<path vector-effect="non-scaling-stroke" class="st2" d="M219.3,366.6l2.7-19.2c0-0.1,0-0.2-0.2-0.2c-2.2,0-3.6,0-4.4,0
		c-0.9,0.1-1.3,0.6-1,1.5c0,0.1,0.1,0.2,0.2,0.2l2,0.3c0.1,0,0.3,0.2,0.2,0.3l-2.8,19.7c0,0.2,0.1,0.3,0.3,0.3
		c3.5,0.1,8.4,1,10.7-2.5c0.1-0.1,0.2-0.1,0.3-0.1c0,0,0.1,0,0.1,0.1c2.2,3.4,7.4,2.6,11,2.5c0.2,0,0.3-0.1,0.3-0.3
		c0.6-3.7,3.3-13.9-3.1-14.2c-4.6-0.2-7.5,2-8.6,6.6c-1.3,5.5-1.7,5.5-7.4,5.5C219.4,367.1,219.2,366.9,219.3,366.6"/>
	<path vector-effect="non-scaling-stroke" class="st2" d="M181.1,352.5c0.8,0.6,1.9,0.3,2.6-0.6c0,0,0,0,0,0
		c0.7-0.9,0.6-2.1-0.2-2.6c0,0,0,0,0,0c-0.8-0.6-1.9-0.3-2.6,0.6c0,0,0,0,0,0C180.3,350.8,180.4,352,181.1,352.5
		C181.1,352.5,181.1,352.5,181.1,352.5"/>
	<path vector-effect="non-scaling-stroke" class="st2" d="M185.7,352.5c0.7,0.6,1.9,0.5,2.6-0.4c0,0,0,0,0,0c0.7-0.8,0.7-2,0-2.6
		c-0.7-0.6-1.9-0.5-2.6,0.4l0,0C185,350.7,185,351.9,185.7,352.5"/>
	<path vector-effect="non-scaling-stroke" class="st2" d="M162.1,352.5c0.7,0.6,1.8,0.5,2.5-0.3c0.7-0.8,0.8-1.9,0.1-2.5
		s-1.8-0.5-2.5,0.3C161.5,350.7,161.4,351.8,162.1,352.5"/>
	<path vector-effect="non-scaling-stroke" class="st2" d="M201.1,367.6c1.2,2.9,6.8,2,9.4,1.9c0.2,0,0.3-0.1,0.3-0.2l1.7-14.8
		c0-0.4-0.1-0.6-0.5-0.5l-2.3,0.4c-0.1,0-0.2,0.1-0.2,0.2c-0.1,4.1-0.5,8.2-1.2,12.3c0,0.2-0.2,0.3-0.3,0.3
		c-1.4,0.1-5.2,0.3-4.9-2.2c0.4-3.1,0.8-6.1,1.3-9.2c0-0.1,0-0.2-0.2-0.2l-2.2-0.1c-0.1,0-0.2,0.1-0.2,0.2c-0.4,2.5-0.8,5-1.2,7.5
		c-0.4,2.1-1.6,4.7-4.1,4.2c-2.4-0.4-1.9-2.9-1.6-4.9c0.3-2.2,0.6-4.5,1-6.7c0-0.1,0-0.2-0.2-0.2l-2.3-0.2c-0.2,0-0.3,0.1-0.3,0.3
		c-0.2,1.6-0.4,3.1-0.7,4.7c-0.5,3.2-0.9,6.9-4.9,6.8c-1.2,0-2.4,0-3.5,0c-0.1,0-0.2-0.1-0.2-0.2c0,0,0,0,0,0l1.6-11.3
		c0-0.2-0.1-0.3-0.2-0.3l-2.3,0c-0.1,0-0.2,0.1-0.3,0.2l-1.6,11.3c0,0.1-0.1,0.2-0.2,0.2h-7.3c-0.2,0-0.4-0.2-0.4-0.4c0,0,0,0,0,0
		l1.6-11.1c0-0.2,0-0.2-0.2-0.2l-2.3,0.1c-0.2,0-0.3,0.1-0.4,0.3c-0.6,4.2-1.1,8.3-1.7,12.5c-0.6,4-1.5,6.8-6.1,6.2
		c-0.2,0-0.3,0.1-0.3,0.2l-0.5,2.1c0,0.2,0,0.3,0.3,0.4c5.9,0.7,8-2.2,9.3-7.4c0-0.2,0.1-0.2,0.3-0.2c5,0,10,0,15,0
		c1.6,0,2.8-1.1,4-2c0.1-0.1,0.2-0.1,0.3,0c0,0,0,0,0,0c1.2,2.7,4.4,2.7,6.6,1.4c0.6-0.4,1.2-1.1,1.9-1.6
		C200.9,367.4,201,367.4,201.1,367.6"/>
	<path vector-effect="non-scaling-stroke" class="st2" d="M288.6,367.1l-9.3,0.1c-0.2,0-0.3,0.1-0.3,0.3l-0.1,1.8
		c0,0.2,0.1,0.3,0.3,0.3h12c0.1,0,0.3-0.1,0.3-0.3c0.3-2.1,0.7-4.5,0.3-6.5c-0.8-4.5-3.6-7.3-8.4-8.3c-0.2,0-0.3,0-0.4,0.2l-0.7,2.3
		c0,0.2,0,0.3,0.2,0.3c4.8,1.6,7.4,4.5,6.5,9.6C288.8,367.1,288.7,367.1,288.6,367.1"/>
	<path vector-effect="non-scaling-stroke" class="st2" d="M264.8,367.1c-8.2,0.7-15-0.7-10.9-11c0.2-0.4,0-0.6-0.4-0.5l-2.1,0.5
		c-0.1,0-0.2,0.1-0.3,0.2c-1.3,3.1-2,7.3,0,10.1c3,4.2,11.6,3.2,16.1,3.2c0.1,0,0.2-0.1,0.2-0.2l1.6-11.5c0.1-0.4,0.4-0.7,0.8-0.6
		c0.9,0.1,2.1,0,2.9,0.5c2,1.2,1.6,3,1.3,5.5c-0.2,2-0.5,4-0.8,6.1c0,0.2,0.1,0.3,0.2,0.3h2.1c0.2,0,0.3-0.1,0.3-0.3
		c0.4-2.6,0.7-5.1,1-7.7c0.9-7.3-5-7.3-10.1-6c-0.2,0.1-0.4,0.2-0.4,0.4l-1.5,10.9C265,367,264.9,367.1,264.8,367.1"/>
	<path vector-effect="non-scaling-stroke" class="st2" d="M304.1,369.9c-1,5.1-6.5,5.2-10.5,4.1c-0.1,0-0.3,0-0.3,0.2c0,0,0,0,0,0.1
		v2.5c0,0.2,0.1,0.3,0.3,0.3c5.9,1.1,11.9-0.7,13.3-7.3c0-0.1,0.1-0.2,0.2-0.2h9.7c0.1,0,0.2-0.1,0.2-0.2l1.9-13.6
		c0-0.2-0.1-0.3-0.2-0.3l-2.1-0.1c-0.2,0-0.4,0.1-0.4,0.3l-1.6,11.2c0,0.2-0.1,0.2-0.3,0.2l-6.8-0.1c-0.1,0-0.2-0.1-0.2-0.2
		l1.5-11.1c0-0.2-0.1-0.4-0.3-0.4c0,0,0,0,0,0c-6-0.4-10.5-0.4-12.7,6.1c-0.5,1.5-0.4,4.3,0.5,5.7c1.8,2.8,4.7,2.4,7.6,2.5
		C304.1,369.6,304.2,369.7,304.1,369.9"/>
	<path vector-effect="non-scaling-stroke" class="st2" d="M161.4,355.7c-0.7,5.2-1.4,10-2.1,14.5c-0.4,2.4-1.6,3.8-3.7,4.3
		c-0.6,0.1-1.5,0-2.2,0c-0.2,0-0.3,0.2-0.3,0.3l-0.3,2.1c0,0.2,0,0.2,0.2,0.3c6.2,0.8,8.5-2.7,9.3-8c0.7-4.5,1.3-9,1.9-13.5
		c0-0.2-0.1-0.3-0.2-0.3l-2.3,0.1C161.4,355.5,161.4,355.6,161.4,355.7"/>
	<path vector-effect="non-scaling-stroke" class="st2" d="M256.9,375.6c0.8,0.5,1.9,0.3,2.5-0.6c0.6-0.9,0.5-2.1-0.2-2.6
		c0,0,0,0,0,0c-0.8-0.5-1.9-0.3-2.5,0.6C256.1,373.9,256.2,375.1,256.9,375.6C256.9,375.6,256.9,375.6,256.9,375.6"/>
	<path vector-effect="non-scaling-stroke" class="st2" d="M261.6,375.6c0.8,0.6,1.9,0.3,2.5-0.6c0.7-0.9,0.6-2.1-0.2-2.6
		s-1.9-0.3-2.5,0.6C260.8,373.9,260.9,375.1,261.6,375.6"/>
	<path vector-effect="non-scaling-stroke" class="st2" d="M312,375.5c0.8,0.5,1.8,0.2,2.4-0.7c0.6-0.9,0.4-2-0.4-2.5
		c-0.8-0.5-1.8-0.2-2.4,0.7C311.1,373.9,311.3,375.1,312,375.5"/>
	<path vector-effect="non-scaling-stroke" class="st1" d="M388.8,331.6c10.7-2.4,20.2-10.1,24.7-20.2c0.8-1.9,1.7-4.8,2.6-8.8
		c10-44.4,20-88.9,30-133.3c1.3-5.7,2-10.1,0.4-15C443.4,145,435,141,425.6,141c-97.3,0-194.6,0-291.9,0c-4.4,0-7.4,0.1-9.2,0.4
		c-13.4,2.1-25.6,13-28.6,26.4C85.6,214,75.2,260.1,64.8,306.2c-2.9,12.9,2.8,24.1,16.8,25.9c1.3,0.2,4.5,0.2,9.4,0.2
		c90,0,180,0,270,0c5.1,0,12.4,0.1,18.6,0.1C383.6,332.4,386.6,332.1,388.8,331.6"/>
	<path vector-effect="non-scaling-stroke" class="st2" d="M150.9,198.2c-1.2,0.6-2.4,0.8-3.8,0.6c-0.1,0-0.3-0.1-0.3-0.2
		c-0.5-0.9-0.8-1.8-0.8-2.8c0-0.2-0.1-0.3-0.2-0.4c-1.9-1-3.5-3.4-2.2-5.5c1.8-2.9,4.7-1.1,7.5-2c2.8-0.9,7.6-2.2,10.4-0.2
		c0.1,0.1,0.3,0.1,0.4,0.2c2,0.2,4,0.8,5.7,1.9c0.1,0.1,0.3,0,0.4-0.1c0,0,0,0,0,0c0.7-1.3,0.7-2.9,1.1-3.9c1.7-3.8,8.9-2,7,3.3
		c-0.1,0.3,0,0.6,0.2,1.2c0,0.1,0,0.2-0.1,0.3c-0.7,0.6-1.1,1.4-1.3,2.3c0,0.2-0.2,0.3-0.3,0.4c-0.7,0.3-1.3,0.1-1.8-0.5
		c-0.1-0.1-0.2-0.1-0.4-0.1c-1.5,0.9,1.7,4.4,2.5,5.3c0.7,0.7,0.9,1.6,0.6,2.8c0,0.1,0,0.3,0.1,0.4c1,0.7,1.6,1.6,2,2.8
		c0.1,0.3,0.3,0.4,0.6,0.3c0.1-0.1,0.3-0.1,0.4-0.1c2.3,0.6,3.6,1.5,6,0.2c0.1-0.1,0.2-0.2,0.2-0.4c-0.2-0.9,0-1.7,0.6-2.4
		c0.1-0.1,0.3-0.1,0.4-0.1c1,0.5,1.7,0.3,2.1-0.7c1.8-3.4,2.7-7.1,3-11.3c0.6-10.8-7.7-14.4-17-14.5c-12.5,0-24.9,0-37.4,0
		c-0.2,0-0.3,0.1-0.3,0.2L120.8,237c0,0.1,0,0.1,0.1,0.1c2.9,0.6,4.2-0.8,5.8-3.2c3-4.5,4.7-8.8,11.1-9.2c3.7-0.2,4-5.1,5.5-7.9
		c1.1-2,2.7-3.6,3.7-5.5c0.1-0.1,0.1-0.3,0-0.4c-0.8-2.3-0.3-4,1.5-5.7c2.3-2.3,7.4-7.9,6.6-11.4c0-0.2-0.1-0.2-0.3-0.3
		c-1.8-0.2-3.4-0.7-4.9-1.7c-0.1-0.1-0.3-0.1-0.4,0.1c-1.3,1.5,0.4,3.5,1.5,4.4c0.4,0.4,0.5,1,0.1,1.5
		C151.2,198,151.1,198.1,150.9,198.2"/>
	<path vector-effect="non-scaling-stroke" class="st2" d="M188.4,220.4c-2.2,16.7,6.3,25.5,22.5,26.9c19.6,1.7,36.1-4.5,45.5-22.4
		c8.9-17,15.1-46.3-13.4-49.6c-19.7-2.3-36.7,3.2-46.7,21.1C192.2,203.9,189.6,211.9,188.4,220.4"/>
	<path vector-effect="non-scaling-stroke" class="st2" d="M256.9,247.5c11,0,22.4,0.3,32.8-0.1c21.8-0.9,35.2-16.2,40.5-36
		c1.5-5.8,2.5-11,2-16.8c-1-14.2-12.9-19.6-25.7-19.6c-10.5,0-21.1,0-31.6,0c-0.2,0-0.2,0.1-0.3,0.2l-18.1,71.9
		C256.6,247.4,256.7,247.5,256.9,247.5C256.9,247.5,256.9,247.5,256.9,247.5"/>
	<path vector-effect="non-scaling-stroke" class="st2" d="M359.8,204.1l-8.7-28.9c0-0.1-0.1-0.2-0.3-0.2h-17.7
		c-0.2,0-0.3,0.1-0.2,0.3c4.6,14.9,9.1,29.8,13.7,44.7c0.3,1.1,0.7,1.9,0.4,3.1c-2.1,8-4.1,16.1-6.1,24.2c0,0.2,0,0.3,0.2,0.3h15.6
		c0.1,0,0.2-0.1,0.2-0.2c2.1-8,4.1-16,6.1-24.1c0.2-0.7,0.5-1.3,0.9-1.8c12.5-14.9,25-29.8,37.6-44.6c0.4-0.5,0.8-0.9,1.1-1.3
		c0.1-0.1,0.1-0.3,0-0.4c-0.1-0.1-0.1-0.1-0.2-0.1h-18.1c-0.1,0-0.2,0.1-0.3,0.1l-23.7,29C360.1,204.6,359.9,204.5,359.8,204.1"/>
	<path vector-effect="non-scaling-stroke" class="st2" d="M175.8,210.1c-0.2,0-0.3-0.1-0.4-0.3c-0.8-1.3-1.7-2.5-2.6-3.7
		c-1-1.2-1.5-2.5-2.3-3.8c-0.1-0.1-0.2-0.2-0.4-0.2c-1.5,0.2-3.1,1.4-4.3,2.2c-0.1,0.1-0.3,0.1-0.5,0.2c-3.2,0.2-5.7,1.6-7.3,4.4
		c-0.1,0.1-0.1,0.3,0.1,0.4c3.9,3.5,6.3,5,8,10c1,2.8-1.2,4.5-3.8,4.7c-4.1,0.3-7.3,0.5-9.5,0.6c-2.3,0.1-4.7,0.5-6.3,2.3
		c-1.5,1.7-4.1,3.5-4.2,5.9c0,0.4-0.4,0.8-0.9,0.8c-0.1,0-0.2,0-0.3-0.1c-1.1-0.5-1.7-1.4-1.8-2.6c0-0.1-0.1-0.2-0.3-0.2
		c0,0-0.1,0-0.1,0c-3.8,2.5-10.9,4.8-13.2,9.2c-1.2,2.3-2.8,5.6-2.7,8.2c0,0.2,0.1,0.3,0.3,0.3c10.2,0.1,20.5,0.1,30.7,0
		c11.4-0.2,22.8-5.4,28.6-15.6c3.9-7,6.5-16.8,1.9-24.2c-0.1-0.2-0.2-0.2-0.4-0.1C181.6,209.7,178.8,210.3,175.8,210.1"/>
	<path vector-effect="non-scaling-stroke" class="st2" d="M156,218.9c-1-0.7-1.9-1.4-2.7-2.3c-0.1-0.1-0.2-0.1-0.3,0
		c0,0,0,0-0.1,0.1c-0.7,1.9-1.8,3.5-3.2,5c-0.1,0.1-0.1,0.2,0,0.3c0.1,0.1,0.2,0.1,0.2,0L156,218.9C156,218.9,156,218.9,156,218.9
		C156,218.9,156,218.9,156,218.9"/>
	<path vector-effect="non-scaling-stroke" class="st2" d="M347.5,271.3c-0.4,14.2,21.6,5.1,21.7,10.4c0.1,4.8-2.2,7.3-7,7.4
		c-6.6,0.1-13.2,0.1-19.9,0.1c-0.2,0-0.2,0.1-0.2,0.2l2.4,7.8c0.1,0.4,0.5,0.7,1,0.7c12.9-0.2,28.1,2.2,33.1-13.6
		c1.9-6.1,0.2-12.4-7.1-13c-3.4-0.3-6.9-0.3-10.3-0.2c-1,0-3.3,0-3.5-1.4c-0.6-6.1,3.7-7.1,8.5-7.3c4.6-0.2,9.6-0.2,15,0
		c0.2,0,0.3-0.1,0.3-0.2l3.3-8.3c0.1-0.2,0-0.3-0.2-0.3c-5.8,0-11.7,0.1-17.5,0.2C356.8,254,347.8,260.3,347.5,271.3"/>
	<path vector-effect="non-scaling-stroke" class="st2" d="M147.8,275.3l-5.6,22.2c0,0.1,0,0.2,0.1,0.2c0,0,0,0,0,0h8.7
		c0.2,0,0.4-0.1,0.4-0.3l11-43.4c0-0.1,0-0.2-0.1-0.2c0,0,0,0,0,0h-9.5c-0.2,0-0.4,0.1-0.5,0.3l-19.7,28.7c-0.1,0.1-0.2,0.1-0.2,0
		c0,0-0.1-0.1-0.1-0.1l-5.4-28.7c0-0.1-0.1-0.2-0.2-0.2h-9.9c-0.2,0-0.3,0.1-0.3,0.2l-11,43.6c0,0.1,0,0.2,0.2,0.2l8.8,0.1
		c0.2,0,0.3-0.1,0.3-0.3c1.7-6.6,3.3-13.2,5-19.7c0.1-0.5,0.4-1.4,0.9-2.6c0-0.1,0.1-0.1,0.1,0l4.3,22.3c0,0.2,0.2,0.3,0.3,0.3
		l6.5,0.1c0.2,0,0.3-0.1,0.4-0.2l15.6-22.4C147.9,274.9,147.9,275,147.8,275.3"/>
	<path vector-effect="non-scaling-stroke" class="st2" d="M252.2,262.9c-2.7,11.2-5.4,22.5-8,33.7c-0.1,0.3-0.3,0.6-0.4,1
		c0,0.1,0,0.2,0.2,0.2h9.5c0.2,0,0.2-0.1,0.3-0.2l8.7-34.5c0.1-0.2,0.3-0.4,0.5-0.4h13.7c0.2,0,0.3-0.1,0.3-0.2l2.2-8.4
		c0-0.1,0-0.2-0.1-0.2c0,0,0,0,0,0c-17.9,0-35.9,0-53.8,0c-11.6,0-21.9,5.5-21.8,18.5c0.1,9.3,13.6,7.6,19.3,7.6
		c1.8,0,2.7,1.1,2.5,2.8c-0.6,5.3-4,6.3-8.7,6.3c-6,0-12,0-18.2,0c-0.4,0-0.6,0.2-0.7,0.6l-1.6,7.8c0,0.1,0.1,0.3,0.2,0.3
		c0,0,0,0,0,0c6.3,0.1,12.6,0.2,18.9,0.1c10-0.2,17.5-5,19.7-14.9c3.2-14.1-11.5-11.2-19.3-11.8c-1.3-0.1-2-0.8-2-2.2
		c0.2-5.9,4.9-6.2,9.5-6.2c9.7,0,19.3,0,28.9,0C252.1,262.6,252.2,262.7,252.2,262.9C252.2,262.8,252.2,262.8,252.2,262.9"/>
	<path vector-effect="non-scaling-stroke" class="st2" d="M283.3,289c-0.1,0-0.2-0.1-0.2-0.2c0,0,0,0,0,0l2.2-8.7
		c0-0.1,0.1-0.1,0.2-0.1l19.4-0.1c0.1,0,0.2-0.1,0.2-0.1l2.1-8.3c0-0.1,0-0.2-0.1-0.2c0,0,0,0,0,0h-19.2c-0.1,0-0.2-0.1-0.2-0.2
		c0,0,0,0,0,0l2-8.1c0-0.1,0.1-0.1,0.2-0.1l20.4,0c0.1,0,0.2-0.1,0.2-0.1l2.1-8.4c0-0.1,0-0.2-0.1-0.2c0,0,0,0,0,0h-30.1
		c-0.1,0-0.2,0.1-0.2,0.1L271,297.6c0,0.1,0,0.2,0.1,0.2c0,0,0,0,0,0l30.5,0c0.1,0,0.2-0.1,0.2-0.1l2.3-8.4c0-0.1,0-0.2-0.1-0.2
		c0,0,0,0-0.1,0L283.3,289"/>
	<path vector-effect="non-scaling-stroke" class="st2" d="M188,279.8c0.2,0,0.3,0.1,0.2,0.3l-4.4,17.4c0,0.1,0,0.2,0.2,0.2h8.7
		c0.2,0,0.3-0.1,0.3-0.2c4-16,6.8-27,8.2-33c1.8-7.6-3-10.6-9.7-10.7c-8.1-0.1-13.2,0-15.2,0c-5.3,0.2-9.3,2.5-11.9,6.8
		c-0.7,1.1-1.3,2.8-1.8,4.9c-2.7,10.6-5.3,21.3-8,31.9c0,0.2,0,0.2,0.2,0.2h8.8c0.1,0,0.2-0.1,0.2-0.2l4.3-17.5
		c0-0.2,0.2-0.3,0.4-0.3L188,279.8"/>
	<path vector-effect="non-scaling-stroke" class="st2" d="M326.3,280.4l5.6,17.1c0.1,0.3,0.4,0.6,0.8,0.6l8.8,0
		c0.2,0,0.3-0.1,0.2-0.3l-6.2-19.1c-0.1-0.2,0-0.4,0.3-0.5c6.9-2.4,10.9-9.2,11.1-16.3c0.1-5-4.1-7.8-8.7-7.9
		c-3.2-0.1-10.6-0.1-22.2,0c-0.1,0-0.2,0.1-0.3,0.2l-11,43.6c0,0.2,0,0.2,0.2,0.2h9.2c0.1,0,0.2-0.1,0.2-0.2l4.4-17.6
		c0-0.2,0.1-0.2,0.3-0.2h6.9C326.1,280.1,326.2,280.2,326.3,280.4"/>
	<path vector-effect="non-scaling-stroke" class="st2" d="M205,222.6c0.5,11.7,16.6,11.3,24,9c4.4-1.3,7.7-3.5,10.1-6.7
		c4.9-6.6,13-26,4.1-32.6c-4.2-3.1-12.4-3.2-17.4-2.3c-10,1.9-14.5,8.3-18,17.2C205.9,212.2,204.7,217.5,205,222.6"/>
	<path vector-effect="non-scaling-stroke" class="st2" d="M309.1,222.7c4.5-7.5,12.7-28.5-1.2-32c-6.4-1.6-13.7-1.2-20.3-1.1
		c-0.1,0-0.2,0.1-0.3,0.2l-10.9,43.1c0,0.1,0,0.3,0.2,0.3c0,0,0,0,0.1,0C288.7,232.8,301.7,234.9,309.1,222.7"/>
	<path vector-effect="non-scaling-stroke" class="st2" d="M190.2,271c0.8-2.6,3.3-9.5-0.7-9.5c-3.9-0.1-7.8-0.1-11.7,0
		c-5.6,0.1-6.9,4.8-7.6,9.5c0,0.1,0,0.2,0.2,0.2h19.5C190,271.2,190.1,271.1,190.2,271"/>
	<path vector-effect="non-scaling-stroke" class="st2" d="M321.3,271.5c2,0,3.9,0,5.7-0.1c5.1-0.1,9.4-0.1,9.9-6.1
		c0.2-2-0.6-2.8-2.6-2.8c-3.6-0.1-7.2-0.1-10.8,0c-0.2,0-0.4,0.1-0.4,0.3l-2,8.3C321,271.4,321,271.5,321.3,271.5"/>
	<path vector-effect="non-scaling-stroke" class="st2" d="M231,358.9c-2.9,4.4-1.1,9.5,5.1,8.1c0.1,0,0.2-0.1,0.2-0.2
		c0.3-2.1,1.3-6.4,0.2-8.2C235.3,356.7,232.2,357.1,231,358.9"/>
	<path vector-effect="non-scaling-stroke" class="st2" d="M305.7,357.5c-8.4-2.1-10.2,11.6-1.4,9.5c0.2,0,0.3-0.1,0.3-0.3l1.3-8.9
		C305.9,357.7,305.8,357.6,305.7,357.5"/>
	<path class="st3" d="M379.5,338.1c-98.2,0-193-0.1-294.8,0c-16.9,0-29.4-13.8-25.8-30.9c1-4.8,2.1-9.6,3.1-14.3
		c9.5-42.2,19-84.3,28.5-126.5c4.1-18.2,21.7-31,40.1-31c98,0,196,0,294,0c6.2,0,12,0.9,17.3,4.3c9,5.7,12.6,16,10.8,26.4
		c-0.3,1.8-1.1,5.4-2.3,10.8c-9.7,43.2-19.5,86.4-29.2,129.6c-3.5,15.7-17.3,28.7-33.3,31.3C386,337.9,383.2,338.1,379.5,338.1z
		 M388.8,331.6c10.7-2.4,20.2-10.1,24.7-20.2c0.8-1.9,1.7-4.8,2.6-8.8c10-44.4,20-88.9,30-133.3c1.3-5.7,2-10.1,0.4-15
		C443.4,145,435,141,425.6,141c-97.3,0-194.6,0-291.9,0c-4.4,0-7.4,0.1-9.2,0.4c-13.4,2.1-25.6,13-28.6,26.4
		C85.6,214,75.2,260.1,64.8,306.2c-2.9,12.9,2.8,24.1,16.8,25.9c1.3,0.2,4.5,0.2,9.4,0.2c90,0,180,0,270,0c5.1,0,12.4,0.1,18.6,0.1
		C383.6,332.4,386.6,332.1,388.8,331.6z"/>
	<path class="st4" d="M150.9,198.2c0.5-0.2,0.7-0.9,0.5-1.4c-0.1-0.1-0.2-0.3-0.3-0.4c-1.2-1-2.8-3-1.5-4.4c0.1-0.1,0.3-0.1,0.4-0.1
		c1.5,1,3.1,1.5,4.9,1.7c0.2,0,0.3,0.1,0.3,0.3c0.7,3.4-4.3,9.1-6.6,11.4c-1.8,1.7-2.3,3.4-1.5,5.7c0.1,0.2,0,0.3,0,0.4
		c-1,1.9-2.7,3.5-3.7,5.5c-1.5,2.7-1.8,7.7-5.5,7.9c-6.4,0.3-8.1,4.6-11.1,9.2c-1.6,2.4-2.9,3.7-5.8,3.2c-0.1,0-0.1-0.1-0.1-0.1
		l15.5-61.6c0-0.2,0.1-0.2,0.3-0.2c12.5,0,25,0,37.4,0c9.3,0,17.6,3.6,17,14.5c-0.2,4.1-1.2,7.9-3,11.3c-0.5,0.9-1.2,1.1-2.1,0.7
		c-0.1-0.1-0.3,0-0.4,0.1c-0.6,0.7-0.8,1.4-0.6,2.4c0,0.2,0,0.3-0.2,0.4c-2.3,1.3-3.7,0.4-6-0.2c-0.2,0-0.3,0-0.4,0.1
		c-0.3,0.2-0.5,0.1-0.6-0.3c-0.4-1.1-1-2.1-2-2.8c-0.1-0.1-0.2-0.2-0.1-0.4c0.3-1.2,0.1-2.1-0.6-2.8c-0.9-0.9-4-4.4-2.5-5.3
		c0.1-0.1,0.3,0,0.4,0.1c0.5,0.6,1.1,0.8,1.8,0.5c0.2-0.1,0.3-0.2,0.3-0.4c0.2-0.9,0.6-1.7,1.3-2.3c0.1-0.1,0.1-0.2,0.1-0.3
		c-0.2-0.5-0.3-0.9-0.2-1.2c1.8-5.3-5.3-7.1-7-3.3c-0.4,1-0.4,2.6-1.1,3.9c-0.1,0.1-0.2,0.2-0.4,0.1c0,0,0,0,0,0
		c-1.8-1-3.7-1.6-5.7-1.9c-0.2,0-0.3-0.1-0.4-0.2c-2.8-2-7.6-0.7-10.4,0.2c-2.8,0.9-5.8-0.9-7.5,2c-1.3,2.1,0.3,4.4,2.2,5.5
		c0.1,0.1,0.2,0.2,0.2,0.4c0,1,0.2,2,0.8,2.8c0.1,0.1,0.2,0.2,0.3,0.2C148.5,198.9,149.7,198.7,150.9,198.2z"/>
	<path class="st4" d="M211,247.4c-16.2-1.4-24.7-10.2-22.5-26.9c1.1-8.5,3.8-16.5,7.9-24c9.9-17.9,27-23.3,46.7-21.1
		c28.5,3.3,22.3,32.6,13.4,49.6C247.1,242.9,230.5,249.1,211,247.4z M205,222.6c0.5,11.7,16.6,11.3,24,9c4.4-1.3,7.7-3.5,10.1-6.7
		c4.9-6.6,13-26,4.1-32.6c-4.2-3.1-12.4-3.2-17.4-2.3c-10,1.9-14.5,8.3-18,17.2C205.9,212.2,204.7,217.5,205,222.6z"/>
	<path class="st4" d="M289.8,247.5c-10.5,0.4-21.9,0-32.8,0.1c-0.2,0-0.3-0.1-0.3-0.3c0,0,0,0,0-0.1l18.1-71.9
		c0-0.1,0.1-0.2,0.3-0.2c10.5,0,21,0,31.6,0c12.7,0,24.6,5.4,25.7,19.6c0.4,5.7-0.5,10.9-2,16.8C325,231.3,311.5,246.6,289.8,247.5z
		 M309.1,222.7c4.5-7.5,12.7-28.5-1.2-32c-6.4-1.6-13.7-1.2-20.3-1.1c-0.1,0-0.2,0.1-0.3,0.2l-10.9,43.1c0,0.1,0,0.3,0.2,0.3
		c0,0,0,0,0.1,0C288.7,232.8,301.7,234.9,309.1,222.7z"/>
	<path class="st4" d="M359.8,204.1c0.1,0.4,0.3,0.5,0.6,0.1l23.7-29c0.1-0.1,0.2-0.1,0.3-0.1h18.1c0.2,0,0.3,0.1,0.3,0.3
		c0,0.1,0,0.2-0.1,0.2c-0.4,0.4-0.7,0.8-1.1,1.3c-12.6,14.8-25.1,29.7-37.6,44.6c-0.4,0.5-0.7,1.1-0.9,1.8c-2,8.1-4,16.1-6.1,24.1
		c0,0.1-0.1,0.2-0.2,0.2h-15.6c-0.2,0-0.3-0.1-0.2-0.3c2-8.1,4-16.2,6.1-24.2c0.3-1.1-0.1-2-0.4-3.1c-4.6-14.9-9.1-29.8-13.7-44.7
		c-0.1-0.2,0-0.3,0.2-0.3h17.7c0.2,0,0.3,0.1,0.3,0.2L359.8,204.1z"/>
	<path class="st4" d="M175.8,210.1c3,0.2,5.8-0.4,8.4-1.8c0.2-0.1,0.3-0.1,0.4,0.1c4.6,7.4,2,17.3-1.9,24.2
		c-5.7,10.2-17.1,15.4-28.6,15.6c-10.3,0.2-20.5,0.2-30.7,0c-0.2,0-0.3-0.1-0.3-0.3c-0.1-2.6,1.5-5.9,2.7-8.2
		c2.3-4.4,9.3-6.6,13.2-9.2c0.1-0.1,0.3,0,0.3,0.1c0,0,0,0.1,0,0.1c0.1,1.2,0.6,2.1,1.8,2.6c0.4,0.2,0.9,0,1.1-0.4
		c0-0.1,0.1-0.2,0.1-0.3c0.1-2.4,2.6-4.2,4.2-5.9c1.6-1.8,4.1-2.2,6.3-2.3c2.2-0.1,5.4-0.3,9.5-0.6c2.6-0.2,4.8-1.9,3.8-4.7
		c-1.8-5-4.1-6.5-8-10c-0.1-0.1-0.1-0.2-0.1-0.4c1.7-2.7,4.1-4.2,7.3-4.4c0.2,0,0.3-0.1,0.5-0.2c1.3-0.9,2.8-2.1,4.3-2.2
		c0.2,0,0.3,0,0.4,0.2c0.7,1.3,1.3,2.6,2.3,3.8c0.9,1.1,1.8,2.3,2.6,3.7C175.5,210,175.6,210.1,175.8,210.1z"/>
	<path class="st4" d="M156,218.9C156,218.9,156,218.9,156,218.9C156,218.9,156,218.9,156,218.9l-6,3.1c-0.1,0.1-0.2,0-0.3-0.1
		c0-0.1,0-0.2,0-0.2c1.4-1.4,2.5-3.1,3.2-5c0-0.1,0.2-0.2,0.3-0.1c0,0,0.1,0,0.1,0.1C154,217.5,154.9,218.3,156,218.9z"/>
	<path class="st4" d="M369.2,281.7c-0.1-5.3-22.1,3.8-21.7-10.4c0.3-11,9.3-17.3,19.6-17.4c5.8-0.1,11.7-0.1,17.5-0.2
		c0.2,0,0.2,0.1,0.2,0.3l-3.3,8.3c-0.1,0.1-0.2,0.2-0.3,0.2c-5.4-0.2-10.4-0.1-15,0c-4.8,0.2-9.2,1.2-8.5,7.3
		c0.1,1.4,2.5,1.4,3.5,1.4c3.4-0.1,6.9,0,10.3,0.2c7.3,0.6,9.1,6.8,7.1,13c-5,15.8-20.2,13.4-33.1,13.6c-0.4,0-0.8-0.3-1-0.7
		l-2.4-7.8c0-0.2,0-0.2,0.2-0.2c6.6,0.1,13.2,0.1,19.9-0.1C367,289,369.3,286.5,369.2,281.7z"/>
	<path class="st4" d="M147.6,275.3l-15.6,22.4c-0.1,0.1-0.2,0.2-0.4,0.2l-6.5-0.1c-0.2,0-0.3-0.1-0.3-0.3l-4.3-22.3
		c0-0.1-0.1-0.1-0.1,0c-0.5,1.3-0.8,2.1-0.9,2.6c-1.6,6.6-3.3,13.2-5,19.7c0,0.2-0.2,0.3-0.3,0.3l-8.8-0.1c-0.1,0-0.2-0.1-0.2-0.2
		l11-43.6c0-0.2,0.1-0.2,0.3-0.2h9.9c0.1,0,0.2,0.1,0.2,0.2l5.4,28.7c0,0.1,0.1,0.1,0.2,0.1c0,0,0.1,0,0.1-0.1l19.7-28.7
		c0.1-0.2,0.3-0.3,0.5-0.3h9.5c0.1,0,0.2,0.1,0.2,0.2c0,0,0,0,0,0l-11,43.4c-0.1,0.2-0.2,0.3-0.4,0.3h-8.7c-0.1,0-0.2-0.1-0.2-0.2
		c0,0,0,0,0,0l5.6-22.2C147.9,275,147.9,274.9,147.6,275.3z"/>
	<path class="st4" d="M252.2,262.9c0-0.1,0-0.2-0.2-0.3c0,0,0,0-0.1,0c-9.6,0-19.3,0-28.9,0c-4.6,0-9.4,0.3-9.5,6.2
		c0,1.4,0.6,2.1,2,2.2c7.8,0.5,22.5-2.3,19.3,11.8c-2.3,10-9.7,14.8-19.7,14.9c-6.3,0.1-12.6,0.1-18.9-0.1c-0.1,0-0.2-0.1-0.2-0.2
		c0,0,0,0,0,0l1.6-7.8c0.1-0.4,0.3-0.6,0.7-0.6c6.2,0,12.2,0,18.2,0c4.7,0,8.1-1,8.7-6.3c0.2-1.8-0.7-2.8-2.5-2.8
		c-5.7-0.1-19.2,1.7-19.3-7.6c-0.1-12.9,10.3-18.4,21.8-18.5c17.9,0,35.9,0,53.8,0c0.1,0,0.2,0.1,0.2,0.2c0,0,0,0,0,0l-2.2,8.4
		c0,0.2-0.1,0.2-0.3,0.2H263c-0.2,0-0.5,0.2-0.5,0.4l-8.7,34.5c0,0.1-0.1,0.2-0.3,0.2H244c-0.1,0-0.2-0.1-0.2-0.2
		c0.1-0.3,0.3-0.7,0.4-1C246.8,285.3,249.5,274.1,252.2,262.9z"/>
	<path class="st4" d="M283.3,289l20.7,0c0.1,0,0.2,0.1,0.2,0.2c0,0,0,0,0,0.1l-2.3,8.4c0,0.1-0.1,0.1-0.2,0.1l-30.5,0
		c-0.1,0-0.2-0.1-0.2-0.2c0,0,0,0,0,0l11.1-43.7c0-0.1,0.1-0.1,0.2-0.1h30.1c0.1,0,0.2,0.1,0.2,0.2c0,0,0,0,0,0l-2.1,8.4
		c0,0.1-0.1,0.1-0.2,0.1l-20.4,0c-0.1,0-0.2,0.1-0.2,0.1l-2,8.1c0,0.1,0,0.2,0.1,0.2c0,0,0,0,0,0H307c0.1,0,0.2,0.1,0.2,0.2
		c0,0,0,0,0,0l-2.1,8.3c0,0.1-0.1,0.1-0.2,0.1l-19.4,0.1c-0.1,0-0.2,0.1-0.2,0.1l-2.2,8.7C283,288.9,283.1,289,283.3,289
		C283.2,289,283.2,289,283.3,289z"/>
	<path class="st4" d="M188,279.8l-19.5-0.1c-0.2,0-0.3,0.1-0.4,0.3l-4.3,17.5c0,0.1-0.1,0.2-0.2,0.2h-8.8c-0.2,0-0.2-0.1-0.2-0.2
		c2.7-10.6,5.4-21.3,8-31.9c0.5-2.1,1.1-3.7,1.8-4.9c2.6-4.3,6.6-6.6,11.9-6.8c2-0.1,7.1-0.1,15.2,0c6.7,0.1,11.5,3.1,9.7,10.7
		c-1.4,6-4.2,17-8.2,33c0,0.2-0.1,0.2-0.3,0.2H184c-0.2,0-0.2-0.1-0.2-0.2l4.4-17.4C188.2,279.9,188.2,279.8,188,279.8z M190.2,271
		c0.8-2.6,3.3-9.5-0.7-9.5c-3.9-0.1-7.8-0.1-11.7,0c-5.6,0.1-6.9,4.8-7.6,9.5c0,0.1,0,0.2,0.2,0.2h19.5
		C190,271.2,190.1,271.1,190.2,271z"/>
	<path class="st4" d="M325.9,280.1H319c-0.2,0-0.3,0.1-0.3,0.2l-4.4,17.6c0,0.1-0.1,0.2-0.2,0.2h-9.2c-0.2,0-0.2-0.1-0.2-0.2
		l11-43.6c0-0.1,0.1-0.2,0.3-0.2c11.6-0.1,19-0.1,22.2,0c4.6,0.1,8.8,2.9,8.7,7.9c-0.2,7.1-4.2,13.9-11.1,16.3
		c-0.2,0.1-0.3,0.3-0.3,0.5l6.2,19.1c0.1,0.2,0,0.3-0.2,0.3l-8.8,0c-0.4,0-0.7-0.2-0.8-0.6l-5.6-17.1
		C326.2,280.2,326.1,280.1,325.9,280.1z M321.3,271.5c2,0,3.9,0,5.7-0.1c5.1-0.1,9.4-0.1,9.9-6.1c0.2-2-0.6-2.8-2.6-2.8
		c-3.6-0.1-7.2-0.1-10.8,0c-0.2,0-0.4,0.1-0.4,0.3l-2,8.3C321,271.4,321,271.5,321.3,271.5z"/>
	<path class="st4" d="M219.3,366.6c-0.1,0.4,0.1,0.5,0.5,0.6c5.7,0,6.1,0,7.4-5.5c1.1-4.6,4-6.8,8.6-6.6c6.4,0.3,3.7,10.6,3.1,14.2
		c0,0.2-0.1,0.3-0.3,0.3c-3.6,0.1-8.8,0.9-11-2.5c-0.1-0.1-0.2-0.1-0.3-0.1c0,0-0.1,0-0.1,0.1c-2.2,3.5-7.2,2.6-10.7,2.5
		c-0.2,0-0.3-0.1-0.3-0.3l2.8-19.7c0-0.1-0.1-0.3-0.2-0.3l-2-0.3c-0.1,0-0.2-0.1-0.2-0.2c-0.3-1,0.1-1.5,1-1.5c0.8,0,2.2-0.1,4.4,0
		c0.1,0,0.2,0.1,0.2,0.2L219.3,366.6z M231,358.9c-2.9,4.4-1.1,9.5,5.1,8.1c0.1,0,0.2-0.1,0.2-0.2c0.3-2.1,1.3-6.4,0.2-8.2
		C235.3,356.7,232.2,357.1,231,358.9z"/>
	<ellipse transform="matrix(0.599 -0.8007 0.8007 0.599 -207.9163 286.7014)" class="st4" cx="182.3" cy="351" rx="2" ry="1.7"/>
	<ellipse transform="matrix(0.6547 -0.7559 0.7559 0.6547 -200.7065 262.5345)" class="st4" cx="187" cy="351" rx="2" ry="1.7"/>
	
		<ellipse transform="matrix(0.6807 -0.7325 0.7325 0.6807 -205.0262 231.753)" class="st4" cx="163.3" cy="351.1" rx="1.9" ry="1.6"/>
	<path class="st4" d="M200.8,367.5c-0.7,0.5-1.3,1.2-1.9,1.6c-2.2,1.3-5.4,1.2-6.6-1.4c0-0.1-0.2-0.2-0.3-0.1c0,0,0,0,0,0
		c-1.2,0.9-2.4,2-4,2c-5,0-10,0-15,0c-0.2,0-0.3,0.1-0.3,0.2c-1.3,5.2-3.4,8.1-9.3,7.4c-0.2,0-0.3-0.1-0.3-0.4l0.5-2.1
		c0-0.2,0.2-0.3,0.3-0.2c4.7,0.7,5.5-2.2,6.1-6.2c0.6-4.2,1.2-8.3,1.7-12.5c0-0.2,0.2-0.3,0.4-0.3l2.3-0.1c0.2,0,0.2,0.1,0.2,0.2
		l-1.6,11.1c0,0.2,0.1,0.4,0.3,0.4c0,0,0,0,0,0h7.3c0.1,0,0.2-0.1,0.2-0.2l1.6-11.3c0-0.1,0.1-0.2,0.3-0.2l2.3,0
		c0.2,0,0.3,0.1,0.2,0.3l-1.6,11.3c0,0.1,0.1,0.2,0.2,0.2c0,0,0,0,0,0c1.2,0,2.3,0,3.5,0c4,0.1,4.4-3.6,4.9-6.8
		c0.2-1.6,0.5-3.1,0.7-4.7c0-0.2,0.2-0.3,0.3-0.3l2.3,0.2c0.1,0,0.2,0.1,0.2,0.2c-0.4,2.2-0.7,4.5-1,6.7c-0.2,2-0.8,4.5,1.6,4.9
		c2.5,0.4,3.7-2.2,4.1-4.2c0.4-2.5,0.8-5,1.2-7.5c0-0.1,0.1-0.2,0.2-0.2l2.2,0.1c0.1,0,0.2,0.1,0.2,0.2c-0.5,3.1-0.9,6.1-1.3,9.2
		c-0.3,2.6,3.4,2.3,4.9,2.2c0.2,0,0.3-0.1,0.3-0.3c0.7-4.1,1.1-8.2,1.2-12.3c0-0.1,0.1-0.2,0.2-0.2l2.3-0.4c0.4-0.1,0.6,0.1,0.5,0.5
		l-1.7,14.8c0,0.2-0.1,0.2-0.3,0.2c-2.6,0-8.2,1-9.4-1.9C201,367.4,200.9,367.4,200.8,367.5z"/>
	<path class="st4" d="M288.8,366.9c0.9-5.2-1.7-8.1-6.5-9.6c-0.2,0-0.2-0.2-0.2-0.3l0.7-2.3c0.1-0.2,0.2-0.2,0.4-0.2
		c4.8,1,7.6,3.8,8.4,8.3c0.4,2-0.1,4.4-0.3,6.5c0,0.1-0.1,0.3-0.3,0.3h-12c-0.2,0-0.3-0.1-0.3-0.3l0.1-1.8c0-0.2,0.1-0.3,0.3-0.3
		l9.3-0.1C288.7,367.1,288.8,367.1,288.8,366.9z"/>
	<path class="st4" d="M265,366.9l1.5-10.9c0-0.2,0.2-0.4,0.4-0.4c5-1.2,11-1.2,10.1,6c-0.3,2.6-0.7,5.1-1,7.7c0,0.2-0.1,0.3-0.3,0.3
		h-2.1c-0.2,0-0.3-0.1-0.2-0.3c0.3-2,0.5-4.1,0.8-6.1c0.3-2.5,0.7-4.3-1.3-5.5c-0.8-0.5-2-0.4-2.9-0.5c-0.4,0-0.7,0.2-0.8,0.6
		l-1.6,11.5c0,0.1-0.1,0.2-0.2,0.2c-4.5,0-13.1,1-16.1-3.2c-2-2.8-1.3-7,0-10.1c0.1-0.1,0.2-0.2,0.3-0.2l2.1-0.5
		c0.5-0.1,0.6,0.1,0.4,0.5c-4.1,10.3,2.7,11.8,10.9,11C264.9,367.1,265,367,265,366.9z"/>
	<path class="st4" d="M303.9,369.6c-2.9-0.2-5.8,0.3-7.6-2.5c-0.9-1.4-1-4.2-0.5-5.7c2.2-6.5,6.8-6.5,12.7-6.1
		c0.2,0,0.4,0.2,0.3,0.4c0,0,0,0,0,0l-1.5,11.1c0,0.1,0,0.2,0.2,0.2l6.8,0.1c0.2,0,0.3-0.1,0.3-0.2l1.6-11.2c0-0.2,0.2-0.3,0.4-0.3
		l2.1,0.1c0.2,0,0.3,0.1,0.2,0.3l-1.9,13.6c0,0.1-0.1,0.2-0.2,0.2h-9.7c-0.1,0-0.2,0.1-0.2,0.2c-1.4,6.6-7.4,8.3-13.3,7.3
		c-0.1,0-0.3-0.2-0.3-0.3v-2.5c0-0.1,0.1-0.2,0.2-0.2c0,0,0,0,0.1,0c4.1,1.1,9.6,1,10.5-4.1C304.2,369.7,304.1,369.6,303.9,369.6z
		 M305.7,357.5c-8.4-2.1-10.2,11.6-1.4,9.5c0.2,0,0.3-0.1,0.3-0.3l1.3-8.9C305.9,357.7,305.8,357.6,305.7,357.5z"/>
	<path class="st4" d="M161.4,355.7c0-0.1,0.1-0.1,0.2-0.1l2.3-0.1c0.2,0,0.3,0.1,0.2,0.3c-0.6,4.5-1.2,9-1.9,13.5
		c-0.8,5.4-3.1,8.8-9.3,8c-0.2,0-0.2-0.1-0.2-0.3l0.3-2.1c0-0.2,0.2-0.3,0.3-0.3c0.7-0.1,1.6,0.1,2.2,0c2.1-0.4,3.4-1.8,3.7-4.3
		C160,365.7,160.7,360.8,161.4,355.7z"/>
	<ellipse transform="matrix(0.5821 -0.8131 0.8131 0.5821 -196.2559 366.1489)" class="st4" cx="258.1" cy="374" rx="2" ry="1.7"/>
	<ellipse transform="matrix(0.5948 -0.8039 0.8039 0.5948 -194.1845 362.7943)" class="st4" cx="262.8" cy="374" rx="2" ry="1.7"/>
	
		<ellipse transform="matrix(0.5344 -0.8453 0.8453 0.5344 -170.3039 438.7322)" class="st4" cx="313.1" cy="373.9" rx="1.9" ry="1.6"/>
</g>
</svg>
