<svg width="131" height="76" viewBox="0 0 131 76" fill="none" xmlns="http://www.w3.org/2000/svg">
<path d="M128.467 22.8129C128.208 22.3678 127.888 21.9524 127.509 21.5567C127.469 21.5073 127.419 21.4578 127.369 21.4182C127.349 21.3985 127.319 21.3688 127.299 21.349C127.26 21.3094 127.23 21.2699 127.19 21.2303C127.16 21.1907 127.12 21.1512 127.08 21.1215C127.05 21.0918 127.02 21.0522 126.99 21.0226C126.95 20.983 126.92 20.9434 126.88 20.9039C126.84 20.8643 126.81 20.8247 126.77 20.7951C126.741 20.7654 126.711 20.7258 126.681 20.6962C126.641 20.6566 126.601 20.617 126.571 20.5775C126.531 20.528 126.481 20.4884 126.441 20.439C126.421 20.4192 126.391 20.3895 126.371 20.3697C126.331 20.3302 126.301 20.2906 126.261 20.251C126.221 20.2115 126.192 20.1719 126.152 20.1422C126.122 20.1126 126.092 20.073 126.062 20.0433C125.014 18.8959 123.526 18.0156 121.81 17.5507C119.793 16.9967 117.577 17.0363 115.531 17.6496C115.371 16.0373 114.842 14.514 113.994 13.3764C113.834 13.1489 113.655 12.9412 113.465 12.7335C113.425 12.684 113.375 12.6445 113.335 12.595C113.315 12.5752 113.285 12.5456 113.265 12.5258C113.225 12.4862 113.195 12.4467 113.155 12.4071C113.125 12.3675 113.086 12.3378 113.056 12.2983C113.026 12.2686 112.996 12.229 112.956 12.1994C112.916 12.1598 112.886 12.1202 112.846 12.0807C112.816 12.0411 112.776 12.0114 112.746 11.9719C112.716 11.9422 112.686 11.9026 112.646 11.8729C112.606 11.8334 112.576 11.7938 112.537 11.7542C112.497 11.7048 112.447 11.6652 112.407 11.6158C112.387 11.5861 112.357 11.5663 112.337 11.5465C112.297 11.507 112.267 11.4674 112.227 11.4278C112.197 11.3883 112.157 11.3586 112.127 11.319C112.097 11.2893 112.067 11.2498 112.027 11.2201C110.87 9.92432 109.133 9.04398 107.047 8.70767C106.268 8.58897 105.41 8.57908 104.531 8.61864C106.518 6.71947 109.173 5.0577 112.437 3.71246L116.09 2.20896L115.771 2.18917L115.99 2.10015L115.661 2.08036L115.88 1.99134L115.551 1.97156L115.781 1.87264L115.451 1.85286L115.671 1.76383L115.351 1.74406L115.571 1.65503L115.232 1.63525L115.461 1.53633L115.142 1.51655L115.361 1.42753L115.032 1.40774L115.252 1.31872L114.922 1.29893L115.152 1.20002L114.832 1.18024L115.052 1.09121L114.723 1.07143L114.942 0.982406L114.603 0.962626L114.832 0.863713L114.513 0.843926L114.733 0.754906L114.403 0.735118L114.623 0.646099L114.293 0.626311L114.523 0.527398L110.54 0.319678C110.371 0.319678 106.348 0.121848 101.327 1.8034C96.8653 3.28713 93.0722 5.73032 90.0378 9.06376C89.5387 8.67799 89.0296 8.34168 88.4906 8.04493C86.4144 6.86784 83.919 6.34359 81.2838 6.52164C80.0561 6.60077 78.7784 6.84806 77.4609 7.28329C76.2131 7.69873 75.0652 8.22298 74.0471 8.84615C73.009 9.4792 72.0208 10.231 71.1125 11.0915C70.284 11.9026 69.5254 12.8225 68.8566 13.8117L68.3476 14.5634L67.7187 13.9304C65.8821 12.0609 63.5863 10.686 61.1108 9.95399C58.4357 9.133 55.5311 8.99452 52.9458 9.54844C52.3768 9.66714 51.8179 9.81551 51.2589 10.0035C50.5202 10.2507 49.8016 10.5574 49.1028 10.9135C47.9849 11.4872 46.9069 12.2785 45.9087 13.2578C45.0203 14.1381 44.2418 15.1569 43.6029 16.2845C43.3035 16.8088 43.034 17.3726 42.7844 17.9562C42.5449 18.5299 42.3452 19.1432 42.2255 19.6674L42.0358 20.4884L41.1973 20.0928C39.2309 19.0838 37.1448 18.3914 34.9887 18.0255C33.761 17.8375 32.653 17.7584 31.5949 17.7683C30.6567 17.7881 29.4189 17.8573 28.1912 18.1441C27.6422 18.2727 27.1032 18.4211 26.6241 18.5794C26.0351 18.7772 25.4861 19.0047 24.9671 19.2619C23.909 19.8059 23.0007 20.439 22.272 21.1413C20.8047 22.5558 19.7866 24.4154 19.3374 26.542C17.6705 26.2849 16.0135 26.2156 14.3965 26.3442C12.9292 26.4629 11.4319 26.7794 9.95461 27.2641C9.80489 27.3136 9.65516 27.363 9.51542 27.4125C6.28135 28.5599 3.53638 30.6371 1.98922 33.1001C1.16074 34.4255 0.681615 35.8104 0.571816 37.2051C0.452036 38.5305 0.681614 39.9351 1.26055 41.3991C1.78958 42.6948 2.58812 43.9115 3.62622 45.0094C3.66614 45.049 3.70607 45.0886 3.73602 45.1281C3.76596 45.1677 3.80589 45.1974 3.83583 45.237C3.86578 45.2666 3.89572 45.3062 3.92567 45.3359C3.97557 45.3853 4.02548 45.4447 4.07539 45.4941C4.09536 45.5139 4.1253 45.5337 4.14527 45.5634C4.17521 45.593 4.20516 45.6326 4.24508 45.6623C4.28501 45.7019 4.32493 45.7414 4.35488 45.781C4.38482 45.8206 4.42475 45.8502 4.4547 45.8898C4.48464 45.9195 4.51459 45.959 4.54453 45.9887C4.58446 46.0283 4.6144 46.0678 4.65433 46.1074C4.69426 46.147 4.7242 46.1865 4.76413 46.2261C4.79407 46.2558 4.82402 46.2855 4.85396 46.3151C4.90387 46.3745 4.95378 46.4239 5.01367 46.4833C5.03364 46.5031 5.06358 46.5327 5.08354 46.5525C5.63254 47.146 6.2514 47.6999 6.93016 48.2143C5.64252 50.0047 4.89389 52.0621 4.81404 54.0701C4.71422 56.2956 5.46285 58.4718 6.91019 60.1929C7.08986 60.4105 7.27952 60.6281 7.48913 60.8259C7.52906 60.8655 7.56899 60.915 7.60891 60.9545C7.63886 60.9842 7.6688 61.0238 7.70873 61.0534C7.73868 61.0831 7.76862 61.1227 7.80855 61.1524C7.85846 61.2018 7.90837 61.2612 7.95827 61.3106C7.97824 61.3304 8.00818 61.3601 8.02815 61.3799C8.05809 61.4095 8.08804 61.4392 8.11798 61.4689C8.15791 61.5085 8.19784 61.5579 8.23776 61.5975C8.26771 61.6272 8.29765 61.6667 8.33758 61.6964C8.36752 61.7261 8.39747 61.7656 8.4374 61.7953C8.47732 61.8349 8.50727 61.8745 8.54719 61.914C8.58712 61.9536 8.61707 61.9931 8.65699 62.0327C8.68694 62.0624 8.71688 62.102 8.74683 62.1316C8.79674 62.1811 8.84665 62.2404 8.89655 62.2899C8.91652 62.3097 8.93648 62.3393 8.96643 62.3591C10.3539 63.8033 12.2604 64.921 14.3965 65.5343C16.6823 66.1871 19.1877 66.2861 21.6432 65.8212C21.9227 66.3058 22.2521 66.7905 22.6114 67.2653C22.9508 67.7104 23.3301 68.1259 23.7194 68.5215C23.7593 68.5611 23.7992 68.6007 23.8392 68.6402C23.8691 68.6798 23.909 68.7095 23.939 68.749C23.9689 68.7787 23.9989 68.8183 24.0388 68.8479C24.0887 68.8974 24.1286 68.9469 24.1785 68.9864C24.2085 69.0161 24.2284 69.0458 24.2584 69.0656C24.2883 69.0952 24.3183 69.1348 24.3482 69.1645C24.3882 69.2041 24.4181 69.2436 24.458 69.2832C24.488 69.3227 24.5279 69.3524 24.5578 69.392C24.5878 69.4217 24.6177 69.4612 24.6577 69.4909C24.6976 69.5305 24.7275 69.57 24.7675 69.6096C24.8074 69.6492 24.8373 69.6887 24.8773 69.7184C24.9072 69.7481 24.9371 69.7876 24.9671 69.8173C25.017 69.8668 25.0569 69.9162 25.1068 69.9657C25.1368 69.9954 25.1567 70.0152 25.1867 70.0448C25.5959 70.4603 26.0252 70.8658 26.4843 71.2219C27.3427 71.9044 28.3309 72.4979 29.4189 72.9826C30.5369 73.4772 31.6748 73.8333 32.8227 74.0311C35.1684 74.4663 37.6938 74.3872 40.1293 73.8135C40.6384 73.6948 41.1474 73.5464 41.6365 73.3783C43.4632 72.7749 45.1501 71.9044 46.6773 70.7867L47.1764 70.4207L47.6056 70.7966C49.8615 72.8144 52.6563 74.3476 55.6708 75.2082C58.855 76.1083 62.2288 76.2468 65.4229 75.594C66.3712 75.4159 67.3195 75.1587 68.2378 74.8521C70.4737 74.1102 72.5399 73.0419 74.3665 71.6967C76.8719 69.9063 78.998 67.5225 80.5153 64.8023L80.6051 64.654L80.7648 64.7133C83.7194 65.8212 86.8736 66.3949 89.8581 66.3454C91.4452 66.3355 93.0323 66.1674 94.5695 65.8607C95.4279 65.6827 96.3063 65.4552 97.1548 65.1683C97.7936 64.9507 98.4324 64.7133 99.0613 64.4364C100.519 63.7934 101.856 63.0219 103.054 62.1415C104.262 61.2315 105.34 60.2028 106.268 59.085C108.085 56.8792 109.332 54.2877 109.891 51.5675V51.5477H109.971C112.417 51.6862 114.852 51.3895 117.018 50.6674C117.238 50.5981 117.458 50.519 117.667 50.43C120.143 49.4903 122.249 48.056 123.756 46.2756C124.495 45.4051 125.094 44.416 125.523 43.3576C125.952 42.3387 126.192 41.2606 126.231 40.1626C126.271 39.1141 126.162 38.0458 125.872 36.9677C125.722 36.4137 125.553 35.9093 125.353 35.4444C125.253 35.1971 125.133 34.9498 125.004 34.6827L124.824 34.3266L124.724 34.1585L124.674 34.0695C124.654 34.0101 124.624 33.9508 124.614 33.8815C124.604 33.8222 124.594 33.7529 124.594 33.6837C124.864 33.3771 125.183 33.0902 125.483 32.8726L125.692 32.7242L126.261 32.2791C126.75 31.8637 127.12 31.4977 127.419 31.1416C128.118 30.3206 128.647 29.4205 128.986 28.4511C129.675 26.4926 129.495 24.3956 128.487 22.714V22.8129H128.467Z" fill="#21201E"/>
<path d="M5.81153 40.1349C6.8097 42.5978 8.87591 44.7047 11.4512 46.139L12.2298 46.5742L11.6908 47.3062C10.3033 49.0669 9.50476 51.1144 9.42491 53.1422C9.33507 55.1699 10.0038 57.1581 11.3314 58.7309C12.639 60.3135 14.5655 61.5005 16.7415 62.1237C18.9175 62.7468 21.3131 62.8161 23.569 62.3709L24.9664 62.094L25.5054 63.2711C25.8748 64.1514 26.4138 65.0317 27.0226 65.833C27.6515 66.6342 28.3702 67.376 29.1887 68.019C30.0072 68.6619 30.9255 69.206 31.9137 69.6511C32.8919 70.0863 33.9499 70.4325 35.0479 70.6303C37.2439 71.0359 39.5996 70.9568 41.8255 70.4325C44.0614 69.8984 46.1576 68.9092 47.9543 67.6035L49.2319 66.6737L50.3499 67.653C52.4361 69.5225 55.1012 71.0161 58.0058 71.847C60.9105 72.668 64.1047 72.8361 67.179 72.213C70.2534 71.6096 73.198 70.3237 75.6435 68.5234C78.129 66.743 80.1053 64.4482 81.5028 61.9456L82.0418 60.9762L83.1697 61.3818C85.8748 62.4006 88.8293 62.9842 91.8338 62.9446C93.3311 62.9249 94.8383 62.7765 96.2956 62.4896C97.763 62.1929 99.1903 61.7379 100.538 61.1444C101.885 60.5509 103.153 59.8288 104.301 58.988C105.439 58.1374 106.457 57.1581 107.325 56.0997C109.062 53.983 110.25 51.5002 110.759 48.9779L110.919 48.0876L112.017 48.1569C114.452 48.3052 116.948 47.9788 119.194 47.1281C121.43 46.2874 123.426 44.9619 124.823 43.3001C125.522 42.4693 126.061 41.5592 126.45 40.6097C126.85 39.67 127.059 38.6808 127.089 37.6917C127.129 36.7025 127.009 35.6936 126.76 34.7242C126.63 34.2395 126.47 33.7549 126.271 33.29C126.171 33.0526 126.061 32.825 125.961 32.5975L125.782 32.2711L125.692 32.1129V32.0931L125.652 32.0436L125.622 31.9645C125.572 31.8656 125.532 31.7469 125.502 31.6282C125.442 31.3908 125.452 31.1435 125.492 30.9259C125.822 30.5104 126.271 30.0752 126.76 29.729L126.939 29.6004L127.019 29.5411L127.169 29.4224L127.459 29.1949C127.838 28.8783 128.197 28.542 128.497 28.176C129.125 27.454 129.595 26.633 129.894 25.7724C130.503 24.0612 130.363 22.2016 129.455 20.6882C128.566 19.1748 126.91 18.0274 124.953 17.4932C122.997 16.9591 120.781 17.0481 118.834 17.7504L116.399 18.6209L116.469 16.3953C116.529 14.6148 116.069 12.7057 115.031 11.311C114.013 9.88667 112.326 8.99643 110.32 8.67991C109.322 8.52164 108.274 8.53154 107.216 8.65023C106.168 8.75904 105.119 9.01622 104.111 9.38221C103.492 9.59982 102.894 9.84711 102.325 10.1537C103.672 7.09727 106.806 3.29894 113.953 0.35127C113.953 0.35127 101.835 -0.271893 93.6605 9.58004C92.9817 8.94698 92.2231 8.39306 91.4046 7.92816C89.4981 6.84999 87.1824 6.39498 84.8466 6.55324C83.6788 6.62248 82.5009 6.86976 81.383 7.23575C80.265 7.61163 79.177 8.08642 78.1789 8.6898C77.1807 9.29318 76.2624 10.0054 75.4339 10.7769C74.6254 11.5682 73.9167 12.4387 73.3078 13.3487L72.0202 15.2676L70.4231 13.6454C68.7861 11.9837 66.67 10.6384 64.2444 9.92624C61.8388 9.19427 59.1737 9.01622 56.6883 9.55036C55.4405 9.80754 54.2527 10.2428 53.1547 10.8066C52.0568 11.3704 51.0885 12.1123 50.2401 12.953C49.3916 13.7938 48.673 14.7533 48.094 15.7721C47.8045 16.2766 47.545 16.8107 47.3354 17.3449C47.1158 17.8691 46.9262 18.4428 46.8064 18.9275L46.3173 21.0245L44.1712 20.0057C42.3545 19.0759 40.3682 18.3835 38.282 18.0274C37.2339 17.8691 36.1759 17.7702 35.1078 17.7801C34.0498 17.8098 32.9817 17.8889 31.9536 18.1263C30.9255 18.3637 29.9273 18.6802 29.019 19.1352C28.1206 19.6001 27.2822 20.154 26.5835 20.8267C25.186 22.1818 24.3076 23.9425 23.9084 25.7823L23.7087 26.7121L22.6407 26.5439C21.1035 26.3066 19.5364 26.2274 17.9692 26.3461C16.4021 26.4747 14.855 26.8308 13.3976 27.3551C10.473 28.3937 7.90769 30.2632 6.44038 32.6074C5.71172 33.7746 5.25256 35.0506 5.15274 36.3464C5.03296 37.6422 5.30247 38.9479 5.78159 40.1843H5.79157L5.81153 40.1349Z" fill="#817890"/>
<path d="M108.763 32.4891L106.497 36.2478C107.794 36.3764 109.741 37.3359 110.499 38.1371L112.905 34.3882C111.727 33.4288 110.38 32.8155 108.773 32.4891H108.763Z" fill="#E8DFCE"/>
<path d="M99.759 27.8895C99.8189 28.2258 99.8688 28.8094 99.8688 29.1556C99.8788 29.9667 99.6991 30.8471 98.7708 30.857C97.4832 30.8768 96.8843 29.7887 96.8044 28.2357L95.7164 27.9686C95.7564 28.1566 95.8063 28.5226 95.8163 28.7798C95.8362 29.9865 95.3272 31.0449 93.8299 31.0647C91.7337 31.0944 90.6457 29.5117 89.7574 27.8005L87.9706 31.2032C89.5976 33.5672 92.1829 38.4536 92.2428 42.4399C92.2528 43.3203 92.0931 44.1215 91.9833 44.5666L92.7419 44.1017C93.4406 42.8455 94.0096 41.2826 93.9796 39.6208C93.9497 37.4348 93.4606 35.9214 93.0214 34.6355C93.3009 34.7147 93.8199 34.7542 94.1194 34.7542C95.1175 34.7344 95.7763 34.2695 96.1357 33.6167C96.505 34.1212 97.4133 34.5465 98.4115 34.5267C100.378 34.497 101.097 32.2714 101.067 29.9469C101.067 29.3139 100.977 28.6907 100.877 28.2852L99.749 27.8796L99.759 27.8895Z" fill="#E8DFCE"/>
<path d="M76.7113 31.3318C79.2067 35.0015 80.2648 39.3637 80.3147 42.4795C80.3247 43.1422 80.2248 44.072 80.0452 44.7545L80.8537 44.4083C81.6722 43.2708 82.2511 41.0452 82.2112 39.0175C82.1613 35.4763 80.8038 31.4208 78.5978 27.9291L76.7113 31.3318Z" fill="#E8DFCE"/>
<path d="M62.9465 33.3595L61.5491 36.2478C63.1761 37.7513 63.4157 39.1856 63.4256 39.3834C63.4256 39.6109 62.7469 40.2539 59.9819 40.2935C59.9819 40.2935 59.972 40.2935 59.962 40.2935C59.962 40.2935 59.942 40.2935 59.932 40.2935C57.786 40.3231 56.708 39.8879 56.5283 37.0589C56.4185 35.4071 56.2887 32.2121 56.2488 29.67C56.2188 27.8401 56.2488 26.3563 56.3586 26.0497L55.6798 26.3168C55.2007 27.2664 54.6717 28.117 54.2924 28.9083C54.1227 29.2447 53.9829 29.5612 53.9929 29.9667C54.0029 30.8273 54.1327 34.497 54.3822 38.7207C54.6517 42.9642 56.2688 44.349 59.0437 44.3094C59.0437 44.3094 59.0537 44.3094 59.0636 44.3094C61.589 44.2698 63.206 43.2213 64.0445 41.8069C64.873 40.3726 65.0626 39.0175 65.0427 37.6524C65.0227 36.1687 64.304 34.4674 62.9465 33.3694V33.3595Z" fill="#E8DFCE"/>
<path d="M64.6933 29.5612C63.9247 28.8985 63.0463 28.4731 61.9783 28.2456L60.4311 30.7185C61.2596 30.8174 62.5572 31.4702 63.0763 32.0044L64.6833 29.5612H64.6933Z" fill="#E8DFCE"/>
<path d="M45.8778 32.1429L45.0094 34.9521C48.7625 37.0787 49.7707 39.3142 49.7807 39.8483C49.7807 40.1846 48.7925 41.1243 46.3769 41.154C44.4804 41.1837 43.8815 40.8078 43.8615 39.5219C43.8615 39.4032 43.8615 39.2647 43.8615 39.1263C43.4922 39.2845 43.1229 39.423 42.7436 39.5615C42.6038 40.5012 42.5938 41.4804 42.5938 41.7277C42.6138 43.0235 42.9831 44.7743 45.9676 44.7347C48.483 44.6952 50.12 43.4587 50.679 42.1432C51.0284 41.3321 51.238 39.8681 51.218 38.9482C51.1781 35.9511 48.8723 33.5771 45.8578 32.1429H45.8778Z" fill="#E8DFCE"/>
<path d="M38.0821 41.0155C36.8044 40.8276 33.9297 40.7386 32.8517 40.6001C32.113 40.5012 31.9833 40.3825 31.9833 40.1945C31.9733 39.2647 33.7201 37.0194 36.2355 36.9798C37.8425 36.96 38.3915 37.7711 38.5013 38.513L39.3997 38.0975C39.5993 37.5436 39.749 36.5149 39.7391 35.8621C39.7191 34.5465 38.8507 33.587 37.1139 33.6167C33.8499 33.6662 30.3962 37.2271 30.4561 41.065C30.486 42.8949 31.0051 43.894 32.8617 44.1412C34.3989 44.349 36.8244 44.438 37.7826 44.4874C38.152 44.5072 38.3217 44.5765 38.3217 44.6655C38.3217 45.0018 36.8344 47.2966 31.6439 47.3758C26.683 47.445 26.0941 45.3579 26.0442 43.3598C26.0342 42.519 26.2238 41.4606 26.4834 40.422L25.2257 40.9859C25.0161 41.609 24.527 43.2807 24.5569 45.1304C24.6068 48.5133 26.3237 51.5005 31.2446 51.4313C38.701 51.3225 39.8588 45.2887 39.8389 43.5181C39.8189 42.3707 39.5594 41.2331 38.0821 41.0155Z" fill="#E8DFCE"/>
<path d="M29.2184 53.6371L27.781 55.8429C28.5795 55.9319 29.8073 56.4858 30.3064 56.9507L31.7836 54.7251C31.035 54.1712 30.1866 53.8151 29.2084 53.6272L29.2184 53.6371Z" fill="#E8DFCE"/>
<path d="M31.6838 55.467C32.4923 55.5362 33.7301 56.1099 34.2192 56.5749L35.6865 54.3493C34.9478 53.7756 34.1094 53.4393 33.1312 53.2414L31.6938 55.467H31.6838Z" fill="#E8DFCE"/>
</svg>
