<svg width="157" height="108" viewBox="0 0 157 108" fill="none" xmlns="http://www.w3.org/2000/svg">
<path d="M156.546 61.5003L145.367 3.07301L145.297 3.09303L145.257 2.87282L145.187 2.89284L145.147 2.66261L145.077 2.68263L145.037 2.46241L144.967 2.48243L144.927 2.25221L144.858 2.27223L144.818 2.05201H144.758L144.718 1.84181L144.648 1.86183L144.608 1.64161L144.538 1.66163L144.498 1.44141L144.428 1.46143L144.388 1.23121L144.319 1.25123L144.279 1.03101H144.219L144.179 0.820805L144.109 0.840824L144.069 0.620609L143.999 0.640628L143.959 0.410402L143.889 0.430422L143.849 0.210206L143.78 0.230226L143.74 0L0.941406 34.654L25.0572 97.1252H25.0772L25.167 97.3354H25.1969L25.2768 97.5457H25.2968L25.3866 97.7559H25.4165L25.4964 97.9661H25.5164L25.6062 98.1763H25.6361L25.716 98.3865H25.7359L25.8258 98.5967H25.8557L25.9356 98.8069H25.9655L26.0454 99.0171H26.0653L26.1552 99.2273H26.1851L26.265 99.4375H26.2849L26.3748 99.6477H26.4047L26.4846 99.8579H26.5045L26.5944 100.068H26.6243L26.7042 100.278L80.2261 83.4919C80.4157 92.0503 75.7443 101.099 75.6844 101.209L73.9176 104.573L74.1971 104.472L74.0374 104.783L74.2869 104.693L74.1272 104.993L74.4067 104.893L74.247 105.203L74.5165 105.113L74.3568 105.413L74.6163 105.323L74.4566 105.634L74.7361 105.533L74.5764 105.834L74.8459 105.744L74.6862 106.054L74.9557 105.964L74.796 106.264L75.0655 106.174L74.9058 106.474L75.1753 106.374L75.0156 106.685L75.2751 106.595L75.1154 106.895L75.3849 106.805L75.2252 107.115L75.5047 107.015L75.345 107.315L75.6145 107.215L75.4548 107.525L75.7043 107.435L75.5446 107.736L79.138 106.474C101.267 98.7168 102.226 83.0915 101.996 78.4469L156.566 61.5103H156.546V61.5003Z" fill="#21201E"/>
<path d="M75.4862 107.736C75.4862 107.736 82.6032 94.1927 79.3691 83.8826L24.4498 101.109L1.46194 41.541L141.066 7.57774L151.697 63.1422L97.2463 80.0388C97.2463 80.0388 100.64 98.9173 75.4962 107.726L75.4862 107.736Z" fill="#618792"/>
<path d="M127.26 41.7096C126.921 40.1681 125.583 35.0631 125.074 32.7509C124.924 32.0802 124.845 31.6598 124.815 31.2494L124.236 31.6097C123.747 33.4616 123.188 34.6928 123.347 35.4335C123.607 36.6347 126.003 45.8237 126.152 46.5144C126.332 47.3452 126.621 48.6765 126.591 49.187L127.29 48.8467C127.57 47.6054 128.139 45.7236 127.26 41.7096Z" fill="#E8DFCE"/>
<path d="M114.414 39.2272L115.372 36.8649C114.573 36.4745 113.725 36.2943 112.767 36.3044L111.858 38.6567C112.607 38.5766 113.855 38.8769 114.414 39.2272Z" fill="#E8DFCE"/>
<path d="M116.949 41.5895L117.837 39.3674C117.089 38.997 116.3 38.8268 115.412 38.8368L114.563 41.039C115.282 40.9589 116.45 41.2592 116.959 41.5895H116.949Z" fill="#E8DFCE"/>
<path d="M113.605 42.4804L114.484 40.2582C113.755 39.8979 112.956 39.7377 112.058 39.7377L111.21 41.9399C111.928 41.8798 113.096 42.1601 113.605 42.4704V42.4804Z" fill="#E8DFCE"/>
<path d="M120.213 39.978L119.185 42.5104C120.383 43.2512 121.171 44.5524 121.211 44.7226C121.271 44.9829 120.942 45.6535 119.894 45.8737C118.786 46.114 117.857 45.7036 117.598 44.5224C117.558 44.3522 117.508 44.052 117.508 43.8518L116.56 44.2421C116.58 45.7036 116.031 46.8647 114.304 47.2351C112.547 47.6154 111.858 46.9047 111.679 46.0739C111.659 46.0039 111.609 45.7536 111.599 45.6735L110.77 46.0439C110.721 47.3852 109.852 48.216 107.616 48.7065L107.377 48.7566C105.51 49.157 104.123 48.8967 103.763 47.2651C103.733 47.145 103.663 46.6445 103.673 46.4543L102.775 46.9348C102.795 48.8066 102.166 49.8877 99.571 50.4482C97.9839 50.7886 95.758 50.5783 93.9912 48.6665L93.2526 51.6094C95.0393 52.9307 96.2271 54.1218 96.297 54.4221C96.3768 54.7825 95.6182 58.4561 91.4559 59.357C91.0965 59.437 90.4876 59.5271 90.1083 59.5171L90.4477 60.1577C91.366 60.6782 92.8233 62.1197 94.5502 61.7393C96.5864 61.2989 98.2534 58.7764 97.6545 54.2319C98.0338 54.3721 98.6227 54.4922 99.5111 54.302C102.246 53.7114 103.035 52.28 103.354 51.3291C103.873 52.1699 105.051 53.1108 107.317 52.6203C107.317 52.6203 107.317 52.6203 107.327 52.6203L107.566 52.5703C109.583 52.1299 110.541 51.1389 110.96 50.1679C111.529 50.8786 112.817 51.4292 114.324 51.1089C115.961 50.7585 116.809 49.7575 117.119 48.9868C117.668 49.6474 118.796 49.9677 119.884 49.7275C122.269 49.217 122.938 45.9338 122.339 43.2111C122.04 41.8498 121.331 40.7487 120.233 39.9679L120.213 39.978Z" fill="#E8DFCE"/>
<path d="M100.849 45.6936L101.777 43.3713C100.988 42.9909 100.16 42.8207 99.2316 42.8307L98.3332 45.133C99.0719 45.0629 100.3 45.3532 100.849 45.6936Z" fill="#E8DFCE"/>
<path d="M104.322 44.6325L105.241 42.3102C104.462 41.9199 103.634 41.7597 102.705 41.7497L101.807 44.062C102.556 43.9819 103.783 44.2822 104.322 44.6225V44.6325Z" fill="#E8DFCE"/>
<path d="M89.9087 49.7776C89.5693 48.2361 88.2318 43.131 87.7227 40.8188C87.573 40.1481 87.4931 39.7277 87.4632 39.3173L86.8842 39.6777C86.3951 41.5295 85.8362 42.7607 85.9959 43.5014C86.2554 44.7026 88.651 53.8916 88.8007 54.5823C88.9804 55.4131 89.2699 56.7444 89.2399 57.2549L89.9386 56.9146C90.2181 55.6733 90.7871 53.7915 89.9087 49.7776Z" fill="#E8DFCE"/>
<path d="M74.5668 52.28L74.7365 52.7004C75.4153 53.0007 76.4134 53.2209 77.192 53.0508C79.1784 52.6203 79.5776 50.6484 79.378 49.7175C79.2782 49.2671 79.0785 48.8767 78.4098 48.9267C77.3717 49.0068 76.114 49.2771 76.0441 48.9968C75.9643 48.6465 76.4134 47.8657 77.0722 47.7255C77.3817 47.6555 77.4915 47.8056 77.6112 47.9958L77.9606 47.7656C78.0005 47.4853 78.0105 47.0349 77.9506 46.7446C77.8408 46.2441 77.5314 46.0139 77.0423 46.124C75.9942 46.3542 74.9761 48.146 75.2855 49.5874C75.4352 50.2781 75.7247 50.6284 76.5532 50.5383C77.4815 50.4382 78.5695 50.268 78.5894 50.3681C78.6593 50.6684 77.2619 51.7095 74.5568 52.29L74.5668 52.28Z" fill="#E8DFCE"/>
<path d="M82.5921 41.3793C82.5023 40.9689 82.4324 40.6086 82.4024 40.4084L81.8335 40.7887C81.544 41.9799 81.1048 43.4313 81.015 43.8518C80.9551 44.122 80.9751 44.3422 81.035 44.5925C81.1847 45.3032 82.9714 51.1589 83.4006 53.1008C83.2908 53.6313 81.544 54.9026 77.9107 55.6934C73.7084 56.6043 72.3609 55.6033 72.0814 54.342C71.9716 53.8215 71.9616 53.2009 72.0115 52.8205L71.1032 53.4412C70.9934 54.3621 71.1032 55.7935 71.2828 56.6243C71.7919 58.9466 73.349 60.4981 77.6012 59.5772C81.4542 58.7464 83.3707 57.1648 84.0794 55.5933C85.0476 53.4512 84.9278 51.199 84.299 48.3161C83.8398 46.2141 82.9914 43.2011 82.5921 41.3793Z" fill="#E8DFCE"/>
<path d="M58.4064 53.3411C55.7713 53.9116 55.0626 57.1148 55.6216 59.6873C56.2005 62.3399 57.6578 63.1006 60.0634 62.5801C61.1315 62.3499 62.2095 61.8194 62.7285 61.2088C62.7684 61.409 62.8184 61.5791 62.8483 61.6792C63.008 62.42 61.4209 65.8333 56.8792 66.8143C56.5099 66.8943 55.9609 66.9744 55.5716 66.9844L55.911 67.6251C56.999 68.2256 58.3965 69.557 60.0135 69.2066C62.9282 68.576 64.8646 64.4019 63.7467 59.2569C62.8982 55.353 60.8819 52.8005 58.4064 53.3411ZM59.6641 59.1668C57.6079 59.6072 56.7096 58.9766 56.5998 58.4661C56.49 57.9656 57.0988 56.5142 58.5562 56.1939C60.2031 55.8335 61.401 57.2549 61.9999 58.4761C61.1913 58.8164 60.1532 59.0567 59.6542 59.1668H59.6641Z" fill="#E8DFCE"/>
<path d="M50.3712 48.8867C50.2215 48.216 50.1416 47.7956 50.1117 47.3852L49.5327 47.7456C49.0436 49.5974 48.4846 50.8286 48.6443 51.5693C48.9039 52.7705 51.2995 61.9595 51.4492 62.6502C51.6289 63.481 51.9183 64.8123 51.8884 65.3228L52.5871 64.9825C52.8666 63.7413 53.4356 61.8594 52.5572 57.8455C52.2178 56.304 50.8802 51.199 50.3712 48.8867Z" fill="#E8DFCE"/>
<path d="M38.5928 57.1348C37.0955 57.4551 36.287 58.8465 36.297 61.6192L37.2452 62.0396C37.2452 60.9886 37.7343 60.2679 38.6327 60.0777C40.0401 59.7774 42.6453 60.2779 44.5219 60.2478C43.1145 61.5691 40.2098 63.2708 36.3569 64.1016L36.0175 64.1717C36.0175 64.1717 36.0075 64.1817 35.9975 64.1817C35.9975 64.1817 35.9776 64.1817 35.9676 64.1817C33.4522 64.7222 33.2725 63.0706 29.21 56.1738C28.9405 56.9246 28.4114 58.6363 28.5013 59.2168C29.2599 60.6282 31.4059 64.3218 31.4658 64.6321C31.5257 64.9024 30.5276 65.8533 28.5811 66.2637C27.014 66.6041 26.2953 66.3538 26.0657 65.3328C26.0258 65.1626 25.9959 64.9625 25.9759 64.7522C25.6665 64.9625 25.367 65.1827 25.0476 65.3929C25.0875 66.2837 25.1574 67.1546 25.2772 67.6851C25.5966 69.1365 26.5349 70.2877 28.8007 69.7972C30.268 69.4769 31.0965 68.7762 31.6755 68.0855C32.0448 67.6451 32.2045 66.564 32.2843 65.9634C32.9132 67.0545 33.8215 68.4659 35.8179 68.0355C35.8378 68.0355 35.8478 68.0154 35.8678 68.0054C35.8877 68.0054 35.9077 68.0154 35.9277 68.0054L36.1972 67.9454C39.0919 67.3248 41.3178 65.9434 43.2442 63.9114C45.1807 61.8494 45.8694 60.4881 46.7877 60.2879C46.9475 60.2578 47.1271 60.2378 47.5164 60.2178L48.1852 57.2749C44.7615 57.7254 40.7388 56.6343 38.5828 57.1047L38.5928 57.1348Z" fill="#E8DFCE"/>
</svg>
