<?xml version="1.0" encoding="iso-8859-1"?>
<!-- Generator: Adobe Illustrator 26.0.1, SVG Export Plug-In . SVG Version: 6.00 Build 0)  -->
<svg version="1.1" id="George_Samuel" xmlns="http://www.w3.org/2000/svg" xmlns:xlink="http://www.w3.org/1999/xlink" x="0px"
	 y="0px" viewBox="0 0 512 512" style="enable-background:new 0 0 512 512;" xml:space="preserve">
<g id="www.GeorgeSamuel.me_00000182491740560014468780000009487657373361010357_">
	<rect style="fill:#FFFFFF;" width="512" height="512"/>
	<circle style="fill:#FFFFFF;" cx="256" cy="256" r="256"/>
	<g id="www.GeorgeSamuel.me">
		<path id="Path_5095" style="fill:#005596;" d="M405.011,203.775h5.4c0,0.5,0.1,0.9,0.1,1.4c0,2.2,0,4.3,0,6.5c0,2.3,1,3.3,3.3,3.4
			c0.4,0,0.8,0,1.2,0h40.7c0.3,0,0.6,0,0.9,0c1.6,0.3,3.1-0.8,3.4-2.4c0.1-0.3,0.1-0.6,0-1c-0.1-2.1,0-4.2,0-6.3c0-0.5,0-1,0.1-1.5
			c0.2-0.1,0.4-0.1,0.7-0.1c1.5,0,3,0,4.7,0c0.1,0.4,0.1,0.8,0.1,1.2c0,3.3,0,6.7,0,10c0.1,3-2.2,5.6-5.3,5.7c-0.1,0-0.2,0-0.3,0
			c-0.5,0-1,0-1.5,0c-15.6,0-31.3,0-46.9,0c-1.1-0.1-2.2-0.2-3.3-0.5c-0.3,0-0.6,0-1,0c-0.9,0.2-1.9,0.4-2.9,0.5
			c-16.1,0-32.3,0-48.4,0c-1.1,0-2.3-0.6-3.4-0.6s-2.2,0.6-3.3,0.6c-21.6,0-43.1,0-64.7,0c-1.2,0-2.4-0.7-3.5-0.6
			c-1.1,0.3-2.3,0.5-3.4,0.6c-16,0-32.1,0-48.1,0c-1-0.1-1.9-0.2-2.9-0.4c-0.4-0.1-0.7-0.1-1.1,0c-1.1,0.2-2.2,0.4-3.3,0.5
			c-15.4,0-30.9,0-46.3,0h-2.1c0,0.6-0.1,1.2-0.1,1.7c0,5.8,0,11.6,0,17.3c0,0.8,0,1.6-0.2,2.3c-0.6,2.2-2.6,3.8-4.9,4
			c-0.4,0-0.8,0-1.2,0c-16,0-32,0-47.9,0c-0.8,0-1.6-0.1-2.3-0.3c-2.4-0.7-3.9-2.9-3.8-5.4h50.7c0.5,0,1.1,0,1.6,0
			c1.4-0.1,2.5-1.2,2.6-2.6c0-0.5,0.1-1,0-1.5c0-6.5,0-13,0-19.5v-1.8h50.8c0.4,0,0.8,0,1.2,0c1.5,0.1,2.9-1,3-2.5
			c0-0.2,0-0.3,0-0.5c0.1-2.1,0-4.1,0-6.2v-2h5.4c0,0.4,0.1,0.9,0.1,1.3c0,2.2,0.1,4.3,0,6.5c-0.2,1.7,1,3.2,2.7,3.4
			c0.2,0,0.5,0,0.7,0c14.3-0.1,28.5,0,42.8,0c2.4,0,3.4-1,3.4-3.4c0-2.1,0-4.1,0-6.2v-1.6h5.5c0,0.5,0.1,1,0.1,1.5c0,2,0.1,4,0,6
			c-0.1,2.1,0.9,3.7,3.6,3.7c5.5-0.1,11,0,16.5,0h41c0.5,0,1,0,1.5,0c2.4,0,3.3-1,3.3-3.3c0-2.1,0-4.2,0-6.3v-1.6h5.5v1.7
			c0,2.1,0,4.2,0,6.3c0,2.2,1,3.2,3.2,3.2c8.7,0,17.3,0,26,0c5.6,0,11.3,0,16.9,0c0.9,0.1,1.9-0.2,2.6-0.9c0.5-0.6,0.8-1.5,0.8-2.3
			c0-2.4,0-4.7,0-7.1C405.011,204.375,405.011,204.075,405.011,203.775z"/>
		<path id="Path_5096" style="fill:#005596;" d="M179.911,313.775v6.5c-0.5,0-1,0.1-1.4,0.1c-17.8,0-35.7,0-53.5,0
			c-3.5,0.1-6.4-2.7-6.4-6.2c0-0.1,0-0.2,0-0.3c0-5.4,0-10.9,0-16.3c0-9.3,0-18.6,0-27.9c0-2.6,1-4.7,3.4-5.9c1-0.5,2.1-0.7,3.3-0.7
			c5.7-0.1,11.4,0,17,0c10.3,0,20.6,0,30.9,0c1,0,2,0.1,2.9,0.4c2.4,0.8,4,3.1,4,5.6c0,2.2,0,4.4,0,6.6c0,4.4,0,8.7,0,13.1
			c0.1,3-2,5.6-4.9,6.1c-0.7,0.1-1.4,0.1-2,0.1c-14.7,0-29.4,0-44.1,0c-0.4,0-0.9,0-1.3,0c-1.3-0.2-2.5,0.8-2.6,2.1
			c0,0.2,0,0.4,0,0.6c0,3.1,0,6.2,0,9.3c0,1.4,0,2.7,0,4.1c-0.2,1.3,0.8,2.5,2.1,2.7c0.2,0,0.4,0,0.6,0c0.5,0,1,0,1.5,0
			L179.911,313.775L179.911,313.775z M149.311,269.775c-7.1,0-14.2,0-21.3,0c-2.2,0-3,0.8-3,3c0,4.3,0,8.5,0,12.8v0.2
			c0,2,0.8,2.7,2.8,2.8c0.3,0,0.7,0,1,0h16.6c8.4,0,16.8,0,25.1,0c2.2,0,2.9-0.8,2.9-2.9c0-2.8,0-5.6,0-8.4c0-1.7,0-3.3,0-5
			c0.1-1.3-0.9-2.3-2.1-2.4c-0.1,0-0.2,0-0.3,0c-0.4,0-0.8,0-1.2,0L149.311,269.775z"/>
		<path id="Path_5097" style="fill:#005596;" d="M434.911,320.375c-8.1,0-16.3,0-24.4,0c-2.8,0.1-5.3-1.7-6-4.5
			c-0.2-0.6-0.2-1.3-0.2-1.9c0-14.8,0-29.7,0-44.5c-0.2-3.3,2.3-6.2,5.6-6.4c0.3,0,0.5,0,0.8,0c16.2,0,32.4,0,48.7,0
			c4,0,6.4,2.6,6.4,6.6c0,8.7,0,17.3,0,26c0,5.9,0,11.9,0,17.8c0,1-0.1,1.9-0.4,2.9c-0.8,2.4-3.2,4-5.8,3.9
			C451.311,320.375,443.111,320.375,434.911,320.375z M435.111,269.775h-20.9c-0.4,0-0.8,0-1.2,0c-1.2,0-2.2,1-2.2,2.3
			c0,0.4,0,0.8,0,1.2c0,12.4,0,24.8,0,37.2c0,0.3,0,0.6,0,0.9c-0.1,1.3,0.9,2.4,2.1,2.5c0.1,0,0.2,0,0.3,0c0.4,0,0.9,0,1.3,0h41
			c3.1,0,3.7-0.5,3.7-3.7v-36.9c0-0.4,0-0.9,0-1.3c-0.1-1.2-1.1-2.1-2.2-2.1c-0.4,0-0.8,0-1.2,0h-20.7V269.775z"/>
		<path id="Path_5098" style="fill:#005596;" d="M339.311,320.375h-6.3c-0.1-0.4-0.1-0.7-0.1-1.1c0-16.6,0-33.2,0-49.8
			c0-3.9,2.6-6.3,6.6-6.3c16.1,0,32.1,0,48.2,0h0.4c3.3-0.1,6.1,2.6,6.2,5.9c0,0.1,0,0.1,0,0.2c0,6.5,0,13,0,19.5
			c0.1,3.3-2.5,6.1-5.8,6.3c-0.2,0-0.3,0-0.5,0c-5.1,0-10.2,0-15.3,0h-1.8c0.8,1.2,1.8,2.3,2.9,3.2c1,1.1,2,2.1,3,3.2c1,1,2,2,3,3.1
			s2,2.1,3.1,3.2c1,1,2,2,3,3.1l3,3.1c1,1.1,2,2.1,3.1,3.2c1,1,1.9,2,2.9,3l-0.1,0.3h-2.3c-1.6,0-3.2,0-4.8,0
			c-0.6,0-1.3-0.2-1.7-0.7c-7.8-8-15.6-16-23.4-24c-0.4-0.3-0.6-0.8-0.7-1.2c-0.1-2,0-3.9,0-6c0.7,0,1.2-0.1,1.8-0.1h21.5
			c2.2,0,3-0.8,3-3c0-4.2,0-8.4,0-12.6c0-2.2-0.8-3-3-3c-14.2,0-28.3,0-42.5,0c-1.5-0.2-2.8,0.8-3,2.3c0,0.2,0,0.5,0,0.7
			c0.1,15.2,0,30.5,0,45.7L339.311,320.375z"/>
		<path id="Path_5099" style="fill:#005596;" d="M47.311,240.275h1.8c16.4,0,32.7,0,49.1,0c2.6,0,4.3-0.7,4.1-4.1c0-0.6,0-1.3,0-1.9
			c-0.1-1.4-1.3-2.4-2.6-2.5c-0.4,0-0.9,0-1.3,0h-44.7c-0.6,0-1.2,0-1.8-0.1c-2.6-0.4-4.6-2.6-4.7-5.3c-0.1-2.1-0.1-4.2,0-6.3
			c0.1-2.7,2.2-4.9,4.9-5.2c0.5-0.1,1.1-0.1,1.6-0.1c15.7,0,31.5,0,47.2,0h1c3.1-0.1,5.7,2.2,5.8,5.3c0,0.2,0,0.3,0,0.5
			c0,6.5,0,12.9,0,19.4c0.1,3.1-2.2,5.7-5.3,5.8c-0.2,0-0.4,0-0.6,0c-16.3,0-32.5,0-48.8,0c-2.8,0.1-5.3-1.8-5.8-4.6
			C47.311,240.975,47.311,240.675,47.311,240.275z M77.611,220.575h-20.9c-0.5,0-1,0-1.5,0c-1.5,0.2-2.6,1.6-2.4,3.1
			c0.1,1.2,1,2.1,2.2,2.4c0.4,0.1,0.9,0.1,1.3,0.1c14.2,0,28.3,0,42.4,0c0.5,0,1,0,1.4-0.1c1.5-0.4,2.4-1.9,2-3.4
			c-0.3-1.1-1.2-1.9-2.3-2c-0.5-0.1-1.1-0.1-1.6-0.1H77.611z"/>
		<path id="Path_5100" style="fill:#005596;" d="M108.411,313.775v6.5c-0.5,0-0.9,0.1-1.3,0.1c-17.9,0-35.8,0-53.7,0
			c-3.5,0-6.4-2.7-6.4-6.2c0-0.1,0-0.1,0-0.2c0-14.8,0-29.7,0-44.5c-0.2-3.3,2.4-6.2,5.7-6.4c0.2,0,0.5,0,0.7,0
			c17.9,0,35.8,0,53.7,0c0.4,0,0.8,0,1.2,0.1v6.5c-0.6,0-1.1,0-1.7,0h-49.2c-0.5,0-1.1,0-1.6,0c-1.2,0-2.2,1-2.3,2.2
			c0,0.4,0,0.8,0,1.2v37.2c0,0.4,0,0.8,0,1.2c0,1.2,1,2.1,2.2,2.2c0.5,0,1.1,0.1,1.6,0L108.411,313.775L108.411,313.775z"/>
		<path id="Path_5101" style="fill:#005596;" d="M251.411,320.375h-6.4c0-0.6,0-1.2,0-1.7v-45.1c0-0.5,0-1.1,0-1.6
			c-0.1-1.2-1-2.1-2.2-2.1c-0.3,0-0.7,0-1,0h-41.8c-0.4,0-0.8,0-1.2,0c-1.2,0-2.3,1-2.3,2.2c0,0.4,0,0.9,0,1.3v47h-6.5
			c0-0.5-0.1-0.9-0.1-1.3c0-16.4,0-32.8,0-49.2c-0.1-1.9,0.7-3.8,2.1-5.1c1.2-1,2.7-1.5,4.2-1.5h7.4c13.6,0,27.2,0,40.9,0
			c1,0,2,0.1,2.9,0.4c2.3,0.8,3.9,2.9,4,5.3c0,0.4,0,0.9,0,1.3V320.375L251.411,320.375z"/>
		<path id="Path_5102" style="fill:#005596;" d="M322.811,263.375v6.4h-24c-0.4,0-0.9,0-1.3,0c-1,0.1-1.9,0.8-2,1.8
			c-0.1,0.6-0.1,1.2-0.1,1.8c0,15,0,30.1,0,45.1v1.8h-6.5c0-0.6,0-1.2,0-1.9v-45c0-0.5,0-1.1,0-1.6c0-1.1-1-2-2.1-2.1
			c-0.4,0-0.9,0-1.3,0h-23.9v-6.4C262.511,263.075,321.211,262.975,322.811,263.375z"/>
		<path id="Path_5117" style="fill:#005596;" d="M278.511,191.075h5.3v5.5h-5.3V191.075z"/>
		<path id="Path_5118" style="fill:#005596;" d="M224.711,196.575h-5.4v-5.5h5.3C224.811,192.875,224.711,194.575,224.711,196.575z"
			/>
		<path id="Path_5119" style="fill:#005596;" d="M227.611,196.575v-5.5c1.7-0.1,3.5-0.1,5.3,0v5.5H227.611z"/>
		<path id="Path_5122" style="fill:#F18A20;" d="M440.511,291.875c0,1.3,0,2.5,0,3.8c0,1.2-0.5,1.7-1.7,1.7c-2.5,0-5,0-7.5,0
			c-1.4,0-1.7-0.4-1.8-1.8c0-2.6,0-5.2,0-7.8c0-1.3,0.4-1.7,1.7-1.7c2.5,0,5,0,7.5,0c1.4,0,1.7,0.4,1.8,1.8
			C440.511,289.275,440.511,290.575,440.511,291.875L440.511,291.875z"/>
	</g>
</g>
</svg>
