<svg width="365" height="119" viewBox="0 0 365 119" fill="none" xmlns="http://www.w3.org/2000/svg">
<path d="M44.8365 111.321L186.142 113.498L164.243 118.94L364.865 115.764L331.692 111.142C331.692 111.142 326.92 99.577 312.689 104.859C312.689 104.859 304.839 94.0818 297.259 102.253C297.259 102.253 288.47 89.0935 272.175 97.1988C272.175 97.1988 264.875 100.708 265.282 110.604L241.702 112.05L219.696 106.208C219.696 106.208 231.929 89.9545 217.651 80.3322C217.651 80.3322 198.853 69.7337 187.963 84.8184L161.782 83.1601C161.782 83.1601 154.927 71.1449 139.164 71.7366C139.164 71.7366 140.876 55.3961 117.888 59.1498C117.888 59.1498 132.468 48.858 124.682 29.3709C124.682 29.3709 110.683 -3.44594 69.2807 1.42232C69.2807 1.42232 32.939 8.1043 32.5451 38.5391C32.5451 38.5391 0.310763 36.3001 0.433946 69.3894C0.433946 69.3894 0.454666 104.636 44.8159 111.311L44.8365 111.321Z" fill="white"/>
</svg>
