<svg width="342" height="56" viewBox="0 0 342 56" fill="none" xmlns="http://www.w3.org/2000/svg">
<path d="M278.656 18.0343C282.806 14.0622 291.32 11.0857 285.678 4.57909C282.622 1.05053 278.618 -0.136676 273.938 0.0499759C264.783 0.411549 256.293 4.19023 247.982 7.69636C240.946 10.6612 232.386 12.7954 227.621 19.2072C225.893 21.5298 224.253 30.7206 221.072 31.2311C216.868 31.9086 214.105 18.1991 211.063 15.8086C207.348 12.8936 202.638 13.6855 198.853 16.0881C195.678 18.1021 193.055 20.923 189.782 22.7726C184.292 25.8762 176.9 25.5855 171.155 23.316C165.832 21.2124 159.805 19.5732 154.934 23.6731C153.552 24.8379 152.456 26.3157 151.051 27.4601C145.338 32.1126 135.834 22.5549 131.445 19.2824C126.037 15.2519 118.893 11.9523 112.047 13.9298C104.747 16.0418 100.873 23.5935 92.9596 24.8556C89.7969 25.358 86.5757 24.8383 83.3743 24.7625C75.8707 24.59 68.5512 26.8677 61.3948 29.1215C40.9279 35.5721 20.461 42.0227 -0.00585938 48.4733C13.0117 44.3728 28.2187 43.3498 41.7198 41.3908C53.3649 39.7022 69.4867 34.7703 80.1176 41.7237C81.8872 42.8797 83.4544 44.3912 85.4184 45.1735C91.3945 47.5495 98.1389 45.8015 103.859 43.5224C108.541 41.6539 119.744 31.2966 123.677 38.9866C124.567 40.7266 124.669 42.7441 124.794 44.6936C125.076 49.1081 127.339 54.4296 132.09 55.5332C133.244 55.8003 134.444 55.7692 135.627 55.6723C140.582 55.2599 146.42 53.8646 150.247 50.5351C151.76 49.2192 152.928 47.5417 154.491 46.2858C161.092 40.9592 169.828 44.9153 177.013 46.4229C181.673 47.4001 186.134 46.505 190.552 44.9537C194.265 43.6455 198.571 40.1915 202.644 40.855C203.334 40.9686 204.028 41.2239 204.482 41.7531C206.389 43.991 205.356 45.5707 208.613 46.9839C210.905 47.9784 213.65 47.9779 216.101 47.9852C225.303 49.1888 235.461 48.0445 244.749 48.0723C254.204 48.0999 263.655 48.1284 273.111 48.1561C292.987 48.217 312.832 48.2392 332.705 48.5613C335.518 48.6078 338.736 48.4741 340.516 46.3045C345.673 40.0246 335.54 33.1304 329.943 33.6667C326.93 33.9558 324.195 35.4542 321.435 36.7013C297.184 47.6932 267.875 39.3353 242.251 40.8207C249.307 40.4091 256.368 39.6129 263.361 38.5978C274.502 36.979 289.262 35.3814 298.333 28.0332C300.518 26.2636 302.234 23.7071 302.331 20.8972C302.79 7.46632 281.587 18.9448 276.616 21.5383C276.74 20.238 277.542 19.1024 278.656 18.0343Z" fill="white"/>
</svg>
