<svg width="300" height="284" viewBox="0 0 300 284" fill="none" xmlns="http://www.w3.org/2000/svg">
<path d="M144.824 283.4C139.951 283.592 135.073 283.866 130.2 283.945C128.757 283.957 127.252 283.556 125.845 283.109C124.615 282.702 124.04 281.835 124.154 280.403C124.472 276.061 124.806 271.701 124.73 267.363C124.657 263.514 125.68 259.973 127.143 256.504C128.377 253.572 130.859 251.532 133.909 250.751C138.597 249.541 143.415 248.639 148.241 248.128C152.289 247.703 155.698 249.465 157.853 252.859C159.382 255.278 161.047 257.694 161.971 260.323C163.516 264.709 164.602 269.239 165.752 273.743C166.511 276.655 166.152 277.256 163.293 278.614C157.477 281.375 151.126 282.155 144.832 283.433L144.826 283.4H144.824ZM158.185 272.257C157.83 269.861 157.495 267.838 157.227 265.804C156.602 261.019 153.795 257.516 150.076 254.476C142.773 248.493 133.005 252.79 131.232 260.436C130.061 265.527 130.897 270.578 130.959 275.862L158.181 272.239V272.255L158.185 272.257ZM131.96 279.004C132.686 280.878 134.028 281.579 135.544 281.361C141.958 280.427 148.339 279.383 154.724 278.256C155.597 278.107 156.347 277.373 157.156 276.907C148.551 276.293 140.321 277.046 131.964 279.021V279.005L131.96 279.004Z" fill="#C5C2C9"/>
<path d="M206.785 255.529C205.369 257.435 204.031 259.381 202.497 261.201C202.052 261.743 201.123 262.142 200.371 262.211C195.33 262.725 190.287 263.13 185.186 263.581C185.783 259.772 189.124 256.371 192.5 256.033C197.063 255.575 201.637 255.217 206.197 254.81L206.776 255.522L206.787 255.529H206.785Z" fill="#C5C2C9"/>
<path d="M189.593 270.993C185.267 271.298 180.327 268.357 175.215 262.174C178.839 258.178 180.403 252.435 186.124 249.532C188.386 254.556 190.16 266.218 189.593 270.993Z" fill="#C5C2C9"/>
<path d="M212.651 256.631C206.691 266.056 205.214 267.792 201.956 269.078C199.995 265.636 198.063 254.827 198.244 248.21C202.374 247.327 207.83 250.491 212.654 256.65L212.651 256.629V256.631Z" fill="#C5C2C9"/>
<path d="M40.8701 238.865C37.2811 235.738 33.6268 232.667 30.1211 229.459C29.0907 228.502 28.3283 227.211 27.6674 225.951C27.1006 224.84 27.3414 223.84 28.4931 222.904C31.9609 220.047 35.4521 217.187 38.6374 214.068C41.4605 211.297 44.8286 209.478 48.4521 208.007C51.5142 206.759 54.7936 206.978 57.5315 208.468C61.7508 210.752 65.8306 213.341 69.6261 216.21C72.8059 218.619 73.8996 222.148 72.8892 225.99C72.163 228.723 71.5365 231.547 70.2272 234.025C68.0434 238.162 65.4286 242.091 62.8789 246.046C61.2401 248.613 60.5393 248.798 57.5026 247.843C51.3276 245.901 46.2555 242.2 40.8502 238.889L40.8701 238.864V238.865ZM58.638 239.932C60.1753 238 61.4502 236.345 62.7793 234.728C65.912 230.925 66.5422 226.57 66.1819 221.93C65.4847 212.81 55.3694 209.308 48.4068 213.528C43.7783 216.344 40.5967 220.474 36.6944 224.253L58.6488 239.918L58.638 239.932ZM35.0556 227.144C34.1683 228.955 34.5956 230.349 35.8288 231.21C41.0621 234.843 46.3533 238.377 51.7115 241.856C52.4395 242.334 53.5187 242.317 54.4386 242.53C48.8124 236.335 42.4311 231.357 35.0465 227.158L35.0574 227.144H35.0556Z" fill="#C5C2C9"/>
<path d="M105.495 260.643C103.07 261.043 100.669 261.523 98.2263 261.783C97.5056 261.869 96.5513 261.528 95.97 261.074C92.0224 258.063 88.1527 254.971 84.2087 251.874C87.4736 249.582 92.3773 249.414 95.0175 251.434C98.5848 254.165 102.089 256.976 105.616 259.74L105.495 260.629V260.643Z" fill="#C5C2C9"/>
<path d="M81.7912 260.069C78.5045 257.389 77.208 252.003 78.2094 244.206C83.7577 243.807 89.1504 240.793 95.3633 242.571C93.2103 247.637 85.7569 257.07 81.7912 260.069Z" fill="#C5C2C9"/>
<path d="M108.821 265.35C97.5689 268.025 95.2275 268.261 91.9626 266.991C93.1451 263.244 99.8506 254.308 104.921 249.75C108.501 251.892 109.997 257.78 108.807 265.367L108.82 265.35H108.821Z" fill="#C5C2C9"/>
<path d="M0.619089 137.771C0.416276 133.157 0.126544 128.538 0.0432461 123.924C0.0305703 122.557 0.454304 121.132 0.92693 119.8C1.3561 118.636 2.27237 118.091 3.78441 118.199C8.36943 118.5 12.9744 118.816 17.5558 118.744C21.6211 118.675 25.3604 119.644 29.0237 121.029C32.1202 122.197 34.2751 124.548 35.099 127.435C36.3775 131.875 37.33 136.437 37.8696 141.007C38.3187 144.839 36.4572 148.068 32.8735 150.108C30.3185 151.555 27.767 153.133 24.991 154.007C20.3589 155.47 15.5747 156.499 10.8177 157.587C7.74288 158.306 7.10728 157.966 5.67311 155.259C2.75768 149.752 1.93375 143.738 0.584683 137.778L0.619089 137.773V137.771ZM12.3877 150.424C14.9174 150.088 17.0542 149.77 19.2018 149.517C24.2558 148.925 27.9553 146.267 31.1659 142.745C37.4839 135.83 32.946 126.581 24.8715 124.903C19.4951 123.793 14.1605 124.586 8.57948 124.644L12.4058 150.42H12.3895L12.3877 150.424ZM5.26205 125.59C3.28282 126.278 2.54219 127.549 2.77216 128.984C3.75906 135.057 4.86186 141.099 6.05157 147.145C6.20911 147.972 6.98415 148.682 7.47669 149.448C8.12497 141.3 7.33001 133.507 5.24394 125.594H5.26024L5.26205 125.59Z" fill="#C5C2C9"/>
<path d="M30.0523 196.442C28.0387 195.101 25.9834 193.834 24.0621 192.381C23.4899 191.959 23.0679 191.08 22.9955 190.368C22.4523 185.595 22.0249 180.819 21.5487 175.989C25.5705 176.555 29.1632 179.719 29.5199 182.915C30.0034 187.236 30.3819 191.567 30.811 195.884L30.0595 196.433L30.0523 196.443V196.442Z" fill="#C5C2C9"/>
<path d="M13.7222 180.163C13.3999 176.066 16.5055 171.389 23.0353 166.548C27.2564 169.979 33.3208 171.461 36.3865 176.877C31.0808 179.019 18.7654 180.699 13.7222 180.163Z" fill="#C5C2C9"/>
<path d="M28.8897 201.995C18.9356 196.352 17.103 194.953 15.7449 191.869C19.3792 190.012 30.7947 188.182 37.7827 188.354C38.7153 192.265 35.3743 197.431 28.8698 201.999L28.8915 201.995H28.8897Z" fill="#C5C2C9"/>
<path d="M47.6517 39.3384C50.9546 35.94 54.1978 32.4798 57.5859 29.1603C58.5963 28.1846 59.9599 27.4628 61.2908 26.8369C62.4642 26.3002 63.5199 26.5283 64.5086 27.6188C67.5255 30.9023 70.5459 34.2082 73.8398 37.2243C76.7661 39.8974 78.6874 43.0866 80.2411 46.5176C81.5594 49.4171 81.3276 52.5224 79.754 55.1149C77.342 59.11 74.6076 62.9731 71.5781 66.5671C69.0339 69.578 65.3072 70.6136 61.2492 69.6568C58.3627 68.9693 55.3803 68.376 52.7636 67.1363C48.3941 65.0684 44.2455 62.5925 40.0679 60.1783C37.3571 58.6265 37.1615 57.9629 38.1702 55.0875C40.2218 49.2405 44.1296 44.4378 47.6263 39.3196L47.6535 39.3384H47.6517ZM46.5253 56.1626C48.5661 57.6183 50.3136 58.8254 52.0212 60.084C56.0376 63.0503 60.6371 63.647 65.5372 63.3058C75.169 62.6456 78.8667 53.0676 74.4102 46.4748C71.4369 42.0921 67.0746 39.0795 63.0835 35.3844L46.5398 56.1728L46.5253 56.1626ZM60.0305 33.8327C58.1182 32.9925 56.646 33.3972 55.737 34.5648C51.8999 39.5202 48.1677 44.5304 44.4936 49.604C43.9884 50.2933 44.0065 51.3152 43.7819 52.1863C50.3244 46.8589 55.5813 40.8164 60.016 33.8241L60.0305 33.8344V33.8327Z" fill="#C5C2C9"/>
<path d="M24.6524 100.531C24.2305 98.2349 23.7234 95.9612 23.4482 93.6482C23.3577 92.9657 23.718 92.0621 24.1979 91.5117C27.3777 87.7738 30.6426 84.1096 33.913 80.3751C36.334 83.4666 36.5115 88.1098 34.3783 90.6098C31.4937 93.9877 28.5258 97.3055 25.6067 100.646L24.6669 100.531H24.6524Z" fill="#C5C2C9"/>
<path d="M25.259 78.0861C28.0893 74.974 33.7771 73.7463 42.011 74.6945C42.4329 79.9482 45.6163 85.0544 43.7385 90.9374C38.3875 88.8986 28.4261 81.8411 25.259 78.0861Z" fill="#C5C2C9"/>
<path d="M19.6816 103.681C16.8567 93.0258 16.6069 90.8088 17.9487 87.7173C21.9053 88.8369 31.3434 95.1863 36.1565 99.9873C33.8948 103.377 27.6764 104.793 19.6635 103.667L19.6816 103.679V103.681Z" fill="#C5C2C9"/>
<path d="M154.416 1.22521C159.289 1.03317 164.167 0.758824 169.04 0.67995C170.484 0.667948 171.988 1.06918 173.395 1.5167C174.625 1.92307 175.201 2.79068 175.087 4.22242C174.768 8.56391 174.435 12.9243 174.511 17.2623C174.583 21.1117 173.56 24.6525 172.097 28.1212C170.864 31.0533 168.381 33.0937 165.332 33.8739C160.644 35.0844 155.825 35.9863 150.999 36.4973C146.952 36.9225 143.542 35.1598 141.387 31.7666C139.859 29.3472 138.193 26.9312 137.269 24.3027C135.725 19.9166 134.638 15.3865 133.488 10.8821C132.73 7.97064 133.088 7.3688 135.948 6.0108C141.764 3.25021 148.115 2.47004 154.409 1.19263L154.414 1.22521H154.416ZM141.054 12.3687C141.409 14.7641 141.744 16.7874 142.012 18.8209C142.637 23.6065 145.444 27.1096 149.163 30.1496C156.466 36.132 166.234 31.8351 168.006 24.1895C169.178 19.0987 168.341 14.0474 168.28 8.76281L141.058 12.3859V12.3704L141.054 12.3687ZM167.28 5.62157C166.554 3.74746 165.212 3.04617 163.697 3.26393C157.283 4.19841 150.901 5.24263 144.516 6.36916C143.644 6.51833 142.894 7.2522 142.084 7.71859C150.69 8.33243 158.92 7.5797 167.277 5.60442V5.61986L167.28 5.62157Z" fill="#C5C2C9"/>
<path d="M92.4551 29.0952C93.8712 27.1885 95.2094 25.2423 96.7432 23.4231C97.1886 22.8813 98.1176 22.4818 98.8691 22.4132C103.91 21.8988 108.954 21.4941 114.055 21.0432C113.457 24.8514 110.116 28.2533 106.741 28.591C102.177 29.0489 97.6033 29.4072 93.0437 29.8136L92.4642 29.102L92.4533 29.0952H92.4551Z" fill="#C5C2C9"/>
<path d="M109.645 13.6324C113.971 13.3272 118.911 16.2678 124.023 22.4509C120.4 26.4477 118.835 32.1901 113.115 35.093C110.853 30.069 109.079 18.4077 109.645 13.6324Z" fill="#C5C2C9"/>
<path d="M86.5899 27.9942C92.5493 18.5688 94.0269 16.8336 97.2846 15.5476C99.2458 18.9889 101.178 29.798 100.997 36.4149C96.8663 37.2979 91.4103 34.1344 86.5863 27.9754L86.5899 27.9959V27.9942Z" fill="#C5C2C9"/>
<path d="M258.37 45.7601C261.959 48.8876 265.614 51.9586 269.12 55.1667C270.15 56.1234 270.912 57.4146 271.573 58.6748C272.14 59.7859 271.899 60.7856 270.747 61.7218C267.28 64.5784 263.788 67.4384 260.603 70.5574C257.78 73.3282 254.412 75.1475 250.788 76.6187C247.726 77.8669 244.447 77.6474 241.709 76.1574C237.49 73.8735 233.41 71.2844 229.615 68.4158C226.435 66.0067 225.341 62.4779 226.351 58.6354C227.078 55.9023 227.704 53.0782 229.013 50.6006C231.197 46.4631 233.812 42.5348 236.362 38.5791C238 36.0123 238.701 35.8271 241.738 36.7822C247.913 38.7249 252.985 42.4251 258.39 45.7361L258.37 45.7618V45.7601ZM240.603 44.6936C239.065 46.626 237.79 48.2806 236.461 49.8976C233.329 53.7006 232.698 58.0559 233.059 62.6957C233.756 71.8159 243.871 75.3172 250.834 71.0975C255.462 68.282 258.644 64.1514 262.546 60.3723L240.592 44.7073L240.603 44.6936ZM264.185 57.4814C265.072 55.6708 264.645 54.2768 263.412 53.416C258.178 49.7827 252.887 46.2488 247.529 42.7698C246.801 42.2914 245.722 42.3085 244.802 42.0959C250.428 48.2909 256.81 53.2686 264.194 57.4677L264.183 57.4814H264.185Z" fill="#C5C2C9"/>
<path d="M193.746 23.9823C196.17 23.5828 198.572 23.1027 201.014 22.8421C201.735 22.7563 202.689 23.0975 203.271 23.5519C207.218 26.5628 211.088 29.6544 215.032 32.751C211.767 35.0435 206.863 35.2115 204.223 33.1917C200.656 30.4602 197.152 27.6499 193.624 24.8859L193.746 23.996V23.9823Z" fill="#C5C2C9"/>
<path d="M217.449 24.5565C220.736 27.2365 222.033 32.6222 221.031 40.4187C215.483 40.8183 210.09 43.8326 203.877 42.0545C206.03 36.9877 213.484 27.5554 217.449 24.5565Z" fill="#C5C2C9"/>
<path d="M190.419 19.2756C201.672 16.6007 204.013 16.3641 207.278 17.6346C206.095 21.3811 199.39 30.3179 194.32 34.8754C190.74 32.7338 189.244 26.8457 190.434 19.2584L190.421 19.2756H190.419Z" fill="#C5C2C9"/>
<path d="M298.621 146.854C298.824 151.468 299.114 156.087 299.197 160.701C299.21 162.068 298.786 163.493 298.314 164.825C297.884 165.989 296.968 166.535 295.456 166.427C290.871 166.125 286.266 165.809 281.685 165.881C277.619 165.95 273.88 164.981 270.217 163.596C267.12 162.428 264.965 160.077 264.141 157.19C262.863 152.751 261.911 148.188 261.371 143.618C260.922 139.786 262.783 136.557 266.367 134.517C268.922 133.07 271.474 131.492 274.25 130.618C278.882 129.155 283.666 128.126 288.423 127.038C291.498 126.319 292.133 126.659 293.567 129.366C296.483 134.874 297.307 140.887 298.656 146.847L298.621 146.852V146.854ZM286.853 134.201C284.323 134.538 282.186 134.855 280.039 135.109C274.985 135.7 271.285 138.358 268.075 141.88C261.757 148.795 266.295 158.044 274.369 159.722C279.745 160.832 285.08 160.04 290.661 159.981L286.835 134.205H286.851L286.853 134.201ZM293.978 159.035C295.958 158.347 296.698 157.077 296.468 155.641C295.481 149.568 294.379 143.526 293.189 137.48C293.031 136.653 292.256 135.944 291.764 135.177C291.116 143.325 291.911 151.118 293.997 159.031H293.98L293.978 159.035Z" fill="#C5C2C9"/>
<path d="M269.186 88.1838C271.2 89.5247 273.255 90.7918 275.177 92.2441C275.749 92.6659 276.171 93.5455 276.243 94.2571C276.786 99.0307 277.214 103.806 277.69 108.636C273.668 108.07 270.075 104.907 269.719 101.711C269.235 97.3897 268.857 93.0586 268.428 88.7411L269.179 88.1924L269.186 88.1821V88.1838Z" fill="#C5C2C9"/>
<path d="M285.518 104.461C285.841 108.557 282.735 113.235 276.205 118.075C271.984 114.644 265.92 113.163 262.854 107.746C268.16 105.605 280.475 103.924 285.518 104.461Z" fill="#C5C2C9"/>
<path d="M270.351 82.6283C280.305 88.2712 282.137 89.6704 283.496 92.755C279.861 94.612 268.446 96.4415 261.458 96.2701C260.525 92.3589 263.866 87.1927 270.371 82.6249L270.349 82.6283H270.351Z" fill="#C5C2C9"/>
<path d="M251.589 245.287C248.286 248.685 245.043 252.145 241.655 255.465C240.644 256.44 239.281 257.162 237.95 257.788C236.776 258.325 235.721 258.097 234.732 257.006C231.715 253.723 228.695 250.417 225.401 247.401C222.474 244.728 220.553 241.538 218.999 238.107C217.681 235.208 217.913 232.103 219.486 229.51C221.899 225.515 224.633 221.652 227.662 218.058C230.207 215.047 233.933 214.012 237.991 214.968C240.878 215.656 243.86 216.249 246.477 217.489C250.846 219.557 254.995 222.033 259.173 224.447C261.883 225.999 262.079 226.662 261.07 229.538C259.019 235.385 255.111 240.187 251.614 245.306L251.587 245.287H251.589ZM252.715 228.463C250.674 227.007 248.927 225.8 247.219 224.541C243.203 221.575 238.603 220.978 233.703 221.319C224.072 221.979 220.374 231.557 224.83 238.15C227.804 242.533 232.166 245.546 236.157 249.241L252.701 228.452L252.715 228.463ZM239.21 250.792C241.122 251.633 242.594 251.228 243.504 250.06C247.341 245.105 251.073 240.095 254.747 235.021C255.252 234.332 255.234 233.31 255.459 232.439C248.916 237.766 243.659 243.809 239.225 250.801L239.21 250.791V250.792Z" fill="#C5C2C9"/>
<path d="M274.588 184.094C275.01 186.39 275.517 188.664 275.792 190.977C275.883 191.659 275.523 192.563 275.043 193.113C271.863 196.851 268.598 200.516 265.328 204.25C262.906 201.159 262.729 196.515 264.862 194.015C267.747 190.637 270.715 187.32 273.634 183.979L274.574 184.094H274.588Z" fill="#C5C2C9"/>
<path d="M273.982 206.539C271.151 209.651 265.463 210.879 257.23 209.931C256.808 204.677 253.624 199.571 255.502 193.688C260.853 195.727 270.814 202.784 273.982 206.539Z" fill="#C5C2C9"/>
<path d="M279.559 180.945C282.384 191.599 282.634 193.816 281.292 196.908C277.335 195.788 267.897 189.439 263.084 184.638C265.346 181.248 271.564 179.832 279.577 180.958L279.559 180.946V180.945Z" fill="#C5C2C9"/>
</svg>
