<svg width="300" height="284" viewBox="0 0 300 284" fill="none" xmlns="http://www.w3.org/2000/svg">
<path d="M144.91 282.939C140.037 283.131 135.159 283.405 130.286 283.484C128.843 283.496 127.338 283.095 125.931 282.648C124.701 282.241 124.126 281.374 124.24 279.942C124.558 275.6 124.892 271.24 124.815 266.902C124.743 263.053 125.766 259.512 127.229 256.043C128.462 253.111 130.945 251.071 133.995 250.29C138.683 249.08 143.501 248.178 148.327 247.667C152.374 247.242 155.784 249.004 157.939 252.398C159.467 254.817 161.133 257.233 162.057 259.862C163.602 264.248 164.688 268.778 165.838 273.282C166.597 276.194 166.238 276.795 163.379 278.153C157.562 280.914 151.212 281.694 144.917 282.972L144.912 282.939H144.91ZM158.271 271.796C157.916 269.4 157.581 267.377 157.313 265.343C156.688 260.558 153.881 257.055 150.162 254.015C142.859 248.032 133.091 252.329 131.318 259.975C130.147 265.066 130.983 270.117 131.045 275.401L158.267 271.778V271.794L158.271 271.796ZM132.046 278.543C132.772 280.417 134.114 281.118 135.63 280.9C142.044 279.966 148.425 278.922 154.81 277.795C155.683 277.646 156.433 276.912 157.242 276.446C148.637 275.832 140.407 276.585 132.05 278.56V278.544L132.046 278.543Z" fill="#D2BEA6"/>
<path d="M206.871 255.068C205.455 256.974 204.117 258.921 202.583 260.74C202.138 261.282 201.209 261.681 200.457 261.75C195.416 262.264 190.373 262.669 185.272 263.12C185.869 259.311 189.21 255.91 192.586 255.572C197.149 255.114 201.723 254.756 206.283 254.349L206.862 255.061L206.873 255.068H206.871Z" fill="#D2BEA6"/>
<path d="M189.679 270.532C185.353 270.837 180.413 267.897 175.301 261.713C178.925 257.717 180.489 251.974 186.21 249.071C188.472 254.095 190.246 265.757 189.679 270.532Z" fill="#D2BEA6"/>
<path d="M212.737 256.17C206.777 265.596 205.3 267.331 202.042 268.617C200.081 265.175 198.149 254.366 198.33 247.749C202.46 246.866 207.916 250.03 212.74 256.189L212.737 256.168V256.17Z" fill="#D2BEA6"/>
<path d="M40.9561 238.405C37.367 235.277 33.7128 232.206 30.207 228.998C29.1766 228.041 28.4143 226.75 27.7533 225.49C27.1865 224.379 27.4274 223.379 28.5791 222.443C32.0468 219.586 35.5381 216.726 38.7233 213.607C41.5464 210.836 44.9145 209.017 48.538 207.546C51.6001 206.298 54.8795 206.517 57.6175 208.007C61.8367 210.291 65.9165 212.88 69.712 215.749C72.8918 218.158 73.9855 221.687 72.9751 225.529C72.249 228.262 71.6224 231.086 70.3132 233.564C68.1293 237.702 65.5145 241.63 62.9648 245.585C61.3261 248.152 60.6253 248.337 57.5885 247.382C51.4136 245.44 46.3415 241.74 40.9361 238.429L40.9561 238.403V238.405ZM58.7239 239.471C60.2613 237.539 61.5361 235.884 62.8653 234.267C65.998 230.464 66.6282 226.109 66.2678 221.469C65.5706 212.349 55.4553 208.847 48.4927 213.067C43.8642 215.883 40.6826 220.013 36.7803 223.792L58.7348 239.457L58.7239 239.471ZM35.1415 226.683C34.2542 228.494 34.6815 229.888 35.9147 230.749C41.148 234.382 46.4392 237.916 51.7975 241.395C52.5254 241.873 53.6047 241.856 54.5246 242.069C48.8983 235.874 42.517 230.896 35.1324 226.697L35.1433 226.683H35.1415Z" fill="#D2BEA6"/>
<path d="M105.581 260.182C103.156 260.582 100.755 261.062 98.3122 261.322C97.5915 261.408 96.6372 261.067 96.0559 260.613C92.1083 257.602 88.2386 254.51 84.2946 251.414C87.5595 249.121 92.4632 248.953 95.1034 250.973C98.6708 253.704 102.175 256.515 105.702 259.279L105.581 260.169V260.182Z" fill="#D2BEA6"/>
<path d="M81.8771 259.608C78.5905 256.928 77.2939 251.542 78.2953 243.746C83.8437 243.346 89.2363 240.332 95.4493 242.11C93.2962 247.177 85.8428 256.609 81.8771 259.608Z" fill="#D2BEA6"/>
<path d="M108.907 264.889C97.6549 267.564 95.3135 267.8 92.0485 266.53C93.231 262.783 99.9365 253.847 105.007 249.289C108.587 251.431 110.083 257.319 108.893 264.906L108.906 264.889H108.907Z" fill="#D2BEA6"/>
<path d="M0.705027 137.31C0.502214 132.696 0.212482 128.077 0.129184 123.463C0.116508 122.096 0.540241 120.671 1.01287 119.339C1.44203 118.175 2.35831 117.63 3.87035 117.738C8.45537 118.039 13.0603 118.355 17.6417 118.283C21.707 118.214 25.4464 119.183 29.1097 120.568C32.2062 121.736 34.3611 124.087 35.185 126.974C36.4634 131.414 37.4159 135.976 37.9555 140.546C38.4046 144.378 36.5431 147.607 32.9595 149.647C30.4044 151.094 27.8529 152.672 25.0769 153.546C20.4449 155.009 15.6606 156.038 10.9036 157.127C7.82882 157.845 7.19322 157.505 5.75905 154.798C2.84361 149.291 2.01969 143.277 0.670621 137.317L0.705027 137.312V137.31ZM12.4736 149.963C15.0033 149.627 17.1401 149.309 19.2877 149.056C24.3418 148.464 28.0413 145.806 31.2519 142.285C37.5698 135.369 33.0319 126.121 24.9574 124.442C19.5811 123.332 14.2464 124.125 8.66542 124.183L12.4917 149.959H12.4754L12.4736 149.963ZM5.34799 125.129C3.36875 125.817 2.62812 127.088 2.8581 128.523C3.845 134.596 4.94779 140.638 6.13751 146.684C6.29505 147.511 7.07008 148.221 7.56263 148.987C8.2109 140.839 7.41595 133.046 5.32988 125.133H5.34618L5.34799 125.129Z" fill="#D2BEA6"/>
<path d="M30.1382 195.981C28.1246 194.64 26.0693 193.373 24.148 191.92C23.5758 191.499 23.1539 190.619 23.0815 189.907C22.5382 185.134 22.1108 180.358 21.6346 175.528C25.6564 176.094 29.2491 179.258 29.6059 182.454C30.0893 186.775 30.4678 191.106 30.897 195.423L30.1455 195.972L30.1382 195.982V195.981Z" fill="#D2BEA6"/>
<path d="M13.8082 179.702C13.4858 175.605 16.5914 170.928 23.1213 166.087C27.3423 169.518 33.4068 171 36.4725 176.416C31.1668 178.558 18.8513 180.238 13.8082 179.702Z" fill="#D2BEA6"/>
<path d="M28.9756 201.534C19.0215 195.891 17.189 194.492 15.8308 191.408C19.4652 189.551 30.8806 187.721 37.8686 187.893C38.8012 191.804 35.4602 196.97 28.9557 201.538L28.9774 201.534H28.9756Z" fill="#D2BEA6"/>
<path d="M47.7376 38.8775C51.0405 35.479 54.2837 32.0189 57.6718 28.6993C58.6822 27.7237 60.0458 27.0018 61.3767 26.376C62.5502 25.8393 63.6059 26.0673 64.5946 27.1578C67.6114 30.4414 70.6319 33.7472 73.9258 36.7633C76.8521 39.4365 78.7734 42.6257 80.3271 46.0567C81.6453 48.9562 81.4135 52.0614 79.8399 54.654C77.4279 58.6491 74.6936 62.5122 71.6641 66.1061C69.1198 69.117 65.3932 70.1527 61.3351 69.1959C58.4486 68.5083 55.4662 67.9151 52.8496 66.6754C48.48 64.6075 44.3314 62.1316 40.1539 59.7173C37.443 58.1656 37.2475 57.502 38.2561 54.6265C40.3078 48.7796 44.2155 43.9768 47.7122 38.8586L47.7394 38.8775H47.7376ZM46.6113 55.7016C48.6521 57.1574 50.3995 58.3645 52.1071 59.623C56.1235 62.5894 60.723 63.1861 65.6231 62.8448C75.2549 62.1847 78.9526 52.6067 74.4962 46.0138C71.5228 41.6312 67.1605 38.6186 63.1695 34.9235L46.6257 55.7119L46.6113 55.7016ZM60.1164 33.3717C58.2042 32.5316 56.732 32.9362 55.8229 34.1039C51.9858 39.0592 48.2537 44.0694 44.5795 49.1431C44.0743 49.8324 44.0924 50.8543 43.8679 51.7253C50.4104 46.3979 55.6672 40.3555 60.1019 33.3632L60.1164 33.3735V33.3717Z" fill="#D2BEA6"/>
<path d="M24.7383 100.07C24.3164 97.7739 23.8094 95.5003 23.5341 93.1872C23.4436 92.5048 23.8039 91.6012 24.2838 91.0508C27.4636 87.3128 30.7285 83.6486 33.9989 79.9141C36.42 83.0056 36.5974 87.6489 34.4643 90.1489C31.5796 93.5267 28.6117 96.8446 25.6926 100.185L24.7528 100.07H24.7383Z" fill="#D2BEA6"/>
<path d="M25.3449 77.6251C28.1753 74.513 33.8631 73.2853 42.0969 74.2335C42.5188 79.4872 45.7023 84.5935 43.8244 90.4764C38.4734 88.4377 28.5121 81.3802 25.3449 77.6251Z" fill="#D2BEA6"/>
<path d="M19.7676 103.22C16.9427 92.5649 16.6928 90.3478 18.0346 87.2563C21.9913 88.376 31.4293 94.7253 36.2425 99.5263C33.9808 102.916 27.7624 104.333 19.7495 103.206L19.7676 103.218V103.22Z" fill="#D2BEA6"/>
<path d="M154.502 0.764271C159.375 0.57223 164.253 0.297886 169.126 0.219013C170.57 0.20701 172.074 0.608238 173.481 1.05576C174.711 1.46213 175.287 2.32975 175.173 3.76148C174.854 8.10297 174.521 12.4633 174.597 16.8014C174.669 20.6508 173.646 24.1915 172.183 27.6603C170.95 30.5923 168.467 32.6328 165.418 33.4129C160.73 34.6235 155.911 35.5254 151.085 36.0363C147.038 36.4616 143.628 34.6989 141.473 31.3056C139.945 28.8862 138.279 26.4703 137.355 23.8417C135.811 19.4557 134.724 14.9256 133.574 10.4212C132.816 7.5097 133.174 6.90786 136.034 5.54986C141.85 2.78927 148.2 2.00911 154.495 0.731693L154.5 0.764271H154.502ZM141.14 11.9078C141.495 14.3031 141.83 16.3264 142.098 18.36C142.723 23.1456 145.529 26.6486 149.249 29.6887C156.552 35.6711 166.32 31.3742 168.092 23.7286C169.264 18.6378 168.427 13.5864 168.366 8.30187L141.144 11.9249V11.9095L141.14 11.9078ZM167.366 5.16063C166.64 3.28652 165.298 2.58523 163.783 2.80299C157.369 3.73747 150.987 4.7817 144.602 5.90822C143.73 6.05739 142.98 6.79126 142.17 7.25765C150.775 7.87149 159.006 7.11876 167.363 5.14349V5.15892L167.366 5.16063Z" fill="#D2BEA6"/>
<path d="M92.5411 28.6342C93.9571 26.7275 95.2953 24.7814 96.8291 22.9622C97.2746 22.4203 98.2035 22.0208 98.955 21.9522C103.996 21.4378 109.04 21.0332 114.141 20.5822C113.543 24.3905 110.202 27.7923 106.827 28.1301C102.263 28.5879 97.6893 28.9463 93.1296 29.3527L92.5501 28.6411L92.5393 28.6342H92.5411Z" fill="#D2BEA6"/>
<path d="M109.731 13.1715C114.057 12.8663 118.997 15.8069 124.109 21.9899C120.486 25.9868 118.921 31.7291 113.201 34.632C110.939 29.6081 109.164 17.9468 109.731 13.1715Z" fill="#D2BEA6"/>
<path d="M86.6758 27.5333C92.6353 18.1079 94.1129 16.3726 97.3706 15.0866C99.3317 18.5279 101.264 29.3371 101.083 35.9539C96.9523 36.837 91.4962 33.6734 86.6722 27.5144L86.6758 27.535V27.5333Z" fill="#D2BEA6"/>
<path d="M258.456 45.2992C262.045 48.4267 265.7 51.4976 269.205 54.7057C270.236 55.6625 270.998 56.9536 271.659 58.2139C272.226 59.325 271.985 60.3246 270.833 61.2608C267.366 64.1174 263.874 66.9775 260.689 70.0964C257.866 72.8673 254.498 74.6865 250.874 76.1577C247.812 77.406 244.533 77.1865 241.795 75.6965C237.576 73.4126 233.496 70.8234 229.7 67.9548C226.521 65.5457 225.427 62.017 226.437 58.1745C227.163 55.4413 227.79 52.6173 229.099 50.1396C231.283 46.0022 233.898 42.0739 236.448 38.1182C238.086 35.5514 238.787 35.3662 241.824 36.3213C247.999 38.264 253.071 41.9642 258.476 45.2752L258.456 45.3009V45.2992ZM240.689 44.2327C239.151 46.1651 237.876 47.8197 236.547 49.4366C233.414 53.2397 232.784 57.5949 233.145 62.2348C233.842 71.355 243.957 74.8563 250.92 70.6365C255.548 67.8211 258.73 63.6905 262.632 59.9114L240.678 44.2464L240.689 44.2327ZM264.271 57.0205C265.158 55.2098 264.731 53.8158 263.498 52.9551C258.264 49.3217 252.973 45.7878 247.615 42.3088C246.887 41.8304 245.808 41.8476 244.888 41.635C250.514 47.83 256.895 52.8076 264.28 57.0068L264.269 57.0205H264.271Z" fill="#D2BEA6"/>
<path d="M193.832 23.5214C196.256 23.1218 198.657 22.6417 201.1 22.3811C201.821 22.2954 202.775 22.6366 203.357 23.091C207.304 26.1019 211.174 29.1934 215.118 32.2901C211.853 34.5826 206.949 34.7506 204.309 32.7307C200.742 29.9993 197.238 27.189 193.71 24.425L193.832 23.5351V23.5214Z" fill="#D2BEA6"/>
<path d="M217.535 24.0956C220.822 26.7756 222.119 32.1613 221.117 39.9578C215.569 40.3573 210.176 43.3717 203.963 41.5936C206.116 36.5268 213.57 27.0945 217.535 24.0956Z" fill="#D2BEA6"/>
<path d="M190.505 18.8146C201.758 16.1398 204.099 15.9031 207.364 17.1737C206.181 20.9202 199.476 29.857 194.406 34.4145C190.826 32.2729 189.33 26.3848 190.52 18.7975L190.507 18.8146H190.505Z" fill="#D2BEA6"/>
<path d="M298.707 146.393C298.91 151.007 299.2 155.626 299.283 160.24C299.296 161.607 298.872 163.032 298.4 164.364C297.97 165.528 297.054 166.074 295.542 165.966C290.957 165.664 286.352 165.348 281.771 165.42C277.705 165.489 273.966 164.52 270.303 163.135C267.206 161.967 265.051 159.616 264.227 156.729C262.949 152.29 261.996 147.727 261.457 143.157C261.008 139.325 262.869 136.096 266.453 134.056C269.008 132.609 271.559 131.031 274.335 130.157C278.968 128.694 283.752 127.666 288.509 126.577C291.584 125.858 292.219 126.198 293.653 128.905C296.569 134.413 297.393 140.426 298.742 146.386L298.707 146.391V146.393ZM286.939 133.741C284.409 134.077 282.272 134.394 280.125 134.648C275.071 135.239 271.371 137.897 268.161 141.419C261.843 148.334 266.38 157.583 274.455 159.261C279.831 160.371 285.166 159.579 290.747 159.52L286.921 133.744H286.937L286.939 133.741ZM294.064 158.574C296.044 157.886 296.784 156.616 296.554 155.181C295.567 149.107 294.465 143.065 293.275 137.019C293.117 136.192 292.342 135.483 291.85 134.716C291.201 142.864 291.996 150.657 294.083 158.57H294.066L294.064 158.574Z" fill="#D2BEA6"/>
<path d="M269.272 87.7229C271.286 89.0637 273.341 90.3308 275.263 91.7832C275.835 92.205 276.257 93.0846 276.329 93.7961C276.872 98.5697 277.3 103.345 277.776 108.175C273.754 107.609 270.161 104.446 269.805 101.25C269.321 96.9288 268.943 92.5976 268.514 88.2801L269.265 87.7314L269.272 87.7211V87.7229Z" fill="#D2BEA6"/>
<path d="M285.604 104C285.927 108.096 282.821 112.774 276.291 117.614C272.07 114.183 266.006 112.702 262.94 107.285C268.246 105.144 280.561 103.463 285.604 104Z" fill="#D2BEA6"/>
<path d="M270.437 82.1674C280.391 87.8103 282.223 89.2094 283.581 92.2941C279.947 94.151 268.532 95.9806 261.544 95.8091C260.611 91.898 263.952 86.7318 270.457 82.1639L270.435 82.1674H270.437Z" fill="#D2BEA6"/>
<path d="M251.675 244.826C248.372 248.224 245.129 251.684 241.741 255.004C240.73 255.98 239.367 256.701 238.036 257.327C236.862 257.864 235.807 257.636 234.818 256.545C231.801 253.262 228.78 249.956 225.487 246.94C222.56 244.267 220.639 241.078 219.085 237.647C217.767 234.747 217.999 231.642 219.572 229.049C221.984 225.054 224.719 221.191 227.748 217.597C230.293 214.586 234.019 213.551 238.077 214.507C240.964 215.195 243.946 215.788 246.563 217.028C250.932 219.096 255.081 221.572 259.259 223.986C261.969 225.538 262.165 226.201 261.156 229.077C259.105 234.924 255.197 239.726 251.7 244.845L251.673 244.826H251.675ZM252.801 228.002C250.76 226.546 249.013 225.339 247.305 224.08C243.289 221.114 238.689 220.517 233.789 220.858C224.157 221.519 220.46 231.097 224.916 237.689C227.89 242.072 232.252 245.085 236.243 248.78L252.787 227.991L252.801 228.002ZM239.296 250.332C241.208 251.172 242.68 250.767 243.589 249.599C247.427 244.644 251.159 239.634 254.833 234.56C255.338 233.871 255.32 232.849 255.545 231.978C249.002 237.305 243.745 243.348 239.31 250.34L239.296 250.33V250.332Z" fill="#D2BEA6"/>
<path d="M274.674 183.633C275.096 185.929 275.603 188.203 275.878 190.516C275.969 191.198 275.608 192.102 275.129 192.652C271.949 196.39 268.684 200.055 265.413 203.789C262.992 200.698 262.815 196.054 264.948 193.554C267.833 190.176 270.801 186.859 273.72 183.518L274.66 183.633H274.674Z" fill="#D2BEA6"/>
<path d="M274.068 206.078C271.237 209.19 265.549 210.418 257.316 209.47C256.894 204.216 253.71 199.11 255.588 193.227C260.939 195.266 270.9 202.323 274.068 206.078Z" fill="#D2BEA6"/>
<path d="M279.645 180.484C282.47 191.138 282.72 193.356 281.378 196.447C277.421 195.327 267.983 188.978 263.17 184.177C265.432 180.787 271.65 179.371 279.663 180.497L279.645 180.485V180.484Z" fill="#D2BEA6"/>
</svg>
