<svg width="170" height="111" viewBox="0 0 170 111" fill="none" xmlns="http://www.w3.org/2000/svg">
<path d="M169.878 31.2191L169.925 30.9738H169.851L169.897 30.7097H169.823L169.869 30.4549H169.795L169.841 30.1907H169.767L169.813 29.936H169.748L169.795 29.6718H169.72L169.767 29.4171H169.692L169.739 29.1623H169.664L169.711 28.8981H169.636L169.683 28.6434H169.617L169.664 28.3792H169.589L169.636 28.1245H169.561L169.608 27.8603H169.534L169.58 27.6056H169.506L169.552 27.3414L10.4958 4.36719L9.46094 78.7054H9.48891V78.9696H9.51688V79.2243H9.54485V79.4885H9.57282V79.7433H9.59146V80.0074H9.61943V80.2622H9.6474V80.5264H9.67537V80.7811H9.70334V81.0359H9.72199V81.3H9.74996V81.5548H9.77793V81.819H9.8059V82.0737H9.83387V82.3379H9.86184V82.5926L71.023 87.3007C67.7225 96.2073 59.2849 103.604 59.1824 103.699L56.0217 106.435H56.3481L56.059 106.699H56.3481L56.0684 106.954H56.3947L56.1057 107.218H56.4133L56.1336 107.473H56.432L56.1429 107.737H56.4693L56.1802 108.001H56.4879L56.1989 108.265H56.5066L56.2269 108.52H56.5345L56.2548 108.775H56.5718L56.2828 109.039H56.5811L56.3014 109.294H56.6091L56.3201 109.558H56.6464L56.3574 109.822H56.6744L56.3854 110.086H56.6744L56.3947 110.341L60.5529 110.52C86.1735 111.634 93.5296 95.9148 95.1891 91.0275L157.488 96.0186L170 31.1814H169.925L169.878 31.2191Z" fill="#21201E"/>
<path d="M52.7775 104.619C52.7775 104.619 66.4468 92.9245 67.4416 80.2445L0.121094 75.1248L1.17936 0L168.001 23.7643L155.245 89.1199L88.5797 83.8464C88.5797 83.8464 84.002 105.959 52.7848 104.62L52.7775 104.619Z" fill="#2E3D98"/>
<path d="M34.8915 34.1755L33.1702 36.2308C32.746 35.7036 31.6009 34.9747 30.8078 34.8063L32.5019 32.7481C33.4435 33.07 34.2344 33.5131 34.8915 34.1755ZM31.0096 34.0856L29.2747 36.1394C28.8368 35.6107 27.6903 34.8954 26.9122 34.7149L28.6049 32.6703C29.5479 32.9786 30.3373 33.4353 31.0096 34.0856ZM27.603 42.3118C27.5368 42.9235 27.9982 43.7435 30.3225 43.9949C30.8662 44.0538 32.1983 44.1979 33.0241 44.191C32.8373 42.7406 32.0663 40.8419 30.2721 40.6478C28.6953 40.4772 27.6618 41.7681 27.603 42.3118ZM32.7277 48.2019L30.6345 47.9754C27.1004 47.5931 25.7049 46.3832 26.0504 43.189C26.3445 40.4704 28.2397 37.4438 31.0941 37.7527C33.7854 38.0438 34.6985 41.0442 34.6295 44.3509L36.1927 44.52C36.4781 44.5509 36.553 44.8753 36.5045 45.3238C36.378 46.4928 35.4054 48.4916 34.8074 48.4269L34.1277 48.3534C33.2671 51.9869 30.4741 55.1777 24.6565 54.5483C20.0622 54.0512 18.6796 51.0688 19.0679 47.4804C19.2311 45.9716 19.6636 44.6432 20.3422 43.3277L21.5597 43.0056C21.3304 43.5997 20.8928 44.7212 20.7869 45.6999C20.5487 47.9019 21.5573 50.0187 25.9205 50.4908C30.7323 51.0114 32.6692 48.8694 32.7222 48.3801C32.7145 48.3242 32.7218 48.2563 32.7277 48.2019Z" fill="#E8DFCE"/>
<path d="M44.7288 45.4435C45.0006 45.4729 45.0756 45.7973 45.027 46.2459C44.9006 47.4148 43.928 49.4136 43.3435 49.3504C40.8697 49.0828 39.9991 47.7234 39.753 46.6929C39.1093 47.5584 37.8113 48.7519 34.8346 48.4298C34.5627 48.4004 34.4863 48.0896 34.5348 47.6411C34.6613 46.4721 35.6354 44.4597 36.2199 44.523C39.0471 44.8288 40.0516 43.9336 40.6711 42.0204L41.7501 41.8346C41.6737 42.0326 41.5755 42.5583 41.5608 42.6942C41.3667 44.4885 42.6899 45.2229 44.7288 45.4435ZM43.0243 52.8088L41.3031 54.8641C40.8788 54.3369 39.7338 53.6079 38.9406 53.4396L40.6347 51.3814C41.5763 51.7033 42.3672 52.1464 43.0243 52.8088ZM39.1424 52.7188L37.4075 54.7727C36.9696 54.244 35.8231 53.5286 35.045 53.3482L36.7377 51.3035C37.6807 51.6118 38.4701 52.0685 39.1424 52.7188Z" fill="#E8DFCE"/>
<path d="M53.2377 46.3641C53.5096 46.3935 53.5845 46.7179 53.536 47.1665C53.4095 48.3354 52.4369 50.3342 51.8524 50.271C49.3786 50.0033 48.508 48.644 48.262 47.6135C47.6183 48.479 46.3203 49.6724 43.3435 49.3504C43.0717 49.321 42.9953 49.0102 43.0438 48.5616C43.1703 47.3927 44.1443 45.3803 44.7288 45.4435C47.556 45.7494 48.5605 44.8542 49.18 42.941L50.259 42.7552C50.1826 42.9532 50.0845 43.4789 50.0698 43.6148C49.8756 45.409 51.1989 46.1435 53.2377 46.3641ZM49.5105 53.8681L47.6162 56.1247C47.1721 55.5266 45.9679 54.7087 45.1641 54.5117L46.9935 52.2206C48.0136 52.5785 48.8365 53.1076 49.5105 53.8681Z" fill="#E8DFCE"/>
<path d="M65.7878 46.0304C65.8496 45.4595 65.3347 43.8636 63.3094 43.6445C60.8084 43.374 58.237 44.8972 56.1888 46.6696C56.6193 46.7575 57.5271 46.8832 58.7232 47.0126C63.6166 47.542 65.7261 46.6013 65.7878 46.0304ZM55.3766 45.6604C55.5236 45.3188 55.635 44.6707 55.76 43.5154C55.9761 41.5172 56.2638 36.5703 56.3226 36.0266C56.4285 35.0479 57.5248 34.0664 58.4959 32.59L59.1355 32.3979C59.0635 32.5551 58.9885 33.2484 58.9135 33.9416C58.737 35.5727 58.6163 38.2137 58.4163 40.0623C58.2398 41.6934 58.0197 42.8385 57.7143 43.7543C60.2351 41.4279 62.3714 40.3664 64.6413 40.612C66.9385 40.8605 67.9839 42.6376 67.7854 44.4726C67.6883 45.3697 67.3212 46.3476 66.8601 47.1778C67.5852 47.8476 69.8207 48.1582 70.31 48.2111L70.378 48.2185C70.6498 48.2479 70.7247 48.5723 70.6762 49.0208C70.5497 50.1898 69.5771 52.1886 68.9927 52.1254L68.7208 52.0959C66.8178 51.8901 65.1982 50.9722 64.6733 49.5953C62.8184 50.8523 60.2798 51.1827 56.3516 50.7577L51.8524 50.271C51.5806 50.2416 51.5057 49.9172 51.5527 49.4822C51.6792 48.3132 52.6533 46.3009 53.2377 46.3641L53.6999 46.4141C54.7465 46.5273 55.2043 46.1093 55.3766 45.6604Z" fill="#E8DFCE"/>
<path d="M78.9352 41.8284L77.2139 43.8837C76.7897 43.3565 75.6446 42.6275 74.8515 42.4592L76.5456 40.401C77.4872 40.7229 78.2781 41.166 78.9352 41.8284ZM75.0533 41.7385L73.3184 43.7923C72.8805 43.2636 71.734 42.5482 70.9559 42.3678L72.6486 40.3232C73.5916 40.6315 74.381 41.0882 75.0533 41.7385ZM78.9005 49.1405C79.1723 49.1699 79.2473 49.4943 79.1987 49.9429C79.0723 51.1119 78.0997 53.1106 77.5152 53.0474C75.0413 52.7798 74.1708 51.4204 73.9247 50.3899C73.281 51.2554 71.983 52.4489 69.0062 52.1268C68.7344 52.0974 68.658 51.7866 68.7065 51.3381C68.833 50.1691 69.8071 48.1567 70.3915 48.22C73.2188 48.5258 74.2233 47.6306 74.8428 45.7174L75.9218 45.5316C75.8453 45.7296 75.7472 46.2553 75.7325 46.3913C75.5384 48.1855 76.8616 48.9199 78.9005 49.1405Z" fill="#E8DFCE"/>
<path d="M78.9005 49.1405L78.9549 49.1464C81.3743 49.4082 82.0015 48.5684 82.0368 48.2422C82.1515 47.182 82.4556 39.5414 82.5056 39.0793C82.5497 38.6715 82.6937 38.3571 82.8921 38.0485C83.2198 37.5614 83.9833 36.3513 84.5679 35.397L85.2696 35.2666C85.1895 35.753 85.1317 36.1593 85.0847 36.5942C84.9097 38.2118 84.7764 41.7315 84.5294 44.0151C84.2823 46.2986 83.9321 47.8834 83.5782 48.739C82.743 50.7389 80.9269 53.4165 77.5288 53.0489C77.2569 53.0195 77.1699 52.68 77.2169 52.245C77.3434 51.0761 78.3296 49.0788 78.9005 49.1405Z" fill="#E8DFCE"/>
<path d="M90.8003 35.8787C90.6988 36.3078 90.6353 36.7685 90.5558 37.5025C90.2823 40.0307 89.9167 45.6981 89.7344 47.3835C89.2594 51.7739 88.0414 53.4986 87.3367 54.6738L86.5127 54.7909C86.7195 54.277 86.8769 52.8226 86.9754 51.9119C87.0578 51.1507 87.747 40.9665 87.8897 39.6481C87.9764 38.8461 88.9728 37.7712 90.0942 36.0498L90.8003 35.8787Z" fill="#E8DFCE"/>
<path d="M113.711 52.9067C113.983 52.9361 114.058 53.2605 114.009 53.709C113.884 54.8644 112.897 56.8753 112.326 56.8135C111.034 56.6738 110.299 56.0992 109.836 55.2928C109.373 56.9066 108.644 58.5604 107.743 59.7694C106.842 60.9783 104.532 62.3785 101.432 62.0433C97.8304 61.6536 96.8134 59.2332 97.1178 56.4196C97.2795 54.9244 97.7929 53.3572 98.6203 51.8103L99.8363 51.5018C99.3487 52.5767 98.9681 53.5531 98.871 54.4503C98.7019 56.0134 99.3689 57.4745 102.509 57.8142C106.029 58.1951 107.849 56.6317 107.904 56.1152C108.106 54.253 108.785 42.6375 108.872 41.8356C108.914 41.4414 109.063 41.0862 109.329 40.6611C109.79 39.9547 110.284 39.4581 111.027 38.3145L111.736 38.1162C111.661 38.4244 111.583 38.8972 111.516 39.5089C111.312 41.3982 111.095 44.799 110.843 48.9109C110.665 51.697 111.183 52.6331 113.711 52.9067Z" fill="#E8DFCE"/>
<path d="M118.335 52.7468C119.22 53.8465 121.635 54.7816 122.995 54.9287C123.158 54.9463 123.263 54.8615 123.281 54.6983C123.399 53.6109 122.244 50.5569 120.762 50.3966C119.879 50.301 118.587 52.1965 118.335 52.7468ZM113.725 52.9081C116.158 53.1714 116.913 52.4143 117.904 50.885C119.212 48.8399 120.367 47.5623 121.917 47.73C123.168 47.8653 123.982 48.9847 125.131 51.3231C126.383 53.865 127.073 54.3522 129.111 54.5728C129.397 54.6037 129.458 54.9266 129.41 55.3752C129.283 56.5441 128.311 58.5429 127.726 58.4797C126.149 58.3091 124.869 57.3042 124.263 55.6573C123.644 57.0617 122.72 58.2269 121.647 58.1107C120.138 57.9475 117.887 57.0164 116.602 55.5435C115.618 56.6334 114.405 57.0385 112.353 56.8165C112.081 56.787 111.991 56.4748 112.04 56.0262C112.166 54.8573 113.154 52.8464 113.725 52.9081Z" fill="#E8DFCE"/>
<path d="M131.104 52.8081L130.277 52.0586C131.217 49.2175 132.509 48.0783 134.14 48.2548C136.492 48.5092 140.212 50.9882 143.849 51.6842L142.174 54.4596C141.774 54.3475 141.586 54.2997 141.409 54.2806C140.404 54.1718 139.246 55.3392 136.573 56.7828C133.931 58.2021 131.192 58.8547 128.039 58.5135L127.74 58.4811C127.468 58.4517 127.379 58.1259 127.428 57.6773C127.553 56.5219 128.541 54.511 129.125 54.5743L129.492 54.614C133.692 55.0684 137.226 54.3093 139.108 53.4403C137.193 52.8343 134.717 51.4389 133.181 51.2727C132.203 51.1668 131.468 51.7336 131.104 52.8081Z" fill="#E8DFCE"/>
</svg>
