<?xml version="1.0" encoding="utf-8"?>
<!-- Generator: Adobe Illustrator 26.0.1, SVG Export Plug-In . SVG Version: 6.00 Build 0)  -->
<svg version="1.1" id="GeorgeSamuel.me" xmlns="http://www.w3.org/2000/svg" xmlns:xlink="http://www.w3.org/1999/xlink" x="0px"
	 y="0px" viewBox="0 0 512 512" style="enable-background:new 0 0 512 512;" xml:space="preserve">
<style type="text/css">
	.st0{fill:#FFFFFF;}
</style>
<g id="www.GeorgeSamuel.me">
	<rect class="st0" width="512" height="512"/>
	<circle class="st0" cx="256" cy="256" r="256"/>
	<path id="Path_3902" d="M45.2,251.8c0.1-2.4,0.3-4.9,0.5-7.3c1.6-18.8,5.6-37.3,12.3-55C86.3,115.2,159.4,60.3,238.6,53.1
		s160.6,32.9,203.8,99.6c-1.5,1.5-3,2.9-4.4,4.4c-41.6-65-120.4-104.4-197.2-97.9S92.6,118.4,64.6,190.2S53.7,349.6,107.5,405
		c7.1,7.3,17.9,14.5,26.7,9.2c11.1-6.7,5.2-23.8,8.8-36.2c2.4-8,9.6-14.4,17.8-15.8c8.3-1.3,17.1,2.4,21.9,9.3
		c5.9,8.5,5.3,19.7,4.5,30c-0.5,6.3,1.6,15.2,7.8,14.4c5.3-0.6,6.5-7.7,6.3-13c-0.4-10.7-0.7-21.4-1.1-32c-0.1-4.2,2.4-10.2,6.1-8.2
		c1.9,1,2.1,3.5,2.1,5.7c0,5.2,0,10.3,0,15.5c6.3-13,20-22,34.4-22.5c5.9-0.2,11.9,0.9,17,3.8c8.9,5.2,14,15.4,15.4,25.7
		s-0.3,20.6-2,30.8c-24.6,0.3-49.1,0.6-73.7,0.9c-4.2,0-8.5,0.1-12.2-1.9c-9-4.8-8.8-17.5-8.3-27.7c0.5-10.2-2.5-23.5-12.7-24.6
		c-9.6-1.1-15.8,10.3-16.7,19.9c-0.9,9.6,0.3,20.4-5.8,28c-4.8,5.9-13.3,8-20.8,6.5c-9.1-1.9-15.1-8-21.2-14.5
		c-5.8-6.2-11.3-12.6-16.3-19.5c-10-13.7-18.2-28.6-24.6-44.3C49.1,315.1,43.7,283.3,45.2,251.8z M238,415.1L238,415.1
		c9.2,0,18.3,0,27.5,0c1.5,0,2-0.6,1.9-1.9c-0.5-8,0.7-16.1-0.7-24.1c-0.4-3.1-1.1-6.1-2.2-9c-1.5-4.2-4.7-7.6-8.8-9.5
		c-2.9-1.2-6-1.8-9.1-1.7c-3,0-6,0.3-9,0.7c-3.4,0.4-6.7,1.4-9.7,2.9c-5.9,3.4-10.7,8.5-13.7,14.6c-2.2,4.4-3.6,9.1-4.2,13.9
		c-0.4,4.1-0.9,8.1-1.3,12.1c-0.1,1.3,0.3,2,1.8,2C219.6,415,228.8,415.1,238,415.1z"/>
	<path id="Path_3904" d="M422.8,322.7c-12.6,0-25.1,0-37.7,0c-1.2-0.1-2.2,0.6-2.7,1.7c-1.5,3.2-3.3,6.2-5.2,9.2
		c-1.8,2.1-3.8,3.9-5.9,5.6c-0.5,0.4-1.1,0.7-1.5,1.2c-0.9,1.5-1.7,1.3-2.7,0c-0.9-1.1-1.9-2.1-2.9-3.1c-0.7-0.7-0.6-1.3,0.2-1.9
		c3.7-2.9,6.9-6.5,9.3-10.6c0.9-1.5,0.5-2-1.1-2c-7.8,0.2-15.3-2.8-20.7-8.4c-5.4-5.3-8.8-12.2-9.8-19.6c-1.1-6.2-0.5-12.6,1.8-18.4
		c3.5-8.2,9.4-13.4,19.1-13c2.6,0,5.1,0.2,7.6,0.5c6.1,1,10,5,13,10.1c1.6,3.3,2.7,6.7,3.3,10.3c1.4,5.2,0.7,10.5,0.7,15.8
		c-0.1,2.9-0.5,5.9-1,8.7c-0.3,1.9-0.7,3.8-1,5.7c-0.1,1.1,0.5,1.3,1.5,1.3c8.4,0,16.8,0,25.3,0c14.4,0,28.8,0,43.2,0
		c1,0.2,1.9-0.5,2.1-1.5c1.4-4,2.1-8.2,1.9-12.4c-0.6-4.8-1.1-9.6-4.8-13.3c-2.3-2.3-5.5-3.6-8.8-3.5c-14.8,0-29.6,0-44.4,0
		c-2.7,0-3-0.3-3-2.9c-0.1-3.5-0.2-7.1-0.2-10.6c-0.1-3.2,0.1-6.4,0.5-9.5c0.9-5.2,2.2-10.2,7.1-13.4c3.1-1.8,6.6-2.6,10.1-2.4
		c10.5,0,21.1-0.1,31.6,0c1.7-0.1,3.4,0.3,4.9,1c1.7,1.1,2.2,3.4,1.1,5.1c-0.3,0.5-0.7,0.9-1.2,1.2c-1.3,0.8-2.8,1.2-4.3,1.3
		c-11.8,0.1-23.7,0-35.5-0.1c-2.7-0.2-5.1,1.8-5.3,4.6c0,0.1,0,0.2,0,0.2c-0.3,5.3-0.6,10.5-0.9,15.8c-0.1,2.3,0,2.5,2.4,2.5
		c11,0,22,0,32.9,0c3,0,6,0.2,9,0.7c8.5,1.5,12.7,7.4,14.9,15.1c1.1,3.6,1.6,7.3,1.5,11.1c0,5.9-1.6,11.8-4.7,16.9
		c-0.5,0.7-1.3,1.1-2.1,1.2C447.9,322.8,435.3,322.8,422.8,322.7L422.8,322.7z M349.6,288.6c-0.1,2.3,0,4.7,0.4,7
		c1.1,4.6,3.2,8.9,6.2,12.6c2.6,3.5,6.4,6,10.6,6.9c2.9,0.5,5.9,0.4,8.8,0.7c1.5,0.1,2.2-0.4,2.4-1.9c0.6-4.1,1.6-8.1,1.9-12.2
		c0.8-6.8,0.1-13.7-2.1-20.2c-2-5.2-5.2-9.6-11.1-10.9c-6.6-1.5-11.8,0.5-15.1,6.8C350,280.8,349.3,284.7,349.6,288.6z"/>
	<path id="Path_3905" d="M312.1,231.5c-12.2,0-24.5,0.2-36.7-0.1c-2.8-0.4-5.5,1.3-6.3,4c-2.5,5.8-6.9,10-11.6,14.1
		c-0.9,0.8-1.6,0.6-2.3-0.2c-0.9-1-1.8-1.9-2.7-2.8c-1-0.9-1-1.7,0.1-2.7c6-5.2,10.5-11.9,12.9-19.5c1.2-3.6,1.8-7.3,1.8-11
		c-0.1-13.5,0-27.1,0-40.6c0-2.3,0.1-2.4,2.4-2.3c1.1,0.1,2.3,0.1,3.4,0c1.5-0.2,2.2,0.3,2.2,1.9c0,7.9,0.1,15.8,0,23.7
		c0,7.3-0.1,14.5-0.2,21.8c-0.2,1.6-0.5,3.2-1,4.8c-0.4,1.6-0.1,1.9,1.5,1.9c18.8,0,37.7,0,56.5,0c4.7,0,9.4,0,14.2,0
		c1.1,0.1,2.1-0.6,2.4-1.6c1.5-4.1,2.1-8.4,1.7-12.7c0-3.1-0.7-6.2-2-9.1c-1.9-4.3-6.1-7.1-10.8-7.3l-45.5-0.1
		c-2.5,0-2.6-0.1-2.7-2.6c0-5.9-0.4-11.9,0.1-17.7c0.3-4.1,0.2-8.5,2.7-12.3c2-3.1,4.4-5.7,8.5-5.8c11.2-0.2,22.4-0.2,33.6-0.3
		c2.2,0,4.3,0,6.5,0.2c2,0.1,3.5,1.7,3.4,3.7c0,0,0,0.1,0,0.1c0.3,2-1.1,3.9-3.2,4.2c0,0-0.1,0-0.1,0c-0.7,0.1-1.4,0.2-2,0.2
		c-11.7,0-23.4-0.1-35.1-0.1c-1.1,0-2.2,0.2-3.2,0.5c-1.3,0.3-2.1,1.5-2.1,2.8c-0.2,6-0.4,11.9-0.6,17.9c-0.1,2.1,0.3,2.3,2.3,2.3
		c13.1-0.1,26.3-0.3,39.4,0.1c6.8,0.1,12.8,4.3,15.3,10.5c1.7,3.8,2.8,7.8,3.1,11.9c0.6,7.3-0.8,14.7-4.3,21.2
		c-0.5,1.1-1.4,1.1-2.4,1.1c-11.3,0-22.5,0-33.8,0L312.1,231.5L312.1,231.5z"/>
	<path id="Path_3906" d="M326.5,288.3V266c0-2.2,0.6-2.8,2.8-3c4.3-0.4,5,0.4,5,4.6c0,14,0.1,27.9,0,41.8c0.3,5-2,9.8-6.2,12.6
		c-0.8,0.5-1.7,0.8-2.7,0.8c-10,0.1-19.9,0-29.9,0.1c-2,0-4-0.9-5.2-2.5c-2.6-3-4-6.8-3.9-10.7c0-7,0.1-14-0.1-21
		c0.1-3.7-0.6-7.4-2-10.8c-2.1-4.1-5.6-8.1-11.6-7.7c-0.3,0-0.7,0-1,0c-7.2-0.6-11.8,2.7-14.3,9.3c-0.7,1.8-1.1,3.7-1.3,5.6
		c-0.4,4.5-0.3,9-0.9,13.4c-0.8,5.7-0.1,11.7-3.2,16.9c-1.5,2.1-3.3,4-5.2,5.7c-1.3,1.2-3,1.9-4.8,1.7c-3.9-0.1-7.8,0.1-11.8-0.1
		c-5.1,0-10-1.9-13.8-5.3c-3.6-3.4-5.8-7.8-6.4-12.7c-0.8-5.4-0.8-10.9,0.1-16.3c1.9-9.9,8.2-16.1,17.5-19.3
		c2.1-0.7,4.2-1.2,6.4-1.7c2.1-0.5,3.4,0,3.7,1.3c0.7,2.3,0,4.3-1.8,4.9c-1.7,0.6-3.6,0.8-5.4,1.5c-1.9,0.7-3.7,1.6-5.5,2.7
		c-4.4,3-7.2,7.8-7.6,13.1c-0.6,2.4-0.9,4.9-0.8,7.4c0.7,4.9,0.9,10,4.8,13.8c2.1,2.1,4.9,3.3,7.8,3.3c3.5,0.1,7,0,10.6,0
		c3.4-0.1,6.1-2.8,6.3-6.1c0.3-3.4,0.9-6.7,1.3-10.1c0-0.2,0.1-0.3,0.1-0.5c0.2-4.7,0.2-9.5,0.7-14.2c0.4-3,1.2-5.9,2.3-8.7
		c1.9-5.5,6.3-9.7,11.9-11.4c5.9-2.1,12.4-2.1,18.4,0c4.2,1.5,7.5,4.7,9.3,8.8c1.1,2,1.9,4.1,2.5,6.3c0.8,3.2,1.2,6.6,1.4,9.9
		c0.2,7.4,0,14.8,0,22.2c-0.2,2,1.2,3.7,3.2,3.9c0.2,0,0.5,0,0.7,0c8.4,0,16.8,0,25.2,0c1.3,0.2,2.5-0.6,2.7-1.9c0,0,0,0,0-0.1
		c0.3-1.2,0.5-2.4,0.6-3.7C326.5,302.8,326.5,295.6,326.5,288.3L326.5,288.3z"/>
	<path id="Path_3907" d="M390.6,194.9c-0.2,9.8-0.3,19.5-0.5,29.3c3.8,0.1,7.5,0.2,11.3,0.2c1.7,0,3.6-0.1,4.9-1.2
		c1-0.8,1.5-2.1,1.9-3.3c2.3-7.3,1.9-15.2,2.5-22.8s2.7-15.8,8.6-20.7c3.4-2.8,7.8-4.2,12.2-4.6c5.8-0.6,12,0.4,16.5,4.1
		c4.8,3.8,7.2,10,8.1,16.1c1.1,7.6,0.1,15.6-3.4,22.5s-9.5,12.5-16.8,15.1c-5.8,2-12.2,2-18.3,2c-9.4,0-18.8-0.1-28.2-0.1
		c-0.7,0-1.3,0-2,0.3c-1,0.4-1.5,1.5-2,2.5c-2.2,4.2-4.9,8.2-8.1,11.7c-1.4,1.5-2.9,3-4.9,3.3c-2.4,0.4-5-1.7-4.8-4.2
		c0.2-2.2,4.3-4.9,5.7-6.5c3.6-4.4,6.3-9.6,7.9-15.1c2-7.2,1.9-14.8,1.8-22.3c-0.1-8.5-0.2-16.9-0.3-25.4c0-2.2,0.2-5,2.2-6
		c1.8-0.9,4.1,0.4,5,2.1c1,1.8,0.9,3.9,0.9,5.9C390.8,183.5,390.7,189.2,390.6,194.9z M422.5,224.4L422.5,224.4
		c1.5,0.1,3.1,0.1,4.6-0.1c3-0.3,5.9-1.1,8.6-2.3c4.6-2.5,8.1-6.6,10-11.5c1.2-2.7,2.2-5.6,2.8-8.5c0.3-3,0.4-6,0.1-9
		c-0.3-6-5-14.9-13.8-14.1c-2.6,0.1-5.2,0.4-7.7,1.1c-1.9,0.8-3.6,2.1-4.8,3.8c-2.9,3.7-3.4,8.3-3.9,12.7
		c-0.6,5.2-0.5,10.4-0.7,15.6c0,1,0,2.1-0.1,3.1c-0.5,2.5-1,5-1.7,7.4c-0.3,1.3,0.1,1.8,1.4,1.8
		C419.1,224.3,420.8,224.4,422.5,224.4L422.5,224.4z"/>
	<path id="Path_3909" d="M341.3,440.8c-1.3-1.5-2.6-2.9-3.8-4.4c-0.3-0.3,0-1.4,0.4-1.8c1.6-1.9,3.4-3.8,5.1-5.7
		c4.6-5.4,7.7-12,9.1-19c0.6-2.7,0.8-5.5,0.8-8.2c0.1-12.9,0.1-25.7,0.1-38.6c0-2.2,0-2.1,2.2-2.1c1.3,0,2.6,0,3.9-0.1
		c1.1-0.1,1.6,0.3,1.6,1.6c0,14.3,0.1,28.7,0,43c-0.2,2.5-0.7,4.9-1.5,7.2c-0.3,1.4,0,2.2,1.4,2.2c5.2,0,10.5,0.1,15.7,0
		c0.8-0.1,1.5-0.6,1.8-1.3c0.6-2,1-4.1,1.1-6.1c0.1-23.4,0.1-46.8,0.1-70.2c0-1.1,0-2.3,0-3.4c0.1-2.4,0.7-3.1,3.1-3.5
		c1.9-0.6,3.9,0.5,4.5,2.4c0.1,0.5,0.2,1,0.1,1.5c0,24.5,0.1,49,0,73.6c0,4.9-1.1,9.8-5.7,12.9c-1,0.7-2.1,1.1-3.3,1.1
		c-6.4,0.1-12.9,0.1-19.3,0c-1.4-0.2-2.7,0.6-3.2,1.9c-2.5,5.7-6.3,10.7-11.1,14.7C343.5,439.3,342.4,440,341.3,440.8z"/>
	<path id="Path_3912" d="M289.7,372.5v38.2c0,3.2,1.1,4.3,4.2,4.3l23.2,0.1c1.1,0,2.5-1.7,2.9-3.4c0.1-0.5,0.1-0.9,0.1-1.4
		c0-14.9,0-29.7,0-44.5c-0.2-1.5,0.6-2.9,2-3.4c1.7-0.6,4.6-0.3,5.3,0.7c0.3,0.6,0.5,1.2,0.5,1.9c0.1,4.6,0.1,9.3,0.1,14
		c0,10.4,0.2,20.8-0.2,31.2c0.1,4.5-2.2,8.7-6.1,11c-0.8,0.4-1.8,0.7-2.7,0.7c-9.2,0.1-18.4,0-27.6,0.1c-2.3,0.1-4.5-1-5.8-2.9
		c-2.2-2.7-3.4-6.1-3.4-9.6c-0.1-24.8-0.2-49.6-0.3-74.4c0-3.9,2.4-5.7,5.9-4.3c1.3,0.4,2.2,1.7,2.2,3.1
		C289.7,346.8,289.7,359.6,289.7,372.5z"/>
	<path id="Path_3918" d="M400.9,376.2v41.6c0,3.7-2.6,5.5-5.9,3.9c-1-0.8-1.6-2-1.6-3.3c-0.2-4.4-0.1-8.8-0.1-13.1v-68.8
		c0-1,0-1.9,0.1-2.9c0-1.8,1.4-3.4,3.2-3.4c0.2,0,0.4,0,0.6,0c2.4,0,3.7,1.2,3.7,3.4L400.9,376.2L400.9,376.2z"/>
	<path id="Path_3920" d="M304.1,437.4c-2.9,0.4-5.5-1.7-5.9-4.6c0-0.3,0-0.5,0-0.8c0.2-3.1,2.8-5.4,5.8-5.3c0.1,0,0.1,0,0.2,0
		c3.1-0.2,5.8,2.1,6,5.2c0,0.1,0,0.1,0,0.2C310,435.3,307.3,437.6,304.1,437.4C304.1,437.4,304.1,437.4,304.1,437.4z"/>
	<path id="Path_3921" d="M136.1,438.1c-3.2,0-5.9-2.3-6.3-5.5c0.1-3,2.7-5.4,5.7-5.3c0.1,0,0.1,0,0.2,0c2.9-0.4,5.6,1.7,6,4.7
		c0,0.2,0,0.4,0,0.5C141.4,435.5,139.1,437.9,136.1,438.1z"/>
	<path id="Path_3922" d="M228.1,338.8c-3.2,0-5.8-2.4-6.1-5.6c0.3-3.1,3-5.3,6-5.2c3-0.2,5.7,2.1,5.9,5.1c0,0.1,0,0.1,0,0.2
		C233.7,336.4,231.1,338.8,228.1,338.8z"/>
	<path id="Path_3923" d="M313.9,258.6c-3,0.1-5.5-2.2-5.7-5.2c0.1-3.2,2.7-5.8,5.9-5.8c2.9,0.1,5.3,2.1,5.8,4.9c0.4,3-1.8,5.6-4.7,6
		C314.7,258.7,314.3,258.7,313.9,258.6z"/>
	<path id="Path_3924" d="M223.9,352.8c0,2.9-2.4,5-6,5.1c-2.7,0-5-1.9-5.7-4.5c-0.3-3.2,2.1-6,5.3-6.2c0.2,0,0.4,0,0.5,0
		c3.1-0.1,5.7,2.3,5.8,5.4C223.9,352.5,223.9,352.6,223.9,352.8z"/>
	<path id="Path_3925" d="M271.9,155.2c3-0.2,5.6,2,5.8,5c0,0.1,0,0.2,0,0.3c-0.4,3-2.8,5.3-5.8,5.3c-3.1,0.2-5.8-2.2-6-5.3
		c0,0,0-0.1,0-0.1c0.1-3,2.6-5.4,5.6-5.3C271.6,155.1,271.8,155.1,271.9,155.2z"/>
	<path id="Path_3927" d="M121.6,427.3c3-0.2,5.6,2,5.8,5c0,0.2,0,0.3,0,0.5c-0.3,3-2.8,5.3-5.8,5.3c-3.1,0-5.6-2.5-5.7-5.5
		C115.9,429.1,117.9,427.3,121.6,427.3z"/>
	<path id="Path_3928" d="M324,432.1c0.1,2.8-2.1,5.2-4.9,5.3c-0.1,0-0.3,0-0.4,0c-3.1,0.2-5.9-2.1-6.2-5.2c0-3.1,2.6-5.6,5.7-5.6
		c0.1,0,0.3,0,0.4,0c2.8-0.1,5.3,2,5.4,4.9C324.1,431.7,324.1,431.9,324,432.1z"/>
	<path id="Path_3929" d="M236.6,333.3c0-3.4,2.4-5.2,6.3-5.4c2.8,0.4,4.9,2.7,5.2,5.6c-0.3,3-2.9,5.3-5.9,5.3
		c-3,0.1-5.5-2.2-5.6-5.2C236.6,333.5,236.6,333.4,236.6,333.3z"/>
</g>
</svg>
