<?xml version="1.0" encoding="utf-8"?>
<!-- Generator: Adobe Illustrator 26.0.1, SVG Export Plug-In . SVG Version: 6.00 Build 0)  -->
<svg version="1.1" id="GeorgeSamuel.me" xmlns="http://www.w3.org/2000/svg" xmlns:xlink="http://www.w3.org/1999/xlink" x="0px"
	 y="0px" viewBox="0 0 512 512" style="enable-background:new 0 0 512 512;" xml:space="preserve">
<style type="text/css">
	.st0{fill:#111111;}
	.st1{fill:#FFFFFF;}
	.st2{fill:#D99A29;}
</style>
<g id="www.GeorgeSamuel.me">
	<rect class="st0" width="512" height="512"/>
	<circle class="st0" cx="256" cy="256" r="256"/>
	<path id="path2987" class="st1" d="M305.9,285.8c0,1.2-1,1.9-2.6,1.9h-4V284h3.8C304.9,284,305.9,284.6,305.9,285.8L305.9,285.8z
		 M299.3,278.3h3.4c1.5,0,2.4,0.7,2.4,1.7v0c0,1.2-1,1.8-2.6,1.8h-3.3V278.3z M305.5,282.7c1-0.5,1.9-1.4,1.9-3v0
		c0-0.9-0.3-1.6-0.9-2.2c-0.8-0.8-2-1.2-3.5-1.2h-6.1v13.5h6.3c3,0,5-1.3,5-3.7v0C308.2,284.2,307.1,283.3,305.5,282.7"/>
	<path id="path2993" class="st1" d="M318.3,282.2l-3.8-6h-2.8l5.4,8.2v5.3h2.4v-5.4l5.4-8.1h-2.7L318.3,282.2z"/>
	<path id="path2999" class="st1" d="M382,281.8c-0.4,0.4-0.9,0.6-1.5,0.6h-2.7v-4h2.7c0.6,0,1.1,0.2,1.5,0.6
		c0.4,0.4,0.6,0.8,0.6,1.4C382.6,281,382.4,281.4,382,281.8 M384.6,282.6c0.4-0.7,0.6-1.4,0.6-2.3c0-0.4-0.1-0.9-0.3-1.4
		c-0.2-0.5-0.4-0.9-0.8-1.3c-0.4-0.4-0.9-0.7-1.5-1c-0.6-0.3-1.3-0.4-2.2-0.4h-5.2v13.7h2.5v-5.4h2.6l2.8,5.4h2.9l-3.2-5.7
		C383.7,283.8,384.2,283.2,384.6,282.6"/>
	<path id="path3003" class="st1" d="M409.1,289.9h2.6v-13.7h-2.6V289.9z"/>
	<path id="path3009" class="st1" d="M398.6,281.8c-0.4,0.4-0.9,0.6-1.5,0.6h-2.7v-4h2.7c0.6,0,1.1,0.2,1.5,0.6
		c0.4,0.4,0.6,0.8,0.6,1.4C399.1,281,399,281.4,398.6,281.8 M401.2,282.6c0.4-0.7,0.6-1.4,0.6-2.3c0-0.4-0.1-0.9-0.3-1.4
		c-0.2-0.5-0.4-0.9-0.8-1.3c-0.4-0.4-0.9-0.7-1.5-1c-0.6-0.3-1.3-0.4-2.2-0.4h-5.2v13.7h2.5v-5.4h2.6l2.8,5.4h2.9l-3.2-5.7
		C400.2,283.8,400.8,283.2,401.2,282.6"/>
	<path id="path3015" class="st1" d="M348.6,276.2l-4.1,6.4l-4.1-6.4H338l-0.7,13.7h2.4l0.5-9.3l3.6,5.4h1.2l3.6-5.6l0.5,9.5h2.5
		l-0.7-13.7H348.6z"/>
	<path id="path3021" class="st1" d="M429.1,284.8c-0.2,0.6-0.5,1.1-0.9,1.5c-0.4,0.4-0.8,0.8-1.4,1.1c-0.5,0.3-1.2,0.4-1.8,0.4
		c-0.7,0-1.3-0.1-1.8-0.4c-0.5-0.3-1-0.6-1.4-1.1c-0.4-0.4-0.7-1-0.9-1.5c-0.2-0.6-0.3-1.2-0.3-1.8c0-0.7,0.1-1.3,0.3-1.9
		c0.2-0.6,0.5-1.1,0.9-1.5c0.4-0.4,0.8-0.8,1.4-1c0.5-0.3,1.2-0.4,1.8-0.4c0.7,0,1.3,0.1,1.8,0.4c0.5,0.3,1,0.6,1.4,1
		c0.4,0.4,0.7,0.9,0.9,1.5c0.2,0.6,0.3,1.2,0.3,1.9C429.4,283.6,429.3,284.2,429.1,284.8 M430.1,278c-0.6-0.6-1.4-1.2-2.3-1.5
		c-0.9-0.4-1.8-0.6-2.8-0.6c-1,0-1.9,0.2-2.8,0.6c-0.9,0.4-1.6,0.9-2.3,1.5c-0.6,0.6-1.1,1.4-1.5,2.3c-0.4,0.9-0.6,1.8-0.6,2.8
		c0,1,0.2,1.9,0.6,2.8c0.4,0.9,0.9,1.6,1.5,2.3c0.6,0.7,1.4,1.2,2.3,1.5c0.9,0.4,1.8,0.6,2.8,0.6c1,0,1.9-0.2,2.8-0.6
		c0.9-0.4,1.6-0.9,2.3-1.5c0.6-0.7,1.1-1.4,1.5-2.3c0.4-0.9,0.6-1.8,0.6-2.8c0-1-0.2-1.9-0.6-2.8C431.2,279.4,430.7,278.6,430.1,278
		"/>
	<path id="path3027" class="st1" d="M451.7,278.5h4.6v11.4h2.6v-11.4h4.6v-2.3h-11.9L451.7,278.5z"/>
	<path id="path3033" class="st1" d="M361.4,284.3l1.8-5.3l1.8,5.3H361.4z M362,276.2l-5.2,13.7h2.7l1.2-3.5h5.1l1.2,3.5h2.9
		l-5.2-13.7H362z"/>
	<path id="path3039" class="st1" d="M435.5,278.5h4.6v11.4h2.6v-11.4h4.6v-2.3h-11.8V278.5z"/>
	<path id="path3045" class="st2" d="M54.6,257.5c-8.6,0-13.9-6.9-13.9-14.7c0-7.7,5.1-14.1,13.8-14.1c6.6,0,11.3,4.3,11.3,4.3
		l3.6-5.6c0,0-5.2-5.6-15.2-5.6c-12.1,0-21.2,9.2-21.2,21.1c0,12.1,8.7,21.5,21.3,21.5c10.5,0,16.2-6.7,16.2-6.7l-3.9-5.4
		C66.6,252.2,61.7,257.5,54.6,257.5"/>
	<path id="path3051" class="st2" d="M103.7,257.5c-7.5,0-13.6-6.3-13.6-14.7c0-8.1,6-14.1,13.6-14.1c7.5,0,13.6,6,13.6,14.1
		C117.3,251.2,111.2,257.5,103.7,257.5 M103.7,221.7c-12.1,0-21.3,9.2-21.3,21c0,12.1,9.2,21.6,21.3,21.6c12.1,0,21.3-9.5,21.3-21.6
		C125,231,115.8,221.7,103.7,221.7"/>
	<path id="path3057" class="st2" d="M165.8,248.8c0,5.6-3.7,8.7-9.2,8.7c-5.5,0-9.1-3.1-9.1-8.6v-26.4H140v26.4
		c0,9.2,6.7,15.5,16.7,15.5c9.9,0,16.6-6.3,16.6-15.5v-26.4h-7.5V248.8z"/>
	<path id="path3063" class="st2" d="M206.2,241.7h-6.7v-12.9h5.7c5.9,0,7.5,2.4,7.5,6.4C212.7,239.4,210.2,241.7,206.2,241.7
		 M213.3,246.2v-0.1c4.4-1.7,7-6.3,7-11.2c0-5.4-2.6-9.4-6.7-11.2c-1.8-0.8-3.8-1.2-8.3-1.2h-13.3v41.2h7.5v-15.4h7.2l8.2,15.4h8.4
		l-8.5-15.4C213.9,246.8,213.3,246.2,213.3,246.2"/>
	<path id="path3069" class="st2" d="M234.2,228.9h13.5v34.7h7.5v-34.7h13.5v-6.4h-34.5L234.2,228.9z"/>
	<path id="path3075" class="st2" d="M304.3,263.6v-17.2l13.7-23.9h-8.5l-6.4,12.1c-1.3,2.6-2.5,5.5-2.5,5.5h-0.1
		c-0.1,0.1-1.2-3-2.5-5.5l-6.4-12.1h-8.5l13.7,23.9v17.2H304.3z"/>
	<path id="path3081" class="st2" d="M395.7,241.7H389v-12.9h5.7c5.9,0,7.5,2.4,7.5,6.4C402.2,239.4,399.7,241.7,395.7,241.7
		 M402.8,246.2v-0.1c4.4-1.7,7-6.3,7-11.2c0-5.4-2.6-9.4-6.7-11.2c-1.8-0.8-3.8-1.2-8.3-1.2h-13.3v41.2h7.5v-15.4h7.2l8.2,15.4h8.4
		l-8.5-15.4C403.4,246.8,402.8,246.2,402.8,246.2"/>
	<path id="path3087" class="st2" d="M436.2,257.2v-28.3h6.2c8.2,0,13.7,4.9,13.7,14.1c0,9.3-5.3,14.2-13.7,14.2H436.2z M463.8,243
		c0-13-8.3-20.5-21-20.5h-14.1v41.2h14.1C455.5,263.6,463.8,256,463.8,243"/>
	<path id="path3093" class="st2" d="M341.9,248.6c-0.2,0.1-0.5,0.3-0.7,0.4l4.9-11.9h0.1l3.4,8.5C347,246.3,344.4,247.3,341.9,248.6
		 M364.5,263.6l-18.3-41.2H346l-18.3,41.2h7.5l0,0c0,0,0,0,0,0c0.3-0.5,0.6-1,1-1.5c0,0,1.6-2.2,2.3-3c0.7-0.8,1.7-1.8,2.7-2.7
		c0.5-0.4,1-0.8,1.5-1.2c0.5-0.4,1-0.7,1.6-1.1c2.1-1.4,4.5-2.4,7-3.2l0.6-0.2l5.1,12.7L364.5,263.6z"/>
	<path id="path3099" class="st2" d="M473.6,227.4c0.7,0,1.2-0.5,1.2-1.2c0-0.8-0.5-1.2-1.2-1.2h-1.3v2.4H473.6z M471.6,224.3h2.1
		c1.1,0,1.8,0.7,1.8,1.8c0,0.9-0.6,1.5-1.2,1.7v0c0,0,0.1,0.1,0.2,0.3l1.2,2.4H475l-1.3-2.6h-1.4v2.6h-0.7L471.6,224.3z
		 M473.4,232.5c2.8,0,4.9-2.2,4.9-5c0-2.8-2.1-5-4.9-5c-2.7,0-4.8,2.2-4.8,5C468.6,230.3,470.7,232.5,473.4,232.5 M473.4,221.7
		c3.1,0,5.6,2.5,5.6,5.7c0,3.2-2.5,5.7-5.6,5.7c-3.1,0-5.5-2.5-5.5-5.7C467.9,224.3,470.3,221.7,473.4,221.7"/>
</g>
</svg>
