<?xml version="1.0" encoding="utf-8"?>
<!-- Generator: Adobe Illustrator 26.0.1, SVG Export Plug-In . SVG Version: 6.00 Build 0)  -->
<svg version="1.1" id="GeorgeSamuel.me" xmlns="http://www.w3.org/2000/svg" xmlns:xlink="http://www.w3.org/1999/xlink" x="0px"
	 y="0px" viewBox="0 0 512 512" style="enable-background:new 0 0 512 512;" xml:space="preserve">
<style type="text/css">
	.st0{fill:#A12568;}
	.st1{fill:#FFFFFF;}
</style>
<g id="www.GeorgeSamuel.me">
	<rect class="st0" width="512" height="512"/>
	<circle class="st0" cx="256" cy="256" r="256"/>
	<path class="st1" d="M256,84.1c33.5-0.8,67.7,4.8,98.8,17.5c10.4,4,19.9,10.4,28.7,18.3c12.8,10.4,15.1,30.3,4.8,43
		c-1.6,2.4-4,4-5.6,5.6c-14.3,12-31.1,19.9-48.6,24.7c-55.8,15.1-114,13.5-168.9-4.8c-14.3-4-27.1-12-37.5-22.3
		c-12.8-10.4-13.5-29.5-3.2-41.4c0.8-0.8,1.6-1.6,2.4-2.4c11.2-11.2,25.5-19.9,40.6-23.9C196.3,88.1,225.8,83.3,256,84.1z
		 M260,197.2c8.8,0,16.7,0,25.5-1.6c8-0.8,16.7-2.4,24.7-4c16.7-3.2,31.9-8.8,46.2-17.5c5.6-3.2,11.2-8,15.1-12.8
		c10.4-10.4,10.4-27.9,0-38.3l0,0c-8.8-9.6-20.7-17.5-33.5-21.5c-48.6-16.7-101.2-18.3-150.6-4.8c-15.9,4-31.1,11.2-43.8,22.3
		c-12.8,9.6-15.1,27.1-5.6,39c1.6,2.4,3.2,4,5.6,5.6c8,7.2,16.7,12.8,26.3,16.7C198.7,193.3,228.9,198.8,260,197.2z"/>
	<path class="st1" d="M189.9,159h10.4l-8-11.2c9.6,4.8,18.3,8.8,27.9,13.5c6.4,3.2,14.3,5.6,21.5,7.2c5.6,1.6,12-0.8,13.5-6.4l0,0
		c2.4-4.8,7.2-7.2,12-7.2c12,0.8,23.1,4,33.5,9.6c1.6,0.8,3.2,1.6,4.8,2.4c9.6,5.6,8,3.2,5.6,12.8c-0.8,3.2-1.6,4-4.8,1.6
		c-8.8-5.6-18.3-9.6-27.9-12.8c-5.6-2.4-11.2-2.4-17.5-1.6c-4,0.8-8,3.2-9.6,7.2c-1.6,4.8-6.4,7.2-11.2,6.4c-5.6,0-11.2-1.6-16.7-4
		C211.4,171.7,200.3,166.2,189.9,159z"/>
	<path class="st1" d="M205.8,104.8c10.4,4.8,20.7,10.4,31.1,15.1c5.6,2.4,11.2,4,17.5,4.8c5.6,1.6,11.2-1.6,12.8-6.4
		c1.6-4.8,6.4-7.2,11.2-7.2c7.2,0,14.3,0.8,20.7,4c8,3.2,15.1,6.4,22.3,10.4c2.4,0.8,3.2,3.2,2.4,5.6v0.8c-2.4,8-2.4,8-10.4,4
		c-9.6-5.6-20.7-9.6-31.1-12c-8-3.2-16.7,1.6-19.9,9.6c-0.8,1.6-4,3.2-6.4,3.2c-3.2,0-6.4,0-9.6-0.8c-15.1-4.8-29.5-11.2-43-19.9
		h9.6C211.4,111.2,206.6,108.8,205.8,104.8L205.8,104.8z"/>
	<path class="st1" d="M200.3,127.1c12,5.6,23.1,12,35.1,15.9c4,1.6,7.2,2.4,11.2,3.2c5.6,2.4,12-0.8,13.5-6.4c0,0,0,0,0-0.8
		c2.4-4,6.4-6.4,10.4-7.2c6.4,0,12.8,0.8,18.3,3.2c8,3.2,15.1,6.4,22.3,10.4c4,0.8,5.6,4.8,4.8,8.8c0,0.8-0.8,1.6-0.8,1.6
		c-1.6,4-2.4,5.6-6.4,3.2c-10.4-7.2-22.3-11.2-34.3-13.5c-8-2.4-16.7,1.6-19.1,9.6c-1.6,2.4-4,4.8-7.2,4.8c-2.4,0-4.8,0-8,0
		c-15.9-4.8-31.9-11.2-45.4-20.7H205l-7.2-9.6L200.3,127.1z"/>
	<path class="st1" d="M199.5,127.9c0-0.8-1.6-0.8-0.8-1.6c0.8-0.8,1.6,0,1.6,0.8L199.5,127.9z"/>
	<path class="st1" d="M205.8,104.8L205.8,104.8C205,104,205,104,205.8,104.8C205,104.8,205,104.8,205.8,104.8L205.8,104.8z"/>
	<path class="st1" d="M291.9,266.6c-4,16.7-8,33.5-12,49.4c-0.8,3.2-2.4,4-4.8,4c-3.2,0-4.8-0.8-5.6-4
		c-5.6-23.1-11.2-46.2-16.7-68.5c-0.8-3.2,0-4,3.2-4c9.6,0,8.8,0,11.2,8.8c3.2,14.3,6.4,28.7,10.4,43c2.4-11.2,5.6-21.5,8-32.7
		c1.6-5.6,3.2-10.4,4-15.9c0.8-4,2.4-4,5.6-4c3.2,0,4,1.6,4.8,4c4,15.9,7.2,31.9,12,47.8c2.4-9.6,4.8-19.1,7.2-28.7
		c1.6-6.4,3.2-12.8,4-19.1c1.6-3.2,4.8-5.6,8.8-4c0,0,0,0,0.8,0c1.6,0.8,0.8,2.4,0.8,3.2c-5.6,23.9-12,47-17.5,70.9
		c-0.8,4-4,2.4-5.6,2.4c-2.4,0.8-4-0.8-4-3.2c-3.2-15.9-7.2-31.1-11.2-46.2C293.5,268.2,293.5,267.4,291.9,266.6z"/>
	<path class="st1" d="M362,267.4c0,15.9,0,31.1,0,47c0,4-0.8,5.6-4.8,5.6s-4.8-1.6-4.8-4.8c0-21.5,0-43.8,0-65.3
		c0-2.4-1.6-5.6,1.6-6.4c4-1.6,8,0,9.6,4c8.8,15.1,19.1,29.5,28.7,43.8c0.8,1.6,2.4,3.2,4,5.6v-6.4c0-14.3,0-29.5,0-43.8
		c0-4,2.4-3.2,4.8-3.2c2.4,0,4.8-0.8,4.8,3.2c0,23.1,0,46.2,0,70.1c0,1.6,0.8,3.2-1.6,3.2c-3.2,0-6.4,1.6-8.8-2.4
		c-3.2-5.6-6.4-10.4-9.6-15.1l-22.3-34.3C362.8,267.4,362.8,267.4,362,267.4z"/>
	<path class="st1" d="M177.1,280.9c-0.8-11.2,3.2-22.3,11.2-31.1c11.2-11.2,28.7-11.2,39.8,0c2.4,2.4,4,4.8,5.6,8
		c7.2,15.1,6.4,31.9-0.8,47c-4.8,10.4-15.1,16.7-27.1,15.9c-11.2,0-21.5-8-25.5-18.3C177.9,295.3,177.1,288.1,177.1,280.9z
		 M224.2,285.7c0.8-8.8,0-18.3-3.2-26.3c-1.6-7.2-9.6-11.2-16.7-9.6c-4.8,1.6-8,4.8-9.6,8.8c-5.6,14.3-5.6,30.3,0,44.6
		c1.6,5.6,7.2,9.6,12.8,9.6c5.6,0,11.2-4,12.8-9.6C222.6,297.6,224.2,292.1,224.2,285.7L224.2,285.7L224.2,285.7z"/>
	<path class="st1" d="M141.3,283.3l24.7,35.9c-4,0.8-8.8,0.8-13.5,0.8c-2.4,0-3.2-1.6-4-3.2c-5.6-9.6-12-18.3-17.5-27.9
		c-0.8-1.6-1.6-4-4.8-3.2c-2.4,0.8-0.8,3.2-0.8,4c0,8.8,0,17.5,0,26.3c0,3.2-0.8,4-4,4c-8.8,0-8.8,0-8.8-8.8c0-20.7,0-42.2,0-63
		c0-4,1.6-5.6,5.6-4.8c7.2,0,14.3,0,21.5,0c9.6-0.8,17.5,5.6,19.1,15.1c2.4,10.4-4,20.7-13.5,23.9
		C144.5,282.5,142.9,282.5,141.3,283.3z M126.1,265c0,3.2,0,7.2,0,10.4c0,0.8,0,2.4,1.6,3.2c6.4,0.8,12.8-0.8,16.7-5.6
		c4.8-5.6,3.2-14.3-2.4-19.1c-2.4-1.6-4.8-2.4-8-2.4c-0.8,0-1.6,0-2.4,0c-4-0.8-5.6,0.8-4.8,4.8C126.1,258.6,126.1,261.8,126.1,265z
		"/>
	<path class="st1" d="M430.6,280.9c0-11.2,0-23.1,0-34.3c0-3.2,0.8-4,4-4c11.2,0,22.3,0,32.7,0c3.2,0,4,0.8,4,4c0,2.4,0,4.8-4,4.8
		c-6.4,0-12.8,0-19.1,0c-3.2,0-4.8,0.8-4.8,4.8c0,5.6,0,11.2,0,16.7c0,3.2,0.8,4,4,4c6.4,0,12,0,18.3,0c3.2,0,4,1.6,4,4
		c0,2.4,0,4-4,4c-5.6,0-12,0-18.3,0c-3.2,0-4,0.8-4,4c0,6.4,0,12.8,0,19.1c0,3.2,0.8,4,4,4c7.2,0,13.5,0,20.7,0c4,0,4,1.6,3.2,4
		c-0.8,2.4,0,4.8-3.2,4.8c-11.2,0-22.3,0-34.3,0c-3.2,0-4-0.8-4-4C430.6,304,430.6,292.9,430.6,280.9z"/>
	<path class="st1" d="M40.1,281.7c-0.8-12.8,4-25.5,13.5-33.5c10.4-7.2,23.9-8.8,35.1-3.2c3.2,0.8,1.6,3.2,0.8,4c-0.8,0.8,0,4.8-4,4
		c-18.3-5.6-27.1,0-30.3,19.9c-1.6,9.6-0.8,19.1,2.4,27.9c2.4,8.8,12,14.3,21.5,12c1.6-0.8,3.2-1.6,4.8-2.4c4.8-2.4,4.8,0.8,6.4,3.2
		c2.4,3.2-0.8,4-2.4,4.8c-15.9,8-35.1,2.4-43-13.5c-2.4-5.6-4-10.4-4-15.9C40.9,286.5,40.9,284.1,40.1,281.7z"/>
	<path class="st1" d="M88.7,387.7c0-12,0-23.1,0-34.3c0-4,0.8-4.8,4.8-4.8c8,0,15.9,0,24.7,0c12.8,0.8,19.9,7.2,20.7,17.5
		c1.6,12-6.4,23.1-18.3,25.5c-4.8,0.8-9.6,1.6-14.3,0.8c-2.4,0-3.2,0.8-3.2,3.2c0,8.8,0,17.5,0,26.3c0,3.2-0.8,4-4,4
		c-8.8,0-8.8,0-8.8-8.8L88.7,387.7z M102.2,371v4.8c0,10.4,0.8,11.2,11.2,9.6c4.8,0,8.8-3.2,10.4-8c4-12-0.8-19.1-13.5-19.9
		c-10.4,0-8-0.8-8,8C102.2,367,102.2,368.6,102.2,371z"/>
	<path class="st1" d="M300.7,418.8c12,0,23.9,0,35.1,0c3.2,0,4,0.8,4,4c0,3.2-0.8,4.8-4,4.8c-15.1,0-30.3,0-44.6,0
		c-6.4,0-8-2.4-4.8-8.8c4-6.4,8-12.8,12-19.9l23.9-40.6c-0.8-1.6-2.4-0.8-4-0.8c-9.6,0-18.3,0-27.9,0c-4,0-3.2-2.4-3.2-4.8
		c0-2.4,0-4,3.2-4c13.5,0,27.9,0,41.4,0c6.4,0,8,3.2,4.8,8.8c-4,6.4-8,12.8-11.2,19.1c-7.2,12.8-15.1,25.5-22.3,37.5
		C302.3,415.6,301.5,416.4,300.7,418.8z"/>
	<path class="st1" d="M263.2,427.5c-4.8,1.6-7.2-1.6-8-6.4c-1.6-4.8-3.2-10.4-4.8-15.1c0-2.4-2.4-4.8-5.6-4c0,0,0,0-0.8,0
		c-4.8,0-8.8,0-13.5,0c-2.4-0.8-4.8,0.8-4.8,3.2l0,0c-1.6,6.4-4,12.8-6.4,19.1c-0.8,2.4-8,4-9.6,2.4c-0.8-0.8,0-1.6,0-3.2
		c8-23.9,16.7-47.8,24.7-72.5c0.8-3.2,3.2-3.2,6.4-3.2c2.4-0.8,4,0.8,4.8,3.2l0,0c8,23.9,15.9,47.8,24.7,71.7c0.8,3.2,0.8,4-2.4,4
		C266.4,427.5,265.6,427.5,263.2,427.5z M238.5,367.8c-1.6,5.6-3.2,9.6-4.8,13.5c-4,12.8-4,12.8,9.6,12h0.8c1.6,0,1.6-0.8,1.6-1.6
		L238.5,367.8z"/>
	<path class="st1" d="M406.6,427.5c-5.6,1.6-7.2-1.6-8.8-7.2c-0.8-4.8-3.2-9.6-4.8-14.3c-0.8-3.2-2.4-4.8-5.6-4
		c-5.6,0.8-12-2.4-16.7,0.8c-4.8,3.2-4,10.4-5.6,15.1c-0.8,1.6-0.8,3.2-1.6,4c-0.8,4-4,6.4-8,5.6c-0.8,0-0.8,0-1.6-0.8
		c-2.4-0.8-1.6-2.4-0.8-3.2c4-11.2,7.2-21.5,11.2-32.7c4-12.8,8.8-25.5,12.8-38.2c0.8-3.2,2.4-4,5.6-4c3.2,0,4.8,0,5.6,3.2
		c8,23.1,15.1,45.4,23.1,68.5C414.6,427.5,414.6,427.5,406.6,427.5z M381.1,367.8c-2.4,8.8-4.8,15.9-7.2,23.1
		c-0.8,2.4,0,3.2,2.4,3.2c3.2,0,7.2,0,10.4,0c2.4,0,2.4-1.6,1.6-3.2C385.9,383.7,384.3,376.5,381.1,367.8z"/>
	<path class="st1" d="M155.6,387.7c0-12,0-23.1,0-35.1c0-3.2,0.8-4.8,4-4.8c9.6,0,9.6,0,9.6,9.6c0,18.3,0,37.5,0,55.8
		c0,3.2,0.8,4.8,4.8,4.8c6.4,0,13.5,0,19.9,0c3.2,0,3.2,1.6,3.2,4c0,2.4,0.8,4.8-3.2,4.8c-11.2,0-23.1,0-34.3,0
		c-3.2,0-3.2-1.6-3.2-4C155.6,411.6,155.6,399.6,155.6,387.7z"/>
	<path class="st1" d="M413.8,367c-4.8,0-8.8-4-8.8-9.6c0-4.8,4-8.8,8.8-8.8l0,0c4.8,0,8.8,4,9.6,8.8v0.8
		C423.4,363,419.4,367,413.8,367z M413.8,365.4c4,0,8-3.2,8-8c0-4-3.2-7.2-7.2-8c-4,0-8,2.4-8,7.2l0,0
		C406.6,362.2,409.8,365.4,413.8,365.4L413.8,365.4L413.8,365.4z"/>
	<path class="st1" d="M410.6,363c0.8-3.2-4-8,1.6-9.6c9.6-2.4,2.4,6.4,5.6,8.8C415.4,360.6,413,355,410.6,363z"/>
</g>
</svg>
