<?xml version="1.0" encoding="utf-8"?>
<!-- Generator: Adobe Illustrator 26.0.1, SVG Export Plug-In . SVG Version: 6.00 Build 0)  -->
<svg version="1.1" id="George_Samuel" xmlns="http://www.w3.org/2000/svg" xmlns:xlink="http://www.w3.org/1999/xlink" x="0px"
	 y="0px" viewBox="0 0 512 512" style="enable-background:new 0 0 512 512;" xml:space="preserve">
<style type="text/css">
	.st0{fill:#111111;}
	.st1{fill:#ABACAC;}
	.st2{fill:#FF5900;}
	.st3{fill:#FFFFFF;}
	.st4{fill:#FF0000;}
	.st5{fill:url(#Path_4893_00000003068739158135306360000001317914936243553923_);}
	.st6{fill:url(#Path_4894_00000150807179959765802600000011129917130562861485_);}
	.st7{fill:url(#Path_4895_00000087412922647653012860000016795854661461816203_);}
	.st8{fill:url(#Path_4896_00000165223295509025161050000014057379050996365752_);}
	.st9{fill:url(#Path_4897_00000103957789048617941140000003273415791739811727_);}
	.st10{fill:url(#Path_4898_00000123432786612369314480000012354307125807457965_);}
	.st11{fill:url(#Path_4899_00000052821040221970538790000001488845735072208056_);}
	.st12{fill:url(#Path_4900_00000023999419182246276880000002981163088871730853_);}
	.st13{fill:url(#Path_4901_00000147906210691151565320000006653235660558798210_);}
	.st14{fill:url(#Path_4902_00000021118841475935645030000011111404297853843364_);}
	.st15{fill:url(#Path_4903_00000136372236596953982690000011828923504396839337_);}
	.st16{fill:url(#Path_4904_00000124863746128439474710000014937627160069531578_);}
	.st17{fill:url(#Path_4905_00000105427519594763495980000006591937084406454665_);}
	.st18{fill:url(#Path_4906_00000072260820434152619010000017378009981502176415_);}
	.st19{fill:url(#Path_4907_00000099662649770847834250000006204464958508233104_);}
	.st20{fill:url(#Path_4908_00000057124307208829905290000017573854055521589914_);}
	.st21{fill:url(#Path_4909_00000134946344014595973760000006153212974867087548_);}
	.st22{fill:url(#Path_4910_00000147179692056184943150000008310473228535235251_);}
	.st23{fill:url(#Path_4911_00000086688199511221612950000001928844348030084761_);}
	.st24{fill:url(#Path_4912_00000070106237981799584050000009645593546020918431_);}
	.st25{fill:url(#Path_4913_00000105385273763164172640000003806137706482015633_);}
	.st26{fill:url(#Path_4914_00000083768003129913484290000014086361638258526143_);}
	.st27{fill:url(#Path_4915_00000075161011546866938560000000571492998021219764_);}
	.st28{fill:url(#Path_4916_00000044155678635779610370000006130404108250330533_);}
	.st29{fill:url(#Path_4917_00000094614175659204384810000004444912293700074131_);}
	.st30{fill:url(#Path_4918_00000170989723442432791710000016396879877145672628_);}
	.st31{fill:url(#Path_4919_00000018921786568098761120000001092668593771407762_);}
	.st32{fill:url(#Path_4920_00000170979435395050948000000002242372220825969561_);}
	.st33{fill:url(#Path_4921_00000103262309220594833210000017435835700702572729_);}
	.st34{fill:url(#Path_4922_00000124844299918917426620000007936258467970108351_);}
	.st35{fill:url(#Path_4923_00000139990499171411776440000012311138612370239115_);}
	.st36{fill:url(#Path_4924_00000082361101444949420550000004263949445157513125_);}
	.st37{fill:url(#Path_4925_00000028284012749122165120000002766027262832105366_);}
	.st38{fill:url(#Path_4926_00000083050058463401811790000002423089227004774302_);}
	.st39{fill:url(#Path_4927_00000075150089881363437050000005833128952441955510_);}
	.st40{fill:url(#Path_4928_00000001634294619580175170000008928000334906124195_);}
	.st41{fill:url(#Path_4929_00000063627945555512489210000014320408294284342675_);}
	.st42{fill:url(#Path_4930_00000167388934588863811970000009773585092232338101_);}
	.st43{fill:url(#Path_4931_00000145754010639835923600000015877032416364124813_);}
	.st44{fill:url(#Path_4932_00000091717803999813293730000012810716008287578278_);}
	.st45{fill:url(#Path_4933_00000069382007557343549180000013660083491543186102_);}
	.st46{fill:url(#Path_4934_00000086653973029376833620000001243911216284295049_);}
	.st47{fill:url(#Path_4935_00000089573418747326307940000004845887805384457373_);}
	.st48{fill:url(#Path_4936_00000073712022590585924190000017625131449274810302_);}
	.st49{fill:url(#Path_4937_00000127733554630054410970000011613800158504383900_);}
	.st50{fill:url(#Path_4938_00000164485129241133971580000015213233030619323526_);}
	.st51{fill:url(#Path_4939_00000091708495305953210230000005924579703444534954_);}
	.st52{fill:url(#Path_4940_00000128472556726392383970000009200498752765118353_);}
	.st53{fill:url(#Path_4941_00000147199270331712461220000005338671911566024368_);}
	.st54{fill:url(#Path_4942_00000091702957257419890700000006827128400510847888_);}
	.st55{fill:url(#Path_4943_00000015349088163076210130000004437591583039481990_);}
	.st56{fill:url(#Path_4944_00000163055633276754070700000003380953493449298331_);}
	.st57{fill:url(#Path_4945_00000055688763448859085390000007661343339697985668_);}
	.st58{fill:url(#Path_4946_00000123410752066500890110000010646185273744102282_);}
	.st59{fill:url(#Path_4947_00000028303048307667951030000016993029896907954097_);}
	.st60{fill:url(#Path_4948_00000116227445819119331220000004911667162456835767_);}
	.st61{fill:url(#Path_4949_00000090263735748298585080000012879244255190155709_);}
	.st62{fill:url(#Path_4950_00000147179229799284119950000000536682384288503181_);}
	.st63{fill:url(#Path_4951_00000036233786857657293700000017486756260355973551_);}
	.st64{fill:url(#Path_4952_00000120549134753017153510000000863698742673641098_);}
	.st65{fill:url(#Path_4953_00000080926331213296049920000007050344777697884812_);}
	.st66{fill:url(#Path_4954_00000027579097707660891190000010797282561631765149_);}
	.st67{fill:url(#Path_4955_00000020371607947285791480000014124410837220908448_);}
	.st68{fill:#ACADAD;}
</style>
<g>
	<rect class="st0" width="512" height="512"/>
	<circle class="st0" cx="256" cy="256" r="256"/>
	<path id="Path_4838" class="st1" d="M342.7,94.6c0.2-0.5,0.8-0.7,1.3-0.4c0,0,0.1,0,0.1,0.1c1.1,0.6,2.3,1.2,3.4,1.8
		c9.1,5.3,17.7,11.3,25.8,18c7,5.8,13.6,12.2,19.7,19c0.4,0.5,0.9,1,1.4,1.5l-1,0.6c0.2,0.1,0.4,0.3,0.4,0.3c1-0.4,1.5,0.3,2.1,1
		c1,1.2,2,2.4,3.1,3.7l-0.8,1c0.1,0.1,0.1,0.2,0.2,0.2c0.4-0.1,0.8-0.2,1.3-0.3c0.8,1.1,1.6,2.1,2.5,3.2c0.5,0.6,0.7,1.2,0.2,1.9
		c-0.2,0.3-0.2,0.6-0.1,0.9l0.7-0.9c0.1,0,0.2,0.1,0.3,0.2c2.9,3.4,5.5,7,7.7,10.8c2.6,4.4,5.3,8.7,7.7,13.2
		c2.7,5.2,5.1,10.6,7.4,16c1.9,4.5,3.5,9.1,5,13.7c1.8,5.5,3.3,11.2,4.5,16.9c0.4,1.8,0.7,3.6,1.1,5.4c0,0.4,0.1,0.8,0.1,1.2
		c-2.4,0.3-4.9,0.3-7.4,0.1c-1-4.4-2-8.8-3.2-13.1s-2.6-8.7-4.1-13s-3.1-8.5-5-12.6c-1.8-4.2-3.8-8.2-6-12.2
		c-2.2-4-4.5-7.9-6.9-11.7c-2.4-3.8-5-7.5-7.5-11.3l2.1-0.9l-0.1-1.7l-0.3-0.1c-0.2,0.3-0.4,0.6-0.6,0.9c-0.7,1.3-1.6,1.4-2.6,0.3
		c-1.6-1.9-3.1-3.9-4.7-5.8c-0.6-0.7-0.9-1.7-0.6-2.6l-1.3,0.3c-13.9-15.8-30.4-29.1-48.9-39.2c-1.2-0.7-2.7-1.1-3.6-2
		c-1-1-2.3-1.1-3.4-1.6c-2.7-1.2-5.3-2.5-8-3.6c-5.4-2.4-10.9-4.4-16.5-6.1c-5.3-1.5-10.5-2.9-15.9-4.2c-5.2-1.2-10.5-2.1-15.8-2.6
		c-5-0.5-9.9-1-14.9-1.2c-5.4-0.2-10.9,0-16.3,0.2c-2.6,0.1-5.2,0.4-7.8,0.6c-0.6,0-1.3,0.3-2-0.2c-0.3-0.2-1.1,0.4-1.6,0.5
		c-2.7,0.4-5.3,0.7-8,1.2c-4,0.7-8,1.5-12,2.4c-8.3,1.9-16.5,4.5-24.5,7.7c-6.7,2.7-13.1,5.7-19.4,9.2c-21.6,11.8-40.6,28-55.6,47.5
		c-5.2,6.8-10,14-14.2,21.4c-1.8,3.2-3.4,6.6-5,9.8c-0.2,0.5-0.5,1-0.8,1.6l-1.5-1.3c-1.4,1.2-1.5,3.4-0.3,4.8c0,0,0.1,0.1,0.1,0.1
		c-0.6,1.6-1.3,3.2-2,4.9c-3,7.3-5.4,14.8-7.4,22.4c-0.9,3.5-1.6,7.1-2.4,10.6c-0.2,0.8-0.5,1.2-1.3,1.1c-1.6-0.2-3.3,0.3-4.9-0.3
		c-0.4-0.1-0.9,0.2-1.6,0.3c0-0.4,0-0.8,0-1.2c1.4-8,3.4-15.8,5.9-23.6c1-3,2.2-5.9,3.1-8.9c0.2-0.7,1-0.7,1-1.4
		c0-0.6,0.1-1.2,0.4-1.8c0.6-1.4,1.2-2.8,1.8-4.3c0.2-0.3,0.4-0.6,0.6-0.9l0.4,2l0.8-0.2c0-0.3-0.1-0.6-0.2-0.8
		c-0.4-0.6-0.3-1.3,0.2-1.8c0.5-0.4,0.6-1.1,0.3-1.6c-0.1-0.1-0.2-0.3-0.4-0.3c3.2-6.9,6.7-13.5,10.7-20l1,0.2
		c0.2-0.3,0.4-0.7,0.5-1c0.2-0.8,1.2-1.4,0.7-2.4c-0.1-0.2,0.4-0.7,0.6-1c8.9-13.5,19.6-25.8,31.6-36.5c8-7.1,16.5-13.5,25.7-19
		c2.2-1.3,4.4-2.6,6.5-4c0.9-0.6,2-0.6,2.9-1.4c0.2-0.2,0.9,0.1,1.4,0.2c0.4,0.2,0.9,0.3,1.3,0.6l0.2-0.3l-1.1-1.4
		c0.7-0.4,1.3-0.8,2-1.2c5.4-2.6,10.9-5.2,16.5-7.3c6.2-2.4,12.5-4.5,18.8-6.2c8.3-2.3,16.7-4,25.2-5c4-0.5,8-0.7,12-1
		c7-0.4,14.1-0.5,21.1-0.2c4,0.1,7.9,0.7,11.9,1c10.4,1,20.6,3.1,30.6,6.1c8.8,2.5,17.3,5.7,25.5,9.6c2.5,1.2,5,2.4,7.5,3.6
		c0.6,0.3,1.2,0.8,1.8,1.1C342.7,93.5,343,94.1,342.7,94.6C342.8,94.6,342.8,94.6,342.7,94.6c-0.5-0.3-0.9-0.4-1.3,0.3L342.7,94.6z
		 M108.3,156.5c-1.2-0.8-1.2-0.8-2.2,0.9L108.3,156.5z M105.4,150.7c0.4,0.6,0.7,1,1.5,0.8l-0.6-1.4L105.4,150.7z M247,73.9
		c-0.8-0.1-1.1,0.2-1.4,1c0.6,0.2,1.2-0.2,1.3-0.8C247,74.1,247,74,247,73.9L247,73.9z M241.6,75.1l0.3,0.3c0.6-0.1,0.9-0.4,0.7-1.4
		L241.6,75.1z M169.8,98.3c0-0.6-0.2-0.9-0.8-0.8c-0.1,0-0.2,0.2-0.2,0.3C169,98.3,169.3,98.5,169.8,98.3z M112.7,148.5
		c-0.1-0.2-0.3-0.3-0.5-0.5c0,0-0.2,0.1-0.3,0.2l0.4,0.6L112.7,148.5z M169.7,95.4c-0.7,0.4-0.7,0.4,0,0.8V95.4z M239.8,75.8
		c-0.6-0.4-0.6-0.4-1,0.1L239.8,75.8z M346,101.2l0.3-0.4c-0.1-0.2-0.3-0.3-0.5-0.4c0,0-0.2,0.2-0.3,0.3L346,101.2z M346.2,96.6
		l0.2-0.3l-0.6-0.5l-0.2,0.3L346.2,96.6z M328.5,94l0.2-0.3l-0.7-0.4l-0.2,0.3L328.5,94z M326,89.7l-0.2,0.3l0.8,0.4l0.2-0.3
		L326,89.7z M248.4,74.1c0.1-0.2,0.3-0.3,0.3-0.4c0-0.1-0.1-0.2-0.2-0.3c-0.1,0-0.2,0.1-0.3,0.2L248.4,74.1z"/>
	<path id="Path_4839" class="st1" d="M147.4,403.6l-1.3-1.2v2c-0.6-0.3-1.2-0.6-1.7-0.9c-5.2-3.8-10.1-8-14.8-12.3
		c-5.5-5.1-10.7-10.6-15.6-16.3c-2-2.3-3.8-4.7-5.8-7.1l0.9-0.8c-0.4-0.3-0.8-0.8-1.2-0.9c-0.9-0.3-1.7-0.9-2.1-1.7
		c-4.6-6.3-8.8-12.9-12.6-19.8c-0.1-0.2-0.1-0.4-0.1-0.5c0.3,0,0.7-0.1,1-0.1c2.2,0,4.4,0,6.6,0c0.6-0.1,1.2,0.3,1.4,0.8
		c3.3,5.7,6.9,11.3,10.9,16.6c0.2,0.2,0.3,0.5,0.4,0.7l-1.1,0.2c0.5,1,0.5,1,1.7,0.6c1.9,2.2,3.7,4.5,5.6,6.8
		c5.8,6.9,12.1,13.3,18.8,19.2l0.1,0.1c6.2,5.5,12.7,10.5,19.6,14.9c0.7,0.5,1.4,0.9,1.4,2c-0.1,0.4,0.2,0.8,0.6,0.8
		c0.1,0,0.1,0,0.2,0c2.8-0.3,4.7,1.7,6.9,2.8c1.1,0.5,2.1,1.2,3.1,1.7c5.8,3.2,11.7,6,17.8,8.5c1.3,0.5,2.4,1.1,2.9,2.5
		c0.1,0.3,0.3,0.6,0.5,0.9c0.3-0.1,0.6-0.3,0.9-0.5c0.6-0.6,1.5-0.8,2.3-0.4c7.1,2.6,14.5,4.8,21.9,6.4c0.2,0.1,0.5,0.2,0.7,0.4
		c-0.6,0.6-1.2,1.2-1.9,1.7c-0.3,0.2-0.7,0.2-1.1,0.1c-0.8-0.3-1.7-0.1-2.2,0.6c0.8,0.9,1.9,1.5,3.1,1.7c0.5,0,1-0.1,1.4-0.4
		c0.6-0.5,1.2-1.1,1.7-1.7l-0.3-1.6c0.5-0.2,1.1-0.2,1.6,0c4.6,0.8,9.1,1.5,13.7,2.2c5.6,0.8,11.2,1,16.8,1.3
		c6.7,0.3,13.4,0.1,20-0.6c4-0.3,8-0.8,12-1.3c1.4-0.3,2.8-0.6,4.2-0.7c1.4,0,2.6-0.7,3.9-0.8c1.4-0.2,2.8-0.5,4.2-0.8
		c1.4-0.3,2.7-0.6,4.1-1c3.8-1.1,7.6-2.2,11.5-3.3c0.9-0.3,1.8-0.6,2.8,0c0.4-0.8,1.1-1.4,2-1.7c5.2-2.1,10.5-4.1,15.6-6.4
		c6.9-3.1,13.5-6.7,19.8-10.8c2.9-1.9,5.6-4,8.6-5.7c1.1-0.7,1.9-1.6,3-2.2s2-1.5,3-2.3c0.8-0.6,1.7-1,2.5-1.6
		c0.1-0.1,0.3-0.1,0.4-0.2c1-1.9,2.9-2.9,4.4-4.2c6.6-5.8,12.8-12.1,18.5-18.7c5.6-6.5,10.6-13.4,15.2-20.7c0.6-0.9,1.2-1.5,2.4-1.3
		c0.3,0,0.6,0,0.8-0.3l-1.8-0.5c0.3-0.7,0.6-1.4,1.1-2c0.4-0.3,0.9-0.6,1.4-0.8c0.2-0.1,0.4-0.1,0.7-0.2c1.7-1.1,1.2-0.9,2.7,0.2
		c0.8-0.4,1.5-1.3,2.8-0.7l-1,1.1c0.6,0.7,0.7,0,0.9-0.3c0.5-0.6,0.9-1.4,1.9-0.9c0,0.1,0.1,0.2,0.1,0.3c-2.1,3.6-4.3,7.3-6.4,10.9
		c-0.4,0.5-0.8,1-1.3,1.4c-0.3,0.7-0.6,1.4-0.9,2.1c-6.8,10.2-14.6,19.7-23.4,28.3c-10.3,10.2-21.7,19.1-34.1,26.7
		c-10.6,6.4-21.8,11.8-33.5,16c-8.8,3.2-17.9,5.7-27.2,7.5c-5.5,1-11,1.7-16.5,2.5c-0.5,0.1-1,0.2-1.1-0.7c-0.9,0.8-2,1.2-3.2,1.1
		c-7.9,0.6-15.8,0.7-23.8,0.3c-7.8-0.4-15.6-1.2-23.3-2.6c-7-1.3-14-3-20.9-5c-2.8-0.8-5.6-1.6-8.4-2.7c-3.9-1.5-7.8-2.8-11.6-4.6
		c-3.8-1.8-7.6-3.5-11.3-5.4c-7.5-3.8-14.7-8.2-21.6-13.1c-0.6-0.5-1.3-0.9-2-1.3c-0.9-0.6-0.9-0.8-0.2-1.6
		C147,403.8,147.2,403.7,147.4,403.6z M164.3,411.4l0.7,2.2l1.3-0.1l-0.6-2.5L164.3,411.4z M221.9,432.2l-1-1.2
		c-1.4,0.7-1.4,0.8-1,2.2L221.9,432.2z M222.8,433.2l0.8,1c0.6-0.8,1.8-1,1.6-2.4L222.8,433.2z M160.1,408.2c0.3,1.8,0.6,2.2,2,2.8
		C161.5,409.9,161.2,408.9,160.1,408.2L160.1,408.2z M229.7,435.2c-0.3,0.3-0.6,0.5-0.6,0.7c0,0.2,0.3,0.4,0.5,0.6
		c0.2-0.2,0.5-0.3,0.5-0.5C230.2,435.8,229.9,435.6,229.7,435.2L229.7,435.2z M410,351.7l-0.1,1.4
		C410.8,352.7,410.8,352.7,410,351.7z M277.5,434.1c-1-0.7-1-0.7-1.5,0H277.5z M280.6,432.4c-0.8,0.4-0.8,0.4-0.6,1.2L280.6,432.4z
		 M407.1,357.7l0.4-0.2l-0.5-0.8l-0.3,0.2L407.1,357.7z M360.8,402.2l-0.4,0.1l0.3,1l0.4-0.1L360.8,402.2z"/>
	<path id="Path_4840" class="st2" d="M445.8,223.7h-4.3c-10.3-53-37.3-95-82.2-125c-32.7-21.8-69-31.9-108.3-31.1
		c-17.3,0.4-34.4,3.2-50.8,8.3c-50.2,15.5-91.6,51.3-114.4,98.6c-7.5,15.6-12.7,32.1-15.6,49.1h-4.6c2.7-16.1,7.4-31.8,14.1-46.7
		c14.7-33,38.4-61.1,68.4-81.2c29-19.7,63-31,98-32.6c53.6-2.8,105.9,17,144.3,54.5C426.2,152.5,441.6,194.9,445.8,223.7z"/>
	<path id="Path_4841" class="st2" d="M84.5,343.8c1.4,0,2.9-0.1,4.3,0c0.4,0,0.8,0.5,1,0.9c1.9,3.2,3.6,6.4,5.6,9.6
		c4.6,7.6,9.8,14.8,15.5,21.6c6.8,8.2,14.3,15.7,22.4,22.6c8.8,7.5,18.4,14.3,28.4,20c8.9,5.1,18.1,9.5,27.7,13.1
		c8.7,3.3,17.7,5.9,26.8,7.8c4.9,1,9.9,2,14.8,2.6c11.6,1.5,23.4,2,35.1,1.3c4.8-0.3,9.6-0.6,14.4-1.3c11.9-1.6,23.6-4.3,35-8.1
		c8.8-2.9,17.3-6.5,25.6-10.7c15-7.6,29-17.3,41.5-28.6c11.4-10.3,21.5-22.1,30.1-34.9c3.2-4.8,6-9.9,8.9-14.9
		c0.3-0.7,1.1-1.2,1.9-1.1c1.2,0.1,2.4,0,3.9,0c-5,9.8-10.8,19.1-17.4,27.8c-17.5,23.2-40,42.2-65.8,55.4
		c-28.2,14.6-59.7,21.9-91.4,21.3c-28.3-0.4-56.1-7-81.5-19.5c-27.2-13.2-50.8-32.6-69-56.7C94.1,361.6,85,346.7,84.5,343.8z"/>
	<path id="Path_4850" class="st3" d="M471.5,296.7c-0.5,0-1,0.1-1.4,0.1c-4,0-8,0-12,0c-0.8,0.1-1.7-0.4-2-1.2
		c-3.2-5.7-6.4-11.4-9.7-17c-0.4-0.7-0.9-1.3-0.4-1.8c-0.5-0.4-0.9-0.8-1.3-1.2c-4.1-7.2-8.3-14.4-12.4-21.6
		c-0.1-0.2-0.3-0.5-0.5-0.6c-0.3,3.6-0.1,7.2-0.1,10.8c0,3.6,0.1,7.2,0.1,10.8c0,3.6,0,7.3,0.1,10.9c0.1,3.6,0.2,7.2,0.2,11
		c-4.4,0.1-8.8,0-13,0.1c-0.4-1.2-0.5-18.3-0.2-21.6c1.4-0.4,1.4-0.4,1.4-1.9l-1.4-0.2v-36.1H435l23.6,41.4l0.3-0.1l-0.5-41.3
		c3.6-0.2,7-0.1,10.4,0c0.2,0,0.4,0.3,0.4,0.3l2.2-0.4V296.7z M423.9,255l1.2-0.8l-1.2-1V255z M469.5,254.3h1.5l-0.4-1.4
		L469.5,254.3z M428,246.9l0.4-0.4l-1-1.1l-0.3,0.3L428,246.9z M467.2,288.5l-0.6-0.6c-0.1,0.1-0.3,0.4-0.3,0.4
		c0.1,0.2,0.3,0.3,0.5,0.4C466.9,288.8,467,288.7,467.2,288.5L467.2,288.5z M469.6,246.8l-0.2,0.2c0.1,0.5,0.5,0.7,1.1,0.7
		L469.6,246.8z M464.4,251.8c-0.2-0.2-0.4-0.4-0.5-0.4c-0.1,0-0.3,0.2-0.4,0.4c0.1,0.1,0.2,0.3,0.4,0.3
		C464.1,252.1,464.2,252,464.4,251.8L464.4,251.8z M421.4,272l0-0.2h-0.7l0,0.4L421.4,272z"/>
	<path id="Path_4851" class="st3" d="M359.1,242.9c0.3-0.5,0.7-0.9,1.2-1.3c3.3-2.4,7.1-3.9,11.1-4.6c4-0.7,8-0.9,12.1-0.7
		c4.5,0.2,9,1.3,13.1,3.3c0.4,0.2,0.7,0.4,1,0.6c0.1,0.1,0.2,0.2,0.3,0.4c-0.4,0.8-1.2,1.4-1.1,2.6c1.1-0.2,2-1,2.3-2
		c0.6,0.4,1.1,0.7,1.5,1c3.7,3.1,6.4,7.4,7.6,12.1c1.9,6.9,2.3,14.2,1.1,21.3c-0.6,4.4-2.2,8.6-4.6,12.4c-2.4,3.6-5.9,6.3-9.9,7.8
		c-4.9,1.9-10.1,2.7-15.4,2.5c-3.4,0-6.7-0.4-10-1.1c-6.2-1.6-11.4-4.5-14.8-10.2c-1.9-3.3-3.2-7-3.8-10.8
		c-0.7-4.6-0.9-9.2-0.5-13.9c0.2-4.8,1.6-9.5,3.9-13.7c1-1.9,2.3-3.6,3.9-5.1C358.3,243.3,358.7,243,359.1,242.9z M363.9,268.1
		c0.1,3.9,0.8,7.7,2.1,11.3c0.9,2.5,2.6,4.6,4.8,6c2.1,1.2,4.3,2,6.7,2.3c3.7,0.6,7.5-0.1,10.8-1.9c3.7-2,5.5-5.5,6.3-9.4
		c1.7-6.9,1.4-14.3-0.9-21c-1.3-3.7-4.3-6.5-8.1-7.6c-2.9-0.9-5.9-1.2-8.8-0.7c-3.1,0.5-6.1,1.6-8.2,4.1c-1.5,1.8-2.5,3.9-3.2,6.2
		C364.3,260.9,363.8,264.5,363.9,268.1L363.9,268.1z M398.2,268c0.4-0.8,0.6-1.2,0.8-1.6c0.1-0.1,0.1-0.2,0.1-0.3
		c0.3-0.9,0.1-1.3-0.9-1.3c-0.4,0-0.7,0.1-1.1,0.2L398.2,268z M353.9,273.5l-1.7-0.3l-0.2,1.7C353.2,275,353.2,275,353.9,273.5z
		 M369.1,242.2l0-0.3l-2-0.8l0.2,1.6L369.1,242.2z M361.2,288.2c1-1,1-1-0.2-1.8l-0.9,0.7L361.2,288.2z M401.6,274.7l0.4,2.4
		l0.8-1.7L401.6,274.7z M401,278.4c-0.5-0.5-0.9-0.6-1.4,0C400.1,279,400.5,278.9,401,278.4z M378.6,292.1c-0.3,0.6-0.3,1,0.3,1.3
		C379.4,292.8,379.2,292.4,378.6,292.1z"/>
	<path id="Path_4852" class="st3" d="M116.9,297.1c-0.1-0.1-0.2-0.2-0.2-0.2c-0.1-0.4,0.3-1.1-0.5-1.1c-0.2,0-0.4,0.7-0.7,1.2H107
		c0-3.6,0-7.2,0-10.8h24.4l0.4,1l0.2,0l0.1-1.1c2.4,0,4.7,0.1,7.1,0c1.4-0.1,2.9-0.3,4.3-0.6c3.2-0.7,4.7-2.3,4.2-6.6
		s-1.7-4.8-5.2-5.5c-1.7-0.3-3.4-0.4-5-0.4c-5.2-0.1-10.5,0-15.7-0.1c-3.9,0-7.6-1.1-11-3c-2.9-1.8-5-4.7-5.6-8.1
		c-0.9-4-0.9-8.3,0-12.3c0.9-4.6,4.1-8.4,8.5-10c3.2-1.3,6.6-1.9,10-2c10.9-0.1,21.8-0.1,32.8-0.2c0.6,0,1.2,0,1.8,0.1v10.9h-1.8
		c-8.6,0-17.2,0-25.7,0c-1.9,0-3.8,0.2-5.7,0.3c-0.5,0-1,0-1.5-0.1c-0.2,0.2-0.5,0.6-0.8,0.6c-4.1,1.1-4.9,3.9-4.7,7.6
		c0.2,3.1,1.9,4.5,5.4,5.3c1.3,0.2,2.6,0.3,3.9,0.2c3.7,0,7.5,0,11.2,0c2.6,0,5.2,0,7.8,0.1c1.5,0.1,3,0.3,4.5,0.7l0.7,1.8l1.1-1.3
		c2.1,0.7,4,2,5.4,3.7c1.7,2.1,2.7,4.7,3,7.4c0.6,3.9,0.4,7.8-0.6,11.6c-0.9,3.9-3.7,7.1-7.5,8.5c-1.6,0.6-3.3,1.1-5,1.5
		c-1.6,0.4-3.2,0.7-4.9,0.8c-1.7,0-3.4,0.1-5.1,0.1c-6.5,0-13.1,0-19.6,0H116.9z M109.4,292.7c-0.4,0.5-0.6,0.8-0.9,1.1
		c-0.3,0.4-0.6,0.9-0.2,1.3c0.4,0.3,0.8,0.5,1.3,0.4c0.4,0,0.8-0.5,1.2-0.8L109.4,292.7z M154.9,269l2.2-0.5l-1-1.6L154.9,269z
		 M106.9,259.6c-1.1,0.3-1.1,0.3-0.6,1.2L106.9,259.6z M153.5,281.7c1.2,0.2,1-0.3,0.9-1L153.5,281.7z M137.5,240l0.2-1.2l-0.9-0.1
		L137.5,240z M112.5,241.1c0.5,0.8,0.5,0.8,0.9,0.1L112.5,241.1z"/>
	<path id="Path_4853" class="st3" d="M275.8,297c-0.6,0-1.1,0.1-1.6,0.1h-11.1c-1.6,0-1.6,0-2.1-1.5c-1.5-4-3.1-8-4.6-12
		c-0.1-0.2-0.2-0.4-0.3-0.6h-25.5l-5.3,14H212c0.1-0.4,0.2-0.9,0.4-1.3c1.9-4.6,3.9-9.3,5.9-13.9c1.8-4.3,3.6-8.5,5.4-12.8
		c2.4-5.7,4.9-11.4,7.3-17.2c1.7-4.1,3.4-8.2,5.1-12.3c1-2.3,0.9-2.3,3.4-2.3c3.2,0,6.5,0,9.7,0c0.9-0.1,1.7,0.4,1.9,1.2
		c3.5,8.4,7.1,16.8,10.7,25.2c3.8,8.8,7.5,17.7,11.3,26.5c0.8,2,1.7,3.9,2.5,5.9C275.7,296.4,275.8,296.7,275.8,297z M251.9,271.9
		l-8.5-21.6c-0.1,0.1-0.2,0.3-0.3,0.4c-1.1,2.2-1.4,4.7-2.9,6.6c-0.1,0.1-0.1,0.2-0.1,0.3c0.1,0.9-0.2,1.8-0.6,2.6
		c-1.3,3.4-2.6,6.8-3.9,10.2c-0.2,0.5-0.3,1-0.4,1.5H251.9z M241.5,239.6l-1.5-0.4C240.3,240.2,240.7,240.2,241.5,239.6z
		 M261.6,277.2l0,0.4l1,0.2l0.1-0.4L261.6,277.2z"/>
	<path id="Path_4854" class="st4" d="M88.8,251.1h-1.6c-5.7,0-11.5,0-17.2,0c-2,0-4,0.2-5.9,0.5c-2.8,0.4-5.2,2.4-6,5.1
		c-1.3,3.6-1.9,7.3-2,11.1c0,3.1,0,6.3,1,9.3c0.5,1.9,1.6,3.6,3.2,4.8c0.6,0.5,1.4,0.8,2.1,1c3.1,0.7,6.2,0.8,9.3,0.4
		c0.3,0,0.6,0,0.9,0h15c0.4,0,0.8,0.1,1.1,0.1c0.4,1.1,0.5,11.2,0.2,13.7c-0.3,0.1-0.6,0.2-0.9,0.2c-7.3,0-14.7,0.1-22,0
		c-2.1,0-4.2-0.2-6.2-0.6c-1.2-0.3-2.5-0.3-3.6-0.7c-5.7-1.6-10.6-5.5-13.3-10.8c-2.3-4.5-3.6-9.6-3.6-14.7
		c-0.3-4.8,0.2-9.7,1.5-14.4c0.7-2.8,1.8-5.4,3.3-7.8c0.4-0.7,0.8-1.4,1.8-1.2c0.2,0,0.3-0.1,0.6-0.2l-0.8-0.7
		c0.8-1.5,2-2.7,3.5-3.6c0.3-0.2,0.8,0,1.3,0c0-0.2-0.2-0.5-0.1-0.7c0.1-0.3,0.4-0.5,0.6-0.6c2.8-1.7,5.9-2.8,9.1-3.3
		c1.9-0.3,3.8-0.5,5.6-0.6c0.7,0,1.5,0.2,2.2,0.4c0.5-0.2,1.1-0.3,1.6-0.4c6-0.1,12-0.1,18-0.1c0.5,0,1,0,1.4,0
		C89,238.6,89.1,249.3,88.8,251.1z M55.9,285.3c-1.1-1.1-1.4-1.2-1.9-0.7c-0.4,0.4-0.4,1,0,1.4c0,0,0,0,0.1,0
		C54.6,286.6,55.2,286.4,55.9,285.3z M82.3,291.5l-0.4,0l-0.6,1l1.2,0.6L82.3,291.5z M74.6,285.7l-0.1,0.4l1.5,0.2
		C75.6,285.5,75.2,285.2,74.6,285.7L74.6,285.7z M48.5,282c0.4-0.2,0.6-0.5,0.3-0.9c-0.2-0.1-0.4-0.1-0.6,0
		C47.9,281.5,48.1,281.8,48.5,282z M44.9,269c-0.2-0.4-0.5-0.6-0.9-0.3c-0.1,0.2-0.1,0.4,0,0.6C44.4,269.7,44.6,269.4,44.9,269
		L44.9,269z M74.1,242.8l-0.1,0.3l0.7,0.2l0.1-0.3L74.1,242.8z M81.2,244.6c-0.1,0.4-0.3,0.5-0.2,0.6c0.1,0.2,0.2,0.3,0.3,0.4
		c0.1-0.1,0.3-0.2,0.3-0.2C81.4,245.2,81.3,244.9,81.2,244.6z M52.8,260.9c-0.2,0.4-0.3,0.6-0.3,0.8c0,0.1,0.2,0.4,0.3,0.4
		c0.2,0,0.3-0.1,0.4-0.3C53.2,261.7,53,261.5,52.8,260.9z"/>
	<path id="Path_4855" class="st3" d="M195.8,297h-13.3c-0.2-4,0-8.1-0.1-12.1c0-4.1,0-8.2,0-12.3v-24.4h-1.7c-4.3,0-8.6,0-12.9,0
		c-1.4-0.1-2.8-0.1-4.2,0c-0.4-1.2-0.5-9.2-0.1-10.7H215v10.7c-2.1,0.1-4.2,0-6.2,0.1c-2.2,0-4.3,0-6.4,0h-6.4V297z"/>
	<path id="Path_4856" class="st3" d="M291.5,248.3h-4.3c0-0.2-0.1-0.5-0.2-0.7c-0.1-0.2-0.3-0.4-0.5-0.5l-0.6,1.2
		c-1.4,0-3,0.1-4.5,0c-0.4,0-0.8-0.7-1.3-0.7c-0.4,0-0.7,0.7-1.1,0.7c-2,0.1-4.1,0-6,0c-0.4-1.2-0.6-8.1-0.2-10.5
		c1-0.3,49.4-0.4,51.4-0.1v10.6c-6.4,0-12.7,0-19.1,0V297H292l-0.1-0.1c0,0-0.1-0.1-0.1-0.1c0-0.1,0-0.2-0.1-0.3c0-0.1,0-0.1,0-0.2
		l0-0.2v-0.6c0-15.6,0-31.1,0-46.7c0-0.1,0-0.2,0-0.3C291.6,248.5,291.6,248.4,291.5,248.3z M294.7,264c0,1,0.2,1.5,0.7,1.3
		c0.3-0.1,0.7-0.6,0.7-0.8C295.9,263.7,295.3,263.8,294.7,264z M299.9,263.9l-0.8-1.4C298.8,263.7,298.8,263.7,299.9,263.9
		L299.9,263.9z M279.8,245.1c0.2-0.2,0.3-0.4,0.4-0.6c0,0-0.3-0.3-0.4-0.3c-0.2,0.1-0.3,0.2-0.4,0.4
		C279.5,244.7,279.7,244.8,279.8,245.1z"/>
	<path id="Path_4857" class="st3" d="M342.6,278.1c-0.7,0.2-1.5,0.2-1.8,1.2c0.3,0.3,0.6,0.5,1,0.8c0.6,0.2,1,0.9,0.9,1.5
		c-0.1,1.4,0,2.8,0,4.3l-1,0.5c0.1,0.2,0.1,0.4,0.2,0.4c0.5,0.2,0.9,0.5,0.9,1.2c-0.1,2.8,0,5.6,0,8.4c0,0.3-0.1,0.5-0.2,0.8h-13.3
		c0-0.6-0.1-1.1-0.1-1.7c0-18.8,0-37.5,0-56.3c0-0.3,0-0.7,0-1c0-0.4,0.3-0.7,0.7-0.7c0,0,0,0,0.1,0l0.3,0c3.8,0,7.6,0,11.4,0
		c0.7,0,1.1,0.2,1.1,1c0,1.5,0,3.1,0,4.6l-2,1.2c0.7,1.7,0.7,1.7,1.9,1.6L342.6,278.1z M339.4,277l-0.1-0.3
		c-0.6-0.1-1.1-0.1-1.7-0.1c-0.4,0-0.7,0.3-0.7,0.7c0,0.1,0,0.2,0.1,0.3c0.2,0.3,0.6,0.4,0.9,0.3C338.4,277.7,338.9,277.4,339.4,277
		z M334.4,273.9l0.2,0.3c0.3-0.1,0.8-0.2,0.9-0.4c0.1-0.3,0-0.8,0-1.2l-0.3,0L334.4,273.9z M332.6,266.4c0.5,0.9,0.5,0.9,1.3,0.8
		C333.7,266.7,333.5,266.2,332.6,266.4L332.6,266.4z M333.4,252.4c-0.4,0.3-0.7,0.6-0.3,1c0.2,0.1,0.4,0.1,0.6,0
		C334.2,252.9,333.9,252.6,333.4,252.4L333.4,252.4z M333.4,262.6c-0.1-0.3-0.2-0.5-0.3-0.5c-0.2,0.1-0.4,0.1-0.6,0.2
		c0.1,0.2,0.2,0.4,0.3,0.4C332.9,262.8,333.1,262.7,333.4,262.6L333.4,262.6z"/>
	
		<linearGradient id="Path_4893_00000022553837662299979960000014373272559226969265_" gradientUnits="userSpaceOnUse" x1="-48.8429" y1="651.3239" x2="-47.8429" y2="651.3239" gradientTransform="matrix(286.7224 0 0 -114.6146 14116.1006 74817.6484)">
		<stop  offset="0" style="stop-color:#FF1200"/>
		<stop  offset="0.315" style="stop-color:#FF2700"/>
		<stop  offset="1" style="stop-color:#FFD000"/>
	</linearGradient>
	<path id="Path_4893" style="fill:url(#Path_4893_00000022553837662299979960000014373272559226969265_);" d="M290.1,222.6
		c-0.2,1-0.7,1.1-1.3,1.1c-1.5-0.1-3-0.1-4.5-0.1c-17.9,0-35.7,0-53.6,0c-2.1,0-4.3-0.1-6.4-0.2c-0.6-0.1-1.2-0.3-1.8-0.6
		c-0.2,0.6-0.8,0.7-1.5,0.7c-21.5,0-43,0.1-64.5,0.1c-13,0-26.1,0-39.1,0H112c-0.1-0.2-0.2-0.3-0.2-0.3c0.8-3,1.6-5.9,2.4-8.8
		c2.3-7.7,5.2-15.3,8.7-22.5c4-8.2,8.7-15.9,14.1-23.2c3.3-4.5,7.1-8.5,10.7-12.7c4-4.4,8.3-8.5,12.8-12.4c0.4-0.4,0.9-0.9,1.5-0.6
		c0.3-0.5,0.6-0.9,1-1.3c6.2-4.9,12.4-9.7,19.4-13.4c3.4-1.8,7-3.4,10.5-5.1c2.7-1.3,5.4-2.6,8.2-3.7c7.3-3,14.9-5.3,22.6-7.1
		c6.2-1.4,12.5-2.3,18.9-2.5c1.4,0,2.7-0.4,4.1-0.4c2.3-0.1,4.7-0.2,7-0.3c5.3-0.1,10.6,0.1,15.8,0.6c5.8,0.6,11.6,1.5,17.4,2.8
		c5.8,1.3,11.6,2.9,17.2,4.9c5.9,2.1,11.6,4.6,17.1,7.5c7.3,3.8,14.3,8.2,20.9,13c9.3,6.5,17.6,14.2,24.8,23
		c2.8,3.4,5.7,6.7,8.2,10.3c2.8,4,5.2,8.2,7.7,12.3c4.9,7.9,8.2,16.5,11.5,25.1c1.8,4.6,2.8,9.5,4.1,14.2c0,0.2,0,0.5,0,0.7
		c-1.2,0.1-2.3,0.2-3.4,0.2c-3.3,0-6.6,0-9.9,0c-1.2,0-2.4,0-3-1.7l-0.3,1.6c-0.6,0-1.1,0.1-1.6,0.1c-29.3,0-58.7,0-88,0
		C291.6,223.6,290.7,223.9,290.1,222.6z M219,180.8c0.6,0,1.2-0.1,1.7-0.1c4.9,0,9.8,0,14.7,0c9.9,0,19.7,0,29.6,0
		c8.2,0,16.5,0,24.7,0c0.5,0,1,0.1,1.6,0.1c0,0.5,0.1,0.9,0.1,1.2c0,6.4,0,12.9,0,19.3c0,0.4,0,0.8,0,1.2c0,0.5,0.3,0.8,0.8,0.9
		c1.9,0.1,3.7,0.1,5.6-0.1c0.4-2.7,0.5-46.2,0.2-47.4h-6.6v22.3c-0.5,0-0.9,0.1-1.3,0.1c-9.3,0.1-18.5,0.2-27.8,0.2
		c-13.7,0-27.4,0-41.2,0c-0.4,0-0.7,0-1,0c-0.8,0-1.1-0.3-1-1.1c0-1.2,0-2.4,0-3.6c0.1-0.7,0.2-1.4,0.4-2.1
		c-0.2-0.5-0.3-1.1-0.4-1.6c0.1-1.9-0.4-3.8,0.3-5.6c0-0.1-0.1-0.2-0.1-0.4c-0.3-0.9-0.4-1.9-0.1-2.8c0.1,0,0.2-0.1,0.2-0.1
		c0.3,0.1,0.7,0.2,1,0.3c1.2,0.3,1.4,0.2,1.7-1.2l-3,0.8v-2.1c0-0.7,0-1.5,0-2.2c0.1-0.5-0.3-0.9-0.7-1c-0.1,0-0.1,0-0.2,0
		c-1.9,0-3.8,0-5.8,0c0.3,16-0.2,31.9-0.1,47.8h6.6L219,180.8z M306.7,160.2c-2.2-0.1-4.5-0.1-6.7,0.1c-0.4,2.2-0.2,37.7,0.1,38.8
		h6.6C307.1,197.5,307.1,161.8,306.7,160.2L306.7,160.2z M210.4,160.2h-6.6c-0.3,2.1-0.2,37.8,0.1,39l6.5-0.3L210.4,160.2z
		 M194.9,180.7v1.7c0,2.7,0,5.4,0,8.1c0,0.5,0,1.1,0.1,1.6c0.2,1.2,0.3,1.4,1.5,1.4c1.4,0,2.9,0,4.3,0c1.1,0,1.3-0.2,1.4-1.3
		c0-0.4,0.1-0.8,0-1.2c0-4.6,0-9.2,0-13.8c0-1.2-0.1-2.5-0.1-3.7c0-1.9,0.1-3.9,0.1-5.8c-0.1-0.7-0.2-1.4-0.3-2.1
		c-1.8,0-3.4,0-5.1,0c-1.9,0.1-2,0.2-2,2.1c0,3,0,6.1,0,9.1c0,0.5-0.1,1-0.1,1.6h-4.3l0.3,2.2H194.9z M315.5,178.2
		c-0.1-0.2-0.1-0.4-0.1-0.6c0-3,0-6.1,0-9.1c0-0.6,0-1.3-0.1-1.9c0-0.5-0.4-0.8-0.9-0.8c-1.7,0-3.5,0-5.2,0c-0.8,0-1,0.5-1,1.2
		c0,1,0,2,0,3c0,5.8,0,11.7,0,17.5c0,1.6,0,3.2,0,4.8c0,1.2,0.2,1.4,1.4,1.4c1.4,0,2.7,0,4,0c1.6,0,1.7-0.1,1.7-1.7
		c0-3.1,0-6.2,0-9.3v-1.7l4.3-0.2v-2.1L315.5,178.2z M242.1,111.8l-0.1-0.3c-0.5,0-1,0-1.6,0.1c-0.3,0.2-0.4,0.4-0.4,0.7
		c0.1,0.4,0.5,0.8,1,0.4C241.4,112.4,241.7,112.1,242.1,111.8z M279.3,116.3c0.4,0.3,0.8,0.4,1-0.1c0.1-0.5,0.6-1.2-0.3-1.6
		L279.3,116.3z M156.3,157.7c-0.4-1-0.4-1-1.6-1.4C154.7,157.5,154.8,157.6,156.3,157.7z M155.2,218.5l-0.2-0.1l-2.4,0.9l1.4,0.5
		L155.2,218.5z M229.8,217.5c1.5,0.4,2,0,2.1-1.4L229.8,217.5z M353.5,190.3l0.3-0.1l-0.9-2.4C352.5,188.7,352.8,189.7,353.5,190.3
		L353.5,190.3z M380.2,209.2l-1.3-1.8C378.9,209.2,379.1,209.4,380.2,209.2z M293.3,218.1c0.1,0,0.2,0.1,0.2,0.1c0,0,0.1-0.1,0-0.1
		c0-0.4,0-0.9-0.1-1.3c0-0.2-0.3-0.4-0.5-0.6l-0.2,0.2L293.3,218.1z M283.4,120.8c0.1,0.6,0.2,1,0.8,0.9c0.2-0.1,0.3-0.2,0.3-0.4
		C284.3,120.7,284,120.6,283.4,120.8L283.4,120.8z M382,202.1c0.2-0.7,0.1-1.5-0.2-2.2C381.3,200.7,381.6,201.3,382,202.1L382,202.1
		z M287.9,214.6c-0.2,0.2-0.3,0.5-0.4,0.8c0,0,0.3,0.3,0.4,0.2c0.2-0.1,0.4-0.3,0.6-0.5L287.9,214.6z M376.9,199.1l0-0.3h-1l0.1,0.9
		L376.9,199.1z M266.2,194.7l0.4-0.3c-0.2-0.3-0.1-0.8-0.7-0.8c-0.1,0-0.3,0.2-0.3,0.3C265.7,194.1,265.9,194.4,266.2,194.7z
		 M272,191.2c-0.6-0.5-0.6-0.5-1.2-0.4C270.9,191.4,271.2,191.7,272,191.2z M354.7,178.1l0.2-0.3c-0.3-0.4-0.5-1.1-1.3-0.2
		L354.7,178.1z M209.1,156.2c-0.3-0.2-0.6-0.3-0.8-0.4c-0.1,0-0.2,0.3-0.3,0.4c0.2,0.2,0.4,0.3,0.7,0.4
		C208.7,156.6,208.9,156.4,209.1,156.2L209.1,156.2z M151.7,221.9l0.6,1.3l0.5-0.8L151.7,221.9z M228.5,220c0.5,0.7,0.5,0.7,1.1,0.5
		c0.1,0,0.1-0.1,0.2-0.3L228.5,220z M124.1,202l-0.1,0.4c0.3,0.3,0.6,0.5,1.1-0.2L124.1,202z M245.7,113.7l-0.9-0.5
		C244.9,114.1,244.9,114.1,245.7,113.7L245.7,113.7z M141.1,214c-0.1,0.4-0.1,0.8,0.5,0.8c0.1,0,0.3-0.1,0.3-0.2
		C141.9,214.1,141.6,213.8,141.1,214z M282.1,114c-0.2,0.5-0.3,0.8-0.4,1c0,0,0.3,0.2,0.3,0.2C282.4,115,282.5,114.7,282.1,114z
		 M251.6,121.7l-0.3,0.3l0.7,0.5l0.2-0.2L251.6,121.7z M266.8,118.5l-1.2-0.3C266.2,118.8,266.2,118.8,266.8,118.5L266.8,118.5z
		 M236.4,117c0.1,0.2,0.2,0.4,0.3,0.4c0.2,0,0.3-0.1,0.5-0.2c-0.1-0.1-0.1-0.3-0.2-0.3C236.7,116.9,236.5,116.9,236.4,117L236.4,117
		z"/>
	
		<linearGradient id="Path_4894_00000039116704910681835150000017230893475827834023_" gradientUnits="userSpaceOnUse" x1="-27.2361" y1="558.7081" x2="-26.2331" y2="558.7081" gradientTransform="matrix(2.07 0 0 -1.4373 296.3601 915.17)">
		<stop  offset="0" style="stop-color:#FF1200"/>
		<stop  offset="0.315" style="stop-color:#FF2700"/>
		<stop  offset="1" style="stop-color:#FFD000"/>
	</linearGradient>
	<path id="Path_4894" style="fill:url(#Path_4894_00000039116704910681835150000017230893475827834023_);" d="M242.1,111.8
		c-0.3,0.4-0.7,0.7-1,1c-0.5,0.3-0.9,0-1-0.4c0-0.3,0.2-0.6,0.4-0.7c0.5-0.1,1-0.1,1.6-0.1L242.1,111.8z"/>
	
		<linearGradient id="Path_4895_00000097459848585742284140000012911284026944151720_" gradientUnits="userSpaceOnUse" x1="-11.3047" y1="583.4803" x2="-10.3077" y2="583.4803" gradientTransform="matrix(1.1953 0 0 -1.9531 292.782 1255.1525)">
		<stop  offset="0" style="stop-color:#FF1200"/>
		<stop  offset="0.315" style="stop-color:#FF2700"/>
		<stop  offset="1" style="stop-color:#FFD000"/>
	</linearGradient>
	<path id="Path_4895" style="fill:url(#Path_4895_00000097459848585742284140000012911284026944151720_);" d="M279.3,116.3l0.6-1.7
		c1,0.4,0.4,1.1,0.3,1.6C280.1,116.6,279.7,116.6,279.3,116.3z"/>
	
		<linearGradient id="Path_4896_00000083797466599118990080000008618377044876046781_" gradientUnits="userSpaceOnUse" x1="-20.4458" y1="556.6214" x2="-19.4498" y2="556.6214" gradientTransform="matrix(1.578 0 0 -1.406 186.963 939.6491)">
		<stop  offset="0" style="stop-color:#FF1200"/>
		<stop  offset="0.315" style="stop-color:#FF2700"/>
		<stop  offset="1" style="stop-color:#FFD000"/>
	</linearGradient>
	<path id="Path_4896" style="fill:url(#Path_4896_00000083797466599118990080000008618377044876046781_);" d="M156.3,157.7
		c-1.5-0.1-1.5-0.2-1.6-1.4C155.9,156.8,155.9,156.8,156.3,157.7z"/>
	
		<linearGradient id="Path_4897_00000042718715544055776010000017896194004436001434_" gradientUnits="userSpaceOnUse" x1="-31.3104" y1="560.7333" x2="-30.3094" y2="560.7333" gradientTransform="matrix(2.547 0 0 -1.469 232.3569 1042.804)">
		<stop  offset="0" style="stop-color:#FF1200"/>
		<stop  offset="0.315" style="stop-color:#FF2700"/>
		<stop  offset="1" style="stop-color:#FFD000"/>
	</linearGradient>
	<path id="Path_4897" style="fill:url(#Path_4897_00000042718715544055776010000017896194004436001434_);" d="M155.2,218.5l-1.2,1.3
		l-1.4-0.5l2.4-0.9L155.2,218.5z"/>
	
		<linearGradient id="Path_4898_00000130631052465028903300000012475116528452261264_" gradientUnits="userSpaceOnUse" x1="-27.876" y1="567.0959" x2="-26.876" y2="567.0959" gradientTransform="matrix(2.133 0 0 -1.5784 289.275 1112.0044)">
		<stop  offset="0" style="stop-color:#FF1200"/>
		<stop  offset="0.315" style="stop-color:#FF2700"/>
		<stop  offset="1" style="stop-color:#FFD000"/>
	</linearGradient>
	<path id="Path_4898" style="fill:url(#Path_4898_00000130631052465028903300000012475116528452261264_);" d="M229.8,217.5l2.1-1.4
		C231.8,217.6,231.3,217.9,229.8,217.5z"/>
	
		<linearGradient id="Path_4899_00000070825887444901013940000005039745181632877458_" gradientUnits="userSpaceOnUse" x1="-8.6419" y1="598.2087" x2="-7.6459" y2="598.2087" gradientTransform="matrix(1.1164 0 0 -2.483 362.3767 1674.3859)">
		<stop  offset="0" style="stop-color:#FF1200"/>
		<stop  offset="0.315" style="stop-color:#FF2700"/>
		<stop  offset="1" style="stop-color:#FFD000"/>
	</linearGradient>
	<path id="Path_4899" style="fill:url(#Path_4899_00000070825887444901013940000005039745181632877458_);" d="M353.5,190.3
		c-0.7-0.6-1-1.6-0.6-2.5l0.9,2.4L353.5,190.3z"/>
	
		<linearGradient id="Path_4900_00000145024948676833638510000018015843364597677234_" gradientUnits="userSpaceOnUse" x1="-15.2789" y1="580.0107" x2="-14.2779" y2="580.0107" gradientTransform="matrix(1.336 0 0 -1.8597 399.269 1286.9344)">
		<stop  offset="0" style="stop-color:#FF1200"/>
		<stop  offset="0.315" style="stop-color:#FF2700"/>
		<stop  offset="1" style="stop-color:#FFD000"/>
	</linearGradient>
	<path id="Path_4900" style="fill:url(#Path_4900_00000145024948676833638510000018015843364597677234_);" d="M380.2,209.2
		c-1.1,0.2-1.3,0-1.3-1.8L380.2,209.2z"/>
	
		<linearGradient id="Path_4901_00000025401494813510955400000003441537572655073191_" gradientUnits="userSpaceOnUse" x1="6.55" y1="583.6164" x2="7.554" y2="583.6164" gradientTransform="matrix(0.8111 0 0 -1.957 287.5188 1359.3774)">
		<stop  offset="0" style="stop-color:#FF1200"/>
		<stop  offset="0.315" style="stop-color:#FF2700"/>
		<stop  offset="1" style="stop-color:#FFD000"/>
	</linearGradient>
	<path id="Path_4901" style="fill:url(#Path_4901_00000025401494813510955400000003441537572655073191_);" d="M293.3,218.1l-0.5-1.7
		l0.2-0.2c0.2,0.2,0.5,0.4,0.5,0.6c0.1,0.4,0.1,0.9,0.1,1.3c0,0,0,0.1,0,0.1C293.5,218.2,293.4,218.2,293.3,218.1z"/>
	
		<linearGradient id="Path_4902_00000042001754864387189170000003079619730742932117_" gradientUnits="userSpaceOnUse" x1="-7.438" y1="517.6283" x2="-6.434" y2="517.6283" gradientTransform="matrix(1.084 0 0 -0.9995 291.428 638.586)">
		<stop  offset="0" style="stop-color:#FF1200"/>
		<stop  offset="0.315" style="stop-color:#FF2700"/>
		<stop  offset="1" style="stop-color:#FFD000"/>
	</linearGradient>
	<path id="Path_4902" style="fill:url(#Path_4902_00000042001754864387189170000003079619730742932117_);" d="M283.4,120.8
		c0.6-0.2,1-0.1,1.1,0.4c0,0.2-0.1,0.3-0.3,0.4C283.6,121.8,283.4,121.4,283.4,120.8z"/>
	
		<linearGradient id="Path_4903_00000139983815224554351340000003221284196349612985_" gradientUnits="userSpaceOnUse" x1="-2.8415" y1="521.6812" x2="-1.8445" y2="521.6812" gradientTransform="matrix(0.9761 0 0 -1.0305 290.2689 752.7113)">
		<stop  offset="0" style="stop-color:#FF1200"/>
		<stop  offset="0.315" style="stop-color:#FF2700"/>
		<stop  offset="1" style="stop-color:#FFD000"/>
	</linearGradient>
	<path id="Path_4903" style="fill:url(#Path_4903_00000139983815224554351340000003221284196349612985_);" d="M287.9,214.6l0.6,0.5
		c-0.2,0.2-0.4,0.4-0.6,0.5c-0.1,0-0.4-0.2-0.4-0.2C287.6,215.1,287.7,214.9,287.9,214.6z"/>
	
		<linearGradient id="Path_4904_00000084509698332513421200000015871910262518750377_" gradientUnits="userSpaceOnUse" x1="-4.9576" y1="501.2035" x2="-3.9596" y2="501.2035" gradientTransform="matrix(1.023 0 0 -0.891 380.9269 645.8375)">
		<stop  offset="0" style="stop-color:#FF1200"/>
		<stop  offset="0.315" style="stop-color:#FF2700"/>
		<stop  offset="1" style="stop-color:#FFD000"/>
	</linearGradient>
	<path id="Path_4904" style="fill:url(#Path_4904_00000084509698332513421200000015871910262518750377_);" d="M376.9,199.1l-0.9,0.6
		l-0.1-0.9h1L376.9,199.1z"/>
	
		<linearGradient id="Path_4905_00000026140446350015801290000008749602672185088432_" gradientUnits="userSpaceOnUse" x1="-3.5779" y1="530.9548" x2="-2.5779" y2="530.9548" gradientTransform="matrix(0.9919 0 0 -1.1091 269.0565 782.9739)">
		<stop  offset="0" style="stop-color:#FF1200"/>
		<stop  offset="0.315" style="stop-color:#FF2700"/>
		<stop  offset="1" style="stop-color:#FFD000"/>
	</linearGradient>
	<path id="Path_4905" style="fill:url(#Path_4905_00000026140446350015801290000008749602672185088432_);" d="M266.1,194.6
		c-0.2-0.3-0.4-0.6-0.6-0.8c0,0,0.2-0.3,0.3-0.3c0.6,0,0.6,0.5,0.7,0.8L266.1,194.6z"/>
	
		<linearGradient id="Path_4906_00000104666278803909561890000006002983471964257448_" gradientUnits="userSpaceOnUse" x1="-11.0407" y1="472.8085" x2="-10.0447" y2="472.8085" gradientTransform="matrix(1.187 0 0 -0.7502 283.875 545.7737)">
		<stop  offset="0" style="stop-color:#FF1200"/>
		<stop  offset="0.315" style="stop-color:#FF2700"/>
		<stop  offset="1" style="stop-color:#FFD000"/>
	</linearGradient>
	<path id="Path_4906" style="fill:url(#Path_4906_00000104666278803909561890000006002983471964257448_);" d="M272,191.2
		c-0.8,0.6-1,0.2-1.2-0.4C271.4,190.6,271.4,190.6,272,191.2z"/>
	
		<linearGradient id="Path_4907_00000086656871446347465600000004917033332721419710_" gradientUnits="userSpaceOnUse" x1="-13.4142" y1="513.3513" x2="-12.4092" y2="513.3513" gradientTransform="matrix(1.266 0 0 -0.9688 370.5959 674.8986)">
		<stop  offset="0" style="stop-color:#FF1200"/>
		<stop  offset="0.315" style="stop-color:#FF2700"/>
		<stop  offset="1" style="stop-color:#FFD000"/>
	</linearGradient>
	<path id="Path_4907" style="fill:url(#Path_4907_00000086656871446347465600000004917033332721419710_);" d="M354.7,178.1l-1.1-0.5
		c0.8-0.9,1-0.2,1.3,0.2L354.7,178.1z"/>
	
		<linearGradient id="Path_4908_00000135666950007348564060000008636808472805549742_" gradientUnits="userSpaceOnUse" x1="-9.7853" y1="487.5461" x2="-8.7873" y2="487.5461" gradientTransform="matrix(1.149 0 0 -0.8172 219.229 554.624)">
		<stop  offset="0" style="stop-color:#FF1200"/>
		<stop  offset="0.315" style="stop-color:#FF2700"/>
		<stop  offset="1" style="stop-color:#FFD000"/>
	</linearGradient>
	<path id="Path_4908" style="fill:url(#Path_4908_00000135666950007348564060000008636808472805549742_);" d="M209.1,156.2
		c-0.2,0.2-0.4,0.4-0.5,0.4c-0.2-0.1-0.5-0.2-0.7-0.4c0.1-0.1,0.2-0.4,0.3-0.4C208.6,155.9,208.9,156,209.1,156.2z"/>
	
		<linearGradient id="Path_4909_00000110465148945630197690000002632630152396287381_" gradientUnits="userSpaceOnUse" x1="-9.7843" y1="544.914" x2="-8.7843" y2="544.914" gradientTransform="matrix(1.149 0 0 -1.253 162.91 905.2852)">
		<stop  offset="0" style="stop-color:#FF1200"/>
		<stop  offset="0.315" style="stop-color:#FF2700"/>
		<stop  offset="1" style="stop-color:#FFD000"/>
	</linearGradient>
	<path id="Path_4909" style="fill:url(#Path_4909_00000110465148945630197690000002632630152396287381_);" d="M151.7,221.9l1.1,0.4
		l-0.5,0.8L151.7,221.9z"/>
	
		<linearGradient id="Path_4910_00000051367036675467678480000005066875750427967930_" gradientUnits="userSpaceOnUse" x1="-12.7216" y1="425.3237" x2="-11.7216" y2="425.3237" gradientTransform="matrix(1.242 0 0 -0.5934 244.288 472.6431)">
		<stop  offset="0" style="stop-color:#FF1200"/>
		<stop  offset="0.315" style="stop-color:#FF2700"/>
		<stop  offset="1" style="stop-color:#FFD000"/>
	</linearGradient>
	<path id="Path_4910" style="fill:url(#Path_4910_00000051367036675467678480000005066875750427967930_);" d="M228.5,220l1.2,0.2
		c-0.1,0.2-0.1,0.3-0.2,0.3C229,220.6,229,220.6,228.5,220z"/>
	
		<linearGradient id="Path_4911_00000152241153752817652700000003713487207055247782_" gradientUnits="userSpaceOnUse" x1="-7.8169" y1="451.6429" x2="-6.8149" y2="451.6429" gradientTransform="matrix(1.094 0 0 -0.6712 132.614 505.4171)">
		<stop  offset="0" style="stop-color:#FF1200"/>
		<stop  offset="0.315" style="stop-color:#FF2700"/>
		<stop  offset="1" style="stop-color:#FFD000"/>
	</linearGradient>
	<path id="Path_4911" style="fill:url(#Path_4911_00000152241153752817652700000003713487207055247782_);" d="M124.1,202l1,0.2
		c-0.5,0.7-0.8,0.5-1.1,0.2L124.1,202z"/>
	
		<linearGradient id="Path_4912_00000032610536458849958400000002875143829717130392_" gradientUnits="userSpaceOnUse" x1="-0.129" y1="492.659" x2="0.867" y2="492.659" gradientTransform="matrix(0.922 0 0 -0.8434 244.905 529.0365)">
		<stop  offset="0" style="stop-color:#FF1200"/>
		<stop  offset="0.315" style="stop-color:#FF2700"/>
		<stop  offset="1" style="stop-color:#FFD000"/>
	</linearGradient>
	<path id="Path_4912" style="fill:url(#Path_4912_00000032610536458849958400000002875143829717130392_);" d="M245.7,113.7
		c-0.8,0.5-0.8,0.5-0.9-0.5L245.7,113.7z"/>
	
		<linearGradient id="Path_4913_00000075846313777434235200000014635644887686746781_" gradientUnits="userSpaceOnUse" x1="6.4175" y1="492.5547" x2="7.4235" y2="492.5547" gradientTransform="matrix(0.813 0 0 -0.8428 135.8182 629.4875)">
		<stop  offset="0" style="stop-color:#FF1200"/>
		<stop  offset="0.315" style="stop-color:#FF2700"/>
		<stop  offset="1" style="stop-color:#FFD000"/>
	</linearGradient>
	<path id="Path_4913" style="fill:url(#Path_4913_00000075846313777434235200000014635644887686746781_);" d="M141.1,214
		c0.5-0.1,0.8,0.1,0.8,0.6c0,0.1-0.2,0.2-0.3,0.2C141,214.7,141,214.4,141.1,214z"/>
	
		<linearGradient id="Path_4914_00000142897868709095420440000009584618650689273529_" gradientUnits="userSpaceOnUse" x1="15.0775" y1="543.2698" x2="16.0725" y2="543.2698" gradientTransform="matrix(0.7032 0 0 -1.2341 271.0663 785.082)">
		<stop  offset="0" style="stop-color:#FF1200"/>
		<stop  offset="0.315" style="stop-color:#FF2700"/>
		<stop  offset="1" style="stop-color:#FFD000"/>
	</linearGradient>
	<path id="Path_4914" style="fill:url(#Path_4914_00000142897868709095420440000009584618650689273529_);" d="M282.1,114
		c0.4,0.7,0.4,1-0.1,1.2c-0.1,0-0.3-0.2-0.3-0.2C281.7,114.8,281.9,114.5,282.1,114z"/>
	
		<linearGradient id="Path_4915_00000002343941753027069270000007842889440792762766_" gradientUnits="userSpaceOnUse" x1="1.176" y1="483.1467" x2="2.174" y2="483.1467" gradientTransform="matrix(0.898 0 0 -0.796 250.244 506.6943)">
		<stop  offset="0" style="stop-color:#FF1200"/>
		<stop  offset="0.315" style="stop-color:#FF2700"/>
		<stop  offset="1" style="stop-color:#FFD000"/>
	</linearGradient>
	<path id="Path_4915" style="fill:url(#Path_4915_00000002343941753027069270000007842889440792762766_);" d="M251.6,121.7l0.6,0.6
		l-0.2,0.2l-0.7-0.5L251.6,121.7z"/>
	
		<linearGradient id="Path_4916_00000015351751150547989410000005543330634972245148_" gradientUnits="userSpaceOnUse" x1="-10.0237" y1="412.929" x2="-9.0237" y2="412.929" gradientTransform="matrix(1.156 0 0 -0.5627 277.2529 350.7675)">
		<stop  offset="0" style="stop-color:#FF1200"/>
		<stop  offset="0.315" style="stop-color:#FF2700"/>
		<stop  offset="1" style="stop-color:#FFD000"/>
	</linearGradient>
	<path id="Path_4916" style="fill:url(#Path_4916_00000015351751150547989410000005543330634972245148_);" d="M266.8,118.5
		c-0.6,0.4-0.6,0.4-1.2-0.3L266.8,118.5z"/>
	
		<linearGradient id="Path_4917_00000147203790989256921620000009250701280117029789_" gradientUnits="userSpaceOnUse" x1="10.5143" y1="374.5512" x2="11.5233" y2="374.5512" gradientTransform="matrix(0.757 0 0 -0.485 228.39 298.7894)">
		<stop  offset="0" style="stop-color:#FF1200"/>
		<stop  offset="0.315" style="stop-color:#FF2700"/>
		<stop  offset="1" style="stop-color:#FFD000"/>
	</linearGradient>
	<path id="Path_4917" style="fill:url(#Path_4917_00000147203790989256921620000009250701280117029789_);" d="M236.4,117
		c0.2-0.1,0.4-0.1,0.6-0.1c0.1,0,0.1,0.2,0.2,0.3c-0.1,0.1-0.3,0.2-0.5,0.2C236.6,117.4,236.5,117.2,236.4,117z"/>
	
		<linearGradient id="Path_4918_00000140731906491781945120000006994722121738019751_" gradientUnits="userSpaceOnUse" x1="-41.9925" y1="650.1198" x2="-40.9925" y2="650.1198" gradientTransform="matrix(6.4296 0 0 -56.6368 491.5558 37192.5625)">
		<stop  offset="0" style="stop-color:#FF1200"/>
		<stop  offset="0.315" style="stop-color:#FF2700"/>
		<stop  offset="1" style="stop-color:#FFD000"/>
	</linearGradient>
	<path id="Path_4918" style="fill:url(#Path_4918_00000140731906491781945120000006994722121738019751_);" d="M221.6,344.1
		c2.2-1,4.3-0.4,6.4-0.3v56.4c-0.7-0.1-1.2-0.2-1.7-0.3c-1.1-0.2-2.2-0.5-3.4-0.6c-0.7,0-1.2-0.6-1.2-1.2c-0.1-1-0.1-2-0.1-3
		c0-4.2,0.1-8.4,0.1-12.6c0-2.9,0.2-5.9,0.1-8.8c-0.1-9.2-0.2-18.4-0.3-27.7C221.6,345.4,221.6,344.8,221.6,344.1z"/>
	
		<linearGradient id="Path_4919_00000162333336536844879290000009382872117506854036_" gradientUnits="userSpaceOnUse" x1="-41.8347" y1="650.1655" x2="-40.8347" y2="650.1655" gradientTransform="matrix(6.288 0 0 -57.746 537.957 37916.9531)">
		<stop  offset="0" style="stop-color:#FF1200"/>
		<stop  offset="0.315" style="stop-color:#FF2700"/>
		<stop  offset="1" style="stop-color:#FFD000"/>
	</linearGradient>
	<path id="Path_4919" style="fill:url(#Path_4919_00000162333336536844879290000009382872117506854036_);" d="M275,343.6h6.1
		c0,0.7,0.1,1.2,0.1,1.8c0,7.7,0,15.5,0,23.2c0,8.1,0,16.1,0,24.2c0,0.6,0.3,1.4-0.6,1.6c0.3,0.4,0.4,0.8,0.6,1.2
		c0.1,1.5,0,3.1,0,4.8l-6,0.9c-0.1-0.7-0.2-1.2-0.2-1.7c0-2.3,0-4.7,0-7c0-0.8,0.2-1.4,1.1-1.7c0.6-0.1,1.1-0.7,1-1.3
		c0,0,0-0.1,0-0.1l-1.7,0.7c-0.1-0.7-0.2-1.4-0.2-2.1c0-14.4,0-28.7,0-43.1C274.9,344.6,275,344.2,275,343.6z"/>
	
		<linearGradient id="Path_4920_00000157309476535390133780000009932341089278705288_" gradientUnits="userSpaceOnUse" x1="-41.4723" y1="650.1975" x2="-40.4733" y2="650.1975" gradientTransform="matrix(5.9852 0 0 -58.547 485.5029 38440.0781)">
		<stop  offset="0" style="stop-color:#FF1200"/>
		<stop  offset="0.315" style="stop-color:#FF2700"/>
		<stop  offset="1" style="stop-color:#FFD000"/>
	</linearGradient>
	<path id="Path_4920" style="fill:url(#Path_4920_00000157309476535390133780000009932341089278705288_);" d="M243.2,402.2l-6-0.6
		v-58h5.5c0.4,0.7,0.5,1.5,0.4,2.3c0,5.6,0,11.2,0,16.8c0,12.5,0,24.9,0,37.4V402.2z"/>
	
		<linearGradient id="Path_4921_00000171703296125264695930000012384964437941367686_" gradientUnits="userSpaceOnUse" x1="-41.361" y1="650.2252" x2="-40.362" y2="650.2252" gradientTransform="matrix(5.8981 0 0 -59.2592 488.6518 38904.9297)">
		<stop  offset="0" style="stop-color:#FF1200"/>
		<stop  offset="0.315" style="stop-color:#FF2700"/>
		<stop  offset="1" style="stop-color:#FFD000"/>
	</linearGradient>
	<path id="Path_4921" style="fill:url(#Path_4921_00000171703296125264695930000012384964437941367686_);" d="M250.5,385.3l-0.7,0
		c-0.1,0.5,0,1,0.2,1.4c0.6,1.3,0.5,2.8,0,4c-0.2,0.6-0.6,1.2-0.9,1.9l1.2,0.3v9.6c-1.9,0.2-3.7,0.1-5.6-0.2v-58.7
		c1.9-0.4,3.9-0.4,5.8,0.1v1.7c0,3.3,0,6.6,0,9.9c0,0.6,0,1.2-0.1,1.8c-0.4,1.5,0.2,2.9,0.2,4.3c0,6.4,0,12.8-0.1,19.2
		C250.5,382.2,250.5,383.7,250.5,385.3z M246.7,372.7l1.3-1l-1.2-1.3l-0.3,0.1L246.7,372.7z M248.9,362.6v1.2
		c0.2-0.2,0.4-0.5,0.4-0.8C249.3,362.9,249.2,362.8,248.9,362.6L248.9,362.6z"/>
	
		<linearGradient id="Path_4922_00000072968058956204103890000012247845359969146044_" gradientUnits="userSpaceOnUse" x1="-41.6967" y1="650.199" x2="-40.6967" y2="650.199" gradientTransform="matrix(6.1692 0 0 -58.585 524.3334 38464.8516)">
		<stop  offset="0" style="stop-color:#FF1200"/>
		<stop  offset="0.315" style="stop-color:#FF2700"/>
		<stop  offset="1" style="stop-color:#FFD000"/>
	</linearGradient>
	<path id="Path_4922" style="fill:url(#Path_4922_00000072968058956204103890000012247845359969146044_);" d="M267.4,343.6h5.7
		c0.1,0.4,0.1,0.8,0.1,1.3c0,5.4,0,10.9,0,16.3c0,8.2-0.1,16.4-0.2,24.7c0,0.9,0.2,1.8-1,2.2c-0.2,0.1-0.3,0.6-0.5,1
		c1.4,0.1,1.6,0.8,1.6,1.9c-0.1,3,0,6,0,9v1.7l-5.6,0.6c0-0.6-0.1-1.1-0.1-1.5c0-2.1,0-4.2,0-6.3c-0.1-0.6,0-1.3,0.2-1.9
		c0.5-0.8-0.3-1.1-0.3-1.7c0-2.3-0.1-2.3,2.1-3.3c0.8-0.4,1.4-0.8,1.3-1.8c0-0.8-0.5-1.1-1.2-0.7c-0.6,0.3-1.2,0.7-1.7,1
		c-0.9-0.4-0.7-1.1-0.7-1.7c0-2.8,0-5.6,0-8.4c0-9.8,0-19.5,0-29.3C267.1,345.6,267.3,344.7,267.4,343.6z"/>
	
		<linearGradient id="Path_4923_00000165223712727330934300000001211275256653456816_" gradientUnits="userSpaceOnUse" x1="-41.5145" y1="650.2204" x2="-40.5145" y2="650.2204" gradientTransform="matrix(6.019 0 0 -59.136 509.7819 38824.7188)">
		<stop  offset="0" style="stop-color:#FF1200"/>
		<stop  offset="0.315" style="stop-color:#FF2700"/>
		<stop  offset="1" style="stop-color:#FFD000"/>
	</linearGradient>
	<path id="Path_4923" style="fill:url(#Path_4923_00000165223712727330934300000001211275256653456816_);" d="M265.8,385
		c-1.1,0.5-1.3,0.8-0.8,1.5c0.5,0.8,0.8,1.7,0.7,2.7c0,1,0,2,0,3c-1.7,0.1-2.7-0.7-3.5-2.3l-0.6,2.3c0.4,0.1,0.6,0.4,0.8,0.3
		c1.1-0.6,1.8,0.6,2.8,0.6c0.2,0,0.4,0.5,0.5,0.8c0.1,2.1,0.4,4.2-0.6,6.2c0.2,0.2,0.3,0.5,0.5,0.7c0.5,1,0.2,1.5-0.9,1.6
		c-1.4,0.2-2.9,0.3-4.5,0.4c0-0.8-0.1-1.3-0.1-1.9c0-9.5,0-18.9,0-28.4c0-7.5,0-15,0-22.6c0-1.4-0.1-2.8-0.1-4.2
		c0-0.7,0.1-1.4,0.1-2.1h5.9C265.6,357.6,266.2,371.4,265.8,385z"/>
	
		<linearGradient id="Path_4924_00000042731258120722236650000004516807698893198263_" gradientUnits="userSpaceOnUse" x1="-40.9228" y1="650.2133" x2="-39.9228" y2="650.2133" gradientTransform="matrix(5.5781 0 0 -58.953 480.7314 38705.2461)">
		<stop  offset="0" style="stop-color:#FF1200"/>
		<stop  offset="0.315" style="stop-color:#FF2700"/>
		<stop  offset="1" style="stop-color:#FFD000"/>
	</linearGradient>
	<path id="Path_4924" style="fill:url(#Path_4924_00000042731258120722236650000004516807698893198263_);" d="M252.7,343.7h5.1
		c0.4,1.3,0.4,57.7,0,59h-5l-0.1-0.1c0,0-0.1-0.1-0.1-0.1c0-0.3-0.1-0.7-0.1-1c0-19.1,0-38.2,0-57.3
		C252.5,344,252.6,343.9,252.7,343.7z"/>
	
		<linearGradient id="Path_4925_00000041288132902456965410000002059128344563770281_" gradientUnits="userSpaceOnUse" x1="-41.4213" y1="650.1152" x2="-40.4213" y2="650.1152" gradientTransform="matrix(5.945 0 0 -56.5273 529.0046 37121.0547)">
		<stop  offset="0" style="stop-color:#FF1200"/>
		<stop  offset="0.315" style="stop-color:#FF2700"/>
		<stop  offset="1" style="stop-color:#FFD000"/>
	</linearGradient>
	<path id="Path_4925" style="fill:url(#Path_4925_00000041288132902456965410000002059128344563770281_);" d="M283.3,400
		c-0.4-0.6-0.6-1.4-0.5-2.2v-54c1.9-0.4,3.9-0.4,5.8,0c0,0.4,0.1,0.8,0.1,1.2c0,12.6,0,25.1,0,37.7v13.7c0,0.5,0,1,0,1.5
		c0.1,0.6-0.4,1.2-1,1.3c0,0-0.1,0-0.1,0C286.1,399.4,284.7,399.8,283.3,400z M287.7,347.5c-0.4,0.5-0.6,0.9,0,1.5V347.5z"/>
	
		<linearGradient id="Path_4926_00000115505635288581764320000007150626917975803280_" gradientUnits="userSpaceOnUse" x1="-41.6676" y1="650.0406" x2="-40.6676" y2="650.0406" gradientTransform="matrix(6.1447 0 0 -54.813 469.8694 36001.7305)">
		<stop  offset="0" style="stop-color:#FF1200"/>
		<stop  offset="0.315" style="stop-color:#FF2700"/>
		<stop  offset="1" style="stop-color:#FFD000"/>
	</linearGradient>
	<path id="Path_4926" style="fill:url(#Path_4926_00000115505635288581764320000007150626917975803280_);" d="M219.9,398.5l-6.1-1.6
		v-53.2h6c0.2,4.5,0,9.1,0.1,13.6c0.1,4.5,0,9.1,0,13.6c0,4.6,0,9.2,0,13.8L219.9,398.5z"/>
	
		<linearGradient id="Path_4927_00000166668370616120046240000010825267393046930577_" gradientUnits="userSpaceOnUse" x1="-41.0991" y1="650.1606" x2="-40.0991" y2="650.1606" gradientTransform="matrix(5.7026 0 0 -57.625 464.1141 37837.9648)">
		<stop  offset="0" style="stop-color:#FF1200"/>
		<stop  offset="0.315" style="stop-color:#FF2700"/>
		<stop  offset="1" style="stop-color:#FFD000"/>
	</linearGradient>
	<path id="Path_4927" style="fill:url(#Path_4927_00000166668370616120046240000010825267393046930577_);" d="M229.7,343.6h5.4
		c0.4,1.2,0.4,55.3,0.1,57.6c-1-0.1-2-0.2-3-0.3c-2.4-0.3-2.4-0.3-2.4-2.8C229.7,398.2,229.7,343.6,229.7,343.6z"/>
	
		<linearGradient id="Path_4928_00000085969993598871092020000017312861864744412338_" gradientUnits="userSpaceOnUse" x1="-40.853" y1="650.04" x2="-39.853" y2="650.04" gradientTransform="matrix(5.531 0 0 -54.8 516.5269 35993.2227)">
		<stop  offset="0" style="stop-color:#FF1200"/>
		<stop  offset="0.315" style="stop-color:#FF2700"/>
		<stop  offset="1" style="stop-color:#FFD000"/>
	</linearGradient>
	<path id="Path_4928" style="fill:url(#Path_4928_00000085969993598871092020000017312861864744412338_);" d="M295.9,397l-5.4,1.4
		v-54.8h5.2l0.1,0.1c0,0,0.1,0.1,0.1,0.1c0.1,0.2,0.1,0.4,0.1,0.6c0,17.3,0,34.7,0,52C296,396.6,296,396.8,295.9,397z"/>
	
		<linearGradient id="Path_4929_00000029045205255864694890000015976858626136544179_" gradientUnits="userSpaceOnUse" x1="-41.2637" y1="649.9384" x2="-40.2637" y2="649.9384" gradientTransform="matrix(5.8239 0 0 -52.625 538.113 34573.0156)">
		<stop  offset="0" style="stop-color:#FF1200"/>
		<stop  offset="0.315" style="stop-color:#FF2700"/>
		<stop  offset="1" style="stop-color:#FFD000"/>
	</linearGradient>
	<path id="Path_4929" style="fill:url(#Path_4929_00000029045205255864694890000015976858626136544179_);" d="M297.8,343.7h5.7
		c0,0.4,0.1,0.9,0.1,1.3c0,16,0,32,0,48c0,0.3,0,0.7,0,1c-0.1,0.3-0.2,0.6-0.4,0.7c-1.6,0.6-3.3,1-5.1,1.6L297.8,343.7z"/>
	
		<linearGradient id="Path_4930_00000080205481720546232110000008876540911925207683_" gradientUnits="userSpaceOnUse" x1="-41.2465" y1="649.8268" x2="-40.2465" y2="649.8268" gradientTransform="matrix(5.811 0 0 -50.4291 545.254 33138.8984)">
		<stop  offset="0" style="stop-color:#FF1200"/>
		<stop  offset="0.315" style="stop-color:#FF2700"/>
		<stop  offset="1" style="stop-color:#FFD000"/>
	</linearGradient>
	<path id="Path_4930" style="fill:url(#Path_4930_00000080205481720546232110000008876540911925207683_);" d="M305.6,393.9v-50.3
		c1.9-0.2,3.9-0.1,5.8,0.1v47.8c-0.9,0.4-1.9,0.8-2.8,1.2C307.6,393.1,306.7,393.5,305.6,393.9z"/>
	
		<linearGradient id="Path_4931_00000144317160291436425230000007516479874995003583_" gradientUnits="userSpaceOnUse" x1="-41.0328" y1="649.93" x2="-40.0328" y2="649.93" gradientTransform="matrix(5.6551 0 0 -52.453 438.1772 34460.6992)">
		<stop  offset="0" style="stop-color:#FF1200"/>
		<stop  offset="0.315" style="stop-color:#FF2700"/>
		<stop  offset="1" style="stop-color:#FFD000"/>
	</linearGradient>
	<path id="Path_4931" style="fill:url(#Path_4931_00000144317160291436425230000007516479874995003583_);" d="M206.2,343.7h5.4l0,0
		c0,0,0.1,0.1,0.1,0.1c0,0.4,0.1,0.9,0.1,1.3c0,16.9,0,33.7,0,50.6c0,0.1-0.1,0.2-0.2,0.4c-1.6-0.5-3.2-1-4.7-1.6
		c-0.3-0.1-0.5-0.6-0.6-0.9c-0.1-0.4-0.1-0.8,0-1.2L206.2,343.7L206.2,343.7z"/>
	
		<linearGradient id="Path_4932_00000083804468278003440630000012352096160301873052_" gradientUnits="userSpaceOnUse" x1="-41.2808" y1="649.6412" x2="-40.2798" y2="649.6412" gradientTransform="matrix(5.836 0 0 -47.1542 554.5181 31000.3848)">
		<stop  offset="0" style="stop-color:#FF1200"/>
		<stop  offset="0.315" style="stop-color:#FF2700"/>
		<stop  offset="1" style="stop-color:#FFD000"/>
	</linearGradient>
	<path id="Path_4932" style="fill:url(#Path_4932_00000083804468278003440630000012352096160301873052_);" d="M313.6,390.6v-46.8
		c1.8-0.3,3.7-0.4,5.6-0.2c0.1,1,0.2,2,0.2,2.9c0,13.4,0,26.9,0.1,40.3c0,1.3-0.2,1.5-1.4,1.9c-0.7,0.2-1.4,0.5-2.1,0.8
		C315.3,389.9,314.6,390.2,313.6,390.6z"/>
	
		<linearGradient id="Path_4933_00000062175389888072261870000005999355605348877467_" gradientUnits="userSpaceOnUse" x1="-42.2879" y1="649.3911" x2="-41.2879" y2="649.3911" gradientTransform="matrix(6.7126 0 0 -43.3605 604.5116 28523.2441)">
		<stop  offset="0" style="stop-color:#FF1200"/>
		<stop  offset="0.315" style="stop-color:#FF2700"/>
		<stop  offset="1" style="stop-color:#FFD000"/>
	</linearGradient>
	<path id="Path_4933" style="fill:url(#Path_4933_00000062175389888072261870000005999355605348877467_);" d="M320.7,387
		c0-0.5-0.1-0.8-0.1-1.2c0-8.5,0-17,0-25.6c0-0.6-0.2-1.3,0.7-1.5c-0.2-0.3-0.3-0.7-0.4-1c0-4.5,0-9.1,0-13.6c0-0.2,0.1-0.3,0.2-0.5
		h6c0,0.6,0.1,1.2,0.1,1.7c0,5.7,0,11.4,0,17c0,5.9,0,11.9,0,17.8c0,0.9,0,1.8,0.1,2.7c0.1,0.6-0.2,1.1-0.7,1.4
		c-1.7,0.9-3.4,1.8-5.2,2.7C321.2,387,321,387,320.7,387z M322.9,366.5l0.3-0.2l-0.4-0.8l-0.3,0.2L322.9,366.5z"/>
	
		<linearGradient id="Path_4934_00000137813873395376185480000000358204809675680688_" gradientUnits="userSpaceOnUse" x1="-41.0341" y1="649.7895" x2="-40.0341" y2="649.7895" gradientTransform="matrix(5.656 0 0 -49.734 430.965 32685.1797)">
		<stop  offset="0" style="stop-color:#FF1200"/>
		<stop  offset="0.315" style="stop-color:#FF2700"/>
		<stop  offset="1" style="stop-color:#FFD000"/>
	</linearGradient>
	<path id="Path_4934" style="fill:url(#Path_4934_00000137813873395376185480000000358204809675680688_);" d="M198.9,343.7h5.7
		l-0.3,49.7c-0.4-0.1-0.7-0.2-0.9-0.2c-1.5-0.5-3-1.1-4.5-1.6V343.7z"/>
	
		<linearGradient id="Path_4935_00000017475925928810651210000013354430059800333994_" gradientUnits="userSpaceOnUse" x1="-41.9541" y1="649.3819" x2="-40.9541" y2="649.3819" gradientTransform="matrix(6.3946 0 0 -43.233 451.4341 28440.0352)">
		<stop  offset="0" style="stop-color:#FF1200"/>
		<stop  offset="0.315" style="stop-color:#FF2700"/>
		<stop  offset="1" style="stop-color:#FFD000"/>
	</linearGradient>
	<path id="Path_4935" style="fill:url(#Path_4935_00000017475925928810651210000013354430059800333994_);" d="M183.3,343.7h6
		c0,0.4,0.1,0.9,0.1,1.4c0,8.8,0,17.6,0,26.3c0,4.6,0.1,9.2,0.2,13.7c0,0.5,0,1.1,0,1.8c-0.4,0-0.7-0.1-1.1-0.2
		c-1.4-0.7-2.8-1.5-4.3-2.2c-0.6-0.2-1-0.8-1-1.5c0-12.8,0-25.6-0.1-38.5C183.2,344.3,183.2,344.1,183.3,343.7z"/>
	
		<linearGradient id="Path_4936_00000146459697249318412820000000232630474563257785_" gradientUnits="userSpaceOnUse" x1="-40.8523" y1="649.6299" x2="-39.8523" y2="649.6299" gradientTransform="matrix(5.5298 0 0 -46.969 417.2162 30879.6328)">
		<stop  offset="0" style="stop-color:#FF1200"/>
		<stop  offset="0.315" style="stop-color:#FF2700"/>
		<stop  offset="1" style="stop-color:#FFD000"/>
	</linearGradient>
	<path id="Path_4936" style="fill:url(#Path_4936_00000146459697249318412820000000232630474563257785_);" d="M196.8,390.6
		c-1.9-0.8-3.4-1.5-4.9-2.2c-0.6-0.3-0.6-0.8-0.6-1.2c0-2,0-4.1,0-6.1c0-11.9,0-23.8,0-35.8v-1.6h5.4c0.5,1.7-0.3,3.2-1,4.8
		c1,0.3,1.1,1,1.1,1.9c0,12.9,0,25.7,0,38.6V390.6z M194.1,354.6c0.3-0.4,0.5-0.5,0.5-0.7c0-0.3,0-0.5-0.1-0.8
		c0-0.1-0.3-0.1-0.4-0.1c-0.2,0.2-0.3,0.4-0.4,0.7C193.8,353.9,193.9,354.1,194.1,354.6z M193.3,369.6c0.3-0.9,0.4-1.6-0.4-2.1
		C192.7,368.2,192.9,369,193.3,369.6z"/>
	
		<linearGradient id="Path_4937_00000121281533581999214140000011033112008965012148_" gradientUnits="userSpaceOnUse" x1="-41.6645" y1="649.0393" x2="-40.6645" y2="649.0393" gradientTransform="matrix(6.1421 0 0 -38.953 585.0725 25645.1816)">
		<stop  offset="0" style="stop-color:#FF1200"/>
		<stop  offset="0.315" style="stop-color:#FF2700"/>
		<stop  offset="1" style="stop-color:#FFD000"/>
	</linearGradient>
	<path id="Path_4937" style="fill:url(#Path_4937_00000121281533581999214140000011033112008965012148_);" d="M329.2,382.6v-39h6
		c0.1,0.4,0.1,0.8,0.2,1.2c0,6.5,0,13,0,19.6v5.5c0,2.6,0,5.2,0,7.7c0.1,0.9-0.4,1.7-1.1,2.1c-1.4,0.8-2.7,1.7-4.1,2.5
		C329.8,382.4,329.5,382.5,329.2,382.6z"/>
	
		<linearGradient id="Path_4938_00000074404417596655277420000013846041068077499822_" gradientUnits="userSpaceOnUse" x1="-41.101" y1="649.0435" x2="-40.101" y2="649.0435" gradientTransform="matrix(5.704 0 0 -39 410.0951 25675.9375)">
		<stop  offset="0" style="stop-color:#FF1200"/>
		<stop  offset="0.315" style="stop-color:#FF2700"/>
		<stop  offset="1" style="stop-color:#FFD000"/>
	</linearGradient>
	<path id="Path_4938" style="fill:url(#Path_4938_00000074404417596655277420000013846041068077499822_);" d="M181.2,382.7
		c-1.1-0.7-2.2-1.4-3.4-2c-1.6-0.7-2.1-1.8-2-3.6c0.1-3.9-0.1-7.9-0.1-11.8c0-2.2,0.1-4.5,0.1-6.7c0-3.5-0.1-7.1-0.1-10.6
		c0-1.4,0-2.8,0-4.3h5.7C181.3,356.7,181.5,369.6,181.2,382.7z"/>
	
		<linearGradient id="Path_4939_00000046335352230963829080000003681930345600909989_" gradientUnits="userSpaceOnUse" x1="-41.9179" y1="648.5534" x2="-40.9179" y2="648.5534" gradientTransform="matrix(6.3619 0 0 -34.1575 603.5454 22513.5566)">
		<stop  offset="0" style="stop-color:#FF1200"/>
		<stop  offset="0.315" style="stop-color:#FF2700"/>
		<stop  offset="1" style="stop-color:#FFD000"/>
	</linearGradient>
	<path id="Path_4939" style="fill:url(#Path_4939_00000046335352230963829080000003681930345600909989_);" d="M337.1,343.6
		c1.7,0,3.3-0.1,5-0.1c0.6,0,0.8,0.4,0.9,0.8c0.1,0.6,0.2,1.3,0.2,1.9c0,8.6,0,17.1,0.1,25.7c0.1,0.8-0.3,1.6-1,2
		c-1.6,1.2-3.3,2.4-4.9,3.6C336.9,376.2,336.7,346.4,337.1,343.6z"/>
	
		<linearGradient id="Path_4940_00000005243672632856039820000017733774248902063756_" gradientUnits="userSpaceOnUse" x1="-41.7546" y1="648.6018" x2="-40.7546" y2="648.6018" gradientTransform="matrix(6.2185 0 0 -34.5815 427.4251 22790.4551)">
		<stop  offset="0" style="stop-color:#FF1200"/>
		<stop  offset="0.315" style="stop-color:#FF2700"/>
		<stop  offset="1" style="stop-color:#FFD000"/>
	</linearGradient>
	<path id="Path_4940" style="fill:url(#Path_4940_00000005243672632856039820000017733774248902063756_);" d="M168,344
		c1.9-0.5,3.9-0.6,5.8-0.2c0,5.8,0.1,11.5,0,17.2c-0.1,5.7,0.4,11.3-0.1,17.1c-0.3-0.1-0.7-0.2-1-0.4c-1.3-0.9-2.7-1.7-4-2.6
		c-0.6-0.3-1-0.9-0.9-1.6c0,0,0-0.1,0-0.1c-0.1-7.5-0.1-15-0.2-22.5C167.8,348.6,167.9,346.3,168,344z"/>
	
		<linearGradient id="Path_4941_00000105395200499291588890000005674042034241797264_" gradientUnits="userSpaceOnUse" x1="-40.9467" y1="647.7925" x2="-39.9467" y2="647.7925" gradientTransform="matrix(5.5947 0 0 -28.6366 573.7716 18908.4043)">
		<stop  offset="0" style="stop-color:#FF1200"/>
		<stop  offset="0.315" style="stop-color:#FF2700"/>
		<stop  offset="1" style="stop-color:#FFD000"/>
	</linearGradient>
	<path id="Path_4941" style="fill:url(#Path_4941_00000105395200499291588890000005674042034241797264_);" d="M344.7,372.2v-28.5
		c1.6-0.1,3.2-0.1,4.8-0.2c0.5,0,0.7,0.3,0.8,0.7c0,0.3,0,0.7,0,1c0,7.1-0.1,14.2-0.1,21.4c0.1,0.8-0.3,1.7-1,2.2
		c-1.3,0.9-2.4,1.9-3.6,2.8C345.3,371.8,345,372,344.7,372.2z"/>
	
		<linearGradient id="Path_4942_00000170236637334570509380000004539468786852985756_" gradientUnits="userSpaceOnUse" x1="-40.7184" y1="647.8468" x2="-39.7184" y2="647.8468" gradientTransform="matrix(5.4404 0 0 -28.9703 382.2669 19126.3301)">
		<stop  offset="0" style="stop-color:#FF1200"/>
		<stop  offset="0.315" style="stop-color:#FF2700"/>
		<stop  offset="1" style="stop-color:#FFD000"/>
	</linearGradient>
	<path id="Path_4942" style="fill:url(#Path_4942_00000170236637334570509380000004539468786852985756_);" d="M160.9,343.8
		c1.7-0.4,3.5-0.3,5.3,0.1v28.6c-0.4-0.2-0.7-0.4-1.1-0.6c-1.3-1-2.5-2-3.7-3c-0.4-0.3-0.6-0.8-0.6-1.3c0-7.8,0-15.5,0-23.3
		C160.8,344.2,160.8,344,160.9,343.8z"/>
	
		<linearGradient id="Path_4943_00000106141621569027604960000004271095112966109852_" gradientUnits="userSpaceOnUse" x1="-41.8205" y1="646.5803" x2="-40.8205" y2="646.5803" gradientTransform="matrix(6.2755 0 0 -22.7722 414.9552 15078.9268)">
		<stop  offset="0" style="stop-color:#FF1200"/>
		<stop  offset="0.315" style="stop-color:#FF2700"/>
		<stop  offset="1" style="stop-color:#FFD000"/>
	</linearGradient>
	<path id="Path_4943" style="fill:url(#Path_4943_00000106141621569027604960000004271095112966109852_);" d="M152.9,343.8
		c1.9-0.3,3.9-0.3,5.8,0v13.7l-2.7,1.1c0,0.8,0.4,1.1,1,0.7c0.5-0.2,0.9-0.6,1.7-1c-0.4,1.3,0.4,2.4-0.5,3.2
		c0.3,0.7,0.5,1.5,0.6,2.3c0,0.8,0,1.7-0.1,2.5c-0.3-0.2-0.7-0.4-1-0.6c-1.4-1.1-2.7-2.2-4.1-3.2c-0.5-0.4-0.9-1-0.9-1.6
		c-0.1-1.1-0.4-2.2,0.1-3.2c0.8-0.2,2-0.1,2-1.5h-2.1C152.4,354.6,152.5,345.9,152.9,343.8z"/>
	
		<linearGradient id="Path_4944_00000027607039292861786740000011841955004637557692_" gradientUnits="userSpaceOnUse" x1="-41.0268" y1="646.4156" x2="-40.0268" y2="646.4156" gradientTransform="matrix(5.6508 0 0 -22.156 584.0693 14676.6816)">
		<stop  offset="0" style="stop-color:#FF1200"/>
		<stop  offset="0.315" style="stop-color:#FF2700"/>
		<stop  offset="1" style="stop-color:#FFD000"/>
	</linearGradient>
	<path id="Path_4944" style="fill:url(#Path_4944_00000027607039292861786740000011841955004637557692_);" d="M352.2,365.8v-22.2
		h5.5c0,0.5,0.1,0.9,0.1,1.3c0,4.7,0,9.5,0,14.2c0.1,0.8-0.2,1.6-0.8,2.2c-1.3,1.4-2.6,2.7-4,4C352.9,365.5,352.6,365.7,352.2,365.8
		z"/>
	
		<linearGradient id="Path_4945_00000020358367777196763280000017872861668185034891_" gradientUnits="userSpaceOnUse" x1="-41.8082" y1="643.569" x2="-40.8082" y2="643.569" gradientTransform="matrix(6.2648 0 0 -15.094 621.4137 10065.2549)">
		<stop  offset="0" style="stop-color:#FF1200"/>
		<stop  offset="0.315" style="stop-color:#FF2700"/>
		<stop  offset="1" style="stop-color:#FFD000"/>
	</linearGradient>
	<path id="Path_4945" style="fill:url(#Path_4945_00000020358367777196763280000017872861668185034891_);" d="M365.8,343.7v1.9
		c0,1.9,0,3.8,0,5.7c0,0.5-0.1,1.1-0.3,1.6c-1.6,2.1-3.5,4.1-5.5,5.9c-0.5-1.1-0.6-12.6-0.2-15.1H365.8z"/>
	
		<linearGradient id="Path_4946_00000048476178107139622540000007832279944355303317_" gradientUnits="userSpaceOnUse" x1="-42.043" y1="639.8505" x2="-41.043" y2="639.8505" gradientTransform="matrix(6.4762 0 0 -10.657 416.7414 7167.8809)">
		<stop  offset="0" style="stop-color:#FF1200"/>
		<stop  offset="0.315" style="stop-color:#FF2700"/>
		<stop  offset="1" style="stop-color:#FFD000"/>
	</linearGradient>
	<path id="Path_4946" style="fill:url(#Path_4946_00000048476178107139622540000007832279944355303317_);" d="M150.9,353.3
		c-1.1,0.4-2,1.4-3.3,0.7c-0.3-0.2-0.8,0.2-1.2,0.3c-1.2-0.6-1.9-1.7-1.9-3c0-2.3,0.1-4.7,0.1-7c0-0.2,0.1-0.5,0.2-0.7h6
		C151.1,346.9,150.8,350.1,150.9,353.3z"/>
	
		<linearGradient id="Path_4947_00000011740795885232585980000018418305227912158898_" gradientUnits="userSpaceOnUse" x1="-40.2581" y1="632.2562" x2="-39.2581" y2="632.2562" gradientTransform="matrix(5.1539 0 0 -6.6591 575.0837 4557.062)">
		<stop  offset="0" style="stop-color:#FF1200"/>
		<stop  offset="0.315" style="stop-color:#FF2700"/>
		<stop  offset="1" style="stop-color:#FFD000"/>
	</linearGradient>
	<path id="Path_4947" style="fill:url(#Path_4947_00000011740795885232585980000018418305227912158898_);" d="M372.8,343.8
		c-1.4,2.2-3.1,4.4-4.9,6.3c-0.3-1-0.4-2.1-0.2-3.2c0-1,0-2,0-3.1C369.3,343.4,371.1,343.4,372.8,343.8z"/>
	
		<linearGradient id="Path_4948_00000114067707993271665630000015288721443571822502_" gradientUnits="userSpaceOnUse" x1="-39.4361" y1="630.6586" x2="-38.4351" y2="630.6586" gradientTransform="matrix(4.711 0 0 -6.172 323.644 4239.2075)">
		<stop  offset="0" style="stop-color:#FF1200"/>
		<stop  offset="0.315" style="stop-color:#FF2700"/>
		<stop  offset="1" style="stop-color:#FFD000"/>
	</linearGradient>
	<path id="Path_4948" style="fill:url(#Path_4948_00000114067707993271665630000015288721443571822502_);" d="M137.9,343.7h4.7v6.2
		C141.3,349.3,138.6,345.7,137.9,343.7z"/>
	
		<linearGradient id="Path_4949_00000155855176058121530540000008946571738000655237_" gradientUnits="userSpaceOnUse" x1="-30.9779" y1="608.2581" x2="-29.9769" y2="608.2581" gradientTransform="matrix(2.5 0 0 -3.047 225.75 2210.6296)">
		<stop  offset="0" style="stop-color:#FF1200"/>
		<stop  offset="0.315" style="stop-color:#FF2700"/>
		<stop  offset="1" style="stop-color:#FFD000"/>
	</linearGradient>
	<path id="Path_4949" style="fill:url(#Path_4949_00000155855176058121530540000008946571738000655237_);" d="M150.8,355.7v3
		c-1.1-0.3-1.5-1.2-2.5-1.9L150.8,355.7z"/>
	
		<linearGradient id="Path_4950_00000107571933959588191490000002665855170530652577_" gradientUnits="userSpaceOnUse" x1="-19.5905" y1="592.1843" x2="-18.5885" y2="592.1843" gradientTransform="matrix(1.532 0 0 -2.235 276.475 1695.1389)">
		<stop  offset="0" style="stop-color:#FF1200"/>
		<stop  offset="0.315" style="stop-color:#FF2700"/>
		<stop  offset="1" style="stop-color:#FFD000"/>
	</linearGradient>
	<path id="Path_4950" style="fill:url(#Path_4950_00000107571933959588191490000002665855170530652577_);" d="M246.7,372.7l-0.2-2.1
		l0.3-0.1l1.2,1.3L246.7,372.7z"/>
	
		<linearGradient id="Path_4951_00000152959254682194715150000001265887162326339473_" gradientUnits="userSpaceOnUse" x1="68.5515" y1="543.3459" x2="69.5475" y2="543.3459" gradientTransform="matrix(0.3833 0 0 -1.235 222.6703 1034.2365)">
		<stop  offset="0" style="stop-color:#FF1200"/>
		<stop  offset="0.315" style="stop-color:#FF2700"/>
		<stop  offset="1" style="stop-color:#FFD000"/>
	</linearGradient>
	<path id="Path_4951" style="fill:url(#Path_4951_00000152959254682194715150000001265887162326339473_);" d="M248.9,362.6
		c0.2,0.3,0.4,0.4,0.4,0.4c0,0.3-0.2,0.6-0.4,0.8V362.6z"/>
	
		<linearGradient id="Path_4952_00000065034970639134280220000005821444253291612806_" gradientUnits="userSpaceOnUse" x1="67.8789" y1="565.0776" x2="68.8819" y2="565.0776" gradientTransform="matrix(0.3855 0 0 -1.542 261.1957 1219.5839)">
		<stop  offset="0" style="stop-color:#FF1200"/>
		<stop  offset="0.315" style="stop-color:#FF2700"/>
		<stop  offset="1" style="stop-color:#FFD000"/>
	</linearGradient>
	<path id="Path_4952" style="fill:url(#Path_4952_00000065034970639134280220000005821444253291612806_);" d="M287.7,347.5v1.5
		C287.1,348.4,287.3,347.9,287.7,347.5z"/>
	
		<linearGradient id="Path_4953_00000086674593682043938390000016798356932524282545_" gradientUnits="userSpaceOnUse" x1="14.3741" y1="510.7489" x2="15.3731" y2="510.7489" gradientTransform="matrix(0.711 0 0 -0.951 312.2839 851.7391)">
		<stop  offset="0" style="stop-color:#FF1200"/>
		<stop  offset="0.315" style="stop-color:#FF2700"/>
		<stop  offset="1" style="stop-color:#FFD000"/>
	</linearGradient>
	<path id="Path_4953" style="fill:url(#Path_4953_00000086674593682043938390000016798356932524282545_);" d="M322.9,366.5l-0.4-0.8
		l0.3-0.2l0.4,0.8L322.9,366.5z"/>
	
		<linearGradient id="Path_4954_00000099650821382053403880000001608758258914360250_" gradientUnits="userSpaceOnUse" x1="5.3797" y1="565.3344" x2="6.3837" y2="565.3344" gradientTransform="matrix(0.8285 0 0 -1.5465 189.3302 1228.0991)">
		<stop  offset="0" style="stop-color:#FF1200"/>
		<stop  offset="0.315" style="stop-color:#FF2700"/>
		<stop  offset="1" style="stop-color:#FFD000"/>
	</linearGradient>
	<path id="Path_4954" style="fill:url(#Path_4954_00000099650821382053403880000001608758258914360250_);" d="M194.1,354.6
		c-0.2-0.4-0.4-0.6-0.3-0.8c0.1-0.3,0.2-0.5,0.4-0.7c0,0,0.3,0,0.4,0.1c0.1,0.3,0.1,0.5,0.1,0.8
		C194.6,354.1,194.4,354.2,194.1,354.6z"/>
	
		<linearGradient id="Path_4955_00000062162362284706868710000010628552088658799520_" gradientUnits="userSpaceOnUse" x1="17.1565" y1="588.581" x2="18.1545" y2="588.581" gradientTransform="matrix(0.6811 0 0 -2.109 181.1678 1609.8647)">
		<stop  offset="0" style="stop-color:#FF1200"/>
		<stop  offset="0.315" style="stop-color:#FF2700"/>
		<stop  offset="1" style="stop-color:#FFD000"/>
	</linearGradient>
	<path id="Path_4955" style="fill:url(#Path_4955_00000062162362284706868710000010628552088658799520_);" d="M193.3,369.6
		c-0.5-0.6-0.6-1.4-0.4-2.1C193.7,368.1,193.6,368.7,193.3,369.6z"/>
	<path id="Path_4956" class="st68" d="M428.4,314.2v15h-4.1V308c1.6-0.2,3.2-0.2,4.8,0c0.4,0,0.7,0.6,1,1c1.7,2.7,3.4,5.5,5.1,8.2
		c1.1,1.9,2.4,3.7,3.7,5.5v-14.5c1.1-0.3,2.2-0.4,3.3-0.2c0.4,0.1,0.7,0.4,0.8,0.8c0.1,1.4,0.1,2.9,0,4.3c0,0.3-0.4,0.6-0.8,1
		c1.2,1.2,0.8,2.9,0.8,4.4c0,3,0,6,0,9c0,0.5,0,1-0.1,1.7c-1.6,0-3.1,0-4.6,0c-0.3,0-0.7-0.5-0.9-0.8c-1.8-2.8-3.5-5.7-5.3-8.5
		c-1.2-1.9-2.3-3.8-3.5-5.6L428.4,314.2z"/>
	<path id="Path_4957" class="st68" d="M223.1,329.2c-1.7,0-3.2,0-4.7,0c-0.3,0-0.7-0.4-1-0.8c-1.5-2.4-2.9-4.7-4.4-7.1
		c-1.2-2-2.5-4.1-3.8-6.1c-0.2-0.4-0.6-0.8-1-1v15h-4.1V308c1.6-0.2,3.2-0.2,4.8-0.1c0.3,0,0.7,0.5,0.9,0.8c1.6,2.6,3.1,5.3,4.8,7.9
		c1.2,2,2.6,3.9,4,6c0.2-1.2,0.2-2.5,0.2-3.7c0-1.2,0-2.4,0-3.6V308h4.2C223.2,315,223.1,322,223.1,329.2z M208,315.8l-0.8-1
		l-0.5,1.3L208,315.8z"/>
	<path id="Path_4958" class="st68" d="M172.2,318.8c-0.2-3.9,1.7-7.6,5-9.6c2.5-1.5,5.5-2.1,8.3-1.5c3.5,0.3,6.6,2.3,8.2,5.4
		c3.3,6.3,0.4,15-7.5,16.4c-2.9,0.7-5.9,0.3-8.5-1.1C174.3,326.5,172.1,322.8,172.2,318.8z M182.8,326.1c3.7-0.1,5.8-1.4,7.1-3.9
		c0.8-1.7,1-3.6,0.6-5.4c-0.7-3.8-4.3-6.3-8-5.6c-1.1,0.2-2.1,0.6-3,1.3c-2.1,1.6-3.1,4.1-2.8,6.7C177,324,180.7,326.3,182.8,326.1
		L182.8,326.1z"/>
	<path id="Path_4959" class="st68" d="M411.8,326.7l-1.4-0.6l-0.2,0.2l0.8,0.8c-1.3,1.2-2.8,2-4.6,2.3c-4.1,0.8-7.8,0.1-10.9-2.8
		c-1.7-1.6-2.8-3.7-3.1-6c-0.6-4.4,0.4-8.3,4.1-11c2.6-1.8,5.8-2.6,9-2c3.8,0.3,7.1,2.6,8.7,6c1.2,2.7,1.4,5.8,0.5,8.6
		c-0.1,0.3-0.3,0.6-0.5,0.9c-0.2,0.2-0.5,0.5-0.5,0.7C413.6,325.1,412.5,325.8,411.8,326.7z M396.5,318.7c0.2,1.2,0.6,2.4,1,3.5
		c1.7,3.4,5.8,4.9,9.2,3.2c0.6-0.3,1.2-0.7,1.7-1.2c2.4-2.5,3-6.2,1.5-9.2c-1.1-2.4-3.5-3.9-6.1-3.9
		C399.7,311,396.7,314.2,396.5,318.7L396.5,318.7z"/>
	<path id="Path_4960" class="st68" d="M248,320.4h-4.2c-0.3-1.1-0.3-2.3-0.1-3.4c0.2-0.1,0.5-0.1,0.7-0.2c2.1,0,4.3,0,6.4,0
		c1.1,0,1.2,0.1,1.2,1.2c0,3,0,6,0,9c0,0.6-0.1,1.1-0.7,1.3c-5,1.8-9.9,2.4-14.6-0.8c-2.6-1.8-4.2-4.6-4.4-7.8
		c-0.2-1.9,0-3.8,0.6-5.6c1.5-3.8,5-6.4,9.1-6.7c2.7-0.4,5.5,0.1,8,1.3c0.6,0.3,1.2,0.8,1.9,1.3l-2.6,2.8c-1.3-0.6-2.6-1.2-4-1.7
		c-3.6-1-7.3,1-8.4,4.6c-0.1,0.2-0.1,0.4-0.1,0.6c-0.8,2.7,0,5.6,2,7.6c1.2,1.2,2.8,1.9,4.4,1.9c1.2,0,2.4-0.1,3.6-0.3
		c0.8-0.1,1.1-0.5,1.1-1.3C247.9,323.1,248,321.9,248,320.4z"/>
	<path id="Path_4961" class="st68" d="M463.6,320.4V317c2.7-0.1,5.4-0.1,8.1,0c0.1,0.3,0.1,0.6,0.2,0.9c0,3.1,0,6.2,0,9.3
		c0,0.7-0.1,1.2-0.8,1.4c-3.6,1.4-7.5,1.7-11.3,0.7c-5-1.5-8.2-6.3-7.6-11.5c0.2-5.4,4.5-9.8,9.9-10.1c2.7-0.4,5.5,0.1,8,1.4
		c0.6,0.3,1.1,0.8,1.8,1.2l-2.6,2.8c-1.3-0.7-2.7-1.2-4.1-1.7c-3.6-1-7.4,1.2-8.3,4.9c-0.1,0.3-0.1,0.6-0.2,0.9
		c-0.6,2.5,0.2,5.2,2,7c0.8,0.7,1.7,1.3,2.6,1.6c1.8,0.5,3.8,0.5,5.6,0c0.5-0.1,0.9-0.5,0.8-1.1c0-1.3,0-2.7,0-4.2L463.6,320.4z
		 M471.1,318.5c-0.2-0.2-0.4-0.4-0.5-0.3c-0.1,0-0.3,0.2-0.4,0.3c0.1,0.1,0.2,0.3,0.4,0.4C470.7,318.9,470.8,318.7,471.1,318.5
		L471.1,318.5z"/>
	<path id="Path_4962" class="st68" d="M41.4,307.9h1.7c2.1,0,4.3-0.1,6.4,0c1.3,0.1,2.5,0.4,3.7,0.8c1.6,0.6,2.8,2.1,2.8,3.9
		c0.2,2-0.3,3.8-2.2,4.8c-0.2,0.1-0.4,0.2-0.5,0.4c0.1,0.1,0.2,0.2,0.3,0.3c2.8,1.4,3.6,2.8,3.3,6c-0.4,2.3-2.1,4.1-4.4,4.6
		c-0.9,0.2-1.8,0.4-2.8,0.4c-2.5,0.1-5.1,0-7.6,0c-0.3,0-0.5-0.1-0.8-0.1L41.4,307.9z M44.6,326.7c1.4-1.3,3.1-0.8,4.8-0.9
		c0.6-0.1,1.3-0.2,1.9-0.5c1.1-0.3,1.9-1.5,1.8-2.6c0.1-1.2-0.8-2.2-1.9-2.2c0,0,0,0,0,0c-1.3-0.3-2.8-0.2-4.1-0.3
		c-1.1-0.1-2.1,0.4-2.6,1.4l1,0.4C45.5,325.1,45.5,325.2,44.6,326.7z M45.4,316.5c1.4,0,2.7,0.1,4,0c0.6-0.1,1.3-0.3,1.8-0.7
		c1.3-0.9,1.2-3.3-0.3-3.8c-1.8-0.6-3.7-0.7-5.5-0.4V316.5z M42.8,317l-0.3,0.1l0.2,0.8l0.3-0.1L42.8,317z"/>
	<path id="Path_4963" class="st68" d="M159.5,320l5.4,9.1c-1.5,0.1-3,0.1-4.6,0c-0.2,0-0.5-0.4-0.7-0.7c-0.6-1.1-1.3-2.2-1.8-3.4
		c-0.1-0.5-0.2-1-0.1-1.5c-1.7-0.2-1.4-2.2-2.8-3.1h-2.1v8.6c-1.4,0.2-2.7,0.2-4.1,0.1v-21.1c0.4-0.1,0.7-0.1,1.1-0.1
		c2.2,0,4.4-0.1,6.6,0c1.4,0.1,2.9,0.4,4.2,0.9c2.1,0.7,3.5,2.7,3.5,4.9c0.3,2.3-0.9,4.4-2.9,5.5C160.6,319.5,160.1,319.8,159.5,320
		z M152.9,316.8c1.7,0,3.3,0.1,4.9,0c1.3-0.2,2.3-1.3,2.3-2.6c0-1.1-0.8-2.1-1.9-2.4c-1.7-0.4-3.5-0.5-5.2-0.2V316.8z"/>
	<path id="Path_4964" class="st68" d="M80.5,311.6h-10v4.9c3.1,0.1,6.2,0,9.4,0v3.4h-9.4v5.5H81v3.5H66.4v-20.9
		c1.1-0.4,12.6-0.4,14.2-0.1V311.6z"/>
	<path id="Path_4965" class="st68" d="M339.9,325.6h10.5c0.3,1.2,0.3,2.3,0.2,3.5H336c-0.3-1.3-0.3-20,0.1-21.1h13.8v3.7H340v4.8
		c3.1,0.2,6.2,0,9.4,0.1v3.3c-0.3,0.1-0.6,0.1-1,0.2c-2.4,0-4.9,0-7.3,0c-0.7,0-1.3-0.1-1.3-1.3c-0.3,0.5-0.5,0.8-0.5,0.8
		c1,1.3,0.4,2.8,0.5,4.3C339.9,324.5,339.9,325,339.9,325.6z M338.2,314.3l-0.2,0.2l0.5,0.5l0.2-0.2L338.2,314.3z"/>
	<path id="Path_4966" class="st68" d="M104.8,324c0.7,0.6,1.3,1.1,1.9,1.5c1.3,0.8,2.9,1,4.3,0.6c1.1-0.3,1.9-1.2,2-2.3
		c0.2-1.1-0.5-2.2-1.5-2.6c-1.2-0.5-2.4-0.9-3.6-1.3c-1.5-0.4-2.9-1.3-3.9-2.6c-1.6-2.5-1.2-5.8,1-7.7c3.1-2.8,9.5-2.5,12.2,0.5
		l-2.4,2.7c-0.7-0.4-1.4-0.9-2-1.2c-1.2-0.6-2.5-0.7-3.8-0.1c-1,0.3-1.7,1.2-1.7,2.2c-0.1,1,0.6,2,1.6,2.3c0.9,0.4,1.9,0.7,2.8,1
		c0.6,0.2,1.2,0.4,1.8,0.7c3.1,1.4,4.2,3.3,3.8,6.7c0,1-0.5,1.9-1.2,2.5c-0.1,0.1-0.2,0.1-0.2,0.1c-1.2,2.7-3.7,2.9-6.1,3
		c-2.8,0.2-5.6-1-7.5-3.1C102.8,325.8,103.8,324.8,104.8,324z"/>
	<path id="Path_4967" class="st68" d="M310.9,312.7c-0.9-0.1-1.6-0.7-1.7-1.5c-0.3-1-0.8-1.9-1.2-3.1c1.4-0.2,2.8-0.2,4.2,0
		c0.2,0,0.4,0.5,0.5,0.8c0.6,1.8,1.2,3.6,1.8,5.4c1.2,3.1,2.4,6.2,3.6,9.6l5.7-15.7h4.2c0,0.3,0,0.6-0.1,0.9
		c-2.6,6.5-5.2,12.9-7.8,19.4c-0.2,0.6-0.7,1-1.3,0.9c-3.2-0.1-2.4,0.4-3.5-2.3c-1.6-4-3.1-8-4.7-11.9
		C310.2,314.3,310.3,313.3,310.9,312.7z M324.9,313.8c-2-0.7-2-0.7-2.3,0.6L324.9,313.8z"/>
	<path id="Path_4968" class="st68" d="M134.2,329.1h-3.9c-0.1-1.4-0.1-2.8-0.1-4.3c0-1.4,0-2.9,0-4.3c0-1.4,0-2.9,0-4.3v-4.5h-6.4
		v-3.4c1-0.4,14.1-0.5,16.7-0.2c0.3,1.2,0.4,2.4,0.1,3.6h-6.3v9.1l-1.6-0.2c0.4,1.2,0.4,1.2,1.5,1.6V329.1z"/>
	<path id="Path_4969" class="st68" d="M377.2,325.6c2.6,0,5,0,7.4,0c1.5,0,1.5,0,1.5,1.6c0,0.6,0,1.2,0,1.7
		c-1.2,0.4-11.3,0.4-12.9,0.1c-0.1-0.2-0.1-0.4-0.1-0.5c0-3.1,0-6.3,0-9.4c0-0.7,0.3-1,1-1.1l-0.9-0.4v-9.5c1.3-0.4,2.6,0,4-0.1
		c0,2,0,4,0,5.9c0,1.9,0,3.9,0,5.8L377.2,325.6z"/>
	<path id="Path_4970" class="st68" d="M275.5,308h3.9v17.6h8.8v3.5h-12.8V308z"/>
	<path id="Path_4971" class="st68" d="M300.3,329.1h-3.8c-0.4-1.4-0.3-19.9,0-21.1h3.7V329.1z M299.9,316.4
		c-0.4-0.5-0.8-0.7-1.3-0.1c-0.1,0.2,0,0.7,0.1,0.7C299.4,317.3,299.8,317,299.9,316.4z"/>
	<path id="Path_4972" class="st68" d="M208,315.8l-1.3,0.3l0.5-1.3L208,315.8z"/>
	<path id="Path_4975" class="st68" d="M471.1,318.5c-0.2,0.2-0.4,0.4-0.5,0.4c-0.1,0-0.3-0.2-0.4-0.4c0.1-0.1,0.2-0.3,0.4-0.3
		C470.7,318.2,470.9,318.4,471.1,318.5z"/>
	<path id="Path_4978" class="st68" d="M42.8,317l0.3,0.8l-0.3,0.1l-0.2-0.8L42.8,317z"/>
	<path id="Path_4980" class="st68" d="M338.2,314.3l0.5,0.6l-0.2,0.2l-0.5-0.5L338.2,314.3z"/>
	<path id="Path_4981" class="st68" d="M324.9,313.8l-2.3,0.6C322.9,313.1,322.9,313.1,324.9,313.8z"/>
	<path id="Path_4982" class="st68" d="M299.9,316.4c-0.2,0.7-0.5,1-1.2,0.7c-0.1-0.1-0.2-0.6-0.1-0.7
		C299.1,315.7,299.5,315.9,299.9,316.4z"/>
</g>
</svg>
