<svg width="35" height="30" viewBox="0 0 35 30" fill="none" xmlns="http://www.w3.org/2000/svg">
<path d="M17.9245 0.504012C21.8353 0.888228 25.7598 1.20383 29.6568 1.6841C30.8095 1.83505 31.9621 2.34275 33.0324 2.87791C33.9655 3.35818 34.3223 4.15406 34.0616 5.34787C33.2931 8.97047 32.511 12.6068 32.0582 16.2706C31.6602 19.5227 30.4253 22.3906 28.8472 25.1487C27.5162 27.4814 25.2932 28.9222 22.7684 29.2378C18.8851 29.7318 14.9331 29.9514 11.0224 29.8416C7.74281 29.7456 5.23169 27.8794 3.91438 24.7782C2.98129 22.569 1.93842 20.346 1.51303 18.027C0.799491 14.1574 0.470164 10.2192 0.085948 6.29469C-0.17477 3.75612 0.182002 3.28958 2.62451 2.46626C7.59187 0.792174 12.7513 0.847056 17.9245 0.476562V0.504012ZM5.94523 8.39415C5.94523 10.4524 5.97268 12.1951 5.94523 13.9378C5.87662 18.0407 7.70165 21.3065 10.3088 24.2842C15.4271 30.1435 23.7289 27.6186 26.0479 21.3751C27.5848 17.2174 27.5162 12.8675 28.0925 8.40787H5.94523V8.39415ZM27.6671 5.64976C27.3104 3.9894 26.3224 3.2484 25.0874 3.26212C19.8593 3.33073 14.645 3.4954 9.4169 3.72868C8.70335 3.75612 8.01725 4.29127 7.31743 4.59316C14.1098 6.07513 20.765 6.3633 27.6671 5.63603V5.64976Z" fill="#008FF1"/>
</svg>
