<svg width="1440" height="306" viewBox="0 0 1440 306" fill="none" xmlns="http://www.w3.org/2000/svg">
<path d="M1440 73.5144C1440 73.5144 1198.82 13.2376 1170.21 8.44897C1141.61 3.66029 1116.83 -17.3814 954.78 40.9906C792.727 99.3625 692.636 90.7465 686.27 92.0282L509.604 12.9172C509.604 12.9172 475.289 -5.57882 425.084 17.3855C374.879 40.3497 171.044 70.6483 1.57356e-05 31.4132V305.97H1440V73.5144Z" fill="url(#paint0_linear_8247_4704)"/>
<path d="M1440 73.5144C1440 73.5144 1198.82 13.2376 1170.21 8.44897C1141.61 3.66029 1116.83 -17.3814 954.78 40.9906C792.727 99.3625 692.636 90.7465 686.27 92.0282L509.604 12.9172C509.604 12.9172 475.289 -5.57882 425.084 17.3855C374.879 40.3497 171.044 70.6483 1.57356e-05 31.4132V305.97H1440V73.5144Z" fill="url(#paint1_linear_8247_4704)" fill-opacity="0.5"/>
<path d="M506.628 92.1027C480.577 86.9936 454.526 72.9659 445.623 51.9064C436.721 30.8469 465.911 8.00725 478.644 6.03125C498.205 6.76112 509.803 12.9917 509.803 12.9917L686.469 92.1027C686.469 92.1027 532.68 97.2118 506.628 92.1027Z" fill="url(#paint2_linear_8247_4704)"/>
<path d="M0 223.744C44.5655 202.641 277.005 166.621 406.64 166.621C536.276 166.621 724.398 166.621 976.061 99.5708C1203.64 38.9309 1149.55 7.25957 1137.1 1.75C1151.33 3.34396 1160.55 6.72247 1170.21 8.29911C1198.82 12.9597 1440 71.6245 1440 71.6245V305.972H0V223.744Z" fill="url(#paint3_linear_8247_4704)"/>
<path d="M0 223.744C44.5655 202.641 277.005 166.621 406.64 166.621C536.276 166.621 724.398 166.621 976.061 99.5708C1203.64 38.9309 1149.55 7.25957 1137.1 1.75C1151.33 3.34396 1160.55 6.72247 1170.21 8.29911C1198.82 12.9597 1440 71.6245 1440 71.6245V305.972H0V223.744Z" fill="url(#paint4_linear_8247_4704)"/>
<defs>
<linearGradient id="paint0_linear_8247_4704" x1="356.524" y1="306.577" x2="1722.46" y2="-129.101" gradientUnits="userSpaceOnUse">
<stop stop-color="#FFDBAB"/>
<stop offset="0.25" stop-color="#FDD8A8"/>
<stop offset="0.41" stop-color="#F6D1A0"/>
<stop offset="0.53" stop-color="#ECC491"/>
<stop offset="0.61" stop-color="#E3B985"/>
<stop offset="0.64" stop-color="#DBAD7D"/>
<stop offset="0.71" stop-color="#CB966D"/>
<stop offset="0.79" stop-color="#C08562"/>
<stop offset="0.88" stop-color="#BA7C5C"/>
<stop offset="1" stop-color="#B8795A"/>
</linearGradient>
<linearGradient id="paint1_linear_8247_4704" x1="704.05" y1="153.4" x2="1440" y2="153.4" gradientUnits="userSpaceOnUse">
<stop stop-color="#D2BEA6" stop-opacity="0"/>
<stop offset="1" stop-color="#D2BEA6"/>
</linearGradient>
<linearGradient id="paint2_linear_8247_4704" x1="46.1233" y1="321.556" x2="1272.81" y2="-251.239" gradientUnits="userSpaceOnUse">
<stop stop-color="#C09871"/>
<stop offset="0.42" stop-color="#BD9671"/>
<stop offset="0.67" stop-color="#B59171"/>
<stop offset="0.88" stop-color="#A68871"/>
<stop offset="1" stop-color="#9A8072"/>
</linearGradient>
<linearGradient id="paint3_linear_8247_4704" x1="720" y1="308.276" x2="720" y2="-4.14074" gradientUnits="userSpaceOnUse">
<stop stop-color="#FFDBAB"/>
<stop offset="0.18" stop-color="#F5CF9E"/>
<stop offset="0.61" stop-color="#E3B985"/>
<stop offset="0.69" stop-color="#DFB381"/>
<stop offset="0.81" stop-color="#D4A376"/>
<stop offset="0.93" stop-color="#C38A65"/>
<stop offset="1" stop-color="#B8795A"/>
</linearGradient>
<linearGradient id="paint4_linear_8247_4704" x1="720" y1="1.75" x2="720" y2="305.972" gradientUnits="userSpaceOnUse">
<stop stop-color="#D2BEA6" stop-opacity="0"/>
<stop offset="1" stop-color="#D2BEA6"/>
</linearGradient>
</defs>
</svg>
