<svg width="195" height="81" viewBox="0 0 195 81" fill="none" xmlns="http://www.w3.org/2000/svg">
<path d="M134.18 23.9081C134.18 23.9081 135.351 22.1636 137.426 22.5908C139.501 23.018 141.026 22.9468 141.948 22.9112C142.87 22.8756 145.122 22.9112 145.725 23.5699C146.328 24.2286 146.967 24.7092 146.488 27.3617C146.027 30.0141 147.144 32.72 147.747 34.0373C148.35 35.3547 149.432 36.7966 152.766 36.8322C156.1 36.8678 159.7 33.7347 160.799 32.9692C161.899 32.2216 164.86 31.4027 167.964 32.7378C167.964 32.7378 169.081 33.3431 170.269 32.5242C171.457 31.7231 176.795 28.6256 180.484 33.8771C180.484 33.8771 182.027 36.5118 181.566 38.5056C181.566 38.5056 185.91 39.9653 187.152 42.4398C188.411 44.932 188.127 47.1216 188.127 47.1216L187.826 47.2996C187.826 47.2996 192.898 57.3398 193.075 58.6394C193.27 59.9567 192.295 61.8971 192.295 61.8971C192.295 61.8971 194.175 65.404 194.157 66.4009C194.157 67.3978 192.596 75.3196 192.224 77.3668C191.851 79.3962 191.727 79.9837 190.805 80.0371C189.901 80.0905 188.039 79.6454 188.961 78.5773C188.961 78.5773 189.369 78.2569 189.759 78.5595C189.759 78.5595 191.514 71.1718 191.266 70.6377C191.266 70.6377 190.734 66.0271 189.617 64.1401C188.5 62.2531 187.702 60.9358 186.797 60.2771C185.893 59.6185 185.024 58.1231 184.971 55.7555C184.971 55.7555 181.619 58.3189 181.034 60.1347C180.448 61.9505 180.041 65.9915 179.207 67.1486C178.374 68.2879 170.553 73.308 169.985 74.2337C169.436 75.1594 167.042 74.6431 166.226 74.3049C165.41 73.9667 165.499 73.0944 167.077 72.952C168.655 72.7918 174.206 68.4125 175.093 67.0596C175.979 65.7067 177.611 59.4939 177.522 58.9598C177.416 58.4257 176.813 58.675 177.185 56.3607C177.575 54.0465 177.842 52.925 177.842 52.925C177.842 52.925 175.128 53.5659 173.142 53.6549C171.174 53.7439 164.204 51.8569 164.204 51.8569C164.204 51.8569 164.399 57.3932 164.346 58.7818C164.293 60.1703 162.289 68.5905 162.041 69.6587C161.792 70.709 161.863 72.9698 161.278 72.8452C160.693 72.7028 155.692 71.9017 157.696 71.4922C159.7 71.0828 159.522 71.8127 159.7 71.0828C159.877 70.3351 161.863 63.1432 161.686 62.716C161.508 62.2887 161.101 56.7524 160.994 56.0047C160.888 55.257 161.331 51.5543 160.249 50.682C159.168 49.8097 156.915 51.0558 153.954 53.4235C150.992 55.7911 149.449 56.1471 148.474 58.3901C147.499 60.6154 145.761 67.3978 145.087 67.8607C144.413 68.3235 144.165 68.5906 141.363 67.7005C138.561 66.8104 141.877 66.2941 142.444 66.3475C142.994 66.4009 144.236 64.1935 144.466 63.6417C144.697 63.0898 146.293 57.1974 146.399 57.0016C146.506 56.8236 146.86 54.1889 148.705 53.4591C150.549 52.7292 155.142 47.8693 155.142 47.1038C155.142 46.3562 154.131 44.6828 154.131 44.6828C154.131 44.6828 153.315 44.2733 150.815 44.0241C148.332 43.7571 145.371 42.422 144.129 39.7695C142.87 37.117 139.908 28.8392 139.306 28.5722C138.703 28.3052 133.861 27.5219 133.4 27.0234C132.939 26.5428 133.879 24.2286 134.145 23.9259L134.18 23.9081Z" fill="#21201E"/>
<path d="M65.4584 12.1238C65.4584 12.1238 66.5047 10.575 68.349 10.9488C70.1934 11.3227 71.5589 11.2693 72.3747 11.2337C73.2082 11.2159 75.2121 11.2337 75.7441 11.8211C76.2761 12.4086 76.8436 12.8358 76.4357 15.2035C76.0279 17.5711 77.021 19.9921 77.553 21.1671C78.085 22.342 79.0604 23.6237 82.0219 23.6593C85.0012 23.6949 88.1934 20.9 89.1687 20.2236C90.1441 19.5471 92.7865 18.835 95.553 20.0277C95.553 20.0277 96.5461 20.5618 97.6101 19.8497C98.6742 19.1377 103.427 16.3784 106.708 21.0602C106.708 21.0602 108.091 23.4101 107.665 25.1724C107.665 25.1724 111.531 26.472 112.649 28.6972C113.766 30.9046 113.518 32.8628 113.518 32.8628L113.251 33.023C113.251 33.023 117.756 41.9595 117.933 43.1166C118.111 44.2737 117.242 46.0183 117.242 46.0183C117.242 46.0183 118.909 49.1336 118.891 50.0415C118.891 50.9316 117.49 57.9811 117.171 59.8147C116.834 61.6304 116.727 62.1467 115.912 62.2001C115.096 62.2535 113.447 61.8441 114.262 60.8828C114.262 60.8828 114.635 60.5979 114.972 60.8828C114.972 60.8828 116.532 54.2961 116.319 53.8333C116.319 53.8333 115.841 49.7211 114.848 48.0477C113.854 46.3565 113.145 45.1994 112.329 44.612C111.531 44.0245 110.751 42.6894 110.698 40.5888C110.698 40.5888 107.718 42.8674 107.186 44.4874C106.654 46.1073 106.3 49.7211 105.555 50.7358C104.81 51.7505 97.8407 56.2187 97.3441 57.0554C96.8476 57.8921 94.7195 57.4114 93.9924 57.1266C93.2653 56.824 93.354 56.0585 94.7549 55.9161C96.1559 55.7737 101.104 51.8751 101.902 50.6646C102.682 49.454 104.154 43.9177 104.065 43.4549C103.977 42.992 103.427 43.2056 103.764 41.1406C104.101 39.0756 104.349 38.0787 104.349 38.0787C104.349 38.0787 101.919 38.6484 100.164 38.7196C98.4082 38.7908 92.2013 37.1174 92.2013 37.1174C92.2013 37.1174 92.3786 42.0485 92.3254 43.2768C92.2722 44.523 90.4988 52.0175 90.2682 52.961C90.0377 53.9045 90.1086 55.9161 89.5944 55.7915C89.0801 55.6669 84.6288 54.9548 86.4022 54.5809C88.1756 54.2071 88.016 54.8658 88.1756 54.2071C88.3352 53.5484 90.1086 47.1398 89.949 46.7482C89.7894 46.3565 89.417 41.4255 89.3283 40.7668C89.2397 40.0903 89.6298 36.797 88.6722 36.0137C87.7146 35.2304 85.7106 36.352 83.0683 38.4704C80.4259 40.5888 79.0604 40.9092 78.1914 42.8852C77.3224 44.879 75.7796 50.896 75.1766 51.3232C74.5737 51.7327 74.3609 51.9641 71.8604 51.1808C69.3599 50.3975 72.3215 49.9169 72.818 49.9703C73.3146 50.0059 74.4141 48.0477 74.6269 47.5493C74.8397 47.0508 76.2584 41.7993 76.3471 41.6391C76.4357 41.4789 76.7549 39.129 78.4042 38.4882C80.0535 37.8295 84.1323 33.5037 84.15 32.8272C84.15 32.1507 83.2456 30.6554 83.2456 30.6554C83.2456 30.6554 82.5185 30.2994 80.3018 30.0679C78.085 29.8365 75.4604 28.6438 74.3431 26.2762C73.2259 23.9085 70.5835 16.5386 70.0338 16.3072C69.5017 16.0758 65.1924 15.3637 64.7668 14.9364C64.3412 14.4914 65.1924 12.4442 65.4229 12.1772L65.4584 12.1238Z" fill="#21201E"/>
<path d="M0.998398 1.23004C0.998398 1.23004 1.90282 -0.122898 3.53435 0.197533C5.16587 0.517965 6.35406 0.482362 7.06342 0.446758C7.79051 0.428956 9.54617 0.446758 10.025 0.963009C10.4861 1.46146 10.9826 1.8531 10.6279 3.9359C10.2555 6.01871 11.1422 8.13712 11.6033 9.16962C12.0821 10.2021 12.9334 11.3236 15.5403 11.3592C18.1472 11.3948 20.9669 8.9382 21.8181 8.33294C22.6871 7.74548 24.9925 7.10462 27.422 8.15492C27.422 8.15492 28.291 8.61776 29.2309 7.9947C30.1708 7.37164 34.3383 4.9506 37.2289 9.04501C37.2289 9.04501 38.4348 11.11 38.0624 12.6588C38.0624 12.6588 41.4496 13.7981 42.425 15.7385C43.4004 17.6789 43.1876 19.4056 43.1876 19.4056L42.957 19.548C42.957 19.548 46.9117 27.3986 47.0713 28.4133C47.2132 29.428 46.4683 30.959 46.4683 30.959C46.4683 30.959 47.9225 33.7004 47.9225 34.4837C47.9225 35.267 46.6989 41.462 46.4151 43.0464C46.1314 44.6485 46.025 45.0936 45.3156 45.147C44.6063 45.1826 43.1521 44.8443 43.8792 43.9899C43.8792 43.9899 44.1984 43.7406 44.4999 43.9899C44.4999 43.9899 45.8654 38.2043 45.6703 37.7948C45.6703 37.7948 45.2447 34.1989 44.3757 32.7213C43.5068 31.2438 42.8683 30.2113 42.1767 29.695C41.4674 29.1788 40.7935 28.0039 40.7403 26.1525C40.7403 26.1525 38.1334 28.1463 37.6546 29.5704C37.1935 30.9946 36.8743 34.1633 36.2181 35.0534C35.5619 35.9435 29.4437 39.8598 29.0181 40.5897C28.5748 41.3196 26.7127 40.9102 26.0743 40.6431C25.4358 40.3761 25.5068 39.6996 26.7482 39.575C27.9718 39.4504 32.3166 36.0325 33.0083 34.9644C33.6999 33.8963 34.9767 29.0542 34.9058 28.6269C34.8348 28.2175 34.356 28.4133 34.6398 26.5975C34.9413 24.7818 35.1541 23.9095 35.1541 23.9095C35.1541 23.9095 33.026 24.4079 31.4831 24.4791C29.9403 24.5503 24.4959 23.0728 24.4959 23.0728C24.4959 23.0728 24.6378 27.3986 24.6023 28.4845C24.5669 29.5704 23.0063 36.1571 22.7935 36.976C22.5984 37.8126 22.6516 39.575 22.2082 39.4682C21.7472 39.3614 17.8457 38.7383 19.4063 38.4001C20.9669 38.0797 20.825 38.6493 20.9669 38.0797C21.1087 37.4922 22.6516 31.8669 22.5275 31.5286C22.3856 31.1904 22.0664 26.8646 21.9954 26.2771C21.9245 25.6897 22.2614 22.788 21.4102 22.1115C20.5767 21.435 18.8033 22.4141 16.4979 24.2655C14.1747 26.1169 12.9866 26.4017 12.224 28.1463C11.4615 29.8909 10.0959 35.178 9.58164 35.5518C9.04962 35.9257 8.85455 36.1215 6.67327 35.4272C4.47425 34.7329 7.08114 34.3235 7.52449 34.3591C7.95011 34.3947 8.92548 32.6679 9.10282 32.2407C9.28016 31.8135 10.5215 27.2028 10.6102 27.0604C10.6989 26.918 10.9649 24.8708 12.4191 24.2833C13.8555 23.7137 17.4555 19.9041 17.4555 19.3166C17.4555 18.7292 16.6575 17.4118 16.6575 17.4118C16.6575 17.4118 16.0191 17.0914 14.0683 16.8956C12.1176 16.682 9.81219 15.6495 8.83682 13.5845C7.86145 11.5017 5.53829 5.03961 5.05947 4.82599C4.58065 4.61237 0.803311 4.00711 0.430897 3.61547C0.0584832 3.24163 0.803324 1.42585 0.998398 1.19443V1.23004Z" fill="#21201E"/>
</svg>
