<?xml version="1.0" encoding="utf-8"?>
<!-- Generator: Adobe Illustrator 26.0.1, SVG Export Plug-In . SVG Version: 6.00 Build 0)  -->
<svg version="1.1" id="George_Samuel" xmlns="http://www.w3.org/2000/svg" xmlns:xlink="http://www.w3.org/1999/xlink" x="0px"
	 y="0px" viewBox="0 0 512 512" style="enable-background:new 0 0 512 512;" xml:space="preserve">
<style type="text/css">
	.st0{fill:#FFFFFF;}
	.st1{fill:#B76A76;}
	.st2{fill:#81C8C4;}
</style>
<g id="www.GeorgeSamuel.me">
	<rect class="st0" width="512" height="512"/>
	<circle class="st0" cx="256" cy="256" r="256"/>
	<path id="Path_10572" class="st1" d="M67.9,304.6H44c-1.4,0-1.7-0.4-1.4-1.8c4.4-20.3,8.8-40.5,13.3-60.8
		c1.5-6.6,7.2-11.3,13.9-11.5c2.6-0.1,5.2,0,7.8,0c1.2,0,1.5,0.4,1.3,1.5c-1.7,9-3.4,17.9-5.2,26.9c-1.5,7.6-2.9,15.1-4.4,22.7
		c-0.3,1.3,0.3,2,1.7,2c7.8,0,15.7,0.1,23.5,0c10.7,0,21-3.8,29.1-10.7c9.1-7.6,15.4-18.1,17.6-29.7c1-4.4,1.4-9,1.1-13.6
		c-0.6-8.2-3.3-15.6-9.3-21.4c-4.4-4.2-9.9-6.9-15.9-7.8c-7.8-1.4-15.7-1.2-23.6-1c-2.5,0.1-5,0.1-7.5,0.1c-7.2,0-14.4,0-21.6,0
		c-1.6,0-1.8-0.2-1.5-1.8c0.5-2.5,0.9-5,1.5-7.5c1.4-6.9,7.6-11.8,14.6-11.7c12.6,0,25.3-0.2,37.9,0.1c12.2,0.2,23.5,3.6,33.2,11.3
		c7.9,6.3,13.4,15.1,15.5,24.9c1.8,8,2,16.4,0.4,24.5c-1.9,11.2-6.2,21.8-12.6,31.1c-7.7,11.2-18.1,20.2-30.3,26.2
		c-7.1,3.5-14.6,6-22.4,7.2c-4.1,0.6-8.2,0.9-12.4,0.9L67.9,304.6z"/>
	<path id="Path_10573" class="st2" d="M247.7,178.5c12.7,0,25.4,0,38,0c1.5,0,2,0.4,1.8,1.9c-0.6,3.3-0.9,6.6-2.1,9.8
		c-2.2,5.6-7.6,9.3-13.7,9.3c-14.7,0-29.5,0-44.3,0c-6.4,0-12,4.2-13.8,10.3c-1,3.4-1.4,7-2.2,10.6c-0.8,3.7-1.4,7.3-2.1,11
		c-0.3,1.3-0.2,1.4,1.1,1.4h56.5c1.7,0,2.2,0.7,1.9,2.4c-0.2,1.1-0.4,2.1-0.6,3.2c-0.5,3-1.2,5.9-3,8.4c-3.2,4.4-7.5,6.9-13,7
		c-15,0-30,0-45,0c-0.4,0-0.7,0-1.1,0c-0.6,0-1.2,0.4-1.3,1.1c0,0,0,0,0,0.1c-1.5,8.1-3.1,16.2-4.7,24.3c-1.6,8-3.1,16.1-4.6,24.2
		c-0.2,1-0.5,1.3-1.6,1.3c-6.6-0.1-13.3,0-19.9,0c-1.4,0-1.4,0-1.1-1.4c2.1-10.3,4.2-20.6,6.4-30.9c2-9.8,4.1-19.7,6.1-29.5
		c2.2-10.6,4.4-21.1,6.6-31.7c1.5-7,2.9-14.1,4.4-21.1c1.3-6,6.2-10.6,12.3-11.5c0.8-0.1,1.5-0.1,2.3-0.1
		C223.2,178.5,235.4,178.5,247.7,178.5z"/>
	<path id="Path_10574" class="st2" d="M432.9,178.5h42.8c1.9,0,2.3,0.5,1.9,2.4c-0.6,3-1,5.9-1.8,8.8c-1.8,5.8-7.1,9.9-13.2,10.2
		c-8.2,0.1-16.4,0-24.6,0c-0.3,0-0.5,0-0.8,0c-1.7,0-1.8,0.1-2.1,1.7c-1.4,7.4-2.8,14.8-4.2,22.2c-1.5,7.7-3,15.4-4.5,23.1
		c-1.8,9.4-3.6,18.8-5.4,28.2c-1.2,6.5-2.5,12.9-3.8,19.3c-0.6,3.1-1.3,6.3-1.8,9.4c-0.1,0.6-0.3,0.7-0.8,0.7c-7,0-14.1,0-21.1,0
		c-1.3,0-0.7-0.8-0.6-1.2c0.8-4.5,1.7-8.9,2.6-13.4c1.6-8.3,3.2-16.6,4.8-24.9c1.5-7.6,2.9-15.2,4.4-22.8c1.5-8,3.1-16.1,4.6-24.1
		c1.1-5.7,2.2-11.3,3.3-17c0.2-1.2,0.2-1.3-1.1-1.3c-6.2,0-12.4,0-18.6,0c-5.5,0-10.9-0.1-16.4,0.1c-1.2,0-1.9-0.7-1.7-1.7
		c0.6-3.2,1-6.5,2-9.6c2-6.1,7.7-10.2,14.1-10.3C405,178.5,418.9,178.5,432.9,178.5z"/>
	<path id="Path_10575" class="st1" d="M350.5,266.2c0,2.5-0.8,4.8-2.3,6.8c-6.6,10-13.4,19.9-20.4,29.7c-0.3,0.4-0.5,0.8-0.8,1.2
		c-0.4,0.6-1.2,0.9-1.8,0.5c-0.1,0-0.1-0.1-0.2-0.1c-1.7-1-3.2-2.2-4.6-3.6c-3.5-3.8-4.1-9.4-1.6-13.9c2.5-4.3,5.7-8.2,8.6-12.2
		c0.7-1,1.5-2.1,2.2-3.1c1.6-2.1,1.4-5.2-0.6-7c-1.8-1.6-3.7-3.1-5.7-4.4c-1.1-0.9-2.3-1.7-3.4-2.6c-0.5-0.4-0.8-0.5-1.2,0.2
		c-3.6,5.6-7.3,11.2-11,16.8c-5.6,8.5-11.1,17-16.6,25.5c-0.8,1.2-1.5,2.4-2.3,3.6c-0.5,0.7-1.1,1.1-1.9,0.6
		c-2.6-1.7-5.2-3.3-6.6-6.1c-2.2-3.9-2-8.8,0.6-12.5c7.7-11.7,15.4-23.5,23.2-35.2c3.4-5.1,6.8-10.3,10.1-15.4
		c1.1-1.6,1.7-1.7,3.3-0.6c7.1,5.3,14.2,10.6,21.3,15.8c2.2,1.6,4.4,3.2,6.5,4.8C348.7,257.6,350.7,261.8,350.5,266.2z"/>
	<path id="Path_10576" class="st1" d="M284.2,230.7c0-2.5,0.8-4.9,2.3-6.8c5.7-8.3,11.5-16.7,17.2-25c1.3-2.2,3.5-3.7,6.1-4
		c2-0.3,4,0.2,5.6,1.4c5.5,4.1,11,8.2,16.5,12.3c2.8,2.1,5,1.8,7-1.1c5.1-7.4,10.3-14.9,15.4-22.3c1-1.4,1.6-1.5,3-0.5
		c3.8,2.6,6.2,6.8,6.4,11.4c0.2,3.1-0.7,6.2-2.6,8.7c-5.5,8-11,16-16.6,24c-2.3,3.6-7.1,4.7-10.8,2.4c-0.3-0.2-0.5-0.4-0.8-0.6
		c-5.7-4.3-11.5-8.6-17.2-12.9c-2.2-1.7-3.8-1.4-5.4,0.9c-5.3,7.8-10.7,15.5-16,23.3c-1,1.4-1.6,1.5-2.9,0.5c-2-1.5-4.2-2.9-5.5-5.2
		C284.7,235.2,284.1,233,284.2,230.7z"/>
	<path id="Path_10577" class="st1" d="M341.3,175.8c0.1,6.4-5,11.6-11.4,11.7c-6.4,0.1-11.6-5-11.7-11.4c0-6.5,5.2-11.8,11.7-11.8
		c6.3,0,11.4,5.1,11.5,11.4C341.3,175.8,341.3,175.8,341.3,175.8z"/>
	<path id="Path_10578" class="st1" d="M364.7,340.1c0.5-3,1-5.9,1.4-8.8c0.5-3,1-6,1.5-9c0.1-0.6,0.3-0.7,0.8-0.7
		c0.9,0.1,1.9,0.1,2.8,0c0.9-0.1,1,0.3,0.9,1.1c-0.5,3.1-1,6.2-1.6,9.4c-0.8,4.7-1.6,9.3-2.3,14c-0.1,0.8-0.4,1-1.2,1
		c-1.2-0.1-2.5-0.1-3.7,0c-0.7,0.1-1.4-0.3-1.6-1c-2.8-5.9-5.6-11.8-8.4-17.7c-0.1-0.2-0.2-0.4-0.4-0.6c-0.3,1.9-0.6,3.5-0.9,5.2
		c-0.7,4.5-1.5,9-2.2,13.4c-0.1,0.5-0.3,0.7-0.8,0.7c-1.1,0-2.1,0-3.2,0c-0.7,0-0.7-0.2-0.6-0.8c0.9-5.1,1.7-10.3,2.5-15.4
		c0.5-2.8,1-5.5,1.4-8.3c0.1-0.8,0.4-0.9,1.1-0.9c1.3,0,2.7,0.1,4,0c0.7-0.1,1.4,0.3,1.6,1c2.6,5.5,5.3,10.9,7.9,16.4
		C364.1,339.4,364.4,339.8,364.7,340.1z"/>
	<path id="Path_10579" class="st1" d="M192.1,333.6c-2,2.3-3.7,4.3-5.5,6.3c-0.6,0.7-0.8,1.2-0.1,2.1c1.3,1.5,2.4,3.2,3.8,4.9
		c-1.9,0-3.7,0.1-5.4,0c-0.7,0-0.9-0.9-1.3-1.3c-1.1-1.4-1.1-1.4-2.4-0.3c-2.5,2.1-5.9,2.9-9.1,2.1c-4.5-0.9-6.5-5-4.5-9.2
		c1.1-2.2,2.9-4,5.2-4.9c0.7-0.3,0.8-0.5,0.3-1.1c-3.4-4-1-10.5,5.7-11.3c1.1-0.1,2.2-0.1,3.3,0.1c4,0.9,5.6,4.6,3.4,8.1
		c-1,1.6-2.5,2.9-4.3,3.8c-0.8,0.4-0.9,0.7-0.3,1.4c0.8,0.9,1.5,1.9,2.2,2.9c0.3,0.5,0.6,0.5,1,0c0.8-1.1,1.7-2.1,2.6-3.1
		c0.2-0.3,0.4-0.6,0.9-0.6C188.9,333.6,190.4,333.6,192.1,333.6z M171.8,340.5c0,1.7,1.3,3.2,3,3.2c1.9,0.1,3.3-0.9,4.7-1.9
		c0.5-0.4,0.6-0.7,0.2-1.2c-1.1-1.4-2.2-2.9-3.3-4.3c-0.4-0.5-0.6-0.6-1.1-0.2c-0.6,0.5-1.4,0.9-2,1.4
		C172.4,338.1,171.8,339.3,171.8,340.5z M181.9,326.9c0-1-0.8-1.9-1.8-2c-1.1-0.2-2.1,0.1-3,0.7c-1.4,1.1-1.5,2.5-0.1,4.4
		c0.8,1.1,0.9,1.1,2.7-0.1c0.3-0.2,0.7-0.5,0.9-0.7C181.4,328.6,181.8,327.8,181.9,326.9L181.9,326.9z"/>
	<path id="Path_10580" class="st1" d="M284.9,335.8c-1.7,0-3.4,0-5,0c-0.6,0-0.9,0.2-1,0.8c-0.5,3-1,6-1.5,9c-0.1,1-0.4,1.5-1.5,1.3
		c-0.8-0.1-1.7-0.1-2.5,0c-0.7,0-0.8-0.3-0.7-0.9c0.7-4.5,1.5-9,2.2-13.4c0.6-3.3,1.1-6.7,1.7-10c0.1-0.8,0.4-1.2,1.3-1.1
		c0.9,0.1,1.7,0.1,2.6,0c0.6,0,0.9,0.1,0.7,0.9c-0.5,2.6-0.9,5.3-1.4,7.9c-0.2,0.9-0.1,1.3,1.1,1.3c3.2-0.1,6.4,0,9.6,0
		c0.7,0,1-0.2,1.1-0.9c0.4-2.7,0.9-5.4,1.3-8.2c0.1-0.7,0.3-1.1,1.1-1c0.7,0,1.5,0,2.2,0c1.5,0,1.5,0,1.3,1.4
		c-1.3,7.6-2.5,15.2-3.7,22.8c-0.1,0.9-0.5,1.3-1.5,1.2c-0.8-0.1-1.6-0.1-2.4,0c-0.8,0.1-1-0.2-0.8-1c0.6-3.1,1-6.2,1.6-9.4
		c0.1-0.6,0-0.8-0.7-0.8C288.3,335.9,286.6,335.8,284.9,335.8z"/>
	<path id="Path_10581" class="st1" d="M400.6,347c-2.6,0-5.2,0-7.9,0c-0.8,0-0.9-0.2-0.8-0.9c0.9-5,1.7-10,2.5-14.9
		c0.5-2.9,1-5.8,1.4-8.7c0.1-0.6,0.3-0.8,1-0.8c5.1,0,10.1,0,15.2,0c0.7,0,1,0.2,0.8,0.9c-0.1,0.5-0.2,0.9-0.3,1.4
		c-0.3,1.8-0.3,1.8-2.2,1.8c-3.2,0-6.3,0-9.5,0c-0.7,0-1,0.2-1.1,0.9c-0.2,1.4-0.4,2.9-0.7,4.3c-0.2,0.8,0,0.9,0.8,0.9
		c3.2,0,6.5,0,9.7,0c0.8,0,1.1,0.2,0.9,1c-0.1,0.5-0.2,1-0.3,1.5c-0.3,1.6-0.3,1.6-1.9,1.6c-2.9,0-5.8,0-8.7,0c-1,0-1.4,0.2-1.5,1.3
		c-0.2,1.5-0.4,3-0.8,4.5c-0.2,0.8,0,1.1,0.9,1.1c3.6,0,7.3,0,10.9,0c0.7,0,1,0.1,0.8,0.9c-0.2,0.8-0.3,1.6-0.4,2.4
		c0,0.8-0.4,0.9-1.1,0.9C405.8,347,403.2,347,400.6,347z"/>
	<path id="Path_10582" class="st1" d="M247,320.9c2.2-0.1,4.5,0.6,6.2,2c0.5,0.5,0.7,0.8,0,1.3c-0.9,0.7-1.8,1.5-2.6,2.3
		c-0.4,0.4-0.6,0.4-1.1,0c-1.9-1.7-4.7-1.9-6.8-0.5c-0.7,0.5-1.2,1.2-1.4,2c-0.4,1,0,2.1,1,2.6c0.9,0.6,1.9,1,3,1.3
		c0.7,0.2,1.4,0.4,2.1,0.7c3.7,1.4,4.9,3.9,3.9,7.7c-1,4-3.8,6.1-7.7,7c-2.3,0.5-4.7,0.4-6.9-0.4c-0.5-0.2-1-0.4-1.5-0.7
		c-2.5-1.5-2.5-1.9-0.3-3.7l0.3-0.3c0.5-0.4,1-1,1.5-1.2c0.7-0.2,0.8,0.8,1.3,1.2c2.2,1.9,6.4,1.5,7.9-0.8c1-1.1,0.9-2.8-0.2-3.8
		c-0.2-0.2-0.4-0.3-0.7-0.4c-1.3-0.7-2.6-1.2-3.9-1.6c-1.1-0.3-2.2-0.9-3.1-1.6c-2.3-2.1-2.3-6.3,0-9.1
		C240.4,322.1,243.5,321,247,320.9z"/>
	<path id="Path_10583" class="st1" d="M46.5,321.6c2.4,0,4.9,0,7.3,0c0.7,0,1,0.2,0.8,0.9c-0.1,0.5-0.2,1.1-0.3,1.6
		c-0.3,1.6-0.3,1.6-1.9,1.6c-3.1,0-6.1,0-9.2,0c-0.8,0-1.1,0.2-1.2,1c-0.2,1.6-0.4,3.2-0.8,4.7c-0.1,0.7,0,0.9,0.7,0.9
		c3.1,0,6.2,0,9.3,0c0.8,0,1.1,0.1,0.9,1c-0.3,1,0,2.4-0.7,3c-0.7,0.6-2,0.2-3.1,0.2c-2.3,0-4.5,0-6.8,0c-0.9,0-1.3,0.2-1.4,1.1
		c-0.4,2.9-0.9,5.7-1.4,8.5c-0.1,0.7-0.3,0.9-1,0.9c-1-0.1-2,0-2.9,0c-0.6,0-0.8-0.2-0.7-0.8c0.7-4.1,1.4-8.2,2-12.3
		c0.6-3.8,1.3-7.5,1.8-11.3c0.1-0.9,0.4-1.1,1.3-1.1C41.8,321.6,44.2,321.6,46.5,321.6z"/>
	<path id="Path_10584" class="st1" d="M112.5,321.6c3,0,6,0,9.1,0c0.8,0,1,0.3,0.9,1c-0.2,0.6-0.3,1.3-0.3,1.9
		c0,1.1-0.6,1.3-1.5,1.2c-1.8-0.1-3.6,0-5.5,0c-0.8,0-1.1,0.2-1.2,1c-1,6.4-2.1,12.7-3.1,19.1c-0.1,0.9-0.4,1.3-1.4,1.2
		c-0.8-0.1-1.6-0.1-2.4,0c-0.8,0-1-0.2-0.9-1c0.7-4.1,1.4-8.3,2.1-12.5c0.4-2.2,0.7-4.4,1.1-6.6c0.2-0.9,0.1-1.3-1-1.3
		c-1.9,0.1-3.8,0-5.7,0c-0.7,0-0.9-0.1-0.7-0.9c0.3-1,0-2.4,0.7-3.1c0.7-0.7,2-0.2,3.1-0.2C107.9,321.6,110.2,321.6,112.5,321.6z"/>
	<path id="Path_10585" class="st1" d="M319.4,347c-2.3,0-2.4,0-2-2.3c1.2-7.4,2.5-14.9,3.7-22.3c0.1-0.6,0.4-0.8,0.9-0.8
		c1,0,2,0,2.9,0c0.7,0,0.8,0.2,0.7,0.9c-0.7,4.2-1.4,8.4-2.1,12.6c-0.6,3.6-1.2,7.2-1.8,10.8c-0.1,0.9-0.5,1.2-1.4,1.1
		C320.1,347,319.8,347,319.4,347z"/>
	<path id="Path_10586" class="st1" d="M75,347c-2.2,0-2.3,0-1.9-2.2c1.2-7.3,2.4-14.6,3.6-21.9c0.1-0.9,0.4-1.3,1.4-1.2
		c0.8,0.1,1.7,0.1,2.5,0c0.7,0,0.9,0.2,0.8,0.9c-0.8,4.9-1.7,9.9-2.5,14.8c-0.4,2.7-0.9,5.4-1.4,8.2c-0.3,1.5-0.3,1.5-1.8,1.5
		L75,347z"/>
</g>
</svg>
