<?xml version="1.0" encoding="utf-8"?>
<!-- Generator: Adobe Illustrator 26.0.1, SVG Export Plug-In . SVG Version: 6.00 Build 0)  -->
<svg version="1.1" id="GeorgeSamuel.me" xmlns="http://www.w3.org/2000/svg" xmlns:xlink="http://www.w3.org/1999/xlink" x="0px"
	 y="0px" viewBox="0 0 512 512" style="enable-background:new 0 0 512 512;" xml:space="preserve">
<style type="text/css">
	.st0{fill:#351356;}
	.st1{fill:#FFFFFF;}
</style>
<g id="www.GeorgeSamuel.me">
	<rect class="st0" width="512" height="512"/>
	<circle class="st0" cx="256" cy="256" r="256"/>
	<path id="Path_7597" class="st1" d="M149.4,112.6c4.1,0.3,8.8,0.3,13.6,0.9c7.5,0.8,15,2.3,22.3,4.4c2.9,0.9,5.8,2,8.7,2.9
		c5.7,2,11.3,4.6,16.5,7.7c2.6,1.4,5.2,3,7.7,4.8c6.1,4.3,11.8,9.1,17,14.5c3.7,3.9,7.1,8.1,10,12.6c3.6,5.4,6.5,11.2,8.7,17.4
		c1.4,4.1,2.7,8,3.7,12.2c1.7,6.1,2.4,12.5,2.2,18.9c0,1.2-0.2,2.4-0.2,3.6c0,1,0.5,1.4,1.4,1.2c0.4-0.1,0.9-0.4,1.2-0.7
		c5-3.2,9.7-6.8,14.1-10.7c1.6-1.5,3.5-2.8,5.4-3.7c3.1-1.9,7.1-1.9,10.2,0c2.6,1.3,4.4,3.8,4.9,6.6c0.3,1.1,0.5,2.2,0.5,3.4
		c0.1,2.3-0.7,4.6-2.2,6.3c-1.4,2-3.6,3.3-6,3.7c-0.5,0.2-1,0.3-1.7,0.5c-4.6,1.2-10.2-0.9-11.7-6.5c-0.2-0.5-0.2-0.9-0.3-1.4
		c-0.5-1-1-1.2-2-0.5c-1.4,0.9-2.6,1.9-3.9,2.9c-2.9,1.9-5.8,3.7-8.7,5.4c-0.9,0.5-1.5,1.5-1.5,2.6c-0.4,6.2-1.5,12.2-3.1,18.2
		c-2.5,9.4-6.3,18.5-11.2,26.9c-3.8,6.4-8.4,12.4-13.6,17.9c-4.5,4.7-9.4,9.1-14.6,12.9c-5.5,4.1-11.5,7.6-17.9,10.2
		c-4.1,1.7-8.2,3.2-12.4,4.6c-4.3,1.2-8.8,2-13.3,2.9c-5,0.9-10.1,1.3-15.1,1c-4.8-0.2-9.5-0.2-14.3-0.3c-2-0.1-4-0.4-6-0.9
		c-5.2-0.9-10.3-2-15.3-3.4c-1.4-0.5-2.7-0.9-4.3-1.4c-1.1-0.4-2.4,0-3.1,1c-3.4,4.1-7,7.8-11.7,10.5c-5.1,2.9-10.4,4.8-16.2,3.7
		c-4.9-0.9-8.8-3.1-10.7-8c-1.4-3.1-1.5-6.6-0.2-9.7c1.3-3,3.8-5.4,6.8-6.6c4-2,8.5-2.9,12.9-2.7c3.6,0.2,7.3,0.2,10.9,0.3
		c0.7,0,1.4,0.1,2,0.3c1.2,0.2,1.9,0,2.4-1.2c0.8-1.7,1.7-3.4,2.4-5.1c1.5-3.4,2.9-6.6,4.4-10c1.9-4.4,3.7-8.7,5.4-13.1
		c1.2-2.7,2-5.4,3.2-8.2c0.5-1.5,0.3-2-1.2-2.4c-3.1-0.9-6.1-1.7-9-2.7c-6.9-2.2-13.5-5.3-19.6-9.2c-5.6-3.6-10.8-7.8-15.5-12.6
		s-8.7-10.2-11.9-16.2c-4.9-9.2-7.8-18.9-7.8-29.3c0-3.9,0-7.8,0.2-11.6c0.3-5.9,1.7-11.6,4.1-17c2.4-6.1,5.7-11.8,9.9-16.8
		c1.7-2.1,3.6-4.1,5.6-6c3.8-4,8.1-7.5,12.9-10.2c4.4-2.7,9-5.1,13.8-7c5.9-2.3,12-4.1,18.2-5.4c3.7-0.9,7.7-1.2,11.6-1.7
		C141.7,113,145.1,113,149.4,112.6z M154.8,121.1c-3.1,0-6.1,0.2-9.2,0.7c-4.4,0.7-8.8,1.4-13.1,2.4c-3.7,0.9-7.2,2.1-10.7,3.6
		c-5.5,2.4-10.8,5.6-15.5,9.4c-7,5.7-12.7,12.9-16.5,21.1c-1.9,3.9-3.3,8.1-4.1,12.4c-0.8,3.6-1.4,7.2-1.7,10.9
		c-0.7,9.1,0.1,18.2,2.4,27c1.1,4.5,2.7,8.7,4.9,12.8c4.4,7.8,9.9,14.8,17.3,20.1c5.8,4,12.1,7.3,18.7,9.9c0.5,0.2,1,0.3,1.7,0.5
		c1.4,0.3,1.7,0,2.2-1.4c0.9-2.4,1.7-4.6,2.6-7c1.4-3.7,2.9-7.7,4.3-11.4c1.7-4.6,3.4-9,5.1-13.4c1.4-3.2,2.9-6.6,4.3-9.9
		c2-4.4,3.9-8.8,6.1-13.1c3.1-5.6,6.1-11.4,9.5-16.8c4.2-6.8,9.2-13.1,14.8-18.7c3.3-3.4,6.9-6.3,10.9-8.8c3.6-2.4,7.5-4.2,11.6-5.4
		c3.2-1.1,6.6-1.8,10-1.9h1c0.7-0.2,0.9-0.7,0.5-1.2c-0.2-0.3-0.5-0.6-0.9-0.7c-0.7-0.5-1.5-1.2-2.2-1.7c-3.2-2.2-6.3-4.6-9.7-6.6
		c-3.5-1.9-7-3.6-10.7-5.1c-5.7-2.5-11.7-4.3-17.9-5.3C164.9,122.3,159.4,121.8,154.8,121.1z M236.1,204.6
		c0.5-5.3-0.5-11.2-1.5-17.2c-1.1-8.2-3.5-16.2-7-23.6c-2.5-5.5-5.7-10.7-9.7-15.3c-1-1.2-2.6-1.7-4.1-1.2
		c-3.7,0.9-7.2,2.3-10.4,4.3c-4,2.3-7.7,5.2-10.7,8.7c-3.9,4.4-7.4,9-10.5,13.9c-3.3,5.3-6.2,10.8-8.7,16.5
		c-3.2,7.1-6.1,14.6-8.7,22.1c-2.7,8-5.4,15.8-8.2,23.8c-1.7,4.6-3.4,9.2-5.1,13.6c-0.5,1.4-1.2,2.7-1.9,4.3c-0.5,1.2-0.3,1.5,1,1.7
		c1.6,0.2,3.3,0.3,4.9,0.2c2.6-0.2,5.1-0.3,7.5-0.7c4.6-0.7,9.4-1.4,13.9-2.4c4.3-0.9,8.5-2.2,12.6-3.4c3.2-1,6.5-1.9,9.7-3.2
		c5.3-2,10.4-4.4,15.6-6.6c6.1-2.7,11.6-6.3,17.4-9.7c1.2-0.7,1.9-1.9,1.9-3.2c0-0.9,0.2-1.5,0.2-2.4
		C235.6,218.1,236.2,211.4,236.1,204.6L236.1,204.6z M231.9,238.1l-0.3-0.3c-0.3,0.2-0.9,0.2-1.2,0.3c-2,1.2-3.9,2.2-5.8,3.4
		c-5.6,3.4-11.4,6.4-17.4,9c-5.8,2.7-11.7,4.8-17.9,6.5c-3.1,0.7-6.1,1.5-9.2,2.2c-4.5,0.9-9,1.5-13.6,1.9
		c-3.6,0.3-7.1,0.7-10.9,0.9c-2.4,0.2-4.9,0.2-7.3,0c-1.1-0.1-2.2,0.5-2.6,1.5c-0.5,0.9-0.9,1.9-1.2,2.9
		c-3.1,6.7-6.7,13.1-10.7,19.2c-3.6,5.4-7.5,10.7-11.2,16.2c-0.7,0.9-0.5,1.4,0.5,1.5c3.4,0.9,7,1.7,10.4,2.2
		c6.8,0.9,13.6,0.9,20.4,0c5.9-0.6,11.6-1.9,17.2-3.9c5.8-2,11.4-4.6,16.7-7.7c6.9-4.1,13.4-8.9,19.2-14.5c5.9-5.6,11-12,15.1-19.1
		c3.6-6,6.4-12.5,8.3-19.2C231.2,240.3,231.6,239.2,231.9,238.1L231.9,238.1z M92.9,317.9c1.7-0.3,3.3-0.9,4.8-1.9
		c3.3-2.2,6-5.1,8-8.5c0.5-0.9,0.3-1.5-0.5-1.9c-0.3-0.1-0.7-0.2-1-0.2c-2.6-0.5-5.2-0.7-7.8-0.3c-3.2,0.2-6.2,1.7-8.2,4.3
		c-1.5,1.8-1.5,4.5,0,6.3C89.2,317.2,90.7,317.9,92.9,317.9z"/>
	<path id="Path_7598" class="st1" d="M389.9,216c0,3-0.3,5.9-0.9,8.8c-0.2,0.5-0.3,1-0.3,1.5c-0.9,5.8-3.1,10.9-5.4,16.2
		c-2.2,4.9-5.3,9.5-8.2,14.1c-3.4,5.2-7.2,10.2-11.4,14.8c-5,5.7-10.3,11-16,16c-5.6,4.8-11.9,8.6-18.7,11.4
		c-3.6,1.4-7.1,2.9-10.7,4.1c-4.3,1.4-8.8,2.6-13.4,2.4c-2.4,0-4.8-0.5-7-1.5c-1.9-1-3.4-2.6-4.1-4.6c-1.1-3-1.4-6.3-0.9-9.5
		c0.5-3.3,1.4-6.6,2.7-9.7c1.7-4.3,3.4-8.3,5.3-12.4c3.1-6.8,6.3-13.4,9.2-20.1c1.1-2.9,2-5.9,2.6-9c0.1-0.9,0.1-1.7-0.2-2.6
		c0-0.4-0.1-0.8-0.3-1.2c-0.7-2-0.3-2.9,1.5-4.1c3.7-2.3,8-3.2,12.2-2.6c2.9,0.1,5.6,1.9,6.8,4.6c1.2,2.8,1.6,5.8,1.2,8.8
		c-0.7,4.4-1.9,8.7-3.6,12.8c-2.4,5.3-4.8,10.5-7.3,15.6c-1.9,4-3.5,8.2-4.9,12.4c-0.4,1.4-0.8,2.8-1,4.3c-0.5,2.4,0.7,4.8,2.9,5.8
		c0.6,0.3,1.3,0.4,1.9,0.2c4.9-1.3,9.6-3.5,13.8-6.5c3.9-2.6,7.5-5.7,10.7-9c2.6-2.6,5.1-5.3,7.3-8.2c2.6-3.2,4.9-6.6,7.3-10
		c2.6-4.1,4.9-8.3,6.8-12.8c1.6-3.4,2.9-7,3.9-10.7c1.9-7.1,2.9-14.3,1.4-21.6c-1.7-8.3-6.3-14.6-14.1-18.4
		c-2.7-1.4-5.7-2.4-8.7-2.9c-2.7-0.5-5.4-0.2-8,0.7c-1.5,0.7-1.5,0.8-0.5,2c3.9,4.6,4.3,11.1-1.5,15c-3,2-6.9,2.2-10,0.5
		c-4-1.8-6.1-6.1-5.3-10.4c0.6-5.7,3.8-10.7,8.7-13.6c1.5-1,3-1.8,4.6-2.6c4.9-2.1,10.3-2.8,15.6-2.2c1.7,0.2,3.4,0.3,4.9,0.5
		c2.8,0.3,5.5,1,8,2.2c1.9,0.8,3.6,1.7,5.4,2.6c7.8,4.1,13.1,10.5,16.3,18.7c0.6,1.6,1,3.3,1.2,4.9
		C389.6,212.6,389.7,214.4,389.9,216z"/>
	<path id="Path_7599" class="st1" d="M432.1,286.1c-0.2-3.5,0.4-7,1.9-10.2c1.7-4.4,6.6-6.7,11.1-5.3c2.4,0.7,4.2,2.7,4.6,5.1
		c0.9,3.4,0.3,7.1-1.7,10c-2.8,4.3-6.4,8-10.7,10.7c-1.9,1.1-4,1.9-6.1,2.4c-1.4,0.2-2.7,0.7-4.1,0.9c-4.7,0.8-9.4-0.5-13.1-3.4
		c-1.4-1-2.7-2.2-3.7-3.6c-0.5-0.9-1-0.7-1.7,0c-1.9,2.6-4.5,4.6-7.5,5.8c-2.6,1.2-5.3,2.2-8,3.1c-6.4,1.9-13.1,1.7-19.4-0.5
		c-6.9-2.6-11.2-9.4-10.5-16.7c0.8-8.5,5-16.2,11.6-21.6c6.3-5.2,13.4-9.4,21.1-12.4c4.6-1.9,9.4-3.6,14.5-3.7
		c0.3,0,0.9-0.2,1.2-0.2c2.2-0.6,4.4-0.9,6.6-0.9c1.9,0,2.4-0.5,2.6-2.2c0.3-2.7-0.3-5.4-1.9-7.7c-1.4-1.8-3.5-3-5.8-3.2
		c-3.7-0.5-7.5-0.3-11.1,0.7c-2.7,0.9-5.3,1.5-8,2.4c-0.9,0.2-1.8,0.3-2.7,0.3c-0.6,0.1-1.3-0.3-1.5-0.9c-0.3-0.7,0-1.2,0.5-1.7
		c2.3-2.7,5.3-4.8,8.7-6c6.5-2.4,13.5-3.4,20.4-3.1c3.6,0,7.2,0.7,10.5,2c3.1,1.2,5.7,3.6,7,6.6c1.7,4.2,2.3,8.9,1.7,13.4
		c-0.5,4.6-1.4,9.2-2.9,13.6c-1.4,3.9-2.9,7.8-4.1,11.9c-1.2,3.9-2.7,7.7-3.4,11.6c-0.5,2.9-0.1,6,1.2,8.7c0.3,0.5,0.5,1.4,1.2,1.2
		c0.6-0.3,1-0.9,1.2-1.5c0.3-1.1,0.4-2.1,0.3-3.2C432.1,287.8,432.1,287,432.1,286.1z M396,294.1c0.9,0.1,1.7-0.1,2.6-0.3
		c3.5-1.2,6.6-3.4,8.8-6.3c0.6-0.6,0.8-1.4,0.5-2.2c-0.5-1.6-0.7-3.4-0.3-5.1c0.8-5,2.1-9.8,4.1-14.5c1.7-3.7,3.7-7.5,5.6-11.1
		c0.7-1.5,1.5-3.1,2.2-4.4c0.2-0.3,0.3-0.9,0.2-1c-0.4-0.2-0.8-0.3-1.2-0.3c-0.5,0-0.9,0.1-1.4,0.3c-0.9,0.2-1.8,0.5-2.7,0.9
		c-5.8,1.7-11.4,4-16.7,7c-3.3,2-6.2,4.5-8.7,7.5c-3.3,3.5-5.3,8.1-5.6,12.9c-0.3,4.9,1,9.4,4.6,12.8
		C390.3,292.2,392.6,294.3,396,294.1L396,294.1z"/>
	<path id="Path_7600" class="st1" d="M291.6,239.2c-0.2,3.6-0.9,7.1-2,10.5c-1.4,3.9-3.1,7.7-4.8,11.4c-2,4.3-4.1,8.7-6,12.9
		c-1.4,2.9-2.5,5.8-3.4,8.8c-0.6,2.3-0.7,4.8-0.3,7.1c0.5,1.9,2.3,3.1,4.3,2.9c3.2-0.7,6.5-1.9,8.7-4.6c0.3-0.3,0.7-0.9,1-1.2
		c0.2-0.2,0.9-0.2,1-0.2c0.2,0.3,0.2,0.7,0.3,1c0,0.2-0.2,0.3-0.3,0.5c-2.2,3.3-4.9,6.1-8,8.5c-3.1,2.3-6.4,4.2-10,5.6
		c-4.4,1.7-9,2.7-13.8,1.7c-3.4-0.5-6.1-3-7-6.3c-0.8-2.6-0.9-5.3-0.5-8c0.7-5.4,2.3-10.6,4.6-15.5c2.9-6.5,6-12.8,9-19.2
		c2.2-4.8,4.4-9.5,5.6-14.6c0.6-2.3,0.6-4.8-0.2-7.1c-0.5-0.8-0.3-1.8,0.4-2.3c0.1-0.1,0.3-0.2,0.4-0.2c1-0.7,2.1-1.3,3.2-1.9
		c3.4-1.6,7.2-2.1,10.9-1.5c1.8,0.2,3.4,1.2,4.4,2.7c1.7,2.1,2.6,4.8,2.6,7.5C291.7,238.2,291.6,238.7,291.6,239.2z"/>
	<path id="Path_7601" class="st1" d="M224.9,342.6c1.7-0.3,2.7,0.5,3.6,2c4.1,7.3,8.2,14.8,12.2,22.1c3.7,6.8,7.7,13.6,11.4,20.2
		c0.7,1,1,2.2,1.7,3.4c0.2,0.5,0.5,1,1,1c0.7,0,0.7-0.5,0.9-1.2l2.6-9.7c1-3.7,1.9-7.5,2.9-11.1c0.5-2,1.2-4.1,1.7-6.3
		c1-3.6,1.9-7,2.7-10.5c0.9-2.9,1.5-5.8,2.4-8.7c0.2-1.2,1.4-2,2.6-1.7h0.1c1,0.2,1.4,0.7,1.2,1.7c-0.2,0.7-0.3,1.2-0.5,1.9
		c-1,3.9-2,7.8-3.1,11.9c-1,3.6-1.9,7.3-2.7,11.1c-1.4,5.1-2.7,10.4-4.1,15.5c-1,4.1-2,8-3.1,12.1c-0.2,0.9-0.9,1.7-1.9,1.9
		c-1.7,0.4-3.5-0.3-4.6-1.7c-0.5-0.7-1-1.4-1.4-2.2l-7.7-13.8c-1.9-3.6-3.7-7-5.8-10.5c-2-3.7-4.3-7.3-6.3-11.1
		c-1.2-2.2-2.6-4.4-3.7-6.6c-0.5-0.9-0.7-1.7-1.2-2.4c-0.2-0.3-0.7-0.5-1-0.7c-0.2,0-0.5,0.5-0.5,0.9c-0.9,3.1-1.5,6-2.2,9
		c-1.2,4.4-2.4,8.8-3.4,13.3c-1.4,5.1-2.6,10-3.9,15.1l-2.6,9.2c-0.3,1.3-1.7,2.1-3,1.7h-0.1c-1-0.3-1.4-0.9-1-1.9
		c0.3-1.4,0.8-2.7,1.2-4.1c0.7-2.2,1.4-4.6,1.9-6.8c1.7-6.8,3.6-13.4,5.3-20.2l5.1-19.4c0.1-0.3,0.2-0.7,0.2-1
		c0.3-1.9,0.7-2,2.6-2.2C224.4,342.6,224.6,342.6,224.9,342.6z"/>
	<path id="Path_7602" class="st1" d="M356.4,399.1h-4.6c-3.8,0-7.6-1.1-10.9-3.1c-4.1-2.6-5.6-6.5-5.4-11.1c0.1-1.6,0.4-3.1,0.9-4.6
		c0.4-1.2,1.6-1.8,2.8-1.4c0.2,0.1,0.3,0.1,0.5,0.2c0.7,0.3,0.7,1,0.5,1.7c-0.2,1.2-0.3,2.4-0.3,3.6c-0.3,4.8,2.4,8.3,7,9.9
		c4.8,1.5,10,1.9,15,1.2c4.6-0.7,9-2,12.6-4.9c3-2.4,4.7-6,4.8-9.9c0.1-1.8-0.7-3.5-2.2-4.6c-0.8-0.7-1.7-1.3-2.7-1.7
		c-2-0.7-4.1-1.2-6.1-1.7c-4.8-1.2-9.7-2.2-14.5-3.4c-2.2-0.6-4.2-1.5-6.1-2.7c-2.2-1.2-3.5-3.5-3.4-6c-0.1-3.4,0.8-6.7,2.6-9.5
		c1.1-1.7,2.5-3.1,4.1-4.3c1.7-1.5,3.7-2.6,6-3.2c0.9-0.2,1.7-0.7,2.7-0.9c6.5-1.9,12.9-1.5,19.4-0.2c4,0.6,7.4,3.1,9.4,6.6
		c0.5,0.9,0.8,2,0.9,3.1c0,1.6,0,3.3-0.2,4.9c0.1,0.7-0.4,1.4-1.2,1.5l0,0c-1,0.2-2,0.3-2.7-0.5c-0.3-0.6-0.4-1.3-0.2-1.9
		c0.2-1.2,0.1-2.5-0.2-3.7c-0.5-2.3-2-4.2-4.1-5.3c-1-0.6-2.1-1.1-3.2-1.4c-4.5-1.3-9.2-1.4-13.8-0.3c-2.1,0.2-4.1,0.7-6,1.5
		c-3.1,1.4-5.6,3.2-7,6.1c-1,2-1.6,4.2-1.7,6.5c-0.1,1.7,0.9,3.3,2.4,4.1c1.6,0.9,3.3,1.6,5.1,2.2c1.4,0.5,2.9,0.9,4.4,1.2
		c4.4,0.9,8.8,1.7,13.3,2.7c3.7,1,7.3,2.6,9.4,6.3c0.4,0.7,0.6,1.4,0.7,2.2c0.7,3.9-0.7,7.3-2.6,10.4c-2.3,3.9-5.9,6.8-10.2,8.2
		C366.1,398.5,361.3,399.6,356.4,399.1z"/>
	<path id="Path_7603" class="st1" d="M416.6,399.4c-3.4,0-6.9-0.4-10.2-1.2c-1.3-0.4-2.6-0.8-3.9-1.4c-3.2-1.4-5.5-4.2-6.3-7.6
		c-0.6-2.6-0.6-5.4,0.2-8c0.3-1.2,2.6-2,3.4-1.2c0.4,0.4,0.6,1,0.3,1.5c-0.2,1.4-0.2,2.6-0.3,3.9c-0.2,3.4,1.7,5.8,4.4,7.7
		c2.3,1.5,4.9,2.3,7.7,2.6c0.7,0,1.5,0,2.2,0.2c3.2,0.7,6.3,0.2,9.4-0.3c2.4-0.4,4.7-1.1,6.8-2.2c4.6-2.4,8-5.8,8.8-11.2
		c0.5-3.4-0.5-5.6-4.1-7.1c-3.7-1.7-7.8-2.4-11.7-3.2c-4.2-0.7-8.3-1.8-12.2-3.2c-1.2-0.5-2.4-1.1-3.6-1.9c-2.1-1.3-3.4-3.6-3.4-6.1
		c0-5.3,2-9.4,6-12.9c2.9-2.5,6.3-4.2,10-5.1c5.9-1.3,12-1.4,17.9-0.2c1.5,0.4,3,0.8,4.4,1.4c4.4,1.8,7,6.2,6.6,10.9
		c0,0.7-0.2,1.5-0.2,2.2c-0.2,1.5-0.9,2-2.4,1.9c-1.4-0.2-1.7-0.7-1.5-2.2c0.2-1.7,0-3.5-0.7-5.1c-1.1-2.7-3.3-4.8-6.1-5.6
		c-5.2-1.7-10.9-1.8-16.2-0.3c-1.6,0.4-3.1,0.8-4.6,1.4c-5.6,2.2-8.3,6.5-8.8,12.4c-0.1,1.7,0.8,3.3,2.2,4.3c1.2,0.8,2.5,1.5,3.9,2
		c2.4,0.8,4.9,1.4,7.5,1.9c4.8,1.2,9.7,1.5,14.1,3.4c1.2,0.5,2.4,1.1,3.6,1.7c3,1.8,4.6,5.2,4.1,8.7c-0.6,6.1-4.3,11.4-9.7,14.3
		C428.7,398.4,422.7,399.4,416.6,399.4z"/>
	<path id="Path_7604" class="st1" d="M297.7,397.7h-21.1c-1-0.2-1.4-0.5-1-1.5c0.9-3.2,1.7-6.3,2.6-9.5c1.4-4.9,2.7-9.9,3.9-15
		c1.9-7.1,3.7-14.5,5.6-21.6c0.5-1.9,1-3.7,1.4-5.6c0.3-1.5,0.9-1.9,2.4-1.9c11.6,0,23.1,0.2,34.5,0.2c1.9,0,3.7,0,5.4-0.2h0.2
		c1.2,0,1.5,0.2,1.7,0.9c0.1,1-0.4,1.9-1.4,2.2c-0.4,0.1-0.9,0.2-1.4,0.2c-11.7,0-23.6,0-35.4-0.2c-1.7,0-2.6,0.5-3.1,2.4
		c-0.3,1.5-0.7,2.9-1,4.4l-3.6,13.3c-0.3,1.4,0,1.9,1.5,2h31.3c1,0,2-0.2,3.1-0.2c1.2,0,1.7,0.3,1.7,1.2c0,1-0.7,1.9-1.7,2
		c-0.9,0-1.5-0.2-2.4-0.2h-31.3c-0.5,0-1,0-1.5-0.2c-1.4,0-2.2,0.3-2.6,1.7c-0.5,1.9-1,3.9-1.5,5.8c-0.5,2.2-1.2,4.3-1.7,6.5
		c-0.5,2-1,4.1-1.5,6.3c-0.2,0.7-0.5,1.4-0.7,2c-0.3,1,0,1.5,1,1.7h35c0.7,0,1.5-0.2,2.2-0.2c1,0,1.5,0.3,1.5,1.2
		c0,0.9-0.5,1.7-1.4,2h-1C311.3,397.7,304.5,397.7,297.7,397.7L297.7,397.7z"/>
	<path id="Path_7605" class="st1" d="M111.6,342.8h16.7c0.7,0,1.5-0.2,2.2-0.2c0.9,0,1.4,0.3,1.4,1.4c0.2,1-0.2,1.7-1,1.9
		c-0.4,0.1-0.8,0.2-1.2,0.2H97.4c-1.7,0-2.2,0.3-2.7,2c-0.3,1.4-0.8,2.7-1.2,4.1c-1.2,4.4-2.4,8.8-3.6,13.4c-0.1,0.3-0.2,0.7-0.2,1
		c0,1,0.3,1.4,1.4,1.4h20.2c3.6,0,7.1-0.2,10.7-0.2c0.5,0,1.2,0,1.5,0.5c0.3,0.6,0.2,1.4-0.3,1.9c-0.5,0.6-1.3,0.9-2,0.9
		c-10.2,0-20.4-0.2-30.4-0.2h-0.5c-1,0-1.8,0.6-2,1.5c-0.7,2.6-1.4,5.1-2,7.8c-0.5,1.7-0.8,3.2-1.4,4.9c-1,3.6-1.9,7.1-2.9,10.5
		c-0.2,0.3-0.2,0.9-0.3,1.2c-0.2,0.7-0.2,1.2-1,1.4c-0.9,0.3-1.8,0.2-2.6-0.3c-0.3-0.4-0.4-0.9-0.3-1.4c0.2-1,0.3-2,0.5-2.9
		c1.7-6.8,3.6-13.6,5.4-20.4c1.5-6,3.2-11.9,4.8-17.9c1-3.7,1.9-7.5,2.9-11.1c0.1-0.9,0.9-1.5,1.8-1.4h0.1
		C99.2,342.8,105.3,342.8,111.6,342.8L111.6,342.8z"/>
	<path id="Path_7606" class="st1" d="M186,342.8h20.4c0.9,0,1.5-0.2,2.4-0.2c1,0,1.5,0.5,1.5,1.4c0,1-0.3,1.7-1.4,1.9
		c-0.4,0.1-0.9,0.1-1.4,0h-18.4c-1-0.2-1.9,0.5-2,1.4v0.1c-0.7,2.2-1.2,4.4-1.9,6.6c-0.7,2.6-1.4,5.1-2,7.8
		c-0.9,3.1-1.5,6.1-2.4,9.4l-4.6,17.3c-0.7,2.7-1.4,5.4-2.2,8c-0.4,1.3-1.7,2-3,1.7c-0.3-0.1-0.6-0.3-0.9-0.5
		c-0.2-0.2-0.3-0.5-0.3-0.9c0-0.2,0.2-0.5,0.2-0.7c1.5-5.3,2.9-10.7,4.4-16c0.9-2.9,1.5-5.8,2.4-8.8c0.5-2,1-4.3,1.5-6.3
		c0.5-2.2,1.2-4.4,1.7-6.6c0.8-3.2,1.9-6.6,2.7-9.9c0-0.3,0.1-0.6,0.2-0.9c0.2-1.2-0.3-1.7-1.5-1.7c-6.1,0-12.1,0-18.2,0.2
		c-0.3,0-0.8,0.2-1,0c-0.3-0.2-0.9-0.7-0.9-1c-0.2-1,0.4-2,1.5-2.2c0.2,0,0.4,0,0.6,0h17.9C182.8,342.8,184.4,342.7,186,342.8
		L186,342.8z"/>
	<path id="Path_7607" class="st1" d="M150.1,344c0,0.2-0.2,0.7-0.2,1c-1.2,4.8-2.6,9.4-3.7,14.1c-1,3.6-2,7.1-2.9,10.7
		c-1.2,4.3-2.2,8.7-3.2,12.9c-1,3.9-2,7.8-3.1,11.9c-0.1,0.7-0.4,1.3-0.7,1.9c-0.3,0.9-1.1,1.6-2,1.7c-1.5,0.2-2.2-0.5-1.9-2
		c0.7-2.4,1.2-4.6,1.9-7c1.4-5.3,2.9-10.5,4.3-16c1-3.7,2-7.7,3.1-11.4c0.5-2,1-4.1,1.5-6.3c0.7-2.6,1.4-4.9,2-7.5
		c0.2-1.3,0.6-2.6,1-3.9c0.2-1.3,1.5-2.2,2.8-1.9c0.1,0,0.2,0,0.2,0.1C149.6,342.8,150.1,343.1,150.1,344z"/>
</g>
</svg>
