<?xml version="1.0" encoding="utf-8"?>
<!-- Generator: Adobe Illustrator 24.2.0, SVG Export Plug-In . SVG Version: 6.00 Build 0)  -->
<svg version="1.1" id="george_getmuv.com" xmlns="http://www.w3.org/2000/svg" xmlns:xlink="http://www.w3.org/1999/xlink" x="0px"
	 y="0px" viewBox="0 0 300 300" style="enable-background:new 0 0 300 300;" xml:space="preserve">
<style type="text/css">
	.st0{fill:#17479D;}
	.st1{fill-rule:evenodd;clip-rule:evenodd;fill:#FFFFFF;}
	.st2{opacity:0.27;}
	.st3{fill-rule:evenodd;clip-rule:evenodd;}
</style>
<g transform="translate(430.452 -68.991)">
	<rect x="-430.5" y="69" class="st0" width="300" height="300"/>
	<g transform="translate(-418.806 87.781)">
		<path class="st1" d="M156.8,114c0,2.6-0.8,5.2-2.4,7.3h5V84.8h-16v14.9C152.1,102.2,156.8,107.5,156.8,114z"/>
		<path class="st1" d="M129.2,98.4c3.2,0.1,6.4,0.6,9.5,1.4c-6.3-0.9-12.8,0.4-18.2,3.7v17.8h16V101c2.7,0.5,5.3,1.5,7.7,2.9v17.3
			h3.5c-3.9,3.8-9.3,5.5-14.7,4.8v0.7c15.2,1.1,21.7-5.7,21.7-13.3c0-9-9-14.3-18.1-15.4V84.8h-16v13.5c-10.4,2-20.5,7.8-20.5,17.4
			c0,14.8,21.9,24,41,24c29,0,51.3-13.2,51.3-31.8c0-22.5-32.2-38.6-57.5-38.6c-29,0-50.3,17.4-50.3,36c0.5,9.4,5.2,18,12.9,23.3
			l0.5-0.3c-6.7-4.9-10.8-12.7-10.9-21.1c1.5-20.3,28-31.8,51.7-31.8c16.7,0,46.7,3.6,46.7,30c0,13.8-15.6,31.7-48.3,31.7
			c-16.7,0-29.7-8.5-29.7-20.7C107.4,105.9,116.1,98.4,129.2,98.4L129.2,98.4z"/>
		<path class="st1" d="M67.2,192.7v-2.1h5.6v-18h-15v18h5.7v2.1H43v-2.1h5.3V154H43v-2.1h20.6v2.1h-5.7v16.2h15V154h-5.6v-2.1h20.4
			v2.1h-5.2v36.6h5.2v2.1L67.2,192.7z"/>
		<path class="st1" d="M95.6,151.9h9.4v4.8h-9.4V151.9z M91,192.7v-2.1h5v-25.1h-5v-2.1h14.3v27.2h4.7v2.1L91,192.7z"/>
		<path class="st1" d="M112,192.7v-2.1h5.2v-42H112v-2.1h14.5v44.1h4.9v2.1L112,192.7L112,192.7z"/>
		<path class="st1" d="M146,192.7c-5.1,0-7.9-2.5-7.9-6.3v-20.9h-5v-2.1h5v-11.6c2.8,0,5.8,0.1,8.7,0v11.6h7.2v2.1h-7.2v25.1h7.4
			v2.1L146,192.7z"/>
		<path class="st1" d="M189.4,183.9c-2.9,6.2-9.3,10-16.2,9.5c-11.9,0-18-7.7-18-15.6c0-10.9,10.2-15.4,17.8-15.4
			c8.8-0.5,16.5,6.1,17.3,14.9C190.5,179.6,190.2,181.8,189.4,183.9L189.4,183.9z M179.2,168.1c-1.1-2.4-3.6-3.9-6.3-3.7
			c-7.3,0-7.5,7.1-7.5,13.3c0,8.3,0.8,9.8,1.3,10.8c1.3,2.1,3.7,3.4,6.2,3.2c7.3,0,7.3-7.4,7.2-14.3
			C180.2,170,179.7,169,179.2,168.1L179.2,168.1z"/>
		<path class="st1" d="M215.3,192.7v-2.1h4.1v-17.2c0-3.9,0-7.7-4.5-7.7c-3.6,0.4-6.7,2.9-7.7,6.4c-0.3,1.9-0.4,3.8-0.3,5.7v12.9
			h4.7v2.1h-19v-2.1h5v-25.1h-5v-2.1h14.3v4.4c1.5-2,3.5-3.5,5.9-4.4c1.8-0.7,3.7-1.1,5.6-1.1c1.4,0,2.9,0.2,4.3,0.5
			c4.2,0.9,6.9,4.8,6.2,9v18.6h4.9v2.1L215.3,192.7z"/>
		<path class="st1" d="M184.1,133h-1.5v-0.5h3.7v0.5h-1.5v5.2h-0.7V133L184.1,133z M190.6,137.1L190.6,137.1l1.9-4.7h1v5.7h-0.7
			v-4.3l0,0l-1.8,4.3h-0.7l-1.8-4.3l0,0v4.3h-0.7v-5.7h1L190.6,137.1L190.6,137.1z"/>
	</g>
</g>
<g id="XMLID_1_" class="st2">
	<path class="st3" d="M290,282.2c0,0,0,0.1,0,0.1c0,0.9-0.5,1.5-1.4,1.8c-0.3,0.1-0.6,0.1-0.9,0.1c-0.1,0-0.1,0-0.2,0.1
		c-0.6,0.3-1.2,0.5-1.9,0.5c-0.8,0-1.6-0.1-2.4-0.3c-0.5-0.1-0.9-0.3-1.4-0.5c-0.2-0.1-0.4-0.1-0.7-0.2c-0.3,0-0.5,0.1-0.7,0.3
		c-0.4,0.4-0.4,1-0.2,1.5c0,0.1,0.1,0,0.1,0.1c0.2,0.1,0.4,0.2,0.4,0.4c0,0.1,0,0.2-0.1,0.2c-0.1,0.1-0.2,0-0.2-0.1
		c-0.1-0.1-0.2-0.2-0.3-0.4c0-0.1-0.1-0.1-0.2-0.1c-0.2,0.1-0.4,0.2-0.6,0.3c-0.2,0.2-0.4,0.4-0.6,0.5c0,0-0.1,0.1-0.1,0.1
		c-0.3,0.7-0.6,1.5-1.1,2.1c-0.2,0.3-0.4,0.5-0.6,0.8c-0.1,0.1-0.2,0.2-0.4,0.3c-0.1,0-0.2,0-0.3,0c-0.1-0.1-0.1-0.2-0.1-0.3
		c0-0.1,0-0.1,0.1-0.2c0.4-0.6,0.8-1.1,1.2-1.7c0.3-0.4,0.6-0.7,0.9-1.1c0.1-0.1,0.2-0.3,0.2-0.5c0.2-0.4,0.3-0.8,0.3-1.2
		c0-0.2,0-0.4-0.1-0.5c-0.2-0.4-0.5-0.6-0.9-0.5c-0.2,0-0.4,0.1-0.5,0.1c-0.6,0-1-0.2-1.4-0.7c-0.1-0.1-0.1-0.1-0.1-0.2
		c-0.1-0.1-0.1-0.2-0.3-0.2c-0.2,0-0.3-0.1-0.3-0.3c0-0.1,0-0.2,0.1-0.2c0.1,0,0.2-0.1,0.2-0.1c0.1,0,0.2-0.1,0.3-0.1
		c0.1-0.1,0.2-0.1,0.3,0c0.1,0,0.3,0,0.4,0c0.2,0,0.2,0,0.2,0.2c0,0.2-0.2,0.3-0.4,0.4c-0.1,0-0.1,0,0,0.1c0.1,0.2,0.3,0.2,0.4,0.2
		c0.3,0,0.5-0.1,0.7-0.2c0.3-0.2,0.5-0.5,0.8-0.7c0.1-0.1,0.2-0.2,0.4-0.3c0.4-0.3,0.9-0.4,1.4-0.4c0.7,0,1.4,0.3,2,0.6
		c1.3,0.7,2.7,1.3,4.1,1.7c0.3,0.1,0.6,0.2,1,0.2c0.1,0,0.2,0,0.2-0.1c0.6-0.4,1.2-0.9,1.7-1.4c0.2-0.2,0.3-0.3,0.5-0.5
		c0,0,0.1-0.1,0.1-0.1C290,282.1,290,282.1,290,282.2z M287.9,284.1c1.2-0.1,2-0.8,2-1.8C289.2,282.9,288.6,283.6,287.9,284.1z
		 M287.3,284.2c-0.1,0-0.2,0-0.3,0c-0.6-0.1-1.2-0.4-1.8-0.6c-1.1-0.4-2.2-0.9-3.2-1.5c-0.5-0.2-1-0.4-1.6-0.4
		c-0.6,0-1.1,0.1-1.5,0.5c-0.2,0.2-0.4,0.3-0.5,0.5c-0.2,0.2-0.4,0.4-0.7,0.5c-0.3,0.2-0.6,0.2-0.9,0c-0.1-0.1-0.2-0.1-0.3-0.3
		c-0.1-0.2,0-0.2,0.2-0.2c0.2,0,0.2-0.1,0.3-0.3c-0.2,0.1-0.3,0.1-0.5,0c0,0-0.1,0-0.1,0c-0.2,0.1-0.4,0.2-0.5,0.2
		c0,0-0.1,0-0.1,0.1c0,0.1,0,0.1,0.1,0.1c0,0,0.1,0,0.1,0c0.2,0,0.3,0.1,0.3,0.2c0,0.1,0.1,0.1,0.1,0.2c0.3,0.4,0.7,0.6,1.2,0.6
		c0.2,0,0.4-0.1,0.6-0.1c0.6-0.1,1,0.1,1.2,0.7c0.1,0.3,0.1,0.6,0,0.9c-0.1,0.3-0.1,0.5-0.2,0.8c0.1-0.1,0.1-0.1,0.2-0.2
		c0.2-0.2,0.4-0.4,0.7-0.4c0.1,0,0.1-0.1,0.1-0.1c-0.1-0.4-0.2-0.8,0-1.2c0.2-0.5,0.6-0.8,1.1-0.7c0.2,0,0.5,0.1,0.7,0.2
		c0.8,0.3,1.7,0.6,2.5,0.7c0.8,0.1,1.5,0.1,2.2-0.2C286.9,284.4,287.1,284.3,287.3,284.2z M280.7,286.2c0-0.2-0.1-0.3-0.3-0.3
		C280.5,286,280.6,286.2,280.7,286.2z M278.6,287.2C278.5,287.2,278.5,287.3,278.6,287.2c-0.6,0.7-1.1,1.4-1.6,2.2
		c-0.1,0.1-0.1,0.2-0.2,0.3c0,0,0,0.1,0,0.1c0,0,0.1,0,0.1,0c0.1,0,0.2-0.1,0.3-0.2c0.4-0.5,0.7-1,1-1.6
		C278.3,287.8,278.5,287.5,278.6,287.2z"/>
</g>
</svg>
