<svg width="111" height="29" viewBox="0 0 111 29" fill="none" xmlns="http://www.w3.org/2000/svg">
<path d="M1.17269 4.57788C0.936484 4.83221 0.796875 5.22693 0.796875 5.73808V24.0007C0.796875 24.5127 0.936484 24.9066 1.17269 25.1609L1.23276 25.2204L11.2888 14.99V14.8694V14.7488L1.23276 4.5176L1.17269 4.57788Z" fill="url(#paint0_linear_8197_112044)"/>
<path d="M14.6396 18.4012L11.2888 14.99V14.8694V14.7488L14.6404 11.3384L14.7159 11.3822L18.6875 13.6778C19.8215 14.3335 19.8215 15.4062 18.6875 16.0627L14.7159 18.3583L14.6396 18.4012Z" fill="url(#paint1_linear_8197_112044)"/>
<path d="M14.7171 18.3575L11.2888 14.8694L1.17269 25.1609C1.54607 25.5639 2.16424 25.6135 2.85986 25.2122L14.7171 18.3575Z" fill="url(#paint2_linear_8197_112044)"/>
<path d="M14.7171 11.3814L2.85986 4.52752C2.16424 4.12537 1.54607 4.1749 1.17269 4.57788L11.2888 14.8694L14.7171 11.3814Z" fill="url(#paint3_linear_8197_112044)"/>
<path d="M38.3487 4.22654C38.3487 5.08571 38.0904 5.77382 37.5816 6.287C36.9966 6.89536 36.2347 7.20147 35.301 7.20147C34.4087 7.20147 33.6468 6.89022 33.0217 6.27671C32.3954 5.6542 32.0829 4.89021 32.0829 3.97574C32.0829 3.06126 32.3954 2.29727 33.0217 1.67991C33.6468 1.06126 34.4087 0.75 35.301 0.75C35.7453 0.75 36.1689 0.841319 36.5731 1.01109C36.976 1.18216 37.304 1.41367 37.5416 1.6992L37.0018 2.24197C36.5873 1.75451 36.0229 1.51399 35.301 1.51399C34.6502 1.51399 34.0858 1.74036 33.6067 2.19695C33.1328 2.65483 32.8952 3.24776 32.8952 3.97574C32.8952 4.70371 33.1328 5.30179 33.6067 5.75967C34.0858 6.21111 34.6502 6.44263 35.301 6.44263C35.9919 6.44263 36.5731 6.21111 37.0315 5.75452C37.3337 5.45227 37.5054 5.03555 37.5506 4.50307H35.301V3.75966H38.3022C38.3384 3.92043 38.3487 4.07606 38.3487 4.22654Z" fill="white"/>
<path d="M43.11 1.64941H40.2909V3.6044H42.8324V4.34781H40.2909V6.3028H43.11V7.06036H39.4928V0.891848H43.11V1.64941Z" fill="white"/>
<path d="M46.4706 7.06036H45.6725V1.64941H43.9433V0.891848H48.201V1.64941H46.4706V7.06036Z" fill="white"/>
<path d="M51.2825 7.06036V0.891848H52.0789V7.06036H51.2825Z" fill="white"/>
<path d="M55.6112 7.06036H54.8196V1.64941H53.0839V0.891848H57.3468V1.64941H55.6112V7.06036Z" fill="white"/>
<path d="M65.4077 6.26642C64.7968 6.89022 64.0401 7.20147 63.1374 7.20147C62.2295 7.20147 61.4728 6.89022 60.862 6.26642C60.2524 5.64391 59.949 4.87992 59.949 3.97574C59.949 3.07155 60.2524 2.30756 60.862 1.68505C61.4728 1.06126 62.2295 0.75 63.1374 0.75C64.0349 0.75 64.7917 1.06126 65.4025 1.6902C66.0172 2.31785 66.3207 3.0767 66.3207 3.97574C66.3207 4.87992 66.0172 5.64391 65.4077 6.26642ZM61.4521 5.74938C61.9119 6.21111 62.471 6.44263 63.1374 6.44263C63.7986 6.44263 64.3629 6.21111 64.8175 5.74938C65.2759 5.28764 65.5084 4.69471 65.5084 3.97574C65.5084 3.25676 65.2759 2.66383 64.8175 2.2021C64.3629 1.74036 63.7986 1.50885 63.1374 1.50885C62.471 1.50885 61.9119 1.74036 61.4521 2.2021C60.9937 2.66383 60.7612 3.25676 60.7612 3.97574C60.7612 4.69471 60.9937 5.28764 61.4521 5.74938Z" fill="white"/>
<path d="M67.4407 7.06036V0.891848H68.4093L71.4208 5.68929H71.4557L71.4208 4.50344V0.891848H72.2176V7.06036H71.3859L68.2324 2.02626H68.1975L68.2324 3.21726V7.06036H67.4407Z" fill="white"/>
<path d="M57.0196 17.3066C54.8299 17.3066 53.0412 18.9662 53.0412 21.2561C53.0412 23.5273 54.8299 25.2044 57.0196 25.2044C59.2139 25.2044 61.0026 23.5273 61.0026 21.2561C61.0026 18.9662 59.2139 17.3066 57.0196 17.3066ZM57.0196 23.6492C55.8181 23.6492 54.7845 22.6615 54.7845 21.2561C54.7845 19.832 55.8181 18.8618 57.0196 18.8618C58.221 18.8618 59.2593 19.832 59.2593 21.2561C59.2593 22.6615 58.221 23.6492 57.0196 23.6492ZM48.3391 17.3066C46.1448 17.3066 44.3607 18.9662 44.3607 21.2561C44.3607 23.5273 46.1448 25.2044 48.3391 25.2044C50.5322 25.2044 52.3175 23.5273 52.3175 21.2561C52.3175 18.9662 50.5322 17.3066 48.3391 17.3066ZM48.3391 23.6492C47.1365 23.6492 46.0993 22.6615 46.0993 21.2561C46.0993 19.832 47.1365 18.8618 48.3391 18.8618C49.5405 18.8618 50.5742 19.832 50.5742 21.2561C50.5742 22.6615 49.5405 23.6492 48.3391 23.6492ZM38.0097 18.5171V20.1953H42.0335C41.9158 21.1331 41.6012 21.8224 41.1187 22.3029C40.5314 22.8832 39.6166 23.5273 38.0097 23.5273C35.5333 23.5273 33.5942 21.5369 33.5942 19.0707C33.5942 16.6044 35.5333 14.614 38.0097 14.614C39.3486 14.614 40.3228 15.1351 41.0418 15.8106L42.2293 14.6279C41.2236 13.6716 39.8858 12.937 38.0097 12.937C34.6139 12.937 31.76 15.6887 31.76 19.0707C31.76 22.4526 34.6139 25.2044 38.0097 25.2044C39.845 25.2044 41.2236 24.6055 42.3074 23.4821C43.4179 22.376 43.764 20.8209 43.764 19.5651C43.764 19.1751 43.7314 18.8165 43.6731 18.5171H38.0097ZM80.2479 19.8181C79.9205 18.9349 78.9102 17.3066 76.8522 17.3066C74.8129 17.3066 73.115 18.907 73.115 21.2561C73.115 23.4682 74.7954 25.2044 77.048 25.2044C78.8694 25.2044 79.9205 24.0984 80.3528 23.4542L79.0011 22.5571C78.5501 23.214 77.9359 23.6492 77.048 23.6492C76.1658 23.6492 75.533 23.2465 75.1275 22.4526L80.4309 20.2673L80.2479 19.8181ZM74.8409 21.1331C74.7954 19.6104 76.0283 18.8304 76.9116 18.8304C77.6038 18.8304 78.1912 19.1751 78.3869 19.6684L74.8409 21.1331ZM70.5303 24.9642H72.2736V13.3583H70.5303V24.9642ZM67.6753 18.1863H67.617C67.2255 17.7244 66.4785 17.3066 65.5323 17.3066C63.5465 17.3066 61.731 19.0428 61.731 21.2688C61.731 23.4821 63.5465 25.2044 65.5323 25.2044C66.4785 25.2044 67.2255 24.7831 67.617 24.3073H67.6753V24.8736C67.6753 26.3836 66.8654 27.1948 65.5591 27.1948C64.4939 27.1948 63.8332 26.4288 63.5605 25.7847L62.0444 26.4149C62.4814 27.4617 63.6386 28.75 65.5591 28.75C67.603 28.75 69.3277 27.5523 69.3277 24.638V17.5468H67.6753V18.1863ZM65.6814 23.6492C64.48 23.6492 63.4743 22.6476 63.4743 21.2688C63.4743 19.8773 64.48 18.8618 65.6814 18.8618C66.8654 18.8618 67.7988 19.8773 67.7988 21.2688C67.7988 22.6476 66.8654 23.6492 65.6814 23.6492ZM88.4099 13.3583H84.2403V24.9642H85.979V20.5667H88.4099C90.3408 20.5667 92.2344 19.1751 92.2344 16.9619C92.2344 14.7498 90.3361 13.3583 88.4099 13.3583ZM88.4553 18.9523H85.979V14.9726H88.4553C89.7535 14.9726 90.4946 16.0462 90.4946 16.9619C90.4946 17.8602 89.7535 18.9523 88.4553 18.9523ZM99.2031 17.2845C97.9469 17.2845 96.6405 17.837 96.1033 19.0614L97.6462 19.7055C97.9783 19.0614 98.589 18.8525 99.2346 18.8525C100.137 18.8525 101.051 19.3922 101.065 20.345V20.4669C100.751 20.2858 100.077 20.0177 99.2485 20.0177C97.5868 20.0177 95.8936 20.9288 95.8936 22.6291C95.8936 24.1842 97.2547 25.1858 98.7847 25.1858C99.9547 25.1858 100.6 24.6601 101.006 24.0485H101.065V24.9456H102.745V20.4936C102.745 18.4358 101.202 17.2845 99.2031 17.2845ZM98.9933 23.6446C98.4247 23.6446 97.6322 23.3637 97.6322 22.6615C97.6322 21.7633 98.6204 21.4186 99.4758 21.4186C100.241 21.4186 100.6 21.5868 101.065 21.8085C100.929 22.8832 100 23.6446 98.9933 23.6446ZM108.862 17.5387L106.864 22.5699H106.804L104.738 17.5387H102.863L105.968 24.5696L104.196 28.4819H106.013L110.797 17.5387H108.862ZM93.19 24.9642H94.9333V13.3583H93.19V24.9642Z" fill="white"/>
<defs>
<linearGradient id="paint0_linear_8197_112044" x1="101.451" y1="2.13933" x2="96.615" y2="38.9899" gradientUnits="userSpaceOnUse">
<stop stop-color="#00A0FF"/>
<stop offset="0.0066" stop-color="#00A1FF"/>
<stop offset="0.2601" stop-color="#00BEFF"/>
<stop offset="0.5122" stop-color="#00D2FF"/>
<stop offset="0.7604" stop-color="#00DFFF"/>
<stop offset="1" stop-color="#00E3FF"/>
</linearGradient>
<linearGradient id="paint1_linear_8197_112044" x1="119.139" y1="14.7484" x2="-142.728" y2="14.7484" gradientUnits="userSpaceOnUse">
<stop stop-color="#FFE000"/>
<stop offset="0.4087" stop-color="#FFBD00"/>
<stop offset="0.7754" stop-color="#FFA500"/>
<stop offset="1" stop-color="#FF9C00"/>
</linearGradient>
<linearGradient id="paint2_linear_8197_112044" x1="95.6747" y1="5.74423" x2="66.1652" y2="95.0971" gradientUnits="userSpaceOnUse">
<stop stop-color="#FF3A44"/>
<stop offset="1" stop-color="#C31162"/>
</linearGradient>
<linearGradient id="paint3_linear_8197_112044" x1="-19.8939" y1="-14.4117" x2="-6.71779" y2="25.4859" gradientUnits="userSpaceOnUse">
<stop stop-color="#32A071"/>
<stop offset="0.0685" stop-color="#2DA771"/>
<stop offset="0.4762" stop-color="#15CF74"/>
<stop offset="0.8009" stop-color="#06E775"/>
<stop offset="1" stop-color="#00F076"/>
</linearGradient>
</defs>
</svg>
