<svg width="111" height="29" viewBox="0 0 111 29" fill="none" xmlns="http://www.w3.org/2000/svg">
<path fill-rule="evenodd" clip-rule="evenodd" d="M17.8636 0.917969H7.17178C2.13517 0.917969 0.292969 3.0277 0.292969 8.79574V21.0404C0.292969 26.8084 2.13517 28.918 7.17178 28.918H17.8603C22.8969 28.918 24.7423 26.8084 24.7423 21.0404V8.79574C24.7423 3.0277 22.9002 0.917969 17.8636 0.917969Z" fill="#C91C2E"/>
<path d="M10.9633 17.1567H11.9438L11.452 15.8468L10.9633 17.1567ZM10.7219 17.817L10.4311 18.5792H9.76885L11.1771 14.9204H11.7493L13.1519 18.5792H12.4719L12.1847 17.817H10.7219ZM21.3775 18.5766H22.0175V14.9204H21.3775V18.5766ZM18.8304 17.0055H20.0098V16.3392H18.8304V15.5898H20.5426V14.9226H18.1906V18.5788H20.6043V17.9119H18.8304V17.0055ZM16.2874 17.4375L15.5616 14.9202H15.0325L14.3067 17.4375L13.6005 14.922H12.9103L14.0244 18.5808H14.5612L15.288 16.1774L16.0146 18.5808H16.5563L17.6676 14.922H16.9951L16.2874 17.4375ZM8.79197 17.0157C8.79197 17.6109 8.5338 17.9288 8.06515 17.9288C7.59388 17.9288 7.33446 17.6019 7.33446 16.9904V14.9224H6.68591V17.0157C6.68591 18.0454 7.18545 18.6359 8.05636 18.6359C8.93577 18.6359 9.44023 18.0342 9.44023 16.9854V14.9202H8.79197V17.0157ZM5.13845 14.9204H5.78672V18.5811H5.13845V17.0945H3.6738V18.5811H3.02525V14.9204H3.6738V16.3972H5.13845V14.9204Z" fill="white"/>
<path d="M12.518 10.2594C10.274 10.2594 8.4483 8.1685 8.4483 5.59865H9.02322C9.02322 7.80554 10.5908 9.60103 12.518 9.60103C14.4451 9.60103 16.0126 7.80554 16.0126 5.59865H16.5876C16.5876 8.1685 14.7619 10.2594 12.518 10.2594Z" fill="white"/>
<path d="M38.9471 2.09118V1.05078H34.1702V8.65453H38.9471V7.61413H35.1351V5.30091H38.5782V4.26052H35.1351V2.09118H38.9471ZM44.4506 8.65453L42.5871 5.7215L44.3654 2.93235H43.3249L42.0668 4.90246L40.8182 2.93235H39.7587L41.5466 5.73257L39.6831 8.65453H40.7236L42.0668 6.5516L43.4006 8.65453H44.4506ZM48.0895 2.79953C47.3328 2.79953 46.7274 3.22012 46.349 3.91741V2.93235H45.422V10.5582H46.349V7.65841C46.7274 8.36676 47.3328 8.78735 48.0895 8.78735C49.376 8.78735 50.3409 7.54773 50.3409 5.78791C50.3409 4.03916 49.376 2.79953 48.0895 2.79953ZM47.8625 7.8355C46.9828 7.8355 46.349 6.98326 46.349 5.78791C46.349 4.59256 46.9828 3.75139 47.8625 3.75139C48.7612 3.75139 49.3949 4.59256 49.3949 5.78791C49.3949 6.98326 48.7612 7.8355 47.8625 7.8355ZM51.4712 8.65453H52.3982V0.917969H51.4712V8.65453ZM56.0798 8.78735C57.4703 8.78735 58.6433 7.41491 58.6433 5.78791C58.6433 4.16091 57.4703 2.79953 56.0798 2.79953C54.6798 2.79953 53.4974 4.16091 53.4974 5.78791C53.4974 7.41491 54.6798 8.78735 56.0798 8.78735ZM56.0798 7.8355C55.1812 7.8355 54.4339 6.90578 54.4339 5.78791C54.4339 4.68111 55.1812 3.75139 56.0798 3.75139C56.9595 3.75139 57.7068 4.68111 57.7068 5.78791C57.7068 6.90578 56.9595 7.8355 56.0798 7.8355ZM60.7234 4.02809V2.93235H59.7869V8.65453H60.7234V5.40052C60.8085 4.4044 61.5274 3.75139 62.5395 3.75139V2.79953C61.6977 2.79953 61.0355 3.27546 60.7234 4.02809ZM65.6942 7.81336C64.8523 7.81336 64.2564 7.12714 64.1334 6.17529H67.9834C67.9834 4.1277 67.1226 2.79953 65.628 2.79953C64.2753 2.79953 63.1875 4.06129 63.1875 5.77684C63.1875 7.53666 64.3415 8.78735 65.7037 8.78735C66.3942 8.78735 67.2455 8.44424 67.6807 7.9019L67.0942 7.19355C66.801 7.54773 66.205 7.81336 65.6942 7.81336ZM65.6658 3.77352C66.5077 3.77352 66.9712 4.41547 67.0753 5.30091H64.1429C64.2942 4.3712 64.9091 3.77352 65.6658 3.77352ZM71.8134 8.65453H72.7688V1.05078H71.8134V8.65453ZM76.457 7.6252C76.3529 7.74695 76.1638 7.8355 75.9556 7.8355C75.6813 7.8355 75.4543 7.54773 75.4543 7.14928V3.86206H76.6083V2.93235H75.4543V1.36069H74.5368V2.93235H73.7989V3.86206H74.5368V7.22675C74.5368 8.1454 75.0665 8.78735 75.8232 8.78735C76.1732 8.78735 76.5327 8.6324 76.7975 8.37783L76.457 7.6252ZM83.6092 8.78735C85.4348 8.78735 86.9672 6.98325 86.9672 4.84712C86.9672 2.71099 85.4348 0.917969 83.6092 0.917969C81.7835 0.917969 80.2322 2.71099 80.2322 4.84712C80.2322 6.98325 81.7835 8.78735 83.6092 8.78735ZM83.6092 7.75802C82.3132 7.75802 81.216 6.42985 81.216 4.84712C81.216 3.27546 82.3132 1.9473 83.6092 1.9473C84.9051 1.9473 85.9929 3.27546 85.9929 4.84712C85.9929 6.42985 84.9051 7.75802 83.6092 7.75802ZM90.5958 2.79953C89.9336 2.79953 89.3377 3.19799 89.0445 3.76246V2.93235H88.108V8.65453H89.0445V4.94674C89.1201 4.27159 89.7066 3.75139 90.3877 3.75139C91.0498 3.75139 91.5133 4.34906 91.5133 5.2013V8.65453H92.4309V5.01314C92.4309 3.71818 91.6741 2.79953 90.5958 2.79953Z" fill="white"/>
<path d="M41.0359 25.1192H43.2342L39.5262 14.4739H37.3411L33.633 25.1192H35.8181L36.4008 23.4457H40.4532L41.0359 25.1192ZM37.0762 21.5088L38.427 17.6194L39.7778 21.5088H37.0762ZM48.4784 16.9222C47.5249 16.9222 46.7304 17.4025 46.1874 18.2238V17.1081H44.2539V27.7843H46.1874V23.988C46.7304 24.8247 47.5249 25.3051 48.4784 25.3051C50.306 25.3051 51.6303 23.5696 51.6303 21.1059C51.6303 18.6576 50.306 16.9222 48.4784 16.9222ZM47.9222 23.3992C46.982 23.3992 46.2934 22.5934 46.1874 21.4158V20.796C46.2934 19.6338 46.982 18.8281 47.9222 18.8281C48.9949 18.8281 49.7498 19.7733 49.7498 21.1059C49.7498 22.454 48.9949 23.3992 47.9222 23.3992ZM57.2207 16.9222C56.2672 16.9222 55.4726 17.4025 54.9297 18.2238V17.1081H52.9962V27.7843H54.9297V23.988C55.4726 24.8247 56.2672 25.3051 57.2207 25.3051C59.0482 25.3051 60.3725 23.5696 60.3725 21.1059C60.3725 18.6576 59.0482 16.9222 57.2207 16.9222ZM56.6645 23.3992C55.7243 23.3992 55.0356 22.5934 54.9297 21.4158V20.796C55.0356 19.6338 55.7243 18.8281 56.6645 18.8281C57.7372 18.8281 58.492 19.7733 58.492 21.1059C58.492 22.454 57.7372 23.3992 56.6645 23.3992ZM69.6616 20.9199H71.7804V22.5469C71.264 22.9808 70.6283 23.2287 70.0059 23.2287C68.4565 23.2287 67.1454 21.6482 67.1454 19.7888C67.1454 17.9448 68.4565 16.3643 70.0059 16.3643C70.8402 16.3643 71.7275 16.8292 72.2704 17.5575L73.6874 16.0699C72.7737 14.9543 71.3699 14.288 70.0059 14.288C67.3705 14.288 65.1324 16.7982 65.1324 19.7888C65.1324 22.7794 67.3705 25.3051 70.0059 25.3051C71.3699 25.3051 72.7737 24.6388 73.6874 23.5231V19.138H69.6616V20.9199ZM78.3386 16.9222C77.3851 16.9222 76.4448 17.2321 75.4781 17.8054L76.127 19.3084C76.6699 18.983 77.2659 18.7351 77.9015 18.7351C79.0272 18.7351 79.4775 19.4789 79.4775 20.3311V20.4861C78.8948 20.2227 78.2856 20.0832 77.7294 20.0832C76.1402 20.0832 74.8821 21.1679 74.8821 22.7484C74.8821 24.2824 76.0078 25.3051 77.4645 25.3051C78.2061 25.3051 78.9875 24.9642 79.4775 24.3134V25.1192H81.3447V20.3311C81.3447 18.2393 80.1264 16.9222 78.3386 16.9222ZM77.9015 23.7401C77.2394 23.7401 76.7494 23.3372 76.7494 22.6864C76.7494 22.0356 77.3056 21.5552 78.0075 21.5552C78.5372 21.5552 79.0404 21.6637 79.4775 21.8497V22.5934C79.345 23.3372 78.6432 23.7401 77.9015 23.7401ZM82.9736 25.1192H84.9071V14.288H82.9736V25.1192ZM86.5946 25.1192H88.5281V14.288H86.5946V25.1192ZM93.4479 23.3062C92.6401 23.3062 92.0441 22.7174 91.819 21.8497H96.7586C96.7586 18.8281 95.5005 16.9222 93.3552 16.9222C91.3555 16.9222 89.8325 18.6731 89.8325 21.0904C89.8325 23.5541 91.4217 25.3051 93.4611 25.3051C94.4676 25.3051 95.6462 24.8092 96.2554 24.0655L95.0238 22.5934C94.653 23.0118 93.9908 23.3062 93.4479 23.3062ZM93.4346 18.921C94.216 18.921 94.7192 19.4324 94.9046 20.2226H91.8455C92.0971 19.4169 92.7063 18.921 93.4346 18.921ZM99.9994 18.5957V17.1081H98.0659V25.1192H99.9994V21.2918C99.9994 19.7888 100.913 18.8281 102.343 18.8281V16.9222C101.297 16.9222 100.45 17.5575 99.9994 18.5957ZM105.022 27.9083C106.095 27.9083 106.969 27.0871 107.485 25.522L110.293 17.1081H108.32L106.611 22.7329L104.81 17.1081H102.811L105.658 25.1966L105.42 25.7854C105.274 26.0799 104.983 26.2193 104.612 26.2193C104.387 26.2193 104.042 26.0799 103.711 25.8629L103.301 27.4125C103.764 27.7069 104.453 27.9083 105.022 27.9083Z" fill="white"/>
</svg>
