<svg width="111" height="29" viewBox="0 0 111 29" fill="none" xmlns="http://www.w3.org/2000/svg">
<path d="M2.16707 21.8188C0.350182 19.2534 -0.698025 15.0234 0.946961 12.2353C1.35939 11.5205 1.95299 10.9222 2.67036 10.4981C3.38773 10.074 4.20459 9.83851 5.04196 9.81444H5.09227C5.77924 9.85462 6.45232 10.0215 7.07618 10.3063C7.43082 10.4734 7.8112 10.582 8.20195 10.6276C8.57928 10.5777 8.94637 10.4705 9.28999 10.3097C10.0055 9.98811 10.776 9.80016 11.5618 9.75553C11.6687 9.75553 11.7714 9.76033 11.8777 9.7706C12.5919 9.79347 13.2909 9.9787 13.9195 10.3117C14.5482 10.6447 15.0893 11.1163 15.5003 11.6894C15.5122 11.7065 15.5205 11.7259 15.5247 11.7463C15.5289 11.7667 15.5289 11.7877 15.5247 11.808C15.5204 11.8284 15.5121 11.8477 15.5001 11.8649C15.4881 11.882 15.4727 11.8967 15.4548 11.9079L15.4395 11.9175C14.8435 12.2782 14.3499 12.7804 14.0042 13.3776C13.6585 13.9748 13.472 14.6478 13.4619 15.3344C13.4656 16.1101 13.701 16.8677 14.1388 17.5139C14.5767 18.16 15.1979 18.6664 15.9258 18.9705L15.9377 18.9753C15.9734 18.9913 16.0019 19.0196 16.0175 19.0549C16.0331 19.0902 16.0348 19.13 16.0223 19.1664L16.0167 19.1835C15.7031 20.135 15.252 21.0374 14.6771 21.8634C13.9084 22.9594 13.0377 24.2014 11.6191 24.2274C11.0816 24.227 10.5516 24.1029 10.072 23.865C9.56973 23.62 9.01728 23.49 8.45632 23.4848C7.86793 23.4897 7.28813 23.6238 6.75962 23.8773C6.31147 24.092 5.82481 24.2186 5.32707 24.25H5.25719C3.99445 24.2527 3.07552 23.1012 2.16707 21.8188ZM8.03703 9.86856C8.00028 9.86581 7.96564 9.85065 7.93901 9.82567C7.91237 9.80069 7.8954 9.76743 7.89098 9.73156C7.84994 9.18543 7.92215 8.63682 8.10326 8.1188C8.28437 7.60077 8.57064 7.12407 8.94478 6.71744C9.6957 5.87804 10.7464 5.35288 11.8805 5.25012C11.9204 5.2486 11.9596 5.26183 11.9901 5.28719C12.0206 5.31256 12.0403 5.34821 12.0454 5.38712C12.1336 6.5143 11.7627 7.62983 11.0139 8.4896C10.6799 8.90073 10.26 9.23712 9.78251 9.47625C9.30501 9.71537 8.78089 9.85169 8.24528 9.8761C8.17649 9.87601 8.10773 9.87349 8.03913 9.86856H8.03703Z" fill="white"/>
<path d="M42.4939 24.9562H40.252L39.024 21.1634H34.7554L33.5856 24.9562H31.4029L35.632 12.0438H38.2441L42.4939 24.9562ZM38.6538 19.5721L37.5432 16.2004C37.4257 15.856 37.2056 15.0449 36.8808 13.768H36.8413C36.712 14.3172 36.5037 15.1283 36.2174 16.2004L35.1266 19.5721H38.6538Z" fill="white"/>
<path d="M53.3696 20.1864C53.3696 21.7699 52.9343 23.0215 52.0636 23.9404C51.2837 24.7583 50.3153 25.1668 49.1593 25.1668C47.9115 25.1668 47.0151 24.7263 46.4692 23.8453H46.4297V28.75H44.325V18.7106C44.325 17.7151 44.2984 16.6934 44.247 15.6455H46.098L46.2155 17.1213H46.255C46.9569 16.0094 48.022 15.4544 49.4515 15.4544C50.569 15.4544 51.5018 15.8881 52.2482 16.7565C52.9964 17.6258 53.3696 18.7688 53.3696 20.1864ZM51.2254 20.2621C51.2254 19.3558 51.0181 18.6087 50.6015 18.0207C50.1464 17.4075 49.5354 17.1009 48.7693 17.1009C48.2501 17.1009 47.7782 17.2717 47.3567 17.6084C46.9341 17.948 46.6577 18.3914 46.5284 18.9406C46.4633 19.1967 46.4307 19.4063 46.4307 19.5712V21.1237C46.4307 21.8009 46.6419 22.3724 47.0645 22.8391C47.487 23.3058 48.0358 23.5387 48.7111 23.5387C49.5038 23.5387 50.1208 23.2379 50.562 22.6383C51.0043 22.0377 51.2254 21.2459 51.2254 20.2621Z" fill="white"/>
<path d="M64.2653 20.1864C64.2653 21.7699 63.8299 23.0215 62.9582 23.9404C62.1794 24.7583 61.2109 25.1668 60.0549 25.1668C58.8071 25.1668 57.9108 24.7263 57.3658 23.8453H57.3264V28.75H55.2217V18.7106C55.2217 17.7151 55.195 16.6934 55.1437 15.6455H56.9947L57.1121 17.1213H57.1516C57.8525 16.0094 58.9177 15.4544 60.3481 15.4544C61.4646 15.4544 62.3975 15.8881 63.1458 16.7565C63.8911 17.6258 64.2653 18.7688 64.2653 20.1864ZM62.1211 20.2621C62.1211 19.3558 61.9128 18.6087 61.4962 18.0207C61.0411 17.4075 60.432 17.1009 59.665 17.1009C59.1448 17.1009 58.6739 17.2717 58.2514 17.6084C57.8288 17.948 57.5534 18.3914 57.4241 18.9406C57.3599 19.1967 57.3264 19.4063 57.3264 19.5712V21.1237C57.3264 21.8009 57.5376 22.3724 57.9582 22.8391C58.3807 23.3048 58.9295 23.5387 59.6068 23.5387C60.3995 23.5387 61.0165 23.2379 61.4577 22.6383C61.9 22.0377 62.1211 21.2459 62.1211 20.2621Z" fill="white"/>
<path d="M76.4471 21.3354C76.4471 22.4338 76.0591 23.3274 75.2802 24.0172C74.4243 24.7711 73.2328 25.1476 71.7017 25.1476C70.288 25.1476 69.1547 24.8798 68.2969 24.3433L68.7846 22.6191C69.7086 23.1683 70.7224 23.4438 71.8271 23.4438C72.6198 23.4438 73.2368 23.2672 73.68 22.916C74.1213 22.5648 74.3414 22.0932 74.3414 21.5052C74.3414 20.9813 74.1598 20.5398 73.7955 20.1818C73.4332 19.8237 72.8281 19.4909 71.983 19.1834C69.6829 18.3402 68.5338 17.105 68.5338 15.4808C68.5338 14.4193 68.9366 13.549 69.7431 12.8718C70.5467 12.1935 71.6188 11.8549 72.9594 11.8549C74.1548 11.8549 75.148 12.0596 75.9407 12.4681L75.4145 14.1544C74.6741 13.7586 73.837 13.5606 72.9001 13.5606C72.1597 13.5606 71.5813 13.7401 71.1666 14.0972C70.8162 14.4164 70.6405 14.8055 70.6405 15.2664C70.6405 15.7767 70.8409 16.1988 71.2436 16.5306C71.5941 16.8372 72.2308 17.1691 73.1548 17.5271C74.2852 17.9744 75.1154 18.4974 75.6494 19.097C76.1815 19.6947 76.4471 20.4428 76.4471 21.3354Z" fill="white"/>
<path d="M83.4058 17.1974H81.0859V21.7179C81.0859 22.8677 81.4946 23.4421 82.314 23.4421C82.6901 23.4421 83.0021 23.41 83.2489 23.346L83.3071 24.9169C82.8925 25.0692 82.3466 25.1459 81.6704 25.1459C80.8392 25.1459 80.1896 24.8965 79.7207 24.3987C79.2537 23.9 79.0188 23.0637 79.0188 21.8887V17.1955H77.6367V15.643H79.0188V13.9383L81.0859 13.325V15.643H83.4058V17.1974Z" fill="white"/>
<path d="M93.8728 20.2246C93.8728 21.6557 93.4562 22.8307 92.625 23.7496C91.7533 24.6956 90.5964 25.1671 89.1541 25.1671C87.7641 25.1671 86.6575 24.714 85.8322 23.8078C85.0069 22.9015 84.5943 21.7576 84.5943 20.3788C84.5943 18.936 85.0188 17.7543 85.8707 16.8354C86.7207 15.9156 87.8678 15.4557 89.3101 15.4557C90.7 15.4557 91.8185 15.9088 92.6625 16.816C93.47 17.696 93.8728 18.8322 93.8728 20.2246ZM91.6892 20.2915C91.6892 19.4328 91.5026 18.6964 91.1245 18.0822C90.6832 17.339 90.0524 16.9683 89.235 16.9683C88.389 16.9683 87.7464 17.3399 87.3051 18.0822C86.927 18.6974 86.7404 19.4454 86.7404 20.3303C86.7404 21.189 86.927 21.9254 87.3051 22.5387C87.7602 23.2819 88.3959 23.6525 89.2163 23.6525C90.0198 23.6525 90.6507 23.2741 91.1057 22.5193C91.4937 21.8934 91.6892 21.1492 91.6892 20.2915Z" fill="white"/>
<path d="M100.714 17.4648C100.506 17.4269 100.284 17.4075 100.051 17.4075C99.3102 17.4075 98.7376 17.6821 98.3349 18.2323C97.9844 18.7174 97.8087 19.3306 97.8087 20.0709V24.9562H95.705L95.7247 18.5777C95.7247 17.5046 95.6981 16.5275 95.6458 15.6465H97.479L97.556 17.4279H97.6142C97.8363 16.8157 98.1868 16.3228 98.6666 15.9531C99.1355 15.6203 99.6419 15.4544 100.188 15.4544C100.382 15.4544 100.558 15.468 100.714 15.4922V17.4648Z" fill="white"/>
<path d="M110.127 19.8606C110.127 20.2312 110.102 20.5436 110.05 20.7988H103.736C103.761 21.7186 104.066 22.4221 104.652 22.9072C105.184 23.3409 105.872 23.5583 106.717 23.5583C107.652 23.5583 108.505 23.4117 109.272 23.1178L109.602 24.5538C108.705 24.938 107.647 25.1291 106.426 25.1291C104.957 25.1291 103.804 24.7041 102.965 23.8552C102.128 23.0062 101.708 21.8661 101.708 20.4359C101.708 19.0319 102.098 17.8628 102.879 16.9303C103.696 15.9348 104.801 15.4371 106.191 15.4371C107.556 15.4371 108.59 15.9348 109.292 16.9303C109.848 17.7211 110.127 18.6991 110.127 19.8606ZM108.12 19.324C108.134 18.7108 107.997 18.181 107.711 17.7337C107.347 17.1584 106.787 16.8712 106.034 16.8712C105.346 16.8712 104.786 17.1516 104.359 17.7143C104.008 18.1616 103.8 18.6982 103.736 19.323L108.12 19.324Z" fill="white"/>
<path d="M37.958 4.09994C37.958 5.24195 37.6095 6.1016 36.9135 6.67892C36.2689 7.21159 35.3528 7.47842 34.1662 7.47842C33.5779 7.47842 33.0744 7.45319 32.6529 7.40274V1.16293C33.2027 1.0756 33.795 1.03097 34.4347 1.03097C35.5651 1.03097 36.417 1.27257 36.9915 1.75576C37.6352 2.30203 37.958 3.08309 37.958 4.09994ZM36.8672 4.12808C36.8672 3.38776 36.6677 2.82015 36.2689 2.42428C35.8701 2.02938 35.2877 1.83145 34.5206 1.83145C34.1948 1.83145 33.9174 1.85279 33.6874 1.89742V6.64108C33.8148 6.66048 34.0478 6.66921 34.3864 6.66921C35.1781 6.66921 35.7891 6.45284 36.2196 6.0201C36.65 5.58736 36.8672 4.95669 36.8672 4.12808Z" fill="white"/>
<path d="M43.7419 5.09794C43.7419 5.80139 43.5375 6.37773 43.1288 6.82988C42.7004 7.29464 42.1328 7.52653 41.424 7.52653C40.7408 7.52653 40.1969 7.30434 39.7912 6.85802C39.3864 6.41266 39.184 5.85087 39.184 5.17363C39.184 4.46533 39.3923 3.88414 39.8109 3.43296C40.2295 2.98179 40.7922 2.75571 41.501 2.75571C42.1841 2.75571 42.733 2.9779 43.1486 3.42326C43.5434 3.856 43.7419 4.41487 43.7419 5.09794ZM42.6688 5.13093C42.6688 4.70887 42.576 4.34696 42.3914 4.0452C42.1742 3.68038 41.8652 3.49797 41.4634 3.49797C41.0478 3.49797 40.7319 3.68038 40.5148 4.0452C40.3292 4.34696 40.2374 4.71469 40.2374 5.14937C40.2374 5.57144 40.3302 5.93335 40.5148 6.2351C40.7389 6.59992 41.0508 6.78233 41.4536 6.78233C41.8484 6.78233 42.1584 6.59701 42.3815 6.2254C42.573 5.91782 42.6688 5.553 42.6688 5.13093Z" fill="white"/>
<path d="M51.4971 2.84865L50.041 7.42251H49.0933L48.4901 5.43636C48.3371 4.94055 48.2127 4.44766 48.116 3.95864H48.0972C48.0074 4.46124 47.883 4.95317 47.7231 5.43636L47.0824 7.42251H46.1238L44.7546 2.84865H45.8178L46.344 5.02303C46.4713 5.53727 46.576 6.02726 46.6599 6.49105H46.6786C46.7556 6.10876 46.883 5.62168 47.0626 5.03273L47.7231 2.84962H48.5661L49.1989 4.98616C49.3519 5.50719 49.4763 6.00882 49.5721 6.49202H49.6007C49.6708 6.02144 49.7764 5.51981 49.9166 4.98616L50.4813 2.84962L51.4971 2.84865Z" fill="white"/>
<path d="M56.8605 7.4226H55.8259V4.80287C55.8259 3.9956 55.5139 3.59197 54.8881 3.59197C54.581 3.59197 54.3333 3.70258 54.1408 3.92477C53.9502 4.14697 53.8535 4.40894 53.8535 4.70875V7.42163H52.8189V4.1557C52.8189 3.75401 52.8061 3.31835 52.7814 2.8468H53.6906L53.739 3.56189H53.7676C53.888 3.3397 54.0677 3.15632 54.3037 3.00981C54.584 2.83904 54.8979 2.75269 55.2415 2.75269C55.6758 2.75269 56.0371 2.89047 56.3244 3.16699C56.6818 3.50562 56.8605 4.01113 56.8605 4.68256V7.4226Z" fill="white"/>
<path d="M59.7129 7.42255H58.6798V0.75H59.7129V7.42255Z" fill="white"/>
<path d="M65.8041 5.09794C65.8041 5.80139 65.5998 6.37773 65.1911 6.82988C64.7627 7.29464 64.1941 7.52653 63.4862 7.52653C62.8021 7.52653 62.2582 7.30434 61.8534 6.85802C61.4487 6.41266 61.2463 5.85087 61.2463 5.17363C61.2463 4.46533 61.4546 3.88414 61.8732 3.43296C62.2918 2.98179 62.8544 2.75571 63.5623 2.75571C64.2464 2.75571 64.7943 2.9779 65.2109 3.42326C65.6057 3.856 65.8041 4.41487 65.8041 5.09794ZM64.7301 5.13093C64.7301 4.70887 64.6373 4.34696 64.4527 4.0452C64.2365 3.68038 63.9265 3.49797 63.5257 3.49797C63.1091 3.49797 62.7932 3.68038 62.577 4.0452C62.3915 4.34696 62.2996 4.71469 62.2996 5.14937C62.2996 5.57144 62.3924 5.93335 62.577 6.2351C62.8011 6.59992 63.1131 6.78233 63.5159 6.78233C63.9107 6.78233 64.2197 6.59701 64.4428 6.2254C64.6353 5.91782 64.7301 5.553 64.7301 5.13093Z" fill="white"/>
<path d="M70.8113 7.42271H69.8823L69.8053 6.89586H69.7767C69.4588 7.31598 69.0057 7.52653 68.4174 7.52653C67.9781 7.52653 67.6227 7.38778 67.3552 7.11223C67.1123 6.8619 66.9909 6.55044 66.9909 6.18077C66.9909 5.62189 67.2278 5.19594 67.7046 4.90098C68.1804 4.60602 68.8497 4.46145 69.7116 4.46824V4.38286C69.7116 3.78032 69.3897 3.47953 68.7451 3.47953C68.2861 3.47953 67.8813 3.59306 67.5319 3.81816L67.3216 3.15061C67.754 2.88767 68.288 2.75571 68.9179 2.75571C70.1341 2.75571 70.7441 3.38639 70.7441 4.64774V6.33213C70.7441 6.78913 70.7669 7.15298 70.8113 7.42271ZM69.7372 5.85087V5.14549C68.596 5.12608 68.0255 5.43366 68.0255 6.06725C68.0255 6.30593 68.0906 6.48446 68.2239 6.6038C68.3571 6.72315 68.5269 6.78233 68.7293 6.78233C68.9564 6.78233 69.1686 6.71151 69.3621 6.57082C69.5566 6.42916 69.676 6.24966 69.7204 6.0294C69.7313 5.97992 69.7372 5.91976 69.7372 5.85087Z" fill="white"/>
<path d="M76.6902 7.42255H75.7721L75.7237 6.68806H75.6951C75.4019 7.24693 74.9024 7.52637 74.2005 7.52637C73.6398 7.52637 73.1729 7.31 72.8027 6.87726C72.4325 6.44452 72.2479 5.88273 72.2479 5.19287C72.2479 4.45255 72.4483 3.85292 72.851 3.39496C73.241 2.96804 73.7188 2.75458 74.2874 2.75458C74.9123 2.75458 75.3496 2.96125 75.5984 3.37555H75.6181V0.75H76.6537V6.19031C76.6537 6.63566 76.6655 7.04609 76.6902 7.42255ZM75.6181 5.49365V4.73102C75.6181 4.59906 75.6082 4.49233 75.5895 4.41083C75.5312 4.16632 75.4059 3.96063 75.2153 3.79471C75.0228 3.62879 74.7909 3.54535 74.5233 3.54535C74.1373 3.54535 73.8353 3.69574 73.6131 3.9975C73.393 4.29925 73.2814 4.68445 73.2814 5.15503C73.2814 5.60717 73.3871 5.97394 73.5993 6.25628C73.8234 6.55707 74.1255 6.70746 74.5036 6.70746C74.8432 6.70746 75.1146 6.5823 75.321 6.331C75.5204 6.0991 75.6181 5.81966 75.6181 5.49365Z" fill="white"/>
<path d="M85.5383 5.09794C85.5383 5.80139 85.3339 6.37773 84.9252 6.82988C84.4968 7.29464 83.9301 7.52653 83.2204 7.52653C82.5382 7.52653 81.9943 7.30434 81.5876 6.85802C81.1828 6.41266 80.9804 5.85087 80.9804 5.17363C80.9804 4.46533 81.1887 3.88414 81.6073 3.43296C82.0259 2.98179 82.5886 2.75571 83.2983 2.75571C83.9805 2.75571 84.5303 2.9779 84.945 3.42326C85.3398 3.856 85.5383 4.41487 85.5383 5.09794ZM84.4662 5.13093C84.4662 4.70887 84.3734 4.34696 84.1888 4.0452C83.9706 3.68038 83.6626 3.49797 83.2598 3.49797C82.8452 3.49797 82.5293 3.68038 82.3112 4.0452C82.1256 4.34696 82.0338 4.71469 82.0338 5.14937C82.0338 5.57144 82.1266 5.93335 82.3112 6.2351C82.5352 6.59992 82.8472 6.78233 83.25 6.78233C83.6448 6.78233 83.9558 6.59701 84.1789 6.2254C84.3694 5.91782 84.4662 5.553 84.4662 5.13093Z" fill="white"/>
<path d="M91.1009 7.4226H90.0673V4.80287C90.0673 3.9956 89.7553 3.59197 89.1285 3.59197C88.8215 3.59197 88.5737 3.70258 88.3822 3.92477C88.1907 4.14697 88.0949 4.40894 88.0949 4.70875V7.42163H87.0593V4.1557C87.0593 3.75401 87.0475 3.31835 87.0228 2.8468H87.931L87.9794 3.56189H88.008C88.1294 3.3397 88.3091 3.15632 88.5441 3.00981C88.8254 2.83904 89.1383 2.75269 89.4829 2.75269C89.9162 2.75269 90.2775 2.89047 90.5648 3.16699C90.9232 3.50562 91.1009 4.01113 91.1009 4.68256V7.4226Z" fill="white"/>
<path d="M98.0636 3.61039H96.9244V5.83231C96.9244 6.39701 97.1268 6.67936 97.5275 6.67936C97.7131 6.67936 97.8671 6.66383 97.9886 6.63181L98.0152 7.40318C97.8109 7.47886 97.5424 7.5167 97.2116 7.5167C96.803 7.5167 96.4851 7.39445 96.2551 7.14994C96.0241 6.90543 95.9096 6.49403 95.9096 5.91672V3.61039H95.2294V2.84873H95.9096V2.01041L96.9234 1.70963V2.84776H98.0626L98.0636 3.61039Z" fill="white"/>
<path d="M103.54 7.42255H102.505V4.82222C102.505 4.00235 102.193 3.59192 101.568 3.59192C101.088 3.59192 100.761 3.82964 100.581 4.30507C100.55 4.40501 100.533 4.52726 100.533 4.67086V7.42158H99.4989V0.75H100.533V3.50654H100.552C100.878 3.00491 101.345 2.75458 101.95 2.75458C102.379 2.75458 102.733 2.89236 103.014 3.16888C103.365 3.51333 103.54 4.02563 103.54 4.70288V7.42255Z" fill="white"/>
<path d="M109.19 4.9195C109.19 5.10191 109.176 5.25522 109.152 5.38038H106.049C106.063 5.83253 106.211 6.17697 106.498 6.41566C106.761 6.62912 107.099 6.73585 107.514 6.73585C107.973 6.73585 108.392 6.66405 108.769 6.51948L108.931 7.22583C108.489 7.41407 107.97 7.50818 107.369 7.50818C106.648 7.50818 106.081 7.29958 105.67 6.88236C105.257 6.46514 105.053 5.9053 105.053 5.20282C105.053 4.51296 105.243 3.93856 105.627 3.48059C106.028 2.99158 106.57 2.74707 107.254 2.74707C107.924 2.74707 108.432 2.99158 108.776 3.48059C109.053 3.8687 109.19 4.34898 109.19 4.9195ZM108.203 4.65656C108.211 4.35481 108.143 4.09477 108.003 3.87549C107.823 3.59314 107.549 3.45148 107.179 3.45148C106.842 3.45148 106.566 3.58926 106.356 3.86579C106.184 4.08604 106.083 4.34898 106.049 4.65656H108.203Z" fill="white"/>
</svg>
