<?xml version="1.0" encoding="utf-8"?>
<!-- Generator: Adobe Illustrator 28.1.0, SVG Export Plug-In . SVG Version: 6.00 Build 0)  -->
<svg version="1.1" id="Layer_1" xmlns="http://www.w3.org/2000/svg" xmlns:xlink="http://www.w3.org/1999/xlink" x="0px" y="0px"
	 viewBox="0 0 321 103" style="enable-background:new 0 0 321 103;" xml:space="preserve">
<style type="text/css">
	.st0{fill:#FFFFFF;}
	.st1{fill:#D2BEA6;}
</style>
<g>
	<path class="st0" d="M47,102.3l120.9-24.2l-17.7,8.7l170.5-39.7l-29.1,2.2c0,0-6.2-9-17.4-1.9c0,0-8.7-7.7-13.6,0.6
		c0,0-9.9-9.6-22.3,0.3c0,0-5.6,4.3-3.4,12.7l-19.8,5.6l-19.8-0.9c0,0,7.4-16.1-6.5-21.7c0,0-18-5.6-24.5,9.3l-22.6,3.4
		c0,0-8.1-9-21.4-5.6c0,0-1.6-14.3-20.5-6.8c0,0,10.5-11.5,0.3-26.7c0,0-18-25.4-52.4-13.6c0,0-29.8,12.4-24.5,38.4
		c0,0-27.9,4-21.7,32.2C1.4,74.7,7.9,104.8,47,102.3L47,102.3z"/>
	<path class="st1" d="M42.5,103C7.4,103,1,75.1,0.9,74.8C-1,66.3,0.1,59,4,53.3c5.8-8.4,16.1-10.8,18.5-11.2
		c-2-10.6,1.7-20.6,10.5-28.9c6.8-6.3,14.3-9.5,14.4-9.5c34.4-11.8,52.8,13.5,53,13.8c8.3,12.3,3.1,22.3,0.7,25.9
		c6.1-2.1,11-2.1,14.5,0c3.6,2.2,4.6,5.8,4.9,7.3c12-2.8,19.9,4.4,21.2,5.7l22.1-3.3c6.7-14.8,24.8-9.4,25-9.3
		c3.9,1.6,6.5,4,7.8,7.4c2.3,5.7,0.1,12.2-0.7,14.3l19,0.9l19.3-5.4c-1.9-8.3,3.6-12.7,3.7-12.7c6.6-5.3,12.5-5.1,16.3-4
		c3.1,0.9,5.4,2.5,6.3,3.3c1.3-2,3.1-3.2,5.1-3.5c3.9-0.6,7.7,2.2,8.7,3.1c10.2-6.3,16.4,0.6,17.6,2l28.9-2.1l0.2,1L146.1,88.3
		l18.2-8.9L47,102.8l-0.1,0C45.4,102.9,44,103,42.5,103z M65.1,1.5c-5.2,0-11,0.9-17.4,3.1c0,0-7.4,3.1-14.1,9.4
		c-8.9,8.3-12.2,17.9-10.1,28.5l0.1,0.5L23.2,43c-0.1,0-12.1,1.8-18.3,10.9c-3.8,5.5-4.8,12.4-2.9,20.7C2,74.9,8.8,104.2,47,101.8
		l0,0l124.6-24.9l-17.2,8.4l160-37.2l-23,1.7l-0.2-0.2c-0.2-0.4-6.1-8.5-16.7-1.7l-0.3,0.2l-0.3-0.3c0,0-4.2-3.7-8.2-3.1
		c-1.9,0.3-3.5,1.5-4.7,3.6l-0.3,0.5l-0.5-0.4c-0.4-0.4-9.8-9.2-21.7,0.3c-0.2,0.2-5.3,4.3-3.2,12.2l0.1,0.5l-20.4,5.7l-20.7-1
		l0.3-0.7c0-0.1,3.6-7.8,1-14.2c-1.2-3.1-3.7-5.4-7.2-6.8c-0.7-0.2-17.6-5.3-23.9,9l-0.1,0.3l-23.2,3.5l-0.2-0.2
		c-0.1-0.1-8-8.7-20.9-5.4l-0.6,0.1l-0.1-0.6c0,0-0.6-4.7-4.5-7.1c-3.6-2.1-8.7-1.9-15.3,0.7l-2,0.8l1.5-1.6
		c0.4-0.5,10.1-11.4,0.3-26C99.5,17.8,87.6,1.5,65.1,1.5z"/>
</g>
</svg>
