<?xml version="1.0" encoding="utf-8"?>
<!-- Generator: Adobe Illustrator 28.1.0, SVG Export Plug-In . SVG Version: 6.00 Build 0)  -->
<svg version="1.1" id="Layer_1" xmlns="http://www.w3.org/2000/svg" xmlns:xlink="http://www.w3.org/1999/xlink" x="0px" y="0px"
	 viewBox="0 0 103 77" style="enable-background:new 0 0 103 77;" xml:space="preserve">
<style type="text/css">
	.st0{fill:#912B39;}
	.st1{fill:#D2BEA6;}
</style>
<g>
	<path class="st0" d="M102.1,5.6L71.1,43c0,0-3.6,5.3-5.9,4.2c0,0-5.7-0.4-1.6-6.9l-26.3,28c0,0-8.9,10.9-15.5,6.3
		c0,0-7.5-6,1.3-16.6c0,0-12.2,9.4-21.1,3.4c0,0-2.5-2.3,2.4-6.6l32.8-27.1c0.8-0.7,2.1,0,1.9,1.1l-1.3,6.6L86.6,0.7
		c0.7-0.5,1.5,0.2,1.3,0.9l-7.3,21.1L102.1,5.6L102.1,5.6z"/>
	<path class="st1" d="M25.3,76.2c-1.3,0-2.7-0.4-3.9-1.2c-0.1-0.1-2.7-2.2-3.1-6.2c-0.3-2.8,0.6-5.8,2.6-8.8c-1.3,0.8-3,1.7-4.9,2.4
		c-5.6,2.2-10.6,2-14.3-0.6c-0.1-0.1-0.9-0.8-0.9-2.2c0-1.6,1.1-3.4,3.2-5.2l32.8-27.1c0.5-0.5,1.3-0.5,1.9-0.1
		c0.6,0.4,0.9,1,0.8,1.7l-1,5.4l47.9-34c0.5-0.3,1.1-0.3,1.6,0c0.5,0.4,0.6,0.9,0.5,1.5l-6.8,19.4l20.2-15.9l0.9-1v1.6L102.4,6
		l-31,37.3c-0.4,0.5-3.8,5.5-6.4,4.4c-0.4,0-2.3-0.3-3.1-1.9c-0.4-0.8-0.5-1.8-0.1-3L37.5,68.6C37.2,68.9,31.3,76.2,25.3,76.2z
		 M26.2,54.8l-2.8,3.4c-3.1,3.7-4.4,7.2-4.1,10.4c0.4,3.5,2.7,5.5,2.7,5.5c6.1,4.2,14.7-6.1,14.8-6.2l29.7-31.6l-2.5,4.1
		c-1.3,2.1-1.7,3.7-1.1,4.8c0.6,1.2,2.4,1.4,2.4,1.4l0.2,0c1.6,0.8,4.4-2.7,5.3-4L98.6,9L79.5,24.1l7.9-22.7
		c0.1-0.2-0.1-0.3-0.1-0.4c-0.1,0-0.2-0.1-0.4,0L37,36.5l1.5-7.8c0.1-0.4-0.2-0.6-0.3-0.7c-0.1-0.1-0.4-0.2-0.8,0.1L4.6,55.1
		c-2.3,2-2.8,3.5-2.8,4.4c0,0.9,0.5,1.4,0.5,1.4c8.4,5.6,20.3-3.4,20.4-3.5L26.2,54.8z"/>
</g>
</svg>
