<?xml version="1.0" encoding="utf-8"?>
<!-- Generator: Adobe Illustrator 28.1.0, SVG Export Plug-In . SVG Version: 6.00 Build 0)  -->
<svg version="1.1" id="Layer_1" xmlns="http://www.w3.org/2000/svg" xmlns:xlink="http://www.w3.org/1999/xlink" x="0px" y="0px"
	 viewBox="0 0 339 75" style="enable-background:new 0 0 339 75;" xml:space="preserve">
<style type="text/css">
	.st0{fill:#31ABFF;}
	.st1{fill:#D2BEA6;}
</style>
<g>
	<path class="st0" d="M280.4,34.4c4.8-3.2,13.7-4.6,9.3-12c-2.4-4-6.1-5.9-10.8-6.5c-9.1-1.2-18.1,1-26.9,3
		c-7.4,1.7-16.2,2.3-22.1,7.8c-2.1,2-5.3,10.7-8.5,10.7c-4.3-0.1-4.6-14-7.2-16.9c-3.1-3.5-7.9-3.6-12.1-1.9
		c-3.5,1.4-6.6,3.7-10.1,5c-5.9,2.1-13.2,0.5-18.4-2.7c-4.9-3-10.5-5.7-16-2.5c-1.6,0.9-2.9,2.2-4.5,3c-6.4,3.6-14.1-7.5-17.9-11.5
		c-4.6-4.9-11.1-9.4-18.2-8.7c-7.6,0.8-12.7,7.6-20.7,7.4c-3.2-0.1-6.3-1.1-9.4-1.8c-7.4-1.5-15-0.5-22.4,0.5
		C43.3,10.1,22,12.9,0.7,15.6c13.5-1.8,28.7-0.1,42.3,0.3c11.8,0.4,28.5-1.7,37.7,7c1.5,1.4,2.8,3.2,4.6,4.3
		c5.5,3.4,12.4,2.8,18.4,1.6c4.9-1,17.8-9.3,20.3-1c0.6,1.9,0.3,3.9,0.1,5.8c-0.5,4.4,0.8,10,5.3,11.9c1.1,0.5,2.3,0.6,3.5,0.8
		c5,0.5,10.9,0.1,15.3-2.5c1.7-1,3.2-2.5,4.9-3.4c7.4-4.1,15.3,1.3,22.2,4.1c4.4,1.8,9,1.7,13.6,0.9c3.9-0.6,8.7-3.3,12.6-1.9
		c0.7,0.2,1.3,0.6,1.7,1.2c1.5,2.5,0.2,3.9,3.2,5.9c2.1,1.4,4.8,1.9,7.2,2.3c8.9,2.8,19.1,3.4,28.2,5.1c9.3,1.7,18.6,3.4,27.9,5
		c19.6,3.5,39.1,7,58.6,10.8c2.8,0.5,6,1,8.1-0.9c6.2-5.3-2.6-13.8-8.2-14.3c-3-0.2-6,0.8-8.9,1.5c-25.8,6.6-53.2-6.8-78.7-9.8
		c7,0.8,14.1,1.3,21.2,1.5c11.3,0.4,26.1,1.4,36.3-4.3c2.5-1.4,4.6-3.6,5.2-6.3c2.8-13.1-20.1-5.5-25.4-3.9
		C278.1,36.2,279.1,35.2,280.4,34.4z"/>
	<path class="st1" d="M332.2,74.8c-1.3,0-2.7-0.2-4-0.5c-17.3-3.4-35-6.5-52-9.6l-34.5-6.2c-3-0.5-6.2-1-9.3-1.4
		c-6.4-0.9-13-1.8-19-3.7c-2.4-0.4-5.2-0.9-7.3-2.4c-2-1.3-2.2-2.5-2.5-3.7c-0.1-0.7-0.3-1.4-0.8-2.3c-0.2-0.4-0.7-0.7-1.4-1
		c-2.5-0.9-5.5,0-8.4,0.9c-1.4,0.4-2.7,0.8-4,1c-5.7,0.9-9.9,0.6-13.9-0.9c-1.3-0.5-2.6-1.1-4-1.8c-5.9-2.7-11.9-5.5-17.7-2.3
		c-0.9,0.5-1.7,1.1-2.6,1.8c-0.7,0.6-1.5,1.2-2.3,1.6c-5.1,3-11.9,2.9-15.6,2.6c-1.1-0.1-2.4-0.3-3.6-0.8c-4.6-2-6.1-7.7-5.6-12.5
		l0-0.2c0.2-1.8,0.4-3.7-0.1-5.4c-0.4-1.4-1.1-2.3-2.2-2.8c-3.1-1.5-8.4,0.7-12.6,2.4c-1.9,0.8-3.6,1.5-4.9,1.7
		c-5.2,1.1-12.8,2.1-18.8-1.7c-1.3-0.8-2.3-1.9-3.2-2.9c-0.5-0.5-1-1-1.4-1.5c-7.4-7-19.7-6.9-30.6-6.9c-2.4,0-4.7,0-6.9,0
		c-3.5-0.1-7-0.3-10.7-0.5c-10.6-0.6-21.5-1.1-31.5,0.2l0,0c0,0,0,0,0,0l-0.1-1c0,0,0,0,0.1,0l63.8-8.3c7.4-1,15-2,22.6-0.4
		C88,6.6,89,6.8,89.9,7c2.1,0.5,4.3,1.1,6.5,1.1c4.2,0.1,7.5-1.8,11-3.7c3-1.6,6-3.3,9.6-3.7c7.7-0.8,14.4,4.3,18.6,8.8
		c0.6,0.6,1.3,1.4,2.1,2.4c4,4.7,10.1,11.8,15.2,9c0.8-0.4,1.5-1,2.3-1.5c0.7-0.5,1.4-1.1,2.2-1.5c5.7-3.3,11.6-0.6,16.5,2.5
		c5.7,3.5,12.7,4.5,18,2.7c1.9-0.7,3.7-1.7,5.4-2.6c1.5-0.8,3-1.7,4.6-2.3c5-2,9.7-1.3,12.6,2c1.1,1.3,1.8,4.3,2.5,7.5
		c0.9,4.1,2.1,9.3,4.3,9.3c0,0,0,0,0,0c1.8,0,3.8-3.6,5.5-6.5c1-1.8,1.9-3.3,2.7-4.1c4.8-4.5,11.4-5.8,17.8-7
		c1.6-0.3,3.1-0.6,4.5-0.9l1.3-0.3c8.4-1.9,17-3.9,25.7-2.7c5.2,0.7,8.8,2.9,11.1,6.8c1.2,2,1.5,3.7,1.1,5.2
		c-0.8,2.6-3.8,4.1-6.8,5.5c-1.3,0.6-2.6,1.3-3.7,2c-0.9,0.6-1.6,1.2-2,1.9c8.2-2.6,19.3-5.4,23.6-1.5c1.5,1.4,2,3.5,1.4,6.3
		c-0.6,2.6-2.5,5.1-5.4,6.7c-9.6,5.3-23.1,4.8-33.9,4.4l-2.6-0.1c-3.1-0.1-6-0.2-8.9-0.4c4.7,1,9.4,2.2,14,3.3
		c17.3,4.3,35.3,8.7,52.3,4.4c0.5-0.1,1-0.3,1.4-0.4c2.5-0.7,5-1.3,7.6-1.1c3.7,0.3,9,4,10.4,8.4c0.8,2.6,0.2,4.9-1.9,6.7
		C335.4,74.5,333.8,74.8,332.2,74.8z M199.1,42.7c0.9,0,1.8,0.1,2.6,0.4c0.9,0.3,1.5,0.8,1.9,1.4c0.6,1,0.8,1.9,0.9,2.6
		c0.2,1.1,0.4,2,2.1,3.1c2,1.3,4.6,1.8,6.9,2.2l0.1,0c5.9,1.9,12.4,2.8,18.8,3.7c3.1,0.4,6.3,0.9,9.3,1.4l34.5,6.2
		c17.1,3.1,34.7,6.3,52,9.6c2.7,0.5,5.7,0.9,7.7-0.7c1.8-1.5,2.4-3.4,1.6-5.7c-1.3-4-6.3-7.5-9.6-7.8c-2.4-0.2-4.9,0.5-7.3,1.1
		c-0.5,0.1-1,0.3-1.5,0.4c-17.3,4.4-35.3-0.1-52.8-4.4c-8.6-2.1-17.6-4.4-26.1-5.4l0.1-1c0,0,0,0,0,0c6.5,0.8,13.4,1.3,21.1,1.5
		l2.6,0.1c10.7,0.4,24.1,0.8,33.4-4.3c2.6-1.5,4.4-3.6,4.9-6c0.5-2.4,0.1-4.2-1.1-5.3c-4.5-4-18.6,0.4-23.2,1.9l-1.4,0.4l0.2-0.9
		c0.3-1.2,1.2-2.3,2.8-3.4l0,0c1.1-0.8,2.5-1.4,3.8-2.1c2.8-1.3,5.6-2.7,6.3-4.9c0.4-1.2,0-2.7-1-4.4c-2.1-3.6-5.5-5.6-10.4-6.3
		c-8.5-1.2-17.1,0.8-25.4,2.7l-1.3,0.3c-1.5,0.3-3,0.6-4.6,0.9c-6.2,1.2-12.7,2.4-17.3,6.7c-0.7,0.7-1.6,2.2-2.5,3.8
		c-1.9,3.3-4,7-6.3,7c0,0,0,0,0,0c-2.9,0-4.1-5.1-5.2-10.1c-0.7-2.9-1.4-6-2.3-7c-2.6-3-7-3.6-11.5-1.7c-1.6,0.6-3.1,1.5-4.5,2.3
		c-1.8,1-3.6,2-5.6,2.7c-5.6,2-13,0.9-18.9-2.8c-5-3.1-10.3-5.5-15.5-2.5c-0.7,0.4-1.4,0.9-2.1,1.4c-0.8,0.6-1.5,1.1-2.4,1.6
		c-5.8,3.2-12.2-4.3-16.4-9.3c-0.8-0.9-1.5-1.7-2-2.3c-4.1-4.3-10.4-9.3-17.7-8.5c-3.4,0.4-6.2,1.9-9.3,3.6
		c-3.5,1.9-7.1,3.9-11.5,3.8c-2.3,0-4.5-0.6-6.7-1.1c-0.9-0.2-1.9-0.5-2.8-0.7c-7.4-1.5-14.9-0.5-22.2,0.5l-50.1,6.5
		c5.9,0,11.9,0.3,17.9,0.6c3.7,0.2,7.2,0.4,10.7,0.5c2.1,0.1,4.4,0.1,6.8,0c11-0.1,23.5-0.1,31.2,7.1c0.5,0.5,1,1,1.5,1.5
		c1,1,1.9,2,3,2.7c5.7,3.5,13.1,2.6,18.1,1.5c1.2-0.2,2.8-0.9,4.7-1.7c4.4-1.8,10-4,13.4-2.4c1.3,0.6,2.2,1.8,2.7,3.4
		c0.6,1.9,0.4,3.9,0.1,5.8l0,0.2c-0.5,4.4,0.9,9.7,5,11.4c1.1,0.5,2.3,0.6,3.3,0.7c3.5,0.3,10.2,0.4,15-2.4c0.8-0.5,1.5-1,2.2-1.6
		c0.9-0.7,1.7-1.3,2.7-1.9c6.2-3.4,12.8-0.4,18.6,2.3c1.4,0.6,2.7,1.2,4,1.8c3.8,1.5,7.9,1.8,13.3,0.9c1.2-0.2,2.5-0.6,3.8-1
		C194.8,43.3,197,42.7,199.1,42.7z"/>
</g>
</svg>
