<?xml version="1.0" encoding="utf-8"?>
<!-- Generator: Adobe Illustrator 28.1.0, SVG Export Plug-In . SVG Version: 6.00 Build 0)  -->
<svg version="1.1" id="Layer_1" xmlns="http://www.w3.org/2000/svg" xmlns:xlink="http://www.w3.org/1999/xlink" x="0px" y="0px"
	 viewBox="0 0 201 76" style="enable-background:new 0 0 201 76;" xml:space="preserve">
<style type="text/css">
	.st0{fill:#FFFFFF;}
	.st1{fill:#D2BEA6;}
</style>
<g>
	<path class="st0" d="M199.4,39.9c-2.7-10.4-18.4-18.6-27.7-18.4c-6,0.1-11.7,1.9-17.5,3.3c-8,1.8-15.8,1.9-23.4-1.7
		c-6.7-3.1-12.5-0.7-18.8,2c-6.6,2.8-25.3,12-32.2,7.9c-3.2-1.8-1.2-11.6-5.4-15.2c-1.8-1.6-3.8-2.1-6.1-2.6
		c-0.4-0.1-21.8-4.2-40.6-8C14.3,4.5,2.2,2,0.2,1.3C16.4,8.8,32.5,17,48.9,23.9c-7.7,9.6,7.2,19.2,14.4,22.4c2.9,1.3,5.9,2.3,8.5,4
		c4.8,3,7.1,8.2,11.9,11.5c4.8,3.2,10.3,5.4,15.7,7.4c9.8,3.5,20.2,5.3,30.6,5.4c20.3,0.2,40.6-5.7,58-16.2
		c4.3-2.5,8.4-5.7,10.6-10.1C200,45.4,200.1,42.6,199.4,39.9L199.4,39.9z"/>
	<path class="st1" d="M131.2,75.1c-0.4,0-0.8,0-1.2,0c-10.7-0.1-21.1-2-30.8-5.5c-5.3-1.9-10.9-4.1-15.8-7.4
		c-2.4-1.6-4.2-3.7-5.9-5.8c-1.8-2.2-3.6-4.2-6-5.7c-1.9-1.2-4-2.1-6-2.9c-0.8-0.3-1.6-0.7-2.5-1.1c-5.4-2.4-15-8.4-16.6-15.2
		c-0.6-2.6-0.1-5.1,1.6-7.5c-10.9-4.7-21.8-9.9-32.4-15C10.5,6.7,5.2,4.2,0,1.7l0.4-0.9C2,1.4,11.5,3.5,27.8,6.7
		c18.9,3.8,40.4,7.9,40.6,8c2.1,0.4,4.3,0.9,6.3,2.7c2.3,2,2.9,5.8,3.3,9.1c0.4,2.7,0.7,5.3,2,6.1c5.9,3.4,21.6-3.5,29.1-6.8
		c1-0.4,1.9-0.8,2.6-1.1c6.3-2.7,12.3-5.3,19.2-2c6.7,3.2,14,3.7,23,1.7c1.3-0.3,2.6-0.6,3.9-0.9c4.5-1.1,9.1-2.2,13.7-2.3
		c0.1,0,0.2,0,0.3,0c9,0,24.4,7.6,27.7,18.1l0,0l0.2,0.7c0.8,3,0.5,6-0.9,8.8c-2.3,4.9-7,8.1-10.8,10.4
		C170.5,69.5,150.8,75.1,131.2,75.1z M5.1,3c3.7,1.8,7.4,3.5,11,5.3C26.9,13.4,38,18.8,49.1,23.5l0.6,0.3l-0.4,0.5
		c-1.8,2.3-2.4,4.7-1.8,7.1c1.6,6.5,10.8,12.2,16.1,14.5c0.8,0.4,1.6,0.7,2.4,1c2.1,0.9,4.2,1.8,6.2,3c2.5,1.6,4.4,3.8,6.2,5.9
		c1.7,2,3.4,4,5.7,5.6c4.8,3.2,10.3,5.4,15.6,7.3c9.6,3.5,19.9,5.3,30.5,5.4c19.8,0.3,39.7-5.3,57.7-16.1c3.7-2.2,8.2-5.3,10.4-9.9
		c1.2-2.5,1.5-5.1,0.9-7.7l-0.1-0.4c-2.6-10.1-18-18-26.9-18c-0.1,0-0.2,0-0.3,0c-4.6,0.1-9.1,1.2-13.5,2.3
		c-1.3,0.3-2.6,0.6-3.9,0.9c-9.2,2.1-16.8,1.5-23.7-1.7c-6.5-3.1-12.3-0.6-18.4,2c-0.7,0.3-1.6,0.7-2.6,1.1
		c-8.3,3.7-23.7,10.5-30.1,6.8c-1.7-1-2.1-3.7-2.5-6.8c-0.4-3.1-0.9-6.7-3-8.5c-1.7-1.4-3.4-2-5.9-2.5c-0.2,0-21.7-4.2-40.6-8
		C17.2,5.6,9.6,4,5.1,3z"/>
</g>
</svg>
