<?xml version="1.0" encoding="utf-8"?>
<!-- Generator: Adobe Illustrator 28.1.0, SVG Export Plug-In . SVG Version: 6.00 Build 0)  -->
<svg version="1.1" id="Layer_1" xmlns="http://www.w3.org/2000/svg" xmlns:xlink="http://www.w3.org/1999/xlink" x="0px" y="0px"
	 viewBox="0 0 246 160" style="enable-background:new 0 0 246 160;" xml:space="preserve">
<style type="text/css">
	.st0{fill:#E1C557;}
	.st1{fill:#D2BEA6;}
</style>
<g>
	<path class="st0" d="M162.8,50.6L41.4,157.8l19.2-48.6L0.5,151l79.9-65.7l-14.6,39.6l112-100.2l-2.8,27.6l70-51.8l-88.2,82.3
		L162.8,50.6z"/>
	<path class="st1" d="M40.2,159.6l19.4-49L0.8,151.4l-0.6-0.8l81.3-66.9L67,123.1l111.5-99.7l-2.8,27.8l69.1-51.1l0.6,0.8
		l-89.3,83.4l5.9-32.3L40.2,159.6z M61.8,107.8L42.7,156L163.5,49.2l-5.9,32.2l80.6-75.3l-63.8,47.3l2.7-27.5L64.7,126.5l14.6-39.7
		l-69,56.8L61.8,107.8z"/>
</g>
</svg>
