<?xml version="1.0" encoding="iso-8859-1"?>
<!-- Generator: Adobe Illustrator 28.0.0, SVG Export Plug-In . SVG Version: 6.00 Build 0)  -->
<svg version="1.1" id="GeorgeSamuel.me" xmlns="http://www.w3.org/2000/svg" xmlns:xlink="http://www.w3.org/1999/xlink" x="0px"
	 y="0px" viewBox="0 0 512 512" style="enable-background:new 0 0 512 512;" xml:space="preserve">
<g id="www.GeorgeSamuel.me">
	<rect x="0" style="fill:#111111;" width="512" height="512"/>
	<circle style="fill:#111111;" cx="256" cy="256" r="256"/>
	<path style="fill:#FFFFFF;" d="M237.4,159.632c-0.5,0.333-0.738,0.744-1.024,1.11c-3.317,4.25-6.629,8.503-9.943,12.755
		c-5.187,6.656-10.374,13.311-15.561,19.966c-0.202,0.259-0.398,0.522-0.608,0.774c-1.726,2.07-3.929,3.125-6.633,3.113
		c-2.431-0.011-4.473-0.927-6.119-2.698c-2.339-2.517-3.012-6.519-0.842-9.881c0.304-0.471,0.657-0.913,1.002-1.356
		c7.749-9.948,15.501-19.894,23.252-29.841c2.132-2.736,4.265-5.472,6.398-8.208c0.231-0.296,0.458-0.594,0.699-0.881
		c1.187-1.411,2.696-2.302,4.473-2.755c0.045-0.012,0.09-0.027,0.136-0.033c1.924-0.257,3.832-0.291,5.681,0.433
		c0.436,0.171,0.867,0.354,1.299,0.536c6.91,2.902,13.819,5.806,20.728,8.707c15.979,6.71,31.958,13.419,47.936,20.13
		c0.432,0.181,0.871,0.354,1.28,0.58c2.764,1.531,4.296,3.883,4.422,7.035c0.14,3.487-2.066,6.882-5.834,8.051
		c-1.797,0.557-3.606,0.508-5.387-0.117c-0.441-0.155-0.872-0.344-1.303-0.525c-20.856-8.765-41.712-17.531-62.569-26.295
		C238.41,160.033,237.931,159.847,237.4,159.632z"/>
	<path style="fill:#31B8B7;" d="M74.076,366.173c-3.192,0.081-6.975-2.113-7.991-6.123c-0.58-2.288-0.262-4.467,1.034-6.467
		c0.28-0.432,0.605-0.835,0.923-1.241c6.062-7.756,12.129-15.507,18.187-23.265c6.837-8.755,13.668-17.515,20.498-26.277
		c7.492-9.612,14.979-19.227,22.468-28.841c1.786-2.293,3.572-4.585,5.358-6.878c0.202-0.259,0.399-0.521,0.61-0.772
		c1.284-1.522,2.906-2.412,4.856-2.874c2.809-0.666,6.936,0.672,8.809,4.12c1.289,2.372,1.341,5.895-0.467,8.409
		c-0.274,0.38-0.561,0.751-0.849,1.121c-13.913,17.859-27.834,35.713-41.739,53.579c-8.061,10.357-16.095,20.735-24.142,31.104
		c-0.345,0.444-0.684,0.893-1.04,1.329c-1.299,1.589-2.977,2.549-4.978,2.94C75.111,366.134,74.589,366.13,74.076,366.173z"/>
	<path style="fill:#FFFFFF;" d="M260.002,289.31c0.045,4.689-3.025,8.217-7.104,8.789c-1.679,0.236-3.264-0.019-4.808-0.669
		c-2.72-1.146-5.441-2.289-8.162-3.432c-20.775-8.726-41.543-17.469-62.329-26.169c-7.648-3.201-15.34-6.3-23.011-9.447
		c-0.477-0.195-0.965-0.373-1.415-0.619c-2.936-1.602-4.399-4.103-4.486-7.43c0.211-3.201,1.672-5.628,4.536-7.112
		c2.194-1.137,4.495-1.238,6.809-0.367c1.534,0.578,3.045,1.218,4.562,1.839c6.025,2.469,12.049,4.943,18.073,7.414
		c3.467,1.422,6.941,2.828,10.401,4.268c2.724,1.134,5.425,2.324,8.145,3.468c17.62,7.408,35.242,14.81,52.862,22.215
		c0.475,0.2,0.962,0.38,1.414,0.624C258.378,284.237,259.858,286.679,260.002,289.31z"/>
	<path style="fill:#31B8B7;" d="M144.172,178.402c0.043-2.599,0.551-4.77,1.523-6.834c0.784-1.665,1.803-3.175,2.992-4.574
		c0.789-0.929,1.586-1.85,2.372-2.782c0.271-0.322,0.525-0.659,0.776-0.997c0.154-0.207,0.085-0.449-0.15-0.583
		c-1.066-0.604-2.219-0.997-3.381-1.355c-0.714-0.22-1.449-0.385-2.186-0.509c-0.932-0.157-1.865-0.141-2.77,0.206
		c-0.739,0.283-1.285,0.766-1.578,1.502c-0.138,0.346-0.229,0.712-0.321,1.074c-0.46,1.815-0.894,3.637-1.373,5.447
		c-0.456,1.721-1.014,3.411-1.686,5.061c-0.692,1.697-1.504,3.329-2.573,4.825c-0.657,0.92-1.401,1.76-2.278,2.476
		c-0.917,0.749-1.931,1.307-3.077,1.64c-0.457,0.133-0.914,0.19-1.38,0.235c-1.652,0.16-3.266-0.013-4.856-0.5
		c-1.304-0.4-2.555-0.92-3.759-1.551c-2.458-1.289-4.725-2.861-6.814-4.69c-0.144-0.126-0.206-0.333-0.118-0.368
		c0.082-0.033,0.162-0.083,0.248-0.096c4.441-0.674,7.968-2.861,10.642-6.448c1.099-1.475,1.949-3.089,2.581-4.815
		c0.564-1.539,1.101-3.087,1.652-4.631c0.52-1.455,1.01-2.922,1.665-4.325c0.317-0.678,0.66-1.345,1.021-2.002
		c0.317-0.577,0.732-1.087,1.199-1.553c1.011-1.01,2.246-1.475,3.655-1.568c1.138-0.074,2.252,0.099,3.341,0.361
		c2.325,0.56,4.586,1.319,6.704,2.458c2.127,1.143,4.01,2.593,5.569,4.446c0.757,0.9,1.404,1.874,1.921,2.932
		c0.123,0.252,0.25,0.502,0.384,0.748c0.121,0.224,0.337,0.288,0.599,0.184c0.218-0.086,0.432-0.182,0.649-0.27
		c1.625-0.654,3.315-0.97,5.064-1.012c3.051-0.073,5.943,0.65,8.746,1.771c1.875,0.75,3.658,1.685,5.287,2.893
		c1.556,1.154,2.91,2.502,4.024,4.092c1.339,1.912,2.198,4.024,2.595,6.317c0.119,0.687,0.109,1.4,0.122,2.101
		c0.01,0.583-0.263,0.788-0.786,0.624c-0.624-0.196-1.241-0.416-1.865-0.614c-0.356-0.113-0.718-0.207-1.08-0.303
		c-0.142-0.038-0.393,0.143-0.421,0.296c-0.033,0.184-0.072,0.368-0.085,0.554c-0.132,1.928-0.547,3.799-1.172,5.622
		c-0.473,1.379-1.11,2.681-1.927,3.893c-1.84,2.73-4.389,4.43-7.564,5.226c-1.324,0.332-2.682,0.408-4.035,0.515
		c-0.416,0.033-0.841-0.032-1.261-0.065c-0.374-0.029-0.746-0.077-1.119-0.114c-3.867-0.382-7.362-1.72-10.453-4.085
		c-0.783-0.6-1.485-1.29-2.124-2.044c-1.012-1.196-1.735-2.552-2.241-4.03C144.535,181.624,144.128,179.297,144.172,178.402z"/>
	<path style="fill:#FFFFFF;" d="M256.787,238.223c-0.448,0.176-0.922,0.104-1.386,0.105c-4.313,0.005-8.627,0.003-12.94,0.004
		c-0.516,0-1.032-0.005-1.547,0.013c-0.18,0.006-0.358,0.072-0.556,0.115c-0.106,0.332-0.228,0.638-0.302,0.954
		c-1.52,6.476-3.034,12.954-4.552,19.431c-0.203,0.866-0.417,1.73-0.631,2.594c-0.05,0.201-0.205,0.318-0.397,0.35
		c-0.229,0.038-0.465,0.054-0.698,0.054c-3.563,0.003-7.126,0.002-10.69,0.001c-0.141,0-0.281-0.005-0.422-0.013
		c-0.376-0.021-0.524-0.185-0.453-0.526c0.144-0.688,0.291-1.375,0.452-2.059c2.584-10.991,5.173-21.98,7.756-32.971
		c1.801-7.662,3.595-15.325,5.391-22.987c0.043-0.182,0.077-0.367,0.127-0.547c0.085-0.307,0.301-0.494,0.593-0.505
		c0.375-0.013,0.75-0.019,1.125-0.019c12.94-0.001,25.88-0.001,38.821-0.001c1.615,0,1.726-0.113,1.311,1.586
		c-0.81,3.322-1.562,6.659-2.34,9.989c-0.074,0.315-0.122,0.644-0.39,0.895c-0.494,0.133-1.012,0.07-1.525,0.07
		c-8.064,0.005-16.128,0.003-24.193,0.003c-0.891,0-1.782-0.002-2.672,0.004c-0.186,0.001-0.381,0.004-0.554,0.06
		c-0.118,0.038-0.241,0.15-0.3,0.261c-0.086,0.162-0.124,0.351-0.167,0.532c-0.723,3.054-1.444,6.109-2.163,9.165
		c-0.043,0.182-0.06,0.369-0.085,0.555c-0.023,0.166,0.141,0.4,0.291,0.405c0.468,0.015,0.937,0.033,1.405,0.033
		c4.267,0.002,8.533,0.001,12.8,0.002c0.422,0,0.844-0.002,1.266,0.007c0.505,0.012,0.642,0.192,0.521,0.722
		c-0.375,1.644-0.758,3.287-1.143,4.929c-0.449,1.916-0.906,3.83-1.355,5.745C257.1,237.544,257.04,237.915,256.787,238.223z"/>
	<path style="fill:#FFFFFF;" d="M371.223,321.558c0.168-0.038,0.303-0.088,0.439-0.094c0.374-0.016,0.749-0.016,1.124-0.016
		c8.999-0.001,17.997-0.001,26.995,0.001c0.701,0,1.394,0.006,2.09,0.187c1.417,0.368,2.802,1.698,2.825,3.602
		c0.007,0.612-0.064,1.211-0.205,1.809c-1.021,4.33-2.03,8.663-3.045,12.995c-0.342,1.459-0.729,2.909-1.026,4.377
		c-0.425,2.098-1.589,3.667-3.31,4.867c-1.785,1.244-3.785,1.822-5.946,1.858c-1.359,0.023-2.718,0.003-4.077,0.008
		c-0.327,0.001-0.654,0.024-0.98,0.046c-0.18,0.012-0.301,0.237-0.227,0.422c0.14,0.347,0.281,0.694,0.433,1.036
		c1.275,2.867,2.552,5.734,3.83,8.6c1.163,2.61,2.33,5.218,3.49,7.829c0.17,0.383,0.316,0.776,0.48,1.182
		c-0.149,0.086-0.261,0.197-0.385,0.214c-0.277,0.037-0.561,0.034-0.841,0.035c-3.328,0.002-6.655,0.002-9.983-0.001
		c-0.327,0-0.656-0.011-0.979-0.054c-0.124-0.016-0.28-0.107-0.342-0.211c-0.191-0.321-0.356-0.658-0.508-1
		c-1.509-3.379-3.013-6.76-4.519-10.139c-0.648-1.455-1.297-2.909-1.951-4.361c-0.095-0.211-0.22-0.409-0.34-0.608
		c-0.019-0.032-0.081-0.05-0.124-0.054c-0.033-0.003-0.092,0.02-0.101,0.045c-0.107,0.308-0.23,0.612-0.304,0.929
		c-1.06,4.513-2.112,9.028-3.167,13.543c-0.096,0.41-0.19,0.821-0.291,1.231c-0.133,0.539-0.292,0.658-0.894,0.677
		c-0.187,0.006-0.375,0.005-0.562,0.005c-2.625,0-5.249,0.003-7.874-0.004c-0.323-0.001-0.648-0.05-0.968-0.1
		c-0.071-0.011-0.169-0.118-0.179-0.191c-0.018-0.133,0.008-0.276,0.039-0.41c0.342-1.507,0.683-3.014,1.036-4.519
		c1.848-7.888,3.7-15.775,5.551-23.662c1.498-6.383,2.996-12.766,4.498-19.147C370.999,322.167,371.124,321.863,371.223,321.558z
		 M377.198,340.67c0.343,0.221,0.679,0.168,1.002,0.169c1.594,0.005,3.188,0.003,4.782,0.003c2.25,0,4.5,0.002,6.751-0.003
		c0.279-0.001,0.559-0.029,0.836-0.068c0.078-0.011,0.18-0.089,0.209-0.161c0.088-0.216,0.159-0.44,0.213-0.667
		c0.595-2.507,1.186-5.014,1.776-7.522c0.021-0.09,0.014-0.186,0.023-0.278c0.013-0.128-0.105-0.29-0.229-0.304
		c-0.185-0.021-0.371-0.053-0.556-0.053c-3.985-0.003-7.97-0.003-11.954,0c-0.186,0-0.379,0.005-0.555,0.057
		c-0.121,0.036-0.242,0.138-0.315,0.244c-0.076,0.111-0.103,0.259-0.135,0.395c-0.561,2.37-1.123,4.74-1.675,7.113
		C377.286,339.954,377.252,340.325,377.198,340.67z"/>
	<path style="fill:#FFFFFF;" d="M199.522,351.342c-0.082,0.254-0.205,0.558-0.279,0.873c-1.032,4.377-2.059,8.754-3.085,13.133
		c-0.31,1.323-0.606,2.648-0.921,3.97c-0.086,0.36-0.219,0.709-0.315,1.015c-0.404,0.235-0.786,0.181-1.156,0.182
		c-1.922,0.006-3.844,0.003-5.766,0.003c-0.797,0-1.594,0.003-2.391-0.004c-0.233-0.002-0.465-0.032-0.698-0.056
		c-0.165-0.017-0.305-0.231-0.277-0.418c0.027-0.185,0.047-0.372,0.09-0.554c0.857-3.648,1.719-7.295,2.575-10.943
		c1.552-6.612,3.101-13.225,4.652-19.837c0.931-3.967,1.868-7.933,2.797-11.901c0.478-2.044,1.692-3.519,3.495-4.532
		c0.955-0.537,1.986-0.826,3.09-0.823c0.234,0.001,0.469-0.001,0.703-0.001c7.5,0,15.001,0,22.501,0c0.375,0,0.75-0.004,1.125,0.011
		c0.616,0.026,1.201,0.19,1.757,0.453c1.703,0.805,2.319,2.635,2.112,4.088c-0.066,0.463-0.176,0.921-0.283,1.377
		c-2.897,12.359-5.797,24.717-8.697,37.075c-0.364,1.55-0.727,3.101-1.096,4.65c-0.087,0.364-0.178,0.729-0.303,1.081
		c-0.04,0.111-0.184,0.219-0.304,0.259c-0.173,0.057-0.368,0.069-0.553,0.069c-2.906,0.003-5.813,0.002-8.719,0
		c-0.094,0-0.187-0.01-0.281-0.016c-0.405-0.026-0.548-0.228-0.465-0.67c0.044-0.23,0.1-0.457,0.153-0.685
		c1.303-5.564,2.607-11.128,3.908-16.692c0.064-0.273,0.112-0.55,0.156-0.827c0.037-0.237-0.146-0.427-0.417-0.444
		c-0.187-0.012-0.374-0.025-0.561-0.025c-3.844-0.002-7.688-0.003-11.532,0.001C200.214,351.153,199.878,351.109,199.522,351.342z
		 M204.093,331.881c-0.114,0.365-0.245,0.713-0.33,1.072c-0.541,2.276-1.073,4.555-1.603,6.834c-0.053,0.226-0.074,0.46-0.105,0.691
		c-0.016,0.124,0.111,0.295,0.224,0.306c0.232,0.022,0.464,0.055,0.695,0.055c3.887,0.003,7.774,0.004,11.662,0
		c0.278,0,0.556-0.035,0.802-0.052c0.088-0.107,0.181-0.17,0.201-0.251c0.64-2.636,1.275-5.274,1.903-7.913
		c0.053-0.221,0.044-0.456,0.062-0.662c-0.079-0.052-0.116-0.095-0.158-0.101c-0.748-0.106-10.411-0.16-12.771-0.07
		C204.493,331.796,204.312,331.845,204.093,331.881z"/>
	<path style="fill:#FFFFFF;" d="M343.606,321.448c3.845,0,7.69,0,11.536,0c0.609,0,1.209,0.025,1.81,0.184
		c2.14,0.563,3.065,2.541,2.865,4.276c-0.059,0.51-0.183,1.015-0.3,1.517c-2.376,10.175-4.757,20.349-7.135,30.523
		c-0.512,2.19-1.015,4.382-1.525,6.573c-0.064,0.274-0.138,0.545-0.211,0.817c-0.68,2.524-2.346,4.105-4.775,4.916
		c-0.524,0.175-1.105,0.19-1.663,0.25c-0.325,0.035-0.656,0.013-0.984,0.013c-7.362,0-14.724,0.003-22.087-0.004
		c-0.655-0.001-1.317-0.01-1.962-0.106c-2.106-0.312-3.47-2.078-3.27-4.205c0.048-0.511,0.148-1.021,0.265-1.522
		c2.266-9.719,4.538-19.438,6.81-29.156c0.682-2.92,1.357-5.842,2.051-8.759c0.537-2.26,1.953-3.798,4.025-4.759
		c0.816-0.378,1.684-0.564,2.591-0.558c1.266,0.009,2.532,0.001,3.798,0.001C338.166,321.448,340.886,321.448,343.606,321.448z
		 M334.417,331.865c-0.244,0.413-0.322,0.827-0.418,1.237c-1.465,6.244-2.936,12.487-4.403,18.73
		c-0.557,2.37-1.112,4.74-1.665,7.111c-0.053,0.228-0.094,0.458-0.13,0.689c-0.054,0.351,0.098,0.557,0.421,0.575
		c0.234,0.013,0.468,0.022,0.702,0.022c3.795,0.001,7.59,0.001,11.385,0c0.234,0,0.469-0.005,0.702-0.024
		c0.201-0.017,0.353-0.136,0.418-0.322c0.092-0.264,0.165-0.535,0.229-0.807c2.029-8.612,4.056-17.225,6.08-25.838
		c0.085-0.364,0.139-0.735,0.205-1.103c0.021-0.116-0.111-0.296-0.221-0.306c-0.186-0.017-0.373-0.043-0.559-0.043
		c-3.982-0.003-7.965-0.004-11.947,0.001C334.94,331.786,334.664,331.839,334.417,331.865z"/>
	<path style="fill:#FFFFFF;" d="M259.295,340.739c0.012-0.218-0.005-0.402,0.034-0.572c0.464-2.009,0.936-4.015,1.407-6.022
		c0.118-0.502,0.251-1,0.355-1.505c0.046-0.224,0.036-0.46,0.05-0.673c-0.118-0.064-0.194-0.121-0.281-0.148
		c-0.088-0.027-0.185-0.031-0.279-0.031c-4.126-0.002-8.252-0.003-12.378,0c-0.138,0-0.281,0.027-0.411,0.072
		c-0.079,0.027-0.166,0.101-0.199,0.177c-0.092,0.213-0.178,0.432-0.231,0.657c-1.511,6.431-3.018,12.863-4.525,19.294
		c-0.513,2.189-1.032,4.378-1.537,6.569c-0.104,0.453-0.17,0.915-0.234,1.376c-0.009,0.062,0.086,0.19,0.149,0.201
		c0.273,0.049,0.551,0.091,0.827,0.091c2.579,0.007,5.158,0.004,7.736,0.004c1.313,0,2.626,0.004,3.939-0.006
		c0.275-0.002,0.549-0.058,0.806-0.087c0.252-0.461,0.336-0.922,0.441-1.376c0.487-2.099,0.974-4.199,1.468-6.296
		c0.086-0.364,0.202-0.721,0.307-1.09c0.137-0.05,0.264-0.122,0.398-0.139c0.231-0.029,0.467-0.031,0.701-0.031
		c2.72-0.002,5.439-0.003,8.159,0.002c0.279,0,0.558,0.036,0.836,0.062c0.119,0.011,0.238,0.176,0.222,0.309
		c-0.033,0.278-0.051,0.56-0.115,0.832c-0.912,3.876-1.841,7.749-2.742,11.628c-0.376,1.616-1.205,2.938-2.455,4.003
		c-1.576,1.341-3.389,2.161-5.456,2.375c-0.605,0.062-1.216,0.098-1.824,0.098c-6.095,0.007-12.191,0.009-18.286-0.001
		c-0.701-0.001-1.405-0.063-2.102-0.141c-0.898-0.101-1.728-0.432-2.486-0.916c-1.707-1.09-2.559-2.794-2.151-4.951
		c0.156-0.828,0.376-1.644,0.568-2.465c2.612-11.129,5.223-22.258,7.836-33.387c0.161-0.684,0.34-1.364,0.499-2.049
		c0.661-2.858,3.596-5.192,6.601-5.154c0.656,0.008,1.313,0,1.969,0c7.127,0,14.254,0,21.381,0.001c0.656,0,1.302,0.016,1.95,0.187
		c1.709,0.452,3.005,2.011,2.835,4.155c-0.037,0.465-0.133,0.929-0.237,1.385c-0.911,3.973-1.828,7.944-2.748,11.915
		c-0.106,0.456-0.23,0.907-0.364,1.355c-0.056,0.187-0.206,0.31-0.41,0.331c-0.186,0.019-0.374,0.028-0.561,0.028
		c-2.86,0.002-5.72,0.003-8.581-0.002C259.899,340.803,259.622,340.764,259.295,340.739z"/>
	<path style="fill:#FFFFFF;" d="M353.928,214.643c-0.503,0.18-0.976,0.111-1.441,0.112c-3.796,0.006-7.593,0.003-11.389,0.004
		c-0.422,0-0.844,0.001-1.265,0.011c-0.384,0.01-0.573,0.171-0.677,0.574c-0.094,0.363-0.178,0.728-0.264,1.092
		c-1.729,7.387-3.457,14.774-5.187,22.161c-1.709,7.296-3.421,14.59-5.133,21.885c-0.075,0.319-0.163,0.635-0.248,0.952
		c-0.054,0.2-0.195,0.317-0.391,0.352c-0.183,0.032-0.371,0.053-0.557,0.053c-3.656,0.003-7.312,0.003-10.967-0.001
		c-0.185,0-0.374-0.025-0.552-0.071c-0.07-0.018-0.172-0.13-0.167-0.19c0.033-0.371,0.066-0.745,0.148-1.107
		c0.278-1.233,0.577-2.462,0.867-3.693c1.737-7.385,3.476-14.77,5.21-22.156c1.455-6.201,2.905-12.403,4.355-18.604
		c0.064-0.273,0.114-0.549,0.161-0.825c0.029-0.168-0.137-0.397-0.29-0.402c-0.421-0.014-0.843-0.031-1.264-0.031
		c-3.75-0.002-7.499-0.001-11.249-0.002c-0.422,0-0.843-0.008-1.265-0.019c-0.223-0.006-0.366-0.156-0.338-0.349
		c0.041-0.278,0.073-0.559,0.137-0.832c0.814-3.465,1.633-6.928,2.454-10.391c0.054-0.226,0.116-0.456,0.22-0.66
		c0.055-0.108,0.199-0.191,0.322-0.237c0.127-0.047,0.276-0.045,0.415-0.049c0.328-0.007,0.656-0.006,0.984-0.006
		c12.842,0,25.684-0.001,38.526,0.002c0.468,0,0.935,0.023,1.403,0.043c0.17,0.007,0.324,0.225,0.3,0.406
		c-0.025,0.185-0.044,0.372-0.086,0.554c-0.821,3.511-1.642,7.022-2.472,10.532C354.153,214.064,354.023,214.364,353.928,214.643z"
		/>
	<path style="fill:#FFFFFF;" d="M163.794,230.978c0-2.178,0.452-3.634,1.308-4.966c0.202-0.314,0.433-0.611,0.663-0.907
		c4.118-5.283,8.237-10.565,12.359-15.845c0.317-0.406,0.629-0.82,0.989-1.186c4.149-4.216,11.036-3.004,13.526,2.077
		c1.34,2.735,1.128,5.446-0.486,8.03c-0.297,0.475-0.663,0.907-1.008,1.351c-1.638,2.108-3.281,4.213-4.92,6.32
		c-0.201,0.258-0.39,0.526-0.579,0.792c-0.102,0.143-0.022,0.39,0.153,0.468c0.256,0.115,0.514,0.226,0.774,0.332
		c2.555,1.046,5.112,2.089,7.667,3.137c0.476,0.195,0.959,0.381,1.417,0.614c2.255,1.153,3.752,2.955,4.336,5.415
		c0.959,4.036-1.141,7.749-4.546,9.318c-1.993,0.919-4.059,1.051-6.158,0.37c-0.4-0.13-0.793-0.284-1.182-0.443
		c-6.281-2.57-12.561-5.142-18.839-7.717c-0.432-0.177-0.871-0.353-1.272-0.589C165.27,235.945,163.894,233.541,163.794,230.978z"/>
	<path style="fill:#31B8B7;" d="M167.305,321.518c5.158,0,10.315-0.001,15.473,0.001c0.422,0,0.843,0.013,1.265,0.026
		c0.174,0.006,0.363,0.22,0.337,0.38c-0.061,0.37-0.114,0.742-0.199,1.106c-0.542,2.326-1.09,4.651-1.64,6.975
		c-0.086,0.365-0.181,0.728-0.288,1.087c-0.089,0.299-0.313,0.474-0.616,0.494c-0.514,0.035-1.029,0.051-1.544,0.051
		c-6.517,0.003-13.035,0.002-19.552,0.002c-0.375,0-0.75-0.004-1.125,0.003c-0.281,0.005-0.562,0.017-0.843,0.039
		c-0.408,0.031-0.615,0.195-0.718,0.55c-0.013,0.045-0.023,0.091-0.034,0.136c-0.596,2.554-1.194,5.108-1.785,7.663
		c-0.041,0.178-0.05,0.368-0.041,0.55c0.004,0.072,0.083,0.171,0.152,0.204c0.123,0.058,0.264,0.1,0.399,0.106
		c0.421,0.017,0.844,0.017,1.266,0.017c3.141,0.001,6.283,0.001,9.424,0.001c0.328,0,0.656,0.002,0.985,0
		c1.004-0.007,1.257,0.02,0.965,1.197c-0.631,2.545-1.206,5.105-1.806,7.658c-0.053,0.227-0.12,0.452-0.188,0.675
		c-0.089,0.296-0.279,0.489-0.596,0.505c-0.468,0.024-0.937,0.039-1.405,0.04c-3.329,0.003-6.658-0.002-9.987,0.006
		c-0.466,0.001-0.934,0.044-1.398,0.094c-0.189,0.02-0.357,0.153-0.42,0.336c-0.121,0.354-0.224,0.716-0.309,1.081
		c-1.249,5.335-2.493,10.671-3.739,16.007c-0.075,0.319-0.16,0.636-0.24,0.954c-0.205,0.815-0.273,0.88-1.16,0.889
		c-1.36,0.013-2.719,0.006-4.079,0.007c-1.313,0-2.626,0.004-3.939-0.005c-0.278-0.002-0.562-0.028-0.831-0.094
		c-0.102-0.025-0.227-0.191-0.238-0.303c-0.022-0.228-0.001-0.469,0.051-0.693c0.561-2.418,1.133-4.833,1.7-7.249
		c1.477-6.292,2.952-12.584,4.428-18.876c1.594-6.793,3.182-13.588,4.79-20.379c0.303-1.279,0.254-1.241,1.59-1.241
		C156.708,321.518,162.006,321.518,167.305,321.518z"/>
	<path style="fill:#31B8B7;" d="M119.618,189.772c1.083-0.087,2.202,0.235,3.296,0.684c3.031,1.246,6.062,2.495,9.095,3.739
		c8.058,3.306,16.117,6.61,24.174,9.917c0.519,0.213,1.051,0.413,1.537,0.689c2.861,1.627,4.335,4.12,4.256,7.392
		c-0.062,2.578-1.232,4.686-3.33,6.222c-1.524,1.115-3.257,1.625-5.141,1.602c-0.85-0.01-1.673-0.206-2.467-0.495
		c-0.836-0.304-1.664-0.631-2.486-0.968c-10.396-4.268-20.79-8.539-31.185-12.811c-0.52-0.214-1.051-0.405-1.552-0.658
		c-2.571-1.295-4.163-3.376-4.508-6.221c-0.402-3.314,0.882-5.964,3.668-7.829C116.129,190.263,117.645,189.684,119.618,189.772z"/>
	<path style="fill:#31B8B7;" d="M298.731,321.522c5.157,0,10.313,0,15.47,0.001c0.375,0,0.75,0.002,1.125,0.013
		c0.327,0.01,0.48,0.222,0.422,0.574c-0.046,0.277-0.088,0.556-0.152,0.83c-0.41,1.731-0.826,3.461-1.24,5.191
		c-0.228,0.956-0.454,1.914-0.684,2.87c-0.087,0.36-0.325,0.569-0.69,0.596c-0.42,0.031-0.842,0.041-1.264,0.041
		c-2.578,0.004-5.157,0.002-7.735,0.002c-0.281,0-0.563-0.003-0.844,0.001c-1.956,0.029-1.662-0.051-2.083,1.711
		c-1.501,6.285-2.97,12.577-4.444,18.868c-1.26,5.379-2.51,10.761-3.768,16.141c-0.117,0.501-0.243,1.001-0.387,1.495
		c-0.086,0.295-0.305,0.462-0.623,0.474c-0.281,0.011-0.562,0.026-0.843,0.026c-2.438,0.002-4.875,0.003-7.313-0.001
		c-0.327-0.001-0.654-0.027-0.981-0.054c-0.232-0.019-0.402-0.249-0.374-0.503c0.025-0.232,0.051-0.466,0.104-0.692
		c1.437-6.107,2.879-12.214,4.316-18.321c1.405-5.971,2.804-11.943,4.203-17.915c0.053-0.227,0.078-0.461,0.108-0.693
		c0.031-0.245-0.141-0.462-0.396-0.478c-0.467-0.029-0.935-0.057-1.403-0.058c-2.625-0.005-5.25-0.002-7.876-0.003
		c-0.375,0-0.75,0.003-1.125-0.007c-0.968-0.026-1.055-0.211-0.845-1.093c0.629-2.642,1.23-5.291,1.841-7.936
		c0.011-0.046,0.025-0.09,0.038-0.135c0.238-0.878,0.309-0.943,1.269-0.944c4.594-0.004,9.188-0.002,13.782-0.003
		C297.137,321.522,297.934,321.522,298.731,321.522z"/>
	<path style="fill:#31B8B7;" d="M290.552,261.535c-0.365,0.221-0.701,0.177-1.025,0.179c-1.266,0.007-2.531,0.004-3.797,0.004
		c-2.063,0-4.125,0-6.188-0.001c-0.281,0-0.563-0.003-0.844-0.014c-0.363-0.015-0.525-0.202-0.464-0.53
		c0.06-0.322,0.118-0.646,0.193-0.965c1.145-4.877,2.293-9.753,3.44-14.63c1.083-4.603,2.168-9.206,3.25-13.809
		c1.383-5.879,2.766-11.758,4.146-17.638c0.781-3.327,1.555-6.656,2.336-9.984c0.107-0.455,0.231-0.907,0.358-1.357
		c0.055-0.196,0.212-0.317,0.404-0.346c0.276-0.042,0.558-0.068,0.837-0.068c3.328-0.004,6.656-0.004,9.984,0
		c0.28,0,0.56,0.034,0.838,0.064c0.226,0.024,0.391,0.276,0.342,0.522c-0.091,0.459-0.183,0.918-0.29,1.373
		c-1.74,7.382-3.49,14.763-5.223,22.147c-2.011,8.569-4.006,17.142-6.011,25.713c-0.65,2.781-1.304,5.561-1.965,8.339
		C290.792,260.894,290.65,261.238,290.552,261.535z"/>
	<path style="fill:#FFFFFF;" d="M423.086,321.627c0.188,0.444,0.288,0.946,0.407,1.445c0.856,3.599,1.717,7.196,2.579,10.794
		c0.043,0.181,0.121,0.353,0.186,0.529c0.047,0.129,0.265,0.193,0.34,0.099c0.232-0.293,0.471-0.582,0.687-0.886
		c2.603-3.668,5.202-7.34,7.807-11.007c0.269-0.379,0.482-0.809,0.941-1.115c0.176-0.01,0.407-0.034,0.638-0.034
		c2.905-0.003,5.811-0.003,8.716,0c0.186,0,0.375,0.015,0.555,0.058c0.056,0.013,0.116,0.14,0.119,0.217
		c0.003,0.086-0.041,0.185-0.092,0.26c-0.235,0.35-0.477,0.695-0.721,1.039c-5.119,7.226-10.238,14.452-15.357,21.678
		c-0.163,0.229-0.316,0.466-0.488,0.687c-0.324,0.416-0.495,0.883-0.614,1.398c-0.908,3.923-1.841,7.841-2.762,11.761
		c-0.856,3.647-1.706,7.295-2.564,10.942c-0.064,0.27-0.167,0.533-0.274,0.79c-0.03,0.072-0.131,0.142-0.212,0.16
		c-0.181,0.042-0.369,0.069-0.554,0.07c-2.905,0.004-5.811,0.003-8.716,0.002c-0.14,0-0.281-0.014-0.421-0.026
		c-0.266-0.022-0.445-0.228-0.401-0.463c0.026-0.138,0.057-0.275,0.089-0.411c0.928-3.967,1.856-7.934,2.785-11.9
		c0.844-3.602,1.682-7.205,2.545-10.802c0.146-0.611,0.157-1.183,0.008-1.795c-1.051-4.322-2.078-8.651-3.114-12.977
		c-0.763-3.188-1.528-6.375-2.288-9.563c-0.054-0.227-0.077-0.461-0.108-0.693c-0.022-0.162,0.152-0.394,0.302-0.402
		c0.281-0.014,0.562-0.03,0.842-0.03c2.671-0.002,5.342-0.004,8.014,0.002C422.324,321.453,422.71,321.375,423.086,321.627z"/>
	<path style="fill:#31B8B7;" d="M154.749,280.143c-0.056-3.163,2.031-6.711,6.129-7.815c1.568-0.422,3.152-0.384,4.697,0.165
		c0.793,0.282,1.577,0.591,2.355,0.91c7.532,3.086,15.062,6.177,22.591,9.268c0.432,0.178,0.87,0.349,1.284,0.565
		c2.15,1.123,3.619,2.848,4.178,5.204c0.994,4.186-1.104,7.65-4.23,9.204c-2.113,1.05-4.302,1.216-6.531,0.389
		c-1.052-0.39-2.091-0.816-3.13-1.242c-7.272-2.979-14.543-5.961-21.813-8.945c-0.346-0.142-0.69-0.292-1.023-0.46
		c-2.272-1.146-3.69-2.982-4.302-5.433C154.809,281.369,154.814,280.748,154.749,280.143z"/>
	<path style="fill:#31B8B7;" d="M119.608,249.602c-0.033-1.809,0.532-3.418,1.607-4.85c0.844-1.125,1.718-2.227,2.581-3.337
		c3.311-4.254,6.623-8.507,9.936-12.759c0.259-0.333,0.514-0.67,0.791-0.988c1.31-1.503,2.949-2.371,4.915-2.765
		c3.713-0.745,7.913,1.602,9.154,5.33c0.807,2.424,0.54,4.707-0.766,6.881c-0.216,0.36-0.477,0.696-0.735,1.029
		c-4.174,5.364-8.355,10.723-12.523,16.092c-0.939,1.209-2.064,2.16-3.477,2.771c-1.005,0.434-2.064,0.689-3.136,0.682
		c-4.101-0.028-7.358-2.63-8.205-6.548C119.641,250.64,119.652,250.115,119.608,249.602z"/>
</g>
</svg>
