<svg id="GeorgeSamuel.me" xmlns="http://www.w3.org/2000/svg" viewBox="0 0 512 512"><defs><style>.cls-1{fill:#015291;}.cls-2{fill:#fff;}</style></defs><g id="www.GeorgeSamuel.me"><rect class="cls-1" width="512" height="512"/><path class="cls-2" d="M426.36,286.77h23.4a26.42,26.42,0,0,1,9.41,1.91c5.38,2,8.3,5.94,9,11.66.87,7.27-1.43,13.45-6.28,18.78-1,1.1-2.17,2.06-3.26,3.08-.16.15-.33.29-.49.45-.81.83-.75,1.31.11,2.07a31.88,31.88,0,0,1,2.35,2.3,10.76,10.76,0,0,1,2.79,7.1A25.58,25.58,0,0,1,458.2,351a16.33,16.33,0,0,1-3.06,3.1,30,30,0,0,1-8.95,4.73A61.36,61.36,0,0,1,429,361.48c-4.75.17-9.51.44-14.27.41a45.84,45.84,0,0,1-13.54-2.06,38.86,38.86,0,0,1-9.93-4.6,37.16,37.16,0,0,1-10.5-10.48,44.24,44.24,0,0,1-5.9-12.79c-.8-2.87-1.29-5.84-1.92-8.76,0-.22,0-.44-.09-.66-.24-1.14-.73-1.34-1.62-.63s-1.83,1.52-2.74,2.28l-10.82,9.1q-5.26,4.43-10.55,8.82c-.77.64-1.59,1.24-2.39,1.87a4.46,4.46,0,0,0-.7.59.52.52,0,0,0,.34.89,3.45,3.45,0,0,0,.79,0l14.79-.54c1,0,2.11-.06,3.16-.15A4.52,4.52,0,0,1,367,346.3a68.07,68.07,0,0,0,17.19,13.27,6.85,6.85,0,0,1,1.4,1c.69.65.51,1.3-.43,1.52a6.32,6.32,0,0,1-1.57.11c-5.91-.05-11.81-.16-17.71-.16-11.46,0-22.92.1-34.37.15q-13.69.06-27.37.09c-.63,0-1.45.24-1.74-.56s.46-1.08.89-1.47c1.76-1.6,3.55-3.17,5.34-4.74,2-1.75,4-3.48,6-5.23l10-8.83q8.67-7.67,17.35-15.3c5.43-4.77,10.9-9.48,16.32-14.26,5.68-5,11.31-10.09,17-15.11,2.57-2.28,5.2-4.5,7.77-6.77.72-.64,1.33-1.4,2-2.1.52-.54,1-1.23,1.89-.93s.75,1.11.79,1.81c.39,6.08,1.3,12.09,2.27,18.09.7,4.31,1.45,8.6,2.28,12.88a47.13,47.13,0,0,0,3.2,10.47,24.66,24.66,0,0,0,2.43,4.23,32.66,32.66,0,0,0,14.53,11.25,33.81,33.81,0,0,0,9.49,2.17c1.23.13,2.46.18,3.69.27a41.52,41.52,0,0,0,10.14-.6,11.41,11.41,0,0,0,5.58-2.84,5.71,5.71,0,0,0,1.79-3.61c.62-4.55-2-8-6.18-8.66-1.87-.28-3.76-.47-5.64-.63-6.52-.52-13-.35-19.56-.22-2.94.05-3.28-.17-4.22-2.89-.84-2.41-1.73-4.81-2.57-7.22a24.8,24.8,0,0,1-.83-2.79c-.34-1.48-.1-1.75,1.38-1.72.75,0,1.5.06,2.24.09a161.47,161.47,0,0,0,23.38-.37c2.15-.21,4.29-.5,6.42-.82a21.78,21.78,0,0,0,7.84-2.67,6.22,6.22,0,0,0,2-8.53,4.62,4.62,0,0,0-3-2,24.12,24.12,0,0,0-7.08-.61c-1.37.05-2.73.13-4.1.12q-15-.11-30-.25c-1.9,0-2.24-.34-2.52-2.29l-.87-6.15c-.11-.74-.27-1.47-.35-2.22a20.8,20.8,0,0,1-.15-2.37c0-1.66.4-2,2-2,2,0,4.06.05,6.08.05h18.91Z"/><path class="cls-2" d="M148.79,201.56a11.07,11.07,0,0,0-.95,1.14c-1.28,2.16-2.52,4.33-3.8,6.49q-5.06,8.59-10.14,17.19c-2.82,4.73-5.69,9.42-8.51,14.15-1.6,2.69-3.15,5.41-4.73,8.11-.46.79-1,1.57-1.46,2.35a7.65,7.65,0,0,0-.43.67c-.39.81-.13,1.29.77,1.33s2.11,0,3.17,0c5.24,0,10.49,0,15.73-.06a2.54,2.54,0,0,1,2.81,1.84c.84,2.41,1.73,4.81,2.59,7.21.36,1,.75,2,1,3,.38,1.33,0,1.78-1.38,1.77l-45.62,0h-4c-1.2,0-1.51-.48-1.1-1.59a6.27,6.27,0,0,1,.41-.82c2.81-4.79,5.6-9.59,8.44-14.36,5.06-8.48,10.16-16.92,15.21-25.4,3.5-5.86,6.92-11.77,10.41-17.64s7.13-11.75,10.58-17.69c4.48-7.69,8.84-15.45,13.25-23.18.36-.62.71-1.33,1.53-1.24s.95.81,1.17,1.45c.89,2.67,1.75,5.36,2.69,8,1.65,4.61,3.34,9.2,5,13.79,3.07,8.35,6.17,16.69,9.22,25.06,2.8,7.69,5.55,15.41,8.35,23.11,2.07,5.67,4.19,11.32,6.27,17q2,5.32,3.89,10.68c.85,2.39.46,2.88-2,2.86-3.88,0-7.76,0-11.64,0-2.31,0-3-.5-3.74-2.71-1-2.88-2-5.74-3-8.59q-3.15-8.7-6.33-17.39c-1.14-3.1-2.34-6.18-3.49-9.28q-2.64-7.12-5.23-14.27c-1.42-3.89-2.82-7.79-4.24-11.68A11.49,11.49,0,0,0,148.79,201.56Z"/><path class="cls-2" d="M204.46,221.6a10.06,10.06,0,0,0,1.13-1.32q4.4-7.69,8.73-15.41a16.54,16.54,0,0,1,3.14-4.54,6.33,6.33,0,0,1,7.82-.83,4.52,4.52,0,0,1,1.64,1.84c1.41,2.59,2.73,5.23,4.06,7.87q3.45,6.84,6.87,13.7c2.5,5,5,10,7.45,15,1.93,3.86,3.92,7.69,5.86,11.55q3.76,7.42,7.49,14.87a4,4,0,0,1,.22.47c.51,1.28.15,1.86-1.21,1.87-2.38,0-4.76,0-7.14,0-2.11,0-4.23,0-6.34,0a2.89,2.89,0,0,1-3-1.78l-6.9-14.27q-2-4.16-4.07-8.31l-6.81-13.87c-1.38-2.81-2.76-5.61-4.18-8.39a1.67,1.67,0,0,0-.88-.86c-.57-.15-.79.43-1,.85q-4,6.78-7.92,13.57c-2,3.46-4.11,6.89-6.12,10.36-1.23,2.13-2.38,4.31-3.57,6.47l-.12.24c-.28.56-.58,1.15-1.32,1.1s-1-.65-1.19-1.25c-.94-2.66-1.86-5.33-2.82-8q-3.81-10.56-7.66-21.12c-1.82-5-3.7-10-5.48-15-2.27-6.43-4.46-12.9-6.71-19.34-.74-2.12-1.56-4.22-2.33-6.33q-2.53-6.94-5.06-13.9-2.7-7.46-5.37-14.92a13,13,0,0,1-.6-2c-.22-1.14.18-1.64,1.34-1.5a39.72,39.72,0,0,1,5.86.93,20.8,20.8,0,0,1,14.05,12c1.28,2.8,2.21,5.75,3.27,8.64,1.16,3.15,2.27,6.3,3.4,9.46,1.88,5.22,3.73,10.45,5.62,15.67q3.9,10.74,7.82,21.48c.47,1.28.92,2.57,1.4,3.85A8.44,8.44,0,0,0,204.46,221.6Z"/><path class="cls-2" d="M125.9,288.28l14.12-.21c.62,0,1.24-.05,1.85-.09,1.49-.09,2,.53,1.39,1.93s-1.2,2.55-1.81,3.82c-1.44,3-2.9,5.94-4.3,8.93a2.35,2.35,0,0,1-2.56,1.39c-5-.11-10-.26-15.07-.22-4.63,0-9.25.28-13.87.45a24,24,0,0,0-5.16,1.06,23.42,23.42,0,0,0-6.74,3,24.39,24.39,0,0,0-8,8.05,2.37,2.37,0,0,0-.19.35c-.42.9-.1,1.38.87,1.27.53-.06,1-.21,1.56-.27,3-.32,6-.81,9.07-.9,4.4-.14,8.81,0,13.21,0,1.24,0,2.47,0,3.7.1s2.64.13,4,.24c1.09.09,1.5.59,1.33,1.66a5.24,5.24,0,0,1-.5,1.49c-1.32,2.69-2.69,5.36-4,8.05a2.06,2.06,0,0,1-2.07,1.33c-1.28,0-2.56-.05-3.83,0-4.5.07-9,0-13.48.29a55.26,55.26,0,0,0-8.48,1.26c-4.32.92-7.8,3.4-10.85,6.5a54.38,54.38,0,0,0-6.81,8.9A103.73,103.73,0,0,0,61,361.7,3.48,3.48,0,0,1,57.24,364c-3.88-.07-7.75,0-11.63,0-.78,0-1.69.27-2.22-.49s.06-1.61.41-2.33c2.13-4.36,4.31-8.69,6.42-13.05,2.31-4.76,4.54-9.55,6.84-14.31q3.73-7.74,7.57-15.43c1.65-3.31,3.23-6.67,5.13-9.84,4-6.65,9.25-12,16.51-15.06,1.5-.64,3-1.16,4.59-1.66a68.14,68.14,0,0,1,17.72-2.69C113.73,288.89,118.88,288.63,125.9,288.28Z"/><path class="cls-2" d="M256,288.44l18.9.26c.62,0,1.23.08,1.84.15a1.41,1.41,0,0,1,1.34,1.09,1.5,1.5,0,0,1-.56,1.65,6.51,6.51,0,0,1-1.23.77l-23.77,11.23c-1.15.54-2.31,1.08-3.45,1.66a6.32,6.32,0,0,1-3.32.63c-3-.15-6-.24-9-.29a18.61,18.61,0,0,0-6.46,1.23,9.21,9.21,0,0,0-3.63,2.33,18.87,18.87,0,0,0-3.6,5.34c-1.87,4.13-3.86,8.21-5.81,12.3-2.84,6-5.66,11.94-8.54,17.89-2.14,4.44-4.38,8.83-6.54,13.27-.6,1.22-1.12,2.49-1.61,3.76a3,3,0,0,1-3.17,2.07c-4.85,0-9.69,0-14.54.07-1.36,0-1.75-.53-1.3-1.82a10.59,10.59,0,0,1,.48-1.09c3.15-6.45,6.28-12.91,9.44-19.35,2.91-5.93,5.86-11.85,8.79-17.77.4-.83.74-1.7,1.14-2.53,2.5-5.2,4.87-10.47,7.55-15.57a30.24,30.24,0,0,1,16-14.52,27.43,27.43,0,0,1,8.6-2c3.61-.2,7.21-.44,10.82-.58,3.87-.15,7.75-.21,11.62-.3Z"/><path class="cls-2" d="M293.22,345.73h12.69a6.27,6.27,0,0,1,1.06,0c1.12.21,1.44,1.05.71,1.91a7.42,7.42,0,0,1-.95.91c-3.09,2.55-6.21,5.07-9.28,7.65q-2.73,2.28-5.34,4.73a6,6,0,0,1-4.54,1.73c-2.73-.11-5.47,0-8.19-.21-5.31-.44-10.33-1.87-14.46-5.46s-5.22-7.92-4.2-13a15.89,15.89,0,0,1,1.27-3.6c2.73-5.73,5.53-11.42,8.28-17.13,3.81-7.9,7.58-15.81,11.38-23.71,1.47-3.06,3-6.1,4.46-9.15.38-.79.72-1.61,1-2.43a2.37,2.37,0,0,1,2.44-1.65c1,0,2,.11,3,.1,3.74,0,7.49,0,11.23-.18,2.33-.11,2.49,1,1.77,2.54-.84,1.79-1.8,3.53-2.65,5.32-2.62,5.48-5.21,11-7.83,16.46-.9,1.87-1.85,3.71-2.75,5.57-1.73,3.57-3.42,7.15-5.16,10.71-2.28,4.67-4.59,9.32-6.88,14-.55,1.1-1.08,2.22-1.57,3.35-.4.92-.06,1.45,1,1.47s1.85-.11,2.77-.11h10.7Z"/><path class="cls-2" d="M129.94,363.71l-7.79.23c-1.41,0-2-.6-1.61-2a5.46,5.46,0,0,1,.43-1.1c2.23-4.55,4.48-9.09,6.7-13.65q5.92-12.18,11.81-24.38c1.53-3.18,3-6.41,4.48-9.58s3-6.06,4.53-9.11c2.2-4.52,4.36-9.05,6.53-13.58.12-.23.24-.47.35-.71a2.9,2.9,0,0,1,2.94-1.81c2.55,0,5.11,0,7.67,0q3.22,0,6.47-.12c1.49,0,2,.52,1.47,1.94s-1.25,2.8-1.92,4.19q-2.5,5.18-5,10.34c-1.37,2.86-2.73,5.73-4.1,8.58q-3.21,6.68-6.44,13.33c-2.79,5.7-5.61,11.37-8.39,17.07-1.14,2.34-2.21,4.71-3.32,7.06-1.83,3.86-3.68,7.71-5.5,11.57a2.92,2.92,0,0,1-2.94,1.82c-2.11,0-4.23,0-6.34,0Z"/><path class="cls-2" d="M187.68,304.37h-9.3c-1.26,0-1.65-.51-1.35-1.75a4.82,4.82,0,0,1,.4-1.12c2.11-4,4.27-7.9,6.32-11.89a3.86,3.86,0,0,1,4.07-2.25c3.56.16,7.12.19,10.69.28,4.09.1,8.19.19,12.28.3.4,0,.79,0,1.19.06,1.4.16,1.92.94,1.22,2.16a7.35,7.35,0,0,1-2,2.09A31.67,31.67,0,0,0,202.5,302c-1.09,1.92-2.31,2.91-4.71,2.64C194.82,304.32,191.81,304.46,187.68,304.37Z"/></g></svg>