<?xml version="1.0" encoding="utf-8"?>
<!-- Generator: Adobe Illustrator 26.0.1, SVG Export Plug-In . SVG Version: 6.00 Build 0)  -->
<svg version="1.1" id="GeorgeSamuel.me" xmlns="http://www.w3.org/2000/svg" xmlns:xlink="http://www.w3.org/1999/xlink" x="0px"
	 y="0px" viewBox="0 0 512 512" style="enable-background:new 0 0 512 512;" xml:space="preserve">
<style type="text/css">
	.st0{fill:#111111;}
	.st1{fill:#E1B99D;}
	.st2{fill:#FFFFFF;}
</style>
<g id="www.GeorgeSamuel.me">
	<rect class="st0" width="512" height="512"/>
	<circle class="st0" cx="256" cy="256" r="256"/>
	<path id="Path_10782" class="st1" d="M214.5,277.9c-1.4-0.7-2.7-1.7-3.6-2.9c-2.8-3.5-4.7-7.7-5.5-12.1c-0.8-3.8-0.5-7.8,0.7-11.4
		c0.4-1.3,1.2-2.4,2.3-3.2c1.5-1.3,3.2-2.3,5.1-2.9c1.5-0.3,3.1-0.5,4.6-0.5c2.6,0,5.2,0.9,7.3,2.5c0.5,0.4,1,0.8,1.4,1.2
		c1.7,2,2.8,4.5,3.1,7.1c0.3,1.7,0.4,3.5,0.1,5.3c-0.2,1.2-0.2,2.4,0,3.6c0.3-0.2,0.5-0.4,0.8-0.6c1.3-1.9,2.6-3.7,3.9-5.6
		c0.3-0.5,0.6-1.2,1.6-1c-0.1,0.6-0.2,1.2-0.3,1.8c-0.6,2.1-0.8,4.3-0.8,6.5c0,3.1,0.7,6.2,2.2,8.9c0.9,1.4,1.9,2.7,3.1,3.9
		c0.2,0.2,0.5,0.3,0.8,0.4c0.3-0.6,0.3-1.4,0-2c-1.2-2.7-1.7-5.6-1.6-8.5c0.1-1.5,0-3.1,0.2-4.6c0.3-2.5,1.1-4.9,2.4-7.1
		c1-2.1,2.2-4,3.6-5.8c2-2.6,4.3-4.9,6.9-6.8c1.7-1.2,3.6-2.3,5.6-3c2.7-1,5.5-1.7,8.3-1.9c3.5-0.1,7.1,0.3,10.4,1.4
		c1,0.3,2,0.6,3,1c1.6,0.7,3.3,1.3,4.3,2.9c0.2,0.2,0.3,0.3,0.6,0.4c0.2,0,0.3,0.1,0.5,0.1c0-0.6-0.1-1.1-0.1-1.6
		c-0.2-1.1-0.1-1.2,0.9-1.7c0.3-0.7-0.2-1.2-0.6-1.6c-0.4-0.6-1-1.1-1.4-1.6c-1-1.2-0.9-3,0.2-4.1c0.9-1.2,2.4-1.8,3.9-1.7
		c1.1,0,2.2,0.2,3.3,0.2c0.5,0,1.1,0.2,1.2-0.4c0-0.5-0.1-0.9-0.3-1.3c-0.2-0.4-0.5-0.7-0.9-0.9c-2.4-2.3-3-5.9-1.5-8.8
		c0.1-0.2,0.2-0.3,0.3-0.5c0.5-1.7,2.2-2.8,4-2.5c0.5,0,1-0.1,1.4-0.2c0.7-0.1,1.2-0.6,1.4-1.2l-2.3-1.2l1.1-1.5
		c-0.3-0.2-0.6-0.3-0.9-0.4c-0.4-0.1-0.9-0.1-1.3,0c-2,0.1-4-0.3-5.8-1.1c-3.8-1.5-7.2-3.7-10.1-6.6c-2.5-2.4-4.6-5.2-6.3-8.2
		c-1.3-2.5-2.1-5.2-2.5-8c-0.3-2.4-0.1-4.8,0.5-7.1c0.5-2.6,4.1-4.5,6.6-4c2.3,0.5,4.4,1.6,6.1,3.2c0.6,0.6,1.3,1.2,1.9,1.7
		c0.8,0.8,1.1,1.8,0.9,2.9c-0.1,0.7-0.2,1.5-0.2,2.1c0.3,0.3,0.8,0.3,1.1-0.1c0,0,0.1-0.1,0.1-0.1c0.3-0.3,0.4-0.6,0.7-0.9
		c0.4-0.4,1.1-0.4,1.5,0c0.2,0.2,0.3,0.4,0.3,0.7c0.2,1.1-0.2,2.2-1.1,3c-1.8,1.4-4.3,1.7-6.3,0.6c-2.3-1.2-4.3-2.9-5.7-5
		c-0.2-0.2-0.4-0.4-0.7-0.4c0.1,0.5,0.2,1.1,0.3,1.6c1,2.5,2.7,4.5,4.9,6c1.6,0.8,3.4,1.2,5.1,1c2.6,0.1,5.1-1.4,6.2-3.8
		c0.5-1,0.8-1.1,1.8-0.7c0.8,0.3,1.5,0.8,2.3,1.1c1.8,0.7,3.5,1.5,5.3,2.2c1.3,0.5,1.6,1,0.9,2.2c-0.3,0.5-0.7,1-1,1.6
		c-0.2,0.4-0.2,0.8-0.1,1.2c0.3,0.5,0.9,0.2,1.3-0.1c0.4-0.3,0.7-0.6,1.1-0.9c0.5-0.4,1-0.7,1.5-1c0.2-0.1,0.8-0.2,0.9,0
		c0.2,0.3,0.3,0.7,0.2,1c-0.1,0.4-0.3,0.7-0.5,1c-0.5,0.8-1,1.6-1.6,2.4c-0.3,0.4-0.5,0.9-0.8,1.6c1.7-0.2,2.7-1.4,4.1-2
		c-0.2,1.8-1.6,2.7-1.7,4.5c0.5-0.1,1-0.3,1.5-0.5c0.5-0.2,0.9-0.6,1.3-0.9c0.7-0.4,1.1-0.2,1.2,0.5c0.2,1.6,0.4,3.3,0.6,5
		c0.1,0.6,0,1.3,0,2.3l0.4-0.6c0.1,0.1,0.1,0.1,0.1,0.2c0.1,1.3,0.1,2.6,0.1,3.9c-0.2,3.1-0.2,6.2,0.1,9.3c0,1.9,0.3,3.8,0.5,5.7
		c0.1,1.9,0.2,3.9,0.4,5.8c0.2,1.3-0.7,2.6-2,2.9c-1.3,0.5-2.5,1.1-3.8,1.7c-0.2,0.1-0.4,0.2-0.5,0.3c0.8,1.2,2,0.5,3,1
		c-0.9,0.5-1.6,1.5-1.6,2.5c0.8,0.4,1.7,0.6,2.5,0.3c1.5-0.2,1.9,0.2,1.4,1.6c-0.5,1.3-1.2,2.6-2,3.8c-1.5,2-3.2,3.9-4.9,5.8
		c-1.5,1.6-3.3,3.1-4.9,4.6c-1.3,1.2-2.5,2.6-3.8,3.8c-2.4,2.4-4.6,4.9-6.7,7.6c-0.4,0.5-0.8,1-1.1,1.5c-0.8,1.2-1.8,2.2-3.1,2.9
		c-2.4,1.4-4.8,3-7.3,4.2c-1.9,1-3.9,1.5-5.8,2.4c-2.1,0.9-4.5,1.1-6.6,2.2c-0.1,0-0.2,0.1-0.3,0.1c-2.9,0.4-5.6,1.6-8.5,1.6
		c-0.9-0.1-1.8,0.5-2.1,1.3c0.7,0.2,1.4,0.2,2.1,0c0.3,0,0.8-0.1,0.9,0.1c0.6,0.6,1.3,0.5,2,0.5c0.7,0,1.4,0,2.1,0.1
		c0.4,0.1,0.9,0.3,1.3,0.5c-0.4,1.3-1.4,1.4-2.2,1.3c-4.1-0.2-8.2,0.7-12.2,0.8c-0.5,0-0.9,0.2-1.3,0.4c-0.4,0.1-0.6,0.5-0.5,0.9
		c0,0.1,0.1,0.2,0.1,0.3c0.7,1,0.5,2.1,0.7,3.2c0.4,3.5,0.8,7.1,1.2,10.6c0,0.6,0.3,1.3,0.7,1.7c0.7,0,0.7-0.5,0.7-0.9
		c0.2-1.5,0.4-2.9,0.5-4.4c0.2-2.4,0.4-4.7,0.6-7.1c0.1-0.4,0.2-0.7,0.3-1c0.3,0.5,0.6,0.7,0.6,0.9c0.2,1.3,0.4,2.6,0.5,4
		c0.2,3.3,0.4,6.6,0.6,9.8c0,0.9,0,1.7,0.1,2.6c0.1,0.3,0.2,0.7,0.3,1c1.4-0.8,2.3-2.2,2.2-3.8c0.3-4.6,0.6-9.2,0.9-13.8
		c0-0.2,0.1-0.5,0.1-0.7c0.3-1.9,0.4-2.1,2.4-1.9c2.7,0.1,5.4,0.4,8.1,0.8c1.9,0.3,3.8,0.5,5.7,0.5c0.8,0,1.5,0.3,2.1,0.7
		c2.2,1.7,4.1,3.8,5.6,6.1c1.1,1.5,1.2,3.4,1.8,5.1c1.6,5.1,2,10.4,3.2,15.6c0.1,0.2,0.1,0.5,0.2,0.7c0.1,0.2,0.2,0.3,0.4,0.7
		c0.4-0.4,0.7-0.9,1-1.3c1.9-3.7,3.7-7.4,5.6-11.1c0.3-0.6,0.7-1.3,1-1.9c0.4-1,1.4-1.6,2.5-1.5c2.9,0,5.7,0,8.6,0
		c1.6,0,2.3,0.9,2,2.5c-0.5,2.6-1.2,5.1-1.8,7.6c-1.3,5.5-2.6,11-4,16.5c-0.3,1.4-0.6,2.8-1,4.2c-0.1,0.5-0.3,0.9-0.5,1.3
		c-0.3,0.8-1.1,1.4-2,1.3c-1.6,0-3.2,0-4.7,0c-1.8,0-2.7-1-2.3-2.9c0.2-1.1,0.5-2.2,0.8-3.3c0.6-2.2,1.2-4.5,1.8-6.7
		c0-0.3,0-0.7-0.1-1c-0.4,0.3-0.7,0.7-1,1.1c-1.3,2.5-2.7,5.1-3.9,7.6c-0.3,0.7-0.3,1.5-0.2,2.2c0.6,4,1.2,7.9,1.8,11.8
		c0.1,0.7,0.3,1.4,0.4,2.1c0.1,1-0.2,1.3-1,1.5c-1,0.2-1.9-0.1-2.1-0.9c-0.3-1.3-0.6-2.7-0.8-4c-0.3-2.1-0.6-4.2-1-6.4
		c0-0.1,0-0.3-0.1-0.4c-0.2-0.2-0.5-0.5-0.7-0.5c-0.3,0.1-0.5,0.4-0.6,0.7c0,0.4,0,0.8,0.1,1.1c0.4,2.9,0.7,5.8,1,8.6
		c0.1,1.2-0.1,1.5-0.8,1.7c-0.7,0.3-1.6-0.1-1.8-0.9c0-0.1-0.1-0.2-0.1-0.3c-0.3-1.4-0.5-2.9-0.7-4.4c-0.1-1.8-0.4-3.6-0.9-5.3
		c0.1,2.6,0.2,5.3,0.4,8c0,0.4,0,0.8,0,1.1c0,1.7-0.5,2.1-2.3,1.9c-0.6-0.1-1.2-0.1-1.8-0.1c-1.1,0.1-1.4-0.1-1.6-1.1
		c-0.3-1.2-0.4-2.3-0.6-3.5c-0.1-0.6-0.2-1.2-0.5-1.7c-0.5,1.3-0.7,2.6-0.6,4c0,0.6,0,1.1-0.1,1.7c-0.1,0.6-0.4,0.8-1,0.8
		c-1.7,0-3.3,0-5,0c-5.9-0.1-11.7-0.2-17.6-0.2c-4.3,0-8.6,0.1-12.8,0.2c-2,0-2,0-3.2-1.2c-0.1,0-0.2,0-0.3,0.1c-0.6,1-1.9,1.4-3,1
		c-0.3-0.1-0.6-0.1-0.9,0c-1.8,0.1-1.8,0.2-3.2-0.9c-0.4,0.3-0.8,0.6-1.3,0.8c-1.3,0.5-2.1-0.1-2.1-1.4c0-1.3,0-2.7,0.1-4
		c0.1-1.8,0.3-3.7,0.4-5.5c0-0.1,0-0.3,0-0.4c-0.1-0.4-0.2-0.9-0.8-0.8c-0.3,0.2-0.5,0.5-0.6,0.8c-0.2,1.7-0.2,3.3-0.3,5
		c-0.1,1.8-0.3,3.5-0.5,5.3c-0.1,1-0.3,1.2-1.4,1.2c-2.3,0-2.3,0-2.3-2.3c0-2,0.1-4.1,0.4-6.1c0.2-1.6,0.2-3.1,0.3-4.7
		c-0.1-0.4-0.2-0.8-0.3-1.2c-1.1,0.5-2,0.9-2.8,1.3c-0.3,0.2-0.6,0.3-0.9,0.4c-2.6,0.5-5.2,1.7-7.9,1.1c-3-0.7-6.1-1.2-8.7-3.3
		c-2.7-2.3-4.2-5.8-4-9.4c0-4.6,1.4-9.1,3.9-13c1.8-2.8,4.2-5,7.1-6.5c1.5-0.8,2.9-1.7,4.6-1.8c0.1,0,0.2,0,0.3-0.1
		c1.9-1.1,3.9-1,6-1c1.8,0,3.6,0.1,5.4,0.2c0.9,0,1.2-0.2,1.5-1.2c1-4.6,2.5-9,4.6-13.2c0.3-0.8,1-1.3,1.8-1.5
		c1.9-0.3,3.8-0.5,5.6-0.9c2-0.4,4-1,5.9-1.6c1.3-0.3,2.6-0.7,3.7-1c-0.2,0-0.6,0-1-0.1c-0.5-0.1-0.9-0.2-1.4-0.2
		c-1.8,0-3.5-0.1-5.2-0.5c-1-0.2-2-0.3-3-0.3c-0.7,0-1.4-0.2-2.1-0.3c-2.3-0.8-4.7-1-7-2c-1.3-0.5-2.5-1.1-3.7-1.7
		c-0.7-0.3-0.7-0.4-0.7-1.5c0.5,0.1,1,0.2,1.5,0.4c2.4,1.1,4.9,1.8,7.5,2.3c0.5,0.1,1,0.1,1.6,0c0.5-0.1,1.1-0.2,1-0.8
		c0-0.3-0.5-0.7-0.9-0.8c-1.2-0.5-2.3-0.8-3.5-1.2c-2.3-0.9-4.4-2.1-6.3-3.6c-2.7-2-5-4.4-6.8-7.3c-1.8-2.9-3.2-6.1-4.1-9.4
		c-0.4-1.5-0.6-3-1-4.5c-0.1-0.6-0.4-1.2-0.6-1.8h-0.4c-0.2,0.5-0.3,0.9-0.4,1.4c-0.2,3.4,0.1,6.9,1,10.2c0.7,2.3,1.7,4.5,2.9,6.5
		c0.5,1.1,1.3,2.1,2.2,3c0.2,0.2,0.4,0.5,0.6,0.8C213.7,276.7,214.1,277.3,214.5,277.9L214.5,277.9z M275.5,316
		c0.5,0.6,0.7,1.4,0.6,2.2c0,2.2,0,4.4,0,6.6c0,2.7,0.1,5.3,0.2,8c0,1.4,0,2.8,0,4.2c0,1.4,0.3,1.7,1.7,1.7c1.2-0.1,2.4-0.1,3.6,0
		c1.6,0.2,2.4-0.6,3-1.8c3.3-6.6,6.7-13.3,10-19.9c0.2-0.3,0.4-0.5,0.6-0.8c0.4,0.8,0.5,1.7,0.2,2.5c-0.9,3.7-1.8,7.4-2.7,11.1
		c-0.6,2.2-1.1,4.4-1.8,6.6c-0.5,1.6,0,2.4,1.7,2.4c0.8,0,1.5,0,2.3,0.1c1.6,0,2.1-0.3,2.5-1.9c0.6-2.5,1.3-5.1,1.9-7.6
		c1.5-6.2,3-12.4,4.5-18.6c0.1-0.5,0.1-1,0.1-1.5c-0.2-0.1-0.4-0.1-0.5-0.2c-2.8,0-5.5,0-8.3,0c-0.8,0-1.6,0.5-1.9,1.2
		c-0.9,1.9-1.9,3.8-2.8,5.6c-2.5,4.8-4.9,9.7-7.4,14.5c-0.3,0.5-0.5,1.1-1.4,1c-0.1-0.5-0.2-1-0.2-1.6c-0.1-2.4-0.2-4.8-0.3-7.1
		c-0.1-3.7-0.2-7.3-0.3-11c0-0.5,0-1-0.1-1.4c-0.1-1.1-0.3-1.2-1.3-1.2c-2.6,0-5.1,0-7.7,0.1c-1.3,0-1.5,0.2-1.8,1.4
		c-0.6,2.4-1.3,4.9-1.8,7.3c-1.3,5.5-2.6,10.9-3.9,16.4c-0.2,0.9-0.5,1.8-0.7,2.8c-0.3,1.2,0,1.6,1.2,1.6c1.2,0,2.4,0,3.6,0
		c1.2,0,1.4-0.1,1.7-1.3c0.8-3.3,1.7-6.6,2.5-9.8c0.8-3.5,1.6-7,2.3-10.4C274.7,316.6,274.8,316.1,275.5,316z M218.3,335.5
		c0.1,0.3,0.3,0.6,0.4,0.9c0.1,0.6,0,1.5,0.4,1.8c0.5,0.4,1.3,0.2,2,0.3c0.1,0,0.3,0,0.4,0c1.6,0,1.7-0.1,2.1-1.6
		c0.9-3.4,1.7-6.7,2.5-10.1c0.2-1,0.4-2,0.6-2.9c0.1-0.5-0.1-1-0.6-1.1c-0.1,0-0.2,0-0.3,0c-0.2,0-0.5,0-0.7,0c-3,0-6,0-9,0
		c-0.8,0-1.5,0.1-2.3,0.2c-0.5,0.1-0.8,0.4-1.1,0.8c-0.4,0.8-0.7,1.6-0.8,2.4c-0.2,0.8,0.2,1.2,1.1,1.3c0.6,0.1,1.2,0.2,1.8,0.2
		c1,0,2.1,0,3.1,0c1,0,1.4,0.8,1,1.7c-0.1,0.2-0.2,0.3-0.3,0.5c-1.1,1.7-2.7,3-4.5,3.8c-1.5,0.7-3.1,1.5-4.9,1.2
		c-1.1-0.2-2.1-0.5-3.2-0.7c-2.6-0.6-4.4-2.9-4.6-5.5c-0.1-1.8,0.1-3.5,0.6-5.2c0.7-2.8,2.3-5.4,4.6-7.3c1.8-1.7,4.1-2.7,6.6-2.8
		c1.2,0,2.5,0.1,3.7,0.1c0.8,0,1.6,0.3,2.2,0.8c0.9,0.6,1.6,1.5,1.9,2.6c0.2,0.8,1,1.4,1.8,1.3c1.5,0,3,0,4.4,0c1,0,1.2-0.2,1.2-1.2
		c0.1-4-2.6-6.7-6.2-7.7c-1.7-0.4-3.4-0.7-5.1-0.8c-1.3,0-2.6,0.1-4,0.3c-0.6,0.1-1.2,0.2-1.8,0.3c-1,0-2,0.1-3,0.4
		c-2.1,0.8-4.1,1.9-5.9,3.1c-2.5,1.8-4.5,4.2-6,7c-1.1,2.4-1.9,4.9-2.4,7.5c-0.5,1.4-0.5,3,0.1,4.3c0.4,1,0.8,2,1.4,3
		c0.6,1.1,1.5,2,2.4,2.8c1.6,1.2,3.6,2,5.6,2.3c1.4,0.2,2.8,0.2,4.1,0.2c3.5,0.1,6.8-1.1,9.5-3.2
		C217.5,335.9,217.9,335.7,218.3,335.5z M235.5,309.3c0,0.2,0,0.4,0,0.6c1.1,2.9,2.2,5.9,3.3,8.8c1.1,2.8,2.2,5.5,3.2,8.3
		c0.2,0.6,0.3,1.2,0.1,1.8c-0.4,1.9-1,3.8-1.4,5.7c-0.3,1.1-0.5,2.1-0.7,3.2c-0.1,0.9,0.2,1.2,1.1,1.2c1.4,0,2.8-0.1,4.3-0.1
		c0.7,0.1,1.3-0.3,1.5-1c0.1-0.4,0.3-0.7,0.4-1.1c0.5-2.3,1-4.6,1.6-6.8c0.2-1.2,0.7-2.3,1.4-3.2c1.9-2.4,4-4.7,6.1-7
		c2.5-2.8,5.1-5.7,7.6-8.5c0.4-0.5,1-1,0.9-1.9c-0.2-0.1-0.4-0.1-0.6-0.2c-1.1,0-2.3,0-3.4,0c-3.8,0-3.1-0.2-5.1,2.4
		c-2.4,3.2-4.9,6.2-7.3,9.3c-0.3,0.2-0.6,0.4-1,0.6c-0.3-0.5-0.5-1.1-0.7-1.6c-1-3.1-1.9-6.3-2.9-9.4c-0.4-1.2-0.6-1.3-1.8-1.3
		c-1.7,0-3.3,0-5,0C236.5,309.1,236,309.2,235.5,309.3z M216.1,329.5c-1.1,0-2,0-2.8,0c-2.3,0.1-2.8-0.5-2.5-2.8
		c0-0.1,0-0.3,0.1-0.4c0.3-1.1,0.5-2.1,0.8-3.2c0.4-1.6,0.7-1.9,2.3-1.9c1.2,0,2.4,0,3.6,0c1.2,0,1.5-0.3,1.6-1.5c0-0.7,0-1.3,0-2
		c0-1.4-0.2-1.7-1.5-2.1c-2.7-0.9-5.6-0.6-8,0.8c-4.5,2.4-6.5,6.4-6.7,11.4c-0.1,2.4,1.6,4.5,4,4.8c2.5,0.4,5,0.6,7.4-0.9
		C215.2,331.1,215.8,330.3,216.1,329.5z M242.5,270.9l0.4,0c0.1-0.4,0.3-0.8,0.4-1.3c0.3-1.2,0.4-2.4,0.8-3.6c1-3.2,1.8-6.5,3.6-9.4
		c1.5-2.8,3.6-5.3,6-7.4c0.8-0.7,1.7-1.2,2.5-1.9c1.5-1.3,3.3-2.3,5.2-2.9c2.2-0.9,4.5-1.5,6.7-2.3c0.3-0.1,0.6-0.3,0.9-0.5
		l-0.1-0.3c-0.7-0.2-1.3-0.3-2-0.4c-1.9,0-3.8,0.2-5.6,0.7c-2.3,0.5-4.3,1.7-6.4,2.7c-2.1,1-3.7,2.7-5.4,4.3c-2,1.8-3.1,4.3-4.4,6.7
		c-0.7,1.2-1.2,2.5-1.6,3.8c-0.9,3.2-1.4,6.5-1.2,9.9C242.3,269.6,242.4,270.2,242.5,270.9z M239.9,295.7c0.2,3.3,0.4,6.5,0.6,9.7
		c0.1,1.3,0.5,1.7,2.1,1.7c1.2,0,1.3-0.1,1.4-1.6c0-0.3,0-0.6,0-0.9c0-3.2,0-6.4,0-9.5c0-0.7,0.1-1.4,0.3-2.1c0.4-1-0.2-1.5-1.1-1.3
		c-0.7,0.2-1.5,0.3-2.2,0.4c-0.9,0.1-1.1,0.3-1.1,1.3C239.9,294.2,239.9,295,239.9,295.7z"/>
	<path id="Path_10783" class="st2" d="M174.6,213.3v66.3c0,2.4-0.2,2.5-2.5,2.5c-6.3,0-12.7,0-19,0c-0.5,0-1.1,0-1.6,0
		c-1.2-0.2-1.5-0.5-1.5-1.7c0-0.3,0-0.6,0-0.9c0-44.2,0-88.5,0-132.7c0-0.3,0-0.7,0-1c-0.1-0.9,0.6-1.6,1.5-1.6c0.1,0,0.1,0,0.2,0
		c0.7-0.1,1.4-0.1,2.1-0.1c6.2,0,12.3,0.1,18.5,0c1.7,0,2.4,0.7,2.4,2.5C174.6,168.8,174.6,191.1,174.6,213.3z M163.3,254.9
		c-0.8-2.1-0.3-4.1-0.5-6c-0.2-1.9,0-3.8-0.5-5.6l-0.3,0l-0.8,14.3h-0.4c-0.4-5.1-0.2-10.3-1-15.4c-0.2,0.5-0.3,1.1-0.3,1.6
		c-0.1,3.7-0.2,7.3-0.4,11c-0.1,0.6-0.2,1.1-0.3,1.7c-0.6-0.9-0.8-1.9-0.7-2.9c0-1-0.2-2-0.3-3c0.1-1-0.1-2.1-0.5-3
		c-0.6,3.4-0.4,6.6-1.4,9.6c-0.8-3.4-0.4-7-1.1-10.4c-0.2,0.9-0.4,1.8-0.4,2.7c-0.1,3.1-0.2,6.2-0.3,9.3c0,0.8-0.2,1.5-0.3,2.3
		c-0.3-0.6-0.5-1.2-0.5-1.8c-0.1-3.5-0.3-6.9-0.4-10.4c0-0.4-0.1-0.9-0.3-1.3l-0.4,0c0,1.8-0.1,3.7-0.1,5.6c0,8.3-0.1,16.6-0.1,24.9
		c0,1.5,0.3,1.7,1.8,1.7c3.1,0,6.2-0.1,9.3-0.1c2.7,0,5.3,0,8,0.1c1.4,0,1.6-0.1,1.6-1.5v-0.6c0-11.4,0-22.8,0-34.2
		c0-2.9-0.1-5.8-0.1-8.7c0-0.7,0-1.5,0-2.2l-0.3,0c-0.1,0.2-0.1,0.5-0.2,0.8c-0.1,2.9-0.2,5.8-0.3,8.7c-0.1,1.7-0.1,3.3-0.3,5
		c-0.1,0.5-0.2,0.9-0.4,1.4l-0.4,0c-0.6-1.9-0.3-4-0.4-6c-0.1-2,0.1-4-0.6-6c-0.7,3-0.5,6.1-0.6,9.1s-0.3,6.1-0.5,9.2
		c-1-4.9-0.3-9.9-1.1-15.1c-0.5,0.7-0.7,1.5-0.6,2.4c0,3,0,6-0.1,9c0,1.2-0.2,2.4-0.3,3.6l-0.4,0c-0.6-1.4-0.8-2.9-0.7-4.5
		c0-1.6-0.3-3.2-0.7-4.7C164.2,248.5,164.4,251.7,163.3,254.9z"/>
	<path id="Path_10784" class="st2" d="M363,213.3v66.1c0,2.5-0.1,2.6-2.7,2.6h-19.5c-0.3,0-0.7,0-1,0c-1-0.1-1.3-0.4-1.4-1.4
		c0-0.4,0-0.9,0-1.3c0-5.3,0.1-10.7,0.1-16c0-12.1-0.1-24.1-0.1-36.2c0-26.8,0-53.6,0-80.5c0-0.3,0-0.6,0-0.9c0-0.9,0.7-1.7,1.6-1.7
		c0.1,0,0.2,0,0.3,0l17.2,0c1,0,2.1,0,3.1,0c2,0,2.4,0.5,2.4,2.4L363,213.3z M351.1,244.2h-0.4c-0.1,0.4-0.2,0.8-0.2,1.2
		c-0.1,2.2-0.2,4.5-0.3,6.7c0,1.1-0.2,2.2-0.7,3.2c-1-3.4-0.6-6.7-1.2-9.9c-0.2,0.2-0.2,0.5-0.3,0.8c-0.1,2.5-0.3,5-0.4,7.6
		c-0.1,0.8-0.1,1.7-0.3,2.5c-0.1,0.3-0.2,0.6-0.4,0.9l-0.3-0.1c-0.1-1-0.3-1.9-0.3-2.9c-0.1-2.5-0.1-5-0.1-7.4c0-0.7-0.1-1.3-0.2-2
		c-1.2,4.8-0.4,9.7-1.4,14.5c-0.9-4-0.3-8.1-1.1-12.1c-0.3,1-0.5,2-0.5,3c-0.1,1.9,0,3.8-0.1,5.7c0.1,1-0.2,2-0.7,2.8
		c-1.2-3.5-0.4-7.1-1.2-10.4c-0.1,0.2-0.2,0.5-0.2,0.8c-0.1,3.1-0.2,6.2-0.3,9.3c0,2.8,0.2,5.6,0.2,8.4c0,3.6-0.1,7.1-0.2,10.7
		c0,1.8,0.2,2.2,2,2.2c5.8,0,11.6,0,17.3,0c1.5,0,1.6-0.1,1.6-1.6c0-16.3-0.1-32.6-0.1-49c0-0.2-0.1-0.4-0.1-0.6l-0.3,0
		c-0.2,1.8-0.2,3.6-0.2,5.3c-0.1,1.9-0.1,3.7-0.2,5.6c-0.1,1.8-0.2,3.6-0.3,5.4c0,1.8-0.2,3.6-0.6,5.3c-0.6-4.4-0.4-8.8-1-13.2
		c-0.2,0.5-0.3,1-0.4,1.5c-0.1,3.5-0.3,7-0.4,10.4c0,1.1-0.2,2.1-0.6,3.1c-0.8-4-0.5-8-1.2-12c-0.2,1-0.3,2-0.4,3
		c-0.1,2.8-0.2,5.5-0.4,8.3c0.1,1-0.2,2-0.9,2.7c-0.7-4.3-0.3-8.4-0.9-12.5c-0.3,2.4-0.6,4.8-0.7,7.2c0,2.4-0.1,4.7-0.5,7.1h-0.3
		L351.1,244.2z"/>
	<path id="Path_10785" class="st2" d="M145.8,271.6c-1.6,0-3,0-4.3,0c-1.5,0-2.9,0.1-4.4,0.2c-3.5,0-7.1,0-10.6,0
		c-1.4,0-2.8-0.1-4.1-0.2c-0.9-0.1-1.1-0.3-1.2-1.2c0-0.3,0-0.7,0-1V157.2c0-0.4,0-0.8,0-1.1c0-0.8,0.7-1.5,1.5-1.6c0.3,0,0.7,0,1,0
		c4.9,0,9.7,0.1,14.6,0.1c1.8,0,3.6-0.1,5.4-0.1c1.8,0,2,0.3,2.1,2.1L145.8,271.6L145.8,271.6z M138.5,232.4
		c-0.2,3.9-0.3,7.9-0.5,11.8c-0.1,2.1-0.2,4.2-0.4,6.3c-0.1,0.3-0.2,0.6-0.3,0.9c-0.8-3-0.2-6.2-1.3-9.1c-0.2,0.5-0.3,1-0.4,1.5
		c-0.2,2.3-0.3,4.6-0.5,6.8c-0.1,0.3-0.2,0.6-0.3,0.9l-0.3-0.1c-0.8-2.6-0.1-5.5-1.2-8.1c-0.2,0.9-0.4,1.8-0.5,2.8
		c-0.2,2.2-0.3,4.5-0.4,6.7c-0.1,0.5-0.2,0.9-0.3,1.4l-0.3,0c-0.5-1.6-0.2-3.4-0.4-5c-0.2-1.7,0-3.4-0.1-5.1c-0.1-1.7,0.2-3.4-0.3-5
		c-0.5,5.3-0.6,10.6-1.2,15.8c-0.8-3.2-0.5-6.5-1.1-10c-0.3,0.5-0.4,0.6-0.4,0.9c-0.1,1.2-0.3,2.5-0.4,3.7c-0.1,1.4-0.1,2.8-0.2,4.1
		c-0.1,0.5-0.2,1-0.3,1.4l-0.4,0c-0.7-3.8-0.6-7.7-1.2-11.5c-0.3,2.1-0.4,4.2-0.5,6.3c-0.1,2.1,0.1,4.2-0.6,6.3
		c-0.7-2.2-0.5-4.5-0.7-6.8c-0.2-2.2,0.1-4.5-0.3-6.7c-0.2,0.1-0.3,0.4-0.3,0.6c-0.1,1.6-0.2,3.1-0.2,4.7c0,4.6,0,9.3,0,13.9
		c0,2,0,4,0,6c0,1.6,0.2,1.8,1.8,1.7c0.7,0,1.3-0.1,2-0.1c5.2,0,10.3,0,15.5,0c1.2,0,1.4-0.2,1.4-1.4c0-4.7,0-9.4,0-14
		c0-4.8,0.1-9.6,0.2-14.5c0-0.5-0.1-1-0.2-1.5h-0.3c-0.1,0.6-0.2,1.1-0.3,1.6c-0.2,1.7-0.4,3.3-0.6,5c-0.1,0.3-0.2,0.5-0.4,0.8
		l-0.3,0c-0.1-0.4-0.2-0.9-0.2-1.3c-0.1-2.9-0.2-5.7-0.3-8.6c0-0.6-0.2-1.3-0.2-1.9c-0.2,0.1-0.3,0.3-0.3,0.4
		c-0.2,2.7-0.3,5.4-0.5,8.1c-0.1,2-0.2,4.1-0.3,6.1c-0.1,0.4-0.2,0.7-0.4,1l-0.4-0.1C139,243.5,139,237.9,138.5,232.4z"/>
	<path id="Path_10786" class="st2" d="M367.3,213.2v-56.6c0-1.9,0.2-2.2,2.1-2.2c6.8,0,13.6-0.1,20.3-0.1c1.7,0,2.2,0.4,2.2,2.1
		c0,2.5-0.1,5.1-0.1,7.6c0,1.7,0.1,3.3,0.1,5c0,8.6,0,17.2,0,25.8v74.3c0,0.4,0,0.8,0,1.1c-0.1,1.1-0.2,1.3-1.4,1.3
		c-6.5,0.1-13.1,0.1-19.6,0.2c-0.9,0-1.9-0.1-2.8-0.2c-0.4,0-0.8-0.3-0.8-0.7c0,0,0-0.1,0-0.1c0-0.4,0-0.9,0-1.3L367.3,213.2z
		 M369.7,244.7l-0.3,0c-0.1,1.6-0.2,3.2-0.2,4.8c0,6.1,0,12.2,0,18.3c0,1.1,0.2,1.3,1.3,1.4c1,0,1.9-0.1,2.9-0.1c5,0,9.9,0,14.9,0
		c1.6,0,1.7-0.1,1.7-1.7c0-4.6,0-9.2,0-13.7c0-4.5,0-9,0-13.4c0-3.3,0-6.6,0-9.9c0-0.4,0.1-0.9-0.5-1.1c-0.1,1-0.2,1.9-0.2,2.8
		c-0.2,3.7-0.3,7.3-0.5,11c0.1,0.9-0.2,1.7-0.8,2.4c-0.6-3.7-0.4-7.3-0.9-10.8c-0.3,2.5-0.3,5-0.6,7.5c-0.3,2.5,0,5.1-0.9,7.5
		c-0.8-4.1-0.2-8.3-0.9-12.7c-0.2,0.3-0.3,0.4-0.3,0.5c-0.1,1.5-0.3,3-0.3,4.6c-0.2,3.2-0.3,6.4-0.4,9.6c0,0.2-0.1,0.5-0.2,0.7
		c-0.6-3.8-0.6-7.7-1.2-11.4c-0.2,0.4-0.4,0.9-0.4,1.3c-0.1,2.3-0.2,4.6-0.3,6.8c0,0.7-0.1,1.3-0.2,2c-0.1,0.3-0.3,0.5-0.4,0.7
		c-0.7-3-0.4-6.1-1.2-9c-0.3,1.6-0.5,3.2-0.7,4.8c-0.2,1.6,0.1,3.3-0.7,4.9c-0.8-1.5-0.4-3.1-0.6-4.6c-0.2-1.6,0.1-3.2-0.6-4.8
		c-0.5,2.5-0.7,5-0.7,7.5c0.1,1.4,0,2.9-0.5,4.2c-0.7-3.6-0.5-7.3-1.2-10.9c-0.2,0.7-0.4,1.4-0.4,2.2c-0.1,2.2-0.2,4.4-0.3,6.6
		c0.1,0.7-0.2,1.5-0.7,2c-0.8-3.2-0.5-6.4-1.1-9.6c-0.2,0.7-0.4,1.4-0.4,2.1c-0.1,2.1-0.2,4.3-0.3,6.4c0.1,1-0.2,2-0.8,2.9
		c-0.1-0.6-0.2-1.2-0.3-1.9c-0.1-2.8-0.2-5.5-0.4-8.3C369.9,245.8,369.8,245.2,369.7,244.7L369.7,244.7z"/>
	<path id="Path_10787" class="st2" d="M136.2,150.4c-0.6,0.6-1,1-1.5,1.4c-0.4,0.3-0.8,0.8-1.4,0.4c-0.4-0.3-0.3-1,0.1-1.5
		c0.7-0.9,1.4-1.8,2.2-2.6c1.7-2,3.4-4.1,5.2-6c3.9-4.3,8-8.4,12.4-12.2c2.4-2.2,4.9-4.2,7.6-6.1c2.5-1.8,5-3.7,7.5-5.5
		c1.9-1.3,3.9-2.6,5.8-3.9c4.4-2.8,9-5.4,13.7-7.7c2.8-1.4,5.6-2.6,8.4-3.9c2.4-1.1,4.9-2.1,7.3-3.1c1.4-0.6,2.9-0.9,4.3-1.5
		c1.8-0.8,3.8-0.8,5.5-1.9c0.4-0.2,0.8-0.3,1.2-0.3c0.5,0,0.9-0.1,1.4-0.2c2.9-1.1,5.9-1.5,8.8-2.3c3.1-0.8,6.4-1.2,9.5-1.8
		c0.8-0.2,1.7-0.1,2.6-0.2c1-0.2,2-0.4,3.1-0.6c0.3-0.1,0.6-0.2,1-0.2c1.9-0.1,3.7-0.3,5.6-0.4c4.6-0.1,9.2-0.2,13.9-0.2
		c1.9,0,3.7-0.1,5.6,0c3.2,0.1,6.4,0.3,9.5,0.8c2.7,0.5,5.5,0.4,8.2,1.1c1.5,0.4,3,0.5,4.5,0.8c3.6,0.8,7.2,1.8,10.8,2.6
		c3,0.7,6,1.8,8.9,2.8c2.8,0.9,5.4,2,8.2,3c3.5,1.3,6.9,2.8,10.2,4.6c0.9,0.5,1.8,0.8,2.7,1.3c2.9,1.6,5.9,3.1,8.7,4.8
		c2.5,1.5,4.9,3.1,7.3,4.7c3.4,2.2,6.5,4.8,9.8,7.1c4,2.8,7.8,6,11.3,9.5c3,2.8,5.9,5.8,8.7,8.8c2.5,2.7,4.8,5.5,7.2,8.3
		c0.6,0.5,0.8,1.3,0.5,2c-0.7,0.3-1.1,0-1.5-0.5c-0.9-1.1-1.9-2.2-2.8-3.2c-2.7-3-5.3-6.2-8.1-9c-3.2-3.2-6.6-6.3-9.9-9.3
		c-3.3-3.1-7-5.5-10.6-8.2c-3.7-2.8-7.6-5.3-11.5-7.7c-3-1.9-6.1-3.6-9.2-5.3c-1.9-1-4-1.9-5.9-2.8c-2-0.9-4-1.9-6.1-2.8
		c-2.5-1-5-1.9-7.4-2.9c-1.7-0.6-3.4-1.2-5.1-1.8c-1.7-0.5-3.4-0.9-5.1-1.4c-0.7-0.2-1.4-0.4-2-0.6c-0.3-0.2-0.6-0.3-0.9-0.4
		c-2.6-0.2-5-1.6-7.6-1.5c-0.7-0.1-1.4-0.3-2.1-0.5c-1-0.2-1.9-0.4-2.9-0.6c-1-0.1-2-0.2-3-0.4c-1.7-0.6-3.5-0.8-5.3-0.6
		c-1.1,0.1-2.3,0-3.4-0.3c-2.1-0.5-4.2-0.7-6.4-0.7c-2.9,0-5.7-0.1-8.6-0.1c-3.3,0-6.6,0.2-9.9,0.3c-0.3,0-0.5,0.1-0.8,0.1
		c0.5,0.6,1.1,0.5,1.6,0.5c2.5,0.1,5,0.1,7.6,0.1c2.5,0,5-0.2,7.6-0.1c1.6,0.1,3.1,0.4,4.6,0.7c0.7,0.1,1.3,0.3,2,0.4
		c1.7,0.1,3.4,0.1,5.1,0.2c1.2,0.1,2.4,0.2,3.5,0.4c1.1,0.2,2.2,0.4,3.4,0.6c2.9,0.6,5.7,1.4,8.6,1.8c2.5,0.3,4.8,1.4,7.3,1.9
		c2.3,0.6,4.5,1.2,6.7,2c0.9,0.3,1.8,0.6,2.7,0.9c0.7,0.2,1.3,0.5,2,0.8c0.3,0.2,0.6,0.3,0.9,0.4c2.4,0.5,4.4,1.7,6.6,2.6
		c1.7,0.7,3.4,1.4,5.1,2.2c1.6,0.7,3,1.6,4.5,2.4c3.2,1.8,6.4,3.5,9.5,5.3c1.9,1.1,3.8,2.4,5.6,3.7c2,1.3,3.8,2.8,5.9,4.1
		c5.9,3.6,10.8,8.4,15.9,13c4.4,4.2,8.6,8.7,12.5,13.3c0.3,0.4,0.6,0.8,0.8,1.2c0.3,0.5,0.1,1.1-0.4,1.3c-0.1,0.1-0.3,0.1-0.4,0.1
		c-1.2,0.1-2.5,0-3.7-0.1c-0.6-0.1-1.1-0.5-1.5-1c-1.3-1.4-2.5-2.9-3.8-4.3c-0.6-0.6-0.9-1.5-0.9-2.3c0-0.4,0-0.8,0-1.1
		c-0.1-1-0.5-1.5-1.5-1.3c-2.1,0.3-3.3-0.9-4.7-2.2c-3.2-2.9-6.4-5.7-9.7-8.4c-2.5-2.1-5.1-4.1-7.9-5.9c-4.1-2.7-8.3-5.1-12.4-7.7
		c-3.3-2-6.7-3.8-10.2-5.4c-2.8-1.3-5.7-2.5-8.5-3.7c-1.7-0.7-3.3-1.4-5-2c-1.6-0.6-3.2-1.1-4.9-1.6c-1.9-0.6-3.8-1.2-5.7-1.8
		c-2.4-0.6-4.9-1.1-7.4-1.7c-3.5-0.8-7.1-1.5-10.7-1.9c-3.4-0.5-6.8-0.9-10.2-1.1c-5.2-0.2-10.4-0.2-15.6-0.2c-2,0-4.1,0-6.1,0.2
		c-2.7,0.2-5.4,0.6-8.1,1c-2.6,0.3-5.3,0.7-7.9,1.1l-0.1,0c-2.5,0.6-5.1,1.2-7.6,1.9c-3.1,0.8-6.1,1.7-9.2,2.6
		c-1.9,0.6-3.8,1.3-5.8,2c-1.2,0.4-2.4,0.8-3.6,1.3c-2.1,0.8-4.2,1.5-6.2,2.5c-3.8,1.9-7.6,3.9-11.4,5.9c-1.1,0.6-2.3,1.2-3.4,1.8
		c-1.8,1.1-3.6,2.2-5.3,3.3c-1.6,1-3.2,1.9-4.7,3c-2.3,1.6-4.6,3.2-6.9,4.9c-1.7,1.3-3.4,2.7-5.1,4.2c-2.5,2.2-5,4.4-7.4,6.7
		c-0.6,0.7-1.5,1.1-2.4,1.1c-0.2,0-0.4,0-0.6,0c-1.9,0.1-2.2,0.4-2.2,2.2c0,1.2-0.4,2.3-1.2,3.1c-1.2,1.3-2.4,2.7-3.6,4
		c-0.5,0.6-1.3,1-2.2,0.9c-0.6,0-1.1,0-1.7,0c-1.1,0.3-2.2-0.4-2.5-1.5C136.2,150.6,136.2,150.5,136.2,150.4z M244.4,92.8
		c-2.7,0.1-5.4-0.3-8.2,0.5C238.7,94.1,243.2,93.9,244.4,92.8z M232.7,94.7l0.1-0.4c-0.5-0.1-1.1-0.2-1.6-0.2
		c-0.5,0-1.1-0.1-1.4,0.6H232.7z M218,97.8c-1-0.5-2.1-0.5-3,0.2C216,98.4,217.1,98.4,218,97.8L218,97.8z"/>
	<path id="Path_10788" class="st2" d="M420.6,213.3v46.1c0,0.4,0,0.8,0,1.2c0,1-0.3,1.3-1.3,1.3c-0.7,0.1-1.3,0-2,0h-18
		c-0.5,0-1.1,0-1.6,0c-0.9,0-1.6-0.7-1.7-1.6c0-0.1,0-0.1,0-0.2c0-0.8,0-1.6,0-2.4c0-29.9,0-59.8,0-89.7c0-0.8,0.1-1.5,0.2-2.3
		c0.1-0.7,0.7-1.2,1.4-1.2c0,0,0,0,0,0H418c2.5,0,2.6,0.1,2.6,2.5V213.3z M411.3,233.3l-0.4-0.1c-0.6,3.4-0.1,7-1.3,10.4
		c-1-2.8-0.2-5.7-1.1-8.5c-0.9,3.6-0.4,7.4-1.2,11l-0.4,0l-0.8-13.6c-0.3,1.4-0.5,2.8-0.5,4.2c-0.1,2.7-0.2,5.3-0.4,8
		c0,0.7-0.2,1.4-0.7,2c-0.7-3.5-0.2-6.8-1-10.1c-0.3,1.1-0.4,2.2-0.5,3.3c-0.1,1.8-0.2,3.6-0.3,5.4c-0.1,0.6-0.2,1.1-0.4,1.7l-0.4,0
		c-0.7-3.1-0.2-6.3-1-9.4c-0.7,1.7-0.4,3.5-0.6,5.2c-0.2,1.8,0.2,3.6-0.7,5.3c-0.9-5.7-0.6-11.6-1.2-17.3c-0.2,0.5-0.3,1-0.3,1.5
		c-0.1,1.5-0.1,3-0.1,4.4c0,6.8,0,13.5,0,20.3c0,0.4,0,0.8,0,1.1c0,0.6,0.5,1,1,1.1c0,0,0.1,0,0.1,0c2,0,4,0,6,0
		c1.7,0,3.3-0.1,5-0.1c2.4,0,4.8,0.1,7.1,0.1c1.2,0,1.4-0.2,1.4-1.4c0-10.3,0-20.5,0-30.8c0-0.5-0.1-1.1-0.1-1.6
		c-0.3,0.6-0.4,1.3-0.4,2c-0.1,2.5-0.2,5-0.3,7.6c0,1.1-0.3,2.2-1,3.1c-0.5-4.1-0.2-8.1-0.9-12c-0.3,0.8-0.4,1.6-0.4,2.4
		c-0.1,2.5-0.1,5-0.2,7.4c-0.1,1.6-0.2,3.1-0.3,4.7c-0.1,0.4-0.2,0.8-0.3,1.2l-0.4,0c-0.5-5.2-0.2-10.4-1-15.6
		c-0.2,1.2-0.3,2.4-0.3,3.5c-0.1,2.9,0,5.7-0.1,8.6c0,1.4-0.2,2.8-0.3,4.3c0,0.5-0.3,1-0.8,1.2L411.3,233.3z"/>
	<path id="Path_10789" class="st2" d="M92.4,213.3v-45.5c0-0.6,0-1.2,0.1-1.8c0-0.8,0.6-1.4,1.4-1.4c0,0,0.1,0,0.1,0
		c0.3,0,0.6,0,0.9,0h19.9c1.8,0,2.3,0.5,2.3,2.3c-0.1,5.6-0.1,11.2-0.2,16.9c0,3.6,0,7.2,0,10.7c0,5.4,0.1,10.8,0.2,16.2
		c0,4,0,7.9,0,11.9c0,3.7-0.1,7.3-0.1,11c0,2.2,0.1,4.5,0.1,6.7c0,1-0.1,2.1-0.1,3.1c0,4.3,0.1,8.7,0.2,13c0,1.6-0.1,3.1-0.2,4.7
		c0,0.7-0.4,1-1.1,1c-1.5,0-3,0-4.4,0c-4.6,0-9.2,0-13.7-0.1c-1.2,0-2.4,0-3.6,0c-1.3-0.1-1.5-0.3-1.6-1.6c0-0.5,0-1,0-1.4
		L92.4,213.3z M94.9,237.8l-0.3,0c-0.1,0.3-0.1,0.6-0.2,1c-0.1,2.3-0.2,4.7-0.2,7c0,3.7,0.1,7.4,0.1,11.1c0,0.3,0,0.7,0,1
		c0,0.9,0.3,1.2,1.2,1.2c0.7,0.1,1.4,0,2.2,0c3.1,0,6.2-0.1,9.3-0.1c2.1,0,4.3,0.1,6.4,0.1c1.3,0,1.6-0.3,1.6-1.6
		c0-9.6,0-19.2,0-28.8c0-1.4-0.2-2.8-0.3-4.1c-0.2,1.1-0.2,2.2-0.2,3.3c0,1.1-0.2,2.3-0.3,3.4c-0.1,1.1-0.2,2.2-0.4,3.3
		c-0.2,1.1-0.1,2.2-0.7,3.2c-0.3-2-0.3-4.1-0.4-6.1c-0.2-2,0-4-0.6-6c-0.3,2.8-0.3,5.7-0.6,8.5c-0.3,2.8,0.1,5.7-0.7,8.5
		c-0.6-2.2-0.3-4.4-0.4-6.6c-0.2-2.3-0.3-4.5-0.5-6.8c-0.3,0.3-0.5,0.7-0.5,1.2c-0.1,3.2-0.2,6.4-0.3,9.6c0,0.7,0,1.4-0.1,2.1
		c-0.1,0.4-0.2,0.8-0.3,1.2c-1.2-1.6-0.7-3.4-1-5.1c-0.3-1.7,0.1-3.6-0.5-5.3c-0.3,1.8-0.5,3.6-0.6,5.4c-0.2,1.8,0.2,3.6-0.8,5.2
		c-0.8-2.7-0.4-5.6-1.1-8.3c-1.2,3.6-0.3,7.4-1.3,11c-0.8-4.6-0.4-9.3-1.2-13.9c-0.2,2-0.4,3.9-0.4,5.9c-0.1,2.2-0.1,4.5-0.1,6.7
		c-0.1,0.6-0.2,1.1-0.3,1.7h-0.4c-0.2-0.5-0.3-1-0.4-1.6c-0.2-2.5-0.3-4.9-0.4-7.4c0-0.6-0.2-1.1-0.2-1.6c-0.3,0.2-0.4,0.6-0.5,0.9
		c-0.1,1.3-0.2,2.7-0.3,4c-0.1,1.8-0.2,3.7-0.3,5.6c-0.1,0.3-0.2,0.6-0.4,0.9l-0.3-0.1c-0.1-0.4-0.2-0.9-0.2-1.4
		c-0.1-2.1-0.1-4.3-0.2-6.4c0-0.9,0-1.7-0.1-2.6c-0.1-0.3-0.1-0.7-0.2-1c-0.4,0.8-0.6,1.7-0.6,2.6c-0.1,2.4-0.1,4.8-0.2,7.1
		c0.1,1.1-0.1,2.2-0.6,3.1C95,245,95.6,241.3,94.9,237.8L94.9,237.8z"/>
	<path id="Path_10790" class="st2" d="M256.6,354c7.4,0,14.7,0,22,0c35.6,0,71.2,0.1,106.8,0.1c1.3,0,2.6-0.1,3.9,0
		c1.2,0,1.3,0.2,1.3,1.4c0.1,2.9-0.1,2.6-2.5,2.6c-15.8,0-31.5,0-47.2,0c-16.3,0-32.7,0-49,0c-7.4,0-14.9,0.1-22.3,0.1
		c-10.7,0-21.4,0-32.1,0c-4.1,0-8.1-0.1-12.2-0.1c-30.3,0-60.6,0-90.9,0c-3.3,0-6.7,0-10,0c-1.7,0-1.9-0.2-1.9-1.9
		c0-0.2,0-0.4,0-0.6c0-1.3,0.3-1.5,1.5-1.5c3.8,0,7.6,0,11.4,0L256.6,354L256.6,354z"/>
	<path id="Path_10791" class="st2" d="M408.1,332.4c0.7,0.1,1.3,0.2,1.8,0.2c9.8,0,19.7,0,29.5,0h8.7c0.3,0,0.7,0,1,0
		c0.6,0.1,0.9,0.4,0.7,1c-0.2,0.6-0.4,1.2-0.8,1.7c-3.8,6.3-7.6,12.6-11.3,18.9c-2.3,3.8-4.5,7.6-6.8,11.4c-0.6,0.8-0.5,1.9,0,2.6
		c4.8,7.9,9.6,15.9,14.4,23.9c1.4,2.4,2.8,4.7,4.2,7.1c0.2,0.5,0.3,1.1,0.4,1.7c-0.7,0-1.2,0.1-1.6,0.1c-16.4,0-32.8,0-49.3,0
		c-1.5,0-3,0-4.4,0c-1.1,0-1.4-0.3-1.5-1.4c-0.2-2.1,0.2-2.6,2.3-2.6c13.4,0,26.8,0,40.2,0c2.1,0,4.3,0,6.4,0c0.5,0,1-0.1,1.6-0.2
		c-0.9-1.5-1.6-2.9-2.3-4.2c-4.5-7.4-9-14.8-13.5-22.3c-0.4-0.7-0.8-1.5-1.2-2.3c-0.5-0.8-0.5-1.8,0-2.5c0.9-1.5,1.7-3,2.6-4.5
		c2.6-4.4,5.3-8.8,8-13.2c0.5-0.8,1-1.6,1.5-2.4c0.3-0.5,0.4-1,0.7-1.6c-1.6-0.5-3,0.1-4.5-0.3c-0.1-0.3-0.2-0.6-0.2-0.9
		c-0.2-1.8,0.1-2.1,1.9-2.1c1.3,0,2.6-0.2,3.8,0.5c0.4,0.3,0.8,0,1.1-0.4c0.5-0.8,1-1.6,1.5-2.4c0.5-0.9,0.2-1.4-0.9-1.4
		c-20.1,0-40.2,0-60.3,0.1c-1.2,0-2.4,0-3.6,0c-0.2,0-0.5,0-0.7,0c-0.3,0.1-0.7,0.3-0.9,0.6c-0.1,0.2,0.1,0.6,0.3,0.8
		c0.8,0.8,1.6,1.6,2.4,2.4c1.7,1.7,3.4,3.4,5.2,5.1c1.3,1.3,2.6,2.5,3.9,3.7c0.2,0.2,0.4,0.4,0.6,0.7c-0.2,0.2-0.4,0.4-0.7,0.5
		c-0.3,0.1-0.6,0.1-0.8,0.1c-2,0.4-4.1-0.4-5.4-2c-2.5-2.8-5.2-5.3-7.9-7.9c-2.2-2.1-4.4-4.2-6.6-6.3c-0.6-0.5-0.9-1.2-0.8-2
		c0.4-0.1,0.8-0.1,1.2-0.1c2.4,0,4.9,0.1,7.3,0.2c0.9,0,1.9-0.2,2.8-0.2c3.7,0,7.4,0,11,0c1.4,0,1.3-0.1,1.6-1.4
		c0.4-1.3,0.9-2.5,1.5-3.7c0.2-0.5,0.8-0.7,1.3-0.5c0,0,0.1,0,0.1,0.1c0.5,0.2,0.7,0.8,0.5,1.3c0,0,0,0,0,0.1
		c-0.3,0.9-0.8,1.8-1.2,2.8c-0.2,0.3-0.3,0.7-0.5,1.1c0.5,0.4,1.1,0.5,1.8,0.5c1.2,0,2.5,0,3.7,0c0.6,0,1.1,0,1.7,0
		c2.1,0,4.2-0.1,6.3-0.2c0.3,0,0.5-0.1,0.8-0.1c0.7-3.5,2.4-6.6,3.4-9.9c1.3-4.1,2.6-8.3,3.7-12.5c1.1-4.2,2.1-8.5,2.9-12.8
		c1-5,1.7-10,2.2-15.1c0.5-5,0.8-10,0.9-15c0-0.6-0.1-1.3,0.6-1.7c0.7,0.2,0.8,0.7,0.8,1.3c-0.1,2.5-0.1,5-0.2,7.4
		c-0.1,2.1-0.2,4.3-0.4,6.4c-0.3,3-0.6,6-1,8.9c-0.8,5.9-1.9,11.8-3.3,17.7c-0.8,3.3-1.8,6.6-2.8,9.9c-1,3.2-2,6.4-3.1,9.6
		C409.7,328.7,408.9,330.5,408.1,332.4z"/>
	<path id="Path_10792" class="st2" d="M107.4,332.3c-0.6-1.7-1.3-3.1-1.8-4.7c-1.5-4.4-2.9-8.7-4.3-13.2c-2.1-6.8-3.6-13.8-4.7-20.9
		c-0.6-3.6-0.9-7.2-1.3-10.8c-0.6-4.7-0.9-9.5-0.9-14.2c0-0.7,0-1.4,0-2.1c0-0.4,0.3-0.8,0.7-0.6c0.3,0.2,0.4,0.4,0.5,0.7
		c0.1,1.4,0.1,2.8,0.2,4.1c0.2,2.7,0.4,5.3,0.6,8c0.2,2.4,0.3,4.8,0.6,7.2c0.3,2.6,0.7,5.3,1.2,7.9c0.9,4.7,1.8,9.3,2.9,14
		c1,4.4,2.2,8.7,3.7,12.9c1,2.7,2,5.3,2.9,8c0.3,0.9,0.6,1.9,0.7,2.9c0.1,0.8,0.4,1,1.1,1c1.3,0,2.7,0,4,0c2.5,0,5,0,7.6,0
		c0.6,0,1.2-0.1,2-0.2c-0.5-1.2-0.8-2.1-1.3-3c-0.4-0.7-0.1-1.6,0.6-1.9c0,0,0.1,0,0.1,0c0.4,0.3,1,0.6,1.2,1c0.5,1,0.8,2,1.1,3.1
		c0.2,1,0.2,1.1,1.2,1.1c2.5,0,5.1,0,7.6,0c3.7,0,7.4,0,11.2,0c0.5,0,1.2,0.1,1.4,0.4c0.3,0.6-0.1,1.2-0.6,1.7
		c-2.6,2.5-5.1,5-7.7,7.5c-1.6,1.5-3.2,3-4.8,4.5c-1.2,1.1-2.3,2.3-3.4,3.5c-0.5,0.6-1.2,0.9-2,0.8c-0.8-0.1-1.6,0-2.4,0
		c-0.4,0-0.4,0-1.1-0.7c0.7-0.8,1.4-1.6,2.2-2.4c0.8-0.8,1.8-1.6,2.6-2.4c0.4-0.4,0.5-0.6,0.6-1.6c-0.4,0-0.8-0.1-1.2-0.1
		c-0.8,0-1.5-0.7-1.5-1.5c0,0,0,0,0,0c0-0.8,0.6-1.5,1.4-1.5c0.1,0,0.1,0,0.2,0c1.2,0,2.4,0.1,3.6,0.2c0.5,0.1,1,0,1.5-0.2
		c1-0.8,2-1.6,2.8-2.6c0.5-0.5,0.2-1.1-0.6-1.1c-0.2,0-0.5,0-0.7,0c-16.8,0-33.7,0-50.5,0c-4.3,0-8.7,0-13,0c-0.5,0-0.9,0.1-1.3,0.4
		c-0.4,0.4-0.1,1,0.2,1.4c4.1,6.8,8.2,13.6,12.3,20.5c1.2,2,2.3,3.9,3.5,5.9c0.8,1,0.8,2.5,0,3.6c-2.8,4.5-5.5,9.2-8.2,13.7
		c-2.5,4.2-5.1,8.5-7.7,12.7c-0.3,0.6-0.5,1.2-0.7,1.9c0.8,0,1.4,0.1,1.9,0.1h46.2c2,0,2.2,0.3,2.2,2.2c0,1.4-0.5,1.8-1.9,1.8
		c-15,0-30,0-45,0c-2.8,0-5.6,0-8.4,0c-0.5,0-1.1,0.1-1.4-0.5c-0.2-0.5,0-1.1,0.3-1.5c1.7-2.8,3.3-5.7,5-8.5
		c0.5-0.9,1.1-1.7,1.6-2.5c3.9-6.5,7.7-12.9,11.6-19.4c0.2-0.2,0.3-0.5,0.4-0.7c0.5-0.6,0.5-1.5,0-2.1c-1.4-2.3-2.8-4.7-4.1-7
		c-2.6-4.5-5.3-8.9-8-13.4c-1.2-2-2.5-4-3.7-5.9c-1-1.7-2.1-3.3-3-5c-0.7-1.3-0.4-1.9,1.1-1.9c1.6,0,3.1,0.1,4.7,0.1
		c0.9,0,1.7-0.1,2.6-0.1c10.8,0,21.7,0,32.5,0c0.8,0,1.6,0,2.4,0C106.9,332.5,107.2,332.4,107.4,332.3z"/>
	<path id="Path_10793" class="st2" d="M130.5,418.4h66.8c6,0,12,0,18,0c3.5,0,6.9-0.1,10.4-0.1c5.8,0,11.6,0.1,17.5,0.1
		c18.3,0,36.5,0,54.8,0c5.5,0,11,0,16.5,0c4.2,0,8.4-0.1,12.6-0.1c8.6,0,17.1,0.1,25.7,0.1c9.8,0,19.6,0,29.3,0c2.3,0,4.6,0,6.9,0
		c1.5,0,1.6,0.1,1.6,1.6c0,2.4-0.1,2.6-2.5,2.3c-0.8-0.1-1.5-0.1-2.3-0.1H180.1c-17.7,0-35.3,0-53,0c-1.1,0-2.2,0.1-3.3,0.1
		c-0.9,0-1.3-0.2-1.4-1.1c-0.1-0.6-0.1-1.2,0-1.8c0.1-0.9,0.5-1.1,1.3-1.1c2.2,0,4.5,0,6.7,0V418.4z"/>
	<path id="Path_10794" class="st1" d="M237.7,216.3c-1-1.1-2.7-0.6-3.7-2c0.8-1,1.8-1.7,3-2.2c1.1-0.4,2.3-0.6,3.5-0.7
		c0-0.8-0.5-0.9-0.9-1c-2.4-0.7-5-0.2-6.8,1.5c-0.2,0.2-0.5,0.5-0.7,0.7c-0.4,0.4-1,0.3-1.4-0.1c-0.1-0.1-0.2-0.3-0.2-0.4
		c-1.1-2.7-1.9-5.4-2.5-8.2c-0.2-1,0.2-1.8,1.3-2.4c0.9-0.4,1.6-1.1,1.9-2c-0.4-0.1-0.7-0.2-1.1-0.2c-0.3,0-0.7,0-1-0.1
		c-0.3-0.2-0.6-0.5-0.7-0.8c-0.1-0.2,0.3-0.6,0.5-0.7c0.4-0.2,0.8-0.4,1.3-0.6c0.4-0.2,0.8-0.4,1.4-0.7l-0.9-1.3
		c0.4-0.4,0.9-0.8,1.3-1.1c0.5-0.3,1.1-0.6,1.7-0.9c-0.5-0.9-1.5-1.3-2.5-1.1c-0.8,0-1.6,0.1-2.4,0.2c-1.2,0-1.4-0.1-1.3-1.3
		c0.1-1.6,0.3-3.1,0.6-4.7c0.6-3.2,1.2-6.4,1.8-9.5c0.2-0.9,0.5-1.8,0.7-2.8c0.2-0.8,0.7-1.5,1.4-1.9c1.1-0.7,2.4-1.2,3.7-1.3
		c1-0.1,2-0.3,2.9-0.6c0.9-0.3,1-0.7,0.4-1.5c-0.4-0.4-0.7-0.9-1-1.4c-0.5-1.1-0.2-1.7,1-2c1.3-0.2,2.7-0.1,3.9,0.3
		c2.3,0.8,4.4,2,6.2,3.7c2.1,1.8,2.1,1.9,1.3,4.5c-1,3.7-2.1,7.3-3.1,11c-0.4,1.5-0.7,3-1,4.5c-0.3,1.4-0.4,1.6-1.8,1.6
		c-0.7,0-1.4,0.1-2.1,0.2c-0.7,0.1-1,0.7-0.4,1.2c0.6,0.6,1.3,1.1,2.1,1.4c1.1,0.4,1.7,1.4,1.7,2.5c0.3,4.4,0.7,8.8,1.2,13.2
		c0.4,1.9,0.5,3.9,0.5,5.8c-0.2,1.9-0.4,3.8-0.7,5.7c-0.1,0.6-0.1,1.1-0.2,1.6c0,0.2-0.1,0.5-0.2,0.7c-1.8,4.1-7.2,6.2-11.2,3.9
		c-0.8-0.4-1.6-0.9-1.2-2.1c0.1-0.2-0.2-0.5-0.4-0.7c-0.7-1.3-1.2-2.8-1.4-4.3c-0.2-1.7,0.3-2.2,2-2.3
		C235.6,217.7,236.9,217.7,237.7,216.3z"/>
	<path id="Path_10795" class="st1" d="M259.2,194c0.1,0.6,0.6,1.1,1.2,1.1c1.1,0.4,2.2,0.6,3.3,0.8c1.1,0.1,2.1,0.7,2.6,1.8
		c1,2,2.2,3.8,2.6,6.2c0.4,2.7,0.5,5.5,0.4,8.3c-0.2,2.4-0.8,4.7-1.8,6.8c-1.6,3.5-4.2,4.4-7.8,4.2c-0.7,0-1.4-0.1-2.1-0.3
		c-1.5-0.2-2.7-1.2-3-2.6c-0.4-1.6-0.7-3.3-0.8-4.9c-0.2-1.8,0.1-2.1,2-2.3c0.9-0.1,1.8-0.2,2.7-0.3c0.4-0.1,0.7-0.3,0.8-0.6
		c0.1-0.5-0.2-1-0.6-1.1c-0.4-0.2-0.9-0.3-1.3-0.5c-0.4-0.1-0.8-0.3-1.3-0.4c0.4-0.8,1.2-1.4,2.1-1.4c1.1-0.2,2.3-0.3,3.4-0.5
		c0.3-0.1,0.6-0.1,0.9-0.2c-0.8-0.9-2-1.4-3.2-1.4c-1.8-0.1-3.5,0.5-4.9,1.7c-0.1,0.1-0.3,0.2-0.4,0.4c-1.2,1-1.7,0.9-1.9-0.7
		c-0.4-2.7-0.8-5.4-1.2-8c-0.2-1.4-0.2-2.8-0.3-4.1c-0.3-1.4,0.5-2.8,1.8-3.4c0.8-0.3,1.3-1,1.4-1.8l-1.8-1c0.2-0.8,0.9-1.3,1.7-1.5
		c0.6-0.1,1.2-0.2,1.8-0.4c0.3-0.2,0.6-0.6,0.7-0.9c0.1-0.5-0.3-0.8-0.7-0.9c-0.4-0.1-0.8-0.1-1.3-0.1c-1.3-0.2-1.7-0.8-1.4-2
		c1-3.6,2-7.1,3-10.7c0.1-0.3,0.2-0.5,0.2-0.8c0.2-2.1,1.6-4,3.6-4.8c0.5-0.3,1.1-0.5,1.7-0.8c0.7-0.3,1.2-0.9,1.3-1.6
		c-0.6-0.7-1.9-0.2-2.3-1.5c0.5-0.2,1-0.4,1.5-0.6c0.9-0.2,1.7-0.8,1.9-1.7c0.2-0.8,0.9-1.3,1.7-1.2c1.2,0,2.5-0.1,3.7,0.1
		c2.3,0.3,4.3,1.6,6.2,2.8c0.6,0.3,0.9,1,0.8,1.7c-0.1,0.9,0,1.8,0.4,2.6c0.4,1.1,0.6,2.3,0.4,3.5c-0.2,1.5-0.8,2.4-2.3,2.3
		c-0.1,0-0.2,0-0.3,0c-4.4,0.3-6.9,3-8.5,6.7c-1.3,3.1-1.7,6.5-1.2,9.8c0.1,0.8,0.2,1.5,0.3,2.3c0.2,1.1-0.2,1.6-1.4,1.7
		c-1.1,0.1-2.2,0.2-3.3,0.3C259.8,193.7,259.5,193.8,259.2,194z"/>
	<path id="Path_10796" class="st1" d="M209.2,210.9c-0.7-1.3-1.5-2.6-2.2-3.9c-0.7-1.3-1.3-2.7-1.8-4c-0.5-0.9-0.2-2,0.6-2.5
		c0,0,0,0,0,0c0.5-0.2,0.6-0.8,0.4-1.3c0,0,0,0,0-0.1c-0.3-0.9-0.2-1.1,0.7-1.5c0.9-0.2,1.6-0.7,2.1-1.5l-2.2-1.1l1.4-1.2
		c-0.5-0.2-0.9-0.4-1.3-0.5c-1.2-0.4-1.6-1.2-1.1-2.3c0.6-1.4,1.3-2.9,2-4.2c0.8-1.6,1.8-3,2.6-4.6c0.8-1.9,2.6-3.1,4.6-3.4
		c0.7-0.1,1.4-0.2,2.1-0.4c0.9-0.2,1-0.4,0.8-1.3c-0.2-1,0.1-1.5,1.1-1.5c0.8,0,1.6,0.2,2.3,0.6c1,0.5,1.9,1.1,2.7,1.9
		c0.8,0.6,1.1,1.6,0.9,2.6c-0.6,3-1.2,6.1-1.9,9.1c-0.3,1.3-0.9,1.7-2.4,1.8c-0.7,0.1-1.4-0.1-2.1,0.4c0,1.2,1.6,1.9,0.6,3.2
		c0.6,0.3,1,0.4,1.4,0.6c1.2,0.4,2,1.5,2.1,2.8c0.3,4.1,1.3,8.2,3,12c0.6,1.7,1.2,3.5,1.6,5.3c0.9,3.2-1.2,5-3.8,5.8
		c-0.9,0.2-1.9,0.3-2.8,0.3l1.2,0.4c-2.7,0.4-5.9-1.6-6.5-3.8l1,0.2c0.4-0.9,2-1,1.8-2.6c-0.8,0.1-1.6,0.1-2.3,0.2
		c-0.5,0.1-1.1,0.2-1.5-0.3c-0.4-0.5-0.1-1.1,0.1-1.6c0.6-1.4,1.6-2.6,2.9-3.5c0.2-0.1,0.4-0.3,0.5-0.5l0-0.2c-1-0.6-2,0-3.1-0.1
		c-0.1-0.2-0.2-0.3-0.3-0.5c-0.3-0.7-0.9-0.7-1.4-0.3c-0.6,0.5-1.2,1-1.7,1.5C210.4,211.8,210.3,211.8,209.2,210.9L209.2,210.9z"/>
	<path id="Path_10797" class="st2" d="M114.5,331.4c-1,0-2.1,0-3.2,0c-0.7,0-1.4-0.5-1.6-1.2c-1.8-5-3.7-10-5.2-15.1
		c-1.4-4.4-2.5-8.8-3.5-13.2c-1.1-4.7-2-9.5-2.6-14.3c-0.4-3.5-0.9-7-1.3-10.5c0-0.2-0.1-0.5-0.1-0.7c-0.1-3.3-0.2-6.7-0.2-10
		c0-1.6,0.2-1.7,1.7-1.7c0.3,0,0.6,0,0.9,0c2,0,2,0,2.2,2.1c0.2,1.7,0,3.3,0.1,5c0.2,3.5,0.5,7,0.9,10.5c0.4,3.7,0.9,7.5,1.6,11.1
		c0.9,4.7,1.9,9.3,3.1,13.9c0.9,3.6,2,7.2,3.2,10.7c1.3,3.8,2.8,7.6,4.2,11.4C114.9,330,115.2,330.7,114.5,331.4z"/>
	<path id="Path_10798" class="st2" d="M416.4,267.4c-0.4,4.6-0.7,9.1-1.1,13.7c-0.2,2.7-0.5,5.4-0.9,8.1c-1,5.9-2,11.8-3.5,17.6
		c-1.2,5-2.7,9.8-4.4,14.6c-1,2.5-1.8,5.1-2.8,7.7c-0.1,0.4-0.3,0.8-0.5,1.2c-0.2,0.9-1.1,1.4-2,1.2c-0.7-0.1-1.3,0-2,0
		c-1-0.1-1.4-0.5-1-1.5c0.4-1.3,0.9-2.5,1.4-3.7c3.2-7.9,5.7-16,7.5-24.3c1-5.1,2.1-10.2,2.8-15.3c0.7-4.5,1.2-9.1,1.3-13.6
		c0-2,0.2-4.1,0.3-6.1c0-0.4,0-0.8,0.1-1.1c0.1-0.6,0.6-1.1,1.3-1.1c0,0,0,0,0,0c0.7,0,1.3,0,2,0c0.9,0,1.3,0.4,1.4,1.3
		c0,0.1,0,0.2,0,0.3v1.1L416.4,267.4z"/>
	<path id="Path_10799" class="st2" d="M178.6,387c-0.2,0.5-0.4,1-0.5,1.5c0,0.7,0,1.4,0.1,2.1c0,0.5,0.1,1,0.1,1.4
		c0,2-0.1,4.1-0.1,6.1c0,1.3-0.6,1.9-2,2c-1.6,0.1-2.2-0.1-2.2-2.1c0-6.9,0-13.7,0.1-20.6c0-2.2,0.1-2.3,2.4-2.3
		c1.2-0.1,2.4,0.7,2.7,1.9c1.6,3.4,3.2,6.8,4.8,10.2c0.2,0.5,0.4,1.2,1.4,1.3c0.1-0.6,0.2-1.2,0.2-1.8c0-3.1,0-6.3-0.1-9.4
		c0-1.8,0.4-2.2,2.2-2.2c0.2,0,0.5,0,0.7,0c1.1,0.1,1.4,0.4,1.4,1.6c0,0.8-0.2,1.5-0.2,2.3c0,5.8,0,11.6,0,17.4c0,0.8,0,1.7,0,2.5
		c0,0.8-0.5,1.1-1.2,1.1c-0.4,0-0.9,0-1.3,0c-1,0.1-1.9-0.4-2.3-1.4c-0.9-2-1.9-3.9-2.9-5.9c-0.8-1.5-1.5-3.1-2.3-4.6
		C179.4,387.9,179,387.4,178.6,387z"/>
	<path id="Path_10800" class="st2" d="M301.3,383.6c-0.4-0.5-0.8-1-1.1-1.6c-0.7-1.6-2.4-2.5-4.1-2.2c-1.9,0.1-3.5,1.3-4,3.2
		c-0.9,2.7-1,5.7-0.2,8.4c0.3,1,0.9,2,1.6,2.8c0.5,0.5,1.1,0.9,1.8,1c1.3,0.3,2.7,0.1,3.9-0.5c0.6-0.3,1.1-0.8,1.4-1.3
		c0.7-1.4,0.1-2.2-1.4-2.1c-0.4,0.1-0.9,0-1.3,0c-0.5-0.2-1.1-0.5-1.2-0.8c-0.2-1.1-0.2-2.1-0.1-3.2c0-0.3,0.7-0.7,1.1-0.7
		c2.1-0.1,4.2-0.1,6.3,0c0.8,0,1.2,0.6,1.2,1.5c0,2.6,0,5.2,0,7.7c0,0.6-0.3,1.2-0.7,1.6c-0.8,0.7-1.6,1.3-2.5,1.8
		c-3.8,2-7.3,2.2-11-0.7c-1.9-1.5-3.1-3.7-3.5-6.1c-0.6-2.9-0.6-5.9-0.1-8.8c0.6-3.8,2.5-7,6.4-8.4c1.8-0.6,3.7-0.6,5.4,0
		c2.5,0.8,4.5,2.7,5.2,5.2c0.6,1.5,0.3,2.1-1.2,2.5C302.7,383,302.1,383.3,301.3,383.6z"/>
	<path id="Path_10801" class="st2" d="M337.4,388.7c0.1-0.5,0.1-1,0.2-1.5c0-3.4,0-6.9-0.1-10.3c0-1.2,0.4-1.6,1.6-1.7
		c0.3,0,0.7,0,1,0c1,0.1,1.4,0.5,1.4,1.4c0,6,0,11.9,0,17.9c0,1.1,0.1,2.2,0.1,3.3c0,0.3,0,0.7-0.1,1c-0.2,1.1-0.6,1.4-1.7,1.4
		c-0.3,0-0.7,0-1,0c-0.9,0.1-1.7-0.4-2-1.3c-1.1-2.4-2.3-4.7-3.4-7.1c-0.7-1.4-1.3-2.8-2-4.3c-0.2-0.4-0.5-0.8-0.8-1.3l-0.3,0.1
		c-0.1,0.6-0.2,1.1-0.2,1.7c0,3.3,0,6.6,0,9.9c0,0.4,0,0.9-0.1,1.3c0,0.3-0.2,0.7-0.4,0.7c-0.9,0.2-1.8,0.2-2.7,0
		c-0.7-0.2-0.9-1-0.9-1.8c0-1.7,0-3.3,0-5v-16c0-0.3-0.1-0.6,0-0.8c0.2-0.4,0.5-1,0.8-1c0.9-0.1,1.9-0.1,2.8,0
		c0.3,0,0.6,0.4,0.7,0.6c0.4,0.7,0.8,1.5,1.2,2.3c1.5,3.1,3,6.2,4.5,9.3c0.3,0.5,0.6,0.9,0.9,1.3L337.4,388.7z"/>
	<path id="Path_10802" class="st2" d="M345.1,387.6c0-3.5,0-7,0-10.4c0-1.7,0.3-2,2-2c2,0,3.9,0,5.9,0c1.7-0.1,3.3,0.4,4.7,1.4
		c1,0.9,1.8,2,2.3,3.2c1.2,3,1.7,6.3,1.4,9.5c-0.1,1.9-0.5,3.8-1.2,5.6c-0.4,1.3-1.2,2.4-2.1,3.3c-0.5,0.5-1.1,0.9-1.8,1.1
		c-1.7,0.6-3.4,0.9-5.2,0.9c-1.4,0-2.9,0-4.3,0c-1.2,0-1.7-0.5-1.8-1.7C345.1,394.9,345.1,391.2,345.1,387.6z M349.4,387.6
		c0,2,0,4,0,6c0,1.1,0.3,1.4,1.4,1.5c0.6,0,1.2,0,1.9,0c2.4,0,3.5-0.8,3.8-3.2c0.2-2.2,0.3-4.5,0.3-6.7c0-0.9-0.2-1.9-0.6-2.8
		c-0.4-1.4-1.7-2.4-3.2-2.4c-0.7,0-1.3,0-2,0c-1.2,0-1.6,0.4-1.6,1.7C349.4,383.7,349.4,385.6,349.4,387.6L349.4,387.6z"/>
	<path id="Path_10803" class="st2" d="M320.9,205.6c-0.9-0.1-1.2,0.2-1.3,0.8c-0.1,0.4-0.2,0.8-0.3,1.3c-0.1,0.6-0.4,1.1-1.1,1.1
		c-0.7,0-1-0.6-1.1-1.1c-0.2-0.7-0.3-1.4-0.5-2.2h-1.2c-0.1,0.1-0.1,0.3-0.2,0.4c-0.1,0.6-0.2,1.1-0.4,1.7c-0.1,0.6-0.6,1.1-1.3,1.1
		c-0.6-0.1-1.1-0.6-1.1-1.2c0-1,0.1-2,0.3-2.9c0-0.2,0.1-0.3,0.2-0.5c-1.2-0.3-1.3-1.2-1.3-2.2c0.1-1.4-0.2-2.8-0.9-4
		c-0.1-0.2-0.2-0.4-0.3-0.7c-0.3-0.5-0.1-1.1,0.4-1.4c0.1-0.1,0.3-0.1,0.5-0.1c0.3,0,0.7-0.1,1,0h19.7c0.3,0,0.6,0,0.9,0
		c0.6,0,1,0.4,1,1c0,0,0,0,0,0l0,0.1c0,2.4,0,4.7,0,7.1c0,0.5-0.1,0.9-0.4,1.3c-0.6,0.5-1,1.2-1,2c-0.2,1-0.9,1.7-1.4,1.6
		c-0.8-0.2-1-1-1.1-1.7c-0.1-0.5-0.1-1-0.1-1.5c-0.9-0.4-1.3,0-1.5,0.8c-0.1,0.6-0.3,1.1-0.5,1.6c-0.4,1-1.2,1.1-1.8,0.2
		c-0.3-0.4-0.4-0.8-0.6-1.3c-0.1-0.5-0.2-0.9-0.2-1.4l-1.2,0c-0.5,1.2-0.3,2.6-1.5,3.5C321.6,208.2,320.9,206.9,320.9,205.6z"/>
	<path id="Path_10804" class="st2" d="M308.1,387.6v-9.9c0-0.4,0-0.8,0-1.1c0.1-1,0.4-1.3,1.5-1.3c3.9,0,7.7,0,11.6,0
		c1.3,0,1.5,0.3,1.5,1.5c0,0.7,0,1.4,0,2.2c-0.1,1-0.3,1.2-1.3,1.2c-2.2,0-4.3,0-6.4,0c-0.4,0-0.8,0-1.1,0c-0.9,0.1-1.3,0.5-1.3,1.4
		c0,0.8,0.1,1.6,0.2,2.4c0.2,0.9,0.9,0.8,1.6,0.8c2,0,3.9-0.1,5.9-0.1c0.3,0,0.7,0,1,0c0.6,0,1,0.5,1,1.1c0,0.8,0,1.6,0,2.4
		c-0.1,0.9-0.3,1.1-1.3,1.1c-2.1,0-4.3,0-6.4,0c-1.5,0-2,0.4-1.9,2c0,0.8,0.1,1.6,0.2,2.4c0.1,1.1,0.2,1.3,1.4,1.3
		c2.4,0,4.8,0,7.2,0c1.8,0,2,0.2,2.1,2c0,0.6,0,1.2-0.1,1.8c-0.2,1.1-0.4,1.2-1.5,1.3c-0.8,0-1.6,0-2.4,0c-3,0-5.9,0-8.9,0
		c-1.8,0-2.2-0.4-2.2-2.2C308.1,394.5,308.1,391,308.1,387.6z"/>
	<path id="Path_10805" class="st1" d="M302.9,181.1l-1.8-3.1c-0.6,1.9,0.5,3.4,0,4.9c-0.4,0.4-1.2-0.1-1.4,0.7
		c-0.1,0.5-0.1,1-0.1,1.5c0,0.3,0,0.7-0.1,1c-0.2,0.8-0.6,1.1-1.4,0.8c-1.1-0.3-2.2-0.8-3.3-1.4c-1.8-1.1-3.4-2.4-5.1-3.7
		c-1.1-0.8-2.1-1.6-3.1-2.5c-0.9-0.8-1.8-1.6-2.7-2.5c-0.7-0.6-0.7-1.1,0.1-1.8c0.6-0.6,1.1-1.1,0.6-2c-0.2-0.5-0.1-1,0.4-1.3
		c0,0,0.1,0,0.1,0c0.8-0.5,1.6-0.9,2.3-1.4c0.4-0.4,0.9-0.7,1.2-1.2l-2.4-1.1c0.3-0.3,0.5-0.5,0.7-0.6c1.8-0.8,3.8-1.2,5.8-1.1
		c1.6,0.2,3,0.8,4.3,1.7c1.6,1.1,2.9,2.5,3.8,4.1c1.6,2.5,2.4,5.4,2.2,8.4C303.2,180.8,303.1,180.9,302.9,181.1z"/>
	<path id="Path_10806" class="st2" d="M200.9,400.3h-4.7c-0.4,0-0.8,0-1.1,0c-1.5-0.1-2-0.8-2-2.2c0-3.1,0-6.3,0-9.4
		c0-3.3,0.1-6.6,0.1-9.8c0-0.6-0.1-1.1-0.1-1.7c-0.2-0.8,0.3-1.6,1.2-1.8c0.1,0,0.2,0,0.3,0c0.5,0,1,0,1.6,0h9.9
		c1.5,0,1.8,0.4,1.9,1.9v0.4c0,2.4-0.2,2.6-2.6,2.6c-2,0-3.9,0-5.9,0c-1.5,0-1.9,0.3-1.9,1.8c0,0.4,0,0.9,0.1,1.3
		c0.1,1.3,0.3,1.5,1.6,1.5l5.6,0c0.2,0,0.5,0,0.7,0c1.3,0.1,1.6,0.3,1.6,1.6c0,0.5,0,1,0,1.6c-0.1,1.3-0.3,1.5-1.6,1.5
		c-2,0-3.9,0-5.9,0c-0.3,0-0.6,0-0.9,0c-0.8,0.1-1.2,0.4-1.2,1.3c0,1,0,2.1,0,3.2c0,1.1,0.2,1.3,1.4,1.3c2.3,0,4.7,0,7,0
		c0.3,0,0.7,0,1,0c0.6-0.1,1.1,0.3,1.2,0.9c0,0,0,0.1,0,0.1c0.1,1,0.1,2.1,0,3.1c-0.1,0.7-0.5,1-1.3,1
		C204.8,400.2,202.9,400.2,200.9,400.3L200.9,400.3z"/>
	<path id="Path_10807" class="st2" d="M277.2,400.2c-1.8,0-3.6,0-5.4,0c-1.6,0-1.9-0.4-1.9-1.9c0-6.2,0-12.3,0-18.5
		c0-0.9-0.1-1.8-0.2-2.7c-0.1-1.2,0.4-1.9,1.6-1.9c3.8,0,7.6,0,11.4,0c1.3,0,1.5,0.3,1.5,1.5c0,0.6,0,1.2,0,1.9
		c-0.1,1.3-0.4,1.6-1.7,1.6l-6-0.1c-0.3,0-0.6,0-0.9,0c-1.4,0.1-1.7,0.5-1.8,1.8c0,2.6,0.2,2.8,2.8,2.7c1.7,0,3.4,0,5.1,0
		c1.5,0,1.7,0.3,1.7,1.8c0.1,2.9,0.1,2.9-2.8,2.8c-1.6,0-3.2,0-4.9,0c-1.8,0-2.1,0.3-2.1,2.1c0,0.7,0,1.4,0,2.1
		c0.1,1.2,0.5,1.6,1.7,1.6c2.3,0,4.6,0,6.9,0c1.8,0,2.2,0.4,2.2,2.2c0.1,2.8-0.1,3-2.9,3C280.4,400.2,278.8,400.2,277.2,400.2
		L277.2,400.2z"/>
	<path id="Path_10808" class="st2" d="M363.4,391.6l3.7-0.4c0.3,0.8,0.6,1.4,0.8,2.1c0.6,1.9,2.7,2.9,4.6,2.3
		c0.6-0.2,1.1-0.5,1.5-0.9c1-0.9,1.1-2.4,0.2-3.4c-0.2-0.2-0.5-0.4-0.8-0.6c-0.9-0.4-1.7-0.8-2.6-1.1c-1.1-0.4-2.1-0.8-3.2-1.2
		c-2-0.9-3.3-2.7-3.5-4.8c-0.3-1.5-0.2-3,0.3-4.5c0.8-2.3,2.8-3.9,5.1-4.2c1.7-0.3,3.5-0.1,5,0.6c2.3,1.2,3.8,3.5,3.9,6.1
		c0,1-0.1,1-1,1.2c-0.4,0.1-0.8,0.1-1.3,0.2c-0.9,0.2-1.9-0.3-2.2-1.2c-0.7-1.7-2.6-2.6-4.4-1.9c-0.3,0.1-0.5,0.2-0.7,0.4
		c-0.7,0.4-0.9,1.2-0.6,1.9c0,0,0,0.1,0.1,0.1c0.4,0.7,1,1.3,1.8,1.5c1.7,0.6,3.4,1.4,5.2,2c1.4,0.6,2.5,1.7,3,3.1
		c1.3,2.8,1.1,6.1-0.6,8.8c-1,1.5-2.5,2.5-4.2,2.8c-1.9,0.5-3.8,0.4-5.6-0.4c-2.9-1.2-4-3.6-4.6-6.3
		C363.4,393,363.4,392.3,363.4,391.6z"/>
	<path id="Path_10809" class="st2" d="M210.3,391.5c0.9-0.1,1.8-0.2,2.7-0.3c0.6-0.1,1.2,0.3,1.2,0.9l0.3,1c0.4,1.7,1.8,2.3,3.3,2.6
		c1.8,0.4,3.9-1.9,3.5-3.7c-0.2-0.8-0.8-1.4-1.5-1.6c-1.1-0.4-2.2-0.8-3.4-1.2c-1.7-0.5-3.2-1.4-4.4-2.8c-2.7-3.5-2-10.2,3.8-11.6
		c4.3-1.1,8.6,1.1,9.4,6.3c0,0.5-0.1,1-0.2,1.4c-1,0.1-1.8,0.1-2.7,0.1c-0.7,0.1-1.4-0.3-1.6-1c-0.1-0.2-0.2-0.4-0.3-0.6
		c-1.3-2.1-3.5-1.9-5.2-0.6c-0.2,0.3-0.4,0.7-0.3,1c0,1,0.7,1.7,1.8,2.1c1.8,0.6,3.6,1.3,5.3,2.1c1.9,0.9,3.2,2.7,3.5,4.7
		c0.5,2.3,0.2,4.7-1,6.8c-0.9,1.6-2.4,2.7-4.1,3c-1.9,0.6-3.9,0.4-5.7-0.4c-3.1-1.4-4.9-4.6-4.6-7.9
		C210.2,391.9,210.2,391.9,210.3,391.5z"/>
	<path id="Path_10810" class="st2" d="M235.7,400.5c-4,0.2-7-2.8-7.8-6.4c0-0.1,0-0.3-0.1-0.4c-0.5-2.1-0.2-2.2,1.9-2.4
		c0.2,0,0.5,0,0.7-0.1c0.6-0.1,1.3,0.2,1.5,0.9c0.1,0.4,0.3,0.7,0.4,1.1c0.4,1.4,1.6,2.4,3.1,2.6c1.3,0.1,2.5-0.5,3.2-1.6
		c0.8-1.2,0.5-2.7-0.7-3.5c-0.2-0.1-0.3-0.2-0.5-0.3c-0.8-0.3-1.7-0.5-2.6-0.9c-1.2-0.4-2.4-0.9-3.5-1.5c-0.8-0.5-1.4-1.2-1.9-2.1
		c-2.4-3.9-0.8-8.7,2.2-10.3c3.5-1.9,7.9-1.1,10.1,2.1c0.8,1.2,1.2,2.5,1.2,3.9c0,0.6-0.2,1-0.9,1c-0.4,0-0.9,0-1.3,0.1
		c-1.1,0.3-2.1-0.4-2.4-1.4c-0.7-1.6-2.6-2.3-4.2-1.5c-0.3,0.1-0.6,0.3-0.8,0.6c-0.7,0.8-0.6,2,0.2,2.7c0.2,0.2,0.4,0.3,0.7,0.4
		c1.2,0.5,2.4,0.8,3.6,1.3c1,0.4,2,0.8,3,1.4c1.1,0.7,1.9,1.8,2.3,3c1,2.6,0.8,5.5-0.6,8c-1.2,2.3-3.3,3.2-5.7,3.4
		C236.3,400.5,236,400.5,235.7,400.5z"/>
	<path id="Path_10811" class="st2" d="M198.9,208.8c-1.1-0.8-1.2-2-1.4-3.3l-1.2-0.1c-0.1,0.2-0.1,0.3-0.2,0.5
		c-0.1,0.7-0.3,1.4-0.5,2.1c-0.4,1-1.2,1.1-1.8,0.2c-0.3-0.7-0.6-1.4-0.8-2.1c-0.1-0.2-0.1-0.4-0.2-0.6c-0.7-0.2-1.2-0.1-1.3,0.8
		c0,0.5-0.1,1-0.3,1.5c-0.2,0.4-0.5,0.8-0.8,0.8c-0.4,0-0.8-0.3-1-0.6c-0.3-0.8-0.6-1.6-0.9-2.4c-1.1-0.1-1.1-0.1-1.4,0.8
		c-0.2,0.5-0.2,1-0.4,1.5c-0.4,0.9-1.2,1-1.7,0.2c-0.3-0.6-0.5-1.2-0.7-1.9c-0.1-0.4-0.1-0.8-0.6-0.8c-0.5-0.1-1,0.3-1,0.8
		c-0.1,0.6-0.3,1.2-0.5,1.8c-0.4,1-1.1,1-1.7,0.1c-0.3-0.3-0.5-0.7-0.5-1.1c0.1-1.6-1.4-2.7-1.2-4.3c0.1-0.7,0.1-1.3,0.2-2
		c0-0.8,0-1.7,0-2.5c0-0.2-0.1-0.5-0.1-0.7c0-1.4,0.4-1.8,1.9-1.8c2.9,0,5.7,0,8.6,0c2.5,0,5.1,0,7.6,0c1.4,0,1.5,0.1,1.8,1.5
		c0.2,1.2,0.5,2.3,0.6,3.5c0,0.4-0.1,0.9-0.3,1.2c-0.4,0.8-0.3,1.8,0.3,2.5c0.8,0.8,1.1,2.1,0.7,3.2
		C200,208.2,199.5,208.7,198.9,208.8z"/>
	<path id="Path_10812" class="st2" d="M138.5,384.8c2.1,0,3.9,0,5.7,0c0.3,0,0.6-0.1,0.9,0c0.9,0.1,1.2,0.3,1.3,1.2
		c0.1,0.9,0.1,1.9,0,2.8c0,0.6-0.5,1.1-1.1,1.1c-0.1,0-0.1,0-0.2,0c-1.6,0-3.2,0-4.9,0c-1.5,0-1.8,0.3-1.8,1.9c0,2.1,0,4.3,0,6.4
		c-0.1,0.7-0.2,1.4-0.4,2.1c-0.9,0-1.5,0-2.2,0c-1.1,0-1.6-0.5-1.6-1.6c-0.1-1.6-0.1-3.1-0.1-4.7c0-3.2,0-6.5,0-9.7
		c0-2.4,0-4.8,0-7.1c0-1.4,0.5-1.9,1.9-1.9c3.2,0,6.5,0,9.7,0c1.6,0,1.9,0.3,1.9,1.8c0,0.5,0,1.1,0,1.6c-0.1,1.3-0.6,1.6-1.9,1.6
		c-1.8,0-3.6-0.1-5.4-0.1c-0.4,0-0.8,0-1.1,0.1c-0.3,0.1-0.7,0.5-0.7,0.7C138.5,382.1,138.5,383.3,138.5,384.8z"/>
	<path id="Path_10813" class="st2" d="M219.1,136.8c0-0.6,0-1.1,0-1.7c-0.3-1.7-0.7-3.4-1-5.2c-0.3-1.9,0.4-2.7,2.6-3.1
		c0.5,1.3,1.1,2.5,1.6,3.9c1.4,3.8,2.7,7.6,4.1,11.4c0.1,0.3,0.2,0.6,0.2,1c0.2,0.7-0.2,1.4-0.8,1.6c-0.8,0.3-1,0.2-1.6-0.7
		c-0.2-0.3-0.5-0.6-0.8-1c-0.2,0.3-0.3,0.6-0.4,1c-0.1,0.4-0.1,0.8-0.1,1.1c-0.1,0.5-0.3,1-0.9,1.1c-0.5,0-1-0.3-1.3-0.8
		c-0.3-0.4-0.5-0.8-0.7-1.2c-0.1-0.2-0.3-0.5-0.4-0.8c-0.7,0.8-0.4,1.3-0.4,1.9c0,0.5,0.1,1,0,1.5c-0.1,0.5-0.5,0.9-1,0.9
		c-0.5,0.1-1-0.1-1.2-0.5c-0.2-0.3-0.4-0.7-0.5-1c-1.3-3.7-2.6-7.5-3.9-11.2c-0.3-0.8-0.6-1.6-0.9-2.4c-0.6-1.8,0.2-3,2-3
		c0.5,0.1,0.9,0.4,1.2,0.8c0.8,1.3,1.5,2.7,2.3,4.1C217.6,135.6,218.2,136.3,219.1,136.8z"/>
	<path id="Path_10814" class="st2" d="M162.1,389.8c0-2.8,0-5.5,0-8.3c0-1.4-0.1-1.5-1.5-1.5c-0.9,0-1.8,0-2.7,0
		c-0.6,0.1-1.2-0.4-1.3-1c0,0,0,0,0,0c-0.1-0.4-0.2-0.7-0.2-1.1c-0.2-2.1,0.3-2.7,2.4-2.7c3.7,0,7.3,0,11,0c0.2,0,0.5,0,0.7,0
		c1.3,0.1,1.6,0.3,1.6,1.6c0,0.6,0,1.1,0,1.7c-0.1,1.4-0.4,1.6-1.8,1.6c-0.9-0.1-1.7,0-2.6,0c-0.9,0.1-1.2,0.5-1.2,1.4
		c0,5.3,0.1,10.6,0.1,15.9c0,0.3,0,0.7,0,1c-0.1,1.4-0.9,2-2.3,1.8c-0.2,0-0.4,0-0.6-0.1c-1.3-0.2-1.6-0.5-1.6-1.9
		C162.1,395.5,162.1,392.7,162.1,389.8z"/>
	<path id="Path_10815" class="st2" d="M253.7,387.6c0-3.5,0-7,0-10.4c0-1.4,0.3-1.6,1.7-1.7c2.5-0.1,2.5,0,2.5,2.5
		c0,5.1,0,10.2,0,15.3c0,1.5,0.3,1.8,1.8,1.8c1.9,0,3.8,0,5.7,0c1.8,0,2.2,0.4,2.2,2.3c0,2.7-0.3,3-3.2,2.9
		c-2.9-0.1-5.7-0.1-8.6-0.1c-1.8,0-2.2-0.5-2.2-2.3C253.7,394.4,253.7,391,253.7,387.6L253.7,387.6z"/>
	<path id="Path_10816" class="st2" d="M87.9,208.9c-2-0.4-1.5-2.2-2-3.3c-0.7-0.3-1.1-0.1-1.3,0.6c-0.1,0.5-0.3,1-0.4,1.5
		c-0.1,0.6-0.3,1-1,1.1c-0.6,0.1-0.9-0.4-1.1-0.9c-0.3-0.7-0.5-1.5-0.8-2.3c-1.1-0.1-1.2-0.1-1.4,0.8c-0.1,0.6-0.2,1.2-0.5,1.8
		c-0.4,0.8-1.1,0.9-1.5,0.1c-0.6-1.4-1.5-2.7-2.5-3.8c-0.5-0.5-0.4-1.5-0.4-2.3c-0.1-1,0-2.1,0-3.1c0-0.8,0.1-1.6,0.2-2.4
		c0-0.6,0.5-1,1.1-1c0,0,0.1,0,0.1,0c3.5,0,7,0,10.4,0c0.6,0,1,0.3,1.1,0.9c0.1,1.3,0.2,2.6,0.2,3.8c-0.1,0.7-0.3,1.4-0.7,2
		c-0.4,0.5-0.4,1.2,0.1,1.6C88.6,205.5,88.1,207.2,87.9,208.9z"/>
	<path id="Path_10817" class="st2" d="M435.6,205.5c-0.6,1.2-0.2,2.6-1.4,3.3c-0.9-0.3-1.5-1.1-1.6-2c-0.1-0.5,0-1.3-0.8-1.3
		c-0.8,0-0.8,0.7-0.9,1.3c-0.1,0.4-0.2,0.8-0.4,1.2c-0.2,0.4-0.6,0.6-1,0.7c-0.4-0.1-0.7-0.3-0.9-0.7c-0.2-0.9-0.4-1.9-0.6-2.8
		l-1.3,0.3c-0.1,0.6-0.2,1.3-0.4,1.9c-0.1,0.3-0.4,0.5-0.7,0.8c-0.3-0.3-0.8-0.6-0.8-0.9c-0.1-0.7,0-1.5,0.3-2.2
		c0.6-1,0.6-2.2,0.1-3.3c-0.7-1.7-0.3-3.4-0.2-5.1c0.1-0.9,0.4-1.1,1.5-1.1c1.6,0,3.1,0,4.7,0c1.7,0,3.3,0,5,0
		c1.2,0,1.5,0.2,1.5,1.4c0,1.9,0.1,3.9-0.1,5.8C437.7,204.1,437.2,205.3,435.6,205.5z"/>
	<path id="Path_10818" class="st2" d="M154.6,387.5c0,3.6,0,7.2,0,10.9c-0.1,0.5-0.2,0.9-0.4,1.4c-0.1,0.1-0.1,0.2-0.2,0.3
		c-1.1,0.9-3.6-0.1-3.7-1.5c-0.1-1,0-2.1,0-3.1c0-5.6,0-11.2,0-16.9c0-0.6-0.1-1.2-0.1-1.8c-0.1-0.7,0.4-1.4,1.1-1.5
		c0,0,0.1,0,0.1,0c0.1,0,0.2,0,0.3,0c2.5-0.1,2.8-0.1,2.8,2.5C154.5,381,154.5,384.2,154.6,387.5L154.6,387.5z"/>
	<path id="Path_10819" class="st2" d="M213.6,147.2c-0.2,0.9-0.2,1.5-0.4,2.1c-0.8,3-3.5,3-5.1,1.8c-0.7-0.6-1.3-1.4-1.7-2.2
		c-1.7-3.4-3.3-6.8-4.9-10.2c-0.3-0.5-0.4-1-0.5-1.6c-0.1-0.7,0.3-1.4,1-1.5c0.8-0.2,1.1,0.4,1.4,0.9c0.9,1.8,1.8,3.7,2.6,5.5
		c0.8,1.6,1.5,3.2,2.2,4.8c0.4,0.9,0.9,1.3,1.5,1c0.6-0.4,0.8-1.3,0.4-1.9c-0.9-1.8-1.8-3.7-2.7-5.5c-0.7-1.5-1.5-3-2.1-4.5
		c-0.5-0.8-0.4-1.9,0.4-2.4c0.7-0.5,1.2-0.5,1.7,0.2c0.5,0.8,0.8,1.6,1.2,2.4c1.4,2.9,2.8,5.8,4.2,8.8
		C213.1,145.7,213.3,146.5,213.6,147.2z"/>
	<path id="Path_10820" class="st2" d="M251.8,133.7c-0.2-3.4-0.5-6.8-0.7-10.2c0-0.5,0-1,0-1.6c0.1-0.6,0.6-1,1.2-1
		c0.5-0.1,1.1,0.2,1.2,0.8c0.2,0.5,0.3,1,0.3,1.5c0.1,2.3,0.2,4.6,0.4,6.8c0.1,1.5,0.2,3,0.4,4.5c0.2,1.9-0.6,3.7-2.2,4.8
		c-0.7,0.5-1.7,0.6-2.4,0.1c-1.2-0.5-2-1.5-2.3-2.8c-0.3-1.2-0.4-2.4-0.5-3.6c-0.2-2.8-0.4-5.7-0.6-8.5c-0.1-0.6-0.1-1.1,0-1.7
		c0.1-0.4,0.2-0.8,0.5-1.1c0.7-0.8,1.5-0.6,1.9,0.4c0.1,0.3,0.1,0.6,0.2,1c0.2,3.2,0.4,6.4,0.6,9.7c0,0.7,0.1,1.3,0.2,2
		c0,0.5,0.1,0.9,0.7,1c0.5,0.1,1-0.2,1.1-0.7c0.1-0.4,0.2-0.8,0.3-1.2L251.8,133.7z"/>
	<path id="Path_10821" class="st2" d="M201.3,147c0,1.2-0.4,2.4-1.1,3.3c-0.9,1.2-0.9,1.4-0.2,2.6c0.4,0.6,0.8,1.3,1.2,1.9
		c0.2,0.4,0.4,0.8,0.5,1.3c0.1,0.7-0.4,1.4-1,1.7c-0.7,0.2-1.2-0.2-1.5-0.8c-1.1-1.9-2.1-3.7-3.2-5.6c-1.4-2.3-2.8-4.7-4.1-7
		c-0.9-1.6-0.8-2.1,0.7-3.2c0.4-0.3,0.8-0.6,1.3-0.9c1.6-1,3.2-0.9,4.3,0.5c1.1,1.5,2,3.1,2.9,4.7
		C201.3,146.1,201.3,146.5,201.3,147z M197.6,148c0.2-0.3,0.4-0.7,0.5-1.1c0.2-1.2-0.3-2.3-1.2-3c-0.2-0.2-0.8-0.4-1-0.3
		c-0.3,0.3-0.5,0.6-0.5,1C195.8,146,196.5,147.2,197.6,148z"/>
	<path id="Path_10822" class="st2" d="M229.5,124.3c1.5,0,2.8,0.9,3.3,2.3c0.6,1.5,1,3,1.3,4.5c0.2,2-0.3,3.8-2.2,4.9
		c-0.7,0.3-1,1-0.9,1.8c0.2,1.1,0.5,2.2,0.7,3.4c0.1,0.4,0.1,0.8,0,1.3c0,0.5-0.4,0.9-0.9,0.9c-0.6,0-1.1,0-1.3-0.6
		c-0.2-0.5-0.4-1.1-0.5-1.6c-1.1-4.5-2.2-9-3.2-13.5c-0.4-1.7,0-2.4,1.7-2.8C228.1,124.5,228.9,124.4,229.5,124.3z M228.8,129.1
		c0.2,1,0.4,1.9,0.7,2.7c0.1,0.3,0.6,0.6,0.8,0.6c0.4-0.1,0.7-0.4,0.9-0.8c0.2-1,0-2.1-0.6-3c-0.2-0.3-0.8-0.4-1.2-0.4
		C229.2,128.3,229,128.8,228.8,129.1z"/>
	<path id="Path_10823" class="st2" d="M308.8,145.2c-0.4,0.5-0.8,0.9-1.2,1.4c-0.6,0.7-0.6,1.8,0.1,2.5c0.1,0.1,0.3,0.2,0.4,0.3
		c0.2,0.1,0.4,0.3,0.6,0.4c0.9,0.6,1.2,1.9,0.6,2.8c-0.1,0.1-0.2,0.3-0.3,0.4c-0.3,0.4-0.9,0.5-1.3,0.2c-1.3-0.7-2.6-1.5-3.9-2.3
		c-0.6-0.4-0.7-1.1-0.3-2.1c0.4-0.9,0.8-1.7,1.2-2.6c1.8-3.6,3.6-7.2,5.4-10.8c0.1-0.3,0.3-0.6,0.5-0.9c0.3-0.4,0.8-0.5,1.3-0.2
		c0,0,0,0,0,0c1.1,0.7,2.2,1.3,3.3,2c1,0.5,1.4,1.6,0.9,2.6c0,0,0,0.1,0,0.1c-0.4,1.1-1,1.3-2.1,0.7c-0.1-0.1-0.2-0.2-0.4-0.2
		c-0.6-0.3-1.2-0.9-1.9-0.3c-0.8,0.6-1.2,1.5-1.2,2.5c0,0.4,0.4,0.7,0.7,1c0.9,0.7,1.1,2,0.4,2.9c-0.2,0.6-0.9,0.9-1.4,0.7
		c-0.1,0-0.2-0.1-0.3-0.2C309.6,145.8,309.3,145.5,308.8,145.2z"/>
	<path id="Path_10824" class="st2" d="M301.8,129.4c1.6,0.7,3,1.3,4.3,1.9c1,0.6,1.4,1.8,0.8,2.8c-0.1,0.1-0.2,0.3-0.3,0.4
		c-0.4,0.5-1,0.6-1.6,0.3c-0.5-0.2-1-0.4-1.4-0.6c-0.4-0.2-1-0.1-1.3,0.3c-0.6,0.7-0.8,1.6-0.7,2.6c0,0.3,0.4,0.6,0.7,0.8
		c1,0.6,1.3,2,0.6,3c-0.1,0.1-0.2,0.2-0.3,0.4c-0.3,0.2-0.8,0.3-1.2,0.2c-0.6-0.1-1.3-0.6-1.7-0.1c-0.4,0.6-0.7,1.2-0.9,1.9
		c-0.1,0.4-0.1,0.8,0,1.1c0.7,0.4,1.4,0.7,2,1.1c0.9,0.6,0.7,2.8-0.2,3.2c-0.4,0.1-0.9,0.1-1.4-0.1c-1.3-0.5-2.5-1.2-3.7-1.8
		c-0.5-0.3-0.8-0.9-0.6-1.5c0.2-0.6,0.4-1.3,0.7-1.9c1.2-3,2.4-5.9,3.5-8.9c0.5-1.2,1-2.5,1.5-3.7
		C301.1,130.5,301.4,129.9,301.8,129.4z"/>
	<path id="Path_10825" class="st2" d="M258,126.6c0-1.3,0-2.7,0-4.1c0.1-1.3,0.4-1.6,1.7-1.6c0.6,0,1.2,0,1.9,0
		c1.4,0,2.6,0.9,3.1,2.2c0.8,1.6,0.5,3.2,0.4,4.8c-0.1,0.9-0.2,1.7-0.5,2.5c-0.4,1.3-1.5,2.2-2.8,2.3c-1,0.1-1.3,0.5-1.4,1.5
		c-0.1,0.8,0,1.5-0.1,2.3c0,0.6-0.1,1.2-0.2,1.8c-0.1,0.6-0.6,1.1-1.3,1c0,0-0.1,0-0.1,0c-0.6,0-1.1-0.6-1-1.2c0,0,0,0,0,0
		c0-1.4-0.1-2.9,0-4.3C257.8,131.4,257.9,129,258,126.6z M262.7,126.6c-0.1-0.5-0.2-1.1-0.4-1.6c-0.2-0.3-0.6-0.5-1-0.6
		c-0.4,0.1-0.7,0.4-0.8,0.8c-0.1,0.8-0.1,1.6,0,2.4c0,0.3,0.3,0.8,0.6,0.8c0.4,0,0.8-0.1,1.1-0.4
		C262.4,127.7,262.6,127.2,262.7,126.6z"/>
	<path id="Path_10826" class="st2" d="M286,127.3c0,0.1,0,0.2,0,0.4c-0.2,0.4-0.3,1-0.6,1.1c-0.6,0.3-1.3,0-1.6-0.6
		c-0.1-0.3-0.3-0.6-0.5-0.9c-0.2-0.4-0.7-0.6-1.1-0.3c-0.2,0.1-0.3,0.2-0.4,0.4c-0.4,0.6-0.4,1.4-0.1,2c0.5,1.1,1,2.2,1.6,3.2
		c0.9,1.6,1.2,3.5,0.9,5.4c-0.2,1.3-0.9,2.5-1.8,3.3c-1.3,1.1-3.3,0.9-4.4-0.4c-0.9-1.1-1.3-2.4-1.3-3.8c0-0.2,0.1-0.5,0.2-0.7
		c0.1-0.5,0.7-0.9,1.2-0.8c0.5,0,0.9,0.3,1.1,0.8c0.1,0.4,0.2,0.8,0.4,1.2c0.2,0.3,0.5,0.8,0.7,0.8c0.5-0.1,0.9-0.3,1.1-0.7
		c0.4-0.8,0.4-1.7-0.1-2.4c-0.6-1.1-1.1-2.2-1.7-3.3c-0.9-1.8-1-3.8-0.4-5.7c0.6-2,2.1-3,4-2.6C285.1,124,286.1,124.9,286,127.3z"/>
	<path id="Path_10827" class="st2" d="M297.3,129.2c-0.1,0.3-0.2,0.7-0.3,1c-0.1,0.5-0.6,0.8-1.1,0.8c-1.5,0.1-1.7,0.2-2.1,1.6
		c-1,3.3-1.9,6.6-2.9,9.9c-0.1,0.5-0.3,0.9-0.5,1.3c-0.2,0.5-0.5,1-1.1,0.9c-0.7-0.1-1.2-0.7-1.3-1.4c0-0.6,0-1.1,0.2-1.7
		c1-3.3,1.9-6.6,3-9.8c0.5-1,0.3-2.1-0.5-2.8c-0.8-0.6-0.9-1.7-0.3-2.4c0,0,0.1-0.1,0.1-0.1c0.6-0.8,0.9-0.8,1.8-0.5
		c1.1,0.4,2.2,0.7,3.2,1.1C296.7,127.1,297.4,128.1,297.3,129.2C297.3,129.2,297.3,129.2,297.3,129.2z"/>
	<path id="Path_10828" class="st2" d="M321.8,141.3c-0.2,0.6-0.5,1.1-0.7,1.7c-1.7,2.9-3.5,5.8-5.3,8.7c-0.9,1.4-0.8,1.9,0.5,3
		c1,0.9,1,2.5,0.1,3.5c0,0,0,0-0.1,0.1c-0.3,0.2-0.7,0.2-1,0c-1.2-0.7-2.3-1.5-3.4-2.3c-1-0.8-1.1-1.3-0.4-2.5
		c1.5-2.5,3.1-5,4.6-7.6c1.1-1.8,2.1-3.5,3.1-5.3c0.6-1,1.4-1.1,2.1-0.4C321.5,140.4,321.6,140.8,321.8,141.3z"/>
	<path id="Path_10829" class="st1" d="M274.9,213.2c1.6-0.7,3.5-0.5,4.4,0.6c0.4,0.5,0.6,1.1,0.7,1.8c0.1,1.8-0.6,3.5-1.8,4.8
		c-1.2,1.4-2.9,2.4-4.8,2.7c-0.7,0.2-1.4,0-1.8-0.5c-0.3-0.5-0.3-1.2,0-1.8c0.5-0.9,0.9-1.9,1.4-2.8c0.4-0.8,1.2-1.4,2.1-1.5
		c0.4-0.1,0.8-0.2,1.2-0.4c0.7-0.3,0.8-0.8,0.3-1.3C276.1,214.2,275.5,213.7,274.9,213.2z"/>
	<path id="Path_10830" class="st2" d="M416.9,343.7c-0.6,0-1.2,0-1.9,0c-0.8,0.1-1.5-0.6-1.6-1.4c0,0,0-0.1,0-0.1
		c0-1,0.5-1.5,1.6-1.6c1.3,0,2.6,0,3.9,0c0.8,0,1.4,0.7,1.4,1.5c0,0,0,0.1,0,0.1c0,0.8-0.6,1.4-1.3,1.4c0,0-0.1,0-0.1,0
		C418.2,343.7,417.5,343.7,416.9,343.7z"/>
	<path id="Path_10831" class="st2" d="M98.8,340.6c0.7,0,1.3,0,2,0c0.5-0.1,0.9,0.2,1,0.7c0,0.1,0,0.1,0,0.2c0,0.5,0,1-0.2,1.5
		c-0.2,0.3-0.5,0.6-0.8,0.6c-1.4,0.1-2.8,0-4.1,0c-0.9,0-1.5-0.7-1.5-1.6c0-0.9,0.5-1.4,1.6-1.5C97.5,340.6,98.2,340.6,98.8,340.6z"
		/>
	<path id="Path_10832" class="st2" d="M109.3,343.7c-0.5,0-1,0-1.6,0c-1.2,0-1.8-0.5-1.8-1.6c0-1.1,0.4-1.4,1.6-1.5
		c1.2,0,2.4,0,3.6,0c1,0,1.4,0.4,1.4,1.4c0.1,0.7-0.3,1.4-1,1.6c-0.1,0-0.1,0-0.2,0C110.6,343.7,109.9,343.7,109.3,343.7
		L109.3,343.7z"/>
	<path id="Path_10833" class="st2" d="M119.7,340.6c0.6,0,1.2,0,1.8,0c1,0.1,1.5,0.5,1.5,1.3c0.1,0.8-0.5,1.6-1.3,1.7c0,0,0,0-0.1,0
		c-1.4,0.1-2.8,0.1-4.3,0c-0.7,0-1.1-0.8-1-1.6c0-0.8,0.4-1.3,1.2-1.3C118.3,340.6,119,340.6,119.7,340.6L119.7,340.6z"/>
	<path id="Path_10834" class="st2" d="M427.6,343.7c-0.8,0-1.5,0-2.1,0c-0.8,0-1.5-0.7-1.5-1.6c0-0.1,0-0.1,0-0.2
		c0-0.9,0.4-1.2,1.5-1.3c1.2,0,2.5,0,3.7,0c1,0,1.4,0.4,1.4,1.4c0,1.1-0.4,1.7-1.4,1.7C428.7,343.8,428.1,343.7,427.6,343.7z"/>
	<path id="Path_10835" class="st2" d="M406.3,343.8c-0.7,0-1.3-0.1-2-0.1c-0.8-0.1-1.5-0.8-1.4-1.6c0,0,0,0,0,0
		c0-0.8,0.6-1.4,1.4-1.4c0,0,0,0,0.1,0c1.2,0,2.5,0,3.7,0c0.8-0.1,1.5,0.5,1.5,1.3c0,0.1,0,0.1,0,0.2c0.1,0.8-0.6,1.6-1.4,1.6
		c0,0,0,0,0,0C407.6,343.8,407,343.8,406.3,343.8L406.3,343.8z"/>
	<path id="Path_10836" class="st2" d="M88.1,343.7c-0.6,0-1.2,0-1.8,0c-0.7,0.1-1.3-0.4-1.3-1.1c0-0.1,0-0.2,0-0.2
		c-0.1-1,0.3-1.6,1.2-1.7c0.7,0,1.4-0.1,2.1,0c0.7,0,1.3,0,2,0c0.7,0,1.3,0.5,1.3,1.2c0,0.1,0,0.1,0,0.2c0.1,0.8-0.5,1.5-1.3,1.6
		c-0.4,0-0.8,0-1.1,0L88.1,343.7L88.1,343.7z"/>
	<path id="Path_10837" class="st2" d="M396,340.6c0.6,0,1.1,0,1.7,0c0.7-0.1,1.4,0.5,1.5,1.2c0,0.1,0,0.1,0,0.2
		c0.1,0.8-0.4,1.5-1.2,1.6c0,0,0,0,0,0c-0.7,0.1-1.4,0.1-2.1,0c-0.6,0-1.2-0.1-1.8-0.1c-1-0.1-1.6-0.7-1.6-1.5
		c0-0.8,0.8-1.5,1.6-1.5C394.6,340.6,395.3,340.6,396,340.6L396,340.6z"/>
	<path id="Path_10838" class="st2" d="M263.4,416.2c-0.7,0-1.4,0-2.1,0c-0.7,0-1.2-0.5-1.3-1.1c0-0.1,0-0.2,0-0.3
		c0-0.7,0.5-1.4,1.2-1.5c1.6,0,3.1,0,4.7,0.1c0.7,0,0.9,0.4,0.9,1.4c0,1-0.2,1.3-1,1.4C265,416.2,264.2,416.1,263.4,416.2
		L263.4,416.2z"/>
	<path id="Path_10839" class="st2" d="M402.5,377.2l-0.5,1.4c-1.1,0.1-2.3,0.2-3.4,0.3c-1.4,0.1-2.9,0.1-4.3,0.1
		c-0.9,0-1.1-0.3-1.2-1.1c-0.1-0.8,0.2-1.1,1.1-1.2c0.5,0,1.1,0,1.6,0c1.8,0.1,3.6,0.2,5.4,0.3C401.6,377,402,377.1,402.5,377.2z"/>
	<path id="Path_10840" class="st2" d="M295.2,416.2c-0.7,0-1.4,0-2.1,0c-0.7,0.1-1.4-0.5-1.5-1.2c0-0.1,0-0.1,0-0.2
		c0-0.7,0.6-1.4,1.3-1.4c0.9-0.1,1.9-0.1,2.8-0.1c0.5,0,1,0,1.6,0c0.7,0,1.2,0.5,1.2,1.2c0,0.1,0,0.1,0,0.2
		c-0.2,1.1-0.2,1.4-1.4,1.4L295.2,416.2L295.2,416.2z"/>
	<path id="Path_10841" class="st2" d="M242.6,413.4c0.7,0,1.4-0.1,2.1,0c0.9,0.1,1.2,0.5,1.2,1.6c0,1-0.2,1.2-1.1,1.3
		c-1.4,0.1-2.7,0-4.1,0c-1.2,0-1.4-0.6-1.5-1.5c-0.1-0.8,0.7-1.3,1.6-1.4c0.1,0,0.3,0,0.4,0L242.6,413.4L242.6,413.4z"/>
	<path id="Path_10842" class="st2" d="M147.9,416.2c-0.7,0-1.3,0-2,0c-0.8,0-1.3-0.7-1.3-1.4c0,0,0-0.1,0-0.1c0-0.7,0.6-1.3,1.2-1.3
		c1.3,0,2.7-0.1,4-0.1c1.4-0.1,1.8,1.2,1.5,2.1c-0.1,0.5-0.6,0.9-1.1,0.9L147.9,416.2L147.9,416.2z"/>
	<path id="Path_10843" class="st2" d="M305.6,416.2c-0.7,0-1.4,0-2.1,0c-0.7,0-1.3-0.5-1.3-1.2c0-0.1,0-0.1,0-0.2
		c-0.1-0.7,0.4-1.3,1.1-1.4c0.1,0,0.1,0,0.2,0c1.5,0,2.9,0,4.4,0c0.8,0,1.1,0.5,1.2,1.3c0,0.9-0.3,1.4-1.2,1.4
		C307.1,416.2,306.3,416.1,305.6,416.2L305.6,416.2z"/>
	<path id="Path_10844" class="st2" d="M110.6,377.3c0.2-0.1,0.5-0.2,0.8-0.3c2.5-0.1,4.9-0.2,7.4-0.2c0.9,0,1.2,0.5,1.1,1.4
		c-0.1,0.6-0.4,0.9-1,0.8c-2.5-0.2-5,0.1-7.4-0.5C111,378.4,110.6,377.9,110.6,377.3z"/>
	<path id="Path_10845" class="st2" d="M168.9,416.2c-0.7,0-1.3,0-2,0c-0.7,0-1.3-0.6-1.3-1.3c0-0.1,0-0.2,0-0.2
		c0-0.7,0.5-1.3,1.2-1.3c1.4,0,2.8,0,4.3,0c0.7-0.1,1.4,0.5,1.4,1.2c0,0,0,0,0,0.1c0,1-0.4,1.5-1.5,1.5
		C170.4,416.2,169.6,416.2,168.9,416.2z"/>
	<path id="Path_10846" class="st2" d="M403.2,345.9c-0.4,0.1-0.8,0.2-1.2,0.2c-3,0.1-5.9,0.2-8.9,0.3c-0.9,0-1.8,0.1-2.7,0.2
		c-1,0.2-2-0.2-2.7-0.9c0.4-0.8,1.1-0.8,1.8-0.8c3.8,0.1,7.5,0.2,11.3,0.3c0.8,0.1,1.6,0.2,2.4,0.3L403.2,345.9z"/>
	<path id="Path_10847" class="st2" d="M337.2,416.2c-0.7,0-1.4,0-2.1,0c-0.8,0-1.4-0.6-1.5-1.3c0,0,0-0.1,0-0.1
		c0-0.7,0.6-1.3,1.3-1.3c0,0,0.1,0,0.1,0c1.5-0.1,2.9,0,4.4,0c0.8,0,1.1,0.6,1,1.6c0,0.8-0.3,1.1-1.1,1.2
		C338.6,416.2,337.9,416.2,337.2,416.2z"/>
	<path id="Path_10848" class="st2" d="M316.2,416.3c-0.8,0-1.5,0-2.3-0.1c-0.7,0-1.3-0.5-1.3-1.2c0-0.1,0-0.1,0-0.2
		c0-0.7,0.5-1.3,1.2-1.4c0,0,0.1,0,0.1,0c0.6,0,1.2,0,1.9,0c0.8,0,1.5-0.1,2.3,0c0.7-0.1,1.3,0.5,1.4,1.2c0,0.1,0,0.2,0,0.3
		c0,1-0.3,1.3-1.4,1.3c-0.3,0-0.7,0-1,0C316.8,416.2,316.5,416.2,316.2,416.3L316.2,416.3z"/>
	<path id="Path_10849" class="st2" d="M253,416.2c-0.7,0-1.3,0-2,0c-1,0-1.3-0.4-1.3-1.4c0-1,0.3-1.3,1.2-1.4c1.4,0,2.8,0,4.1,0
		c0.6,0,1.1,0.1,1.2,0.8c0,0.6,0,1.2-0.2,1.8c0,0.1-0.5,0.2-0.8,0.2C254.6,416.2,253.8,416.2,253,416.2L253,416.2z"/>
	<path id="Path_10850" class="st2" d="M158.4,416.1c-0.7,0-1.4,0-2.1,0c-0.8-0.1-1.1-0.5-1.1-1.4c0-0.7,0.3-1.3,1-1.4
		c1.6-0.1,3.1-0.1,4.7-0.1c0.7,0.1,1.2,0.8,1.2,1.6c0,0.7-0.5,1.3-1.2,1.3c-0.1,0-0.1,0-0.2,0C159.9,416.3,159.1,416.2,158.4,416.1
		L158.4,416.1z"/>
	<path id="Path_10851" class="st2" d="M190.2,416.2c-0.7,0-1.4,0-2.1,0c-1-0.1-1.2-0.3-1.3-1.3c-0.1-0.8,0.3-1.5,1.1-1.5
		c1.5-0.1,2.9-0.1,4.4,0c0.7,0,1.2,0.6,1.2,1.3c0,0.1,0,0.1,0,0.2c-0.2,1-0.4,1.5-1.4,1.4c-0.3,0-0.7,0-1,0L190.2,416.2L190.2,416.2
		z"/>
	<path id="Path_10852" class="st2" d="M347.7,416.2c-0.8,0-1.5,0.1-2.3,0c-1-0.1-1.3-0.5-1.2-1.5c0-0.9,0.4-1.3,1.3-1.4
		c1.3,0,2.7,0,4,0.1c1.3,0.1,1.7,0.9,1.3,2.1c-0.1,0.4-0.5,0.7-0.9,0.7C349.2,416.2,348.5,416.1,347.7,416.2L347.7,416.2z"/>
	<path id="Path_10853" class="st2" d="M274,416.1c-0.7,0-1.3,0-2,0c-0.9-0.1-1.2-0.5-1.3-1.4c-0.1-0.7,0.4-1.3,1.1-1.4
		c0,0,0,0,0.1,0c1.4-0.1,2.9-0.1,4.3,0c1,0,1.4,0.6,1.3,1.5c-0.1,1-0.4,1.3-1.4,1.3C275.3,416.2,274.6,416.2,274,416.1L274,416.1z"
		/>
	<path id="Path_10854" class="st2" d="M358.2,416.2c-0.8,0-1.5,0-2.3,0c-0.8-0.1-1.1-0.5-1.2-1.3c-0.1-0.7,0.4-1.4,1.1-1.6
		c1.5-0.1,2.9-0.1,4.4,0c0.7,0,1.2,0.6,1.2,1.2c0,0.1,0,0.1,0,0.2c-0.1,1.1-0.3,1.3-1.4,1.3c-0.3,0-0.7,0-1,0L358.2,416.2
		L358.2,416.2z"/>
	<path id="Path_10855" class="st2" d="M368.6,416.2c-0.7,0-1.3,0-2,0c-0.7,0.1-1.4-0.5-1.4-1.2c0-0.1,0-0.1,0-0.2
		c0-0.8,0.6-1.4,1.4-1.5c0.8,0,1.6,0,2.4,0c0.5,0,1,0,1.6,0c0.7,0,1.3,0.5,1.3,1.2c0,0,0,0.1,0,0.1c0,1-0.4,1.4-1.3,1.4
		C369.9,416.2,369.3,416.2,368.6,416.2L368.6,416.2z"/>
	<path id="Path_10856" class="st2" d="M127.1,413.4c0.7,0,1.4,0,2.1,0c1,0,1.3,0.4,1.3,1.3c0,1.1-0.3,1.4-1.3,1.5
		c-1.4,0-2.7,0-4.1,0c-1,0-1.3-0.4-1.2-1.5c0-1,0.4-1.4,1.4-1.4C125.9,413.3,126.5,413.3,127.1,413.4L127.1,413.4z"/>
	<path id="Path_10857" class="st2" d="M211.1,413.4c0.7,0,1.4,0,2.1,0c0.7,0,1.2,0.6,1.2,1.3c0,0,0,0,0,0c0,0.9-0.4,1.4-1.2,1.4
		c-1.4,0-2.8,0-4.3,0c-0.7,0-1.3-0.5-1.3-1.2c0-0.1,0-0.1,0-0.2c0-0.7,0.5-1.3,1.2-1.4C209.6,413.3,210.4,413.4,211.1,413.4z"/>
	<path id="Path_10858" class="st2" d="M378.9,416.2c-0.6,0-1.2,0-1.9,0c-0.9,0-1.3-0.4-1.3-1.3c-0.1-0.7,0.3-1.3,1-1.4
		c0.1,0,0.2,0,0.3,0c0.6,0,1.1,0,1.7,0c0.9,0,1.7-0.1,2.6,0c0.9,0,1.1,0.3,1.1,1.3c0,1.2-0.1,1.4-1,1.5
		C380.5,416.3,379.7,416.2,378.9,416.2L378.9,416.2z"/>
	<path id="Path_10859" class="st2" d="M221.7,416.2c-0.7,0-1.4,0-2.1,0c-0.9-0.1-1.3-0.5-1.3-1.4c-0.1-0.7,0.4-1.4,1.1-1.5
		c0,0,0.1,0,0.1,0c1.5-0.1,3,0,4.6,0.1c0.6,0.1,1.1,0.7,1,1.3c0,0,0,0,0,0.1c-0.1,0.8-0.4,1.3-1.2,1.3
		C223.1,416.2,222.4,416.1,221.7,416.2L221.7,416.2z"/>
	<path id="Path_10860" class="st2" d="M326.6,416.3c-0.8,0-1.5,0-2.3-0.1c-0.7-0.1-1.1-0.6-1.1-1.4c0-0.7,0.3-1.2,1.1-1.3
		c1.5-0.1,3-0.1,4.4-0.1c0.9,0,1.2,0.5,1.2,1.5c0,1-0.2,1.3-1.2,1.4C328,416.2,327.3,416.2,326.6,416.3L326.6,416.3z"/>
	<path id="Path_10861" class="st2" d="M232,416.2c-0.6,0-1.2,0-1.8,0c-1,0-1.3-0.3-1.4-1.1c-0.2-0.7,0.2-1.5,1-1.7c0,0,0.1,0,0.1,0
		c1.6-0.1,3.1,0,4.7,0.1c0.7,0,0.8,0.7,0.8,1.3c0,1-0.3,1.4-1,1.4C233.6,416.2,232.8,416.2,232,416.2L232,416.2z"/>
	<path id="Path_10862" class="st2" d="M137.6,416.2c-0.7,0-1.3,0-2,0c-0.7,0-1.3-0.5-1.4-1.3c0-0.1,0-0.2,0-0.2
		c-0.1-0.7,0.5-1.3,1.2-1.4c0.1,0,0.1,0,0.2,0c1.4,0,2.8,0,4.1,0c0.8,0,1.2,0.5,1.2,1.3c0,1-0.3,1.4-1.3,1.5
		C138.9,416.2,138.2,416.2,137.6,416.2L137.6,416.2z"/>
	<path id="Path_10863" class="st2" d="M179.7,416.3c-0.9-0.1-1.6-0.1-2.2-0.1c-0.9-0.1-1.1-0.3-1.1-1.3c0-1,0.3-1.4,1.1-1.5
		c1.5-0.1,2.9,0,4.4,0c0.7,0,1,0.5,1,1.3c0,0.6-0.1,1.3-0.9,1.4C181.1,416.2,180.3,416.2,179.7,416.3z"/>
	<path id="Path_10864" class="st2" d="M284.9,413.3c0.5,0,1,0,1.6,0c0.8,0,1.4,0.6,1.5,1.4c0.1,1-0.3,1.5-1.4,1.5
		c-1.4,0-2.7,0-4.1-0.1c-0.9,0-1.1-0.6-1.2-1.4c-0.1-0.7,0.4-1.2,1.2-1.3S284.1,413.3,284.9,413.3L284.9,413.3z"/>
	<path id="Path_10865" class="st2" d="M200.6,416.3c-0.8,0-1.5-0.1-2.3-0.2c-0.8-0.1-1.1-0.6-1.1-1.4c-0.1-0.7,0.4-1.3,1.1-1.4
		c0,0,0.1,0,0.1,0c1.4-0.1,2.8-0.1,4.1,0c0.7,0,1.3,0.5,1.4,1.2c0,0.1,0,0.2,0,0.3c0,1-0.4,1.3-1.4,1.4
		C201.8,416.3,201.2,416.2,200.6,416.3L200.6,416.3z"/>
	<path id="Path_10866" class="st2" d="M109.8,348.5c3.8-0.1,7.4-0.1,11-0.2c0.2,0,0.5,0.2,0.7,0.4c-0.2,1.2-1.4,2-2.6,1.7
		c0,0,0,0,0,0c-2.6-0.6-5.2-0.4-7.8-0.9C110.6,349.5,110,349.5,109.8,348.5z"/>
	<path id="Path_10867" class="st2" d="M263.6,362.1c0.7,0,1.3,0,2,0c0.9,0.1,1.3,0.5,1.3,1.4c0.1,0.7-0.4,1.3-1.1,1.4
		c-0.1,0-0.2,0-0.2,0c-1.5,0-2.9-0.1-4.4-0.3c-0.6,0-1.1-0.4-1.1-1c0,0,0,0,0-0.1c0-0.7,0.5-1.3,1.2-1.4
		C262,362.1,262.8,362.1,263.6,362.1L263.6,362.1z"/>
	<path id="Path_10868" class="st2" d="M110.1,345.4c1.5-0.1,3.1-0.2,4.6-0.2c2.8-0.1,5.5-0.2,8.3-0.3c0.8-0.1,1.6,0,2.2,0.5
		c-0.3,0.3-0.5,0.7-0.8,0.8c-0.5,0.2-1.1,0.3-1.7,0.3c-2.5-0.1-4.9-0.2-7.4-0.3c-1.3-0.1-2.7-0.1-4-0.2c-0.4-0.1-0.9-0.2-1.3-0.3
		L110.1,345.4z"/>
	<path id="Path_10869" class="st2" d="M403.1,360.7c-3.2,0.3-6.5,0.4-9.7,0.3c-0.5-1.7-0.2-2.2,1.4-2.1c1.8,0.1,3.6,0.1,5.4,0.3
		c1,0.2,2.1,0.6,3,1L403.1,360.7z"/>
	<path id="Path_10870" class="st2" d="M402.5,352.1c0.2,1-0.3,1.2-0.8,1.3c-2.4,0.5-4.9,0.7-7.4,0.6c-0.6-0.1-1.1-0.6-1.2-1.2
		c-0.1-0.4,0.2-0.8,0.6-0.9c0.1,0,0.1,0,0.2,0C396.8,351.7,399.6,352.1,402.5,352.1z"/>
	<path id="Path_10871" class="st2" d="M170.5,364.7c-1.1,0-2.3,0-3.4,0c-1,0-1.5-0.5-1.5-1.2c0-0.9,0.5-1.4,1.6-1.4
		c1.2,0,2.4,0,3.6,0c0.2,0,0.4,0,0.6,0.1c0.7,0.1,1.2,0.6,1.3,1.3c0,0.7-0.5,1.3-1.2,1.4c-0.3,0.1-0.6,0.1-0.8,0.1L170.5,364.7z"/>
	<path id="Path_10872" class="st2" d="M109.8,360.3c1.4-0.6,2.9-1.1,4.4-1.3c1.5-0.1,2.9-0.1,4.4-0.1c0.5-0.1,1.1,0.2,1.2,0.7
		c0.3,0.9,0,1.5-1,1.5c-3-0.1-6-0.3-8.9-0.4L109.8,360.3z"/>
	<path id="Path_10873" class="st2" d="M127.2,362.1c0.7,0,1.4,0,2.1,0c0.9,0,1.2,0.5,1.2,1.4c0,0.7-0.6,1.3-1.3,1.3c0,0-0.1,0-0.1,0
		c-1.3,0-2.6-0.1-4-0.1c-1.3-0.1-1.7-0.8-1.3-1.9c0.1-0.5,0.6-0.8,1.1-0.7L127.2,362.1z"/>
	<path id="Path_10874" class="st2" d="M391.3,348.7c0.4-0.1,0.7-0.3,1.1-0.3c3.7-0.1,7.4,0.1,11.1,0.4c-0.7,0.6-1.6,0.9-2.6,0.9
		c-2.3,0.3-4.6,0.6-6.9,0.8C392.8,350.6,392.1,349.8,391.3,348.7z"/>
	<path id="Path_10875" class="st2" d="M110.2,352.4c1.8-0.6,8.5-0.8,9.7-0.2c0,1.7-0.2,1.9-1.7,1.8c-1.7-0.1-3.4-0.1-5.1-0.3
		C112,353.6,110.9,353.2,110.2,352.4z"/>
	<path id="Path_10876" class="st2" d="M148.1,362.1c0.6,0,1.2-0.1,1.9-0.1c0.7,0,1.4,0.5,1.4,1.3c0,0,0,0,0,0
		c0.1,0.8-0.2,1.2-1.1,1.4c-0.2,0.1-0.4,0.1-0.6,0.1c-1.3,0-2.6-0.1-3.8-0.2c-0.7,0-1.3-0.5-1.3-1.2c-0.1-0.7,0.5-1.3,1.2-1.4
		c0,0,0.1,0,0.1,0c0.4,0,0.8-0.1,1.1-0.1C147.4,362.1,147.7,362.1,148.1,362.1z"/>
	<path id="Path_10877" class="st2" d="M326.5,362.1h2.1c0.6-0.1,1.1,0.3,1.2,0.9c0,0,0,0,0,0c0.2,0.7-0.1,1.4-0.8,1.6c0,0,0,0,0,0
		c-0.4,0.1-0.9,0.2-1.4,0.2c-1,0-2-0.1-3-0.2c-1.2-0.1-1.5-0.3-1.5-1.2c0-1,0.4-1.3,1.6-1.3C325.4,362.1,326,362.1,326.5,362.1
		L326.5,362.1z"/>
	<path id="Path_10878" class="st2" d="M253.3,364.7c-0.9,0-1.7,0-2.6,0c-0.5,0.1-1-0.3-1-0.8c0-0.1,0-0.2,0-0.2c0-0.9,0.2-1.4,1-1.4
		c1.6-0.1,3.2,0,4.9,0c0.6,0,1,0.8,0.8,1.6c-0.1,0.8-0.4,1-1.2,1C254.5,364.7,253.9,364.7,253.3,364.7L253.3,364.7z"/>
	<path id="Path_10879" class="st2" d="M232.2,362.1c0.6,0,1.2-0.1,1.8-0.1c1,0,1.4,0.4,1.4,1.4c0.1,0.7-0.5,1.4-1.2,1.4
		c-0.1,0-0.2,0-0.2,0c-1.4,0-2.7-0.1-4.1-0.2c-0.8-0.1-1.1-0.4-1.1-1.2c0-0.8,0.4-1.3,1.1-1.4C230.6,362.1,231.4,362.1,232.2,362.1z
		"/>
	<path id="Path_10880" class="st2" d="M274.2,362.1c0.7,0,1.4,0,2.1,0c0.7,0,1,0.5,1.1,1.1c0.1,0.8-0.1,1.2-0.8,1.4
		c-0.3,0.1-0.5,0.1-0.8,0.2c-1.2,0-2.4-0.1-3.7-0.1c-0.9-0.1-1.4-0.4-1.4-1.1c0-0.8,0.5-1.4,1.3-1.5c0.1,0,0.1,0,0.2,0
		c0.3,0,0.7,0,1,0L274.2,362.1z"/>
	<path id="Path_10881" class="st2" d="M358.3,362.1c0.7,0,1.3,0,2,0c0.9,0.1,1.2,0.5,1.1,1.5c0,0.8-0.3,1-1.2,1.1
		c-1,0.1-2.1,0.2-3.1,0.2c-0.5,0-0.9-0.1-1.4-0.2c-0.8-0.3-1.1-0.7-1-1.4c0.1-0.7,0.7-1.2,1.3-1.2
		C356.8,362,357.6,362.1,358.3,362.1L358.3,362.1z"/>
	<path id="Path_10882" class="st2" d="M221.6,362.1c0.7,0,1.3,0,2,0c0.7,0,1.3,0.5,1.4,1.2c0.1,0.7-0.3,1.2-1.1,1.4
		c-0.3,0.1-0.6,0.1-0.8,0.1c-1.1,0-2.3-0.1-3.4-0.2c-0.9-0.1-1.4-0.4-1.4-1.1c-0.1-0.8,0.5-1.4,1.3-1.5c0.1,0,0.1,0,0.2,0
		C220.3,362.1,221,362.1,221.6,362.1L221.6,362.1z"/>
	<path id="Path_10883" class="st2" d="M211.1,362.1c0.7,0,1.4,0,2.1,0c0.7,0,1.2,0.6,1.2,1.3c0,0.1,0,0.1,0,0.2
		c0,0.7-0.5,1.2-1.2,1.2c0,0-0.1,0-0.1,0c-1.4,0-2.8,0-4.1-0.1c-1.2-0.1-1.5-0.7-1.1-1.9c0.1-0.5,0.6-0.8,1.1-0.7L211.1,362.1
		L211.1,362.1z"/>
	<path id="Path_10884" class="st2" d="M401.8,355.9c-0.2,1-0.7,1.4-1.5,1.4c-0.4,0-0.8,0.1-1.3,0.1c-1.5,0-3,0.1-4.5,0
		c-1,0-1.3-0.3-1.3-1.1c0-0.9,0.2-1.1,1.2-1.1c2,0,4,0.1,5.9,0.2C400.8,355.6,401.3,355.7,401.8,355.9z"/>
	<path id="Path_10885" class="st2" d="M403,385.6c-1,0.1-2.1,0.1-3.1,0.2c-1.9,0-3.7,0.1-5.6,0.1c-0.5,0-1.1-0.1-1.2-0.7
		c-0.1-0.6,0.3-1.2,0.9-1.3c0.1,0,0.1,0,0.2,0c2.9-0.2,5.8,0.2,8.6,1.1c0.1,0.1,0.3,0.1,0.4,0.2L403,385.6z"/>
	<path id="Path_10886" class="st2" d="M295.1,364.7c-0.7,0-1.4,0-2.1,0c-0.9-0.1-1.2-0.4-1.3-1c-0.1-0.7,0.3-1.3,1-1.5
		c0.1,0,0.1,0,0.2,0c1.5-0.1,3-0.1,4.4,0c0.8,0,1.3,0.7,1.3,1.4c0,0.7-0.5,1.1-1.4,1.1C296.6,364.7,295.9,364.7,295.1,364.7z"/>
	<path id="Path_10887" class="st2" d="M110.4,394.8H105c-0.6,0-0.8-0.4-1-0.9s-0.2-1,0.3-1.3c0.4-0.2,0.8-0.4,1.3-0.4
		c1.1-0.1,2.3,0,3.4,0c1.5,0,1.8,0.4,1.6,1.9C110.6,394.3,110.5,394.6,110.4,394.8z"/>
	<path id="Path_10888" class="st2" d="M368.6,362.1c0.7,0,1.3,0,2,0c0.7,0,1.3,0.5,1.3,1.2c0,0.1,0,0.1,0,0.2c0,0.7-0.6,1.3-1.4,1.4
		c-1.4,0-2.8-0.1-4.3-0.2c-0.6,0-1.1-0.5-1.1-1.1c0-0.7,0.5-1.3,1.2-1.4C367.1,362.1,367.9,362.1,368.6,362.1L368.6,362.1z"/>
	<path id="Path_10889" class="st2" d="M160.3,364.8c-1.1,0-2.2,0-3.2,0c-0.3,0-0.7-0.1-1-0.2c-0.6-0.1-1-0.7-0.9-1.2
		c0.1-0.6,0.4-1.1,1-1.2c1.6-0.1,3.1-0.1,4.7,0c0.6,0,1,0.9,0.9,1.5C161.7,364.4,161,364.9,160.3,364.8
		C160.3,364.8,160.3,364.8,160.3,364.8z"/>
	<path id="Path_10890" class="st2" d="M111.4,355.7c0.8-0.1,1.6-0.2,2.4-0.2c1.6-0.1,3.2-0.1,4.8-0.2c0.9,0,1.2,0.2,1.3,0.9
		c0.1,0.9-0.2,1.3-1,1.3c-2,0-4-0.1-6-0.2C111.8,357.2,111.8,357.1,111.4,355.7z"/>
	<path id="Path_10891" class="st2" d="M83.5,394.8c-0.8-1.7-0.2-2.6,1.4-2.6c1,0,2.1,0,3.1,0c0.4,0,0.8,0.1,1.2,0.3
		c0.5,0.3,0.7,0.9,0.5,1.4c-0.1,0.5-0.3,0.9-0.9,0.9C87,394.8,85.2,394.8,83.5,394.8z"/>
	<path id="Path_10892" class="st2" d="M421.7,394.7c-2,0-3.9,0-5.8,0c-0.7,0-0.7-0.7-0.7-1.2c-0.1-0.6,0.3-1.2,0.9-1.3
		c0,0,0,0,0.1,0c0.6,0,1.1,0,1.7,0c0.8,0,1.5,0,2.3,0c1.4,0,1.7,0.3,1.6,1.7C421.8,394.1,421.8,394.3,421.7,394.7z"/>
	<path id="Path_10893" class="st2" d="M305.8,364.7c-0.8,0-1.5,0.1-2.3,0c-0.9-0.1-1.3-0.5-1.3-1.2c-0.1-0.7,0.4-1.3,1.1-1.3
		c0.1,0,0.2,0,0.3,0c1.4,0,2.8,0,4.1,0c0.8,0,1.2,0.5,1.2,1.4s-0.2,1.1-1.2,1.1c-0.3,0-0.7,0-1,0L305.8,364.7L305.8,364.7z"/>
	<path id="Path_10894" class="st2" d="M110.2,385.2c0.4-0.2,0.9-0.5,1.3-0.6c2.3-0.6,4.7-0.8,7.1-0.7c0.5,0,0.9,0.3,1.1,0.7
		c0.5,0.8,0.2,1.3-0.7,1.4c-1.3,0.1-2.6,0.1-3.9,0c-1.6-0.1-3.3-0.2-4.9-0.3L110.2,385.2z"/>
	<path id="Path_10895" class="st2" d="M284.7,362.1c0.6,0,1.2,0,1.8,0c0.7,0,1.4,0.6,1.4,1.3c0,0.8-0.6,1.4-1.3,1.4c0,0-0.1,0-0.1,0
		c-1.3,0-2.5-0.1-3.8-0.1c-0.7,0.1-1.4-0.5-1.5-1.2c0-0.8,0.5-1.3,1.5-1.4C283.4,362.1,284.1,362.1,284.7,362.1L284.7,362.1z"/>
	<path id="Path_10896" class="st2" d="M242.7,364.7c-0.8,0-1.5,0-2.3,0c-0.9-0.1-1.3-0.5-1.3-1.2c0-0.7,0.6-1.3,1.4-1.4
		c1.4,0,2.7,0,4.1,0c1,0,1.3,0.5,1.3,1.3c0,0.9-0.4,1.2-1.3,1.3C243.9,364.8,243.3,364.7,242.7,364.7L242.7,364.7z"/>
	<path id="Path_10897" class="st2" d="M190.1,364.7c-0.8,0-1.5,0-2.3,0c-0.6,0-1.1-0.4-1.1-1c0-0.1,0-0.1,0-0.2
		c-0.1-0.6,0.4-1.2,1-1.3c0,0,0.1,0,0.1,0c1.6-0.1,3.1,0,4.7,0c0.6,0,1,0.8,1,1.4c0,0.6-0.5,1.1-1.1,1.1c0,0,0,0,0,0
		C191.6,364.7,190.9,364.7,190.1,364.7L190.1,364.7z"/>
	<path id="Path_10898" class="st2" d="M429.1,394.8c-0.7,0-1.4,0-2.1,0c-0.8,0-1.2-0.4-1.2-1.3c0-0.7,0.3-1.2,1.1-1.2
		c1.5-0.1,2.9-0.1,4.4,0c0.5,0.1,0.9,0.3,1.1,0.7c0.4,0.5,0.2,1.3-0.3,1.6c-0.2,0.1-0.4,0.2-0.7,0.2
		C430.6,394.8,429.8,394.8,429.1,394.8z"/>
	<path id="Path_10899" class="st2" d="M137.7,362.1h2c0.8,0,1.1,0.5,1.2,1.2c0.2,0.6-0.2,1.2-0.7,1.4c0,0-0.1,0-0.1,0
		c-0.3,0.1-0.5,0.2-0.8,0.2c-1.1,0-2.3-0.1-3.4-0.2c-1,0-1.4-0.4-1.5-1.2c0-0.9,0.5-1.4,1.5-1.4
		C136.4,362.1,137.1,362.1,137.7,362.1z"/>
	<path id="Path_10900" class="st2" d="M402.2,382.2c-0.7,0.1-1.4,0.1-2.1,0.2c-2,0-3.9,0-5.8,0.1c-0.7,0-1.1-0.2-1.1-1
		c0-0.8,0.3-1.2,1.1-1.2c2.4-0.1,4.8,0.2,7.2,0.8c0.4,0.1,0.6,0.4,0.9,0.7L402.2,382.2z"/>
	<path id="Path_10901" class="st2" d="M379.2,364.6c-0.8,0-1.6,0.1-2.4,0c-0.6,0-1.1-0.4-1.1-0.9c0-0.1,0-0.2,0-0.3
		c0-0.8,0.4-1.3,1.2-1.3c1.2-0.1,2.5,0,3.7,0c0.3,0,0.7,0.1,1,0.2c0.6,0.2,1,0.8,0.9,1.4c-0.1,0.5-0.5,1-1.1,1
		C380.7,364.7,379.9,364.7,379.2,364.6L379.2,364.6z"/>
	<path id="Path_10902" class="st2" d="M316.2,364.8l-2.4-0.1c-0.6,0-1.1-0.4-1.2-1c0-0.7,0.4-1.3,1.1-1.5c0.2-0.1,0.5-0.1,0.7-0.1
		c1.2,0,2.5,0,3.7,0c0.5,0,1,0.3,1.2,0.8c0.3,0.5,0.2,1.2-0.3,1.6c-0.2,0.1-0.4,0.2-0.6,0.2c-0.4,0-0.8,0-1.1,0L316.2,364.8
		L316.2,364.8z"/>
	<path id="Path_10903" class="st2" d="M347.7,364.6c-0.8,0-1.5,0.1-2.3,0c-0.9-0.1-1.3-0.5-1.3-1.2c0-0.7,0.5-1.3,1.2-1.3
		c0,0,0.1,0,0.1,0c1.2,0,2.5-0.1,3.7-0.1c0.7-0.1,1.3,0.3,1.6,0.9c0.3,0.5,0.2,1.2-0.3,1.6c-0.2,0.1-0.4,0.2-0.6,0.2
		c-0.4,0-0.8,0-1.1,0C348.4,364.7,348,364.7,347.7,364.6L347.7,364.6z"/>
	<path id="Path_10904" class="st2" d="M337.3,364.7c-0.7,0-1.4,0-2.1,0c-0.9,0-1.5-0.5-1.5-1.2c0.1-0.8,0.7-1.4,1.5-1.4
		c1.3,0,2.6,0,3.8,0c0.6,0,1.1,0.3,1.3,0.9c0.3,0.5,0.1,1.2-0.4,1.5c-0.2,0.1-0.4,0.2-0.6,0.1C338.6,364.7,337.9,364.6,337.3,364.7
		L337.3,364.7z"/>
	<path id="Path_10905" class="st2" d="M408.1,394.8c-0.8,0-1.5,0-2.3,0c-0.7,0-1.2-0.5-1.2-1.2c0,0,0-0.1,0-0.1
		c-0.1-0.6,0.4-1.2,1-1.2c0.1,0,0.1,0,0.2,0c1.4,0,2.7,0,4.1,0c1,0,1.5,0.4,1.5,1.1c0.1,1-0.3,1.4-1.3,1.4L408.1,394.8L408.1,394.8z
		"/>
	<path id="Path_10906" class="st2" d="M78,340.6c0.6,0,1.1,0,1.7,0c0.8,0,1.4,0.6,1.4,1.4c0,0,0,0.1,0,0.1c0,0.8-0.6,1.4-1.4,1.5
		c-0.8,0-1.5,0-2.3,0c-1.1-0.1-1.9-1-2.1-2c-0.1-0.6,0.1-0.9,0.7-1C76.6,340.6,77.3,340.7,78,340.6L78,340.6z"/>
	<path id="Path_10907" class="st2" d="M97,394.8c-0.7,0-1.3,0-2,0c-1.1,0.1-1.3-0.5-1.4-1.2c0-0.7,0.5-1.3,1.3-1.3c0,0,0.1,0,0.1,0
		c0.8-0.1,1.5,0,2.3,0c0.7,0,1.3,0,2,0.1c0.9,0.2,1.1,0.5,1,1.4c-0.1,0.8-0.3,1-1.2,1C98.3,394.8,97.6,394.8,97,394.8z"/>
	<path id="Path_10908" class="st2" d="M200.4,364.7c-0.7,0-1.4,0-2.1,0c-0.7-0.1-1.1-0.5-1-1.1c0-0.8,0.5-1.4,1.1-1.4
		c1.5,0,2.9-0.1,4.4,0c0.8,0,1.1,0.5,1.1,1.4c0.1,0.6-0.4,1.1-0.9,1.2c-0.1,0-0.1,0-0.2,0C201.9,364.7,201.2,364.7,200.4,364.7
		L200.4,364.7z"/>
	<path id="Path_10909" class="st2" d="M179.8,364.7c-0.8,0-1.5,0-2.3-0.1c-1-0.1-1.2-0.4-1.2-1.2c0-0.9,0.4-1.2,1.3-1.3
		c0.8,0,1.5,0,2.3,0c0.6,0,1.1-0.1,1.7,0c0.7,0,1.3,0.5,1.3,1.2c0,0.1,0,0.1,0,0.2c0,0.8-0.4,1.2-1.2,1.2
		C181,364.7,180.4,364.7,179.8,364.7L179.8,364.7z"/>
	<path id="Path_10910" class="st2" d="M397.6,394.8c-0.7,0-1.4,0-2.1,0c-0.6,0-1-0.1-1.2-0.8c-0.2-0.6,0.1-1.2,0.6-1.5
		c0.3-0.2,0.7-0.3,1.1-0.3c1.2,0,2.4-0.1,3.6,0c0.7-0.1,1.3,0.5,1.4,1.2c0,0.2,0,0.4-0.1,0.6c0,0.5-0.5,0.9-0.9,0.8c0,0,0,0,0,0
		c-0.1,0-0.2,0-0.3,0H397.6z"/>
	<path id="Path_10911" class="st2" d="M121,394.8c-1.8,0-3.6,0-5.4,0c-0.7,0-1.2-0.6-1.1-1.2c0-0.6,0.5-1.1,1.1-1.1
		c1.4-0.1,2.8-0.2,4.1-0.2c1.3,0,1.6,0.5,1.4,1.8L121,394.8z"/>
	<path id="Path_10912" class="st2" d="M110.6,381.7c0.5-0.3,1-0.6,1.5-0.8c2.1-0.2,4.2-0.4,6.2-0.6c0.5-0.1,1.1,0.1,1.4,0.5
		c0.5,0.7,0.2,1.5-0.6,1.5c-2.5,0-4.9-0.1-7.4-0.1C111.4,382.3,111.1,382,110.6,381.7z"/>
	<path id="Path_10913" class="st2" d="M403.7,374.2c-0.6,0.2-1.2,0.3-1.7,0.4c-2.3,0.3-4.5,0.6-6.8,0.8c-1.1,0.1-1.5,0-1.8-0.7
		c-0.4-0.8-0.2-1.2,0.6-1.3c0.8-0.1,1.7-0.2,2.6-0.1c1.6,0,3.2,0.1,4.8,0.2c0.8,0,1.6,0.1,2.3,0.2L403.7,374.2z"/>
	<path id="Path_10914" class="st2" d="M297.1,113.4c-1.5-0.5-3-1-4.4-1.6c-0.5-0.3-0.7-1-0.5-1.6c0.2-0.6,0.7-0.7,1.2-0.6
		c1.4,0.4,2.7,0.8,4.1,1.2c0.1,0,0.3,0.1,0.4,0.2c0.5,0.4,0.7,1,0.5,1.6C298.2,113.3,297.7,113.2,297.1,113.4z"/>
	<path id="Path_10915" class="st2" d="M109.4,373.8c0.2-0.1,0.5-0.2,0.8-0.2c2.6-0.1,5.2-0.2,7.8-0.3c0.3,0,0.6,0,0.9,0
		c0.5,0.1,1.1,0.1,1.1,0.8c0,0.7-0.5,1.3-1.2,1.3c0,0,0,0,0,0c-1.1-0.1-2.2-0.2-3.2-0.4c-1.6-0.2-3.3-0.4-4.9-0.6
		c-0.4,0-0.8-0.2-1.2-0.2L109.4,373.8z"/>
	<path id="Path_10916" class="st2" d="M389.1,416.2c-0.6,0-1.1,0-1.7,0c-0.9-0.1-1.2-0.4-1.2-1.3s0.3-1.4,1.1-1.5
		c1.1-0.1,2.3-0.1,3.4,0c0.7,0,1.2,0.7,1.2,1.5c0,0.9-0.4,1.3-1.3,1.3C390.2,416.2,389.6,416.2,389.1,416.2z"/>
	<path id="Path_10917" class="st2" d="M245,105.7c0.1,0,0.2,0,0.3,0c0.6,0.1,1.4,0.6,1.4,1.1c-0.1,0.7-0.6,1.3-1.3,1.5
		c-1.4,0.1-2.8,0.2-4.3,0.3c-0.8,0-0.9-0.6-1-1.1c-0.2-0.4,0.1-0.9,0.5-1.1c0,0,0.1,0,0.1,0c0.2-0.1,0.4-0.1,0.5-0.2
		C242.4,106,243.7,105.9,245,105.7L245,105.7z"/>
	<path id="Path_10918" class="st2" d="M109.3,363.6c0.5-0.2,1-0.3,1.5-0.4c1.5-0.1,2.9-0.2,4.4-0.3c1-0.1,2-0.3,2.9-0.4
		c0.2,0,0.4-0.1,0.6-0.1c0.7,0.1,1.2,0.6,1.2,1.3c0,0.8-0.7,0.8-1.1,0.8c-3-0.1-6.1-0.3-9.1-0.5c-0.1,0-0.3-0.1-0.4-0.2L109.3,363.6
		z"/>
	<path id="Path_10919" class="st2" d="M191,124.5c-0.3-0.3-0.7-0.5-0.8-0.8c-0.3-0.6,0-1.4,0.6-1.7c0.7-0.4,1.5-0.8,2.3-1.2
		c0.5-0.2,0.9-0.5,1.4-0.7c0.5-0.3,1.1-0.2,1.5,0.3c0,0.1,0.1,0.1,0.1,0.2c0.3,0.5,0.2,1.2-0.3,1.5c-0.1,0-0.1,0.1-0.2,0.1
		c-1.1,0.6-2.2,1.2-3.3,1.8C191.9,124.2,191.5,124.3,191,124.5z"/>
	<path id="Path_10920" class="st2" d="M303.6,112.9c0.3,0.1,0.9,0.2,1.4,0.4c0.9,0.3,1.7,0.6,2.6,0.9c0.6,0.1,1.1,0.7,1.1,1.3
		c0.1,0.9-0.4,1.4-1.3,1.1c-1.4-0.4-2.8-0.9-4.1-1.4c-0.5-0.3-0.8-0.8-0.9-1.3C302,113.3,302.6,112.9,303.6,112.9z"/>
	<path id="Path_10921" class="st2" d="M109.3,370.6c0.3-0.2,0.7-0.3,1.1-0.4c2.7-0.1,5.3-0.2,8-0.3c0.4,0,0.8,0.1,1.1,0.2
		c0.4,0.1,0.6,0.5,0.5,0.9c-0.1,0.2-0.2,0.4-0.4,0.5c-0.3,0.2-0.7,0.3-1.1,0.3c-2.8-0.2-5.6-0.5-8.4-0.8
		C109.9,370.9,109.6,370.7,109.3,370.6z"/>
	<path id="Path_10922" class="st2" d="M403.8,388.9c-0.7,0.1-1.3,0.3-2,0.3c-2.3,0.1-4.7,0.2-7,0.3c-0.3,0-0.6,0-0.9,0
		c-0.5-0.1-0.8-0.3-0.8-0.8c0-0.5,0.3-0.8,0.8-0.8c0.2,0,0.4-0.1,0.6-0.1c2.8,0.2,5.7,0.3,8.5,0.5c0.3,0.1,0.5,0.2,0.8,0.3
		L403.8,388.9z"/>
	<path id="Path_10923" class="st2" d="M345.5,136c0,1-0.5,1.4-1.3,1c-0.4-0.2-0.8-0.4-1.2-0.7c-0.8-0.6-1.6-1.2-2.3-1.9
		c-0.3-0.3-0.5-0.6-0.6-0.9c-0.2-0.4-0.3-0.9,0.1-1.2c0.3-0.2,0.9-0.4,1.2-0.2c1.3,1,2.6,2,3.9,3.1
		C345.5,135.4,345.5,135.8,345.5,136z"/>
	<path id="Path_10924" class="st2" d="M205.8,116.8c-0.2,0.7-0.6,1.2-1.3,1.4c-1.1,0.5-2.2,0.9-3.3,1.3c-0.5,0.3-1.2,0.2-1.5-0.4
		c-0.3-0.6-0.1-1.3,0.4-1.6c0.7-0.4,1.3-0.7,2-1c0.6-0.3,1.3-0.6,1.9-0.9C205.1,115.1,205.8,115.5,205.8,116.8z"/>
	<path id="Path_10925" class="st2" d="M403.8,364c-0.5,0.1-1,0.2-1.5,0.2c-2.8,0.1-5.6,0.2-8.4,0.2c-0.3,0-0.6-0.2-0.8-0.5
		c0-0.3,0-0.6,0.2-0.9c0.3-0.5,0.9-0.8,1.5-0.6c2.3,0.8,4.8,0.4,7.2,0.7C402.6,363.3,403.3,363.1,403.8,364z"/>
	<path id="Path_10926" class="st2" d="M273.3,106.1c1.1,0.1,2.2,0.2,3.3,0.2c0.6,0,1.2,0.4,1.3,1c0.2,0.8-0.2,1.3-1,1.3
		c-1.5-0.1-2.9-0.2-4.4-0.4c-0.7-0.1-1.2-0.7-1.2-1.4c0,0,0-0.1,0-0.1c0.1-0.7,0.4-0.9,1.4-0.8C273,106,273.2,106,273.3,106.1z"/>
	<path id="Path_10927" class="st2" d="M331.3,127.5c0-1.4,0.4-1.8,1.3-1.3c1.3,0.7,2.6,1.6,3.9,2.4c0.3,0.2,0.5,0.5,0.5,0.8
		c0,0.4-0.1,0.8-0.4,1.1c-0.3,0.3-0.8,0.4-1.2,0.1c-1.2-0.7-2.4-1.4-3.5-2.2C331.5,128.2,331.4,127.6,331.3,127.5z"/>
	<path id="Path_10928" class="st2" d="M403.6,370.8c-0.6,0.1-1.1,0.2-1.7,0.3c-2.4,0.2-4.7,0.3-7.1,0.5c-0.4,0-0.7,0-1.1-0.2
		c-0.3-0.1-0.5-0.4-0.5-0.7c0-0.2,0.3-0.5,0.6-0.7c0.3-0.1,0.5-0.2,0.8-0.2c1.1,0,2.3,0,3.4,0.1c1.6,0.1,3.1,0.2,4.7,0.3
		c0.3,0.1,0.6,0.2,0.9,0.3L403.6,370.8z"/>
	<path id="Path_10929" class="st2" d="M182.1,129.4c-0.6,0.1-1.1-0.3-1.1-0.9c0,0,0-0.1,0-0.1c-0.1-0.5,0.1-1.1,0.6-1.4
		c1.2-0.7,2.3-1.5,3.5-2.2c0.4-0.2,0.9-0.5,1.3,0c0.4,0.5,0.4,1.2,0,1.7c-0.3,0.3-0.6,0.6-1,0.8c-0.9,0.6-1.9,1.2-2.8,1.7
		C182.5,129.3,182.3,129.4,182.1,129.4z"/>
	<path id="Path_10930" class="st2" d="M317.4,120.9c-1.3-0.6-2.7-1.2-4-1.8c-0.2-0.1-0.3-0.2-0.5-0.2c-0.8-0.5-1-1-0.7-1.6
		c0.4-0.6,1.1-0.8,1.7-0.4c0,0,0,0,0,0c0.7,0.3,1.4,0.7,2,1c0.3,0.2,0.7,0.2,1.1,0.4c0.6,0.3,1.3,0.5,1.3,1.3
		C318.4,120.2,318,120.5,317.4,120.9z"/>
	<path id="Path_10931" class="st2" d="M109.3,388.6c0.5-0.2,1-0.3,1.5-0.4c2.6-0.1,5.1-0.2,7.7-0.3c0.2,0,0.4,0,0.6,0
		c0.5,0.1,0.9,0.2,0.9,0.9c0,0.6-0.4,0.8-0.9,0.8c-0.9,0-1.7,0-2.6,0c-1.7-0.1-3.3-0.2-5-0.3C110.7,389.3,109.9,389,109.3,388.6z"/>
	<path id="Path_10932" class="st2" d="M234.8,107.1c0.6,0,1.2-0.1,1.4,0.7c0.1,0.8-0.4,1.5-1.2,1.7c-1.2,0.2-2.4,0.4-3.6,0.5
		c-1,0.1-1.5-0.2-1.6-0.7c0-0.7,0.5-1.4,1.2-1.6c0.2-0.1,0.4-0.1,0.7-0.2C232.6,107.4,233.7,107.3,234.8,107.1z"/>
	<path id="Path_10933" class="st2" d="M114.6,302.7c-0.6,0.3-1.2,0-1.5-0.6c-0.1-0.1-0.1-0.2-0.1-0.4c-0.4-1.6-0.7-3.1-1.1-4.7
		c-0.2-0.6,0.2-1.2,0.8-1.3c0,0,0,0,0,0c0.6-0.2,1,0.4,1.1,0.8c0.2,0.7,0.4,1.5,0.6,2.2c0.2,0.7,0.2,1.5,0.5,2.2
		C115.1,301.6,115,302.2,114.6,302.7z"/>
	<path id="Path_10934" class="st2" d="M382.9,341.1c0.3-0.2,0.6-0.4,0.8-0.4c1.2,0,2.4-0.1,3.6,0c0.7,0,1.3,0.5,1.3,1.2
		c0,0.1,0,0.1,0,0.2c0,0.8-0.5,1.5-1.3,1.6C385.4,344,383.6,342.9,382.9,341.1z"/>
	<path id="Path_10935" class="st2" d="M225.8,110c0,0.8-0.5,1.5-1.3,1.6c-1.3,0.3-2.6,0.6-3.9,0.8c-0.5,0.1-1.1-0.3-1.1-0.8
		c0-0.2,0-0.5,0.1-0.7c0.3-0.4,0.6-0.8,1.1-1c1.1-0.3,2.3-0.6,3.5-0.8c0.4,0,0.8,0,1.2,0.2C225.6,109.6,225.7,109.9,225.8,110z"/>
	<path id="Path_10936" class="st2" d="M168.4,136.6c1,1.2,1.1,2,0.2,2.8c-0.9,0.9-1.9,1.7-2.9,2.5c-0.4,0.4-1.1,0.5-1.6,0.1
		c-0.4-0.4-0.5-1.1-0.1-1.5c0,0,0.1-0.1,0.1-0.1C165.5,139,166.9,137.8,168.4,136.6z"/>
	<path id="Path_10937" class="st2" d="M263.9,105.1c0.6,0,1.2,0.1,1.8,0.1c0.2,0,0.5,0.1,0.7,0.2c0.7,0.3,1.1,1,1,1.6
		c-0.2,0.8-0.9,0.7-1.5,0.7c-1.3,0-2.5-0.1-3.8-0.2c-0.5,0.1-1-0.3-1.1-0.9c0,0,0-0.1,0-0.1c-0.1-0.6,0.3-1.2,0.9-1.3
		c0.1,0,0.1,0,0.2,0C262.7,105,263.3,105.1,263.9,105.1L263.9,105.1z"/>
	<path id="Path_10938" class="st2" d="M109.7,367.5c0.1-0.9,0.6-0.9,1.1-0.9c2.5-0.2,4.9-0.3,7.4-0.5c0.9-0.1,1.8,0.4,1.8,1
		c0,0.5-0.7,0.9-1.7,0.9c-2.3-0.1-4.6-0.2-7-0.3C110.8,367.7,110.2,367.6,109.7,367.5z"/>
	<path id="Path_10939" class="st2" d="M403.7,367.4c-0.4,0.2-0.7,0.3-1.1,0.3c-2.8,0.1-5.6,0.1-8.4,0.1c-0.4,0-0.9,0-1-0.5
		c-0.1-0.7,0.4-0.9,0.9-1.1c0.3-0.1,0.7-0.1,1-0.1c2.5,0.2,5,0.4,7.5,0.6c0.4,0,0.8,0.2,1.2,0.2V367.4z"/>
	<path id="Path_10940" class="st2" d="M173.1,135.6c-0.2-0.2-0.7-0.3-0.7-0.5c-0.1-0.4-0.2-0.9-0.1-1.3c0.1-0.3,0.4-0.5,0.7-0.7
		c1-0.7,1.9-1.4,2.9-2.1c0.2-0.2,0.4-0.3,0.6-0.3c0.4,0.1,0.9,0.1,1.1,0.4c0.2,0.4,0.2,0.8,0,1.2c-0.1,0.3-0.4,0.6-0.7,0.7
		c-1,0.8-2,1.5-2.9,2.2C173.7,135.4,173.4,135.5,173.1,135.6z"/>
	<path id="Path_10941" class="st2" d="M282.2,107.5c0.8-0.1,1.6,0,2.5,0c1,0.2,1.9,0.5,2.9,0.8c0.6,0.1,0.9,0.6,0.8,1.2
		c0,0,0,0.1,0,0.1c-0.1,0.6-0.5,1-1.2,1c-0.5-0.1-0.9-0.2-1.4-0.4c-0.7-0.2-1.5-0.4-2.2-0.5C282,109.5,281.8,109.4,282.2,107.5z"/>
	<path id="Path_10942" class="st2" d="M110.2,286.5l0-0.3c0-1,0.2-1.5,0.9-1.5c0.6-0.1,0.9,0.3,1.1,1.2c0.2,1.4,0.4,2.7,0.7,4.1
		c0,0.3,0,0.7,0,1c0,0.5-0.2,0.9-0.7,0.9c-0.4,0-0.8-0.2-1-0.5c-0.3-0.5-0.4-1-0.5-1.5C110.4,288.8,110.3,287.7,110.2,286.5
		L110.2,286.5z"/>
	<path id="Path_10943" class="st2" d="M389.2,362.1c0.5,0,0.9,0,1.4,0c0.8,0,1.4,0.6,1.4,1.4c0,0.8-0.6,1.4-1.4,1.4
		c-0.1,0-0.1,0-0.2,0c-1.1-0.1-2.2-0.1-3.2-0.3c-0.5,0-1-0.4-1-1c0-0.1,0-0.1,0-0.2c0.1-0.6,0.4-1.2,1.1-1.3c0.2,0,0.4,0,0.6,0
		L389.2,362.1z"/>
	<path id="Path_10944" class="st2" d="M214.7,112c0.3,0.2,0.6,0.5,0.8,0.8c0.3,0.5,0.1,1.1-0.3,1.4c-0.1,0-0.1,0.1-0.2,0.1
		c-0.8,0.4-1.7,0.6-2.5,0.9c-0.5,0.2-1.1,0.3-1.7,0.4c-0.4,0.1-0.8,0-1.1-0.2c-0.4-0.4-0.4-1,0-1.4c0.2-0.3,0.5-0.5,0.8-0.6
		c1.1-0.4,2.3-0.8,3.5-1.3C214.2,112,214.5,112,214.7,112z"/>
	<path id="Path_10945" class="st2" d="M253.7,107.5c-0.7,0-1.3,0-2,0c-0.6,0-1.2-0.2-1.2-0.9c0-0.7,0.4-1.3,1-1.4
		c1.5-0.1,3-0.1,4.5,0c0.8,0,0.8,0.7,0.8,1.3c0,0.6-0.2,1-0.9,1C255.2,107.5,254.5,107.5,253.7,107.5L253.7,107.5z"/>
	<path id="Path_10946" class="st2" d="M121.6,323.1c-0.3,0.4-0.6,0.8-0.9,0.9c-0.4,0.2-0.9,0.1-1.1-0.4c0,0,0-0.1,0-0.1
		c-0.6-1.6-1.2-3.2-1.7-4.8c-0.1-0.4,0-0.8,0.2-1.1c0.3-0.6,1-0.7,1.3-0.1C120.1,319.3,120.8,321.1,121.6,323.1z"/>
	<path id="Path_10947" class="st2" d="M117.7,312.3c0,0.2,0.1,0.4,0,0.6c-0.2,0.3-0.4,0.7-0.7,0.8c-0.4,0-0.7-0.2-0.9-0.5
		c-0.4-0.9-0.7-1.8-0.9-2.7c-0.2-0.6-0.4-1.2-0.5-1.8c-0.1-0.4-0.1-0.7-0.1-1.1c0-0.5,0.3-1,0.8-1c0.4,0,0.8,0.3,1,0.6
		c0.5,1.7,1,3.4,1.4,5L117.7,312.3z"/>
	<path id="Path_10948" class="st2" d="M398.1,318.2c-0.1,0.3-0.1,0.5-0.2,0.8c-0.4,1.2-0.8,2.4-1.3,3.6c-0.2,0.5-0.5,1.1-1.2,1.1
		c-0.4,0-0.8-0.8-0.8-1.5c0-0.2,0-0.5,0.1-0.7c0.5-1.2,0.9-2.5,1.4-3.7c0-0.1,0.1-0.2,0.1-0.3c0.2-0.5,0.7-0.8,1.2-0.7
		C398.2,316.9,398.1,317.4,398.1,318.2z"/>
	<path id="Path_10949" class="st2" d="M323,121.1c0.2,0,0.4,0.1,0.6,0.1c1.2,0.6,2.3,1.3,3.5,2c0.4,0.2,0.7,0.7,0.6,1.2
		c-0.2,0.9-0.7,1.1-1.5,0.7c-1.1-0.5-2.1-1-3.2-1.5c-0.6-0.2-1-0.8-1-1.4C321.8,121.5,322.1,121.1,323,121.1z"/>
	<path id="Path_10950" class="st2" d="M398,311.8c0.1-0.4,0.2-0.7,0.2-0.9c0.3-1.1,0.6-2.2,0.9-3.3c0.1-0.3,0.2-0.6,0.3-0.9
		c0.2-0.5,0.5-1,1.2-0.7c0.6,0.2,0.9,0.8,0.8,1.4c-0.1,0.4-0.2,0.8-0.3,1.2c-0.4,1.2-0.7,2.4-1.1,3.5c-0.2,0.5-0.6,1-1.2,0.8
		C398.5,312.6,398.2,312.1,398,311.8z"/>
	<path id="Path_10951" class="st2" d="M400.9,300.7c0.2-0.7,0.3-1.5,0.5-2.2c0.2-0.7,0.3-1.4,0.5-2.1c0.1-0.4,0.3-0.8,0.7-1
		c0.3-0.3,0.8-0.3,1.1,0c0.1,0.1,0.2,0.3,0.2,0.5c0.1,0.5,0,1-0.1,1.6c-0.2,1-0.4,2-0.6,3.1c0,0.2-0.1,0.4-0.2,0.5
		c-0.3,0.7-0.9,1.2-1.3,1.1C401,301.9,400.9,301.3,400.9,300.7z"/>
	<path id="Path_10952" class="st2" d="M111.4,279.2c0.1,0.3,0,0.5,0,0.8c-0.1,0.3-0.4,0.6-0.7,0.7c-0.4,0.2-0.9,0-1.1-0.4
		c0,0,0,0,0-0.1c-0.1-0.3-0.2-0.6-0.2-1c-0.1-1.4-0.2-2.7-0.3-4.1c-0.1-1,0.2-1.6,0.8-1.6c0.6-0.1,1,0.4,1.2,1.4
		C111.2,276.2,111.2,277.5,111.4,279.2z"/>
	<path id="Path_10953" class="st2" d="M405.5,286.2c-0.1,1-0.2,2.4-0.4,3.8c-0.1,0.9-0.6,1.2-1.2,1.1c-0.6-0.1-1-0.7-0.9-1.3
		c0,0,0-0.1,0-0.1c0.2-1.5,0.5-3.1,0.8-4.6c0-0.2,0.1-0.5,0.2-0.7c0.3-0.2,0.6-0.4,1-0.4c0.2,0,0.4,0.4,0.5,0.7
		C405.5,285.2,405.5,285.7,405.5,286.2z"/>
	<path id="Path_10954" class="st2" d="M405.5,280.5c-0.8-0.4-1.3-1.3-1.1-2.2c0-1.2,0.2-2.4,0.3-3.7c0-0.4,0.1-0.7,0.2-1.1
		c0.2-0.3,0.5-0.7,0.8-0.7c0.3,0,0.6,0.3,0.8,0.6c0.1,0.2,0.2,0.5,0.2,0.8c-0.2,1.7-0.4,3.5-0.6,5.2
		C405.9,279.8,405.8,280.2,405.5,280.5z"/>
	<path id="Path_10955" class="st2" d="M349.4,138.6c0.1,0,0.3,0,0.4,0.1c1,0.8,1.9,1.5,2.8,2.4c0.2,0.3,0.2,0.7,0.1,1
		c-0.3,0.3-0.7,0.5-1.1,0.5c-1,0-3-1.8-3.2-2.8C348.3,139.1,348.6,138.6,349.4,138.6z"/>
	<path id="Path_10956" class="st2" d="M77.3,394.8c-0.3,0-0.6,0-0.9,0c-1.2-0.1-1.5-0.7-0.8-1.7c0.8-0.9,2.1-1.2,3.2-0.7
		c0.6,0.4,0.5,1.1,0.4,1.7s-0.6,0.7-1.1,0.7C77.8,394.8,77.5,394.8,77.3,394.8z"/>
	<path id="Path_10957" class="st2" d="M440,394.7c-0.9,0-1.9,0-2.8,0c-0.4-0.1-0.8-0.5-0.9-0.9c-0.1-0.4,0.1-0.8,0.3-1.1
		c0.7-0.6,1.7-0.7,2.5-0.2C439.9,392.9,440.2,393.5,440,394.7z"/>
	<path id="Path_10958" class="st2" d="M433,210.6c-0.2,0.5-0.4,0.9-0.6,1.4c-0.3,0.5-0.8,0.4-1.2,0c-0.6-0.8-0.7-1.9-0.2-2.8
		c0.2-0.3,0.6-0.4,0.9-0.4c0.4,0.1,0.7,0.3,1,0.6C433,209.6,432.9,210,433,210.6z"/>
	<path id="Path_10959" class="st2" d="M110.7,268c0,0.3,0,0.6-0.1,0.7c-0.2,0.3-0.6,0.6-0.9,0.7c-0.4-0.1-0.7-0.3-0.8-0.6
		c-0.1-0.8-0.1-1.7,0-2.5c0-0.3,0.6-0.6,0.9-0.7c0.2,0,0.6,0.4,0.7,0.8C110.6,266.9,110.7,267.5,110.7,268z"/>
	<path id="Path_10960" class="st2" d="M86.4,210.5c0,0.2-0.1,0.4-0.2,0.6c-0.2,0.4-0.5,0.8-0.9,1.1c-0.3,0.2-1-0.6-1.1-1.2
		c0-0.2-0.1-0.5,0-0.7c0-1,0.5-1.6,1-1.6C85.7,208.7,86.4,209.6,86.4,210.5z"/>
	<path id="Path_10961" class="st2" d="M76.4,212.3c-1.7-1.4-1.6-3,0.2-3.7C77.9,210,77.8,211.1,76.4,212.3z"/>
	<path id="Path_10962" class="st2" d="M201.3,212.2c-1.1-0.5-1.5-1.9-1-2.9c0-0.1,0.1-0.1,0.1-0.1c0.3-0.7,0.9-0.7,1.4-0.1
		C202.7,210.1,202.5,211.3,201.3,212.2z"/>
	<path id="Path_10963" class="st2" d="M404.9,267.4v-0.3c0-1.1,0.3-1.5,1-1.5c0.7,0,1.2,0.8,1.1,1.7c0,0.3-0.1,0.6-0.2,0.8
		c-0.1,0.5-0.3,0.9-0.9,0.9c-0.6,0-0.9-0.4-1-1C405,267.8,404.9,267.6,404.9,267.4z"/>
	<path id="Path_10964" class="st2" d="M197.9,210.1c0,1.1-0.6,2.2-1.1,2.2c-0.8-0.1-0.8-0.9-1-1.5l0-0.1c-0.2-0.6,0-1.4,0.5-1.8
		c0.2-0.2,0.5-0.2,0.7-0.1C197.5,209,197.9,209.5,197.9,210.1z"/>
	<path id="Path_10965" class="st2" d="M191.3,210.4c0-1.1,0.4-1.6,1-1.6c0.8,0,1.2,0.7,1.1,1.7c-0.1,1-0.6,1.7-1.2,1.7
		C191.7,212.1,191.2,211.4,191.3,210.4z"/>
	<path id="Path_10966" class="st2" d="M189,210.3v0.3c0,0.9-0.5,1.7-1,1.7c-0.6,0-1.2-0.8-1.2-1.7c0-0.3,0-0.6,0.1-0.8
		c0.2-0.5,0.4-1.2,1.1-1.1c0.6,0.1,0.8,0.7,1,1.3C189,210,189,210.1,189,210.3z"/>
	<path id="Path_10967" class="st2" d="M319.2,210.6c0.1-0.5,0-0.8,0.1-1c0.2-0.3,0.5-0.8,0.8-0.9c0.5-0.1,1,0.2,1.1,0.7
		c0,0,0,0.1,0,0.1c0.1,0.7,0,1.4-0.1,2.1c-0.2,0.7-0.8,0.8-1.3,0.2C319.6,211.5,319.4,211.1,319.2,210.6z"/>
	<path id="Path_10968" class="st2" d="M437.3,210.5c0,1.1-0.4,1.7-1.1,1.8c-0.6,0-1-0.8-1-1.8c0-0.1,0-0.3,0-0.4
		c0.2-0.6,0.1-1.3,0.9-1.4c0.5-0.1,1.1,0.9,1.2,1.6L437.3,210.5z"/>
	<path id="Path_10969" class="st2" d="M183.4,212.3c-1.2-1.4-1.2-2.4-0.1-3.7c0.7,0.1,1.3,0.7,1.3,1.4
		C184.8,211,184.3,212,183.4,212.3z"/>
	<path id="Path_10970" class="st2" d="M324.5,212.3c-0.7-0.8-1-1.9-0.6-3c0.1-0.3,0.5-0.6,0.7-0.6c0.4,0.1,0.8,0.4,1.1,0.7
		C326.2,210.5,325.7,211.6,324.5,212.3z"/>
	<path id="Path_10971" class="st2" d="M80.6,208.6c0.6,0.1,1.1,0.5,1.2,1.2c0.2,0.7,0.1,1.4-0.3,2c-0.5,0.6-0.9,0.6-1.3,0
		C79.5,210.8,79.7,209.4,80.6,208.6z"/>
	<path id="Path_10972" class="st2" d="M330.2,210.3c0,1.2-0.3,1.8-0.9,1.9c-0.6,0.1-1.3-0.8-1.2-1.7c0-0.5,0.2-1,0.5-1.4
		c0.5-0.7,1.2-0.5,1.4,0.3C330.1,209.7,330.2,210,330.2,210.3z"/>
	<path id="Path_10973" class="st2" d="M427.5,212.3c-1.1-0.6-1.5-2-0.9-3.2c0-0.1,0.1-0.1,0.1-0.1c0.4-0.5,0.7-0.5,1.2-0.1
		C428.7,209.9,428.6,211,427.5,212.3z"/>
	<path id="Path_10974" class="st2" d="M315.9,208.6c1.6,1.5,1.6,2.4,0,3.7C314.6,211,314.6,209.9,315.9,208.6z"/>
	<path id="Path_10975" class="st2" d="M333.1,208.6c1.1,0.5,1.5,1.7,1.1,2.8c0,0.1-0.1,0.2-0.2,0.3c-0.1,0.2-0.5,0.4-0.7,0.3
		c-0.3-0.1-0.6-0.3-0.8-0.7C332.2,210.4,332.4,209.3,333.1,208.6z"/>
	<path id="Path_10976" class="st2" d="M203.3,215.7c-1-1-1.1-1.5-0.5-2.4c0.4-0.6,0.8-0.6,1.2,0
		C204.6,214.1,204.5,214.8,203.3,215.7z"/>
	<path id="Path_10977" class="st2" d="M194.7,212.8c0.6,0.4,0.9,1.1,0.8,1.8c-0.1,0.5-0.4,1-0.9,0.9c-0.4-0.2-0.8-0.5-0.9-0.9
		C193.4,213.8,193.9,213.3,194.7,212.8z"/>
	<path id="Path_10978" class="st2" d="M327.9,214c0,1-0.4,1.5-0.9,1.5c-0.6-0.1-1-0.6-1-1.2c0-0.7,0.7-1.6,1.1-1.4
		C327.3,213.3,327.6,213.6,327.9,214z"/>
	<path id="Path_10979" class="st2" d="M317.2,214.4c0-0.8,0.5-1.5,0.9-1.5c0.4,0,1,0.9,0.9,1.5c0,0.6-0.5,1.1-1.1,1.1
		C317.3,215.4,317.3,214.8,317.2,214.4z"/>
	<path id="Path_10980" class="st2" d="M314.6,214.3c0,0.7-0.4,1.2-0.9,1.2c-0.6-0.1-1-0.6-1-1.2c0-0.6,0.6-1.4,1-1.4
		S314.6,213.6,314.6,214.3z"/>
	<path id="Path_10981" class="st2" d="M190.1,212.8c1.2,1,1.2,1.8,0.2,2.9C188.9,214.9,188.9,214.3,190.1,212.8z"/>
	<path id="Path_10982" class="st2" d="M185.9,212.9c0.6,0.6,1.1,1.1,0.7,1.9c-0.2,0.5-0.5,0.9-1.1,0.7c-0.7-0.4-0.9-1.2-0.6-1.9
		C185.1,213.3,185.5,213,185.9,212.9L185.9,212.9z"/>
	<path id="Path_10983" class="st2" d="M181.4,212.8c1.2,1.1,1.2,1.5,0.1,2.8C180,214.6,180,214.1,181.4,212.8z"/>
	<path id="Path_10984" class="st2" d="M198.9,212.9c0.7,0.2,1.1,0.9,1,1.7c0,0.5-0.4,0.9-0.9,0.9c0,0,0,0,0,0
		c-0.6,0-0.8-0.4-0.8-0.9C198,213.9,198.3,213.2,198.9,212.9z"/>
	<path id="Path_10985" class="st2" d="M331.4,212.8c1.1,1.3,1.1,1.9,0,2.8C330.2,214.7,330.2,214.2,331.4,212.8z"/>
	<path id="Path_10986" class="st2" d="M429.5,212.9c0.7,0.3,1.1,1.2,0.8,1.9c0,0.4-0.4,0.7-0.8,0.7c0,0-0.1,0-0.1,0
		c-0.3-0.1-0.6-0.3-0.7-0.7C428.5,214,428.8,213.2,429.5,212.9z"/>
	<path id="Path_10987" class="st2" d="M83.1,212.9c0.8,0.3,0.9,0.9,0.8,1.6c0,0.6-0.3,0.9-0.9,0.9c-0.5,0-0.9-0.4-0.9-0.9
		c0,0,0,0,0-0.1C82,213.8,82.4,213.2,83.1,212.9z"/>
	<path id="Path_10988" class="st2" d="M78.7,212.8c0.7,0.4,1,1.2,0.7,2c-0.1,0.3-0.4,0.6-0.8,0.7c-0.4-0.1-0.6-0.3-0.8-0.7
		C77.6,214,77.9,213.2,78.7,212.8z"/>
	<path id="Path_10989" class="st2" d="M87.5,212.8c0.5,0.5,0.7,1.1,0.7,1.8c0,0.5-0.3,1-0.8,1c-0.6,0-0.8-0.5-0.8-1
		C86.4,213.8,86.8,213.1,87.5,212.8z"/>
	<path id="Path_10990" class="st2" d="M322.7,212.8c0.9,1.3,0.8,1.8,0,2.8C321.4,214.7,321.3,214.1,322.7,212.8z"/>
	<path id="Path_10991" class="st2" d="M434.1,212.8c1.1,1.5,1,1.8-0.1,2.8C432.8,214.7,432.9,214,434.1,212.8z"/>
	<path id="Path_10992" class="st2" d="M180.2,209.4c0,0.5,0,1.1,0,1.6c0,0.2-0.3,0.5-0.4,0.4c-0.3,0-0.5-0.1-0.7-0.4
		C178.5,210.3,179,209.5,180.2,209.4z"/>
	<path id="Path_10993" class="st2" d="M214.4,277.9c1.1,0.5,2.2,1.1,3.2,1.8C216.3,280.2,215.2,279.5,214.4,277.9L214.4,277.9z"/>
	<path id="Path_10994" class="st2" d="M196.9,217.1c0.7,1.2,0.7,1.2-0.1,2C195.9,218.2,195.9,217.9,196.9,217.1z"/>
	<path id="Path_10995" class="st2" d="M183.3,219.2c-0.5-0.6-0.5-1.4-0.1-2C184.3,217.9,184.3,218.1,183.3,219.2z"/>
	<path id="Path_10996" class="st2" d="M188,219.1c-0.2-0.3-0.5-0.6-0.6-0.9c0-0.3,0.1-0.7,0.3-0.9c0.5-0.3,0.7,0.2,0.8,0.6
		c0,0.4,0,0.8-0.1,1.2L188,219.1z"/>
	<path id="Path_10997" class="st2" d="M76.9,218.8c-0.6,0.2-0.9-0.1-1-0.6c-0.1-0.5-0.1-0.9,0.5-1c0.2,0,0.5,0.4,0.6,0.7
		C77.1,218.2,76.9,218.5,76.9,218.8z"/>
	<path id="Path_10998" class="st2" d="M315.9,219c-0.6-0.6-0.8-1.1-0.3-1.7c0.2-0.1,0.4-0.1,0.6,0c0.4,0.5,0.3,1.2-0.2,1.6
		C316,218.9,315.9,219,315.9,219z"/>
	<path id="Path_10999" class="st2" d="M321.3,218.1c-0.4,0.3-0.8,0.7-1,0.7c-0.3-0.1-0.5-0.4-0.6-0.8c0.1-0.3,0.3-0.6,0.6-0.7
		C320.6,217.3,320.9,217.7,321.3,218.1z"/>
	<path id="Path_11000" class="st2" d="M324.6,218.9c-0.6-0.7-0.6-0.7-0.1-1.6C325.4,217.9,325.4,218,324.6,218.9z"/>
	<path id="Path_11001" class="st2" d="M427.7,217.2v1.8C426.7,218.4,426.7,218,427.7,217.2z"/>
	<path id="Path_11002" class="st2" d="M85.4,218.8c-0.9-0.8-0.9-0.8-0.1-1.5C85.8,217.8,86,218.3,85.4,218.8z"/>
	<path id="Path_11003" class="st2" d="M329.6,218.9c-0.7-0.4-1.1-0.7-0.7-1.3c0.2-0.2,0.4-0.2,0.6-0.2
		C330.1,217.8,329.8,218.3,329.6,218.9z"/>
	<path id="Path_11004" class="st2" d="M432.6,217.9c-0.4,0.3-0.7,0.7-0.9,0.6c-0.3-0.1-0.5-0.4-0.6-0.7c0-0.1,0.3-0.5,0.5-0.5
		C431.9,217.4,432.2,217.6,432.6,217.9z"/>
	<path id="Path_11005" class="st2" d="M81.6,218.1l-0.8,0.7c-0.2-0.3-0.4-0.5-0.4-0.8c0-0.2,0.3-0.4,0.4-0.6L81.6,218.1z"/>
	<path id="Path_11006" class="st2" d="M435.7,219l-0.1-1.6c0.4,0.2,0.7,0.3,0.7,0.4C436.5,218.2,436.6,218.6,435.7,219z"/>
	<path id="Path_11007" class="st2" d="M192.9,218.1l-0.7,0.5c-0.2-0.2-0.4-0.4-0.5-0.7c0-0.2,0.3-0.4,0.5-0.6L192.9,218.1z"/>
	<path id="Path_11008" class="st2" d="M209.2,210.9L209.2,210.9l0.8,1.7c-0.6-0.3-1-0.8-1.2-1.4C208.8,211.2,209.1,211,209.2,210.9z
		"/>
	<path id="Path_11009" class="st2" d="M206,217.9l-0.6,0.6c-0.2-0.2-0.5-0.3-0.5-0.5c0.1-0.2,0.2-0.4,0.5-0.5
		C205.5,217.4,205.8,217.7,206,217.9z"/>
	<path id="Path_11010" class="st2" d="M201.1,218.7c-0.2-0.2-0.3-0.5-0.4-0.8c0,0,0.3-0.3,0.4-0.3c0.2,0.2,0.3,0.3,0.4,0.6
		C201.5,218.3,201.3,218.5,201.1,218.7z"/>
	<path id="Path_11011" class="st2" d="M437.2,206l0.3,0.8l-0.2,0.1l-0.4-0.8L437.2,206z"/>
</g>
</svg>
