<?xml version="1.0" encoding="iso-8859-1"?>
<!-- Generator: Adobe Illustrator 26.0.1, SVG Export Plug-In . SVG Version: 6.00 Build 0)  -->
<svg version="1.1" id="GeorgeSamuel.me" xmlns="http://www.w3.org/2000/svg" xmlns:xlink="http://www.w3.org/1999/xlink" x="0px"
	 y="0px" viewBox="0 0 512 512" style="enable-background:new 0 0 512 512;" xml:space="preserve">
<g id="www.GeorgeSamuel.me_00000151511337471623744610000017157539421270458261_">
	<rect style="fill-rule:evenodd;clip-rule:evenodd;fill:#FFFFFF;" width="512" height="512"/>
	<circle style="fill-rule:evenodd;clip-rule:evenodd;fill:#FFFFFF;" cx="256" cy="256" r="256"/>
	<g id="www.GeorgeSamuel.me">
		<path style="fill-rule:evenodd;clip-rule:evenodd;fill:#2C4A7C;" d="M76.428,300.345c-0.289,2.022-0.578,2.886-1.444,2.886
			s-1.444-0.58-1.444-1.153c-0.289-2.314-4.62-5.2-9.528-5.2c-12.128,0-17.901,9.242-17.901,18.772
			c0,9.237,4.331,21.365,15.303,21.365c1.733,0,3.467-0.58,4.908-1.444v-8.086c0-6.059-0.867-6.348-2.886-6.348h-2.6v-2.597h19.923
			v2.597h-2.597c-1.156,0-1.156,0-1.444,1.153v9.242c0,2.597,1.153,1.733,1.153,3.178c0,0.864-0.578,1.444-1.444,1.728
			c-0.578,0.289-10.106,3.467-18.189,3.467c-13.861,0-23.101-7.797-23.101-21.945c0-17.614,15.881-24.254,28.009-24.254
			c4.62,0,9.531,0.867,13.859,2.6L76.428,300.345L76.428,300.345z M85.378,321.999c0-7.792,4.908-19.92,19.923-19.92
			c10.395,0,18.481,6.639,18.481,17.903c0,7.792-4.908,19.631-19.923,19.631C93.176,339.613,85.378,333.263,85.378,321.999
			L85.378,321.999z M106.168,337.305c6.928,0,8.661-6.928,8.661-12.417c0-6.928-2.311-20.501-11.839-20.501
			c-6.931,0-8.661,7.217-8.661,12.708C94.331,324.024,96.64,337.305,106.168,337.305z M142.261,327.485
			c0,7.508,0.289,8.667,1.444,8.667c5.197,0,12.128-0.289,13.861-3.467c0.289-0.58,0.289-0.864,0.867-0.864s0.867,0.575,0.867,0.864
			c0,0.864-0.867,4.331-1.442,6.064h-27.431v-2.314c2.597,0,2.886,0,2.886-0.575v-27.145c0-3.461-0.867-3.461-1.733-3.461h-2.597
			v-2.022h16.748v2.022h-2.311c-0.867,0-1.156,0-1.156,1.153v21.078H142.261z M163.917,336.435c2.6,0,2.886,0,2.886-0.575v-27.145
			c0-3.461-0.867-3.461-1.444-3.461h-2.6v-2.022h17.037c13.859,0,20.212,8.086,20.212,17.034c0,6.644-4.042,18.484-19.923,18.484
			h-16.167V336.435L163.917,336.435z M176.045,327.485c0,7.508,0.286,8.667,1.444,8.667h1.731c8.084,0,11.261-6.064,11.261-13.572
			c0-14.725-10.684-16.75-13.284-16.75c-0.867,0-1.156,0-1.156,0.58v21.076H176.045L176.045,327.485z M209.826,308.718
			c0-3.461-0.867-3.461-1.733-3.461h-2.597v-2.022h28.587l-0.578,4.042c0,0.869,0,2.314-0.867,2.314s-1.156-0.289-1.156-0.869
			c-0.289-1.153-0.578-1.728-1.733-2.017c-2.886-0.869-5.486-0.869-9.817-0.869c-0.867,0-1.153,0-1.153,0.869v11.55h3.175
			c6.064,0,6.353-0.869,6.353-2.314v-1.728h2.02v9.814h-2.02v-0.864c0-1.733,0-2.603-4.62-2.603h-4.908v6.928
			c0,7.508,0.289,8.667,1.444,8.667c5.197,0,12.128-0.289,13.859-3.467c0.289-0.58,0.289-0.864,1.156-0.864
			c0.578,0,0.578,0.575,0.578,0.864c0,0.864-0.867,4.331-1.444,6.064H206.94v-2.314c2.597,0,2.886,0,2.886-0.575V308.718z
			 M271.62,325.177v-16.17c0-2.309-0.289-3.75-1.733-3.75h-2.597v-2.022h10.395v2.022h-2.022c-0.58,0-1.153,0-1.153,0.575v32.629
			c0,0.58-0.289,0.864-0.869,0.864c-0.575,0-1.444-1.153-1.728-1.444l-24.834-26.559v21.654c0,2.309,0.578,3.461,1.733,3.461h2.886
			v2.314h-10.395v-2.314h2.022c0.289,0,1.156,0,1.156-0.575v-23.387c0-7.217-4.331-7.217-5.486-7.217v-2.022h12.128L271.62,325.177
			L271.62,325.177z M337.163,338.749h-24.542v-2.597c5.775,0,6.064,0,6.064-0.869v-36.959h-1.153c-9.82,0-10.975,2.886-11.553,3.756
			c-0.284,1.153-0.864,1.733-1.444,1.733c-0.864,0-1.153-0.289-1.153-1.158c0-0.575,0.869-3.461,2.022-7.503h37.823
			c1.153,4.042,2.022,6.928,2.022,7.503c0,0.869-0.289,1.158-1.153,1.158c-0.58,0-1.158-0.58-1.444-1.733
			c-0.58-0.869-1.733-3.756-11.553-3.756h-1.153v31.184c0,1.444,0,6.644,1.444,6.644h5.775v2.597H337.163L337.163,338.749z
			 M385.381,305.256h-2.017c-0.58,0-1.153,0-1.153,0.575v19.637c0,14.148-13.284,14.148-16.17,14.148
			c-1.158,0-14.153,0-14.153-11.55v-19.348c0-3.461-0.864-3.461-1.733-3.461h-2.597v-2.022h16.459v2.022h-1.733
			c-0.864,0-1.444,0-1.444,1.153v19.92c0,4.62,1.444,10.395,8.378,10.395c10.106,0,10.106-8.661,10.106-10.395v-17.323
			c0-2.309-0.289-3.75-1.733-3.75h-2.597v-2.022h10.39L385.381,305.256L385.381,305.256z M403.573,327.485
			c0,7.508,0.58,8.667,1.444,8.667c5.484,0,12.128-0.289,13.861-3.467c0.289-0.58,0.575-0.864,1.153-0.864
			c0.578,0,0.864,0.575,0.864,0.864c0,0.864-1.153,4.331-1.728,6.064h-27.434v-2.314c2.597,0,2.886,0,2.886-0.575v-27.145
			c0-3.461-0.864-3.461-1.733-3.461h-2.597v-2.022h17.039v2.022h-2.603c-0.864,0-0.864,0-1.153,1.153L403.573,327.485
			L403.573,327.485z M423.21,303.232h16.459v2.022h-2.022c-0.864,0-1.153,0-1.153,1.153v24.831c0,1.153,0,5.195,1.444,5.195h3.178
			v2.314h-16.459v-2.314c2.597,0,2.886,0,2.886-0.575v-27.145c0-3.461-0.869-3.461-1.733-3.461h-2.597v-2.02H423.21L423.21,303.232z
			 M465.075,338.749h-16.454v-2.314c2.597,0,2.886,0,2.886-0.575v-27.145c0-3.461-0.869-3.461-1.733-3.461h-2.597v-2.022h18.187
			c9.531,0,12.417,5.775,12.417,9.814c0,4.047-3.756,9.531-12.708,9.531c-1.444,0-3.173,0-4.614-0.58v9.242
			c0,1.153,0,5.195,1.444,5.195h3.173L465.075,338.749L465.075,338.749z M460.461,319.693c0.575,0.289,1.444,0.575,2.308,0.575
			c3.467,0,5.775-2.886,5.775-6.348c0-4.042-2.308-8.086-6.928-8.086c-0.58,0-1.153,0-1.153,0.58v13.278H460.461L460.461,319.693z"
			/>
		<path style="fill-rule:evenodd;clip-rule:evenodd;fill:#C3A93A;" d="M226.543,240.324c-2.741-1.828-7.763-6.854-13.703-15.527
			c-5.936-8.22-4.108-29.682-4.108-29.682c-3.655,7.306-5.936,15.527-5.936,24.66c0,26.945,20.091,49.321,45.67,52.976
			C248.462,272.748,250.29,253.566,226.543,240.324z M264.446,272.748c26.031-3.655,45.674-26.031,45.674-52.976
			c0-8.677-1.832-17.354-5.94-24.66c0,0,1.823,21.462-4.108,29.682c-5.483,8.673-10.957,13.699-13.242,15.527
			C262.618,253.566,264.446,272.748,264.446,272.748L264.446,272.748z"/>
		<path style="fill-rule:evenodd;clip-rule:evenodd;fill:#C3A93A;" d="M239.328,181.869c-3.651-5.483-15.527-3.655-15.527-3.655
			c5.479,5.936,5.479,9.134,5.479,9.134v41.101c0,5.936,5.026,10.962,10.962,10.962h12.785v33.79h7.763v-33.79h12.336
			L239.328,181.869z M278.602,237.582c3.198-1.828,5.483-5.026,5.483-9.134v-41.101c0,0,0-3.194,5.475-9.134
			c0,0-11.867-1.828-15.066,3.655l-14.613,24.66L278.602,237.582L278.602,237.582z M256.682,200.594l14.613-24.204
			c-4.108-2.741-9.13-4.565-14.613-4.565c-5.483,0-10.048,1.828-14.156,5.022L256.682,200.594z"/>
	</g>
</g>
</svg>
