<?xml version="1.0" encoding="iso-8859-1"?>
<!-- Generator: Adobe Illustrator 26.0.1, SVG Export Plug-In . SVG Version: 6.00 Build 0)  -->
<svg version="1.1" id="GeorgeSamuel.me" xmlns="http://www.w3.org/2000/svg" xmlns:xlink="http://www.w3.org/1999/xlink" x="0px"
	 y="0px" viewBox="0 0 512 512" style="enable-background:new 0 0 512 512;" xml:space="preserve">
<g id="www.GeorgeSamuel.me">
	<rect style="fill:#56AD52;" width="512" height="512"/>
	<circle style="fill:#56AD52;" cx="256" cy="256" r="256"/>
	<path style="fill-rule:evenodd;clip-rule:evenodd;fill:#FFFFFF;" d="M102.9,334.3l-5.5,29.1c-4,1.8-9.4,4.4-8.1,9.5l6.9-2.5
		c0,0-2.8,9.9-2.8,15.1c0.3,2.9,1,6.8,7.9,6.2c1.6-8.1,3.3-16.2,4.9-24.4l17.8-3.8l-2.3,10.1c-1.1,4.6-2.5,10.8-1.9,13.9
		c0.8,2.9,2.4,4.3,8,4.2l11.6-57.4h-9.8l-4.4,21.2l-17.3,3.7l5-24.8L102.9,334.3C102.9,334.4,102.9,334.3,102.9,334.3z"/>
	<path style="fill-rule:evenodd;clip-rule:evenodd;fill:#FFFFFF;" d="M180.8,343l-6.7,33.5c0,0-1.7,5.9-1.7,10
		c0.6,5.5,4.9,5.9,7.9,5.8l9.9-49.4L180.8,343L180.8,343L180.8,343z"/>
	<path style="fill-rule:evenodd;clip-rule:evenodd;fill:#FFFFFF;" d="M340.6,334.4l-8.6,42c0,0-1.7,5.9-1.7,10
		c0.6,5.5,5.1,5.9,8.1,5.8l11.8-57.9L340.6,334.4L340.6,334.4z"/>
	<path style="fill-rule:evenodd;clip-rule:evenodd;fill:#FFFFFF;" d="M196.6,355.3l-4.2,21.1c0,0-1.7,5.9-1.7,10
		c0.6,5.5,4.9,5.9,7.9,5.8l7.4-36.9H196.6L196.6,355.3L196.6,355.3z"/>
	<path style="fill-rule:evenodd;clip-rule:evenodd;fill:#FFFFFF;" d="M418.9,378.5c1.5-7.1,3.6-13.6,2-17.5
		c-3.5-8.9-15.9-7.8-21.3-1.8c-0.4-3.4-0.7-4-0.7-4h-7.3c0,0-0.2,3.4-0.7,6.2c-0.7,6-3.5,19.5-5.6,29.8h9.1c1.8-6.6,3.9-20.7,6.8-26
		c2-3.2,8.6-5.5,10.3-0.2c0.9,2-2.1,10.7-2.9,16.7c-0.7,5.5-1.4,10.2,7.6,9.9L418.9,378.5z"/>
	<path style="fill-rule:evenodd;clip-rule:evenodd;fill:#FFFFFF;" d="M380.4,378.5c1.5-7.1,3.6-13.6,2-17.5
		c-3.5-8.9-15.9-7.8-21.3-1.8c-0.4-3.4-0.7-4-0.7-4h-7.3c0,0-0.2,3.4-0.7,6.2c-0.7,6-3.5,19.5-5.6,29.8h9.1c1.8-6.6,3.9-20.7,6.8-26
		c2-3.2,8.6-5.5,10.3-0.2c0.9,2-2.1,10.7-2.9,16.7c-0.7,5.5-1.4,10.2,7.6,9.9L380.4,378.5z"/>
	<path style="fill:#FFFFFF;" d="M311.1,355.6c0,0-3.7,21.2-5.3,23.7c-2.1,4.7-5,5.9-9,5.2c-3.9-1-1.8-8.7-1.8-8.7
		c1-4.7,4-20.1,4-20.1h-9.2l-3.9,18.2c-2,8.9-1.5,12.1,1,14.6c-5,1.2-7.7,3.5-8.1,7.8c-0.6,6.8,6.3,11,13.3,10.9
		c16.9-0.2,21.3-11.4,23.5-26.7l5-24.9H311.1L311.1,355.6z M292.3,401.4c-2.4-0.2-5.5-1.5-5.4-4.6c0.4-6.4,11.6-3.3,17-7.9
		C304.1,393.1,300.7,402,292.3,401.4"/>
	<path style="fill:#FFFFFF;" d="M229.6,388.2c1,2.8,3.4,3.9,7.4,3.6l11.4-55.6h-9.8l-3.7,18.8c-16.2-1.6-27,9.7-27.3,24.7
		C207.4,392.3,221,395.7,229.6,388.2 M233.5,361.5l-2.8,13.5c-1.1,7.3-4.7,11.6-10,9.9C212.4,382.2,219.9,357.7,233.5,361.5"/>
	<path style="fill:#FFFFFF;" d="M266.8,387.9c1,2.8,3.7,4.2,7.7,3.8l6.4-33.2c-2-2.9-8.6-3.6-8.6-3.6c-14.9-1.8-26.9,9.2-27.3,24.5
		C244.8,392.3,258.7,396.1,266.8,387.9 M256.1,372.3c2.3-6.6,7.6-12.8,14.8-10.8l-2.8,13.5c-1.1,7.3-4.7,11.7-10,10
		C254.3,383.8,254.1,377.9,256.1,372.3"/>
	<path style="fill:#FFFFFF;" d="M154,354.9c-6.4,0.9-11.2,4.6-13.9,9c-3.2,5-5.5,13.4-3.5,19.9c1.7,5.9,7.7,8.6,13,8.6
		c7.2,0,14.5-5,17.8-10.6c1.5-2.6,4.6-10.6,3.5-16.8C169.2,357.6,163.1,353.7,154,354.9 M159.5,376.3c-1.3,4.1-3.5,7.3-5.9,8.6
		c-2.3,1.1-6.5,1.1-7.8-3.1c-0.6-4-0.2-7.2,1.1-11.1c1.8-4.6,5.1-9.4,9-9.4c2.3,0,4.7,1.4,5.1,3.9
		C161.4,367.6,161.2,372,159.5,376.3"/>
	<path style="fill-rule:evenodd;clip-rule:evenodd;fill:#FFFFFF;" d="M207.7,341.4c1.9,2,1.5,5.5-0.8,7.8c-2.3,2.4-5.7,2.8-7.6,0.8
		c-1.9-2-1.5-5.5,0.8-7.8S205.8,339.5,207.7,341.4"/>
	<path style="fill:#FFFFFF;" d="M387.8,256.5c-22.1,0-22.8,9.2-22.8,11.6s5.5-0.5,10.2-1.7s28.8-7.2,32,9.4s-10.4,18.1-10.4,18.1
		s10.4-18.1-7.2-23.3c-24.3-2.4-23.1,24.8-23.1,24.8h-23.3l1.8-24h-20.6c-11.2,0-12.1,17.1-12.1,17.1v12.1
		c-5.7,2.7-9.9,17.1,7.7,17.1s21.1-14.7,21.1-14.7s26.3,0.1,50.1,0c23.9-0.1,26.1-20.4,26.1-27.9C417,267.6,409.9,256.5,387.8,256.5
		 M321.3,311c0,0-6.3,1.1-6.3-1.8s0.4-3.9,5.4-3.9s7-1.9,7-4s3.1-1.1,3.3,0C330.5,301.5,333.1,311,321.3,311 M334.3,287.9
		c-1.2,8.3-7.5,9.2-7.5,9.2c-4.1,0.5-5-3.5-4.5-8.6c0.6-5,5.6-12.2,9.3-12.2C335.3,276.2,335.4,279.6,334.3,287.9 M389.1,287.9
		c-1.2,8.3-7.5,9.2-7.5,9.2c-4.1,0.5-5-3.5-4.5-8.6c0.6-5,5.6-12.2,9.3-12.2S390.3,279.6,389.1,287.9"/>
	<path style="fill:#FFFFFF;" d="M269.7,309.2c-2,0-3.6,2-3.6,4.4s1.5,4.4,3.6,4.4c2,0,3.6-2,3.6-4.4
		C273.3,311.3,271.7,309.2,269.7,309.2"/>
	<path style="fill:#FFFFFF;" d="M259.8,309.2c-2,0-3.6,2-3.6,4.4s1.5,4.4,3.6,4.4s3.6-2,3.6-4.4
		C263.5,311.3,261.9,309.2,259.8,309.2"/>
	<path style="fill:#FFFFFF;" d="M198.8,311.3c-2,0-3.6,2-3.6,4.4s1.5,4.4,3.6,4.4s3.6-2,3.6-4.4S200.8,311.3,198.8,311.3"/>
	<path style="fill:#FFFFFF;" d="M187.2,311.3c-2,0-3.6,2-3.6,4.4s1.5,4.4,3.6,4.4s3.6-2,3.6-4.4S189.1,311.3,187.2,311.3"/>
	<path style="fill:#FFFFFF;" d="M113.3,277.8c2,0,3.6-2,3.6-4.4s-1.5-4.4-3.6-4.4s-3.6,2-3.6,4.4
		C109.7,275.8,111.4,277.8,113.3,277.8"/>
	<path style="fill:#FFFFFF;" d="M232.1,261.7l-8.1,42.8h9l8.1-42.8H232.1z"/>
	<path style="fill:#FFFFFF;" d="M130,307.3h9l8.1-42.8h-9L130,307.3z"/>
	<path style="fill:#FFFFFF;" d="M134.3,311.3c-6,0-9-0.3-9.9,7.4h-5.6v3.9h18v-4.3h-6.4c0,0-1.2-3,5.1-3h3.7
		C139.3,315.2,140.4,311.3,134.3,311.3"/>
	<path style="fill:#FFFFFF;" d="M300.6,259.7c0,0-2.9,20.9-4.2,28.5c-1.2,7.7-4.8,10.2-8.6,10.2s-3.4-5.5-3.4-5.5l4.2-17.2h-9.9
		c0,0-1.4,9.3-4.2,18.4c-2.9,9.1-12,3.1-12,3.1l5-20.5h-8.8l-4.3,21.7h-16.5v1.7c2.9,6.4,16.5,4.6,19.3,1.9
		c11.2,7.1,21.5-0.5,21.5-0.5s-1.1,3,11.5,3c12.5,0,15.6-14.6,15.6-14.6l5.3-30.3L300.6,259.7v0.1V259.7L300.6,259.7z"/>
	<path style="fill:#FFFFFF;" d="M211.3,285.9c-4.6,0-6.2-2.4-2.9-5.7c3.3-3.3,9-4.2,11.6-4.2v-7c0,0-10,0.1-18.7,8.8
		c-8.7,8.7-4.5,15.3,2.9,15.3h4v7.2h-38.9c0,0-4.6,0.3-4.6-4.6s3.7-12.1,12.1-13.3c6.7-1,4.8-6.8,4-6.8s-12.7-3.3-20,9.1
		c-7.2,12.4-5,23.4,9.9,23.4l39-0.7c0,0,11.3-3,10.3-12.5C219,285.3,215.9,285.9,211.3,285.9"/>
	<path style="fill:#FFFFFF;" d="M116.9,280.9c0,0,0.7,22-10.6,22.9c0,0-8.2-1.8,0-21.3h-9.8c0,0-10.3,29.2,10.2,27.9
		c20.4-1.2,20.6-27.7,20.6-29.4C127.3,279.2,116.9,280.9,116.9,280.9"/>
	<path style="fill:#FFFFFF;" d="M284.8,134.2c-2.9,0.6-5.8,1.2-8.8,2c2.2-6.3,4.2-11.8,6-16.4c3.7-9.3,6.3-14.6,6.3-14.6
		c-6.7-2.8-12.5,0.2-12.5,0.2c-7,3.9-11.6,19.1-11.6,19.1c-2.1,5.6-4,11.1-5.7,16.4c-5.7,1.7-11.6,3.7-17.8,6
		c-2.4,0.9-4.8,1.9-7.3,2.9c3.3-10.5,6.5-19.2,9.1-25.5c2.9-7.1,5-11,5-11c-1.5-1.7-7.7-1.1-7.7-1.1c-6.3,0.5-9.6,7.6-9.6,7.6
		c-6.2,13.3-10.6,26.2-13.6,37.5c-2.1,1.1-4.2,2.1-6.4,3.2c0,0-9.2,4.2-16.8,10.6c0,0-3.8,3.6-1.5,7.2c0.2,0.2,0.3,0.5,0.6,0.7
		c0,0,8.7-4.5,15.4-7.7c2.4-1.1,4.6-2.2,5.9-2.8c-0.2,0.7-0.3,1.5-0.5,2.2c-0.7,3.1-1.2,5.9-1.6,8.5c-1.4,7.9-1.8,12.7-1.8,12.7
		c-1.5,10.8,1.1,13.9,2.5,14.8c0.4,0.3,0.7,0.3,0.7,0.3c5.5,2.4,9,0.2,9,0.2c1.4-16.7,4.5-32.3,8.1-45.7c2-0.8,4.2-1.6,6.5-2.5
		c5.4-2,11.6-4.2,18.2-6.2c-0.8,2.9-1.6,5.7-2.4,8.4c-1.1,3.8-2,7.5-2.8,10.9c-4.3,18-5.8,29.6-5.8,29.6c-3.1,14.6,0,17.4,0,17.4
		c1.2,1.2,2.5,2,3.8,2.4c4.5,1.6,9-0.2,9-0.2c2.7-27.8,9-53.4,15.3-73.4c2.7-0.7,5.5-1.3,8.1-2c5.9-1.3,12.1-2.4,18.4-3.4
		c8.6-1.2,17.5-2,26.6-2.1v-11.1C325.3,129.4,309.5,129.1,284.8,134.2"/>
</g>
</svg>
