<?xml version="1.0" encoding="utf-8"?>
<!-- Generator: Adobe Illustrator 26.0.1, SVG Export Plug-In . SVG Version: 6.00 Build 0)  -->
<svg version="1.1" id="GeorgeSamuel.me" xmlns="http://www.w3.org/2000/svg" xmlns:xlink="http://www.w3.org/1999/xlink" x="0px"
	 y="0px" viewBox="0 0 512 512" style="enable-background:new 0 0 512 512;" xml:space="preserve">
<style type="text/css">
	.st0{fill:#FFFFFF;}
	.st1{fill:#AE7B31;}
	.st2{fill:#0A223D;}
	.st3{fill:#143260;}
	.st4{fill:none;}
</style>
<g id="www.GeorgeSamuel.me">
	<rect class="st0" width="512" height="512"/>
	<circle class="st0" cx="256" cy="256" r="256"/>
	<path id="Path_5125" class="st1" d="M187.2,389.7c1.2,1.2,5.3,2.6,6.6,3.6l4.5,3.4c3,2.3,6,4.6,9,6.8c6,4.5,12.2,8.9,18.5,13
		c5.8,3.8,11.6,7.4,17.7,10.7c3,1.7,6.1,3.2,9.2,4.7c1.2,0.6,2.7,1.6,4.1,1.4c1.5-0.2,2.8-1.3,4.1-1.9c1.7-0.8,3.3-1.6,5-2.5
		c3.3-1.7,6.6-3.5,9.8-5.3c6.4-3.7,12.7-7.6,18.9-11.8c7.8-5.3,18.4-11.2,25.6-17.3c-17.7,16.6-39.7,37-60.3,49.9
		c-0.7,0.5-1.5,0.8-2.3,1c-1,0-1.9-0.4-2.8-0.9c-24.1-14-46.1-31.5-65.2-51.8L187.2,389.7z"/>
	<path id="Path_5126" class="st1" d="M200.6,161.4c-0.2,0.2-16.9,5.6-17.1,5.7c-3.1,1-6.1,1.9-9.2,3c-3.4,1.2-6.7,2.4-10,3.6
		c-3.9,1.5-7.9,3-11.8,4.6c-7.5,3.2-14.9,6.7-22.1,10.7c-5.6,3.1-11,6.5-16.1,10.2c-2.1,1.6-4.2,3.3-6.3,4.9c-0.7,0.5-1,1.2-0.9,2
		c0.1,1.9,0.2,3.7,0.3,5.6c0,0.4,0.1,0.7,0.1,1c0.2,3.6,0.4,7.3,0.7,10.9c0.2,2.5,0.6,5,0.9,7.5c0.3,2.2,0.5,4.4,0.8,6.6
		c0.2,1.8,0.5,3.7,0.8,5.5c0.3,1.7,0.5,3.4,0.8,5c0.3,1.8,0.6,3.5,1,5.2c0.2,1.4,0.5,2.7,0.7,4.1c0.2,1.1,0.4,2.1,0.7,3.2
		c0.3,1.2,0.6,2.4,0.9,3.5c0,0.1-1.9,0-2,0.4c-0.2-0.5-1.5-3.2-1.6-3.5c-5.3-14.9-10.3-26.6-12.9-42.2c-0.8-5.1-3-14-3.4-19.1
		c-0.2-1,0.3-2.1,1.2-2.6c5.8-4.2,18.9-9.8,25.3-13c15.4-7.8,30-12,46.5-16.9c5.1-1.5,8.3-2.1,13.4-3.5c0.1,0,18.2-2.5,18.3-2.6
		L200.6,161.4z"/>
	<path id="Path_5127" class="st1" d="M316.6,161.7c11.5,2.1,22.8,4.9,33.9,8.5c10.7,3.6,21,5,31.2,9.7c9.1,4.2,26.9,12.1,35.6,17.2
		c0.5,0.2,1,0.6,1.3,1.1c0.2,0.6,0.3,1.2,0.2,1.8c-2.4,20.4-13.3,46.3-19.8,65.7c3.8-18.1,5.1-39.6,6-58.1c0.1-0.8,0-1.6-0.2-2.4
		c-0.4-0.8-1-1.5-1.8-2c-16.9-13.4-36.7-22.7-56.9-30.1C337.2,169.9,325.5,164.5,316.6,161.7z"/>
	<path id="Path_5128" class="st2" d="M281.3,164l-2.2,4.5l0.5,3l6.4-1.8l5.9-3.1l-0.8-5.7l-3.5-0.2L281.3,164z"/>
	<path id="Path_5129" class="st1" d="M88,367l-0.9,1.8c0-0.1,0-0.3-0.1-0.4c-0.6-2.4-1.2-4.8-1.8-7.2c-0.5-1.9-0.9-3.7-1.4-5.6
		c-0.5-2.2-1-4.4-1.6-6.6c-0.6-2.7-1.2-5.3-1.8-8c-0.5-1.9-0.9-3.9-1.4-5.8c-0.4-1.8-0.9-3.6-1.3-5.5c-0.5-2.2-1-4.3-1.5-6.5
		c0-0.3-0.1-0.5-0.1-0.8c0.7,0,0.9,0.4,1,0.9c0.6,2.5,1.2,4.9,1.7,7.4c1,4.3,2,8.6,3.1,13l2.5,10.7c1,4.1,1.9,8.1,2.9,12.2
		c0.1,0.2,0.2,0.4,0.3,0.6C87.8,367.2,87.9,367.1,88,367z"/>
	<path id="Path_5130" class="st1" d="M99.3,383.3l-0.6-2c-0.3,0.3-0.5,0.5-0.7,0.8c-1.3,2-2.7,4.1-4,6.1c-0.2,0.4-0.5,0.7-0.8,1.1
		c-0.4-0.2-0.8-0.3-1.1-0.5c-5.2-3.1-10.3-6.1-15.5-9.2c-1-0.6-1-0.6-1.2-1.7c5.6,3.1,10.9,6.4,16.4,9.7c0.2-0.2,0.4-0.5,0.6-0.7
		c1.8-2.6,3.5-5.3,5.3-7.9c0.2-0.3,0.4-0.8,0.4-1.2L99.3,383.3z"/>
	<path id="Path_5131" class="st1" d="M108.3,355c0.1,0.1,0.2,0.1,0.4,0.2c-2.6-12.7-5.1-25.3-7.7-38c0.8-0.2,1,0.2,1.1,0.7
		c0.4,1.9,0.8,3.8,1.1,5.6c0.8,4.2,1.7,8.4,2.5,12.6c0.8,4.2,1.7,8.5,2.5,12.7c0.4,2,0.8,4.1,1.2,6.1c0.1,0.5,0.3,1.1,0.7,1.5
		L108.3,355z"/>
	<path id="Path_5132" class="st3" d="M132.8,364.1c-0.2,0.3-0.4,0.7-0.7,1l-9.6,13.5c-0.2,0.3-0.4,0.5-0.7,0.6
		c-0.3,0-0.7-0.1-0.9-0.3l-9.2-5.9l0.7,4.5c0.1,0.4,0.1,0.8-0.1,1.1c-0.2,0.3-0.5,0.5-0.9,0.6l-11.9,4.9l-2.1-8.1l-6,9.1
		c-0.2,0.5-0.7,0.8-1.2,0.6c-0.1-0.1-0.3-0.1-0.4-0.2l-14.1-8.4c-0.8-0.4-1.5-0.9-2.1-1.6c-0.6-0.9-1.1-1.9-1.3-3c0-1.8-1-4-1.5-5.7
		l-1.7-6.4l-3.3-12.9L62.7,335c-1-3.9-3-8.5-3.1-12.5c4.4-1.5,9.3-2.2,13.8-3.3c0.3-0.1,0.6-0.1,0.9,0c0.3,0.2,0.6,0.6,0.6,1
		l11.6,49c1.9-2.8,3.7-5.6,5.4-8.5c0.6-0.9,1-1.9,1.2-2.9c0.1-1,0-2-0.3-3l-4.8-21.8c-0.4-2.6-1.3-5.2-2.4-7.6
		c-1.6-2.8-4.1-5-5.7-7.8c6.1-1.5,12.3-2.8,18.4-4c0.5-0.2,1.1,0,1.4,0.5c0.1,0.2,0.1,0.3,0.1,0.5l7.5,37.2c0.1,0.9,0.4,1.9,0.9,2.7
		c0.6,0.9,1.4,1.6,2.4,2.1l8.4,5.7l-9.3-49.5c-0.1-0.4-0.1-0.9,0.1-1.3c0.3-0.2,0.6-0.4,1-0.4l12.7-2.3c0.3-0.1,0.7-0.1,1,0.1
		c0.3,0.3,0.5,0.6,0.5,1l8.4,50.1c0.2,0.7,0.2,1.5,0.1,2.2C133.4,363,133.2,363.6,132.8,364.1z"/>
	<path id="Path_5133" class="st1" d="M452.4,326.9c-0.5,1.3-1,2.5-1.4,3.8c-1.8,5.5-3.6,11-5.4,16.5c-0.3,1-0.6,2-1,3
		c-0.3,0.8-0.5,0.9-1.3,0.6c-3-0.9-5.9-1.9-8.9-2.8c-0.3-0.1-0.6-0.2-0.9-0.3c-0.7-0.3-0.7-0.4-0.2-1.4l9.5,3
		c0.4-1.2,0.9-2.4,1.3-3.6c0.7-2.1,1.4-4.2,2.1-6.3c0.6-2,1.2-4,1.9-5.9c0.6-1.9,1.3-3.8,2-5.8c0.1-0.2,0.1-0.5,0.2-0.8
		c0.4-1.5,0.7-1.6,2.1-1L452.4,326.9z"/>
	<path id="Path_5134" class="st3" d="M292.7,168c-1.6,0.6-3.2,1.1-4.7,1.7c-2.3,0.9-4.6,1.9-6.9,2.8c-1,0.4-1.2,0.3-1.4-0.7
		c-0.1-0.4-0.1-0.8-0.2-1.2c3.7-1.7,7.4-3.3,11-5.2l-1.5-3.1l-10,6.2c-1.1-4.1-1.6-8.2-2.5-12.2l-0.3,0c-0.1,0.4-0.1,0.9-0.1,1.3
		c0.2,3.8,0.5,7.6,0.8,11.3c0.1,1.4,0.3,2.8,0.4,4.2c0.1,0.7-0.3,1.3-0.9,1.5c-3.5,1.7-6.9,3.6-10.3,5.4c-0.8,0.5-1.6,1-2.4,1.6
		c-1.2,0.7-1.8,2.1-1.5,3.5c0.7,5.8,1.3,11.5,2,17.3c0.1,0.9,0.2,1.7,0.3,2.6c0.1,0.5-0.1,1.1-0.4,1.4c-2.5,2.5-5.1,4.9-7.6,7.4
		c-0.1,0.1-0.3,0.2-0.4,0.2c-0.3-0.2-0.5-0.4-0.8-0.6c-2.3-2.2-4.6-4.5-6.9-6.8c-0.6-0.5-0.8-1.3-0.7-2.1c0.6-4.5,1-8.9,1.5-13.4
		c0.2-2,0.4-3.9,0.7-5.8c0.4-1.6-0.4-3.3-1.9-4.1c-3-1.7-5.9-3.5-9-5.1c-5.9-2.9-11.9-5.5-18-7.7c-1.5-0.6-1.9-0.4-2.2,1.3
		c-0.4,2.5,0,5.1,1.3,7.3c2.4,4.5,5.9,8.4,10.2,11.2c3,2.1,6.4,3.8,9.9,5.1c1.4,0.4,2.5,1.6,2.6,3c0.8,5.7,1.3,11.4,1.6,17.2
		c0.6,12.4,0.3,24.7-0.2,37.1c0,0.3-0.1,0.7-0.1,1.1c-0.3,0-0.6,0-0.9-0.1c-14.3-5.8-24.8-15.5-31.2-29.6c-0.7-1.5-1.2-3-1.7-4.5
		c-0.1-0.5-0.2-0.9-0.1-1.4c2.1-12.1,2.6-24.4,1.5-36.6c-0.4-4.6-1-9.1-1.4-13.6c-0.4-4.8-0.2-9.7,0.6-14.5c0-0.8,0.6-1.4,1.4-1.5
		c6.3-1.6,12.4-3.8,18.2-6.4c8.9-4,17.2-9,24.8-15c0.9-0.7,0.9-0.7,1.9,0c7.2,5.7,15,10.5,23.3,14.4c5.6,2.6,11.4,4.8,17.4,6.5
		c0.8,0.3,1.6,0.5,2.4,0.6c0.9,0.1,1.1,0.6,1.2,1.4c0.7,3.6,0.9,7.2,0.8,10.8c-0.2,3.9-0.6,7.7-1.1,11.6c-0.8,7.2-1.2,14.4-1,21.6
		c0.1,5.5,0.5,11.1,1.3,16.5c0.2,1.3,0.5,2.7,0.7,4c0.1,0.6,0.1,1.2-0.1,1.8c-1.3,4-3.1,7.9-5.4,11.4c-6.4,10.2-16,18.1-27.2,22.4
		c-0.4,0.1-0.7,0.2-1.1,0.3c-0.1-0.6-0.1-1-0.2-1.4c-0.5-13.4-0.8-26.7,0-40.1c0.2-4.8,0.7-9.6,1.5-14.4c0.1-1,0.8-1.9,1.7-2.3
		c3-1.1,5.9-2.5,8.8-4.1c0.1,0,0.2,0,0.4,0c0.9,2.4,1.4,4.9,2.2,7.4c0.8,2.5,1.3,5,2.2,7.4l0.4,0c0-0.4,0-0.8,0-1.2
		c-0.5-3.5-0.9-7-1.4-10.5c-0.2-1.4-0.4-2.8-0.7-4.1c-0.1-0.7,0.2-1.3,0.8-1.6c2.4-1.9,4.6-4.1,6.3-6.6c1.3-1.8,2.3-3.7,3-5.8
		C293.9,172.3,293.7,170,292.7,168z M268.2,175.9c-0.3,0-0.6-0.1-0.8,0c-0.6,0.3-1.2,0.7-1.7,1l0.1,0.3L268.2,175.9l0.9-0.4
		C268.5,175,268.2,175.3,268.2,175.9z M240.1,174.1l0.6,0.4c-0.1-0.3-0.1-0.6-0.2-0.7c-0.4-0.2-0.7-0.4-1.1-0.6
		c-0.4-0.3-0.7-0.6-1.1-0.9c-4.8-3-9.6-6.1-14.4-9.1c-0.5-0.3-1-0.6-1.5-0.9l-1.4,3.1c0.5,0.3,0.9,0.5,1.4,0.7c5,2.3,9.9,4.7,14.9,7
		C238,173.7,239.1,174,240.1,174.1z M257.9,173.6L257.9,173.6l0-0.8l-0.3,0v36.8c0.2,0,0.3-0.1,0.5-0.1c1.3-1.1,2.5-2.3,3.8-3.4
		c0.5-0.4,0.8-1.1,0.7-1.7c-0.1-1.1-0.2-2.2-0.3-3.2c-0.1-1.3-0.2-2.5-0.4-3.8c-0.1-0.8-0.2-1.6-0.3-2.3c-0.1-0.6-0.2-1.3-0.2-1.9
		c-0.2-2.3-0.4-4.7-0.7-7c-0.2-2-0.5-4-0.6-5.9c-0.1-1.2-0.3-2.3-0.8-3.4c-0.3-0.7-0.5-1.5-0.8-2.2
		C258.3,174.2,258.1,173.9,257.9,173.6z M219,181c0,0.1-0.1,0.3,0,0.4c0.7,2.1,1.7,4.1,2.9,6c3,4.5,6.9,8.3,11.4,11.4
		c1.2,0.8,2.2,2,2.7,3.4c1.8,4.6,3.6,9.2,5.4,13.8c0.1,0.3,0.3,0.6,0.5,1.1c0.1-0.2,0.1-0.4,0.1-0.6c-0.1-2.1-0.2-4.3-0.4-6.4
		c-0.2-2.4-0.5-4.8-0.7-7.1c-0.2-2.4-0.8-4.7-1.8-6.9c-0.4-0.9-1.2-1.6-2.1-2c-5-1.8-9.6-4.7-13.3-8.5c-1.3-1.3-2.4-2.8-3.7-4.2
		c-0.2-0.2-0.3-0.8-0.9-0.5c0.3-0.7-0.1-1.4-0.8-1.7c0,0,0,0,0,0L219,181z M273.6,246c0.4-0.2,0.8-0.4,1.2-0.6
		c1.5-0.9,3-1.9,4.5-2.9c3.9-2.7,7.5-5.8,10.7-9.4c3.5-3.8,6.3-8.3,8.2-13.1c0.5-1.2,1.1-2.4,0.9-3.8c-0.2-1.3-0.4-2.7-0.6-4
		c-0.2-1.5-0.5-3.1-0.7-4.6c-0.2-1.5-0.3-3-0.6-4.5c-0.4-1.8-0.6-3.7-0.5-5.6c0-0.2-0.1-0.4-0.1-0.6l-0.3,0l0.2,3.7l-0.6,0.1
		c-0.6,2.5-1.2,5-2,7.4c-1.4,4.8-3.2,9.5-5.4,14c-2.3,4.9-5.1,9.6-8.2,14.1c-2,2.8-4.2,5.4-6.3,8.1
		C273.7,244.9,273.2,245.2,273.6,246L273.6,246z M218,151v0.2c0.5,0,1,0,1.6-0.1c3.5-0.7,6.9-1.3,10.4-2.2
		c5.3-1.4,10.5-3.2,15.5-5.4c3.4-1.4,6.7-3.1,9.9-4.9c0.6-0.4,1.1-0.1,1.6,0.2c5.4,2.9,10.9,5.5,16.6,7.6c5.5,2.2,11.2,3.7,17,4.7
		c1.5,0.3,3,0.4,4.5,0.3c-14.2-3.5-26.7-10.6-38.9-18.4c-1.2,0.7-2.3,1.3-3.3,2c-4.9,3.2-10,6.1-15.3,8.7c-4.8,2.4-9.7,4.3-14.8,6
		C221.2,150.1,219.6,150.6,218,151z M217.3,226.8l0.2-0.1c0-0.2-0.1-0.5-0.2-0.7c-1.4-3.8-2.3-7.9-2.6-11.9
		c-0.2-1.5-0.3-3.1-0.5-4.6c-0.3,0.4-0.4,0.9-0.5,1.4c-0.1,1.8-0.5,3.6-1.3,5.2c-0.4,0.7-0.4,1.6,0,2.3c1.5,2.6,3,5.3,4.4,8
		C217,226.5,217.1,226.6,217.3,226.8L217.3,226.8z M270.8,174.3l0.3,0.3c1.7-0.8,3.4-1.6,5-2.4c1.2-0.6,1.2-0.6,0.7-2
		c-0.1,0-0.2,0-0.2,0c-1.7,1.1-3.4,2.1-5,3.2C271.2,173.7,270.9,174,270.8,174.3z M243,175.8l2.7,1.3
		C244.4,175.9,243.9,175.7,243,175.8z M271.9,246.7l0.2,0.2l0.7-0.5l-0.1-0.2L271.9,246.7z M296.2,199.2l-0.1,0v0.9
		c0.1-0.1,0.2-0.3,0.2-0.5C296.3,199.5,296.3,199.3,296.2,199.2z"/>
	<path id="Path_5135" class="st3" d="M182.9,368.8c0-0.2,0-0.3,0-0.5l-6.6-65.3c0-0.4-0.2-1-0.6-1.1c-0.2,0-0.3,0-0.5,0l-20.8,2.5
		c-3.5,0.3-7,1-10.3,2.2c-3.4,1.4-6.2,4-7.9,7.3c-2.1,3.9-1.4,8.5-0.8,12.7l2.6,16.3l-5.1,1c1.7,3.8,5.1,6.8,6.6,10.7
		c0.6,1.8,1.1,3.7,1.3,5.5l2,13.1c0.1,0.4,0.2,1,0.6,1.1c0.2,0.1,0.5,0.1,0.7,0l11.8-1.7c0.3,0,0.7-0.1,0.9-0.4
		c0.1-0.3,0.1-0.5,0.1-0.8l-2.5-20.1l11.9-1l2.6,19.5c0,0.3,0.1,0.5,0.3,0.8c0.3,0.2,0.7,0.3,1.1,0.2l11.6-1.3
		c0.3,0,0.6-0.1,0.8-0.3C182.9,369.3,182.9,369,182.9,368.8z M164,339.5l-10.2,1.3c-0.3,0.1-0.6,0-0.8-0.1c-0.2-0.2-0.2-0.4-0.3-0.6
		c-0.8-5.4-1.6-10.7-2.2-16.1c-0.2-2.1-0.7-5.2,1.2-6.6c2.3-1.6,6.5-2,9.2-2.1c0.4-0.1,0.8,0.1,1.1,0.4c0.1,0.1,0.1,0.3,0.1,0.5
		c1.2,7.4,2.1,14.9,2.8,22.4c0.2,0.4,0,0.9-0.5,1c-0.1,0-0.3,0.1-0.4,0L164,339.5z"/>
	<path id="Path_5136" class="st1" d="M166.7,354.3c-0.3-0.1-0.6-0.2-0.9-0.1c-2.4,0.1-4.7,0.3-7.1,0.5c-0.7,0-1.4,0.1-2.1,0.2
		c0,0.3-0.1,0.7,0,1c0.6,4.5,1.3,9.1,1.9,13.6c0.2,1.8,0.5,3.5,0.7,5.3c0.2,1.2,0,1.4-1.1,1.6c-3.8,0.6-7.6,1.1-11.4,1.7
		c-0.5,0.1-1.1,0.3-1.4-0.4c-0.4-0.9-0.1-1.5,0.8-1.6c1.6-0.3,3.3-0.4,4.9-0.7c2.3-0.4,4.7-0.4,6.9-1.1c0.1-0.2,0.2-0.3,0.2-0.3
		c-0.3-2-0.6-4-0.9-6.1c-0.2-1.6-0.5-3.3-0.7-4.9c-0.3-2.4-0.6-4.8-1-7.2c-0.4-2.6-0.4-2.6,2.1-2.9c1.2-0.1,2.4-0.1,3.7-0.2
		c1.4-0.1,2.7-0.2,4-0.3c0.4,0,0.7-0.1,1.1-0.3L166.7,354.3z"/>
	<path id="Path_5137" class="st3" d="M401.2,320.5l0-0.1c-1.3-4.4-5.1-7.8-9.3-9.7s-8.9-2.5-13.5-3.2l-9.6-1.3
		c-1.3-0.2-3-0.6-4.3-0.2c-1,0.3-0.9,1.4-1,2.4l-1.3,9.2l-2.5,18.3l-5,35.8c-0.2,0.5,0,1.1,0.5,1.3c0.2,0.1,0.3,0.1,0.5,0.1
		l11.2,1.7c0.4,0.1,0.7,0.1,1.1-0.1c0.4-0.3,0.7-0.7,0.7-1.2c0.8-2.9,0.5-6.1,1.1-9.1c0.7-3,3-6,6-5.9l1.8,16.7
		c0,0.5,0.2,0.9,0.5,1.3c0.3,0.3,0.7,0.4,1.1,0.4l12.9,2.3l-2-25.6c-0.1-0.6,0-1.2,0.1-1.8c0.6-1.6,2.8-1.7,4.3-2.5
		c1.8-1,3.1-2.8,3.6-4.8c0.4-2,0.7-4,0.9-6.1C400.1,332.3,402.9,326.3,401.2,320.5z M387.2,325.3c0,3.7-1,7.3-1.5,11
		c-0.1,1.2-0.4,2.3-1.1,3.3c-0.6,0.6-1.3,1.1-2.1,1.4l-8.7,4.3c-0.1,0-0.2,0.1-0.3,0c-0.1-0.1-0.1-0.3-0.1-0.4l2-13.3l1-6.7
		c0.2-1.3,0-5,1.6-5.5c0.4-0.1,0.8-0.1,1.2,0c1.7,0.3,3.4,0.7,5.1,1.3c0.7,0.2,1.3,0.5,1.8,1c0.8,0.9,1.1,2.1,1.1,3.2L387.2,325.3z"
		/>
	<path id="Path_5138" class="st1" d="M376.4,362.6c-1.1,0.3-2.2,0.8-3.1,1.5c-0.3,0.3-0.4,0.7-0.5,1.2c-0.6,3.8-1.2,7.7-1.8,11.5
		c-0.2,1.4-0.3,1.5-1.7,1.3c-3.9-0.5-7.8-1.1-11.7-1.7c-1-0.1-1-0.3-0.6-1.6c0.7,0.1,1.4,0.1,2.1,0.2c2,0.3,4,0.6,6.1,0.9
		c0.5,0.1,1,0.2,1.5,0.3c0.8,0.1,1.6,0.2,2.4,0.3c0.1-0.3,0.3-0.7,0.4-1c0.3-1.8,0.5-3.5,0.8-5.3c0.1-0.6,0.2-1.1,0.3-1.7
		c0.1-0.4,0.2-0.9,0.2-1.3c0.1-0.9,0.3-1.7,0.4-2.6c0.1-0.2,0.1-0.5,0.1-0.8c-0.2-1.4,0.7-2,1.8-2.4c0.6-0.2,1.2-0.5,1.8-0.8
		c0.5-0.3,0.9-0.5,1-0.7L376.4,362.6z"/>
	<path id="Path_5139" class="st3" d="M227.9,365.8l-0.1-0.2l-7.7-24.3c-0.2-0.5-0.3-1-0.1-1.5c0.2-0.4,0.4-0.7,0.7-0.9l3.9-3.4
		c1-0.6,1.5-1.8,1.4-3l-0.4-14.5c0.1-2.9-0.3-5.8-1.1-8.6c-0.9-2.6-2.6-4.8-4.8-6.5c-2.8-2-6.1-3.1-9.6-3.4
		c-3.4-0.2-6.9-0.1-10.3,0.3l-9.2,0.8c-1.5,0.1-3,0.3-4.4,0.4c-1.8,0.2-2.2,0-2.2,1.8c-0.1,6,1.1,12.4,1.7,18.4l3.4,36.8
		c0.3,3.1,0.9,6.4,0.9,9.6c0,0.4,0.1,0.8,0.4,1c0.3,0.1,0.6,0.2,0.9,0.1c3.9-0.3,7.9-0.6,11.8-0.9c0.3,0,0.6-0.1,0.8-0.3
		c0.2-0.3,0.2-0.6,0.2-0.9l-0.7-11.8c-0.1-0.6,0-1.1,0.2-1.6c0.3-0.5,0.6-0.9,1.1-1.2c1-0.8,2-1.5,3.1-2.2l5.5,15.9
		c0.1,0.9,0.8,1.5,1.7,1.4c0.1,0,0.1,0,0.2,0c4.1-0.1,8.2-0.3,12.2-0.6c0.2,0,0.5-0.1,0.7-0.2C228,366.2,228,366,227.9,365.8z
		 M211.5,330l-0.2,0.2c-2.9,2.8-6,5.4-9.3,7.8c-0.7-5.2-0.7-10.4-1.1-15.6c-0.2-2.3-0.5-4.5-0.7-6.8c-0.1-1.1-0.1-2.1-0.1-3.2
		c0-0.5-0.1-0.8,0.3-1c0.4-0.2,0.9-0.2,1.4-0.2l4.2,0c1.2-0.1,2.4,0.2,3.4,0.8c0.6,0.6,1,1.4,1.2,2.2c0.2,0.6,0.4,1.2,0.5,1.8
		c0.1,0.6,0.2,1.3,0.2,1.9l0.7,10.2c0.1,0.4,0,0.8-0.1,1.2C211.9,329.6,211.7,329.8,211.5,330z"/>
	<path id="Path_5140" class="st1" d="M206.3,369.3c0.1,2,0.1,1.9-1.8,2.1c-3.6,0.3-7.1,0.5-10.7,0.8c-1.5,0.1-1.7-0.1-1.5-1.8
		c0.4,0,0.7,0,1.1-0.1c0.3,0,0.7,0,1,0c3.1-0.3,6.2-0.5,9.2-0.8c0.3,0,0.5-0.1,0.8-0.1c0.4-0.1,0.7-0.4,0.6-0.8c0,0,0,0,0-0.1
		c-0.3-3.1-0.5-6.2-0.8-9.4c-0.1-1.2-0.1-2.4-0.2-3.5c0-0.4,0.2-0.9,0.6-1.1c0.8-0.6,1.6-1.3,2.4-1.9c0.6-0.5,0.9-0.7,1-1l0.3,0.8
		c0.1,0.2,0.1,0.4,0.2,0.6l0.1,0.4c0.1,0.2,0.1,0.4,0.2,0.5l0,0l0,0.1c-1.2,0.9-2.2,1.7-3.2,2.6c-0.3,0.3-0.3,1-0.3,1.5
		C205.7,361.8,206,365.5,206.3,369.3z"/>
	<path id="Path_5141" class="st3" d="M267,338l3.5-2.7c0.6-0.4,1-0.8,1.4-1.4c0.4-0.8,0.5-1.6,0.5-2.4l0.3-11.9
		c0.1-5.3,0.1-11.1-3.1-15.4c-2.4-3-5.9-5-9.6-5.6c-3.7-0.6-7.6-0.8-11.4-0.6l-12.3,0.3c-1,0-2,0-3,0.1c-1.4,0.1-1.2,0.2-1.2,1.6
		l0.2,6.2l0.7,24.7l1,34.5c0,0.3,0.1,0.6,0.3,0.8c0.2,0.1,0.5,0.2,0.8,0.2l12-0.3c0.5,0.1,0.9-0.2,1-0.7c0-0.1,0-0.3,0-0.4
		l-0.2-11.5c-0.2-1.1,0.4-2.3,1.4-2.7l3.5-2.3l4.6,16.5c0.1,0.3,0.2,0.6,0.4,0.9c0.4,0.3,0.8,0.4,1.3,0.3l13.1,0.2l-6.4-26
		c-0.1-0.4-0.2-0.8,0-1.2c0.2-0.3,0.4-0.6,0.7-0.8L267,338z M258,328.7c-0.3,0.3-0.6,0.6-0.9,0.9c-2.8,2.3-5.8,4.5-8.8,6.5
		c-0.2-1-0.3-2-0.3-3l-0.4-19.9c0-2.1-0.1-3.6,2.4-3.7c1.7-0.1,3.4,0.1,5,0.5c0.9,0.1,1.7,0.5,2.3,1.1c0.7,0.9,1.1,2.1,1.1,3.3
		c0.3,3.9,0.3,7.9,0.2,11.8c0,0.7-0.1,1.4-0.3,2C258.2,328.4,258.1,328.5,258,328.7L258,328.7z"/>
	<path id="Path_5142" class="st1" d="M254,352.5L254,352.5c-1.2,0.8-2.2,1.4-3.2,2.2c-0.3,0.3-0.4,0.7-0.4,1.2
		c0,3.6,0.1,7.2,0.1,10.8c0,2.7,0.3,2.6-2.5,2.6c-3.2,0.1-6.5,0.2-9.7,0.2c-0.3,0-0.6,0-0.9,0c-0.9,0-1-0.2-1-0.9
		c0-0.7,0.1-0.9,0.9-0.9c2-0.1,4-0.2,6-0.3c1.6,0,3.2,0,4.8,0c0.3,0,0.5,0,0.8-0.1c0-0.3,0.1-0.6,0.1-0.9c0-4.1,0-8.1,0-12.2
		c-0.1-0.7,0.3-1.5,0.9-1.8c0.9-0.5,1.7-1.2,2.6-1.8c0.4-0.3,0.7-0.5,0.8-0.7L254,352.5z"/>
	<path id="Path_5143" class="st3" d="M354.3,313.9c-0.4-2.8-1.7-5.4-3.6-7.4c-2.3-2.3-5.5-3.4-8.6-4.3c-4.8-1.3-9.9-2.1-14.8-1.4
		c-4.8,0.6-9.1,3.1-12.2,6.8c-0.7,1.1-1,2.3-1.1,3.6c-0.3,1.5-0.5,3-0.7,4.4c-0.4,3-0.7,6-0.9,8.9c-0.6,6.9-0.8,13.8-1.5,20.7
		c-0.5,3.5-0.6,7.1-0.4,10.6c0.2,3.6,1.6,7,4,9.7c3.3,3.4,8.2,4.6,12.9,5.2c3.2,0.5,6.4,0.5,9.6,0c3.2-0.5,6.2-2,8.5-4.3
		c3.3-3.5,4.1-8.6,4.7-13.4l3.7-28c0.6-3.2,0.7-6.5,0.6-9.8C354.5,314.8,354.4,314.3,354.3,313.9z M339.2,317.8c0,0.3,0,0.6,0,0.9
		c-0.8,12-2.2,24-3.9,36c-0.1,1.2-0.5,2.4-1.2,3.4c-1.3,1.4-3.6,1.3-5.5,0.8c-1-0.2-2-0.6-2.8-1.4c-0.7-1.1-0.9-2.4-0.7-3.7
		c0.6-9.8,1.5-19.5,2.5-29.3c0.3-2.4,0.5-4.9,1-7.3c0.4-2.1,1-4.1,3.3-4.7c1.2-0.2,2.3-0.2,3.5,0.1c1.1,0.2,2.1,0.7,2.9,1.5
		C339.1,315.2,339.4,316.5,339.2,317.8z"/>
	<path id="Path_5144" class="st3" d="M449.5,322.2L449.5,322.2l-14.9-3.6c-4.6-1.1-9.2-2.2-13.9-1.6c-2.2,0.3-4.4,1-6.4,2.1
		c-1.9,1.2-3.5,2.9-4.7,4.9c-1.4,2.1-1.8,5-2.4,7.5c-0.7,2.9-1.3,5.8-1.8,8.8c-0.2,0.8-0.2,1.7,0,2.6c0.3,0.7,0.8,1.4,1.3,1.9
		l17.2,18.3c0.6,0.6,1.1,1.2,1.4,1.9c0.9,2-0.1,4.3-1.1,6.2c-0.3,0.8-0.9,1.5-1.6,1.9c-0.6,0.2-1.3,0.2-1.9,0.1
		c-2.5-0.3-5-0.8-7.4-1.6c-0.6,0-1-0.5-1-1.1c0-0.1,0-0.2,0.1-0.3l1-9c0.1-0.6,0-1.2-0.3-1.7c-0.3-0.2-0.6-0.4-0.9-0.4l-8.7-2.5
		c-0.3-0.1-0.6-0.1-0.9,0c-0.3,0.2-0.5,0.6-0.6,1l-4.3,21.4c-0.1,0.2-0.1,0.5,0,0.7c0.1,0.4,0.6,0.5,1,0.6l14.3,3.1
		c3.5,0.9,7,1.4,10.6,1.4c3.6,0,7.1-1.2,9.8-3.6c2.3-2.1,3.5-5.1,4.5-8.1c1.1-3.4,2-7,2.8-10.5c0.2-0.5,0.2-1.1,0.1-1.7
		c-0.2-0.7-0.6-1.3-1.1-1.7l-18.4-19.9c-0.4-0.4-0.7-0.8-0.9-1.3c-0.1-0.6-0.1-1.3,0.1-1.9c0.4-1.7,1-3.3,1.6-4.9
		c0.3-1.7,2-2.8,3.7-2.5c0.1,0,0.3,0.1,0.4,0.1c2.1,0.2,4.3,0.6,6.3,1.1c0.4,0,0.8,0.2,1,0.6c0.1,0.3,0.1,0.7,0,1.1l-2.6,11
		c-0.2,0.4-0.2,0.9,0,1.3c0.3,0.4,0.8,0.7,1.3,0.8l9.8,3l8.1-24.2c0.2-0.3,0.2-0.7,0-1C449.9,322.3,449.7,322.2,449.5,322.2z"/>
	<path id="Path_5145" class="st1" d="M414.9,371c-0.1,0.4,0,0.7,0.3,1l-2.1-0.4c0.3-0.1,0.3-0.4,0.4-0.7c0.1-0.9,0.1-1.8,0.2-2.7
		c0.2-1.8,0.4-3.6,0.6-5.4c1.2,0,1.4,0.1,1.3,1.1c-0.1,1.6-0.3,3.3-0.5,4.9C415.1,369.5,415,370.3,414.9,371z"/>
	<path id="Path_5146" class="st1" d="M433.4,331.4l-0.4,1.8c-0.1-0.3-0.3-0.4-0.9-0.5c-1.5-0.2-2.9-0.4-4.4-0.5
		c-1.4-0.2-2.8,0.7-3.2,2c-0.7,1.9-1.2,4-1.8,6c-0.1,0.2-0.1,0.4,0,0.6l-1.9-1.7l0.2,0.2c0.2-0.2,0.3-0.4,0.4-0.6c0.2-1,0.4-2,0.7-3
		c0.3-1.2,0.8-2.4,1.2-3.5c0.5-1.1,1.6-1.7,2.7-1.6c2.3,0,4.6,0.3,6.8,1C433,331.5,433.3,331.5,433.4,331.4z"/>
	<path id="Path_5147" class="st1" d="M285.2,309l-0.2,2.4c-0.2-0.2-0.4-0.3-0.7-0.3c-0.3,0-0.6,0-0.9,0c-1.4,0-1.4-0.1-1.8-1.7
		c0.8,0,1.6,0,2.4,0C284.8,309.4,285.1,309.4,285.2,309z"/>
	<path id="Path_5148" class="st1" d="M311.2,304c-0.1,0.9-0.1,1.8-0.2,2.7c-0.1,1.5-0.2,3-0.3,4.4c0,0.4-0.1,0.8-0.2,1.4
		c-0.6,0-1.1,0-1.5-0.1c-1.6-0.2-3.2-0.3-4.8-0.5c-1.1-0.1-1.2,0-1.3,1.1c-0.1,1.8-0.2,3.6-0.4,5.5c-0.6,11.1-1.3,22.3-1.9,33.4
		c-0.1,1.4-0.2,2.7-0.3,4c-0.1,0.8-0.1,1.2,0.2,1.3h-2.1c0.6,0,0.5-0.6,0.5-1c-0.1-2.2,0-4.4,0.4-6.5c0.1-0.8,0.1-1.6,0.1-2.3
		c0.1-2.4,0.3-4.9,0.4-7.3c0.1-1.3,0.1-2.5,0.2-3.8c0.1-1.5,0.2-3,0.3-4.4c0-0.2,0-0.3,0.1-0.5c0.3-4.8,0.5-9.7,0.8-14.5
		c0.1-2.2,0.4-4.3,0.5-6.5c0-0.1,0.1-0.2,0.2-0.4l0.9,0.1l3.2,0.4c0.7,0.1,1.5,0.1,2.2,0.2c0.9,0.1,1.1-0.1,1.2-1c0-1,0-1.9,0.1-2.9
		c0.1-1,0.2-2,0.3-3c0-0.4,0.3-0.7,0.7-0.7c0.1,0,0.1,0,0.2,0C311.1,303.3,311.2,303.6,311.2,304z"/>
	<path id="Path_5149" class="st3" d="M308.9,301.1l-0.4,7c0,0.3-0.1,0.6-0.2,0.8c-0.2,0.2-0.6,0.2-0.8,0.2l-6.7-0.5l-2.8,47.6
		c-0.1,0.4,0.1,0.9,0.6,1.1c0.1,0,0.3,0.1,0.4,0l4.9,0.4c0.3,0,0.6,0.1,0.9,0.3c0.3,0.3,0.4,0.8,0.3,1.2l-0.5,7.2
		c0,0.3-0.1,0.6-0.3,0.9c-0.3,0.3-0.8,0.4-1.2,0.3l-22.9-1.1c-0.6,0-1.2-0.1-1.8-0.4c-0.5-0.4-1-1-1.2-1.6c-1-2.2-1.9-4.5-2.7-6.9
		l7.9-0.6c0.6,0.1,1.1-0.3,1.2-0.8c0-0.1,0-0.3,0-0.4l1.8-47c0-0.2,0-0.5-0.1-0.7c-0.2-0.2-0.4-0.3-0.7-0.3
		c-1.2-0.1-2.6,0.5-3.7,0.1c-0.9-0.5-1.5-1.2-1.9-2.1c-0.8-1.5-1.5-3.1-2.1-4.7c-0.2-0.5-0.8-1.7-0.5-2.2c0.4-0.6,1.6-0.4,2.2-0.4
		l29.1,1.3c0.4,0,0.9,0.1,1.2,0.4c0.1,0.3,0.2,0.6,0.1,0.9V301.1z"/>
	<path id="Path_5150" class="st3" d="M398.2,266.4c0.3-1,0.7-2,1-2.9c4-11.8,7.1-24,9.4-36.3c1.6-8.4,2.8-16.8,4.2-25.2
		c0.3-1-0.2-2-1.2-2.4c-11.3-7-23.1-13.1-35.3-18.2c-18.7-7.9-38-14.2-57.8-18.9c-0.7-0.2-1.3-0.4-2-0.5l0-0.3
		c0.8,0.1,1.6,0.1,2.4,0.2c6.7,0.8,13.3,1.9,19.9,3.3c5.6,1.3,11.1,2.7,16.6,4.2c9.2,2.5,18.3,5.6,27.2,9
		c12.6,4.8,24.9,10.3,36.8,16.6c0.3,0.1,0.5,0.3,0.8,0.4c0.5,0.2,0.8,0.8,0.6,1.3c-0.4,3.1-0.8,6.1-1.3,9.2
		c-0.5,3.2-1.1,6.4-1.8,9.6c-0.9,4.1-1.8,8.2-3,12.2c-1.4,4.9-3,9.7-4.8,14.5c-3,8.1-6.6,16-11,23.5c-0.2,0.3-0.4,0.5-0.6,0.8
		L398.2,266.4z"/>
	<path id="Path_5151" class="st1" d="M256.3,62.8c0.2,0.6,0.4,1.1,0.6,1.7c1.6,5.3,3.3,10.6,4.9,15.8c1.4,4.5,2.8,9,4.1,13.5
		c0.4,1.5,1,2.9,1.4,4.4c0.2,0.6,0.2,1.3,0.1,1.9c-1.5,5.8-3.1,11.7-4.7,17.5c-0.7,2.7-1.5,5.5-2.2,8.2c-0.1,0.3-0.2,0.5-0.4,1
		l-1.6-1.3c-0.6-0.5-1.1-1-1.7-1.5c-0.3-0.4-0.8-0.4-1.2-0.1c-0.1,0-0.1,0.1-0.2,0.2c-0.7,0.7-1.5,1.4-2.2,2c-0.3,0.2-0.6,0.4-1,0.6
		c-0.3-0.9-0.5-1.6-0.7-2.4c-2.2-8.1-4.3-16.2-6.5-24.4c-0.1-0.6-0.1-1.2,0-1.8c1.9-6.4,3.9-12.8,5.9-19.2c1.5-5,3.1-10,4.6-15
		c0.1-0.4,0.3-0.8,0.4-1.1L256.3,62.8z M252.4,86.5c-0.9,0.9-1.6,1.6-1.5,2.9c0.1,1.6,0.1,3.1,0.1,4.7c0.2,4.4,0.3,8.8,0.5,13.2
		c0,0.5,0,1,0.1,1.4c0.1,0.4,0.3,0.6,0.8,0.5L252.4,86.5z M259.9,86.8c-0.3,1.7-0.2,20.9,0.1,22.2c0.2-0.1,0.5-0.2,0.6-0.4
		c0.1-0.4,0.2-0.9,0.2-1.3c0.1-5.9,0.2-11.8,0.4-17.7C261.3,88.5,260.8,87.4,259.9,86.8z"/>
	<path id="Path_5152" class="st3" d="M200.6,161.4c-1.6,0.3-3.2,0.7-4.8,1c-21.9,4.7-43.3,11.4-63.9,20.1c-8.7,3.6-17,8-24.9,12.9
		c-2.2,1.4-4.4,3-6.6,4.5c-0.7,0.4-1,1.2-0.9,2c0.4,7.7,1.3,15.4,2.8,22.9c2.5,12.8,5.9,25.5,10.2,37.8c0.3,0.7,0.4,1.4,0.5,2.2
		c-0.2-0.3-0.4-0.6-0.6-0.8c-3.6-6.6-6.8-13.5-9.6-20.6c-2.3-5.8-4.2-11.8-5.9-17.8c-1.5-5.2-2.7-10.5-3.6-15.8
		c-0.7-4.2-1.3-8.4-1.9-12.6c-0.2-1.4-0.2-1.5,1.1-2.1c5-2.5,9.9-5,14.9-7.3c6.7-3,13.5-5.9,20.3-8.6c5.3-2.1,10.8-4,16.2-5.8
		c5.1-1.7,10.3-3.3,15.5-4.7c5.8-1.5,11.7-2.9,17.6-4.1c5.2-1,10.4-1.8,15.6-2.5c2.6-0.4,5.3-0.5,7.9-0.8L200.6,161.4z"/>
	<path id="Path_5153" class="st3" d="M211.9,146.4c0.3-1.2,0.5-2,0.8-2.9c2.7-7.9,7.5-15,13.7-20.5c5.8-5.1,12.5-9.2,19.7-12
		c0.2-0.1,0.4-0.1,0.6-0.1c0.1,0.3,0.2,0.5,0.3,0.8c1.2,5.1,2.3,10.3,3.5,15.4c0.2,0.8-0.2,1.2-0.8,1.6c-2.8,1.9-5.5,4-8.4,5.8
		c-5.5,3.6-11.5,6.5-17.7,8.7c-3.3,1.1-6.7,2-10,2.9C213,146.3,212.4,146.3,211.9,146.4z"/>
	<path id="Path_5154" class="st3" d="M191.2,394.1l2.7,2.6c18.4,17.5,39.1,32.4,61.4,44.5c0.8,0.5,1.8,0.5,2.6,0
		c3.9-2,7.7-4.2,11.4-6.7c10-6.7,19.5-13.9,28.8-21.5c6.9-5.6,13.6-11.5,20.4-17.2c0.5-0.4,1-0.8,1.6-1.1c-0.3,0.3-0.5,0.7-0.8,1
		c-11.6,13.2-24.3,25.3-38.1,36.1c-7.6,6-15.5,11.6-23.6,16.8c-1.2,0.8-1.2,0.8-2.4,0c-13.9-9.4-27.2-19.6-40-30.4
		c-7.3-6.1-14.2-12.8-20.6-19.9c-1.2-1.3-2.3-2.7-3.5-4.1L191.2,394.1z"/>
	<path id="Path_5155" class="st3" d="M265.5,110.9c0.5,0.2,1,0.3,1.4,0.5c8.3,3.3,15.8,8.3,22,14.7c5.1,5.4,8.9,11.9,11.1,19
		c0.1,0.3,0.1,0.7,0.2,1.2c-0.6,0-1.2-0.1-1.7-0.2c-3.8-0.9-7.6-2-11.3-3.4c-8.7-3.4-16.9-8-24.3-13.6c-0.9-0.5-1.3-1.6-1-2.6
		c0.9-3.7,1.7-7.4,2.5-11.1c0.3-1.2,0.5-2.4,0.8-3.6C265.3,111.6,265.4,111.3,265.5,110.9z M295.3,139.5c-1.4-3.1-3.2-6.1-5.5-8.7
		c-2.8-3.3-5.9-6.3-9.4-8.9c-3.4-2.6-7.1-4.9-11-6.8c-0.6-0.3-1.3-0.6-2.2-0.9l-0.9,4.6c0.6,0.2,1,0.5,1.6,0.7
		c5.2,1.9,10,4.6,14.3,8.1c4.5,3.5,8.5,7.6,12.2,12C294.7,139.6,295,140.5,295.3,139.5z M296.3,142l0.2-0.1l-0.4-0.7l-0.2,0.2
		L296.3,142z"/>
	<path id="Path_5156" class="st1" d="M239.1,406.8c0-3.8,0-7.3,0-10.9c0-3.5,0.1-7,0-10.6c-0.2,0-0.4,0-0.5,0.1
		c-0.2,0.1-0.3,0.3-0.5,0.4c-2.7,2.7-2.7,2.7-2.7,6.6v14.2c-0.4,0.1-0.7,0.1-1.1,0.2c-1,0-2.1,0-3.1,0c-1.5,0-1.5,0-1.5-1.6v-0.4
		c0-4.8,0-9.7,0-14.5c0.1-1-0.3-2.1-1.1-2.8c-0.8-0.7-1.5-1.6-2.2-2.4c-0.6,0.4-0.4,0.8-0.4,1.2v20.1c-0.2,0.1-0.4,0.2-0.7,0.2
		c-1.4,0-2.7,0-4.1,0c-0.9,0-1-0.2-1-1c0-0.2,0-0.4,0-0.7v-24.6c0-0.1,0-0.3,0-0.4c0-1.4,0.1-1.5,1.5-1.5c1.4,0,2.8,0,4.2,0
		c0.8-0.1,1.6,0.3,2.1,0.8c1.2,1.2,2.5,2.5,3.7,3.7c0.7,0.7,0.9,0.7,1.6,0c1.3-1.2,2.5-2.4,3.7-3.7c0.5-0.6,1.2-0.9,2-0.8
		c1.5,0,3.1,0,4.6,0c1.1,0,1.2,0.2,1.3,1.3c0,0.3,0,0.7,0,1v25c0,0.5-0.2,0.8-0.7,0.8C242.6,406.8,241,406.8,239.1,406.8z"/>
	<path id="Path_5157" class="st1" d="M266.8,406.8v-21.6c-0.4,0.2-0.6,0.4-0.8,0.5c0,0-0.1,0.1-0.1,0.1c-2.8,2.8-2.8,2.8-2.8,6.8
		v12.7c0,1.6,0,1.6-1.6,1.6c-1,0-1.9,0-2.9,0c-1.2,0-1.3-0.1-1.3-1.3c0-3.7,0-7.4,0-11.1c0-1.5,0-3,0-4.4c0.1-0.8-0.3-1.6-0.8-2.1
		c-0.7-0.7-1.4-1.5-2.1-2.3c-0.2-0.2-0.5-0.3-0.7-0.4c-0.1,1.6,0,3-0.1,4.4c0,1.4,0,2.8,0,4.2v12.9c-0.4,0.1-0.7,0.2-1.1,0.2
		c-1.1,0-2.3,0-3.4,0c-1.2,0-1.2-0.1-1.2-1.3v-25c0-0.3,0-0.7,0-1c0-0.4,0.3-0.8,0.7-0.8c0,0,0.1,0,0.1,0c1.8,0,3.7,0,5.5,0
		c0.5,0.1,1,0.3,1.3,0.7c1.3,1.2,2.5,2.4,3.8,3.6c0.8,0.8,1,0.8,1.8,0c1.2-1.2,2.5-2.4,3.6-3.6c0.5-0.6,1.2-0.9,2-0.8
		c1.4,0,2.9,0,4.3,0c1.5,0,1.5,0.1,1.5,1.6c0,8,0,16,0,24c0,0.6,0,1.1,0,1.7c0,0.4-0.2,0.7-0.6,0.8c0,0-0.1,0-0.1,0
		C270.3,406.8,268.7,406.8,266.8,406.8z"/>
	<path id="Path_5158" class="st1" d="M286.3,406.8v-2.2c0-1.7,0-3.5,0-5.2c0-1-0.1-1.1-1.1-1.2c-0.9-0.1-1.7-0.2-2.6-0.2
		c-1,0-1.2,0.1-1.2,1.1c0,2,0,4.1,0,6.1c0,0.5,0,0.9-0.1,1.6c-1.8,0-3.4,0-5.1,0c-0.6,0-0.6-0.5-0.6-1c0-1.4-0.1-2.9,0-4.3
		c0.1-2-0.3-4-1.3-5.8c-0.3-0.6-0.5-1.2-0.7-1.9c0.2-0.1,0.3-0.2,0.5-0.2c1.5-0.2,1.5-0.2,1.5-1.8c0-2.2,0-4.4,0-6.5
		c-0.2-3.2,2.2-6.1,5.4-6.4c0.7-0.1,1.5-0.2,2.2-0.2c2.4,0,4.8,0,7.2,0c1.5,0,1.5,0.1,1.5,1.6v25.2c0,1.2-0.1,1.3-1.3,1.3
		C289.3,406.8,287.9,406.8,286.3,406.8z M286.2,383.6c-0.8,0-1.5-0.1-2.3,0c-1.8,0.1-2.4,0.6-2.5,2.4c-0.1,2.2,0,4.4,0,6.6
		c0,0.7,0.3,1,0.9,1c0.8,0,1.7,0,2.5,0c1.5,0,1.5,0,1.5-1.4c0-2.4,0-4.9,0-7.3C286.3,384.5,286.2,384.1,286.2,383.6z"/>
	<path id="Path_5159" class="st1" d="M145.6,297.2c-0.8,0-1-0.1-1.1-1c-0.4-2.5-0.8-5.1-1.2-7.6c-0.7-4-1.3-8-2-12
		c-0.1-0.8-0.2-1.6-0.4-2.4c-0.1-0.4,0.1-0.9,0.5-1c0.1,0,0.1,0,0.2,0c1.6-0.3,3.2-0.5,4.8-0.8c0.7-0.1,0.8,0.4,0.9,0.9
		c0.3,2,0.6,4,0.9,5.9c0.1,0.9,0.3,1.8,0.4,2.7c0.2,0.9,0.3,0.9,1.1,0.8c1.7-0.2,3.4-0.5,5-0.7c1-0.1,1.9-0.2,2.9-0.4
		c1.1-0.2,1.3-0.3,1.1-1.4c-0.3-2.4-0.6-4.7-1-7.1c0-0.3-0.1-0.6-0.1-0.9c-0.2-1.2,0-1.3,1.2-1.5c1.3-0.2,2.5-0.4,3.8-0.5
		c1.1-0.1,1.3,0,1.5,1.1c0.4,3.3,0.9,6.6,1.3,9.8c0.5,3.7,1,7.3,1.4,11c0,0.2,0.1,0.4,0.1,0.6c0.2,1.4,0.1,1.5-1.3,1.6
		c-1.2,0.1-2.3,0.3-3.5,0.5c-1,0.1-1.1,0.1-1.3-0.9c-0.3-2.2-0.6-4.5-1-6.7c-0.2-1-0.3-2-0.5-3c0-0.4-0.3-0.7-0.7-0.7
		c-0.1,0-0.1,0-0.2,0c-2.6,0.4-5.3,0.7-7.9,1.1c-1.4,0.2-1.4,0.3-1.2,1.7c0.4,2.8,0.9,5.7,1.3,8.5c0.2,1.4,0.1,1.5-1.2,1.7
		C148.2,296.9,146.9,297.1,145.6,297.2z"/>
	<path id="Path_5160" class="st1" d="M326.8,267.3c3.6-0.1,7.2,0.8,10.2,2.8c8.3,5.4,6.7,16.4-0.6,20.6c-6.2,3.6-14.9,2.5-19.8-2.6
		c-4.6-4.8-4.5-12.4,0.2-17c1.2-1.2,2.6-2.1,4.2-2.7C322.9,267.7,324.8,267.3,326.8,267.3z M335.6,278.8c0-0.6,0-1.2,0-1.8
		c-0.1-2.1-1-4.1-2.5-5.6c-2.9-2.7-7.4-2.5-10.1,0.4c-0.4,0.5-0.8,1-1.1,1.6c-1,1.9-1.6,4.1-1.7,6.3c-0.3,2.3,0.1,4.7,1,6.9
		c1,2.6,3.5,4.2,6.3,4.1c2.4,0,4.6-1.3,5.8-3.4C334.9,284.7,335.7,281.7,335.6,278.8z"/>
	<path id="Path_5161" class="st1" d="M187.5,292.4c-3,0-5.9-1-8.3-2.8c-6.6-4.7-7.5-15.2,0.6-20.1c5.6-3.4,11.5-3.8,17.3-0.7
		c7.9,4.2,7.8,14.6,2.1,19.6C196.1,291.2,192.4,292.3,187.5,292.4z M196.4,280.4c0-2.8-0.7-5.5-2-7.9c-1.4-2.6-4.3-3.9-7.2-3.4
		c-2.9,0.4-5.2,2.5-5.8,5.4c-0.8,3-0.7,6.1,0.3,9c0.4,1.6,1.2,3.2,2.4,4.5c2.5,2.8,6.8,3,9.5,0.5c0.5-0.5,1-1,1.3-1.6
		C195.9,284.9,196.4,282.7,196.4,280.4L196.4,280.4z"/>
	<path id="Path_5162" class="st1" d="M235.3,273.7c0,2.3,0,4.6,0,6.9c0.1,3.8-2.3,7.3-6,8.4c-3.3,1.2-6.8,1.4-10.2,0.5
		c-4-0.9-6.9-4.4-7-8.4c-0.3-4.7-0.6-9.5-0.9-14.2c-0.1-0.9,0-1.1,1-1.1c1.4-0.1,2.9-0.2,4.3-0.3c0.9-0.1,1.1,0.1,1.1,1
		c0.2,3.4,0.4,6.8,0.6,10.2c0.1,1.8,0.1,3.7,0.4,5.5c0.6,3.5,3.9,5.9,7.4,5.3c3.1-0.5,5.4-3.2,5.4-6.3c0-2.2-0.1-4.4-0.2-6.7
		c-0.1-2.7-0.2-5.5-0.3-8.2c0-1.4,0-1.4,1.4-1.5c0.5,0,1,0,1.4,0c0.9,0,1.1,0.1,1.1,1c0.1,2.2,0.2,4.4,0.2,6.5c0,0.5,0,1,0,1.4
		L235.3,273.7z"/>
	<path id="Path_5163" class="st1" d="M273.1,264.6c0.5,0,0.9-0.1,1.2-0.1c5.7,0.2,11.3,0.4,17,0.6c0.6,0,1.1,0.5,1.1,1.1
		c0,0.3-0.1,0.5-0.2,0.7c-0.2,0.2-0.5,0.3-0.8,0.3c-1,0-2-0.1-3-0.1c-2.6-0.1-5.1-0.2-7.7-0.3c-1.3,0-1.4,0-1.4,1.4
		c-0.1,1.8-0.1,3.6-0.2,5.4c0,1.1,0.1,1.2,1.2,1.2c2.7,0.1,5.5,0.2,8.2,0.3c1,0,1.2,0.2,1.1,1.1c0,0.9-0.1,1-1.1,1
		c-2.7-0.1-5.4-0.2-8.1-0.3c-1.3-0.1-1.4,0-1.4,1.3c-0.1,2.3-0.2,4.5-0.3,6.8c0,1.4,0.1,1.5,1.5,1.5c3.2,0.1,6.5,0.2,9.7,0.4
		c1.3,0.1,1.8,0.9,1.3,2.1c-0.1,0.2-0.3,0.4-0.6,0.4c-0.4,0.1-0.8,0.1-1.2,0l-15.8-0.6c-1.1,0-1.2-0.1-1.1-1.2
		c0.1-4.7,0.2-9.3,0.4-14c0.1-2.6,0.1-5.1,0.2-7.7C273,265.6,273,265.2,273.1,264.6z"/>
	<path id="Path_5164" class="st1" d="M244.1,282.3c1.4,0,2.6,0,3.8,0c0.2,0,0.4,0.2,0.6,0.4c0.1,0.1,0.2,0.3,0.2,0.5
		c1.3,3.3,4.6,3.9,7.3,3c1.5-0.5,2.4-2.1,1.9-3.6c-0.1-0.2-0.2-0.4-0.3-0.6c-0.6-1-1.4-1.8-2.4-2.3c-1.8-1-3.7-1.8-5.5-2.8
		c-1-0.5-2.1-1.1-3-1.8c-2.5-1.7-3.1-5.1-1.4-7.6c0.4-0.6,0.9-1.1,1.5-1.5c1-0.7,2-1.2,3.2-1.5c3.2-0.8,6.5-0.9,9.6,0.7
		c1.6,0.9,2.9,2.2,3.7,3.8c0.2,0.4,0.3,0.8,0.4,1.3c-1.1,0.3-2.3,0.3-3.5,0.1c-0.2,0-0.5-0.4-0.6-0.6c-0.3-0.4-0.4-0.8-0.7-1.2
		c-1.7-2.4-5-3.1-7.6-1.7c-1.4,0.6-2,2.3-1.4,3.7c0.1,0.3,0.3,0.6,0.6,0.8c0.9,0.9,1.8,1.6,2.9,2.2c1.8,1,3.7,1.8,5.5,2.8
		c1,0.5,1.9,1.2,2.8,1.9c2.3,1.9,2.7,5.4,0.7,7.7c-0.2,0.2-0.3,0.4-0.5,0.5c-1.4,1.4-3.2,2.2-5.1,2.5c-2.5,0.5-5.1,0.4-7.5-0.4
		C246.7,287.5,244.6,285.2,244.1,282.3z"/>
	<path id="Path_5165" class="st1" d="M357.4,283.6c-0.2,1.4-0.4,2.5-0.6,3.6c-0.4,2.4-0.7,4.7-1.1,7.1c-0.2,1.2-0.2,1.3-1.5,1.1
		c-1.2-0.2-2.4-0.3-3.6-0.5c-1-0.1-1.2-0.3-1-1.4c0.2-1.9,0.5-3.8,0.8-5.7c0.5-3.5,1-7,1.4-10.5c0.3-1.8,0.5-3.7,0.8-5.6
		c0.2-1.2,0.3-1.2,1.4-1.1c2.9,0.4,5.9,0.8,8.8,1.2c2.2,0.3,4.3,0.6,6.5,1c0.4,0,0.8,0.1,1.2,0.2c0.8,0.2,0.9,0.5,0.8,1.2
		s-0.3,0.9-1.2,0.8c-1.9-0.2-3.9-0.5-5.8-0.8c-1.5-0.2-2.9-0.4-4.4-0.7c-0.7-0.1-1,0.1-1.1,0.7c-0.3,2-0.6,4-0.9,6.1
		c-0.1,0.9,0.1,1,1.1,1.2c2.8,0.4,5.5,0.8,8.3,1.2c1,0.1,1.2,0.5,0.9,1.4c-0.2,0.7-0.4,0.8-1.3,0.7c-1.7-0.2-3.4-0.5-5.2-0.8
		C360.3,284,359,283.9,357.4,283.6z"/>
	<path id="Path_5166" class="st1" d="M316.5,368.2c1.3,0.7,2.5,1.5,3.8,2.2c1.9,0.9,3.9,1.5,6,1.6c2.2,0.1,4.3,0.5,6.5,0.7
		c5.4,0.5,10.2-0.9,14-5c1.6-1.7,2.7-3.7,3.2-5.9c0.5-2.2,0.9-4.4,1-6.7c0.1-0.8,0.4-1.5,0.4-2.3c0.2-2.1,0.4-4.1,0.6-6.2
		c0.1-0.5,0.1-0.9,0.2-1.4c0.1-0.3,0.2-0.7,0.2-1c0.2-2.1,0.4-4.1,0.6-6.2c0.1-0.7,0.3-1.4,0.4-2c0.2-2.1,0.5-4.1,0.7-6.2
		c0-0.4,0.1-0.9,0.2-1.3c0.1-1,0.3-2,0.4-3c0-0.3,0-0.5,0.1-0.8c0.3-1.8,0.6-3.7,0.7-5.5c-0.1-1.7-0.2-3.4-0.5-5
		c-0.1-0.3-0.1-0.6-0.1-0.9c0.8,0.9,1.3,2.1,1.6,3.3c0.5,2.1,0.6,4.2,0.2,6.4c-0.7,5-1.3,9.9-1.9,14.9c-0.5,3.5-0.9,7-1.4,10.5
		s-0.9,7-1.3,10.5c-0.3,2.7-0.7,5.4-2.1,7.9c-2.2,4-6.2,6.8-10.7,7.6c-2.2,0.4-4.5,0.5-6.8,0.1c-2.2-0.3-4.4-0.4-6.5-0.8
		c-3.6-0.5-6.9-2.2-9.4-4.8c-0.1-0.1-0.2-0.3-0.3-0.4L316.5,368.2z"/>
	<path id="Path_5167" class="st1" d="M126.2,312.4c0.7-0.3,1,0.1,1,0.6c0.3,2,0.7,3.9,1,5.9c0.9,5.2,1.8,10.4,2.6,15.6
		c0.8,4.9,1.6,9.8,2.4,14.7c0.7,3.9,1.3,7.7,2,11.6c0.2,1.4,0.4,2.8,0.7,4.1c0.2,0.7,0,1.5-0.5,2.1c-3.5,4.9-7,9.9-10.5,14.8
		c-0.2,0.3-0.5,0.6-0.8,1c-0.4-0.2-0.7-0.4-1.1-0.6c-2.6-1.7-5.1-3.3-7.7-5c-0.3-0.2-0.7-0.4-1.4-0.8c0.2,1.3,0.4,2.2,0.6,3.2
		c0.5,2.3,0.5,2.3-1.7,3.2c-3.4,1.4-6.7,2.8-10.1,4.3c-0.3,0.1-0.6,0.2-1,0.3l-0.5-2l12.5-5.3l-1.1-5.5c3.6,2,6.8,4.3,10.1,6.4
		c0.4-0.5,0.8-0.9,1.1-1.4c3.4-4.9,6.9-9.8,10.3-14.6c0.4-0.6,0.6-1.3,0.4-1.9c-0.4-1.9-0.6-3.8-1-5.8c-0.3-1.6-0.6-3.2-0.9-4.7
		c-0.2-1.2-0.4-2.5-0.6-3.7c-0.4-2.7-0.9-5.5-1.3-8.2c-0.5-2.7-1-5.4-1.4-8.1c-0.3-1.5-0.5-3.1-0.7-4.6c-0.2-1.2-0.4-2.3-0.6-3.5
		c-0.5-2.7-1-5.4-1.4-8.1C126.5,315.1,126.4,313.8,126.2,312.4z"/>
	<path id="Path_5168" class="st1" d="M380.3,378.4L380.3,378.4l13,2.3l-2.1-26.9c-0.1-0.3,0-0.6,0.1-0.9c0.2-0.3,0.4-0.5,0.7-0.6
		l4.4-2.3c1.3-0.5,2.3-1.7,2.4-3.1c1-4.2,2-8.3,2.7-12.5c0.4-2.1,0.6-4.3,0.8-6.4c0.2-2.1-0.1-4.4,0.2-6.4c2.7,3.6,1.3,9.8,0.4,13.8
		l-2.6,13c-0.1,0.8-0.4,1.6-0.9,2.3c-0.5,0.5-1,0.8-1.6,1.1l-4,2c-0.4,0.2-0.8,0.5-1.1,0.8c-0.3,0.5-0.4,1.1-0.2,1.7l2,26.1
		l-12.5-2.1c-0.5,0-1.1-0.2-1.5-0.5C380.1,379.5,380,378.9,380.3,378.4z"/>
	<path id="Path_5169" class="st1" d="M399.7,383.2l0.3-1.3c2.3,0.5,4.4,1,6.6,1.5c2.1,0.4,4.2,0.8,6.3,1.3c1.2,0.3,2.4,0.6,3.7,0.9
		c3.5,0.8,7,1.5,10.6,0.7c3.6-0.7,6.9-2.7,9.1-5.7c1.3-1.7,2.1-3.6,2.6-5.6c0.4-2.1,1-4.1,1.6-6.1c0.4-1.5,0.8-3.1,1.2-4.6
		c0.1-0.3,0.3-0.6,0.5-0.9c1.2,0.7,1.4,1,1.1,2.1c-0.8,3.2-1.6,6.3-2.5,9.5c-0.4,1.7-1,3.4-1.7,5.1c-3.1,6.4-9.9,9.3-16.5,8.3
		c-2.7-0.4-5.4-1.1-8.1-1.6c-3-0.6-6.1-1.3-9.1-2c-1.6-0.4-3.2-0.7-4.9-1.1C400.2,383.5,400,383.4,399.7,383.2z"/>
	<path id="Path_5170" class="st1" d="M177.7,305.5c0.9,0,0.9,0.5,1,1.1c0.2,2.1,0.4,4.2,0.6,6.4c0.5,4.8,1,9.6,1.5,14.4
		c0.4,4.5,0.9,8.9,1.3,13.4c0.5,4.6,0.9,9.1,1.4,13.6c0.5,4.6,0.9,9.3,1.4,13.9c0.1,1.1,0.2,2.2,0.4,3.2c0.2,1.4,0.1,1.4-1.2,1.5
		c-3.7,0.4-7.5,0.8-11.2,1.2c-1.6,0.2-1.8,0-1.6-1.7c1.4-0.2,2.8-0.5,4.2-0.7c2.3-0.2,4.6-0.4,6.9-0.6c0.3,0,0.6,0,0.9-0.1
		c0.4,0,0.8-0.4,0.8-0.8c0-0.1,0-0.1,0-0.2c-0.2-2.2-0.5-4.3-0.7-6.5c-0.3-2.6-0.5-5.1-0.7-7.7c-0.3-2.8-0.6-5.7-0.9-8.6
		c-0.1-0.6-0.1-1.2-0.2-1.8c0-0.5,0-1-0.1-1.6c-0.3-2.7-0.7-5.4-1-8c-0.2-2.4-0.4-4.8-0.6-7.2c-0.1-1-0.2-2.1-0.4-3.1
		c-0.1-0.7-0.1-1.4-0.2-2.1c-0.1-1.1-0.2-2.2-0.3-3.4c-0.1-0.8-0.2-1.6-0.2-2.5c-0.1-1-0.2-2-0.3-3c-0.3-2.9-0.5-5.8-0.8-8.7
		C177.6,306.1,177.6,305.8,177.7,305.5z"/>
	<path id="Path_5171" class="st1" d="M273.1,309.5c0.8,1.1,1.4,2.4,1.6,3.7c0.3,1.5,0.4,3.1,0.4,4.7c-0.1,5.9-0.3,11.8-0.4,17.8
		c0.1,1-0.4,1.9-1.2,2.4c-1.6,1.2-3.1,2.5-4.7,3.7c-0.6,0.4-0.9,1.2-0.7,1.9c1.2,4.6,2.4,9.2,3.6,13.8c1,3.8,1.9,7.7,2.8,11.5
		c0,0.2,0,0.3,0,0.5c-0.3,0.1-0.5,0.1-0.8,0.2c-4.1,0-8.2-0.1-12.3-0.2c-1.4,0-1.6-0.3-1.6-1.9c0.4,0,0.7-0.1,1.1-0.1
		c3.6,0.1,7.2,0.2,10.7,0.3c0.1,0,0.3,0,0.4,0c1.2,0,1.3-0.1,1-1.3c-0.9-3.7-1.8-7.4-2.7-11.1c-0.6-2.5-1.2-5.1-1.9-7.6
		c-0.4-1.8-0.9-3.5-1.4-5.3c-0.1-0.4-0.1-0.8-0.2-1.1c-0.2-0.5,0-1.2,0.5-1.4c1.6-1.3,3.3-2.6,4.9-3.9c0.7-0.5,1.2-1.3,1.1-2.2
		c0-4.8,0.1-9.7,0.1-14.5c0-1,0.1-1.9,0.1-2.9c0.2-2.2,0-4.4-0.6-6.4C273,310,273,309.7,273.1,309.5z"/>
	<path id="Path_5172" class="st1" d="M225.5,310.8c1.3,1.7,2,3.8,2,5.9c0.2,5,0.4,10.1,0.6,15.1c0.1,1.5,0.1,3,0.2,4.4
		c0.1,0.8-0.2,1.7-0.9,2.2c-1.5,1.3-3,2.7-4.5,4c-0.7,0.5-1,1.4-0.6,2.1c2.4,7.2,4.6,14.5,6.9,21.8c0.3,0.9,0.6,1.7,0.9,2.6
		c0.2,0.8,0,1.1-0.8,1.1c-1.2,0.1-2.4,0.1-3.5,0.2c-2.9,0.1-5.8,0.3-8.6,0.4c-1.4,0.1-1.7-0.2-1.7-1.9c4.5-0.3,9-0.1,13.6-0.8
		c-0.2-0.8-0.4-1.6-0.6-2.3c-1.2-3.8-2.4-7.6-3.6-11.4c-1-3.1-2-6.3-3-9.4c-0.3-0.8-0.6-1.6-0.9-2.5c-0.3-0.6-0.1-1.3,0.5-1.7
		c1.7-1.4,3.3-2.9,4.9-4.3c0.4-0.3,0.7-0.8,0.6-1.4c-0.1-3.3-0.2-6.5-0.3-9.8c-0.1-3.4-0.2-6.7-0.4-10c-0.2-1.3-0.4-2.6-0.7-4
		L225.5,310.8z"/>
	<path id="Path_5173" class="st1" d="M279.9,368.1c0.2,0,0.4-0.1,0.6-0.1c3.5,0.1,7.1,0.2,10.6,0.4c0.4,0,0.8,0.1,1.2,0.1
		c3.9,0.2,7.8,0.5,11.8,0.7c1.3,0.1,1.3,0,1.4-1.2c0.1-1.5,0.2-3,0.2-4.4c0-0.6,0-1.1,0.1-1.7c0-0.3,0.3-0.6,0.6-0.6
		c0,0,0.1,0,0.1,0c0.4,0,0.8,0.2,0.8,0.7c0,0.3,0,0.5,0,0.8c-0.2,2.3-0.3,4.6-0.5,6.9c-0.1,1.3-0.2,1.4-1.5,1.3
		c-5.7-0.3-11.4-0.6-17.1-0.9c-2.2-0.1-4.4-0.2-6.5-0.3C280.2,369.7,280.1,369.6,279.9,368.1z"/>
	<path id="Path_5174" class="st2" d="M273.6,246c-0.4-0.8,0.1-1.2,0.4-1.6c2.1-2.7,4.3-5.4,6.3-8.1c3.2-4.4,5.9-9.1,8.2-14.1
		c2.1-4.5,3.9-9.2,5.4-14c0.7-2.4,1.3-4.9,2-7.4l0.6-0.1l-0.2-3.7l0.3,0c0.1,0.2,0.1,0.4,0.1,0.6c-0.1,1.9,0.1,3.7,0.5,5.6
		c0.3,1.5,0.4,3,0.6,4.5c0.2,1.5,0.5,3.1,0.7,4.6c0.2,1.3,0.4,2.7,0.6,4c0.2,1.4-0.4,2.6-0.9,3.8c-1.9,4.8-4.7,9.3-8.2,13.1
		c-3.2,3.6-6.7,6.7-10.7,9.4c-1.5,1-3,1.9-4.5,2.9C274.4,245.6,274,245.8,273.6,246z"/>
	<path id="Path_5175" class="st2" d="M218,151c1.6-0.5,3.2-0.9,4.8-1.4c5.1-1.6,10-3.6,14.8-5.9c5.3-2.6,10.4-5.5,15.3-8.7
		c1.1-0.7,2.2-1.3,3.3-2c12.2,7.8,24.7,14.8,38.9,18.4c-1.5,0.1-3,0.1-4.5-0.3c-5.8-1-11.5-2.6-17-4.7c-5.7-2.1-11.3-4.6-16.7-7.6
		c-0.5-0.3-0.9-0.5-1.6-0.2c-3.2,1.9-6.5,3.5-9.9,4.9c-5,2.2-10.2,4-15.6,5.4c-3.4,0.8-6.9,1.5-10.4,2.2c-0.5,0.1-1,0.1-1.6,0.1V151
		z"/>
	<path id="Path_5176" class="st2" d="M219.1,180.9c0.6-0.4,0.6,0.2,0.9,0.5c1.2,1.4,2.4,2.9,3.7,4.2c3.8,3.8,8.3,6.7,13.3,8.5
		c0.9,0.3,1.7,1.1,2.1,2c1,2.2,1.6,4.5,1.8,6.9c0.2,2.4,0.5,4.8,0.7,7.1c0.2,2.1,0.3,4.3,0.4,6.4c0,0.2-0.1,0.4-0.1,0.6
		c-0.2-0.5-0.4-0.8-0.5-1.1c-1.8-4.6-3.6-9.2-5.4-13.9c-0.5-1.4-1.5-2.6-2.7-3.4c-4.5-3-8.3-6.9-11.4-11.4c-1.2-1.9-2.2-3.9-2.9-6
		c0-0.1,0-0.3,0-0.4L219.1,180.9z"/>
	<path id="Path_5177" class="st2" d="M257.9,173.6c0.2,0.3,0.4,0.7,0.6,1c0.3,0.7,0.5,1.5,0.8,2.2c0.5,1.1,0.7,2.2,0.8,3.4
		c0.1,2,0.4,4,0.6,5.9c0.2,2.3,0.4,4.7,0.7,7c0.1,0.6,0.2,1.3,0.2,1.9c0.1,0.8,0.2,1.5,0.3,2.3c0.1,1.2,0.2,2.5,0.4,3.8
		c0.1,1.1,0.2,2.2,0.3,3.2c0.1,0.7-0.1,1.3-0.7,1.7c-1.3,1.1-2.6,2.2-3.8,3.4c-0.1,0.1-0.3,0.1-0.5,0.1v-36.8l0.3,0
		C257.8,173,257.9,173.3,257.9,173.6c0,0.5-0.1,0.9-0.1,1.4C258.4,174.5,257.8,174,257.9,173.6z"/>
	<path id="Path_5178" class="st2" d="M240.1,174.1c-1.1-0.1-2.1-0.5-3-1.1c-5-2.3-9.9-4.6-14.9-7c-0.4-0.2-0.8-0.4-1.4-0.7l1.4-3.1
		c0.6,0.3,1.1,0.6,1.5,0.9c4.8,3,9.6,6.1,14.4,9.1c0.4,0.2,0.8,0.6,1.1,0.9L240.1,174.1z"/>
	<path id="Path_5179" class="st2" d="M217.3,226.8c-0.1-0.1-0.3-0.3-0.4-0.5c-1.5-2.7-3-5.3-4.4-8c-0.4-0.7-0.5-1.6,0-2.3
		c0.8-1.6,1.3-3.4,1.3-5.2c0-0.5,0.2-1,0.5-1.4c0.2,1.5,0.3,3.1,0.5,4.6c0.4,4.1,1.2,8.1,2.6,11.9c0.1,0.2,0.1,0.5,0.2,0.7
		L217.3,226.8z"/>
	<path id="Path_5180" class="st2" d="M270.8,174.3c0.2-0.3,0.4-0.6,0.7-0.9c1.7-1.1,3.4-2.2,5-3.2c0.1,0,0.2,0,0.2,0
		c0.4,1.4,0.5,1.4-0.7,2c-1.6,0.8-3.3,1.6-5,2.4L270.8,174.3z"/>
	<path id="Path_5181" class="st2" d="M243,175.8c1-0.1,1.5,0.1,2.7,1.3L243,175.8z"/>
	<path id="Path_5182" class="st2" d="M268.2,175.8l-2.4,1.4l-0.1-0.3c0.6-0.4,1.1-0.7,1.7-1C267.6,175.8,267.9,175.9,268.2,175.8
		L268.2,175.8z"/>
	<path id="Path_5183" class="st2" d="M219.1,180.9L219,181l-0.7-1.8C219,179.5,219.4,180.2,219.1,180.9
		C219.1,180.9,219.1,180.9,219.1,180.9z"/>
	<path id="Path_5184" class="st2" d="M240.1,174.1l-0.8-1c0.4,0.2,0.8,0.4,1.1,0.6c0.1,0.1,0.1,0.4,0.2,0.7L240.1,174.1z"/>
	<path id="Path_5185" class="st2" d="M268.2,175.9c0-0.6,0.3-0.8,0.9-0.4L268.2,175.9L268.2,175.9z"/>
	<path id="Path_5186" class="st2" d="M271.9,246.7l0.7-0.4l0.1,0.2L272,247L271.9,246.7z"/>
	<path id="Path_5187" class="st2" d="M296.2,199.1c0,0.2,0.1,0.3,0.1,0.5c0,0.2-0.1,0.4-0.2,0.5v-0.9L296.2,199.1z"/>
	<path id="Path_5188" class="st2" d="M252.4,86.5v22.7c-0.5,0.2-0.7-0.1-0.8-0.5c-0.1-0.5-0.1-1-0.1-1.4c-0.2-4.4-0.4-8.8-0.5-13.2
		c-0.1-1.6,0-3.1-0.1-4.7C250.7,88.1,251.4,87.4,252.4,86.5z"/>
	<path id="Path_5189" class="st2" d="M259.9,86.8c0.9,0.6,1.4,1.7,1.3,2.8c-0.2,5.9-0.3,11.8-0.4,17.7c0,0.4-0.1,0.9-0.2,1.3
		c0,0.2-0.3,0.2-0.6,0.4C259.7,107.6,259.6,88.5,259.9,86.8z"/>
	<path id="Path_5190" class="st2" d="M294.4,139.5c-3.6-4.4-7.7-8.4-12.2-11.9c-4.3-3.4-9.1-6.2-14.3-8.1c-0.5-0.2-1-0.4-1.6-0.7
		l0.9-4.6c0.8,0.4,1.5,0.6,2.2,0.9c3.8,1.9,7.5,4.2,11,6.8c3.4,2.6,6.6,5.6,9.3,8.9c2.2,2.6,4.1,5.6,5.5,8.7l-0.9-0.7V139.5z"/>
	<path id="Path_5191" class="st2" d="M294.4,139.5v-0.6l0.9,0.7C295,140.5,294.7,139.6,294.4,139.5z"/>
	<path id="Path_5192" class="st2" d="M296.3,142l-0.5-0.7l0.2-0.2l0.4,0.7L296.3,142z"/>
	<path id="Path_5193" class="st2" d="M257.9,173.6c-0.1,0.5,0.5,0.9-0.1,1.4C257.8,174.5,257.8,174,257.9,173.6L257.9,173.6z"/>
	<line id="Line_2" class="st4" x1="87.1" y1="368.8" x2="87" y2="369.1"/>
	<line id="Line_3" class="st4" x1="98" y1="377.8" x2="97.7" y2="376.4"/>
	<path id="Path_5194" class="st4" d="M113.1,358.3l-2.8-2l0,0"/>
	<path id="Path_5195" class="st4" d="M108.3,354.9L108.3,354.9l-0.4-0.2"/>
	<path id="Path_5196" class="st1" d="M155,340.5l-1.5,0.2l0,0c0.1-0.1,0.1-0.2,0.1-0.4c-0.6-6.1-2.1-12-2.2-18.1
		c-0.1-1,0.1-2,0.6-2.8c0.5-0.5,1.1-0.9,1.7-1.1c2.7-1,5.6-1,8.4-1.8l0.2,2.2c-2.7,0-5.3,0.5-7.8,1.6c-1.1,0.5-1.8,1.5-1.9,2.7
		c-0.1,0.9-0.1,1.9-0.1,2.9c0.1,1.7,0.4,3.5,0.6,5.2c0.4,2.9,0.8,5.8,1.2,8.7C154.5,340.2,154.6,340.5,155,340.5z"/>
	<line id="Line_4" class="st4" x1="162.1" y1="316.5" x2="162" y2="315.9"/>
	<line id="Line_5" class="st4" x1="162.6" y1="321.5" x2="162.3" y2="318.7"/>
	<path id="Path_5197" class="st4" d="M155.7,340.5l-0.7,0.1h0"/>
	<line id="Line_6" class="st4" x1="153.4" y1="340.7" x2="153.2" y2="340.7"/>
	<line id="Line_7" class="st4" x1="167.1" y1="357" x2="166.7" y2="354.3"/>
	<line id="Line_8" class="st4" x1="166.4" y1="352" x2="166.3" y2="351.2"/>
	<path id="Path_5198" class="st3" d="M207.7,350.5l0.1,0.2L207.7,350.5z"/>
	<path id="Path_5199" class="st3" d="M208.1,351.6l0.3,0.8L208.1,351.6z"/>
	<line id="Line_9" class="st4" x1="202.8" y1="337.4" x2="202.3" y2="337.8"/>
	<path id="Path_5200" class="st4" d="M204.2,336.3L204.2,336.3l1.1-0.8"/>
	<path id="Path_5201" class="st1" d="M210.9,315.2c-0.3-0.2-0.6-0.4-1-0.4c-2.2-0.3-4.5-0.3-6.8,0c-0.5,0-0.7,0.4-0.6,0.8
		c0,0.2,0,0.4,0,0.6c0.4,6.3,0.9,12.6,1.3,18.9c0,0.4,0.1,0.7,0.2,1.2l0.2-0.1l-1.4,1.1c0-0.2,0.1-0.3,0-0.5c-0.1-2-0.3-4.1-0.4-6.1
		l-1.2-16.8c-0.1-1,0.1-1.1,1.1-1.2c1.1-0.1,2.3-0.1,3.4-0.1c1.4,0,2.9-0.2,4.2,0.6c0.1,0,0.2,0,0.4,0L210.9,315.2z"/>
	<line id="Line_10" class="st4" x1="211.1" y1="315.6" x2="210.9" y2="315.2"/>
	<line id="Line_11" class="st4" x1="210.2" y1="313.3" x2="210.2" y2="313.1"/>
	<path id="Path_5202" class="st4" d="M254.5,354.7l-0.5-2.1l0,0"/>
	<line id="Line_12" class="st4" x1="253.4" y1="350" x2="253.1" y2="348.8"/>
	<path id="Path_5203" class="st1" d="M258.3,313.7c-0.2-0.3-0.5-0.4-1.1-0.4c-2.1-0.2-4.2-0.3-6.2-0.4c-0.4-0.1-0.8,0.2-0.9,0.6
		c0,0.1,0,0.1,0,0.2c0,0.3,0,0.7,0,1c0.1,6.2,0.1,12.4,0.2,18.5c0,0.4,0.1,0.8,0.1,1.2l-1.5,1.1c0.2-0.4,0.3-0.8,0.2-1.2
		c-0.1-7.4-0.3-14.8-0.4-22.2c0-0.3,0-0.6,0-1.1c3,0.1,6-0.6,9.1,1L258.3,313.7z"/>
	<path id="Path_5204" class="st4" d="M258.5,314.2L258.5,314.2l-0.2-0.5"/>
	<line id="Line_13" class="st4" x1="257.7" y1="312.1" x2="257.6" y2="311.7"/>
	<path id="Path_5205" class="st4" d="M251.7,333.5l-1.3,1h0"/>
	<line id="Line_14" class="st4" x1="248.8" y1="335.6" x2="248.7" y2="335.7"/>
	<line id="Line_15" class="st4" x1="285" y1="311.4" x2="284.8" y2="314.2"/>
	<path id="Path_5206" class="st4" d="M285.2,309l0.1-0.7v0"/>
	<line id="Line_16" class="st4" x1="305.4" y1="357.4" x2="300.6" y2="357.4"/>
	<line id="Line_17" class="st4" x1="298.5" y1="357.4" x2="298.4" y2="357.4"/>
	<line id="Line_18" class="st4" x1="328" y1="358.9" x2="327.6" y2="358.6"/>
	<line id="Line_19" class="st4" x1="326.1" y1="357.8" x2="326" y2="357.7"/>
	<path id="Path_5207" class="st1" d="M339,316.5c-0.3-0.3-0.7-0.4-1.1-0.4c-1.2-0.1-2.3-0.2-3.5-0.1c-1.2,0-2.3,0.8-2.7,2
		c-0.5,1.2-0.8,2.5-0.9,3.8c-0.5,4-0.9,8-1.3,11.9c-0.5,4.8-1,9.5-1.4,14.3c-0.2,2.6-0.4,5.2-0.7,7.8c0,0.7,0,1.4,0,2.1
		c0,0.3,0.1,0.6,0.3,0.8l-1.5-0.9c0-0.2,0.1-0.4,0.1-0.7c-0.4-4.2,0.5-8.3,0.5-12.5c0-0.3,0.1-0.6,0.2-0.9c0.1-1.1,0.2-2.2,0.3-3.4
		c0.1-0.8,0.2-1.6,0.2-2.5c0.1-1.3,0.2-2.5,0.3-3.8c0.1-0.7,0.1-1.3,0.2-2l0.4-4c0.1-0.7,0.1-1.4,0.2-2.1c0.3-2.2,0.6-4.5,0.9-6.7
		c0-0.1,0-0.3,0-0.4c0.1-1.3,0.5-2.5,1.2-3.5c0.3-0.4,0.7-0.8,1.2-1c1.2-0.6,2.6-0.7,4-0.3c0.5,0.2,1,0.1,1.5,0.3
		c0.4,0.2,0.8,0.4,1.2,0.6h0L339,316.5z"/>
	<line id="Line_20" class="st4" x1="339.1" y1="317" x2="339" y2="316.5"/>
	<line id="Line_21" class="st4" x1="338.6" y1="315" x2="338.5" y2="314.6"/>
	<path id="Path_5208" class="st1" d="M387,324.2c-0.2-0.2-0.4-0.3-0.7-0.3c-1.8-0.4-3.6-0.8-5.4-1.1c-1-0.2-1.3,0-1.4,1
		c-0.2,1.2-0.4,2.5-0.6,3.7c-0.7,4.3-1.4,8.7-2.1,13c-0.2,1.1-0.3,2.2-0.5,3.5l-1.9,0.8c0.1-0.3,0.2-0.5,0.3-0.8
		c0.2-1.5,0.5-3,0.7-4.5c0.2-1.7,0.4-3.3,0.7-5c0.2-1.2,0.4-2.5,0.6-3.7c0.3-1.7,0.7-3.4,0.9-5.1c0.3-1.5,0.4-3.1,0.7-4.6
		c0-0.1,0.1-0.1,0.2-0.2c2.8,0.2,5.6,0.9,8.2,2.1L387,324.2z"/>
	<line id="Line_22" class="st4" x1="387.2" y1="325.2" x2="387" y2="324.2"/>
	<line id="Line_23" class="st4" x1="386.8" y1="322.8" x2="386.8" y2="322.5"/>
	<path id="Path_5209" class="st4" d="M378.9,342.9L378.9,342.9l-2.5,1.1"/>
	<line id="Line_24" class="st4" x1="374.5" y1="344.8" x2="374" y2="345"/>
	<line id="Line_25" class="st4" x1="376.5" y1="363.2" x2="376.4" y2="362.6"/>
	<line id="Line_26" class="st4" x1="376.1" y1="359.9" x2="376.1" y2="359.3"/>
	<line id="Line_27" class="st4" x1="416.3" y1="372.2" x2="415.3" y2="372"/>
	<line id="Line_28" class="st4" x1="413.1" y1="371.6" x2="412.7" y2="371.5"/>
	<line id="Line_29" class="st4" x1="433" y1="333.2" x2="432.9" y2="333.8"/>
	<line id="Line_30" class="st4" x1="433.5" y1="330.9" x2="433.4" y2="331.4"/>
	<path id="Path_5210" class="st4" d="M425,342.9l-2.4-2.1v0"/>
	<line id="Line_31" class="st4" x1="420.7" y1="339" x2="420.7" y2="339"/>
</g>
</svg>
