<svg width="32" height="25" viewBox="0 0 32 25" fill="none" xmlns="http://www.w3.org/2000/svg">
<g clip-path="url(#clip0_8197_112100)">
<path d="M10.6904 21.7461C15.49 21.7461 19.3809 17.7167 19.3809 12.7461C19.3809 7.77553 15.49 3.74609 10.6904 3.74609C5.89084 3.74609 2 7.77553 2 12.7461C2 17.7167 5.89084 21.7461 10.6904 21.7461Z" fill="#E8DFCE"/>
<path d="M21.3629 21.7461C26.1327 21.7461 29.9993 17.7167 29.9993 12.7461C29.9993 7.77553 26.1327 3.74609 21.3629 3.74609C16.5932 3.74609 12.7266 7.77553 12.7266 12.7461C12.7266 17.7167 16.5932 21.7461 21.3629 21.7461Z" fill="#E8DFCE"/>
<path d="M12.7266 12.7478C12.7244 14.1025 13.0174 15.4402 13.5838 16.6613C14.1502 17.8824 14.9754 18.9554 15.9978 19.8003C17.0186 18.9538 17.8426 17.8805 18.4088 16.6598C18.975 15.4391 19.269 14.1021 19.269 12.7478C19.269 11.3935 18.975 10.0566 18.4088 8.83583C17.8426 7.61509 17.0186 6.54178 15.9978 5.69531C14.9754 6.54028 14.1502 7.61328 13.5839 8.83436C13.0175 10.0555 12.7244 11.3932 12.7266 12.7478V12.7478Z" fill="#21201E"/>
</g>
<defs>
<clipPath id="clip0_8197_112100">
<rect width="32" height="24" fill="white" transform="translate(0 0.746094)"/>
</clipPath>
</defs>
</svg>
