<svg width="24" height="25" viewBox="0 0 24 25" fill="none" xmlns="http://www.w3.org/2000/svg">
<path d="M8.64 22.6406H5.01C3.15 22.6406 2.25 21.7806 2.25 20.0006V5.78062C2.25 4.00062 3.15 3.14062 5.01 3.14062H8.64C10.5 3.14062 11.4 4.00062 11.4 5.78062V20.0006C11.4 21.7806 10.5 22.6406 8.64 22.6406ZM5.01 4.64062C3.93 4.64062 3.75 4.91062 3.75 5.78062V20.0006C3.75 20.8706 3.92 21.1406 5.01 21.1406H8.64C9.72 21.1406 9.9 20.8706 9.9 20.0006V5.78062C9.9 4.91062 9.73 4.64062 8.64 4.64062H5.01Z" fill="#6B4E46"/>
<path d="M18.99 22.6406H15.36C13.5 22.6406 12.6 21.7806 12.6 20.0006V5.78062C12.6 4.00062 13.5 3.14062 15.36 3.14062H18.99C20.85 3.14062 21.75 4.00062 21.75 5.78062V20.0006C21.75 21.7806 20.85 22.6406 18.99 22.6406ZM15.36 4.64062C14.28 4.64062 14.1 4.91062 14.1 5.78062V20.0006C14.1 20.8706 14.27 21.1406 15.36 21.1406H18.99C20.07 21.1406 20.25 20.8706 20.25 20.0006V5.78062C20.25 4.91062 20.08 4.64062 18.99 4.64062H15.36Z" fill="#6B4E46"/>
</svg>
