<svg width="32" height="25" viewBox="0 0 32 25" fill="none" xmlns="http://www.w3.org/2000/svg">
<g clip-path="url(#clip0_8197_112105)">
<rect y="0.746094" width="32" height="24" rx="4" fill="#E8DFCE"/>
<path d="M7.11613 8.29319C6.78797 8.69852 6.26291 9.01822 5.73785 8.97254C5.67221 8.4245 5.92927 7.84219 6.23009 7.48254C6.55825 7.06579 7.13254 6.76893 7.59743 6.74609C7.65213 7.31698 7.43882 7.87645 7.11613 8.29319ZM7.59196 9.08101C6.83172 9.03534 6.18086 9.53201 5.81989 9.53201C5.45344 9.53201 4.90103 9.10385 4.2994 9.11527C3.51728 9.12668 2.78985 9.5891 2.39059 10.3255C1.57018 11.7984 2.17728 13.9792 2.97034 15.1781C3.35867 15.7718 3.82356 16.4226 4.43613 16.3998C5.01589 16.3769 5.2456 16.0058 5.94568 16.0058C6.65123 16.0058 6.8536 16.3998 7.46617 16.3883C8.10062 16.3769 8.49988 15.7946 8.88821 15.2009C9.33122 14.5273 9.51171 13.8707 9.52265 13.8365C9.51171 13.8251 8.29751 13.3398 8.28657 11.8783C8.27564 10.6567 9.24372 10.0744 9.28747 10.0401C8.74053 9.19519 7.88731 9.10385 7.59196 9.08101ZM11.9839 7.42545V16.3255H13.3075V13.2827H15.1397C16.8133 13.2827 17.9892 12.0839 17.9892 10.3484C17.9892 8.61289 16.8352 7.42545 15.1835 7.42545H11.9839V7.42545ZM13.3075 8.59005H14.8334C15.982 8.59005 16.6383 9.22944 16.6383 10.3541C16.6383 11.4787 15.982 12.1238 14.8279 12.1238H13.3075V8.59005V8.59005ZM20.4067 16.394C21.2381 16.394 22.0092 15.9545 22.3593 15.258H22.3866V16.3255H23.6118V11.8955C23.6118 10.611 22.6273 9.7832 21.1123 9.7832C19.7066 9.7832 18.6674 10.6224 18.6292 11.7756H19.8215C19.9199 11.2275 20.4067 10.8679 21.074 10.8679C21.8834 10.8679 22.3374 11.2618 22.3374 11.9868V12.4778L20.6856 12.5805C19.1488 12.6776 18.3174 13.3341 18.3174 14.4759C18.3174 15.6291 19.1761 16.394 20.4067 16.394ZM20.7622 15.3379C20.0567 15.3379 19.6082 14.984 19.6082 14.4416C19.6082 13.8822 20.0403 13.5568 20.8661 13.5054L22.3374 13.4083V13.9107C22.3374 14.7442 21.6592 15.3379 20.7622 15.3379ZM25.2471 18.7461C26.5379 18.7461 27.145 18.2323 27.6755 16.6738L30 9.86883H28.6545L27.0958 15.1267H27.0684L25.5096 9.86883H24.1259L26.3683 16.3484L26.248 16.7423C26.0456 17.4102 25.7175 17.6671 25.1323 17.6671C25.0283 17.6671 24.826 17.6557 24.7439 17.6443V18.7118C24.8205 18.7347 25.1487 18.7461 25.2471 18.7461Z" fill="#21201E"/>
</g>
<defs>
<clipPath id="clip0_8197_112105">
<rect width="32" height="24" fill="white" transform="translate(0 0.746094)"/>
</clipPath>
</defs>
</svg>
