<svg width="24" height="25" viewBox="0 0 24 25" fill="none" xmlns="http://www.w3.org/2000/svg">
<path d="M9.17 16.4706C8.98 16.4706 8.79 16.4006 8.64 16.2506C8.35 15.9606 8.35 15.4806 8.64 15.1906L14.3 9.53063C14.59 9.24063 15.07 9.24063 15.36 9.53063C15.65 9.82063 15.65 10.3006 15.36 10.5906L9.7 16.2506C9.56 16.4006 9.36 16.4706 9.17 16.4706Z" fill="#6B4E46"/>
<path d="M14.83 16.4706C14.64 16.4706 14.45 16.4006 14.3 16.2506L8.64 10.5906C8.35 10.3006 8.35 9.82063 8.64 9.53063C8.93 9.24063 9.41 9.24063 9.7 9.53063L15.36 15.1906C15.65 15.4806 15.65 15.9606 15.36 16.2506C15.21 16.4006 15.02 16.4706 14.83 16.4706Z" fill="#6B4E46"/>
<path d="M15 23.6406H9C3.57 23.6406 1.25 21.3206 1.25 15.8906V9.89062C1.25 4.46063 3.57 2.14062 9 2.14062H15C20.43 2.14062 22.75 4.46063 22.75 9.89062V15.8906C22.75 21.3206 20.43 23.6406 15 23.6406ZM9 3.64062C4.39 3.64062 2.75 5.28062 2.75 9.89062V15.8906C2.75 20.5006 4.39 22.1406 9 22.1406H15C19.61 22.1406 21.25 20.5006 21.25 15.8906V9.89062C21.25 5.28062 19.61 3.64062 15 3.64062H9Z" fill="#6B4E46"/>
</svg>
