<svg width="33" height="33" viewBox="0 0 33 33" fill="none" xmlns="http://www.w3.org/2000/svg">
<path opacity="0.2" d="M28.9316 16.1719C28.9316 18.5453 28.2279 20.8653 26.9093 22.8387C25.5907 24.8121 23.7166 26.3502 21.5238 27.2584C19.3311 28.1667 16.9183 28.4043 14.5906 27.9413C12.2628 27.4783 10.1246 26.3354 8.44636 24.6572C6.76813 22.9789 5.62525 20.8407 5.16222 18.513C4.6992 16.1852 4.93684 13.7724 5.84509 11.5797C6.75334 9.38696 8.29141 7.51282 10.2648 6.19424C12.2382 4.87566 14.5583 4.17188 16.9316 4.17188C20.1142 4.17188 23.1665 5.43616 25.4169 7.68659C27.6674 9.93703 28.9316 12.9893 28.9316 16.1719Z" fill="#E8DFCE"/>
<path d="M16.9316 3.17188C14.3605 3.17188 11.8471 3.93431 9.70923 5.36277C7.57139 6.79123 5.90515 8.82155 4.92121 11.197C3.93727 13.5724 3.67983 16.1863 4.18144 18.708C4.68305 21.2298 5.92118 23.5462 7.73926 25.3643C9.55734 27.1823 11.8737 28.4205 14.3955 28.9221C16.9172 29.4237 19.5311 29.1662 21.9065 28.1823C24.282 27.1984 26.3123 25.5321 27.7408 23.3943C29.1692 21.2564 29.9316 18.743 29.9316 16.1719C29.928 12.7252 28.5572 9.42069 26.12 6.98351C23.6828 4.54632 20.3783 3.17551 16.9316 3.17188ZM17.9316 27.1256V19.1719H20.9316C21.1969 19.1719 21.4512 19.0665 21.6388 18.879C21.8263 18.6914 21.9316 18.4371 21.9316 18.1719C21.9316 17.9067 21.8263 17.6523 21.6388 17.4648C21.4512 17.2772 21.1969 17.1719 20.9316 17.1719H17.9316V14.1719C17.9316 13.6414 18.1424 13.1327 18.5174 12.7577C18.8925 12.3826 19.4012 12.1719 19.9316 12.1719H21.9316C22.1969 12.1719 22.4512 12.0665 22.6388 11.879C22.8263 11.6914 22.9316 11.4371 22.9316 11.1719C22.9316 10.9067 22.8263 10.6523 22.6388 10.4648C22.4512 10.2772 22.1969 10.1719 21.9316 10.1719H19.9316C18.8708 10.1719 17.8534 10.5933 17.1032 11.3434C16.3531 12.0936 15.9316 13.111 15.9316 14.1719V17.1719H12.9316C12.6664 17.1719 12.4121 17.2772 12.2245 17.4648C12.037 17.6523 11.9316 17.9067 11.9316 18.1719C11.9316 18.4371 12.037 18.6914 12.2245 18.879C12.4121 19.0665 12.6664 19.1719 12.9316 19.1719H15.9316V27.1256C13.1126 26.8683 10.5013 25.5341 8.64094 23.4006C6.78054 21.2671 5.81424 18.4985 5.94304 15.6707C6.07184 12.8429 7.28583 10.1736 9.33249 8.21801C11.3792 6.26245 14.1009 5.17117 16.9316 5.17117C19.7624 5.17117 22.4841 6.26245 24.5308 8.21801C26.5775 10.1736 27.7915 12.8429 27.9203 15.6707C28.0491 18.4985 27.0828 21.2671 25.2223 23.4006C23.3619 25.5341 20.7507 26.8683 17.9316 27.1256Z" fill="#E8DFCE"/>
</svg>
