<svg width="33" height="33" viewBox="0 0 33 33" fill="none" xmlns="http://www.w3.org/2000/svg">
<path opacity="0.2" d="M22.9316 4.17188H10.9316C9.34034 4.17188 7.81422 4.80402 6.689 5.92923C5.56378 7.05445 4.93164 8.58058 4.93164 10.1719V22.1719C4.93164 23.7632 5.56378 25.2893 6.689 26.4145C7.81422 27.5397 9.34034 28.1719 10.9316 28.1719H22.9316C24.5229 28.1719 26.0491 27.5397 27.1743 26.4145C28.2995 25.2893 28.9316 23.7632 28.9316 22.1719V10.1719C28.9316 8.58058 28.2995 7.05445 27.1743 5.92923C26.0491 4.80402 24.5229 4.17188 22.9316 4.17188ZM16.9316 21.1719C15.9427 21.1719 14.976 20.8786 14.1538 20.3292C13.3315 19.7798 12.6907 18.9989 12.3122 18.0853C11.9338 17.1717 11.8348 16.1663 12.0277 15.1964C12.2206 14.2265 12.6968 13.3356 13.3961 12.6363C14.0954 11.9371 14.9863 11.4609 15.9562 11.2679C16.9261 11.075 17.9314 11.174 18.8451 11.5525C19.7587 11.9309 20.5396 12.5718 21.089 13.394C21.6384 14.2163 21.9316 15.183 21.9316 16.1719C21.9316 17.498 21.4049 18.7697 20.4672 19.7074C19.5295 20.6451 18.2577 21.1719 16.9316 21.1719Z" fill="#21201E"/>
<path d="M22.9316 3.17188H10.9316C9.07573 3.17386 7.29641 3.912 5.98409 5.22432C4.67176 6.53664 3.93363 8.31597 3.93164 10.1719V22.1719C3.93363 24.0278 4.67176 25.8071 5.98409 27.1194C7.29641 28.4318 9.07573 29.1699 10.9316 29.1719H22.9316C24.7875 29.1699 26.5669 28.4318 27.8792 27.1194C29.1915 25.8071 29.9297 24.0278 29.9316 22.1719V10.1719C29.9297 8.31597 29.1915 6.53664 27.8792 5.22432C26.5669 3.912 24.7875 3.17386 22.9316 3.17188ZM27.9316 22.1719C27.9316 23.498 27.4049 24.7697 26.4672 25.7074C25.5295 26.6451 24.2577 27.1719 22.9316 27.1719H10.9316C9.60556 27.1719 8.33379 26.6451 7.39611 25.7074C6.45842 24.7697 5.93164 23.498 5.93164 22.1719V10.1719C5.93164 8.84579 6.45842 7.57402 7.39611 6.63634C8.33379 5.69866 9.60556 5.17188 10.9316 5.17188H22.9316C24.2577 5.17188 25.5295 5.69866 26.4672 6.63634C27.4049 7.57402 27.9316 8.84579 27.9316 10.1719V22.1719ZM16.9316 10.1719C15.745 10.1719 14.5849 10.5238 13.5982 11.1831C12.6115 11.8423 11.8425 12.7794 11.3884 13.8758C10.9342 14.9721 10.8154 16.1785 11.0469 17.3424C11.2784 18.5063 11.8499 19.5754 12.689 20.4145C13.5281 21.2536 14.5972 21.8251 15.7611 22.0566C16.925 22.2881 18.1314 22.1693 19.2277 21.7152C20.3241 21.261 21.2612 20.492 21.9205 19.5053C22.5797 18.5186 22.9316 17.3586 22.9316 16.1719C22.93 14.5811 22.2973 13.0559 21.1725 11.9311C20.0476 10.8062 18.5224 10.1735 16.9316 10.1719ZM16.9316 20.1719C16.1405 20.1719 15.3672 19.9373 14.7094 19.4978C14.0516 19.0582 13.5389 18.4335 13.2361 17.7026C12.9334 16.9717 12.8542 16.1674 13.0085 15.3915C13.1628 14.6156 13.5438 13.9029 14.1032 13.3434C14.6626 12.784 15.3754 12.4031 16.1513 12.2487C16.9272 12.0944 17.7315 12.1736 18.4624 12.4764C19.1933 12.7791 19.818 13.2918 20.2575 13.9496C20.697 14.6074 20.9316 15.3807 20.9316 16.1719C20.9316 17.2327 20.5102 18.2502 19.7601 19.0003C19.0099 19.7504 17.9925 20.1719 16.9316 20.1719ZM24.9316 9.67188C24.9316 9.96855 24.8437 10.2586 24.6788 10.5052C24.514 10.7519 24.2798 10.9442 24.0057 11.0577C23.7316 11.1712 23.43 11.2009 23.139 11.1431C22.848 11.0852 22.5808 10.9423 22.371 10.7325C22.1612 10.5228 22.0183 10.2555 21.9605 9.96451C21.9026 9.67354 21.9323 9.37194 22.0458 9.09785C22.1594 8.82376 22.3516 8.58949 22.5983 8.42467C22.845 8.25985 23.135 8.17188 23.4316 8.17188C23.8295 8.17188 24.211 8.32991 24.4923 8.61121C24.7736 8.89252 24.9316 9.27405 24.9316 9.67188Z" fill="#21201E"/>
</svg>
