<svg width="32" height="25" viewBox="0 0 32 25" fill="none" xmlns="http://www.w3.org/2000/svg">
<g clip-path="url(#clip0_8197_112091)">
<rect y="0.746094" width="32" height="24" rx="4" fill="#E8DFCE"/>
<path d="M26.3529 10.5915L24.8573 16.3035V16.3215H26.0285L27.5241 10.6095H26.3529V10.5915ZM7.86544 13.8349C7.68526 13.925 7.50507 13.961 7.30686 13.961C6.89242 13.961 6.65818 13.8889 6.62214 13.5466V13.5286C6.62214 13.5105 6.62214 13.5105 6.62214 13.4925V10.6275L5.57704 10.7536C6.27978 10.6095 6.6762 10.0689 6.6762 9.51033V9.16797H5.50496V10.7717L5.43289 10.7897V13.7448C5.46893 14.5736 6.02751 15.0782 6.91044 15.0782C7.23478 15.0782 7.57714 15.0061 7.84743 14.88L7.86544 13.8349Z" fill="#21201E"/>
<path d="M8.04507 10.3752L4.76562 10.8797V11.7086L8.04507 11.2041V10.3752ZM8.04507 11.6005L4.76562 12.105V12.8979L8.04507 12.3933V11.6005ZM11.7209 11.9789C11.6669 11.0599 11.0903 10.5014 10.1533 10.5014C9.61272 10.5014 9.16225 10.7176 8.85592 11.114C8.5496 11.5104 8.38743 12.087 8.38743 12.7898C8.38743 13.4925 8.5496 14.0691 8.85592 14.4655C9.16225 14.8619 9.61272 15.0601 10.1533 15.0601C11.0903 15.0601 11.6669 14.5196 11.7209 13.5826V14.97H12.8922V10.6095L11.7209 10.7897V11.9789ZM11.793 12.7898C11.793 13.6006 11.3606 14.1412 10.6939 14.1412C10.0091 14.1412 9.5947 13.6366 9.5947 12.7898C9.5947 11.9429 10.0091 11.4383 10.6939 11.4383C11.0182 11.4383 11.3065 11.5645 11.5047 11.8167C11.6849 12.051 11.793 12.3933 11.793 12.7898ZM16.2977 10.5014C15.3608 10.5014 14.7842 11.0419 14.7301 11.9789V9.33012L13.5589 9.51031V14.97H14.7301V13.5826C14.7842 14.5196 15.3608 15.0601 16.2977 15.0601C17.3969 15.0601 18.0636 14.2133 18.0636 12.7898C18.0636 11.3663 17.3969 10.5014 16.2977 10.5014ZM15.7752 14.1412C15.1085 14.1412 14.676 13.6186 14.676 12.7898C14.676 12.3933 14.7842 12.051 14.9643 11.8167C15.1625 11.5645 15.4328 11.4383 15.7752 11.4383C16.4599 11.4383 16.8743 11.9429 16.8743 12.7898C16.8743 13.6366 16.4599 14.1412 15.7752 14.1412ZM21.2349 10.5014C20.2979 10.5014 19.7213 11.0419 19.6673 11.9789V9.33012L18.4961 9.51031V14.97H19.6673V13.5826C19.7213 14.5196 20.2979 15.0601 21.2349 15.0601C22.3341 15.0601 23.0008 14.2133 23.0008 12.7898C23.0008 11.3663 22.3341 10.5014 21.2349 10.5014ZM20.7124 14.1412C20.0457 14.1412 19.6132 13.6186 19.6132 12.7898C19.6132 12.3933 19.7213 12.051 19.9015 11.8167C20.0997 11.5645 20.37 11.4383 20.7124 11.4383C21.3971 11.4383 21.8115 11.9429 21.8115 12.7898C21.8115 13.6366 21.3971 14.1412 20.7124 14.1412ZM23.0008 10.5914H24.2441L25.2532 14.97H24.136L23.0008 10.5914ZM28.4785 11.0419V10.6996H28.3344V10.6275H28.7128V10.6996H28.5686V11.0419H28.4785ZM28.7308 11.0419V10.6095H28.875L28.947 10.8077C28.9651 10.8617 28.9831 10.8798 28.9831 10.8978C28.9831 10.8798 29.0011 10.8617 29.0191 10.8077L29.0912 10.6095H29.2353V11.0419H29.1452V10.6996L29.0191 11.0419H28.929L28.8209 10.6996V11.0419H28.7308Z" fill="#21201E"/>
</g>
<defs>
<clipPath id="clip0_8197_112091">
<rect width="32" height="24" fill="white" transform="translate(0 0.746094)"/>
</clipPath>
</defs>
</svg>
