<svg width="32" height="25" viewBox="0 0 32 25" fill="none" xmlns="http://www.w3.org/2000/svg">
<g clip-path="url(#clip0_8197_112094)">
<rect y="0.746094" width="32" height="24" rx="4" fill="#E8DFCE"/>
<path d="M13.1126 8.88697L9.97212 16.6238H7.92042L6.37564 10.4501C6.36113 10.3055 6.31111 10.167 6.23033 10.0479C6.14955 9.92875 6.04066 9.83284 5.91397 9.76922C5.30482 9.46913 4.6619 9.2483 4 9.1118L4.04748 8.88722H7.34647C7.56221 8.88693 7.77094 8.96629 7.93493 9.11097C8.09892 9.25564 8.20736 9.45608 8.24065 9.67607L9.05668 14.1539L11.0743 8.88697H13.1116H13.1126ZM21.1446 14.0965C21.1537 12.0548 18.4084 11.9446 18.4282 11.0315C18.4336 10.7528 18.6896 10.4578 19.2499 10.3835C19.9059 10.3187 20.5666 10.4379 21.1624 10.7285L21.5027 9.08858C20.9226 8.86408 20.3084 8.7481 19.6888 8.74609C17.7722 8.74609 16.4227 9.79831 16.4114 11.3038C16.3987 12.417 17.374 13.0392 18.1097 13.409C18.8651 13.7885 19.1176 14.0307 19.1149 14.3708C19.1099 14.8902 18.5123 15.1171 17.9546 15.1273C17.2608 15.1427 16.5748 14.9743 15.962 14.638L15.6109 16.3344C16.2988 16.6092 17.0305 16.7489 17.7682 16.7461C19.8053 16.7461 21.1379 15.7051 21.1443 14.0965H21.1446ZM26.206 16.623H28L26.4347 8.8862H24.7779C24.6011 8.88475 24.428 8.93799 24.2808 9.03907C24.1336 9.14015 24.0192 9.28442 23.9522 9.45327L21.0444 16.6238H23.0801L23.4841 15.4682H25.9723L26.206 16.623ZM24.042 13.8819L25.0633 10.9769L25.6508 13.8819H24.042ZM15.8841 8.88697L14.2795 16.6238H12.3401L13.945 8.88697H15.8841Z" fill="#21201E"/>
</g>
<defs>
<clipPath id="clip0_8197_112094">
<rect width="32" height="24" fill="white" transform="translate(0 0.746094)"/>
</clipPath>
</defs>
</svg>
