<svg width="24" height="25" viewBox="0 0 24 25" fill="none" xmlns="http://www.w3.org/2000/svg">
<path fill-rule="evenodd" clip-rule="evenodd" d="M12 3.64062C6.85617 3.64062 2.75 7.78288 2.75 12.8906C2.75 13.3048 2.41421 13.6406 2 13.6406C1.58579 13.6406 1.25 13.3048 1.25 12.8906C1.25 6.95837 6.02383 2.14062 12 2.14062C15.5577 2.14062 18.2218 3.62663 19.9817 5.09471C20.4731 5.50464 20.8957 5.91447 21.25 6.29264V3.45062C21.25 3.03641 21.5858 2.70062 22 2.70062C22.4142 2.70062 22.75 3.03641 22.75 3.45062V8.45062C22.75 8.86484 22.4142 9.20062 22 9.20062H17.56C17.1458 9.20062 16.81 8.86484 16.81 8.45062C16.81 8.03641 17.1458 7.70062 17.56 7.70062H20.4993C20.126 7.26802 19.6329 6.75719 19.0208 6.24654C17.4482 4.93462 15.1123 3.64062 12 3.64062ZM22 12.1406C22.4142 12.1406 22.75 12.4764 22.75 12.8906C22.75 18.8248 17.9342 23.6406 12 23.6406C8.97954 23.6406 6.58449 22.1204 4.98113 20.6662C4.55554 20.2801 4.18095 19.8946 3.86 19.5361V22.3306C3.86 22.7448 3.52421 23.0806 3.11 23.0806C2.69579 23.0806 2.36 22.7448 2.36 22.3306V17.3306C2.36 16.9164 2.69579 16.5806 3.11 16.5806H7.63C8.04421 16.5806 8.38 16.9164 8.38 17.3306C8.38 17.7448 8.04421 18.0806 7.63 18.0806H4.5871C4.94789 18.5192 5.41842 19.0377 5.98887 19.5551C7.45051 20.8808 9.50046 22.1406 12 22.1406C17.1058 22.1406 21.25 17.9964 21.25 12.8906C21.25 12.4764 21.5858 12.1406 22 12.1406Z" fill="#6B4E46"/>
</svg>
