<?xml version="1.0" encoding="iso-8859-1"?>
<!-- Generator: Adobe Illustrator 26.0.1, SVG Export Plug-In . SVG Version: 6.00 Build 0)  -->
<svg version="1.1" id="george_getmuv.com" xmlns="http://www.w3.org/2000/svg" xmlns:xlink="http://www.w3.org/1999/xlink" x="0px"
	 y="0px" viewBox="0 0 512 512" style="enable-background:new 0 0 512 512;" xml:space="preserve">
<g id="www.GeorgeSamuel.me">
	<rect width="512" height="512"/>
	<path style="fill:#FFFFFF;" d="M109.832,235.98l0.171-25.259c0-0.341,0-0.683,0.171-0.853c0.341-0.171,0.683-0.341,1.024-0.341
		h11.947c0.341,0,0.683,0,1.024,0.341c0.171,0.341,0.171,0.512,0.171,0.853v49.323c0,0.341,0,0.683-0.341,1.024
		c-0.341,0.171-0.683,0.341-1.024,0.171h-9.045c-0.683,0-1.195,0-1.877-0.171c-0.853-0.341-1.365-1.024-1.877-1.707
		c-6.656-8.704-13.312-17.408-20.309-25.941v26.795c0,0.341,0,0.683-0.171,0.853c-0.341,0.171-0.512,0.341-0.853,0.341
		c-2.901,0-11.947,1.536-13.141-1.536c-0.341-2.731-0.341-5.291,0-8.021v-8.192c0-10.923,0-21.845,0-32.768
		c0-0.341,0-0.683,0.171-1.024c0.341-0.341,0.853-0.512,1.195-0.341h9.557c0.683,0,1.536,0,2.219,0.341
		c0.683,0.341,1.195,0.853,1.707,1.536L109.832,235.98L109.832,235.98z"/>
	<path style="fill:#FFFFFF;" d="M276.744,261.409c-0.683,0-1.195,0.171-1.536,0.171c-4.608,0-9.387,0-13.995,0
		c-0.853,0-1.707-0.512-2.048-1.195c-1.707-2.56-3.413-5.12-5.291-7.68c-0.853-1.365-1.877-2.731-2.731-4.096
		c-0.341-0.683-1.195-1.195-2.048-1.024c-1.536,0-3.243,0-4.949,0c-0.853,0-1.024,0.341-1.024,1.024
		c0.171,3.925,0.171,8.021,0.171,12.117c0,0.853-0.341,1.024-1.195,1.024c-4.096,0-8.363,0-12.459,0
		c-0.853,0-1.024-0.512-1.024-1.195c0-3.925,0-8.021,0-11.947v-37.035c0-2.048,0-2.048,2.048-2.048c7.68,0,15.531,0,23.211,0
		c3.755-0.171,7.339,0.512,10.752,1.877c4.267,1.536,7.509,4.949,9.045,9.216c0.853,2.219,1.195,4.608,1.024,6.997
		c0.171,5.973-3.072,11.435-8.363,14.336c-2.219,1.195-2.219,1.195-0.683,3.243c2.731,3.925,5.461,8.021,8.021,11.947
		C274.866,258.679,275.72,259.873,276.744,261.409z M243.464,234.103c0.512,0,0.853,0,1.195,0c2.56,0,5.12,0,7.68,0
		c1.365,0,2.731-0.171,4.096-0.512c2.219-0.683,3.755-2.56,4.096-4.779c0.341-3.243-1.877-6.144-5.12-6.485
		c-0.171,0-0.341,0-0.512,0c-3.413-0.171-6.997,0-10.411,0c-0.341,0.171-0.683,0.341-0.853,0.853
		C243.464,226.764,243.464,230.348,243.464,234.103L243.464,234.103z"/>
	<path style="fill:#FFFFFF;" d="M303.026,241.612c1.536-4.437,3.072-8.533,4.608-12.629c1.536-4.096,2.901-8.021,4.267-11.947
		c0.853-2.219,1.536-4.437,2.389-6.656c0.171-0.512,0.512-0.853,1.024-0.853c4.949,0,9.728,0,14.507,0
		c0.171,0,0.341,0.171,0.512,0.171c-0.512,1.365-1.024,2.901-1.536,4.267c-1.365,3.243-2.731,6.485-3.925,9.557
		c-1.536,3.584-2.901,7.168-4.267,10.752c-1.877,4.779-3.925,9.728-5.973,14.507c-1.536,4.096-3.243,8.192-4.779,12.288
		c-0.171,0.341-0.512,0.512-1.024,0.683c-4.096,0-8.192,0-12.288,0c-0.341,0-0.683-0.341-0.853-0.683
		c-1.024-2.389-2.048-4.779-3.072-7.339c-1.365-3.413-2.731-6.997-4.267-10.411c-1.877-4.608-3.755-9.216-5.632-13.824
		c-1.365-3.584-2.901-6.997-4.267-10.581c-1.024-2.731-2.048-5.461-3.243-8.192c-0.341-0.853-0.171-1.195,0.853-1.195
		c4.779,0,9.557,0,14.165,0c0.512,0.171,0.853,0.512,1.195,0.853c1.195,3.243,2.56,6.656,3.755,9.899
		c0.853,2.219,1.365,4.267,2.219,6.485c1.195,3.413,2.56,6.827,3.755,10.24c0.512,1.195,0.853,2.56,1.195,3.755
		C302.685,240.929,302.856,241.271,303.026,241.612z"/>
	<path style="fill:#FFFFFF;" d="M343.986,226.935l-3.584,9.045c-1.195,2.901-2.219,5.803-3.413,8.704
		c-1.365,3.584-2.731,7.168-4.267,10.752c-0.683,1.877-1.365,3.755-2.219,5.461c-0.171,0.341-0.512,0.512-0.853,0.512
		c-4.437,0-9.045,0-13.483,0c-0.853,0-1.024-0.341-0.683-1.024c1.707-3.925,3.413-7.68,5.12-11.605
		c1.195-2.731,2.219-5.461,3.413-8.363c1.195-2.901,2.56-5.803,3.755-8.875c1.195-2.731,2.219-5.461,3.413-8.363
		c1.877-4.437,3.755-8.875,5.632-13.312c0.171-0.512,0.853-0.853,1.365-0.853c3.755,0,7.509,0.171,11.264,0
		c1.877-0.171,2.389,1.195,2.901,2.389c2.219,4.949,4.096,9.899,6.315,14.848c1.536,3.584,3.072,7.168,4.608,10.752
		c1.536,3.413,2.901,6.827,4.437,10.411c1.365,3.413,2.731,6.656,4.267,10.069c0.341,1.024,0.853,2.048,1.195,2.901
		c0.171,0.683,0.171,1.024-0.683,1.024c-4.608,0-9.387,0-13.995,0c-0.341,0-0.683-0.341-0.853-0.683
		c-1.024-2.219-1.877-4.437-2.731-6.656c-0.853-2.048-1.536-3.925-2.219-5.973c-1.365-3.755-2.901-7.68-4.267-11.435
		c-1.195-2.901-2.219-5.973-3.413-8.875C344.328,227.447,344.157,227.105,343.986,226.935z"/>
	<path style="fill:#FFFFFF;" d="M154.034,209.527h21.504c0.341,0,0.683,0,1.024,0.341c0.171,0.341,0.341,0.683,0.341,1.024v11.776
		c0,0.341,0,0.683-0.171,0.853c-0.341,0.512-1.024,0.683-1.707,0.683l-12.117-0.171c-0.512,0-0.853,0-1.365,0.341
		c-0.171,0.341-0.341,0.683-0.341,1.195v34.475c0,0.341,0,0.683-0.171,1.024c-0.341,0.341-0.853,0.512-1.195,0.341h-11.776
		c-0.341,0-0.683,0-1.024-0.171c-0.171-0.341-0.341-0.683-0.341-1.024V225.74c0-0.341,0-0.853-0.171-1.195
		c-0.512-0.512-1.195-0.683-1.707-0.512c-2.56,0.171-11.264,1.536-12.971-0.512c-1.024-1.195-0.341-4.608-0.341-5.973v-6.827
		c0-0.341,0-0.512,0.171-0.853c0.341-0.171,0.683-0.341,1.024-0.341L154.034,209.527z"/>
	<path style="fill:#FFFFFF;" d="M379.997,235.468c0-8.192,0-16.384,0-24.405c0-1.024,0.341-1.365,1.536-1.365
		c3.925,0.171,7.851,0,11.776,0c1.024,0,1.365,0.171,1.365,1.365c0,11.776,0,23.381,0,35.157c0,2.389,0,2.389,2.389,2.389
		c6.997,0,13.995,0,21.163,0c1.195,0,1.365,0.341,1.365,1.536c0,3.413,0,6.827,0,10.24c0,1.024-0.341,1.365-1.365,1.365
		c-12.459,0-24.747,0-37.205,0c-1.024,0-1.195-0.512-1.195-1.365C379.997,251.852,379.997,243.66,379.997,235.468L379.997,235.468z"
		/>
	<path style="fill:#FFFFFF;" d="M222.301,246.732c0,4.779,0,9.216,0,13.824c0,0.683-0.341,1.024-0.853,1.024h-51.541
		c-1.707,0-1.707,0-1.707-1.707c0-3.925,0-8.021,0-11.947c0-0.683,0.171-1.024,0.853-1.024c0.341,0,0.683,0,1.024,0L222.301,246.732
		L222.301,246.732z"/>
	<path style="fill:#FFFFFF;" d="M54.194,235.639c0-8.363,0-16.725,0-24.917c0-0.853,0.341-1.024,1.024-1.024
		c4.096,0,8.192,0,12.459,0c0.683,0,1.024,0.341,1.024,1.024c0,0.341,0,0.512,0,0.853c0,16.384,0,32.597,0,48.981
		c0,1.024-0.341,1.195-1.195,1.195c-4.096,0-8.192,0-12.117,0c-0.853,0-1.195-0.171-1.195-1.024
		C54.194,252.023,54.194,243.831,54.194,235.639L54.194,235.639z"/>
	<path style="fill:#FFFFFF;" d="M115.293,301.516c-0.341,0.171-0.512,0.171-0.853,0.171c-2.901,0-5.632,0-8.363,0
		c-0.512,0-0.853-0.341-1.195-0.683c-1.707-2.389-3.413-4.779-4.949-7.339c-0.512-0.853-1.536-1.365-2.56-1.195
		c-1.707,0-1.707,0-1.707,1.707c0,2.219,0,4.267,0,6.485c0,0.853-0.341,1.195-1.195,1.195c-2.219,0-4.267,0-6.485,0
		c-1.024,0-1.195-0.341-1.195-1.195c0-9.045,0-18.091,0-27.136c0-2.731,0-2.731,2.731-2.56c3.413,0,6.827,0,10.069,0
		c2.219,0,4.437,0.171,6.656,0.512c3.755,0.683,6.656,3.584,7.509,7.168c1.024,3.243,0.171,6.656-1.877,9.387
		c-0.853,0.853-1.877,1.707-2.901,2.389c-0.341,0.341-0.683,0.512-1.195,0.853L115.293,301.516z M99.421,285.473l3.072-0.171
		c0.683,0,1.195-0.171,1.877-0.512c0.512-0.341,1.024-1.024,1.024-1.707c0.171-0.683,0.171-1.365,0-2.048
		c0-0.512-0.171-1.024-0.512-1.536c-0.512-0.512-1.195-0.853-2.048-0.853c-2.048-0.341-3.925-0.341-5.973-0.341
		c-0.171,0-0.341,0-0.512,0.171c-0.171,0.171-0.341,0.341-0.341,0.512c-0.512,1.536-1.536,5.461,0.683,6.485
		c0.683,0.171,1.365,0.171,2.048,0.171L99.421,285.473z"/>
	<path style="fill:#FFFFFF;" d="M134.749,270.113c5.12,0.341,9.728,3.072,12.459,7.509c2.219,3.413,2.901,7.509,2.048,11.435
		c-0.683,4.608-3.413,8.533-7.339,10.752c-3.243,2.048-7.168,2.731-10.923,2.219c-3.755-0.341-7.339-2.048-10.069-4.608
		c-1.877-1.877-3.072-4.096-3.925-6.485c-2.219-6.827,0.341-14.165,6.315-18.091C126.728,270.796,130.824,269.772,134.749,270.113z
		 M140.552,286.668c0.512-4.267-2.56-8.021-6.656-8.363c-0.341,0-0.683,0-0.853,0c-4.096-0.171-7.68,3.072-7.68,7.339
		c0,0.171,0,0.512,0,0.683c-0.341,4.267,2.901,8.021,7.168,8.363c0.171,0,0.171,0,0.341,0c4.096,0.171,7.68-3.072,7.851-7.168
		C140.722,287.009,140.722,286.839,140.552,286.668z"/>
	<path style="fill:#FFFFFF;" d="M203.016,224.204c-5.973,0-12.117,0-18.091,0c-0.853,0-1.195-0.171-1.195-1.024
		c0-4.267,0-8.363,0-12.629c0-0.853,0.341-1.195,1.195-1.195c11.947,0,23.893,0,35.84,0c1.195,0,1.365,0.341,1.365,1.536
		c0,4.096,0,8.192,0,12.459c0,0.341-0.512,0.683-0.683,0.853c-0.171,0.171-0.512,0-0.853,0L203.016,224.204L203.016,224.204z"/>
	<path style="fill:#FFFFFF;" d="M195.848,302.199c-0.512,0-1.195,0-1.707,0c-3.584-0.171-6.997-1.195-10.069-2.731
		c-1.877-1.024-3.584-2.219-1.877-4.267l2.731-3.072c0.171-0.171,0.512-0.512,0.683-0.512c0.341,0,0.683,0,1.024,0.171
		c1.707,0.853,3.243,1.707,4.949,2.389c1.707,0.683,3.584,1.024,5.461,0.683c0.853-0.171,2.048-0.853,2.048-1.707
		c0-0.512-0.341-1.195-0.853-1.536c-0.512-0.341-1.024-0.512-1.536-0.683l-6.144-1.877c-2.56-0.512-4.779-1.707-6.485-3.584
		c-0.853-1.365-1.365-2.731-1.536-4.437c-0.171-1.877,0.171-3.755,0.853-5.461c1.195-2.048,2.901-3.584,5.12-4.437
		s4.437-1.195,6.827-1.024c3.755,0.171,7.509,1.365,10.752,3.413c0.341,0.171,0.683,0.512,0.683,1.024
		c0,0.341-0.171,0.512-0.341,0.853l-2.56,3.755c-0.341,0.512-0.853,1.024-1.365,1.024c-0.512,0-0.853-0.171-1.195-0.512
		c-2.048-1.365-4.608-2.048-6.997-2.048c-0.683,0-1.365,0-2.048,0.341c-0.683,0.341-1.024,0.853-1.024,1.536
		c0,1.024,1.195,1.536,2.048,1.877c2.389,0.853,4.779,1.195,6.997,1.877c2.389,0.683,4.437,2.048,5.973,3.925
		c1.536,2.219,1.877,4.949,1.195,7.339c-0.853,2.56-2.56,4.608-4.779,5.803C200.626,301.687,198.237,302.369,195.848,302.199z"/>
	<path style="fill:#FFFFFF;" d="M173.32,280.183c-0.171,0-0.341,0-0.512,0c-2.048-1.024-4.096-1.707-6.144-2.389
		c-1.365-0.341-2.731-0.341-3.925,0.171c-0.512,0.171-1.024,0.683-1.024,1.365c0,0.171,0,0.512,0.171,0.683
		c0.512,0.683,1.195,1.365,2.048,1.536c2.389,0.853,4.779,1.195,7.168,2.048c2.389,0.683,4.608,2.048,6.144,4.096
		c1.365,2.048,1.707,4.608,1.024,6.827c-0.512,1.877-1.707,3.755-3.243,4.949c-2.048,1.536-4.437,2.389-6.827,2.56
		c-3.755,0.512-7.68-0.171-11.264-1.707c-1.877-0.683-3.584-1.707-5.12-3.072c-0.341-0.512-0.341-0.512,0.171-1.024
		c0.341-0.512,0.683-0.853,1.195-1.365l2.389-2.731c0.171-0.171,0.341-0.341,0.683-0.512c0.683-0.341,1.365,0.171,2.048,0.512
		c2.56,1.707,5.461,2.56,8.533,2.56c0.853,0,1.536-0.171,2.219-0.512c0.683-0.512,1.024-1.365,0.683-2.048
		c-0.341-0.341-0.683-0.683-1.195-0.853c-2.56-0.853-5.12-1.707-7.68-2.219c-2.56-0.683-4.949-2.048-6.656-4.096
		c-1.877-2.901-1.877-6.656,0-9.557s4.949-4.608,8.363-5.12c3.413-0.341,6.827,0,9.899,1.365c1.536,0.512,2.901,1.195,4.267,2.219
		c0.341,0.171,0.512,0.512,0.683,0.853c0,0.341-0.171,0.512-0.341,0.683l-3.243,4.779
		C173.661,280.012,173.49,280.183,173.32,280.183z"/>
	<path style="fill:#FFFFFF;" d="M70.578,269.943c4.779,0,9.216,2.219,12.288,5.632c0.341,0.171,0.341,0.512,0.341,1.024
		c-0.171,0.341-0.341,0.512-0.512,0.683l-4.608,3.584c-0.171,0.171-0.512,0.341-0.853,0.512c-0.853,0.171-1.365-0.683-1.877-1.195
		c-2.389-2.389-6.315-2.731-9.045-0.683c-2.731,2.048-3.925,5.632-3.072,8.875c0.341,1.707,1.195,3.072,2.389,4.267
		c1.536,1.195,3.413,1.877,5.461,1.707c1.877-0.171,3.755-1.195,5.12-2.56c0.341-0.341,0.683-0.853,1.195-0.683
		c0.171,0,0.512,0.171,0.683,0.341c1.707,1.195,3.413,2.389,5.12,3.584c0.171,0.171,0.341,0.171,0.341,0.341
		c0,0.341,0,0.683-0.341,1.024c-3.925,4.779-10.24,7.168-16.384,5.803c-5.12-1.195-9.387-4.779-11.605-9.557
		c-2.219-5.461-1.365-11.605,2.219-16.213c3.072-3.755,7.68-6.144,12.459-6.315L70.578,269.943z"/>
	<path style="fill:#FFFFFF;" d="M211.72,270.796h10.24c3.413,0,6.827,0,10.24,0c0.853,0,1.195,0.171,1.195,1.024
		c0,2.048,0,4.267,0,6.485c0,1.024-0.341,1.195-1.195,1.195c-3.584,0-6.997,0-10.581,0c-1.024,0-1.365,0.341-1.365,1.365
		c0.171,2.56,0,2.56,2.56,2.56s5.291,0,7.851,0c0.853,0,1.365,0.171,1.195,1.195c0,1.707,0,3.584,0,5.291
		c0,0.853-0.341,1.195-1.195,1.195c-3.072,0-6.144,0-9.216,0c-1.024,0-1.365,0.171-1.365,1.195c0,2.731,0,5.632,0,8.363
		c0,1.024-0.341,1.365-1.195,1.195c-2.048,0-4.267,0-6.485,0c-0.683,0-1.195-0.171-1.195-1.024c0-9.728,0-19.627,0-29.355
		C211.549,271.308,211.549,270.967,211.72,270.796z"/>
	<path style="fill:#FFFFFF;" d="M263.09,270.796c4.096,0,8.192,0,12.288,0c0.853,0,1.195,0.341,1.195,1.195c0,2.048,0,4.267,0,6.485
		c0,1.024-0.341,1.195-1.195,1.195c-2.048,0-4.096,0-6.315,0c-1.536,0-1.536,0-1.536,1.536c0,6.315,0,12.459,0,18.603
		c0,1.877,0,1.877-1.877,1.877c-1.707,0-3.413,0-5.12,0s-1.707,0-1.707-1.877c0-5.632,0-11.264,0-16.725
		c0-1.195,0.341-2.731-0.341-3.243c-0.683-0.683-2.048-0.171-3.243-0.171c-1.365,0-2.901,0-4.267,0
		c-0.853,0-1.365-0.171-1.195-1.195c0.171-2.048,0-4.267,0-6.485c0-1.024,0.341-1.195,1.195-1.195
		C254.898,270.796,258.994,270.796,263.09,270.796L263.09,270.796z"/>
	<path style="fill:#FFFFFF;" d="M438.536,224.033c-5.973,0-12.117,0-18.091,0c-0.853,0-1.195-0.171-1.195-1.195
		c0-4.096,0-8.192,0-12.288c0-0.853,0.171-1.195,1.195-1.195c6.827,0,13.483,0.171,20.309,0.171c5.461,0,10.923,0,16.213-0.171
		c0.683,0,1.024,0.171,1.024,1.024c0,4.267,0,8.533,0,12.971c0,0.683-0.341,0.853-1.024,0.853
		C450.824,224.033,444.68,224.033,438.536,224.033L438.536,224.033z M445.874,215.671c0-0.853,0-1.536,0-2.389
		c0-0.171,0-0.341-0.171-0.512s-0.171-0.171-0.341-0.171c-0.512,0-0.853,0-1.365,0c-0.171,0-0.341,0-0.341,0.171
		c-0.171,0.171-0.171,0.341-0.171,0.683v3.413c0,0.512,0,1.024-0.341,1.365c-0.341,0.171-0.512,0.171-0.853,0.171
		c-0.341,0-0.512,0-0.853-0.341c-0.171-0.171-0.171-0.341-0.171-0.683c-0.171-1.365,0-2.901-0.171-4.267
		c0-0.171,0-0.341-0.171-0.341c-0.171-0.171-0.171-0.171-0.341-0.171c-0.512-0.171-1.195-0.171-1.707,0
		c-0.171,0-0.341,0-0.341,0.171c0,0.171-0.171,0.171-0.171,0.341c-0.171,1.024-0.171,2.219-0.171,3.243
		c0,1.024,0.341,2.048,0.853,2.901c0.341,0.512,0.853,1.024,1.365,1.195c0.683,0.171,1.536,0.341,2.219,0.171
		c0.512,0,1.024-0.171,1.536-0.512c0.512-0.171,1.024-0.683,1.195-1.024c0.341-0.683,0.341-1.195,0.341-1.877
		C445.874,216.695,445.874,216.183,445.874,215.671z M449.629,215.159L449.629,215.159c0-0.341,0.341-0.512,0.512-0.512
		c0.512,0,1.024,0.171,1.365,0.341c0.512,0.171,1.024,0,1.365-0.171c0.341-0.341,0.341-0.853,0.171-1.195
		c-0.171-0.341-0.512-0.512-0.683-0.512c-0.341,0-0.683-0.171-0.853-0.171c-0.512-0.171-1.195-0.171-1.877-0.171
		c-0.683,0-1.195,0.171-1.707,0.512c-0.512,0.512-0.853,1.024-0.853,1.707c-0.171,0.512-0.171,1.024,0.171,1.365
		c0.171,0.341,0.512,0.512,0.853,0.683c1.024,0.512,2.048,0.853,3.072,1.195c0,0,0.171,0,0.171,0.171
		c0.171,0.171,0,0.341-0.171,0.341c-0.341,0.171-0.853,0.171-1.195,0c-0.341-0.171-0.683-0.171-1.195-0.341
		c-0.512,0-1.024,0.171-1.536,0.512c-0.171,0.171-0.512,0.341-0.512,0.683c0,0.171,0.341,0.512,0.512,0.512
		c0.683,0.341,1.536,0.683,2.389,0.853c0.853,0.171,1.707,0,2.56-0.341c0.512-0.171,1.024-0.512,1.365-1.024
		c0.341-0.512,0.512-1.024,0.341-1.707c-0.171-0.853-0.853-1.365-1.536-1.707c-0.683-0.341-1.536-0.512-2.389-0.683
		C449.97,215.5,449.8,215.329,449.629,215.159z M423.176,216.524L423.176,216.524c0,1.024,0,2.048,0,3.072
		c0,1.024,0.683,1.024,1.365,1.024c0.683,0,1.365,0.171,1.365-0.853c0-1.024,0.341-1.365,1.365-1.365
		c1.707,0,3.072-1.365,3.072-3.072l0,0c-0.171-1.707-1.707-2.901-3.243-2.731c-0.853,0-1.877,0-2.731,0s-1.195,0.171-1.024,1.024
		C423.176,214.647,423.176,215.5,423.176,216.524z M431.197,216.524v0.512c0,0.683,0,1.365,0,1.877s0,1.195,0.512,1.365
		c0.171,0.171,0.341,0.171,0.683,0.171h4.267c0.171,0,0.512,0,0.683-0.171c0.171-0.171,0.171-0.341,0.171-0.512
		c0-0.341,0-0.512,0-0.853c0-0.341-0.171-0.512-0.341-0.683c-0.171,0-0.341-0.171-0.512-0.171c-0.512,0-1.024,0-1.536,0
		c-0.341,0-0.683,0-1.024-0.171c-0.341-0.341-0.341-0.683-0.341-1.024v-3.584c0-0.171,0-0.341-0.171-0.512
		c0,0-0.171-0.171-0.341-0.171c-0.512-0.171-1.195-0.171-1.707,0c-0.171,0-0.171,0-0.171,0.171c0,0.171-0.171,0.171-0.171,0.341
		C431.197,214.305,431.197,215.329,431.197,216.524L431.197,216.524z"/>
	<path style="fill:#FFFFFF;" d="M209.33,242.636c-3.925,0-7.68,0-11.605,0c-0.853,0-1.365-0.171-1.365-1.195
		c0-3.925,0-8.021,0-11.947c0-1.365,0.341-1.536,1.536-1.536c4.267,0,8.533,0.171,12.971,0.171c3.413,0,6.997,0,10.411,0
		c0.853,0,1.195,0.341,1.024,1.195c0,4.096,0,8.192,0,12.288c0,1.024-0.512,1.195-1.365,1.195
		C217.181,242.636,213.256,242.636,209.33,242.636L209.33,242.636z"/>
	<path style="fill:#FFFFFF;" d="M245.853,286.327c0,4.779,0,9.387,0,14.165c0,1.024-0.341,1.365-1.365,1.365
		c-2.048,0-4.267,0-6.485,0c-0.853,0-1.195-0.341-1.195-1.195c0-9.557,0-19.115,0-28.843c0-0.853,0.341-1.195,1.195-1.195
		c2.048,0,4.267,0,6.485,0c1.024,0,1.195,0.341,1.195,1.195C245.853,276.769,245.853,281.548,245.853,286.327z"/>
	<path style="fill:#FFFFFF;" d="M425.736,215.841c0-0.171,0-0.512,0-0.683c0.171-0.171,0.341-0.341,0.512-0.341s0.512,0,0.683,0.171
		c0.171,0.171,0.512,0.341,0.683,0.683c0,0,0,0,0,0.171l0,0l-1.024,1.024c0,0,0,0-0.171,0c0,0,0,0-0.171,0
		C426.077,216.524,425.736,216.183,425.736,215.841z"/>
</g>
</svg>
