<?xml version="1.0" encoding="utf-8"?>
<!-- Generator: Adobe Illustrator 26.0.1, SVG Export Plug-In . SVG Version: 6.00 Build 0)  -->
<svg version="1.1" id="GeorgeSamuel.me" xmlns="http://www.w3.org/2000/svg" xmlns:xlink="http://www.w3.org/1999/xlink" x="0px"
	 y="0px" viewBox="0 0 512 512" style="enable-background:new 0 0 512 512;" xml:space="preserve">
<style type="text/css">
	.st0{fill:#111111;}
	.st1{fill:#FDFDFD;}
	.st2{fill:#FD0006;}
</style>
<g id="www.GeorgeSamuel.me">
	<rect class="st0" width="512" height="512"/>
	<circle class="st0" cx="256" cy="256" r="256"/>
	<path id="Path_11518" class="st1" d="M208.2,292.4c-0.7-1.6-1.2-3.2-1.6-4.9c-0.3-1.6-2.2-1.8-2.7-3.1c-0.1-0.3-0.5,0.1-0.8,0.2
		c-1.7,1-3.8,1-5.5-0.1c-2.3-1.3-4.4-2.9-6.2-4.8c-0.4-0.5-1.2-0.7-1.8-0.4c-5.9,2-12,3.2-18,4.9c-0.6,0.1-1.1,0.4-1.6,0.7
		c-1.9,1.4-3.9,2.6-6,3.5c-1.9,0.9-4.1,1.2-6.2,0.7c-4.6-1-9.3-1.7-13.6-4c-6.1-3.3-11.2-7.6-14.4-13.9c-1.1-2.1-2-4.1-0.9-6.5
		c0.2-0.5-0.1-0.9-0.3-1.3c-2.3-4.5-3.5-9.4-3.5-14.5c0-2.8-0.4-5.6,0.5-8.4c0.4-1.3-0.8-2.4-1.3-3.6c-0.2-0.3-0.5,0.1-0.8,0.2
		c-2.9,1.5-2.9,1.5-2.1,4.6c0.7,2.8,1.4,5.6,0.7,8.5c-0.6,2.7-2.2,4-5,4.1c-1.4,0-2.8-0.2-4.2-0.8c-1.1-0.4-1.4-0.1-1.8,0.9
		c-0.4,1.2-1,2.3-1.5,3.5c-1.8,4.8-7.2,7.2-12,5.4c-1.3-0.5-2.5-1.3-3.5-2.3c-0.1-0.1-0.2-0.2-0.3-0.3c-0.8-1.3-1.5-1.2-2.7-0.2
		c-3.5,2.7-5.5,2.6-8.9-0.2c-7.2-5.9-12.4-13.4-16.9-21.5c-4-7.3-6.8-15.1-8.2-23.3c-0.8-4.8,1-8.6,3.7-12.3
		c0.8-0.9,1.1-2.2,0.7-3.3c-0.9-2.5-0.1-4.4,1.8-6.1c3.9-3.4,6.4-3.9,11.1-1.9c0.4-0.4,0.4-1,0.5-1.6c2.1-6.6,9.7-9.3,16.2-5.7
		c2.4,1.5,4.5,3.4,6.2,5.8c2.7,3.5,5.4,7.1,8,10.7c0.5,0.7,1,1.3,1.5,1.9c0.5,0.5,0.9,1.7,1.8,1.3c1.2-0.3,2-1.4,2.1-2.6
		c0.4-6.2,4-10.6,9.6-12.3c1.7-0.5,3.4-0.7,5.1-0.7c2.9-0.1,5.8-0.4,8.6-0.9c2.9-0.6,5.9-0.6,8.7,0c-0.1-1.1-0.4-2.1-1-3.1
		c-1.6-2.4-1.7-5.5-0.3-8.1c0.5-0.9-0.1-2.7,2-2.6c0.3,0,0.1-0.9,0.2-1.4c0.1-4.4,2.6-8,6.8-8.7c2.1-0.4,2.9-1.3,3.7-3.1
		c1.7-4.1,6.6-5.7,11.4-4.2c1.8,0.6,3.5,1.5,4.9,2.6c0.5,0.4,0.8,0.5,1.3-0.1c4-4.7,9.8-5,14.2-0.6c3.5,3.7,6.4,7.9,8.6,12.4
		c3.1,5.9,5.7,12,7,18.7c0.3,1.6,0.1,3.2-0.4,4.6c-0.3,0.7-0.3,1,0.6,1c0.1,0,0.1,0,0.2,0c1.4,0.3,3,1,4.3,0.7
		c1.2-0.3,2.1-1.7,3.2-2.6c3.3-2.7,7.2-4,11.3-5c2.4-0.7,4.9-1.5,7.2-2.5c-3.7-4.5-3.3-9.7-2.9-14.9c0.1-1.4,0.8-2.8,1.9-3.7
		c0.7-0.6,1-1.6,0.8-2.6c-0.4-5,0.1-10,1.6-14.7c1-3.1,2.9-5.9,5.5-7.8c3.9-3,8.3-5.5,12.9-7.3c4.9-2,10.4-2,15.3,0
		c4.6,1.8,8.9,4.3,12.8,7.3c4.6,3.4,6.3,8.3,7,13.6c0.5,3.2,0.6,6.5,0.3,9.7c-0.1,0.5,0.1,1,0.5,1.3c1.6,1.4,2.5,3.5,2.6,5.7
		c0.1,2.4,0,4.9-0.4,7.3c-0.2,2.3-1.3,4.4-2.9,6c3.1,1.5,6.4,2.2,9.5,3.2c4.4,1.4,8.5,3.2,11.6,6.9c0.2,0.3,0.6,0.4,0.9,0.3
		c1.7-0.4,3.5-0.6,5.2-0.9c0.5-0.1,0.9-0.1,0.7-0.8c-1.3-4.1-0.1-8,1.3-11.8c2.6-7.3,6.2-14.1,10.7-20.4c2-2.7,4-5.3,7.3-6.3
		c3.5-1.1,7.4,0.1,9.7,3c0.8,1.1,1.2,0.8,2,0.2c3.1-2.4,6.5-3.6,10.4-2.6c3.1,0.6,5.5,3,6.1,6.1c0.2,0.9,0.5,1.2,1.5,1.2
		c4.4,0.1,8,3.5,8.3,7.9c0.1,1.8,0.7,3.5,1.8,4.9c1.9,2.5,1.8,5.1,0.5,7.9c-0.6,1.1-1,2.2-1.4,3.3c4.3-0.7,8.4,0.2,12.6,0.8
		c2.5,0.3,4.9,0.2,7.4,0.7c6.6,1.3,10.3,5.2,11,11.9c0.1,1,2.2,3.2,3.1,3.2c0.5,0,0.7-0.5,1-0.8c3.6-4.3,7.2-8.5,10.5-13
		c2.1-3,4.6-5.7,8.3-6.8c6.2-1.9,12,1.1,13.9,7.3c0.1,0.4-0.2,1.4,1,0.8c5.1-2.6,10.8-0.3,12.8,6.1c0.7,1.8,0.8,3.7,0.5,5.5
		c-0.1,0.6,0.1,1.2,0.5,1.6c1,1.7,2.5,3.1,3,5c0.5,2.2,0.4,4.6-0.3,6.8c-2.8,12.5-7.7,24-15.7,34c-2.9,3.7-6.2,7-9.9,9.8
		c-3.3,2.5-5.9,2.3-8.8-0.6c-0.2-0.3-0.4-0.6-0.6-0.9c-1,1-1.7,1.9-2.6,2.6c-3.9,3.3-9.8,2.8-13.2-1.1c-0.6-0.7-1.1-1.6-1.5-2.5
		c-0.5-1.2-0.8-2.7-1.6-3.5c-0.9-0.9-2.4,0-3.6,0.1c-5.9,0.2-8.7-3.2-7.5-9.4c0-0.2,0.1-0.4,0.2-0.6c0.6-2,1.4-4-0.7-5.8
		c-0.5-0.4-0.5-1.3-0.8-2.1c-0.9,1.4-1.7,2.7-2.5,4c-0.2,0.3-0.3,0.7-0.2,1c1.4,5.5,0.3,10.8-1.1,16.2c-0.2,0.8-0.5,1.6-0.8,2.3
		c-0.8,1.7-1.6,3.3-0.2,5.1c0.5,0.9,0.5,2,0,3c-2.6,5.5-4.8,11.3-9.7,15.4c-5.7,4.8-12.4,6.1-19.6,5.5c-4.8-0.4-9.5-1.4-13.5-4.5
		c-1.7-1.1-3.7-1.8-5.7-2c-4.2-0.8-8.4-1.9-12.5-3.3c-1.3-0.4-2.6-0.3-3.8,0.2c-1.3,0.6-2.5,1.3-3.7,2.1c-0.7,0.5-1.3,0.9-2.1,1.3
		c-2.6,1.2-3.7,0.9-5.6-1.1c-0.4,0.1-0.6,0.4-0.6,0.8c-0.1,1.7-1.1,3.2-2.6,4c-0.3,0.2-0.5,0.5-0.4,0.9c0,1.6-0.4,3.2-1.1,4.7
		c-5.7,0-11.3,0.1-17,0c-9.7,0-19.3,0-29,0c1.4-12.8,0.1-25.5-1.3-38.4c-0.8,12.8-2.9,25.6-0.9,38.4c-5.8,0-11.6,0.1-17.3,0
		C227.5,292.4,217.8,292.4,208.2,292.4z M271.4,149.9c-0.1,0.1-0.4,0-0.2,0.3L271.4,149.9c-3.4-2.8-7.1-5.2-11.1-7
		c-3-1.5-6.6-1.5-9.7-0.1c-3.3,1.4-6.4,3.2-9.3,5.4c-0.8,0.5-1.6,1.2-2.2,2c0.3,0,0.4,0.1,0.5,0c0.4-0.2,0.7-0.5,1.1-0.7
		c5.8-3.2,11.9-5,18.6-3.9c3.8,0.7,7.3,2.3,10.8,4C270.6,149.8,270.9,150.6,271.4,149.9z M270.1,251.5c2.6-1.9,5.5-3.1,8.7-3.8
		c1.6-0.4,3-1.1,4.2-2.3c0.1-0.1,0.1-0.2,0.1-0.3c-0.5-0.2-0.9,0.3-1.3-0.1c0.5-0.6,1-1.2,1.4-1.8c0.9-1.2,1.9-2.2,3.6-2
		c0.9,0.1,1.8-0.4,2.3-1.3c0.7-1.1,1.9-1.9,3.3-2c0.8-0.1,1.6-0.3,2.3-0.4c-0.4-0.2-0.8-0.2-1.2-0.3c-2.6-0.1-5.1-0.7-7.5-1.8
		c-2.4-1.3-2.3-1.3-3,1.4c-0.7,2.8-1.5,6-4.5,7.2c-3.7,1.5-6,4.5-8.6,7.2c-0.1,0.1-0.2,0.1-0.2,0.2
		C269.9,251.7,270,251.6,270.1,251.5L270.1,251.5z M242,252.2c-0.1,0.1-0.1,0.2,0.1,0.3c0,0,0.1,0,0.1,0
		C242.1,252.4,242.1,252.3,242,252.2c-1.5-1.9-3.8-3-5.2-5c-0.9-1.3-2.2-2.2-3.6-2.6c-1.7-0.6-3.2-1.9-3.9-3.6
		c-0.8-1.8-1.4-3.7-1.8-5.6c-0.3-1.1-0.7-1.3-1.7-0.6c-1,0.7-2.2,1.3-3.4,1.6c-2.2,0.6-4.5,0.9-6.8,1c1.1,0.5,2.2,0.8,3.4,0.8
		c0.8,0.1,1.6,0.5,2,1.2c0.6,1.3,2.1,1.9,3.5,1.6c0.8-0.3,1.7,0.1,2,0.9c0.5,1.1,1.3,2.2,2.3,2.9c-0.2,0.5-0.8,0-0.9,0.4
		c-0.1,0.5,0.4,0.6,0.7,0.9c1.1,0.9,2.4,1.5,3.8,1.8c2.6,0.5,5.1,1.7,7.2,3.3C240.3,251.7,241,252.5,242,252.2z M169,201.4
		c0,0.1,0.1,0.1,0.1,0.2c0-0.1,0-0.1,0-0.2L169,201.4c0.2-0.4-0.1-0.6-0.3-0.9c-1.2-2-2.3-4-3.3-6.1c-2.4-5.8-5.4-11.3-8.3-16.8
		c-0.5-1.1-1.2-2.1-2-3c-0.6-0.6-1.3-1.2-2.3-0.7c-0.9,0.5-1.3,1.5-1,2.5c0.1,0.6,0.4,1.3,0.7,1.8c0.8,1.6,1.7,3.2,2.5,4.8
		c3.3,6.7,8.4,12.1,13.1,17.8C168.2,201.1,168.5,201.5,169,201.4z M323.2,212.8L323,213c0,0,0,0,0,0.1
		C323.1,213,323.1,212.9,323.2,212.8c-0.6-0.8-1.1-1.8-1.3-2.8c0.1-0.1,0.2-0.2,0.3-0.3c2.9,1,5.4,2.9,8.1,4.4
		c3.6,2.1,4.5,6.2,6.6,9.6c-0.1-3.8-3.1-10.2-6.1-13.2c-1.1-1.2-2.5-2.1-3.9-2.8c-4.5-2-9-3.7-14-3.5c-2.3,0.1-4.7,0-6.9,1.1
		c1.2,0.5,2.5,0.4,3.8,0.7c4.4,1.2,8.5,3.3,12,6.3C322.1,212.7,322.5,213.3,323.2,212.8z M422.2,237.1c1.1-1.4,2.4-2.8,3.4-4.2
		c5.7-8,10.8-16.4,16-24.8c0.8-1.3,1.4-2.7,1.7-4.2c0.2-1.3,0.1-2.6-1.3-3.3c-1.3-0.6-2.2,0.1-3.1,1c-1.3,1.5-2.4,3.1-3.3,4.9
		c-2.1,4.1-3.5,8.5-5.3,12.7c-2.5,6.1-5.3,12-8.3,17.8c-0.1,0.1-0.2,0.2-0.2,0.2C422.1,237.5,422.1,237.2,422.2,237.1L422.2,237.1z
		 M179.1,244.4c-1.4-0.2-2.5,0.9-4,0.8c-2.7,0.1-5.4-0.2-8-0.8c-5-1.4-9.9-3.3-13.2-7.7c-0.1-0.1-0.2-0.1-0.4-0.2
		c0.1,2,1.9,3.6,1.7,5.8c-0.4-0.3-0.7-0.5-0.9-0.7c-4.4-3.6-8.2-7.9-11.2-12.7c-0.7-1-1.1-2.2-2.4-2.8c0.2,2,0.8,4,1.8,5.8
		c0.9,1.7,1.9,3.3,2.8,5c2.7,5.3,7,9.5,12.3,12.1c2.1,1.1,2.1,1.1,2.6-1.2c0.5-2.1,0.7-2.3,2.9-2.2c1.3,0.1,2.5,0.4,3.7,0.7
		C171.1,247.5,175.5,246.7,179.1,244.4C179.1,244.3,179.1,244.3,179.1,244.4C179,244.3,179.1,244.3,179.1,244.4L179.1,244.4z
		 M209,212.9c-1.3,2.4-3.3,4.2-5,6.3c-0.4,0.6-0.9,0.9-1.6,1c-1.8,0.1-3,1.1-4.2,2.1c-1.2,1-2.6,1.9-4,2.7c-0.8,0.5-1.8,0.7-2.7,0.4
		c0.2-0.5,0.3-1,0.5-1.4c0.6-1.5,0.9-3.1,1.1-4.7c0.1-2.3-1.3-3.3-3.4-2.6c-0.9,0.4-1.8,1-2.5,1.6c-0.8,0.7-1.6,1.2-2.5,1.7
		c-0.9,0.4-1.4,0.4-1.2-0.9c0.3-0.8,0.4-1.7,0.3-2.5c0.1,0,0.3,0,0.2-0.2c0,0.1-0.1,0.2-0.1,0.3c-1.1,1.2-2.1,2.4-3.2,3.6
		c-0.7,0.7-1.1,1.6-1.3,2.5c-0.2,1-0.2,2.2,0.6,2.8c0.7,0.6,1.6-0.1,2.4-0.4c0.5-0.2,0.9-0.5,1.3-0.7c1.6-0.8,3.3-1.6,5.1-2.5
		c0,0.8-0.2,1.6-0.6,2.4c-0.8,1.8-1.4,3.6-1.9,5.4c-0.1,0.6-0.8,1.4-0.3,1.8c0.6,0.5,1.4,0,2.2-0.2c0.7-0.3,1.4-0.6,2.1-0.9
		c1.5-0.8,3-1.5,4.5-2.1c6.4-2.1,11.5-7,13.9-13.3C208.9,214.3,209.5,213.6,209,212.9c0.1,0,0.2,0.1,0.2,0.1c0,0,0-0.1,0-0.1
		C209.2,212.9,209.1,212.9,209,212.9L209,212.9z M263.5,177.2c-0.4,0.4-0.7,0.9-0.8,1.5c-0.6,2.7-0.6,5.6-0.1,8.3
		c1,4.7,2.3,9.4,3.9,14c0.9,2.1,0.7,4.5-0.6,6.3c-1.1,1.6-1.8,3.4-2.2,5.3c-0.1,1-0.6,1.9-1.2,2.6c-4.1,4.2-2.6,9.2-2,14
		c0.7-1.7,1-3.5,2.1-5c2-2.6,3.3-5.7,3.7-9c0.4-2.5,1.2-4.7,3.6-6.2c1.5-0.9,2-2.7,1.2-4.3c-0.3-0.6-0.5-1.3,0-1.8
		c0.6-0.6,1.3-0.3,2,0c1.1,0.5,2.2,1.1,3.2,1.6c0.7,0.4,1,0.2,1.2-0.6c0.4-1.4,0.1-3-0.9-4.1c-0.8-1.2-1.9-2.3-2.3-4
		c5.4,1.2,10.7,1.3,16.3,2.2c-3.1-1.9-6.5-3.5-10.1-4.5c-2.3-0.6-4.6-1.2-6.9-1.9c-4.9-1.5-7.7-4.9-9-9.8
		C264.5,180.2,264.1,178.7,263.5,177.2z M247,177.7c-0.2,0.7-0.3,1.3-0.5,2c-1.3,6.8-5.1,11.1-12,12.7c-5.2,1-10.1,3-14.6,5.9
		c5.2-1.2,10.7-1.5,16.4-2.4c-0.8,1.5-1.6,2.9-2.6,4.2c-0.7,1.2-1.2,2.5-0.6,3.9c0.3,0.7,0.6,1.1,1.5,0.5c0.9-0.6,1.8-1.1,2.8-1.5
		c2-0.8,2.6-0.4,2.2,1.7c-0.6,2,0.3,4.1,2.1,5c1.4,0.9,2.3,2.4,2.4,4c0.3,5.7,4.2,10,5.9,15.1c0,0.1,0.1,0.1,0.3,0.2
		c0.9-1.3,0.8-2.8,0.8-4.2c0.1-3.5,0-6.9-2.8-9.6c-0.7-0.7-1.1-1.6-1.2-2.6c-0.3-2.1-1.1-4.1-2.4-5.8c-1-1.3-1.3-2.9-0.8-4.5
		c1.3-3.4,1.9-7.1,3.2-10.6c1-2.5,1.5-5.1,1.5-7.7C248.4,181.9,248.5,179.6,247,177.7L247,177.7z M301.4,212.8
		c1.4,4.3,3.4,8.3,7.1,11.2c4.6,3.6,10.3,5.3,15.6,7.6c1,0.4,1-0.2,0.9-0.9c-0.4-1.7-1-3.3-1.8-4.8c-0.7-1.2-1.1-2.5-1.2-3.9
		c0.6,0.3,1,0.5,1.4,0.7c1.9,0.9,3.7,2,5.7,2.8c1.7,0.7,2.2,0.2,2.1-1.6c-0.2-3.6-2.7-5.8-5-8.3c-0.1,1.7,1.1,3,0.9,4.6
		c-0.7-0.1-1.3-0.4-1.8-0.8c-1.1-0.7-2.3-1.5-3.4-2.3c-1.1-0.7-2.3-1.3-3.6-0.4c-1.1,0.8-0.8,2.1-0.7,3.2c0.2,1.9,1,3.6,1.4,5.5
		c-1.3,0-2.5-0.4-3.6-1.1c-2.7-1.4-4.8-3.9-7.9-4.6c-0.6-0.1-1-0.8-1.5-1.3C304.5,216.6,303,214.7,301.4,212.8L301.4,212.8z
		 M370,225.9c-1.9,2.6-3.7,5-5.5,7.4c-2,2.9-4.4,5.6-7.1,7.9c-0.6,0.6-1.3,1-2.2,1c0.8-1.8,1.4-3.6,1.7-5.5c-0.4,0-0.7,0.2-0.8,0.5
		c-1.5,2.4-3.8,3.6-6.4,4.9c-5.6,2.8-11.2,3.8-17.3,2.2c-0.2-0.1-0.5-0.2-0.8,0.1c0.6,0.9,1.6,1,2.5,1.4c4.1,1.5,8.2,1,12.4,0.4
		c3.7-0.6,3.1-1.3,3.9,3c0.2,0.9,0.2,1.2,1.1,0.7c5.6-2.9,10.4-6.7,13.3-12.4c0.9-1.7,1.8-3.4,2.8-5
		C369.1,230.4,369.9,228.2,370,225.9L370,225.9z M90,237.6c0.3-0.5,0-0.7-0.2-1c-2.1-3.3-3.9-6.9-5.4-10.5
		c-2.4-5.1-4.4-10.5-6.8-15.7c-1.3-3.1-2.9-6.1-4.8-8.9c-0.7-1-1.6-1.7-3-1.1c-1.2,0.6-1.8,1.9-1.5,3.2c0.3,1.7,1,3.3,2,4.7
		c5.2,8.2,10.1,16.6,15.8,24.4C87.2,234.6,88.5,236.2,90,237.6z M386.7,210.6c0.4-1.4,1-2.7,1.8-4c0.8-1.1,1.4-2.4,1.8-3.7
		c0.3-1.5,1.2-1.9,2.7-1.3c0.6,0.2,1.2,0.9,2,0.6c-0.8-2-2.6-3.4-4.6-3.7c-1.5-0.2-3-0.7-4.3-1.3c-1-0.5-2-0.7-3.1-0.7
		c-1.7,0.1-3.3-0.3-4.8-1.2c-4.9-2.6-11,0.2-13.3,3.5c-0.8,0.9-1.2,2-1.2,3.2c1.1-0.6,2-1.2,3-1.7c1.7-1.1,3.5-1.8,5.5-2.2
		c1.5-0.3,2.3,0.2,2.6,1.6c0.3,1.1,0.5,2.2,0.8,3.5c0.2-0.5,0.4-0.9,0.7-1.3c0.9-0.9,1.5-2.5,3.1-2.4c1.8,0.1,3.5,0.5,5.1,1.2
		c1.4,0.3,2.2,1.7,1.8,3.1c0,0,0,0,0,0C385.7,206.1,385.9,208.4,386.7,210.6z M148.2,202.1c0-0.3-0.1-0.5-0.1-0.8
		c-1.2-4.3-7.2-8-11.9-6.7c-3.4,0.9-6.8,1.9-10.3,2.6c-1.6,0.3-3,1.1-4.6,1.3c-2.2,0.3-3.6,1.8-4.5,3.8c0.9,0.2,1.4-0.4,2.1-0.6
		c1-0.3,2.1-0.4,2.4,0.7c0.7,3,3,5.1,3.8,8.3c0.8-2.3,1-4.7,0.6-7c-0.3-1.2,0.4-2.4,1.6-2.8c1.4-0.5,2.8-0.9,4.2-1.2
		c1.1-0.4,2.4,0,3.1,0.9c0.7,0.8,1.4,1.7,1.9,2.7c0.3-1.3,0.6-2.4,0.8-3.5c0.3-1.4,1.1-1.8,2.5-1.6c1.7,0.3,3.4,0.9,4.9,1.8
		C145.7,200.6,146.9,201.3,148.2,202.1z M331.3,196.3c0.7-0.4,1.3-1,1.6-1.8c0.8-1.4,1.7-2.6,2.8-3.7c4.8-5.3,8.9-11.3,12.3-17.6
		c0.9-1.5,1.5-3.2,1.6-5c0.2-1-0.3-2-1.2-2.4c-0.9-0.5-1.9-0.4-2.7,0.2c-0.6,0.4-1.1,0.9-1.5,1.4c-1.6,2.2-2.8,4.6-3.6,7.1
		c-2.3,6.7-5.2,13.2-8.6,19.5C331.6,194.7,331.3,195.5,331.3,196.3z M180.1,196c0.2-0.4-0.1-0.7-0.2-1c-3.3-7.6-6.9-15-9.7-22.8
		c-0.7-2.3-2-4.3-3.7-6c-0.7-0.8-1.9-1.1-2.9-0.6c-1,0.5-1.6,1.5-1.4,2.6c0.2,1.7,0.7,3.3,1.5,4.7c4.2,8.4,10.4,15.5,16,23
		C179.8,196,180,196,180.1,196L180.1,196z M101.4,227c-0.3-1.6-0.9-3.1-1.7-4.5c-4.4-8-7.1-16.7-9.9-25.3c-0.4-1.5-1-2.9-1.8-4.1
		c-0.9-1.1-2.5-1.5-3.8-0.9c-1.2,0.5-2,1.8-1.7,3.1c0.2,1.7,0.6,3.3,1.4,4.8c1.8,3.4,3.8,6.6,6.2,9.7c3.7,5.1,7.6,10.1,10.1,16
		C100.3,226.2,100.8,226.8,101.4,227z M410.8,225.9c0.1,0,0.2,0.1,0.3,0.1c0.2-0.4,0.5-0.8,0.7-1.1c3.3-6,7.1-11.7,11.3-17
		c1.8-2.3,3.3-4.7,4.6-7.3c1-1.7,1.6-3.6,1.7-5.6c0.1-1.3-0.7-2.5-1.9-3c-1.2-0.5-2.6-0.1-3.4,0.9c-0.9,1.2-1.6,2.6-2,4
		c-2.9,8.6-5.5,17.3-9.7,25.4C411.8,223.5,411.3,224.7,410.8,225.9L410.8,225.9z M355.8,234.5c0.3-1.9,0.4-3.8,0.2-5.7
		c-0.4-4.2-1.3-8.4-4.4-11.5c-4.2-4.5-9.8-7.7-15.8-9c-1.4-0.4-2.8-0.5-4.2-0.2c3.1,1.1,5.5,3.1,8,5.1c2.5,2,4,4.8,6.1,7.4
		c0.2-1.4-0.5-2.5-0.1-3.9c2.4,1.7,4,4.1,6,6C355,225.9,354.8,230.4,355.8,234.5L355.8,234.5z M177,207.4c-2-0.1-4,0-6,0.4
		c-4.2,0.8-8.3,2.2-11.1,5.7c-3.5,4.3-6.1,9-7,14.6c-0.4,2-0.5,4-0.1,6c1.9-6.3,6-11,11.4-15.2c-1.7,0.1-2.7,0.8-4.2,0.5
		c2.1-2.9,4.5-5.6,7.1-8C169.8,208.7,173.7,208.8,177,207.4z M204.8,205.6c-0.7-0.9-0.9-1.1-1.9-1.2c-5-0.3-10-0.6-14.6,1.9
		c-0.7,0.4-1.4,0.6-2.1,0.8c-3,0.5-5.6,2.2-7,4.8c-2.1,3.1-3.8,6.4-5.2,9.9c-0.4,0.6-0.4,1.4-0.2,2.1c1.2-1.5,2.2-3.2,2.9-5
		c0.6-1.8,1.8-3.4,3.4-4.5c2.4-1.5,4.8-2.8,7.2-4.2c0.5-0.4,1.1-0.5,1.8-0.4c0,1.1-1,2-1.2,3.5C192.8,209,198.2,206,204.8,205.6z
		 M342.8,201.2c0.6-0.2,1.2-0.6,1.6-1.2c6.1-6.4,11.2-13.7,15-21.7c0.4-0.7,0.6-1.5,0.7-2.3c0-0.8,0-1.7-0.9-2.1
		c-0.8-0.4-1.8-0.1-2.3,0.6c-1.3,1.3-2.4,2.8-3.1,4.4C350.1,186.2,346.5,193.6,342.8,201.2z M342,259.9c-0.5-1.3-1.3-2.4-2.4-3.3
		c-1.9-1.7-4.1-3-6.4-4c-5.2-2.2-9.9-5.6-13.7-9.8c-1.1-1.2-2.4-2.2-3.9-2.9c0.1,3,0.3,3.8,1.8,5.6c3.3,3.8,7.1,6.9,12.2,8
		c4,0.9,8,2.3,11,5.4C341,259.3,341.5,259.6,342,259.9L342,259.9z M195.1,239.9c-1.6,1.4-3.1,2.5-4.4,3.8c-3.9,3.8-8.4,6.8-13.3,9.1
		c-2.3,1-4.5,2.4-6.4,4.1c-0.9,0.7-1.7,1.7-2.3,2.7c0.4,0.1,0.8-0.1,1.1-0.4c2.9-3.2,6.8-4.5,10.8-5.5c4.7-1.1,8.9-3.7,12.1-7.4
		C194.4,244.6,195.2,242.3,195.1,239.9z M255.2,188.3c-0.4,1.7-1,3.3-1.8,4.8c-1.2,2.2-1.2,4.9,0.1,7.1c0.5,0.9,0.8,1.9,1,2.8
		c0.1,0.7,0.4,1.3,0.9,1.8C259.3,196.9,259.1,196.5,255.2,188.3z M157.5,272l0.2-0.3c-5.7-2.7-8.8-8.3-13.6-12.1
		c1.4,3.8,3,7.5,5.8,10.5c0.9,0.9,2.1,1.5,3.4,1.6C154.7,271.8,156.1,271.9,157.5,272z M366.5,259.8c-4.4,4.2-8.3,8.7-13.4,12.1
		c2.2-0.2,4.5,0.3,6.3-0.9C363.5,268.3,364.8,263.9,366.5,259.8L366.5,259.8z M376.2,222.9c-1.4,7.6-5,14.4-8.3,21.3
		c1.5-1.4,2.9-2.8,4.2-4.2c1.4-1.3,2.4-2.9,3-4.7C375.9,231.2,376.3,227.1,376.2,222.9L376.2,222.9z M143,244.5
		c-1.9-3.4-3.6-7-5-10.7c-1.4-3.6-2.6-7.3-3.5-11.1C133.8,231.4,135.8,239,143,244.5L143,244.5z M335.1,230.4
		c0.2,0.7,0.7,0.7,1.1,0.9c2.6,1.2,3.5,2.6,3.3,5.5c-0.1,0.8-0.1,1.5,0,2.3c0.3,1,1.9,1.9,3.2,1.6c1.2-0.3,1.2-1.3,1.1-2.2
		C343.4,234,339.7,230.5,335.1,230.4z M175.7,230.5c-0.4-0.4-0.9-0.5-1.4-0.2c-2.1,0.5-4,1.7-5.4,3.4c-1.3,1.5-2,3.4-2.1,5.4
		c0,1.1,0.5,1.6,1.7,1.6c2.3-0.1,2.8-0.5,2.5-2.9c-0.5-2.8,1.1-5.6,3.7-6.6C175.1,231.1,175.6,231,175.7,230.5L175.7,230.5z
		 M221.6,212.3c-4.8,1.2-6,5.7-9,8.5c1-0.4,1.8-1.3,2.8-1.6C218.7,218,220.3,215.5,221.6,212.3L221.6,212.3z M289.2,212.3
		c1,4.8,4.9,6.3,8.4,8.1C295.4,217.2,293.1,214.2,289.2,212.3L289.2,212.3z M410.8,226.5L410.8,226.5c-0.1-0.1-0.2,0-0.2,0
		C410.6,226.5,410.7,226.6,410.8,226.5L410.8,226.5z M180.3,196.3C180.3,196.3,180.3,196.4,180.3,196.3c0,0.2,0.1,0.2,0.1,0.1
		c0,0,0-0.1,0-0.1C180.4,196.3,180.3,196.3,180.3,196.3z"/>
	<path id="Path_11519" class="st2" d="M208.2,292.4c9.6,0,19.3,0,28.9,0c5.8,0,11.6,0,17.3,0h2.1c9.7,0,19.3,0,29,0
		c5.7,0,11.3,0,17,0c0.7,0,1.3,0,2,0c44.6,0,89.1,0,133.7,0c1.6,0,1.9,0.5,1.9,2c-0.1,19.1-0.1,38.2,0,57.4c0,1.4-0.3,1.8-1.7,1.8
		c-122.2,0-244.4,0-366.6,0c-1.3,0-1.8-0.2-1.8-1.7c0.1-19.2,0.1-38.4,0-57.7c0-1.4,0.3-1.7,1.7-1.7c44.9,0,89.8,0,134.6,0
		C207,292.4,207.6,292.4,208.2,292.4z M205.3,323.7c-0.1,0-0.2,0.1-0.3,0.1c-0.2-0.4-0.5-0.7-0.7-1.1c-3.6-5.9-7.2-11.9-10.8-17.8
		c-0.4-0.8-1.3-1.3-2.2-1.2c-2.6,0.1-5.2,0.1-7.8,0c-0.9,0-1.3,0.1-1.3,1.2c0,12.1,0,24.2,0,36.4c0,0.9,0.3,1.2,1.2,1.2
		c2.7-0.1,5.5-0.1,8.2,0c1.2,0,1.5-0.3,1.5-1.5c-0.1-5.7,0-11.4,0-17V322c0.5,0.8,0.7,1.1,1,1.5c3.6,5.9,7.2,11.8,10.7,17.7
		c0.4,0.8,1.3,1.3,2.2,1.2c2.6-0.1,5.2-0.1,7.8,0c0.9,0,1.3-0.1,1.3-1.2c0-12.1,0-24.2,0-36.4c0-1-0.3-1.2-1.2-1.2
		c-2.7,0.1-5.4,0.1-8.1,0c-1.3-0.1-1.6,0.4-1.6,1.6C205.4,311.4,205.3,317.6,205.3,323.7z M138.7,342.4c-0.4-0.7-0.7-1.2-0.9-1.6
		c-2.5-3.9-5-7.7-7.5-11.6c-0.3-0.5-0.9-0.9,0.1-1.4c2.9-1.6,3.8-4.3,4-7.4c0.1-2.4,0-4.9,0-7.3c0-6-3.3-9.4-9.3-9.4
		c-6.9-0.1-13.8,0-20.7,0c-0.9,0-1.3,0.2-1.3,1.2c0,12.1,0,24.1,0,36.2c0,1,0.3,1.3,1.3,1.3c2.7-0.1,5.5-0.1,8.2,0
		c1.1,0,1.5-0.2,1.5-1.4c-0.1-3.5,0-7.1,0-10.7c0-0.4-0.2-0.8,0.2-1.1c0.8-0.5,3.5,0.2,4.1,1c2.4,3.7,4.9,7.5,7.3,11.2
		c0.3,0.5,0.5,1,1.2,1C130.6,342.4,134.5,342.4,138.7,342.4z M174.4,324v-11.6c0-0.1,0-0.2,0-0.3c-0.2-5.3-3.1-8.5-8.3-8.7
		c-5.2-0.2-10.3-0.2-15.5,0c-5.2,0.2-8.2,3.2-8.3,8.4c-0.2,7.6-0.2,15.2,0,22.8c0.1,5,3.2,8.2,8,8.4c5.3,0.2,10.6,0.2,16,0
		c4.4-0.1,7.3-2.8,7.9-7.1C174.8,331.6,174.3,327.3,174.4,324L174.4,324z M279.4,323.1L279.4,323.1c0,3.7-0.1,7.4,0,11.1
		c0.1,5.5,3.3,8.6,8.8,8.8c4.8,0.1,9.5,0.1,14.3,0c5.9-0.1,9-3.2,9.1-9.1c0.1-7.1,0.1-14.3,0-21.4c-0.1-5.7-3.1-8.9-8.6-9.1
		c-5.1-0.2-10.2-0.2-15.3,0c-5.1,0.2-8.1,3.3-8.2,8.5C279.3,315.6,279.4,319.3,279.4,323.1L279.4,323.1z M375,342.9
		c2.6,0,5.3,0.1,7.9,0c4.7-0.2,7.6-2.9,8.2-7.6c0.3-2.9,0.4-5.8,0.1-8.7c-0.3-4.3-2.3-6.4-6.5-7.5c-0.6-0.2-1.3-0.3-1.9-0.4
		c-3.7-0.6-7.5-1.1-11.2-1.7c-1.6-0.3-1.8-0.7-1.6-3c0.1-1.3,1-1.6,2.1-1.6c2,0,4.1,0,6.1,0c1.1,0,1.9,0.4,2,1.6
		c0.1,0.5,0.2,0.9,0.9,0.8c3.1-0.4,6.1-0.8,9.2-1.2c0.6-0.1,0.8-0.3,0.8-0.8c0.1-4.7-1.8-9-7.5-9.5c-5.7-0.4-11.3-0.4-17,0
		c-3.9,0.2-6.4,2.7-7.2,6.5c-0.6,2.9-0.3,5.9-0.3,8.8c0.1,4.6,1.9,6.9,6.3,8.1c0.6,0.2,1.3,0.3,1.9,0.4c3.8,0.6,7.6,1.1,11.4,1.8
		c1.6,0.3,1.8,0.9,1.7,3c-0.1,1.4-0.9,1.8-2.1,1.8c-2.1,0-4.3,0-6.4,0c-1.1,0-2-0.4-2.1-1.7c0-0.7-0.4-0.8-1-0.7c-3,0.4-6,0.7-9,1.1
		c-0.6,0.1-0.9,0.3-0.9,0.9c-0.5,4.5,2.6,8.6,7.1,9.3C368.9,343.3,372,342.8,375,342.9L375,342.9z M238.1,323.1c0,6,0,12,0,17.9
		c0,1.1,0.3,1.5,1.4,1.4c2.7-0.1,5.5-0.1,8.2,0c1.1,0,1.3-0.4,1.3-1.4c-0.1-4.1,0-8.1,0-12.2c0-1,0.3-1.4,1.3-1.4
		c2.9,0.1,5.9,0.1,8.8,0c1.1,0,1.4,0.4,1.3,1.4c-0.1,4.1,0,8.2,0,12.3c0,0.9,0.2,1.3,1.2,1.2c2.8-0.1,5.7,0,8.5,0
		c0.8,0,1.2-0.2,1.2-1.1c0-12.2,0-24.3,0-36.5c0-0.9-0.3-1.1-1.1-1.1c-2.8,0-5.6,0.1-8.4,0c-1.1,0-1.3,0.4-1.3,1.4c0.1,4,0,8,0,12
		c0,0.9-0.2,1.2-1.2,1.2c-3-0.1-6-0.1-9,0c-1.1,0-1.4-0.3-1.4-1.3c0.1-3.9,0-7.7,0.1-11.6c0-1.3-0.2-1.8-1.6-1.7
		c-2.6,0.1-5.2,0.1-7.8,0c-1.2,0-1.6,0.3-1.6,1.6C238.1,311.2,238.1,317.1,238.1,323.1L238.1,323.1z M351.3,319.9c0-5,0-9.9,0-14.9
		c0-1.1-0.3-1.4-1.4-1.3c-2.7,0.1-5.4,0.1-8.1,0c-1.2,0-1.4,0.4-1.4,1.5c0,6.4,0,12.9,0,19.3c0,2.3,0,4.7,0,7c0,1.8-0.5,2.2-2.3,2.3
		c-1.4,0-2.8,0-4.3,0c-3.2,0-3.4-0.2-3.4-3.3c0-8.4,0-16.8,0-25.2c0-0.9,0-1.5-1.2-1.5c-2.9,0.1-5.8,0.1-8.7,0c-0.8,0-1,0.2-1,1
		c0,9.8-0.1,19.6,0.1,29.4c0.1,5.6,3.3,8.7,8.9,8.8c4.5,0.1,8.9,0.1,13.4,0c6.3-0.1,9.3-3.3,9.4-9.6
		C351.3,328.9,351.3,324.4,351.3,319.9L351.3,319.9z M412.8,342.5c4.2,0,8.4,0,12.6,0c1,0,1.3-0.3,1.3-1.3c-0.1-2.2-0.1-4.5,0-6.7
		c0.1-1.2-0.4-1.4-1.5-1.4c-4.7,0.1-9.4,0-14.1,0c-0.9,0-1.3-0.2-1.2-1.2c0.1-1.1,0.1-2.2,0-3.3c-0.1-1.1,0.3-1.4,1.3-1.3
		c4,0.1,7.9,0,11.9,0c1,0,1.3-0.3,1.3-1.3c-0.1-2.3-0.1-4.6,0-6.8c0-1-0.3-1.3-1.3-1.3c-3.2,0.1-6.4,0-9.6,0c-3.6,0-3.6,0-3.6-3.6
		c0-1.2,0.4-1.4,1.5-1.4c4.7,0.1,9.3,0,14,0c0.9,0,1.4-0.1,1.3-1.2c-0.1-2.3-0.1-4.7,0-7c0-1-0.4-1.2-1.2-1.2c-8.4,0-16.8,0-25.2,0
		c-0.9,0-1.2,0.3-1.2,1.2c0,12.1,0,24.2,0,36.3c0,1.1,0.4,1.3,1.3,1.3C404.5,342.5,408.6,342.5,412.8,342.5L412.8,342.5z
		 M94.4,323.3c0-6.1,0-12.2,0-18.3c0-1.1-0.3-1.4-1.3-1.4c-2.7,0.1-5.5,0.1-8.2,0c-1,0-1.4,0.2-1.4,1.3c0,12.1,0,24.1,0,36.2
		c0,1,0.3,1.3,1.3,1.3c2.7,0,5.5-0.1,8.2,0c1.1,0,1.5-0.3,1.4-1.4C94.4,335.2,94.4,329.2,94.4,323.3z"/>
	<path id="Path_11520" class="st1" d="M346.5,372.9c0,1.6,0,3,0,4.4c0,0.9-0.3,1.2-1.1,1.1c-0.5,0-0.9,0-1.4,0
		c-0.6,0-0.9-0.2-0.9-0.9c0-3.3,0-6.7,0-10c0-0.7,0.3-0.7,0.9-0.9c2-0.4,2.9,0.7,3.7,2.2c1.4,2.5,1.5,2.5,3,0
		c0.8-1.2,1.3-2.6,3.2-2.3c1.1,0.2,1.5,0.3,1.4,1.4c-0.1,3-0.1,6.1,0,9.1c0,0.8-0.1,1.3-1.1,1.3c-2.2,0-2.2,0.1-2.2-2.2v-3.4
		c-1,0.6-1.3,1.6-1.8,2.3c-0.6,0.9-1.3,0.9-2,0C347.7,374.4,347.5,373.5,346.5,372.9z"/>
	<path id="Path_11521" class="st1" d="M274.5,371.9c0-1.4,0.1-2.8,0-4.2c-0.1-0.9,0.3-1.2,1.1-1.1c0.5,0,0.9,0,1.4,0
		c0.6,0,0.9,0.1,0.9,0.8c0,3.3,0,6.7,0,10c0,0.7-0.2,0.8-0.9,0.9c-1.6,0.1-2.8,0-3.5-1.8c-0.7-1.4-1.5-2.7-2.6-3.8
		c0,1.4-0.1,2.9,0,4.3c0.1,1.1-0.3,1.4-1.4,1.3c-0.4,0-0.8,0-1.2,0c-0.6,0-0.8-0.1-0.8-0.8c0-3.4,0-6.8,0-10.2
		c0-0.6,0.1-0.8,0.8-0.8c1.6-0.1,2.9,0,3.6,1.8c0.6,1.2,1.3,2.4,2.2,3.6C274.2,372,274.3,372,274.5,371.9z"/>
	<path id="Path_11522" class="st1" d="M417.6,373c0,1.3-0.1,2.7,0,4c0.1,1.2-0.4,1.5-1.4,1.4c-0.4,0-0.7,0-1.1,0
		c-0.6,0-0.9-0.2-0.9-0.9c0-3.3,0-6.7,0-10c0-0.7,0.3-0.8,0.9-0.9c1.6-0.2,2.8,0.1,3.5,1.8c0.8,1.5,1.6,2.9,2.6,4.3c0-2,0-3.6,0-5.1
		c0-0.8,0.2-1.1,1-1c0.5,0.1,0.9,0.1,1.4,0c0.7-0.1,1,0.2,0.9,0.9c0,3.3,0,6.6,0,9.9c0,0.8-0.3,0.9-1,0.9c-1.4,0.4-2.9-0.4-3.4-1.8
		c-0.7-1.3-1.4-2.5-2.2-3.7C417.8,373,417.7,373,417.6,373z"/>
	<path id="Path_11523" class="st1" d="M160.2,378.3c-0.4,0.1-0.5,0.1-0.5,0.1c-2.4,0.4-4.1-0.3-5-2.7c-0.2-0.4-0.4-0.7-0.7-1
		c-0.2-0.2-0.5-0.3-0.8-0.3c-0.4,0.1-0.4,0.4-0.4,0.7c0,0.4,0,0.8,0,1.2c0,2-0.7,2.5-2.8,2.1c-0.6-0.1-0.5-0.5-0.5-0.9
		c0-3.3,0-6.6,0-9.9c0-0.7,0.2-1,0.9-0.9c1.9,0.1,3.8,0,5.6,0c1.9,0,2.9,1,2.9,2.9c0,1.5,0.4,3.2-1.1,4.4c-0.4,0.3,0.1,0.6,0.2,0.9
		C158.6,376,159.4,377.1,160.2,378.3z M154,369.6c-0.7,0-1.3-0.1-1.4,1c0,1.3,0.8,0.9,1.5,1c0.7,0,1.4,0.2,1.4-1
		C155.6,369.3,154.7,369.6,154,369.6z"/>
	<path id="Path_11524" class="st1" d="M246.4,378.4c-1.3,0-2.3,0-3.3,0c-0.5,0-0.9-0.3-1.1-0.7c-0.5-0.9-1.1-1.7-1.6-2.6
		c-0.3-0.4-0.6-0.9-1.2-0.7c-0.5,0.2-0.3,0.7-0.3,1.1c-0.1,0.4-0.1,0.8,0,1.2c0.2,1.3-0.3,1.7-1.6,1.7c-1.5,0-1.8-0.4-1.8-1.9
		c0.1-2.9,0.1-5.8,0-8.7c0-1.1,0.3-1.3,1.3-1.3c1.8,0.1,3.5,0,5.3,0c1.8,0,2.8,0.9,2.8,2.7c0,1.6,0.5,3.3-1,4.5
		c-0.4,0.4-0.1,0.6,0.1,0.9C244.8,375.9,245.5,377,246.4,378.4z M240.1,371.5c0.7-0.1,1.6,0.3,1.6-1c0-1.2-0.7-1-1.4-1
		c-0.8,0-1.5-0.2-1.4,1.1C238.9,371.8,239.5,371.5,240.1,371.5z"/>
	<path id="Path_11525" class="st1" d="M338.1,378.2c-0.1,0.1-0.2,0.1-0.3,0.1c-2.4,0.4-4.3-0.1-5.2-2.6c-0.2-0.4-0.4-0.8-0.8-1.1
		c-0.5-0.4-1.1-0.5-1.1,0.4c-0.1,0.6-0.1,1.2,0,1.8c0.2,1.5-0.6,1.5-1.7,1.5c-1,0-1.8,0.1-1.7-1.4c0.1-3,0.1-6.1,0-9.1
		c0-0.9,0.1-1.3,1.1-1.2c1.8,0.1,3.6,0,5.5,0c2,0,2.9,0.9,2.9,2.9c0,1.5,0.5,3.2-1,4.4c-0.4,0.3,0.1,0.6,0.2,0.9
		C336.6,376,337.3,377,338.1,378.2z M331.8,371.5c0.9,0,1.7,0.2,1.7-1c0-1.2-0.8-0.9-1.5-0.9s-1.4-0.2-1.4,1
		C330.6,371.7,331.3,371.6,331.8,371.5z"/>
	<path id="Path_11526" class="st1" d="M288.2,378.5c-0.8,0-1.6,0-2.4,0c-0.8,0-1.5-0.4-2-1c-0.4-0.5-0.6-1.2-0.4-1.9
		c0.2-0.7,1-0.3,1.4-0.5c1.3-0.7,2.2,0.8,3.5,0.6c0.5-0.1,1.4,0.2,1.5-0.6c0.1-1.1-0.8-0.8-1.4-0.9c-1-0.2-2-0.3-3-0.5
		c-1.2-0.1-2.1-1.2-2-2.4c0-0.7,0-1.3,0-2c0.1-1.8,0.9-2.6,2.8-2.7c1.4-0.1,2.7,0,4.1,0c0.3,0,0.6,0.1,0.9,0.1
		c1,0.2,1.8,1.1,1.9,2.1c0.1,0.3,0.2,0.8-0.2,0.9c-1,0.1-2,0.6-3.1,0.1c-0.1,0-0.1-0.2-0.2-0.2c-0.9-0.3-1.8-0.3-2.6,0
		c-0.3,0.1-0.3,0.5-0.2,0.7c0.4,0.9,1.3,0.6,2,0.7c0.2,0.1,0.5,0.1,0.8,0.1c3.5,0.6,3.9,1.1,3.7,4.6c-0.1,2-1,2.9-3.1,2.9
		C289.4,378.6,288.8,378.6,288.2,378.5C288.2,378.5,288.2,378.5,288.2,378.5z"/>
	<path id="Path_11527" class="st1" d="M185.4,372.4c0-1.1,0-2.2,0-3.3c-0.1-1.2,0.8-2.3,2-2.5c0.1,0,0.2,0,0.3,0
		c1.7-0.1,3.3-0.1,5,0c1.3,0,2.3,1,2.4,2.2c0,0.1,0,0.1,0,0.2c0.1,2.3,0.1,4.7,0,7c0.1,1.3-0.9,2.5-2.3,2.5c-0.1,0-0.2,0-0.4,0
		c-1.5,0.1-3,0.1-4.5,0c-1.3,0.1-2.4-0.9-2.5-2.3c0-0.1,0-0.2,0-0.4C185.4,374.7,185.4,373.6,185.4,372.4z M191.8,372.5
		c0-0.8,0-1.5,0-2.3c0-1.3-1-0.9-1.6-0.9c-0.7,0-1.5-0.2-1.4,0.9c0,1.5,0,2.9,0,4.4c0,0.5,0.1,0.9,0.7,1c1.7,0.5,2.4-0.1,2.4-1.8
		C191.8,373.5,191.8,373,191.8,372.5z"/>
	<path id="Path_11528" class="st1" d="M321.7,372.5c0,1.2,0,2.3,0,3.5c0.1,1.3-0.9,2.4-2.2,2.5c-0.1,0-0.2,0-0.2,0
		c-1.6,0.1-3.1,0.1-4.7,0c-1.3,0.1-2.5-1-2.6-2.3c0-0.1,0-0.2,0-0.3c-0.1-2.3-0.1-4.5,0-6.8c-0.1-1.3,0.8-2.4,2.1-2.5
		c0.1,0,0.2,0,0.2,0c1.7-0.1,3.3-0.1,5,0c1.3,0,2.4,1,2.4,2.2c0,0.1,0,0.2,0,0.3C321.7,370.3,321.7,371.4,321.7,372.5z M315.3,372.4
		c0,0.7,0,1.4,0,2.1c-0.1,1.3,0.7,1.2,1.5,1.2c0.9,0,1.6,0.1,1.6-1.2c-0.1-1.3-0.1-2.6,0-4c0.1-1.1-0.4-1.2-1.3-1.3
		c-1.3-0.1-2,0.2-1.8,1.7C315.3,371.5,315.3,372,315.3,372.4z"/>
	<path id="Path_11529" class="st1" d="M399,372.5c0-1.1,0-2.2,0-3.3c0-1.6,0.8-2.5,2.3-2.6c1.7-0.1,3.3-0.1,5,0
		c1.3,0,2.3,0.9,2.4,2.2c0,0.1,0,0.2,0,0.2c0.1,2.3,0.1,4.6,0,7c0.1,1.3-1,2.5-2.3,2.5c-0.1,0-0.2,0-0.3,0c-1.5,0-2.9,0-4.4,0
		c-1.8-0.1-2.6-1-2.7-2.8C399,374.7,399,373.6,399,372.5z M405.4,372.6c0-0.8,0-1.5,0-2.3c0.1-1.2-0.8-0.9-1.5-0.9
		c-0.7,0-1.6-0.4-1.6,0.9c0,1.4,0,2.8,0,4.3c0,1,0.4,1.2,1.3,1.2c1.4,0.1,2.1-0.3,1.9-1.8C405.4,373.5,405.3,373,405.4,372.6z"/>
	<path id="Path_11530" class="st1" d="M106.5,372.5c0,1.6-0.1,3.1,0,4.7c0,0.9-0.2,1.2-1.2,1.2c-2.1,0-2.1,0-2.1-2
		c0-0.2,0-0.3,0-0.5c-0.1-0.6,0.3-1.7-0.2-1.9c-0.9-0.2-1.9-0.3-2.8-0.1c-0.4,0-0.4,0.4-0.4,0.7c0,0.7,0,1.4,0,2.1
		c0.2,1.3-0.3,1.7-1.6,1.7c-1.5,0-1.8-0.4-1.8-1.9c0.1-2.9,0.1-5.8,0-8.7c0-0.9,0.1-1.3,1.2-1.3c2.2,0.1,2.2,0,2.2,2.1
		c0,0.4,0,0.8,0,1.2c-0.1,0.9,0.2,1.2,1.1,1.1c0.4-0.1,0.8-0.1,1.2,0c0.8,0.1,1.2-0.1,1.1-1c-0.1-0.5,0.1-1.1,0-1.7
		c-0.2-1.3,0.2-1.8,1.7-1.8c1.5,0,1.8,0.5,1.7,1.8C106.4,369.7,106.5,371.1,106.5,372.5z"/>
	<path id="Path_11531" class="st1" d="M112.3,372.5c0-1.6,0-3.2,0-4.9c0-0.7,0.1-1,0.9-0.9c2.2,0.1,4.4,0.1,6.5,0
		c1.4,0,0.8,1,0.9,1.6c0.1,0.6,0.3,1.5-0.9,1.4c-1.1-0.1-2.1,0-3.2,0c-0.5,0-0.8,0.1-0.8,0.7c0,0.7,0.4,0.7,0.9,0.7
		c0.6,0,1.2,0,1.8,0c1.3-0.2,1.8,0.2,1.7,1.6c-0.1,0.9-0.2,1.4-1.3,1.3c-0.7-0.1-1.5,0-2.3,0c-0.7-0.1-0.8,0.3-0.8,0.9
		c0,0.7,0.2,0.9,0.9,0.8c0.8,0,1.6,0.1,2.4,0c1.4-0.2,1.8,0.3,1.7,1.7c-0.1,0.9-0.2,1.2-1.2,1.2c-2-0.1-4.1-0.1-6.1,0
		c-0.8,0-1.2-0.2-1.1-1.1C112.3,375.7,112.3,374.1,112.3,372.5z"/>
	<path id="Path_11532" class="st1" d="M256.7,366.7c2.3,0,2.3,0,3,2.2c0.8,2.7,1.7,5.5,2.5,8.2c0.3,1,0.3,1.4-0.9,1.3
		c-1.3,0-2.6,0.1-2.6-1.7c0-0.5-0.4-0.6-0.9-0.6c-0.7,0-1.4,0-2.1,0c-0.7-0.1-1.1,0.1-1.3,0.9c-0.1,0.5,0,1.3-0.7,1.3
		c-0.9,0.1-1.8,0.1-2.7,0c-0.4,0-0.2-0.5-0.1-0.8c1-3.4,2.1-6.8,3.1-10.3c0.1-0.4,0.4-0.7,0.8-0.6c0,0,0,0,0,0
		C255.4,366.7,256.1,366.7,256.7,366.7z M256.8,370c-0.1,0-0.2,0-0.3,0c-0.2,0.7-0.4,1.3-0.6,2c-0.1,0.4-0.5,0.8,0,1.1
		c0.5,0.2,1,0.2,1.5,0c0.5-0.2,0.1-0.7,0-1.1C257.2,371.4,256.9,370.7,256.8,370L256.8,370z"/>
	<path id="Path_11533" class="st1" d="M132.4,378.3c1.1-3.7,2.2-7.2,3.3-10.7c0-0.1,0-0.2,0.1-0.3c1.1-1.5,2.6-0.3,3.9-0.6
		c0.5-0.1,1.1-0.2,1.4,0.7c1,3.4,2,6.8,3.1,10.1c0.2,0.7,0.1,0.9-0.6,0.9c-1.3,0-2.9,0.4-3.1-1.7c0-0.4-0.3-0.6-0.7-0.6
		c-0.9,0-1.8,0-2.7,0c-0.3,0-0.6,0.1-0.6,0.5c-0.1,2-1.5,1.9-2.9,1.8C133.2,378.4,132.9,378.4,132.4,378.3z M138.4,369.5
		c-0.4,1.4-0.7,2.5-1,3.5c2.1,0.2,2.1,0.2,1.6-1.7C138.8,370.9,138.6,370.4,138.4,369.5z"/>
	<path id="Path_11534" class="st1" d="M370.7,378.3c-1.4,0.4-2-0.1-2.1-1.3c-0.1-0.7-0.4-0.9-1.1-0.9c-0.7,0.1-1.3,0.1-2,0
		c-0.7-0.1-1.1,0.2-1.2,0.9c-0.3,1.1-2.5,1.9-3.5,1.3c-0.4-0.3-0.1-0.6-0.1-0.8c1-3.4,2-6.8,3.1-10.1c0.1-0.3,0.1-0.7,0.6-0.7
		c1.4,0,2.7,0,4.1,0c0.5,0,0.5,0.5,0.6,0.8c1,3.3,2.1,6.6,3,10C372.6,379.5,370.7,377.6,370.7,378.3z M366.3,369.8
		c-0.3,0.9-0.5,1.6-0.7,2.3c-0.1,0.3-0.5,0.9,0.1,1c0.5,0.2,1,0.2,1.5,0c0.5-0.2,0.1-0.7,0-1C367,371.3,366.7,370.5,366.3,369.8
		L366.3,369.8z"/>
	<path id="Path_11535" class="st1" d="M298.6,372.5c0-1.6,0-3.2,0-4.9c0-0.7,0.1-1.1,1-1c2.2,0.1,4.4,0.1,6.5,0
		c1.1,0,0.9,0.7,0.9,1.3c-0.1,0.6,0.5,1.7-0.8,1.6c-1,0-1.9,0-2.9,0c-0.6,0-1.3-0.3-1.3,0.9c0,1.2,0.7,0.9,1.4,0.9
		c0.5,0,0.9,0,1.4,0c1.3-0.2,1.7,0.3,1.7,1.6c0,1.2-0.5,1.3-1.4,1.3c-2.9,0-3,0-2.9,2.8c0.1,1.5-0.7,1.4-1.6,1.3
		c-0.9,0-2,0.4-1.8-1.3C298.6,375.6,298.6,374,298.6,372.5z"/>
	<path id="Path_11536" class="st1" d="M200.7,378.2c0-3.5,0-7.2,0-10.8c0-0.6,0.2-0.8,0.8-0.8c2.2,0,4.4,0,6.5,0
		c0.7,0,0.8,0.2,0.9,0.8c0.1,2.1,0.1,2.1-1.9,2.1c-0.7,0-1.3,0-2,0c-0.8-0.1-1.1,0.1-1.1,1c0,0.8,0.4,0.9,1,0.9c0.6,0,1.1,0,1.7,0
		c1.7,0,2.1,0.6,1.7,2.3c-0.1,0.6-0.5,0.5-0.9,0.5c-1.1,0-2.5-0.4-3.3,0.2c-0.8,0.6-0.2,2.1-0.2,3.2c0,0.5-0.2,0.7-0.7,0.7
		C202.4,378.2,201.6,378.2,200.7,378.2z"/>
	<path id="Path_11537" class="st1" d="M168.4,366.7c1.3,0,2.5,0.1,3.8,0c1-0.1,1.1,0.5,1,1.2c-0.1,0.6,0.6,1.7-0.9,1.8
		c-2.2,0.1-2.2,0.1-2.2,2.4c0,1.8,0,3.6,0,5.5c0,0.7-0.2,0.9-1,1c-2.4,0.1-2.4,0.1-2.4-2.2c0-1.7-0.1-3.4,0-5.2
		c0.1-1.1-0.2-1.5-1.4-1.5c-1.7,0.1-2.3-0.8-1.8-2.5c0.2-0.5,0.5-0.4,0.8-0.4C165.6,366.7,167,366.7,168.4,366.7z"/>
	<path id="Path_11538" class="st1" d="M380.3,366.7h3c0.9-0.1,1.8,0.5,1.9,1.5c0,0.4,0,0.8-0.2,1.1c-0.3,0.6-1,0.4-1.5,0.3
		c-1.2-0.1-1.7,0.2-1.6,1.5c0.1,2.1,0,4.1,0.1,6.2c0,0.9-0.3,1.1-1.1,1.1c-2.3,0-2.3,0.1-2.3-2.2c0-1.8-0.1-3.5,0-5.3
		c0-1-0.3-1.4-1.3-1.4c-2.1,0-2.1,0-2-2c0-0.7,0.3-0.8,0.9-0.8C377.5,366.7,378.9,366.7,380.3,366.7z"/>
	<path id="Path_11539" class="st1" d="M225.7,366.7h3.2c0.9,0,1.7,0.7,1.8,1.6c0,0.3-0.1,0.7-0.3,1c-0.3,0.7-1,0.4-1.5,0.3
		c-1.3-0.2-1.7,0.3-1.6,1.6c0.1,2,0,4.1,0.1,6.1c0,0.8-0.2,1.1-1.1,1.1c-2.2,0-2.2,0.1-2.2-2.1c0-1.7-0.1-3.5,0-5.2
		c0.1-1.4-0.3-1.8-1.6-1.6c-1,0.2-1.7,0-1.6-1.4c0-1.3,0.4-1.7,1.6-1.5C223.5,366.7,224.6,366.7,225.7,366.7z"/>
	<path id="Path_11540" class="st1" d="M86.6,366.7h3c1.7,0,2.3,0.8,1.8,2.4c-0.2,0.8-0.9,0.5-1.2,0.4c-1.5-0.2-2,0.3-1.9,1.8
		c0.2,2,0,4,0.1,5.9c0,0.8-0.2,1.2-1.1,1.1c-0.5-0.1-0.9-0.1-1.4,0c-0.7,0.1-0.9-0.2-0.9-0.9c0-2.1-0.1-4.3,0-6.4
		c0.1-1.3-0.3-1.7-1.6-1.5c-0.9,0.1-1.8,0.3-1.7-1.3c0-1.3,0.3-1.8,1.7-1.6C84.5,366.7,85.5,366.7,86.6,366.7z"/>
	<path id="Path_11541" class="st1" d="M393.4,372.6c0,1.5-0.1,3,0,4.6c0,0.9-0.2,1.2-1.2,1.2c-2.7-0.1-2.2,0.2-2.2-2.1
		c0-2.8,0-5.7,0-8.5c0-0.9,0.2-1.1,1.1-1.1c2.3,0,2.3,0,2.3,2.2C393.4,370.1,393.4,371.4,393.4,372.6z"/>
	<path id="Path_11597" class="st1" d="M321.8,210.1c0-0.1,0-0.2,0-0.4c0.1,0,0.2,0,0.4,0.1C322,209.9,321.9,210,321.8,210.1z"/>
	<path id="Path_11598" class="st2" d="M118,320c-1.3-0.1-3,0.4-3.8-0.3c-0.9-0.8-0.3-2.6-0.3-3.9c-0.1-2.8,0-2.8,2.7-2.8
		c1.6,0,3.2,0,4.9,0c1.3,0,1.9,0.5,1.9,1.8c0,1,0,1.9,0,2.9c0,1.7-0.4,2.1-2.2,2.2C120.1,320,119.1,320,118,320
		C118,320,118,320,118,320z"/>
	<path id="Path_11599" class="st2" d="M163.5,323.2c0,2.8,0,5.6,0,8.4c0,1.7-0.5,2.2-2.2,2.2c-2,0-4,0-6.1,0c-1.4,0-2.2-0.6-2.2-2.1
		c0-5.7,0-11.4,0-17.2c0-1.4,0.6-2.1,2-2c2.1,0,4.3,0,6.4,0c1.4,0,2,0.7,2,2C163.5,317.4,163.5,320.3,163.5,323.2z"/>
	<path id="Path_11600" class="st2" d="M300.7,323.1c0,2.8,0,5.6,0,8.4c0,1.7-0.5,2.3-2.3,2.3c-1.8,0-3.6,0-5.5,0
		c-2.3,0-2.7-0.4-2.8-2.8c0-4.8,0-9.6,0-14.4c0-0.7,0-1.4,0-2.1c0-1.4,0.7-2,2.1-2c2.1,0.1,4.2,0,6.2,0c1.6,0,2.1,0.5,2.1,2.1
		C300.7,317.4,300.7,320.3,300.7,323.1z"/>
</g>
</svg>
