<?xml version="1.0" encoding="utf-8"?>
<!-- Generator: Adobe Illustrator 26.0.1, SVG Export Plug-In . SVG Version: 6.00 Build 0)  -->
<svg version="1.1" id="GeorgeSamuel.me" xmlns="http://www.w3.org/2000/svg" xmlns:xlink="http://www.w3.org/1999/xlink" x="0px"
	 y="0px" viewBox="0 0 512 512" style="enable-background:new 0 0 512 512;" xml:space="preserve">
<style type="text/css">
	.st0{fill:#111111;}
	.st1{fill:#FFFFFF;}
</style>
<g id="www.GeorgeSamuel.me_00000054260602111880088640000008402501107046774712_">
	<rect class="st0" width="512" height="512"/>
	<circle class="st0" cx="256" cy="256" r="256"/>
	<g id="www.GeorgeSamuel.me">
		<path id="Path_11300" class="st1" d="M158.5,324.1v-33.5c-0.1-0.5,0.1-1.1,0.5-1.5c0.3-0.2,0.7-0.3,1.1-0.2c17.4,0,34.9,0,52.3,0
			c3.3,0,2.7,1.7,2.7,4.5c0,2.9,0,5.8,0,8.7c0,6,0,12,0,18c0,12,0,24,0,36.1c0.1,0.5-0.1,1-0.4,1.3c-0.3,0.2-0.6,0.2-1,0.2
			c-17.9,0-35.9,0-53.8,0c-0.4,0-0.8-0.1-1.1-0.3c-0.2-0.3-0.3-0.7-0.3-1.1C158.5,345.5,158.5,334.8,158.5,324.1z M173.3,319
			c0,7.4-0.1,14.9-0.1,22.3c0,0.4,0.1,0.8,0.3,1.2c0.4,0.3,0.9,0.5,1.3,0.4c7.6,0.1,15.2,0.1,22.9,0.2c0.9,0.3,1.9-0.2,2.2-1
			c0.1-0.3,0.1-0.6,0.1-0.9c0-10.8,0-21.6-0.1-32.4c0-1.7,0.5-4-1.2-4.9c-1.7-0.9-5.8-0.1-7.6-0.1h-16.1c-0.3,0-0.7,0-1,0.2
			c-0.6,0.3-0.6,1.1-0.6,1.8C173.3,310.2,173.3,314.6,173.3,319z"/>
		<path id="Path_11301" class="st1" d="M242.3,289l0.4,0c0,17.6,0,35.1,0.1,52.7c-0.1,0.4,0.1,0.9,0.4,1.2c0.3,0.2,0.6,0.2,0.9,0.2
			c8-0.1,15.9-0.1,23.9-0.2c0.4,0.1,0.9-0.1,1.2-0.3c0.3-0.4,0.5-0.9,0.4-1.4c0-16.9,0-33.8,0-50.7c-0.2-0.7,0.1-1.4,0.8-1.7
			c0.2-0.1,0.5-0.1,0.7,0c3.4,0,6.8,0,10.3,0c4.1,0.1,3.2,2,3.2,5.6c0,6.9,0,13.8,0,20.7c0,13.6,0,27.2,0,40.8
			c0.2,0.7-0.3,1.4-1,1.6c-0.2,0.1-0.5,0-0.7,0c-17.7,0-35.5,0-53.3,0.1c-0.4,0-0.8,0-1.1-0.2c-0.3-0.4-0.5-0.9-0.4-1.4
			c-0.1-22.4,0-44.8,0.1-67.3C232.9,288.7,237.6,288.8,242.3,289z"/>
		<path id="Path_11302" class="st1" d="M257.1,262.9c-0.1,0-0.1,0-0.2,0c-0.8,0-1.5-0.4-2-1c-12.9-13-25.8-25.9-38.7-38.9
			c-0.7-0.4-1-1.4-0.6-2.1c0.1-0.2,0.3-0.4,0.6-0.6c5.2-5.2,10.5-10.5,15.7-15.7c0.7-0.7,1.5-1.6,1.3-2.6c-0.2-0.7-0.6-1.2-1.1-1.7
			c-11.6-11.7-23.3-23.3-34.9-35c-0.6-0.5-1-1.1-1-1.9c0.1-0.6,0.5-1.2,1-1.6c13-13,25.9-26,38.9-39c0.4-0.5,0.9-0.8,1.5-0.9
			c0.5,0.1,1,0.4,1.3,0.8l15.9,16.2c0.5,0.7,1.3,1.1,2.1,1.2c0.7-0.1,1.3-0.5,1.7-1.1c5.4-5.4,10.8-10.9,16.2-16.3
			c0.4-0.5,0.9-0.8,1.5-0.8c0.5,0.1,0.9,0.4,1.1,0.7c13,13.1,26,26.2,39,39.2c0.4,0.3,0.6,0.7,0.8,1.2c0.2,0.8-0.5,1.6-1,2.2
			c-11.7,11.7-23.4,23.3-35,35c-0.5,0.4-0.8,0.9-1,1.5c-0.2,1,0.6,1.9,1.3,2.7c5.1,5.1,10.2,10.2,15.3,15.3c0.6,0.4,0.9,1.1,1,1.8
			c-0.1,0.6-0.4,1.2-0.9,1.6c-12.6,13.2-25.7,25.9-38.6,38.8C258,262.4,257.6,262.7,257.1,262.9z M278.7,163.4
			c-0.1,0.5-0.3,1-0.7,1.3c-5.6,5.7-11.2,11.3-16.8,17c-0.3,0.3-0.6,0.7-0.6,1.1c0.1,0.3,0.2,0.6,0.5,0.9c3.7,4.1,7.5,8,11.4,11.9
			c2.3,2.3,3.2,3.6,5.9,1.1c2.2-2.1,4.4-4.4,6.5-6.6l25.1-25.2c0.5-0.5,1-1.1,0.8-1.8c-0.1-0.3-0.3-0.7-0.6-0.9
			c-11.2-11.3-22.5-22.6-33.7-33.8c-0.2-0.3-0.5-0.4-0.8-0.2c-0.1,0.1-0.2,0.1-0.2,0.2c-4.7,4.7-9.5,9.4-14.2,14.1
			c-0.3,0.2-0.5,0.5-0.6,0.9c-0.3,0.8,0.4,1.7,1,2.3l16.3,16.6c0.3,0.3,0.6,0.6,0.6,1C278.7,163.3,278.7,163.4,278.7,163.4z
			 M291.3,222.1c0-0.9-0.5-1.8-1.2-2.4c-4.3-4.5-8.7-9-13.2-13.3c-0.3-0.5-0.9-0.6-1.4-0.3c-0.1,0.1-0.3,0.2-0.4,0.4
			c-11,11-22,22-33.1,33c-0.3,0.3-0.6,0.6-0.8,1c-0.4,1,0.5,2.1,1.3,2.8c4.4,4.3,8.8,8.6,13.2,12.9c0.4,0.6,1.2,0.8,1.8,0.4
			c0.2-0.1,0.4-0.3,0.5-0.5c10.7-11,21.7-21.7,32.4-32.6c0.3-0.3,0.6-0.7,0.8-1.1C291.3,222.3,291.3,222.2,291.3,222.1z M218.4,148
			c-0.8-0.2-1.6,0.5-2.2,1.1c-4.4,4.4-8.8,8.7-13.3,13.1c-0.3,0.3-0.6,0.7-0.7,1.1c0,0.5,0.3,1,0.7,1.4
			c10.9,10.9,21.8,21.8,32.7,32.7c2.7,2.7,5.7-2.4,7.6-4.3c2.9-2.9,5.8-5.8,8.7-8.7c0.8-0.5,1.1-1.5,0.6-2.3
			c-0.2-0.3-0.4-0.5-0.6-0.6c-10.8-10.9-21.6-21.7-32.3-32.6C219.3,148.5,218.9,148.2,218.4,148z M272.2,202.2
			c-0.1-0.3-0.3-0.6-0.5-0.8c-4.7-4.9-9.4-9.7-14.1-14.6c-0.2-0.4-0.7-0.5-1.1-0.3c-0.1,0.1-0.2,0.2-0.3,0.3
			c-11.4,11.2-22.7,22.5-33.9,33.9c-0.3,0.2-0.4,0.5-0.5,0.8c-0.1,0.5,0.3,1,0.7,1.4l12.7,12.6c0.6,0.7,1.3,1.2,2.2,1.5
			c2.1,0.5,6-5.1,7.4-6.5c3-3,5.9-5.9,8.9-8.9l18.1-18.2c0.3-0.2,0.5-0.6,0.5-0.9C272.2,202.4,272.2,202.3,272.2,202.2z
			 M237.4,128.2C237.4,128.2,237.3,128.2,237.4,128.2c-0.4,0-0.8,0.2-1,0.5l-13.8,13.8c-0.4,0.3-0.7,0.8-0.8,1.4
			c0.1,0.5,0.4,1,0.8,1.4c4.6,4.6,9.2,9.2,13.7,13.8c0.4,0.4,0.9,0.8,1.4,0.7c0.3-0.1,0.6-0.3,0.8-0.5c4.6-4.7,9.2-9.5,13.9-14
			c0.3-0.2,0.5-0.5,0.6-0.9c0.2-0.6-0.4-1.3-0.8-1.7l-14-13.8C238,128.5,237.7,128.3,237.4,128.2z M256.6,178.7c2.4,0,5-3.9,6.6-5.4
			c2.9-2.9,5.8-5.8,8.6-8.7c0.4-0.3,0.6-0.8,0.6-1.3c-0.1-0.4-0.3-0.7-0.6-1c-4.6-4.6-9.3-9.2-13.9-13.9c-0.3-0.6-1.1-0.8-1.6-0.5
			c-0.2,0.1-0.3,0.3-0.5,0.4c-4.6,4.6-9.2,9.2-13.9,13.8c-0.3,0.2-0.5,0.5-0.6,0.9c-0.3,0.8,0.4,1.6,1,2.2
			c4.3,4.2,8.6,8.5,12.9,12.8C255.4,178.4,256,178.7,256.6,178.7z"/>
		<path id="Path_11303" class="st1" d="M312,315.8c0,8.5,0,17,0,25.6c-0.1,0.4,0.1,0.9,0.3,1.3c0.3,0.3,0.8,0.4,1.2,0.3
			c8.2,0,16.3,0.1,24.5,0.1c0.8-0.2,1.7,0.2,1.9,1c0.1,0.2,0.1,0.5,0,0.7c0.1,3.8,0.1,7.6,0.1,11.4c0,0.4-0.1,0.8-0.3,1.1
			c-0.3,0.2-0.7,0.4-1.1,0.3l-39.7,0c-0.4,0-0.8,0-1.1-0.3c-0.3-0.4-0.5-0.9-0.4-1.4c0-21.5-0.1-43.1-0.1-64.6c0-0.9,0.1-2,0.9-2.4
			c0.4-0.2,0.9-0.3,1.3-0.2c3.8,0,7.7,0,11.5,0c0.5-0.1,1,0.1,1.1,0.6c0,0.2,0,0.3,0,0.5C312.1,298.5,312,307.2,312,315.8z"/>
		<path id="Path_11304" class="st1" d="M145.3,288.8C145.3,288.9,145.4,288.9,145.3,288.8c0.3,0.3,0.1,1.7,0.1,2v2.4
			c0,6.1,0,12.1,0,18.2c0,12.1,0,24.3,0,36.4v8.9c0.1,0.4-0.1,0.8-0.6,0.9c-0.1,0-0.3,0-0.4,0c-13.3,0-26.7,0-40,0
			c-0.4,0.1-0.9-0.1-1.2-0.3c-0.2-0.3-0.3-0.7-0.2-1c0-4,0-8,0-11.9c0-0.4,0.1-0.8,0.3-1.1c0.3-0.2,0.6-0.3,1-0.3
			c8.2-0.1,16.3,0,24.5,0.2c0.5,0.1,1.1-0.1,1.5-0.4c0.2-0.3,0.3-0.8,0.3-1.2c0-14.9,0-29.8-0.1-44.6c-0.1-2.4,0.1-4.7,0.4-7.1
			c0-0.3,0.1-0.6,0.4-0.9c0.3-0.2,0.7-0.3,1-0.2c3,0,5.9,0,8.9,0c0.7,0,1.5,0,2.2,0C143.7,288.8,144.9,288.6,145.3,288.8z"/>
		<path id="Path_11305" class="st1" d="M361,385c0.1,1.3-0.4,2.6-1.1,3.7c-1.6,2.2-4.6,2.6-6.7,1.1c-1.1-0.8-1.8-2.1-2-3.4
			c-0.3-2.2,1-5.2,3.2-6.2c2.1-0.9,4.8,0.4,5.9,2.2C360.7,383.2,360.9,384.1,361,385z M358.9,385.4c0-0.6-0.1-1.2-0.4-1.7
			c-0.9-1.8-3.8-2.6-4.8-0.5c-0.2,0.5-0.3,1.1-0.3,1.6c-0.1,0.8,0,1.7,0.4,2.5c0.3,0.8,1,1.4,1.9,1.5c0.9,0.1,1.8-0.3,2.3-1
			C358.5,387.1,358.8,386.3,358.9,385.4z"/>
		<path id="Path_11306" class="st1" d="M191.8,385.1c0,0,0,0.1,0,0.1c0,0.1,0.1,0.3,0.2,0.4c0.5,0.7,0.8,1.6,0.6,2.5
			c-0.1,0.6-0.3,1.2-0.8,1.6c-0.7,0.5-1.5,0.7-2.3,0.7c-0.6,0.1-1.1,0.1-1.7,0.2c-0.4,0.1-0.9,0-1.3-0.2c-0.3-0.3-0.5-0.7-0.6-1.1
			c-0.4-2.2-0.1-4.4-0.2-6.6c0-0.9,0.3-2,1.1-2.3c0.3-0.1,0.6-0.1,0.9-0.1c0.6,0,1.1,0,1.7,0.1c0.5,0,1,0.1,1.5,0.4
			c0.7,0.4,1.1,1.1,1.2,1.8c0.1,0.8,0,1.5-0.4,2.2C191.9,384.8,191.9,384.9,191.8,385.1z M189.2,385.9c-0.9,0-1.1,0.2-1.1,1
			c0,1,0.2,1.4,0.8,1.4c0.8,0,1.6-0.4,1.6-1C190.6,386.6,190,386,189.2,385.9z M189.1,382.1c-0.5-0.1-0.9,0.3-0.9,0.7
			c0,0,0,0.1,0,0.1c0,0.6,0.5,1,1,1c0,0,0.1,0,0.1,0c0.6,0,1.1-0.4,1.1-0.9C190.3,382.5,189.7,382.1,189.1,382.1z"/>
		<path id="Path_11307" class="st1" d="M206.7,380.2c3,0.1,5.3,2.5,5.2,5.5c0,0.3,0,0.6-0.1,0.9c-0.4,1.9-2,3.5-3.9,3.9
			c-2,0.4-4-0.4-5.1-2.1c-0.6-1-0.9-2.1-0.8-3.2c0-1,0.2-2,0.7-2.8c0.5-0.8,1.3-1.5,2.2-1.8C205.5,380.3,206.1,380.2,206.7,380.2z
			 M204.1,385.3L204.1,385.3c0,0.9,0.2,1.8,0.8,2.5c0.8,0.9,2.1,1.1,3.1,0.6c1-0.5,1.7-1.6,1.7-2.8c0.1-1.9-1.4-4-3.5-3.6
			c-0.8,0.2-1.4,0.7-1.8,1.3C204.2,384,204.1,384.7,204.1,385.3z"/>
		<path id="Path_11308" class="st1" d="M223.8,390.4c-0.5,0-1,0-1.5-0.1c-0.2,0-0.4-0.1-0.5-0.2c-0.1-0.2-0.2-0.4-0.2-0.6
			c-0.1-2.8-0.1-5.5,0.1-8.3c0-0.2,0.1-0.5,0.2-0.7c0.1-0.1,0.3-0.2,0.5-0.3c1.8-0.5,4.5-0.5,6,1c1.2,1.4,1.7,3.3,1.2,5.2
			c-0.1,1.3-0.8,2.4-1.8,3.2c-0.7,0.4-1.5,0.6-2.3,0.7C224.9,390.4,224.4,390.4,223.8,390.4z M227.9,385.2c0-1.6-1.3-3.2-3-3.1
			c-0.6,0-1.1,0.4-1.3,1c-0.1,0.3-0.1,0.7,0,1c0,0.6,0,1.3-0.1,1.9c-0.1,0.5-0.1,1.1,0,1.6c0.2,0.4,0.6,0.8,1.1,0.8
			c0.5,0.1,1,0,1.4-0.2c1.1-0.5,1.8-1.5,1.9-2.6C227.9,385.4,227.9,385.3,227.9,385.2z"/>
		<path id="Path_11309" class="st1" d="M124.6,390.7c-1.2-0.1-2.4-0.6-3.3-1.5c-1.6-1.9-1.8-4.6-0.6-6.7c0.5-0.8,1.2-1.5,2-1.9
			c1.6-0.7,3.4-0.5,4.8,0.5c1.6,1.1,2.1,3.1,2,5c-0.1,1.4-0.7,2.6-1.7,3.6C126.9,390.4,125.8,390.8,124.6,390.7z M124.9,381.8
			c-0.3,0-0.5,0-0.8,0.1c-1,0.3-1.8,1.1-2.1,2.1c-0.5,1.3-0.2,2.8,0.8,3.8c1,1,2.6,1.1,3.7,0.2c0.7-0.6,1.1-1.5,1-2.5
			C127.5,384,126.7,381.9,124.9,381.8L124.9,381.8z"/>
		<path id="Path_11310" class="st1" d="M164.3,390.2c-0.1,0.1-0.2,0.2-0.3,0.2c-0.6,0.2-1.3-0.1-1.7-0.6c-0.4-0.5-0.7-1.1-0.9-1.7
			c-0.2-0.6-0.7-1.1-1.3-1.4c-0.2-0.1-0.3-0.1-0.5,0c-0.3,0.1-0.3,0.5-0.3,0.8c0.1,0.7,0.1,1.3,0,2c-0.2,0.6-1,1.1-1.6,0.7
			c-0.3-0.3-0.5-0.8-0.4-1.3c0-0.9-0.1-1.8-0.1-2.6c-0.1-1.6-0.1-3.1,0.1-4.7c0-0.4,0.1-0.7,0.4-1c0.2-0.2,0.5-0.3,0.7-0.4
			c2-0.6,6.7,0.7,5.4,3.7c-0.4,0.8-1.2,1.5-1,2.3c0.1,0.3,0.3,0.6,0.5,0.8c0.4,0.6,0.8,1.2,1.1,1.8
			C164.5,389.3,164.6,389.7,164.3,390.2C164.4,390.1,164.4,390.1,164.3,390.2z M160.2,384.4c0.8,0,1.6-0.6,1.6-1.2
			c0-0.6-0.8-1.2-1.5-1.2c-0.6,0.2-1.1,0.7-1.3,1.3C159.1,384.1,159.4,384.4,160.2,384.4z"/>
		<path id="Path_11311" class="st1" d="M321.3,389.3v0.1c0,0.4-0.2,0.7-0.5,0.9c-0.5,0.2-1.1-0.2-1.4-0.6c-0.2-0.5-0.5-0.9-0.9-1.4
			c-0.5-0.4-1.2-0.6-1.8-0.6c-0.4,0-0.8,0-1.1,0.2c-0.4,0.3-0.7,0.7-0.9,1.1c-0.2,0.5-0.5,0.9-0.8,1.2c-0.4,0.3-0.9,0.4-1.3,0
			c-0.4-0.4-0.2-1.1,0-1.6c0.9-2.2,1.8-4.5,2.7-6.7c0.8-1.9,2.4-2.4,3.3-0.3c0.8,2.2,1.7,4.4,2.5,6.6
			C321.2,388.7,321.3,389,321.3,389.3z M317.1,384c-0.3,0.3-0.5,0.5-0.6,0.8c-0.2,0.3-0.3,0.6,0,0.8c0.3,0.2,0.6,0.2,0.9,0.2
			c0.1,0,0.3-0.5,0.2-0.7C317.5,384.6,317.3,384.3,317.1,384L317.1,384z"/>
		<path id="Path_11312" class="st1" d="M376.3,384.3c0-0.7,0-1.5,0-2.2c-0.1-0.4,0-0.9,0.2-1.3c0.2-0.4,0.6-0.7,1.1-0.6
			c0.4,0.1,0.6,0.6,0.7,1c0.3,1.4,0.4,2.8,0.3,4.3c-0.1,1.2-0.4,2.4-1.1,3.4c-0.7,1-1.8,1.7-3,1.8c-1.6-0.1-3.1-1.1-3.7-2.6
			c-0.6-1.5-0.8-3.1-0.6-4.7c0-0.5,0.9-4.6,1.8-2.9c0.1,0.3,0.2,0.5,0.2,0.8c0,1.3,0.1,2.5,0.1,3.8c0,0.8,0.1,1.6,0.4,2.4
			c0.3,0.8,1.1,1.3,1.9,1.2c0.7-0.1,1.2-0.6,1.5-1.3c0.2-0.6,0.3-1.3,0.3-2C376.3,385.2,376.3,384.7,376.3,384.3z"/>
		<path id="Path_11313" class="st1" d="M141.2,384c-0.1,0.9-0.1,1.7,0,2.6c0,0.9,0.6,1.7,1.3,2.1c1,0.2,1.9-0.3,2.3-1.1
			c0.4-0.9,0.5-1.8,0.5-2.8c0-1,0-2,0-3c0-0.3,0-0.7,0.2-1c0.2-0.3,0.6-0.4,0.9-0.3c0.2,0.2,0.3,0.5,0.3,0.7
			c0.1,1.5,0.2,3.1,0.1,4.6c-0.1,1.1,0,2.4-0.7,3.4c-0.7,0.8-1.7,1.4-2.8,1.4c-0.7,0.1-1.4,0.1-2-0.2c-0.9-0.4-1.6-1.1-1.9-2
			c-0.3-0.9-0.5-1.8-0.5-2.8c-0.1-1.5,0-2.9,0.2-4.4c0-0.4,0.2-0.7,0.4-1c0.4-0.2,0.9-0.1,1.2,0.3c0.3,0.4,0.4,0.8,0.4,1.3
			C141.2,382.6,141.2,383.3,141.2,384z"/>
		<path id="Path_11314" class="st1" d="M406.4,380.1c0.6,0,1.3,0,1.9,0.1c0.2,0,0.5,0.1,0.7,0.2c0.3,0.4,0.3,0.9-0.1,1.2
			c0,0,0,0,0,0c-0.4,0.3-0.8,0.4-1.3,0.4c-0.5,0-0.9,0-1.4,0.1c-0.5,0.1-0.8,0.5-0.8,1c0,0.5,0.6,0.9,1.1,1c0.5,0,1,0.1,1.6,0.3
			c0.5,0.2,0.9,0.8,0.7,1.2c-0.3,0.4-0.7,0.5-1.1,0.4c-0.4-0.1-0.8-0.1-1.3,0c-0.6,0.2-1,0.9-0.7,1.6c0,0.1,0.1,0.3,0.2,0.4
			c0.4,0.3,0.9,0.5,1.4,0.5c0.5,0,1,0.1,1.5,0.3c0.5,0.2,0.7,0.8,0.4,1.3c-0.3,0.3-0.7,0.4-1,0.4c-1.3,0.1-2.5,0.1-3.8,0.1
			c-0.4,0.1-0.8-0.2-0.9-0.6c0-0.1,0-0.2,0-0.3c0-2.4,0-4.7,0-7.1c0-1,0-1.8,1.1-2.1C405.1,380.2,405.7,380.1,406.4,380.1z"/>
		<path id="Path_11315" class="st1" d="M284.3,383.1c1,0.6,1.9,1.3,2.8,2c0.9,0.8,1.8,1.8,1.7,3c-0.1,1-0.7,1.8-1.6,2.2
			c-0.9,0.4-1.9,0.5-2.8,0.3c-0.6,0-1.1-0.2-1.5-0.6c-0.4-0.4-0.5-1-0.1-1.5c0.3-0.3,0.7-0.3,1.1-0.2c0.4,0.1,0.8,0.3,1.2,0.4
			c0.4,0.1,0.8,0.1,1.1-0.1c0.3-0.2,0.6-0.5,0.6-0.9c0-0.6-0.7-1-1.2-1.3c-0.9-0.4-1.7-1.1-2.4-1.9c-1-1.1-0.9-2.7,0.2-3.7
			c0.3-0.3,0.8-0.5,1.2-0.6c1-0.3,3.1-0.5,3.7,0.6c0.3,0.5,0.1,1-0.4,1.3c0,0,0,0-0.1,0c-0.5,0.2-0.9-0.2-1.4-0.3
			C285.6,381.8,284.7,382.2,284.3,383.1L284.3,383.1z"/>
		<path id="Path_11316" class="st1" d="M103.4,380.7c0-0.1,0.1-0.2,0.3-0.2c0.7-0.2,1.4,0,1.8,0.5c0.4,0.6,0.7,1.2,0.8,1.9
			c0.1,0.3,0.2,0.7,0.5,0.9c0.5,0.2,1-0.3,1.2-0.8c0.3-0.5,0.6-1.1,1-1.6c0.2-0.3,0.4-0.6,0.7-0.9c1.7-1.1,0.9,2,0.5,2.6
			c-0.5,0.7-1,1.5-1.4,2.3c-0.3,1-0.4,2.1-0.4,3.2c0,0.5-0.1,1-0.3,1.4c-0.3,0.4-0.8,0.6-1.3,0.5c-0.3-0.2-0.5-0.5-0.5-0.9
			c0-0.4,0-0.7,0.1-1.1c0-1.4-0.4-2.7-1.1-3.9c-0.7-1.1-1.4-2.4-1.8-3.6C103.4,380.9,103.4,380.8,103.4,380.7z"/>
		<path id="Path_11317" class="st1" d="M243.1,390c-0.2,0.3-0.7,0.5-1.1,0.4c-0.4-0.2-0.6-0.5-0.7-0.9c-0.1-0.4-0.1-0.8,0-1.2
			c0-1.4-0.3-2.7-1-3.9c-0.6-0.9-1.3-1.8-1.4-2.9c-0.1-0.5,0.2-1,0.6-1.2c0.2-0.1,0.5,0,0.7,0.1c1,0.6,1,2.1,1.7,2.9
			c0.1,0.2,0.4,0.3,0.6,0.3c0.5,0,0.8-0.6,0.9-1.1c0.2-0.6,0.4-1.1,0.8-1.5c0.9-0.9,2.2-0.8,1.7,0.7c-0.7,1.9-2.5,3.4-2.6,5.4
			c0.1,0.7,0.1,1.4,0,2.1C243.4,389.5,243.3,389.8,243.1,390z"/>
		<path id="Path_11318" class="st1" d="M388.3,385.1c0-1.2,0-2.4,0.1-3.5c0-0.9,1.1-2,1.8-1c0.3,0.4,0.4,1,0.3,1.5
			c0,1.7,0,3.5,0,5.2c0,0.5,0.1,1.1,0.5,1.3c0.2,0.1,0.3,0.1,0.5,0.1c0.6-0.1,1.1-0.1,1.7,0c0.6,0.1,1.1,0.6,1,1.1
			c-0.1,0.4-0.4,0.6-0.7,0.7c-0.3,0.1-0.7,0.1-1.1,0.1c-1,0-2-0.1-3-0.2c-0.2,0-0.5-0.1-0.7-0.2c-0.3-0.3-0.5-0.8-0.4-1.3
			C388.3,387.6,388.3,386.3,388.3,385.1z"/>
		<path id="Path_11319" class="st1" d="M271.5,390.4c-0.4,0-0.9-0.1-1.3-0.2c-0.1,0-0.3-0.1-0.4-0.2c-0.4-0.3-0.1-0.9,0.1-1.3
			c1.2-2.1,0.8-4.8-0.1-7.1c-0.2-0.3-0.2-0.7-0.1-1.1c0.1-0.2,0.4-0.3,0.6-0.3c0.7-0.2,2.8-0.6,2.7,0.7c-0.1,0.4-0.2,0.7-0.4,1.1
			c-0.4,1.2-0.4,2.4-0.2,3.7c0.2,1.3,0.4,2.6,0.5,3.8c0.1,0.3,0,0.7-0.3,0.8c-0.1,0-0.2,0-0.3,0
			C272.1,390.4,271.8,390.4,271.5,390.4z"/>
		<path id="Path_11320" class="st1" d="M339.8,380.7c0.4-0.5,1-0.7,1.5,0.2c0.2,0.4,0.3,0.9,0.2,1.4v3.6c0.1,1.2-0.1,2.4-0.7,3.5
			c-0.4,0.6-1.1,1-1.8,1.2c-0.5,0.1-1,0.1-1.4-0.2c-0.4-0.3-0.6-0.8-0.3-1.3c0.4-0.6,1.5-0.5,1.8-1.1c0.1-0.2,0.2-0.5,0.2-0.8
			c0-1.8,0.1-3.5,0.1-5.3C339.4,381.5,339.5,381,339.8,380.7z"/>
		<rect id="Rectangle_518" x="352.6" y="288.7" class="st1" width="15.1" height="69"/>
		<rect id="Rectangle_519" x="356" y="315.7" class="st1" width="38.6" height="15.1"/>
		<rect id="Rectangle_520" x="356" y="342.6" class="st1" width="53.3" height="15.1"/>
		<rect id="Rectangle_521" x="356" y="288.7" class="st1" width="53.3" height="15.1"/>
	</g>
</g>
</svg>
