<?xml version="1.0" encoding="utf-8"?>
<!-- Generator: Adobe Illustrator 26.0.1, SVG Export Plug-In . SVG Version: 6.00 Build 0)  -->
<svg version="1.1" id="GeorgeSamuel.me" xmlns="http://www.w3.org/2000/svg" xmlns:xlink="http://www.w3.org/1999/xlink" x="0px"
	 y="0px" viewBox="0 0 512 512" style="enable-background:new 0 0 512 512;" xml:space="preserve">
<style type="text/css">
	.st0{fill:#CCD500;}
	.st1{fill:#FFFFFF;}
</style>
<g id="www.GeorgeSamuel.me">
	<rect class="st0" width="512" height="512"/>
	<path class="st1" d="M255.6,81.3c15.1,0,27,12.7,27.8,27.8l0,0c0,15.1-11.9,27-27,27.8l0,0h-0.8c-15.1,0-27-12.7-27.8-27.8l0,0
		C227.8,94,239.7,81.3,255.6,81.3C254.8,81.3,254.8,81.3,255.6,81.3C254.8,81.3,255.6,81.3,255.6,81.3z"/>
	<path d="M207.2,417L207.2,417c-1.6,8.7-10.3,13.5-19,11.9c-6.4-0.8-11.1-6.3-11.9-11.9l0,0V183.7c0-9.5-4-19-11.9-24.6
		c-6.4-1.6-10.3-7.1-10.3-13.5c0-7.9,6.4-14.3,14.3-14.3l0,0h0.8c2.4,0,4,0.8,6.4,1.6c19,9.5,31.8,29.4,31.8,50.8L207.2,417
		L207.2,417z"/>
	<path d="M342.9,417c-3.2,0-6.3-0.8-9.5-3.2l-0.8,0.8l-2.4-2.4c-0.8-0.8-65.1-69.1-69.8-74.6l-0.8-0.8c-19.8-19.8-31-46-31.7-73.8
		c0-38.1,26.2-63.5,38.1-74.6l0.8-0.8c12.7-11.9,46-41.3,57.2-50.8c2.4-3.2,6.3-4.8,10.3-4c7.9,0,14.3,6.4,14.3,14.3
		c0,3.2-0.8,5.6-3.2,7.9l0.8,0.8l-2.4,1.6c-0.8,0.8-49.2,43.7-57.2,51.6c-4,3.2-36.5,34.1-31,61.9c4.8,25.4,14.3,35.7,29.4,51.6
		l4.8,4.8l62.7,65.1l1.6,1.6l0,0c4.8,7.1,3.2,16.7-4,22.2c-2.4,1.6-4.8,2.4-7.9,3.2L342.9,417z"/>
	<path class="st1" d="M506.4,217C490.6,112.2,400.9,22.5,295.3,5.9C190.5-10.8,77.8,46.4,29.4,141.6c-14.3,27.8-23,58.7-25.4,89.7
		c-7.9,90.5,31.8,184.1,108,234.9c42.1,27.8,92.9,42.9,143.7,43.7c39.7,0,79.4-7.9,115.1-26.2C466,435.3,523.1,322.6,506.4,217z
		 M363.6,468.6c-81,41.3-184.9,29.4-256.4-26.2C35,386.1,4.8,286.9,25.4,198.8c4-17.5,10.3-34.1,18.3-50
		c38.9-76.2,123-127,208.8-129.4c13.5,0,27,0.8,40.5,2.4c98.4,15.9,181.8,99.2,197.6,197.6C505.6,317.8,452.5,423.4,363.6,468.6z"/>
</g>
</svg>
