<?xml version="1.0" encoding="utf-8"?>
<!-- Generator: Adobe Illustrator 26.0.1, SVG Export Plug-In . SVG Version: 6.00 Build 0)  -->
<svg version="1.1" id="GeorgeSamuel.me" xmlns="http://www.w3.org/2000/svg" xmlns:xlink="http://www.w3.org/1999/xlink" x="0px"
	 y="0px" viewBox="0 0 512 512" style="enable-background:new 0 0 512 512;" xml:space="preserve">
<style type="text/css">
	.st0{fill:#111111;}
	.st1{fill:#686879;}
	.st2{fill:#2A3E95;}
	.st3{fill:#FEFEFE;}
</style>
<g id="www.GeorgeSamuel.me">
	<rect class="st0" width="512" height="512"/>
	<circle class="st0" cx="256" cy="256" r="256"/>
	<path id="Path_11718" class="st1" d="M337.9,270.5c-17.6-30.5-35.2-61-52.9-91.5c2.2-1.3,4.5-2.6,6.7-4
		c30.2,52.3,60.4,104.6,90.6,156.9c7.2,12.5,17,25.5,22.3,39c-2.3,1.5-7.8,0.5-10.7,0.5c-4.2,0-8.4,0-12.6,0c-8.1,0-16.3,0-24.4,0
		c-16.6,0-33.1,0-49.7,0c0-2.5,0-5,0.1-7.5c28.1-0.1,56.2-0.2,84.3-0.3C373.7,332.5,355.8,301.5,337.9,270.5z"/>
	<path id="Path_11719" class="st2" d="M179.2,231.7c-2.1,3.6-4.2,7.3-6.3,10.9c-2-3.7-2.1-8.2-1-12.2c1.1-4,3.2-7.7,5.3-11.3
		c23.3-40.3,46.7-80.7,70-121c7.1,12.2,14.2,24.4,21.2,36.6c3.6,6.2,7.2,12.5,10.8,18.7c1.8,3.1,3.8,6.1,5.4,9.4
		c1.9,4.1,0.6,3.9-3.1,6.2c-0.5,0.3-1,0.6-1.6,0.5c-0.6-0.1-1-0.7-1.4-1.3c-10.4-18.1-20.9-36.2-31.3-54.3
		C224.7,153.1,202,192.4,179.2,231.7z"/>
	<path id="Path_11720" class="st3" d="M161.3,262.9c1.3,0,2.5,0,3.8,0c1.3,0,2.9,0.1,3.6,1.3c0.3,0.6,0.3,1.3,0.3,2
		c0,3.4-0.1,6.8-0.1,10.2c0,0.6,0,1.3-0.4,1.8c-0.5,0.6-1.5,0.7-2.3,0.7c-6.1,0-12.3-0.1-18.4-0.1c-1.5,0-3.2-0.1-4.4-1
		c-0.3-0.2-0.6-0.6-0.5-0.9c0-0.3,0.2-0.5,0.4-0.6c1.4-1.3,3.6-1.4,5.5-1.4c4.2,0,8.3,0,12.5,0c0.7,0,1.4,0,2-0.4
		c1.1-0.7,1.2-2.2,1.2-3.4c0-1.2-0.2-2.6-1.2-3.2c-0.5-0.3-1.2-0.3-1.8-0.3c-8,0-16,0-24.1,0c-0.6,0-1.3,0-1.8,0.4
		c-0.6,0.5-0.7,1.4-0.7,2.3c0,8.8-0.1,17.6-0.1,26.4c0,0.7,0,1.4,0.4,1.9c0.6,0.9,1.9,1,2.9,1c9.9,0,19.8,0,29.7-0.1
		c1.3,0,2.9,0.1,3.5,1.3c0.3,0.5,0.3,1.2,0.3,1.8c0,3-0.1,5.9-0.1,8.9c0,2.7-0.3,4.1-3.4,4.1c-15.7,0-31.4-0.1-47.1-0.1
		c-0.9,0-2-0.1-2.6-0.8c-0.4-0.5-0.4-1.2-0.4-1.8c0-27.5,0-55,0-82.6c0-0.6,0-1.4,0.6-1.8c0.3-0.3,0.8-0.3,1.2-0.3
		c15.8-0.1,31.6-0.2,47.4-0.2c0.9,0,2,0.1,2.5,0.9c0.3,0.4,0.3,1,0.3,1.5c0,3.5,0,6.9,0,10.4c0,0.9,0,1.8-0.6,2.4
		c-0.7,0.8-1.9,0.9-3,0.9c-9.1,0-18.1-0.1-27.2-0.1c-1.3,0-2.7,0-3.6,0.9c-1.1,1-1.1,2.6-1,4c0.2,1.4,0.5,2.9,0,4.3
		c-0.5,1.3-2.4,2.3-3.4,1.3c-0.6-0.5-0.7-1.4-0.8-2.2c-0.3-3-0.4-5.9-0.2-8.9c0-0.6,0.1-1.2,0.3-1.8c0.8-1.6,2.9-1.8,4.6-1.8
		c9.1,0,18.1,0,27.2,0c0.8,0,1.6,0,2.3-0.4c1.3-0.8,1.4-2.7,1.2-4.2c-0.1-0.7-0.2-1.5-0.7-2c-0.6-0.7-1.7-0.7-2.6-0.7
		c-12.5,0-25.1,0-37.6,0c-0.6,0-1.2,0-1.7,0.4c-0.6,0.5-0.6,1.4-0.6,2.1c0,24.3,0,48.5,0,72.8c0,0.6,0,1.3,0.3,1.8
		c0.6,1,2,1.1,3.2,1.2c11.1,0.1,22.2,0.1,33.3,0.2c2,0,4.1,0,5.8-1c1.7-1,2.7-3.5,1.4-5.1c-1-1.3-2.8-1.4-4.4-1.4
		c-9.5,0-18.9,0-28.4,0c-1,0-2.1,0-2.9-0.8c-0.7-0.7-0.7-1.8-0.7-2.8c0-11.2,0-22.5,0-33.7c0-0.8,0-1.7,0.5-2.4
		c0.7-1,2.2-1.1,3.4-1.1C143.2,262.8,152.2,262.9,161.3,262.9z"/>
	<path id="Path_11721" class="st3" d="M428.7,242.2c5,0,10.1,0.6,14.5,2.7c0.3,0.2,0.7,0.3,1.1,0.3c0.5-0.1,0.8-0.5,1.1-0.9
		c1.2-1.7,2.4-4.1,1.1-5.8c-0.6-0.8-1.6-1.1-2.6-1.4c-6.4-1.9-13.2-2.6-19.9-1.9c-5,0.5-10,1.7-14.1,4.6c-6.1,4.5-9.1,12.6-7.9,20.1
		c1.2,7.5,6.2,14.1,12.8,17.9c1.3,0.7,2.8,1.8,2.4,3.2c-0.2,0.9-1.2,1.4-2,1.4c-0.9,0-1.7-0.3-2.5-0.7c-9.5-4.8-15.8-15.4-15.4-26.1
		c0.2-4.5,1.5-9,3.9-12.8c3.9-5.9,10.4-9.7,17.2-11.3s14-1.2,21,0.1c4.1,0.7,8.2,1.7,11.7,3.9c0.6,0.3,1.1,0.8,1.4,1.4
		c0.4,0.8,0.1,1.7-0.1,2.6c-0.9,3.1-2,6.2-3.2,9.2c-0.4,0.9-0.8,1.9-1.7,2.3c-1.1,0.5-2.3-0.1-3.4-0.7c-6.1-3.1-13.1-4.6-19.9-3.7
		c-3.4,0.5-7,1.8-8.9,4.6c-2.1,3.1-1.7,7.4,0.1,10.6c1.8,3.2,4.9,5.6,8.1,7.5c3.2,1.9,6.7,3.4,9.8,5.4c4.8,3.1,8.8,7.8,10.1,13.4
		c1.3,5.6-0.6,12.1-5.4,15.2c-2.3,1.5-5,2.1-7.7,2.5c-8.6,1.2-17.6-0.2-25.5-4c-0.7-0.3-1.4-0.7-2.1-0.3c-0.4,0.2-0.7,0.6-0.9,1
		c-0.9,1.4-1.8,3.2-1.1,4.7c0.5,1.2,1.9,1.8,3.1,2.3c7.3,2.8,15.2,4,23,3.7c7-0.3,14.2-2.2,19.1-7.1c5.5-5.5,7.1-14.2,4.7-21.6
		s-8.2-13.4-15.2-16.7c-1.2-0.6-2.4-1.1-3.1-2.2c-0.6-1.1-0.1-2.9,1.2-3c0.3,0,0.6,0.1,0.9,0.2c8.3,2.5,15.4,8.8,18.9,16.7
		c3.5,7.8,4.4,20.5-1.7,27.3c-6,6.8-15.2,10.3-24.1,10.9c-9.9,0.6-19.7-2-29-5.5c-1.5-0.6-3.2-1.3-3.7-2.8c-0.4-1.2,0-2.6,0.5-3.8
		c1-2.6,2-5.1,3-7.7c0.2-0.6,0.5-1.2,0.9-1.6c1.1-0.9,2.7-0.4,4,0.2c9,4.1,19.2,7.3,28.7,4.5c2.2-0.7,4.4-1.7,5.8-3.6
		c1-1.5,1.5-3.3,1.5-5.1c0-4.8-3-9.1-6.7-12.1s-8.1-5-12.3-7.4c-3.6-2.1-7.2-4.6-9.1-8.3c-1.4-2.8-1.8-6.1-1.4-9.3
		c0.3-3.5,1.5-7,4.2-9.3c3.1-2.7,7.5-3.2,11.6-3.3C426.5,242.3,427.6,242.2,428.7,242.2z"/>
	<path id="Path_11722" class="st3" d="M179.5,231.8c-0.1-0.7,0.5-1,0.9-1.4c0.6-0.1,1.2-0.2,1.8-0.2c3.9,0,7.9,0,11.8,0
		c0.5,0,1,0.1,1.4,0.2c0.8,0.2,1.5,0.9,1.8,1.7c0.8,2.3,1.6,4.7,2.4,7c2,5.9,4.1,11.7,6.2,17.6c2.3,6.2,4.5,12.4,6.6,18.6
		c2.5,7.5,5.2,14.9,7.9,22.3c1,2.8,2,5.6,3,8.4c0.1,0.3,0.1,0.6,0.5,0.6c0.4,0.1,0.6-0.2,0.7-0.5c0.5-1.4,1.1-2.9,1.6-4.3
		c1.2-3.4,2.5-6.7,3.7-10.1c2.6-7.1,5.2-14.2,7.7-21.3c2.4-7,4.9-13.9,7.3-20.9c1.4-3.8,2.7-7.6,4.1-11.4c0.1-0.3,0.2-0.5,0.2-0.8
		c0.2-1-0.4-2-1.3-2.2c-0.1,0-0.2,0-0.3,0c-1.2-0.2-2.4-0.2-3.5,0c-1.3,0.3-2.4,1.2-3,2.5c-0.6,1.1-1,2.3-1.4,3.5
		c-1.3,4.6-3.1,9-4.7,13.6c-2,5.6-3.8,11.2-5.7,16.8c-1.5,4.4-3.1,8.7-4.6,13.1c-0.2,0.5-0.4,0.5-0.7,0.1c-1.8-2.3-2.2-5.3-1.2-8
		c1.2-3.9,2.6-7.8,3.9-11.6c1.8-5.4,3.8-10.8,5.7-16.2c1.9-5.2,3.8-10.3,5.8-15.5c0.2-0.7,0.6-1.4,1.1-2c0.4-0.5,1-0.8,1.6-0.8
		c4.4-0.3,8.8,0.1,13.3,0c0.2,0,0.5,0,0.7,0.1c1.4,0.3,1.5,0.5,1,1.9c-2.9,7.8-5.8,15.7-8.5,23.6c-1.9,5.6-3.9,11.1-6,16.6
		c-1.5,3.9-2.8,7.9-4.1,11.8c-2.3,6.9-4.6,13.8-7.2,20.6c-1.2,3.1-2.3,6.2-3.3,9.4c-0.3,0.9-0.8,1.7-1.5,2.4c-1,0.9-1.7,0.9-2.6-0.1
		c-0.5-0.6-1-1.2-1.2-1.9c-1.9-5.2-3.5-10.4-5.2-15.6c-1.9-5.6-3.9-11.2-5.9-16.8c-3.6-9.7-6.9-19.6-10.2-29.4
		c-1.7-5-3.3-10.1-5.3-15c-1.1-2.5-3.8-3.8-6.4-3.1c-0.9,0.2-1.5,0.9-1.5,1.8c-0.1,0.8,0,1.5,0.2,2.3c1.5,5,3.4,9.9,5.1,14.8
		c3,8.4,6,16.8,9,25.2c3.4,9.6,6.9,19.2,10.4,28.7c0.8,2.3,1.6,4.7,2.5,7c0.2,0.9,0.2,1.8-0.2,2.6c-0.1,0.3-0.4,0.4-0.7,0.3
		c-1-0.3-2-0.7-2.9-1.2c-0.5-0.3-0.9-0.8-1.2-1.4c-0.4-0.8-0.7-1.6-0.9-2.4c-1.1-3.9-2.6-7.7-4-11.5c-3.5-9.7-6.9-19.4-10.2-29.2
		c-1.3-4-2.9-7.8-4.4-11.8c-1.6-4.3-3.2-8.7-4.8-13c-1.6-4.2-2.8-8.5-4.2-12.8C180.3,233.4,179.9,232.6,179.5,231.8z"/>
	<path id="Path_11723" class="st3" d="M313.9,230.7c0.1,0,0.3,0.1,0.4,0.1c1.6,0.7,3,2.3,2.9,4c-12.7,0-25.3,0-38-0.1
		c-1.1,0-2.4,0.1-3,1c-0.5,0.6-0.5,1.5-0.5,2.2c0,23.9,0,47.9,0,71.8c0,1,0.1,2.1,0.8,2.7c0.6,0.5,1.5,0.6,2.4,0.6
		c12,0,24.1,0,36.1,0c1.8,0,3.9-0.2,4.9-1.7c1-1.7-0.1-4-1.8-4.9s-3.8-0.8-5.8-0.8c-8.8,0.4-17.6,0.2-26.4,0.1c-0.7,0-1.4,0-1.9-0.5
		c-0.6-0.5-0.6-1.4-0.6-2.2c0-11.6,0-23.3,0-34.9c0-0.7,0-1.5,0.4-2.1c0.6-0.8,1.8-0.9,2.9-0.9c10.8,0,21.5,0,32.3,0
		c1,0,2.2,0.1,2.8,0.9c0.4,0.5,0.4,1.2,0.4,1.9c0,3.5,0,7,0,10.5c0,0.7,0,1.4-0.4,1.9c-0.5,0.7-1.5,0.7-2.4,0.7c-6,0-12.1,0-18.1,0
		c-2,0-4.3-0.2-5.3-1.9c1.1-2.1,4-2.3,6.4-2.3c4.1,0,8.1,0.1,12.2,0.1c0.8,0,1.6,0,2.2-0.5c0.8-0.6,0.9-1.7,1-2.7
		c0.1-1.4,0-3.2-1.3-3.8c-0.5-0.3-1.1-0.3-1.7-0.3c-8,0-16,0-24.1,0c-0.6,0-1.3,0-1.8,0.4c-0.6,0.5-0.7,1.5-0.7,2.3
		c0,8.8,0,17.5,0,26.3c0,0.8,0,1.7,0.6,2.3c0.6,0.7,1.7,0.7,2.6,0.7c10,0,19.9,0,29.9-0.1c1.3,0,2.9,0.2,3.4,1.3
		c0.2,0.5,0.2,1,0.2,1.6c0,2.8,0,5.6-0.1,8.5c0,2.6,0.4,4.6-2.7,4.6c-16,0-32,0-48.1,0c-0.7,0-1.4,0-1.9-0.4
		c-0.7-0.5-0.7-1.5-0.7-2.4c0-27.4,0-54.8,0-82.1c0-0.5,0-1,0.2-1.4c0.5-1,1.8-1.1,2.9-1.1c11.6,0,23.2-0.1,34.9-0.1
		C310.7,230.1,312.4,230.1,313.9,230.7z"/>
	<path id="Path_11724" class="st3" d="M55.1,265.7c0-11.7,0-23.4,0-35.2c0-0.6,0-1.3,0.4-1.8c0.5-0.5,1.3-0.6,2.1-0.6
		c3.9,0,7.7,0,11.6-0.1c0.9,0,1.9,0.1,2.4,0.7c0.4,0.5,0.4,1.1,0.4,1.7c0,19.9,0,39.8,0,59.8c0,0.7,0,1.6-0.5,2.1
		c-0.8,1-2.6,0.6-3.3-0.5c-0.7-1.1-0.8-2.5-0.8-3.8c0-17.1,0-34.2,0.1-51.3c0-1.1,0-2.4-0.8-3.3c-0.7-0.7-1.8-1-2.8-1
		c-1.4-0.1-3.1,0.1-3.8,1.4c-0.3,0.5-0.3,1.2-0.3,1.8c0,20.4,0,40.9,0,61.3c0,0.7,0,1.5,0.5,1.9c0.5,0.4,1.2,0.5,1.8,0.5
		c12.5,0.1,25.1,0.1,37.6,0c1,0,2.1,0,2.9,0.7c0.8,0.8,0.8,2,0.8,3.1c0,2.9-0.1,5.7-0.1,8.6c0,2.6-0.4,3.7-3.3,3.7
		c-14,0-28,0-41.9,0c-1,0-2.1-0.1-2.7-0.9c-0.7-0.9-0.1-2.4,0.9-3c1-0.6,2.2-0.6,3.4-0.6c11.4,0,22.8,0,34.2,0
		c1.7,0,3.8-0.1,4.8-1.6c1.1-1.6,0.1-3.9-1.6-4.9c-1.7-1-3.7-1-5.7-1c-11,0.1-21.9,0.1-32.9,0.2c-1.1,0-2.5-0.1-3-1.1
		c-0.3-0.5-0.3-1.2-0.3-1.8C55.1,289.1,55.1,277.4,55.1,265.7z"/>
	<path id="Path_11725" class="st2" d="M135.8,371.4c-7,0-14,0-21,0c-2.9,0-24.3-1.9-25.3,0c9.6-16.6,19.2-33.2,28.8-49.8
		c0.6-1.1,1.3-2.1,2.2-2.8c2.3-1.6,5.4-0.6,7.9,0.4c-8.2,15-16.7,29.9-25.3,44.6c25.9,0,51.9,0,77.8,0.1c0.6,0,1.3,0,1.7,0.5
		c0.3,0.4,0.3,0.9,0.3,1.3c-0.1,5,0.5,5.7-4.7,5.7c-4.2,0-8.4,0-12.7,0c-8.4,0-16.9,0-25.3,0C138.7,371.4,137.2,371.4,135.8,371.4z"
		/>
	<path id="Path_11726" class="st3" d="M342.6,262.8c-1.6-2.5-3.1-5-3.9-7.8c-0.8-2.7-0.8-5.6-0.7-8.4c0-4.3,0-8.7,0.1-13
		c0-1.1,0.1-2.3,1-2.9c0.5-0.4,1.2-0.4,1.8-0.4c4-0.1,7.9-0.1,11.9,0c0.6,0,1.3,0.1,1.7,0.5c0.4,0.4,0.4,1,0.4,1.6
		c0,12.8,0.1,25.6,0.1,38.4c0,3.2,0,6.3,0,9.5c0,4.4-1.6,1.7-2.8-0.8c-2.1-4.7-2.1-10.2-2.1-15.3c0.1-8.1,0.2-16.2,0.2-24.3
		c0-1.5,0-3.1-1.1-4.2c-0.8-0.8-2-1.1-3.2-1.1c-1.1,0-2.3,0.3-2.9,1.2c-0.6,0.8-0.6,1.8-0.6,2.7
		C342.6,246.6,342.6,254.7,342.6,262.8z"/>
	<path id="Path_11727" class="st3" d="M319,238.1c0.6,0.4,1,1,1.3,1.7c0.8,1.3,1.6,2.7,2.3,4c0.3,0.4,0.4,1,0.4,1.5
		c-0.5,0.7-1.4,1.1-2.2,1c-0.6,0-1.2,0-1.8,0c-8.5,0-17,0-25.5,0c-0.6,0-1.3-0.1-1.9-0.1c-0.4,0-0.8,0-1.2,0
		c-1.7,0.2-2.3,0.9-2.4,2.6c0,1.5,0.1,3.1,0.1,4.6c0,1.6-0.8,3-2.1,3.9c-0.3-0.3-0.6-0.5-0.9-0.8c-1.1-0.7-1.8-2-1.6-3.3
		c0-2.9,0-5.8,0-8.7c0-1.7,0.5-2.2,2.2-2.5c0.5-0.1,1-0.1,1.6-0.2c8.4,0,16.7,0,25.1,0c1,0,1.9,0.1,2.9,0.1
		C317.9,242.2,319.3,241.5,319,238.1z"/>
	<path id="Path_11728" class="st3" d="M338,270.5c1.1,1.9,2.2,3.9,3.4,5.8c0.6,0.9,1,1.8,1.2,2.9c0,0.4,0,0.7,0,1.1
		c0,5.6,0,11.1,0,16.7c0,0.9,0,1.7,0,2.6c0.1,1.7,0.5,2.1,2.2,2.2c3,0.2,6.1,0.1,9.1,0.1c0.6,0.1,1.3,0,1.9-0.1
		c0.8,1.1,1.5,2.3,2.1,3.5c0.1,0.2,0.1,0.5,0.1,0.7l-16.2,0c-0.6,0-1.1,0-1.7,0c-1.1,0.1-2.1-0.8-2.1-1.9c0,0,0-0.1,0-0.1
		c-0.1-0.7-0.1-1.4-0.2-2.1c0-10,0-20,0-29.9C337.9,271.4,338,270.9,338,270.5z"/>
	<path id="Path_11729" class="st3" d="M367.7,305.6c-1.2-0.7-1.4-2.6-2.4-3.7c6-0.1,12-0.2,17.9-0.2c0.9,0,1.9,0.1,2.5,0.7
		c0.5,0.6,0.5,1.4,0.5,2.2c0,3,1.7,13.1-2.4,13.1c-2.8,0-5.7,0-8.5,0c-0.3,0-0.6,0-0.8-0.1c-0.3-0.2-0.5-0.5-0.6-0.8
		c-0.6-1.2-1.2-2.4-1.9-3.6c2.2,0,4.5-0.1,6.7-0.1c0.6,0,1.2-0.1,1.8-0.4c1-0.6,1.2-2.1,1.2-3.3c0-1.1-0.2-2.5-1.2-3.1
		c-0.5-0.3-1.1-0.3-1.7-0.3c-3.2-0.1-6.3-0.2-9.5-0.1c-0.5,0-1,0-1.4-0.2C367.9,305.7,367.8,305.7,367.7,305.6z"/>
	<path id="Path_11730" class="st2" d="M161.3,262.9c-0.2,0.1-0.4,0.1-0.6,0.1c-2.7,0.1-5.3,0.1-8,0c-0.2,0-0.4-0.1-0.6-0.1
		c0.5-1.1,1-2.1,1.7-3.1c1.7-3.1,3.6-6,5.3-9.2c0.5-0.9,1-1.8,1.6-2.7c0.5-0.6,0.9-1.3,1.8-1.2c0.1,0,0.2,0,0.2-0.1
		c0.6-0.9,1.8-0.7,2.6-1.2c0.4-0.2,0.7-0.1,1.1,0.1c0.5,0.5,1.3,0.5,1.9,0.1c0.3-0.3,0.9-0.3,1.2,0c0.1,0.1,0.1,0.2,0.2,0.3
		c0.1,0.3,0.4,0.2,0.6,0.1c0.2-0.1,0.3-0.3,0.5-0.3c0.2,0.1,0.2,0.4,0.1,0.5c0,0,0,0,0,0c-1.2,1.3-1.6,3.1-2.5,4.5
		c-1.4,2.3-2.7,4.7-4.1,7c-0.7,1.4-1.5,2.8-2.4,4C161.5,262.2,161.4,262.5,161.3,262.9z"/>
	<path id="Path_11731" class="st2" d="M140.5,299.2c-0.1,0.1-0.1,0.1-0.2,0.2c-0.2,0.1-0.4,0.2-0.6,0.2c-0.8,0.1-1.7,0.1-2.5-0.1
		c0.2-1.7,0.2-3.5,0.1-5.2c-0.1-1.5-0.4-3.1,0.4-4.3c0.5-0.8,1.4-1.7,1-2.6c-0.3,0.6-0.8,1.1-1.4,1.4c1.9-3.5,3.9-6.9,5.8-10.4
		c0.1-0.2,0.2-0.4,0.4-0.5c0.6-0.3,1,0.7,1.4,1.2c0.4,0.6,1.1,0.9,1.8,1.2c0.6,0.2,1.1,0.4,1.7,0.6c0.6,0.2,1.4,0.4,1.9,0
		c0.7,1.8-3.5,7-4.4,8.6c-1.7,3.1-3.5,6.2-5.1,9.3C140.6,299,140.5,299.1,140.5,299.2z"/>
	<path id="Path_11732" class="st3" d="M361.8,313.1c0.8,0.1,1.4,0.7,1.7,1.4c0.5,1.1,1.3,2.1,1.7,3.3c-7.8,0-15.6,0-23.4,0
		c-1,0-1.9-0.3-2.8-0.8c-0.7-0.4-1-1.2-0.9-2c0.1-0.7,0.6-1.3,1.3-1.5c0.8-0.3,1.7-0.4,2.6-0.4c6.3,0,12.6,0,18.9,0
		C361.3,313.1,361.5,313.1,361.8,313.1z"/>
	<path id="Path_11733" class="st3" d="M219.5,371.3c-0.3,0.9-0.3,1.8-0.2,2.7c0,0.6-0.2,0.8-0.8,0.9c-2.3,0.1-2.3,0.1-2.3-2.2
		c0-3.5,0-7,0-10.5c0-0.8,0-0.9,0.9-0.9c0.8-0.1,1.6-0.1,2.4,0.1c0.8,0.3,0.5,1.4,0.8,2.2c0.2,0.6,0.4,1.1,0.8,1.6c0-1,0-2.1,0-3.1
		c0-0.7,0.3-0.8,0.9-0.8c0.5,0,1,0,1.5,0c0.7-0.1,0.8,0.3,0.8,0.8c0,1.8,0,3.6,0,5.5c0,2,0,4.1,0,6.1c0,1.1-0.1,1.1-1.1,1.1
		c-0.5,0-1.1,0-1.6,0c-1.1,0-1.2-0.1-1.4-1.2c-0.1-0.3-0.1-0.6-0.2-1C219.8,372.2,219.7,371.8,219.5,371.3z"/>
	<path id="Path_11734" class="st3" d="M284.4,370.9c0.4-0.3,0.3-0.8,0.3-1.2c0-2.4,0-4.7,0-7.1c0-0.2,0-0.5,0-0.7
		c0-0.4,0.2-0.6,0.6-0.6c0.8,0,1.8-0.2,2.4,0.1c0.8,0.4,0.3,1.5,0.3,2.2c0,2.3,0,4.6,0,6.9c0,0.3,0,0.6,0,0.9c0.1,1.8-1.3,3.3-3,3.4
		c-0.1,0-0.2,0-0.2,0c-1.8,0.3-3.5-0.9-3.8-2.8c0-0.2-0.1-0.5,0-0.7v-0.2c0-2.9,0-5.8,0-8.8c0-1,0-1,1-1c0.7,0,1.6-0.3,2.1,0.2
		c0.4,0.5,0.1,1.3,0.1,2c0,2.1,0,4.1,0,6.2C284,370.1,284.1,370.5,284.4,370.9z"/>
	<path id="Path_11735" class="st3" d="M297.8,368.9c0.5,1.2,0.6,2.5,0.4,3.7c-0.2,0.2-0.4,0.5-0.4,0.8c-0.6,0.8-1.6,1.3-2.6,1.3
		c-1.1,0-2.1,0-3.2,0c-0.6,0-0.9-0.2-0.9-0.8c0-1.6,0-3.2,0-4.7c0-2.4,0-4.7,0-7c0-0.9,0-0.9,0.9-0.9c0.8,0,1.7,0,2.6,0
		c2.6,0,3.8,1.3,3.7,3.8c0,0.4-0.1,0.8-0.1,1.2c-0.1,0.1-0.2,0.2-0.2,0.4l-0.4,0.6c-0.3,0.2-0.8,0.2-1,0.6
		C297,368.2,297.4,368.6,297.8,368.9z M294.2,370.6L294.2,370.6c0,0.3,0,0.6,0,0.8s0,0.7,0.4,0.7c0.4,0,0.4-0.4,0.4-0.7
		c0-0.3,0-0.6,0-1c0-0.4,0.1-1.1-0.4-1.1c-0.6,0-0.3,0.7-0.4,1C294.2,370.4,294.2,370.5,294.2,370.6z M294.2,365.1
		c0.2,0.4-0.3,1.2,0.5,1.2c0.6,0,0.4-0.8,0.4-1.2c0-0.4,0.1-1.2-0.5-1.2C294,364,294.3,364.7,294.2,365.1z"/>
	<path id="Path_11736" class="st3" d="M264.5,371.1c0.5-0.5,0.3-1,0.3-1.5c0-0.6,0.2-0.9,0.9-0.9c0.7,0.1,1.5,0,2.2,0.1
		c0.4,0,0.7,0.1,0.6,0.6c0.1,1.1-0.1,2.2-0.5,3.2c-0.5,1.4-1.8,2.3-3.3,2.3c-1.5,0.1-3-0.8-3.6-2.2c-0.4-0.7-0.6-1.4-0.6-2.2
		c0-1.5-0.1-3.1,0-4.6c-0.1-1.6,0.7-3.1,2-4c1.8-1,4-0.6,5.2,1.1c0.5,0.9,0.8,1.9,0.9,2.9c0,0.6-0.2,0.9-0.8,0.9
		c-0.6,0-1.3,0.1-1.9,0.1c-0.9,0-0.9,0-1.1-0.9c0-0.3,0.1-0.8-0.3-0.8c-0.5,0-0.3,0.5-0.3,0.9c0,1.3,0,2.6,0,3.9
		C264.1,370.3,264.2,370.7,264.5,371.1z"/>
	<path id="Path_11737" class="st3" d="M239,369l-1.4-1.3c-0.4-0.5-0.6-1.1-0.6-1.7c-0.3-1.2,0-2.4,0.7-3.3c1-1.2,2.6-1.7,4.1-1.2
		c1.4,0.3,2.4,1.4,2.7,2.9c0.2,1,0.1,1.2-1,1.2c-1,0-2,0.3-2.7-0.6c-0.4,0.4-0.1,0.6,0,0.8c0.5,0.6,1.1,1.1,1.7,1.5
		c2,1.3,2.5,4,1.2,6c0,0,0,0,0,0.1c-0.5,0.8-1.3,1.4-2.2,1.5c-2.8,0.4-4.4-0.9-4.8-3.8c-0.1-1,0-1.1,1.1-1.3
		c0.9,0.1,1.8,0.2,2.1,1.4c0,0.1,0.2,0.2,0.4,0.3c0.4,0.2,0.6,0,0.5-0.4c0-0.3-0.1-0.7-0.4-0.9C240,369.6,239.5,369.3,239,369z"/>
	<path id="Path_11738" class="st3" d="M249.6,369.4c-0.6-0.8-1.5-1.4-1.9-2.3c-1-1.8-0.5-4.1,1.2-5.3c1.8-1.1,4.2-0.6,5.3,1.2
		c0.3,0.4,0.4,0.9,0.5,1.4c0.1,0.9,0,1-0.9,1.1c-0.2,0-0.5,0-0.7,0c-0.6,0-1.3,0.1-1.8-0.5c-0.1-0.1-0.2-0.2-0.4-0.1
		c0,0,0,0-0.1,0.1c-0.1,0.1-0.1,0.3,0,0.4c0.2,0.3,0.4,0.5,0.6,0.7c0.5,0.5,1.1,1,1.6,1.4c1.9,1.8,1.9,4,0.5,6
		c-1.4,1.9-5.4,1.6-6.2-0.8c-0.3-0.6-0.5-1.3-0.5-2c0-1,0-1,1-1.1c0.1,0,0.2,0,0.4,0c0.8,0.2,1.6,0.2,1.7,1.2c0,0.1,0.1,0.1,0.1,0.2
		c0.2,0.2,0.4,0.4,0.7,0.2c0.2-0.2,0.2-0.4,0.1-0.7C250.7,370,250.2,369.6,249.6,369.4z"/>
	<path id="Path_11739" class="st3" d="M227.2,368.1c0-2,0-4,0-6c0-0.9,0-0.9,1-0.9c1.6,0,3.2,0,4.9,0c0.7,0,0.9,0.2,0.8,0.8
		c0,0.7,0,1.4,0,2.1c0,0.6-0.2,0.9-0.8,0.8c-0.6-0.1-1.2,0-1.8-0.1c-0.5,0-0.6,0.2-0.6,0.7c0,0.4,0.2,0.5,0.6,0.6
		c1.1,0.2,1.1,0.2,1.1,1.4c0,0.4,0,0.9,0,1.3c0.1,0.7-0.2,0.9-0.8,0.8c-0.3,0-0.8-0.1-0.9,0.3c-0.2,0.4,0,0.8,0.3,1
		c0.1,0.1,0.3,0.1,0.5,0.1c0.7,0,1.4,0,2.1,0c0.5,0,0.7,0.2,0.6,0.6c0,0.8,0,1.7,0,2.6c0,0.3-0.2,0.5-0.4,0.6c-0.1,0-0.1,0-0.2,0
		c-1.9,0-3.7,0-5.6,0c-0.6,0-0.6-0.4-0.6-0.8v-4.3C227.2,369.2,227.2,368.6,227.2,368.1L227.2,368.1z"/>
	<path id="Path_11740" class="st3" d="M190.4,368v-5.6c0-1,0-1.1,1-1.1c1.7,0,3.4,0,5.1,0c0.8,0,0.8,0,0.9,0.9c0,0,0,0.1,0,0.1
		c0,0.8,0.3,1.7-0.2,2.3c-0.5,0.6-1.4,0.1-2.2,0.2c-0.4,0-0.8-0.2-1,0.4c-0.2,0.6,0.1,1.1,0.8,1.1c1,0.1,1,0.1,1,1
		c0,0.6,0,1.1,0,1.7c0,0.6-0.2,0.8-0.8,0.9c-1,0-1,0.1-1,1c0,1,0,1.9,0,2.9c0,0.8,0,0.8-0.9,0.9c-0.6,0-1.1,0-1.7,0c-0.9,0-1,0-1-1
		C190.4,371.9,190.4,369.9,190.4,368L190.4,368z"/>
	<path id="Path_11741" class="st2" d="M133.3,310.9c-0.3,0.1-0.7,0.1-1,0.1c-2.1,0-4.2,0-6.2,0c-0.6,0-1.1,0-1.6-0.2
		c1.8-3,3.5-5.9,5.3-8.9c0.1-0.2,0.4-0.5,0.7-0.4c0.2,0.1,0.2,0.4,0.2,0.6c0.1,0.5,0.4,1,0.9,1.1c0.3,0.1,0.7,0.1,1,0.3
		c0.3,0.2,0.4,0.5,0.6,0.7c0.8,1.1,2.3,1,3.3,1.6c-0.6,1.4-1.4,2.7-2.1,4c-0.2,0.4-0.4,0.7-0.8,1
		C133.3,310.8,133.3,310.8,133.3,310.9z"/>
	<path id="Path_11742" class="st3" d="M208.2,369.8c0-1.4,0-2.8,0-4.1c0-0.6-0.2-0.8-0.9-0.8c-1.5,0-1.5,0-1.5-1.5
		c0-0.4,0-0.9,0-1.3c0-0.5,0.2-0.7,0.7-0.7c2.2,0,4.5,0,6.7,0c0.5,0,0.7,0.2,0.7,0.6c0,0.4,0,0.9,0,1.3c0,1.5,0,1.5-1.4,1.6
		c-0.7,0.1-0.8,0.1-0.8,1c0,2.6,0,5.1,0,7.7c0,0.2,0,0.4,0,0.6c0,0.5-0.2,0.7-0.7,0.7c-0.7,0-1.5,0-2.2,0c-0.5,0-0.7-0.2-0.7-0.7
		C208.2,372.6,208.2,371.2,208.2,369.8L208.2,369.8z"/>
	<path id="Path_11743" class="st3" d="M271.6,368c0-1.9,0-3.8,0-5.7c0-1,0-1.1,1.1-1c0.7,0,1.5-0.3,2,0.1c0.5,0.5,0.2,1.4,0.2,2.1
		c0,2.2,0,4.5,0,6.7c0,0.8,0.1,0.9,0.9,0.9c0.6,0,1.1,0,1.7,0c0.5,0,0.8,0.1,0.8,0.7c0,0.8,0,1.6,0,2.4c0,0.5-0.2,0.6-0.7,0.6
		c-1.7,0-3.5,0-5.2,0c-0.7,0-0.8-0.3-0.8-0.9C271.6,372,271.6,370,271.6,368L271.6,368z"/>
	<path id="Path_11744" class="st3" d="M203.2,368.1c0,1.9,0,3.9,0,5.8c0,0.6-0.2,0.9-0.8,0.9c-2.9-0.1-2.5,0.5-2.5-2.4
		c0-3.2,0-6.4,0-9.6c0-0.3,0-0.6,0-0.8c0-0.5,0.3-0.7,0.8-0.7c0.6,0,1.3,0,1.9,0c0.4,0,0.6,0.2,0.6,0.6c0,0.4,0,0.9,0,1.3
		L203.2,368.1C203.2,368.1,203.2,368.1,203.2,368.1z"/>
	<path id="Path_11745" class="st2" d="M239,369c0.5,0.3,1,0.7,1.4,1.1c0.3,0.2,0.4,0.5,0.4,0.9c0,0.4-0.2,0.5-0.5,0.4
		c-0.1-0.1-0.3-0.2-0.4-0.3c-0.3-1.2-1.2-1.2-2.1-1.4c0.2-0.3,0.4-0.2,0.6-0.2C238.8,369.4,238.9,369.2,239,369z"/>
	<path id="Path_11746" class="st2" d="M249.6,369.4c0.6,0.2,1.1,0.6,1.3,1.3c0.1,0.2,0.2,0.5-0.1,0.7c-0.3,0.2-0.5,0-0.7-0.2
		c-0.1,0-0.1-0.1-0.1-0.2c-0.1-1.1-1-1.1-1.7-1.2C248.6,369.3,249.1,369.5,249.6,369.4z"/>
	<path id="Path_11747" class="st2" d="M297.8,368.9c-0.4-0.3-0.8-0.7-1.2-1c0.2-0.4,0.6-0.5,1-0.6
		C297.4,367.8,297.9,368.3,297.8,368.9z"/>
	<path id="Path_11748" class="st2" d="M297.7,373.5c0-0.3,0.2-0.6,0.4-0.8C298.3,373.1,298.1,373.4,297.7,373.5z"/>
	<path id="Path_11749" class="st2" d="M298,366.7c-0.1-0.2,0-0.3,0.2-0.4C298.3,366.6,298.3,366.7,298,366.7z"/>
	<path id="Path_11753" class="st3" d="M351.7,294.1c-1.1-0.4-1.7-1.5-1.5-2.7C350.7,292.3,351.2,293.2,351.7,294.1z"/>
	<path id="Path_11756" class="st2" d="M145.6,274.8c-0.1-0.1,0-0.2,0-0.4c0.6-1.8,1.8-3.4,3.4-4.5c0.2-0.1,0.4-0.2,0.6-0.3
		c0.4-0.1,0.8,0.2,1.2,0.3c1.3,0.5,2.9-0.4,4.3,0c0.1,0,0.3,0.1,0.3,0.2c0.2,0.3,0,0.7,0.2,0.9c0.2-0.1,0.3-0.3,0.4-0.5
		c0.1-0.2,0.2-0.5,0.4-0.6c0.9-0.5-0.3,1.5-0.4,1.7c-0.5,0.9-0.8,1.8-1,2.7c0,0.1-0.1,0.2-0.1,0.3c-0.1,0.1-0.3,0.1-0.4,0.1
		c-2.8,0-5.7,0.1-8.5,0.1C145.8,274.9,145.7,274.9,145.6,274.8C145.6,274.8,145.6,274.8,145.6,274.8z"/>
	<path id="Path_11757" class="st2" d="M135.1,303.6c-0.6,0.3-1.3,0.3-1.8,0C133.8,303.5,134.5,303.5,135.1,303.6z"/>
	<path id="Path_11758" class="st2" d="M294.2,370.6c0-0.1,0-0.2,0-0.2c0.1-0.4-0.2-1.1,0.4-1c0.5,0,0.4,0.7,0.4,1.1c0,0.3,0,0.6,0,1
		c0,0.3,0,0.7-0.4,0.7c-0.3,0-0.3-0.4-0.4-0.7S294.2,370.9,294.2,370.6L294.2,370.6z"/>
	<path id="Path_11759" class="st2" d="M294.2,365.1c0.1-0.4-0.2-1.1,0.4-1.1c0.6,0,0.5,0.7,0.5,1.2c0,0.5,0.2,1.2-0.4,1.2
		C293.9,366.3,294.3,365.5,294.2,365.1z"/>
</g>
</svg>
