<?xml version="1.0" encoding="utf-8"?>
<!-- Generator: Adobe Illustrator 26.0.1, SVG Export Plug-In . SVG Version: 6.00 Build 0)  -->
<svg version="1.1" id="GeorgeSamuel.me" xmlns="http://www.w3.org/2000/svg" xmlns:xlink="http://www.w3.org/1999/xlink" x="0px"
	 y="0px" viewBox="0 0 512 512" style="enable-background:new 0 0 512 512;" xml:space="preserve">
<style type="text/css">
	.st0{fill:#111111;}
	.st1{fill:#E18974;}
</style>
<g id="www.GeorgeSamuel.me_00000144335762472025540960000000090591169401848198_">
	<rect class="st0" width="512" height="512"/>
	<circle class="st0" cx="256" cy="256" r="256"/>
	<g id="www.GeorgeSamuel.me">
		<path class="st1" d="M203.1,218.7c-6.9,2.1-10.7,9.5-13.6,16.2c-12.4,28.3-24.7,56.6-37.1,84.9c-4.5,10.2-9.8,21.4-20.1,25.8
			c-5.6,2.4-11.9,2.4-18.1,2.4c-9.5,0-19-0.1-28.5-0.1c-3.4,0-18.2-1-10.8-8.7c2.4-2.5,6.4-2.6,9.9-2.6c9.4,0.2,18.8,0.3,28.2,0.5
			c5.5,0.1,11.2,0.1,16-2.5c5.3-2.9,8.5-8.4,11.2-13.7c16.1-31.1,25.9-65.1,43.1-95.5c4.3-7.7,10-15.7,18.6-17.5
			c2.4-0.5,4.9-0.5,7-1.8c1.8-1.1,2.9-3,4.1-4.7c6.7-10,18.1-18.6,29.9-16.2c11.3,2.3,18.4,13.4,23.2,24
			c18.1,39.6,23.1,83.8,37.1,125.1c4.6-31.3,0.3-63.2,2.1-94.8c0.4-7.6,3.1-17.2,10.7-18.1c7.2-0.8,12.1,7.1,14.6,14
			c12.5,33.2,18.3,68.5,24.1,103.5c0.7,4.2,0.2,10.2-4.1,10.7c-3.9,0.5-6-4.3-6.8-8.2c-7.6-36-11-73.5-26.3-107
			c-4.2,33.5,4,67.9-1.8,101.2c-0.6,3.5-1.4,7.1-3.4,10c-2,2.9-5.4,5.2-9,4.7c-5.5-0.7-8.4-6.8-10.1-12
			c-13.6-42-18.4-86.9-37.3-126.8c-2.9-6.2-7-12.8-13.7-14.2c-9.4-1.9-16.8,7.4-21.8,15.6c15.2,10.6,22.6,29.1,27.4,47
			c4.9,17.8,8.1,36,9.8,54.3c0.1,1.4,0.3,2.8,1.1,3.9c0.8,1.1,2.2,1.6,3.5,2c8.2,3.1,15.8,7.9,22.1,14.1c3.1,3,6,7.3,4.7,11.4
			c-1.7,5.3-8.6,6.2-14.1,6.2c-25.2,0-50.4-0.1-75.6-0.1c-2.5,0-5,0-7.2-1.1c-4.4-2.1-6.1-7.4-7-12.2c-7.6-40,7.8-80.2,18.1-119.6
			C203.3,218.6,203.2,218.7,203.1,218.7z M255.4,325.3c-3.1,7.6-12.8,10-21,9.3c-8.1-0.7-15.9-3.3-22.8-7.7c-5-3.2-9.9-9.2-7.2-14.5
			c2.2-4.4,8.1-5.1,13-5c9.5,0.2,19.1,1.5,28.3,3.8c-1.7-21.9-6.5-43.5-14.1-64c-3.8-10.2-8.7-20.7-17.7-26.8
			c-10.3,26.4-16.9,54.1-19.8,82.2c-0.9,8.6-1.4,17.4,0,26.1c0.6,3.8,0.9,8,4.1,9.7c3.3,1.8,12.3,0.1,16.2,0.2
			c20.8,0.3,41.5,0.5,62.3,0.8C270,334,262.9,329.3,255.4,325.3z M222.1,314.1c-0.8,0-1.5,0-2.3,0c-1.3,0-2.6,0.1-3.6,0.8
			c-6.9,4.5,19.7,11.5,23.3,11.4c1.8-0.1,3.7-0.3,5.2-1.2c1.6-1,2.7-2.8,2.3-4.6c-0.5-2.3-3.1-3.3-5.3-3.9
			C235.3,314.9,228.7,314,222.1,314.1z"/>
		<path class="st1" d="M271.5,72.9c-2.2,8.8-7.4,16.2-14.8,22.1c-8.1,5.9-19.9,5.9-27.3,13.3c-5.9,5.9-7.4,16.2-14.8,20.7
			c-2.2,1.5-5.9,2.2-7.4,4.4s-1.5,4.4-1.5,6.6c0,9.6,2.9,20.7,11.8,23.6c12.5,3.7,24.3-11.8,36.9-8.1c-4.4-12.5-6.6-25.1-7.4-37.6
			c0-5.2,0.7-11.8,5.2-13.3c3.7-0.7,8.1,0.7,10.3,2.9c7.4,4.4,14,10.3,19.9,17c5.9,6.6,8.1,15.5,7.4,24.3c-1.5,8.8-8.1,16.2-17,17.7
			c5.9,6.6,9.6,14.8,8.1,23.6c0,3.7-2.2,7.4-5.2,8.8c-2.9,1.5-8.1,0-8.1-3.7c0-1.5,0.7-2.9,1.5-4.4c3.7-10.3-1.5-22.1-11.8-25.8
			c-1.5-0.7-3.7-0.7-5.2-1.5c-11.1,0-20.7,9.6-31.7,8.8c-8.8-0.7-17-6.6-20.7-14.8c-3.7-8.8-4.4-18.4-1.5-28
			c2.9-6.6,11.1-8.1,15.5-14c2.2-3.7,4.4-8.1,5.9-11.8c8.1-12.5,30.2-10.3,37.6-23.6c2.9-5.2,2.9-11.8,8.1-15.5
			c5.2-2.9,12.5-2.2,17,2.2c4.4,4.4,8.1,9.6,11.1,14.8c18.4,27.3,56.1,37.6,70.8,67.1c8.9,17,8.1,36.9,8.1,55.3
			c-0.7,27.3-1.5,55.3-2.2,82.6c-0.7,17,0,33.2,2.2,49.4l59,0.7c2.9,0,5.9,0,7.4,2.9c0.7,2.2,0,5.2-2.9,6.6
			c-2.2,0.7-5.2,1.5-7.4,1.5H374c-2.2,0-5.2,0-7.4-1.5c-4.4-2.2-5.9-8.1-5.9-13.3c-1.5-22.9-2.2-46.5-1.5-69.3
			c0.7-25.8,2.9-51.6,1.5-76.7c0-12.5-2.9-24.3-8.1-35.4c-8.1-14.8-22.9-23.6-36.1-33.9c-17-14-31.7-28.8-45-46.5L271.5,72.9
			L271.5,72.9z M256,114.2c0,0.7,0,0.7,0,1.5c0,2.2,0,3.7,0,5.9c0.7,4.4,1.5,8.1,2.2,12.5c0.7,2.9,1.5,5.9,2.2,9.6
			c1.5,4.4,2.9,8.8,5.9,13.3c0,0.7,0.7,0.7,1.5,0.7c2.2,0.7,5.2,0.7,7.4,0c1.5,0,2.9-1.5,4.4-2.9c0-0.7,0.7-1.5,0.7-1.5
			c1.5-4.4,1.5-10.3,0-14.8c-1.5-2.9-2.9-5.9-5.2-8.8c-4.4-5.9-10.3-10.3-17-14C256.8,114.2,256,114.2,256,114.2z"/>
		<path class="st1" d="M255.3,405.5c0-1.5,0-2.9,0-4.4c0-0.7,0-2.2,0-2.9c0-5.2,0-9.6,0-14.8c0-2.2,0-4.4,0-6.6
			c0-1.5,1.5-3.7,2.9-3.7c0,0,0,0,0.7,0s2.2,0,2.9,0s1.5,0.7,1.5,1.5l0,0c0,0.7,0,1.5,0,1.5c0,2.9,0,5.9,0,8.9c0,19.2,0,38.4,0,57.5
			c0,0.7,0,1.5,0,2.2c0,0.7-0.7,1.5-1.5,1.5c-1.5,0-2.2,0-3.7,0c-1.5,0-2.9-1.5-2.9-2.9c-0.7-3.7-1.5-6.6-1.5-10.3
			c-0.7-4.4-1.5-8.1-2.2-12.5c0-0.7-0.7-1.5-0.7-2.9c-0.7,0-0.7,0-0.7,0.7v0.7c0,2.9,0,6.6,0,9.6c0,4.4,0,8.9,0,13.3
			c0,0.7,0,0.7,0,1.5c0,1.5-1.5,2.9-2.9,2.9c-1.5,0-2.9,0-4.4,0c-0.7,0-0.7-0.7-1.5-0.7c0-0.7,0-0.7,0-1.5s0-0.7,0-1.5
			c0-22.1,0-43.5,0-65.6c0-0.7,0-1.5,0-2.2c0-0.7,0.7-1.5,1.5-1.5l0,0c0.7,0,2.2,0,2.9,0c1.5,0,2.9,1.5,3.7,2.9
			c0,1.5,0.7,2.9,0.7,4.4c1.5,7.4,2.2,15.5,3.7,22.9C254.6,404,254.6,404.8,255.3,405.5L255.3,405.5z"/>
		<path class="st1" d="M194.1,409.9c0-8.9,0-18.4,0-27.3c0-0.7,0-2.2,0-2.9c0.7-2.9,2.9-5.9,5.9-6.6c3-0.7,5.9-0.7,8.8,0
			c3.7,0.7,6.6,4.4,6.6,8.1c0,0.7,0,0.7,0,1.5v54.6c0,0.7,0,1.5,0,1.5c0,3.7-2.2,6.6-5.9,7.4c-2.9,1.5-6.6,1.5-10.3,0
			c-3.7-1.5-5.9-5.2-5.9-8.9C194.1,428.4,194.1,419.5,194.1,409.9z M202.9,409.9v26.6c0,0.7,0,1.5,0,1.5c0,0.7,0.7,1.5,1.5,1.5
			c0.7,0,2.2,0,2.9-0.7v-0.7c0-0.7,0-0.7,0-1.5v-54.6c0-0.7,0-0.7,0-1.5c0-1.5-0.7-2.2-2.2-2.2l0,0c-1.5,0-2.2,0.7-2.2,2.2
			c0,0.7,0,1.5,0,1.5L202.9,409.9L202.9,409.9z"/>
		<path class="st1" d="M330.1,430.5c0.2-3.1,0.6-6.2,0.8-9.1c1.8-1.7,5.1-0.9,6.6,1.1c1.5,2,1.7,4.8,1.5,7.3c-0.2,2.5-0.8,5-0.5,7.6
			c0.2,2,2.2,4.4,3.8,3.2c0.8-0.6,0.9-1.7,0.9-2.7c0.4-18.9-14.8-35.8-13.5-54.7c0.1-2.1,0.5-4.3,1.7-6c2.2-3.1,6.4-4,10.2-3.6
			c3.6,0.4,7.4,2.1,8.8,5.5c0.8,1.8,0.8,3.8,0.8,5.7c0,4.4,0,8.9,0,13.3c0,0.8,0,1.6-0.3,2.3c-1.1,2.5-5,2.1-6.6-0.1
			c-1.6-2.1-1.5-5.1-1.4-7.7c0.1-2,0.2-3.9,0.3-5.9c0.1-1.3,0.1-2.6-0.5-3.7s-2.3-1.6-3.2-0.7c-0.5,0.5-0.6,1.2-0.6,1.8
			c-1.4,13.3,7.2,25.4,11.2,38.2c1.6,4.9,2.5,10,2.7,15.1c0.2,3.5-0.2,7.5-3,9.7c-3.1,2.3-7.4,1.3-11.1,0.2
			C330.7,444.8,329.7,437.8,330.1,430.5z"/>
		<path class="st1" d="M399.9,389.3c0,1.7,0,3.5-0.1,5.2c0,1.6-0.1,3.4-1.2,4.6c-1.8,1.9-5.4,0.8-6.8-1.4c-1.4-2.3-1.3-5.1-1.1-7.8
			c0.1-2.4,0.3-4.8,0.4-7.2c0-0.7,0.1-1.5-0.3-2.1c-0.8-1.3-2.9-1-3.8,0.3c-0.9,1.2-0.9,2.9-0.7,4.4c1.6,18.3,14.9,34.8,13.6,53.1
			c-0.1,2-0.5,4-1.5,5.7c-1.3,2.1-3.7,3.5-6.1,4c-15.2,3.5-15.5-12.4-15.2-22.7c0-1.1,0.1-2.2,0.7-3.2c1.5-2.4,5.4-1.8,7.1,0.5
			c1.7,2.3,1.6,5.3,1.3,8.1c-0.3,2.8-0.9,5.7,0.1,8.3c0.2,0.6,0.5,1.1,0.9,1.5c1,0.8,2.6,0.2,3.3-0.8s0.9-2.3,0.9-3.6
			c0.5-19.4-15.6-37.2-12.5-56.3c0.2-1.4,0.6-2.9,1.5-4.1c1.1-1.3,2.8-2,4.5-2.4c5.1-1.2,11.4-0.5,13.9,4.1c1.2,2.3,1.2,5,1.2,7.6
			C399.9,386.5,399.9,387.9,399.9,389.3z"/>
		<path class="st1" d="M298.1,407c0.7,0,0.7,0,1.5,0c1.5,0,2.9,0,4.4,0c0.7,0,0.7,0,1.5,0s0.7,0.7,0.7,1.5s0,1.5,0,2.9
			c0,1.5-1.5,2.2-2.9,2.9c-0.7,0-2.2,0-2.9,0c-0.7,0-1.5,0-2.2,0c0,0.7,0,0.7,0,1.5c0,6.6,0,22.1,0,24.3c0.7,0,0.7,0,1.5,0
			c1.5,0,2.9,0,3.7,0s0.7,0,1.5,0c1.5,0,2.2,1.5,2.2,2.9c0,0.7,0,1.5,0,2.2c0,0.7-0.7,1.5-0.7,1.5c-0.7,0-0.7,0-1.5,0
			c-4.4,0-8.1,0-12.5,0h-0.7c-0.7,0-1.5-0.7-1.5-1.5c0-0.7,0-1.5,0-1.5v-66.4c0-0.7,0-1.5,0-2.2c0-0.7,0.7-1.5,1.5-1.5h0.7
			c4.4,0,8.1,0,12.5,0c0.7,0,1.5,0,1.5,0c0.7,0,0.7,0.7,0.7,1.5c0,0.7,0,1.5,0,2.2c0,1.5-1.5,2.9-2.9,2.9c-1.5,0-2.9,0-3.7,0
			s-1.5,0-2.2,0c0,0,0,0,0,0.7C298.1,389.3,298.1,398.1,298.1,407C297.3,406.2,297.3,406.2,298.1,407z"/>
		<path class="st1" d="M127.7,439.4c0.7,0,0.7,0,1.5,0c1.5,0,2.9,0,3.7,0c1.5,0,3.7,1.5,3.7,2.9l0,0c0,0.7,0,1.5,0,2.2
			c0,0.7-0.7,1.5-1.5,1.5c-0.7,0-0.7,0-1.5,0c-4.4,0-8.1,0-12.5,0c-2.2,0-2.2-0.7-2.2-2.2c0-0.7,0-0.7,0-1.5V376c0-0.7,0-1.5,0-2.2
			c0-0.7,0.7-1.5,1.5-1.5l0,0c1.5,0,2.2,0,3.7,0s2.9,1.5,2.9,2.9l0,0c0,0.7,0,1.5,0,1.5c0,19.9,0,39.1,0,59
			C127,437.9,127,438.7,127.7,439.4z"/>
		<path class="st1" d="M169,409.9v32.4c0,0.7,0,1.5,0,1.5c0,1.5-0.7,2.2-2.2,2.2s-2.9,0-4.4,0c-1.5,0-2.2-1.5-2.2-2.2
			c0-0.7,0-0.7,0-1.5v-64.9c0-0.7,0-1.5,0-1.5c0-1.5,0.7-2.2,2.2-2.9c1.5,0,2.9,0,5.2,0c0,0,0.7,0,0.7,0.7s0.7,0.7,0.7,1.5
			s0,1.5,0,1.5C169,377.5,169,409.9,169,409.9z"/>
	</g>
</g>
</svg>
