<svg width="192" height="100" viewBox="0 0 192 100" fill="none" xmlns="http://www.w3.org/2000/svg">
<path d="M190.185 58.7069C190.185 58.0569 190.105 57.5269 190.065 57.1769C190.075 56.6569 190.095 56.1369 190.115 55.5769C190.135 55.0369 190.155 54.4869 190.175 53.9069V53.8569C190.195 52.5669 189.905 51.5869 189.785 51.1669C189.255 49.1269 187.895 47.3969 186.025 46.4169C184.935 45.8369 183.735 45.5469 182.525 45.5469C181.625 45.5469 180.725 45.7069 179.865 46.0369C179.315 46.2469 178.825 46.4769 178.395 46.7269C177.495 46.3569 176.535 46.1769 175.575 46.1769C174.835 46.1769 174.105 46.2869 173.385 46.5069C173.195 46.4169 172.995 46.3269 172.795 46.2469L174.035 46.0069C175.175 45.7869 176.265 45.5769 177.355 45.3669C177.425 45.3669 177.495 45.3569 177.555 45.3469C178.765 45.2269 181.605 44.9469 183.975 42.6269C185.395 41.2369 186.155 39.7169 186.665 38.7169C186.755 38.5369 186.845 38.3669 186.895 38.2569C186.895 38.2469 186.905 38.2369 186.915 38.2169C187.445 37.2369 187.685 36.3669 187.805 35.8969C187.805 35.8669 187.815 35.8469 187.825 35.8169C188.155 34.7769 188.245 33.6869 188.105 32.6269C191.305 27.6069 190.255 23.1369 189.255 20.7869C188.765 19.6369 188.225 18.5769 187.745 17.6369L187.645 17.4469C186.265 14.7069 183.555 13.0069 180.545 13.0069C179.655 13.0069 178.775 13.1569 177.915 13.4469C176.425 13.9569 175.125 14.9169 174.215 16.2069C173.955 16.5769 173.635 17.0169 173.315 17.4669C172.375 18.7669 171.745 20.1769 171.425 21.6369C170.885 21.6869 170.345 21.7369 169.795 21.7869L169.295 21.8269C168.895 21.8669 168.505 21.8969 168.115 21.9369C166.795 22.0669 165.545 22.1969 164.435 22.1969C164.305 22.1969 164.175 22.1969 164.055 22.1969C163.655 22.1869 163.175 22.1769 162.665 22.1769C161.165 22.1769 159.905 22.2869 158.715 22.5069C158.685 22.5069 158.645 22.5169 158.545 22.5169H158.425C157.865 22.4969 157.315 22.4769 156.775 22.4769C155.115 22.4769 153.485 22.5869 151.905 22.8069C151.325 22.6469 150.725 22.5569 150.115 22.5469C149.795 22.5469 149.425 22.5169 149.035 22.4969C148.385 22.4569 147.655 22.4269 146.855 22.4269H146.615C146.205 21.6369 145.705 20.9069 145.115 20.2469C144.015 18.9969 142.835 17.8569 141.605 16.8369C139.885 15.4169 137.735 14.6369 135.545 14.6369C133.845 14.6369 132.145 15.1069 130.635 15.9869C129.955 15.2769 129.195 14.6469 128.355 14.0969C126.805 13.0769 125.015 12.5469 123.205 12.5469C121.395 12.5469 119.505 13.1369 117.975 14.1869C117.975 13.8269 117.975 13.4669 117.965 13.1069V13.0669C117.955 12.0369 117.755 11.2469 117.645 10.8169C117.625 10.7469 117.615 10.6969 117.605 10.6669C117.305 9.22687 116.595 7.89688 115.545 6.85688C114.145 5.45688 112.235 4.67687 110.265 4.67687H110.235C108.805 4.67687 107.415 5.09688 106.235 5.85688C105.995 5.83688 105.745 5.81688 105.505 5.81688C103.675 5.81688 101.895 6.48688 100.505 7.72688C99.3955 8.71688 98.7055 9.73687 98.2855 10.3369C98.2555 10.3769 98.2255 10.4269 98.1955 10.4669C97.9455 10.7369 97.6955 11.0369 97.4455 11.3669C95.7755 11.5469 94.1855 11.7269 92.5955 11.8969L92.1555 11.9469C92.1555 11.8469 92.1555 11.7569 92.1555 11.6569C92.1355 9.26687 91.0455 7.03687 89.2055 5.53687C88.9255 5.06687 88.6055 4.61687 88.2255 4.19687C88.2255 4.19687 88.2255 4.19688 88.2255 4.18688C86.6055 2.34688 84.2755 1.29688 81.8355 1.29688C80.8155 1.29688 79.8055 1.47688 78.8255 1.82688C77.2755 2.38688 75.9155 3.28688 74.8855 4.45688C74.8855 4.45688 74.8755 4.46688 74.8655 4.47688C74.3055 5.11688 73.8755 5.73688 73.5655 6.17688C73.4955 6.28688 73.4155 6.38687 73.3455 6.49687C72.3755 7.82687 71.9055 9.40687 71.9255 10.9769C71.8555 11.3869 71.8255 11.7969 71.8255 12.2169C71.1955 14.0469 71.3955 15.6669 71.6155 16.5969C71.7655 17.2169 71.9855 17.7969 72.2655 18.3569C71.3055 18.5769 70.4755 18.9169 69.7855 19.2569C68.9755 18.9669 68.1355 18.8269 67.2955 18.8269C66.1655 18.8269 65.0455 19.0769 64.0055 19.5869C63.9655 19.6069 63.9255 19.6269 63.8955 19.6369C63.5655 19.7869 63.0055 20.0369 62.3655 20.4669C62.4555 16.3469 59.6255 12.9569 55.5755 12.3369C55.2055 12.2769 54.8255 12.2569 54.4555 12.2569C51.9655 12.2569 49.6055 13.4969 48.2055 15.6169C48.0555 15.8369 47.9055 16.0669 47.7555 16.2969C47.3955 16.8269 47.0355 17.3769 46.6555 17.9669C46.6255 18.0069 46.6055 18.0469 46.5755 18.0869C46.0955 17.9869 45.6055 17.9469 45.1055 17.9469C44.4355 17.9469 43.7755 18.0369 43.1155 18.2169C43.1155 18.2169 43.1055 18.2169 43.0955 18.2169C42.2055 17.8669 41.2855 17.6969 40.3555 17.6969C38.7155 17.6969 37.0855 18.2369 35.7455 19.2769C35.6355 19.3669 35.5355 19.4369 35.4555 19.4969C35.1955 19.6969 34.8655 19.9369 34.5055 20.2669C34.3655 20.3869 34.3155 20.4069 34.2455 20.4169C34.2355 20.4169 34.2155 20.4169 34.2055 20.4169C33.1655 20.6069 32.2455 20.8469 31.3655 21.1469C31.3555 21.1469 31.3455 21.1469 31.3355 21.1569C31.3155 21.1569 31.1755 21.2069 30.7655 21.2169C29.2555 19.3869 27.3455 18.7169 26.4055 18.4769C25.8055 18.3269 25.2055 18.2569 24.5955 18.2569C23.0255 18.2569 21.4855 18.7469 20.1955 19.6869C18.6555 20.8069 17.8055 22.1769 17.3455 23.0469C15.8955 21.6769 14.0355 20.9769 12.1655 20.9769C10.2955 20.9769 8.47548 21.6469 7.03548 23.0069L6.97548 23.0569C6.75548 23.2569 6.33548 23.6269 5.89548 24.1369C3.63548 26.7669 2.61548 29.7069 2.05548 31.6969C1.88548 32.2769 1.80548 32.7669 1.74548 33.0969C1.74548 33.1169 1.74548 33.1369 1.73548 33.1669C1.28548 34.8469 1.41548 36.3069 1.55548 37.2169C1.48548 38.1669 1.58548 39.1469 1.86548 40.1369C2.55548 42.8469 3.91548 45.0969 5.79548 46.7569C5.24548 47.2969 4.65548 47.9669 4.13548 48.7869C2.69548 51.0369 2.21548 53.6369 2.74548 56.2969C2.77548 56.4369 2.80548 56.5669 2.83548 56.7069C1.03548 59.2669 0.985481 62.7869 2.91548 65.4369C5.73548 69.3069 9.58548 71.4269 13.7555 71.4269C15.5355 71.4269 17.2955 71.0269 18.9555 70.2669C19.6755 70.6569 20.4455 70.9469 21.2655 71.1369C21.0155 71.3069 20.7755 71.4969 20.5455 71.7069C18.6855 73.3969 17.5055 75.3669 16.9455 77.7469C16.8455 78.1469 16.7855 78.5669 16.7555 78.9869C16.7555 79.0069 16.7555 79.0269 16.7555 79.0469C16.7555 79.1469 16.7555 79.2469 16.7455 79.3469C16.7455 79.3869 16.7455 79.4169 16.7455 79.4569V79.5069C16.7455 83.3069 19.5855 86.4969 23.3455 86.9469C23.5255 86.9669 23.7155 86.9769 23.8955 86.9869C24.6555 87.0369 25.3255 87.0769 26.0255 87.0769C26.8355 87.0769 27.5855 87.0269 28.3255 86.9369C28.3955 86.9369 28.5355 86.9569 28.6455 86.9669C29.0555 87.0069 29.6255 87.0669 30.2955 87.0669C30.7055 87.0669 31.1355 87.0669 31.5555 87.0669C32.0055 87.0669 32.4555 87.0669 32.9155 87.0669H34.2255C35.2755 87.0669 36.0755 87.0669 36.8055 87.0969C37.1155 87.0969 37.4255 87.1069 37.7655 87.1069C38.5655 87.1069 39.3155 87.0869 40.0555 87.0669C40.7055 87.0469 41.3255 87.0269 41.9055 87.0269C42.3655 87.0269 42.7555 87.0369 43.1055 87.0669C43.1955 87.0669 43.2855 87.0669 43.3755 87.0769C43.5055 87.6369 43.6355 88.1469 43.7655 88.5769C43.7655 88.6069 43.7755 88.6269 43.7855 88.6569C44.2855 90.2969 45.2755 91.6669 46.7255 92.7269C48.0455 93.7569 49.6655 94.3069 51.3255 94.3069C51.9255 94.3069 52.5255 94.2369 53.1155 94.0869C55.0455 93.6169 56.6855 92.4069 57.7055 90.7469C58.3855 90.9869 59.1055 91.1369 59.8455 91.1969C60.0855 91.2169 60.3355 91.2269 60.5855 91.2269C61.0955 91.2269 61.5255 91.1869 61.8455 91.1669C61.9455 91.1669 62.0455 91.1469 62.1655 91.1369C62.5655 91.1169 62.9555 91.0469 63.3455 90.9669C63.8255 91.0869 64.3255 91.1669 64.8355 91.1869C65.0055 91.1969 65.2855 91.2269 65.6355 91.2269C66.7155 91.2269 67.7555 91.0169 68.7055 90.6269C69.6155 91.0069 70.5655 91.2069 71.5555 91.2169C73.0555 91.2369 74.5655 91.2469 76.0555 91.2469C76.6955 91.2469 77.2355 91.1969 77.6255 91.1669C77.7055 91.1669 77.7855 91.1569 77.8655 91.1469C78.4455 91.1069 79.0055 90.9969 79.5555 90.8269C80.3555 91.0869 81.1955 91.2269 82.0455 91.2269C83.6455 91.2269 85.1855 90.7569 86.4955 89.8669C87.1055 90.3069 87.7755 90.6669 88.5055 90.9169C89.2955 91.1869 90.1055 91.3169 90.9155 91.3169C91.8655 91.3169 92.7955 91.1369 93.6755 90.7869C93.9355 90.9169 94.1955 91.0369 94.4655 91.1369C94.9555 91.3369 96.0655 91.7469 97.5055 91.7469C97.7955 91.7469 98.0955 91.7269 98.3855 91.6969C99.2655 91.5969 100.085 91.4769 100.875 91.3569C101.345 91.2869 101.795 91.2169 102.225 91.1669C103.415 91.0069 104.555 90.6769 105.615 90.2069C105.715 90.2669 105.815 90.3169 105.925 90.3669C105.945 90.3669 105.965 90.3869 105.985 90.3869C106.205 90.4969 106.435 90.5869 106.665 90.6769C106.695 90.6869 106.725 90.6969 106.745 90.7069C106.845 90.7469 106.945 90.7769 107.045 90.8069C107.095 90.8269 107.145 90.8369 107.205 90.8469C107.355 90.8869 107.515 90.9269 107.675 90.9669C107.745 90.9769 107.805 90.9969 107.875 91.0069C107.965 91.0269 108.055 91.0369 108.145 91.0569C108.275 91.0769 108.405 91.0969 108.535 91.1069C108.615 91.1069 108.695 91.1169 108.775 91.1269C108.875 91.1269 108.975 91.1369 109.075 91.1369C109.125 91.1369 109.185 91.1369 109.235 91.1369C109.425 91.1369 109.625 91.1269 109.815 91.1069H109.835C110.215 91.0769 110.595 91.0169 110.965 90.9269H110.985C111.165 90.8869 111.335 90.8369 111.515 90.7769C111.525 90.7769 111.535 90.7769 111.545 90.7769C111.725 90.7169 111.905 90.6569 112.075 90.5869C112.635 90.8169 113.235 90.9769 113.855 91.0669C114.205 91.1169 114.555 91.1369 114.905 91.1369C115.795 91.1369 116.665 90.9769 117.475 90.6769C118.295 90.9669 119.145 91.1169 119.995 91.1169C121.625 91.1169 123.255 90.5869 124.595 89.5369C125.245 89.0369 125.815 88.4769 126.315 87.8669C127.785 89.9769 130.155 91.2569 132.705 91.2569C135.465 91.2569 138.005 89.7769 139.505 87.2969C139.505 87.2969 139.515 87.2769 139.525 87.2669C139.555 87.2069 139.585 87.1569 139.615 87.1069C140.095 87.1069 140.575 87.1069 141.055 87.1069C142.955 87.1069 144.855 87.1169 146.755 87.1169C147.945 87.1169 149.135 87.1169 150.315 87.1169C150.435 87.1169 150.615 87.1169 150.795 87.1269C151.095 87.1369 151.475 87.1569 151.895 87.1569C152.605 87.1569 153.265 87.1069 153.915 87.0169C154.535 87.1069 155.165 87.1569 155.835 87.1569C156.345 87.1569 156.795 87.1269 157.165 87.1169C157.355 87.1069 157.575 87.0969 157.675 87.0969C157.745 87.0969 157.815 87.0969 157.895 87.0969C160.465 87.0969 162.915 85.9469 164.465 84.0269C164.465 84.0269 164.465 84.0169 164.475 84.0069C164.505 83.9669 164.535 83.9369 164.565 83.8969C165.325 82.9769 167.335 80.5169 166.985 76.7269C166.925 76.0369 166.765 75.3769 166.525 74.7469C168.775 75.5669 170.895 76.1769 172.935 76.6069C174.085 76.8469 175.165 76.9669 176.245 76.9669C178.665 76.9669 180.895 76.3469 182.865 75.1369C187.385 72.3569 189.975 68.0669 190.155 63.0669C190.205 61.6369 190.185 60.2769 190.165 58.9569V58.7569L190.185 58.7069Z" fill="white"/>
<path d="M51.346 95.0762C49.506 95.0762 47.706 94.4562 46.256 93.3262C44.676 92.1762 43.596 90.6662 43.036 88.8562C42.936 88.5162 42.836 88.1762 42.756 87.8162C42.036 87.7862 41.096 87.8162 40.116 87.8362C39.066 87.8662 37.876 87.8962 36.826 87.8662C36.106 87.8462 35.316 87.8362 34.266 87.8362H30.326C29.616 87.8362 29.006 87.7662 28.606 87.7262L28.376 87.7062C27.636 87.7962 26.886 87.8462 26.066 87.8462C25.426 87.8462 24.766 87.8162 23.876 87.7562C23.686 87.7462 23.486 87.7362 23.286 87.7062C19.116 87.2062 15.966 83.6662 15.966 79.4562L15.986 78.9462C16.026 78.4062 16.096 77.9462 16.206 77.5062C16.766 75.1362 17.906 73.1362 19.676 71.4162C19.446 71.3262 19.216 71.2262 18.986 71.1162C17.316 71.8262 15.576 72.1962 13.806 72.1962C9.37596 72.1962 5.29596 69.9462 2.31596 65.8662C0.285955 63.0962 0.185955 59.3762 2.01596 56.5062C2.01596 56.4762 2.00596 56.4462 1.99596 56.4162C1.42596 53.5362 1.94596 50.7362 3.50595 48.3162C3.84595 47.7762 4.24596 47.2662 4.70596 46.7562C3.01595 45.0462 1.78596 42.8363 1.14596 40.3063C0.855955 39.2763 0.745955 38.2362 0.815955 37.2262C0.595955 35.7462 0.655955 34.3163 1.01596 32.9663V32.9263C1.08596 32.5663 1.17596 32.0563 1.35596 31.4463C1.94596 29.3863 2.99595 26.3263 5.36595 23.5763C5.83595 23.0363 6.27596 22.6363 6.50596 22.4263C8.10596 20.9263 10.126 20.1262 12.246 20.1262C14.046 20.1262 15.776 20.7063 17.206 21.7663C17.916 20.6563 18.786 19.7262 19.796 18.9862C21.766 17.5562 24.256 17.0562 26.666 17.6462C27.696 17.9062 29.586 18.5863 31.176 20.3263L31.236 20.3062C32.086 20.0162 33.026 19.7763 34.066 19.5763C34.446 19.2363 34.776 18.9863 35.036 18.7863L35.316 18.5662C37.516 16.8462 40.596 16.3562 43.216 17.2962C44.216 17.0562 45.256 16.9962 46.256 17.1262C46.546 16.6762 46.826 16.2563 47.106 15.8463L47.596 15.1062C49.366 12.4262 52.526 10.9962 55.766 11.4762C59.746 12.0762 62.686 15.1662 63.176 19.0462C63.356 18.9562 63.516 18.8863 63.636 18.8363C65.656 17.8563 67.826 17.7062 69.816 18.3162C70.276 18.1062 70.756 17.9163 71.226 17.7663C71.096 17.4263 70.986 17.0762 70.906 16.7262C70.646 15.6362 70.466 13.9363 71.086 12.0163C71.086 11.6363 71.126 11.2463 71.186 10.8463C71.186 9.07625 71.726 7.38625 72.766 5.94625L72.986 5.63625C73.316 5.16625 73.746 4.53625 74.336 3.86625C75.476 2.57625 76.956 1.58625 78.626 0.98625C79.686 0.60625 80.796 0.40625 81.906 0.40625C84.556 0.40625 87.086 1.54625 88.856 3.52625L88.946 3.63625C89.316 4.06625 89.626 4.48625 89.896 4.92625C91.716 6.46625 92.826 8.63625 93.006 10.9862L97.076 10.5463C97.266 10.3063 97.456 10.0762 97.666 9.85625C98.126 9.17625 98.856 8.11625 100.026 7.06625C101.676 5.57625 103.856 4.80625 106.096 4.96625C107.366 4.21625 108.816 3.81625 110.296 3.80625C112.536 3.80625 114.616 4.66625 116.186 6.22625C117.346 7.38625 118.136 8.84625 118.466 10.4462L118.496 10.5662C118.596 10.9562 118.786 11.7262 118.836 12.7262C122.006 11.1662 125.876 11.4062 128.866 13.3663C129.566 13.8163 130.226 14.3462 130.846 14.9362C134.526 13.0762 139.046 13.5763 142.186 16.1663C143.446 17.2063 144.656 18.3863 145.786 19.6663C146.296 20.2463 146.756 20.8863 147.156 21.5763C147.876 21.5763 148.536 21.6162 149.136 21.6462C149.516 21.6662 149.876 21.6863 150.196 21.6963C150.806 21.7063 151.416 21.7963 152.006 21.9463C154.086 21.6663 156.236 21.5763 158.516 21.6663H158.596C159.856 21.4363 161.156 21.3162 162.716 21.3162C163.236 21.3162 163.726 21.3263 164.126 21.3363C164.256 21.3363 164.366 21.3363 164.486 21.3363C165.546 21.3363 166.746 21.2163 168.026 21.0863C168.476 21.0463 168.866 21.0062 169.276 20.9662L170.826 20.8263C171.206 19.4463 171.836 18.1363 172.706 16.9363L173.606 15.6862C174.626 14.2462 176.046 13.1963 177.706 12.6363C178.646 12.3163 179.616 12.1562 180.596 12.1562C183.906 12.1562 186.906 14.0262 188.416 17.0462L188.516 17.2362C189.006 18.1962 189.546 19.2663 190.046 20.4363C191.056 22.7863 192.236 27.4963 188.996 32.7863C189.096 33.8863 188.986 34.9762 188.656 36.0262L188.616 36.1463C188.526 36.4963 188.266 37.4762 187.676 38.5662C187.596 38.7062 187.516 38.8663 187.436 39.0363C186.906 40.0863 186.116 41.6662 184.596 43.1562C183.926 43.8062 183.236 44.3063 182.546 44.6963C183.926 44.7263 185.256 45.0263 186.456 45.6562C188.516 46.7463 190.036 48.6663 190.616 50.9263C190.746 51.3563 191.056 52.4163 191.036 53.8363C191.026 54.4663 190.996 55.0363 190.976 55.5763C190.956 56.1063 190.936 56.6162 190.926 57.0962C190.966 57.4462 191.026 57.9462 191.046 58.5662V58.8763C191.066 60.0463 191.086 61.5063 191.046 63.0163C190.856 68.3063 188.126 72.8262 183.366 75.7562C180.336 77.6162 176.806 78.1662 172.846 77.3262C171.206 76.9862 169.546 76.5262 167.786 75.9362C167.826 76.1462 167.846 76.3562 167.866 76.5662C168.246 80.6762 166.076 83.3262 165.266 84.3162L165.136 84.4762C163.436 86.5662 160.756 87.8062 157.956 87.8062H157.826C157.656 87.8062 157.446 87.8062 157.276 87.8262C156.896 87.8462 156.426 87.8662 155.896 87.8662C155.216 87.8662 154.586 87.8262 153.976 87.7362C153.336 87.8262 152.666 87.8762 151.956 87.8762C151.526 87.8762 151.136 87.8662 150.816 87.8462H150.376C147.566 87.8462 144.746 87.8462 141.926 87.8362H140.136C138.446 90.4462 135.716 91.9862 132.766 91.9862C130.306 91.9862 127.966 90.9062 126.336 89.0462C125.966 89.4162 125.576 89.7662 125.156 90.0962C123.036 91.7462 120.106 92.2662 117.546 91.4562C116.346 91.8462 115.096 91.9662 113.806 91.7862C113.246 91.7062 112.696 91.5662 112.146 91.3762C112.046 91.4062 111.956 91.4462 111.856 91.4762C111.636 91.5462 111.436 91.6062 111.236 91.6462L111.136 91.6662C110.756 91.7562 110.356 91.8162 109.956 91.8462C109.716 91.8662 109.506 91.8762 109.296 91.8762H109.176C109.046 91.8762 108.936 91.8662 108.836 91.8562C108.706 91.8562 108.616 91.8462 108.516 91.8362C108.376 91.8262 108.226 91.8062 108.086 91.7862L107.566 91.6862C107.396 91.6462 107.226 91.6062 107.056 91.5562C107.006 91.5462 106.936 91.5262 106.866 91.4962C106.766 91.4662 106.656 91.4362 106.536 91.3862C106.206 91.2662 105.956 91.1562 105.706 91.0362C105.686 91.0362 105.676 91.0262 105.666 91.0162C104.626 91.4462 103.526 91.7362 102.406 91.8862C102.046 91.9362 101.686 91.9862 101.296 92.0462L101.066 92.0762C100.266 92.1962 99.436 92.3162 98.546 92.4162C97.106 92.5862 95.626 92.3762 94.226 91.8062C94.056 91.7462 93.876 91.6662 93.696 91.5862C91.956 92.1962 90.046 92.1962 88.306 91.6062C87.696 91.3962 87.106 91.1162 86.536 90.7562C84.476 91.9662 81.966 92.2862 79.616 91.5962C79.086 91.7462 78.536 91.8362 77.996 91.8762L77.776 91.8962C77.306 91.9362 76.766 91.9862 76.116 91.9862C74.626 91.9862 73.106 91.9762 71.606 91.9562C70.636 91.9462 69.686 91.7662 68.766 91.4262C67.786 91.7862 66.756 91.9662 65.696 91.9662C65.316 91.9662 65.016 91.9462 64.826 91.9262C64.376 91.9062 63.886 91.8362 63.396 91.7262C63.006 91.8062 62.636 91.8562 62.276 91.8762L61.976 91.8962C61.466 91.9362 60.636 91.9862 59.846 91.9362C59.256 91.8962 58.666 91.7862 58.096 91.6362C56.946 93.2162 55.286 94.3362 53.366 94.8162C52.716 94.9762 52.046 95.0562 51.386 95.0562L51.346 95.0762ZM41.926 86.1862C42.406 86.1862 42.816 86.1962 43.176 86.2262L44.046 86.2762L44.176 86.8662C44.296 87.4062 44.436 87.8962 44.556 88.3262C45.026 89.8662 45.916 91.0862 47.216 92.0362C48.826 93.2862 50.946 93.7462 52.926 93.2662C54.636 92.8462 56.096 91.7862 57.016 90.2862L57.356 89.7262L57.976 89.9362C58.606 90.1562 59.256 90.2962 59.916 90.3362C60.596 90.3762 61.336 90.3362 61.786 90.2962L62.116 90.2662C62.456 90.2462 62.806 90.1962 63.176 90.1162L63.366 90.0762L63.556 90.1262C64.006 90.2362 64.456 90.3062 64.886 90.3262C65.066 90.3362 65.326 90.3662 65.656 90.3662C66.626 90.3662 67.556 90.1862 68.426 89.8262L68.736 89.6962L69.046 89.8262C69.866 90.1662 70.726 90.3462 71.596 90.3562C73.086 90.3762 74.596 90.3862 76.086 90.3862C76.716 90.3862 77.256 90.3362 77.586 90.3062C77.666 90.3062 77.766 90.2862 77.856 90.2862C78.356 90.2462 78.856 90.1562 79.356 90.0062L79.596 89.9262L79.836 90.0062C81.966 90.7062 84.266 90.3662 86.066 89.1462L86.536 88.8262L86.996 89.1562C87.556 89.5662 88.156 89.8762 88.786 90.0962C90.276 90.6062 91.916 90.5662 93.396 89.9762L93.736 89.8362L94.066 90.0062C94.296 90.1262 94.526 90.2262 94.766 90.3162C95.946 90.7962 97.146 90.9562 98.316 90.8262C99.186 90.7262 99.996 90.6062 100.776 90.4962L101.006 90.4662C101.396 90.4062 101.766 90.3562 102.136 90.3062C103.236 90.1562 104.306 89.8562 105.306 89.4062L105.676 89.2362L106.026 89.4362C106.116 89.4862 106.206 89.5362 106.296 89.5762C106.546 89.6962 106.746 89.7762 106.956 89.8562C107.126 89.9162 107.206 89.9462 107.296 89.9662L107.416 90.0062C107.566 90.0462 107.706 90.0862 107.846 90.1162L108.266 90.1962C108.386 90.2162 108.496 90.2262 108.606 90.2362C108.676 90.2362 108.736 90.2462 108.806 90.2462C108.926 90.2462 109.006 90.2562 109.076 90.2562H109.196C109.406 90.2562 109.576 90.2562 109.746 90.2362C110.106 90.2062 110.446 90.1562 110.766 90.0762L110.866 90.0562C111.016 90.0162 111.136 89.9762 111.256 89.9462C111.446 89.8862 111.606 89.8262 111.756 89.7662L112.056 89.6462L112.356 89.7662C112.876 89.9762 113.416 90.1262 113.936 90.1962C115.076 90.3562 116.136 90.2362 117.166 89.8562L117.436 89.7562L117.716 89.8562C119.826 90.6062 122.286 90.2162 124.056 88.8362C124.656 88.3762 125.186 87.8562 125.646 87.2962L126.326 86.4662L126.936 87.3462C128.266 89.2462 130.406 90.3862 132.666 90.3862C135.136 90.3862 137.416 89.0462 138.776 86.8162L139.096 86.2462H139.576H141.836C144.646 86.2462 147.466 86.2662 150.276 86.2462C150.366 86.2462 150.476 86.2462 150.596 86.2462H150.786C151.096 86.2662 151.456 86.2762 151.856 86.2762C152.536 86.2762 153.156 86.2362 153.756 86.1362L153.876 86.1162L153.996 86.1362C154.566 86.2162 155.156 86.2662 155.796 86.2662C156.286 86.2662 156.726 86.2462 157.086 86.2262C157.286 86.2162 157.526 86.2062 157.636 86.2062H157.856C160.186 86.2062 162.406 85.1762 163.796 83.4462L163.886 83.3362C164.606 82.4562 166.466 80.1862 166.146 76.7362C166.086 76.1362 165.956 75.5362 165.736 74.9762L165.106 73.3162L166.776 73.9262C169.006 74.7362 171.066 75.3362 173.076 75.7562C176.626 76.5062 179.746 76.0362 182.416 74.3962C186.696 71.7662 189.146 67.7163 189.316 62.9863C189.366 61.5263 189.346 60.0762 189.326 58.9162V58.7062C189.326 58.0962 189.256 57.5963 189.216 57.2663V57.1662C189.216 56.6262 189.236 56.0963 189.266 55.5363C189.286 55.0063 189.306 54.4563 189.326 53.8763C189.346 52.6663 189.076 51.7662 188.966 51.3862C188.486 49.5462 187.266 47.9962 185.606 47.1162C183.936 46.2362 181.886 46.1062 180.116 46.7762C179.646 46.9562 179.186 47.1662 178.756 47.4162L178.416 47.6063L178.056 47.4562C176.646 46.8862 175.076 46.8062 173.586 47.2562L173.276 47.3462L172.986 47.2062C172.816 47.1162 172.636 47.0463 172.456 46.9663L169.896 45.9463L173.846 45.1763C174.986 44.9563 176.076 44.7463 177.156 44.5363L177.436 44.5062C178.556 44.3962 181.206 44.1363 183.366 42.0163C184.696 40.7163 185.416 39.2763 185.896 38.3263C185.986 38.1363 186.076 37.9662 186.136 37.8462C186.646 36.8862 186.866 36.0662 186.976 35.6662L187.006 35.5462C187.296 34.6262 187.376 33.6662 187.256 32.7062L187.216 32.4162L187.376 32.1662C190.406 27.4062 189.356 23.1763 188.456 21.0863C187.976 19.9663 187.446 18.9263 186.976 18.0063L186.866 17.7863C185.626 15.3163 183.186 13.7863 180.496 13.7863C179.696 13.7863 178.906 13.9162 178.126 14.1862C176.786 14.6362 175.646 15.4862 174.826 16.6462L173.926 17.9062C173.066 19.1063 172.466 20.4063 172.166 21.7863L172.036 22.3663L169.316 22.6163C168.916 22.6563 168.536 22.6862 168.146 22.7262C166.596 22.8762 165.246 23.0362 163.966 22.9762C163.586 22.9662 163.116 22.9562 162.616 22.9562C161.166 22.9562 159.956 23.0563 158.816 23.2763C158.746 23.2863 158.666 23.3062 158.496 23.3062H158.376C157.796 23.2862 157.256 23.2663 156.726 23.2663C155.106 23.2663 153.506 23.3763 151.966 23.5963L151.796 23.6163L151.636 23.5763C151.116 23.4363 150.586 23.3563 150.046 23.3463C149.716 23.3463 149.336 23.3162 148.936 23.2962C148.306 23.2562 147.576 23.2262 146.806 23.2262H146.076L145.846 22.7863C145.456 22.0463 144.996 21.3663 144.466 20.7663C143.386 19.5463 142.236 18.4363 141.046 17.4463C138.256 15.1463 134.206 14.8163 131.006 16.6663L130.456 16.9862L130.016 16.5263C129.366 15.8463 128.646 15.2563 127.876 14.7563C126.456 13.8263 124.826 13.3363 123.166 13.3363C121.506 13.3363 119.776 13.8863 118.396 14.8363L117.136 15.7063L117.116 13.1062C117.106 12.1262 116.916 11.3963 116.826 11.0063C116.806 10.9163 116.786 10.8463 116.776 10.8063C116.516 9.52625 115.876 8.35625 114.946 7.41625C113.686 6.16625 112.006 5.47625 110.236 5.47625C108.946 5.47625 107.706 5.84625 106.636 6.52625L106.396 6.67625L106.116 6.64625C104.236 6.45625 102.396 7.07625 101.016 8.31625C99.986 9.23625 99.326 10.1963 98.936 10.7663L98.816 10.9362C98.516 11.2662 98.286 11.5463 98.076 11.8363L97.866 12.1263L91.316 12.8363V11.6663C91.306 9.51625 90.336 7.50625 88.666 6.14625L88.486 5.93625C88.236 5.50625 87.936 5.10625 87.596 4.71625L87.556 4.67625C85.466 2.33625 82.066 1.49625 79.076 2.57625C77.656 3.08625 76.416 3.91625 75.476 4.97625C74.936 5.59625 74.526 6.18625 74.226 6.61625L73.986 6.96625C73.136 8.13625 72.706 9.51625 72.716 10.9663V11.0363L72.706 11.1062C72.646 11.4862 72.616 11.8563 72.616 12.2063V12.3463L72.576 12.4762C72.026 14.0762 72.176 15.4962 72.396 16.4062C72.526 16.9463 72.726 17.4762 72.986 17.9862L73.456 18.9062L72.446 19.1462C71.666 19.3262 70.896 19.6062 70.146 19.9762L69.836 20.1262L69.516 20.0163C67.846 19.4263 65.946 19.5362 64.356 20.3162C64.306 20.3462 64.246 20.3662 64.196 20.3862C63.916 20.5162 63.406 20.7462 62.806 21.1362L61.516 21.9963L61.546 20.4363C61.626 16.7463 59.066 13.6763 55.446 13.1263C52.856 12.7463 50.296 13.8962 48.876 16.0462L48.426 16.7262C48.036 17.3062 47.696 17.8262 47.336 18.3762L46.946 18.9662L46.416 18.8563C45.436 18.6563 44.366 18.6862 43.356 18.9562L43.256 18.9963H42.936L42.796 18.9463C40.636 18.0963 38.066 18.4662 36.236 19.8962L35.946 20.1163C35.696 20.3063 35.386 20.5363 35.046 20.8463C34.806 21.0563 34.626 21.1463 34.376 21.1863H34.306C33.286 21.3963 32.436 21.6162 31.626 21.8862C31.416 21.9562 31.156 21.9863 30.796 22.0063L30.396 22.0263L30.136 21.7162C28.786 20.0862 27.096 19.4663 26.206 19.2463C24.266 18.7663 22.256 19.1762 20.676 20.3162C19.616 21.0862 18.736 22.1262 18.076 23.3962L17.576 24.3463L16.796 23.6063C15.546 22.4163 13.906 21.7663 12.176 21.7663C10.446 21.7663 8.84596 22.4063 7.60596 23.5763L7.51595 23.6562C7.29595 23.8563 6.91596 24.1862 6.52596 24.6462C4.36596 27.1562 3.39596 29.9863 2.84596 31.9062C2.69596 32.4362 2.61596 32.8862 2.55596 33.2062L2.52596 33.3563C2.20596 34.5463 2.15596 35.7563 2.36596 37.0763L2.38596 37.1763V37.2762C2.31596 38.1262 2.40596 39.0163 2.65596 39.9062C3.29596 42.4262 4.57596 44.5762 6.33596 46.1362L6.98596 46.7062L6.36595 47.3162C5.73595 47.9362 5.23596 48.5562 4.81596 49.2062C3.48596 51.2762 3.04595 53.6662 3.53595 56.1162C3.55595 56.2362 3.58596 56.3563 3.61596 56.4663L3.71596 56.8363L3.49595 57.1463C1.84596 59.4863 1.87596 62.6162 3.56596 64.9262C6.23596 68.5762 9.84595 70.5862 13.746 70.5862C15.406 70.5862 17.036 70.2162 18.606 69.4962L18.976 69.3262L19.336 69.5162C19.986 69.8662 20.696 70.1362 21.446 70.3162L23.196 70.7362L21.726 71.7662C21.506 71.9262 21.286 72.0862 21.086 72.2762C19.346 73.8462 18.256 75.6862 17.726 77.8962C17.636 78.2562 17.586 78.6262 17.556 79.0062V79.3262L16.726 79.4162L17.536 79.4662C17.536 82.8462 20.066 85.7062 23.426 86.1062C23.596 86.1262 23.756 86.1362 23.926 86.1462C24.786 86.2062 25.406 86.2262 26.016 86.2262C26.796 86.2262 27.506 86.1862 28.206 86.0862H28.286H28.376C28.456 86.0862 28.606 86.1062 28.726 86.1162C29.116 86.1562 29.656 86.2062 30.296 86.2162H31.546H34.216C35.276 86.2162 36.086 86.2162 36.816 86.2462C37.846 86.2762 38.996 86.2462 40.016 86.2162C40.676 86.1962 41.296 86.1762 41.886 86.1762L41.926 86.1862Z" fill="#21201E"/>
<path d="M12.2365 28.4522C12.4265 28.9622 12.0965 29.2822 11.9565 29.6322C11.5265 30.7022 11.2465 31.8122 11.3765 32.9622C11.4465 33.5822 11.1965 34.0222 10.8165 34.4722C11.4865 35.1422 12.0865 35.8222 12.7565 36.4122C13.6765 37.2222 14.7965 37.6422 15.9765 37.9022C16.3165 37.9722 16.6465 38.0222 16.9865 38.0522C17.4965 38.1022 17.7965 38.4122 18.0865 38.8622C19.0465 38.2222 20.1065 37.9322 21.2565 37.8322C22.0965 37.7622 22.9265 37.4922 23.5865 36.9122C23.8465 36.2022 23.5765 35.5522 23.4465 34.8822C23.1565 33.4322 22.8865 31.9822 22.6165 30.5322C22.4765 29.7722 22.5565 29.0722 23.0365 28.4222C23.2965 28.0622 23.4365 27.6122 23.6565 27.2222C23.9565 26.6922 24.1365 26.0822 24.6265 25.7222C25.1965 25.8622 25.1665 26.3522 25.3465 26.6822C26.0265 27.8522 27.0265 28.5522 28.3665 28.6222C30.1865 28.7122 32.0065 28.8322 33.7865 28.2222C34.3765 28.0222 34.9965 27.8722 35.6065 27.7622C37.1065 27.4922 38.4065 26.8322 39.5365 25.8222C39.7465 25.6322 39.9765 25.4722 40.3765 25.1622C40.3465 25.6122 40.3765 25.8622 40.3065 26.0822C40.1465 26.6022 39.7165 27.0322 39.6865 27.7122C40.7765 27.6622 41.5465 26.9522 42.4565 26.7522C43.4365 26.5322 44.0765 25.7022 45.1465 25.4122C45.1265 25.7322 45.1565 25.9922 45.0865 26.2222C44.8165 27.0122 44.2965 27.7122 44.0265 28.6122C45.8265 28.8722 47.4265 28.3622 49.0365 28.1322C50.2465 27.9622 51.1965 27.1522 52.3265 26.5822C52.3665 25.5922 52.7465 24.6222 52.5965 23.6022C52.5065 23.0022 52.6865 22.4722 52.9965 21.9822C53.4865 21.2122 53.9965 20.4622 54.4765 19.7422C54.9765 19.8122 54.8965 20.1422 54.8865 20.4022C54.8665 21.4822 54.8165 22.5622 54.7965 23.6522C54.7965 24.1022 54.7865 24.5722 54.8665 25.0122C55.1665 26.7222 56.0365 27.9222 57.8365 28.3522C58.8565 28.5922 59.8365 28.7222 60.8665 28.4522C61.5265 28.2822 62.2065 28.1922 62.8765 28.0922C64.1965 27.8922 65.4065 27.4422 66.5165 26.7122C66.7265 26.5722 66.9765 26.4822 67.3165 26.3122C67.4565 27.1722 66.8665 27.7022 66.7865 28.4822C68.2465 28.5022 69.3665 27.6222 70.6465 27.3022C71.9065 26.9822 72.7665 25.8222 74.2565 25.5922C74.0565 26.7422 73.3165 27.5322 73.0765 28.5522C73.8865 28.7322 74.5065 28.2622 75.1465 27.9522C75.8065 27.6322 76.4165 27.2022 77.0565 26.8222C77.6565 26.4622 78.1165 25.8522 78.8265 25.6522C79.0765 26.1022 78.8565 26.4222 78.7065 26.6822C78.1265 27.7222 77.5365 28.7622 76.8765 29.7622C76.6065 30.1822 76.1765 30.5222 75.7665 30.8222C74.9665 31.4122 73.7365 31.2722 73.2265 32.3422C72.2665 32.7022 71.3165 33.0822 70.3565 33.4222C70.0565 33.5322 69.7265 33.5422 69.2365 33.6322C69.4765 32.8122 69.6665 32.1722 69.8465 31.5722C69.5865 31.2022 69.3065 31.3822 69.0765 31.4822C68.4465 31.7322 67.8365 32.0722 67.1865 32.2822C65.9065 32.7022 64.6065 33.0522 63.2465 33.4622C63.1065 32.9922 62.9965 32.6322 62.8765 32.2022C61.9265 32.3222 60.9765 32.4622 60.0365 32.5622C58.9665 32.6722 57.8865 32.8922 56.8865 32.2122C56.7665 32.1222 56.5565 32.1522 56.3865 32.1522C55.0765 32.1122 54.1165 31.5022 53.4665 30.3822C53.4165 30.2922 53.3065 30.2322 53.1465 30.0922C52.8965 30.2522 52.6165 30.4322 52.3365 30.6122C50.6365 31.7422 48.7465 32.2822 46.7365 32.5122C46.2865 32.5622 45.8265 32.6022 45.4065 32.7322C43.7465 33.2222 42.0365 33.2922 40.3365 33.3522C40.0665 33.3622 39.7965 33.2722 39.4165 33.2022C39.4665 32.7522 39.4965 32.3722 39.5365 31.9722C39.4865 31.9422 39.4065 31.8222 39.3165 31.8222C38.8065 31.8422 38.3465 31.9422 37.8565 32.1822C36.6865 32.7522 35.4465 33.1322 34.0565 33.3222C33.9765 32.9922 33.9165 32.7322 33.8365 32.3822C32.5965 32.3422 31.4165 32.8722 30.1865 32.9522C28.9465 33.0422 27.7165 33.1222 26.5565 33.2022C26.4465 33.3622 26.3965 33.4022 26.3865 33.4522C26.0965 35.6022 24.9565 37.3822 23.9265 39.2122C23.4365 40.0722 22.8965 40.8622 21.7165 40.8122C21.4865 40.8122 21.0965 41.0422 21.0465 41.2322C20.8865 41.8822 20.3965 41.9622 19.8965 42.0922C17.6565 42.6922 15.3765 42.7422 13.1165 42.2622C10.9665 41.8022 9.67654 40.3522 9.14654 38.2322C9.10654 38.0722 9.02654 37.8722 9.07654 37.7322C9.37654 36.8322 8.75654 35.9622 9.01654 35.0722C9.14654 34.6322 9.17654 34.1722 9.30654 33.7422C9.79654 32.0322 10.4365 30.3922 11.6165 29.0222C11.7865 28.8222 12.0065 28.6622 12.2165 28.4522H12.2365ZM57.7465 30.7222C57.4865 29.1922 57.4165 29.1422 56.2465 29.6422C56.5365 30.2722 57.0265 30.6322 57.7465 30.7222ZM65.4465 29.8522C65.0765 29.9722 64.7265 30.0022 64.8165 30.3722C64.8565 30.5322 65.0865 30.7422 65.2565 30.7722C65.5665 30.8122 65.7765 30.5822 65.7265 30.2622C65.7065 30.1022 65.5365 29.9722 65.4565 29.8622L65.4465 29.8522ZM14.5165 40.6322C14.1565 40.8522 13.9465 40.9322 13.8265 41.0722C13.7465 41.1622 13.7765 41.3622 13.7665 41.5122C13.9665 41.5122 14.2765 41.6122 14.3265 41.5222C14.4465 41.3422 14.4365 41.0722 14.5165 40.6422V40.6322ZM30.7765 31.6122C30.8265 31.6322 30.8865 31.7022 30.9265 31.6822C31.1165 31.6222 31.2965 31.5522 31.4765 31.4722C31.4865 31.4722 31.4765 31.3222 31.4665 31.3222C31.2765 31.3222 31.0765 31.3122 30.8865 31.3422C30.8365 31.3522 30.8165 31.5122 30.7865 31.6022L30.7765 31.6122ZM35.5565 30.3622C35.2665 30.2522 35.1165 30.1722 34.9565 30.1422C34.8665 30.1322 34.7665 30.2122 34.6765 30.2522C34.7765 30.3722 34.8665 30.5122 34.9865 30.6122C35.0265 30.6422 35.1565 30.5422 35.5565 30.3622ZM40.9965 29.5522C40.9865 29.4722 40.9665 29.3922 40.9565 29.3122C40.8165 29.3722 40.6865 29.4222 40.3965 29.5522H41.0065H40.9965ZM26.5865 30.5422C26.3865 30.6522 26.3065 30.7022 26.2165 30.7522C26.3265 30.9222 26.4365 31.1022 26.5565 31.2722C26.6265 31.2222 26.7765 31.1522 26.7665 31.1122C26.7265 30.9222 26.6565 30.7522 26.5765 30.5422H26.5865ZM70.2065 29.6922L70.0665 29.9222C70.0665 29.9222 70.1765 30.0022 70.2065 29.9922C70.2965 29.9622 70.3665 29.9022 70.4465 29.8622C70.3665 29.8022 70.2865 29.7522 70.2065 29.6922ZM51.0665 29.4322C51.0665 29.4322 50.9965 29.4722 50.9565 29.4922C50.9765 29.5222 50.9965 29.5522 51.0165 29.5922C51.0765 29.5522 51.1265 29.5222 51.1865 29.4822C51.1465 29.4722 51.1065 29.4522 51.0665 29.4322ZM31.6765 29.2122C31.6765 29.2122 31.5865 29.0822 31.5665 29.0922C31.4765 29.1222 31.3865 29.1722 31.2965 29.2122C31.3865 29.2522 31.4665 29.3122 31.5565 29.3322C31.5765 29.3322 31.6265 29.2522 31.6665 29.2122H31.6765Z" fill="#6B4E47"/>
<path d="M157.536 33.6298C156.906 33.7998 156.306 34.0898 155.716 34.0998C152.016 34.1398 148.316 34.1198 144.656 34.1198C144.506 33.8798 144.396 33.7098 144.306 33.5498C144.186 33.5498 144.046 33.5098 143.966 33.5498C143.266 34.0198 142.506 34.1098 141.686 34.0598C140.666 33.9998 139.646 34.0498 138.626 34.0498C138.246 34.4998 137.956 34.9098 137.596 35.2698C136.716 36.1398 135.866 37.0698 134.896 37.8298C133.546 38.8898 131.946 39.2498 130.236 39.1198C128.626 38.9998 127.116 38.4898 125.586 38.0798C123.666 37.5598 121.806 36.8598 119.926 36.2098C119.186 35.9598 118.476 35.6398 117.766 35.3598C117.806 34.9398 118.086 35.0098 118.296 34.9998C118.636 34.9998 118.976 35.0098 119.316 35.0398C123.296 35.3798 127.286 35.2098 131.266 35.2398C132.786 35.2498 134.176 34.7998 135.556 34.2698C135.626 34.2398 135.646 34.0798 135.726 33.9098C134.826 33.7598 133.936 33.6498 133.076 33.4598C132.416 33.3098 131.766 33.0798 131.146 32.8098C130.666 32.5998 130.306 32.2098 130.136 31.6998C129.976 31.2098 129.826 30.7098 130.286 30.2798C130.326 28.7498 131.186 27.5298 131.806 26.2098C132.016 25.7598 132.386 25.7898 132.876 25.7998C132.786 25.4498 132.716 25.1298 132.626 24.7398C133.006 24.0498 133.376 23.2698 134.046 22.7098C134.916 21.9898 135.996 21.8698 136.856 22.5898C137.816 23.3798 138.706 24.2598 139.526 25.1898C140.216 25.9698 140.466 26.9998 140.566 28.0398C140.616 28.5398 140.626 29.0498 140.656 29.6398C140.996 29.7398 141.306 29.8898 141.626 29.9098C142.976 29.9998 144.316 30.0998 145.686 29.9598C147.086 29.8198 148.526 29.9898 149.936 30.0298C150.116 30.2498 150.296 30.4598 150.496 30.6898C152.996 30.0798 155.546 29.8798 158.116 29.9898C158.776 30.0198 159.436 29.9898 160.116 29.8598C161.336 29.6298 162.616 29.6398 163.856 29.6798C165.916 29.7398 167.946 29.4798 169.986 29.2898C172.246 29.0798 174.516 28.8798 176.776 28.5898C177.656 28.4798 178.516 28.1398 179.366 27.8598C179.766 27.7298 179.946 27.2598 179.776 26.8798C179.636 26.5698 179.446 26.2798 179.276 25.9898C178.466 24.5798 178.426 23.1998 179.406 21.8398C179.736 21.3798 180.066 20.9298 180.336 20.5498C180.746 20.4098 180.876 20.6498 180.966 20.8298C181.456 21.7898 181.946 22.7598 182.376 23.7498C183.326 25.9798 182.496 27.8798 181.106 29.5798C179.746 31.2398 177.876 32.0998 175.786 32.3798C172.006 32.8898 168.216 33.3398 164.426 33.7298C162.846 33.8898 161.246 33.8798 159.666 33.8898C158.996 33.8898 158.316 33.7498 157.546 33.6598L157.536 33.6298ZM145.656 32.6998C146.176 32.2398 146.236 32.0698 145.956 31.8498C145.846 31.7698 145.636 31.7498 145.506 31.7998C145.206 31.9198 145.256 32.1798 145.656 32.6998ZM124.746 36.6898C125.016 36.3898 124.936 36.1598 124.716 35.9698C124.656 35.9198 124.506 35.8998 124.456 35.9298C124.396 35.9698 124.346 36.1298 124.376 36.1898C124.476 36.3598 124.616 36.5198 124.746 36.6898ZM170.796 31.3898C170.496 31.3898 170.326 31.3498 170.196 31.3998C170.086 31.4498 170.016 31.6098 169.926 31.7198C170.076 31.7398 170.236 31.8098 170.356 31.7698C170.476 31.7298 170.586 31.5898 170.796 31.3898ZM133.096 30.7998C132.866 30.7998 132.786 30.7798 132.756 30.7998C132.616 30.9698 132.496 31.1498 132.376 31.3298C132.376 31.3398 132.476 31.4398 132.486 31.4398C132.666 31.3198 132.836 31.1898 132.996 31.0598C133.036 31.0298 133.036 30.9598 133.096 30.7998ZM172.126 30.9798C172.256 31.0598 172.306 31.1198 172.346 31.1098C172.546 31.0798 172.756 31.0398 172.946 30.9698C172.976 30.9598 172.996 30.7498 172.946 30.6998C172.686 30.3898 172.466 30.6798 172.246 30.7798C172.206 30.7898 172.196 30.8698 172.126 30.9898V30.9798ZM137.186 30.2798C137.186 30.2098 137.186 30.1398 137.176 30.1298C136.976 29.9998 136.766 29.8598 136.546 29.7698C136.506 29.7598 136.376 29.9798 136.286 30.0898C136.436 30.1898 136.576 30.3398 136.746 30.3898C136.876 30.4298 137.046 30.3298 137.196 30.2898L137.186 30.2798ZM173.656 30.6198C173.726 30.5998 173.796 30.5898 173.866 30.5698C173.836 30.3798 173.806 30.1998 173.776 30.0098C173.686 30.0498 173.526 30.0998 173.526 30.1198C173.546 30.2898 173.606 30.4598 173.656 30.6298V30.6198ZM177.356 30.2498C177.146 30.1398 177.036 30.0498 176.916 30.0298C176.856 30.0198 176.706 30.1798 176.716 30.1998C176.776 30.3198 176.856 30.4798 176.966 30.5298C177.026 30.5598 177.176 30.3898 177.366 30.2598L177.356 30.2498ZM147.046 31.8698C146.966 31.8398 146.856 31.7598 146.806 31.7798C146.736 31.8198 146.696 31.9298 146.646 32.0098C146.716 32.0398 146.816 32.1198 146.856 32.0998C146.936 32.0498 146.986 31.9498 147.046 31.8698ZM139.286 26.7798C139.226 26.6998 139.186 26.5798 139.116 26.5598C139.046 26.5298 138.936 26.5998 138.836 26.6198C138.916 26.7198 138.986 26.8298 139.076 26.9198C139.086 26.9298 139.206 26.8298 139.286 26.7798ZM130.696 37.4398C130.696 37.4398 130.786 37.3898 130.836 37.3698C130.776 37.2798 130.726 37.1998 130.656 37.1098C130.626 37.1398 130.556 37.1798 130.566 37.1998C130.596 37.2898 130.646 37.3698 130.686 37.4498L130.696 37.4398ZM141.016 31.8998C140.936 31.8598 140.856 31.8198 140.766 31.7998C140.736 31.7998 140.686 31.8498 140.646 31.8798C140.696 31.9298 140.756 32.0298 140.806 32.0298C140.876 32.0298 140.946 31.9498 141.016 31.8998ZM122.016 35.9698C122.016 35.9698 121.926 35.9498 121.886 35.9298C121.886 35.9898 121.876 36.0398 121.866 36.0998C121.916 36.0898 121.966 36.0898 122.006 36.0698C122.026 36.0598 122.016 36.0098 122.026 35.9698H122.016Z" fill="#6B4E47"/>
<path d="M97.3967 25.6469C97.1367 27.1469 96.3967 28.1969 95.9667 29.2569C96.1567 29.7169 96.4767 29.6469 96.7367 29.6469C98.8967 29.6769 101.057 29.7869 103.257 29.2069C103.307 28.8369 103.387 28.4469 103.387 28.0669C103.387 27.2669 103.347 26.4769 103.317 25.6769C103.217 23.0069 103.107 20.3269 103.007 17.6569C102.977 16.8469 103.117 16.1669 103.767 15.5069C104.387 14.8869 104.747 14.0069 105.537 13.2969C105.637 13.5869 105.767 13.7669 105.767 13.9469C105.797 17.5869 105.807 21.2369 105.827 24.8769C105.827 26.1269 105.847 27.3769 105.867 28.6369C105.897 30.1769 105.197 31.3669 104.077 32.3569C103.867 32.5469 103.627 32.7469 103.367 32.8269C102.167 33.1669 100.967 33.5969 99.7467 33.7269C97.5367 33.9469 95.3167 33.9869 93.0967 34.0869C92.7167 34.1069 92.3367 34.0369 91.8667 34.0069C91.9367 32.8169 92.8167 32.0169 93.0767 30.8769C91.9067 31.0169 90.9467 31.5469 89.9167 31.7869C88.9167 32.0169 87.9367 32.3069 86.9367 32.4969C85.8767 32.7069 84.8967 33.1569 83.7767 33.1569C82.7767 33.1569 81.7767 33.3969 80.6667 33.5369C80.5667 33.0569 80.4267 32.6869 80.4267 32.3169C80.3967 30.5469 80.4167 28.7869 80.4167 27.0269C80.4167 24.4669 80.4467 21.9069 80.4167 19.3469C80.4067 18.4369 80.6067 17.6569 81.2367 17.0069C81.5467 16.6869 81.9567 16.4269 82.1667 16.0469C82.3867 15.6569 82.4867 15.1969 83.0667 14.9669C83.1167 15.1869 83.2167 15.3769 83.2067 15.5769C83.1467 16.9369 83.0467 18.2969 82.9867 19.6569C82.9667 20.0569 83.0167 20.4469 83.0067 20.8469C82.9867 21.9269 82.9367 23.0069 82.9067 24.0869C82.8967 24.7669 82.8167 25.4669 82.9367 26.1369C83.0567 26.8769 82.1667 27.1169 82.2667 27.8169C82.4267 27.8669 82.5767 27.9169 82.7867 27.9869C82.8367 28.3269 82.8967 28.7069 82.9567 29.1169C83.1267 29.1669 83.2867 29.2769 83.4267 29.2569C85.8467 28.9269 88.2667 28.6269 90.5867 27.8069C92.4067 27.1669 94.2467 26.5869 96.0767 25.9869C96.4367 25.8669 96.8167 25.7969 97.3867 25.6469H97.3967ZM104.927 18.7769C104.507 18.7369 104.357 19.0169 104.247 19.2569C104.207 19.3569 104.317 19.5569 104.407 19.6769C104.447 19.7269 104.657 19.7169 104.717 19.6669C104.867 19.5169 105.027 19.3469 105.097 19.1469C105.137 19.0469 104.977 18.8869 104.927 18.7869V18.7769ZM90.1067 29.6269C89.9167 29.4869 89.7567 29.3669 89.5967 29.2569C89.5267 29.3869 89.3767 29.5569 89.4067 29.6369C89.4767 29.8069 89.6567 29.9369 89.7867 30.0769C89.8767 29.9569 89.9567 29.8369 90.1067 29.6269ZM95.1967 27.9369C95.0467 27.9069 94.9067 27.8369 94.7867 27.8569C94.7267 27.8669 94.6867 28.0269 94.6467 28.1269C94.7867 28.1769 94.9167 28.2369 95.0667 28.2669C95.0867 28.2669 95.1367 28.0969 95.2067 27.9369H95.1967ZM81.9467 26.0369C81.7567 26.0169 81.6167 25.9969 81.4767 25.9969C81.4367 25.9969 81.4067 26.0669 81.3667 26.0969C81.4867 26.1469 81.6067 26.2269 81.7367 26.2469C81.7767 26.2469 81.8467 26.1369 81.9467 26.0269V26.0369ZM99.5367 32.9469C99.5367 32.9469 99.5767 32.8569 99.5767 32.8169C99.5767 32.7969 99.5167 32.7769 99.4767 32.7669C99.4567 32.8169 99.4267 32.8569 99.4267 32.9069C99.4267 32.9269 99.4967 32.9469 99.5367 32.9569V32.9469ZM100.717 31.1869C100.637 31.1469 100.557 31.1069 100.467 31.0769C100.457 31.0769 100.407 31.1469 100.377 31.1969C100.457 31.2369 100.537 31.2769 100.627 31.2969C100.647 31.2969 100.687 31.2269 100.717 31.1869ZM104.747 27.5169C104.747 27.5169 104.687 27.3869 104.677 27.3969C104.587 27.4169 104.497 27.4569 104.407 27.4869C104.437 27.5269 104.467 27.6069 104.497 27.5969C104.587 27.5869 104.667 27.5469 104.747 27.5269V27.5169Z" fill="#6B4E47"/>
<path d="M148.936 63.6591C148.756 59.6591 148.966 55.7891 148.736 51.9091C148.306 51.7691 147.936 51.6591 147.506 51.5291C147.996 50.5491 148.796 49.8891 149.466 49.1391C149.606 48.9891 149.846 48.8491 150.056 48.8391C152.166 48.7491 154.276 48.6891 156.276 49.5091C158.626 50.4791 159.826 52.4291 160.536 54.7491C160.986 56.2091 160.866 57.6791 160.476 59.1291C160.066 60.6891 159.166 61.8991 157.746 62.6791C157.146 63.0091 156.526 63.3091 155.876 63.4991C153.646 64.1691 151.396 64.0191 148.936 63.6491V63.6591ZM151.616 51.9391C151.436 53.0691 151.586 54.0891 151.576 55.0991C151.576 56.1791 151.586 57.2591 151.626 58.3491C151.666 59.3591 151.556 60.3791 151.776 61.4391C154.556 61.7591 157.156 61.6891 159.486 60.1591C159.686 55.3991 156.466 52.0091 151.616 51.9391ZM150.356 58.6691C150.266 58.7291 150.176 58.7991 150.086 58.8691C150.216 59.1091 150.336 59.3491 150.486 59.5691C150.516 59.6191 150.706 59.6091 150.766 59.5691C150.836 59.5191 150.896 59.3491 150.866 59.2991C150.716 59.0791 150.536 58.8891 150.366 58.6891L150.356 58.6691Z" fill="#6B4E47"/>
<path d="M113.466 44.59C113.326 44.16 113.096 43.76 113.096 43.35C113.096 42.03 112.696 40.78 112.536 39.48C112.156 36.46 112.796 33.78 114.746 31.36C115.556 30.36 116.386 29.52 117.516 28.93C118.576 28.38 119.226 27.5 119.596 26.36C120.016 25.08 120.546 23.83 120.936 22.54C121.116 21.95 121.376 21.37 121.726 20.86C122.336 19.98 123.366 19.75 124.276 20.35C125.396 21.08 126.166 22.14 126.606 23.41C126.706 23.71 126.726 24.12 126.616 24.41C125.476 27.22 123.916 29.7 120.916 30.85C119.386 31.44 117.816 31.92 116.266 32.45C116.156 32.49 116.036 32.48 115.936 32.52C114.926 32.93 114.536 33.55 114.656 34.63C114.816 36.15 114.966 37.68 115.226 39.19C115.316 39.71 115.356 40.2 115.186 40.69C114.756 41.92 114.306 43.14 113.846 44.37C113.816 44.45 113.656 44.48 113.456 44.58L113.466 44.59ZM122.856 24.52C122.726 24.64 122.586 24.73 122.506 24.85C122.266 25.19 122.456 25.48 122.696 25.71C122.776 25.78 123.016 25.79 123.116 25.73C123.486 25.51 123.386 25.18 123.216 24.88C123.146 24.75 122.996 24.66 122.856 24.53V24.52ZM124.926 25.17C124.886 25.1 124.846 25.03 124.816 24.97C124.796 25.01 124.736 25.05 124.746 25.08C124.766 25.15 124.816 25.22 124.856 25.29C124.886 25.25 124.906 25.22 124.936 25.18L124.926 25.17Z" fill="#6B4E47"/>
<path d="M131.205 66.8528C133.025 66.9028 134.845 66.8528 136.655 67.0228C138.035 67.1528 139.215 66.7628 140.425 66.1828C140.845 65.1328 140.705 64.0828 140.575 62.9528C140.295 63.0028 140.075 63.0228 139.865 63.0828C139.475 63.1828 139.105 63.3328 138.715 63.4228C137.175 63.7628 135.735 63.6228 134.635 62.3628C133.515 61.0828 133.325 59.5528 133.945 58.0328C134.775 56.0028 136.355 54.6028 138.305 53.6428C139.315 53.1428 140.305 53.3728 141.275 54.0428C141.985 53.5828 142.685 53.1228 143.435 52.6328C143.495 52.8728 143.605 53.0428 143.565 53.1728C142.955 55.1228 143.185 57.1328 143.135 59.1228C143.095 60.4328 143.115 61.7428 143.125 63.0528C143.125 64.6628 142.555 66.0728 141.535 67.2828C139.945 69.1628 137.975 69.8528 135.565 69.1328C133.995 68.6628 132.515 68.0028 131.105 67.1828C131.145 67.0728 131.185 66.9628 131.225 66.8428L131.205 66.8528ZM136.435 55.6628C136.055 56.6828 135.885 57.6728 136.025 58.7028C136.345 60.9928 138.185 62.2328 140.605 61.7428C140.775 60.8128 140.695 59.8528 140.685 58.9028C140.665 57.1228 139.155 55.5428 137.395 55.4528C137.075 55.4328 136.755 55.5928 136.435 55.6628Z" fill="#6B4E47"/>
<path d="M51.0264 53.4222C50.9564 52.3422 51.3263 51.4722 51.0963 50.5622C50.9863 50.1422 51.1863 49.7922 51.5063 49.5122C52.0163 49.0722 52.5264 48.6322 52.9764 48.2422C53.4964 48.3822 53.4063 48.6922 53.3963 48.9622C53.3663 50.7822 53.4864 52.6122 53.2464 54.4022C53.0564 55.8222 53.3264 57.1922 53.2764 58.5822C53.2264 59.9922 53.3664 61.4122 53.4064 62.8322C53.4064 63.0522 53.3463 63.2722 53.3263 63.4722C51.7263 63.9422 51.5663 63.8922 50.8563 62.6322C50.3663 62.9222 49.8963 63.2422 49.3963 63.4922C47.9063 64.2522 46.5364 63.8022 45.2264 62.9922C44.8164 62.1622 43.9063 61.6222 43.8563 60.5622C43.7963 59.4122 43.7163 58.2522 44.4863 57.3022C45.2363 56.3822 46.0363 55.5022 46.8963 54.6822C47.6563 53.9622 48.5963 53.5722 49.6863 53.5722C50.0763 53.5722 50.4564 53.4922 51.0264 53.4322V53.4222ZM46.3864 55.7422C45.1464 59.0922 46.8864 61.8122 50.2464 61.9422C50.7064 61.9622 51.0363 61.7322 51.0563 61.2722C51.0963 60.2522 51.0563 59.2322 51.1063 58.2122C51.1563 57.2822 50.6863 56.7422 49.9463 56.3022C48.8663 55.6722 47.7064 55.5722 46.3864 55.7422Z" fill="#6B4E47"/>
<path d="M116.276 63.48C115.686 63.86 115.116 63.74 114.556 63.67C113.976 63.59 114.136 62.94 113.756 62.63C113.376 62.86 113.016 63.14 112.606 63.31C112.036 63.55 111.426 63.83 110.836 63.85C108.556 63.9 107.476 62.98 106.786 60.53C106.426 59.26 106.786 58.03 107.606 56.99C108.166 56.28 108.796 55.61 109.446 54.97C110.666 53.77 112.126 53.31 113.936 53.71C113.956 52.69 113.996 51.68 113.976 50.67C113.976 50.18 114.066 49.77 114.456 49.46C114.976 49.05 115.396 48.5 115.996 48.25C116.126 48.32 116.186 48.34 116.226 48.37C116.266 48.41 116.276 48.47 116.286 48.52C116.296 48.74 116.326 48.97 116.316 49.2C116.246 52.73 116.156 56.26 116.126 59.78C116.116 61.02 116.236 62.26 116.286 63.47L116.276 63.48ZM109.316 55.76C108.536 57.54 108.746 59.3 109.856 60.55C110.836 61.65 112.256 62.03 113.936 61.58C114.056 60.44 113.956 59.25 114.006 58.07C114.036 57.36 113.676 56.9 113.156 56.5C111.986 55.6 110.676 55.51 109.316 55.75V55.76ZM108.396 59.95C108.266 59.91 108.196 59.87 108.166 59.89C107.986 59.98 107.806 60.08 107.666 60.21C107.646 60.23 107.796 60.44 107.866 60.56C108.026 60.44 108.186 60.33 108.336 60.2C108.376 60.17 108.366 60.1 108.406 59.96L108.396 59.95ZM115.336 55.88C115.286 55.73 115.246 55.55 115.226 55.55C115.086 55.56 114.956 55.62 114.816 55.66C114.856 55.79 114.896 55.91 114.936 56.04C115.066 55.99 115.196 55.93 115.326 55.88H115.336Z" fill="#6B4E47"/>
<path d="M172.326 61.807C171.926 62.467 171.296 62.967 170.676 63.447C170.546 63.547 170.276 63.487 170.066 63.497C170.066 63.287 170.066 63.077 170.076 62.867V62.597C169.536 62.507 168.876 62.517 168.686 61.667C168.066 62.147 167.576 62.437 167.196 62.837C166.186 63.907 164.866 63.837 163.606 63.847C162.736 63.857 162.076 63.087 161.926 62.177C161.656 60.557 162.606 58.037 164.856 57.587C165.356 57.487 165.866 57.427 166.366 57.337C166.976 57.237 167.606 57.287 168.276 56.897C168.216 56.407 168.146 55.927 168.086 55.527C167.416 55.127 166.866 55.337 166.306 55.447C165.696 55.567 165.086 55.707 164.476 55.837C163.846 55.967 163.236 55.907 162.616 55.527C162.956 54.707 163.636 54.197 164.296 53.697C164.496 53.547 164.836 53.497 165.106 53.527C166.376 53.667 167.596 53.357 168.826 53.127C170.056 52.907 170.676 53.317 170.816 54.547C170.886 55.167 170.866 55.797 170.836 56.427C170.766 58.247 171.086 59.937 172.216 61.417C172.276 61.497 172.276 61.627 172.316 61.787L172.326 61.807ZM165.586 58.897C165.006 58.977 164.436 59.017 163.886 59.137C163.286 59.267 163.086 59.797 163.416 60.317C164.116 61.437 165.876 62.157 167.146 61.847C167.726 61.707 168.176 61.377 168.496 60.877C168.956 60.147 168.626 59.347 167.776 59.187C167.056 59.047 166.316 58.987 165.596 58.897H165.586Z" fill="#6B4E47"/>
<path d="M27.7356 57.1124C27.8056 56.7724 27.8656 56.6624 27.8556 56.5624C27.7656 55.3624 27.5156 55.1324 26.3656 55.3924C25.2556 55.6424 24.1556 55.9024 23.0056 55.8524C22.7456 55.8424 22.4956 55.7224 22.1956 55.6424C22.5356 54.6824 23.3556 54.3024 23.9356 53.7124C24.0756 53.5724 24.3656 53.5224 24.5756 53.5524C25.9056 53.7324 27.1756 53.4224 28.4556 53.1624C29.6256 52.9224 29.8856 53.1024 30.2956 54.2924C30.3656 54.5024 30.4856 54.7124 30.4856 54.9324C30.5156 56.2424 30.5356 57.5424 30.5256 58.8524C30.5256 59.0524 30.3756 59.2624 30.2956 59.4624C31.2456 59.9624 31.3656 61.0024 32.0656 61.6724C31.4356 62.5424 30.7756 63.1424 30.0056 63.6524C29.0556 63.4124 28.9456 62.3424 28.2056 61.8524C27.6056 62.0724 27.1556 62.5224 26.6956 62.9224C25.8356 63.6824 24.8156 63.9324 23.6956 63.9224C22.0756 63.9024 21.3956 62.7824 21.5056 61.3024C21.6656 59.1224 23.3356 57.5724 25.3556 57.4624C26.1356 57.4224 26.9156 57.2424 27.7256 57.1224L27.7356 57.1124ZM28.0056 59.3924C26.7256 58.9724 25.3856 58.8224 24.0156 59.0324C23.5656 59.1024 23.0956 59.1424 22.8456 59.6224C23.2256 60.6924 23.5356 61.0724 24.3856 61.5024C25.1756 61.9124 26.0256 62.0624 26.8656 61.7824C27.3156 61.6324 27.7556 61.2724 28.0556 60.8824C28.3956 60.4624 28.2856 59.9124 28.0056 59.3824V59.3924ZM29.9256 61.1624C29.8356 61.0324 29.7856 60.9524 29.7356 60.8724C29.6356 60.9724 29.5256 61.0624 29.4456 61.1724C29.4256 61.2024 29.5756 61.3824 29.5956 61.3724C29.7156 61.3124 29.8156 61.2324 29.9156 61.1524L29.9256 61.1624ZM27.1056 54.2124C27.1056 54.2124 27.0356 54.1524 27.0056 54.1124C26.9656 54.1924 26.9156 54.2624 26.9056 54.3524C26.9056 54.3824 26.9656 54.4224 26.9956 54.4624C27.0356 54.3824 27.0756 54.3024 27.1156 54.2124H27.1056Z" fill="#6B4E47"/>
<path d="M179.745 61.5369C180.085 61.1269 180.265 60.6769 180.235 60.1369C180.215 59.7369 180.235 59.3369 180.235 58.9369C180.255 57.3569 180.045 55.7469 181.005 54.0369C181.295 53.7969 181.775 53.3369 182.525 53.0469C182.595 53.3269 182.685 53.5369 182.685 53.7369C182.655 54.9269 182.585 56.1169 182.565 57.3169C182.565 57.8169 182.685 58.3269 182.685 58.8269C182.705 60.1369 182.725 61.4469 182.685 62.7569C182.585 65.4469 181.175 67.3569 178.955 68.7169C177.575 69.5669 176.005 69.5569 174.495 69.2369C171.875 68.6869 169.345 67.8169 166.875 66.7969C166.805 66.7669 166.795 66.6069 166.705 66.4069C167.575 66.3169 168.395 66.4369 169.225 66.4669C171.615 66.5469 174.005 66.6369 176.405 66.6869C177.875 66.7169 178.385 66.5469 180.095 65.7669C180.255 64.5869 180.235 63.3269 180.275 62.0869C180.285 61.7369 179.995 61.6269 179.725 61.5169L179.755 61.5569H179.745V61.5369ZM181.585 60.5969C181.415 60.7269 181.265 60.7869 181.255 60.8569C181.225 61.1169 181.255 61.3869 181.255 61.6469C181.255 61.6469 181.345 61.6569 181.385 61.6469C181.685 61.5769 181.825 61.2469 181.725 60.8169C181.715 60.7669 181.665 60.7269 181.585 60.5869V60.5969ZM173.775 68.1069C173.865 68.1569 173.945 68.1969 174.035 68.2469L174.085 68.0069C173.995 67.9969 173.905 67.9769 173.805 67.9769C173.795 67.9769 173.785 68.0669 173.775 68.1069Z" fill="#6B4E47"/>
<path d="M9.00586 60.9866C9.50586 60.5766 9.93586 60.2066 10.3859 59.8566C10.9759 59.4066 11.4859 59.4166 12.1059 59.8766C12.2459 59.9766 12.3659 60.0966 12.4859 60.2266C13.9059 61.7366 15.6959 61.7466 17.5459 61.4666C18.0959 61.3866 18.3159 61.0466 18.2959 60.4966C18.2359 59.3866 17.7559 58.5166 16.7059 58.0666C16.2459 57.8666 15.7359 57.7166 15.2359 57.6366C14.3959 57.4966 13.5359 57.4666 12.6959 57.3366C11.7059 57.1866 10.8259 56.8366 10.4359 55.8066C10.5459 55.7066 10.6259 55.5966 10.7059 55.5866C10.9759 55.5266 11.1259 55.3766 11.0559 55.1266C11.0259 55.0066 10.8259 54.9166 10.6859 54.8666C10.5359 54.8066 10.3659 54.8166 10.1559 54.7866C9.81586 53.0766 10.9159 52.2066 12.0459 51.2266C12.1959 51.8966 12.2959 52.4566 12.4559 52.9966C12.7759 54.0666 13.4759 54.7766 14.5759 54.9966C15.3559 55.1566 16.1559 55.2366 16.9359 55.3466C17.4459 55.4166 17.9559 55.4666 18.4559 55.5766C20.3259 55.9566 21.4559 58.6266 19.7659 60.1466C19.0059 60.8266 18.3659 61.6566 17.5859 62.3166C14.6859 64.7966 11.5059 64.3766 9.02586 60.9766L9.00586 60.9866Z" fill="#6B4E47"/>
<path d="M63.4455 50.3471C64.2955 49.2371 65.2755 48.5671 66.5655 48.6471C67.6755 48.7171 68.8755 48.5471 69.7355 49.5971C70.7155 48.8571 71.8256 49.0371 73.0756 48.8271C72.4256 49.8871 71.8155 50.7171 70.6455 50.8471C69.3455 50.9971 68.0455 51.1071 66.6855 51.2371C66.2855 51.8971 66.5555 52.6471 66.4855 53.3671C66.4255 54.0471 66.3055 54.7271 66.6955 55.4371C67.4555 55.8171 68.2655 56.0471 69.2255 55.7971C69.8055 55.6471 70.4656 55.7671 71.0756 55.7671C70.5156 57.1371 69.5155 57.7971 68.1455 57.6871C67.8755 57.6671 67.5956 57.6271 67.3256 57.6471C67.1056 57.6671 66.8856 57.7671 66.5756 57.8571C66.3456 59.6871 66.6255 61.5671 66.4055 63.4971C65.7255 63.6971 65.0855 63.7371 64.4055 63.4471C64.0455 62.6171 64.0855 61.7971 64.3755 60.9671C64.5155 60.5771 64.5655 60.2371 64.3755 59.8271C64.2355 59.5371 64.1855 59.1571 64.2355 58.8371C64.4155 57.5971 64.1155 56.3671 64.1755 55.1271C64.2055 54.6271 64.2855 54.1271 64.3555 53.6271C64.3755 53.4671 64.4855 53.2671 64.4255 53.1471C64.1055 52.4571 64.1255 51.7071 64.0055 50.9871C63.9655 50.7671 63.6655 50.5871 63.4355 50.3471H63.4455Z" fill="#6B4E47"/>
<path d="M98.0368 53.1797C98.1068 53.9997 98.1768 54.6497 98.2468 55.4897C98.7768 55.0997 99.1768 54.8097 99.5668 54.5197C100.307 53.9597 101.117 53.5897 102.067 53.5297C102.937 53.4797 103.647 53.7597 104.107 54.4997C104.397 54.9697 104.667 55.4997 104.797 56.0397C105.357 58.4997 105.197 60.9897 105.037 63.5397C104.237 63.5997 103.527 63.9797 102.827 63.3997C102.827 62.4397 102.787 61.4797 102.837 60.5197C102.907 59.3197 102.777 58.1497 102.417 57.0097C102.217 56.3997 101.857 55.8997 101.237 55.6197C100.757 55.3997 100.277 55.2797 99.7568 55.4497C99.3268 55.5897 98.8968 55.7197 98.4968 55.8397C98.0168 56.3497 98.1168 56.9297 98.1268 57.4897C98.1368 59.1397 98.1568 60.7897 98.1468 62.4397C98.1468 62.8197 98.0668 63.1997 98.0168 63.6497C97.4968 63.6797 97.0468 63.7197 96.6068 63.7097C96.3868 63.7097 96.1768 63.5997 95.9368 63.5397C95.8668 63.2997 95.7468 63.0897 95.7468 62.8697C95.7268 60.5997 95.7468 58.3297 95.7168 56.0497C95.7168 55.3697 95.9168 54.8297 96.4568 54.4197C96.9368 54.0497 97.4168 53.6797 98.0468 53.1897L98.0368 53.1797Z" fill="#6B4E47"/>
<path d="M90.9167 61.8528C90.3867 62.2428 90.0067 62.5628 89.5967 62.8228C89.1667 63.0928 88.6967 63.2828 88.2567 63.5428C87.7367 63.8528 87.1867 63.9228 86.6067 63.8628C85.8767 63.7928 85.2767 63.4528 84.9567 62.8028C84.6567 62.2028 84.3867 61.5528 84.2767 60.8928C83.9967 59.2028 83.9267 57.4928 83.9867 55.7828C84.0067 55.0328 84.2567 54.4628 84.8867 54.0528C85.3067 53.7828 85.7167 53.4928 86.0967 53.2428C86.5667 53.5428 86.3967 53.9128 86.3967 54.2228C86.3967 55.5328 86.3367 56.8428 86.3767 58.1528C86.3967 58.8328 86.4967 59.5228 86.6667 60.1828C86.9767 61.3828 87.8267 62.0028 89.0667 61.8928C89.6767 61.8428 90.2667 61.6228 90.8567 61.4828C91.1767 60.2028 90.9867 59.0028 91.0767 57.8128C91.1167 57.3628 91.0567 56.9028 91.0567 56.4428C91.0567 55.4728 91.1067 55.4928 91.5067 54.5528C91.7367 54.0228 92.2067 53.8428 92.5867 53.5228C92.7567 53.3828 92.9567 53.2828 93.1967 53.1328C93.3067 53.3128 93.4567 53.4428 93.4567 53.5828C93.4667 56.7728 93.4567 59.9628 93.4567 63.1528C93.4567 63.2528 93.3867 63.3628 93.3167 63.5428C92.6567 63.8028 91.9567 63.8028 91.1767 63.4728C91.1167 62.9828 91.0467 62.5028 90.9567 61.8428L90.9167 61.8528Z" fill="#6B4E47"/>
<path d="M131.737 63.5684C130.887 63.7984 130.237 63.7784 129.637 63.5084C129.327 62.8884 129.477 62.3184 129.467 61.7584C129.457 60.6784 129.487 59.5984 129.437 58.5084C129.417 58.0084 129.297 57.4884 129.127 57.0184C128.677 55.7384 127.767 55.2184 126.467 55.4584C126.027 55.5384 125.597 55.7084 125.077 55.8684C125.017 56.2384 124.897 56.6184 124.897 56.9984C124.877 58.7684 124.887 60.5284 124.877 62.2984C124.877 62.6884 124.847 63.0784 124.827 63.4984C124.057 63.8284 123.357 63.8184 122.537 63.4184C122.517 62.8984 122.477 62.3384 122.477 61.7784C122.477 59.7884 122.497 57.7884 122.487 55.7984C122.487 55.3084 122.587 54.8984 122.977 54.5784C123.527 54.1184 123.977 53.5084 124.817 53.1484C124.867 53.9284 124.907 54.5784 124.947 55.2584C125.597 55.2884 125.877 54.7884 126.267 54.5084C127.077 53.9284 127.927 53.5384 128.937 53.5184C129.887 53.4984 130.647 53.8684 131.007 54.7384C131.347 55.5684 131.637 56.4584 131.737 57.3484C131.977 59.3884 131.877 61.4284 131.717 63.5684H131.737ZM130.667 60.8484L130.597 60.9384L130.697 60.9684L130.667 60.8384V60.8484Z" fill="#6B4E47"/>
<path d="M136.275 79.5566C136.525 78.5166 136.975 77.8866 137.485 77.3466C139.035 77.1866 157.875 77.1866 159.535 77.3466C159.615 78.1566 159.075 78.7066 158.635 79.2566C158.485 79.4366 158.135 79.5366 157.875 79.5266C156.635 79.4966 155.375 79.7966 154.165 79.3166C154.015 79.2566 153.805 79.2466 153.675 79.3066C152.575 79.7666 151.425 79.5566 150.305 79.5666C146.105 79.5866 141.895 79.5666 137.685 79.5566H136.275ZM145.565 78.6766C145.335 78.5666 145.195 78.4266 145.075 78.4566C144.955 78.4766 144.855 78.6466 144.755 78.7566C144.875 78.8366 145.005 78.9866 145.135 78.9866C145.245 78.9866 145.365 78.8366 145.565 78.6866V78.6766Z" fill="#6B4E47"/>
<path d="M42.2351 63.6319C41.3751 63.6819 40.7152 63.8719 39.9952 63.4719C39.9052 63.0119 39.8152 62.5219 39.7052 61.9219C39.2152 62.2719 38.7652 62.5919 38.3252 62.9119C37.6252 63.4219 36.8651 63.8019 35.9851 63.8719C35.1251 63.9419 34.4652 63.6619 33.9352 62.9319C33.2752 62.0119 32.9352 60.9519 33.0052 59.8919C33.0752 58.8719 32.8952 57.8819 32.8852 56.8719C32.8652 54.2019 32.9352 54.7719 34.6652 53.4019C34.7852 53.3119 34.9651 53.2919 35.0851 53.2519C35.1651 53.3119 35.2452 53.3519 35.2452 53.3819C35.2452 54.2919 35.2452 55.2019 35.2052 56.1019C35.1352 57.2319 35.1351 58.3619 35.3551 59.4819C35.4451 59.9219 35.5752 60.3719 35.7752 60.7719C36.2652 61.7519 36.8751 62.0519 37.9851 61.9119C38.2651 61.8719 38.5552 61.8519 38.8252 61.7719C39.0952 61.7019 39.3552 61.5719 39.7052 61.4419C39.7452 61.0919 39.8052 60.7119 39.8452 60.3219C39.9552 59.0919 39.6251 57.8219 40.1251 56.6119C40.1851 56.4619 40.0051 56.2019 39.9451 55.9919C39.7251 55.2619 39.8552 54.6519 40.5052 54.1919C41.0052 53.8419 41.4451 53.4119 42.0751 53.1719C42.1451 53.4319 42.2351 53.5919 42.2351 53.7419C42.2351 56.9719 42.2351 60.2019 42.2351 63.6319Z" fill="#6B4E47"/>
<path d="M24.2656 79.4922C24.4956 78.4822 24.9356 77.8622 25.6256 77.2422C27.4156 77.4122 29.2856 76.9322 31.1256 77.5122C31.2256 77.5422 31.3656 77.5522 31.4556 77.5122C32.3156 77.0322 33.2356 77.2722 34.1356 77.2622C36.8656 77.2322 39.5956 77.2522 42.3156 77.2522C42.8756 77.2522 43.4256 77.1922 43.8956 77.6822C44.2656 78.0822 44.7656 77.8022 45.1756 77.6522C45.9256 77.3822 46.6656 77.0722 47.5656 77.3922C47.5456 78.1522 47.0656 78.7122 46.6256 79.2622C46.4756 79.4522 46.1256 79.5322 45.8656 79.5522C45.1256 79.5922 44.3856 79.6322 43.6456 79.5822C41.4356 79.4322 39.2356 79.6522 37.0256 79.6022C34.8056 79.5422 32.5856 79.5922 30.3756 79.5722C29.8156 79.5722 29.2456 79.4722 28.6856 79.4522C28.2956 79.4322 27.9056 79.4322 27.5156 79.4922C26.4956 79.6422 25.4856 79.5922 24.2756 79.5122L24.2656 79.4922Z" fill="#6B4E47"/>
<path d="M110.307 12.1562C110.407 12.6463 110.507 12.8963 110.507 13.1562C110.547 16.9762 110.577 20.7963 110.587 24.6063C110.587 26.2563 110.557 27.9062 110.537 29.5462C110.537 29.7662 110.567 30.0062 110.517 30.2162C110.367 30.8262 109.087 32.6163 108.307 33.2863C108.267 32.9963 108.217 32.7962 108.217 32.5962C108.217 28.7262 108.077 24.8563 107.907 20.9963C107.877 20.2663 107.957 19.5362 108.067 18.8062C108.167 18.1062 107.907 17.3662 107.807 16.6362C107.687 15.6662 107.997 14.8563 108.647 14.1363C109.167 13.5563 109.587 12.8763 110.297 12.1663L110.307 12.1562ZM108.817 21.9963C108.567 22.2163 108.287 22.3462 108.217 22.5562C108.097 22.9062 108.517 23.2763 108.927 23.2463C109.247 23.2263 109.547 22.8463 109.417 22.5363C109.337 22.3363 109.067 22.2163 108.817 22.0063V21.9963Z" fill="#6B4E47"/>
<path d="M89.2463 23.9075C89.6063 23.1975 89.8163 22.7375 90.0563 22.3075C90.4463 21.6075 90.7963 20.8875 91.2663 20.2575C91.5163 19.9175 91.9763 19.7275 92.3563 19.4875C92.4463 19.4275 92.5763 19.4275 92.6863 19.4175C94.8763 19.1775 97.0663 18.9375 99.4163 18.6875C99.3263 19.0975 99.3263 19.3775 99.2163 19.6075C98.8663 20.3175 98.4563 21.0075 98.1063 21.7175C97.6663 22.6175 96.9763 23.0975 95.9763 23.1875C95.1863 23.2575 94.3963 23.3675 93.5963 23.4575C92.5263 23.5875 91.4563 23.7175 90.3763 23.8475C90.1063 23.8775 89.8263 23.8775 89.2363 23.9075H89.2463Z" fill="#6B4E47"/>
<path d="M76.7269 75.6571C73.8469 74.8871 74.0969 74.7971 72.2569 75.6971C72.2969 74.7571 72.6669 73.8571 73.5269 73.3671C75.2969 72.3571 77.3569 72.5671 78.0869 74.8271C78.4369 75.9071 78.3169 76.9871 77.6469 77.9371C77.1869 78.5871 76.6369 79.1671 76.1069 79.7571C75.6569 80.2571 75.1569 80.7171 74.5569 81.3071C75.3069 81.6471 75.8569 81.9671 76.5869 81.7371C77.1369 81.5571 77.7069 81.5471 78.3169 81.7971C78.2169 82.4871 77.8269 83.0271 77.3569 83.6171C76.9469 83.6471 76.5069 83.7071 76.0569 83.7071C74.5869 83.7071 73.1169 83.6971 71.6469 83.6771C71.5569 83.6771 71.4569 83.5771 71.2969 83.4871C71.5969 82.5471 72.1869 81.8371 72.9769 81.2171C73.8769 80.5171 74.7269 79.7571 75.5769 79.0071C76.2469 78.4071 76.6369 77.6871 76.5369 76.7471C76.5069 76.4371 76.6469 76.1071 76.7269 75.6671V75.6571Z" fill="#6B4E47"/>
<path d="M132.186 82.6893C131.626 82.0593 131.516 81.2793 131.456 80.4893C131.416 79.9293 131.366 79.3693 131.326 78.8093C130.576 78.8993 129.906 79.0393 129.246 79.0293C127.866 79.0093 127.006 78.0993 127.106 76.7293C127.226 75.1293 127.926 73.7793 129.226 72.8093C130.196 72.0893 131.206 72.2793 131.866 73.2693C132.286 73.8893 132.556 74.5793 132.576 75.3293C132.596 76.1193 132.596 76.9093 132.636 77.6893C132.716 79.0693 133.006 80.3793 133.856 81.4493C133.786 82.1093 133.606 82.6293 133.176 83.0493L133.216 83.0993C133.176 82.9993 133.156 82.8993 133.116 82.7993C132.786 82.1893 132.646 82.1793 132.126 82.7393L132.176 82.6893H132.186ZM131.336 76.7893C131.286 76.4993 131.256 76.2293 131.176 75.9693C131.086 75.7093 130.976 75.4493 130.836 75.1993C130.386 74.4393 129.866 74.3393 129.176 74.8893C128.546 75.3893 128.566 76.1093 129.226 76.5793C129.866 77.0393 130.546 77.1593 131.346 76.7793L131.336 76.7893Z" fill="#6B4E47"/>
<path d="M45.5469 39.8713C45.7869 38.5413 46.5769 37.6213 47.1069 36.5913C47.2769 36.2513 47.5569 35.9013 47.8769 35.7113C48.5669 35.3013 49.3369 35.0813 50.1569 35.2713C50.3669 35.3213 50.6269 35.4313 50.7869 35.3513C52.1769 34.7013 53.7069 34.9913 55.1369 34.6513C55.2269 34.6313 55.3369 34.7213 55.4769 34.7813C55.4769 34.9313 55.5369 35.1213 55.4669 35.2513C55.0369 36.1213 54.5769 36.9713 54.1369 37.8213C53.7669 38.5313 53.1969 38.9413 52.3969 39.0313C50.8769 39.2113 49.3469 39.3813 47.8269 39.5713C47.1069 39.6613 46.3869 39.7613 45.5569 39.8713H45.5469ZM52.7169 36.6613C52.6569 36.5713 52.6069 36.4713 52.5469 36.3813C52.1969 36.4613 51.8369 36.5413 51.3569 36.6513C51.5769 37.0313 51.7269 37.2813 51.9669 37.6713C52.2869 37.2513 52.5069 36.9613 52.7269 36.6613H52.7169ZM48.3169 38.8513C47.9069 38.6813 47.7669 38.5613 47.6769 38.5913C47.5669 38.6313 47.4969 38.7913 47.4069 38.8913C47.5169 38.9713 47.6169 39.1113 47.7269 39.1113C47.8669 39.1113 48.0069 38.9913 48.3169 38.8513Z" fill="#6B4E47"/>
<path d="M119.997 83.5722C119.747 78.6722 119.737 78.6022 117.877 74.4422C118.097 73.9722 118.367 73.4222 118.597 72.9322C119.077 72.7922 119.177 73.1022 119.327 73.3222C119.707 73.8422 120.177 74.2422 120.787 74.4522C121.617 74.7422 122.227 74.4522 122.517 73.6022C122.607 73.3522 122.627 73.0722 122.737 72.4922C122.947 73.0922 122.997 73.4422 123.177 73.7022C123.367 73.9722 123.667 74.1622 123.947 74.3622C124.277 74.6022 124.767 74.4322 124.917 74.0222C124.997 73.8122 124.997 73.5822 125.047 73.3622C125.087 73.1622 125.137 72.9722 125.217 72.6022C125.497 72.8522 125.737 72.9622 125.787 73.1322C126.157 74.2322 125.947 75.2622 125.297 76.2022C124.847 76.8522 124.297 77.0022 123.497 76.7522C123.227 76.6722 122.987 76.5122 122.737 76.4022C122.247 76.5922 121.777 76.7822 121.207 77.0122C121.237 77.4722 121.287 77.9622 121.277 78.4522C121.257 79.4722 121.277 80.5022 121.127 81.5022C121.027 82.2022 120.807 82.9422 119.987 83.5722H119.997Z" fill="#6B4E47"/>
<path d="M172.935 34.9768C178.375 33.5568 179.215 33.4068 180.685 33.5668C180.565 33.9468 180.495 34.3268 180.325 34.6568C179.835 35.5568 179.445 36.5668 178.745 37.2568C178.065 37.9168 176.935 37.7968 175.995 37.9768C174.445 38.2868 172.895 38.5768 171.195 38.9068C171.225 38.5568 171.185 38.3368 171.275 38.1668C171.815 37.0968 172.375 36.0568 172.945 34.9668L172.935 34.9768Z" fill="#6B4E47"/>
<path d="M97.096 84.0706C96.956 82.5506 98.066 82.4706 99.126 82.3306C99.436 81.9206 99.716 81.5006 100.046 81.1106C100.376 80.7206 100.716 80.3306 101.126 80.0306C101.946 79.4106 102.826 79.8306 102.946 80.8806C102.976 81.1406 102.876 81.4306 102.796 81.8606C103.156 81.7506 103.396 81.6706 103.666 81.5906C103.766 80.3706 103.486 79.3106 102.886 78.2306C102.496 78.3706 102.146 78.4106 101.906 78.5906C101.456 78.9306 101.076 79.3606 100.646 79.7306C100.506 79.8506 100.276 79.8706 100.076 79.9406C100.026 79.7306 99.956 79.6006 99.996 79.5206C100.636 78.2606 101.626 77.3406 102.846 76.6806C103.776 76.1806 104.806 76.7206 105.096 77.7706C105.856 80.6106 104.196 83.2906 101.266 83.6806C100.036 83.8406 98.806 84.0506 97.566 84.1906C97.416 84.2106 97.256 84.1006 97.116 84.0606L97.096 84.0706ZM100.596 81.9306C100.796 81.9506 100.936 81.9706 101.076 81.9706C101.116 81.9706 101.146 81.9106 101.186 81.8706C101.076 81.8206 100.966 81.7406 100.846 81.7306C100.786 81.7306 100.716 81.8306 100.596 81.9306Z" fill="#6B4E47"/>
<path d="M79.4765 61.1625C78.9065 62.4025 77.7465 62.9225 76.5865 63.3325C75.6865 63.6525 74.7565 63.3725 73.9865 62.8325C73.0865 62.2025 72.3665 61.4025 72.1765 60.2525C72.1365 60.0325 72.0765 59.8125 72.0265 59.5925C71.6765 57.9725 72.0665 56.5425 73.1965 55.3425C73.5365 54.9725 73.9665 54.6825 74.3565 54.3625L74.3265 54.3125C74.2765 54.7625 74.2265 55.2025 74.1665 55.6525C73.9065 57.6325 74.8165 59.1525 76.0965 60.5125C76.2465 60.6725 76.4965 60.7125 76.6865 60.8325C77.5665 61.3825 78.5565 61.1525 79.5065 61.1925L79.4765 61.1725V61.1625Z" fill="#6B4E47"/>
<path d="M74.3659 54.3476C74.8759 53.8276 75.3159 53.2176 75.8959 52.7976C77.6559 51.5176 79.6559 51.8376 80.9959 53.5476C82.4259 55.3676 82.4059 58.2576 80.8959 60.0076C80.5059 60.4576 79.9559 60.7776 79.4759 61.1576L79.5059 61.1776C79.5359 60.9576 79.5259 60.7276 79.5859 60.5176C80.1559 58.6676 79.5459 57.0976 78.4559 55.6276C77.7959 54.7476 76.9159 54.3476 75.8559 54.2776C75.3559 54.2476 74.8459 54.2876 74.3359 54.2976L74.3659 54.3476ZM80.7159 57.8776C80.7159 57.8776 80.6559 57.9376 80.6259 57.9676C80.6759 57.9776 80.7259 57.9876 80.7759 57.9976C80.7559 57.9576 80.7359 57.9076 80.7259 57.8776H80.7159ZM79.0459 53.8676C78.9759 53.8176 78.9159 53.7676 78.8459 53.7376C78.8259 53.7376 78.7759 53.7976 78.7459 53.8276C78.8159 53.8776 78.8959 53.9376 78.9659 53.9776C78.9659 53.9776 79.0159 53.9076 79.0459 53.8676Z" fill="#6B4E47"/>
<path d="M179.717 61.4963C178.807 62.8563 177.537 63.5462 175.907 63.5462C175.687 63.5462 175.317 63.5063 175.277 63.3963C175.027 62.6663 174.077 62.5962 173.857 61.8662C173.317 60.0662 172.897 58.2762 173.527 56.3862C173.667 55.9762 173.587 55.5063 173.607 54.9963C174.167 54.5563 174.677 53.9363 175.587 53.6562C175.607 54.1662 175.647 54.5362 175.637 54.9162C175.637 55.8262 175.597 56.7362 175.607 57.6362C175.607 58.1462 175.627 58.6662 175.727 59.1562C176.117 61.0862 176.967 61.8862 178.907 61.5262C179.177 61.4762 179.467 61.5262 179.747 61.5262L179.717 61.4863V61.4963Z" fill="#6B4E47"/>
<path d="M68.9762 75.5116H63.8262C64.0462 74.6316 64.3062 73.9116 64.8162 73.2016C66.3162 73.1716 67.8162 72.9516 69.3262 73.3916C69.6162 73.4816 69.9762 73.3716 70.2962 73.3216C70.5562 73.2816 70.8162 73.2016 71.2662 73.1016C71.1762 73.4616 71.1662 73.6716 71.0762 73.8416C69.5362 76.8816 67.9762 79.9216 66.4262 82.9516C66.3262 83.1516 66.2062 83.3516 66.0562 83.5216C65.8362 83.7816 65.5562 83.6716 65.1662 83.6616C65.6662 82.1316 66.4762 80.9016 67.0762 79.5816C67.6562 78.3016 68.4162 77.1016 68.9862 75.5216L68.9762 75.5116Z" fill="#6B4E47"/>
<path d="M80.186 75.3894C80.166 74.4994 80.836 73.9694 81.196 73.1994C83.296 73.0194 85.386 73.2094 87.606 73.1094C87.516 73.4894 87.496 73.7694 87.386 73.9894C85.876 76.9794 84.346 79.9494 82.816 82.9294C82.716 83.1294 82.606 83.3394 82.446 83.4994C82.226 83.7194 81.956 83.7594 81.616 83.4994C81.976 82.0894 82.946 80.9494 83.546 79.6394C84.126 78.3594 84.696 77.0694 85.256 75.8294C85.036 75.4394 84.726 75.5594 84.466 75.5194C84.296 75.4994 84.126 75.4994 83.956 75.5194C83.366 75.5794 82.866 75.2094 82.326 75.1594C81.806 75.0994 81.256 75.3994 80.706 75.4994C80.556 75.5294 80.386 75.4394 80.186 75.3894Z" fill="#6B4E47"/>
<path d="M57.8351 53.6016C57.9651 56.6316 57.8151 62.4616 57.5751 63.6816C57.2751 63.7216 56.9551 63.8116 56.6251 63.7816C55.6951 63.6916 55.4351 63.1616 55.9151 62.2516C56.0251 62.0316 56.1751 61.8516 56.0051 61.6716C55.5851 61.2516 55.6451 60.7316 55.6551 60.2316C55.6751 58.8116 55.6951 57.3916 55.7551 55.9716C55.7651 55.6516 55.9051 55.3116 56.0751 55.0316C56.3751 54.5316 56.9751 54.0716 57.8351 53.6116V53.6016Z" fill="#6B4E47"/>
<path d="M120.385 63.6378C119.725 63.8478 119.185 63.8878 118.685 63.5278C118.275 62.9378 118.545 62.3078 118.535 61.6978C118.505 59.8778 118.545 58.0578 118.465 56.2378C118.425 55.2278 118.765 54.4778 119.525 53.8578C119.785 53.6478 120.025 53.4378 120.235 53.2578C120.385 53.2978 120.455 53.2978 120.495 53.3278C120.535 53.3578 120.565 53.4178 120.575 53.4778C120.695 55.1578 120.575 62.1078 120.395 63.6378H120.385Z" fill="#6B4E47"/>
<path d="M61.5868 72.8594C61.6168 73.3694 61.6568 73.7394 61.6568 74.1194C61.6568 76.4394 61.6568 78.7594 61.6568 81.0894C61.6568 81.7494 61.7868 82.4594 60.9368 82.7394C61.2368 83.0894 61.3968 83.2794 61.6968 83.6194C61.1268 83.6594 60.7468 83.7194 60.3868 83.6894C60.0168 83.6594 59.7868 83.4094 59.7068 83.0394C59.6768 82.8794 59.6668 82.6994 59.6668 82.5294C59.6768 80.5994 59.7068 78.6794 59.7168 76.7594C59.7168 76.5394 59.7868 76.2694 59.6868 76.1094C59.0868 75.1794 59.5968 74.5794 60.2468 73.9794C60.5768 73.6694 60.8568 73.3194 61.1568 72.9894C61.1868 72.9494 61.2668 72.9594 61.5768 72.8694L61.5868 72.8594Z" fill="#6B4E47"/>
<path d="M82.3262 11.5962C83.2362 11.4562 83.8361 11.3562 84.4361 11.2662C84.8161 11.5162 84.6962 11.8662 84.5662 12.1662C84.2462 12.8862 83.6061 13.2862 82.9361 13.5862C81.7061 14.1362 80.4362 14.6362 79.2462 15.1362C78.8062 14.8962 78.9062 14.6362 79.0762 14.3862C79.2962 14.0562 79.5362 13.7462 79.7862 13.4162C79.6462 12.9962 79.5061 12.5762 79.3661 12.1762C79.6161 11.9662 79.8162 11.8062 80.0162 11.6362C79.8362 11.3862 79.6762 11.1662 79.4662 10.8562C79.8162 10.3662 80.1461 9.84616 80.5461 9.38616C80.7561 9.14616 81.0862 8.96615 81.3962 8.85615C81.8462 8.69615 82.2962 8.72616 82.6362 9.12616C82.9262 9.44616 83.0362 9.81615 82.8862 10.2262C82.7562 10.5962 82.5962 10.9562 82.3262 11.6062V11.5962Z" fill="#6B4E47"/>
<path d="M109.247 83.5994C109.037 82.2894 108.827 81.1194 108.907 79.9294C108.937 79.4694 108.827 79.0894 108.567 78.6594C107.987 77.6894 107.507 76.6594 107.037 75.6294C106.907 75.3394 106.857 74.9494 106.937 74.6494C107.137 73.8894 107.447 73.1694 107.927 72.3594C108.207 72.6694 108.417 72.8394 108.557 73.0494C109.777 74.9594 110.337 77.0994 110.577 79.3194C110.627 79.8194 110.697 80.4294 110.477 80.8194C110.017 81.6494 110.377 82.7794 109.257 83.5894L109.247 83.5994Z" fill="#6B4E47"/>
<path d="M114.906 83.5934C114.546 81.7934 114.306 80.2134 113.896 78.6834C113.726 78.0634 114.196 77.5934 113.986 76.9134C113.886 76.8434 113.716 76.7034 113.526 76.5834C112.536 75.9834 112.246 75.3434 112.606 74.3434C112.836 73.7134 112.986 73.0334 113.496 72.5234C114.166 72.8734 114.416 73.5334 114.726 74.1334C115.046 74.7734 115.156 75.4834 115.466 76.1434C115.746 76.7534 115.866 77.4434 115.986 78.1134C116.286 79.7834 116.146 81.4034 115.386 82.9334C115.296 83.1234 115.136 83.2734 114.906 83.5734V83.5934Z" fill="#6B4E47"/>
<path d="M56.5357 77.2725C56.7357 78.5625 56.3557 79.4225 55.3157 80.1025C54.5057 80.6325 53.7157 81.1625 52.7957 81.5025C52.6357 81.5625 52.4857 81.6425 52.3357 81.7225C51.0757 82.4425 50.7157 83.3025 51.1557 84.7325C51.3557 85.3825 51.6357 86.0125 51.3357 86.7825C51.1757 86.6425 51.0057 86.5725 50.9657 86.4525C50.6157 85.2425 50.3557 84.0125 50.4457 82.7525C50.5457 81.3025 51.0057 80.1125 52.5657 79.5825C53.1157 79.3925 53.5657 78.8925 54.0457 78.5125C54.1157 78.4625 54.1457 78.3025 54.1357 78.1925C54.0157 77.3725 54.5457 77.2225 55.1657 77.2125C55.6057 77.2025 56.0457 77.2425 56.5257 77.2625L56.5357 77.2725Z" fill="#6B4E47"/>
<path d="M19.9966 50.7818C19.4366 51.3418 18.9266 51.8718 18.3966 52.3618C18.0766 52.6518 17.6766 52.6618 17.2866 52.4818C17.1366 52.4118 16.9866 52.3218 16.8466 52.2218C15.5866 51.2818 14.1566 50.8418 12.5566 50.8618C13.6266 49.0418 14.9566 48.4018 16.7766 48.8318C18.0166 49.1218 19.0266 49.8018 19.9966 50.7718V50.7818ZM17.2766 51.0018C17.3666 51.1218 17.4366 51.2518 17.5366 51.3418C17.5866 51.3818 17.7466 51.3318 17.8066 51.2718C17.9466 51.1318 17.7666 50.8518 17.5366 50.8518C17.4666 50.8518 17.3866 50.9418 17.2666 51.0218L17.2766 51.0018Z" fill="#6B4E47"/>
<path d="M91.7763 81.4134C92.0263 82.3634 91.7363 83.0834 90.9263 83.7834C90.7563 82.9634 90.6763 82.3134 91.0263 81.6834C92.5663 78.8434 94.0963 76.0034 95.6363 73.1734C95.6763 73.0934 95.8163 73.0734 95.9063 73.0234C96.2463 73.9834 96.2763 73.9934 95.9463 74.7034C95.5863 75.4734 95.1763 76.2234 94.7763 76.9734C94.2763 77.9334 93.7363 78.8634 93.2763 79.8434C92.9563 80.5334 92.5163 81.0834 91.7763 81.4134Z" fill="#6B4E47"/>
<path d="M55.7563 52.5075C55.3063 50.5775 55.9763 49.2875 57.5763 48.4375C58.2063 50.4675 57.7463 51.3775 55.7563 52.5075Z" fill="#6B4E47"/>
<path d="M120.435 48.2109C120.975 50.1309 120.255 51.3809 118.735 52.3109C118.045 50.4209 118.305 49.7509 120.435 48.2109Z" fill="#6B4E47"/>
<path d="M133.187 83.0531C133.157 83.1631 133.157 83.2831 133.097 83.3731C132.837 83.8131 132.607 83.8431 132.407 83.4731C132.287 83.2331 132.247 82.9631 132.177 82.7031L132.127 82.7531C132.487 82.8731 132.857 82.9931 133.217 83.1131L133.177 83.0631L133.187 83.0531Z" fill="#6B4E47"/>
</svg>
