<svg width="84" height="25" viewBox="0 0 84 25" fill="none" xmlns="http://www.w3.org/2000/svg">
<path d="M1.9107 6.54885C1.9681 6.70684 1.86847 6.80339 1.82623 6.91091C1.69518 7.24115 1.60963 7.58126 1.64861 7.93563C1.66919 8.12544 1.59338 8.26038 1.47858 8.39972C1.68219 8.60708 1.86413 8.81444 2.06774 8.99766C2.34608 9.2478 2.68722 9.37617 3.04678 9.45517C3.14859 9.47711 3.25147 9.49247 3.35436 9.50234C3.50815 9.5166 3.60129 9.61205 3.68901 9.75249C3.98034 9.5561 4.302 9.46504 4.65289 9.43432C4.9074 9.41128 5.15974 9.32899 5.36118 9.15126C5.44133 8.93183 5.35794 8.73215 5.31786 8.52808C5.23014 8.08265 5.14783 7.63611 5.0666 7.18848C5.02437 6.95589 5.04819 6.73976 5.19548 6.54008C5.27563 6.43036 5.31678 6.29212 5.38284 6.17144C5.47273 6.00796 5.52905 5.82036 5.67851 5.71064C5.85287 5.75453 5.84204 5.90593 5.89836 6.00467C6.1063 6.36563 6.40954 6.58067 6.81675 6.60042C7.36801 6.62785 7.92359 6.66405 8.46185 6.47754C8.64163 6.4161 8.82791 6.37112 9.01419 6.33601C9.47014 6.25263 9.86435 6.04966 10.2077 5.73917C10.2705 5.68212 10.3409 5.63275 10.4633 5.5362C10.4546 5.67334 10.4633 5.75014 10.4427 5.81816C10.3939 5.97834 10.2629 6.1089 10.2532 6.31955C10.5846 6.30529 10.8174 6.08586 11.0936 6.02333C11.3925 5.9564 11.5842 5.70187 11.9102 5.6108C11.9037 5.70955 11.9134 5.79073 11.8907 5.85985C11.8073 6.10342 11.6513 6.31955 11.5701 6.59384C12.117 6.67502 12.6022 6.51594 13.0928 6.44682C13.46 6.39525 13.748 6.14621 14.0924 5.97066C14.1054 5.66566 14.2213 5.36833 14.1747 5.05346C14.1477 4.86914 14.2007 4.70457 14.296 4.55426C14.4444 4.31838 14.6004 4.08798 14.7466 3.86416C14.8971 3.8872 14.8733 3.98814 14.8722 4.06823C14.8657 4.40066 14.8505 4.73419 14.8451 5.06663C14.843 5.20596 14.8419 5.34859 14.8657 5.48573C14.9578 6.01235 15.2209 6.38209 15.7668 6.51375C16.0754 6.58835 16.3743 6.62785 16.6873 6.54447C16.8877 6.4918 17.0946 6.46328 17.2992 6.43256C17.6989 6.37221 18.0682 6.23397 18.405 6.00687C18.47 5.96298 18.5458 5.93556 18.6476 5.88509C18.6909 6.1484 18.5122 6.31297 18.4851 6.55324C18.9281 6.55873 19.2682 6.28993 19.6559 6.19119C20.0371 6.09354 20.3003 5.73478 20.7519 5.66456C20.6912 6.01894 20.466 6.26031 20.3934 6.57628C20.6382 6.63114 20.8277 6.48632 21.0226 6.39196C21.2241 6.29432 21.4093 6.16047 21.6021 6.04307C21.7851 5.93226 21.9237 5.74355 22.1392 5.68431C22.2161 5.82255 22.1479 5.9202 22.1024 6.00248C21.927 6.32394 21.7472 6.64321 21.5468 6.94931C21.4634 7.07767 21.3356 7.1819 21.2111 7.27516C20.9696 7.45618 20.5959 7.41449 20.44 7.74254C20.1497 7.85444 19.8606 7.96964 19.5682 8.07497C19.4772 8.10788 19.3754 8.11227 19.227 8.1386C19.3006 7.88736 19.357 7.69097 19.4111 7.50446C19.3331 7.38926 19.2476 7.44631 19.1761 7.47593C18.9833 7.55383 18.8003 7.65696 18.6032 7.72169C18.2144 7.85005 17.8191 7.95977 17.4054 8.08375C17.3631 7.94002 17.3306 7.82811 17.2927 7.69646C17.0036 7.73376 16.7166 7.77655 16.4296 7.80727C16.1047 7.84237 15.7754 7.9093 15.4744 7.69975C15.4365 7.67342 15.3736 7.68219 15.3217 7.68C14.9242 7.66683 14.6329 7.47922 14.4336 7.13472C14.4173 7.10729 14.3849 7.08974 14.3361 7.04695C14.2592 7.09742 14.1747 7.15228 14.0914 7.20823C13.5758 7.55712 12.9997 7.72279 12.3899 7.79191C12.2535 7.80727 12.1149 7.82043 11.9849 7.85993C11.4813 8.01133 10.9625 8.03218 10.4448 8.05083C10.3636 8.05412 10.2813 8.0256 10.1643 8.00475C10.1784 7.86542 10.1893 7.74912 10.2012 7.62514C10.1871 7.61527 10.1611 7.57797 10.1351 7.57906C9.98132 7.58674 9.84053 7.61637 9.69324 7.68878C9.33909 7.86322 8.96004 7.98062 8.53983 8.03876C8.516 7.93783 8.49651 7.85774 8.4716 7.75022C8.09471 7.73705 7.73732 7.89943 7.36259 7.92576C6.98679 7.95209 6.61206 7.97952 6.26117 8.00365C6.22868 8.05193 6.21243 8.06509 6.21027 8.08155C6.12146 8.74203 5.77598 9.29169 5.4619 9.85452C5.31461 10.1189 5.15 10.3614 4.79152 10.3482C4.72221 10.346 4.60308 10.4195 4.589 10.4788C4.54026 10.6774 4.3908 10.7026 4.24027 10.7432C3.55905 10.9275 2.867 10.944 2.18254 10.7959C1.53057 10.6543 1.13852 10.2089 0.978229 9.5561C0.966316 9.50563 0.941407 9.44639 0.956569 9.4025C1.04863 9.12602 0.858015 8.85942 0.938158 8.58294C0.977146 8.44909 0.986893 8.30646 1.0248 8.17261C1.17209 7.64709 1.36811 7.1424 1.72659 6.7211C1.77858 6.65966 1.84356 6.6092 1.90854 6.54666L1.9107 6.54885ZM15.7321 7.24773C15.6531 6.77596 15.6314 6.7617 15.2773 6.91529C15.3639 7.10985 15.5155 7.22066 15.7321 7.24773ZM18.0703 6.98003C17.9577 7.01843 17.8505 7.02501 17.8776 7.13911C17.8895 7.18958 17.961 7.25431 18.0119 7.2609C18.105 7.27187 18.1689 7.20274 18.1548 7.104C18.1483 7.05573 18.0963 7.01514 18.0714 6.98003H18.0703ZM2.60492 10.2956C2.49553 10.3625 2.43272 10.3866 2.39481 10.4305C2.3699 10.459 2.38073 10.5183 2.3764 10.5644C2.43597 10.5666 2.53019 10.594 2.54752 10.5677C2.58434 10.5128 2.58001 10.4305 2.60492 10.2956ZM7.54237 7.52092C7.55754 7.5286 7.57486 7.54724 7.58678 7.54286C7.64418 7.5253 7.69941 7.50226 7.75356 7.47813C7.75789 7.47593 7.75139 7.43314 7.74923 7.43314C7.69075 7.43314 7.63118 7.42985 7.57378 7.44082C7.55862 7.44411 7.55212 7.49239 7.54237 7.51982V7.52092ZM8.99253 7.13692C8.90589 7.104 8.85932 7.07767 8.81058 7.06999C8.78459 7.0656 8.75318 7.09193 8.72502 7.104C8.75535 7.1413 8.78242 7.18519 8.81925 7.21372C8.83008 7.22249 8.87123 7.19178 8.99253 7.13692ZM10.6452 6.88677C10.6409 6.86263 10.6365 6.8374 10.6322 6.81326C10.5911 6.83082 10.5499 6.84837 10.4611 6.88677H10.6452ZM6.26875 7.19068C6.20918 7.22469 6.18319 7.24005 6.1572 7.25541C6.19186 7.30807 6.22543 7.36183 6.26009 7.41449C6.28283 7.39804 6.32723 7.37609 6.32507 7.36403C6.31424 7.30698 6.29041 7.25212 6.26875 7.18958V7.19068ZM19.5162 6.92846L19.4728 6.99978C19.4869 7.00746 19.5053 7.02501 19.5162 7.02172C19.5422 7.01294 19.5649 6.99539 19.5887 6.98112C19.5649 6.96357 19.5411 6.94602 19.5162 6.92846ZM13.7047 6.84947C13.6928 6.85605 13.682 6.86263 13.6701 6.86922C13.6766 6.87909 13.6831 6.88896 13.6896 6.89884C13.7069 6.88677 13.7231 6.8758 13.7405 6.86373C13.7285 6.85934 13.7166 6.85386 13.7047 6.84947ZM7.81529 6.78144C7.80446 6.76828 7.7893 6.74195 7.7828 6.74414C7.75464 6.75182 7.72865 6.76828 7.70158 6.78144C7.72865 6.79461 7.75356 6.81107 7.78172 6.81875C7.7893 6.82094 7.80338 6.79461 7.81529 6.78144Z" fill="#E8DFCE"/>
<path d="M46.0348 8.14126C45.842 8.19393 45.6623 8.28279 45.4814 8.28499C44.3583 8.29815 43.2342 8.29157 42.1219 8.29157C42.0775 8.21916 42.0439 8.1654 42.0147 8.11713C41.9768 8.11713 41.9345 8.10396 41.9107 8.11932C41.6995 8.26304 41.4688 8.29157 41.2187 8.27731C40.91 8.25975 40.6003 8.27292 40.2884 8.27292C40.1736 8.41116 40.0837 8.53843 39.9743 8.64814C39.7068 8.91694 39.4501 9.20109 39.1555 9.43478C38.7451 9.75953 38.2588 9.87035 37.7389 9.83195C37.2516 9.79574 36.7902 9.63775 36.3256 9.51048C35.744 9.3514 35.1776 9.13527 34.608 8.93669C34.3849 8.85879 34.1672 8.76114 33.9527 8.67447C33.9657 8.5461 34.0491 8.56585 34.1119 8.56475C34.2159 8.56256 34.3199 8.56805 34.4228 8.57683C35.6314 8.67996 36.8433 8.63058 38.053 8.63826C38.5144 8.64156 38.9368 8.50332 39.3559 8.33984C39.3775 8.33107 39.384 8.28279 39.4079 8.22903C39.1349 8.18295 38.8653 8.15004 38.6021 8.0897C38.4017 8.04362 38.2046 7.9723 38.0173 7.89002C37.8732 7.82638 37.7628 7.7057 37.7108 7.54881C37.661 7.3985 37.6166 7.24271 37.7574 7.11105C37.7704 6.64038 38.0303 6.26406 38.2187 5.85922C38.2837 5.71988 38.3942 5.72866 38.5447 5.73415C38.5187 5.62553 38.496 5.52789 38.4678 5.4083C38.5848 5.19545 38.6942 4.95738 38.8999 4.78513C39.1653 4.56351 39.4923 4.5273 39.7544 4.74673C40.0447 4.99029 40.3165 5.26019 40.5656 5.54544C40.7757 5.78681 40.8526 6.10169 40.8818 6.42095C40.8959 6.57565 40.9003 6.73144 40.91 6.91357C41.014 6.94429 41.1082 6.98927 41.2046 6.99585C41.615 7.02328 42.0223 7.0551 42.4381 7.01231C42.8638 6.96952 43.2991 7.02218 43.7302 7.03316C43.7865 7.10118 43.8406 7.16591 43.8991 7.23613C44.6594 7.04742 45.4316 6.98817 46.2124 7.02109C46.4139 7.02986 46.6121 7.01999 46.8189 6.98049C47.1882 6.90918 47.577 6.91357 47.9561 6.92454C48.5821 6.94209 49.1994 6.862 49.8189 6.80385C50.5066 6.74022 51.1954 6.67878 51.8799 6.58881C52.1474 6.55371 52.4073 6.44948 52.6661 6.3639C52.7885 6.32331 52.8426 6.17958 52.7896 6.06109C52.7473 5.96564 52.6899 5.87787 52.639 5.78681C52.3932 5.35344 52.3802 4.92775 52.678 4.51084C52.7777 4.37041 52.8773 4.22998 52.9596 4.11258C53.0842 4.06979 53.1242 4.1444 53.1502 4.19816C53.2986 4.49439 53.4491 4.79061 53.578 5.09561C53.8672 5.78132 53.6138 6.3661 53.1914 6.88943C52.7777 7.3996 52.2091 7.6651 51.5744 7.75178C50.4264 7.90757 49.2763 8.04581 48.124 8.16759C47.6453 8.21806 47.159 8.21367 46.6771 8.21587C46.4724 8.21696 46.2677 8.17308 46.0337 8.14565L46.0348 8.14126ZM42.4273 7.85601C42.5843 7.71448 42.6049 7.66072 42.5172 7.59599C42.4836 7.57185 42.4197 7.56417 42.3807 7.57953C42.2887 7.61574 42.3038 7.69692 42.4262 7.85601H42.4273ZM36.0798 9.0826C36.1632 8.99044 36.1383 8.92023 36.0711 8.86098C36.0527 8.84453 36.0072 8.83794 35.991 8.84891C35.9725 8.86098 35.9585 8.91035 35.9682 8.92791C35.9985 8.98167 36.0408 9.02884 36.0809 9.0815L36.0798 9.0826ZM50.0626 7.45336C49.9705 7.45336 49.9185 7.44019 49.8795 7.45775C49.8449 7.47311 49.8232 7.52138 49.7961 7.55539C49.8405 7.56198 49.8893 7.58172 49.9283 7.56965C49.9672 7.55758 49.9965 7.5137 50.0615 7.45336H50.0626ZM38.6151 7.27014C38.5458 7.27014 38.5198 7.26245 38.5122 7.27123C38.47 7.3228 38.4321 7.37766 38.3953 7.43361C38.3931 7.4369 38.4256 7.46872 38.4277 7.46762C38.4808 7.43032 38.5328 7.39192 38.5826 7.35023C38.5945 7.34035 38.5956 7.31951 38.614 7.27014H38.6151ZM50.4665 7.32609C50.5066 7.35023 50.5218 7.36778 50.5347 7.36559C50.5954 7.35571 50.6582 7.34364 50.7156 7.3228C50.7254 7.31951 50.7308 7.25587 50.7156 7.23832C50.6376 7.14397 50.5716 7.23283 50.5023 7.26246C50.4914 7.26684 50.4871 7.28879 50.4665 7.32719V7.32609ZM39.8573 7.10995C39.8562 7.08911 39.8595 7.06717 39.853 7.06278C39.7913 7.02218 39.7295 6.9783 39.6613 6.95197C39.6494 6.94758 39.6093 7.0156 39.5812 7.04961C39.6266 7.08143 39.6689 7.12751 39.7198 7.14068C39.7609 7.15165 39.8118 7.12202 39.8573 7.10995ZM50.9311 7.21528C50.9528 7.20979 50.9745 7.2054 50.9961 7.19992C50.9864 7.14177 50.9777 7.08472 50.968 7.02657C50.942 7.03754 50.8921 7.0529 50.8921 7.06058C50.8986 7.11325 50.916 7.16481 50.9311 7.21638V7.21528ZM52.0553 7.10337C51.9914 7.06936 51.9578 7.04084 51.921 7.03425C51.9026 7.03096 51.856 7.07924 51.8593 7.08582C51.8766 7.12422 51.9004 7.17249 51.934 7.18675C51.9535 7.19553 51.9968 7.14506 52.0553 7.10228V7.10337ZM42.8497 7.59928C42.8259 7.5894 42.7934 7.56417 42.7782 7.57185C42.7555 7.58392 42.7457 7.61793 42.7295 7.64316C42.7511 7.65304 42.7804 7.67608 42.7923 7.66949C42.8161 7.65523 42.8313 7.62451 42.8497 7.59928ZM40.4941 6.03366C40.4768 6.00953 40.4649 5.97223 40.4421 5.96455C40.4194 5.95577 40.3869 5.97552 40.3577 5.9832C40.3815 6.01501 40.4032 6.04902 40.4313 6.07536C40.4356 6.07974 40.4725 6.04793 40.4941 6.03366ZM37.8862 9.313C37.9003 9.30532 37.9144 9.29764 37.9285 9.28996C37.9111 9.26253 37.8938 9.2362 37.8754 9.20877C37.8657 9.21865 37.8462 9.23072 37.8483 9.2362C37.8581 9.26253 37.8732 9.28777 37.8862 9.313ZM41.0183 7.61025C40.9934 7.59928 40.9685 7.58502 40.9414 7.57953C40.9317 7.57734 40.9176 7.59489 40.9046 7.60366C40.9208 7.62012 40.9382 7.65084 40.9544 7.65084C40.975 7.65084 40.9966 7.62561 41.0172 7.61134L41.0183 7.61025ZM35.2502 8.86208C35.2372 8.85769 35.2231 8.8544 35.2101 8.85001C35.2079 8.86757 35.2058 8.88512 35.2036 8.90267C35.2177 8.89938 35.2339 8.89938 35.2458 8.8928C35.2513 8.88951 35.2491 8.87305 35.2513 8.86208H35.2502Z" fill="#E8DFCE"/>
<path d="M27.7741 5.68723C27.6962 6.14912 27.472 6.47058 27.3398 6.79862C27.3972 6.93905 27.4947 6.91711 27.5738 6.91821C28.229 6.92699 28.8853 6.961 29.5546 6.78216C29.5687 6.66806 29.5947 6.54957 29.5947 6.43108C29.5947 6.18642 29.5817 5.94066 29.5719 5.696C29.5405 4.87315 29.5091 4.0503 29.4777 3.22745C29.468 2.9773 29.5102 2.76885 29.7073 2.56697C29.8947 2.37607 30.0051 2.10508 30.2456 1.88675C30.277 1.97452 30.3149 2.03157 30.3149 2.08752C30.3235 3.2088 30.3279 4.33007 30.3344 5.45134C30.3365 5.83643 30.3398 6.22153 30.3463 6.60662C30.3549 7.08168 30.1427 7.44703 29.8037 7.75094C29.7398 7.80799 29.6683 7.87162 29.5893 7.89466C29.2254 7.99779 28.8615 8.13274 28.49 8.17114C27.8196 8.24026 27.1438 8.25123 26.4702 8.28085C26.3543 8.28634 26.2384 8.26659 26.0965 8.25562C26.1193 7.88917 26.3846 7.64451 26.4637 7.29124C26.1074 7.33293 25.8182 7.4964 25.5052 7.56991C25.2031 7.64122 24.9041 7.72899 24.5998 7.78933C24.2792 7.85297 23.9792 7.9923 23.6392 7.9934C23.3349 7.9934 23.0305 8.06581 22.6937 8.1108C22.6634 7.96268 22.6211 7.84858 22.6201 7.73557C22.6125 7.19249 22.6157 6.65051 22.6157 6.10743C22.6157 5.31968 22.6255 4.53304 22.6157 3.7453C22.6125 3.46662 22.6742 3.22635 22.8659 3.02667C22.9601 2.92793 23.0858 2.84784 23.1497 2.73264C23.2168 2.61195 23.2471 2.47262 23.4237 2.40131C23.4399 2.46823 23.4681 2.52857 23.4659 2.58782C23.4464 3.00693 23.4182 3.42493 23.3977 3.84404C23.3912 3.96582 23.4074 4.0876 23.4042 4.20938C23.3966 4.54182 23.3814 4.87425 23.3749 5.20668C23.3706 5.41733 23.3489 5.63127 23.3836 5.83643C23.4215 6.06354 23.1507 6.13924 23.1789 6.35428C23.2276 6.36964 23.2742 6.385 23.337 6.40585C23.3533 6.51008 23.3706 6.62857 23.3901 6.75474C23.4421 6.7701 23.4908 6.80301 23.5341 6.79643C24.2684 6.69439 25.0038 6.60223 25.7099 6.34989C26.2622 6.15241 26.8211 5.97358 27.3777 5.78926C27.4882 5.75305 27.603 5.73001 27.7752 5.68503L27.7741 5.68723ZM30.0604 3.57414C29.9315 3.56207 29.8871 3.64765 29.8546 3.72335C29.8416 3.75407 29.8763 3.81661 29.9044 3.85172C29.9163 3.86708 29.9791 3.86379 29.9975 3.84733C30.0441 3.80125 30.0918 3.74749 30.1134 3.68715C30.1243 3.65752 30.0777 3.60706 30.0604 3.57524V3.57414ZM25.5604 6.91163C25.502 6.86774 25.4543 6.83263 25.4067 6.79643C25.385 6.83592 25.3384 6.88749 25.3482 6.91382C25.3688 6.96648 25.4229 7.00488 25.463 7.04877C25.489 7.01146 25.515 6.97416 25.5594 6.91163H25.5604ZM27.1048 6.39049C27.0593 6.38061 27.0182 6.36086 26.9792 6.36635C26.9608 6.36964 26.95 6.42011 26.9359 6.44973C26.9781 6.46509 27.0193 6.48374 27.0626 6.49142C27.0691 6.49252 27.0853 6.43876 27.1048 6.39049ZM23.0803 5.80571C23.0219 5.80023 22.9796 5.79364 22.9374 5.79364C22.9255 5.79364 22.9146 5.81449 22.9038 5.82546C22.9406 5.84192 22.9775 5.86496 23.0164 5.87264C23.0294 5.87483 23.05 5.83973 23.0814 5.80571H23.0803ZM28.4229 7.93306C28.4272 7.91989 28.4358 7.90563 28.4348 7.89246C28.4348 7.88588 28.4153 7.88149 28.4044 7.87601C28.399 7.89027 28.3893 7.90344 28.3893 7.9177C28.3893 7.92319 28.4109 7.92867 28.4229 7.93306ZM28.7813 7.38998C28.7564 7.37791 28.7315 7.36474 28.7055 7.35706C28.7012 7.35596 28.6882 7.3801 28.6795 7.39327C28.7044 7.40424 28.7283 7.4185 28.7543 7.42509C28.7597 7.42618 28.7716 7.40314 28.7813 7.38998ZM30.004 6.26103C29.9965 6.24786 29.9867 6.22153 29.9824 6.22262C29.9542 6.22811 29.9272 6.24018 29.9001 6.25005C29.9098 6.26212 29.9196 6.28626 29.9272 6.28516C29.9531 6.28187 29.9781 6.2709 30.004 6.26212V6.26103Z" fill="#E8DFCE"/>
<path d="M43.4258 17.3808C43.3728 16.1487 43.4334 14.9605 43.3652 13.7657C43.2331 13.724 43.1226 13.6889 42.9916 13.6483C43.1399 13.3466 43.3836 13.1447 43.5872 12.9132C43.6295 12.8661 43.7042 12.8244 43.7659 12.8222C44.406 12.7937 45.0482 12.7772 45.6547 13.0295C46.3695 13.3269 46.7334 13.9292 46.9478 14.6401C47.0832 15.0878 47.0474 15.542 46.9294 15.9885C46.8038 16.468 46.5308 16.841 46.0998 17.0813C45.9189 17.1822 45.7294 17.2744 45.5323 17.3347C44.8565 17.5421 44.172 17.496 43.4258 17.3797V17.3808ZM44.2381 13.7756C44.1829 14.1234 44.2284 14.4372 44.2273 14.7487C44.2251 15.0812 44.2305 15.4147 44.2435 15.7471C44.2543 16.0565 44.2208 16.3703 44.2879 16.6984C45.1316 16.796 45.9211 16.7741 46.6294 16.3045C46.689 14.8387 45.7132 13.7975 44.2392 13.7767L44.2381 13.7756ZM43.8547 15.8459C43.8266 15.8656 43.7984 15.8865 43.7713 15.9062C43.8114 15.9786 43.8471 16.0543 43.8937 16.1224C43.9035 16.1366 43.9598 16.1344 43.9782 16.1202C43.9988 16.1037 44.0183 16.051 44.0085 16.0357C43.9641 15.9688 43.9078 15.9095 43.8558 15.847L43.8547 15.8459Z" fill="#E8DFCE"/>
<path d="M32.6532 11.514C32.612 11.3824 32.5406 11.2573 32.5406 11.1322C32.5384 10.7263 32.4203 10.3401 32.3716 9.94294C32.2568 9.01476 32.4496 8.18862 33.0431 7.44367C33.2889 7.13647 33.5423 6.87645 33.8846 6.69652C34.2073 6.52646 34.4044 6.25657 34.5171 5.90658C34.6449 5.51161 34.8051 5.12871 34.9243 4.73045C34.9784 4.54943 35.0596 4.3695 35.1647 4.2148C35.3488 3.94271 35.664 3.87469 35.9391 4.05681C36.2802 4.28282 36.5141 4.60867 36.6473 4.99815C36.6788 5.09141 36.6853 5.21758 36.6506 5.30535C36.304 6.16989 35.8318 6.9324 34.9199 7.28788C34.4553 7.4689 33.9788 7.61811 33.5077 7.78159C33.4752 7.79256 33.4384 7.79146 33.407 7.80353C33.1016 7.93079 32.9824 8.1195 33.0171 8.45413C33.0669 8.9226 33.1124 9.39218 33.1904 9.85627C33.2174 10.0175 33.2315 10.1668 33.1795 10.3171C33.0485 10.6956 32.9109 11.0719 32.7723 11.4482C32.7637 11.4723 32.716 11.4811 32.6543 11.514H32.6532ZM35.5048 5.33936C35.4636 5.37776 35.4235 5.4041 35.3986 5.4403C35.3261 5.54563 35.3846 5.6334 35.456 5.70361C35.4799 5.72665 35.5535 5.72885 35.5849 5.7091C35.6965 5.63998 35.6672 5.53904 35.6142 5.44798C35.5914 5.40848 35.547 5.38105 35.5037 5.33936H35.5048ZM36.134 5.53904C36.1221 5.5182 36.1113 5.49735 36.0993 5.47651C36.0918 5.48748 36.0755 5.50174 36.0788 5.50942C36.0853 5.53136 36.0993 5.55221 36.1113 5.57305C36.1188 5.56098 36.1264 5.55001 36.134 5.53794V5.53904Z" fill="#E8DFCE"/>
<path d="M38.0411 18.3625C38.5924 18.3767 39.1469 18.3625 39.6949 18.4162C40.114 18.4568 40.4714 18.3361 40.8386 18.1573C40.9674 17.8336 40.9252 17.51 40.8841 17.1633C40.7985 17.1786 40.7314 17.1852 40.6675 17.2028C40.5505 17.2346 40.4368 17.2807 40.3187 17.307C39.8519 17.4112 39.4144 17.3674 39.0798 16.9812C38.7386 16.5884 38.6823 16.1166 38.8707 15.6503C39.1231 15.0261 39.6018 14.596 40.1931 14.2998C40.5007 14.1451 40.7996 14.2153 41.0952 14.4226C41.3108 14.28 41.522 14.1407 41.7505 13.9904C41.77 14.065 41.8014 14.1176 41.7895 14.156C41.6043 14.7562 41.6747 15.3739 41.6573 15.985C41.6465 16.3876 41.6519 16.7914 41.653 17.194C41.6541 17.6899 41.4797 18.1222 41.1689 18.4952C40.687 19.0723 40.087 19.2862 39.357 19.0657C38.8794 18.9209 38.43 18.719 38.0032 18.4656C38.0162 18.4316 38.0282 18.3965 38.0411 18.3625ZM39.6288 14.9175C39.514 15.2312 39.461 15.5362 39.5043 15.8522C39.6007 16.5577 40.1595 16.9384 40.8949 16.787C40.9458 16.5017 40.922 16.2066 40.9187 15.9147C40.9133 15.3673 40.4552 14.8812 39.9202 14.8527C39.8238 14.8472 39.7252 14.8944 39.6278 14.9175H39.6288Z" fill="#E8DFCE"/>
<path d="M13.6917 14.2296C13.669 13.8972 13.7827 13.6295 13.7123 13.3486C13.6798 13.2181 13.7394 13.1105 13.838 13.025C13.9928 12.89 14.1488 12.754 14.2852 12.6344C14.4423 12.6761 14.4163 12.7726 14.4141 12.8549C14.4044 13.4134 14.4401 13.9784 14.3686 14.528C14.3123 14.9647 14.3925 15.386 14.3773 15.815C14.361 16.2494 14.4033 16.6861 14.4163 17.1228C14.4184 17.1897 14.399 17.2577 14.3914 17.3192C13.904 17.464 13.8564 17.4475 13.6419 17.0602C13.4946 17.1491 13.3517 17.2467 13.199 17.3257C12.7452 17.5605 12.3315 17.4201 11.9329 17.1721C11.8084 16.9154 11.5333 16.7508 11.516 16.4239C11.4976 16.0695 11.4748 15.7129 11.7066 15.42C11.9329 15.1359 12.1777 14.8649 12.4398 14.6147C12.6705 14.3942 12.9575 14.2735 13.2856 14.2724C13.4026 14.2724 13.5206 14.2483 13.6917 14.2285V14.2296ZM12.2817 14.9439C11.9048 15.973 12.4322 16.8101 13.4524 16.8518C13.5932 16.8573 13.6928 16.7859 13.6982 16.6455C13.7102 16.3317 13.6972 16.0169 13.7134 15.7031C13.7286 15.4167 13.5856 15.25 13.3614 15.1161C13.0322 14.9208 12.6813 14.8912 12.2817 14.9439Z" fill="#E8DFCE"/>
<path d="M33.5066 17.3237C33.3268 17.4411 33.1546 17.4038 32.9846 17.3807C32.8069 17.3566 32.8568 17.1558 32.742 17.0604C32.6272 17.1306 32.5167 17.2184 32.3922 17.271C32.2189 17.3434 32.0348 17.4323 31.8539 17.4367C31.1619 17.4531 30.8337 17.1679 30.6247 16.4142C30.5164 16.0225 30.6268 15.6451 30.8738 15.3258C31.0438 15.1064 31.2344 14.9001 31.4315 14.7048C31.803 14.3362 32.247 14.1936 32.794 14.3164C32.7994 14.0037 32.8124 13.6922 32.8069 13.3806C32.8048 13.2292 32.8329 13.1041 32.9521 13.0086C33.1102 12.8814 33.2391 12.7146 33.4188 12.6378C33.4589 12.6587 33.4773 12.6641 33.4882 12.6762C33.499 12.6883 33.5044 12.7069 33.5055 12.7234C33.5098 12.7925 33.5163 12.8627 33.5142 12.9329C33.4936 14.018 33.4665 15.1042 33.4557 16.1892C33.4513 16.5699 33.4882 16.9518 33.5055 17.3237H33.5066ZM31.3925 14.9506C31.1554 15.4969 31.2182 16.0411 31.5561 16.4251C31.8539 16.7641 32.2849 16.8804 32.795 16.7433C32.8329 16.3911 32.8015 16.0258 32.8156 15.6626C32.8243 15.4443 32.7171 15.3028 32.5589 15.1799C32.2037 14.9034 31.8062 14.8738 31.3925 14.9495V14.9506ZM31.1142 16.2397C31.073 16.2276 31.0536 16.2145 31.0427 16.22C30.9886 16.2485 30.9344 16.2781 30.89 16.3176C30.8846 16.3231 30.9301 16.3889 30.9517 16.4262C30.9994 16.39 31.0481 16.3549 31.0936 16.3154C31.1044 16.3066 31.1034 16.2847 31.1142 16.2408V16.2397ZM33.2196 14.9879C33.2055 14.9418 33.1936 14.8858 33.1871 14.8858C33.1448 14.8902 33.1048 14.9067 33.0636 14.9199C33.0766 14.9594 33.0885 14.9978 33.1015 15.0372C33.1416 15.0208 33.1806 15.0032 33.2196 14.9879Z" fill="#E8DFCE"/>
<path d="M50.5283 16.8099C50.4059 17.0128 50.2164 17.1653 50.0268 17.3156C49.9868 17.3475 49.9055 17.3266 49.8427 17.3299C49.8427 17.2652 49.8449 17.1993 49.846 17.1346C49.846 17.1171 49.846 17.1006 49.846 17.0523C49.6814 17.0238 49.4832 17.0282 49.4236 16.7671C49.2362 16.9141 49.0857 17.004 48.9709 17.1269C48.6655 17.4561 48.2637 17.4341 47.8792 17.4385C47.615 17.4418 47.4135 17.2048 47.368 16.9261C47.2857 16.4281 47.5749 15.6535 48.2572 15.5141C48.4088 15.4834 48.5637 15.4648 48.7164 15.4384C48.9005 15.4077 49.0944 15.422 49.2969 15.3046C49.2774 15.1554 49.2579 15.0073 49.2406 14.8844C49.037 14.7615 48.8691 14.8262 48.7012 14.8591C48.5149 14.8954 48.3298 14.9403 48.1446 14.9776C47.9529 15.0171 47.7677 15.0007 47.5792 14.8833C47.6821 14.6309 47.8879 14.473 48.0904 14.3205C48.1521 14.2744 48.255 14.2601 48.3363 14.2689C48.7229 14.3106 49.0922 14.2162 49.4658 14.1471C49.8406 14.078 50.029 14.2064 50.0712 14.5838C50.0929 14.7736 50.0864 14.9689 50.0788 15.1609C50.0572 15.7193 50.1546 16.2415 50.499 16.6958C50.5174 16.7199 50.5164 16.7594 50.5294 16.8088L50.5283 16.8099ZM48.4814 15.9146C48.3048 15.9398 48.1316 15.953 47.9637 15.9892C47.7817 16.0287 47.7222 16.1933 47.8207 16.3513C48.0341 16.6947 48.5669 16.9174 48.9536 16.8208C49.129 16.7769 49.2666 16.676 49.3629 16.5224C49.5027 16.2986 49.403 16.0517 49.1442 16.0035C48.9243 15.9618 48.7001 15.9431 48.4814 15.9146Z" fill="#E8DFCE"/>
<path d="M6.61755 15.3646C6.64029 15.2615 6.65654 15.2264 6.65437 15.1946C6.62621 14.826 6.55257 14.7557 6.20275 14.8347C5.86485 14.9115 5.5302 14.9905 5.18256 14.9752C5.10458 14.9719 5.02769 14.9346 4.9378 14.9104C5.04068 14.6153 5.28869 14.499 5.46522 14.318C5.50638 14.2763 5.59627 14.2609 5.65908 14.2697C6.06305 14.3257 6.4486 14.2291 6.8374 14.1501C7.19155 14.0777 7.27277 14.1315 7.39624 14.499C7.4179 14.5637 7.45364 14.6296 7.45472 14.6954C7.46447 15.0969 7.4688 15.4996 7.46663 15.9011C7.46663 15.9637 7.42115 16.0262 7.39624 16.0877C7.6854 16.2402 7.72222 16.5627 7.93233 16.7668C7.74063 17.0345 7.53919 17.2177 7.30526 17.3746C7.0161 17.3 6.98252 16.973 6.75834 16.8205C6.57639 16.8897 6.43993 17.0257 6.30023 17.1508C6.03814 17.3856 5.73056 17.4624 5.39049 17.4569C4.89989 17.4492 4.69087 17.1047 4.72552 16.6494C4.77534 15.979 5.28111 15.5029 5.89518 15.4678C6.13344 15.4546 6.36954 15.4009 6.61538 15.3636L6.61755 15.3646ZM6.70094 16.0668C6.31106 15.9363 5.90493 15.8913 5.48797 15.956C5.35151 15.9779 5.20855 15.99 5.13382 16.137C5.2497 16.4662 5.34284 16.5825 5.6006 16.7163C5.84103 16.8414 6.09987 16.8897 6.35329 16.803C6.49084 16.7558 6.62296 16.645 6.7161 16.5276C6.81899 16.3971 6.78542 16.2303 6.70094 16.0657V16.0668ZM7.28252 16.6121C7.25653 16.5715 7.24136 16.5474 7.2262 16.5243C7.19588 16.555 7.16122 16.5825 7.13956 16.6176C7.13415 16.6253 7.17963 16.6823 7.18505 16.679C7.22079 16.6615 7.25111 16.6351 7.2836 16.6121H7.28252ZM6.42694 14.4727C6.41611 14.4628 6.40528 14.4529 6.39553 14.442C6.3847 14.4661 6.36954 14.4891 6.36412 14.5144C6.36196 14.5231 6.38145 14.5374 6.39012 14.5484C6.40203 14.5231 6.41394 14.499 6.42694 14.4716V14.4727Z" fill="#E8DFCE"/>
<path d="M52.7809 16.7269C52.8827 16.6019 52.9391 16.4625 52.9304 16.2958C52.9239 16.1729 52.9282 16.05 52.9304 15.9271C52.9369 15.4411 52.873 14.9463 53.1633 14.4186C53.2521 14.3462 53.3972 14.2024 53.6257 14.1147C53.6463 14.2013 53.6744 14.2639 53.6734 14.3264C53.6647 14.6928 53.6419 15.0593 53.6376 15.4268C53.6354 15.5815 53.6733 15.7362 53.6755 15.8909C53.6809 16.2947 53.6874 16.6984 53.6734 17.1011C53.6441 17.9294 53.2131 18.5164 52.5416 18.9344C52.1225 19.1955 51.647 19.1922 51.1868 19.0935C50.3907 18.9234 49.6229 18.6557 48.8713 18.343C48.8507 18.3342 48.8464 18.286 48.8204 18.2223C49.0835 18.1938 49.3337 18.2311 49.585 18.2399C50.3117 18.264 51.0373 18.2936 51.764 18.3068C52.2113 18.3156 52.3661 18.2651 52.8838 18.0237C52.9315 17.6595 52.9261 17.2744 52.9402 16.8904C52.9445 16.7829 52.8546 16.75 52.7744 16.7149L52.7842 16.7258L52.7809 16.7269ZM53.3409 16.4395C53.29 16.479 53.2445 16.4965 53.2423 16.5185C53.2336 16.5986 53.2401 16.6809 53.2423 16.762C53.2423 16.762 53.2683 16.7664 53.2813 16.7642C53.3723 16.7434 53.4145 16.6403 53.3842 16.5097C53.3809 16.4943 53.3669 16.4812 53.3409 16.4395ZM50.968 18.7501C50.994 18.7643 51.02 18.7786 51.046 18.7928L51.0622 18.7204C51.034 18.716 51.0059 18.7106 50.9777 18.7106C50.9745 18.7106 50.9712 18.7369 50.968 18.7501Z" fill="#E8DFCE"/>
<path d="M0.930555 16.5599C1.08218 16.4326 1.21214 16.3185 1.3486 16.2121C1.52729 16.0728 1.68217 16.0772 1.86953 16.2187C1.91068 16.2494 1.94859 16.2867 1.98433 16.3251C2.41428 16.7892 2.95904 16.7925 3.52004 16.708C3.68791 16.6828 3.75505 16.5796 3.74639 16.4107C3.72689 16.0684 3.58177 15.8029 3.26337 15.6646C3.12257 15.6032 2.96987 15.5582 2.81825 15.533C2.56266 15.4913 2.30165 15.4803 2.04606 15.4408C1.74606 15.3947 1.47964 15.2883 1.35834 14.9712C1.393 14.9416 1.41466 14.9076 1.44174 14.9021C1.52296 14.8846 1.56845 14.8363 1.54679 14.7606C1.53704 14.7244 1.47639 14.6959 1.43307 14.6794C1.38759 14.6619 1.33452 14.664 1.27279 14.6553C1.16882 14.1286 1.50347 13.8609 1.84787 13.5592C1.89444 13.7655 1.92259 13.9366 1.97133 14.1023C2.0688 14.4304 2.27999 14.6498 2.61572 14.7178C2.8529 14.7661 3.09442 14.7913 3.33376 14.8264C3.48755 14.8495 3.64242 14.8648 3.79404 14.8966C4.36046 15.0129 4.70486 15.8347 4.19259 16.3021C3.96191 16.5127 3.76805 16.7662 3.53195 16.9702C2.65038 17.7327 1.68433 17.6033 0.931638 16.5588L0.930555 16.5599Z" fill="#E8DFCE"/>
<path d="M17.4639 13.2849C17.7227 12.9426 18.0205 12.7363 18.4126 12.7626C18.7483 12.7857 19.1133 12.7319 19.3743 13.0556C19.6721 12.8285 20.01 12.8822 20.3891 12.8197C20.1931 13.1466 20.0079 13.4001 19.6526 13.4418C19.2584 13.4889 18.862 13.5208 18.4494 13.5614C18.3281 13.7643 18.4093 13.9958 18.3888 14.2152C18.3693 14.4237 18.3335 14.6333 18.4538 14.8527C18.6855 14.9701 18.9314 15.0414 19.2227 14.9646C19.4003 14.9174 19.5996 14.9558 19.7848 14.9558C19.6158 15.3771 19.3104 15.5812 18.8945 15.545C18.8111 15.5384 18.7278 15.5263 18.6454 15.534C18.5783 15.5395 18.5133 15.5713 18.4169 15.5998C18.3465 16.1638 18.4332 16.7398 18.366 17.3355C18.1581 17.3958 17.9642 17.4101 17.7574 17.319C17.6469 17.0645 17.6588 16.81 17.7476 16.5565C17.7899 16.4369 17.805 16.3305 17.7487 16.2043C17.7076 16.1144 17.6924 15.9981 17.7065 15.8993C17.7606 15.5164 17.6686 15.139 17.6881 14.7583C17.6956 14.6036 17.7227 14.45 17.7433 14.2964C17.7498 14.246 17.7834 14.1856 17.766 14.1483C17.6675 13.9355 17.674 13.7062 17.6372 13.4835C17.6263 13.4154 17.5332 13.3617 17.4628 13.286L17.4639 13.2849Z" fill="#E8DFCE"/>
<path d="M27.9659 14.1549C27.9886 14.4084 28.007 14.607 28.0298 14.8659C28.1911 14.7452 28.3114 14.6563 28.4294 14.5664C28.6547 14.393 28.8994 14.28 29.1875 14.2625C29.4518 14.246 29.6684 14.3338 29.8059 14.5598C29.8947 14.7057 29.977 14.8681 30.0149 15.0337C30.185 15.7919 30.1352 16.5566 30.0886 17.341C29.846 17.3586 29.6294 17.4749 29.416 17.2971C29.416 17.0031 29.403 16.7058 29.4193 16.4118C29.4399 16.042 29.402 15.6822 29.2915 15.3322C29.2319 15.1435 29.1215 14.9921 28.9341 14.9043C28.7879 14.8352 28.6428 14.799 28.4846 14.8527C28.3547 14.8966 28.2226 14.935 28.1023 14.9723C27.9561 15.1281 27.9875 15.3069 27.9886 15.4792C27.9919 15.9872 27.9962 16.494 27.994 17.002C27.994 17.1194 27.9691 17.2368 27.954 17.375C27.7958 17.3827 27.6605 17.3959 27.5251 17.3926C27.459 17.3915 27.394 17.3597 27.3226 17.3388C27.3009 17.2653 27.2652 17.1995 27.2652 17.1337C27.2598 16.4348 27.263 15.7359 27.2565 15.037C27.2543 14.8286 27.3172 14.6607 27.4818 14.5346C27.628 14.4215 27.772 14.3074 27.9659 14.156V14.1549Z" fill="#E8DFCE"/>
<path d="M25.8052 16.8242C25.6449 16.9438 25.5301 17.0415 25.4034 17.1216C25.2735 17.2038 25.1294 17.2642 24.9973 17.3443C24.8403 17.4386 24.6724 17.4606 24.4969 17.4441C24.276 17.4233 24.0919 17.3169 23.9944 17.1172C23.9035 16.9318 23.8201 16.7321 23.7865 16.5291C23.7009 16.0102 23.6793 15.4846 23.6977 14.9569C23.7053 14.7265 23.7789 14.551 23.9717 14.4259C24.0995 14.3425 24.224 14.2537 24.3377 14.1758C24.4796 14.2679 24.4298 14.3809 24.4298 14.4775C24.4298 14.8801 24.4125 15.2839 24.4222 15.6865C24.4276 15.895 24.459 16.1067 24.5099 16.3097C24.6031 16.6794 24.8619 16.8681 25.2377 16.8352C25.4218 16.8199 25.6027 16.7529 25.7825 16.7101C25.8789 16.3163 25.8226 15.9465 25.8496 15.5823C25.8605 15.4429 25.8431 15.3025 25.842 15.1621C25.841 14.8626 25.8561 14.8691 25.9785 14.5817C26.0478 14.4182 26.1897 14.3623 26.3056 14.2657C26.3576 14.2218 26.4193 14.1922 26.4897 14.1472C26.5222 14.2021 26.5677 14.2427 26.5677 14.2844C26.5709 15.2652 26.5688 16.2471 26.5666 17.228C26.5666 17.2598 26.5449 17.2916 26.5233 17.3487C26.3218 17.4288 26.1096 17.4299 25.8735 17.3256C25.854 17.1753 25.8334 17.0272 25.8063 16.8231L25.8052 16.8242Z" fill="#E8DFCE"/>
<path d="M38.2025 17.3534C37.9447 17.4237 37.7465 17.4193 37.5646 17.3348C37.4693 17.145 37.5158 16.9683 37.5137 16.7961C37.5104 16.4637 37.5202 16.1301 37.505 15.7977C37.4985 15.643 37.4628 15.4839 37.4119 15.338C37.2743 14.9441 37.0003 14.7839 36.605 14.8596C36.4707 14.8849 36.3408 14.9375 36.1816 14.9858C36.1631 15.0999 36.1285 15.2162 36.1274 15.3325C36.1209 15.8756 36.1242 16.4198 36.122 16.9629C36.122 17.0824 36.1122 17.2031 36.1057 17.3326C35.8718 17.4335 35.6606 17.4324 35.4115 17.3085C35.405 17.1494 35.3931 16.976 35.3931 16.8038C35.3931 16.1905 35.3985 15.5772 35.3974 14.9639C35.3974 14.8147 35.4278 14.6874 35.5447 14.5898C35.7126 14.4482 35.8469 14.2617 36.1047 14.1498C36.1187 14.3901 36.1317 14.5909 36.1436 14.7982C36.3418 14.8081 36.4252 14.6523 36.5433 14.5667C36.788 14.389 37.048 14.2672 37.3555 14.2606C37.6436 14.2551 37.8765 14.3681 37.9848 14.6347C38.0887 14.8904 38.1765 15.1647 38.2079 15.4378C38.2793 16.0643 38.2501 16.6941 38.2003 17.3523L38.2025 17.3534ZM37.8754 16.5152L37.8537 16.5438L37.884 16.5536L37.8754 16.5141V16.5152Z" fill="#E8DFCE"/>
<path d="M39.5812 22.2728C39.656 21.9513 39.7924 21.7593 39.9484 21.5937C40.4184 21.5443 46.14 21.5454 46.6446 21.5948C46.6674 21.8449 46.5049 22.0117 46.3706 22.1817C46.3262 22.2377 46.2179 22.2673 46.14 22.2651C45.7642 22.2552 45.3818 22.3485 45.0136 22.2004C44.9692 22.1828 44.9053 22.1784 44.8631 22.196C44.5295 22.3375 44.1808 22.2739 43.8396 22.275C42.5628 22.2805 41.2848 22.2739 40.0079 22.2717C39.8877 22.2717 39.7675 22.2717 39.5823 22.2717L39.5812 22.2728ZM42.4014 22.0007C42.331 21.9656 42.2877 21.925 42.2541 21.9316C42.2162 21.9393 42.188 21.9908 42.1555 22.0237C42.1935 22.049 42.2314 22.094 42.2703 22.094C42.305 22.094 42.3407 22.0468 42.4025 22.0007H42.4014Z" fill="#E8DFCE"/>
<path d="M11.0211 17.3709C10.7601 17.3862 10.5597 17.4444 10.3399 17.3226C10.3139 17.1822 10.2857 17.0319 10.251 16.8454C10.1027 16.9529 9.96621 17.0516 9.83084 17.1504C9.61748 17.3062 9.38788 17.4235 9.12146 17.4444C8.86154 17.4652 8.6601 17.3808 8.49873 17.1548C8.29729 16.8706 8.1944 16.5458 8.21606 16.22C8.23772 15.9051 8.18249 15.6012 8.18032 15.2918C8.17383 14.4701 8.19657 14.6456 8.72183 14.2232C8.75757 14.1947 8.81172 14.1892 8.84854 14.176C8.87345 14.1958 8.8962 14.2057 8.8962 14.2155C8.89403 14.4942 8.89836 14.774 8.8832 15.0515C8.86262 15.4004 8.86046 15.7482 8.92869 16.0927C8.95576 16.2288 8.99583 16.3659 9.05757 16.4888C9.20702 16.7916 9.39222 16.8816 9.72903 16.8399C9.81459 16.8289 9.90123 16.8201 9.98462 16.7971C10.0669 16.774 10.146 16.7356 10.2521 16.6951C10.2651 16.5864 10.2825 16.469 10.2933 16.3517C10.3279 15.972 10.2251 15.5837 10.3788 15.2106C10.3983 15.1635 10.3431 15.0845 10.3236 15.0197C10.2554 14.7948 10.2976 14.6083 10.4947 14.4668C10.6453 14.3593 10.7796 14.2254 10.9723 14.1541C10.9951 14.2353 11.02 14.2825 11.02 14.3296C11.0222 15.3236 11.0222 16.3176 11.0222 17.3709H11.0211Z" fill="#E8DFCE"/>
<path d="M5.56372 22.2497C5.63411 21.9392 5.7684 21.7472 5.97526 21.5574C6.51893 21.6101 7.08535 21.463 7.64418 21.6397C7.67451 21.6496 7.71783 21.6517 7.7449 21.6375C8.00483 21.4905 8.28641 21.564 8.55825 21.5607C9.38675 21.5508 10.2153 21.5563 11.0438 21.5574C11.2138 21.5574 11.3817 21.5376 11.5225 21.689C11.6362 21.8108 11.7856 21.7264 11.9113 21.6803C12.1398 21.598 12.3629 21.5025 12.6369 21.6013C12.6304 21.8339 12.4842 22.0061 12.352 22.1762C12.3076 22.2332 12.2015 22.2596 12.1214 22.265C11.8972 22.2782 11.6719 22.2892 11.4477 22.2727C10.7773 22.2255 10.108 22.2958 9.43765 22.2782C8.76402 22.2607 8.09039 22.2749 7.41675 22.2694C7.24563 22.2683 7.07452 22.2387 6.90232 22.231C6.78427 22.2255 6.66406 22.2255 6.54709 22.2431C6.23735 22.2903 5.92977 22.2749 5.56372 22.2486V22.2497Z" fill="#E8DFCE"/>
<path d="M31.6925 1.53642C31.7229 1.68563 31.7532 1.76462 31.7543 1.84362C31.7651 3.01755 31.7759 4.19258 31.7803 5.36652C31.7824 5.87339 31.7705 6.38027 31.7651 6.88605C31.7651 6.95517 31.7738 7.02648 31.7575 7.09231C31.7131 7.27883 31.3232 7.82958 31.086 8.03585C31.0741 7.94807 31.059 7.88554 31.059 7.8241C31.0568 6.63371 31.0156 5.44441 30.9637 4.25512C30.9539 4.02911 30.9799 3.80639 31.0124 3.58038C31.0438 3.36644 30.9626 3.13604 30.9344 2.91223C30.8976 2.6149 30.9929 2.36476 31.1889 2.14204C31.3481 1.9632 31.4759 1.75585 31.6914 1.53532L31.6925 1.53642ZM31.242 4.56341C31.1662 4.63144 31.0817 4.67203 31.06 4.73457C31.0221 4.84209 31.151 4.95509 31.2767 4.94632C31.373 4.93864 31.464 4.82453 31.425 4.72798C31.4001 4.66654 31.3178 4.62924 31.242 4.56451V4.56341Z" fill="#E8DFCE"/>
<path d="M25.2984 5.1509C25.4067 4.93147 25.4706 4.79213 25.5442 4.65828C25.6612 4.44434 25.7684 4.22162 25.9114 4.02633C25.9872 3.9221 26.128 3.86396 26.2417 3.79045C26.2688 3.7729 26.3077 3.77289 26.3424 3.76851C27.0085 3.695 27.6734 3.62149 28.3871 3.54359C28.3611 3.67086 28.3601 3.75644 28.3265 3.82556C28.2204 4.04499 28.0958 4.25673 27.9897 4.47616C27.8565 4.75373 27.6453 4.90185 27.342 4.92928C27.1016 4.95122 26.8612 4.98413 26.6207 5.01266C26.2948 5.05215 25.9698 5.09384 25.6439 5.13224C25.5605 5.14212 25.476 5.14212 25.2973 5.1509H25.2984Z" fill="#E8DFCE"/>
<path d="M21.497 21.072C20.6219 20.8339 20.6978 20.8076 20.14 21.084C20.1508 20.7955 20.2646 20.519 20.5256 20.3687C21.0627 20.0593 21.6898 20.124 21.9118 20.8163C22.018 21.1488 21.9822 21.4823 21.7797 21.7719C21.64 21.9716 21.4743 22.1515 21.3107 22.3326C21.1732 22.4862 21.0216 22.6277 20.8407 22.8109C21.0671 22.9141 21.2349 23.015 21.4559 22.9426C21.6237 22.8877 21.7959 22.8833 21.9822 22.9623C21.9508 23.1741 21.8338 23.3397 21.6898 23.523C21.5653 23.5317 21.431 23.5493 21.2956 23.5493C20.8494 23.5493 20.4021 23.546 19.9559 23.5394C19.9277 23.5394 19.8996 23.5098 19.8498 23.4813C19.9397 23.1905 20.1205 22.9722 20.3588 22.7835C20.6306 22.5674 20.8905 22.3348 21.1483 22.1022C21.3508 21.919 21.4689 21.6973 21.4396 21.4055C21.4299 21.31 21.4721 21.2091 21.497 21.072Z" fill="#E8DFCE"/>
<path d="M38.3379 23.234C38.1679 23.0398 38.1354 22.8006 38.117 22.5559C38.104 22.3837 38.091 22.2125 38.078 22.0381C37.8505 22.0644 37.648 22.1094 37.4455 22.1072C37.0253 22.1017 36.7643 21.8219 36.7968 21.3985C36.8336 20.9058 37.0459 20.4911 37.4412 20.1927C37.7357 19.97 38.0422 20.0281 38.2437 20.3331C38.3704 20.524 38.4527 20.7347 38.4603 20.9684C38.4679 21.2108 38.4657 21.4533 38.4798 21.6947C38.5047 22.1182 38.5935 22.523 38.8502 22.8522C38.8274 23.054 38.7744 23.2153 38.6444 23.3437L38.6563 23.359C38.6455 23.3283 38.639 23.2965 38.6249 23.268C38.5253 23.0804 38.483 23.0782 38.326 23.2482L38.3401 23.2329L38.3379 23.234ZM38.0791 21.4204C38.0628 21.3326 38.0552 21.2481 38.0303 21.1692C38.0043 21.088 37.9686 21.0079 37.9264 20.9333C37.791 20.6985 37.6307 20.67 37.4228 20.8378C37.2321 20.9903 37.2365 21.213 37.4368 21.3579C37.6307 21.4983 37.8386 21.5356 38.0801 21.4193L38.0791 21.4204Z" fill="#E8DFCE"/>
<path d="M12.0283 10.0607C12.1008 9.65142 12.3413 9.36946 12.5015 9.05129C12.5546 8.94597 12.638 8.83845 12.7355 8.7792C12.9445 8.65194 13.1773 8.58501 13.4286 8.64316C13.4914 8.65742 13.5705 8.69143 13.6192 8.66729C14.0405 8.46871 14.5051 8.55648 14.9405 8.45335C14.9676 8.44677 15.0022 8.47639 15.0423 8.49285C15.0423 8.54003 15.0596 8.59818 15.039 8.63877C14.908 8.90537 14.7683 9.16649 14.634 9.4309C14.5224 9.64923 14.3481 9.7754 14.1066 9.80393C13.6441 9.85878 13.1806 9.91254 12.7181 9.96959C12.4994 9.99593 12.2817 10.0266 12.0283 10.0607ZM14.204 9.07323C14.1867 9.04471 14.1694 9.01618 14.1521 8.98656C14.0448 9.0107 13.9376 9.03593 13.7892 9.06994C13.8575 9.18734 13.903 9.26523 13.9734 9.38372C14.0697 9.25426 14.138 9.1643 14.2051 9.07323H14.204ZM12.8687 9.74907C12.7441 9.69531 12.7008 9.6591 12.6737 9.66898C12.6402 9.68105 12.6185 9.72932 12.5914 9.76224C12.6239 9.78637 12.6564 9.83026 12.6889 9.83026C12.7311 9.83026 12.7734 9.79405 12.8687 9.74907Z" fill="#E8DFCE"/>
<path d="M34.6372 23.5049C34.5625 21.9986 34.5571 21.9766 33.9928 20.6963C34.061 20.5514 34.1412 20.3814 34.2105 20.2322C34.3567 20.1894 34.3859 20.2859 34.4336 20.3518C34.5484 20.5109 34.6903 20.6348 34.8755 20.7007C35.1289 20.7906 35.313 20.7007 35.4018 20.4406C35.4278 20.3627 35.4343 20.2783 35.469 20.0983C35.5318 20.2816 35.5469 20.3902 35.6022 20.4703C35.6596 20.5525 35.7516 20.6129 35.835 20.6743C35.9368 20.7489 36.0841 20.6963 36.1285 20.569C36.1513 20.5043 36.1534 20.433 36.1675 20.3649C36.1794 20.3046 36.1946 20.2443 36.2195 20.1301C36.305 20.2069 36.3765 20.241 36.3939 20.2936C36.5076 20.6315 36.4415 20.9497 36.2455 21.2372C36.109 21.4357 35.9412 21.4829 35.6996 21.4072C35.6184 21.382 35.5437 21.3348 35.4679 21.2986C35.3206 21.3578 35.1776 21.4149 35.0043 21.4851C35.0119 21.6266 35.0293 21.778 35.0271 21.9294C35.0206 22.2432 35.0271 22.5592 34.9827 22.8686C34.9524 23.0847 34.8852 23.3107 34.6372 23.506V23.5049Z" fill="#E8DFCE"/>
<path d="M50.7124 8.5582C52.364 8.12264 52.6206 8.07436 53.0658 8.12483C53.0289 8.24113 53.0094 8.35962 52.9564 8.45946C52.808 8.73484 52.6889 9.04752 52.4755 9.25927C52.2697 9.46334 51.9264 9.42494 51.6416 9.48199C51.1705 9.57634 50.6994 9.6674 50.1839 9.76834C50.1925 9.66192 50.1806 9.5928 50.2066 9.54123C50.3701 9.21319 50.5413 8.89063 50.7145 8.5582H50.7124Z" fill="#E8DFCE"/>
<path d="M27.681 23.6596C27.6399 23.1911 27.9745 23.1659 28.2962 23.1242C28.3893 22.9981 28.476 22.8675 28.5767 22.7501C28.6774 22.6316 28.7814 22.5109 28.9038 22.4177C29.1529 22.2279 29.4204 22.3573 29.455 22.6788C29.4637 22.76 29.4323 22.8466 29.4106 22.9805C29.5189 22.9465 29.5936 22.9234 29.6749 22.8982C29.7041 22.523 29.6207 22.1971 29.4366 21.8636C29.3186 21.9053 29.2124 21.9185 29.1377 21.9755C29.0002 22.0797 28.8864 22.2136 28.7543 22.3255C28.711 22.3617 28.6428 22.3694 28.5821 22.3913C28.568 22.3255 28.5464 22.286 28.5572 22.263C28.7521 21.8768 29.0532 21.5915 29.4236 21.3897C29.7063 21.2361 30.0204 21.4017 30.1059 21.7254C30.3377 22.5987 29.8319 23.4226 28.9438 23.5422C28.5691 23.5927 28.1955 23.6574 27.8197 23.7002C27.7742 23.7057 27.7254 23.6739 27.6821 23.6607L27.681 23.6596ZM28.7456 23.0013C28.8063 23.0068 28.8485 23.0123 28.8919 23.0123C28.9038 23.0123 28.9146 22.9937 28.9265 22.9827C28.8919 22.9673 28.8583 22.9432 28.8225 22.9388C28.8052 22.9366 28.7836 22.9695 28.7456 23.0013Z" fill="#E8DFCE"/>
<path d="M22.3299 16.6099C22.1577 16.9928 21.8057 17.1508 21.4527 17.2781C21.1808 17.3757 20.8982 17.2912 20.6642 17.1245C20.3913 16.9303 20.1736 16.6834 20.1141 16.3302C20.1021 16.261 20.0848 16.1941 20.0697 16.1261C19.9624 15.6269 20.0826 15.1891 20.4249 14.8183C20.5289 14.7053 20.6588 14.6164 20.7769 14.5166L20.7671 14.5012C20.7509 14.6384 20.7368 14.7755 20.7195 14.9127C20.6393 15.5216 20.9177 15.9878 21.3043 16.4091C21.3487 16.4574 21.4245 16.4717 21.483 16.5079C21.7516 16.6757 22.0505 16.6066 22.3386 16.6187L22.3288 16.611L22.3299 16.6099Z" fill="#E8DFCE"/>
<path d="M20.7778 14.5163C20.9316 14.3561 21.067 14.1696 21.2435 14.039C21.7775 13.6452 22.385 13.7439 22.7912 14.2683C23.2244 14.8279 23.2179 15.7187 22.7598 16.2552C22.6406 16.3946 22.4738 16.4933 22.3287 16.6096L22.3385 16.6173C22.3461 16.5493 22.3439 16.478 22.3634 16.4132C22.5356 15.8427 22.3515 15.3611 22.0201 14.908C21.8208 14.6359 21.5511 14.513 21.2295 14.4932C21.0768 14.4834 20.9219 14.4976 20.7681 14.4998L20.7778 14.5152V14.5163ZM22.7067 15.6013C22.6969 15.6101 22.6872 15.62 22.6785 15.6299C22.6937 15.6332 22.7078 15.6365 22.7229 15.6397C22.7175 15.6266 22.7121 15.6134 22.7067 15.6013ZM22.1998 14.3671C22.1793 14.3528 22.1598 14.3364 22.1381 14.3276C22.1327 14.3254 22.1175 14.3462 22.1078 14.3561C22.1305 14.3726 22.1522 14.389 22.176 14.4022C22.176 14.4022 22.1923 14.3802 22.2009 14.3671H22.1998Z" fill="#E8DFCE"/>
<path d="M52.7712 16.7154C52.4961 17.1345 52.1106 17.3462 51.6146 17.3473C51.5485 17.3473 51.4348 17.3352 51.4229 17.3012C51.3471 17.0752 51.059 17.0566 50.9918 16.8305C50.8283 16.2776 50.7016 15.7246 50.89 15.1453C50.9312 15.0203 50.9073 14.8744 50.9138 14.7186C51.085 14.5825 51.2377 14.3927 51.5149 14.3049C51.5214 14.4618 51.5322 14.577 51.5312 14.6933C51.5301 14.9731 51.5192 15.2518 51.5214 15.5315C51.5225 15.6884 51.5279 15.8475 51.5582 16C51.6752 16.5936 51.934 16.8393 52.5254 16.7285C52.6077 16.7132 52.6954 16.7263 52.7799 16.7263L52.7701 16.7154H52.7712Z" fill="#E8DFCE"/>
<path d="M19.1414 21.0265H17.5765C17.6426 20.7566 17.7227 20.535 17.8776 20.3144C18.3324 20.3057 18.7895 20.2365 19.2465 20.3726C19.3353 20.3989 19.4436 20.366 19.5422 20.3517C19.6223 20.3397 19.7003 20.3155 19.8378 20.2826C19.8107 20.3945 19.8064 20.4582 19.7804 20.5097C19.3115 21.4445 18.8393 22.3792 18.3671 23.3129C18.3357 23.3743 18.2989 23.4358 18.2545 23.4873C18.1862 23.5663 18.1039 23.5334 17.9837 23.5312C18.1342 23.0606 18.3801 22.682 18.5631 22.275C18.7396 21.8822 18.9692 21.5136 19.1436 21.0254L19.1414 21.0265Z" fill="#E8DFCE"/>
<path d="M22.5464 20.9901C22.5399 20.7158 22.7425 20.5523 22.854 20.3175C23.493 20.2627 24.1276 20.3219 24.7991 20.2912C24.7709 20.4075 24.7666 20.4931 24.7319 20.5622C24.2727 21.4805 23.8092 22.3966 23.3446 23.3127C23.3132 23.3741 23.2796 23.4378 23.232 23.4871C23.1659 23.5563 23.0836 23.5661 22.9785 23.486C23.0879 23.0516 23.3836 22.7027 23.5634 22.2989C23.7399 21.9051 23.9132 21.509 24.0821 21.1272C24.015 21.0076 23.9208 21.0427 23.8428 21.0329C23.7919 21.0263 23.7388 21.0263 23.6879 21.0318C23.5081 21.0504 23.3565 20.9374 23.1941 20.9198C23.0359 20.9023 22.8681 20.9923 22.7024 21.0252C22.6569 21.0339 22.6038 21.0054 22.5453 20.9923L22.5464 20.9901Z" fill="#E8DFCE"/>
<path d="M15.7581 14.2852C15.7971 15.2167 15.7527 17.0116 15.679 17.3857C15.5891 17.3967 15.4895 17.4252 15.392 17.4165C15.1083 17.3901 15.0303 17.2256 15.1754 16.9447C15.2101 16.8778 15.2556 16.8229 15.2014 16.7669C15.0747 16.6375 15.092 16.4784 15.0942 16.3226C15.1007 15.8859 15.1061 15.4493 15.1256 15.0126C15.1299 14.9139 15.1722 14.8097 15.2231 14.723C15.313 14.5694 15.4971 14.429 15.757 14.2863L15.7581 14.2852Z" fill="#E8DFCE"/>
<path d="M34.7542 17.3725C34.5549 17.4383 34.3903 17.4482 34.2365 17.3385C34.1109 17.1574 34.1954 16.9621 34.1921 16.7756C34.1824 16.215 34.1964 15.6544 34.1715 15.0948C34.1585 14.7832 34.2636 14.5528 34.4932 14.3641C34.5712 14.3005 34.6459 14.2336 34.7087 14.1798C34.7553 14.193 34.7759 14.193 34.7878 14.2028C34.7997 14.2127 34.8094 14.2314 34.8105 14.2478C34.8463 14.7635 34.8105 16.9029 34.7553 17.3736L34.7542 17.3725Z" fill="#E8DFCE"/>
<path d="M16.8996 20.2089C16.9094 20.3658 16.9224 20.481 16.9224 20.5973C16.9245 21.3115 16.9235 22.0258 16.9224 22.74C16.9224 22.9441 16.9624 23.1613 16.7047 23.2469C16.7957 23.3544 16.8455 23.4125 16.9354 23.519C16.7621 23.5299 16.6484 23.5486 16.5368 23.5398C16.4242 23.5321 16.3538 23.4531 16.33 23.3401C16.3202 23.2897 16.318 23.2359 16.318 23.1843C16.3224 22.5919 16.3289 22.0005 16.3332 21.4092C16.3332 21.3411 16.3549 21.2578 16.3235 21.2084C16.1426 20.9209 16.2975 20.7366 16.4924 20.5523C16.5921 20.458 16.6765 20.3482 16.7697 20.2473C16.7794 20.2363 16.8022 20.2374 16.8975 20.21L16.8996 20.2089Z" fill="#E8DFCE"/>
<path d="M23.1974 1.36481C23.4724 1.32202 23.6555 1.2924 23.8396 1.26388C23.9544 1.34068 23.9187 1.4471 23.8786 1.54035C23.7822 1.76088 23.5883 1.88485 23.3836 1.97811C23.0089 2.14817 22.6255 2.30067 22.2627 2.45427C22.1306 2.37966 22.1598 2.29957 22.2097 2.22387C22.2768 2.12293 22.3504 2.02638 22.4241 1.92545C22.3808 1.79708 22.3385 1.66762 22.2963 1.54255C22.3721 1.47891 22.4328 1.42845 22.4945 1.37688C22.4403 1.30008 22.3927 1.23206 22.3266 1.1377C22.4338 0.987397 22.5335 0.826117 22.6559 0.684587C22.7208 0.609982 22.8194 0.554028 22.9136 0.520017C23.049 0.470646 23.1855 0.48052 23.2916 0.602302C23.3782 0.702141 23.4118 0.814049 23.3674 0.94022C23.3273 1.05322 23.2786 1.16404 23.1984 1.36371L23.1974 1.36481Z" fill="#E8DFCE"/>
<path d="M31.3719 23.5136C31.3069 23.1121 31.2441 22.7522 31.2679 22.3836C31.2766 22.241 31.2419 22.1247 31.164 21.9941C30.9864 21.6968 30.8412 21.3786 30.6983 21.0615C30.6582 20.9727 30.6441 20.8509 30.6679 20.7587C30.7297 20.5261 30.8228 20.3023 30.969 20.0555C31.0546 20.1498 31.1185 20.2025 31.1596 20.2683C31.53 20.8564 31.7001 21.5136 31.7737 22.1982C31.7899 22.3518 31.8105 22.5383 31.7423 22.6612C31.6015 22.9168 31.7109 23.2646 31.3708 23.5136H31.3719Z" fill="#E8DFCE"/>
<path d="M33.0918 23.5117C32.9835 22.9565 32.9098 22.4716 32.7853 22.0009C32.7344 21.8089 32.8763 21.6641 32.8135 21.4579C32.7821 21.4348 32.7301 21.392 32.6738 21.3569C32.3738 21.1715 32.286 20.974 32.3954 20.669C32.4647 20.4748 32.5113 20.2653 32.6651 20.1095C32.8698 20.217 32.9445 20.4189 33.0376 20.6043C33.1362 20.8007 33.1687 21.0201 33.2618 21.222C33.3474 21.4096 33.3842 21.6224 33.421 21.8287C33.512 22.341 33.4708 22.8402 33.238 23.312C33.2098 23.3691 33.1622 23.4162 33.0929 23.5095L33.0918 23.5117Z" fill="#E8DFCE"/>
<path d="M15.3639 21.5661C15.4235 21.9644 15.3097 22.2288 14.9946 22.4362C14.7477 22.5985 14.5072 22.7631 14.23 22.8673C14.1812 22.886 14.1358 22.9112 14.0903 22.9364C13.7069 23.1581 13.5997 23.4225 13.7307 23.8624C13.7903 24.0632 13.8769 24.2563 13.7849 24.4922C13.7372 24.4505 13.6841 24.4275 13.6733 24.3912C13.5661 24.0204 13.4892 23.6419 13.5152 23.2524C13.5444 22.8059 13.6852 22.4405 14.1596 22.2771C14.3275 22.22 14.4639 22.0642 14.6101 21.949C14.6318 21.9326 14.6415 21.8832 14.6372 21.8514C14.6004 21.5979 14.7628 21.5541 14.9502 21.5486C15.0834 21.5442 15.2177 21.5584 15.3628 21.565L15.3639 21.5661Z" fill="#E8DFCE"/>
<path d="M4.26842 13.4192C4.09731 13.5914 3.9446 13.7538 3.78107 13.9052C3.6836 13.9952 3.5623 13.9973 3.44317 13.9425C3.3966 13.9216 3.35111 13.8942 3.30996 13.8635C2.92657 13.5739 2.49228 13.44 2.00817 13.4466C2.33199 12.887 2.73596 12.6907 3.28938 12.8234C3.66518 12.9134 3.97168 13.1229 4.26842 13.4192ZM3.44208 13.485C3.46808 13.5212 3.48974 13.5629 3.52223 13.5881C3.53739 13.5991 3.58612 13.5837 3.60454 13.5651C3.64569 13.5223 3.59371 13.4356 3.52331 13.4345C3.50057 13.4345 3.47782 13.4619 3.44208 13.4861V13.485Z" fill="#E8DFCE"/>
<path d="M26.0673 22.8412C26.1431 23.133 26.0543 23.3546 25.8085 23.5708C25.7576 23.3173 25.7337 23.1198 25.8377 22.9257C26.3045 22.0523 26.7702 21.179 27.238 20.3079C27.251 20.2837 27.2933 20.2772 27.3214 20.2629C27.4254 20.5591 27.433 20.5624 27.3323 20.7786C27.2229 21.0155 27.0983 21.2459 26.9781 21.4774C26.8265 21.7715 26.6608 22.0589 26.5222 22.3595C26.4247 22.5724 26.2926 22.7402 26.0651 22.8412H26.0673Z" fill="#E8DFCE"/>
<path d="M15.1289 13.9505C14.9924 13.358 15.195 12.9587 15.6823 12.6987C15.8751 13.3218 15.7354 13.6016 15.1289 13.9505Z" fill="#E8DFCE"/>
<path d="M34.7693 12.6275C34.9339 13.2189 34.713 13.604 34.2538 13.8881C34.0448 13.3056 34.1249 13.1004 34.7693 12.6275Z" fill="#E8DFCE"/>
<path d="M38.6422 23.3437C38.6336 23.3766 38.6325 23.4139 38.6163 23.4413C38.5361 23.5752 38.4668 23.5873 38.4061 23.471C38.3693 23.3985 38.3585 23.313 38.3368 23.2329L38.3228 23.2482C38.4332 23.2855 38.5437 23.3217 38.6531 23.359L38.6412 23.3437H38.6422Z" fill="#E8DFCE"/>
<path d="M75.6174 1.60367C75.6801 1.52587 75.7115 1.48533 75.7526 1.43492C75.7915 1.43711 75.8467 1.42725 75.8899 1.44697C78.5141 2.63043 80.4871 4.5119 81.797 7.10454C81.8587 7.22727 81.9344 7.34671 81.9074 7.50012C81.8998 7.54614 81.9117 7.61518 81.942 7.64476C82.3087 8.00747 82.392 8.50496 82.5272 8.96519C82.7078 9.58322 82.8636 10.2133 82.9166 10.8609C82.9285 10.999 82.9782 11.136 82.9014 11.2707C82.8852 11.2992 82.8755 11.3431 82.8852 11.3715C83.1124 12.0389 83.0172 12.7259 82.9793 13.402C82.9014 14.7762 82.591 16.0999 82.035 17.36C81.9377 17.5803 81.8641 17.8203 81.6532 17.9726C81.6175 17.9989 81.585 18.0603 81.5872 18.103C81.6012 18.3342 81.4574 18.4964 81.3535 18.6739C80.8646 19.5056 80.2773 20.2606 79.6034 20.9455C79.4844 21.0671 79.3838 21.2194 79.1945 21.2512C79.1523 21.2578 79.0907 21.3027 79.0842 21.3378C79.0463 21.5558 78.8581 21.6391 78.7175 21.7575C78.4287 22.0007 78.1507 22.2648 77.7797 22.3831C77.5611 22.6998 77.2009 22.8149 76.8981 23.0088C76.6807 23.148 76.4438 23.2477 76.1842 23.3047C75.9516 23.3562 75.7212 23.4559 75.5146 23.5765C75.0451 23.8504 74.5454 24.0345 74.0186 24.1474C73.5795 24.2416 73.1381 24.3238 72.6957 24.4038C72.5605 24.4279 72.4112 24.463 72.2847 24.4301C71.9375 24.3402 71.6108 24.4695 71.2755 24.4827C70.2846 24.521 69.3079 24.4586 68.3917 24.0104C68.3181 23.9742 68.2186 23.9348 68.1505 23.9578C67.9828 24.0148 67.8411 23.9501 67.6983 23.8997C67.111 23.6926 66.5258 23.4855 65.9968 23.1403C65.7664 22.9902 65.4993 22.8982 65.2624 22.7557C64.3819 22.2243 63.5814 21.5876 62.8729 20.8348C62.6858 20.6354 62.4532 20.4644 62.3992 20.1642C62.3905 20.1192 62.3483 20.0623 62.3072 20.0436C62 19.9034 61.868 19.6053 61.6982 19.3478C61.4202 18.9259 61.1595 18.492 60.9053 18.0548C60.7918 17.8597 60.7063 17.6471 60.6111 17.4411C60.384 16.9447 60.3331 16.3914 60.1363 15.8906C59.9405 15.3953 59.8864 14.8792 59.7728 14.3707C59.5403 13.3253 59.6441 12.2789 59.6711 11.2324C59.682 10.8171 59.7815 10.4007 59.8691 9.99085C59.9794 9.47802 60.1168 8.97177 60.2498 8.46442C60.3299 8.15869 60.4305 7.86283 60.6944 7.65353C60.7539 7.60641 60.8134 7.49683 60.8015 7.42999C60.7474 7.11988 60.9378 6.89305 61.0611 6.65746C61.3185 6.16545 61.5684 5.66138 61.9795 5.27128C62.1969 4.80557 62.5766 4.46916 62.9097 4.09879C63.1758 3.80292 63.4451 3.50268 63.8097 3.31858C63.8702 3.2879 63.933 3.24845 63.9773 3.19695C64.5128 2.57673 65.2213 2.20416 65.9211 1.8294C66.4825 1.52916 67.045 1.21795 67.6908 1.12152C67.84 1.09961 67.9807 1.01085 68.1245 0.952772C68.4296 0.831139 68.7389 0.72923 69.0732 0.728135C69.1705 0.728135 69.2668 0.678824 69.3641 0.655812C69.5307 0.616364 69.6984 0.547329 69.866 0.547329C70.1938 0.547329 70.5194 0.487061 70.8417 0.49254C71.6346 0.507881 72.4307 0.529797 73.2182 0.616364C74.0868 0.711698 74.897 1.01085 75.6217 1.60477L75.6174 1.60367ZM61.5836 18.1665C61.6149 18.2082 61.6495 18.2487 61.6766 18.2926C62.3115 19.3489 63.086 20.2825 64.0314 21.0682C64.0844 21.1131 64.1612 21.1493 64.1839 21.2074C64.3419 21.6106 64.7583 21.6687 65.0547 21.8846C65.1931 21.9854 65.3597 22.0478 65.5068 22.1377C66.7519 22.8927 68.0856 23.3946 69.5231 23.6126C69.7427 23.6455 69.9591 23.7112 70.1711 23.7814C70.4069 23.8592 70.6362 23.892 70.8817 23.8219C71.0451 23.7748 71.2203 23.7518 71.3912 23.7474C72.6438 23.7145 73.8575 23.4822 75.0484 23.0834C75.5903 22.9026 76.1139 22.7075 76.6244 22.4423C77.6196 21.9262 78.5184 21.2906 79.2962 20.4776C79.4995 20.265 79.6845 20.0349 79.9376 19.8705C80.0469 19.8004 80.1247 19.6667 80.194 19.5483C80.3779 19.2317 80.5444 18.9062 80.724 18.5873C81.412 17.3655 81.9798 16.0966 82.1994 14.6918C82.2016 14.6743 82.2081 14.6578 82.2113 14.6403C82.5185 13.0229 82.5272 11.411 82.1854 9.79251C81.9074 8.47209 81.3611 7.27329 80.6948 6.12052C80.6169 5.98574 80.5087 5.86958 80.4103 5.74685C79.7981 4.98309 79.0517 4.35411 78.3562 3.67472C78.1842 3.50706 77.9711 3.37776 77.7634 3.25503C77.4205 3.05231 77.0668 2.86931 76.7174 2.67755C75.9094 2.23375 75.0581 1.89844 74.1733 1.6475C73.8748 1.56313 73.5795 1.46451 73.282 1.37575C73.2225 1.35821 73.149 1.32972 73.097 1.34835C72.9229 1.41081 72.7574 1.36698 72.5854 1.34835C71.6021 1.24535 70.6189 1.22124 69.6389 1.37794C68.9909 1.48204 68.3452 1.596 67.7016 1.72311C67.5199 1.75927 67.3435 1.84913 67.177 1.93679C66.8557 2.10445 66.5398 2.28416 66.2251 2.46496C65.8497 2.68083 65.4755 2.89999 65.1055 3.12353C64.8849 3.25722 64.6934 3.44022 64.4252 3.49172C64.3505 3.50596 64.277 3.57938 64.2207 3.64294C63.5403 4.41218 62.847 5.17047 62.1882 5.95944C61.5576 6.71444 61.1087 7.58121 60.7983 8.5203C60.6338 9.01669 60.4597 9.5109 60.292 10.0062C60.2704 10.0719 60.2563 10.1421 60.2498 10.2111C60.2163 10.576 60.1774 10.9409 60.159 11.3069C60.1298 11.8657 60.1309 12.4268 60.0908 12.9846C60.0649 13.3538 60.0497 13.7143 60.1449 14.0771C60.2509 14.4825 60.3353 14.8945 60.4359 15.3011C60.6858 16.3081 61.0633 17.2625 61.5814 18.1567C61.5522 18.1589 61.523 18.1611 61.4949 18.1654C61.4808 18.1676 61.4678 18.172 61.4538 18.1753C61.4678 18.1676 61.4808 18.1545 61.4949 18.1534C61.523 18.1534 61.5522 18.16 61.5803 18.1644L61.5836 18.1665ZM71.0635 0.841001L71.097 0.82566L71.0624 0.813606L71.0645 0.841001H71.0635Z" fill="#E8DFCE"/>
<path d="M71.6811 15.4295C71.481 15.482 71.3349 15.5379 71.1857 15.5522C71.1186 15.5588 71.018 15.504 70.9769 15.4448C70.9239 15.3692 70.9682 15.2782 71.0429 15.218C71.1316 15.1467 71.283 15.1577 71.3111 14.9911C71.2787 14.9659 71.2408 14.9122 71.2019 14.9111C71.0191 14.9089 70.9617 14.7906 70.9509 14.6405C70.939 14.4662 70.9434 14.2909 70.9434 14.1156C70.9434 13.9578 70.9498 13.8011 70.9488 13.6433C70.9488 13.5918 70.9336 13.5414 70.9196 13.4592C70.6654 13.4044 70.4014 13.3507 70.1407 13.2916C69.9904 13.2576 69.8346 13.2335 69.6951 13.171C69.3609 13.022 69.0266 13.0143 68.6837 13.1151C68.6177 13.1349 68.5518 13.1568 68.4847 13.1688C68.3354 13.1962 68.2002 13.1502 68.1245 13.0198C68.0477 12.8872 67.9536 12.7382 67.9493 12.5935C67.9287 11.9678 67.8249 11.34 67.9633 10.7143C68.0369 10.3822 68.1861 10.2354 68.5269 10.2113C68.913 10.185 69.2916 10.2518 69.628 10.4403C69.8065 10.54 69.9698 10.5718 70.1656 10.5554C70.3538 10.54 70.5453 10.5663 70.7346 10.563C70.7952 10.563 70.8557 10.528 70.9617 10.4962C70.8795 10.3669 70.8092 10.2738 70.7584 10.1718C70.674 10.0009 70.6578 9.78394 70.82 9.69737C71.0385 9.58122 71.0504 9.37521 71.1121 9.21413C71.2408 9.16262 71.3079 9.21522 71.3641 9.28535C71.4939 9.44643 71.6216 9.60861 71.7481 9.77188C71.852 9.90667 71.9061 10.0535 71.7806 10.1992C71.6659 10.334 71.6767 10.4896 71.6767 10.6463C71.6767 11.3641 71.6757 12.0818 71.6767 12.7985C71.6767 13.48 71.68 14.1627 71.6811 14.8443C71.6811 15.0174 71.6811 15.1917 71.6811 15.4273V15.4295ZM70.925 12.6878C70.9412 12.2571 70.9585 11.8583 70.9682 11.4594C70.9693 11.4123 70.9315 11.3641 70.9206 11.3356C70.3874 11.1953 69.8725 11.0529 69.3533 10.9279C69.1889 10.8885 69.0115 10.8688 68.8438 10.8841C68.5474 10.9093 68.4165 11.0616 68.4025 11.3652C68.3927 11.5909 68.396 11.8188 68.4046 12.0446C68.409 12.1421 68.4425 12.2374 68.4663 12.3448C68.8784 12.3229 69.2386 12.4456 69.5999 12.5672C70.0109 12.7053 70.4252 12.8182 70.925 12.6867V12.6878ZM71.3987 14.4663C71.3728 14.4783 71.3457 14.4893 71.3198 14.5013C71.3317 14.5112 71.3457 14.532 71.3544 14.5298C71.3814 14.5243 71.4063 14.509 71.4323 14.498C71.4215 14.4871 71.4096 14.4761 71.3987 14.4652V14.4663Z" fill="#E8DFCE"/>
<path d="M70.8828 3.34496C70.7822 3.25401 70.726 3.18607 70.6557 3.14334C70.3258 2.94171 70.1473 2.96691 69.878 3.24744C69.8185 3.3099 69.773 3.3877 69.7135 3.44906C69.5913 3.57617 69.5729 3.57727 69.2192 3.57508C69.2755 3.32962 69.4474 3.18826 69.6357 3.08197C69.8131 2.98116 70.0078 2.89459 70.2057 2.84966C70.4145 2.80145 70.6351 2.80802 70.858 2.79049C70.6849 2.53188 70.3121 2.37628 69.7395 2.32368C70.3561 2.0322 70.8764 2.13083 71.3772 2.50559C71.6811 2.3193 71.9937 2.16918 72.3464 2.16151C72.4978 2.15822 72.6503 2.19 72.8017 2.21411C72.8201 2.21739 72.831 2.2689 72.8483 2.30286C72.6817 2.43874 72.4924 2.36423 72.3107 2.36642C71.9678 2.3719 71.8293 2.48805 71.6865 2.90774C72.1041 2.84418 72.5129 2.70502 72.9045 2.92637C73.1176 3.04691 73.3112 3.18936 73.4226 3.43591C73.3339 3.59151 73.1912 3.61562 73.017 3.60576C72.9867 3.58494 72.9413 3.56083 72.9056 3.52577C72.7682 3.39427 72.6471 3.23977 72.4935 3.13457C72.3875 3.06225 72.2339 3.02389 72.1062 3.03376C71.9548 3.04471 71.8098 3.12471 71.7493 3.29565C71.7763 3.41728 71.8802 3.38222 71.9548 3.39427C72.6265 3.50714 72.9608 3.91916 72.9153 4.58759C72.8959 4.88674 72.8072 4.94701 72.4059 4.91523C72.3702 4.36295 72.3474 3.78437 71.626 3.60576C71.5632 3.79204 71.5319 3.94545 71.6974 4.07914C71.7936 4.15694 71.812 4.28077 71.7417 4.35857C71.5437 4.57773 71.5632 4.83743 71.5632 5.09823C71.5632 5.14973 71.5492 5.20123 71.5427 5.25054C71.4237 5.38642 71.2863 5.4182 71.1003 5.3393C71.0884 5.24945 71.0678 5.14863 71.0635 5.04782C71.0537 4.82318 71.0732 4.60402 70.9196 4.39802C70.7996 4.23803 70.8233 4.03312 70.9348 3.8545C70.9705 3.79643 71.0051 3.73835 71.0505 3.66164C70.8115 3.54878 70.6384 3.63096 70.4891 3.79204C70.3258 3.96737 70.2793 4.19091 70.2587 4.41884C70.2457 4.55581 70.2565 4.69497 70.2565 4.82976C70.1419 4.9744 69.9969 4.99303 69.8336 4.95906C69.7016 4.85934 69.7135 4.71141 69.7265 4.57663C69.7893 3.8819 69.9688 3.68794 70.8861 3.34715L70.8828 3.34496Z" fill="#E8DFCE"/>
<path d="M62.2953 11.9951C62.7853 10.9201 63.0244 10.7579 63.8616 10.9212C63.9417 11.0691 63.9179 11.2116 63.8032 11.3803C63.6528 11.3858 63.4841 11.3858 63.3164 11.4012C62.8978 11.4384 62.6501 11.6291 62.5538 11.9896C62.5376 12.0488 62.5625 12.1178 62.5712 12.2219C62.6631 12.1704 62.7237 12.1452 62.7745 12.1068C62.9443 11.9764 63.165 11.9436 63.3089 12.0532C63.576 12.257 63.8659 12.2 64.1515 12.2296C64.184 12.2329 64.2164 12.2493 64.2813 12.2712C64.29 12.3183 64.3159 12.383 64.3083 12.4444C64.2845 12.6493 64.2359 12.7019 64.065 12.7183C63.9622 12.7282 63.8573 12.715 63.7545 12.7293C63.655 12.7435 63.5393 12.7534 63.4646 12.8103C63.2342 12.989 63.0265 12.9747 62.8059 12.7994C62.7605 12.7632 62.6858 12.7632 62.6198 12.7446C62.5831 13.3035 63.0428 13.5423 63.8324 13.5642C63.9211 13.6848 63.9081 13.8185 63.8389 13.9445C63.7729 14.0661 63.642 14.0782 63.523 14.0913C62.9908 14.1483 62.582 13.882 62.4089 13.3615C62.3602 13.2147 62.3343 13.0591 62.2964 12.9057C62.1309 12.9243 62.0552 13.047 62.0249 13.1785C61.9989 13.2914 62.0033 13.4251 62.0368 13.5358C62.0985 13.7407 62.2488 13.8853 62.4121 14.0234C62.6242 14.202 62.6144 14.2951 62.4078 14.591C61.7999 14.213 61.7188 13.9544 61.8637 12.8662C61.7036 12.8114 61.6106 12.9232 61.5122 13.0142C61.391 13.1281 61.3456 13.2804 61.3402 13.4404C61.337 13.5434 61.3737 13.6486 61.3716 13.7527C61.3694 13.87 61.3629 13.996 61.2104 14.0617C61.0298 13.4941 61.2266 12.9999 61.4559 12.5474C61.3553 12.3194 61.2374 12.1233 61.1823 11.9096C61.1358 11.7299 61.1423 11.5294 61.1596 11.3409C61.1725 11.1973 61.1552 11.0275 61.3315 10.8686C61.364 11.1962 61.2623 11.5042 61.4559 11.7507C61.5187 11.8318 61.5944 11.903 61.6712 11.971C61.6896 11.9874 61.7339 11.9732 61.7664 11.9732C61.8097 11.0045 61.9395 10.7163 62.5041 10.3569C62.5906 10.5114 62.5625 10.6538 62.4684 10.782C62.4186 10.85 62.3397 10.896 62.2759 10.9552C61.9189 11.2883 61.8994 11.4877 62.185 11.9041C62.2034 11.9315 62.238 11.948 62.2932 11.994L62.2953 11.9951Z" fill="#E8DFCE"/>
<path d="M81.2767 10.9309C81.5742 11.4886 81.5645 12.0157 81.1523 12.5055C81.1978 12.5921 81.2497 12.6808 81.2919 12.7729C81.4314 13.0764 81.5439 13.381 81.4314 13.7273C81.4022 13.8172 81.4271 13.9257 81.4271 14.0681C81.2302 13.9015 81.2594 13.7339 81.2843 13.5608C81.3276 13.2474 81.2021 13.0161 80.9284 12.8715C80.8884 12.8496 80.8322 12.8573 80.7813 12.8507C80.9111 13.9596 80.857 14.1317 80.2383 14.5908C80.0198 14.3278 80.0155 14.2248 80.2048 14.0298C80.3248 13.9059 80.4611 13.7887 80.5466 13.6418C80.6115 13.5301 80.6331 13.3756 80.6245 13.2441C80.6147 13.083 80.5271 12.9482 80.3303 12.8934C80.3054 13.0304 80.2902 13.1663 80.2556 13.2956C80.1107 13.8391 79.6866 14.1382 79.1296 14.0813C79.0171 14.0692 78.8786 14.0287 78.8116 13.9498C78.7456 13.872 78.7542 13.7284 78.7218 13.5739C78.9208 13.5553 79.0852 13.5443 79.2486 13.5224C79.6391 13.4698 79.9279 13.2813 80.0533 12.8857C80.062 12.8594 80.0414 12.8233 80.035 12.7904C79.9257 12.6995 79.8446 12.7816 79.7634 12.8408C79.5893 12.9668 79.4076 12.992 79.241 12.8474C79.0766 12.7038 78.8884 12.7323 78.7012 12.7236C78.3432 12.706 78.3216 12.6754 78.3681 12.248C78.4806 12.2392 78.5974 12.2228 78.7153 12.2206C78.9057 12.2184 79.0787 12.2009 79.2529 12.0825C79.5168 11.9028 79.7775 12.0299 80.0512 12.2129C80.0555 12.0836 80.0944 11.9675 80.0555 11.893C79.9841 11.7593 79.8889 11.6092 79.7645 11.5434C79.5406 11.424 79.2897 11.3527 79.0441 11.2815C78.9781 11.2629 78.8905 11.3188 78.7759 11.3505C78.7596 11.1906 78.7467 11.0602 78.7337 10.932C79.6153 10.7468 79.9084 10.9418 80.3238 11.9861C80.5271 11.8842 80.6072 11.7056 80.6439 11.504C80.6786 11.3133 80.5877 11.1643 80.4568 11.0404C80.3811 10.9692 80.2946 10.91 80.2188 10.8388C80.0793 10.7062 80.0447 10.5484 80.1258 10.338C80.7489 10.7194 80.9068 11.2881 80.8376 12.0047C80.9338 11.9587 81.0193 11.9423 81.069 11.8908C81.2464 11.7078 81.3276 11.4809 81.3081 11.2223C81.3005 11.1237 81.2897 11.0262 81.28 10.9276L81.2767 10.9309Z" fill="#E8DFCE"/>
<path d="M71.7427 21.6124C71.7687 21.7845 71.892 21.8634 72.0197 21.8864C72.1484 21.9094 72.2977 21.8973 72.4188 21.8491C72.5421 21.7998 72.647 21.6957 72.7476 21.6015C72.8352 21.5204 72.9056 21.4196 72.978 21.333C73.0959 21.3494 73.1814 21.356 73.2636 21.3757C73.3101 21.3867 73.3523 21.4185 73.3912 21.4393C73.3945 21.4842 73.4107 21.5258 73.3966 21.5489C73.1381 21.9806 72.752 22.1636 72.262 22.1231C72.077 22.1077 71.8953 22.0683 71.7092 22.0398C71.6659 22.2206 71.772 22.3148 71.8639 22.4123C71.9645 22.5197 72.0975 22.5614 72.2392 22.5625C72.3766 22.5636 72.5151 22.5471 72.6524 22.5515C72.7368 22.5548 72.8255 22.5745 72.8601 22.717C72.3312 22.8529 71.8542 22.7509 71.3858 22.4332C70.8893 22.8277 70.3376 22.8649 69.7416 22.6501C69.8271 22.4912 69.9363 22.5614 70.0272 22.5723C70.3192 22.6063 70.5756 22.5384 70.7811 22.317C70.8136 22.2819 70.8276 22.2304 70.8514 22.1844C70.7454 22.0606 70.62 22.1472 70.5107 22.1307C70.3744 22.1099 70.2338 22.1132 70.1007 22.0814C69.985 22.054 69.8703 22.0047 69.7665 21.9455C69.6475 21.8765 69.5318 21.7965 69.4323 21.7012C69.349 21.6212 69.2906 21.5149 69.2116 21.4053C69.4214 21.3155 69.5783 21.3439 69.7103 21.4897C69.7568 21.5412 69.7936 21.6015 69.8401 21.653C70.1808 22.0277 70.4415 22.0168 70.8417 21.5861C70.6903 21.5269 70.5496 21.4776 70.4134 21.4174C69.9147 21.1971 69.6789 20.7961 69.72 20.2482C69.7373 20.0159 69.8228 19.9501 70.0629 19.9983C70.1267 20.0104 70.1851 20.0487 70.2262 20.0663C70.2608 20.3512 70.2717 20.6142 70.3301 20.8651C70.395 21.1423 70.5875 21.3144 70.8752 21.3549C70.9196 21.3615 70.9693 21.3308 71.0548 21.3056C71.005 21.219 70.9683 21.15 70.9272 21.0832C70.8276 20.921 70.7995 20.7303 70.9001 20.5857C71.0634 20.349 71.0634 20.098 71.0624 19.835C71.0624 19.7682 71.0786 19.7003 71.0916 19.606H71.4853C71.5167 19.6794 71.5491 19.7244 71.5545 19.7737C71.5653 19.8778 71.5643 19.983 71.5653 20.0882C71.5664 20.2284 71.5751 20.3599 71.6768 20.4783C71.8358 20.6646 71.8066 20.8596 71.6681 21.0525C71.6238 21.1149 71.6075 21.1971 71.5664 21.3012C71.7525 21.3418 71.878 21.2848 71.9775 21.1971C72.0792 21.1073 72.1776 21.001 72.2425 20.8815C72.3085 20.7621 72.3442 20.6218 72.369 20.4848C72.3939 20.349 72.3874 20.2076 72.3972 20.0345C72.4924 20.0268 72.5886 20.0093 72.6838 20.0148C72.8017 20.0213 72.8677 20.1068 72.8958 20.2142C73.0408 20.7741 72.739 21.3308 72.1949 21.4996C72.0478 21.5456 71.8963 21.5741 71.7438 21.6124H71.7427Z" fill="#E8DFCE"/>
<path d="M73.7688 14.0824C73.8943 13.8885 73.8499 13.7033 73.7937 13.517C73.7439 13.3515 73.7147 13.1926 73.7385 13.0085C73.772 12.751 73.6466 12.5461 73.3837 12.4322C73.0668 12.8124 72.95 13.2737 72.7531 13.7263C72.2469 13.4984 71.9461 13.1367 71.9018 12.6119C71.865 12.179 71.8921 11.7396 71.9018 11.3035C71.9061 11.1347 72.0121 11.023 72.1971 10.9912C72.5735 10.9287 72.9521 10.9408 73.3285 11.0054C73.4389 11.0241 73.5092 11.1052 73.5351 11.2147C73.6401 11.653 73.7558 12.0903 73.8369 12.533C73.8759 12.7434 73.8964 12.945 74.0587 13.1006C74.1798 13.2178 74.2025 13.3723 74.2101 13.5323C74.2199 13.7307 74.1344 13.8983 74.0771 14.0802C74.023 14.2512 73.9916 14.4057 73.824 14.5021C73.6909 14.5788 73.6595 14.7136 73.6552 14.8615C73.652 14.9821 73.652 15.1103 73.6109 15.2198C73.5871 15.2834 73.4865 15.3502 73.4162 15.3557C73.3156 15.3645 73.2701 15.2571 73.2853 15.1716C73.3372 14.8769 73.3404 14.5843 73.3221 14.2862C73.3069 14.0331 73.3913 13.9937 73.6779 14.0857C73.692 14.0901 73.7093 14.0835 73.7666 14.078L73.7688 14.0824Z" fill="#E8DFCE"/>
<path d="M75.7288 9.04202C75.5406 8.8371 75.361 8.85792 75.1912 8.86779C74.8494 8.88751 74.5952 8.73848 74.3897 8.47768C74.3042 8.3703 74.2101 8.26839 74.1376 8.15224C73.9905 7.91883 74.0165 7.85199 74.2966 7.66899C74.5562 7.69967 74.5854 7.99773 74.8083 8.12155C74.8818 8.10073 74.9868 8.08977 75.0711 8.04156C75.1587 7.99115 75.2258 7.90459 75.3015 7.83446C75.612 7.54626 75.6509 7.52873 76.0868 7.47942C75.9895 7.3282 75.8456 7.30409 75.6953 7.28985C75.4869 7.26939 75.3084 7.18794 75.1598 7.04549C75.175 6.94358 75.2615 6.97097 75.3145 6.97426C75.7948 6.99946 76.221 7.16602 76.5812 7.49366C76.8029 7.69529 76.8602 7.93527 76.7185 8.19497C76.6039 8.40536 76.4546 8.59713 76.3216 8.79437C76.1604 8.72752 76.0576 8.63767 76.1031 8.47001C76.1496 8.29578 76.0803 8.16977 75.9841 8.0317C75.6855 8.11826 75.7612 8.40646 75.612 8.63548C75.7515 8.72972 75.8932 8.82395 76.0252 8.91271C75.5925 9.54498 75.334 9.64141 74.7758 9.38938C74.8158 9.33459 74.8418 9.26994 74.8894 9.24364C74.9435 9.21296 75.017 9.19871 75.0798 9.20529C75.1782 9.21734 75.2842 9.29295 75.3664 9.26885C75.4887 9.23268 75.5925 9.13297 75.731 9.04311L75.7288 9.04202Z" fill="#E8DFCE"/>
<path d="M68.6124 17.1033C68.4837 17.1855 68.3723 17.2568 68.276 17.3181C68.2165 17.2874 68.1765 17.2798 68.1602 17.2557C68.1127 17.1833 68.078 17.1023 68.0326 17.0277C67.9028 16.8184 67.707 16.7845 67.5134 16.9423C67.4334 17.008 67.3684 17.0924 67.2916 17.1625C67.0861 17.351 66.8698 17.5187 66.5442 17.488C66.5896 17.5241 66.6307 17.5789 66.6827 17.5932C66.8319 17.6348 66.9845 17.6611 67.1359 17.6907C67.2927 17.7214 67.4334 17.7707 67.5037 17.9581C67.323 18.0326 67.1629 17.9668 66.9996 17.934C66.6708 17.8682 66.382 17.7236 66.1148 17.5208C65.8573 17.3258 65.7232 17.0749 65.9839 16.653C66.0845 16.4908 66.1937 16.3341 66.3127 16.1544C66.4652 16.2245 66.5767 16.3034 66.5301 16.4985C66.489 16.6672 66.5431 16.8031 66.6762 16.9182C66.9607 16.8272 66.8698 16.539 66.9996 16.3714C66.8622 16.2289 66.7454 16.1084 66.6253 15.9845C66.7833 15.7106 67.031 15.5791 67.2646 15.4366C67.3295 15.3972 67.4334 15.3983 67.5134 15.4125C67.6302 15.4345 67.7416 15.4849 67.8942 15.5353C67.8228 15.6196 67.7817 15.6974 67.7168 15.7358C67.6681 15.7643 67.5794 15.7632 67.5275 15.7369C67.243 15.5901 67.0818 15.7413 66.9228 15.9517C67.0721 16.0667 67.2192 16.116 67.3771 16.0974C67.9039 16.0371 68.2154 16.344 68.4674 16.7472C68.5291 16.8469 68.5583 16.9664 68.6124 17.1012V17.1033Z" fill="#E8DFCE"/>
<path d="M74.7725 17.2216C74.5097 17.0649 74.3864 16.8293 74.2544 16.609C74.13 16.4019 74.2544 16.209 74.3247 16.0151C74.5551 16.1049 74.6178 16.1597 74.5519 16.2781C74.3961 16.5564 74.5226 16.7328 74.7217 16.9334C74.8807 16.7975 74.8872 16.6342 74.8926 16.4644C74.9131 15.8069 75.2063 15.4453 75.8877 15.2426C75.9267 15.2875 75.9808 15.3335 76.0132 15.3916C76.0543 15.465 76.077 15.5494 76.1127 15.6414C75.9927 15.7094 75.8845 15.7631 75.7861 15.8288C75.5946 15.9581 75.5697 16.1269 75.7147 16.3164C75.7774 16.3986 75.8585 16.4666 75.9288 16.5433C76.1203 16.7504 76.2869 16.9695 76.2068 17.3465C76.4037 17.2117 76.4124 17.0616 76.4437 16.9202C76.4773 16.769 76.5119 16.6178 76.5649 16.4731C76.5843 16.4216 76.659 16.3909 76.7628 16.3066C76.7574 16.9158 76.5984 17.3969 76.2447 17.8078C76.024 18.0642 75.8088 18.0938 75.5102 17.9272C75.4951 17.9185 75.481 17.9097 75.4659 17.8998C75.2961 17.7826 75.1252 17.6664 74.9521 17.547C75.0278 17.3958 75.1068 17.2785 75.309 17.3202C75.401 17.3388 75.5091 17.3015 75.6054 17.2731C75.6433 17.2621 75.6876 17.2029 75.6898 17.1646C75.692 17.1229 75.6563 17.0561 75.6206 17.0407C75.4659 16.9739 75.3047 16.9213 75.1587 16.8676C75.017 16.998 74.8947 17.1109 74.7747 17.2226L74.7725 17.2216Z" fill="#E8DFCE"/>
<path d="M67.6897 7.41361C67.601 7.57797 67.5134 7.65139 67.3739 7.62619C67.2105 7.5977 67.0645 7.624 66.9206 7.77303C66.9682 7.83001 67.0061 7.91438 67.0688 7.94506C67.1921 8.00533 67.3284 8.03711 67.4864 8.08861C67.5956 7.97684 67.7135 7.8574 67.8282 7.73906C68.0845 7.90342 68.3311 8.18176 68.4069 8.38557C68.4545 8.51268 68.4523 8.52255 68.3063 8.93456C68.0737 8.86224 68.0175 8.81183 68.1007 8.64199C68.2338 8.37242 68.0975 8.21901 67.9472 8.05355C67.7979 8.07985 67.7795 8.18943 67.7622 8.28366C67.7449 8.38557 67.7449 8.49296 67.7503 8.59706C67.7622 8.81841 67.6811 9.00141 67.5621 9.18221C67.4582 9.34001 67.3198 9.3411 67.1673 9.33233C67.0861 9.42 67.1499 9.57012 67.0126 9.64244C66.8363 9.73559 66.7303 9.72901 66.621 9.56026C66.5831 9.50328 66.5648 9.43315 66.5258 9.3411C66.6372 9.26659 66.7486 9.19536 66.8579 9.11866C67.0245 9.00141 67.0602 8.83375 66.9488 8.67048C66.9001 8.59925 66.833 8.54117 66.7746 8.47762C66.462 8.13683 66.4479 8.11053 66.3636 7.66235C66.2002 7.8048 66.2024 7.99985 66.1808 8.18833C66.1613 8.36585 66.1126 8.53022 65.9017 8.61678C65.8357 8.29353 65.9439 8.01739 66.038 7.74344C66.1299 7.47497 66.2803 7.24047 66.488 7.04761C66.6881 6.86242 66.9098 6.90626 67.1143 7.01803C67.309 7.12432 67.4831 7.26787 67.6919 7.41251L67.6897 7.41361Z" fill="#E8DFCE"/>
<path d="M77.9614 7.56455C77.8554 7.45607 77.7753 7.37388 77.6931 7.28951C77.7959 7.0309 77.9906 6.87749 78.1453 6.69449C78.4947 6.28138 78.6007 5.81238 78.4979 5.26668C77.9657 5.16477 77.4952 5.28202 77.0528 5.55049C77.0127 5.57459 76.9944 5.63157 76.9608 5.66883C76.6796 5.97565 76.3789 6.26165 76.0381 6.54766C75.9192 6.45451 75.8164 6.37452 75.7277 6.30549C75.7374 6.23645 75.7299 6.19043 75.7483 6.1707C76.0598 5.84306 76.3702 5.51432 76.6904 5.19655C76.8927 4.99602 77.1425 4.86671 77.4259 4.84041C77.7515 4.81083 78.0804 4.7911 78.407 4.79549C78.6591 4.79877 78.8235 4.97081 78.8289 5.23271C78.8365 5.58226 78.8386 5.93511 78.7997 6.28138C78.777 6.483 78.6926 6.68901 78.5909 6.86653C78.446 7.12295 78.2578 7.35306 77.9614 7.56564V7.56455Z" fill="#E8DFCE"/>
<path d="M64.132 19.6626C64.3634 19.6626 64.5517 19.6735 64.7377 19.6604C65.0189 19.6406 65.2775 19.5497 65.4927 19.3546C65.6853 19.1804 65.8778 19.0051 66.0703 18.8287C66.2358 18.6774 66.3992 18.5262 66.5549 18.3827C66.7551 18.4188 66.8676 18.5043 66.9184 18.718C66.6436 19.0029 66.357 19.301 66.0725 19.5968C65.9914 19.588 65.9254 19.5793 65.8583 19.5749C65.8432 19.5749 65.827 19.5891 65.8118 19.5968C65.8172 19.6615 65.8226 19.7261 65.828 19.7897C65.589 19.9968 65.3067 20.0746 65.0114 20.0965C64.7539 20.1162 64.4932 20.114 64.2347 20.1031C63.9762 20.0932 63.8075 19.9365 63.8021 19.679C63.7934 19.3305 63.7891 18.9766 63.8302 18.6314C63.8962 18.078 64.2304 17.6879 64.6663 17.3417C64.7658 17.4348 64.8502 17.5137 64.9378 17.5948C64.8632 17.8446 64.6815 17.9871 64.5333 18.1504C64.1568 18.5668 64.0346 19.0511 64.1298 19.6604L64.132 19.6626Z" fill="#E8DFCE"/>
<path d="M76.1041 19.1268C76.2317 19.0139 76.3074 18.947 76.3853 18.878C76.6136 18.9668 76.7542 19.1498 76.9218 19.2955C77.3761 19.69 77.7136 19.782 78.3767 19.6736C78.46 19.164 78.4232 18.6808 78.0576 18.2688C77.8737 18.0616 77.6855 17.8567 77.5005 17.6496C77.3751 17.5094 77.2528 17.3669 77.11 17.2036C77.2074 17.0765 77.2874 16.9724 77.3556 16.8837C77.4248 16.8957 77.4692 16.8892 77.4886 16.9078C77.8294 17.2519 78.1723 17.5948 78.5054 17.9477C78.7034 18.157 78.7964 18.4244 78.8191 18.7071C78.8429 19.0018 78.844 19.2999 78.8364 19.5958C78.8299 19.8587 78.6763 20.0176 78.4135 20.022C78.0522 20.0286 77.6855 20.0439 77.3307 19.9913C76.8104 19.9146 76.4372 19.5848 76.1041 19.1257V19.1268Z" fill="#E8DFCE"/>
<path d="M66.5172 5.75909C66.4155 5.86209 66.3344 5.94427 66.2511 6.02865C66.0023 5.91907 65.8498 5.72402 65.6691 5.56513C65.2624 5.2079 64.7962 5.11038 64.251 5.21229C64.1785 5.76676 64.2261 6.26644 64.6188 6.68503C64.7854 6.86255 64.9476 7.04445 65.111 7.22525C65.2386 7.36661 65.3641 7.51016 65.4744 7.63508C65.4841 7.85205 65.3825 7.95395 65.2289 8.01641C64.9173 7.80493 64.2045 7.10691 64.0455 6.85488C63.801 6.46587 63.7664 6.03632 63.8129 5.59143C64.0531 5.44131 63.9027 5.21996 63.8962 4.99422C64.0055 4.95258 64.1126 4.88026 64.2207 4.87697C64.5485 4.86602 64.8773 4.87369 65.2051 4.89232C65.3403 4.89999 65.4787 4.93943 65.6064 4.98984C65.9882 5.13996 66.2359 5.45117 66.5182 5.76018L66.5172 5.75909Z" fill="#E8DFCE"/>
<path d="M73.4367 18.3837C73.3545 18.41 73.3221 18.4308 73.2918 18.4275C72.8634 18.3804 72.4783 18.5021 72.1073 18.7125C71.9775 18.7859 71.838 18.8779 71.6519 18.8209C71.5481 18.6872 71.4356 18.5426 71.308 18.3782C71.1738 18.5503 71.0602 18.6971 70.9532 18.8341C70.6103 18.8505 70.4091 18.5711 70.1257 18.5152C69.8412 18.4593 69.5524 18.4275 69.2246 18.3793C69.1327 18.2807 69.1619 18.1306 69.2095 17.9564C69.6411 17.8227 70.0456 17.9169 70.4329 18.1328C70.5443 18.1952 70.7044 18.2172 70.6752 18.444C70.7996 18.3782 70.9023 18.3223 71.0332 18.2533C71.0332 18.1602 71.0278 18.0594 71.0343 17.9585C71.0429 17.8095 71.1554 17.6999 71.295 17.6923C71.4507 17.6835 71.5805 17.8029 71.5946 17.9728C71.6 18.0418 71.5816 18.1152 71.6 18.1788C71.626 18.2687 71.7038 18.3355 71.7958 18.3015C71.9894 18.2314 72.1776 18.1459 72.3648 18.0572C72.7033 17.895 73.0495 17.861 73.4356 17.9498V18.3837H73.4367Z" fill="#E8DFCE"/>
<path d="M71.6822 6.1366C71.8196 6.18153 71.9569 6.20564 72.0727 6.27029C72.487 6.5026 72.9175 6.64834 73.3902 6.56835C73.4745 6.73381 73.4919 6.88065 73.4194 7.03077C72.9997 7.13158 72.6016 7.0998 72.2274 6.87407C72.183 6.84777 72.1354 6.82586 72.0889 6.80504C71.6779 6.62094 71.6714 6.62423 71.5978 7.0757C71.5762 7.2039 71.4377 7.31129 71.3004 7.30581C71.1597 7.30033 71.0397 7.19075 71.0353 7.04392C71.0321 6.92557 71.0873 6.79846 70.9185 6.69107C70.7195 6.69107 70.5345 6.82476 70.3355 6.91571C69.945 7.09542 69.6811 7.1261 69.2279 7.03734C69.1662 6.91352 69.1889 6.77655 69.1954 6.64176C69.2235 6.61985 69.2506 6.5793 69.2754 6.5815C69.733 6.61108 70.1603 6.5278 70.5529 6.27248C70.6503 6.20893 70.7747 6.18591 70.911 6.13551C71.044 6.29549 71.1727 6.45 71.3155 6.62204C71.441 6.45548 71.5535 6.30536 71.6811 6.1366H71.6822Z" fill="#E8DFCE"/>
<path d="M76.6882 10.3531H77.0992C77.123 10.3903 77.1587 10.421 77.1566 10.4473C77.1241 10.8977 77.2366 11.3097 77.453 11.7009C77.5179 11.8181 77.5417 11.9584 77.5903 12.1041C77.4324 12.2334 77.2885 12.3518 77.1209 12.4888C77.2777 12.6137 77.4216 12.7276 77.5828 12.8559C77.5611 12.9523 77.559 13.0619 77.5135 13.1473C77.2745 13.5988 77.1003 14.0656 77.1739 14.5839C77.0095 14.6891 76.8667 14.699 76.6958 14.6102C76.5735 14.2289 76.6914 13.8684 76.8321 13.5111C76.8959 13.349 76.9748 13.1934 77.0354 13.0301C77.0841 12.8986 77.0105 12.7868 76.871 12.7693C76.8212 12.7627 76.7672 12.7824 76.7174 12.7781C76.5519 12.7638 76.4329 12.6246 76.4448 12.469C76.4556 12.3299 76.5638 12.2247 76.7174 12.2126C76.7856 12.2071 76.8569 12.2269 76.9218 12.2126C77.0181 12.1918 77.0679 12.1162 77.0452 12.0187C77.0214 11.9179 76.9932 11.8127 76.9402 11.725C76.6936 11.3207 76.6255 10.8834 76.6904 10.3509L76.6882 10.3531Z" fill="#E8DFCE"/>
<path d="M65.9373 14.6182C65.7642 14.7015 65.6193 14.6862 65.4527 14.5876C65.4776 14.2939 65.5025 13.9903 65.5306 13.6616C65.2548 13.4863 65.0828 13.2244 65.0525 12.8562C65.205 12.7401 65.3532 12.6261 65.5219 12.4979C65.3597 12.3686 65.2147 12.2524 65.0482 12.1187C65.0968 11.9697 65.126 11.8141 65.1964 11.6804C65.403 11.2859 65.5382 10.8805 65.4581 10.4433C65.6052 10.2888 65.7545 10.3216 65.9243 10.3633C66.0541 10.7019 66.0109 11.0361 65.8713 11.3648C65.7902 11.5566 65.6939 11.7429 65.6182 11.9368C65.5425 12.1308 65.6063 12.2119 65.8313 12.2261C65.8648 12.2283 65.9005 12.213 65.9341 12.2163C66.079 12.2316 66.1893 12.3489 66.1948 12.4869C66.2002 12.6414 66.0801 12.7664 65.9092 12.7817C65.893 12.7828 65.8746 12.774 65.8584 12.7751C65.5847 12.797 65.536 12.8759 65.6431 13.1433C65.7145 13.3208 65.7999 13.4918 65.8757 13.6682C66.0098 13.9827 66.0271 14.3026 65.9395 14.6204L65.9373 14.6182Z" fill="#E8DFCE"/>
<path d="M71.9332 10.817C71.9851 10.7161 72.01 10.5967 72.0576 10.5868C72.4816 10.4959 72.9099 10.4795 73.3339 10.5956C73.3599 10.6022 73.3945 10.6471 73.3913 10.6712C73.387 10.7161 73.3642 10.7644 73.3372 10.8016C73.3199 10.8268 73.282 10.8476 73.2507 10.8509C72.8256 10.886 72.3994 10.9156 71.9321 10.817H71.9332Z" fill="#E8DFCE"/>
<path d="M73.2474 10.4179C72.8775 10.5066 72.5584 10.4836 72.2393 10.4453C72.2014 10.4409 72.1495 10.385 72.1408 10.3456C72.1333 10.3072 72.1603 10.2382 72.1928 10.2173C72.3669 10.1067 72.9813 10.1231 73.1641 10.2415C73.1966 10.2623 73.2041 10.3236 73.2463 10.4179H73.2474Z" fill="#E8DFCE"/>
</svg>
