<svg width="190" height="91" viewBox="0 0 190 91" fill="none" xmlns="http://www.w3.org/2000/svg">
<path d="M184.493 6.86407C182.023 3.93407 177.463 0.464074 169.803 0.614074L168.493 0.644074C162.863 0.684074 157.473 2.92407 153.473 6.88407C152.693 7.66407 151.963 8.49407 151.283 9.37407C150.873 8.72407 150.423 8.10407 149.943 7.51407C147.473 4.59407 142.913 1.14407 135.253 1.29407L133.923 1.32407C131.143 1.34407 128.403 1.90407 125.833 2.96407C123.243 4.02407 120.893 5.59407 118.913 7.56407C118.143 8.33407 117.423 9.15407 116.753 10.0141C116.323 9.33407 115.853 8.69407 115.333 8.08407C112.873 5.22407 108.333 1.84407 100.683 1.97407L98.0334 2.02407C92.5534 2.06407 87.2934 4.19407 83.3334 7.97407C82.3434 8.90407 81.4334 9.92407 80.6234 11.0141C80.0534 10.1341 79.4034 9.31407 78.6734 8.56407C74.8634 4.60407 69.6434 2.57407 63.5734 2.69407L45.8334 3.04407C44.5134 3.07407 43.2234 3.47407 42.1234 4.20407C41.0234 4.93407 40.1534 5.96407 39.6134 7.17407C39.0334 5.98407 38.1234 4.98407 36.9934 4.29407C35.8634 3.60407 34.5534 3.25407 33.2334 3.29407L22.3634 3.50407C20.7634 3.53407 19.2234 4.12407 17.9934 5.15407C16.7634 6.18407 15.9434 7.61407 15.6434 9.19407C15.5634 9.61407 15.3834 10.0041 15.1334 10.3441C14.6034 11.0541 13.9734 11.6841 13.2534 12.2041C12.5134 12.7641 11.6934 13.2241 10.8234 13.5641L10.7334 13.5941C10.1134 13.8441 9.45338 13.9741 8.79338 13.9941C7.13338 14.0441 5.53338 14.6841 4.30338 15.8141C3.07338 16.9341 2.28338 18.4641 2.08338 20.1141L0.803382 30.3441C0.683382 31.3341 0.773382 32.3341 1.07338 33.2941C1.37338 34.2441 1.87338 35.1241 2.54338 35.8641C3.21338 36.6041 4.03338 37.1941 4.94338 37.5941C5.85338 37.9941 6.84338 38.1841 7.84338 38.1741C8.45338 38.1641 9.09338 38.1541 9.77338 38.0941L4.16338 82.4441C4.03338 83.4341 4.12338 84.4441 4.42338 85.4041C4.72338 86.3641 5.22338 87.2441 5.89338 87.9841C6.56338 88.7241 7.38338 89.3241 8.30338 89.7141C9.22338 90.1141 10.2134 90.3041 11.2134 90.2841L24.3134 90.0241C25.6534 89.9941 26.9534 89.5841 28.0634 88.8341C29.1734 88.0841 30.0434 87.0341 30.5734 85.8041C31.1434 87.0241 32.0534 88.0441 33.1934 88.7541C34.3334 89.4641 35.6534 89.8241 37.0034 89.7941L50.1134 89.5341C51.7934 89.5041 53.3934 88.8641 54.6434 87.7441C55.8934 86.6241 56.6934 85.0941 56.8934 83.4241L57.6234 77.5741C62.0234 77.3741 66.3034 76.0941 70.0834 73.8441C69.9834 76.0941 70.2634 78.3541 70.9134 80.5041C71.7434 83.2241 73.4834 85.5741 75.8334 87.1541C76.0234 87.2741 76.2034 87.3941 76.3934 87.4941C78.6734 88.7341 81.2434 89.3541 83.8334 89.3041C84.0734 89.3041 84.3034 89.3041 84.5434 89.2941H84.9134C86.7634 89.2241 88.5934 88.8841 90.3534 88.2741C91.1534 88.5641 91.9934 88.7041 92.8434 88.6841L105.163 88.4441C106.603 88.4141 108.003 87.9441 109.163 87.0841C110.323 86.2241 111.193 85.0341 111.643 83.6641C114.273 86.1941 118.493 88.6141 124.953 88.4841L127.603 88.4341C133.103 88.3441 138.353 86.1641 142.303 82.3441C142.923 81.7441 143.513 81.1041 144.073 80.4341C144.333 80.8041 144.593 81.1641 144.883 81.5141C147.323 84.4641 151.843 87.9641 159.553 87.8141L162.203 87.7641C167.703 87.6641 172.953 85.4841 176.903 81.6641C181.013 77.6941 183.543 72.3641 184.013 66.6641L185.033 59.4241C185.033 59.3541 185.033 59.2841 185.063 59.2141C185.653 53.8441 184.773 49.2241 182.463 45.4841C181.973 44.6841 181.453 43.9041 180.913 43.1341C182.383 42.8741 183.733 42.1541 184.753 41.0741C185.783 39.9941 186.433 38.6141 186.623 37.1341L188.403 22.8441C189.293 16.3641 187.963 10.9841 184.463 6.85407L184.493 6.86407Z" fill="white"/>
<path d="M11.0829 90.7834C10.0629 90.7834 9.04291 90.5734 8.10291 90.1634C7.11291 89.7334 6.24291 89.1034 5.52291 88.3034C4.81291 87.5134 4.26291 86.5534 3.95291 85.5434C3.63291 84.5234 3.53291 83.4334 3.67291 82.3734L9.21291 38.6234C8.74291 38.6434 8.29291 38.6534 7.86291 38.6634C6.79291 38.6934 5.74291 38.4734 4.75291 38.0434C3.76291 37.6134 2.90291 36.9934 2.18291 36.1934C1.46291 35.3934 0.932915 34.4634 0.612915 33.4434C0.292915 32.4234 0.192915 31.3534 0.322915 30.2834L1.60291 20.0534C1.82291 18.2834 2.66291 16.6434 3.98291 15.4434C5.30291 14.2434 7.01291 13.5534 8.79291 13.4934C9.40291 13.4734 10.0029 13.3534 10.5629 13.1234L10.6629 13.0834C11.4829 12.7634 12.2529 12.3334 12.9629 11.8034C13.6429 11.3034 14.2429 10.7134 14.7429 10.0434C14.9529 9.76339 15.1029 9.43339 15.1629 9.09339C15.4729 7.41339 16.3729 5.88339 17.6729 4.77339C18.9829 3.66339 20.6429 3.03339 22.3529 3.00339L33.2229 2.79339C34.6429 2.75339 36.0329 3.13339 37.2529 3.87339C38.1929 4.44339 38.9929 5.22339 39.5929 6.13339C40.1629 5.19339 40.9329 4.39339 41.8429 3.79339C43.0229 3.00339 44.4029 2.58339 45.8229 2.55339L63.5629 2.20339C69.7429 2.09339 75.1229 4.16339 79.0329 8.23339C79.6129 8.84339 80.1529 9.49339 80.6429 10.1834C81.3529 9.27339 82.1429 8.41339 82.9829 7.63339C87.0529 3.75339 92.3929 1.58339 98.0229 1.54339L100.663 1.49339C108.483 1.33339 113.173 4.83339 115.703 7.77339C116.083 8.22339 116.443 8.68339 116.783 9.17339C117.333 8.49339 117.923 7.84339 118.553 7.22339C120.593 5.19339 122.973 3.61339 125.633 2.51339C128.273 1.42339 131.053 0.863388 133.913 0.833388L135.243 0.803388C143.113 0.653388 147.783 4.19339 150.323 7.20339C150.673 7.62339 151.003 8.07339 151.323 8.52339C151.883 7.83339 152.493 7.16339 153.123 6.53339C157.243 2.45339 162.693 0.183388 168.493 0.143388L169.793 0.113388C177.663 -0.0266119 182.333 3.52339 184.873 6.53339C188.473 10.7834 189.843 16.2934 188.923 22.9134L187.143 37.1934C186.943 38.7934 186.253 40.2534 185.143 41.4134C184.223 42.3734 183.043 43.0834 181.763 43.4534C182.153 44.0334 182.533 44.6234 182.903 45.2234C185.273 49.0534 186.173 53.7834 185.573 59.2634L185.533 59.4034L184.523 66.7234C184.043 72.5134 181.463 77.9534 177.263 82.0134C173.203 85.9334 167.863 88.1534 162.223 88.2534L159.573 88.3034C159.403 88.3034 159.243 88.3034 159.083 88.3034C151.483 88.3034 146.973 84.7934 144.513 81.8234C144.353 81.6334 144.203 81.4334 144.053 81.2334C143.613 81.7434 143.143 82.2334 142.673 82.6934C138.623 86.6234 133.283 88.8334 127.633 88.9334L124.983 88.9834C119.833 89.0934 115.303 87.5434 111.873 84.5234C111.353 85.6934 110.533 86.7034 109.493 87.4834C108.243 88.4034 106.763 88.9134 105.203 88.9434L92.8829 89.1834C92.0229 89.2034 91.1929 89.0734 90.3829 88.8034C88.6329 89.3934 86.8129 89.7234 84.9629 89.7834L83.8729 89.8034C81.1629 89.8434 78.5329 89.2134 76.1829 87.9334C75.9729 87.8234 75.7729 87.7034 75.5829 87.5634C73.1329 85.9134 71.3129 83.4634 70.4529 80.6434C69.8729 78.7134 69.5729 76.7234 69.5729 74.7034C66.0429 76.6434 62.0929 77.7934 58.0729 78.0334L57.3929 83.4734C57.1729 85.2534 56.3129 86.9034 54.9729 88.1034C53.6329 89.3034 51.9129 89.9834 50.1229 90.0234L37.0129 90.2834C35.5729 90.3034 34.1629 89.9334 32.9329 89.1734C31.9829 88.5834 31.1829 87.7934 30.5929 86.8634C30.0329 87.8134 29.2629 88.6234 28.3429 89.2434C27.1529 90.0434 25.7629 90.4834 24.3229 90.5134L11.2229 90.7734C11.2229 90.7734 11.1329 90.7734 11.0829 90.7734V90.7834ZM10.3529 37.5434L4.66291 82.5034C4.54291 83.4234 4.63291 84.3634 4.90291 85.2534C5.18291 86.1334 5.65291 86.9634 6.26291 87.6434C6.88291 88.3434 7.64291 88.8834 8.50291 89.2534C9.35291 89.6234 10.2829 89.8034 11.2029 89.7834L24.3029 89.5234C25.5529 89.5034 26.7529 89.1134 27.7929 88.4234C28.8329 87.7234 29.6329 86.7534 30.1229 85.6134L30.5629 84.5834L31.0329 85.5934C31.5629 86.7234 32.4029 87.6734 33.4629 88.3334C34.5229 88.9934 35.7529 89.3234 36.9929 89.2934L50.1029 89.0334C51.6529 89.0034 53.1529 88.4134 54.3129 87.3734C55.4729 86.3334 56.2129 84.9134 56.4029 83.3634L57.1829 77.0934L57.6029 77.0734C61.9029 76.8734 66.1329 75.6134 69.8329 73.4134L70.6329 72.9434L70.5929 73.8734C70.4929 76.0734 70.7729 78.2634 71.4029 80.3734C72.1929 82.9734 73.8729 85.2434 76.1229 86.7534C76.2929 86.8634 76.4629 86.9734 76.6529 87.0734C78.8529 88.2734 81.3729 88.8734 83.8529 88.8234L84.9329 88.8034C86.7229 88.7434 88.5129 88.4134 90.2129 87.8234L90.3829 87.7634L90.5529 87.8234C91.2929 88.0934 92.0529 88.2134 92.8629 88.2034L105.183 87.9634C106.523 87.9334 107.813 87.5034 108.893 86.7034C109.973 85.9034 110.773 84.8034 111.193 83.5334L111.443 82.7834L112.013 83.3334C115.363 86.5434 119.753 88.1034 124.963 88.0134L127.613 87.9634C133.003 87.8734 138.103 85.7634 141.973 82.0134C142.573 81.4334 143.163 80.8034 143.703 80.1434L144.123 79.6434L144.503 80.1834C144.753 80.5434 145.013 80.8934 145.293 81.2334C147.663 84.1034 152.103 87.4734 159.563 87.3534L162.213 87.3034C167.603 87.2034 172.703 85.0934 176.573 81.3434C180.593 77.4534 183.073 72.2334 183.533 66.6634L184.553 59.4034C184.553 59.4034 184.553 59.2834 184.583 59.1534C185.143 53.9234 184.293 49.4234 182.043 45.8034C181.553 45.0034 181.033 44.2234 180.513 43.4734L180.063 42.8334L180.833 42.6934C182.183 42.4534 183.453 41.7734 184.403 40.7834C185.363 39.7734 185.963 38.5034 186.143 37.1234L187.923 22.8334C188.793 16.5034 187.503 11.2534 184.093 7.22339C181.683 4.37339 177.263 1.00339 169.793 1.15339L168.483 1.18339C162.943 1.22339 157.733 3.39339 153.813 7.28339C153.043 8.04339 152.323 8.86339 151.673 9.72339L151.233 10.2934L150.853 9.68339C150.453 9.05339 150.013 8.44339 149.543 7.88339C147.143 5.04339 142.683 1.69339 135.253 1.84339L133.923 1.87339C131.193 1.89339 128.533 2.43339 126.013 3.47339C123.473 4.51339 121.203 6.03339 119.253 7.96339C118.493 8.71339 117.783 9.52339 117.143 10.3634L116.703 10.9334L116.323 10.3234C115.913 9.66339 115.443 9.03339 114.943 8.45339C112.553 5.67339 108.173 2.38339 100.683 2.52339L98.0329 2.57339C92.6529 2.61339 87.5529 4.68339 83.6629 8.39339C82.6929 9.30339 81.8029 10.3034 81.0129 11.3734L80.5829 11.9534L80.1929 11.3534C79.6429 10.5034 79.0029 9.70339 78.3029 8.97339C74.5929 5.11339 69.4729 3.14339 63.5729 3.25339L45.8329 3.60339C44.6029 3.62339 43.4129 4.00339 42.3829 4.68339C41.3629 5.36339 40.5529 6.31339 40.0529 7.43339L39.6129 8.41339L39.1429 7.45339C38.6029 6.34339 37.7629 5.42339 36.7129 4.78339C35.6629 4.14339 34.4329 3.80339 33.2229 3.85339L22.3529 4.06339C20.8729 4.09339 19.4329 4.63339 18.3029 5.59339C17.1729 6.55339 16.3929 7.88339 16.1229 9.34339C16.0229 9.83339 15.8129 10.3034 15.5129 10.7034C14.9529 11.4534 14.2829 12.1134 13.5329 12.6634C12.7629 13.2534 11.9029 13.7334 10.9829 14.0834L10.8829 14.1234C10.2229 14.3834 9.51291 14.5334 8.78291 14.5534C7.24291 14.6034 5.76291 15.2034 4.61291 16.2434C3.47291 17.2834 2.74291 18.7034 2.55291 20.2334L1.27291 30.4634C1.16291 31.3834 1.24291 32.3034 1.52291 33.1934C1.80291 34.0734 2.27291 34.8934 2.88291 35.5734C3.50291 36.2634 4.25291 36.8034 5.11291 37.1734C5.96291 37.5434 6.86291 37.7334 7.80291 37.7134C8.39291 37.7034 9.03291 37.6934 9.70291 37.6334L10.3129 37.5834L10.3529 37.5434Z" fill="#21201E"/>
<path d="M11.1024 83.3147L17.8324 30.1347C16.4624 30.3547 14.7724 30.5747 12.7924 30.8147C10.8124 31.0547 9.12242 31.1747 7.73242 31.2047L9.01242 20.9747C10.4924 20.9347 11.9424 20.6247 13.3224 20.0847C14.7924 19.5247 16.1824 18.7647 17.4524 17.8247C18.7024 16.9047 19.8024 15.8047 20.7324 14.5547C21.6324 13.3647 22.2424 11.9747 22.5124 10.5147L33.3824 10.3047L24.2224 83.0847L11.1124 83.3247L11.1024 83.3147Z" fill="#2E4096"/>
<path d="M110.041 12.6594C107.861 10.1394 104.791 8.90939 100.821 8.97939L98.1513 9.02939C94.4213 9.05939 90.8313 10.5194 88.1313 13.0894C85.3013 15.7294 83.5813 19.3294 82.9813 23.9094L81.0413 38.2094L93.3913 37.9694L95.1713 23.9694C95.5013 20.7494 96.4713 19.1294 98.0413 19.1194H98.3413C99.8413 19.0794 100.441 20.6794 100.081 23.8694L97.5013 44.0394C96.4113 43.2894 95.2413 42.6494 94.0213 42.1394C92.8913 41.6394 91.6613 41.3894 90.4313 41.4094H90.1313C86.2613 41.4894 83.5613 42.8494 82.0213 45.4994C80.4813 48.1494 79.4613 51.7094 78.9613 56.1794L77.5613 67.8994C77.3113 70.1594 77.1613 72.1894 77.0913 73.9794C76.9913 75.5294 77.1713 77.0794 77.6213 78.5594C77.9713 79.7394 78.7213 80.7494 79.7413 81.4394C81.1113 82.1794 82.6713 82.5094 84.2313 82.3794H84.6713C86.0713 82.3194 87.4513 82.0194 88.7513 81.4894C90.2213 80.8994 91.6313 80.1694 92.9613 79.2894L92.7113 81.7694L105.091 81.5294L112.291 23.4994C113.001 18.8194 112.261 15.2094 110.071 12.6694L110.041 12.6594ZM94.1213 70.2094C93.5813 72.2494 92.6613 73.2894 91.3513 73.3194H91.0513C89.5613 73.3594 89.0813 71.7694 89.6213 68.5594L91.1413 55.1094C91.6613 51.8994 92.6213 50.2894 94.0313 50.2594L95.0513 50.2394C95.3913 50.2394 95.7313 50.3394 96.0013 50.5494C96.2713 50.7494 96.4713 51.0394 96.5613 51.3694L94.1313 70.2194L94.1213 70.2094Z" fill="#2E4096"/>
<path d="M134.082 37.1861L135.872 23.1561C136.052 22.0161 136.002 20.8561 135.732 19.7361C135.462 18.8161 134.942 18.3961 134.142 18.4161H133.842C133.422 18.4461 133.022 18.5961 132.682 18.8461C132.342 19.0861 132.082 19.4261 131.932 19.8161C131.412 20.8961 131.082 22.0661 130.952 23.2561L130.052 29.5461C129.612 32.2461 130.262 35.0061 131.842 37.2361C133.442 39.3261 135.152 41.3261 136.952 43.2361C138.842 45.2661 140.532 47.4861 141.992 49.8461C143.492 52.2461 144.022 55.3461 143.592 59.1461L142.552 66.5761C142.232 70.6561 140.432 74.4861 137.472 77.3261C134.752 79.9361 131.142 81.4161 127.372 81.4461L124.842 81.4961C120.872 81.5761 117.822 80.3261 115.682 77.7561C113.542 75.1861 112.782 71.6661 113.402 67.1961L115.062 52.8761L126.082 52.6561L124.292 66.6861C124.062 69.9061 124.782 71.4661 126.452 71.4361H127.042C128.832 71.3861 129.952 69.7661 130.392 66.5661L131.142 60.2761C131.432 58.4661 131.242 56.6061 130.602 54.8861C129.962 53.3261 129.082 51.8661 127.992 50.5761C126.842 49.2061 125.632 47.8861 124.342 46.6361C123.022 45.3361 121.832 43.9261 120.772 42.4061C119.682 40.8261 118.822 39.0961 118.222 37.2761C117.572 35.1261 117.422 32.8661 117.792 30.6561L118.692 23.2261C119.132 19.1861 120.952 15.4161 123.842 12.5561C125.182 11.2261 126.762 10.1761 128.512 9.45611C130.262 8.73611 132.132 8.35611 134.032 8.34611L135.402 8.31611C139.372 8.23611 142.442 9.48611 144.632 12.0561C146.812 14.6261 147.572 18.1561 146.912 22.6461L145.122 36.9561L134.102 37.1761L134.082 37.1861Z" fill="#2E4096"/>
<path d="M168.662 36.5186L170.452 22.4886C170.642 21.3486 170.592 20.1886 170.312 19.0686C170.042 18.1486 169.522 17.7286 168.722 17.7486H168.422C168.002 17.7786 167.602 17.9286 167.262 18.1786C166.922 18.4186 166.672 18.7586 166.522 19.1486C166.002 20.2286 165.672 21.3986 165.542 22.5886L164.642 28.8686C164.212 31.5686 164.852 34.3286 166.432 36.5586C168.032 38.6586 169.732 40.6686 171.542 42.5886C173.432 44.6186 175.122 46.8286 176.582 49.1886C178.082 51.5886 178.612 54.6886 178.182 58.4886L177.142 65.9186C176.842 70.0086 175.042 73.8386 172.092 76.6786C169.372 79.2886 165.752 80.7686 161.982 80.7986L159.442 80.8486C155.472 80.9286 152.422 79.6686 150.292 77.0886C148.162 74.4986 147.402 70.9686 148.022 66.5086L149.682 52.1886L160.702 51.9686L158.912 65.9986C158.682 69.2086 159.402 70.7986 161.072 70.7486H161.642C163.432 70.6986 164.542 69.0786 164.992 65.8786L165.762 59.5886C166.052 57.7786 165.862 55.9186 165.222 54.1986C164.582 52.6386 163.702 51.1786 162.612 49.8886C161.462 48.5186 160.242 47.1986 158.952 45.9486C157.632 44.6486 156.442 43.2286 155.382 41.7186C154.282 40.1386 153.422 38.4186 152.832 36.5886C152.172 34.4386 152.032 32.1786 152.402 29.9686L153.292 22.5386C153.742 18.4986 155.562 14.7286 158.442 11.8686C159.782 10.5386 161.372 9.48861 163.112 8.76861C164.862 8.04861 166.742 7.66861 168.642 7.65861L169.982 7.62861C173.952 7.54861 177.022 8.79861 179.202 11.3686C181.382 13.9386 182.172 17.4686 181.572 21.9686L179.782 36.2986L168.682 36.5086L168.662 36.5186Z" fill="#2E4096"/>
<path d="M73.6523 13.4446C71.1723 10.8746 67.8523 9.63457 63.6823 9.71457L45.9723 10.0646L36.9023 82.8646L49.9923 82.6046L51.4723 70.7646L56.2423 70.6746C60.0023 70.7146 63.7023 69.6746 66.9023 67.6946C69.8423 65.7846 71.6723 62.4946 72.3723 57.8246L76.4823 24.4946C77.0823 19.7046 76.1423 16.0246 73.6523 13.4546V13.4446ZM62.9723 26.8046L59.4923 53.9946C59.1723 57.8846 58.1123 59.8546 56.3323 59.8846L52.8823 59.9546L57.7723 20.6346L60.8823 20.5746C62.8623 20.5346 63.5523 22.6146 62.9523 26.8046H62.9723Z" fill="#2E4096"/>
</svg>
