<svg width="58" height="25" viewBox="0 0 58 25" fill="none" xmlns="http://www.w3.org/2000/svg">
<path d="M1.10595 24.3338L3.65956 6.91052C3.20679 6.97481 2.64989 7.03689 1.9979 7.10118C1.34592 7.16547 0.791279 7.19651 0.333984 7.19651L0.820707 3.84444C1.30606 3.83943 1.78666 3.75011 2.24014 3.58062C2.72883 3.4053 3.18988 3.1635 3.60976 2.86232C4.0266 2.56529 4.39721 2.21057 4.70998 1.80926C5.01304 1.42136 5.22206 0.971043 5.32122 0.492377H8.89129L5.41177 24.336L1.10595 24.3338Z" fill="#E8DFCE"/>
<path d="M34.0584 1.7627C33.3595 0.918771 32.3566 0.495332 31.0497 0.492376H30.1714C28.9401 0.481566 27.752 0.936633 26.8548 1.7627C25.9085 2.60958 25.3215 3.7831 25.0936 5.28326L24.3646 9.96773H28.4237L29.1028 5.38081C29.2341 4.32553 29.5594 3.79862 30.0785 3.8001H30.1759C30.6671 3.8001 30.855 4.32774 30.7169 5.38081L29.7367 11.9896C29.3831 11.7362 29.0039 11.5193 28.6048 11.3423C28.2376 11.171 27.8364 11.081 27.4298 11.0784H27.3325C26.0618 11.0784 25.1653 11.5093 24.6431 12.3709C24.1208 13.2326 23.7624 14.3958 23.5677 15.8605L23.0312 19.6892C22.9331 20.4282 22.8682 21.0933 22.8365 21.6845C22.7957 22.1916 22.8455 22.7016 22.9837 23.192C23.0912 23.578 23.3309 23.9163 23.6628 24.1497C24.1068 24.4025 24.6175 24.5198 25.1298 24.4867H25.2769C25.7379 24.4794 26.1936 24.3901 26.6217 24.2229C27.1095 24.0391 27.5768 23.8066 28.0162 23.529L27.9188 24.3404H31.9779L34.7171 5.3276C34.9782 3.79937 34.7586 2.61106 34.0584 1.7627ZM28.4599 20.5605C28.2652 21.2315 27.9551 21.567 27.5295 21.567H27.4321C26.9431 21.567 26.7967 21.0408 26.9929 19.9885L27.5793 15.5789C27.774 14.5266 28.0999 14.0004 28.5572 14.0004H28.8923C29.0055 14.0013 29.1153 14.0394 29.204 14.1085C29.2925 14.1776 29.355 14.2738 29.3813 14.3817L28.4599 20.5605Z" fill="#E8DFCE"/>
<path d="M41.7962 9.97441L42.4753 5.3764C42.543 5.00379 42.5344 4.62176 42.4504 4.25239C42.3689 3.94866 42.1991 3.80899 41.9365 3.80899H41.8392C41.7008 3.81513 41.5673 3.86025 41.4543 3.93888C41.3416 4.01752 41.2542 4.12637 41.203 4.25239C41.0246 4.60544 40.9083 4.98545 40.8589 5.3764L40.5239 7.43595C40.3629 8.31848 40.556 9.22777 41.0627 9.97441C41.5741 10.6713 42.121 11.3425 42.7017 11.9852C43.3116 12.6662 43.8513 13.4043 44.3135 14.1889C44.786 14.987 44.9413 16.009 44.7799 17.2549L44.3883 19.6936C44.2615 21.0266 43.6444 22.2692 42.6519 23.1898C41.7502 24.03 40.5506 24.4945 39.3059 24.4845H38.4751C37.1711 24.4845 36.1766 24.0537 35.4914 23.192C34.8061 22.3304 34.5797 21.165 34.8122 19.6958L35.4484 15.0025H39.0705L38.3913 19.6005C38.2947 20.6543 38.5211 21.1812 39.0705 21.1812H39.2652C39.8522 21.1812 40.2296 20.6543 40.3971 19.6005L40.6891 17.541C40.7942 16.9471 40.7435 16.3368 40.542 15.7674C40.343 15.2491 40.0627 14.7644 39.7112 14.3307C39.3415 13.8711 38.9505 13.4321 38.5385 13.0139C38.1111 12.5791 37.7262 12.1063 37.3885 11.6016C37.0398 11.0746 36.7686 10.5022 36.5825 9.90123C36.382 9.19139 36.3487 8.44622 36.4852 7.72194L36.827 5.28326C36.9946 3.9642 37.6149 2.74005 38.586 1.81148C39.0322 1.38546 39.5597 1.04985 40.1386 0.823868C40.7174 0.597892 41.3361 0.485994 41.9592 0.494597H42.4119C43.7159 0.494597 44.7181 0.925433 45.4183 1.7871C46.1185 2.64876 46.3449 3.81343 46.0974 5.28106L45.4183 9.97441H41.7962Z" fill="#E8DFCE"/>
<path d="M53.1561 9.97662L53.8352 5.37859C53.9027 5.00525 53.8941 4.62253 53.8103 4.25239C53.7288 3.94866 53.5591 3.80899 53.2964 3.80899H53.1991C53.0608 3.81542 52.9274 3.86063 52.8145 3.93922C52.7017 4.01783 52.6144 4.12655 52.563 4.25239C52.3846 4.60624 52.2682 4.98694 52.2189 5.37859L51.8838 7.43597C51.7229 8.31848 51.916 9.22777 52.4226 9.97441C52.9333 10.6725 53.4805 11.3444 54.0616 11.9874C54.6708 12.6681 55.2107 13.4054 55.6735 14.1889C56.1459 14.987 56.3012 16.009 56.1398 17.2549L55.7482 19.6936C55.625 21.027 55.0111 22.2711 54.0209 23.1942C53.1171 24.0325 51.9173 24.4956 50.6727 24.4867H49.8396C48.5356 24.4867 47.5418 24.0551 46.8581 23.192C46.1744 22.3289 45.948 21.1635 46.1789 19.6959L46.8173 15.0025H50.4395L49.7603 19.6005C49.6623 20.6543 49.8887 21.1812 50.4395 21.1812H50.6251C51.2121 21.1812 51.5895 20.6543 51.757 19.6005L52.0513 17.541C52.1564 16.9471 52.1057 16.3368 51.9042 15.7674C51.7052 15.2491 51.4249 14.7644 51.0734 14.3307C50.7048 13.8725 50.3127 13.4329 49.8984 13.0139C49.4726 12.5785 49.0884 12.1058 48.7507 11.6016C48.4002 11.0756 48.1288 10.5029 47.9447 9.90125C47.7433 9.19159 47.7093 8.44638 47.8451 7.72194L48.187 5.28326C48.3563 3.96429 48.9773 2.74047 49.9482 1.81149C50.3949 1.3854 50.9228 1.04975 51.5019 0.82378C52.0812 0.597808 52.7002 0.485949 53.3236 0.494602H53.7628C55.0668 0.494602 56.0696 0.92618 56.7714 1.78932C57.4732 2.65246 57.7093 3.81786 57.48 5.2855L56.8009 9.97882L53.1561 9.97662Z" fill="#E8DFCE"/>
<path d="M22.1008 1.78488C21.3039 0.921739 20.2203 0.490903 18.8499 0.492381H13.0318L9.58402 24.3426H13.8853L14.4467 20.4629H16.0133C17.2517 20.4988 18.4742 20.1831 19.5336 19.5539C20.5116 18.9465 21.1311 17.8772 21.3922 16.346L22.9588 5.42739C23.1867 3.86071 22.9007 2.64655 22.1008 1.78488ZM18.5103 6.10578L17.1905 15.0136C17.0592 16.2906 16.7008 16.9291 16.1152 16.9291H14.9833L16.8419 4.04621H17.8651C18.5171 4.04621 18.7299 4.73272 18.5035 6.10578H18.5103Z" fill="#E8DFCE"/>
</svg>
