<svg width="54" height="25" viewBox="0 0 54 25" fill="none" xmlns="http://www.w3.org/2000/svg">
<path d="M1.42755 6.60354C1.4857 6.76153 1.38477 6.85808 1.34198 6.9656C1.20922 7.29583 1.12255 7.63595 1.16205 7.99032C1.18289 8.18012 1.10609 8.31507 0.989798 8.45441C1.19606 8.66176 1.38038 8.86912 1.58664 9.05235C1.8686 9.30249 2.2142 9.43086 2.57845 9.50985C2.68158 9.53179 2.78581 9.54715 2.89004 9.55703C3.04583 9.57129 3.14018 9.66674 3.22905 9.80717C3.52418 9.61079 3.85003 9.51973 4.2055 9.48901C4.46333 9.46597 4.71896 9.38368 4.92303 9.20594C5.00421 8.98652 4.91974 8.78684 4.87914 8.58277C4.79027 8.13734 4.70689 7.6908 4.62461 7.24317C4.58182 7.01058 4.60595 6.79444 4.75516 6.59476C4.83635 6.48505 4.87804 6.34681 4.94497 6.22612C5.03603 6.06265 5.09308 5.87504 5.24449 5.76533C5.42113 5.80922 5.41015 5.96062 5.46721 6.05936C5.67786 6.42032 5.98505 6.63536 6.39758 6.65511C6.95602 6.68253 7.51885 6.71874 8.06412 6.53223C8.24625 6.47079 8.43496 6.4258 8.62366 6.3907C9.08556 6.30731 9.48491 6.10434 9.83271 5.79385C9.89634 5.7368 9.96765 5.68743 10.0916 5.59089C10.0829 5.72803 10.0916 5.80483 10.0708 5.87285C10.0214 6.03303 9.88866 6.16359 9.87879 6.37424C10.2145 6.35998 10.4504 6.14055 10.7302 6.07801C11.033 6.01109 11.2272 5.75655 11.5574 5.66549C11.5508 5.76423 11.5607 5.84542 11.5377 5.91454C11.4532 6.1581 11.2952 6.37424 11.2129 6.64852C11.767 6.72971 12.2585 6.57063 12.7555 6.50151C13.1274 6.44994 13.4192 6.20089 13.7681 6.02535C13.7813 5.72035 13.8987 5.42302 13.8515 5.10814C13.8241 4.92383 13.8778 4.75926 13.9744 4.60895C14.1247 4.37307 14.2827 4.14267 14.4308 3.91885C14.5833 3.94189 14.5592 4.04283 14.5581 4.12292C14.5515 4.45535 14.5361 4.78888 14.5306 5.12131C14.5284 5.26065 14.5273 5.40327 14.5515 5.54042C14.6447 6.06704 14.9113 6.43678 15.4643 6.56843C15.777 6.64304 16.0798 6.68254 16.3969 6.59915C16.5998 6.54649 16.8094 6.51796 17.0167 6.48724C17.4216 6.4269 17.7957 6.28866 18.1369 6.06155C18.2027 6.01767 18.2795 5.99024 18.3827 5.93977C18.4266 6.20309 18.2455 6.36766 18.2181 6.60793C18.6668 6.61341 19.0113 6.34462 19.4041 6.24588C19.7903 6.14823 20.0569 5.78947 20.5144 5.71925C20.453 6.07362 20.2248 6.31499 20.1513 6.63097C20.3992 6.68582 20.5912 6.541 20.7887 6.44665C20.9928 6.34901 21.1804 6.21516 21.3757 6.09776C21.5611 5.98695 21.7015 5.79824 21.9198 5.739C21.9977 5.87724 21.9286 5.97488 21.8825 6.05717C21.7048 6.37863 21.5227 6.6979 21.3197 7.004C21.2352 7.13236 21.1058 7.23659 20.9796 7.32984C20.7349 7.51087 20.3564 7.46918 20.1984 7.79722C19.9044 7.90913 19.6115 8.02433 19.3152 8.12965C19.2231 8.16257 19.12 8.16696 18.9696 8.19329C19.0443 7.94205 19.1013 7.74566 19.1562 7.55915C19.0772 7.44395 18.9905 7.501 18.9181 7.53062C18.7228 7.60852 18.5374 7.71165 18.3377 7.77638C17.9438 7.90474 17.5434 8.01446 17.1243 8.13843C17.0815 7.99471 17.0486 7.8828 17.0102 7.75115C16.7172 7.78845 16.4265 7.83123 16.1357 7.86195C15.8066 7.89706 15.4731 7.96399 15.1681 7.75444C15.1297 7.72811 15.066 7.73688 15.0134 7.73469C14.6107 7.72152 14.3156 7.53391 14.1137 7.18941C14.0973 7.16198 14.0644 7.14443 14.015 7.10164C13.9371 7.15211 13.8515 7.20696 13.767 7.26292C13.2448 7.61181 12.6611 7.77748 12.0434 7.8466C11.9052 7.86196 11.7648 7.87512 11.6331 7.91462C11.1229 8.06602 10.5974 8.08687 10.073 8.10552C9.99069 8.10881 9.90731 8.08029 9.78882 8.05944C9.80308 7.9201 9.81405 7.8038 9.82612 7.67983C9.81186 7.66995 9.78553 7.63265 9.7592 7.63375C9.6034 7.64143 9.46078 7.67105 9.31157 7.74346C8.9528 7.91791 8.56881 8.0353 8.14312 8.09345C8.11898 7.99251 8.09923 7.91242 8.074 7.8049C7.6922 7.79174 7.33014 7.95411 6.95053 7.98045C6.56983 8.00678 6.19022 8.0342 5.83475 8.05834C5.80183 8.10662 5.78537 8.11978 5.78318 8.13624C5.69322 8.79671 5.34323 9.34638 5.02506 9.90921C4.87585 10.1736 4.70909 10.4161 4.34593 10.4029C4.27572 10.4007 4.15503 10.4742 4.14077 10.5335C4.0914 10.7321 3.93999 10.7573 3.78749 10.7979C3.09739 10.9822 2.39632 10.9987 1.70294 10.8506C1.04246 10.709 0.645297 10.2636 0.482921 9.61079C0.470853 9.56032 0.445619 9.50107 0.460979 9.45719C0.554235 9.18071 0.361139 8.91411 0.442327 8.63763C0.481824 8.50378 0.491698 8.36115 0.530098 8.2273C0.679309 7.70177 0.87789 7.19709 1.24104 6.77579C1.2937 6.71435 1.35953 6.66388 1.42536 6.60135L1.42755 6.60354ZM15.4292 7.30241C15.3491 6.83065 15.3272 6.81638 14.9684 6.96998C15.0562 7.16454 15.2098 7.27535 15.4292 7.30241ZM17.7979 7.03472C17.6838 7.07312 17.5752 7.0797 17.6026 7.1938C17.6147 7.24427 17.6871 7.309 17.7387 7.31558C17.833 7.32655 17.8977 7.25743 17.8835 7.15869C17.8769 7.11042 17.8242 7.06982 17.799 7.03472H17.7979ZM2.13082 10.3503C2.02001 10.4172 1.95637 10.4413 1.91797 10.4852C1.89274 10.5137 1.90371 10.573 1.89932 10.6191C1.95967 10.6212 2.05512 10.6487 2.07267 10.6223C2.10997 10.5675 2.10558 10.4852 2.13082 10.3503ZM7.13266 7.5756C7.14802 7.58328 7.16557 7.60193 7.17764 7.59754C7.23579 7.57999 7.29174 7.55695 7.3466 7.53281C7.35099 7.53062 7.3444 7.48783 7.34221 7.48783C7.28296 7.48783 7.22262 7.48454 7.16447 7.49551C7.14911 7.4988 7.14253 7.54708 7.13266 7.5745V7.5756ZM8.60172 7.19161C8.51395 7.15869 8.46677 7.13236 8.4174 7.12468C8.39107 7.12029 8.35925 7.14662 8.33073 7.15869C8.36145 7.19599 8.38888 7.23988 8.42618 7.2684C8.43715 7.27718 8.47884 7.24646 8.60172 7.19161ZM10.2759 6.94146C10.2716 6.91732 10.2672 6.89209 10.2628 6.86795C10.2211 6.8855 10.1794 6.90306 10.0894 6.94146H10.2759ZM5.84243 7.24536C5.78208 7.27938 5.75575 7.29473 5.72942 7.31009C5.76453 7.36276 5.79854 7.41652 5.83365 7.46918C5.85669 7.45272 5.90167 7.43078 5.89948 7.41871C5.88851 7.36166 5.86437 7.3068 5.84243 7.24427V7.24536ZM19.2626 6.98315L19.2187 7.05446C19.233 7.06214 19.2516 7.0797 19.2626 7.0764C19.2889 7.06763 19.312 7.05007 19.3361 7.03581C19.312 7.01826 19.2878 7.0007 19.2626 6.98315ZM13.3754 6.90416C13.3633 6.91074 13.3523 6.91732 13.3402 6.9239C13.3468 6.93378 13.3534 6.94365 13.36 6.95353C13.3775 6.94146 13.394 6.93049 13.4116 6.91842C13.3995 6.91403 13.3874 6.90855 13.3754 6.90416ZM7.40913 6.83613C7.39816 6.82297 7.3828 6.79664 7.37622 6.79883C7.34769 6.80651 7.32136 6.82297 7.29394 6.83613C7.32136 6.8493 7.3466 6.86576 7.37512 6.87344C7.3828 6.87563 7.39707 6.8493 7.40913 6.83613Z" fill="#21201E"/>
<path d="M46.127 8.19595C45.9317 8.24861 45.7496 8.33748 45.5664 8.33967C44.4287 8.35284 43.2898 8.34626 42.1631 8.34626C42.1181 8.27385 42.0841 8.22009 42.0545 8.17181C42.0161 8.17181 41.9733 8.15865 41.9491 8.17401C41.7352 8.31773 41.5015 8.34626 41.2481 8.33199C40.9354 8.31444 40.6216 8.3276 40.3056 8.3276C40.1893 8.46584 40.0983 8.59311 39.9875 8.70283C39.7165 8.97162 39.4564 9.25578 39.158 9.48947C38.7422 9.81422 38.2496 9.92503 37.723 9.88663C37.2293 9.85043 36.7619 9.69244 36.2912 9.56517C35.702 9.40609 35.1282 9.18995 34.5512 8.99137C34.3251 8.91348 34.1046 8.81583 33.8874 8.72916C33.9006 8.60079 33.985 8.62054 34.0487 8.61944C34.154 8.61725 34.2593 8.62274 34.3635 8.63151C35.5879 8.73464 36.8156 8.68527 38.0411 8.69295C38.5085 8.69624 38.9364 8.558 39.361 8.39453C39.3829 8.38575 39.3895 8.33748 39.4137 8.28372C39.1372 8.23764 38.864 8.20473 38.5974 8.14438C38.3944 8.0983 38.1947 8.02699 38.0049 7.9447C37.859 7.88107 37.7471 7.76038 37.6944 7.60349C37.644 7.45319 37.599 7.29739 37.7416 7.16574C37.7548 6.69507 38.0181 6.31875 38.209 5.91391C38.2748 5.77457 38.3867 5.78335 38.5392 5.78884C38.5129 5.68022 38.4899 5.58257 38.4613 5.46299C38.5798 5.25014 38.6906 5.01206 38.8991 4.83981C39.1679 4.61819 39.4992 4.58199 39.7647 4.80141C40.0588 5.04498 40.3342 5.31487 40.5865 5.60013C40.7993 5.8415 40.8772 6.15637 40.9069 6.47564C40.9211 6.63034 40.9255 6.78613 40.9354 6.96826C41.0407 6.99898 41.1362 7.04396 41.2338 7.05054C41.6496 7.07797 42.0621 7.10979 42.4834 7.067C42.9146 7.02421 43.3557 7.07687 43.7923 7.08784C43.8494 7.15587 43.9042 7.2206 43.9635 7.29081C44.7337 7.10211 45.5159 7.04286 46.307 7.07577C46.511 7.08455 46.7118 7.07468 46.9213 7.03518C47.2955 6.96387 47.6893 6.96826 48.0733 6.97923C48.7075 6.99678 49.3329 6.91669 49.9604 6.85854C50.6571 6.79491 51.3549 6.73347 52.0483 6.6435C52.3193 6.60839 52.5826 6.50417 52.8448 6.41859C52.9688 6.378 53.0236 6.23427 52.9699 6.11578C52.9271 6.02033 52.8689 5.93256 52.8174 5.8415C52.5683 5.40813 52.5551 4.98244 52.8568 4.56553C52.9578 4.4251 53.0587 4.28466 53.1421 4.16727C53.2683 4.12448 53.3089 4.19909 53.3352 4.25285C53.4855 4.54907 53.638 4.8453 53.7686 5.1503C54.0615 5.83601 53.8048 6.42079 53.3769 6.94412C52.9578 7.45429 52.3818 7.71979 51.7389 7.80646C50.5759 7.96226 49.4107 8.1005 48.2434 8.22228C47.7585 8.27275 47.2658 8.26836 46.7776 8.27055C46.5703 8.27165 46.3629 8.22776 46.1259 8.20034L46.127 8.19595ZM42.4725 7.91069C42.6316 7.76916 42.6524 7.7154 42.5635 7.65067C42.5295 7.62654 42.4648 7.61886 42.4253 7.63422C42.332 7.67042 42.3474 7.75161 42.4714 7.91069H42.4725ZM36.0422 9.13729C36.1266 9.04513 36.1014 8.97492 36.0334 8.91567C36.0147 8.89921 35.9686 8.89263 35.9522 8.9036C35.9335 8.91567 35.9193 8.96504 35.9292 8.98259C35.9599 9.03635 36.0027 9.08353 36.0433 9.13619L36.0422 9.13729ZM50.2073 7.50804C50.114 7.50804 50.0614 7.49488 50.0219 7.51243C49.9867 7.52779 49.9648 7.57607 49.9374 7.61008C49.9824 7.61666 50.0317 7.63641 50.0712 7.62434C50.1107 7.61227 50.1403 7.56839 50.2062 7.50804H50.2073ZM38.6106 7.32482C38.5403 7.32482 38.514 7.31714 38.5063 7.32592C38.4635 7.37748 38.4251 7.43234 38.3878 7.4883C38.3856 7.49159 38.4186 7.5234 38.4207 7.52231C38.4745 7.485 38.5272 7.4466 38.5776 7.40491C38.5897 7.39504 38.5908 7.3742 38.6095 7.32482H38.6106ZM50.6165 7.38078C50.6571 7.40491 50.6725 7.42247 50.6856 7.42027C50.7471 7.4104 50.8107 7.39833 50.8688 7.37748C50.8787 7.37419 50.8842 7.31056 50.8688 7.29301C50.7898 7.19865 50.7229 7.28752 50.6527 7.31714C50.6417 7.32153 50.6373 7.34347 50.6165 7.38187V7.38078ZM39.869 7.16464C39.8679 7.14379 39.8712 7.12185 39.8646 7.11746C39.802 7.07687 39.7395 7.03299 39.6704 7.00666C39.6583 7.00227 39.6177 7.07029 39.5892 7.1043C39.6353 7.13612 39.6781 7.1822 39.7296 7.19536C39.7713 7.20633 39.8229 7.17671 39.869 7.16464ZM51.0872 7.26997C51.1091 7.26448 51.1311 7.26009 51.153 7.25461C51.1431 7.19646 51.1343 7.13941 51.1245 7.08126C51.0981 7.09223 51.0477 7.10759 51.0477 7.11527C51.0543 7.16793 51.0718 7.2195 51.0872 7.27106V7.26997ZM52.226 7.15806C52.1613 7.12405 52.1273 7.09552 52.09 7.08894C52.0713 7.08565 52.0241 7.13392 52.0274 7.14051C52.045 7.17891 52.0691 7.22718 52.1031 7.24144C52.1229 7.25022 52.1668 7.19975 52.226 7.15696V7.15806ZM42.9003 7.65396C42.8762 7.64409 42.8433 7.61886 42.8279 7.62654C42.8049 7.6386 42.795 7.67262 42.7786 7.69785C42.8005 7.70772 42.8301 7.73076 42.8422 7.72418C42.8663 7.70992 42.8817 7.6792 42.9003 7.65396ZM40.5141 6.08835C40.4965 6.06421 40.4845 6.02691 40.4614 6.01923C40.4384 6.01046 40.4055 6.0302 40.3758 6.03788C40.4 6.0697 40.4219 6.10371 40.4504 6.13004C40.4548 6.13443 40.4921 6.10261 40.5141 6.08835ZM37.8722 9.36769C37.8864 9.36001 37.9007 9.35233 37.915 9.34465C37.8974 9.31722 37.8799 9.29089 37.8612 9.26346C37.8513 9.27333 37.8316 9.2854 37.8338 9.29089C37.8437 9.31722 37.859 9.34245 37.8722 9.36769ZM41.0451 7.66494C41.0199 7.65397 40.9946 7.6397 40.9672 7.63422C40.9573 7.63202 40.9431 7.64957 40.9299 7.65835C40.9464 7.67481 40.9639 7.70553 40.9804 7.70553C41.0012 7.70553 41.0232 7.68029 41.044 7.66603L41.0451 7.66494ZM35.2018 8.91676C35.1886 8.91238 35.1743 8.90909 35.1612 8.9047C35.159 8.92225 35.1568 8.93981 35.1546 8.95736C35.1688 8.95407 35.1853 8.95407 35.1974 8.94748C35.2029 8.94419 35.2007 8.92774 35.2028 8.91676H35.2018Z" fill="#21201E"/>
<path d="M27.6282 5.74191C27.5492 6.20381 27.3221 6.52526 27.1883 6.85331C27.2464 6.99374 27.3452 6.9718 27.4252 6.9729C28.089 6.98167 28.7539 7.01568 29.4319 6.83685C29.4462 6.72275 29.4725 6.60426 29.4725 6.48577C29.4725 6.24111 29.4593 5.99535 29.4495 5.75069C29.4176 4.92784 29.3858 4.10499 29.354 3.28214C29.3441 3.03199 29.3869 2.82353 29.5866 2.62166C29.7764 2.43076 29.8883 2.15977 30.1319 1.94144C30.1637 2.02921 30.2021 2.08626 30.2021 2.14221C30.2109 3.26348 30.2153 4.38475 30.2218 5.50603C30.224 5.89112 30.2273 6.27621 30.2339 6.66131C30.2427 7.13637 30.0277 7.50172 29.6842 7.80562C29.6195 7.86267 29.5471 7.92631 29.467 7.94935C29.0984 8.05248 28.7297 8.18742 28.3534 8.22582C27.6743 8.29494 26.9897 8.30592 26.3073 8.33554C26.1899 8.34102 26.0725 8.32127 25.9288 8.3103C25.9518 7.94386 26.2206 7.6992 26.3007 7.34592C25.9397 7.38761 25.6468 7.55109 25.3297 7.62459C25.0236 7.69591 24.7208 7.78368 24.4125 7.84402C24.0878 7.90765 23.7839 8.04699 23.4394 8.04809C23.1311 8.04809 22.8228 8.1205 22.4816 8.16548C22.4508 8.01737 22.408 7.90327 22.407 7.79026C22.3993 7.24718 22.4026 6.7052 22.4026 6.16211C22.4026 5.37437 22.4124 4.58773 22.4026 3.79998C22.3993 3.52131 22.4618 3.28104 22.656 3.08136C22.7515 2.98262 22.8787 2.90253 22.9434 2.78733C23.0115 2.66664 23.0422 2.52731 23.221 2.45599C23.2375 2.52292 23.266 2.58326 23.2638 2.64251C23.2441 3.06161 23.2155 3.47962 23.1947 3.89872C23.1881 4.02051 23.2046 4.14229 23.2013 4.26407C23.1936 4.5965 23.1782 4.92894 23.1717 5.26137C23.1673 5.47202 23.1453 5.68596 23.1804 5.89112C23.2188 6.11823 22.9445 6.19393 22.9731 6.40897C23.0224 6.42433 23.0696 6.43969 23.1333 6.46054C23.1497 6.56476 23.1673 6.68325 23.187 6.80942C23.2397 6.82478 23.289 6.8577 23.3329 6.85111C24.0768 6.74908 24.8217 6.65692 25.5371 6.40458C26.0966 6.2071 26.6627 6.02826 27.2267 5.84395C27.3386 5.80774 27.4549 5.7847 27.6293 5.73972L27.6282 5.74191ZM29.9443 3.62883C29.8137 3.61676 29.7687 3.70234 29.7358 3.77804C29.7226 3.80876 29.7578 3.8713 29.7863 3.90641C29.7983 3.92177 29.862 3.91847 29.8806 3.90202C29.9278 3.85594 29.9761 3.80218 29.998 3.74184C30.009 3.71221 29.9618 3.66175 29.9443 3.62993V3.62883ZM25.3857 6.96631C25.3264 6.92243 25.2782 6.88732 25.2299 6.85111C25.2079 6.89061 25.1608 6.94218 25.1706 6.96851C25.1915 7.02117 25.2463 7.05957 25.2869 7.10345C25.3133 7.06615 25.3396 7.02885 25.3846 6.96631H25.3857ZM26.9502 6.44517C26.9041 6.4353 26.8624 6.41555 26.8229 6.42104C26.8043 6.42433 26.7933 6.4748 26.779 6.50442C26.8218 6.51978 26.8635 6.53843 26.9074 6.54611C26.914 6.54721 26.9304 6.49345 26.9502 6.44517ZM22.8732 5.8604C22.814 5.85492 22.7712 5.84833 22.7284 5.84833C22.7163 5.84833 22.7054 5.86918 22.6944 5.88015C22.7317 5.89661 22.769 5.91965 22.8085 5.92733C22.8217 5.92952 22.8425 5.89441 22.8743 5.8604H22.8732ZM28.2854 7.98774C28.2898 7.97458 28.2986 7.96032 28.2975 7.94715C28.2975 7.94057 28.2777 7.93618 28.2667 7.9307C28.2613 7.94496 28.2514 7.95812 28.2514 7.97239C28.2514 7.97787 28.2733 7.98336 28.2854 7.98774ZM28.6486 7.44467C28.6233 7.4326 28.5981 7.41943 28.5718 7.41175C28.5674 7.41065 28.5542 7.43479 28.5454 7.44796C28.5707 7.45893 28.5948 7.47319 28.6211 7.47977C28.6266 7.48087 28.6387 7.45783 28.6486 7.44467ZM29.8872 6.31571C29.8795 6.30255 29.8697 6.27621 29.8653 6.27731C29.8367 6.2828 29.8093 6.29487 29.7819 6.30474C29.7918 6.31681 29.8016 6.34095 29.8093 6.33985C29.8357 6.33656 29.8609 6.32559 29.8872 6.31681V6.31571Z" fill="#21201E"/>
<path d="M43.484 17.4355C43.4303 16.2034 43.4917 15.0152 43.4226 13.8204C43.2887 13.7787 43.1768 13.7436 43.0441 13.703C43.1944 13.4013 43.4412 13.1994 43.6475 12.9679C43.6903 12.9208 43.766 12.8791 43.8285 12.8769C44.4769 12.8483 45.1275 12.8319 45.7419 13.0842C46.466 13.3815 46.8347 13.9839 47.0519 14.6948C47.189 15.1424 47.1528 15.5967 47.0333 16.0432C46.906 16.5226 46.6295 16.8957 46.1928 17.1359C46.0096 17.2369 45.8176 17.329 45.6179 17.3894C44.9333 17.5967 44.2399 17.5507 43.484 17.4344V17.4355ZM44.3069 13.8303C44.2509 14.1781 44.297 14.4918 44.2959 14.8034C44.2937 15.1359 44.2992 15.4694 44.3124 15.8018C44.3233 16.1112 44.2893 16.425 44.3573 16.753C45.212 16.8507 46.0118 16.8287 46.7293 16.3592C46.7897 14.8934 45.8012 13.8522 44.308 13.8314L44.3069 13.8303ZM43.9185 15.9006C43.89 15.9203 43.8614 15.9412 43.834 15.9609C43.8746 16.0333 43.9108 16.109 43.958 16.177C43.9679 16.1913 44.0249 16.1891 44.0436 16.1749C44.0644 16.1584 44.0842 16.1057 44.0743 16.0904C44.0293 16.0234 43.9722 15.9642 43.9196 15.9017L43.9185 15.9006Z" fill="#21201E"/>
<path d="M32.5709 11.5687C32.5292 11.4371 32.4568 11.312 32.4568 11.1869C32.4546 10.781 32.335 10.3948 32.2856 9.99763C32.1694 9.06945 32.3646 8.24331 32.9659 7.49835C33.2149 7.19116 33.4717 6.93114 33.8183 6.75121C34.1453 6.58115 34.345 6.31126 34.4591 5.96127C34.5885 5.5663 34.7509 5.1834 34.8716 4.78514C34.9265 4.60411 35.0087 4.42418 35.1152 4.26949C35.3017 3.9974 35.6209 3.92938 35.8996 4.1115C36.2452 4.33751 36.4822 4.66336 36.6171 5.05284C36.649 5.1461 36.6555 5.27227 36.6204 5.36004C36.2693 6.22458 35.791 6.98709 34.8672 7.34256C34.3965 7.52359 33.9138 7.6728 33.4365 7.83627C33.4036 7.84725 33.3663 7.84615 33.3345 7.85821C33.0251 7.98548 32.9044 8.17419 32.9395 8.50881C32.99 8.97729 33.0361 9.44687 33.1151 9.91096C33.1425 10.0722 33.1568 10.2214 33.1041 10.3718C32.9714 10.7503 32.832 11.1266 32.6916 11.5029C32.6828 11.527 32.6345 11.5358 32.572 11.5687H32.5709ZM35.4597 5.39405C35.418 5.43245 35.3774 5.45878 35.3521 5.49499C35.2786 5.60031 35.3379 5.68808 35.4103 5.7583C35.4344 5.78134 35.509 5.78353 35.5408 5.76378C35.6539 5.69466 35.6242 5.59373 35.5705 5.50267C35.5474 5.46317 35.5024 5.43574 35.4586 5.39405H35.4597ZM36.0971 5.59373C36.085 5.57288 36.0741 5.55204 36.062 5.53119C36.0543 5.54216 36.0379 5.55643 36.0411 5.5641C36.0477 5.58605 36.062 5.6069 36.0741 5.62774C36.0817 5.61567 36.0894 5.6047 36.0971 5.59263V5.59373Z" fill="#21201E"/>
<path d="M38.0291 18.4171C38.5876 18.4314 39.1493 18.4171 39.7044 18.4709C40.129 18.5115 40.4911 18.3908 40.863 18.212C40.9936 17.8883 40.9508 17.5647 40.9091 17.218C40.8224 17.2333 40.7544 17.2399 40.6897 17.2575C40.5712 17.2893 40.456 17.3354 40.3364 17.3617C39.8635 17.4659 39.4203 17.422 39.0813 17.0358C38.7357 16.6431 38.6786 16.1713 38.8695 15.705C39.1252 15.0808 39.6101 14.6507 40.2091 14.3545C40.5207 14.1998 40.8235 14.27 41.123 14.4773C41.3414 14.3347 41.5553 14.1954 41.7868 14.0451C41.8066 14.1197 41.8384 14.1723 41.8263 14.2107C41.6387 14.8109 41.71 15.4285 41.6924 16.0397C41.6815 16.4423 41.687 16.846 41.6881 17.2487C41.6892 17.7446 41.5125 18.1769 41.1976 18.5499C40.7094 19.127 40.1016 19.3409 39.3621 19.1204C38.8783 18.9756 38.423 18.7737 37.9907 18.5203C38.0039 18.4863 38.0159 18.4512 38.0291 18.4171ZM39.6375 14.9721C39.5212 15.2859 39.4675 15.5909 39.5113 15.9069C39.609 16.6124 40.1751 16.9931 40.9201 16.8417C40.9716 16.5564 40.9475 16.2613 40.9442 15.9694C40.9387 15.422 40.4746 14.9359 39.9326 14.9074C39.835 14.9019 39.7352 14.9491 39.6364 14.9721H39.6375Z" fill="#21201E"/>
<path d="M13.3622 14.2843C13.3392 13.9519 13.4544 13.6842 13.3831 13.4033C13.3501 13.2727 13.4105 13.1652 13.5103 13.0797C13.6672 12.9447 13.8252 12.8087 13.9634 12.6891C14.1225 12.7308 14.0962 12.8273 14.094 12.9096C14.0841 13.468 14.1203 14.0331 14.0479 14.5827C13.9909 15.0194 14.0721 15.4407 14.0567 15.8697C14.0402 16.3041 14.083 16.7408 14.0962 17.1775C14.0984 17.2444 14.0786 17.3124 14.071 17.3738C13.5772 17.5187 13.529 17.5022 13.3117 17.1149C13.1625 17.2038 13.0177 17.3014 12.863 17.3804C12.4033 17.6152 11.9842 17.4748 11.5805 17.2268C11.4543 16.9701 11.1756 16.8055 11.1581 16.4786C11.1394 16.1242 11.1164 15.7676 11.3512 15.4747C11.5805 15.1905 11.8284 14.9195 12.0939 14.6694C12.3276 14.4489 12.6184 14.3282 12.9508 14.3271C13.0693 14.3271 13.1889 14.303 13.3622 14.2832V14.2843ZM11.9337 14.9985C11.5519 16.0277 12.0862 16.8648 13.1197 16.9065C13.2624 16.9119 13.3633 16.8406 13.3688 16.7002C13.3809 16.3864 13.3677 16.0715 13.3842 15.7578C13.3995 15.4714 13.2547 15.3046 13.0276 15.1708C12.6941 14.9755 12.3386 14.9459 11.9337 14.9985Z" fill="#21201E"/>
<path d="M33.4354 17.3784C33.2533 17.4958 33.0788 17.4585 32.9066 17.4354C32.7267 17.4113 32.7771 17.2105 32.6608 17.1151C32.5445 17.1853 32.4326 17.273 32.3065 17.3257C32.1309 17.3981 31.9444 17.487 31.7612 17.4914C31.0601 17.5078 30.7277 17.2226 30.5159 16.4688C30.4062 16.0772 30.5181 15.6997 30.7683 15.3805C30.9405 15.1611 31.1336 14.9548 31.3333 14.7595C31.7096 14.3909 32.1594 14.2482 32.7135 14.3711C32.719 14.0584 32.7321 13.7468 32.7267 13.4353C32.7245 13.2839 32.753 13.1588 32.8737 13.0633C33.0339 12.9361 33.1644 12.7693 33.3465 12.6925C33.3871 12.7133 33.4058 12.7188 33.4168 12.7309C33.4277 12.743 33.4332 12.7616 33.4343 12.7781C33.4387 12.8472 33.4453 12.9174 33.4431 12.9876C33.4222 14.0727 33.3948 15.1589 33.3838 16.2439C33.3795 16.6246 33.4168 17.0064 33.4343 17.3784H33.4354ZM31.2938 15.0053C31.0535 15.5516 31.1172 16.0958 31.4595 16.4798C31.7612 16.8188 32.1978 16.9351 32.7146 16.798C32.753 16.4458 32.7212 16.0805 32.7354 15.7173C32.7442 15.499 32.6356 15.3574 32.4754 15.2346C32.1156 14.9581 31.7129 14.9285 31.2938 15.0042V15.0053ZM31.0118 16.2944C30.9701 16.2823 30.9504 16.2692 30.9394 16.2746C30.8846 16.3032 30.8297 16.3328 30.7847 16.3723C30.7792 16.3778 30.8253 16.4436 30.8473 16.4809C30.8955 16.4447 30.9449 16.4096 30.991 16.3701C31.002 16.3613 31.0009 16.3394 31.0118 16.2955V16.2944ZM33.1447 15.0426C33.1304 14.9965 33.1183 14.9405 33.1118 14.9405C33.069 14.9449 33.0284 14.9614 32.9867 14.9745C32.9998 15.014 33.0119 15.0524 33.0251 15.0919C33.0657 15.0755 33.1052 15.0579 33.1447 15.0426Z" fill="#21201E"/>
<path d="M50.6791 16.8645C50.5551 17.0675 50.3631 17.22 50.1711 17.3703C50.1305 17.4021 50.0482 17.3813 49.9846 17.3846C49.9846 17.3199 49.9868 17.254 49.9879 17.1893C49.9879 17.1717 49.9879 17.1553 49.9879 17.107C49.8211 17.0785 49.6203 17.0829 49.56 16.8218C49.3702 16.9688 49.2177 17.0587 49.1014 17.1816C48.792 17.5108 48.3849 17.4888 47.9955 17.4932C47.7278 17.4965 47.5237 17.2595 47.4776 16.9808C47.3942 16.4827 47.6872 15.7082 48.3784 15.5688C48.532 15.5381 48.6889 15.5195 48.8435 15.4931C49.0301 15.4624 49.2265 15.4767 49.4316 15.3593C49.4119 15.2101 49.3921 15.0619 49.3746 14.9391C49.1683 14.8162 48.9982 14.8809 48.8282 14.9138C48.6395 14.95 48.4519 14.995 48.2643 15.0323C48.0701 15.0718 47.8825 15.0554 47.6916 14.938C47.7958 14.6856 48.0042 14.5276 48.2094 14.3751C48.2719 14.3291 48.3762 14.3148 48.4585 14.3236C48.8501 14.3653 49.2243 14.2709 49.6028 14.2018C49.9824 14.1327 50.1733 14.261 50.2161 14.6385C50.238 14.8283 50.2314 15.0235 50.2237 15.2155C50.2018 15.774 50.3005 16.2962 50.6494 16.7504C50.6681 16.7746 50.667 16.8141 50.6802 16.8634L50.6791 16.8645ZM48.6055 15.9693C48.4266 15.9945 48.2511 16.0077 48.081 16.0439C47.8967 16.0834 47.8364 16.248 47.9362 16.4059C48.1524 16.7493 48.6921 16.9721 49.0838 16.8755C49.2616 16.8316 49.4009 16.7307 49.4985 16.5771C49.6401 16.3533 49.5391 16.1064 49.2769 16.0581C49.0542 16.0165 48.8271 15.9978 48.6055 15.9693Z" fill="#21201E"/>
<path d="M6.19577 15.4193C6.21881 15.3162 6.23527 15.2811 6.23308 15.2493C6.20455 14.8806 6.12995 14.8104 5.77557 14.8894C5.43326 14.9662 5.09425 15.0452 4.74207 15.0299C4.66308 15.0266 4.58518 14.9893 4.49412 14.9651C4.59834 14.67 4.84959 14.5537 5.02842 14.3727C5.07011 14.331 5.16118 14.3156 5.22481 14.3244C5.63404 14.3803 6.02462 14.2838 6.41849 14.2048C6.77726 14.1324 6.85954 14.1862 6.98461 14.5537C7.00656 14.6184 7.04276 14.6843 7.04386 14.7501C7.05373 15.1516 7.05812 15.5543 7.05593 15.9558C7.05593 16.0184 7.00985 16.0809 6.98461 16.1423C7.27755 16.2948 7.31485 16.6174 7.5277 16.8215C7.3335 17.0892 7.12944 17.2724 6.89245 17.4293C6.59952 17.3547 6.56551 17.0277 6.3384 16.8752C6.15408 16.9444 6.01584 17.0804 5.87431 17.2055C5.60881 17.4403 5.29722 17.5171 4.95272 17.5116C4.45572 17.5039 4.24397 17.1594 4.27908 16.7041C4.32955 16.0337 4.84191 15.5576 5.46398 15.5225C5.70535 15.5093 5.94453 15.4555 6.19358 15.4182L6.19577 15.4193ZM6.28025 16.1215C5.88528 15.9909 5.47386 15.946 5.05146 16.0107C4.91322 16.0326 4.7684 16.0447 4.6927 16.1917C4.81009 16.5209 4.90445 16.6372 5.16556 16.771C5.40913 16.8961 5.67134 16.9444 5.92807 16.8577C6.06741 16.8105 6.20126 16.6997 6.29561 16.5823C6.39984 16.4517 6.36583 16.285 6.28025 16.1204V16.1215ZM6.86941 16.6668C6.84308 16.6262 6.82772 16.602 6.81236 16.579C6.78164 16.6097 6.74654 16.6372 6.72459 16.6723C6.71911 16.6799 6.76519 16.737 6.77067 16.7337C6.80688 16.7161 6.8376 16.6898 6.87051 16.6668H6.86941ZM6.00268 14.5274C5.99171 14.5175 5.98074 14.5076 5.97086 14.4966C5.95989 14.5208 5.94453 14.5438 5.93904 14.5691C5.93685 14.5778 5.9566 14.5921 5.96538 14.6031C5.97744 14.5778 5.98951 14.5537 6.00268 14.5263V14.5274Z" fill="#21201E"/>
<path d="M52.9611 16.7816C53.0642 16.6566 53.1213 16.5172 53.1125 16.3504C53.1059 16.2276 53.1103 16.1047 53.1125 15.9818C53.1191 15.4958 53.0544 15.001 53.3484 14.4733C53.4384 14.4008 53.5854 14.2571 53.8169 14.1693C53.8377 14.256 53.8662 14.3186 53.8651 14.3811C53.8564 14.7475 53.8333 15.114 53.8289 15.4815C53.8267 15.6362 53.8651 15.7909 53.8673 15.9456C53.8728 16.3494 53.8794 16.7531 53.8651 17.1557C53.8355 17.9841 53.3989 18.5711 52.7186 18.9891C52.294 19.2502 51.8124 19.2469 51.3461 19.1481C50.5397 18.9781 49.7619 18.7104 49.0005 18.3977C48.9796 18.3889 48.9752 18.3407 48.9489 18.277C49.2155 18.2485 49.4689 18.2858 49.7235 18.2946C50.4596 18.3187 51.1947 18.3483 51.9309 18.3615C52.384 18.3703 52.5409 18.3198 53.0653 18.0784C53.1136 17.7142 53.1081 17.3291 53.1224 16.9451C53.1268 16.8376 53.0357 16.8047 52.9545 16.7696L52.9644 16.7805L52.9611 16.7816ZM53.5283 16.4942C53.4768 16.5337 53.4307 16.5512 53.4285 16.5732C53.4197 16.6533 53.4263 16.7355 53.4285 16.8167C53.4285 16.8178 53.4548 16.8211 53.468 16.8189C53.5601 16.7981 53.6029 16.695 53.5722 16.5644C53.5689 16.549 53.5547 16.5359 53.5283 16.4942ZM51.1245 18.8047C51.1508 18.819 51.1772 18.8333 51.2035 18.8475L51.22 18.7751C51.1914 18.7707 51.1629 18.7652 51.1344 18.7652C51.1311 18.7652 51.1278 18.7916 51.1245 18.8047Z" fill="#21201E"/>
<path d="M0.434625 16.6146C0.588224 16.4873 0.71988 16.3732 0.858119 16.2668C1.03915 16.1275 1.19604 16.1318 1.38584 16.2734C1.42753 16.3041 1.46593 16.3414 1.50214 16.3798C1.9377 16.8439 2.48956 16.8472 3.05787 16.7627C3.22793 16.7375 3.29595 16.6343 3.28718 16.4654C3.26743 16.1231 3.12041 15.8576 2.79785 15.7193C2.65523 15.6579 2.50053 15.6129 2.34693 15.5877C2.08801 15.546 1.8236 15.535 1.56467 15.4955C1.26077 15.4494 0.990872 15.343 0.867993 15.0259C0.903102 14.9963 0.925044 14.9623 0.952473 14.9568C1.03476 14.9393 1.08084 14.891 1.05889 14.8153C1.04902 14.7791 0.987581 14.7506 0.943696 14.7341C0.897616 14.7165 0.843856 14.7187 0.78132 14.71C0.675995 14.1833 1.01501 13.9156 1.3639 13.6139C1.41108 13.8202 1.4396 13.9913 1.48897 14.157C1.58771 14.485 1.80166 14.7045 2.14177 14.7725C2.38204 14.8208 2.6267 14.846 2.86917 14.8811C3.02496 14.9042 3.18185 14.9195 3.33545 14.9513C3.90925 15.0676 4.25814 15.8894 3.7392 16.3568C3.50551 16.5674 3.30912 16.8208 3.06994 17.0249C2.17688 17.7874 1.19823 17.658 0.435722 16.6135L0.434625 16.6146Z" fill="#21201E"/>
<path d="M17.1835 13.3396C17.4457 12.9973 17.7475 12.791 18.1446 12.8173C18.4847 12.8404 18.8545 12.7866 19.1189 13.1103C19.4206 12.8832 19.7629 12.9369 20.1469 12.8744C19.9483 13.2013 19.7607 13.4548 19.4008 13.4965C19.0015 13.5436 18.5999 13.5754 18.1819 13.616C18.059 13.819 18.1413 14.0505 18.1205 14.2699C18.1007 14.4784 18.0645 14.6879 18.1863 14.9074C18.4211 15.0248 18.6701 15.0961 18.9653 15.0193C19.1452 14.9721 19.3471 15.0105 19.5347 15.0105C19.3635 15.4318 19.0541 15.6359 18.6328 15.5997C18.5484 15.5931 18.4639 15.581 18.3805 15.5887C18.3125 15.5942 18.2467 15.626 18.149 15.6545C18.0777 16.2184 18.1655 16.7944 18.0974 17.3902C17.8868 17.4505 17.6904 17.4648 17.4809 17.3737C17.3689 17.1192 17.381 16.8647 17.471 16.6112C17.5138 16.4916 17.5291 16.3852 17.4721 16.259C17.4304 16.1691 17.415 16.0528 17.4293 15.954C17.4841 15.5711 17.3909 15.1937 17.4106 14.813C17.4183 14.6583 17.4457 14.5047 17.4666 14.3511C17.4732 14.3006 17.5072 14.2403 17.4896 14.203C17.3898 13.9902 17.3964 13.7609 17.3591 13.5381C17.3481 13.4701 17.2537 13.4164 17.1824 13.3407L17.1835 13.3396Z" fill="#21201E"/>
<path d="M27.8225 14.2096C27.8455 14.4631 27.8642 14.6617 27.8872 14.9206C28.0507 14.7999 28.1725 14.711 28.292 14.6211C28.5202 14.4477 28.7682 14.3347 29.06 14.3171C29.3277 14.3007 29.5472 14.3885 29.6865 14.6145C29.7765 14.7604 29.8598 14.9228 29.8982 15.0884C30.0705 15.8466 30.02 16.6113 29.9729 17.3957C29.7271 17.4133 29.5077 17.5296 29.2915 17.3518C29.2915 17.0578 29.2784 16.7605 29.2948 16.4664C29.3157 16.0967 29.2773 15.7368 29.1654 15.3869C29.105 15.1981 28.9931 15.0467 28.8033 14.959C28.6552 14.8899 28.5082 14.8536 28.348 14.9074C28.2163 14.9513 28.0825 14.9897 27.9607 15.027C27.8126 15.1828 27.8444 15.3616 27.8455 15.5339C27.8488 16.0418 27.8532 16.5487 27.851 17.0567C27.851 17.1741 27.8258 17.2915 27.8104 17.4297C27.6502 17.4374 27.5131 17.4506 27.3759 17.4473C27.309 17.4462 27.2432 17.4144 27.1708 17.3935C27.1488 17.32 27.1126 17.2542 27.1126 17.1884C27.1071 16.4895 27.1104 15.7906 27.1038 15.0917C27.1017 14.8833 27.1653 14.7154 27.3321 14.5892C27.4802 14.4762 27.6261 14.3621 27.8225 14.2107V14.2096Z" fill="#21201E"/>
<path d="M25.6336 16.8789C25.4713 16.9985 25.355 17.0962 25.2266 17.1762C25.095 17.2585 24.949 17.3189 24.8152 17.399C24.6561 17.4933 24.486 17.5153 24.3083 17.4988C24.0845 17.478 23.898 17.3715 23.7992 17.1719C23.7071 16.9864 23.6226 16.7868 23.5886 16.5838C23.5019 16.0649 23.48 15.5393 23.4986 15.0116C23.5063 14.7812 23.5809 14.6057 23.7762 14.4806C23.9057 14.3972 24.0318 14.3083 24.147 14.2304C24.2908 14.3226 24.2403 14.4356 24.2403 14.5322C24.2403 14.9348 24.2227 15.3386 24.2326 15.7412C24.2381 15.9497 24.2699 16.1614 24.3215 16.3644C24.4158 16.7341 24.678 16.9228 25.0587 16.8899C25.2453 16.8745 25.4285 16.8076 25.6106 16.7648C25.7083 16.371 25.6512 16.0012 25.6786 15.637C25.6896 15.4976 25.672 15.3572 25.6709 15.2168C25.6698 14.9173 25.6852 14.9238 25.8092 14.6364C25.8794 14.4729 26.0231 14.417 26.1405 14.3204C26.1932 14.2765 26.2557 14.2469 26.327 14.2019C26.3599 14.2568 26.406 14.2974 26.406 14.3391C26.4093 15.3199 26.4071 16.3018 26.4049 17.2827C26.4049 17.3145 26.383 17.3463 26.361 17.4034C26.157 17.4834 25.9419 17.4845 25.7028 17.3803C25.683 17.23 25.6622 17.0819 25.6347 16.8778L25.6336 16.8789Z" fill="#21201E"/>
<path d="M38.1925 17.4081C37.9314 17.4783 37.7306 17.474 37.5463 17.3895C37.4498 17.1997 37.4969 17.023 37.4947 16.8508C37.4915 16.5184 37.5013 16.1848 37.486 15.8524C37.4794 15.6977 37.4432 15.5386 37.3916 15.3927C37.2523 14.9988 36.9747 14.8386 36.5742 14.9143C36.4382 14.9396 36.3065 14.9922 36.1453 15.0405C36.1266 15.1546 36.0915 15.2709 36.0904 15.3872C36.0838 15.9303 36.0871 16.4745 36.0849 17.0175C36.0849 17.1371 36.0751 17.2578 36.0685 17.3873C35.8315 17.4882 35.6175 17.4871 35.3652 17.3631C35.3586 17.2041 35.3466 17.0307 35.3466 16.8585C35.3466 16.2452 35.352 15.6319 35.3509 15.0186C35.3509 14.8694 35.3817 14.7421 35.5002 14.6444C35.6702 14.5029 35.8063 14.3164 36.0674 14.2045C36.0816 14.4448 36.0948 14.6455 36.1069 14.8529C36.3076 14.8628 36.3921 14.707 36.5117 14.6214C36.7597 14.4437 37.023 14.3219 37.3346 14.3153C37.6264 14.3098 37.8623 14.4228 37.972 14.6894C38.0773 14.9451 38.1662 15.2193 38.198 15.4925C38.2704 16.119 38.2408 16.7487 38.1903 17.407L38.1925 17.4081ZM37.8612 16.5699L37.8392 16.5984L37.87 16.6083L37.8612 16.5688V16.5699Z" fill="#21201E"/>
<path d="M39.5893 22.3275C39.665 22.006 39.8032 21.814 39.9612 21.6483C40.4374 21.599 46.2335 21.6001 46.7448 21.6494C46.7678 21.8996 46.6033 22.0664 46.4672 22.2364C46.4222 22.2924 46.3125 22.322 46.2335 22.3198C45.8528 22.3099 45.4655 22.4032 45.0925 22.2551C45.0475 22.2375 44.9828 22.2331 44.94 22.2507C44.6021 22.3922 44.2488 22.3286 43.9032 22.3297C42.6097 22.3352 41.3151 22.3286 40.0215 22.3264C39.8998 22.3264 39.778 22.3264 39.5904 22.3264L39.5893 22.3275ZM42.4462 22.0554C42.3749 22.0203 42.331 21.9797 42.297 21.9863C42.2586 21.9939 42.2301 22.0455 42.1972 22.0784C42.2356 22.1037 42.274 22.1486 42.3135 22.1486C42.3486 22.1486 42.3848 22.1015 42.4473 22.0554H42.4462Z" fill="#21201E"/>
<path d="M10.6567 17.4256C10.3923 17.4409 10.1893 17.4991 9.96661 17.3773C9.94028 17.2369 9.91176 17.0866 9.87665 16.9C9.72634 17.0076 9.5881 17.1063 9.45096 17.2051C9.23482 17.3608 9.00223 17.4782 8.73234 17.4991C8.46902 17.5199 8.26496 17.4354 8.10148 17.2094C7.89742 16.9253 7.79319 16.6005 7.81513 16.2747C7.83707 15.9598 7.78112 15.6559 7.77893 15.3465C7.77234 14.5247 7.79538 14.7003 8.32749 14.2779C8.3637 14.2494 8.41856 14.2439 8.45586 14.2307C8.48109 14.2505 8.50413 14.2603 8.50413 14.2702C8.50194 14.5489 8.50633 14.8287 8.49097 15.1062C8.47012 15.4551 8.46793 15.8029 8.53705 16.1474C8.56447 16.2835 8.60507 16.4206 8.66761 16.5435C8.81901 16.8463 9.00662 16.9363 9.34783 16.8946C9.4345 16.8836 9.52227 16.8748 9.60675 16.8518C9.69014 16.8287 9.77023 16.7903 9.87775 16.7497C9.89091 16.6411 9.90847 16.5237 9.91944 16.4063C9.95455 16.0267 9.85032 15.6383 10.0061 15.2653C10.0259 15.2181 9.96991 15.1391 9.95016 15.0744C9.88104 14.8495 9.92383 14.663 10.1235 14.5215C10.276 14.4139 10.4121 14.2801 10.6073 14.2088C10.6304 14.29 10.6556 14.3371 10.6556 14.3843C10.6578 15.3783 10.6578 16.3723 10.6578 17.4256H10.6567Z" fill="#21201E"/>
<path d="M5.1282 22.3044C5.19951 21.9939 5.33556 21.8019 5.54511 21.6121C6.09587 21.6647 6.66967 21.5177 7.23579 21.6944C7.26651 21.7042 7.3104 21.7064 7.33783 21.6922C7.60114 21.5452 7.8864 21.6187 8.16178 21.6154C9.00109 21.6055 9.84039 21.611 10.6797 21.6121C10.852 21.6121 11.022 21.5923 11.1646 21.7437C11.2798 21.8655 11.4312 21.781 11.5585 21.735C11.79 21.6527 12.016 21.5572 12.2936 21.656C12.287 21.8886 12.1389 22.0608 12.005 22.2309C11.9601 22.2879 11.8525 22.3142 11.7714 22.3197C11.5442 22.3329 11.316 22.3439 11.0889 22.3274C10.4098 22.2802 9.73178 22.3504 9.05265 22.3329C8.37023 22.3153 7.68781 22.3296 7.0054 22.3241C6.83205 22.323 6.6587 22.2934 6.48426 22.2857C6.36467 22.2802 6.24289 22.2802 6.1244 22.2978C5.81062 22.345 5.49903 22.3296 5.1282 22.3033V22.3044Z" fill="#21201E"/>
<path d="M31.5977 1.59111C31.6284 1.74032 31.6592 1.81931 31.6603 1.8983C31.6712 3.07224 31.6822 4.24727 31.6866 5.42121C31.6888 5.92808 31.6767 6.43496 31.6712 6.94074C31.6712 7.00986 31.68 7.08117 31.6635 7.147C31.6186 7.33351 31.2236 7.88427 30.9833 8.09053C30.9713 8.00276 30.9559 7.94023 30.9559 7.87879C30.9537 6.6884 30.912 5.4991 30.8593 4.30981C30.8495 4.0838 30.8758 3.86108 30.9087 3.63507C30.9405 3.42113 30.8582 3.19073 30.8297 2.96691C30.7924 2.66959 30.889 2.41944 31.0875 2.19672C31.2488 2.01789 31.3783 1.81053 31.5966 1.59001L31.5977 1.59111ZM31.1413 4.6181C31.0645 4.68612 30.9789 4.72672 30.957 4.78925C30.9186 4.89677 31.0491 5.00978 31.1764 5.001C31.2741 4.99332 31.3662 4.87922 31.3267 4.78267C31.3015 4.72123 31.2181 4.68393 31.1413 4.6192V4.6181Z" fill="#21201E"/>
<path d="M25.1202 5.20558C25.2299 4.98616 25.2946 4.84682 25.3692 4.71297C25.4877 4.49903 25.5963 4.27631 25.7412 4.08102C25.818 3.97679 25.9606 3.91864 26.0758 3.84514C26.1032 3.82758 26.1427 3.82758 26.1778 3.82319C26.8526 3.74968 27.5262 3.67618 28.2492 3.59828C28.2229 3.72555 28.2218 3.81113 28.1878 3.88025C28.0803 4.09967 27.9541 4.31142 27.8466 4.53085C27.7116 4.80842 27.4977 4.95653 27.1905 4.98396C26.9469 5.00591 26.7034 5.03882 26.4598 5.06734C26.1296 5.10684 25.8004 5.14853 25.4702 5.18693C25.3857 5.1968 25.3001 5.19681 25.1191 5.20558H25.1202Z" fill="#21201E"/>
<path d="M21.2693 21.1267C20.3828 20.8886 20.4596 20.8622 19.8946 21.1387C19.9055 20.8502 20.0207 20.5737 20.2851 20.4234C20.8293 20.114 21.4646 20.1787 21.6895 20.871C21.797 21.2035 21.7608 21.537 21.5556 21.8266C21.4141 22.0263 21.2462 22.2062 21.0806 22.3873C20.9412 22.5409 20.7876 22.6824 20.6044 22.8656C20.8337 22.9687 21.0038 23.0697 21.2276 22.9973C21.3976 22.9424 21.5721 22.938 21.7608 23.017C21.729 23.2288 21.6105 23.3944 21.4646 23.5777C21.3384 23.5864 21.2023 23.604 21.0652 23.604C20.6132 23.604 20.1601 23.6007 19.708 23.5941C19.6795 23.5941 19.651 23.5645 19.6005 23.536C19.6916 23.2452 19.8748 23.0269 20.1162 22.8382C20.3916 22.622 20.6549 22.3895 20.916 22.1569C21.1212 21.9736 21.2407 21.752 21.2111 21.4602C21.2012 21.3647 21.244 21.2638 21.2693 21.1267Z" fill="#21201E"/>
<path d="M38.3297 23.2886C38.1575 23.0945 38.1246 22.8553 38.1059 22.6106C38.0928 22.4384 38.0796 22.2672 38.0664 22.0928C37.836 22.1191 37.6309 22.1641 37.4257 22.1619C37 22.1564 36.7356 21.8766 36.7685 21.4531C36.8058 20.9605 37.0209 20.5458 37.4213 20.2474C37.7197 20.0247 38.0302 20.0828 38.2343 20.3878C38.3627 20.5787 38.446 20.7894 38.4537 21.0231C38.4614 21.2655 38.4592 21.508 38.4735 21.7494C38.4987 22.1729 38.5887 22.5777 38.8487 22.9068C38.8256 23.1087 38.7719 23.27 38.6402 23.3984L38.6523 23.4137C38.6413 23.383 38.6347 23.3512 38.6205 23.3227C38.5195 23.135 38.4768 23.1329 38.3177 23.3029L38.3319 23.2875L38.3297 23.2886ZM38.0675 21.4751C38.0511 21.3873 38.0434 21.3028 38.0182 21.2238C37.9918 21.1426 37.9556 21.0626 37.9128 20.988C37.7757 20.7532 37.6133 20.7246 37.4027 20.8925C37.2096 21.045 37.214 21.2677 37.4169 21.4125C37.6133 21.553 37.824 21.5903 38.0686 21.474L38.0675 21.4751Z" fill="#21201E"/>
<path d="M11.677 10.1153C11.7506 9.70611 11.9941 9.42415 12.1565 9.10598C12.2103 9.00065 12.2947 8.89314 12.3935 8.83389C12.6052 8.70662 12.8411 8.6397 13.0956 8.69784C13.1593 8.71211 13.2394 8.74612 13.2887 8.72198C13.7155 8.5234 14.1862 8.61117 14.6272 8.50804C14.6547 8.50146 14.6898 8.53108 14.7304 8.54754C14.7304 8.59471 14.7479 8.65286 14.7271 8.69346C14.5943 8.96006 14.4528 9.22118 14.3168 9.48559C14.2037 9.70392 14.0271 9.83009 13.7824 9.85861C13.314 9.91347 12.8444 9.96723 12.3759 10.0243C12.1543 10.0506 11.9338 10.0813 11.677 10.1153ZM13.8812 9.12792C13.8636 9.0994 13.8461 9.07087 13.8285 9.04125C13.7199 9.06538 13.6113 9.09062 13.461 9.12463C13.5301 9.24202 13.5762 9.31992 13.6475 9.43841C13.7451 9.30895 13.8143 9.21898 13.8823 9.12792H13.8812ZM12.5284 9.80376C12.4023 9.75 12.3584 9.71379 12.3309 9.72367C12.2969 9.73573 12.275 9.78401 12.2476 9.81692C12.2805 9.84106 12.3134 9.88494 12.3463 9.88494C12.3891 9.88494 12.4319 9.84874 12.5284 9.80376Z" fill="#21201E"/>
<path d="M34.5808 23.5596C34.5051 22.0533 34.4996 22.0313 33.928 20.751C33.9971 20.6061 34.0783 20.4361 34.1485 20.2869C34.2966 20.2441 34.3263 20.3406 34.3745 20.4065C34.4908 20.5655 34.6345 20.6895 34.8222 20.7553C35.0789 20.8453 35.2654 20.7553 35.3554 20.4953C35.3817 20.4174 35.3883 20.3329 35.4234 20.153C35.487 20.3362 35.5024 20.4449 35.5583 20.5249C35.6165 20.6072 35.7097 20.6676 35.7942 20.729C35.8974 20.8036 36.0466 20.751 36.0915 20.6237C36.1146 20.559 36.1168 20.4876 36.131 20.4196C36.1431 20.3593 36.1585 20.2989 36.1837 20.1848C36.2704 20.2616 36.3428 20.2956 36.3603 20.3483C36.4755 20.6862 36.4086 21.0044 36.21 21.2918C36.0718 21.4904 35.9017 21.5376 35.6571 21.4619C35.5748 21.4367 35.4991 21.3895 35.4223 21.3533C35.2731 21.4125 35.1283 21.4696 34.9527 21.5398C34.9604 21.6813 34.9779 21.8327 34.9758 21.9841C34.9692 22.2979 34.9758 22.6139 34.9308 22.9233C34.9001 23.1394 34.832 23.3654 34.5808 23.5607V23.5596Z" fill="#21201E"/>
<path d="M50.8656 8.61289C52.5387 8.17732 52.7987 8.12905 53.2496 8.17952C53.2123 8.29581 53.1926 8.4143 53.1388 8.51414C52.9885 8.78952 52.8678 9.10221 52.6517 9.31396C52.4432 9.51802 52.0955 9.47962 51.8069 9.53667C51.3297 9.63103 50.8524 9.72209 50.3302 9.82303C50.3389 9.7166 50.3269 9.64748 50.3532 9.59592C50.5189 9.26787 50.6922 8.94532 50.8678 8.61289H50.8656Z" fill="#21201E"/>
<path d="M27.5339 23.7143C27.4922 23.2458 27.8312 23.2206 28.1571 23.1789C28.2514 23.0527 28.3392 22.9222 28.4413 22.8048C28.5433 22.6863 28.6486 22.5656 28.7726 22.4724C29.0249 22.2825 29.2959 22.412 29.331 22.7335C29.3398 22.8147 29.308 22.9013 29.286 23.0352C29.3958 23.0012 29.4715 22.9781 29.5537 22.9529C29.5834 22.5777 29.4989 22.2518 29.3124 21.9183C29.1928 21.96 29.0853 21.9732 29.0096 22.0302C28.8702 22.1344 28.755 22.2683 28.6212 22.3802C28.5773 22.4164 28.5082 22.4241 28.4467 22.446C28.4325 22.3802 28.4105 22.3407 28.4215 22.3177C28.619 21.9315 28.924 21.6462 29.2992 21.4443C29.5856 21.2907 29.9037 21.4564 29.9904 21.7801C30.2252 22.6534 29.7128 23.4773 28.8132 23.5969C28.4336 23.6474 28.0551 23.7121 27.6744 23.7549C27.6283 23.7604 27.5789 23.7286 27.535 23.7154L27.5339 23.7143ZM28.6124 23.056C28.6738 23.0615 28.7166 23.067 28.7605 23.067C28.7726 23.067 28.7836 23.0483 28.7956 23.0374C28.7605 23.022 28.7265 22.9979 28.6903 22.9935C28.6728 22.9913 28.6508 23.0242 28.6124 23.056Z" fill="#21201E"/>
<path d="M22.113 16.6646C21.9386 17.0475 21.582 17.2055 21.2243 17.3328C20.9489 17.4304 20.6626 17.3459 20.4256 17.1792C20.1491 16.985 19.9286 16.7381 19.8683 16.3848C19.8562 16.3157 19.8386 16.2488 19.8233 16.1808C19.7147 15.6816 19.8364 15.2438 20.1831 14.873C20.2885 14.76 20.4201 14.6711 20.5397 14.5713L20.5298 14.5559C20.5134 14.6931 20.4991 14.8302 20.4816 14.9673C20.4004 15.5763 20.6823 16.0425 21.074 16.4638C21.119 16.5121 21.1958 16.5264 21.255 16.5626C21.5271 16.7304 21.8299 16.6613 22.1218 16.6734L22.1119 16.6657L22.113 16.6646Z" fill="#21201E"/>
<path d="M20.5407 14.571C20.6965 14.4108 20.8336 14.2243 21.0125 14.0937C21.5534 13.6998 22.1689 13.7986 22.5803 14.323C23.0191 14.8826 23.0126 15.7734 22.5485 16.3099C22.4278 16.4493 22.2588 16.548 22.1118 16.6643L22.1217 16.672C22.1294 16.604 22.1272 16.5326 22.1469 16.4679C22.3214 15.8974 22.1348 15.4158 21.7991 14.9626C21.5973 14.6906 21.3241 14.5677 20.9982 14.5479C20.8435 14.5381 20.6866 14.5523 20.5308 14.5545L20.5407 14.5699V14.571ZM22.4947 15.656C22.4848 15.6648 22.475 15.6747 22.4662 15.6846C22.4815 15.6879 22.4958 15.6911 22.5112 15.6944C22.5057 15.6813 22.5002 15.6681 22.4947 15.656ZM21.9813 14.4218C21.9604 14.4075 21.9407 14.391 21.9187 14.3823C21.9132 14.3801 21.8979 14.4009 21.888 14.4108C21.911 14.4272 21.933 14.4437 21.9571 14.4569C21.9582 14.4569 21.9736 14.4349 21.9823 14.4218H21.9813Z" fill="#21201E"/>
<path d="M52.9512 16.77C52.6726 17.1891 52.282 17.4009 51.7795 17.402C51.7126 17.402 51.5974 17.3899 51.5853 17.3559C51.5085 17.1299 51.2167 17.1112 51.1487 16.8852C50.983 16.3323 50.8546 15.7793 51.0455 15.2C51.0872 15.075 51.0631 14.929 51.0697 14.7733C51.243 14.6372 51.3977 14.4474 51.6786 14.3596C51.6852 14.5165 51.6961 14.6317 51.695 14.748C51.6939 15.0278 51.683 15.3065 51.6852 15.5862C51.6862 15.7431 51.6917 15.9022 51.7225 16.0547C51.8409 16.6483 52.1032 16.894 52.7022 16.7832C52.7856 16.7678 52.8744 16.781 52.96 16.781L52.9501 16.77H52.9512Z" fill="#21201E"/>
<path d="M18.883 21.0812H17.2976C17.3645 20.8113 17.4457 20.5896 17.6026 20.3691C18.0634 20.3603 18.5264 20.2912 18.9894 20.4273C19.0794 20.4536 19.1891 20.4207 19.2889 20.4064C19.3701 20.3944 19.4491 20.3702 19.5884 20.3373C19.561 20.4492 19.5566 20.5128 19.5303 20.5644C19.0552 21.4992 18.5769 22.4339 18.0985 23.3676C18.0667 23.429 18.0294 23.4905 17.9844 23.542C17.9153 23.621 17.8319 23.5881 17.7101 23.5859C17.8626 23.1152 18.1117 22.7367 18.2971 22.3297C18.4759 21.9369 18.7085 21.5683 18.8852 21.0801L18.883 21.0812Z" fill="#21201E"/>
<path d="M22.3324 21.0447C22.3258 20.7705 22.5309 20.607 22.6439 20.3722C23.2912 20.3173 23.9342 20.3766 24.6144 20.3459C24.5859 20.4622 24.5815 20.5477 24.5464 20.6169C24.0812 21.5352 23.6116 22.4513 23.1409 23.3674C23.1091 23.4288 23.0751 23.4925 23.0268 23.5418C22.9599 23.6109 22.8765 23.6208 22.7701 23.5407C22.8809 23.1063 23.1804 22.7574 23.3626 22.3536C23.5414 21.9598 23.7169 21.5637 23.8881 21.1819C23.8201 21.0623 23.7246 21.0974 23.6456 21.0875C23.5941 21.081 23.5403 21.081 23.4887 21.0864C23.3066 21.1051 23.153 20.9921 22.9884 20.9745C22.8283 20.957 22.6582 21.0469 22.4903 21.0799C22.4443 21.0886 22.3905 21.0601 22.3313 21.0469L22.3324 21.0447Z" fill="#21201E"/>
<path d="M15.4555 14.3399C15.495 15.2714 15.45 17.0663 15.3754 17.4404C15.2843 17.4514 15.1834 17.4799 15.0847 17.4711C14.7972 17.4448 14.7182 17.2802 14.8652 16.9994C14.9004 16.9324 14.9464 16.8776 14.8916 16.8216C14.7632 16.6922 14.7808 16.5331 14.783 16.3773C14.7895 15.9406 14.795 15.504 14.8148 15.0673C14.8192 14.9686 14.862 14.8643 14.9135 14.7777C15.0046 14.6241 15.1911 14.4836 15.4544 14.341L15.4555 14.3399Z" fill="#21201E"/>
<path d="M34.6993 17.4272C34.4974 17.493 34.3307 17.5029 34.1749 17.3931C34.0476 17.2121 34.1332 17.0168 34.1299 16.8303C34.12 16.2697 34.1343 15.709 34.109 15.1495C34.0959 14.8379 34.2023 14.6075 34.4349 14.4188C34.5139 14.3552 34.5896 14.2882 34.6532 14.2345C34.7004 14.2477 34.7212 14.2477 34.7333 14.2575C34.7454 14.2674 34.7553 14.2861 34.7564 14.3025C34.7926 14.8182 34.7564 16.9576 34.7004 17.4283L34.6993 17.4272Z" fill="#21201E"/>
<path d="M16.6119 20.2636C16.6218 20.4205 16.635 20.5357 16.635 20.652C16.6372 21.3662 16.6361 22.0804 16.635 22.7947C16.635 22.9987 16.6756 23.216 16.4144 23.3016C16.5066 23.4091 16.5571 23.4672 16.6481 23.5736C16.4726 23.5846 16.3574 23.6033 16.2444 23.5945C16.1303 23.5868 16.059 23.5078 16.0348 23.3948C16.025 23.3443 16.0228 23.2906 16.0228 23.239C16.0271 22.6466 16.0337 22.0552 16.0381 21.4639C16.0381 21.3958 16.0601 21.3124 16.0282 21.2631C15.845 20.9756 16.0019 20.7913 16.1994 20.607C16.3003 20.5126 16.3859 20.4029 16.4803 20.302C16.4901 20.291 16.5132 20.2921 16.6097 20.2647L16.6119 20.2636Z" fill="#21201E"/>
<path d="M22.9918 1.4195C23.2704 1.37671 23.4559 1.34709 23.6424 1.31856C23.7587 1.39536 23.7225 1.50178 23.6819 1.59504C23.5842 1.81556 23.3878 1.93954 23.1805 2.0328C22.8009 2.20285 22.4125 2.35536 22.045 2.50896C21.9111 2.43435 21.9407 2.35426 21.9912 2.27856C22.0592 2.17762 22.1338 2.08107 22.2084 1.98014C22.1645 1.85177 22.1217 1.72231 22.079 1.59723C22.1558 1.5336 22.2172 1.48313 22.2797 1.43157C22.2249 1.35477 22.1766 1.28675 22.1097 1.19239C22.2183 1.04208 22.3192 0.880805 22.4432 0.739275C22.509 0.664669 22.6089 0.608715 22.7043 0.574704C22.8415 0.525333 22.9797 0.535207 23.0872 0.656989C23.175 0.756829 23.209 0.868737 23.164 0.994907C23.1234 1.10791 23.0741 1.21872 22.9929 1.4184L22.9918 1.4195Z" fill="#21201E"/>
<path d="M31.2729 23.5683C31.2071 23.1668 31.1434 22.8069 31.1676 22.4383C31.1764 22.2957 31.1413 22.1794 31.0623 22.0488C30.8823 21.7515 30.7353 21.4333 30.5905 21.1162C30.5499 21.0274 30.5356 20.9056 30.5598 20.8134C30.6223 20.5808 30.7167 20.357 30.8648 20.1102C30.9514 20.2045 31.0162 20.2572 31.0579 20.323C31.4331 20.9111 31.6053 21.5683 31.6799 22.2529C31.6964 22.4065 31.7172 22.593 31.6481 22.7159C31.5055 22.9715 31.6163 23.3193 31.2718 23.5683H31.2729Z" fill="#21201E"/>
<path d="M33.0152 23.5664C32.9055 23.0112 32.8309 22.5263 32.7047 22.0556C32.6532 21.8636 32.7969 21.7188 32.7333 21.5125C32.7014 21.4895 32.6488 21.4467 32.5917 21.4116C32.2878 21.2262 32.199 21.0287 32.3098 20.7237C32.38 20.5295 32.4272 20.32 32.583 20.1642C32.7903 20.2717 32.866 20.4736 32.9604 20.659C33.0602 20.8554 33.0931 21.0748 33.1875 21.2767C33.2741 21.4643 33.3114 21.6771 33.3488 21.8834C33.4409 22.3957 33.3992 22.8949 33.1633 23.3667C33.1348 23.4237 33.0865 23.4709 33.0163 23.5642L33.0152 23.5664Z" fill="#21201E"/>
<path d="M15.0562 21.6208C15.1165 22.0191 15.0013 22.2835 14.682 22.4908C14.4319 22.6532 14.1883 22.8178 13.9075 22.922C13.8581 22.9407 13.812 22.9659 13.7659 22.9911C13.3776 23.2128 13.2689 23.4772 13.4017 23.9171C13.462 24.1179 13.5498 24.311 13.4565 24.5469C13.4083 24.5052 13.3545 24.4821 13.3435 24.4459C13.2349 24.0751 13.157 23.6966 13.1834 23.3071C13.213 22.8606 13.3556 22.4952 13.8362 22.3318C14.0062 22.2747 14.1445 22.1189 14.2926 22.0037C14.3145 21.9873 14.3244 21.9379 14.32 21.9061C14.2827 21.6526 14.4473 21.6087 14.6371 21.6033C14.772 21.5989 14.9081 21.6131 15.0551 21.6197L15.0562 21.6208Z" fill="#21201E"/>
<path d="M3.81602 13.4738C3.64267 13.6461 3.48797 13.8085 3.32231 13.9599C3.22356 14.0498 3.10068 14.052 2.98 13.9972C2.93282 13.9763 2.88674 13.9489 2.84505 13.9182C2.45667 13.6285 2.01672 13.4947 1.5263 13.5013C1.85434 12.9417 2.26357 12.7453 2.82421 12.8781C3.20491 12.9681 3.5154 13.1776 3.81602 13.4738ZM2.9789 13.5397C3.00523 13.5759 3.02718 13.6176 3.06009 13.6428C3.07545 13.6538 3.12482 13.6384 3.14347 13.6198C3.18516 13.577 3.1325 13.4903 3.06119 13.4892C3.03815 13.4892 3.01511 13.5166 2.9789 13.5408V13.5397Z" fill="#21201E"/>
<path d="M25.8991 22.8959C25.9759 23.1877 25.886 23.4093 25.6369 23.6255C25.5853 23.372 25.5612 23.1745 25.6665 22.9803C26.1394 22.107 26.6112 21.2337 27.0851 20.3626C27.0983 20.3384 27.1411 20.3319 27.1696 20.3176C27.2749 20.6138 27.2826 20.6171 27.1806 20.8332C27.0698 21.0702 26.9436 21.3006 26.8218 21.5321C26.6682 21.8261 26.5004 22.1136 26.3599 22.4142C26.2612 22.6271 26.1273 22.7949 25.8969 22.8959H25.8991Z" fill="#21201E"/>
<path d="M14.8181 14.0052C14.6799 13.4127 14.885 13.0134 15.3787 12.7534C15.574 13.3765 15.4325 13.6563 14.8181 14.0052Z" fill="#21201E"/>
<path d="M34.7146 12.6822C34.8814 13.2736 34.6575 13.6587 34.1924 13.9428C33.9806 13.3602 34.0618 13.1551 34.7146 12.6822Z" fill="#21201E"/>
<path d="M38.638 23.3984C38.6293 23.4313 38.6282 23.4686 38.6117 23.496C38.5305 23.6299 38.4603 23.6419 38.3989 23.5256C38.3616 23.4532 38.3506 23.3677 38.3287 23.2876L38.3144 23.3029C38.4263 23.3402 38.5382 23.3764 38.649 23.4137L38.6369 23.3984H38.638Z" fill="#21201E"/>
</svg>
