<svg width="93" height="92" viewBox="0 0 93 92" fill="none" xmlns="http://www.w3.org/2000/svg">
<path d="M46.4454 91.34C71.5302 91.34 91.8654 71.0048 91.8654 45.92C91.8654 20.8352 71.5302 0.5 46.4454 0.5C21.3606 0.5 1.02539 20.8352 1.02539 45.92C1.02539 71.0048 21.3606 91.34 46.4454 91.34Z" fill="white"/>
<path d="M46.4454 91.85C21.1254 91.85 0.525391 71.25 0.525391 45.93C0.525391 20.61 21.1154 0 46.4454 0C71.7754 0 92.3654 20.6 92.3654 45.92C92.3654 71.24 71.7654 91.84 46.4454 91.84V91.85ZM46.4454 1C21.6754 1 1.52539 21.15 1.52539 45.92C1.52539 70.69 21.6754 90.84 46.4454 90.84C71.2154 90.84 91.3654 70.69 91.3654 45.92C91.3654 21.15 71.2154 1 46.4454 1Z" fill="#21201E"/>
<path d="M83.0364 42.4199C83.0064 42.3299 83.0364 42.1899 83.0864 42.0999C83.3264 41.6799 83.1664 41.2499 83.1364 40.8199C82.9664 38.7999 82.4764 36.8299 81.9064 34.8899C81.4764 33.4499 81.2164 31.8999 80.0564 30.7599C79.9564 30.6699 79.9264 30.4499 79.9464 30.3099C80.0364 29.8299 79.7964 29.4599 79.5964 29.0699C75.4464 20.9699 69.1964 15.0899 60.8864 11.3899C60.7464 11.3299 60.5764 11.3599 60.4564 11.3499C60.3264 11.5099 60.2264 11.6299 60.0364 11.8699C57.7464 10.0199 55.1864 9.08991 52.4364 8.78991C49.9464 8.51991 47.4264 8.44991 44.9064 8.39991C43.8864 8.37991 42.8564 8.56991 41.8164 8.56991C41.2864 8.56991 40.7564 8.78991 40.2264 8.90991C39.9164 8.97991 39.6164 9.13991 39.3064 9.13991C38.2464 9.13991 37.2664 9.45991 36.3064 9.83991C35.8464 10.0199 35.4064 10.2999 34.9364 10.3699C32.8964 10.6699 31.1164 11.6399 29.3364 12.5799C27.1164 13.7499 24.8764 14.9199 23.1764 16.8499C23.0364 17.0099 22.8364 17.1299 22.6464 17.2299C21.4964 17.8099 20.6364 18.7399 19.7964 19.6699C18.7464 20.8299 17.5364 21.8799 16.8464 23.3299C15.5464 24.5499 14.7564 26.1199 13.9364 27.6599C13.5464 28.3999 12.9464 29.1099 13.1164 30.0699C13.1564 30.2799 12.9664 30.6199 12.7764 30.7699C11.9364 31.4199 11.6164 32.3499 11.3664 33.2999C10.9464 34.8899 10.5064 36.4699 10.1564 38.0699C9.87641 39.3499 9.5664 40.6499 9.5264 41.9499C9.4364 45.2199 9.11641 48.4899 9.84641 51.7599C10.2064 53.3499 10.3764 54.9599 10.9964 56.5099C11.6164 58.0799 11.7764 59.7999 12.4964 61.3599C12.7964 61.9999 13.0664 62.6699 13.4264 63.2799C14.2264 64.6499 15.0564 65.9999 15.9364 67.3199C16.4764 68.1199 16.8964 69.0599 17.8664 69.4899C17.9964 69.5499 18.1264 69.7299 18.1564 69.8699C18.3264 70.8099 19.0664 71.3399 19.6564 71.9699C21.8964 74.3199 24.4364 76.3099 27.2264 77.9699C27.9764 78.4199 28.8264 78.6999 29.5564 79.1699C31.2264 80.2499 33.0864 80.8999 34.9464 81.5399C35.3964 81.6999 35.8464 81.8999 36.3764 81.7199C36.5964 81.6499 36.9064 81.7699 37.1364 81.8799C40.0364 83.2799 43.1264 83.4799 46.2664 83.3599C47.3264 83.3199 48.3664 82.9099 49.4664 83.1999C49.8664 83.2999 50.3364 83.1999 50.7664 83.1199C52.1664 82.8699 53.5664 82.6099 54.9564 82.3199C56.6264 81.9699 58.2064 81.3899 59.6964 80.5399C60.3464 80.1599 61.0764 79.8499 61.8164 79.6899C62.6364 79.5099 63.3864 79.1999 64.0764 78.7699C65.0364 78.1599 66.1764 77.7999 66.8664 76.8099C68.0364 76.4399 68.9164 75.6099 69.8364 74.8499C70.2864 74.4799 70.8764 74.2199 70.9964 73.5399C71.0164 73.4299 71.2164 73.2899 71.3464 73.2699C71.9464 73.1699 72.2664 72.6899 72.6364 72.3099C74.7664 70.1699 76.6264 67.8099 78.1764 65.2099C78.5064 64.6599 78.9664 64.1499 78.9164 63.4299C78.9164 63.2999 79.0164 63.0999 79.1264 63.0199C79.7964 62.5399 80.0264 61.7899 80.3364 61.1099C82.0964 57.1699 83.0764 53.0299 83.3264 48.7399C83.4464 46.6299 83.7464 44.4799 83.0264 42.3899L83.0364 42.4199ZM45.7064 9.45991L45.6064 9.50991V9.42991L45.7064 9.46991V9.45991ZM80.9064 52.6399C80.8964 52.6899 80.8764 52.7499 80.8664 52.7999C80.1664 57.1899 78.3764 61.1599 76.1964 64.9799C75.6264 65.9799 75.0964 66.9899 74.5164 67.9799C74.2964 68.3499 74.0464 68.7699 73.7064 68.9899C72.9064 69.4999 72.3164 70.2199 71.6764 70.8899C69.2164 73.4299 66.3664 75.4199 63.2164 77.0299C61.5964 77.8599 59.9464 78.4699 58.2264 79.0299C54.4564 80.2799 50.6164 80.9999 46.6464 81.1099C46.1064 81.1199 45.5464 81.1999 45.0364 81.3399C44.2564 81.5599 43.5364 81.4599 42.7864 81.2099C42.1164 80.9899 41.4264 80.7899 40.7364 80.6799C36.1864 79.9999 31.9564 78.4299 28.0164 76.0699C27.5464 75.7899 27.0264 75.5899 26.5864 75.2799C25.6464 74.6099 24.3264 74.4199 23.8264 73.1599C23.7564 72.9799 23.5064 72.8699 23.3464 72.7299C20.3564 70.2699 17.8964 67.3599 15.8864 64.0499C15.7964 63.9099 15.6864 63.7899 15.5964 63.6599H15.5864C15.5864 63.6599 15.5164 63.6499 15.4864 63.6399C15.5264 63.6399 15.5564 63.6399 15.5964 63.6299C13.9564 60.8399 12.7564 57.8499 11.9664 54.6999C11.6464 53.4299 11.3764 52.1399 11.0464 50.8699C10.7464 49.7399 10.7964 48.6099 10.8764 47.4599C11.0064 45.7199 10.9964 43.9599 11.0864 42.2199C11.1464 41.0799 11.2664 39.9399 11.3764 38.7899C11.3964 38.5699 11.4464 38.3599 11.5064 38.1499C12.0364 36.5999 12.5864 35.0599 13.1064 33.5099C14.0864 30.5699 15.5064 27.8699 17.5064 25.5099C19.5964 23.0399 21.7864 20.6699 23.9464 18.2699C24.1264 18.0699 24.3564 17.8399 24.5964 17.7999C25.4464 17.6399 26.0564 17.0699 26.7464 16.6499C27.9164 15.9499 29.1064 15.2699 30.2864 14.5899C31.2864 14.0199 32.2864 13.4599 33.3064 12.9399C33.8364 12.6699 34.3964 12.3899 34.9664 12.2699C37.0064 11.8699 39.0464 11.5199 41.0964 11.1899C44.1964 10.6999 47.3164 10.7799 50.4264 11.0999C50.9664 11.1599 51.4964 11.2999 52.0464 11.0999C52.2064 11.0399 52.4464 11.1299 52.6364 11.1899C53.5764 11.4699 54.5164 11.7799 55.4564 12.0399C58.2564 12.8199 60.9564 13.8699 63.5164 15.2599C64.6264 15.8599 65.7464 16.4299 66.8264 17.0699C67.4864 17.4499 68.1564 17.8599 68.7064 18.3799C70.9064 20.4999 73.2764 22.4699 75.2164 24.8599C75.5264 25.2399 75.8664 25.6099 76.1164 26.0299C78.2264 29.6299 79.9564 33.3799 80.8364 37.5099C81.9164 42.5699 81.8864 47.6099 80.9164 52.6599L80.9064 52.6399Z" fill="#6B4E47"/>
<path d="M41.2654 48.0399C41.7054 48.2399 42.1954 48.3098 42.6754 48.4198C43.5054 48.5998 44.3354 48.7698 45.1454 48.9398C45.1954 49.1998 45.2354 49.3498 45.2354 49.5198C45.2354 50.0098 45.2154 50.4998 45.2154 50.9998C45.2154 51.5498 45.2054 52.0998 45.2354 52.6398C45.2654 53.1098 45.4454 53.4799 46.0254 53.4899C46.1454 53.4899 46.2654 53.6599 46.3754 53.7399C46.2854 54.2599 45.8054 54.2299 45.5254 54.4499C45.2854 54.6399 45.1454 54.9198 45.3154 55.1598C45.4454 55.3398 45.7654 55.5198 45.9754 55.4998C46.4454 55.4598 46.9054 55.2798 47.5454 55.1198V53.2899C47.5454 51.1599 47.5354 49.0299 47.5354 46.8999C47.5354 44.6599 47.5354 42.4198 47.5354 40.1698C47.5354 39.6798 47.5054 39.1898 47.8654 38.7698C48.2654 38.3098 48.0954 37.8598 47.7654 37.4298C47.3654 36.9198 46.9654 36.4098 46.5454 35.9098C46.3654 35.6898 46.1554 35.5298 45.7454 35.6898C45.5454 36.1898 45.5154 36.8398 44.8154 37.1998C44.3054 37.4698 44.3554 38.1498 44.6254 38.6798C44.7854 38.9998 45.0054 39.2898 45.2654 39.6898C44.9254 39.7898 44.7354 39.8999 44.5454 39.8999C43.9454 39.9099 43.3354 39.8298 42.7454 39.8798C42.1254 39.9298 41.6054 39.8298 41.0454 39.5198C39.9754 38.9298 38.7854 38.7198 37.5554 38.7998C36.4754 38.8798 36.0054 39.3298 35.7754 40.3698C35.3354 42.3298 35.6654 44.2899 35.7354 46.2399C35.7454 46.6899 36.0454 47.1598 36.2854 47.5698C36.5254 47.9798 36.9554 48.1199 37.4254 48.0399C37.6354 47.9999 37.8454 47.9298 38.0554 47.8698C39.1454 47.5498 40.1954 47.5799 41.2554 48.0399H41.2654ZM46.6654 52.0898C46.6654 52.0898 46.7354 52.1598 46.7754 52.1898C46.6954 52.2198 46.6154 52.2699 46.5254 52.2899C46.4954 52.2899 46.4554 52.2299 46.4154 52.1999C46.4954 52.1599 46.5854 52.1298 46.6654 52.0898ZM37.3754 45.4598C37.3054 45.1198 37.1954 44.8298 37.1854 44.5198C37.1554 43.8098 37.1454 43.0999 37.1854 42.3999C37.2254 41.4499 37.6454 40.9799 38.5854 40.8999C39.1154 40.8499 39.6754 40.9098 40.1954 41.0398C41.8354 41.4298 43.4654 41.8799 45.1554 42.3099C45.1854 42.3999 45.3054 42.5498 45.3054 42.6998C45.2754 43.9498 45.2154 45.1899 45.1654 46.5399C43.5854 46.9499 42.2754 46.5898 40.9654 46.1598C39.8254 45.7798 38.6854 45.3998 37.3754 45.4598Z" fill="#6B4E47"/>
<path d="M41.3263 17.6567C41.5163 17.4667 41.6563 17.2267 41.8463 17.0267C42.6963 16.1467 43.2663 16.0667 44.3063 16.6967C44.5263 16.8267 44.7063 17.0467 45.0263 17.3267H45.0363C42.1363 18.3967 41.5663 19.0067 41.3663 21.1767C41.3263 21.5967 41.2863 22.0567 41.7063 22.3767C42.2263 22.4867 42.6863 22.4267 43.0463 21.9767C43.0463 21.5567 43.0163 21.1167 43.0463 20.6967C43.1163 19.9867 43.2563 19.2867 43.7763 18.7367C44.2463 18.2367 44.7963 17.9767 45.5563 18.3267C45.4163 18.5667 45.3063 18.7467 45.1863 18.9267C44.8363 19.4867 44.7563 20.1267 45.1363 20.6267C45.6263 21.2667 45.5563 21.9567 45.5863 22.6567C45.5963 22.9767 45.6663 23.2867 45.7063 23.5667C46.2963 23.8167 46.7263 23.7167 47.1063 23.2867C47.1263 23.1367 47.1763 22.9667 47.1763 22.8067C47.1763 21.9867 47.1163 21.1767 47.7463 20.4967C47.9663 20.2567 47.9063 19.8667 47.6063 19.6267C47.0863 19.2067 47.1863 18.7267 47.3763 18.1467C49.6663 18.7067 49.7363 20.5167 49.8463 22.2367C51.1163 22.3367 51.3963 22.1467 51.4563 21.2167C51.5963 19.1267 50.5463 17.8367 48.4163 17.4867C48.1763 17.4467 47.8463 17.5567 47.7663 17.1767C47.9563 16.6467 48.4163 16.3967 48.8963 16.3567C49.2963 16.3267 49.7863 16.4467 50.1263 16.6767C50.6163 17.0067 50.9963 17.4867 51.4263 17.8967C51.5363 18.0067 51.6863 18.0767 51.7763 18.1467C52.3263 18.1767 52.7763 18.1067 53.0563 17.6167C52.7063 16.8467 52.0863 16.3967 51.4163 16.0267C50.1763 15.3367 48.8863 15.7667 47.5563 15.9667C48.0063 14.6567 48.4463 14.2967 49.5363 14.2767C50.1163 14.2767 50.7063 14.5067 51.2363 14.0767C51.1863 13.9667 51.1463 13.8067 51.0863 13.7967C50.6063 13.7167 50.1263 13.6267 49.6463 13.6367C48.5263 13.6567 47.5363 14.1267 46.5763 14.7167C44.9863 13.5467 43.3463 13.2367 41.3963 14.1467C43.2063 14.3067 44.3863 14.7967 44.9363 15.6067C44.2263 15.6567 43.5363 15.6367 42.8663 15.7867C42.2363 15.9267 41.6263 16.1967 41.0563 16.5167C40.4563 16.8467 39.9163 17.2867 39.7363 18.0567C40.8563 18.0567 40.9163 18.0567 41.3063 17.6667L41.3263 17.6567Z" fill="#6B4E47"/>
<path d="M22.7061 49.2722C20.2061 49.2022 18.7461 48.4522 18.8661 46.7122C19.0761 46.7722 19.3161 46.7722 19.4561 46.8822C20.1561 47.4322 20.8161 47.4722 21.5461 46.9122C21.7861 46.7322 22.1461 46.7022 22.4661 46.6622C22.7961 46.6222 23.1261 46.6622 23.4461 46.6322C23.9861 46.5822 24.1461 46.4122 24.2161 45.7722C24.2361 45.5822 24.1561 45.3822 24.1261 45.2322C23.9161 45.1622 23.8161 45.1122 23.7161 45.1022C22.8161 45.0122 21.8961 45.1922 21.0461 44.5522C20.5961 44.2122 19.8961 44.3122 19.3561 44.7222C19.1961 44.8422 19.0061 44.9222 18.7161 45.0822C18.6861 44.7522 18.6061 44.5422 18.6661 44.3522C18.9661 43.2222 19.7561 42.6322 21.0761 42.5122C21.6061 42.4622 22.1461 42.4622 22.6161 42.4422C22.9761 41.9122 23.0561 41.4722 22.7961 41.0022C20.1461 40.4922 19.3861 41.0022 17.8361 44.3622C17.6661 44.2122 17.5561 44.1622 17.4961 44.0822C16.5961 42.7822 16.6561 42.1622 17.7861 41.1122C17.9861 40.9322 18.2361 40.7822 18.3961 40.5722C18.6961 40.1722 18.7861 39.7222 18.5061 39.2422C16.7161 40.3622 16.3061 41.2622 16.1661 44.2922C16.0661 44.2922 15.9261 44.3322 15.8661 44.2922C15.6261 44.0822 15.3861 43.8622 15.1861 43.6022C14.5761 42.8322 14.8961 41.8722 14.7961 40.8422C14.2361 41.3422 14.2961 41.8722 14.2561 42.3222C14.2061 42.9122 14.1761 43.5422 14.3261 44.1022C14.4961 44.7722 14.8761 45.3822 15.1961 46.0922C14.4661 47.5022 13.8461 49.0522 14.4161 50.8222C14.8961 50.6122 14.9161 50.2222 14.9261 49.8522C14.9261 49.5222 14.8161 49.2022 14.8261 48.8722C14.8461 48.3722 14.9861 47.8922 15.3661 47.5422C15.6761 47.2622 15.9761 46.9122 16.4761 47.0822C16.0161 50.4822 16.2761 51.2922 18.1961 52.4722C18.8461 51.5522 18.8761 51.2522 18.2061 50.7022C17.6861 50.2722 17.2161 49.8222 17.0161 49.1822C16.9061 48.8322 16.8961 48.4222 16.9761 48.0622C17.0761 47.6522 17.3161 47.2722 17.8361 47.2122C17.9561 47.6922 18.0361 48.1822 18.1961 48.6322C18.7461 50.2622 20.0361 51.0922 21.7261 50.9122C22.1061 50.8722 22.5161 50.8322 22.7261 50.4522C22.9461 50.0622 22.9861 49.6422 22.7061 49.2622V49.2722Z" fill="#6B4E47"/>
<path d="M77.9453 41.0413C77.9453 41.0413 77.9453 41.0613 77.9553 41.0713C77.9553 41.0613 77.9553 41.0412 77.9553 41.0312H77.9453V41.0413Z" fill="#6B4E47"/>
<path d="M77.9563 41.0675C77.9863 41.3575 78.0162 41.6575 78.0462 41.9475C78.1062 42.7575 77.8462 43.4675 77.2862 44.0375C77.1262 44.1975 76.8563 44.2475 76.5563 44.3975C76.7763 42.1575 76.2763 40.3775 74.3063 39.1875C74.0463 39.8475 74.1562 40.3375 74.5962 40.7575C74.8362 40.9775 75.1062 41.1675 75.3462 41.3875C75.7562 41.7775 76.0462 42.2375 75.9362 42.8375C75.8162 43.4675 75.5663 44.0275 74.9263 44.3475C73.6063 41.0875 72.6862 40.4775 69.8862 41.0575C69.9262 41.4575 69.9662 41.8675 70.0162 42.3675C70.3762 42.2675 70.6563 42.0975 70.8663 42.1475C71.6463 42.3675 72.4363 42.5975 73.1463 42.9675C73.5363 43.1775 73.8462 43.6375 74.0662 44.0575C74.1862 44.2875 74.0663 44.6575 74.0563 45.0575C73.1863 44.4875 72.3662 44.0875 71.5262 44.6475C70.9762 45.0175 70.4262 45.0675 69.8262 45.0775C69.4562 45.0775 69.0862 45.1375 68.7262 45.1675C68.5762 46.5075 68.6462 46.5975 69.7862 46.6575C70.3762 46.6875 70.9762 46.5975 71.4962 47.0475C72.0262 47.4975 72.5963 47.4175 73.1463 47.0275C73.4063 46.8475 73.6562 46.5875 74.0062 46.8675C74.0262 46.9675 74.0962 47.0875 74.0662 47.1675C73.6662 48.4075 72.7562 48.9975 71.5162 49.1575C70.9962 49.2275 70.4762 49.2575 69.8462 49.3175C69.9462 49.7975 69.9262 50.2475 70.1262 50.4875C70.3362 50.7375 70.7762 50.8575 71.1362 50.8975C72.8962 51.0775 74.2463 50.1375 74.7063 48.4375C74.8163 48.0375 74.8662 47.6075 74.9462 47.1775C75.5662 47.3475 75.8462 47.7675 75.8762 48.2775C75.9062 48.6875 75.8362 49.1675 75.6262 49.5175C75.3562 49.9775 74.9262 50.3475 74.5462 50.7275C73.9462 51.3375 73.9562 51.6575 74.6562 52.4775C76.6162 51.0375 76.7862 50.5075 76.3762 47.0375C76.5362 47.0575 76.7162 47.0375 76.8462 47.1075C77.7162 47.5575 78.1062 48.2775 77.9762 49.2575C77.8962 49.7975 77.8063 50.3275 78.4263 50.8475C78.4263 50.3975 78.3462 50.0675 78.4362 49.7775C78.7962 48.6975 78.4362 47.7475 77.9962 46.7975C77.8662 46.5075 77.6963 46.2275 77.5563 45.9575C78.8563 44.4375 78.8862 42.7975 77.9662 41.0675H77.9563Z" fill="#6B4E47"/>
<path d="M52.5663 73.6897C52.3063 73.6297 52.0363 73.6097 51.6563 73.5597C51.4263 73.8297 51.2063 74.1497 50.9263 74.3997C50.6063 74.6897 50.2763 75.0197 49.8863 75.1697C49.5063 75.3197 49.0263 75.3597 48.6263 75.2897C48.2263 75.2197 47.8363 74.9697 47.7463 74.4297C48.2263 74.3097 48.7063 74.2197 49.1763 74.0797C50.8963 73.5497 51.8563 71.8097 51.3963 70.0597C51.3063 69.7197 51.0963 69.4597 50.7263 69.4397C50.4263 69.4197 50.1163 69.4797 49.8163 69.4997C49.7863 70.0397 49.8063 70.4797 49.7263 70.9097C49.6463 71.3397 49.5363 71.7797 49.3263 72.1497C49.1163 72.5197 48.8063 72.8597 48.4863 73.1397C48.1663 73.4097 47.7763 73.5897 47.1863 73.4697C47.3163 73.1397 47.3663 72.8897 47.5063 72.6897C47.9463 72.0897 48.0363 71.4797 47.5363 70.8997C47.2163 70.5297 47.1863 70.1197 47.1863 69.6797C47.1863 69.3497 47.1863 69.0197 47.1563 68.6997C47.1363 68.5497 47.0363 68.4097 46.9363 68.1797H45.6863C45.6463 68.4697 45.5963 68.6897 45.5963 68.8997C45.5963 69.7197 45.5963 70.5097 45.0863 71.2497C44.7663 71.6997 44.8563 72.2997 45.1763 72.7997C45.3063 73.0097 45.4263 73.2197 45.5763 73.4997C45.3063 73.5797 45.1463 73.6697 45.0063 73.6497C44.0963 73.5197 43.4863 72.9897 43.2763 72.1197C43.0963 71.3397 43.0563 70.5097 42.9463 69.6197C42.8163 69.5697 42.6263 69.4497 42.4263 69.4097C41.6663 69.2597 41.3963 69.4597 41.3363 70.1897C41.2063 71.8997 41.9563 73.1597 43.5363 73.8397C43.9663 74.0297 44.4163 74.1797 44.8963 74.3697C43.6263 75.7197 42.8063 75.7497 41.7263 74.5797C41.5763 74.4197 41.4663 74.2297 41.3163 74.0697C40.8963 73.6097 40.4063 73.5297 39.7363 73.8097C39.9863 74.1497 40.1663 74.4797 40.4363 74.7297C40.7563 75.0297 41.1163 75.2797 41.4963 75.4897C41.8263 75.6697 42.1863 75.8297 42.5563 75.9097C42.9763 76.0097 43.4263 75.9997 43.8563 76.0597C44.2063 76.1097 44.5963 75.8397 44.9363 76.2297C44.8563 76.3697 44.8163 76.5297 44.7163 76.6397C44.0663 77.3297 43.2563 77.5397 42.3263 77.4397C42.0363 77.4097 41.6963 77.1897 41.4163 77.6797C43.3063 78.3497 45.0563 78.2297 46.6263 76.9997C48.1063 77.9897 49.6163 78.3097 51.2963 77.8897C51.1863 77.4397 50.9063 77.3797 50.6363 77.3697C50.2063 77.3597 49.7663 77.4097 49.3263 77.3997C48.8763 77.3997 48.4563 77.2697 48.1363 76.9297C47.8463 76.6297 47.5063 76.3297 47.6463 75.7697C48.2363 75.8597 48.8063 75.9797 49.3963 76.0297C50.9463 76.1597 52.1663 75.5797 52.9863 74.2397C53.0363 74.1697 52.9863 74.0397 52.9663 73.8997C52.8463 73.8297 52.7063 73.7397 52.5663 73.6997V73.6897Z" fill="#6B4E47"/>
<path d="M55.0857 47.8209C54.5757 47.3309 54.5057 46.7009 54.3857 46.0509C54.1257 44.6709 53.7657 43.3009 53.4257 41.9309C53.3457 41.5909 53.1257 41.3309 52.7757 41.2809C51.5857 41.0809 50.3857 41.0409 49.1957 41.2409C48.6057 41.3409 48.2757 41.6909 48.2657 42.2209C48.2357 43.5809 48.1457 44.9609 48.2657 46.3109C48.4057 47.9509 49.3557 49.0809 50.9657 49.7909C51.5857 48.3809 51.9557 46.9309 52.9657 45.7409C53.7957 46.1009 54.1957 46.7409 54.0857 47.5409C54.0057 48.1209 54.1057 48.6109 54.2557 49.1309C54.4357 49.7109 54.5757 50.2909 54.1757 50.9009C53.9957 50.9009 53.9357 50.9209 53.8957 50.9109C52.9857 50.6209 52.7157 50.7509 52.7657 51.5409C52.8257 52.4709 52.8157 53.3909 52.6457 54.3109C52.5957 54.5809 52.7457 54.9109 53.0557 54.8909C53.2757 54.8709 53.5957 54.6609 53.6757 54.4709C53.8057 54.1309 53.8057 53.7309 53.8157 53.3509C53.8257 52.8909 53.9257 52.4709 54.3457 52.2309C54.8757 51.9309 54.9757 51.4509 55.1457 50.9109C55.3257 50.3409 55.5957 49.8209 55.5657 49.2009C55.5457 48.7009 55.4657 48.2209 55.0857 47.8509V47.8209Z" fill="#6B4E47"/>
<path d="M56.136 33.3676C56.786 34.1876 57.596 34.6476 58.676 34.5876C59.216 34.5576 59.786 34.4876 60.376 35.1276C59.936 35.4076 59.606 35.7276 59.216 35.8376C58.956 35.9176 58.616 35.6776 58.306 35.6376C58.106 35.6176 57.876 35.6576 57.706 35.7576C57.556 35.8376 57.476 36.0376 57.346 36.2176C59.116 37.0076 59.936 36.7076 61.306 34.7276C60.886 34.4476 60.436 34.1576 59.996 33.8576C60.466 33.1376 60.226 32.2376 61.176 31.9676C61.476 32.3976 61.696 32.7976 61.556 33.3376C61.416 33.8576 61.736 34.1376 62.246 34.3476C62.666 33.7276 63.136 33.1276 63.506 32.4776C63.956 31.6676 63.776 30.9176 63.076 30.2876C61.936 29.2676 60.586 28.7476 59.066 28.6676C58.896 28.6576 58.626 28.5676 58.576 28.8876C59.046 29.3376 59.616 29.5876 60.276 29.6476C60.756 29.6876 61.206 29.7676 61.516 30.2376C60.136 30.3876 60.016 30.4476 59.026 31.3476C58.786 31.5676 58.576 31.8376 58.296 31.9976C58.026 32.1476 57.696 32.1776 57.466 32.2476C56.756 31.8576 56.666 30.9276 55.846 30.8376C54.956 31.4076 54.876 31.6176 55.346 32.3476C55.576 32.7076 55.876 33.0276 56.146 33.3676H56.136Z" fill="#6B4E47"/>
<path d="M33.9253 57.19C33.4253 57.25 32.9553 57.09 32.4853 56.73C32.9853 56.07 33.4953 55.6 34.3953 56.06C34.5553 56.14 34.8453 56.15 34.9953 56.06C35.2053 55.94 35.3353 55.7 35.5553 55.43C35.0753 55.27 34.7153 55.11 34.3453 55.05C34.0953 55.01 33.7653 55 33.5553 55.13C32.8153 55.58 32.0353 55.99 31.5353 56.84C31.9153 57.23 32.2853 57.6 32.7153 58.05C32.3053 58.57 32.5953 59.47 31.6953 59.76C31.2753 59.4 31.1053 58.98 31.2353 58.45C31.3853 57.84 31.0253 57.59 30.5453 57.37C30.1653 57.93 29.8253 58.42 29.5053 58.93C28.6753 60.25 29.1053 61.03 29.9153 61.64C30.7653 62.27 31.6753 62.73 32.7153 62.93C33.2353 63.03 33.7353 63.24 34.3153 63.01C34.0953 62.42 33.6453 62.27 33.1553 62.17C32.6753 62.08 32.1953 62 31.7253 61.87C31.5653 61.83 31.4353 61.65 31.2853 61.54C32.3153 61.64 33.0053 61.11 33.6553 60.52C33.8953 60.3 34.1053 60.04 34.3553 59.83C34.9653 59.34 35.5853 59.44 35.9953 60.1C36.1353 60.33 36.2453 60.59 36.3953 60.81C36.4453 60.89 36.5753 60.91 36.7653 61.01C37.0653 60.82 37.4253 60.6 37.8353 60.34C37.6653 59.91 37.5753 59.54 37.3753 59.23C36.5753 57.97 35.5953 57.01 33.9253 57.2V57.19Z" fill="#6B4E47"/>
<path d="M62.0059 62.5434C63.1259 61.2634 63.626 59.7534 63.646 57.8534C63.316 58.1134 63.076 58.2134 63.016 58.3734C62.846 58.8234 62.736 59.2934 62.636 59.7734C62.536 60.2134 62.506 60.6834 61.886 61.1034C62.136 59.9234 61.6159 59.2434 61.0059 58.5934C60.7859 58.3534 60.526 58.1434 60.326 57.8834C59.866 57.2934 59.946 56.7634 60.556 56.3634C60.866 56.1534 61.206 55.9934 61.586 55.7734C61.476 55.4834 61.406 55.2234 61.266 54.9934C61.166 54.8134 60.996 54.6634 60.866 54.5234C58.706 55.1534 57.7759 56.2834 57.7159 58.3434C57.6959 58.8734 57.676 59.3834 57.176 59.8134C56.546 59.1834 56.146 58.6334 56.636 57.7634C56.846 57.3934 56.646 57.2234 55.916 56.9434C55.696 57.5534 55.296 58.1534 55.696 58.8034C56.116 59.4934 56.506 60.2234 57.336 60.7134C57.716 60.3634 58.106 60.0134 58.556 59.6034C59.016 59.7734 59.526 59.9334 60.016 60.1434C60.126 60.1934 60.246 60.4034 60.236 60.5334C60.236 60.6534 60.0859 60.8334 59.9659 60.8734C59.6659 60.9634 59.3159 61.0834 59.0259 61.0234C58.3859 60.8934 58.136 61.2634 57.896 61.7334C58.446 62.1034 58.9859 62.4734 59.5259 62.8334C59.5759 62.8634 59.616 62.8934 59.666 62.9234C60.606 63.4434 61.296 63.3534 61.986 62.5534L62.0059 62.5434Z" fill="#6B4E47"/>
<path d="M29.6864 31.0762C29.3864 31.9362 29.0465 32.7962 29.2565 33.8062C29.9265 33.5362 30.0765 33.0262 30.1365 32.4662C30.2065 31.8762 30.1964 31.2662 30.7164 30.8262C30.9864 32.2262 31.0265 32.3062 32.0165 33.3762C32.1965 33.5762 32.4164 33.7562 32.5664 33.9762C32.9164 34.4862 32.8064 35.0062 32.2764 35.3762C31.9264 35.6162 31.5765 35.8362 31.2265 36.0762C31.3465 36.3662 31.4064 36.5862 31.5264 36.7562C31.8764 37.2862 32.2065 37.3062 32.7665 37.0162C33.1965 36.7862 32.9965 36.3162 33.2565 36.0462C33.7365 36.0762 34.1765 36.0662 34.5065 35.5762C34.8865 35.0062 35.1365 34.4362 35.1065 33.7462C35.0865 33.4162 35.0865 33.0862 35.1465 32.7662C35.1965 32.4762 35.2565 32.1262 35.7265 32.0462C36.2065 32.5662 36.6364 33.0462 36.2164 33.8862C35.9564 34.4162 36.1265 34.5762 36.8665 34.7962C37.3265 33.5062 37.3364 33.4762 37.1864 33.0762C36.9464 32.4362 36.1665 31.5662 35.3565 31.0562C34.9965 31.4262 34.6164 31.7962 34.2764 32.1462C33.7764 31.9862 33.3465 31.8862 32.9565 31.6962C32.7565 31.5962 32.6365 31.3362 32.4865 31.1562C32.9465 30.6862 33.4065 30.6062 33.9165 30.6962C34.3565 30.7762 34.6365 30.5462 34.9165 30.0362C34.2565 29.5762 33.7065 29.1362 33.0865 28.7962C32.4365 28.4462 31.7365 28.3062 31.1065 28.8862C30.4465 29.4862 29.9764 30.2262 29.6864 31.0562V31.0762Z" fill="#6B4E47"/>
<path d="M64.2755 24.5926C64.3855 24.4726 64.4355 24.3026 64.5655 24.2226C65.9655 23.3826 67.4555 23.0126 69.1455 23.3326C69.4755 25.0426 69.1355 26.5026 68.0255 27.7926C67.5355 28.3626 66.9155 28.8426 66.5955 29.6526C66.8555 29.9126 67.1055 30.1726 67.4455 30.5126C68.3855 29.8526 68.9755 29.1326 69.4355 28.3326C69.7555 27.7826 70.0255 27.1326 70.0955 26.5026C70.2155 25.4226 70.2155 24.3126 70.1855 23.2226C70.1655 22.4026 69.6455 21.8626 68.8455 21.8526C67.8155 21.8426 66.7655 21.9026 65.7355 21.9926C64.8355 22.0726 64.0455 22.4826 63.4055 23.1026C62.3955 24.0926 61.4055 25.1226 60.4255 26.1426C60.3655 26.2026 60.3955 26.3526 60.3555 26.5626C60.6355 26.7826 60.9655 27.0326 61.3355 27.3226C62.4155 26.4326 63.3655 25.5326 64.2555 24.5726L64.2755 24.5926Z" fill="#6B4E47"/>
<path d="M31.3269 64.3325C30.8369 64.7825 30.3169 65.2525 29.7869 65.7225C29.1769 66.2725 28.5669 66.8225 27.9569 67.3625C27.2769 67.9725 26.4569 68.2525 25.5669 68.3225C24.9769 68.3625 24.3869 68.3225 23.6469 68.3225C23.3469 66.4125 23.7269 64.8925 24.9269 63.5925C25.3969 63.0825 25.9669 62.6325 26.2069 61.8525C25.9269 61.6025 25.6669 61.3525 25.3469 61.0625C23.9669 62.1425 22.9069 63.3625 22.6969 65.0925C22.5669 66.1725 22.5769 67.2825 22.6069 68.3625C22.6269 69.1625 23.1569 69.6525 23.9769 69.6925C24.7969 69.7225 25.6169 69.7325 26.4369 69.6725C27.3669 69.6025 28.2669 69.3625 29.0269 68.7125C29.0069 68.5125 28.9969 68.3125 28.9769 68.1125C29.0269 68.0925 29.0769 68.0425 29.1269 68.0425C29.3369 68.0525 29.5469 68.0825 29.8069 68.1125C30.7069 67.1925 31.6169 66.2525 32.4869 65.3625C32.3269 64.6925 31.9669 64.4225 31.3369 64.3125L31.3269 64.3325Z" fill="#6B4E47"/>
<path d="M69.1666 62.9784C68.1166 61.8784 67.0266 60.7984 65.9466 59.7284C65.8866 59.6684 65.7466 59.6884 65.5266 59.6484C65.3066 59.9284 65.0566 60.2484 64.7466 60.6484C65.1966 61.1584 65.5866 61.6084 65.9866 62.0384C66.5766 62.6884 67.1666 63.3284 67.7466 63.9784C68.9066 65.2684 69.0166 66.7784 68.7566 68.3684C66.6566 68.7084 65.5866 68.4184 64.1466 67.1884C63.6166 66.7284 63.1666 66.1584 62.4466 65.8884C62.1966 66.1084 61.9566 66.3084 61.5566 66.6684C62.6066 68.0984 63.7966 69.1284 65.4366 69.3684C66.5566 69.5284 67.7166 69.4884 68.8666 69.4684C69.6966 69.4584 70.1866 68.9584 70.2066 68.1384C70.2266 67.2184 70.2266 66.2784 70.1566 65.3584C70.0866 64.4784 69.7866 63.6384 69.1666 62.9884V62.9784Z" fill="#6B4E47"/>
<path d="M27.1255 31.931C27.6155 31.731 27.9355 31.421 27.9055 30.741C27.5555 30.351 27.1555 29.901 26.7555 29.461C26.2355 28.891 25.7255 28.331 25.1955 27.771C23.9555 26.461 23.8055 24.901 24.0355 23.171C25.7655 22.851 27.2355 23.161 28.5255 24.271C29.0955 24.771 29.5855 25.381 30.3655 25.721C30.6255 25.461 30.8855 25.201 31.2055 24.881C30.3155 23.921 29.5255 22.941 28.3155 22.481C27.9155 22.321 27.4755 22.201 27.0455 22.181C26.0055 22.121 24.9655 22.101 23.9255 22.131C23.5855 22.141 23.2455 22.371 22.8955 22.501C22.9155 23.211 23.3955 23.901 22.6355 24.371C22.4855 25.761 22.5955 27.101 23.3755 28.321C23.8755 29.111 26.1355 31.291 27.1255 31.951V31.931Z" fill="#6B4E47"/>
<path d="M53.1161 62.9805C51.8961 62.7005 50.796 62.8105 49.726 63.3205C49.136 63.6005 48.536 63.8605 47.926 64.0805C47.636 64.1905 47.3861 63.9805 47.3061 63.7005C47.2461 63.5005 47.306 63.2705 47.286 63.0605C47.246 62.5305 46.8261 62.1605 46.3361 62.1805C45.8961 62.2005 45.536 62.5505 45.506 63.0105C45.486 63.3305 45.506 63.6405 45.506 63.9305C45.096 64.1505 44.766 64.3205 44.376 64.5305C44.466 63.8205 43.956 63.7505 43.606 63.5605C42.376 62.8905 41.096 62.5905 39.736 63.0105C39.586 63.5505 39.496 64.0205 39.786 64.3305C40.826 64.4805 41.736 64.5805 42.636 64.7505C43.536 64.9205 44.166 65.8005 45.256 65.7505C45.596 65.3205 45.956 64.8605 46.376 64.3305C46.776 64.8405 47.136 65.3005 47.466 65.7105C48.056 65.8905 48.496 65.6005 48.906 65.3705C50.076 64.7105 51.296 64.3305 52.656 64.4805C52.756 64.4905 52.8561 64.4305 53.1161 64.3405V62.9805Z" fill="#6B4E47"/>
<path d="M43.2954 28.4869C43.9254 28.2069 44.5154 27.7869 45.1454 27.7869C45.6754 28.1269 45.5054 28.5169 45.5154 28.8869C45.5254 29.3469 45.9054 29.6869 46.3554 29.7069C46.7954 29.7269 47.2254 29.3869 47.2954 28.9869C47.5254 27.5769 47.5454 27.5669 48.8454 28.1369C48.9954 28.2069 49.1454 28.2669 49.2854 28.3569C50.4754 29.0669 51.7354 29.1569 53.0554 28.8469C53.2854 28.3769 53.2254 27.9169 52.9654 27.3969C51.4654 27.6469 50.1054 27.1869 48.7954 26.4669C48.4254 26.2669 47.9954 26.1869 47.5554 26.0469C47.1554 26.5769 46.7954 27.0469 46.3954 27.5669C45.9454 27.0269 45.5354 26.5469 45.1154 26.0469C44.6854 26.2069 44.2854 26.2769 43.9854 26.4769C42.7454 27.2769 41.3854 27.5369 39.9354 27.4469C39.8554 27.4469 39.7754 27.5669 39.6854 27.6369C39.6654 28.0569 39.5954 28.4869 39.7854 28.8769C41.2154 29.1569 42.0554 29.0569 43.2954 28.4969V28.4869Z" fill="#6B4E47"/>
<path d="M65.8357 43.4522C65.1557 42.2322 64.7957 40.9422 64.8957 39.5322C64.8957 39.4522 64.7857 39.3522 64.7157 39.2422H63.4157C63.2157 40.9022 63.4257 42.2722 64.2057 43.5322C64.3757 43.8022 64.4657 44.1322 64.5357 44.4522C64.6057 44.7522 64.4457 44.9922 64.1457 45.0622C63.9357 45.1022 63.7157 45.0422 63.4957 45.0622C63.0057 45.1022 62.6657 45.4322 62.6357 45.8622C62.5957 46.3522 62.9757 46.7822 63.4957 46.8322C63.6557 46.8422 63.8257 46.7822 63.9857 46.8022C64.4257 46.8522 64.6557 47.2022 64.5057 47.6222C64.3157 48.1322 64.0657 48.6222 63.8657 49.1222C63.4157 50.2422 63.0457 51.3622 63.4357 52.5622C63.9757 52.8422 64.4257 52.8122 64.9457 52.4822C64.7157 50.8622 65.2657 49.4022 66.0257 47.9922C66.1657 47.7222 66.1757 47.3822 66.2457 47.0822C65.7357 46.6822 65.2757 46.3222 64.7857 45.9322C65.3157 45.5022 65.7757 45.1322 66.2757 44.7322C66.1257 44.2722 66.0457 43.8422 65.8457 43.4722L65.8357 43.4522Z" fill="#6B4E47"/>
<path d="M29.1266 46.8114C29.1766 46.8114 29.2366 46.8314 29.2866 46.8314C29.8266 46.7814 30.2066 46.3914 30.1866 45.9114C30.1666 45.4814 29.8166 45.1114 29.3666 45.0614C29.2566 45.0514 29.1466 45.1014 29.0366 45.0914C28.3266 45.0514 28.1166 44.7914 28.3666 44.1914C28.6066 43.5814 28.9066 43.0014 29.1666 42.4014C29.6066 41.3714 29.7466 40.3314 29.3366 39.2714C28.7966 39.1414 28.3266 39.0414 27.8566 39.5214C28.1066 40.8914 27.6866 42.1514 27.0266 43.3914C26.8066 43.8114 26.7066 44.2914 26.5566 44.7614C27.0866 45.1814 27.5466 45.5414 28.0566 45.9514C27.5266 46.3514 27.0566 46.7114 26.5666 47.0714C26.6666 48.2214 27.2066 49.0414 28.0766 49.5914C27.9866 50.6214 27.9066 51.5714 27.8266 52.4814C28.3566 52.7914 28.8166 52.8414 29.3566 52.5814C29.6366 51.5914 29.5766 50.5914 29.1566 49.6114C28.9166 49.0614 28.6466 48.5214 28.4166 47.9714C28.0766 47.1314 28.2366 46.8914 29.0966 46.8214L29.1266 46.8114Z" fill="#6B4E47"/>
<path d="M48.3555 40.6872C49.8355 40.9972 51.1855 40.9072 52.5255 40.7972C52.6255 40.7872 52.7455 40.7172 52.7955 40.6472C52.8855 40.5272 52.9555 40.3772 52.9655 40.2372C52.9755 40.1572 52.8655 40.0172 52.7855 39.9972C51.4455 39.6372 50.0855 39.6872 48.7455 39.9672C48.5955 39.9972 48.5155 40.3672 48.3555 40.6872Z" fill="#6B4E47"/>
<path d="M52.5167 39.4366C52.3867 39.1466 52.3567 38.9466 52.2567 38.8866C51.6767 38.5166 49.7267 38.4666 49.1767 38.8066C49.0767 38.8766 48.9867 39.0866 49.0067 39.2066C49.0367 39.3266 49.1967 39.5066 49.3167 39.5166C50.3267 39.6366 51.3367 39.7066 52.5067 39.4266L52.5167 39.4366Z" fill="#6B4E47"/>
</svg>
