<svg width="58" height="25" viewBox="0 0 58 25" fill="none" xmlns="http://www.w3.org/2000/svg">
<path d="M1.10594 24.3881L3.65952 6.96512C3.20675 7.02941 2.64986 7.09149 1.99788 7.15578C1.3459 7.22007 0.791273 7.25111 0.333984 7.25111L0.8207 3.89908C1.30605 3.89407 1.78664 3.80475 2.24011 3.63527C2.7288 3.45995 3.18984 3.21815 3.60971 2.91698C4.02655 2.61995 4.39715 2.26523 4.70992 1.86393C5.01298 1.47603 5.222 1.02572 5.32115 0.547064H8.89117L5.4117 24.3903L1.10594 24.3881Z" fill="#21201E"/>
<path d="M34.0579 1.81737C33.3591 0.973453 32.3562 0.550019 31.0493 0.547063H30.171C28.9397 0.536254 27.7516 0.991314 26.8545 1.81737C25.9082 2.66424 25.3212 3.83774 25.0932 5.33788L24.3643 10.0223H28.4233L29.1024 5.43543C29.2337 4.38016 29.559 3.85326 30.0781 3.85474H30.1755C30.6667 3.85474 30.8546 4.38238 30.7165 5.43543L29.7363 12.0442C29.3827 11.7907 29.0035 11.5738 28.6044 11.3968C28.2372 11.2256 27.8361 11.1355 27.4295 11.133H27.3321C26.0615 11.133 25.165 11.5638 24.6427 12.4255C24.1205 13.2871 23.7621 14.4503 23.5674 15.9149L23.0309 19.7436C22.9328 20.4826 22.8679 21.1477 22.8362 21.7389C22.7954 22.2459 22.8452 22.756 22.9834 23.2464C23.0909 23.6324 23.3306 23.9707 23.6625 24.2041C24.1064 24.4568 24.6172 24.5741 25.1295 24.5411H25.2766C25.7375 24.5338 26.1932 24.4444 26.6213 24.2773C27.1092 24.0935 27.5764 23.8609 28.0158 23.5834L27.9185 24.3948H31.9775L34.7167 5.38222C34.9777 3.85401 34.7581 2.66572 34.0579 1.81737ZM28.4595 20.6149C28.2648 21.2859 27.9547 21.6214 27.5291 21.6214H27.4317C26.9428 21.6214 26.7963 21.0952 26.9926 20.0429L27.5789 15.6334C27.7736 14.5811 28.0996 14.0549 28.5569 14.0549H28.8919C29.0051 14.0559 29.1149 14.0939 29.2036 14.163C29.2921 14.2321 29.3546 14.3283 29.3809 14.4362L28.4595 20.6149Z" fill="#21201E"/>
<path d="M41.7956 10.029L42.4747 5.43102C42.5424 5.05841 42.5338 4.67639 42.4498 4.30702C42.3683 4.0033 42.1986 3.86363 41.936 3.86363H41.8386C41.7003 3.86978 41.5667 3.91489 41.4538 3.99353C41.341 4.07216 41.2536 4.18101 41.2025 4.30702C41.0241 4.66007 40.9077 5.04008 40.8584 5.43102L40.5233 7.49054C40.3624 8.37306 40.5555 9.28234 41.0621 10.029C41.5735 10.7259 42.1205 11.397 42.7011 12.0397C43.311 12.7207 43.8507 13.4588 44.313 14.2434C44.7854 15.0415 44.9407 16.0635 44.7793 17.3094L44.3877 19.748C44.2609 21.0811 43.6438 22.3236 42.6513 23.2442C41.7496 24.0844 40.55 24.5488 39.3054 24.5389H38.4746C37.1706 24.5389 36.1761 24.1081 35.4909 23.2464C34.8056 22.3848 34.5793 21.2194 34.8118 19.7503L35.4479 15.057H39.07L38.3908 19.6549C38.2942 20.7087 38.5205 21.2356 39.07 21.2356H39.2647C39.8517 21.2356 40.229 20.7087 40.3966 19.6549L40.6886 17.5954C40.7936 17.0016 40.7429 16.3913 40.5414 15.8219C40.3425 15.3036 40.0622 14.8189 39.7106 14.3852C39.341 13.9256 38.95 13.4867 38.538 13.0684C38.1106 12.6337 37.7257 12.1609 37.388 11.6562C37.0393 11.1291 36.7681 10.5568 36.582 9.95579C36.3815 9.24596 36.3482 8.5008 36.4847 7.77653L36.8265 5.33788C36.9941 4.01884 37.6143 2.79471 38.5855 1.86615C39.0317 1.44013 39.5592 1.10453 40.138 0.878552C40.7169 0.652578 41.3356 0.540682 41.9586 0.549284H42.4114C43.7153 0.549284 44.7175 0.980114 45.4177 1.84177C46.1179 2.70342 46.3443 3.86807 46.0968 5.33569L45.4177 10.029H41.7956Z" fill="#21201E"/>
<path d="M53.1554 10.0312L53.8345 5.43321C53.902 5.05988 53.8934 4.67717 53.8096 4.30702C53.7281 4.0033 53.5583 3.86363 53.2957 3.86363H53.1984C53.0601 3.87006 52.9267 3.91527 52.8138 3.99386C52.701 4.07247 52.6137 4.18119 52.5623 4.30702C52.3839 4.66087 52.2675 5.04157 52.2182 5.43321L51.8831 7.49056C51.7222 8.37306 51.9153 9.28234 52.4219 10.029C52.9326 10.727 53.4798 11.3989 54.0609 12.042C54.6701 12.7226 55.21 13.4599 55.6727 14.2434C56.1452 15.0415 56.3005 16.0635 56.1391 17.3094L55.7474 19.748C55.6243 21.0814 55.0103 22.3255 54.0201 23.2486C53.1164 24.0868 51.9166 24.55 50.672 24.5411H49.8389C48.5349 24.5411 47.5411 24.1094 46.8575 23.2464C46.1738 22.3833 45.9474 21.2179 46.1783 19.7503L46.8167 15.057H50.4388L49.7597 19.655C49.6616 20.7087 49.888 21.2356 50.4388 21.2356H50.6244C51.2114 21.2356 51.5888 20.7087 51.7563 19.655L52.0506 17.5954C52.1557 17.0016 52.105 16.3913 51.9035 15.8219C51.7045 15.3036 51.4242 14.8189 51.0727 14.3852C50.7041 13.927 50.312 13.4874 49.8978 13.0684C49.4719 12.633 49.0878 12.1603 48.75 11.6562C48.3996 11.1301 48.1281 10.5575 47.9441 9.95581C47.7426 9.24616 47.7087 8.50096 47.8445 7.77653L48.1863 5.33788C48.3557 4.01893 48.9766 2.79513 49.9476 1.86616C50.3942 1.44007 50.9221 1.10443 51.5012 0.878463C52.0805 0.652494 52.6994 0.540637 53.3229 0.54929H53.7621C55.066 0.54929 56.0689 0.980862 56.7707 1.84399C57.4725 2.70712 57.7086 3.8725 57.4792 5.34012L56.8001 10.0334L53.1554 10.0312Z" fill="#21201E"/>
<path d="M22.1005 1.83955C21.3036 0.976421 20.22 0.54559 18.8497 0.547068H13.0317L9.5839 24.397H13.8851L14.4466 20.5173H16.0131C17.2515 20.5532 18.474 20.2375 19.5333 19.6084C20.5113 19.0009 21.1308 17.9316 21.3919 16.4005L22.9585 5.48201C23.1864 3.91536 22.9004 2.70121 22.1005 1.83955ZM18.5101 6.16039L17.1903 15.0681C17.059 16.345 16.7005 16.9835 16.115 16.9835H14.9831L16.8417 4.10085H17.8649C18.5169 4.10085 18.7297 4.78735 18.5033 6.16039H18.5101Z" fill="#21201E"/>
</svg>
