<svg width="25" height="25" viewBox="0 0 25 25" fill="none" xmlns="http://www.w3.org/2000/svg">
<path d="M16.92 1.65836C16.9836 1.58056 17.0153 1.54001 17.057 1.48961C17.0964 1.4918 17.1523 1.48194 17.1962 1.50166C19.8545 2.68511 21.8533 4.56659 23.1803 7.15923C23.2427 7.28196 23.3194 7.4014 23.292 7.55481C23.2844 7.60083 23.2964 7.66986 23.3271 7.69945C23.6986 8.06216 23.7829 8.55965 23.9199 9.01988C24.1029 9.6379 24.2607 10.268 24.3144 10.9156C24.3265 11.0537 24.3769 11.1906 24.2991 11.3254C24.2826 11.3539 24.2728 11.3977 24.2826 11.4262C24.5127 12.0936 24.4163 12.7806 24.378 13.4567C24.2991 14.8309 23.9846 16.1546 23.4213 17.4147C23.3227 17.635 23.2482 17.875 23.0345 18.0273C22.9984 18.0536 22.9655 18.1149 22.9677 18.1577C22.9819 18.3889 22.8362 18.5511 22.731 18.7286C22.2357 19.5603 21.6407 20.3153 20.958 21.0002C20.8375 21.1218 20.7356 21.2741 20.5438 21.3059C20.5011 21.3125 20.4386 21.3574 20.432 21.3924C20.3937 21.6105 20.203 21.6938 20.0605 21.8121C19.768 22.0554 19.4864 22.3195 19.1105 22.4378C18.8891 22.7545 18.5243 22.8696 18.2174 23.0635C17.9972 23.2027 17.7572 23.3024 17.4942 23.3594C17.2586 23.4109 17.0252 23.5106 16.8159 23.6311C16.3403 23.9051 15.8341 24.0892 15.3004 24.2021C14.8555 24.2963 14.4085 24.3785 13.9603 24.4585C13.8233 24.4826 13.6721 24.5176 13.5439 24.4848C13.1921 24.3949 12.8612 24.5242 12.5215 24.5374C11.5178 24.5757 10.5283 24.5133 9.60013 24.0651C9.52562 24.0289 9.42481 23.9895 9.35577 24.0125C9.18592 24.0695 9.04238 24.0048 8.89773 23.9544C8.30272 23.7473 7.70989 23.5402 7.17405 23.195C6.94065 23.0449 6.66999 22.9529 6.43001 22.8104C5.53804 22.2789 4.72715 21.6423 4.00941 20.8895C3.81984 20.69 3.58424 20.5191 3.52945 20.2189C3.52069 20.1739 3.47795 20.1169 3.43631 20.0983C3.12511 19.9581 2.99142 19.66 2.81938 19.4025C2.53776 18.9806 2.27368 18.5467 2.01617 18.1095C1.90111 17.9144 1.81454 17.7018 1.71811 17.4958C1.488 16.9994 1.43649 16.4461 1.23706 15.9453C1.03872 15.45 0.983933 14.9339 0.868875 14.4254C0.63328 13.38 0.738476 12.3335 0.765871 11.2871C0.776828 10.8718 0.877641 10.4554 0.9664 10.0455C1.07817 9.53271 1.21734 9.02645 1.35212 8.5191C1.43321 8.21338 1.53511 7.91751 1.80249 7.70822C1.86276 7.6611 1.92303 7.55152 1.91097 7.48468C1.85618 7.17457 2.04904 6.94774 2.17396 6.71214C2.43476 6.22013 2.68789 5.71607 3.10429 5.32597C3.32454 4.86026 3.70916 4.52385 4.04667 4.15347C4.31623 3.85761 4.58908 3.55736 4.95836 3.37327C5.01973 3.34259 5.08328 3.30314 5.12821 3.25164C5.67063 2.63142 6.38837 2.25885 7.09735 1.88409C7.66606 1.58384 8.23587 1.27264 8.89006 1.17621C9.04128 1.1543 9.18373 1.06554 9.32947 1.00746C9.63849 0.885826 9.95188 0.783918 10.2905 0.782822C10.3891 0.782822 10.4866 0.733512 10.5852 0.7105C10.754 0.671051 10.9238 0.602017 11.0937 0.602017C11.4257 0.602017 11.7556 0.541748 12.0821 0.547227C12.8853 0.562568 13.6918 0.584484 14.4895 0.671051C15.3695 0.766385 16.1902 1.06554 16.9244 1.65945L16.92 1.65836ZM2.70323 18.2212C2.73501 18.2629 2.77007 18.3034 2.79747 18.3472C3.44069 19.4036 4.22528 20.3372 5.183 21.1229C5.2367 21.1678 5.3145 21.204 5.33751 21.2621C5.49749 21.6653 5.91937 21.7234 6.21962 21.9392C6.35988 22.0401 6.52863 22.1025 6.67766 22.1924C7.93891 22.9474 9.29003 23.4492 10.7463 23.6673C10.9688 23.7002 11.1879 23.7659 11.4027 23.8361C11.6416 23.9139 11.8739 23.9467 12.1226 23.8766C12.2881 23.8295 12.4656 23.8065 12.6388 23.8021C13.9077 23.7692 15.1372 23.5369 16.3436 23.138C16.8926 22.9572 17.423 22.7622 17.9402 22.497C18.9483 21.9809 19.8589 21.3453 20.6468 20.5323C20.8528 20.3197 21.0402 20.0896 21.2966 19.9252C21.4073 19.8551 21.4862 19.7214 21.5563 19.603C21.7426 19.2863 21.9113 18.9609 22.0932 18.642C22.7902 17.4202 23.3655 16.1513 23.5879 14.7465C23.5901 14.7289 23.5967 14.7125 23.6 14.695C23.9112 13.0776 23.9199 11.4657 23.5737 9.8472C23.292 8.52677 22.7387 7.32798 22.0637 6.17521C21.9848 6.04042 21.8752 5.92427 21.7755 5.80154C21.1552 5.03778 20.3991 4.40879 19.6946 3.7294C19.5203 3.56175 19.3045 3.43244 19.0941 3.30971C18.7467 3.10699 18.3884 2.924 18.0344 2.73223C17.2159 2.28844 16.3535 1.95313 15.4571 1.70219C15.1547 1.61781 14.8555 1.51919 14.5542 1.43043C14.4939 1.4129 14.4194 1.38441 14.3668 1.40304C14.1904 1.4655 14.0227 1.42167 13.8485 1.40304C12.8524 1.30004 11.8564 1.27593 10.8636 1.43263C10.2072 1.53673 9.55301 1.65069 8.90102 1.7778C8.71693 1.81396 8.53831 1.90382 8.36956 1.99148C8.04411 2.15913 7.72414 2.33884 7.40526 2.51965C7.02503 2.73552 6.64588 2.95468 6.27112 3.17822C6.04758 3.31191 5.85363 3.4949 5.58187 3.54641C5.50626 3.56065 5.43175 3.63407 5.37477 3.69762C4.68551 4.46687 3.98311 5.22516 3.31577 6.01413C2.67693 6.76913 2.22218 7.6359 1.90768 8.57499C1.74112 9.07138 1.5647 9.56558 1.39485 10.0609C1.37294 10.1266 1.35869 10.1968 1.35212 10.2658C1.31815 10.6307 1.2787 10.9956 1.26007 11.3616C1.23049 11.9204 1.23158 12.4815 1.19104 13.0392C1.16474 13.4085 1.1494 13.769 1.24583 14.1317C1.35321 14.5372 1.43869 14.9492 1.54059 15.3557C1.79372 16.3628 2.17615 17.3172 2.70104 18.2114C2.67145 18.2136 2.64186 18.2158 2.61337 18.2201C2.59913 18.2223 2.58598 18.2267 2.57173 18.23C2.58598 18.2223 2.59913 18.2092 2.61337 18.2081C2.64186 18.2081 2.67145 18.2147 2.69994 18.219L2.70323 18.2212ZM12.3067 0.895689L12.3407 0.880347L12.3056 0.868294L12.3078 0.895689H12.3067Z" fill="#21201E"/>
<path d="M12.9324 15.4841C12.7297 15.5367 12.5817 15.5926 12.4305 15.6069C12.3626 15.6134 12.2607 15.5587 12.219 15.4995C12.1653 15.4239 12.2103 15.3329 12.2859 15.2726C12.3757 15.2014 12.5291 15.2124 12.5576 15.0458C12.5248 15.0206 12.4864 14.9669 12.447 14.9658C12.2618 14.9636 12.2037 14.8453 12.1927 14.6952C12.1807 14.5209 12.1851 14.3456 12.1851 14.1703C12.1851 14.0125 12.1916 13.8558 12.1905 13.698C12.1905 13.6465 12.1752 13.5961 12.161 13.5139C11.9034 13.4591 11.6361 13.4054 11.372 13.3463C11.2197 13.3123 11.0619 13.2882 10.9205 13.2257C10.5819 13.0767 10.2433 13.069 9.89596 13.1698C9.82911 13.1896 9.76227 13.2115 9.69433 13.2235C9.54311 13.2509 9.40614 13.2049 9.32943 13.0745C9.25163 12.9419 9.1563 12.7929 9.15192 12.6482C9.1311 12.0225 9.0259 11.3946 9.16616 10.769C9.24067 10.4369 9.39189 10.2901 9.73707 10.266C10.1283 10.2397 10.5118 10.3065 10.8526 10.495C11.0334 10.5947 11.1989 10.6265 11.3972 10.6101C11.5879 10.5947 11.7818 10.621 11.9736 10.6177C12.0349 10.6177 12.0963 10.5827 12.2037 10.5509C12.1204 10.4216 12.0492 10.3284 11.9977 10.2265C11.9122 10.0556 11.8958 9.83863 12.0601 9.75206C12.2815 9.6359 12.2935 9.4299 12.356 9.26881C12.4864 9.21731 12.5543 9.26991 12.6113 9.34004C12.7428 9.50112 12.8721 9.6633 13.0003 9.82657C13.1055 9.96135 13.1603 10.1082 13.0332 10.2539C12.9171 10.3887 12.928 10.5443 12.928 10.701C12.928 11.4188 12.9269 12.1365 12.928 12.8531C12.928 13.5347 12.9313 14.2174 12.9324 14.899C12.9324 15.0721 12.9324 15.2464 12.9324 15.4819V15.4841ZM12.1664 12.7425C12.1829 12.3118 12.2004 11.913 12.2103 11.5141C12.2114 11.467 12.173 11.4188 12.1621 11.3903C11.6218 11.25 11.1002 11.1076 10.5743 10.9826C10.4077 10.9432 10.228 10.9235 10.0581 10.9388C9.75789 10.964 9.6253 11.1163 9.61105 11.4199C9.60119 11.6456 9.60448 11.8735 9.61324 12.0992C9.61763 12.1968 9.6516 12.2921 9.6757 12.3995C10.0932 12.3776 10.4581 12.5003 10.8241 12.6219C11.2405 12.76 11.6602 12.8729 12.1664 12.7414V12.7425ZM12.6464 14.5209C12.6201 14.533 12.5927 14.5439 12.5664 14.556C12.5785 14.5659 12.5927 14.5867 12.6015 14.5845C12.6289 14.579 12.6541 14.5637 12.6804 14.5527C12.6694 14.5418 12.6573 14.5308 12.6464 14.5198V14.5209Z" fill="#21201E"/>
<path d="M12.1238 3.39965C12.0219 3.3087 11.9649 3.24076 11.8936 3.19802C11.5594 2.9964 11.3786 3.0216 11.1058 3.30212C11.0455 3.36458 10.9995 3.44238 10.9392 3.50375C10.8154 3.63086 10.7968 3.63196 10.4384 3.62976C10.4954 3.38431 10.6696 3.24295 10.8603 3.13666C11.04 3.03585 11.2373 2.94928 11.4378 2.90435C11.6493 2.85614 11.8728 2.86271 12.0986 2.84518C11.9232 2.58657 11.5455 2.43097 10.9655 2.37837C11.5901 2.08689 12.1172 2.18551 12.6245 2.56027C12.9325 2.37399 13.2491 2.22387 13.6064 2.2162C13.7598 2.21291 13.9143 2.24469 14.0677 2.26879C14.0863 2.27208 14.0973 2.32358 14.1148 2.35755C13.9461 2.49343 13.7543 2.41892 13.5702 2.42111C13.2228 2.42659 13.0826 2.54274 12.9379 2.96243C13.3609 2.89887 13.7751 2.75971 14.1718 2.98106C14.3877 3.10159 14.5838 3.24405 14.6967 3.4906C14.6068 3.6462 14.4622 3.67031 14.2858 3.66045C14.2551 3.63963 14.2091 3.61552 14.1729 3.58045C14.0337 3.44896 13.911 3.29445 13.7554 3.18926C13.648 3.11693 13.4924 3.07858 13.3631 3.08844C13.2097 3.0994 13.0629 3.17939 13.0015 3.35034C13.0289 3.47197 13.1341 3.43691 13.2097 3.44896C13.8902 3.56183 14.2288 3.97384 14.1828 4.64228C14.163 4.94143 14.0732 5.00169 13.6666 4.96992C13.6305 4.41764 13.6075 3.83906 12.8766 3.66045C12.813 3.84673 12.7812 4.00014 12.9489 4.13383C13.0464 4.21163 13.065 4.33545 12.9938 4.41326C12.7933 4.63241 12.813 4.89212 12.813 5.15291C12.813 5.20442 12.7988 5.25592 12.7922 5.30523C12.6717 5.44111 12.5325 5.47288 12.344 5.39399C12.332 5.30413 12.3111 5.20332 12.3068 5.10251C12.2969 4.87787 12.3166 4.65871 12.161 4.4527C12.0394 4.29272 12.0635 4.08781 12.1764 3.90919C12.2125 3.85111 12.2476 3.79304 12.2936 3.71633C12.0514 3.60347 11.8761 3.68565 11.7249 3.84673C11.5594 4.02206 11.5123 4.2456 11.4915 4.47352C11.4783 4.6105 11.4893 4.74966 11.4893 4.88444C11.3731 5.02909 11.2263 5.04772 11.0608 5.01375C10.9272 4.91403 10.9392 4.7661 10.9524 4.63132C11.0159 3.93659 11.1978 3.74263 12.127 3.40184L12.1238 3.39965Z" fill="#21201E"/>
<path d="M3.42427 12.0498C3.92066 10.9748 4.16283 10.8126 5.01097 10.9759C5.09206 11.1238 5.06796 11.2663 4.9518 11.435C4.79949 11.4405 4.62854 11.4405 4.4587 11.4558C4.03463 11.4931 3.78369 11.6838 3.68616 12.0443C3.66973 12.1035 3.69493 12.1725 3.7037 12.2766C3.79684 12.2251 3.8582 12.1999 3.90971 12.1615C4.08175 12.0311 4.30529 11.9983 4.45103 12.1078C4.72169 12.3117 5.01536 12.2547 5.30465 12.2843C5.33752 12.2876 5.37039 12.304 5.43614 12.3259C5.44491 12.373 5.47121 12.4377 5.46354 12.499C5.43943 12.704 5.39012 12.7565 5.21698 12.773C5.11288 12.7828 5.00659 12.7697 4.90249 12.7839C4.80168 12.7982 4.68443 12.8081 4.60882 12.865C4.37542 13.0436 4.16503 13.0294 3.94148 12.8541C3.89546 12.8179 3.81985 12.8179 3.75301 12.7993C3.71575 13.3581 4.18146 13.597 4.98139 13.6189C5.07124 13.7395 5.05809 13.8732 4.98796 13.9992C4.92112 14.1208 4.78853 14.1329 4.66799 14.146C4.12886 14.203 3.71466 13.9367 3.53933 13.4162C3.49002 13.2694 3.46372 13.1138 3.42537 12.9604C3.25771 12.979 3.18101 13.1017 3.15032 13.2332C3.12402 13.3461 3.12841 13.4798 3.16238 13.5904C3.22484 13.7954 3.37715 13.94 3.54262 14.0781C3.75739 14.2567 3.74753 14.3498 3.53823 14.6457C2.9224 14.2676 2.84021 14.009 2.98705 12.9209C2.82487 12.8661 2.73063 12.9779 2.63092 13.0688C2.50819 13.1828 2.46217 13.3351 2.45669 13.4951C2.4534 13.5981 2.49066 13.7033 2.48847 13.8074C2.48627 13.9247 2.4797 14.0507 2.32519 14.1164C2.1422 13.5488 2.34163 13.0546 2.57394 12.602C2.47203 12.3741 2.35259 12.178 2.2967 11.9643C2.24958 11.7846 2.25616 11.5841 2.27369 11.3956C2.28684 11.252 2.26931 11.0822 2.44792 10.9233C2.48079 11.2509 2.37779 11.5589 2.57394 11.8054C2.63749 11.8865 2.7142 11.9577 2.792 12.0257C2.81063 12.0421 2.85556 12.0278 2.88843 12.0278C2.93226 11.0592 3.06376 10.771 3.63576 10.4116C3.72342 10.5661 3.69493 10.7085 3.5996 10.8367C3.54919 10.9047 3.4692 10.9507 3.40455 11.0099C3.04294 11.343 3.02321 11.5424 3.3125 11.9588C3.33113 11.9862 3.36619 12.0026 3.42208 12.0487L3.42427 12.0498Z" fill="#21201E"/>
<path d="M22.6532 10.9855C22.9545 11.5433 22.9447 12.0704 22.5272 12.5602C22.5732 12.6468 22.6258 12.7355 22.6685 12.8276C22.8099 13.1311 22.9238 13.4357 22.8099 13.782C22.7803 13.8719 22.8055 13.9803 22.8055 14.1228C22.6061 13.9562 22.6356 13.7886 22.6608 13.6154C22.7047 13.302 22.5776 13.0708 22.3003 12.9262C22.2598 12.9043 22.2028 12.9119 22.1513 12.9054C22.2828 14.0143 22.228 14.1864 21.6012 14.6455C21.3799 14.3825 21.3755 14.2795 21.5672 14.0844C21.6889 13.9606 21.8269 13.8434 21.9135 13.6965C21.9793 13.5848 22.0012 13.4303 21.9924 13.2988C21.9825 13.1377 21.8938 13.0029 21.6944 12.9481C21.6692 13.0851 21.6538 13.221 21.6187 13.3503C21.4719 13.8938 21.0424 14.1929 20.478 14.1359C20.3641 14.1239 20.2238 14.0833 20.1559 14.0044C20.089 13.9266 20.0978 13.7831 20.0649 13.6286C20.2665 13.61 20.4331 13.599 20.5986 13.5771C20.9941 13.5245 21.2867 13.336 21.4138 12.9404C21.4226 12.9141 21.4018 12.878 21.3952 12.8451C21.2845 12.7542 21.2023 12.8363 21.1202 12.8955C20.9437 13.0215 20.7596 13.0467 20.5909 12.9021C20.4243 12.7585 20.2337 12.787 20.0441 12.7783C19.6814 12.7607 19.6595 12.73 19.7066 12.3027C19.8206 12.2939 19.9389 12.2775 20.0583 12.2753C20.2512 12.2731 20.4265 12.2556 20.6029 12.1372C20.8703 11.9575 21.1344 12.0846 21.4116 12.2676C21.416 12.1383 21.4555 12.0222 21.416 11.9477C21.3437 11.814 21.2473 11.6638 21.1213 11.5981C20.8944 11.4787 20.6402 11.4074 20.3915 11.3362C20.3246 11.3176 20.2359 11.3735 20.1197 11.4052C20.1033 11.2452 20.0901 11.1148 20.077 10.9866C20.97 10.8015 21.267 10.9965 21.6878 12.0408C21.8938 11.9389 21.9749 11.7603 22.0121 11.5586C22.0472 11.368 21.9552 11.2189 21.8226 11.0951C21.7459 11.0239 21.6582 10.9647 21.5815 10.8935C21.4401 10.7609 21.4051 10.6031 21.4873 10.3927C22.1184 10.7741 22.2784 11.3428 22.2083 12.0594C22.3058 12.0134 22.3924 11.997 22.4428 11.9455C22.6225 11.7625 22.7047 11.5356 22.685 11.277C22.6773 11.1784 22.6663 11.0809 22.6565 10.9823L22.6532 10.9855Z" fill="#21201E"/>
<path d="M12.9949 21.6671C13.0212 21.8391 13.1461 21.918 13.2754 21.9411C13.4058 21.9641 13.557 21.952 13.6797 21.9038C13.8047 21.8545 13.911 21.7504 14.0129 21.6561C14.1016 21.5751 14.1729 21.4742 14.2463 21.3877C14.3657 21.4041 14.4523 21.4107 14.5356 21.4304C14.5827 21.4414 14.6254 21.4732 14.6649 21.494C14.6682 21.5389 14.6846 21.5805 14.6703 21.6036C14.4084 22.0353 14.0173 22.2183 13.5209 22.1777C13.3335 22.1624 13.1494 22.123 12.9609 22.0945C12.9171 22.2753 13.0245 22.3695 13.1176 22.467C13.2195 22.5744 13.3543 22.6161 13.4978 22.6172C13.637 22.6183 13.7773 22.6018 13.9164 22.6062C14.0019 22.6095 14.0918 22.6292 14.1268 22.7717C13.591 22.9075 13.1077 22.8056 12.6333 22.4879C12.1303 22.8823 11.5714 22.9196 10.9677 22.7048C11.0542 22.5459 11.1649 22.6161 11.257 22.627C11.5528 22.661 11.8125 22.593 12.0207 22.3717C12.0536 22.3366 12.0678 22.2851 12.0919 22.2391C11.9846 22.1153 11.8574 22.2019 11.7468 22.1854C11.6087 22.1646 11.4663 22.1679 11.3315 22.1361C11.2142 22.1087 11.0981 22.0594 10.9929 22.0002C10.8723 21.9312 10.7551 21.8512 10.6543 21.7559C10.5699 21.6759 10.5107 21.5696 10.4307 21.46C10.6433 21.3701 10.8022 21.3986 10.9359 21.5444C10.983 21.5959 11.0203 21.6561 11.0674 21.7077C11.4126 22.0824 11.6766 22.0715 12.0821 21.6408C11.9287 21.5816 11.7862 21.5323 11.6482 21.4721C11.143 21.2518 10.9041 20.8507 10.9457 20.3028C10.9633 20.0705 11.0498 20.0048 11.2931 20.053C11.3578 20.0651 11.4169 20.1034 11.4586 20.1209C11.4936 20.4059 11.5046 20.6688 11.5638 20.9198C11.6295 21.197 11.8246 21.3691 12.1161 21.4096C12.161 21.4162 12.2114 21.3855 12.298 21.3603C12.2475 21.2737 12.2103 21.2047 12.1687 21.1378C12.0678 20.9757 12.0393 20.785 12.1413 20.6404C12.3067 20.4037 12.3067 20.1527 12.3056 19.8897C12.3056 19.8229 12.3221 19.755 12.3352 19.6607H12.7341C12.7659 19.7341 12.7987 19.7791 12.8042 19.8284C12.8152 19.9325 12.8141 20.0377 12.8152 20.1429C12.8163 20.2831 12.825 20.4146 12.928 20.533C13.0891 20.7192 13.0595 20.9143 12.9193 21.1072C12.8743 21.1696 12.8579 21.2518 12.8163 21.3559C13.0047 21.3964 13.1319 21.3395 13.2327 21.2518C13.3357 21.1619 13.4354 21.0557 13.5011 20.9362C13.568 20.8168 13.6041 20.6765 13.6293 20.5395C13.6545 20.4037 13.648 20.2623 13.6578 20.0892C13.7543 20.0815 13.8518 20.064 13.9482 20.0694C14.0677 20.076 14.1345 20.1615 14.163 20.2689C14.3098 20.8288 14.0041 21.3855 13.4529 21.5542C13.3039 21.6003 13.1505 21.6288 12.996 21.6671H12.9949Z" fill="#21201E"/>
<path d="M15.0473 14.1371C15.1745 13.9431 15.1295 13.758 15.0725 13.5717C15.0221 13.4062 14.9925 13.2473 15.0167 13.0632C15.0506 12.8057 14.9235 12.6008 14.6572 12.4868C14.3362 12.8671 14.2178 13.3284 14.0184 13.781C13.5056 13.553 13.2009 13.1914 13.156 12.6666C13.1187 12.2337 13.1461 11.7943 13.156 11.3582C13.1604 11.1894 13.2678 11.0777 13.4552 11.0459C13.8365 10.9834 14.22 10.9955 14.6014 11.0601C14.7131 11.0788 14.7843 11.1598 14.8106 11.2694C14.9169 11.7077 15.0342 12.145 15.1164 12.5877C15.1558 12.798 15.1766 12.9997 15.341 13.1553C15.4637 13.2725 15.4868 13.427 15.4944 13.587C15.5043 13.7854 15.4177 13.953 15.3596 14.1349C15.3049 14.3059 15.2731 14.4604 15.1032 14.5568C14.9684 14.6335 14.9367 14.7683 14.9323 14.9162C14.929 15.0367 14.929 15.165 14.8874 15.2745C14.8632 15.3381 14.7613 15.4049 14.6901 15.4104C14.5882 15.4192 14.5422 15.3118 14.5575 15.2263C14.6101 14.9315 14.6134 14.639 14.5948 14.3409C14.5794 14.0878 14.6649 14.0483 14.9553 14.1404C14.9695 14.1448 14.9871 14.1382 15.0451 14.1327L15.0473 14.1371Z" fill="#21201E"/>
<path d="M17.0329 9.0967C16.8422 8.89179 16.6603 8.91261 16.4883 8.92247C16.142 8.9422 15.8845 8.79317 15.6763 8.53237C15.5897 8.42498 15.4944 8.32308 15.421 8.20692C15.272 7.97352 15.2983 7.90668 15.5821 7.72368C15.8451 7.75436 15.8746 8.05242 16.1004 8.17624C16.1749 8.15542 16.2812 8.14446 16.3667 8.09625C16.4554 8.04584 16.5234 7.95927 16.6001 7.88914C16.9146 7.60095 16.954 7.58342 17.3956 7.53411C17.297 7.38289 17.1512 7.35878 16.9989 7.34454C16.7878 7.32408 16.607 7.24263 16.4565 7.10017C16.4719 6.99827 16.5595 7.02566 16.6132 7.02895C17.0997 7.05415 17.5315 7.22071 17.8964 7.54835C18.121 7.74998 18.1791 7.98996 18.0355 8.24966C17.9194 8.46005 17.7682 8.65181 17.6334 8.84906C17.4701 8.78221 17.366 8.69236 17.412 8.5247C17.4592 8.35047 17.389 8.22446 17.2915 8.08639C16.9891 8.17295 17.0658 8.46115 16.9146 8.69017C17.0559 8.7844 17.1995 8.87864 17.3331 8.9674C16.8948 9.59967 16.6329 9.6961 16.0675 9.44407C16.108 9.38928 16.1343 9.32463 16.1826 9.29833C16.2374 9.26765 16.3119 9.2534 16.3754 9.25998C16.4751 9.27203 16.5825 9.34764 16.6658 9.32353C16.7896 9.28737 16.8948 9.18766 17.0351 9.0978L17.0329 9.0967Z" fill="#21201E"/>
<path d="M9.8237 17.158C9.6933 17.2402 9.58044 17.3114 9.48291 17.3728C9.42264 17.3421 9.3821 17.3345 9.36566 17.3103C9.31745 17.238 9.28238 17.1569 9.23636 17.0824C9.10486 16.8731 8.90653 16.8392 8.71038 16.997C8.62929 17.0627 8.56354 17.1471 8.48574 17.2172C8.27754 17.4057 8.05838 17.5733 7.72855 17.5427C7.77457 17.5788 7.81622 17.6336 7.86881 17.6479C8.02003 17.6895 8.17454 17.7158 8.32795 17.7454C8.48684 17.7761 8.62929 17.8254 8.70052 18.0127C8.51752 18.0873 8.35534 18.0215 8.18988 17.9886C7.85676 17.9229 7.56418 17.7783 7.29352 17.5755C7.03272 17.3805 6.89685 17.1295 7.16093 16.7077C7.26284 16.5455 7.37352 16.3888 7.49405 16.2091C7.64856 16.2792 7.76142 16.3581 7.71431 16.5532C7.67267 16.7219 7.72746 16.8578 7.86224 16.9728C8.15043 16.8819 8.05839 16.5937 8.18988 16.426C8.05072 16.2836 7.93237 16.1631 7.81074 16.0392C7.97072 15.7653 8.22166 15.6338 8.45835 15.4913C8.5241 15.4519 8.62929 15.453 8.71038 15.4672C8.82873 15.4891 8.94159 15.5396 9.0961 15.59C9.02378 15.6743 8.98214 15.7521 8.91639 15.7905C8.86708 15.819 8.77722 15.8179 8.72463 15.7916C8.43643 15.6447 8.27316 15.796 8.11208 16.0064C8.2633 16.1214 8.41232 16.1707 8.57231 16.1521C9.10596 16.0918 9.42155 16.3987 9.67687 16.8019C9.73933 16.9016 9.76891 17.0211 9.8237 17.1558V17.158Z" fill="#21201E"/>
<path d="M16.0642 17.2762C15.7979 17.1195 15.673 16.8839 15.5393 16.6637C15.4133 16.4566 15.5393 16.2637 15.6105 16.0698C15.8439 16.1596 15.9075 16.2144 15.8406 16.3328C15.6828 16.6111 15.811 16.7875 16.0127 16.988C16.1737 16.8522 16.1803 16.6889 16.1858 16.519C16.2066 15.8616 16.5036 15.5 17.1939 15.2972C17.2334 15.3422 17.2882 15.3882 17.321 15.4463C17.3627 15.5197 17.3857 15.6041 17.4218 15.6961C17.3002 15.764 17.1906 15.8177 17.0909 15.8835C16.897 16.0128 16.8718 16.1815 17.0186 16.3711C17.0821 16.4533 17.1643 16.5212 17.2356 16.5979C17.4295 16.8051 17.5983 17.0242 17.5172 17.4012C17.7166 17.2664 17.7254 17.1163 17.7572 16.9749C17.7911 16.8237 17.8262 16.6725 17.8799 16.5278C17.8996 16.4763 17.9752 16.4456 18.0804 16.3613C18.0749 16.9705 17.9139 17.4516 17.5555 17.8625C17.332 18.1189 17.1139 18.1485 16.8115 17.9819C16.7961 17.9732 16.7819 17.9644 16.7666 17.9545C16.5945 17.8373 16.4214 17.7211 16.2461 17.6017C16.3228 17.4505 16.4028 17.3332 16.6077 17.3749C16.7008 17.3935 16.8104 17.3562 16.9079 17.3277C16.9463 17.3168 16.9912 17.2576 16.9934 17.2193C16.9956 17.1776 16.9594 17.1108 16.9233 17.0954C16.7666 17.0286 16.6033 16.976 16.4554 16.9223C16.3118 17.0527 16.188 17.1656 16.0663 17.2773L16.0642 17.2762Z" fill="#21201E"/>
<path d="M8.88899 7.46829C8.79914 7.63266 8.71038 7.70608 8.56902 7.68088C8.40356 7.65239 8.25562 7.67869 8.10988 7.82771C8.1581 7.88469 8.19645 7.96907 8.26001 7.99975C8.38493 8.06002 8.523 8.0918 8.68298 8.1433C8.79366 8.03153 8.9131 7.91209 9.02925 7.79374C9.28895 7.95811 9.5388 8.23644 9.6155 8.44026C9.66372 8.56737 9.66152 8.57723 9.51359 8.98925C9.278 8.91693 9.22102 8.86652 9.30539 8.69667C9.44017 8.42711 9.3021 8.2737 9.14979 8.10824C8.99857 8.13453 8.97994 8.24411 8.96241 8.33835C8.94488 8.44026 8.94488 8.54765 8.95036 8.65175C8.96241 8.8731 8.88023 9.05609 8.75969 9.2369C8.65449 9.39469 8.51423 9.39579 8.35972 9.38702C8.27754 9.47469 8.34219 9.62481 8.20303 9.69713C8.02441 9.79027 7.91703 9.7837 7.80635 9.61495C7.768 9.55797 7.74937 9.48784 7.70992 9.39579C7.82279 9.32128 7.93565 9.25005 8.04633 9.17334C8.21508 9.05609 8.25124 8.88844 8.13838 8.72517C8.08907 8.65394 8.02113 8.59586 7.96195 8.53231C7.64527 8.19152 7.63102 8.16522 7.54555 7.71704C7.38009 7.85949 7.38228 8.05454 7.36036 8.24302C7.34064 8.42054 7.29133 8.5849 7.07765 8.67147C7.01081 8.34821 7.12039 8.07207 7.21572 7.79813C7.30886 7.52966 7.46118 7.29516 7.67157 7.1023C7.87429 6.91711 8.09893 6.96094 8.30603 7.07271C8.50327 7.17901 8.6797 7.32255 8.89118 7.4672L8.88899 7.46829Z" fill="#21201E"/>
<path d="M19.2946 7.61924C19.1872 7.51075 19.1061 7.42857 19.0228 7.34419C19.1269 7.08559 19.3242 6.93218 19.4809 6.74918C19.8348 6.33607 19.9422 5.86707 19.8381 5.32136C19.299 5.21946 18.8223 5.3367 18.3741 5.60517C18.3336 5.62928 18.315 5.68626 18.281 5.72352C17.9961 6.03034 17.6915 6.31634 17.3463 6.60234C17.2258 6.5092 17.1217 6.42921 17.0318 6.36017C17.0417 6.29114 17.034 6.24512 17.0526 6.22539C17.3682 5.89775 17.6827 5.56901 18.007 5.25123C18.212 5.0507 18.4651 4.9214 18.7522 4.8951C19.082 4.86551 19.4151 4.84579 19.7461 4.85017C20.0014 4.85346 20.1679 5.0255 20.1734 5.28739C20.1811 5.63695 20.1833 5.9898 20.1438 6.33607C20.1208 6.53769 20.0354 6.7437 19.9324 6.92122C19.7855 7.17763 19.5948 7.40775 19.2946 7.62033V7.61924Z" fill="#21201E"/>
<path d="M5.28486 19.7172C5.51936 19.7172 5.71003 19.7282 5.8985 19.7151C6.18341 19.6953 6.4453 19.6044 6.66336 19.4093C6.85841 19.2351 7.05346 19.0598 7.24851 18.8834C7.41617 18.7321 7.58164 18.5809 7.73943 18.4374C7.94215 18.4735 8.05611 18.559 8.10762 18.7727C7.82928 19.0576 7.5389 19.3556 7.25071 19.6515C7.16852 19.6427 7.10168 19.634 7.03374 19.6296C7.0184 19.6296 7.00196 19.6438 6.98662 19.6515C6.9921 19.7162 6.99758 19.7808 7.00306 19.8444C6.76089 20.0515 6.47489 20.1293 6.17574 20.1512C5.91494 20.1709 5.65085 20.1687 5.38896 20.1578C5.12706 20.1479 4.95612 19.9912 4.95064 19.7337C4.94188 19.3852 4.93749 19.0313 4.97913 18.6861C5.04598 18.1327 5.38457 17.7426 5.82618 17.3964C5.92699 17.4895 6.01246 17.5684 6.10122 17.6495C6.02561 17.8993 5.84152 18.0418 5.6914 18.2051C5.31006 18.6215 5.18624 19.1058 5.28267 19.7151L5.28486 19.7172Z" fill="#21201E"/>
<path d="M17.4131 19.1814C17.5424 19.0686 17.6191 19.0017 17.698 18.9327C17.9292 19.0215 18.0716 19.2045 18.2415 19.3502C18.7017 19.7447 19.0436 19.8367 19.7153 19.7282C19.7997 19.2187 19.7624 18.7355 19.3921 18.3234C19.2058 18.1163 19.0151 17.9114 18.8277 17.7043C18.7006 17.5641 18.5768 17.4216 18.4322 17.2583C18.5308 17.1312 18.6119 17.0271 18.6809 16.9384C18.751 16.9504 18.796 16.9438 18.8157 16.9625C19.1609 17.3065 19.5082 17.6495 19.8457 18.0024C20.0463 18.2117 20.1405 18.479 20.1635 18.7618C20.1876 19.0565 20.1887 19.3546 20.181 19.6504C20.1745 19.9134 20.0189 20.0723 19.7526 20.0767C19.3866 20.0833 19.0151 20.0986 18.6557 20.046C18.1286 19.9693 17.7506 19.6395 17.4131 19.1803V19.1814Z" fill="#21201E"/>
<path d="M7.70115 5.81377C7.59814 5.91678 7.51596 5.99896 7.43158 6.08334C7.17955 5.97376 7.02505 5.77871 6.84205 5.61982C6.43003 5.26259 5.95775 5.16507 5.40547 5.26697C5.33205 5.82144 5.38026 6.32112 5.77804 6.73972C5.94679 6.91723 6.11116 7.09914 6.27662 7.27994C6.40592 7.4213 6.53304 7.56485 6.64481 7.68977C6.65467 7.90673 6.55166 8.00864 6.39606 8.0711C6.08047 7.85961 5.35835 7.1616 5.19727 6.90956C4.94962 6.52056 4.91455 6.09101 4.96167 5.64612C5.20494 5.49599 5.05262 5.27464 5.04605 5.04891C5.15672 5.00727 5.26521 4.93495 5.37479 4.93166C5.70681 4.9207 6.03993 4.92837 6.37195 4.947C6.50893 4.95467 6.64919 4.99412 6.77849 5.04453C7.16531 5.19465 7.41624 5.50586 7.70224 5.81487L7.70115 5.81377Z" fill="#21201E"/>
<path d="M14.7109 18.4384C14.6277 18.4647 14.5948 18.4855 14.5641 18.4822C14.1302 18.4351 13.7401 18.5567 13.3642 18.7671C13.2327 18.8406 13.0914 18.9326 12.9029 18.8756C12.7977 18.7419 12.6837 18.5973 12.5544 18.4329C12.4185 18.605 12.3035 18.7518 12.195 18.8888C11.8476 18.9052 11.6438 18.6258 11.3567 18.5699C11.0685 18.514 10.7759 18.4822 10.4439 18.434C10.3508 18.3354 10.3804 18.1853 10.4286 18.011C10.8658 17.8774 11.2756 17.9716 11.6679 18.1875C11.7808 18.2499 11.943 18.2718 11.9134 18.4987C12.0394 18.4329 12.1435 18.377 12.2761 18.308C12.2761 18.2149 12.2706 18.114 12.2772 18.0132C12.2859 17.8642 12.3999 17.7546 12.5413 17.747C12.6991 17.7382 12.8306 17.8576 12.8448 18.0275C12.8503 18.0965 12.8316 18.1699 12.8503 18.2335C12.8766 18.3233 12.9555 18.3902 13.0486 18.3562C13.2448 18.2861 13.4354 18.2006 13.625 18.1119C13.968 17.9497 14.3186 17.9157 14.7098 18.0045V18.4384H14.7109Z" fill="#21201E"/>
<path d="M12.9335 6.19129C13.0727 6.23622 13.2119 6.26033 13.3291 6.32498C13.7488 6.55729 14.1849 6.70303 14.6638 6.62303C14.7493 6.7885 14.7668 6.93533 14.6934 7.08546C14.2682 7.18627 13.865 7.15449 13.4858 6.92876C13.4409 6.90246 13.3927 6.88054 13.3456 6.85972C12.9292 6.67563 12.9226 6.67892 12.8481 7.13038C12.8262 7.25859 12.6859 7.36598 12.5467 7.3605C12.4043 7.35502 12.2826 7.24544 12.2783 7.09861C12.275 6.98026 12.3309 6.85315 12.1599 6.74576C11.9583 6.74576 11.7709 6.87945 11.5693 6.9704C11.1737 7.15011 10.9063 7.18079 10.4472 7.09203C10.3847 6.96821 10.4077 6.83123 10.4143 6.69645C10.4428 6.67454 10.4702 6.63399 10.4954 6.63618C10.9589 6.66577 11.3918 6.58249 11.7895 6.32717C11.8882 6.26361 12.0142 6.2406 12.1522 6.1902C12.287 6.35018 12.4174 6.50469 12.5621 6.67673C12.6892 6.51017 12.8031 6.36004 12.9324 6.19129H12.9335Z" fill="#21201E"/>
<path d="M18.0048 10.4078H18.4212C18.4453 10.445 18.4815 10.4757 18.4793 10.502C18.4464 10.9524 18.5604 11.3644 18.7795 11.7556C18.8453 11.8728 18.8694 12.0131 18.9187 12.1588C18.7587 12.2881 18.613 12.4065 18.4431 12.5435C18.602 12.6684 18.7478 12.7823 18.911 12.9105C18.8891 13.007 18.8869 13.1166 18.8409 13.202C18.5987 13.6535 18.4223 14.1203 18.4968 14.6386C18.3303 14.7438 18.1856 14.7537 18.0125 14.6649C17.8887 14.2836 18.0081 13.9231 18.1506 13.5658C18.2152 13.4036 18.2952 13.248 18.3566 13.0848C18.4059 12.9533 18.3314 12.8415 18.19 12.824C18.1396 12.8174 18.0848 12.8371 18.0344 12.8327C17.8667 12.8185 17.7462 12.6793 17.7583 12.5237C17.7692 12.3846 17.8788 12.2794 18.0344 12.2673C18.1034 12.2618 18.1758 12.2816 18.2415 12.2673C18.339 12.2465 18.3894 12.1709 18.3664 12.0734C18.3423 11.9725 18.3138 11.8673 18.2601 11.7797C18.0103 11.3753 17.9413 10.9381 18.007 10.4056L18.0048 10.4078Z" fill="#21201E"/>
<path d="M7.11374 14.6729C6.93842 14.7562 6.79158 14.7409 6.62283 14.6422C6.64803 14.3486 6.67324 14.045 6.70173 13.7163C6.4223 13.541 6.24807 13.2791 6.21739 12.9109C6.3719 12.7947 6.52202 12.6808 6.69296 12.5526C6.52859 12.4233 6.38176 12.3071 6.213 12.1734C6.26232 12.0244 6.2919 11.8688 6.36313 11.7351C6.57243 11.3406 6.7094 10.9352 6.62831 10.498C6.77734 10.3435 6.92856 10.3763 7.1006 10.418C7.23209 10.7566 7.18826 11.0908 7.0469 11.4195C6.96472 11.6113 6.86719 11.7976 6.79049 11.9915C6.71378 12.1855 6.77843 12.2666 7.00636 12.2808C7.04033 12.283 7.07649 12.2677 7.11046 12.271C7.25729 12.2863 7.36906 12.4035 7.37454 12.5416C7.38002 12.6961 7.25839 12.821 7.08525 12.8364C7.06882 12.8375 7.05019 12.8287 7.03375 12.8298C6.75652 12.8517 6.70721 12.9306 6.81569 13.198C6.88801 13.3755 6.97458 13.5465 7.05129 13.7229C7.18716 14.0374 7.2047 14.3573 7.11594 14.6751L7.11374 14.6729Z" fill="#21201E"/>
<path d="M13.1878 10.8716C13.2404 10.7708 13.2656 10.6514 13.3138 10.6415C13.7433 10.5506 14.1773 10.5341 14.6068 10.6503C14.6331 10.6569 14.6682 10.7018 14.6649 10.7259C14.6605 10.7708 14.6375 10.819 14.6101 10.8563C14.5926 10.8815 14.5542 10.9023 14.5225 10.9056C14.0918 10.9407 13.6601 10.9703 13.1867 10.8716H13.1878Z" fill="#21201E"/>
<path d="M14.5191 10.4726C14.1444 10.5613 13.8211 10.5383 13.4979 10.5C13.4595 10.4956 13.4069 10.4397 13.3982 10.4002C13.3905 10.3619 13.4179 10.2929 13.4508 10.272C13.6272 10.1614 14.2496 10.1778 14.4348 10.2961C14.4676 10.317 14.4753 10.3783 14.5181 10.4726H14.5191Z" fill="#21201E"/>
</svg>
