<svg width="118" height="128" viewBox="0 0 118 128" fill="none" xmlns="http://www.w3.org/2000/svg">
<path d="M83.8301 63.2353C76.1501 63.2353 67.8902 69.9253 60.6002 86.0453C56.0102 96.2353 51.5001 101.065 36.5501 101.065H36.3001C23.2601 101.065 16.7702 98.3153 15.9202 80.7653C15.4202 70.5753 14.9301 50.7953 14.9301 35.0753C14.9301 23.7953 15.1802 14.6253 15.9202 12.6953L11.7502 14.2853C8.75015 20.1353 5.48016 25.3153 3.07016 30.1453C1.98016 32.2253 1.16016 34.1653 1.16016 36.6653C1.16016 42.0153 1.58015 64.6553 2.75015 90.7753C4.01015 117.005 13.6802 125.675 30.5602 125.675H30.7302C43.3502 125.675 50.5402 122.425 55.7902 115.165C64.3902 123.095 77.8302 127.435 88.0402 127.435C98.8202 127.435 105.74 105.795 105.74 93.9453C105.74 77.2353 96.3902 63.2053 83.8502 63.2053L83.8001 63.2253L83.8301 63.2353ZM94.2002 107.235C85.8502 107.235 70.4802 103.145 64.3802 97.0453C65.5502 93.5453 72.1402 81.1853 77.6702 81.1853C86.6902 81.1853 95.7202 96.4753 95.7202 105.655C95.7202 106.645 95.1201 107.245 94.2101 107.245L94.2002 107.235Z" fill="#21201E"/>
<path d="M88.0697 127.938C78.6797 127.938 65.1797 124.218 55.8897 115.908C50.4197 123.198 43.0897 126.178 30.7497 126.178H30.5797C11.9297 126.178 3.45968 115.598 2.26968 90.7981C1.06968 63.9581 0.679688 41.4081 0.679688 36.6581C0.679688 34.1581 1.42969 32.2181 2.64969 29.9081C3.86969 27.4581 5.30968 24.9181 6.82968 22.2381C8.30968 19.6281 9.8497 16.9281 11.3197 14.0481L11.4097 13.8781L16.7997 11.8281L16.3997 12.8781C15.9597 14.0181 15.4397 18.7881 15.4397 35.0881C15.4397 51.3881 15.9397 70.7381 16.4297 80.7481C17.2497 97.7081 23.2197 100.578 36.3097 100.578H36.4597C51.0697 100.578 55.5597 96.0381 60.1497 85.8481C68.7297 66.8781 77.6797 62.7981 83.7097 62.7481L83.7597 62.7181H83.8797C96.4297 62.7181 106.27 76.4381 106.27 93.9581C106.27 105.938 99.3597 127.948 88.0697 127.948V127.938ZM55.7497 114.418L56.1597 114.798C65.2497 123.178 78.7397 126.938 88.0697 126.938C98.5697 126.938 105.27 105.278 105.27 93.9481C105.27 77.0481 95.9397 63.7981 83.9997 63.7081L83.8297 63.7381C75.5897 63.7381 67.7197 71.5181 61.0597 86.2481C56.2897 96.8381 51.6197 101.568 36.5597 101.568H36.3097C22.8397 101.568 16.2797 98.4581 15.4297 80.7881C14.9397 70.7681 14.4397 50.9281 14.4397 35.0781C14.4397 23.4381 14.6897 16.3381 15.2097 13.4981L12.1197 14.6781C10.6597 17.5081 9.15971 20.1681 7.69971 22.7381C6.17971 25.4081 4.7497 27.9381 3.5397 30.3681C2.3897 32.5581 1.67969 34.3681 1.67969 36.6681C1.67969 41.4181 2.06968 63.9381 3.26968 90.7581C4.42968 114.888 12.5997 125.178 30.5797 125.178H30.7497C42.9697 125.178 50.1097 122.188 55.4097 114.878L55.7397 114.418H55.7497ZM94.1997 107.738C86.1097 107.738 70.3297 103.708 64.0297 97.4081L63.8097 97.1881L63.9097 96.8981C64.8597 94.0381 71.4897 80.6881 77.6697 80.6881C87.0497 80.6881 96.2197 96.4881 96.2197 105.658C96.2197 106.908 95.4097 107.748 94.2097 107.748L94.1997 107.738ZM64.9497 96.9181C71.2197 102.918 86.3697 106.738 94.1997 106.738C94.8497 106.738 95.2097 106.348 95.2097 105.648C95.2097 101.248 93.0297 95.2081 89.6597 90.2581C85.9497 84.8081 81.5797 81.6781 77.6697 81.6781C72.7797 81.6781 66.4897 92.6781 64.9597 96.9081L64.9497 96.9181Z" fill="#21201E"/>
<path d="M84.9513 62.1337C77.2713 62.1337 69.0113 68.8238 61.7213 84.9438C57.1313 95.1338 52.6213 99.9637 37.6713 99.9637H37.4213C24.3813 99.9637 17.8913 97.2138 17.0413 79.6638C16.5413 69.4738 16.0512 49.6938 16.0512 33.9738C16.0512 22.6938 16.3013 13.5237 17.0413 11.5938L12.8712 13.1838C9.87125 19.0338 6.60125 24.2138 4.19125 29.0438C3.10125 31.1238 2.28125 33.0638 2.28125 35.5638C2.28125 40.9138 2.70125 63.5538 3.87125 89.6738C5.13125 115.904 14.8012 124.574 31.6812 124.574H31.8513C44.4713 124.574 51.6613 121.324 56.9113 114.064C65.5113 121.994 78.9513 126.334 89.1613 126.334C99.9413 126.334 106.861 104.694 106.861 92.8438C106.861 76.1338 97.5113 62.1037 84.9713 62.1037L84.9213 62.1238L84.9513 62.1337ZM95.3112 106.134C86.9612 106.134 71.5912 102.044 65.4912 95.9438C66.6512 92.4438 73.2512 80.0838 78.7812 80.0838C87.8013 80.0838 96.8312 95.3738 96.8312 104.554C96.8312 105.544 96.2313 106.144 95.3213 106.144L95.3112 106.134Z" fill="#E8DFCE"/>
<path d="M89.1908 126.831C79.8008 126.831 66.3008 123.111 57.0108 114.801C51.5408 122.091 44.2108 125.071 31.8708 125.071H31.7008C13.0508 125.071 4.58081 114.491 3.39081 89.6909C2.19081 62.8709 1.80078 40.3109 1.80078 35.5509C1.80078 33.0509 2.5508 31.1209 3.7608 28.8009C4.9808 26.3509 6.4208 23.8209 7.9408 21.1309C9.4208 18.5209 10.9608 15.8109 12.4308 12.9309L12.5208 12.7609L17.9108 10.7109L17.5108 11.7609C17.0708 12.9009 16.5508 17.6709 16.5508 33.9709C16.5508 50.2709 17.0508 69.6209 17.5408 79.6309C18.3608 96.5909 24.3308 99.4609 37.4208 99.4609H37.5708C52.1808 99.4609 56.6708 94.9209 61.2608 84.7309C69.8408 65.7609 78.7908 61.6809 84.8208 61.6309L84.8708 61.6009H84.9908C97.5408 61.6009 107.381 75.3209 107.381 92.8409C107.381 104.821 100.471 126.831 89.1808 126.831H89.1908ZM56.8608 113.311L57.2708 113.691C66.3608 122.071 79.8508 125.831 89.1808 125.831C99.6808 125.831 106.381 104.171 106.381 92.8409C106.381 75.9409 97.0508 62.6909 85.1108 62.6009L84.9408 62.6309C76.7008 62.6309 68.8308 70.4109 62.1708 85.1409C57.4008 95.7309 52.7308 100.461 37.6708 100.461H37.4208C23.9508 100.461 17.3908 97.3509 16.5408 79.6809C16.0508 69.6609 15.5508 49.8209 15.5508 33.9709C15.5508 22.3309 15.8008 15.2309 16.3208 12.3909L13.2308 13.5709C11.7708 16.4009 10.2608 19.0609 8.80078 21.6309C7.28078 24.3009 5.85081 26.8209 4.64081 29.2609C3.49081 31.4509 2.7908 33.2709 2.7908 35.5609C2.7908 40.3109 3.18079 62.8509 4.37079 89.6509C5.53079 113.781 13.7008 124.071 31.6808 124.071H31.8508C44.0708 124.071 51.2108 121.081 56.5108 113.771L56.8408 113.311H56.8608ZM95.3108 106.631C87.2208 106.631 71.4408 102.601 65.1408 96.3009L64.9208 96.0809L65.0208 95.7909C65.9708 92.9309 72.6008 79.5809 78.7808 79.5809C88.1608 79.5809 97.3308 95.3809 97.3308 104.551C97.3308 105.801 96.5208 106.641 95.3208 106.641L95.3108 106.631ZM66.0708 95.8109C72.3408 101.811 87.4908 105.631 95.3208 105.631C95.9708 105.631 96.3308 105.241 96.3308 104.541C96.3308 100.141 94.1508 94.1009 90.7808 89.1509C87.0708 83.7009 82.7008 80.5709 78.7908 80.5709C73.9008 80.5709 67.6108 91.5709 66.0808 95.8009L66.0708 95.8109Z" fill="#21201E"/>
<path d="M89.42 57.6572C81.74 57.6572 73.48 64.3472 66.19 80.4672C61.6 90.6572 57.09 95.4872 42.14 95.4872H41.89C28.85 95.4872 22.36 92.7372 21.51 75.1872C21.01 64.9972 20.52 45.2172 20.52 29.4972C20.52 18.2172 20.77 9.04719 21.51 7.11719L17.34 8.70719C14.34 14.5572 11.07 19.7372 8.66 24.5672C7.57 26.6472 6.75 28.5872 6.75 31.0872C6.75 36.4372 7.17 59.0772 8.34 85.1972C9.6 111.427 19.27 120.097 36.15 120.097H36.32C48.94 120.097 56.13 116.847 61.38 109.587C69.98 117.517 83.42 121.857 93.63 121.857C104.41 121.857 111.33 100.217 111.33 88.3672C111.33 71.6572 101.98 57.6272 89.44 57.6272L89.39 57.6472L89.42 57.6572ZM99.78 101.657C91.43 101.657 76.06 97.5672 69.96 91.4672C71.13 87.9772 77.72 75.6072 83.25 75.6072C92.27 75.6072 101.3 90.8972 101.3 100.077C101.3 101.067 100.7 101.667 99.79 101.667L99.78 101.657Z" fill="#2E4096"/>
<path d="M93.6497 122.36C84.2597 122.36 70.7598 118.64 61.4698 110.33C55.9998 117.62 48.6597 120.6 36.3297 120.6H36.1598C17.5098 120.6 9.03976 110.02 7.84976 85.22C6.64976 58.38 6.25977 35.83 6.25977 31.08C6.25977 28.58 7.00977 26.64 8.22977 24.33C9.44977 21.88 10.8898 19.34 12.4098 16.66C13.8898 14.05 15.4297 11.35 16.8997 8.47L16.9897 8.3L22.3798 6.25L21.9798 7.3C21.5398 8.44 21.0197 13.21 21.0197 29.51C21.0197 45.81 21.5198 65.16 22.0098 75.17C22.8298 92.13 28.7998 95 41.8898 95H42.0398C56.6498 95 61.1398 90.46 65.7298 80.27C74.3098 61.3 83.2598 57.22 89.2898 57.17L89.3398 57.14H89.4597C102.01 57.14 111.85 70.86 111.85 88.38C111.85 100.36 104.94 122.37 93.6497 122.37V122.36ZM61.3297 108.84L61.7397 109.22C70.8297 117.6 84.3197 121.36 93.6497 121.36C104.15 121.36 110.85 99.7 110.85 88.37C110.85 71.47 101.52 58.22 89.5797 58.13L89.4098 58.16C81.1698 58.16 73.2998 65.94 66.6398 80.67C61.8698 91.26 57.1998 95.99 42.1398 95.99H41.8898C28.4198 95.99 21.8598 92.88 21.0098 75.21C20.5198 65.19 20.0197 45.35 20.0197 29.5C20.0197 17.86 20.2698 10.76 20.7898 7.92L17.6998 9.1C16.2398 11.93 14.7398 14.59 13.2798 17.16C11.7598 19.83 10.3298 22.36 9.11975 24.79C7.96975 26.98 7.25977 28.79 7.25977 31.09C7.25977 35.84 7.64976 58.36 8.84976 85.18C10.0098 109.31 18.1798 119.6 36.1598 119.6H36.3297C48.5497 119.6 55.6897 116.61 60.9897 109.3L61.3198 108.84H61.3297ZM99.7798 102.16C91.6898 102.16 75.9097 98.13 69.6097 91.83L69.3898 91.61L69.4897 91.32C70.4397 88.46 77.0698 75.11 83.2498 75.11C92.6298 75.11 101.8 90.91 101.8 100.08C101.8 101.33 100.99 102.17 99.7898 102.17L99.7798 102.16ZM70.5298 91.34C76.7998 97.34 91.9498 101.16 99.7798 101.16C100.43 101.16 100.79 100.77 100.79 100.07C100.79 95.67 98.6097 89.63 95.2397 84.68C91.5297 79.23 87.1598 76.1 83.2498 76.1C78.3598 76.1 72.0698 87.1 70.5398 91.33L70.5298 91.34Z" fill="#21201E"/>
<path d="M95.2303 51.8369C87.5503 51.8369 79.2903 58.5269 72.0003 74.6469C67.4103 84.8369 62.9003 89.6669 47.9503 89.6669H47.7003C34.6603 89.6669 28.1703 86.9169 27.3203 69.3669C26.8203 59.1769 26.3303 39.3969 26.3303 23.6769C26.3303 12.3969 26.5803 3.22687 27.3203 1.29688L23.1603 2.88688C20.1603 8.73688 16.8903 13.9169 14.4803 18.7469C13.3903 20.8269 12.5703 22.7669 12.5703 25.2669C12.5703 30.6169 12.9903 53.2569 14.1603 79.3769C15.4303 105.607 25.0903 114.277 41.9703 114.277H42.1403C54.7603 114.277 61.9503 111.027 67.2003 103.767C75.8003 111.697 89.2403 116.037 99.4503 116.037C110.23 116.037 117.15 94.3969 117.15 82.5469C117.15 65.8369 107.8 51.8069 95.2603 51.8069L95.2103 51.8269L95.2303 51.8369ZM105.59 95.8369C97.2403 95.8369 81.8703 91.7469 75.7703 85.6469C76.9303 82.1569 83.5303 69.7769 89.0603 69.7769C98.0803 69.7769 107.11 85.0769 107.11 94.2469C107.11 95.2369 106.51 95.8369 105.6 95.8369H105.59Z" fill="#7EC2EB"/>
<path d="M99.4701 116.54C90.0801 116.54 76.5701 112.82 67.2901 104.51C61.8201 111.8 54.4801 114.78 42.1501 114.78H41.9801C23.3301 114.78 14.8601 104.2 13.6701 79.3997C12.4701 52.5797 12.0801 30.0197 12.0801 25.2597C12.0801 22.7597 12.8301 20.8297 14.0501 18.5097C15.2701 16.0597 16.7101 13.5197 18.2401 10.8297C19.7201 8.21969 21.2501 5.51969 22.7301 2.64969L22.8201 2.47969L28.2101 0.429688L27.8101 1.47969C27.3701 2.61969 26.8501 7.38969 26.8501 23.6897C26.8501 39.9897 27.3501 59.3497 27.8401 69.3497C28.6601 86.3097 34.6301 89.1797 47.7201 89.1797H47.8701C62.4801 89.1797 66.9701 84.6397 71.5601 74.4497C80.1401 55.4897 89.0801 51.3997 95.1201 51.3497L95.1701 51.3197H95.2901C107.84 51.3197 117.68 65.0397 117.68 82.5597C117.68 94.5397 110.77 116.55 99.4801 116.55L99.4701 116.54ZM67.1401 103.02L67.5501 103.4C76.6401 111.78 90.1301 115.54 99.4601 115.54C109.96 115.54 116.66 93.8797 116.66 82.5497C116.66 65.6497 107.33 52.3997 95.3901 52.3097L95.2201 52.3397C86.9801 52.3397 79.1101 60.1197 72.4501 74.8497C67.6801 85.4397 63.0101 90.1697 47.9501 90.1697H47.7001C34.2301 90.1697 27.6701 87.0597 26.8201 69.3897C26.3301 59.3797 25.8301 39.5397 25.8301 23.6797C25.8301 12.0397 26.0801 4.93969 26.6001 2.09969L23.5101 3.27969C22.0501 6.10969 20.5501 8.75969 19.0901 11.3297C17.5701 13.9997 16.1401 16.5297 14.9201 18.9697C13.7701 21.1597 13.0601 22.9797 13.0601 25.2697C13.0601 30.0197 13.4501 52.5597 14.6401 79.3597C15.8101 103.49 23.9701 113.79 41.9501 113.79H42.1201C54.3401 113.79 61.4801 110.8 66.7801 103.49L67.1101 103.03L67.1401 103.02ZM105.59 96.3397C97.5001 96.3397 81.7201 92.3097 75.4201 86.0097L75.2001 85.7897L75.3001 85.4997C76.2501 82.6397 82.8801 69.2897 89.0601 69.2897C98.4401 69.2897 107.61 85.0897 107.61 94.2597C107.61 95.5097 106.8 96.3497 105.6 96.3497L105.59 96.3397ZM76.3501 85.5197C82.6201 91.5197 97.7701 95.3397 105.59 95.3397C106.24 95.3397 106.6 94.9497 106.6 94.2497C106.6 89.8597 104.42 83.8097 101.05 78.8597C97.3401 73.4097 92.9701 70.2797 89.0601 70.2797C84.1701 70.2797 77.8801 81.2797 76.3501 85.5097V85.5197Z" fill="#21201E"/>
</svg>
