<svg width="275" height="169" viewBox="0 0 275 169" fill="none" xmlns="http://www.w3.org/2000/svg">
<path d="M254.15 117.662C259.62 108.392 260.93 99.5622 260.93 90.6522C260.93 80.9322 256.53 69.8322 247.86 62.4922L238.59 81.1922C248.91 91.1722 250.32 100.522 250.32 101.832C250.32 103.322 245.92 107.492 228.08 107.492C228.03 107.492 227.98 107.522 227.95 107.522C227.87 107.522 227.82 107.492 227.74 107.492C209.9 107.492 211.16 96.0222 193.85 43.2422C190.94 47.9022 184.84 58.7722 184.58 62.8322C187.67 73.5222 196.68 101.752 196.68 103.952C196.68 105.892 188.56 110.842 174.78 110.842C163.65 110.842 159.17 108.122 159.17 100.862C159.17 99.6322 159.25 98.2122 159.43 96.8022C157.05 97.7722 154.66 98.8222 152.2 99.8122C151.15 105.892 150.34 111.912 150.34 115.682C150.34 126.002 155.03 135.192 171.08 135.192C181.51 135.192 188.1 131.652 193.06 127.782C196.23 125.322 198.88 118.252 200.29 114.272C202.94 122.572 207 133.522 221.11 133.522C221.21 133.522 221.35 133.472 221.45 133.442C221.61 133.472 221.74 133.522 221.92 133.522C238.16 133.522 248.66 126.812 254.14 117.652L254.15 117.662Z" fill="#21201E"/>
<path d="M171.1 135.714C153.54 135.714 149.85 124.834 149.85 115.704C149.85 111.464 150.87 104.684 151.72 99.7437L151.77 99.4738L152.03 99.3738C153.32 98.8538 154.58 98.3238 155.84 97.7938C156.99 97.3138 158.12 96.8338 159.26 96.3638L160.05 96.0438L159.94 96.8937C159.77 98.1937 159.68 99.5837 159.68 100.894C159.68 107.804 163.78 110.374 174.79 110.374C189.06 110.374 196.19 105.204 196.19 103.984C196.19 102.614 192.09 89.2338 188.79 78.4838C186.93 72.4138 185.17 66.6738 184.11 62.9938L184.09 62.9137V62.8237C184.38 58.4237 191.11 46.7437 193.44 43.0037L194.01 42.0938L194.34 43.1138C197.98 54.2138 200.85 63.6337 203.15 71.2037C211.95 100.144 214.04 107.014 227.76 107.014C227.83 107.014 227.89 107.014 227.95 107.034C227.95 107.034 228.02 107.014 228.1 107.014C245.97 107.014 249.84 102.884 249.84 101.854C249.84 99.9337 247.87 90.8737 238.26 81.5737L238 81.3237L247.72 61.7238L248.21 62.1338C256.38 69.0438 261.46 79.9837 261.46 90.6737C261.46 97.9637 260.68 107.644 254.61 117.934C248.4 128.324 236.81 134.054 221.96 134.054C221.78 134.054 221.64 134.024 221.53 133.994H221.51C221.38 134.024 221.27 134.054 221.15 134.054C207.02 134.054 202.71 123.244 200.3 115.854C198.53 120.684 196.21 126.034 193.4 128.214C189.28 131.444 182.49 135.734 171.12 135.734L171.1 135.714ZM152.66 100.184C151.82 105.054 150.85 111.604 150.85 115.694C150.85 128.314 157.66 134.704 171.1 134.704C182.04 134.704 188.42 130.794 192.77 127.394C196.01 124.884 198.79 117.054 199.84 114.104L200.34 112.704L200.79 114.124C203.7 123.274 207.92 133.024 221.14 133.024C221.16 133.024 221.2 133.004 221.24 132.994L221.47 132.934L221.57 132.954C221.63 132.954 221.7 132.974 221.76 132.994C221.84 133.014 221.9 133.024 221.96 133.024C236.44 133.024 247.73 127.474 253.75 117.394C259.7 107.314 260.46 97.8037 260.46 90.6437C260.46 80.4537 255.72 70.0337 248.05 63.2837L239.23 81.0838C250.35 91.9838 250.85 101.734 250.85 101.824C250.85 103.534 246.77 107.984 228.11 107.984C228.13 108.004 227.91 108.014 227.78 107.984C213.31 107.984 210.96 100.244 202.2 71.4537C199.97 64.1237 197.21 55.0538 193.73 44.4038C190.71 49.3838 185.41 59.0537 185.1 62.7637C186.16 66.4337 187.91 72.1237 189.75 78.1437C194.11 92.3537 197.19 102.524 197.19 103.934C197.19 106.474 188.47 111.324 174.79 111.324C163.2 111.324 158.68 108.384 158.68 100.844C158.68 99.7737 158.74 98.6537 158.85 97.5637C157.98 97.9237 157.1 98.2938 156.23 98.6638C155.05 99.1638 153.87 99.6638 152.67 100.154L152.66 100.184Z" fill="#21201E"/>
<path d="M233.791 159.222C239.081 159.932 247.381 164.332 250.631 167.862L261.211 152.072C256.361 147.672 250.711 144.842 243.921 143.242L233.781 159.222H233.791Z" fill="#21201E"/>
<path d="M250.701 168.672L250.271 168.202C246.951 164.592 238.761 160.392 233.731 159.712L232.961 159.612L243.711 142.672L244.061 142.752C251.021 144.392 256.751 147.322 261.571 151.692L261.891 151.982L250.711 168.662L250.701 168.672ZM234.621 158.842C239.641 159.782 247.071 163.612 250.561 167.062L260.561 152.142C256.011 148.112 250.641 145.382 244.161 143.802L234.621 158.842Z" fill="#21201E"/>
<path d="M115.221 156.2C120.431 156.72 128.291 160.6 131.381 163.69L140.991 149.31C136.301 145.51 130.931 143.21 124.671 141.82L115.241 156.2H115.211H115.221Z" fill="#21201E"/>
<path d="M131.46 164.478L131.03 164.048C128.13 161.148 120.41 157.228 115.17 156.698L115.2 156.168L114.83 155.928L124.45 141.258L124.79 141.328C131.51 142.818 136.76 145.238 141.31 148.918L141.66 149.208L131.46 164.468V164.478ZM116.1 155.808C121.3 156.608 128.13 160.068 131.29 162.918L140.32 149.418C136.05 146.048 131.13 143.808 124.9 142.388L116.1 155.818V155.808Z" fill="#21201E"/>
<path d="M91.3398 133.547C107.58 133.547 118.08 126.837 123.56 117.677C129.03 108.407 130.34 99.5772 130.34 90.6672C130.34 80.9472 125.94 69.8472 117.27 62.5072L108 81.2072C118.32 91.1872 119.74 100.537 119.74 101.847C119.74 103.337 115.34 107.507 97.4998 107.507H93.0198C79.7898 107.507 70.7798 103.707 70.7798 92.0572C70.7798 91.1672 71.0398 87.7372 71.4098 86.3972L64.6298 88.3372C61.9798 101.037 56.1698 107.487 37.8098 107.487H37.6298C23.8498 107.487 16.9898 104.577 16.0998 86.0372C15.5798 75.2672 15.0498 54.3672 15.0498 37.7672C15.0498 25.8472 15.3098 16.1572 16.0998 14.1172L11.6998 15.7972C8.52977 21.9772 5.06977 27.4572 2.52977 32.5572C1.37977 34.7572 0.509766 36.7972 0.509766 39.4472C0.509766 45.1072 0.959766 69.0172 2.18977 96.6272C3.52977 124.337 13.7398 133.507 31.5798 133.507H31.6598C50.9898 133.507 58.4798 124.937 62.0198 118.947C64.3198 125.387 70.8498 133.507 86.8998 133.507H91.3798L91.3498 133.557L91.3398 133.547Z" fill="#21201E"/>
<path d="M91.34 134.05H90.52L90.55 134H86.97C70.44 134 64.22 125.67 61.91 120.06C55.97 129.44 46.06 134 31.65 134C11.88 134 2.95 122.83 1.68 96.64C0.41 68.29 0 44.46 0 39.44C0 36.81 0.79 34.76 2.07 32.32C3.36 29.73 4.88 27.05 6.49 24.21C8.06 21.45 9.68 18.6 11.24 15.56L11.33 15.39L16.96 13.25L16.56 14.3C16.1 15.5 15.55 20.55 15.55 37.77C15.55 54.99 16.08 75.44 16.6 86.02C17.46 103.97 23.78 107 37.63 107H37.73C56.57 107 61.67 100.13 64.14 88.25L64.2 87.95L72.13 85.68L71.89 86.54C71.55 87.78 71.28 91.13 71.28 92.06C71.28 102.26 78.19 107.01 93.02 107.01H97.5C115.37 107.01 119.24 102.88 119.24 101.85C119.24 99.93 117.27 90.87 107.66 81.57L107.4 81.32L117.12 61.72L117.61 62.13C125.78 69.04 130.86 79.98 130.86 90.67C130.86 97.96 130.08 107.64 124.01 117.93C117.8 128.32 106.21 134.05 91.36 134.05H91.34ZM62.11 117.76L62.47 118.77C64.37 124.08 70.07 133 86.88 133H92.17L92.15 133.05C106.24 132.84 117.21 127.31 123.12 117.43C129.07 107.35 129.83 97.84 129.83 90.68C129.83 80.49 125.09 70.07 117.42 63.32L108.6 81.12C119.72 92.02 120.23 101.77 120.23 101.86C120.23 103.57 116.15 108.02 97.49 108.02H93.09C77.71 108.02 70.27 102.8 70.27 92.07C70.27 91.33 70.45 88.77 70.74 87.12L65.05 88.75C62.51 100.64 57 108 37.8 108H37.62C23.41 108 16.49 104.72 15.59 86.07C15.07 75.48 14.54 54.52 14.54 37.77C14.54 25.4 14.81 17.88 15.37 14.93L12.05 16.2C10.51 19.19 8.92 22 7.37 24.72C5.77 27.54 4.25 30.21 2.97 32.79C1.76 35.11 1.01 37.03 1.01 39.46C1.01 44.48 1.42 68.29 2.69 96.62C3.92 122.14 12.56 133.02 31.58 133.02C46.12 133.02 55.91 128.34 61.59 118.7L62.13 117.78L62.11 117.76Z" fill="#21201E"/>
<path d="M99.6084 144.008L90.1484 158.308C95.2584 158.938 103.118 162.708 106.308 165.798L116.028 151.418C111.258 147.698 105.888 145.318 99.6084 144.008Z" fill="#21201E"/>
<path d="M106.389 166.581L105.959 166.171C102.729 163.051 94.8691 159.401 90.0891 158.821L89.2891 158.721L99.3791 143.461L99.7091 143.531C106.139 144.871 111.579 147.321 116.339 151.041L116.709 151.331L106.399 166.591L106.389 166.581ZM90.9991 157.931C95.8391 158.771 102.789 162.011 106.219 165.041L115.349 151.531C110.889 148.141 105.799 145.861 99.8291 144.571L90.9891 157.931H90.9991Z" fill="#21201E"/>
<path d="M79.5999 58.9941C74.7499 54.5941 69.0999 51.7641 62.3099 50.1641L52.1699 66.1441C57.4599 66.8541 65.7599 71.2541 69.0399 74.7841L79.6199 58.9941H79.5899H79.5999Z" fill="#21201E"/>
<path d="M69.1098 75.5916L68.6798 75.1316C65.3398 71.5216 57.1298 67.3116 52.1098 66.6416L51.3398 66.5416L62.0898 49.6016L62.4398 49.6816C69.3298 51.3016 75.0098 54.1916 79.7998 58.4916H80.5698L69.1098 75.5916ZM53.0098 65.7716C58.0198 66.7116 65.4598 70.5416 68.9798 73.9916L78.9698 59.0816C74.4198 55.0416 69.0398 52.3016 62.5498 50.7316L53.0098 65.7716Z" fill="#21201E"/>
<path d="M255.57 116.246C261.04 106.976 262.35 98.1459 262.35 89.2459C262.35 79.5259 257.95 68.4259 249.28 61.0859L240.01 79.7859C250.33 89.7659 251.74 99.1159 251.74 100.426C251.74 101.916 247.34 106.086 229.5 106.086C229.45 106.086 229.39 106.116 229.37 106.116C229.29 106.116 229.24 106.086 229.16 106.086C211.32 106.086 212.58 94.6159 195.27 41.8359C192.36 46.4959 186.26 57.3659 186 61.4259C189.09 72.1159 198.1 100.346 198.1 102.546C198.1 104.486 189.98 109.436 176.2 109.436C165.07 109.436 160.59 106.716 160.59 99.4559C160.59 98.2259 160.67 96.8059 160.85 95.3959C158.47 96.3659 156.08 97.4159 153.62 98.4059C152.57 104.486 151.76 110.506 151.76 114.276C151.76 124.596 156.45 133.786 172.5 133.786C182.92 133.786 189.53 130.246 194.48 126.376C197.65 123.916 200.3 116.846 201.71 112.866C204.36 121.166 208.42 132.116 222.53 132.116C222.63 132.116 222.77 132.066 222.87 132.036C223.03 132.066 223.16 132.116 223.34 132.116C239.58 132.116 250.08 125.406 255.56 116.246H255.57Z" fill="#E8DFCE"/>
<path d="M172.519 134.298C154.959 134.298 151.279 123.418 151.279 114.288C151.279 110.048 152.299 103.268 153.149 98.3275L153.199 98.0575L153.459 97.9575C154.739 97.4375 156.009 96.9075 157.259 96.3775C158.409 95.8875 159.549 95.4075 160.689 94.9475L161.479 94.6275L161.369 95.4775C161.199 96.7775 161.109 98.1675 161.109 99.4775C161.109 106.388 165.209 108.958 176.219 108.958C190.489 108.958 197.619 103.788 197.619 102.568C197.619 101.198 193.519 87.8175 190.219 77.0775C188.359 71.0075 186.599 65.2675 185.529 61.5875L185.509 61.5075V61.4175C185.799 57.0175 192.529 45.3375 194.859 41.5975L195.429 40.6875L195.759 41.7075C199.399 52.8075 202.269 62.2275 204.569 69.7975C213.369 98.7375 215.459 105.618 229.179 105.618C229.249 105.618 229.309 105.617 229.369 105.637C229.369 105.637 229.439 105.618 229.519 105.618C247.389 105.618 251.259 101.488 251.259 100.458C251.259 98.5375 249.289 89.4775 239.679 80.1775L239.419 79.9275L249.139 60.3275L249.629 60.7375C257.799 67.6475 262.879 78.5875 262.879 89.2775C262.879 96.5675 262.099 106.248 256.029 116.538C249.819 126.938 238.229 132.658 223.379 132.658C223.199 132.658 223.059 132.628 222.949 132.598H222.929C222.799 132.628 222.689 132.658 222.569 132.658C208.439 132.658 204.129 121.848 201.719 114.458C199.949 119.288 197.629 124.638 194.819 126.818C190.699 130.048 183.909 134.337 172.539 134.337L172.519 134.298ZM154.079 98.7675C153.249 103.647 152.269 110.187 152.269 114.277C152.269 126.897 159.079 133.287 172.509 133.287C183.449 133.287 189.829 129.388 194.179 125.978C197.419 123.458 200.199 115.638 201.249 112.688L201.749 111.288L202.199 112.708C205.109 121.858 209.329 131.607 222.549 131.607C222.569 131.607 222.609 131.587 222.639 131.577L222.869 131.518L222.969 131.537C223.039 131.537 223.099 131.557 223.159 131.577C223.239 131.597 223.299 131.607 223.359 131.607C237.839 131.607 249.129 126.058 255.149 115.978C261.099 105.898 261.859 96.3875 261.859 89.2275C261.859 79.0375 257.119 68.6175 249.449 61.8675L240.629 79.6675C251.749 90.5675 252.249 100.318 252.249 100.408C252.249 102.118 248.169 106.568 229.509 106.568C229.529 106.588 229.309 106.598 229.179 106.568C214.709 106.568 212.359 98.8275 203.599 70.0375C201.369 62.7075 198.609 53.6375 195.139 42.9975C192.119 47.9775 186.819 57.6475 186.509 61.3575C187.569 65.0275 189.319 70.7275 191.169 76.7475C195.529 90.9575 198.609 101.128 198.609 102.538C198.609 105.078 189.889 109.928 176.209 109.928C164.619 109.928 160.099 106.987 160.099 99.4475C160.099 98.3775 160.159 97.2575 160.269 96.1675C159.389 96.5275 158.519 96.8975 157.629 97.2675C156.459 97.7675 155.279 98.2675 154.079 98.7475V98.7675Z" fill="#21201E"/>
<path d="M236.42 157.8C241.71 158.51 250.01 162.91 253.26 166.44L263.84 150.65C258.99 146.25 253.34 143.42 246.55 141.82L236.41 157.8H236.42Z" fill="#E8DFCE"/>
<path d="M253.32 167.25L252.89 166.78C249.57 163.17 241.38 158.97 236.35 158.29L235.58 158.19L246.33 141.25L246.68 141.33C253.64 142.97 259.37 145.89 264.19 150.27L264.51 150.56L253.33 167.24L253.32 167.25ZM237.24 157.43C242.26 158.37 249.69 162.2 253.18 165.65L263.18 150.73C258.63 146.7 253.26 143.97 246.78 142.39L237.24 157.43Z" fill="#21201E"/>
<path d="M117.84 154.794C123.05 155.314 130.91 159.194 134 162.284L143.61 147.904C138.92 144.104 133.55 141.804 127.29 140.414L117.86 154.794H117.83H117.84Z" fill="#E8DFCE"/>
<path d="M134.079 163.064L133.649 162.634C130.749 159.734 123.029 155.814 117.789 155.284L117.819 154.754L117.449 154.514L127.069 139.844L127.409 139.914C134.129 141.404 139.379 143.814 143.929 147.504L144.279 147.794L134.069 163.064H134.079ZM118.719 154.404C123.919 155.204 130.749 158.664 133.909 161.514L142.939 148.004C138.669 144.634 133.749 142.394 127.519 140.974L118.719 154.404Z" fill="#21201E"/>
<path d="M92.7597 132.125C109 132.125 119.5 125.415 124.98 116.255C130.45 106.985 131.76 98.1553 131.76 89.2453C131.76 79.5253 127.36 68.4253 118.69 61.0853L109.42 79.7853C119.74 89.7653 121.16 99.1153 121.16 100.425C121.16 101.915 116.76 106.085 98.9197 106.085H94.4397C81.2097 106.085 72.1997 102.285 72.1997 90.6353C72.1997 89.7453 72.4597 86.3153 72.8297 84.9753L66.0497 86.9153C63.3997 99.6153 57.5897 106.065 39.2297 106.065H39.0497C25.2697 106.065 18.4097 103.155 17.5197 84.6153C16.9997 73.8453 16.4697 52.9453 16.4697 36.3453C16.4697 24.4253 16.7297 14.7353 17.5197 12.6953L13.1197 14.3753C9.94969 20.5553 6.48969 26.0353 3.94969 31.1353C2.79969 33.3353 1.92969 35.3753 1.92969 38.0253C1.92969 43.6853 2.37969 67.5953 3.60969 95.2053C4.94969 122.915 15.1597 132.085 32.9997 132.085H33.0797C52.4097 132.085 59.8997 123.515 63.4397 117.525C65.7497 123.965 72.2697 132.085 88.3197 132.085H92.7997L92.7697 132.135L92.7597 132.125Z" fill="#E8DFCE"/>
<path d="M92.7599 132.628H91.9399L91.9699 132.578H88.3899C71.8599 132.578 65.6399 124.248 63.3299 118.638C57.3899 128.018 47.4799 132.578 33.0699 132.578C13.2999 132.578 4.36992 121.408 3.09992 95.2181C1.83992 66.8681 1.41992 43.0381 1.41992 38.0181C1.41992 35.3881 2.20992 33.3381 3.48992 30.8981C4.77992 28.3081 6.29992 25.6281 7.90992 22.7881C9.47992 20.0281 11.0999 17.1781 12.6599 14.1381L12.7499 13.9681L18.3799 11.8281L17.9799 12.8781C17.5199 14.0781 16.9699 19.1281 16.9699 36.3481C16.9699 53.5681 17.4999 74.0181 18.0199 84.5981C18.8799 102.548 25.1999 105.578 39.0499 105.578H39.1499C57.9899 105.578 63.0899 98.7081 65.5599 86.8281L65.6199 86.5281L73.5499 84.2581L73.3099 85.1181C72.9699 86.3581 72.6999 89.7081 72.6999 90.6381C72.6999 100.838 79.6099 105.588 94.4399 105.588H98.9199C116.79 105.588 120.66 101.458 120.66 100.428C120.66 98.5081 118.69 89.4481 109.08 80.1481L108.82 79.8981L118.54 60.2981L119.03 60.7081C127.2 67.6181 132.28 78.5581 132.28 89.2481C132.28 96.5381 131.5 106.218 125.43 116.508C119.22 126.898 107.63 132.628 92.7799 132.628H92.7599ZM63.5299 116.338L63.8899 117.348C65.7899 122.658 71.4899 131.578 88.2999 131.578H93.5899L93.5699 131.628C107.66 131.418 118.63 125.888 124.54 116.008C130.49 105.928 131.25 96.4181 131.25 89.2581C131.25 79.0681 126.51 68.6481 118.84 61.8981L110.02 79.6981C121.14 90.5981 121.64 100.348 121.64 100.438C121.64 102.148 117.56 106.598 98.8999 106.598H94.4999C79.1199 106.598 71.6799 101.378 71.6799 90.6481C71.6799 89.9081 71.8599 87.3481 72.1499 85.6981L66.4599 87.3281C63.9199 99.2181 58.4099 106.578 39.2099 106.578H39.0299C24.8199 106.578 17.8999 103.298 16.9999 84.6481C16.4799 74.0581 15.9499 53.0981 15.9499 36.3481C15.9499 23.9781 16.2199 16.4581 16.7799 13.5081L13.4599 14.7781C11.9199 17.7681 10.3299 20.5781 8.77992 23.2981C7.17992 26.1181 5.65992 28.7881 4.37992 31.3681C3.16992 33.6881 2.41992 35.6081 2.41992 38.0381C2.41992 43.0581 2.82992 66.8681 4.09992 95.1981C5.32992 120.718 13.9699 131.598 32.9899 131.598C47.5299 131.598 57.3199 126.918 62.9999 117.278L63.5399 116.358L63.5299 116.338Z" fill="#21201E"/>
<path d="M102.23 142.602L92.7695 156.902C97.8795 157.532 105.74 161.302 108.93 164.392L118.65 150.012C113.88 146.292 108.51 143.912 102.23 142.602Z" fill="#E8DFCE"/>
<path d="M109.02 165.159L108.59 164.749C105.36 161.629 97.4999 157.979 92.7199 157.399L91.9199 157.299L102.01 142.039L102.34 142.109C108.77 143.449 114.21 145.899 118.97 149.619L119.34 149.909L109.03 165.169L109.02 165.159ZM93.6299 156.519C98.4699 157.359 105.43 160.599 108.85 163.629L117.98 150.119C113.52 146.729 108.43 144.449 102.46 143.159L93.6299 156.519Z" fill="#21201E"/>
<path d="M81.0198 57.58C76.1698 53.18 70.5198 50.35 63.7298 48.75L53.5898 64.73C58.8798 65.44 67.1798 69.84 70.4598 73.37L81.0398 57.58H81.0098H81.0198Z" fill="#E8DFCE"/>
<path d="M70.5298 74.1697L70.0998 73.7097C66.7498 70.0997 58.5498 65.8897 53.5298 65.2197L52.7598 65.1197L63.5098 48.1797L63.8598 48.2597C70.7498 49.8797 76.4298 52.7697 81.2198 57.0697H81.9898L70.5298 74.1697ZM54.4298 64.3597C59.4398 65.2997 66.8798 69.1297 70.3998 72.5797L80.3898 57.6697C75.8398 53.6297 70.4598 50.8897 63.9698 49.3197L54.4298 64.3597Z" fill="#21201E"/>
<path d="M261.261 110.558C266.731 101.288 268.041 92.4584 268.041 83.5584C268.041 73.8384 263.641 62.7384 254.971 55.3984L245.701 74.0984C256.021 84.0784 257.431 93.4284 257.431 94.7384C257.431 96.2284 253.031 100.398 235.191 100.398C235.141 100.398 235.091 100.428 235.061 100.428C234.981 100.428 234.931 100.398 234.851 100.398C217.011 100.398 218.271 88.9284 200.961 36.1484C198.051 40.8084 191.951 51.6784 191.691 55.7384C194.781 66.4284 203.791 94.6584 203.791 96.8584C203.791 98.7984 195.671 103.748 181.891 103.748C170.761 103.748 166.281 101.028 166.281 93.7684C166.281 92.5384 166.361 91.1184 166.541 89.7084C164.161 90.6784 161.771 91.7284 159.311 92.7184C158.261 98.7984 157.451 104.818 157.451 108.588C157.451 118.908 162.141 128.098 178.191 128.098C188.621 128.098 195.221 124.558 200.171 120.688C203.341 118.228 205.981 111.158 207.401 107.178C210.051 115.478 214.111 126.428 228.221 126.428C228.331 126.428 228.461 126.378 228.561 126.348C228.721 126.378 228.851 126.428 229.031 126.428C245.271 126.428 255.771 119.718 261.251 110.558H261.261Z" fill="#2E4096"/>
<path d="M178.201 128.61C160.641 128.61 156.961 117.73 156.961 108.6C156.961 104.36 157.971 97.58 158.831 92.64L158.881 92.37L159.141 92.27C160.421 91.75 161.691 91.22 162.941 90.69C164.091 90.2 165.231 89.72 166.371 89.26L167.161 88.94L167.051 89.79C166.881 91.09 166.791 92.47 166.791 93.79C166.791 100.7 170.891 103.27 181.901 103.27C196.171 103.27 203.301 98.1 203.301 96.88C203.301 95.51 199.201 82.13 195.901 71.39C194.041 65.32 192.281 59.58 191.211 55.9L191.191 55.82V55.73C191.481 51.32 198.211 39.65 200.541 35.91L201.111 35L201.441 36.02C205.081 47.12 207.941 56.54 210.251 64.11C219.051 93.05 221.141 99.93 234.861 99.93C234.931 99.93 234.991 99.93 235.051 99.95C235.051 99.95 235.121 99.93 235.201 99.93C253.071 99.93 256.941 95.8 256.941 94.77C256.941 92.85 254.971 83.79 245.361 74.49L245.101 74.24L254.821 54.64L255.311 55.05C263.481 61.96 268.561 72.9 268.561 83.59C268.561 90.88 267.781 100.56 261.711 110.85C255.501 121.25 243.911 126.97 229.061 126.97C228.881 126.97 228.741 126.94 228.621 126.91H228.601C228.471 126.94 228.361 126.97 228.241 126.97C214.111 126.97 209.801 116.16 207.391 108.77C205.711 113.33 203.311 118.94 200.501 121.13C196.381 124.36 189.581 128.65 178.221 128.65L178.201 128.61ZM159.761 93.08C158.931 97.96 157.961 104.5 157.961 108.59C157.961 121.21 164.771 127.6 178.201 127.6C189.131 127.6 195.521 123.69 199.871 120.29C203.111 117.77 205.891 109.95 206.941 107L207.441 105.6L207.891 107.02C210.801 116.17 215.021 125.92 228.241 125.92C228.261 125.92 228.301 125.9 228.341 125.89L228.561 125.83L228.661 125.85C228.721 125.86 228.781 125.87 228.841 125.89C228.921 125.91 228.981 125.92 229.051 125.92C243.531 125.92 254.821 120.37 260.841 110.29C266.791 100.21 267.551 90.7 267.551 83.54C267.551 73.35 262.811 62.93 255.141 56.18L246.321 73.98C257.441 84.88 257.941 94.63 257.941 94.72C257.941 96.43 253.861 100.88 235.201 100.88C235.231 100.89 235.001 100.91 234.871 100.88C220.411 100.88 218.051 93.14 209.301 64.35C207.071 57.02 204.311 47.95 200.831 37.31C197.811 42.29 192.511 51.95 192.201 55.67C193.261 59.34 195.011 65.04 196.861 71.06C201.221 85.27 204.301 95.44 204.301 96.85C204.301 99.39 195.581 104.24 181.901 104.24C170.311 104.24 165.791 101.3 165.791 93.76C165.791 92.68 165.851 91.57 165.961 90.48C165.081 90.84 164.211 91.21 163.331 91.58C162.161 92.08 160.971 92.58 159.771 93.06L159.761 93.08Z" fill="#21201E"/>
<path d="M240.901 154.519C246.191 155.229 254.491 159.629 257.741 163.159L268.321 147.369C263.471 142.969 257.821 140.139 251.031 138.539L240.891 154.519H240.901Z" fill="#2E4096"/>
<path d="M257.801 163.969L257.371 163.499C254.051 159.889 245.861 155.689 240.831 155.009L240.061 154.909L250.811 137.969L251.161 138.049C258.121 139.689 263.841 142.609 268.671 146.989L268.991 147.279L257.811 163.959L257.801 163.969ZM241.731 154.149C246.751 155.089 254.171 158.919 257.671 162.369L267.671 147.449C263.121 143.419 257.751 140.689 251.271 139.109L241.731 154.149Z" fill="#21201E"/>
<path d="M122.33 151.505C127.54 152.025 135.4 155.905 138.49 158.995L148.1 144.615C143.41 140.815 138.04 138.515 131.78 137.125L122.35 151.505H122.32H122.33Z" fill="#2E4096"/>
<path d="M138.569 159.783L138.139 159.353C135.239 156.453 127.519 152.533 122.279 152.003L122.309 151.473L121.939 151.232L131.559 136.562L131.899 136.633C138.619 138.123 143.869 140.533 148.419 144.223L148.769 144.512L138.559 159.783H138.569ZM123.209 151.113C128.409 151.913 135.239 155.373 138.399 158.223L147.429 144.713C143.159 141.343 138.239 139.102 132.009 137.682L123.209 151.103V151.113Z" fill="#21201E"/>
<path d="M98.4396 126.443C114.68 126.443 125.18 119.733 130.66 110.573C136.13 101.303 137.44 92.4734 137.44 83.5734C137.44 73.8534 133.04 62.7534 124.37 55.4134L115.1 74.1134C125.42 84.0934 126.83 93.4434 126.83 94.7534C126.83 96.2434 122.43 100.413 104.59 100.413H100.11C86.8796 100.413 77.8696 96.6134 77.8696 84.9634C77.8696 84.0734 78.1296 80.6434 78.4996 79.3034L71.7196 81.2434C69.0696 93.9434 63.2596 100.393 44.8996 100.393H44.7196C30.9396 100.393 24.0796 97.4834 23.1896 78.9434C22.6696 68.1734 22.1396 47.2734 22.1396 30.6734C22.1396 18.7534 22.3996 9.06344 23.1896 7.02344L18.7896 8.70344C15.6196 14.8834 12.1596 20.3634 9.61961 25.4634C8.46961 27.6634 7.59961 29.7034 7.59961 32.3534C7.59961 38.0134 8.04961 61.9234 9.27961 89.5334C10.6196 117.243 20.8296 126.413 38.6696 126.413H38.7496C58.0796 126.413 65.5696 117.853 69.1096 111.853C71.4096 118.293 77.9396 126.413 93.9896 126.413C93.9896 126.413 93.9896 126.413 94.0196 126.413H98.4696L98.4396 126.463V126.443Z" fill="#2E4096"/>
<path d="M98.4396 126.946H97.6296L97.6596 126.896H94.0696C77.5396 126.896 71.3196 118.566 69.0096 112.956C63.0696 122.336 53.1596 126.896 38.7496 126.896C18.9796 126.896 10.0496 115.726 8.77961 89.5462C7.51961 61.1962 7.09961 37.3662 7.09961 32.3462C7.09961 29.7162 7.88961 27.6662 9.16961 25.2262C10.4596 22.6362 11.9796 19.9563 13.5896 17.1163C15.1596 14.3563 16.7796 11.5063 18.3396 8.46625L18.4296 8.29625L24.0596 6.15625L23.6596 7.20625C23.1996 8.40625 22.6496 13.4563 22.6496 30.6763C22.6496 47.8962 23.1796 68.3463 23.6996 78.9263C24.5596 96.8763 30.8796 99.9062 44.7296 99.9062H44.8296C63.6696 99.9062 68.7696 93.0363 71.2396 81.1562L71.2996 80.8562L79.2296 78.5862L78.9896 79.4462C78.6496 80.6862 78.3796 84.0362 78.3796 84.9662C78.3796 95.1662 85.2896 99.9162 100.12 99.9162H104.6C122.47 99.9162 126.34 95.7863 126.34 94.7563C126.34 92.8363 124.37 83.7763 114.76 74.4763L114.5 74.2263L124.22 54.6263L124.71 55.0363C132.88 61.9463 137.96 72.8862 137.96 83.5762C137.96 90.8662 137.18 100.546 131.11 110.836C124.9 121.236 113.31 126.956 98.4596 126.956L98.4396 126.946ZM69.2196 110.656L69.5796 111.666C71.4796 116.976 77.1796 125.896 93.9896 125.896H99.2796L99.2596 125.946C113.35 125.746 124.33 120.216 130.24 110.326C136.19 100.246 136.95 90.7362 136.95 83.5762C136.95 73.3862 132.21 62.9663 124.54 56.2163L115.72 74.0163C126.84 84.9163 127.34 94.6663 127.34 94.7563C127.34 96.4663 123.26 100.916 104.6 100.916H100.2C84.8196 100.916 77.3796 95.6962 77.3796 84.9662C77.3796 84.2262 77.5596 81.6663 77.8496 80.0163L72.1596 81.6463C69.6196 93.5363 64.1096 100.896 44.9096 100.896H44.7296C30.5196 100.896 23.5996 97.6162 22.6996 78.9662C22.1796 68.3762 21.6496 47.4163 21.6496 30.6663C21.6496 18.2963 21.9196 10.7763 22.4796 7.82625L19.1596 9.09625C17.6196 12.0863 16.0296 14.8963 14.4796 17.6163C12.8796 20.4363 11.3596 23.1063 10.0796 25.6863C8.86961 28.0063 8.11961 29.9263 8.11961 32.3563C8.11961 37.3763 8.52961 61.1863 9.79961 89.5163C11.0296 115.026 19.6696 125.916 38.6896 125.916C53.2296 125.916 63.0196 121.236 68.6996 111.596L69.2396 110.676L69.2196 110.656Z" fill="#21201E"/>
<path d="M106.72 139.305L97.2598 153.605C102.37 154.235 110.23 158.005 113.42 161.095L123.14 146.715C118.37 142.995 113 140.615 106.72 139.305Z" fill="#2E4096"/>
<path d="M113.5 161.878L113.07 161.468C109.84 158.348 101.98 154.698 97.2004 154.118L96.4004 154.018L106.49 138.758L106.82 138.828C113.25 140.168 118.69 142.628 123.45 146.338L123.82 146.628L113.51 161.888L113.5 161.878ZM98.1104 153.228C102.95 154.068 109.9 157.308 113.33 160.338L122.46 146.828C118 143.438 112.91 141.158 106.94 139.868L98.1004 153.228H98.1104Z" fill="#21201E"/>
<path d="M86.7093 51.8925C81.8593 47.4925 76.2093 44.6625 69.4193 43.0625L59.2793 59.0425C64.5693 59.7525 72.8693 64.1525 76.1493 67.6825L86.7293 51.8925H86.6993H86.7093Z" fill="#2E4096"/>
<path d="M76.2192 68.49L75.7892 68.03C72.4392 64.42 64.2392 60.21 59.2192 59.54L58.4492 59.44L69.1992 42.5L69.5492 42.58C76.4392 44.2 82.1192 47.09 86.9092 51.39H87.6792L76.2192 68.49ZM60.1092 58.67C65.1192 59.61 72.5592 63.44 76.0792 66.89L86.0692 51.98C81.5192 47.94 76.1392 45.21 69.6492 43.63L60.1092 58.67Z" fill="#21201E"/>
<path d="M267.4 104.418C272.87 95.1478 274.18 86.3178 274.18 77.4178C274.18 67.6978 269.78 56.5978 261.11 49.2578L251.84 67.9578C262.16 77.9378 263.57 87.2878 263.57 88.5978C263.57 90.0878 259.17 94.2578 241.33 94.2578C241.28 94.2578 241.23 94.2878 241.2 94.2878C241.12 94.2878 241.07 94.2578 240.99 94.2578C223.15 94.2578 224.41 82.7878 207.1 30.0078C204.19 34.6678 198.09 45.5378 197.83 49.5978C200.92 60.2878 209.93 88.5178 209.93 90.7178C209.93 92.6578 201.81 97.6078 188.03 97.6078C176.9 97.6078 172.42 94.8878 172.42 87.6278C172.42 86.3978 172.5 84.9778 172.68 83.5678C170.3 84.5378 167.91 85.5878 165.45 86.5778C164.4 92.6578 163.59 98.6778 163.59 102.448C163.59 112.768 168.28 121.958 184.33 121.958C194.75 121.958 201.36 118.418 206.31 114.548C209.48 112.088 212.13 105.018 213.54 101.028C216.19 109.328 220.25 120.278 234.36 120.278C234.46 120.278 234.6 120.228 234.7 120.198C234.86 120.228 234.99 120.278 235.17 120.278C251.41 120.278 261.91 113.568 267.39 104.408L267.4 104.418Z" fill="#7EC2EB"/>
<path d="M184.35 122.469C166.79 122.469 163.1 111.589 163.1 102.459C163.1 98.2194 164.12 91.4394 164.97 86.4994L165.02 86.2294L165.28 86.1294C166.57 85.6094 167.83 85.0794 169.09 84.5494C170.24 84.0694 171.37 83.5894 172.51 83.1194L173.3 82.7994L173.19 83.6494C173.02 84.9494 172.93 86.3394 172.93 87.6494C172.93 94.5594 177.03 97.1294 188.04 97.1294C202.31 97.1294 209.44 91.9594 209.44 90.7394C209.44 89.3694 205.34 75.9894 202.04 65.2494C200.18 59.1794 198.42 53.4394 197.35 49.7594L197.33 49.6794V49.5894C197.62 45.1894 204.35 33.5094 206.68 29.7694L207.25 28.8594L207.58 29.8794C211.22 40.9794 214.09 50.3994 216.39 57.9694C225.19 86.9094 227.28 93.7794 241 93.7794C241.07 93.7794 241.13 93.7794 241.19 93.7994C241.19 93.7994 241.26 93.7794 241.34 93.7794C259.21 93.7794 263.08 89.6494 263.08 88.6194C263.08 86.6994 261.11 77.6394 251.5 68.3394L251.24 68.0894L260.96 48.4894L261.45 48.8994C269.62 55.8094 274.7 66.7494 274.7 77.4394C274.7 84.7294 273.92 94.4094 267.85 104.699C261.64 115.099 250.05 120.819 235.2 120.819C235.02 120.819 234.88 120.789 234.76 120.759H234.74C234.61 120.789 234.5 120.819 234.38 120.819C220.25 120.819 215.94 110.009 213.53 102.619C211.76 107.449 209.44 112.799 206.63 114.979C202.51 118.209 195.71 122.499 184.35 122.499V122.469ZM165.91 86.9394C165.07 91.8094 164.1 98.3594 164.1 102.449C164.1 115.069 170.91 121.459 184.35 121.459C195.28 121.459 201.67 117.559 206.02 114.149C209.26 111.639 212.04 103.809 213.09 100.859L213.59 99.4594L214.04 100.879C216.95 110.029 221.17 119.779 234.39 119.779C234.41 119.779 234.45 119.759 234.49 119.749L234.71 119.689L234.81 119.709C234.87 119.719 234.93 119.729 234.99 119.749C235.07 119.769 235.13 119.779 235.2 119.779C249.68 119.779 260.97 114.229 266.99 104.149C272.94 94.0694 273.7 84.5594 273.7 77.3994C273.7 67.2094 268.96 56.7894 261.29 50.0394L252.47 67.8394C263.59 78.7394 264.09 88.4894 264.09 88.5794C264.09 90.2894 260.01 94.7394 241.35 94.7394C241.38 94.7594 241.15 94.7694 241.02 94.7394C226.56 94.7394 224.2 86.9994 215.45 58.2194C213.22 50.8894 210.46 41.8194 206.98 31.1694C203.96 36.1494 198.66 45.8194 198.35 49.5294C199.41 53.1994 201.16 58.8994 203.01 64.9194C207.37 79.1294 210.45 89.2994 210.45 90.7094C210.45 93.2494 201.73 98.0994 188.05 98.0994C176.46 98.0994 171.94 95.1594 171.94 87.6194C171.94 86.5494 172 85.4294 172.11 84.3394C171.24 84.6994 170.36 85.0694 169.49 85.4394C168.31 85.9394 167.13 86.4394 165.93 86.9294L165.91 86.9394Z" fill="#21201E"/>
<path d="M244.641 151.98C249.931 152.69 258.231 157.09 261.481 160.62L272.061 144.83C267.211 140.43 261.561 137.6 254.771 136L244.631 151.98H244.641Z" fill="#7EC2EB"/>
<path d="M261.541 161.43L261.111 160.96C257.791 157.35 249.601 153.15 244.571 152.47L243.801 152.37L254.551 135.43L254.901 135.51C261.861 137.15 267.591 140.07 272.411 144.45L272.731 144.74L261.561 161.42L261.541 161.43ZM245.471 151.61C250.491 152.55 257.921 156.38 261.411 159.83L271.411 144.91C266.861 140.88 261.491 138.15 255.011 136.57L245.471 151.61Z" fill="#21201E"/>
<path d="M127.272 147.763C132.482 148.283 140.342 152.163 143.432 155.253L153.042 140.873C148.352 137.073 142.982 134.773 136.722 133.383L127.292 147.763H127.262H127.272Z" fill="#7EC2EB"/>
<path d="M143.511 156.04L143.081 155.61C140.181 152.71 132.461 148.79 127.221 148.26L127.251 147.73L126.881 147.49L136.501 132.82L136.841 132.89C143.561 134.38 148.811 136.79 153.361 140.48L153.711 140.77L143.501 156.04H143.511ZM128.151 147.37C133.351 148.17 140.181 151.63 143.341 154.48L152.371 140.97C148.101 137.6 143.181 135.36 136.951 133.94L128.151 147.36V147.37Z" fill="#21201E"/>
<path d="M104.59 120.303C120.83 120.303 131.33 113.593 136.81 104.433C142.28 95.1628 143.59 86.3328 143.59 77.4328C143.59 67.7128 139.19 56.6128 130.52 49.2728L121.25 67.9728C131.57 77.9528 132.99 87.3028 132.99 88.6128C132.99 90.1028 128.59 94.2728 110.75 94.2728H106.27C93.0398 94.2728 84.0298 90.4728 84.0298 78.8228C84.0298 77.9328 84.2898 74.5028 84.6598 73.1628L77.8798 75.1028C75.2298 87.8028 69.4198 94.2528 51.0598 94.2528H50.8798C37.0998 94.2528 30.2398 91.3428 29.3498 72.8028C28.8298 62.0328 28.2998 41.1328 28.2998 24.5328C28.2998 12.6128 28.5598 2.92281 29.3498 0.882812L24.9498 2.56281C21.7798 8.74281 18.3198 14.2228 15.7798 19.3228C14.6298 21.5228 13.7598 23.5628 13.7598 26.2128C13.7598 31.8728 14.2098 55.7828 15.4398 83.3928C16.7798 111.103 26.9898 120.273 44.8298 120.273H44.9098C64.2398 120.273 71.7298 111.713 75.2698 105.713C77.5798 112.153 84.0998 120.273 100.15 120.273H104.63L104.6 120.323L104.59 120.303Z" fill="#7EC2EB"/>
<path d="M104.59 120.8H103.78L103.81 120.75H100.22C83.69 120.75 77.47 112.42 75.16 106.81C69.22 116.19 59.31 120.75 44.9 120.75C25.13 120.75 16.2 109.58 14.93 83.39C13.67 55.04 13.25 31.21 13.25 26.19C13.25 23.56 14.04 21.51 15.32 19.07C16.61 16.48 18.13 13.8 19.74 10.96C21.31 8.2 22.93 5.35 24.49 2.31L24.58 2.14L30.21 0L29.81 1.05C29.35 2.25 28.8 7.3 28.8 24.52C28.8 41.74 29.33 62.19 29.85 72.77C30.71 90.72 37.03 93.75 50.88 93.75H50.98C69.82 93.75 74.92 86.88 77.39 75L77.45 74.7L85.38 72.43L85.14 73.29C84.8 74.53 84.53 77.88 84.53 78.81C84.53 89.01 91.44 93.76 106.27 93.76H110.75C128.62 93.76 132.49 89.63 132.49 88.6C132.49 86.68 130.52 77.62 120.91 68.32L120.65 68.07L130.37 48.47L130.86 48.88C139.03 55.79 144.11 66.73 144.11 77.42C144.11 84.71 143.33 94.39 137.26 104.68C131.05 115.08 119.46 120.8 104.61 120.8H104.59ZM75.36 104.52L75.72 105.53C77.62 110.84 83.32 119.76 100.13 119.76H105.42L105.4 119.81C119.49 119.61 130.47 114.08 136.38 104.19C142.33 94.11 143.09 84.6 143.09 77.44C143.09 67.25 138.35 56.83 130.68 50.08L121.86 67.88C132.98 78.78 133.49 88.53 133.49 88.62C133.49 90.33 129.41 94.78 110.75 94.78H106.35C90.97 94.78 83.53 89.56 83.53 78.83C83.53 78.09 83.71 75.53 84 73.88L78.31 75.51C75.77 87.4 70.26 94.76 51.06 94.76H50.88C36.67 94.76 29.75 91.48 28.85 72.83C28.33 62.24 27.8 41.28 27.8 24.53C27.8 12.16 28.07 4.64 28.63 1.69L25.31 2.96C23.77 5.95 22.18 8.76 20.63 11.48C19.03 14.3 17.51 16.97 16.23 19.55C15.02 21.87 14.27 23.79 14.27 26.22C14.27 31.24 14.68 55.05 15.95 83.38C17.18 108.9 25.82 119.78 44.84 119.78C59.38 119.78 69.17 115.1 74.85 105.46L75.39 104.54L75.36 104.52Z" fill="#21201E"/>
<path d="M111.659 135.57L102.199 149.87C107.309 150.5 115.159 154.27 118.359 157.36L128.079 142.98C123.309 139.26 117.939 136.88 111.659 135.57Z" fill="#7EC2EB"/>
<path d="M118.44 158.143L118.01 157.733C114.78 154.613 106.92 150.963 102.14 150.383L101.34 150.283L111.43 135.023L111.76 135.093C118.19 136.433 123.63 138.883 128.39 142.603L128.76 142.893L118.45 158.153L118.44 158.143ZM103.05 149.503C107.89 150.343 114.85 153.583 118.27 156.613L127.4 143.103C122.94 139.713 117.85 137.433 111.88 136.143L103.04 149.503H103.05Z" fill="#21201E"/>
<path d="M92.8597 45.7519C88.0097 41.3519 82.3597 38.5219 75.5697 36.9219L65.4297 52.9019C70.7197 53.6119 79.0197 58.0119 82.2997 61.5419L92.8797 45.7519H92.8497H92.8597Z" fill="#7EC2EB"/>
<path d="M82.3598 62.3494L81.9298 61.8894C78.5898 58.2794 70.3798 54.0694 65.3598 53.3994L64.5898 53.2994L75.3398 36.3594L75.6898 36.4394C82.5798 38.0594 88.2599 40.9494 93.0499 45.2494H93.8198L82.3598 62.3494ZM66.2598 52.5294C71.2698 53.4694 78.7099 57.2994 82.2299 60.7494L92.2198 45.8394C87.6698 41.7994 82.2899 39.0594 75.7999 37.4894L66.2598 52.5294Z" fill="#21201E"/>
</svg>
