<svg width="248" height="129" viewBox="0 0 248 129" fill="none" xmlns="http://www.w3.org/2000/svg">
<path d="M234.48 21.7075C234.48 18.9975 234.56 16.4675 234.73 13.4375L230.52 14.7175C227.56 20.9575 223.68 28.9075 222 32.1175C221 34.1475 220.32 36.1775 220.32 38.7075C220.32 41.5875 223.53 88.7175 223.53 95.2775C223.53 97.3075 220.25 102.878 205.21 102.878H201.6C191.12 102.878 178.79 100.347 178.79 87.0875C178.79 86.0875 178.87 83.7075 179.12 82.5275L172.28 83.6275C170.35 96.8075 165.19 102.447 157.17 102.447C150.58 102.447 146.52 98.8875 146.52 90.7175C146.52 88.6875 146.95 86.5075 147.2 85.0575L140.53 86.3375C138.17 97.5675 132.16 102.478 121.71 102.478C109.8 102.478 106.34 96.7375 106.34 91.3275C106.34 90.8275 106.34 89.1175 106.42 88.6175L100.5 89.8975C98.2897 98.5175 91.4797 102.908 76.3597 102.908H74.7497C62.0897 102.908 55.3197 100.027 54.8197 82.3075C54.4897 69.0475 54.0697 54.7875 54.0697 46.2375C54.0697 43.3575 54.0697 41.1775 54.2397 39.6475L50.6097 41.1775C47.4797 45.9875 43.9397 49.7975 41.0597 54.0075C39.7097 55.8575 39.2797 58.9975 39.2797 61.4275C15.8897 68.2675 1.17969 83.7075 1.17969 103.568C1.17969 113.548 5.66969 123.667 19.6797 123.667C32.1897 123.667 41.2097 116.997 43.9897 106.697C46.9197 122.537 55.7697 127.727 68.7597 127.807H70.4097C84.0997 127.807 91.6897 122.568 95.7497 116.908C98.4597 122.398 106.13 127.807 116.35 127.807C128.26 127.807 134.1 122.497 137.38 118.007C139.49 122.567 144.05 127.807 152.74 127.807C162.19 127.807 168.21 120.967 171.06 115.147C174.19 121.237 182.39 127.807 195.55 127.807H199.01C220.12 127.807 229.49 110.157 233.3 97.3275C234.9 91.8375 236.01 81.8675 236.01 67.6775C236.01 53.4875 234.48 31.7875 234.48 21.7275V21.7075ZM24.4497 102.768C13.3997 102.768 9.33969 98.7075 9.33969 96.2775C10.3397 93.1475 23.4497 81.7675 41.5997 78.2775H42.0297C42.1097 78.9575 42.4597 91.1075 42.4597 94.5675C42.4597 99.5575 32.4097 102.768 24.4597 102.768H24.4497Z" fill="#21201E"/>
<path d="M199.01 128.279H195.55C182.67 128.279 174.58 122.179 171.08 116.189C165.14 127.389 155.58 128.279 152.74 128.279C143.64 128.279 139.23 122.729 137.28 118.929C132.38 125.219 125.52 128.279 116.34 128.279C106.13 128.279 98.6299 122.979 95.6699 117.809C91.8799 122.729 84.4799 128.279 70.3999 128.279H68.7999C54.6699 128.199 46.9299 122.129 43.8799 108.669C40.4399 118.269 31.3399 124.149 19.6699 124.149C2.51992 124.149 0.669922 109.739 0.669922 103.549C0.669922 84.0088 14.9099 68.1387 38.7699 61.0387C38.7999 59.3087 39.0699 55.8487 40.6399 53.6987C41.9299 51.8087 43.3399 50.0287 44.8299 48.1387C46.6199 45.8687 48.4599 43.5287 50.1799 40.8887L50.2599 40.7587L54.8199 38.8387L54.7199 39.6887C54.5499 41.1887 54.5499 43.4088 54.5499 46.2288C54.5499 52.9788 54.8099 63.1287 55.0899 73.8787L55.2999 82.2787C55.7799 99.3887 61.9499 102.399 74.7299 102.399H76.3299C90.6399 102.399 97.7199 98.6187 99.9799 89.7687L100.06 89.4688L106.99 87.9688L106.88 88.6888C106.85 88.8988 106.81 89.5287 106.81 91.3187C106.81 100.589 116.12 101.969 121.68 101.969C132.08 101.969 137.73 97.1088 140.01 86.2188L140.08 85.8887L147.79 84.4088L147.58 85.5887C147.33 86.9987 146.99 88.9187 146.99 90.6987C146.99 98.1487 150.41 101.929 157.14 101.929C165.17 101.929 169.95 95.9087 171.76 83.5287L171.81 83.1687L179.73 81.8887L179.58 82.5987C179.35 83.6787 179.26 85.9087 179.26 87.0587C179.26 97.2087 186.77 102.349 201.57 102.349H205.18C219.73 102.349 223 97.0987 223 95.2487C223 91.3187 221.84 72.7687 220.92 57.8587C220.29 47.7887 219.8 39.8387 219.8 38.6687C219.8 36.3487 220.32 34.3087 221.53 31.8587C223.15 28.7687 226.97 20.9688 230.05 14.4688L230.14 14.2687L235.25 12.7188L235.21 13.4287C235.04 16.4287 234.96 18.9687 234.96 21.6687C234.96 26.2487 235.28 33.3688 235.63 40.8988C236.03 49.8088 236.49 59.8987 236.49 67.6087C236.49 80.7987 235.52 91.3788 233.76 97.3988C230.34 108.919 221.28 128.239 198.99 128.239L199.01 128.279ZM171.06 114.009L171.51 114.889C174.59 120.879 182.52 127.279 195.55 127.279H199.01C220.65 127.279 229.48 108.409 232.82 97.1588C234.55 91.2288 235.51 80.7488 235.51 67.6488C235.51 59.9588 235.05 49.8787 234.65 40.9787C234.31 33.4387 233.98 26.3087 233.98 21.6987C233.98 19.1987 234.05 16.8287 234.19 14.1187L230.88 15.1287C227.81 21.5987 224.05 29.2787 222.44 32.3387C221.3 34.6387 220.82 36.5487 220.82 38.6987C220.82 39.8287 221.34 48.1687 221.94 57.8187C222.87 72.7387 224.03 91.2987 224.03 95.2687C224.03 97.5187 220.65 103.369 205.21 103.369H201.6C186.13 103.369 178.29 97.8888 178.29 87.0788C178.29 86.3588 178.33 84.4788 178.51 83.1188L172.71 84.0488C170.77 96.7588 165.68 102.939 157.15 102.939C149.85 102.939 146 98.7087 146 90.7087C146 88.9487 146.31 87.0887 146.56 85.6687L140.93 86.7487C138.51 97.8087 132.39 102.959 121.69 102.959C107.37 102.959 105.82 94.8087 105.82 91.3087C105.82 90.4087 105.82 89.7188 105.85 89.2288L100.89 90.2988C98.4299 99.3488 90.8499 103.379 76.3499 103.379H74.7499C61.5999 103.379 54.8299 100.119 54.3199 82.2887L54.1099 73.8887C53.8299 63.1287 53.5699 52.9687 53.5699 46.2087C53.5699 43.7487 53.5699 41.8588 53.6699 40.3988L50.9399 41.5487C49.2199 44.1687 47.3899 46.4887 45.6199 48.7387C44.1399 50.6187 42.7499 52.3888 41.4599 54.2588C40.3999 55.7188 39.7699 58.3788 39.7699 61.3988V61.7787L39.4099 61.8787C15.7799 68.7987 1.66992 84.3687 1.66992 103.539C1.66992 109.429 3.41992 123.139 19.6699 123.139C31.5999 123.139 40.7399 116.779 43.4999 106.539L44.0699 104.419L44.4699 106.579C47.0999 120.809 54.5899 127.189 68.7499 127.279H70.3999C84.6699 127.279 91.8399 121.459 95.3399 116.589L95.8299 115.909L96.1999 116.659C98.7199 121.779 106.11 127.279 116.36 127.279C125.51 127.279 132.26 124.139 136.99 117.679L137.49 116.989L137.85 117.759C139.49 121.309 143.61 127.269 152.76 127.269C155.53 127.269 164.99 126.379 170.64 114.889L171.08 113.999L171.06 114.009ZM24.4499 103.269C13.0699 103.269 8.8299 98.9787 8.8299 96.2787L8.84991 96.1287C9.86991 92.9287 23.0799 81.3287 41.4899 77.7887H42.4599L42.5099 78.2288C42.5899 78.9288 42.9399 91.0688 42.9399 94.5788C42.9399 100.179 31.9999 103.279 24.4399 103.279L24.4499 103.269ZM9.8399 96.3487C9.9299 98.3287 13.5599 102.259 24.4499 102.259C32.7099 102.259 41.9499 98.9687 41.9499 94.5587C41.9499 91.4487 41.6599 81.1187 41.5499 78.7787C24.0899 82.1587 10.9699 93.2787 9.8399 96.3487Z" fill="#21201E"/>
<path d="M53.2584 32.68L62.4584 18.92C57.9684 15.29 52.8284 13.1 46.8384 11.75L37.8184 25.51C42.8084 26.01 50.3283 29.72 53.2883 32.68H53.2684H53.2584Z" fill="#21201E"/>
<path d="M54.4892 33.1775H52.3492L52.6292 32.7375C49.6592 29.9975 42.6092 26.4875 37.7692 26.0075L36.9492 25.9275L46.6192 11.1875L46.9592 11.2675C53.4392 12.7275 58.4692 15.0375 62.7792 18.5375L63.1292 18.8275L53.9192 32.6175L54.4992 33.1975L54.4892 33.1775ZM38.6692 25.1175C43.6292 25.8875 50.1392 29.1675 53.1792 31.8975L61.7892 19.0275C57.7492 15.8475 53.0592 13.7075 47.0692 12.3175L38.6792 25.1175H38.6692Z" fill="#21201E"/>
<path d="M38.5701 20.9416C34.0101 17.3816 28.8501 15.1216 22.8501 13.8516L13.8301 27.5416C18.7201 28.1416 26.2401 31.7516 29.3001 34.7116L38.6001 20.9516H38.5701V20.9416Z" fill="#21201E"/>
<path d="M29.3807 35.4691L28.9507 35.0591C25.8607 32.0691 18.3407 28.5891 13.7707 28.0291L12.9707 27.9291L22.6307 13.2891L22.9607 13.3591C29.1107 14.6691 34.2707 16.9891 38.7407 20.4391H39.5407L29.3807 35.4691ZM14.6807 27.1491C19.3007 27.9591 25.9307 31.0491 29.2107 33.9391L37.9107 21.0591C33.6907 17.8491 28.8307 15.6791 23.0807 14.4091L14.6807 27.1591V27.1491Z" fill="#21201E"/>
<path d="M235.678 20.4966C235.678 17.7866 235.758 15.2566 235.928 12.2266L231.718 13.5066C228.758 19.7466 224.878 27.6966 223.198 30.9066C222.198 32.9366 221.518 34.9666 221.518 37.4966C221.518 40.3766 224.728 87.5066 224.728 94.0666C224.728 96.0966 221.448 101.667 206.408 101.667H202.798C192.318 101.667 179.988 99.1366 179.988 85.8766C179.988 84.8766 180.068 82.4966 180.318 81.3166L173.478 82.4166C171.548 95.5966 166.388 101.237 158.368 101.237C151.778 101.237 147.718 97.6766 147.718 89.5066C147.718 87.4766 148.148 85.2966 148.398 83.8366L141.728 85.1166C139.368 96.3466 133.358 101.257 122.908 101.257C110.998 101.257 107.548 95.5166 107.548 90.1066C107.548 89.6066 107.548 87.8966 107.628 87.3966L101.708 88.6766C99.4982 97.2966 92.6882 101.687 77.5682 101.687H75.9682C63.3082 101.687 56.5382 98.8066 56.0382 81.0866C55.7082 67.8266 55.2882 53.5666 55.2882 45.0166C55.2882 42.1366 55.2882 39.9566 55.4682 38.4266L51.8382 39.9566C48.7082 44.7666 45.1682 48.5766 42.2882 52.7866C40.9382 54.6366 40.5082 57.7766 40.5082 60.2066C17.1182 67.0466 2.4082 82.4866 2.4082 102.347C2.4082 112.327 6.8982 122.447 20.9082 122.447C33.4182 122.447 42.4382 115.777 45.2182 105.477C48.1482 121.317 56.9982 126.507 69.9782 126.587H71.6282C85.3182 126.587 92.9082 121.347 96.9682 115.687C99.6782 121.177 107.348 126.587 117.568 126.587C129.478 126.587 135.318 121.277 138.598 116.787C140.708 121.347 145.268 126.587 153.968 126.587C163.418 126.587 169.428 119.747 172.288 113.927C175.418 120.017 183.618 126.587 196.778 126.587H200.238C221.348 126.587 230.718 108.937 234.528 96.1066C236.138 90.6166 237.238 80.6366 237.238 66.4566C237.238 52.2766 235.708 30.5666 235.708 20.5066L235.678 20.4966ZM25.6582 101.567C14.6082 101.567 10.5482 97.5066 10.5482 95.0766C11.5482 91.9466 24.6582 80.5666 42.8082 77.0766H43.2382C43.3182 77.7566 43.6682 89.9066 43.6682 93.3666C43.6682 98.3566 33.6182 101.567 25.6682 101.567H25.6582Z" fill="#E8DFCE"/>
<path d="M200.209 127.077H196.749C183.869 127.077 175.779 120.977 172.279 114.987C166.339 126.187 156.779 127.077 153.939 127.077C144.839 127.077 140.429 121.527 138.479 117.727C133.579 124.017 126.719 127.077 117.539 127.077C107.329 127.077 99.8291 121.777 96.8691 116.607C93.0791 121.527 85.6791 127.077 71.5991 127.077H69.9991C55.8691 126.997 48.1292 120.927 45.0792 107.467C41.6392 117.067 32.5391 122.947 20.8691 122.947C3.71914 122.947 1.86914 108.537 1.86914 102.347C1.86914 82.8069 16.1091 66.9369 39.9691 59.8369C39.9991 58.1069 40.2692 54.6469 41.8392 52.4969C43.1292 50.6069 44.5392 48.8269 46.0292 46.9369C47.8192 44.6669 49.6592 42.3269 51.3792 39.6869L51.4592 39.5569L56.0292 37.6369L55.9291 38.4869C55.7591 39.9869 55.7592 42.2069 55.7592 45.0269C55.7592 51.7669 56.0191 61.8969 56.2991 72.6169C56.3691 75.4469 56.4492 78.2869 56.5092 81.0869C56.9892 98.1969 63.1591 101.207 75.9391 101.207H77.5391C91.8491 101.207 98.9291 97.4269 101.189 88.5769L101.269 88.2769L108.199 86.7769L108.089 87.4969C108.059 87.7069 108.019 88.3369 108.019 90.1269C108.019 99.3969 117.329 100.787 122.889 100.787C133.289 100.787 138.939 95.9269 141.219 85.0369L141.289 84.7069L148.989 83.2269L148.779 84.4269C148.529 85.8269 148.199 87.7469 148.199 89.5269C148.199 96.9769 151.619 100.757 158.349 100.757C166.379 100.757 171.159 94.7369 172.969 82.3569L173.019 81.9969L180.949 80.7169L180.799 81.4269C180.569 82.5069 180.479 84.7369 180.479 85.8869C180.479 96.0369 187.989 101.177 202.789 101.177H206.399C220.949 101.177 224.219 95.9269 224.219 94.0769C224.219 90.1469 223.059 71.5969 222.139 56.6869C221.509 46.6169 221.019 38.6669 221.019 37.4969C221.019 35.1769 221.539 33.1369 222.749 30.6869C224.379 27.5769 228.199 19.7769 231.269 13.2969L231.359 13.0969L236.469 11.5469L236.429 12.2669C236.259 15.2369 236.179 17.7869 236.179 20.5069C236.179 25.0869 236.499 32.2069 236.849 39.7369C237.259 48.6469 237.709 58.7369 237.709 66.4469C237.709 79.6469 236.739 90.2269 234.979 96.2369C231.559 107.757 222.499 127.077 200.209 127.077ZM172.259 112.807L172.709 113.687C177.409 122.817 188.209 126.077 196.749 126.077H200.209C221.849 126.077 230.679 107.207 234.019 95.9569C235.749 90.0369 236.709 79.5469 236.709 66.4469C236.709 58.7569 236.249 48.6769 235.849 39.7769C235.509 32.2369 235.179 25.1069 235.179 20.4969C235.179 17.9669 235.249 15.6069 235.389 12.9169L232.079 13.9269C229.019 20.3769 225.249 28.0569 223.639 31.1369C222.499 33.4369 222.019 35.3469 222.019 37.4969C222.019 38.6269 222.539 46.9669 223.139 56.6169C224.069 71.5369 225.229 90.0969 225.229 94.0669C225.229 96.3169 221.849 102.167 206.409 102.167H202.799C187.329 102.167 179.489 96.6869 179.489 85.8769C179.489 85.2069 179.529 83.2869 179.709 81.9169L173.909 82.8469C171.969 95.5569 166.879 101.737 158.349 101.737C151.049 101.737 147.199 97.5069 147.199 89.5069C147.199 87.7469 147.509 85.8869 147.759 84.4669L142.129 85.5469C139.709 96.6069 133.589 101.757 122.889 101.757C108.569 101.757 107.019 93.6069 107.019 90.0969C107.019 89.1969 107.019 88.5069 107.049 88.0169L102.089 89.0869C99.6292 98.1369 92.0491 102.167 77.5491 102.167H75.9492C62.7992 102.167 56.0292 98.9069 55.5192 81.0769C55.4492 78.2769 55.3791 75.4369 55.3091 72.6069C55.0291 61.8769 54.7692 51.7469 54.7692 44.9969C54.7692 42.5369 54.7691 40.6469 54.8691 39.1869L52.1392 40.3369C50.4192 42.9569 48.5892 45.2769 46.8192 47.5269C45.3392 49.4069 43.9491 51.1769 42.6591 53.0469C41.5991 54.5069 40.9691 57.1669 40.9691 60.1869V60.5669L40.6091 60.6669C16.9791 67.5869 2.86914 83.1569 2.86914 102.327C2.86914 108.217 4.61914 121.927 20.8691 121.927C32.7991 121.927 41.9392 115.567 44.6992 105.327L45.2692 103.207L45.6691 105.367C48.2991 119.597 55.7892 125.977 69.9492 126.067H71.5991C85.8691 126.067 93.0391 120.247 96.5391 115.377L97.0292 114.697L97.3992 115.447C99.9192 120.567 107.309 126.067 117.559 126.067C126.709 126.067 133.459 122.927 138.189 116.467L138.689 115.777L139.049 116.547C140.689 120.097 144.809 126.057 153.959 126.057C156.729 126.057 166.189 125.167 171.839 113.677L172.279 112.787L172.259 112.807ZM25.6591 102.067C14.2791 102.067 10.0491 97.7769 10.0491 95.0769L10.0692 94.9269C11.0892 91.7269 24.2992 80.1269 42.7092 76.5969H43.6791L43.7291 77.0369C43.8091 77.7369 44.1591 89.8869 44.1591 93.3869C44.1591 98.9869 33.2191 102.087 25.6591 102.087V102.067ZM11.0392 95.1469C11.1292 97.1269 14.7491 101.067 25.6491 101.067C33.9091 101.067 43.1492 97.7769 43.1492 93.3669C43.1492 90.2569 42.8591 79.9269 42.7491 77.5869C25.2791 80.9669 12.1692 92.0869 11.0392 95.1569V95.1469Z" fill="#21201E"/>
<path d="M54.4595 31.4847L63.6595 17.7247C59.1695 14.0947 54.0395 11.9047 48.0395 10.5547L39.0195 24.3147C44.0095 24.8147 51.5295 28.5247 54.4895 31.4847H54.4595Z" fill="#E8DFCE"/>
<path d="M55.6904 31.9822H53.5504L53.8304 31.5422C50.8604 28.8022 43.8103 25.2922 38.9703 24.8122L38.1504 24.7322L47.8204 9.99219L48.1603 10.0722C54.6403 11.5322 59.6703 13.8422 63.9803 17.3422L64.3304 17.6322L55.1204 31.4222L55.7004 32.0022L55.6904 31.9822ZM39.8804 23.9122C44.8404 24.6822 51.3504 27.9622 54.3904 30.6922L63.0004 17.8222C58.9604 14.6422 54.2704 12.5022 48.2804 11.1122L39.8904 23.9122H39.8804Z" fill="#21201E"/>
<path d="M39.7693 19.7463C35.2093 16.1863 30.0493 13.9262 24.0493 12.6562L15.0293 26.3462C19.9193 26.9462 27.4393 30.5562 30.4993 33.5162L39.7993 19.7562H39.7693V19.7463Z" fill="#E8DFCE"/>
<path d="M30.5799 34.2738L30.1499 33.8638C27.0599 30.8738 19.5399 27.3938 14.9699 26.8338L14.1699 26.7337L23.8299 12.0938L24.1599 12.1637C30.3099 13.4737 35.4699 15.7938 39.9399 19.2438H40.7299L30.5699 34.2738H30.5799ZM15.8799 25.9538C20.4999 26.7638 27.1299 29.8538 30.4099 32.7438L39.1099 19.8638C34.8899 16.6538 30.0299 14.4837 24.2799 13.2137L15.8799 25.9637V25.9538Z" fill="#21201E"/>
<path d="M240.489 15.6997C240.489 12.9897 240.559 10.4597 240.739 7.42969L236.529 8.70969C233.569 14.9497 229.689 22.8997 228.009 26.1097C227.009 28.1397 226.329 30.1697 226.329 32.6997C226.329 35.5797 229.539 82.7097 229.539 89.2697C229.539 91.2997 226.259 96.8697 211.219 96.8697H207.609C197.129 96.8697 184.799 94.3397 184.799 81.0797C184.799 80.0797 184.879 77.6997 185.129 76.5197L178.289 77.6197C176.359 90.7997 171.199 96.4397 163.179 96.4397C156.589 96.4397 152.529 92.8797 152.529 84.7097C152.529 82.6797 152.959 80.4997 153.209 79.0497L146.539 80.3297C144.179 91.5597 138.169 96.4697 127.719 96.4697C115.809 96.4697 112.349 90.7297 112.349 85.3197C112.349 84.8197 112.349 83.1097 112.429 82.6097L106.519 83.8897C104.309 92.5097 97.499 96.8997 82.379 96.8997H80.779C68.119 96.8997 61.349 94.0197 60.849 76.2997C60.519 63.0397 60.099 48.7797 60.099 40.2297C60.099 37.3497 60.099 35.1697 60.269 33.6397L56.639 35.1697C53.509 39.9797 49.969 43.7897 47.089 47.9997C45.739 49.8497 45.309 52.9897 45.309 55.4197C21.919 62.2597 7.20898 77.6997 7.20898 97.5597C7.20898 107.54 11.699 117.66 25.709 117.66C38.219 117.66 47.239 110.99 50.019 100.69C52.949 116.53 61.799 121.72 74.789 121.8H76.439C90.129 121.8 97.719 116.56 101.779 110.9C104.489 116.39 112.159 121.8 122.389 121.8C134.299 121.8 140.139 116.49 143.419 112C145.529 116.56 150.089 121.8 158.779 121.8C168.229 121.8 174.249 114.96 177.099 109.14C180.229 115.23 188.429 121.8 201.589 121.8H205.049C226.149 121.8 235.529 104.15 239.339 91.3197C240.939 85.8297 242.049 75.8497 242.049 61.6697C242.049 47.4897 240.519 25.7797 240.519 15.7197L240.489 15.6997ZM30.459 96.7597C19.409 96.7597 15.349 92.6997 15.349 90.2697C16.349 87.1397 29.459 75.7597 47.609 72.2697H48.039C48.119 72.9497 48.469 85.0997 48.469 88.5597C48.469 93.5497 38.419 96.7597 30.469 96.7597H30.459Z" fill="#2E4096"/>
<path d="M205.02 122.277H201.56C188.68 122.277 180.59 116.177 177.09 110.187C171.15 121.387 161.59 122.277 158.75 122.277C149.65 122.277 145.24 116.727 143.29 112.927C138.39 119.217 131.53 122.277 122.35 122.277C112.14 122.277 104.64 116.977 101.68 111.807C97.8897 116.727 90.4897 122.277 76.4097 122.277H74.8097C60.6797 122.197 52.9397 116.127 49.8897 102.667C46.4497 112.267 37.3497 118.147 25.6797 118.147C8.52969 118.147 6.67969 103.737 6.67969 97.5466C6.67969 78.0066 20.9197 62.1366 44.7797 55.0366C44.8097 53.3066 45.0797 49.8466 46.6497 47.6966C47.9397 45.8066 49.3497 44.0166 50.8397 42.1266C52.6297 39.8566 54.4697 37.5166 56.1897 34.8766L56.2697 34.7466L60.8297 32.8266L60.7297 33.6766C60.5597 35.1766 60.5597 37.3966 60.5597 40.2166C60.5597 46.9666 60.8197 57.1266 61.0997 67.8766L61.3097 76.2766C61.7897 93.3866 67.9597 96.3966 80.7397 96.3966H82.3397C96.6497 96.3966 103.73 92.6166 105.99 83.7666L106.07 83.4666L112.99 81.9666L112.88 82.6866C112.85 82.8966 112.81 83.5266 112.81 85.3166C112.81 94.5866 122.12 95.9666 127.68 95.9666C138.08 95.9666 143.73 91.1066 146.01 80.2166L146.08 79.8866L153.78 78.4066L153.57 79.6066C153.32 81.0066 152.99 82.9266 152.99 84.6966C152.99 92.1466 156.41 95.9266 163.14 95.9266C171.17 95.9266 175.95 89.9066 177.76 77.5266L177.81 77.1666L185.73 75.8866L185.58 76.5966C185.35 77.6766 185.26 79.9066 185.26 81.0566C185.26 91.2066 192.77 96.3466 207.57 96.3466H211.18C225.73 96.3466 229 91.0966 229 89.2566C229 85.3266 227.84 66.7766 226.92 51.8666C226.29 41.7966 225.8 33.8466 225.8 32.6766C225.8 30.3566 226.32 28.3166 227.53 25.8666C229.15 22.7866 232.97 14.9866 236.05 8.47656L236.14 8.27656L241.25 6.72656L241.21 7.44656C241.04 10.4266 240.96 12.9766 240.96 15.6866C240.96 20.2666 241.28 27.3866 241.63 34.9166C242.03 43.8266 242.49 53.9166 242.49 61.6266C242.49 74.8166 241.52 85.3966 239.76 91.4166C236.34 102.937 227.28 122.257 204.99 122.257L205.02 122.277ZM177.06 107.997L177.52 108.877C180.6 114.867 188.54 121.267 201.57 121.267H205.03C226.67 121.267 235.5 102.397 238.84 91.1466C240.57 85.2166 241.53 74.7366 241.53 61.6366C241.53 53.9466 241.07 43.8666 240.67 34.9666C240.33 27.4266 240 20.2966 240 15.6866C240 13.1666 240.07 10.8066 240.21 8.10656L236.9 9.11656C233.83 15.5966 230.06 23.2766 228.46 26.3266C227.32 28.6266 226.84 30.5366 226.84 32.6866C226.84 33.8166 227.36 42.1566 227.96 51.8066C228.89 66.7266 230.05 85.2866 230.05 89.2566C230.05 91.5066 226.67 97.3466 211.23 97.3466H207.62C192.15 97.3466 184.31 91.8666 184.31 81.0566C184.31 80.3366 184.35 78.4566 184.53 77.0966L178.73 78.0266C176.79 90.7366 171.7 96.9166 163.17 96.9166C155.87 96.9166 152.02 92.6866 152.02 84.6866C152.02 82.9266 152.33 81.0666 152.58 79.6466L146.95 80.7266C144.53 91.7866 138.41 96.9366 127.71 96.9366C113.39 96.9366 111.84 88.7866 111.84 85.2866C111.84 84.3866 111.84 83.6966 111.87 83.2066L106.91 84.2766C104.45 93.3266 96.8697 97.3566 82.3697 97.3566H80.7697C67.6197 97.3566 60.8497 94.0966 60.3397 76.2666L60.1297 67.8666C59.8497 57.1066 59.5897 46.9466 59.5897 40.1866C59.5897 37.7266 59.5897 35.8366 59.6897 34.3766L56.9597 35.5266C55.2397 38.1466 53.4197 40.4666 51.6497 42.7166C50.1697 44.5966 48.7797 46.3666 47.4897 48.2366C46.4297 49.6966 45.7997 52.3566 45.7997 55.3766V55.7566L45.4397 55.8566C21.8097 62.7766 7.69971 78.3466 7.69971 97.5166C7.69971 103.407 9.44971 117.117 25.6997 117.117C37.6297 117.117 46.7697 110.757 49.5297 100.517L50.0997 98.3966L50.4997 100.557C53.1297 114.787 60.6197 121.167 74.7797 121.257H76.4297C90.6997 121.257 97.8697 115.437 101.36 110.567L101.85 109.887L102.22 110.637C104.74 115.757 112.13 121.257 122.38 121.257C131.53 121.257 138.28 118.117 143.01 111.657L143.51 110.967L143.87 111.737C145.51 115.287 149.63 121.247 158.78 121.247C161.55 121.247 171.01 120.357 176.65 108.867L177.09 107.977L177.06 107.997ZM30.4597 97.2566C19.0797 97.2566 14.8497 92.9666 14.8497 90.2666L14.8697 90.1166C15.8997 86.9166 29.0997 75.3166 47.5097 71.7766H48.4797L48.5297 72.2166C48.6097 72.9266 48.9597 85.0766 48.9597 88.5666C48.9597 94.1666 38.0197 97.2666 30.4597 97.2666V97.2566ZM15.8497 90.3466C15.9397 92.3266 19.5697 96.2566 30.4597 96.2566C38.7197 96.2566 47.9597 92.9666 47.9597 88.5566C47.9597 85.4566 47.6697 75.1266 47.5597 72.7766C30.0997 76.1566 16.9897 87.2766 15.8497 90.3466Z" fill="#21201E"/>
<path d="M59.2701 26.6722L68.47 12.9122C63.98 9.28219 58.84 7.09219 52.85 5.74219L43.8301 19.5022C48.8201 20.0022 56.34 23.7122 59.29 26.6722H59.2701Z" fill="#2E4096"/>
<path d="M60.5009 27.1697H58.3609L58.6409 26.7297C55.6709 23.9897 48.6209 20.4797 43.7809 19.9997L42.9609 19.9197L52.6309 5.17969L52.9709 5.25969C59.4509 6.71969 64.4809 9.02969 68.7909 12.5297L69.1409 12.8197L59.9309 26.6097L60.5109 27.1897L60.5009 27.1697ZM44.6809 19.1097C49.6409 19.8797 56.1509 23.1597 59.1909 25.8897L67.8009 13.0197C63.7609 9.83969 59.0709 7.69969 53.0809 6.30969L44.6809 19.1097Z" fill="#21201E"/>
<path d="M44.5799 14.9338C40.0199 11.3738 34.8498 9.11375 28.8598 7.84375L19.8398 21.5337C24.7298 22.1337 32.2498 25.7438 35.3098 28.7038L44.6098 14.9437H44.5799V14.9338Z" fill="#2E4096"/>
<path d="M35.3807 29.4612L34.9507 29.0512C31.8607 26.0612 24.3407 22.5812 19.7707 22.0212L18.9707 21.9212L28.6307 7.28125L28.9607 7.35125C35.1107 8.66125 40.2707 10.9812 44.7407 14.4312H45.5407L35.3807 29.4612ZM20.6807 21.1412C25.3007 21.9512 31.9307 25.0412 35.2107 27.9312L43.9107 15.0512C39.6907 11.8512 34.8407 9.67125 29.0807 8.40125L20.6807 21.1513V21.1412Z" fill="#21201E"/>
<path d="M245.29 10.8872C245.29 8.17719 245.36 5.64719 245.54 2.61719L241.33 3.89719C238.37 10.1372 234.49 18.0872 232.81 21.2972C231.81 23.3272 231.13 25.3572 231.13 27.8872C231.13 30.7672 234.34 77.8972 234.34 84.4572C234.34 86.4872 231.06 92.0572 216.02 92.0572H212.41C201.93 92.0572 189.6 89.5272 189.6 76.2672C189.6 75.2672 189.68 72.8872 189.93 71.7072L183.09 72.8072C181.16 85.9872 176 91.6272 167.98 91.6272C161.39 91.6272 157.33 88.0672 157.33 79.8972C157.33 77.8672 157.76 75.6872 158.01 74.2372L151.34 75.5172C148.98 86.7472 142.97 91.6572 132.52 91.6572C120.61 91.6572 117.15 85.9172 117.15 80.5072C117.15 80.0072 117.15 78.2972 117.23 77.7972L111.32 79.0772C109.11 87.6972 102.3 92.0872 87.1797 92.0872H85.5798C72.9198 92.0872 66.1498 89.2072 65.6498 71.4872C65.3198 58.2272 64.8998 43.9672 64.8998 35.4172C64.8998 32.5372 64.8998 30.3572 65.0798 28.8272L61.4398 30.3572C58.3098 35.1672 54.7698 38.9772 51.8898 43.1872C50.5398 45.0372 50.1097 48.1772 50.1097 50.6072C26.7197 57.4472 12.0098 72.8872 12.0098 92.7472C12.0098 102.727 16.4998 112.847 30.5098 112.847C43.0198 112.847 52.0398 106.177 54.8198 95.8772C57.7498 111.717 66.5998 116.907 79.5898 116.987H81.2397C94.9297 116.987 102.52 111.747 106.58 106.087C109.29 111.577 116.96 116.987 127.18 116.987C139.09 116.987 144.93 111.677 148.21 107.187C150.32 111.747 154.88 116.987 163.58 116.987C173.03 116.987 179.05 110.147 181.9 104.327C185.03 110.417 193.23 116.987 206.39 116.987H209.85C230.95 116.987 240.33 99.3372 244.14 86.5072C245.74 81.0172 246.85 71.0372 246.85 56.8572C246.85 42.6772 245.32 20.9672 245.32 10.9072L245.29 10.8872ZM35.2698 91.9572C24.2198 91.9572 20.1598 87.8972 20.1598 85.4672C21.1598 82.3372 34.2697 70.9572 52.4197 67.4672H52.8497C52.9197 68.1472 53.2798 80.2972 53.2798 83.7572C53.2798 88.7472 43.2298 91.9572 35.2798 91.9572H35.2698Z" fill="#7EC2EB"/>
<path d="M209.83 117.47H206.37C193.49 117.47 185.4 111.37 181.9 105.38C175.96 116.58 166.4 117.47 163.56 117.47C154.46 117.47 150.05 111.92 148.1 108.12C143.2 114.41 136.34 117.47 127.16 117.47C116.95 117.47 109.45 112.17 106.49 107C102.7 111.92 95.3002 117.47 81.2202 117.47H79.6202C65.4902 117.39 57.7503 111.32 54.7003 97.8597C51.2603 107.46 42.1602 113.34 30.4902 113.34C13.3402 113.34 11.4902 98.9297 11.4902 92.7397C11.4902 73.1997 25.7303 57.3297 49.5903 50.2297C49.6203 48.4997 49.8903 45.0397 51.4603 42.8897C52.7503 40.9997 54.1603 39.2197 55.6403 37.3297C57.4303 35.0597 59.2702 32.7197 60.9902 30.0797L61.0703 29.9497L65.6302 28.0297L65.5303 28.8797C65.3603 30.3797 65.3602 32.5997 65.3602 35.4197C65.3602 42.1397 65.6203 52.2397 65.9003 62.9197C65.9703 65.7697 66.0502 68.6497 66.1202 71.4697C66.6002 88.5797 72.7702 91.5897 85.5502 91.5897H87.1503C101.46 91.5897 108.54 87.8097 110.8 78.9597L110.88 78.6597L117.8 77.1597L117.69 77.8797C117.66 78.0897 117.62 78.7197 117.62 80.5097C117.62 89.7797 126.93 91.1597 132.49 91.1597C142.89 91.1597 148.54 86.2997 150.83 75.4197L150.9 75.0897L158.6 73.6097L158.39 74.8197C158.14 76.2197 157.81 78.1397 157.81 79.8997C157.81 87.3497 161.23 91.1297 167.96 91.1297C175.99 91.1297 180.77 85.1097 182.58 72.7297L182.63 72.3697L190.55 71.0897L190.4 71.7997C190.17 72.8797 190.09 75.1097 190.09 76.2597C190.09 86.4097 197.6 91.5497 212.4 91.5497H216.01C230.56 91.5497 233.83 86.2997 233.83 84.4597C233.83 80.5297 232.67 61.9797 231.75 47.0697C231.12 36.9997 230.63 29.0497 230.63 27.8797C230.63 25.5597 231.15 23.5197 232.36 21.0697C233.98 17.9697 237.8 10.1697 240.88 3.67969L240.97 3.47969L246.08 1.92969L246.04 2.64969C245.87 5.62969 245.79 8.17969 245.79 10.8897C245.79 15.4697 246.11 22.5897 246.46 30.1197C246.86 39.0297 247.32 49.1197 247.32 56.8297C247.32 70.0297 246.35 80.6097 244.59 86.6197C241.17 98.1397 232.11 117.46 209.82 117.46L209.83 117.47ZM181.87 103.2L182.33 104.08C185.41 110.07 193.35 116.47 206.38 116.47H209.84C231.48 116.47 240.31 97.5997 243.65 86.3497C245.38 80.4197 246.34 69.9397 246.34 56.8397C246.34 49.1497 245.88 39.0697 245.48 30.1697C245.14 22.6297 244.81 15.4997 244.81 10.8897C244.81 8.36969 244.88 6.00969 245.02 3.30969L241.7 4.31969C238.64 10.7797 234.87 18.4597 233.26 21.5297C232.12 23.8297 231.64 25.7397 231.64 27.8897C231.64 29.0197 232.16 37.3597 232.76 47.0097C233.69 61.9297 234.85 80.4897 234.85 84.4597C234.85 86.7097 231.47 92.5497 216.03 92.5497H212.42C196.95 92.5497 189.11 87.0697 189.11 76.2597C189.11 75.5897 189.15 73.6697 189.33 72.2997L183.53 73.2297C181.59 85.9397 176.5 92.1197 167.98 92.1197C160.68 92.1197 156.83 87.8897 156.83 79.8897C156.83 78.1297 157.14 76.2697 157.39 74.8497L151.76 75.9297C149.34 86.9897 143.22 92.1397 132.51 92.1397C118.19 92.1397 116.64 83.9897 116.64 80.4897C116.64 79.5897 116.64 78.8997 116.67 78.4097L111.71 79.4797C109.25 88.5297 101.67 92.5597 87.1702 92.5597H85.5703C72.4203 92.5597 65.6503 89.2997 65.1403 71.4697C65.0703 68.6397 65.0002 65.7697 64.9202 62.9197C64.6402 52.2197 64.3802 42.1197 64.3802 35.3897C64.3802 32.9297 64.3802 31.0397 64.4802 29.5797L61.7502 30.7297C60.0302 33.3497 58.2002 35.6797 56.4302 37.9297C54.9502 39.8097 53.5603 41.5797 52.2803 43.4497C51.2203 44.9097 50.5903 47.5697 50.5903 50.5897V50.9697L50.2302 51.0697C26.6002 57.9897 12.4902 73.5597 12.4902 92.7297C12.4902 98.6197 14.2402 112.33 30.4902 112.33C42.4302 112.33 51.5603 105.97 54.3203 95.7297L54.8903 93.6097L55.2902 95.7697C57.9302 110 65.4103 116.39 79.5703 116.47H81.2202C95.4902 116.47 102.66 110.65 106.16 105.77L106.65 105.09L107.02 105.84C109.54 110.96 116.93 116.46 127.18 116.46C136.33 116.46 143.08 113.32 147.81 106.86L148.31 106.17L148.67 106.94C150.31 110.49 154.42 116.45 163.58 116.45C166.35 116.45 175.81 115.56 181.45 104.07L181.89 103.18L181.87 103.2ZM35.2703 92.4597C23.8903 92.4597 19.6502 88.1697 19.6502 85.4697L19.6703 85.3197C20.6903 82.1197 33.9002 70.5197 52.3102 66.9797H53.2803L53.3303 67.4197C53.4103 68.1297 53.7603 80.2797 53.7603 83.7697C53.7603 89.3697 42.8203 92.4697 35.2603 92.4697L35.2703 92.4597ZM20.6502 85.5397C20.7402 87.5197 24.3703 91.4497 35.2603 91.4497C43.5203 91.4497 52.7603 88.1597 52.7603 83.7497C52.7603 80.6497 52.4702 70.3197 52.3602 67.9697C34.8902 71.3497 21.7802 82.4697 20.6502 85.5397Z" fill="#21201E"/>
<path d="M64.0689 21.8753L73.2689 8.11531C68.7789 4.48531 63.6489 2.29531 57.6489 0.945312L48.6289 14.7053C53.6189 15.2053 61.1389 18.9153 64.0989 21.8753H64.0789H64.0689Z" fill="#7EC2EB"/>
<path d="M65.2997 22.3728H63.1597L63.4398 21.9328C60.4698 19.1928 53.4198 15.6828 48.5798 15.2028L47.7598 15.1228L57.4297 0.382812L57.7698 0.462812C64.2498 1.92281 69.2798 4.23281 73.5898 7.73281L73.9398 8.02281L64.7297 21.8128L65.3098 22.3928L65.2997 22.3728ZM49.4897 14.3028C54.4497 15.0728 60.9598 18.3528 63.9998 21.0828L72.6097 8.21281C68.5697 5.03281 63.8798 2.89281 57.8898 1.50281L49.4897 14.3028Z" fill="#21201E"/>
<path d="M49.3787 10.1291C44.8187 6.56906 39.6486 4.30906 33.6586 3.03906L24.6387 16.7291C29.5287 17.3291 37.0486 20.9391 40.0986 23.8991L49.3987 10.1391H49.3687L49.3787 10.1291Z" fill="#7EC2EB"/>
<path d="M40.1893 24.6566L39.7593 24.2466C36.6693 21.2566 29.1493 17.7766 24.5793 17.2166L23.7793 17.1166L33.4293 2.47656L33.7593 2.54656C39.9093 3.85656 45.0693 6.17656 49.5393 9.62656H50.3393L40.1793 24.6566H40.1893ZM25.4893 16.3366C30.1093 17.1466 36.7393 20.2366 40.0193 23.1266L48.7193 10.2466C44.4993 7.04656 39.6493 4.86656 33.8893 3.59656L25.4893 16.3466V16.3366Z" fill="#21201E"/>
</svg>
