<?xml version="1.0" encoding="iso-8859-1"?>
<!-- Generator: Adobe Illustrator 26.0.1, SVG Export Plug-In . SVG Version: 6.00 Build 0)  -->
<svg version="1.1" id="GeorgeSamuel.me" xmlns="http://www.w3.org/2000/svg" xmlns:xlink="http://www.w3.org/1999/xlink" x="0px"
	 y="0px" viewBox="0 0 512 512" style="enable-background:new 0 0 512 512;" xml:space="preserve">
<g id="www.GeorgeSamuel.me_00000155829074949794308520000002558007239860482727_">
	<rect x="0" style="fill:#FFFFFF;" width="512" height="512"/>
	<circle style="fill:#FFFFFF;" cx="256" cy="256" r="256"/>
	<g id="www.GeorgeSamuel.me">
		<path style="fill:#AAAAAA;" d="M357.186,152.892c0,23.383,0,46.766-0.002,70.148c0,0.684-0.005,1.369-0.039,2.051
			c-0.074,1.492-0.6,2.778-1.739,3.79c-1.162,1.032-2.297,2.094-3.46,3.124c-7.025,6.228-14.053,12.452-21.082,18.676
			c-0.372,0.33-0.761,0.64-1.139,0.964c-0.987,0.847-2.129,1.247-3.43,1.225c-1.243-0.022-2.487-0.024-3.73-0.024
			c-45.138,0.001-90.277,0.004-135.415,0.006c-0.311,0-0.623-0.016-0.932,0.003c-1.452,0.09-2.667-0.41-3.725-1.397
			c-1.909-1.781-3.846-3.533-5.769-5.299c-4.901-4.498-9.802-8.996-14.701-13.496c-1.328-1.22-2.631-2.466-3.977-3.666
			c-1.487-1.326-2.195-2.975-2.202-4.949c-0.003-0.871-0.009-1.741-0.009-2.612c-0.001-46.331-0.001-92.661,0-138.992
			c0-0.622-0.005-1.244,0.024-1.865c0.086-1.883,0.729-3.473,2.225-4.735c1.662-1.401,3.22-2.926,4.829-4.391
			c6.39-5.819,12.821-11.593,19.147-17.48c1.675-1.559,3.46-2.201,5.708-2.191c12.434,0.056,24.869,0.037,37.304,0.037
			c33.201,0,66.402,0.005,99.603-0.019c4.117-0.003,4.574,0.475,7.136,2.828c5.769,5.299,11.562,10.573,17.344,15.859
			c1.927,1.762,3.822,3.561,5.781,5.286c1.444,1.271,2.223,2.798,2.217,4.729c-0.005,1.306,0.031,2.612,0.031,3.917
			c0.002,22.823,0.001,45.646,0.001,68.47C357.185,152.892,357.186,152.892,357.186,152.892z M346.12,152.541
			c0.001,0,0.002,0,0.003,0c0-22.26,0-44.519,0-66.779c0-0.497-0.021-0.996,0.001-1.492c0.041-0.93-0.26-1.7-0.973-2.315
			c-0.47-0.406-0.906-0.851-1.368-1.268c-1.522-1.375-3.058-2.735-4.572-4.118c-4.59-4.192-9.184-8.379-13.746-12.601
			c-0.79-0.731-1.643-1.048-2.692-1.033c-1.616,0.024-3.232-0.002-4.849-0.003c-42.084-0.003-84.168-0.005-126.252-0.007
			c-0.559,0-1.119,0.008-1.678,0.024c-0.774,0.022-1.459,0.263-2.023,0.817c-0.31,0.305-0.641,0.588-0.963,0.881
			c-6.02,5.484-12.038,10.97-18.061,16.451c-1.95,1.774-1.921,1.418-1.921,4.302c0.002,37.556,0.003,75.111,0.003,112.667
			c0,7.399,0.018,14.798-0.023,22.197c-0.007,1.292,0.426,2.224,1.371,3.087c6.151,5.616,12.243,11.296,18.408,16.897
			c2.058,1.869,1.58,1.738,4.469,1.756c4.911,0.03,9.822,0.014,14.733,0.014c31.703,0.001,63.406,0.003,95.11,0.001
			c6.838,0,13.676-0.038,20.514,0.001c1.517,0.009,2.691-0.417,3.847-1.458c6.144-5.532,12.339-11.007,18.569-16.442
			c2.451-2.138,2.086-2.219,2.087-4.614C346.124,197.185,346.12,174.863,346.12,152.541z"/>
		<path d="M199.854,380.678c0.127,0.342,0.278,0.568,0.283,0.796c0.027,1.242,0.046,2.487,0.011,3.728
			c-0.021,0.751-0.41,1.062-1.234,1.054c-1.181-0.011-2.361-0.079-3.541-0.079c-10.568,0.005-21.136,0.02-31.704,0.034
			c-0.373,0-0.747,0.038-1.118,0.012c-0.485-0.034-0.822-0.338-0.832-0.84c-0.026-1.304-0.019-2.61,0.016-3.913
			c0.013-0.485,0.335-0.749,0.876-0.772c0.745-0.032,1.492-0.017,2.237-0.019c1.741-0.004,3.481,0.001,5.222-0.011
			c1.366-0.01,2.561-0.465,3.514-1.462c0.754-0.788,1.234-1.707,1.23-2.831c-0.002-0.497,0.004-0.995,0.004-1.492
			c0.002-23.629,0.003-47.257,0.005-70.886c0-1.552,0-3.104,0-4.656c-0.504-0.051-0.596,0.29-0.666,0.547
			c-0.534,1.973-1.264,3.882-1.756,5.875c-0.608,2.461-1.537,4.842-2.295,7.268c-0.815,2.607-1.593,5.225-2.387,7.837
			c-0.902,2.967-1.814,5.931-2.705,8.901c-0.855,2.851-1.678,5.713-2.536,8.564c-0.751,2.497-1.537,4.984-2.298,7.478
			c-0.924,3.025-1.835,6.054-2.756,9.079c-0.759,2.492-1.532,4.979-2.284,7.473c-0.896,2.971-1.765,5.95-2.665,8.92
			c-0.701,2.313-1.433,4.617-2.146,6.927c-0.695,2.252-1.378,4.507-2.078,6.757c-0.357,1.15-0.504,1.249-1.716,1.262
			c-0.559,0.006-1.12,0.018-1.678-0.006c-0.977-0.042-1.328-0.328-1.621-1.226c-1.536-4.723-3.079-9.444-4.614-14.167
			c-1.285-3.954-2.549-7.916-3.847-11.866c-1.492-4.542-3.017-9.074-4.517-13.614c-0.779-2.357-1.531-4.723-2.303-7.082
			c-0.908-2.774-1.829-5.544-2.736-8.318c-1.235-3.776-2.463-7.553-3.693-11.331c-1.442-4.428-2.817-8.879-4.355-13.274
			c-0.635-1.815-1.288-3.62-1.805-5.473c-0.062-0.223-0.197-0.425-0.465-0.988c-0.03,0.944-0.064,1.526-0.064,2.107
			c-0.019,14.985-0.037,29.971-0.05,44.956c-0.006,6.902,0.03,13.804-0.016,20.706c-0.014,2.141,0.258,4.241,0.86,6.257
			c1.061,3.551,3.261,6.089,7.001,7.061c1.451,0.377,2.91,0.622,4.409,0.688c0.872,0.038,1.134,0.308,1.149,1.122
			c0.021,1.18,0.012,2.363-0.033,3.542c-0.022,0.592-0.38,0.924-0.957,0.929c-0.807,0.006-1.615-0.065-2.422-0.065
			c-8.89,0.002-17.779,0.009-26.669,0.022c-1.602,0.002-1.734-0.093-1.747-1.625c-0.008-0.932-0.01-1.866,0.054-2.795
			c0.06-0.874,0.265-1.087,1.156-1.132c1.882-0.095,3.673-0.575,5.443-1.168c3.174-1.064,4.974-3.323,5.772-6.514
			c0.517-2.067,0.72-4.154,0.719-6.277c-0.008-15.234-0.005-30.468-0.005-45.703c0-6.529,0.003-13.058-0.002-19.587
			c-0.001-0.745,0.025-1.502-0.09-2.233c-0.23-1.471-1.002-2.531-2.542-2.855c-0.665-0.14-1.339-0.298-2.013-0.316
			c-2.112-0.054-4.226-0.047-6.339-0.061c-0.373-0.003-0.747,0.028-1.118,0.005c-0.621-0.039-0.966-0.307-0.984-0.898
			c-0.039-1.241-0.027-2.485,0.007-3.726c0.015-0.525,0.319-0.807,0.81-0.857c0.308-0.032,0.621-0.015,0.931-0.015
			c8.206-0.004,16.412-0.009,24.617-0.006c0.487,0,0.974,0.063,1.509,0.1c1.17,2.669,1.887,5.435,2.821,8.122
			c0.957,2.755,1.781,5.556,2.693,8.326c0.893,2.714,1.829,5.414,2.734,8.124c0.904,2.708,1.797,5.42,2.686,8.132
			c0.909,2.771,1.8,5.548,2.712,8.318c0.893,2.713,1.809,5.418,2.7,8.132c0.89,2.712,1.748,5.434,2.644,8.145
			c0.916,2.771,1.928,5.511,2.775,8.303c1.28,4.223,2.257,7.033,2.982,8.031c0.71-2.168,1.442-4.276,2.091-6.409
			c1.913-6.295,3.782-12.603,5.688-18.901c1.402-4.632,2.843-9.252,4.249-13.883c1.479-4.873,2.926-9.755,4.404-14.627
			c1.874-6.176,3.765-12.347,5.648-18.521c0.054-0.178,0.088-0.362,0.139-0.542c0.151-0.54,0.49-0.848,1.069-0.851
			c0.186-0.001,0.373,0.001,0.559,0.001c8.703-0.003,17.406-0.007,26.109-0.007c0.245,0,0.491,0.032,0.745,0.05
			c0.12,0.163,0.314,0.304,0.319,0.451c0.045,1.362,0.085,2.726,0.066,4.088c-0.008,0.572-0.394,0.9-0.97,0.925
			c-0.558,0.024-1.118-0.019-1.677-0.014c-1.988,0.018-3.979-0.02-5.964,0.082c-2.966,0.152-4.119,1.335-4.303,4.274
			c-0.058,0.93-0.065,1.864-0.065,2.797c-0.004,23.815-0.005,47.63-0.004,71.445c0,0.684,0.015,1.368,0.041,2.051
			c0.072,1.909,1.091,3.148,2.848,3.722c0.81,0.265,1.705,0.338,2.566,0.364c1.677,0.051,3.356,0.007,5.035,0.003
			C198.367,380.677,199.107,380.678,199.854,380.678z"/>
		<path d="M297.092,337.884c1.696,0.739,3.262,1.448,4.848,2.109c4.917,2.046,7.998,5.781,9.706,10.702
			c0.751,2.164,1.306,4.401,1.869,6.625c0.517,2.044,0.91,4.119,1.382,6.175c0.555,2.419,1.122,4.835,1.708,7.246
			c0.413,1.701,1.086,3.306,1.964,4.817c0.308,0.53,0.682,1.053,1.133,1.463c1.205,1.095,2.755,0.955,3.738-0.345
			c1.143-1.511,1.88-3.21,2.084-5.114c0.204-1.915,0.399-3.83,0.609-5.744c0.105-0.955,0.325-1.168,1.303-1.182
			c0.807-0.011,1.617,0.022,2.422,0.078c0.623,0.043,0.917,0.367,0.856,0.972c-0.106,1.049-0.268,2.091-0.404,3.137
			c-0.088,0.677-0.172,1.355-0.253,2.033c-0.384,3.233-1.247,6.329-2.709,9.242c-0.388,0.773-0.871,1.509-1.386,2.206
			c-3.013,4.072-7.107,5.441-11.985,4.608c-4.065-0.694-6.757-3.211-8.536-6.81c-0.972-1.966-1.55-4.056-1.845-6.228
			c-0.428-3.139-0.902-6.272-1.294-9.415c-0.262-2.095-0.407-4.204-0.62-6.305c-0.244-2.413-0.684-4.795-1.222-7.159
			c-0.725-3.188-2.217-5.924-4.82-7.976c-2.446-1.928-5.169-3.123-8.326-3.359c-2.796-0.209-5.584-0.268-8.379-0.086
			c-0.183,0.012-0.364,0.068-0.626,0.12c-0.048,0.278-0.141,0.57-0.142,0.863c-0.027,9.265-0.045,18.53-0.066,27.794
			c-0.005,2.363-0.019,4.726-0.016,7.089c0.001,0.683,0.053,1.365,0.074,2.048c0.051,1.6,1.003,2.5,2.414,2.944
			c0.637,0.2,1.344,0.237,2.02,0.245c2.176,0.027,4.352,0.003,6.528,0.006c0.611,0.001,1.223,0.031,1.9,0.049
			c0.111,0.435,0.267,0.779,0.276,1.128c0.029,1.118,0.018,2.237-0.005,3.355c-0.013,0.637-0.394,1.023-1.071,1.035
			c-0.806,0.015-1.614-0.071-2.422-0.07c-11.129,0.004-22.258-0.011-33.386,0.046c-2.527,0.013-2.352-0.364-2.353-2.413
			c0-0.746,0.029-1.493,0.088-2.236c0.049-0.611,0.333-0.879,0.972-0.888c1.43-0.02,2.86,0.004,4.29,0.002
			c1.368-0.002,2.738,0.033,4.103-0.034c2.426-0.118,3.885-1.634,3.975-4.044c0.012-0.311,0.004-0.622,0.004-0.933
			c-0.002-24.999-0.004-49.998-0.007-74.997c0-0.249,0.006-0.498-0.01-0.746c-0.142-2.267-1.454-3.669-3.728-3.915
			c-0.863-0.093-1.738-0.096-2.607-0.1c-1.865-0.008-3.73,0.023-5.595,0.011c-1.14-0.007-1.446-0.299-1.462-1.424
			c-0.015-1.056,0.021-2.114,0.073-3.169c0.025-0.518,0.311-0.794,0.813-0.851c0.369-0.042,0.744-0.035,1.117-0.035
			c13.927,0.001,27.853-0.051,41.779,0.042c4.039,0.027,8.053,0.589,11.85,2.15c5.211,2.142,9.188,5.646,11.621,10.762
			c1.369,2.878,2.285,5.901,2.224,9.147c-0.019,0.995-0.011,1.99-0.001,2.985c0.08,8.314-5.335,16.788-14.157,19.696
			c-2.128,0.701-4.266,1.326-6.477,1.702c-0.542,0.092-1.06,0.316-1.596,0.448C298.627,337.559,297.922,337.701,297.092,337.884z
			 M278.586,334.068c0.857,0.056,1.782,0.161,2.708,0.168c3.911,0.029,7.81,0.044,11.713-0.5c2.631-0.367,5.079-1.094,7.426-2.262
			c3.098-1.542,5.26-3.978,6.374-7.222c1.18-3.436,1.621-7.023,1.454-10.653c-0.079-1.732-0.349-3.46-0.611-5.177
			c-0.388-2.547-1.279-4.913-2.672-7.096c-1.917-3.004-4.748-4.546-8.178-4.9c-3.023-0.313-6.076-0.374-9.117-0.476
			c-2.175-0.073-4.347,0.063-6.505,0.386c-1.762,0.263-2.8,1.284-3.003,3.026c-0.064,0.554-0.097,1.116-0.097,1.674
			c0.003,9.514,0.013,19.027,0.023,28.541c0.001,0.87,0.011,1.741,0.019,2.611C278.126,332.807,278.141,333.428,278.586,334.068z"/>
		<path d="M354.549,354.937c-0.616,0.596-0.75,1.343-0.982,2.044c-0.86,2.589-1.756,5.166-2.57,7.77
			c-0.61,1.953-1.157,3.928-1.646,5.915c-0.205,0.834-0.237,1.722-0.262,2.587c-0.076,2.591,1.105,4.519,3.229,5.922
			c1.492,0.986,3.142,1.471,4.921,1.511c0.994,0.022,1.989-0.007,2.983,0.004c0.426,0.005,0.851,0.054,1.315,0.086
			c0.112,0.263,0.28,0.482,0.287,0.705c0.039,1.241,0.057,2.483,0.044,3.725c-0.007,0.651-0.387,1.009-1.077,1.02
			c-0.807,0.013-1.615-0.055-2.422-0.054c-8.453,0.009-16.907-0.004-25.36,0.063c-1.718,0.013-2.001-0.321-1.917-1.867
			c0.054-0.992,0.036-1.989,0.06-2.983c0.003-0.118,0.072-0.235,0.111-0.352c0.359-0.492,0.891-0.352,1.371-0.355
			c1.719-0.012,3.302-0.504,4.801-1.313c2.064-1.114,3.329-2.944,4.382-4.946c1.16-2.205,1.983-4.55,2.792-6.901
			c2.143-6.22,4.293-12.438,6.461-18.65c1.942-5.566,3.922-11.118,5.865-16.683c2.557-7.324,5.086-14.658,7.643-21.983
			c2.27-6.503,4.562-12.999,6.84-19.499c0.144-0.41,0.234-0.839,0.373-1.251c0.276-0.82,0.426-0.928,1.356-0.957
			c0.683-0.021,1.368,0.001,2.051-0.033c0.806-0.04,1.272,0.328,1.518,1.08c0.502,1.534,1.027,3.06,1.549,4.587
			c0.943,2.761,1.895,5.518,2.835,8.28c0.86,2.526,1.704,5.057,2.565,7.582c1.363,3.995,2.741,7.984,4.1,11.98
			c1.419,4.172,2.815,8.352,4.236,12.523c0.881,2.586,1.797,5.159,2.683,7.743c0.945,2.758,1.872,5.522,2.81,8.282
			c1.518,4.467,3.033,8.935,4.558,13.4c1.325,3.877,2.652,7.753,4.005,11.619c0.244,0.698,0.569,1.381,0.946,2.019
			c1.204,2.034,3.029,3.053,5.379,3.125c1.105,0.034,2.215-0.059,3.388,0.077c0.089,0.368,0.216,0.657,0.22,0.949
			c0.018,1.119,0.025,2.239-0.018,3.357c-0.038,0.979-0.299,1.197-1.242,1.192c-5.034-0.025-10.068-0.068-15.102-0.072
			c-5.159-0.004-10.318,0.031-15.477,0.05c-0.124,0-0.249,0.009-0.373,0.008c-1.28-0.017-1.493-0.219-1.51-1.528
			c-0.012-0.932,0.001-1.866,0.039-2.797c0.044-1.079,0.223-1.236,1.369-1.244c1.181-0.008,2.362,0.02,3.543,0.012
			c1.438-0.01,2.857-0.173,4.187-0.759c0.504-0.222,1-0.497,1.437-0.829c0.626-0.475,0.926-1.143,0.919-1.948
			c-0.009-0.942-0.185-1.84-0.497-2.734c-0.961-2.753-1.879-5.522-2.814-8.284c-1.095-3.234-2.182-6.471-3.295-9.698
			c-0.177-0.515-0.472-0.989-0.719-1.495C375.735,354.937,365.121,354.937,354.549,354.937z M384.329,348.935
			c-0.076-0.544-0.071-0.865-0.168-1.152c-4.394-13.019-8.798-26.036-13.283-39.297c-0.443,0.728-0.805,1.207-0.931,1.831
			c-0.061,0.303-0.144,0.604-0.248,0.894c-1.343,3.729-2.722,7.445-4.032,11.186c-1.455,4.154-2.837,8.333-4.277,12.492
			c-0.647,1.87-1.37,3.713-2.037,5.577c-0.73,2.042-1.439,4.091-2.149,6.14c-0.262,0.756-0.561,1.517-0.175,2.328
			c0.649,0.359,1.344,0.296,2.02,0.297c7.576,0.006,15.152,0.01,22.728-0.012C382.569,349.216,383.359,349.047,384.329,348.935z"/>
		<path d="M245.398,380.752c0.066,0.523,0.146,0.885,0.152,1.247c0.016,0.932,0.002,1.864-0.003,2.797
			c-0.007,1.25-0.239,1.463-1.56,1.43c-0.683-0.017-1.367-0.051-2.05-0.051c-10.132,0-20.265,0.003-30.397,0.011
			c-1.181,0.001-2.362,0.059-3.542,0.052c-0.915-0.005-1.212-0.292-1.297-1.215c-0.125-1.365,0-2.719,0.203-4.156
			c0.38-0.069,0.729-0.186,1.078-0.188c2.486-0.013,4.973,0.021,7.459-0.013c0.736-0.01,1.499-0.096,2.198-0.312
			c1.056-0.326,1.796-1.01,2.088-2.167c0.401-1.587,0.461-3.195,0.464-4.809c0.017-8.456,0.018-16.912,0.018-25.368
			c0-14.86-0.001-29.72-0.016-44.58c-0.001-1.241-0.073-2.486-0.186-3.723c-0.181-1.973-1-3.033-3.03-3.433
			c-1.419-0.28-2.835-0.324-4.259-0.35c-1.553-0.029-3.108,0.03-4.662,0.02c-1.047-0.007-1.348-0.28-1.365-1.319
			c-0.02-1.239,0.042-2.479,0.071-3.829c0.451-0.126,0.844-0.317,1.244-0.333c1.055-0.04,2.113,0.001,3.169,0.001
			c10.878-0.006,21.756-0.015,32.635-0.017c0.486,0,0.972,0.053,1.435,0.079c0.117,0.24,0.264,0.403,0.267,0.569
			c0.025,1.304,0.044,2.608,0.018,3.912c-0.012,0.596-0.36,0.915-0.942,0.947c-0.433,0.024-0.869-0.017-1.304-0.015
			c-1.988,0.013-3.977,0.01-5.965,0.06c-0.677,0.017-1.348,0.193-2.026,0.26c-1.563,0.156-2.281,1.179-2.524,2.57
			c-0.202,1.159-0.281,2.344-0.344,3.521c-0.056,1.054-0.02,2.113-0.02,3.17c-0.001,21.886-0.008,43.772,0.012,65.658
			c0.002,2.047,0.118,4.1,0.291,6.141c0.161,1.892,1.16,2.91,3.024,3.247c0.606,0.11,1.237,0.115,1.856,0.118
			c2.238,0.011,4.476-0.002,6.713,0.001C244.609,380.687,244.917,380.722,245.398,380.752z"/>
		<path style="fill:#AAAAAA;" d="M200.965,435.557c0.115-2.729,0.104-5.472,0.37-8.187c0.53-5.413,2.747-10.016,6.964-13.569
			c2.452-2.066,5.323-3.149,8.443-3.65c3.177-0.51,6.321-0.294,9.417,0.554c4.269,1.169,7.516,3.726,9.942,7.391
			c1.82,2.751,2.828,5.802,3.264,9.037c0.223,1.657,0.295,3.341,0.333,5.014c0.053,2.361-0.003,4.723,0.011,7.085
			c0.018,3.068-0.411,6.055-1.324,8.995c-2.157,6.946-8.364,12.612-16.736,12.86c-1.486,0.044-2.992,0.051-4.464-0.132
			c-4.633-0.576-8.507-2.601-11.444-6.299c-2.585-3.254-4.096-6.952-4.419-11.088C201.113,440.908,201.078,438.234,200.965,435.557z
			 M235.213,435.404c-0.003,0-0.006,0-0.009,0c0-1.553,0.023-3.106-0.005-4.659c-0.052-2.822-0.546-5.562-1.695-8.154
			c-1.719-3.88-4.452-6.702-8.58-7.983c-2.289-0.71-4.642-0.713-7.009-0.47c-4.052,0.417-7.093,2.474-9.31,5.795
			c-1.539,2.305-2.416,4.872-2.767,7.635c-0.456,3.591-0.354,7.194-0.32,10.794c0.017,1.797,0.155,3.601,0.372,5.385
			c0.384,3.146,1.557,6.001,3.524,8.497c1.706,2.163,3.902,3.647,6.574,4.325c2.876,0.73,5.783,0.763,8.66-0.02
			c4.052-1.102,6.749-3.794,8.564-7.468c1.402-2.839,1.948-5.878,1.995-9.018C235.232,438.51,235.213,436.957,235.213,435.404z"/>
		<path style="fill:#AAAAAA;" d="M186.299,437.984c-1.94-0.38-13.76-0.485-25.178-0.262c-0.61,0.012-1.218,0.084-1.768,0.124
			c-0.482,0.885-0.35,1.707-0.352,2.499c-0.012,5.905-0.004,11.809-0.007,17.714c0,0.558-0.006,1.119-0.069,1.672
			c-0.046,0.407-0.345,0.696-0.747,0.714c-0.928,0.042-1.86,0.047-2.789,0.017c-0.485-0.016-0.807-0.327-0.867-0.82
			c-0.052-0.43-0.064-0.867-0.064-1.301c-0.008-15.228-0.013-30.456-0.019-45.684c0-0.124-0.005-0.249-0.001-0.373
			c0.046-1.453,0.279-1.688,1.786-1.7c0.682-0.006,1.367,0.017,2.045,0.082c0.407,0.039,0.669,0.333,0.706,0.748
			c0.038,0.432,0.033,0.868,0.033,1.302c-0.001,6.153-0.008,12.307-0.004,18.46c0.001,2.456,0.073,2.553,2.481,2.558
			c7.581,0.017,15.162,0.01,22.743,0.003c0.61-0.001,1.241,0.071,1.762-0.199c0.505-0.587,0.385-1.234,0.388-1.842
			c0.019-3.791,0.024-7.583,0.028-11.374c0.002-2.548-0.008-5.097-0.008-7.645c0-0.434-0.039-0.884,0.062-1.296
			c0.063-0.258,0.327-0.625,0.546-0.659c1.274-0.201,2.563-0.33,3.908,0.222c0.03,0.576,0.083,1.125,0.083,1.674
			c0.002,15.228,0,30.456-0.004,45.684c-0.001,2.156-0.062,2.214-2.177,2.208c-0.496-0.001-0.996,0.01-1.489-0.04
			c-0.579-0.059-0.868-0.38-0.913-0.984c-0.032-0.433-0.011-0.869-0.011-1.304c0-5.594,0.007-11.188-0.003-16.782
			C186.4,440.293,186.337,439.185,186.299,437.984z"/>
		<path style="fill:#AAAAAA;" d="M294.751,432.533c0.957,0.037,1.695,0.09,2.433,0.09c5.655,0.001,11.309-0.009,16.964-0.012
			c0.621,0,1.244-0.008,1.861,0.04c0.504,0.039,0.799,0.334,0.812,0.853c0.074,2.935,0.2,2.914-2.561,2.896
			c-5.655-0.038-11.309-0.027-16.964-0.026c-0.62,0-1.243,0.032-1.857,0.111c-0.396,0.051-0.666,0.329-0.705,0.751
			c-0.04,0.433-0.069,0.868-0.069,1.302c-0.006,5.47-0.008,10.939-0.003,16.409c0,0.368,0.063,0.737,0.107,1.216
			c0.395,0.114,0.789,0.297,1.195,0.331c0.803,0.066,1.614,0.066,2.421,0.065c6.649-0.008,13.298-0.022,19.947-0.034
			c0.249,0,0.498-0.022,0.745-0.008c0.733,0.041,1.089,0.318,1.066,1.002c-0.03,0.913,0.197,1.864-0.26,2.724
			c-0.713,0.468-1.481,0.252-2.207,0.253c-8.389,0.014-16.778,0.007-25.167,0.005c-0.435,0-0.872,0.028-1.304-0.004
			c-0.7-0.052-1.016-0.363-1.071-1.043c-0.03-0.37-0.008-0.745-0.009-1.118c-0.002-15.228-0.004-30.456-0.006-45.684
			c0-0.186-0.011-0.373-0.005-0.559c0.038-1.267,0.253-1.501,1.566-1.501c5.344,0,10.688,0.023,16.032,0.028
			c3.356,0.003,6.711-0.013,10.067-0.02c0.373-0.001,0.747-0.014,1.118,0.01c0.881,0.056,1.132,0.285,1.17,1.104
			c0.026,0.558,0.022,1.119-0.008,1.677c-0.034,0.632-0.299,0.921-0.896,0.976c-0.431,0.04-0.868,0.022-1.303,0.022
			c-6.835-0.006-13.671-0.016-20.506-0.015c-0.796,0-1.613-0.078-2.401,0.297c-0.408,0.699-0.29,1.457-0.291,2.185
			c-0.009,4.6-0.005,9.199,0.002,13.799C294.665,431.201,294.713,431.747,294.751,432.533z"/>
		<path style="fill:#AAAAAA;" d="M261.435,414.463c-0.939-0.04-1.612-0.093-2.285-0.094c-4.286-0.001-8.571,0.01-12.857,0.015
			c-0.434,0.001-0.871,0.017-1.302-0.018c-0.54-0.044-0.847-0.301-0.872-0.788c-0.034-0.68-0.034-1.367,0.022-2.045
			c0.047-0.575,0.389-0.865,0.985-0.921c0.369-0.035,0.744-0.016,1.117-0.016c11.304,0.002,22.608,0.005,33.911,0.007
			c0.248,0,0.497-0.007,0.745-0.002c1.718,0.029,1.859,0.183,1.821,1.98c-0.005,0.248,0.004,0.498-0.021,0.745
			c-0.07,0.706-0.346,0.994-1.057,1.044c-0.494,0.035-0.993,0.007-1.49,0.007c-3.975-0.003-7.95-0.017-11.925-0.005
			c-2.134,0.006-2.208,0.096-2.252,2.183c-0.009,0.435-0.001,0.87-0.001,1.305c0.004,13.481,0.008,26.962,0.011,40.443
			c0,2.146-0.041,2.185-2.179,2.216c-0.186,0.003-0.373,0.008-0.559,0.008c-1.518-0.001-1.673-0.137-1.674-1.72
			c-0.005-6.337,0.006-12.673,0.008-19.01c0.002-7.517,0.006-15.034-0.004-22.551C261.576,416.386,261.492,415.527,261.435,414.463z
			"/>
		<path style="fill:#AAAAAA;" d="M328.647,410.611c1.207,0,2.198-0.032,3.186,0.011c0.716,0.031,0.96,0.334,1,1.076
			c0.013,0.247-0.011,0.497-0.011,0.745c-0.005,13.978-0.01,27.956-0.007,41.934c0,0.61,0.076,1.22,0.121,1.901
			c0.516,0.098,0.923,0.22,1.336,0.245c0.743,0.044,1.49,0.038,2.235,0.038c6.522-0.003,13.043-0.012,19.565-0.009
			c0.731,0,1.499-0.15,2.196,0.39c0.299,0.878,0.167,1.807,0.086,2.723c-0.043,0.49-0.411,0.756-0.89,0.8
			c-0.431,0.04-0.868,0.035-1.302,0.035c-8.633,0.003-17.267,0.003-25.9,0.005c-0.248,0-0.497,0.022-0.745,0.01
			c-0.749-0.035-1.031-0.276-1.091-0.981c-0.037-0.432-0.017-0.869-0.017-1.304c0.002-14.351,0.004-28.702,0.005-43.053
			c0-1.056-0.039-2.113-0.015-3.168C328.408,411.597,328.54,411.187,328.647,410.611z"/>
		<path d="M289.476,217.629c0.424-0.094,0.829-0.242,1.239-0.262c0.868-0.041,1.74-0.016,2.61-0.015
			c7.398,0.001,14.796,0.006,22.194-0.001c1.055-0.001,2.11-0.065,3.239-0.102c1.11-1.149,2.233-2.307,3.351-3.469
			c0.363-0.377,0.52-0.832,0.504-1.358c-0.013-0.435,0.007-0.87,0.007-1.306c-0.003-26.49,0.003-52.98-0.013-79.47
			c-0.008-12.871-0.071-25.742-0.066-38.613c0-1.092-0.33-1.902-1.078-2.645c-1.145-1.139-2.269-2.302-3.354-3.498
			c-0.633-0.698-1.344-0.987-2.291-0.98c-3.854,0.027-7.709-0.01-11.563-0.016c-2.487-0.004-4.974,0.036-7.46-0.012
			c-0.82-0.016-1.406,0.245-1.967,0.818c-1.304,1.332-2.642,2.632-4,3.909c-0.639,0.6-0.874,1.268-0.869,2.148
			c0.034,6.964-0.013,13.929,0.05,20.893c0.022,2.393-0.724,4.31-2.484,5.969c-3.164,2.984-6.214,6.089-9.317,9.137
			c-4.035,3.963-8.076,7.919-12.113,11.88c-0.127,0.124-0.231,0.272-0.369,0.436c0.484,0.821,1.125,1.484,1.784,2.131
			c2.129,2.09,4.265,4.174,6.39,6.268c2.701,2.661,5.387,5.336,8.091,7.994c1.95,1.917,3.902,3.832,5.885,5.715
			c1.583,1.503,2.276,3.286,2.264,5.489c-0.052,10.136-0.025,20.272-0.026,30.408c0,0.373,0.015,0.747,0.001,1.119
			c-0.066,1.75-0.629,3.272-1.994,4.45c-1.082,0.934-2.123,1.915-3.197,2.86c-6.064,5.339-12.131,10.673-18.199,16.008
			c-1.727,1.518-3.484,3.004-5.181,4.554c-1.482,1.354-3.164,1.863-5.146,1.576c-1.231-0.178-2.206-0.774-3.104-1.57
			c-2.327-2.061-4.656-4.119-6.985-6.176c-5.638-4.978-11.278-9.954-16.916-14.933c-0.839-0.741-1.666-1.494-2.499-2.241
			c-1.428-1.278-2.102-2.871-2.093-4.791c0.021-4.353,0.008-8.706,0.008-13.058c0-6.032-0.008-12.064,0.007-18.095
			c0.002-0.803,0.051-1.619,0.203-2.405c0.217-1.126,0.833-2.057,1.653-2.862c2.706-2.656,5.396-5.328,8.102-7.984
			c3.859-3.787,7.731-7.562,11.59-11.349c0.841-0.826,1.654-1.68,2.471-2.53c0.123-0.127,0.196-0.302,0.355-0.553
			c-0.261-0.316-0.501-0.664-0.797-0.954c-3.287-3.217-6.587-6.422-9.875-9.637c-3.777-3.694-7.542-7.401-11.324-11.09
			c-0.993-0.969-1.885-1.996-2.164-3.403c-0.12-0.604-0.215-1.226-0.215-1.84c-0.004-7.213,0-14.426,0.042-21.639
			c0.005-0.867-0.199-1.575-0.759-2.214c-1.065-1.215-2.128-2.433-3.171-3.667c-0.438-0.519-0.96-0.716-1.632-0.71
			c-1.554,0.013-3.108-0.044-4.662-0.045c-6.092-0.003-12.185,0.025-18.277-0.012c-0.897-0.005-1.525,0.234-2.086,0.927
			c-0.937,1.159-1.937,2.268-2.933,3.378c-0.566,0.631-0.809,1.298-0.806,2.185c0.027,9.514-0.007,19.028-0.008,28.542
			c-0.004,29.226-0.001,58.452,0.001,87.678c0,0.995,0.06,1.991,0.021,2.984c-0.029,0.738,0.184,1.34,0.702,1.847
			c1.155,1.131,2.307,2.263,3.467,3.389c0.423,0.41,0.94,0.571,1.53,0.558c0.994-0.021,1.989-0.018,2.984-0.02
			c6.465-0.016,12.931-0.031,19.396-0.046c0.124,0,0.249-0.013,0.373-0.01c1.229,0.031,1.49,0.327,1.479,1.589
			c-0.024,2.672-0.03,5.345-0.045,8.017c-0.002,0.309,0.022,0.625-0.033,0.926c-0.073,0.398-0.347,0.651-0.753,0.717
			c-0.181,0.03-0.371,0.009-0.558,0.009c-8.454-0.017-16.909-0.076-25.363-0.023c-2.077,0.013-3.735-0.626-5.186-2.059
			c-2.255-2.228-4.515-4.453-6.846-6.6c-1.717-1.581-2.446-3.415-2.442-5.776c0.05-24.749,0.031-49.498,0.031-74.247
			c-0.001-16.665,0.012-33.33-0.025-49.995c-0.004-1.843,0.489-3.39,1.703-4.771c2.421-2.754,4.788-5.555,7.193-8.324
			c1.25-1.439,2.832-2.171,4.757-2.165c8.082,0.023,16.163,0.036,24.245,0.046c1.616,0.002,3.235,0.029,4.848-0.055
			c2.151-0.111,3.898,0.672,5.284,2.256c1.883,2.151,3.717,4.345,5.57,6.523c0.564,0.663,1.108,1.343,1.683,1.996
			c1.08,1.226,1.507,2.624,1.497,4.275c-0.044,7.088,0.017,14.178-0.024,21.266c-0.006,1.1,0.344,1.883,1.106,2.619
			c3.174,3.066,6.322,6.16,9.475,9.248c3.02,2.958,6.04,5.916,9.048,8.885c0.573,0.565,1.15,1.111,1.971,1.557
			c1.327-1.305,2.649-2.61,3.977-3.909c4.798-4.695,9.599-9.388,14.397-14.082c0.578-0.565,1.133-1.154,1.729-1.7
			c0.635-0.582,0.899-1.249,0.895-2.134c-0.029-6.964,0.023-13.929-0.033-20.893c-0.019-2.326,0.723-4.24,2.37-5.851
			c2.71-2.651,5.424-5.3,8.098-7.988c1.448-1.456,3.128-2.07,5.188-2.058c8.143,0.048,16.288,0.037,24.431-0.018
			c1.864-0.013,3.429,0.581,4.738,1.811c1.675,1.575,3.269,3.235,4.884,4.873c1.178,1.195,2.304,2.441,3.505,3.612
			c1.329,1.296,1.954,2.842,1.906,4.684c-0.018,0.684-0.003,1.368-0.003,2.052c0,34.698-0.004,69.397,0.003,104.095
			c0.001,6.156,0.049,12.311,0.072,18.467c0.002,0.559,0.016,1.122-0.036,1.678c-0.13,1.398-0.611,2.642-1.605,3.683
			c-2.231,2.337-4.411,4.723-6.659,7.044c-1.39,1.435-3.083,2.224-5.144,2.222c-9.45-0.012-18.899,0.013-28.349,0.017
			c-0.62,0-1.245-0.019-1.858-0.103c-0.385-0.053-0.662-0.335-0.721-0.751c-0.035-0.245-0.044-0.495-0.045-0.743
			c-0.007-2.859-0.013-5.718-0.008-8.577C289.35,218.336,289.424,218.033,289.476,217.629z M257.374,216.574
			c0.792-0.619,1.549-1.152,2.24-1.759c5.976-5.246,11.93-10.517,17.919-15.748c0.913-0.797,1.318-1.641,1.311-2.89
			c-0.045-8.204-0.025-16.409,0.022-24.613c0.006-1.087-0.312-1.919-1.091-2.638c-1.049-0.969-2.087-1.953-3.104-2.955
			c-5.135-5.057-10.259-10.125-15.393-15.183c-0.567-0.558-1.129-1.135-1.944-1.491c-0.348,0.3-0.686,0.562-0.99,0.86
			c-1.73,1.696-3.442,3.41-5.177,5.102c-3.423,3.338-6.86,6.662-10.286,9.997c-1.29,1.256-2.536,2.558-3.859,3.778
			c-0.69,0.637-0.989,1.3-0.985,2.266c0.025,6.712-0.017,13.425-0.03,20.137c-0.003,1.678,0.078,3.358,0.014,5.033
			c-0.04,1.046,0.323,1.803,1.134,2.4c0.1,0.073,0.189,0.161,0.282,0.244c6.049,5.352,12.097,10.708,18.152,16.053
			C256.143,215.655,256.747,216.082,257.374,216.574z"/>
	</g>
</g>
</svg>
