<?xml version="1.0" encoding="utf-8"?>
<!-- Generator: Adobe Illustrator 26.0.1, SVG Export Plug-In . SVG Version: 6.00 Build 0)  -->
<svg version="1.1" id="George_Samuel" xmlns="http://www.w3.org/2000/svg" xmlns:xlink="http://www.w3.org/1999/xlink" x="0px"
	 y="0px" viewBox="0 0 512 512" style="enable-background:new 0 0 512 512;" xml:space="preserve">
<style type="text/css">
	.st0{fill:#FFFFFF;}
	.st1{fill:#AD0A40;}
	.st2{fill:url(#SVGID_1_);}
	.st3{fill:url(#SVGID_00000018231370860770764180000013903946018551671428_);}
	.st4{fill:url(#SVGID_00000183225286843831676960000007272444333442266251_);}
	.st5{fill:url(#SVGID_00000017504639495466724520000013993004619189165241_);}
	.st6{fill:url(#SVGID_00000110447620993881838460000006881172160293906597_);}
</style>
<g id="www.GeorgeSamuel.me_00000166670493797621759240000009842873173508414100_">
	<rect class="st0" width="512" height="512"/>
	<circle class="st0" cx="256" cy="256" r="256"/>
	<g id="www.GeorgeSamuel.me">
		<path class="st1" d="M147,220.8c-19.9,0-25.7,15.5-25.7,26.3c0,11.1,5.7,26.6,25.7,26.6s25.7-15.5,25.7-26.6
			C172.6,236.4,166.9,220.8,147,220.8z M147,265.7c-14.6,0-16.8-13.9-16.8-18.6c0-4.8,2.2-18.2,16.8-18.2s16.7,13.6,16.7,18.2
			S161.6,265.7,147,265.7z"/>
		<polygon class="st1" points="196.4,256.3 182,221.4 172.6,221.4 196.1,273.8 196.8,273.8 220.1,221.4 210.7,221.4 		"/>
		<polygon class="st1" points="225.5,273.4 260.2,273.4 260.2,265.4 234.3,265.4 234.3,251.6 254.5,251.6 254.5,243.8 234.3,243.8 
			234.3,229.2 260.2,229.2 260.2,221.4 225.5,221.4 		"/>
		<polygon class="st1" points="302.1,253.1 269,220.7 268.6,220.8 268.6,273.4 277.5,273.4 277.5,241.6 310.5,274.2 311,274 
			311,221.4 302.1,221.4 		"/>
		<path class="st1" d="M340.2,221.4h-19.5v52h8.8v-18.9h11.7c8.3,0,17.2-6.6,17.2-16.7C358.4,231,354.2,221.4,340.2,221.4z
			 M340.9,246.5h-11.4v-17.4h11.1c7.4,0,9.1,5.7,9.1,8.6C349.7,240.5,348,246.5,340.9,246.5z"/>
		<rect x="365.7" y="221.4" class="st1" width="8.9" height="52"/>
		<path class="st1" d="M408.5,228.4c5.4,0,10.8,3.2,13.9,6.6l5.8-5.6c-5-5.5-10.8-9-19.7-9c-19.8,0-25.7,16-25.7,26.7
			c0,11.1,5.9,27.1,25.7,27.1c8.6,0,14.5-3,19.5-8l-5.2-6.4c-3.3,3.2-8.6,6.3-14.4,6.3c-14.6-0.3-16.8-14.1-16.8-18.9
			C391.7,242.4,394,228.4,408.5,228.4z"/>
		<polygon class="st1" points="450.9,246.5 474.9,221.6 474.8,221.4 464.1,221.4 444.3,242 444.3,221.4 435.5,221.4 435.5,273.4 
			444.3,273.4 444.3,250.6 465.7,273.4 476.5,273.4 476.5,273.1 		"/>
		<path class="st1" d="M135,215.3c2.8,0,5.1-2.3,5.1-5.1c0-2.8-2.3-5.1-5.1-5.1s-5.1,2.3-5.1,5.1C129.9,213,132.2,215.3,135,215.3z"
			/>
		<path class="st1" d="M156.2,215.3c2.8,0,5.1-2.3,5.1-5.1c0-2.8-2.3-5.1-5.1-5.1c-2.8,0-5.1,2.3-5.1,5.1
			C151.1,213,153.4,215.3,156.2,215.3z"/>
		<path class="st1" d="M98.5,210.5l-20.2,43.7l-20.2-43.7h-0.6L36,273.3h3c0,0,6.9,0.1,8.9-6.2l11-33.3l19,40.3l0,0l0,0h0.7l0,0l0,0
			l19-40.3l11,33.3c2,6.3,8.9,6.2,8.9,6.2h3l-21.5-62.8L98.5,210.5L98.5,210.5z"/>
		
			<linearGradient id="SVGID_1_" gradientUnits="userSpaceOnUse" x1="-147.7641" y1="407.0123" x2="-173.6087" y2="458.5767" gradientTransform="matrix(1 0 0 1 466.0034 -236.2945)">
			<stop  offset="0" style="stop-color:#FFFFFF"/>
			<stop  offset="0.4685" style="stop-color:#BBB49E"/>
			<stop  offset="0.8313" style="stop-color:#8A7F59"/>
			<stop  offset="1" style="stop-color:#776A3F"/>
		</linearGradient>
		<path class="st2" d="M295.2,201.5c-3.8,2.6-6.1,4.1-6.4,4.3c4.3,1.7,8.2,2,12.1,1.5l0,0c1.1-1.3,1.8-1.9,2.7-3.1
			c7.4-8.2,11.7-7.8,13.8-8C314.4,194.7,306.3,194,295.2,201.5z"/>
		
			<linearGradient id="SVGID_00000077326009353721622220000013300470002820652975_" gradientUnits="userSpaceOnUse" x1="265.6217" y1="499.9461" x2="270.2801" y2="451.5657" gradientTransform="matrix(1 0 0 1 0 -278)">
			<stop  offset="0" style="stop-color:#FFFFFF"/>
			<stop  offset="1" style="stop-color:#776A3F"/>
		</linearGradient>
		<path style="fill:url(#SVGID_00000077326009353721622220000013300470002820652975_);" d="M287.9,206.3c-4.7-1.9-10-5.3-16.3-10.8
			c-9.2-8-17.9-8.8-23.4-8.1c3.8,1.1,10.6,4.1,18.1,13.3c4,4.8,7.6,7.8,10.8,9.8l0,0l0,0C278,210.4,282.6,209.9,287.9,206.3z"/>
		
			<linearGradient id="SVGID_00000003793321499621360220000010959488274976229794_" gradientUnits="userSpaceOnUse" x1="-165.0408" y1="443.4756" x2="-165.0408" y2="443.4756" gradientTransform="matrix(1 0 0 1 466.0034 -236.2945)">
			<stop  offset="0" style="stop-color:#EBE9E2"/>
			<stop  offset="1" style="stop-color:#776A3F"/>
		</linearGradient>
		<path style="fill:url(#SVGID_00000003793321499621360220000010959488274976229794_);" d="M301,207.2L301,207.2L301,207.2z"/>
		
			<linearGradient id="SVGID_00000019674616804946540730000008382003402441579179_" gradientUnits="userSpaceOnUse" x1="-204.8179" y1="435.8451" x2="-163.659" y2="450.6566" gradientTransform="matrix(1 0 0 1 466.0034 -236.2945)">
			<stop  offset="0" style="stop-color:#FFFFFF"/>
			<stop  offset="0.1092" style="stop-color:#F7F6F3"/>
			<stop  offset="0.3058" style="stop-color:#E1DED4"/>
			<stop  offset="0.5671" style="stop-color:#BDB6A1"/>
			<stop  offset="0.8798" style="stop-color:#8C805B"/>
			<stop  offset="1" style="stop-color:#776A3F"/>
		</linearGradient>
		<path style="fill:url(#SVGID_00000019674616804946540730000008382003402441579179_);" d="M287.9,206.3c-5.3,3.7-10,4.1-10.7,4.1
			c0.1,0.1,0.2,0.1,0.3,0.2c11.3,6.7,19.9,0,22.6-2.5l0.2-0.2l0,0C296.3,208.4,292.3,208.1,287.9,206.3z"/>
		
			<linearGradient id="SVGID_00000160907885329443596070000016000351654945542544_" gradientUnits="userSpaceOnUse" x1="-219.8667" y1="433.2952" x2="-165.0408" y2="433.2952" gradientTransform="matrix(1 0 0 1 466.0034 -236.2945)">
			<stop  offset="0" style="stop-color:#EBE9E2"/>
			<stop  offset="1" style="stop-color:#776A3F"/>
		</linearGradient>
		<path style="fill:url(#SVGID_00000160907885329443596070000016000351654945542544_);" d="M288.8,205.7
			c-4.8-1.9-10.1-5.4-16.6-11.2c-10.9-9.7-21.2-9-26.1-7.8c0.5,0.1,1.2,0.3,2.1,0.5c5.6-0.7,14.2,0.1,23.4,8.1
			c12.3,10.7,20.3,13.6,28.6,12.5c0.1-0.1,0.7-0.7,0.7-0.7C297,207.7,293.1,207.4,288.8,205.7z"/>
		<path class="st1" d="M51.3,325.4v-9.7H40.6v9.7h-2.8v-21h2.8v8.9h10.7v-8.9h2.8v21L51.3,325.4L51.3,325.4z"/>
		<path class="st1" d="M70.8,325.6c-6.3,0-9.3-4.2-9.3-10.6c0-7,4.5-11,10-11c5.6,0,9.3,3.7,9.3,10.6
			C80.8,321.7,76.3,325.6,70.8,325.6z M71.1,306.6c-3.4,0-6.6,2.8-6.6,8.1c0,5,2.1,8.5,6.5,8.5c3.4,0,6.6-2.7,6.6-8.1
			C77.8,309.6,75.3,306.6,71.1,306.6z"/>
		<path class="st1" d="M93.6,306.8v18.6h-2.8v-18.6h-6v-2.4h15v2.4H93.6z"/>
		<path class="st1" d="M105.8,325.4v-21h10.8v2.4h-7.9v6.6h7.6v2.3h-7.6v7.3h7.9v2.4L105.8,325.4L105.8,325.4z"/>
		<path class="st1" d="M124.8,325.4v-21h2.8v18.5h7.5v2.5H124.8z"/>
		<path class="st1" d="M144.7,325.6c-1.7,0-3.3-0.2-4.6-0.6l0.4-2.7c1.3,0.5,2.8,0.9,4.4,0.9c2.5,0,4.5-1,4.5-3.6
			c0-4.8-9.5-2.8-9.5-9.5c0-3.4,2.6-5.9,7.3-5.9c1.2,0,2.6,0.1,3.8,0.4l-0.4,2.6c-1.1-0.4-2.4-0.5-3.6-0.5c-2.8,0-4.2,1.2-4.2,3.3
			c0,4.5,9.6,2.9,9.6,9.5C152.4,323,149.4,325.6,144.7,325.6z"/>
		<path class="st1" d="M188.6,326c-1.5-1.1-3.3-2.3-4.4-3.3c-2,1.8-4.8,3-8.2,3c-4.5,0-6.8-2.6-6.8-6.1c0-2.8,1.8-4.8,4.3-6.8
			c-2.2-2.6-2.9-4-2.9-5.6c0-2.6,1.9-4.7,5.6-4.7c3.3,0,4.9,1.8,4.9,4.2c0,2.1-1.1,4-3.9,6.1c1.8,1.9,4.5,4.4,6.9,6.3l0,0
			c1.4-1.9,2.3-4.7,2.1-7.7h2.8c0.1,3.5-1,6.8-2.8,9.3c1.6,1.2,3.2,2.4,4.2,3.2L188.6,326z M175.1,314.5c-2.2,1.8-3.1,3.2-3.1,4.8
			c0,2.2,1.7,4.1,4.4,4.1c2.5,0,4.4-1,5.7-2.1C179.7,319,176.8,316.4,175.1,314.5z M175.9,304.6c-1.5,0-2.6,1.1-2.6,2.5
			c0,1.1,0.6,2.2,2.3,4.1c1.8-1.4,2.6-2.6,2.6-4.2C178.3,305.7,177.6,304.6,175.9,304.6z"/>
		<path class="st1" d="M218.4,325.4l-6.9-9.4h-0.4v9.4h-2.8v-21c1.4-0.1,3-0.1,5.3-0.1c4.1,0,7.1,1.5,7.1,5.5c0,3.6-2.8,5.6-6.2,5.9
			c0.6,0.7,1.2,1.5,1.8,2.2l5.7,7.5L218.4,325.4L218.4,325.4z M213,306.6c-0.7,0-1.3,0-1.9,0.1v7.1c0.4,0,1,0.1,1.8,0.1
			c3,0,4.8-1.5,4.8-3.8C217.7,307.6,216.1,306.6,213,306.6z"/>
		<path class="st1" d="M229.1,325.4v-21h10.8v2.4h-7.9v6.6h7.6v2.3h-7.6v7.3h7.9v2.4L229.1,325.4L229.1,325.4z"/>
		<path class="st1" d="M251.8,325.6c-1.7,0-3.3-0.2-4.6-0.6l0.4-2.7c1.3,0.5,2.8,0.9,4.4,0.9c2.5,0,4.5-1,4.5-3.6
			c0-4.8-9.5-2.8-9.5-9.5c0-3.4,2.6-5.9,7.3-5.9c1.2,0,2.6,0.1,3.8,0.4l-0.4,2.6c-1.1-0.4-2.4-0.5-3.6-0.5c-2.8,0-4.2,1.2-4.2,3.3
			c0,4.5,9.6,2.9,9.6,9.5C259.5,323,256.4,325.6,251.8,325.6z"/>
		<path class="st1" d="M275,325.6c-6.3,0-9.3-4.2-9.3-10.6c0-7,4.5-11,10-11c5.6,0,9.3,3.7,9.3,10.6
			C285,321.7,280.5,325.6,275,325.6z M275.4,306.6c-3.4,0-6.6,2.8-6.6,8.1c0,5,2.1,8.5,6.5,8.5c3.4,0,6.6-2.7,6.6-8.1
			C282,309.6,279.5,306.6,275.4,306.6z"/>
		<path class="st1" d="M302.5,325.4l-6.9-9.4h-0.4v9.4h-2.8v-21c1.4-0.1,3-0.1,5.3-0.1c4.1,0,7.1,1.5,7.1,5.5c0,3.6-2.8,5.6-6.2,5.9
			c0.6,0.7,1.2,1.5,1.8,2.2l5.7,7.5L302.5,325.4L302.5,325.4z M297.1,306.6c-0.7,0-1.3,0-1.9,0.1v7.1c0.4,0,1,0.1,1.8,0.1
			c3,0,4.8-1.5,4.8-3.8C301.8,307.6,300.2,306.6,297.1,306.6z"/>
		<path class="st1" d="M318.8,306.8v18.6h-2.8v-18.6h-6v-2.4h15v2.4H318.8z"/>
		<path class="st1" d="M334.4,325.6c-1.7,0-3.3-0.2-4.6-0.6l0.4-2.7c1.3,0.5,2.8,0.9,4.4,0.9c2.5,0,4.5-1,4.5-3.6
			c0-4.8-9.5-2.8-9.5-9.5c0-3.4,2.6-5.9,7.3-5.9c1.2,0,2.6,0.1,3.8,0.4l-0.4,2.6c-1.1-0.4-2.4-0.5-3.6-0.5c-2.8,0-4.2,1.2-4.2,3.3
			c0,4.5,9.6,2.9,9.6,9.5C342.1,323,339,325.6,334.4,325.6z"/>
	</g>
</g>
</svg>
