<?xml version="1.0" encoding="iso-8859-1"?>
<!-- Generator: Adobe Illustrator 26.0.1, SVG Export Plug-In . SVG Version: 6.00 Build 0)  -->
<svg version="1.1" id="GeorgeSamuel.me" xmlns="http://www.w3.org/2000/svg" xmlns:xlink="http://www.w3.org/1999/xlink" x="0px"
	 y="0px" viewBox="0 0 512 512" style="enable-background:new 0 0 512 512;" xml:space="preserve">
<g id="www.GeorgeSamuel.me">
	<rect style="fill:#FFFFFF;" width="512" height="512"/>
	<circle style="fill:#FFFFFF;" cx="256" cy="256" r="256"/>
	<path style="fill:#8B3C67;" d="M256.4,498.756c-55.977-0.068-111.972-18.405-156.223-52.693
		c-25.787-19.982-47.354-45.306-63.313-73.739c-16.016-28.537-26.428-60.308-29.703-92.901
		c-3.244-32.291,0.938-64.857,11.246-95.707c10.375-31.049,26.846-60.078,48.316-84.801c8.478-9.762,17.736-18.85,27.688-27.106
		c58.935-48.888,140.922-68.187,215.771-52.035c57.053,12.312,109.758,44.673,145.679,90.677s54.573,105.406,50.294,163.616
		c-4.112,55.93-29.262,109.88-68.669,149.782s-92.643,65.626-148.26,72.822C278.344,498.081,267.373,498.769,256.4,498.756z
		 M9.717,255.212c-0.332,14.996,1.136,29.864,4.625,45.094c5.519,24.094,14.816,47.284,27.185,68.672
		c24.74,42.78,61.864,78.587,106.205,100.604c7.09,3.52,14.356,6.683,21.769,9.461c84.855,31.794,186.737,12.298,253.86-48.577
		c56.602-51.333,87.374-130.928,76.309-206.535c-4.958-33.882-17.867-66.486-36.774-95.036
		C423.473,69.364,357.149,28.424,286.265,19.865S141.218,35.281,88.759,83.716C49.134,120.3,22.452,170.31,12.995,223.321
		C11.068,234.126,9.95,244.7,9.717,255.212z"/>
	<path style="fill:#8B3C67;" d="M161.029,185.435c8.593-3.757,17.186-7.513,25.779-11.27c2.357-1.03,4.794-2.079,7.366-2.103
		c5.021-0.048,9.305,3.85,11.722,8.251s3.495,9.403,5.498,14.008c0.57,1.31,1.614,2.806,3.02,2.558
		c1.465-0.259,1.884-2.13,1.981-3.615c2.3-35.295,5.424-70.536,9.369-105.686c0.289-2.575,0.621-5.26,2.062-7.415
		c7.782-11.638,12.848,8.243,13.45,13.207c5.907,48.725,13.177,97.285,21.8,145.603c0.298,1.672,1.043,3.752,2.741,3.798
		c1.891,0.051,2.627-2.409,2.772-4.295c3.367-43.509,7.647-86.947,12.837-130.276c0.28-2.338,0.594-4.765,1.86-6.75
		s3.782-3.384,6.003-2.602c2.873,1.011,3.565,4.679,3.865,7.71c1.099,11.086,3.119,22.08,6.031,32.833
		c3.186,11.765,7.571,23.474,15.261,32.932c12.427,15.282,33.371,23.133,52.781,19.784c23.416-4.04,41.703-22.278,63.821-30.962
		c-4.956,4.765-11.015,8.193-17.003,11.57c-9.685,5.462-19.371,10.924-29.056,16.385c-8.017,4.521-16.261,9.123-25.36,10.512
		c-19.776,3.018-39.112-10.216-49.714-27.18s-14.413-37.149-18.679-56.693c-0.273-1.251-0.848-2.776-2.125-2.864
		c-1.581-0.109-2.202,1.994-2.282,3.577c-2.207,43.467-5.922,86.858-11.135,130.068c-0.695,5.762-2.88,13.009-8.668,13.436
		c-5.992,0.442-9.132-6.855-10.419-12.724c-9.399-42.873-16.344-86.284-20.79-129.95c-0.172-1.689-0.836-3.861-2.534-3.866
		c-1.763-0.004-2.387,2.31-2.475,4.071c-1.64,32.856-4.826,65.635-9.543,98.192c-0.599,4.136-2.444,9.375-6.622,9.293
		c-3.618-0.071-5.561-4.23-6.399-7.751c-2.916-12.254-2.862-25.277-7.679-36.915c-1.312-3.17-3.563-6.596-6.989-6.78
		c-2.148-0.116-4.105,1.113-5.951,2.218C179.481,180.62,170.401,183.928,161.029,185.435z"/>
	<path style="fill:#8B3C67;" d="M213.92,386.569c5.992,0,11.984,0.005,17.975-0.004c1.136-0.002,2.274-0.018,3.406-0.1
		c1.148-0.082,1.966-0.687,2.196-1.846c0.2-1.006,0.346-2.034,0.387-3.057c0.072-1.805,0.12-3.618,0.039-5.421
		c-0.079-1.75,1.806-3.667,3.963-3.891c0.799-0.083,1.188,0.275,1.193,1.044c0.016,2.678,0.045,5.357,0.016,8.035
		c-0.012,1.133-0.132,2.266-0.242,3.395c-0.403,4.148-3.607,6.478-7.349,6.961c-1.684,0.217-3.402,0.223-5.104,0.226
		c-11.519,0.019-23.037,0.014-34.556,0.005c-1.031-0.001-2.062-0.096-3.093-0.14c-1.372-0.059-2.642-0.428-3.798-1.185
		c-1.209-0.792-2.441-0.752-3.638,0.007c-1.172,0.743-2.47,1.043-3.82,1.132c-1.494,0.098-2.992,0.175-4.489,0.177
		c-10.176,0.017-20.351,0.013-30.527,0.013c-2.448,0-4.841-0.212-7.043-1.462c-0.965-0.548-1.981-0.458-2.938,0.153
		c-1.205,0.77-2.533,1.149-3.963,1.157c-5.835,0.034-11.67,0.072-17.505,0.09c-1.652,0.005-3.305-0.036-4.957-0.093
		c-1.358-0.047-2.236,0.553-2.777,1.79c-0.686,1.568-1.524,3.063-2.847,4.191c-3.482,2.97-7.516,3.579-11.912,2.806
		c-5.6-0.986-9.434-6.321-9.574-11.621c-0.057-2.175,0.342-4.202,1.6-6.027c0.759-1.101,1.824-1.476,3.082-1.411
		c0.863,0.045,1.204,0.483,0.787,1.215c-1.321,2.315-0.922,4.806-0.481,7.124c0.766,4.026,5.709,8.309,11.173,5.398
		c2.829-1.507,4.024-3.848,3.991-6.958c-0.031-2.892,0.039-5.787-0.058-8.677c-0.105-3.123,1.797-4.261,4.157-4.961
		c0.636-0.189,0.996,0.072,1.081,0.721c0.02,0.153,0.019,0.309,0.018,0.464c-0.002,2.316-0.067,4.633,0.02,6.946
		c0.038,1.009,0.259,2.055,0.623,2.997c0.412,1.065,1.298,1.197,2.057,0.33c0.6-0.686,1.114-1.501,1.464-2.343
		c1.514-3.64,3.77-6.742,6.627-9.424c2.548-2.393,5.518-3.774,9.081-3.69c0.878,0.021,1.756-0.018,2.634,0.004
		c5.06,0.127,9.082,3.972,9.505,9.04c0.12,1.438,0.229,2.888,0.515,4.298c0.385,1.898,1.201,2.545,3.113,2.579
		c2.168,0.039,4.338-0.029,6.508-0.026c9.659,0.012,19.318,0.033,28.977,0.048c0.671,0.001,1.344,0.003,2.014-0.031
		c2.378-0.12,3.085-0.82,3.194-3.242c0.058-1.289,0.019-2.582,0.029-3.873c0.009-1.239-0.002-2.48,0.045-3.718
		c0.046-1.22,0.504-2.169,1.743-2.67c0.709-0.287,1.322-0.805,2.011-1.154c0.919-0.465,1.467-0.175,1.651,0.852
		c0.072,0.403,0.059,0.823,0.062,1.236c0.023,2.995-0.039,5.994,0.079,8.985c0.128,3.232,0.556,3.587,3.82,3.596
		c6.612,0.018,13.223,0.005,19.835,0.005C213.92,386.566,213.92,386.568,213.92,386.569z M125.5,386.539c0,0.003,0,0.007,0,0.01
		c0.619,0,1.239,0.003,1.858-0.001c1.857-0.012,3.715-0.015,5.572-0.044c0.976-0.016,1.914-0.292,2.371-1.201
		c0.679-1.353,1.121-2.794,0.489-4.316c-0.376-0.905-0.748-1.814-1.183-2.691c-1.332-2.689-4.452-4.014-7.312-3.179
		c-3.969,1.159-6.933,3.527-8.87,7.193c-0.382,0.724-0.868,1.4-1.36,2.057c-0.855,1.142-0.569,1.909,0.853,2.124
		c0.405,0.061,0.823,0.047,1.235,0.047C121.268,386.541,123.384,386.539,125.5,386.539z"/>
	<path style="fill:#8B3C67;" d="M367.583,391.933c-10.869-0.005-21.739-0.011-32.608-0.016c-3.527-0.002-7.532-0.213-9.81-2.907
		c-1.812-2.143-1.931-5.198-1.963-8.003c-0.043-3.809-0.085-7.617-0.128-11.426c-0.016-1.388-0.026-2.808,0.429-4.12
		c0.455-1.311,1.476-2.514,2.836-2.79c0.632-0.128,1.394,0.009,1.719,0.566c0.185,0.317,0.191,0.702,0.193,1.069
		c0.024,5.943,0.047,11.886,0.071,17.829c0.006,1.427,0.125,3.084,1.295,3.901c0.746,0.521,1.721,0.54,2.632,0.54
		c23.601-0.015,47.202-0.029,70.803-0.044c0.693,0,1.439-0.017,1.999-0.425c0.457-0.333,0.713-0.876,0.882-1.416
		c0.714-2.278,0.199-4.742,0.359-7.124c0.161-2.382,1.458-5.082,3.828-5.368c0.374-0.045,0.783-0.015,1.078,0.219
		c0.435,0.345,0.467,0.981,0.462,1.536c-0.046,5.221,1.481,13.83-4.309,16.676c-2.637,1.296-5.696,1.321-8.634,1.32
		C388.34,391.943,377.962,391.938,367.583,391.933z"/>
	<path style="fill:#8B3C67;" d="M200.694,317.073c0,4.799,0.022,9.598-0.008,14.396c-0.02,3.118-0.382,3.471-3.479,3.505
		c-3.509,0.039-7.018,0.051-10.526,0.033c-1.027-0.005-2.053-0.159-3.08-0.234c-2.844-0.208-4.296-2.081-5.105-4.507
		c-0.433-1.298-0.61-2.724-0.654-4.1c-0.098-3.041-0.045-6.088-0.039-9.132c0.001-0.721,0.059-1.442,0.096-2.163
		c0.225-4.422,4.749-7.596,8.296-7.416c2.264,0.115,4.539,0.063,6.807,0.021c1.73-0.032,2.328-0.547,2.538-2.265
		c0.13-1.063,0.095-2.156,0.028-3.23c-0.086-1.387,0.985-3.234,2.243-3.701c0.628-0.233,1.128,0.04,1.538,0.453
		c0.863,0.87,1.376,1.883,1.362,3.169c-0.036,3.302-0.01,6.605-0.009,9.907c0,1.754,0,3.509,0,5.263
		C200.7,317.073,200.697,317.073,200.694,317.073z M183.096,323.11c-0.019,0.001-0.038,0.003-0.057,0.004
		c0,1.186-0.067,2.377,0.015,3.557c0.154,2.218,1.349,3.544,3.538,3.758c1.996,0.195,4.012,0.228,6.02,0.241
		c2.357,0.014,3.165-0.817,3.127-3.192c-0.03-1.854-0.208-3.705-0.243-5.558c-0.045-2.416,0.017-4.835-0.027-7.251
		c-0.026-1.444-0.496-2.083-1.847-2.214c-2.149-0.209-4.315-0.301-6.474-0.312c-1.035-0.005-2.045,0.363-2.708,1.277
		c-1.127,1.553-1.699,3.284-1.595,5.216C182.923,320.128,183.011,321.619,183.096,323.11z"/>
	<path style="fill:#8B3C67;" d="M148.058,316.815c0-4.954,0.032-9.909-0.02-14.863c-0.015-1.428,0.509-2.486,1.586-3.344
		c0.438-0.349,0.892-0.496,1.43-0.246c1.33,0.619,2.216,2.288,2.078,3.815c-0.088,0.974-0.146,1.957-0.117,2.934
		c0.038,1.308,0.769,2.138,2.045,2.313c0.862,0.118,1.744,0.102,2.617,0.125c2.059,0.055,4.136-0.062,6.172,0.178
		c4.117,0.484,7.081,3.599,7.276,7.767c0.171,3.652,0.102,7.32-0.006,10.977c-0.072,2.407-0.715,4.667-2.445,6.519
		c-0.846,0.905-1.749,1.595-2.996,1.745c-0.818,0.098-1.64,0.235-2.46,0.239c-4.077,0.016-8.154-0.005-12.231-0.019
		c-0.36-0.001-0.725-0.02-1.079-0.078c-1.126-0.185-1.548-0.545-1.732-1.662c-0.134-0.81-0.167-1.643-0.17-2.466
		c-0.015-4.645-0.007-9.289-0.007-13.934C148.019,316.815,148.039,316.815,148.058,316.815z M166.158,321.144
		c-0.05-0.003-0.1-0.006-0.15-0.009c0.036-0.772,0.107-1.545,0.101-2.317c-0.008-0.977-0.005-1.965-0.139-2.929
		c-0.295-2.107-2.065-3.537-4.672-3.749c-1.281-0.104-2.576-0.042-3.865-0.047c-3.667-0.015-4.57,0.813-4.445,4.426
		c0.126,3.656,0.486,7.305,0.045,10.962c-0.018,0.151,0.004,0.309,0.02,0.463c0.167,1.612,0.91,2.523,2.522,2.623
		c2.208,0.137,4.435,0.168,6.644,0.052c1.878-0.099,3.269-1.414,3.522-3.321C166.009,325.264,166.029,323.197,166.158,321.144z"/>
	<path style="fill:#8B3C67;" d="M141.449,319.677c0.099,3.506,0.23,7.012,0.278,10.518c0.015,1.073-0.117,2.165-0.324,3.221
		c-0.214,1.088-0.734,1.474-1.841,1.521c-0.611,0.026-1.238-0.036-1.841-0.146c-0.673-0.123-1.103-0.554-1.141-1.275
		c-0.046-0.872-0.089-1.744-0.098-2.617c-0.007-0.721,0.064-1.444,0.053-2.165c-0.032-2.055-0.825-2.866-2.904-3.011
		c-0.103-0.007-0.206-0.009-0.31-0.009c-2.426-0.017-4.852-0.052-7.278-0.044c-1.641,0.005-2.127,0.388-2.358,2.023
		c-0.159,1.118-0.117,2.263-0.186,3.395c-0.047,0.771-0.067,1.551-0.209,2.306c-0.203,1.076-0.584,1.415-1.634,1.543
		c-0.507,0.062-1.035,0.058-1.542-0.007c-0.99-0.126-1.368-0.47-1.524-1.452c-0.146-0.914-0.273-1.845-0.266-2.767
		c0.019-2.475,0.161-4.95,0.165-7.425c0.003-1.855-0.178-3.71-0.189-5.565c-0.007-1.18,0.113-2.365,0.234-3.542
		c0.278-2.701,2.013-4.293,4.243-5.51c1.352-0.738,2.805-1.038,4.317-1.038c3.762,0,7.529-0.068,11.284,0.103
		c2.236,0.102,3.156,1.328,3.167,3.579c0.013,2.787,0.003,5.575,0.003,8.362C141.514,319.675,141.482,319.676,141.449,319.677z
		 M130.57,312.002c-0.001,0.047-0.003,0.095-0.004,0.142c-0.926,0-1.854-0.046-2.777,0.01c-1.778,0.107-2.895,1.17-3.676,2.676
		c-0.564,1.088-0.71,2.248-0.606,3.45c0.175,2.018,1.143,3.036,3.167,3.05c2.41,0.016,4.824-0.076,7.23-0.227
		c1.723-0.108,2.501-0.904,2.599-2.653c0.069-1.222-0.121-2.457-0.152-3.687c-0.035-1.369-0.459-2.119-2.404-2.524
		C132.852,312.01,131.697,312.071,130.57,312.002z"/>
	<path style="fill:#8B3C67;" d="M207.622,327.083c-0.105-2.423-0.274-4.845-0.296-7.269c-0.021-2.32,0.143-4.641,0.168-6.962
		c0.04-3.666,0.054-7.334,0.03-11c-0.008-1.217,0.411-2.22,1.201-3.091c0.771-0.849,1.794-0.858,2.552,0.001
		c0.813,0.92,1.25,1.941,1.102,3.254c-0.125,1.109-0.039,2.263,0.11,3.377c0.186,1.389,0.873,1.963,2.264,2.078
		c0.718,0.059,1.443,0.029,2.165,0.05c2.112,0.06,4.238,0,6.334,0.217c3.732,0.388,7.152,3.995,7.217,7.71
		c0.093,5.364,0.004,10.731-0.027,16.096c-0.003,0.563-0.117,1.13-0.227,1.685c-0.265,1.345-0.811,1.717-2.453,1.72
		c-1.448,0.003-2.066-0.428-2.241-1.787c-0.13-1.011-0.089-2.046-0.097-3.07c-0.004-0.463,0.082-0.926,0.084-1.39
		c0.018-3.77-0.045-7.542,0.062-11.309c0.074-2.603-1.669-5.081-4.935-5.262c-1.699-0.094-3.41-0.079-5.11-0.003
		c-1.908,0.085-2.766,0.846-2.986,2.698c-0.156,1.318-0.111,2.662-0.134,3.994c-0.079,4.693-0.148,9.386-0.222,14.079
		c-0.014,0.909-0.342,1.634-1.279,1.896c-0.985,0.275-2.009,0.264-2.775-0.458c-0.355-0.334-0.536-0.998-0.554-1.52
		c-0.064-1.909-0.025-3.821-0.025-5.731C207.574,327.086,207.598,327.085,207.622,327.083z"/>
	<path style="fill:#8B3C67;" d="M345.975,307.456c2.789,0,5.578-0.039,8.366,0.014c1.924,0.037,2.716,0.873,2.823,2.758
		c0.061,1.069-0.434,1.798-1.493,2.033c-0.547,0.122-1.129,0.132-1.694,0.117c-3.405-0.093-6.808-0.212-10.213-0.314
		c-0.619-0.019-1.241-0.035-1.858,0.002c-1.677,0.1-2.414,0.784-2.606,2.474c-0.081,0.715-0.078,1.445-0.047,2.166
		c0.067,1.536,0.847,2.388,2.394,2.49c1.077,0.071,2.166-0.054,3.249-0.048c1.957,0.01,3.917-0.004,5.87,0.1
		c1.223,0.065,1.726,0.751,1.796,2.09c0.073,1.399-0.293,2.138-1.52,2.279c-1.524,0.175-3.081,0.098-4.623,0.072
		c-1.693-0.029-3.39-0.241-5.074-0.154c-1.388,0.072-1.956,0.83-2.069,2.237c-0.037,0.461-0.029,0.932,0.016,1.392
		c0.176,1.79,1.122,2.857,2.884,3.141c0.912,0.147,1.85,0.19,2.775,0.186c3.046-0.014,6.092-0.076,9.138-0.105
		c0.41-0.004,0.833,0.021,1.23,0.116c1.393,0.335,2.365,2.15,1.779,3.433c-0.162,0.355-0.637,0.69-1.03,0.79
		c-0.742,0.189-1.528,0.27-2.296,0.273c-3.925,0.017-7.85-0.005-11.775-0.014c-0.155,0-0.31-0.005-0.465-0.011
		c-4.093-0.166-6.721-2.454-7.358-6.503c-0.183-1.166-0.216-2.365-0.217-3.549c-0.002-4.596,0.035-9.193,0.06-13.789
		c0.013-2.437,1.003-3.552,3.435-3.617c2.838-0.075,5.68-0.018,8.521-0.018C345.975,307.482,345.975,307.469,345.975,307.456z"/>
	<path style="fill:#8B3C67;" d="M277.951,400.884c-3.172,0.025-6.324-0.648-9.02-2.281c-4.046-2.45-6.765-7.352-5.787-11.98
		c0.49-2.318,1.991-4.531,4.216-5.344c0.297-0.108,0.63-0.191,0.924-0.074c0.845,0.335,0.428,1.587,0.023,2.401
		c-1.588,3.184-0.499,7.308,2.112,9.724c2.611,2.417,6.441,3.237,9.957,2.696c2.2-0.338,4.373-1.203,5.956-2.767
		c0.493-0.487,0.935-1.059,1.093-1.733c0.354-1.511-0.843-2.995-2.229-3.692c-1.386-0.698-2.973-0.876-4.423-1.428
		c-3.785-1.44-6.312-5.795-5.39-9.738c1.384-5.923,13.183-8.975,14.295-1.488c0.049,0.328,0.056,0.687-0.129,0.962
		c-0.457,0.676-1.495,0.28-2.214-0.105c-1.291-0.691-2.766-1.143-4.216-0.944c-1.451,0.2-2.853,1.158-3.278,2.56
		c-0.692,2.283,1.354,4.524,3.525,5.513c2.171,0.989,4.667,1.343,6.55,2.808c1.664,1.295,2.654,3.413,2.579,5.52
		c-0.084,2.377-1.463,4.584-3.326,6.063c-1.863,1.479-4.169,2.302-6.495,2.799C281.13,400.684,279.538,400.871,277.951,400.884z"/>
	<path style="fill:#8B3C67;" d="M88.782,321.536c0-3.615-0.023-7.23,0.009-10.844c0.017-1.959,0.956-3.123,2.868-3.145
		c4.228-0.048,8.459,0.05,12.686,0.178c1.646,0.05,3.074,0.882,4.365,1.844c1.749,1.303,2.751,3.046,2.748,5.289
		c-0.009,5.99,0,11.98-0.029,17.97c-0.008,1.636-0.451,2.065-1.961,2.15c-1.741,0.098-2.751-0.597-2.91-2.05
		c-0.067-0.614-0.06-1.238-0.06-1.857c0-4.286,0.025-8.572,0-12.858c-0.006-0.973-0.131-1.952-0.28-2.916
		c-0.2-1.291-1.008-2.141-2.208-2.569c-0.772-0.276-1.583-0.547-2.39-0.594c-1.699-0.099-3.407-0.091-5.11-0.046
		c-1.399,0.036-2.267,0.705-2.417,2.127c-0.205,1.939-0.199,3.903-0.217,5.857c-0.022,2.421,0.046,4.843,0.033,7.265
		c-0.009,1.799-0.093,3.598-0.127,5.397c-0.017,0.884-0.195,1.661-1.164,1.961c-1.118,0.346-2.282,0.548-3.219-0.32
		c-0.356-0.329-0.515-1.006-0.538-1.534c-0.073-1.701-0.045-3.406-0.048-5.11c-0.004-2.066-0.001-4.131-0.001-6.197
		C88.801,321.536,88.791,321.536,88.782,321.536z"/>
	<path style="fill:#8B3C67;" d="M372.432,334.979c-1.704,0-3.409,0.006-5.113-0.004c-0.464-0.003-0.931-0.028-1.39-0.088
		c-1.48-0.194-1.989-0.548-2.102-1.422c-0.153-1.181,0.577-2.445,1.708-2.843c0.429-0.151,0.911-0.223,1.366-0.213
		c2.371,0.053,4.742,0.19,7.113,0.201c1.121,0.005,2.286-0.055,3.357-0.354c2.117-0.591,3.023-3.397,1.777-5.205
		c-0.547-0.793-1.421-1.034-2.293-1.13c-1.023-0.112-2.062-0.071-3.093-0.119c-1.39-0.065-2.791-0.062-4.166-0.246
		c-3.032-0.404-4.693-2.371-5.516-5.16c-0.605-2.05-0.287-4.109,0.153-6.13c0.275-1.263,1.17-2.174,2.21-2.894
		c1.603-1.109,3.381-1.825,5.337-1.867c3.304-0.072,6.61-0.043,9.915-0.056c1.405-0.006,2.352,0.634,2.823,1.973
		c0.425,1.207-0.055,2.326-1.258,2.746c-0.428,0.149-0.911,0.197-1.368,0.192c-2.53-0.026-5.059-0.102-7.588-0.121
		c-1.499-0.011-2.975,0.06-4.291,0.988c-1.116,0.787-1.463,1.821-1.291,3.093c0.168,1.247,0.886,2.118,2.066,2.463
		c0.879,0.257,1.821,0.361,2.74,0.402c1.391,0.062,2.79,0.061,4.182-0.005c3.709-0.178,7.905,4.249,7.159,8.744
		c-0.366,2.209-1.313,3.976-2.765,5.573c-0.653,0.718-1.43,1.214-2.406,1.264c-2.06,0.104-4.122,0.162-6.183,0.233
		c-0.361,0.013-0.723,0.002-1.085,0.002C372.432,334.99,372.432,334.984,372.432,334.979z"/>
	<path style="fill:#8B3C67;" d="M327.485,323.737c0,2.065,0.007,4.13-0.003,6.195c-0.004,0.877-0.003,1.757-0.076,2.631
		c-0.168,2.027-0.749,2.523-2.756,2.435c-1.412-0.061-1.962-0.487-2.128-1.925c-0.135-1.167-0.099-2.355-0.114-3.534
		c-0.013-1.028,0.002-2.056,0.015-3.083c0.036-2.936-0.025-5.878,0.146-8.806c0.179-3.065-2.067-5.531-5.302-5.562
		c-1.6-0.015-3.201-0.033-4.8,0.015c-1.566,0.048-2.307,0.569-2.668,2.08c-0.26,1.089-0.332,2.242-0.341,3.367
		c-0.032,4.181,0.016,8.363-0.011,12.544c-0.007,1.026-0.127,2.06-0.299,3.073c-0.174,1.026-1.455,1.796-2.747,1.762
		c-1.053-0.028-1.537-0.474-1.73-1.787c-0.12-0.812-0.113-1.645-0.124-2.47c-0.06-4.127-0.134-8.255-0.148-12.382
		c-0.008-2.578,0.063-5.156,0.136-7.733c0.052-1.82,1.253-3.013,3.198-3.055c2.993-0.065,5.988-0.051,8.981-0.018
		c1.131,0.012,2.265,0.132,3.389,0.27c2.823,0.347,4.808,2.007,6.359,4.247c0.687,0.992,0.979,2.151,0.976,3.374
		c-0.006,2.787-0.002,5.575-0.002,8.362C327.452,323.737,327.468,323.737,327.485,323.737z"/>
	<path style="fill:#8B3C67;" d="M400.12,335c-1.394,0-2.787,0.008-4.181-0.003c-0.722-0.006-1.447-0.014-2.165-0.081
		c-1.672-0.156-2.333-0.597-2.348-1.499c-0.022-1.392,1.097-2.925,2.426-2.969c2.264-0.075,4.54-0.031,6.8,0.118
		c1.463,0.097,2.884,0.099,4.287-0.332c1.558-0.479,2.252-1.387,2.229-2.936c-0.029-1.925-0.906-2.956-2.26-3.256
		c-1.371-0.304-2.696-0.441-4.122-0.332c-2.714,0.207-5.363-0.083-7.419-2.253c-1.164-1.229-1.63-2.751-1.894-4.33
		c-0.371-2.218,0.215-4.334,1.244-6.26c0.43-0.805,1.286-1.5,2.11-1.953c1.684-0.928,3.534-1.432,5.487-1.436
		c2.684-0.006,5.368-0.019,8.052-0.022c0.36,0,0.725,0.011,1.081,0.064c1.474,0.22,2.075,0.834,2.282,2.296
		c0.226,1.599-0.459,2.529-2.079,2.537c-2.215,0.012-4.43-0.163-6.646-0.179c-1.276-0.01-2.608-0.071-3.816,0.256
		c-2.096,0.568-3.052,3.563-1.872,5.381c0.566,0.872,1.435,1.109,2.407,1.147c1.906,0.073,3.812,0.16,5.717,0.244
		c1.783,0.079,3.26,0.894,4.634,1.946c1.171,0.897,1.926,2.076,1.901,3.558c-0.035,2.057-0.081,4.133-0.391,6.16
		c-0.336,2.204-2.724,3.926-5.427,4.06c-2.008,0.099-4.025,0.02-6.037,0.02C400.12,334.964,400.12,334.982,400.12,335z"/>
	<path style="fill:#8B3C67;" d="M255.014,298.741c0.617,0.077,1.395,0.113,2.144,0.281c1.342,0.302,1.846,0.985,1.814,2.289
		c-0.031,1.273-0.75,2.133-2.043,2.311c-0.71,0.098-1.444,0.1-2.162,0.061c-3.445-0.187-4.693,2.533-4.724,4.899
		c-0.007,0.56,0.14,1.123,0.218,1.684c0.144,1.038,0.78,1.727,1.732,1.971c0.878,0.224,1.815,0.259,2.729,0.286
		c0.768,0.022,1.542-0.15,2.31-0.125c1.284,0.042,1.831,0.533,2.046,1.679c0.206,1.098-0.243,2.138-1.29,2.53
		c-0.646,0.242-1.404,0.274-2.107,0.251c-0.767-0.025-1.525-0.255-2.293-0.338c-1.794-0.192-2.908,0.666-3.062,2.453
		c-0.11,1.276-0.092,2.565-0.089,3.847c0.008,3.095,0.043,6.19,0.058,9.285c0.002,0.307-0.033,0.621-0.096,0.922
		c-0.273,1.315-1.017,1.914-2.385,1.944c-1.565,0.034-2.351-0.444-2.567-1.856c-0.17-1.107-0.085-2.255-0.088-3.386
		c-0.005-1.489,0.024-2.977,0.021-4.466c-0.002-0.978-0.047-1.957-0.049-2.935c-0.01-3.758-0.05-7.516,0.001-11.273
		c0.03-2.159,0.19-4.317,0.337-6.472c0.148-2.165,3.04-5.118,5.694-5.456C252.388,298.972,253.622,298.879,255.014,298.741z"/>
	<path style="fill:#8B3C67;" d="M291.865,335.107c-1.435-0.134-2.877-0.221-4.301-0.428c-0.526-0.076-1.089-0.342-1.5-0.684
		c-2.732-2.279-3.48-5.352-3.389-8.74c0.042-1.544,0.103-3.088,0.111-4.632c0.017-3.397,0.013-6.795-0.001-10.192
		c-0.003-0.874-0.063-1.749-0.117-2.622c-0.121-1.973-0.011-3.908,0.794-5.756c0.359-0.823,0.861-1.421,1.839-1.366
		c0.991,0.056,1.86,0.405,2.181,1.425c0.275,0.875,0.509,1.789,0.575,2.7c0.156,2.169,1.079,3.004,3.279,2.869
		c1.022-0.063,2.067-0.164,3.071-0.025c1.792,0.248,2.638,1.761,1.952,3.421c-0.17,0.411-0.66,0.862-1.082,0.961
		c-0.837,0.196-1.727,0.188-2.597,0.208c-0.459,0.011-0.92-0.132-1.381-0.145c-2.035-0.058-2.857,0.563-3.184,2.547
		c-0.183,1.112-0.274,2.254-0.267,3.381c0.017,2.524,0.07,5.05,0.218,7.569c0.059,1.005,0.324,2.021,0.641,2.983
		c0.375,1.138,1.292,1.694,2.475,1.797c1.181,0.103,2.363,0.194,3.544,0.288c1.375,0.11,1.987,0.843,2.003,2.4
		c0.012,1.237-0.539,1.82-1.918,1.898c-0.977,0.056-1.959,0.011-2.939,0.011C291.871,335.018,291.868,335.062,291.865,335.107z"/>
	<path style="fill:#8B3C67;" d="M303.256,391.727c-1.609,0.007-3.219,0.014-4.828,0.022c-0.597,0.003-1.356-0.111-1.506-0.689
		c-0.07-0.271,0.032-0.554,0.132-0.815c0.506-1.318,1.124-2.761,2.409-3.347c0.706-0.322,1.509-0.329,2.285-0.33
		c1.762-0.002,3.523-0.004,5.285-0.007c0.407,0,0.847-0.012,1.17-0.259c0.285-0.218,0.42-0.577,0.519-0.922
		c0.646-2.264,0.271-4.799-1.004-6.779c-0.563-0.875-1.287-1.639-1.839-2.521c-0.552-0.882-0.929-1.948-0.689-2.961
		c1.119-4.727,6.258,1.443,7.211,3.056c1.746,2.955,2.455,6.556,1.734,9.931c-0.411,1.925-1.348,3.879-3.071,4.831
		c-1.344,0.742-2.953,0.768-4.489,0.774C305.47,391.717,304.363,391.722,303.256,391.727z"/>
	<path style="fill:#8B3C67;" d="M275.666,321.228c0,3.043,0.023,6.087-0.013,9.13c-0.012,1.026-0.112,2.061-0.288,3.071
		c-0.173,0.992-0.689,1.413-1.682,1.52c-0.509,0.055-1.031,0.03-1.543-0.009c-0.874-0.065-1.464-0.563-1.645-1.395
		c-0.185-0.85-0.31-1.728-0.325-2.596c-0.041-2.314-0.07-4.631,0.011-6.943c0.079-2.262,0.238-4.526,0.478-6.776
		c0.166-1.556-0.201-2.86-1.312-3.94c-0.59-0.574-1.23-1.097-1.846-1.643c-1.261-1.118-1.049-2.923,0.529-3.491
		c1.879-0.677,3.878-0.64,5.793-0.181c1.291,0.309,1.843,1.414,1.847,2.733c0.005,1.857-0.011,3.714-0.014,5.571
		c-0.003,1.651-0.001,3.301-0.001,4.952C275.657,321.228,275.662,321.228,275.666,321.228z"/>
	<path style="fill:#8B3C67;" d="M364.942,122.594c0.001-0.049,0.003-0.098,0.005-0.147c0.277-6.278,11.254-14.647,12.004-4.58
		c0.184,2.468-1.003,4.843-2.486,6.825c-1.633,2.184-4.383,4.222-6.883,3.135C365.679,126.998,364.89,124.68,364.942,122.594z"/>
	<path style="fill:#8B3C67;" d="M272.612,299.057c1.418-0.034,2.504,0.992,2.499,2.361c-0.005,1.203-0.807,1.987-2.06,2.014
		c-1.417,0.03-2.446-0.952-2.492-2.378C270.521,299.876,271.332,299.088,272.612,299.057z"/>
	<circle style="fill:#8B3C67;" cx="241.063" cy="362.888" r="2.99"/>
	<circle style="fill:#8B3C67;" cx="129.294" cy="362.888" r="2.99"/>
	<circle style="fill:#8B3C67;" cx="187.529" cy="399.703" r="2.99"/>
	<circle style="fill:#8B3C67;" cx="187.529" cy="399.703" r="2.99"/>
	<circle style="fill:#8B3C67;" cx="282.219" cy="408.738" r="2.99"/>
	<circle style="fill:#8B3C67;" cx="274.449" cy="408.738" r="2.99"/>
	<circle style="fill:#8B3C67;" cx="409.402" cy="362.377" r="2.99"/>
</g>
</svg>
