<?xml version="1.0" encoding="iso-8859-1"?>
<!-- Generator: Adobe Illustrator 26.0.1, SVG Export Plug-In . SVG Version: 6.00 Build 0)  -->
<svg version="1.1" id="GeorgeSamuel.me" xmlns="http://www.w3.org/2000/svg" xmlns:xlink="http://www.w3.org/1999/xlink" x="0px"
	 y="0px" viewBox="0 0 512 512" style="enable-background:new 0 0 512 512;" xml:space="preserve">
<g id="www.GeorgeSamuel.me">
	<rect style="fill:#111111;" width="512" height="512"/>
	<circle style="fill:#111111;" cx="256" cy="256" r="256"/>
	<path style="fill:#FFFFFF;" d="M359.367,307.482c0-81.534,0-163.068,0-244.795c6.447-0.05,12.836-0.009,19.313-0.026
		c0,92.286,0,184.441,0,276.761c-0.482,0.026-0.978,0.076-1.474,0.076c-5.344,0.006-10.687-0.022-16.031,0.027
		c-0.954,0.009-1.545-0.33-2.132-1.03c-15.323-18.28-30.664-36.546-46.001-54.813c-31.067-37.002-62.135-74.004-93.202-111.006
		c-21.244-25.302-42.49-50.603-63.735-75.904c-0.3-0.357-0.607-0.708-1.043-1.216c-0.076,0.451-0.167,0.739-0.167,1.026
		c-0.008,8.341,0.007,16.682-0.026,25.023c-0.003,0.843,0.364,1.391,0.86,1.972c12.328,14.431,24.646,28.869,36.969,43.305
		c29.239,34.253,58.479,68.505,87.718,102.758c31.947,37.425,63.883,74.859,95.877,112.244c1.433,1.674,2.087,3.282,2.056,5.495
		c-0.12,8.574-0.049,17.15-0.049,25.726c0,0.511,0,1.022,0,1.503c-1.098,0.3-17.008,0.386-19.15,0.11
		c-0.022-0.46-0.067-0.955-0.068-1.449c-0.005-6.232-0.022-12.465,0.017-18.697c0.006-0.957-0.267-1.664-0.889-2.386
		c-49.639-57.566-99.263-115.145-148.887-172.724c-24.751-28.718-49.497-57.441-74.268-86.142c-0.728-0.844-1.002-1.672-1.001-2.769
		c0.028-21.79,0.021-43.58,0.021-65.37c0-0.548,0-1.097,0-1.723c0.617-0.03,1.074-0.07,1.531-0.07
		c6.14-0.004,12.281,0.024,18.421-0.028c1.054-0.009,1.706,0.344,2.365,1.136c18.493,22.226,37.011,44.432,55.524,66.642
		c38.709,46.438,77.418,92.876,116.127,139.314c10.022,12.023,20.043,24.046,30.065,36.068c0.317,0.38,0.64,0.754,0.961,1.131
		C359.167,307.595,359.267,307.538,359.367,307.482z"/>
	<path style="fill:#FFFFFF;" d="M155.757,448.931c-6.837,0-13.431,0-20.104,0c0-90.679,0-181.287,0-272.012
		c0.417-0.027,0.82-0.084,1.221-0.075c5.624,0.116,11.246,0.268,16.871,0.341c1.048,0.014,1.706,0.395,2.367,1.175
		c24.388,28.782,48.798,57.546,73.205,86.312c31.168,36.735,62.335,73.471,93.502,110.206c9.853,11.614,19.702,23.232,29.567,34.836
		c0.509,0.599,0.805,1.174,0.803,1.995c-0.025,10.637-0.017,21.275-0.017,31.913c0,0.314,0,0.628,0,0.877
		c-0.157,0.086-0.197,0.124-0.238,0.126c-0.042,0.002-0.092-0.023-0.129-0.05c-0.074-0.055-0.143-0.118-0.211-0.181
		c-0.034-0.032-0.064-0.069-0.094-0.104c-0.031-0.035-0.06-0.072-0.09-0.108c-0.06-0.072-0.12-0.144-0.181-0.215
		c-0.121-0.143-0.242-0.286-0.362-0.43c-65.114-78.173-130.229-156.345-195.343-234.518c-0.03-0.036-0.061-0.071-0.091-0.107
		s-0.059-0.073-0.09-0.108c-0.031-0.035-0.062-0.07-0.094-0.104s-0.065-0.068-0.1-0.098c-0.036-0.03-0.073-0.065-0.115-0.078
		c-0.037-0.012-0.083,0.004-0.276,0.021C155.757,288.627,155.757,368.724,155.757,448.931z"/>
</g>
</svg>
