<?xml version="1.0" encoding="utf-8"?>
<!-- Generator: Adobe Illustrator 26.0.1, SVG Export Plug-In . SVG Version: 6.00 Build 0)  -->
<svg version="1.1" id="GeorgeSamuel.me" xmlns="http://www.w3.org/2000/svg" xmlns:xlink="http://www.w3.org/1999/xlink" x="0px"
	 y="0px" viewBox="0 0 512 512" style="enable-background:new 0 0 512 512;" xml:space="preserve">
<style type="text/css">
	.st0{fill:#3D93A5;}
	.st1{fill:#FFFFFF;}
</style>
<g id="www.GeorgeSamuel.me">
	<rect class="st0" width="512" height="512"/>
	<circle class="st0" cx="256" cy="256" r="256"/>
	<path class="st1" d="M122.7,136.4c69.9,1.7,139.8,3.3,209.7,5c11.7,0.3,23.7,0.6,34.7,4.7c11,4.1,21,12.9,23.3,24.4
		c1.9,9.4-1.4,19.1-6,27.5c-6.8,12.5-17.2,24-30.9,27.7c-1.6,0.4-3.4,0.8-4.5,2c-3.3,3.5,1,8.6,3.6,12.6c5.8,8.7,2.8,20.4-1.1,30.1
		c-4.3,10.8-9.8,21.5-18.9,28.6c-13.5,10.5-32,10.9-49.1,10.8c-18.7-0.1-37.3-0.1-56-0.2c-5.9,0-13.3,1.5-15-5.7
		c-1.6-7,1.8-14.5,6.7-19.4c6.1-5.8,14.8-8.3,23.3-8.8c8.4-0.5,16.9,0.6,25.3,1c18.1,0.8,38.3-3,49-17.6c2.6-3.6,4.4-9.1,1.1-12.1
		c-1.9-1.7-4.7-1.9-7.2-1.9c-20.8-0.4-41.7-0.9-62.5-1.3c-3.1-0.1-7.1-0.8-7.7-3.9c-0.2-1.2,0.2-2.4,0.6-3.5
		c2.1-5.7,4.3-11.3,6.8-16.8c1.6-3.6,3.5-7.4,6.6-9.8c4.3-3.3,10.2-3.6,15.6-3.5c21.1,0.4,42.9,3.5,63.1-2.8
		c4.6-1.4,9.2-3.5,12.2-7.3c3-3.8,3.8-9.6,0.7-13.3c-2.9-3.4-7.9-3.9-12.3-4.1c-49.9-2.5-100-3.7-150-3.9c-18.2-0.1-36.6,0-54.4-3.5
		c-17.9-3.5-35.5-10.9-48.2-23.9c-2.5-2.6-4.9-6.7-2.6-9.5c0.8-1,2-1.5,3.2-1.8c2.4-0.7,5-0.6,7.5-0.6
		C100.3,135.9,111.5,136.1,122.7,136.4z"/>
	<path class="st1" d="M134.6,331.9c0-11.9,0-24.6,0-36.6c-12.7,20.2-19.4,43.3-29.9,65c-0.7,2.2-2.2,4.5-4.5,6
		c-1.5,0.7-3.7,0.7-5.2,0.7c-8.2-0.7-16.4-0.7-25.4-1.5c-1.5,0-3.7,0-4.5-1.5c-0.7-1.5,0-3.7,0.7-5.2
		c23.1-52.3,45.5-105.3,68.7-158.3c1.5-3,3-6.7,5.2-9c5.2-5.2,14.2-4.5,20.9-3.7c5.2,0.7,10.5,2.2,12.7,6.7c1.5,2.2,0.7,5.2,0.7,8.2
		c-1.5,26.9-3.7,54.5-5.2,81.4c9-17.2,17.9-35.1,24.6-53c3-8.2,5.2-16.4,9.7-23.9c4.5-7.5,11.9-13.4,20.2-14.9
		c5.2-0.7,11.2,0.7,14.9,4.5c7.5,6.7,3.7,11.9,0.7,19.4c-6.7,16.4-14.2,32.1-20.9,48.5c-14.2,32.1-28.4,65-41.8,97.1
		c-0.7,1.5-1.5,3.7-3,5.2c-1.5,1.5-3.7,1.5-6,1.5c-9,0-17.2,0-26.1,0c-1.5,0-3.7,0-5.2-1.5c-0.7-1.5-1.5-3-1.5-4.5
		C134.6,352,134.6,342.3,134.6,331.9z"/>
	<path class="st1" d="M272.6,353.5c0,0.8-0.2,1.7-0.5,2.5c-1.5,4.1-3.6,7.9-5.7,11.6c-0.5,0.9-1,1.8-1.9,2.4
		c-0.8,0.6-2.1,0.8-2.9,0.2c-0.6-0.4-0.8-1.1-1-1.8c-0.5-1.6-1.1-3.1-1.6-4.7c-0.4-1.1-1.2-2.4-2.3-2c-0.5,0.2-0.8,0.7-1.1,1.2
		c-0.4,0.9-0.9,1.7-1.3,2.6c-0.5,0.9-1,1.8-1.7,2.6c-0.5,0.5-2,1.5-2.7,0.8c-0.7-0.6,0.1-2.4,0.4-3c1.4-3.5,2.8-6.9,4.2-10.4
		c0.5-1.3,1.1-2.7,2.2-3.6c1.1-0.9,2.8-1.3,3.9-0.5c0.6,0.4,0.9,1.1,1.2,1.8c0.5,1.1,0.8,2.3,1.1,3.5c0.2,1,0.5,2.2,1.5,2.4
		c0.9,0.1,1.6-0.8,2-1.7c0.8-1.5,1.5-3,2.3-4.5c0.4-0.7,0.8-1.5,1.6-1.8c1-0.3,2.1,0.6,2.3,1.6C272.5,353.1,272.6,353.3,272.6,353.5
		z"/>
	<path class="st1" d="M370.3,370.7c0.2-2.3,1.4-5.8,1.6-6.4c1.1-2.6,2.3-5.2,3.5-7.7c0.4-0.9,0.9-1.8,1.8-2.3c1.4-0.8,3.3,0,4.2,1.4
		c0.9,1.3,1,3,1,4.7c0,0.5,0,1,0.2,1.4s0.7,0.8,1.1,0.7c0.4-0.1,0.6-0.4,0.8-0.8c0.8-1.4,1.7-2.7,2.4-4.1c0.4-0.7,0.8-1.4,1.4-1.8
		c0.7-0.4,1.7-0.4,2.1,0.2c0.4,0.6,0.2,1.3-0.1,2c-1.8,4.7-3.8,9.4-6.1,13.9c-0.5,0.9-1,1.9-2,2.2c-1.6,0.5-3.1-1.1-3.5-2.6
		c-0.5-1.6-0.4-3.3-1.1-4.8c-0.2-0.3-0.4-0.7-0.8-0.8c-0.8-0.3-1.4,0.6-1.8,1.3c-0.6,1.2-1.3,2.5-1.9,3.7c-0.3,0.6-0.7,1.2-1.2,1.6
		C370.5,373.6,370.2,372.5,370.3,370.7z"/>
	<path class="st1" d="M429.1,372.9c0-2.5,1.7-6.7,2.2-7.5c1.5-2.5,3.4-4.9,4.2-7.7c0.1-0.4,0.2-0.9,0.6-1.3c0.4-0.4,1-0.5,1.5-0.5
		c1.6-0.2,3.2-0.2,4.9-0.1c1.7,0.1,3.7,0.5,4.6,2.1c0.7,1.4,0.2,3.1-0.6,4.4c-0.9,1.3-2,2.4-2.9,3.7c-1.4,2.3-1.5,5.1-2.4,7.6
		c-0.2,0.5-0.5,1.1-1.1,1.3c-0.9,0.2-1.6-0.9-1.6-1.9c0-0.9,0.3-2-0.2-2.8c-0.5-0.8-1.6-1.1-2.5-0.8c-0.9,0.3-1.6,1.1-2,1.9
		c-0.4,0.7-0.6,1.4-1,2.1c-0.4,0.7-1,1.3-1.8,1.4C429.6,375,429.1,374.2,429.1,372.9z M442.2,361c0-0.4-0.2-0.8-0.5-1.1
		c-0.6-0.6-1.6-0.7-2.4-0.3c-1.9,0.8-1.2,3.2,0.6,3.4c0.8,0.1,1.6-0.3,2.1-0.9C442.1,361.8,442.2,361.4,442.2,361z"/>
	<path class="st1" d="M365.3,352.6c1,0.1,2,0.3,3.1,0.4c0.7,0.1,1.6,0.3,1.9,0.9c0.3,0.6,0.1,1.3-0.4,1.7c-0.4,0.4-1.1,0.6-1.7,0.7
		c-1.4,0.2-2.8,0-4.2,0.4c-1.3,0.4-2.6,1.9-2,3.2c0.3,0.6,0.9,1,1.4,1.5c0.5,0.5,0.9,1.1,0.7,1.8c-0.1,0.4-0.5,0.7-0.8,0.9
		c-0.8,0.5-1.8,0.8-2.7,1.2s-1.8,0.9-2.3,1.8s-0.4,2.1,0.4,2.7c0.5,0.3,1.1,0.4,1.6,0.6c0.5,0.2,1,0.8,0.8,1.3
		c-0.1,0.4-0.5,0.6-0.9,0.7c-1.8,0.6-3.9,0.4-5.5-0.6c-2.2-1.3-1.9-3.1-1.5-5.4c1-4.6,3.7-8.6,6.5-12.2c0.5-0.6,0.9-1.2,1.6-1.6
		c0.8-0.4,1.8-0.3,2.7-0.2C364.5,352.5,364.9,352.6,365.3,352.6z"/>
	<path class="st1" d="M413.8,375.8c-0.3,0-0.5,0.1-0.8,0.1c-7.6,0.6-0.2-13,1.6-15.5c1.2-1.7,2.6-3.2,4.4-4.2
		c2.1-1.1,4.9-1.3,6.7,0.2c0.2,0.2,0.4,0.4,0.5,0.7c0.3,0.8-0.5,1.6-1.3,1.9c-1.1,0.5-2.4,0.6-3.5,1.2c-1.1,0.6-2,1.8-1.6,3
		c0.2,0.6,0.8,1,1.3,1.5c0.4,0.5,0.8,1.2,0.5,1.8c-0.2,0.3-0.6,0.5-0.9,0.7c-1.3,0.5-2.7,0.7-3.9,1.4s-2,2.4-1.2,3.5
		c0.6,0.7,1.6,0.9,2.4,1.4s1.3,1.8,0.5,2.3c-0.5,0.3-1.1,0-1.6-0.2C415.9,375.4,414.8,375.6,413.8,375.8z"/>
	<path class="st1" d="M276.4,371.2c-0.4,0.1-0.8,0.2-1.2,0.3c-2.6,0.4-4.7-2-3.7-4.5c0.4-0.9,1-1.8,1.2-2.8c0.2-0.9,0-1.8,0.1-2.7
		c0.2-1.3,1.1-2.4,2-3.4c1.4-1.7,2.8-3.3,4.3-5c0.6-0.6,1.1-1.3,1.9-1.7c0.7-0.3,1.5-0.3,2.2-0.3c1.9,0.1,3.7,0.6,5.4,1.4
		c-0.6,0.8-1.7,1.2-2.7,1.4c-1,0.2-2.1,0.3-3,0.9s-1.4,1.8-0.8,2.7c0.8,1.1,2.9,1.1,3,2.4c0.1,0.9-1,1.5-1.9,1.8
		c-0.6,0.2-1.1,0.4-1.7,0.6c-1,0.3-2.1,0.7-2.9,1.5c-0.8,0.8-1.1,2.2-0.3,3c0.9,1.1,3,0.9,3.4,2.2c0.2,0.7-0.1,1.4-0.7,1.8
		c-0.6,0.4-1.3,0.4-2,0.3c-0.5-0.1-0.9-0.3-1.4-0.3C277.1,371,276.8,371.1,276.4,371.2z"/>
	<path class="st1" d="M301.1,351.2c0.5,0,1,0,1.5,0.1c0.7,0.1,1.4,0.3,1.9,0.9c0.5,0.5,0.5,1.5-0.1,1.8c-0.3,0.2-0.8,0.2-1.2,0.2
		c-1,0-2.1,0-3,0.4c-0.9,0.4-1.8,1.2-1.8,2.2c-0.2,1.9,2,3.1,2.9,4.8c0.6,1.2,0.5,2.8-0.1,4.1c-0.6,1.3-1.7,2.3-2.9,3
		c-2,1.3-4.3,2-6.6,2c-1.1,0-2.5,0-3.6-0.4c-1.3-0.5-1.3-1.4,0.3-1.8c0.7-0.2,1.5-0.1,2.2-0.1c1,0,2,0,2.9-0.5
		c0.9-0.4,1.6-1.3,1.6-2.3c0-1.9-2.1-2.9-3.1-4.5c-1.3-2.1-0.3-4.9,1.4-6.7C295.4,352.4,298.2,351.2,301.1,351.2z"/>
	<path class="st1" d="M216,348.3c0.7,0,1.3,0,2,0.1c1,0.1,2.2,0.5,2.1,1.5c0,0.9-1.2,1.4-2.1,1.5c-1.4,0.2-2.8,0.3-4,1.1
		c-1.2,0.8-1.8,2.4-1,3.6c0.7,1,2.4,1.5,2.2,2.8c-0.1,0.4-0.3,0.7-0.6,0.9c-1.7,1.5-4.4,1-6.2,2.3c-1.2,0.8-1.8,2.3-2.7,3.4
		c-0.9,1.1-3.3,2.5-3.9,0.7c-0.3-0.9,0.2-2.7,0.3-3.7c0.1-1.2,0.3-2.5,0.5-3.7c0.1-0.6,0.2-1.3,0.5-1.9c0.7-1.1,2.1-1.6,3.1-2.5
		c1.4-1.2,1.8-3.2,3.2-4.4c0.7-0.5,1.5-0.8,2.3-1C213.1,348.6,214.5,348.3,216,348.3z"/>
	<path class="st1" d="M318.3,351.2c0.7,0,1.3,0.1,1.9,0.4c0.9,0.5,1.3,1.7,0.8,2.5c-0.5,0.7-1.4,0.8-2.3,0.8
		c-1.1,0.1-2.3,0.3-3.3,0.9s-1.7,1.7-1.6,2.8c0.2,1.7,2.1,2.5,3.1,3.9c1.6,2.2,0.6,5.5-1.4,7.3c-2.1,1.8-4.9,2.4-7.6,2.8
		c-1,0.2-2.3,0.3-3.3-0.3c-1.3-0.8-1.2-2.2,0.3-2.6c0.8-0.2,1.6,0,2.4,0.1c1.8,0.2,4-0.4,4.6-2.1c0.4-1.1,0-2.3-0.6-3.3
		c-0.6-1-1.4-1.9-1.8-2.9c-1-2.3-0.3-5.1,1.3-7c1.6-1.9,4-3,6.5-3.3C317.6,351.3,317.9,351.2,318.3,351.2z"/>
	<path class="st1" d="M339.2,373.6c-1.1-0.4-2.2-0.5-3.3-0.8c-3.9-1.1-4.2-5.1-3-8.4c1.7-4.8,5.7-8.8,10.5-10.6
		c2.3-0.9,5.1-1.2,7.2,0.2c0.3,0.2,0.5,0.4,0.6,0.7c0.2,0.8-0.9,1.1-1.7,1.2c-4.7,0.5-9,3.6-11,7.9c-0.5,1.1-0.9,2.4-0.8,3.7
		s0.7,2.5,1.8,3.1c0.7,0.4,1.5,0.5,2.2,0.8c0.7,0.3,1.5,0.8,1.7,1.6c0.2,0.9-0.7,1.9-1.6,1.8c-0.6-0.1-1.1-0.4-1.6-0.7
		C339.8,373.9,339.5,373.7,339.2,373.6z"/>
	<path class="st1" d="M246.6,349.1C246.6,349.1,246.7,349.1,246.6,349.1c2.3-0.3,4.5,0,6.6,0.7c0.4,0.1,0.9,0.4,0.8,0.8
		c0,0.2-0.2,0.4-0.4,0.5c-1.1,0.8-2.6,0.8-3.8,1.4c-2.6,1.2-3.4,4.4-4.2,7.2c-0.7,2.2-1.7,4.3-2.8,6.2c-0.4,0.7-0.9,1.5-1.7,1.9
		c-3.1,1.6-2.2-2.6-1.7-4c1.1-3.3,3.7-6.3,3.6-9.8c0-1.7-0.7-3.3-1-5c0.4,0.1,0.8-0.2,0.8-0.6C243.7,349.5,245.3,349.2,246.6,349.1z
		"/>
	<path class="st1" d="M404.9,354.1c0.8,0.1,1.6,0.2,2.4,0.3c0.9,0.1,1.9,0.3,2.6,0.8c0.7,0.6,1,1.7,0.4,2.4
		c-0.3,0.3-0.7,0.5-1.2,0.6c-2.9,1.2-4.7,4-6.1,6.8s-2.3,5.9-4.4,8.2c-0.5,0.6-1.5,1.2-2.1,0.6c-0.3-0.2-0.3-0.6-0.3-1
		c-0.2-3.3,1.6-6.3,2.6-9.3c0.5-1.4,1.1-3.3,0.7-4.8c-0.3-1.4-2-2.6-1.2-4.1c0.7-1.2,2.4-1.2,3.8-1C403.1,353.8,404,354,404.9,354.1
		z"/>
	<path class="st1" d="M223.6,366.2c0.1-0.6,0.2-1.2,0.4-1.7c1.6-4.2,3.8-8.3,6.4-12c0.4-0.5,0.8-1.1,1.4-1.4s1.4-0.2,1.8,0.3
		c0.2,0.3,0.2,0.7,0.2,1c0,0.9-0.4,1.8-0.7,2.6c-1.4,3.5-3,6.9-4.8,10.2c-0.6,1.1-1.3,2.3-2.4,2.8
		C224,369.1,223.5,367.7,223.6,366.2z"/>
</g>
</svg>
