<?xml version="1.0" encoding="iso-8859-1"?>
<!-- Generator: Adobe Illustrator 26.0.1, SVG Export Plug-In . SVG Version: 6.00 Build 0)  -->
<svg version="1.1" id="GeorgeSamuel.me" xmlns="http://www.w3.org/2000/svg" xmlns:xlink="http://www.w3.org/1999/xlink" x="0px"
	 y="0px" viewBox="0 0 512 512" style="enable-background:new 0 0 512 512;" xml:space="preserve">
<g id="www.GeorgeSamuel.me">
	<rect style="fill:#172060;" width="512" height="512"/>
	<circle style="fill:#172060;" cx="256" cy="256" r="256"/>
	<path style="fill:#FFFFFF;" d="M296.999,335.371c0.064,0.416,0.138,0.692,0.143,0.969c0.02,1.209-0.048,1.366-1.211,1.561
		c-2.548,0.428-5.133,0.585-7.654-0.035c-2.788-0.686-4.019-2.395-4.035-5.274c-0.022-3.831-0.01-7.663-0.002-11.495
		c0.001-0.422,0.069-0.844,0.111-1.321c0.362-0.068,0.638-0.164,0.914-0.165c3.541-0.011,7.081-0.02,10.622-0.003
		c1.032,0.005,1.194,0.175,1.248,0.994c0.067,1.027-0.16,1.324-1.198,1.335c-2.376,0.027-4.753,0.01-7.13,0.012
		c-0.388,0-0.776,0.01-1.164,0.012c-0.655,0.004-0.979,0.327-0.977,0.986c0.002,1.018-0.029,2.038,0.001,3.055
		c0.031,1.031,0.166,1.181,1.199,1.195c2.134,0.029,4.268,0.012,6.402,0.013c0.618,0,1.235,0,1.983,0c0,0.814,0,1.454,0,2.239
		c-0.569,0.04-1.084,0.104-1.599,0.107c-2.182,0.012-4.365-0.009-6.548,0.013c-1.287,0.013-1.408,0.158-1.447,1.418
		c-0.103,3.34,1.014,4.628,4.377,4.792c1.491,0.072,2.996-0.121,4.493-0.213C295.995,335.535,296.459,335.444,296.999,335.371z"/>
	<path style="fill:#FFFFFF;" d="M203.61,322.114c-0.549-0.083-1.004-0.186-1.463-0.214c-1.929-0.117-3.859-0.264-5.789-0.283
		c-0.647-0.006-1.346,0.239-1.937,0.537c-1.653,0.835-1.781,2.766-0.193,3.705c0.941,0.556,2.048,0.851,3.103,1.19
		c1.152,0.37,2.334,0.646,3.497,0.983c0.37,0.107,0.733,0.256,1.078,0.427c1.63,0.808,2.672,1.967,2.724,3.937
		c0.057,2.152-0.642,3.846-2.604,4.789c-0.984,0.473-2.099,0.812-3.182,0.912c-2.22,0.206-4.448,0.193-6.651-0.36
		c-1.768-0.444-1.848-0.482-1.497-2.536c0.634,0.107,1.281,0.192,1.917,0.329c2.01,0.436,4.037,0.564,6.072,0.286
		c0.659-0.09,1.342-0.295,1.922-0.613c1.794-0.985,1.931-3.245,0.138-4.218c-1.38-0.748-2.993-1.064-4.5-1.58
		c-1.097-0.376-2.231-0.677-3.276-1.167c-1.693-0.794-2.509-2.174-2.471-4.089c0.037-1.904,0.91-3.232,2.577-4.05
		c0.604-0.296,1.256-0.59,1.912-0.669c2.661-0.322,5.324-0.346,7.938,0.385C203.779,320.053,203.835,320.263,203.61,322.114z"/>
	<path style="fill:#FFFFFF;" d="M307.675,335.213c0.631,0.108,1.198,0.182,1.754,0.304c1.96,0.431,3.939,0.559,5.93,0.331
		c0.616-0.071,1.233-0.258,1.814-0.484c1.032-0.401,1.669-1.154,1.714-2.303c0.043-1.115-0.598-1.843-1.516-2.285
		c-0.823-0.396-1.712-0.665-2.586-0.947c-1.519-0.489-3.103-0.818-4.563-1.441c-2.18-0.93-2.935-2.333-2.784-4.597
		c0.132-1.99,1.262-3.395,3.418-4.038c3.013-0.899,6.04-0.623,9.055,0.066c0.516,0.118,0.733,0.437,0.729,0.931
		c-0.004,0.379-0.04,0.758-0.073,1.325c-0.534-0.058-0.987-0.125-1.441-0.152c-1.977-0.116-3.954-0.274-5.933-0.296
		c-0.644-0.007-1.347,0.248-1.928,0.56c-1.652,0.888-1.717,2.771-0.084,3.7c0.952,0.542,2.053,0.839,3.11,1.175
		c1.154,0.367,2.338,0.635,3.5,0.977c0.415,0.122,0.814,0.313,1.202,0.509c1.775,0.899,2.641,2.298,2.564,4.34
		c-0.075,1.987-0.899,3.463-2.669,4.327c-0.817,0.399-1.719,0.737-2.613,0.841c-2.616,0.305-5.232,0.23-7.802-0.442
		C307.42,337.338,307.291,336.992,307.675,335.213z"/>
	<path style="fill:#FFFFFF;" d="M229.941,319.802c0.414-0.099,0.596-0.169,0.781-0.183c1.686-0.125,1.843,0.017,1.846,1.688
		c0.004,2.96,0.004,5.92-0.002,8.88c-0.001,0.436-0.004,0.876-0.067,1.306c-0.633,4.264-3.302,6.612-7.624,6.694
		c-1.453,0.027-2.888,0.018-4.311-0.469c-2.77-0.947-4.298-2.878-4.764-5.695c-0.141-0.855-0.14-1.739-0.145-2.61
		c-0.017-2.814-0.018-5.629-0.001-8.443c0.007-1.218,0.191-1.381,1.317-1.368c1.028,0.012,1.198,0.134,1.208,1.17
		c0.025,2.62-0.015,5.241,0.023,7.86c0.015,1.013,0.086,2.041,0.28,3.033c0.474,2.425,1.879,3.708,4.31,4.064
		c0.383,0.056,0.772,0.09,1.16,0.098c3.655,0.073,5.699-1.677,5.901-5.329c0.164-2.951,0.07-5.916,0.089-8.875
		C229.944,321.047,229.941,320.471,229.941,319.802z"/>
	<path style="fill:#FFFFFF;" d="M267.168,337.89c-0.867,0-1.527,0-2.347,0c-0.049-0.628-0.128-1.188-0.129-1.748
		c-0.011-3.974-0.005-7.947-0.005-11.921c0-0.339,0.01-0.679-0.004-1.018c-0.049-1.187-0.196-1.337-1.351-1.392
		c-0.242-0.012-0.484-0.004-0.727-0.004c-1.018,0-2.035,0.003-3.053-0.001c-1.651-0.006-1.836-0.124-1.818-1.142
		c0.017-0.975,0.148-1.059,1.75-1.065c1.454-0.006,2.908-0.001,4.361-0.001c2.811,0,5.621,0,8.432,0c0.527,0,1.054,0,1.644,0
		c0.104,0.433,0.241,0.747,0.244,1.063c0.009,0.924-0.152,1.107-1.094,1.133c-1.307,0.037-2.617,0.008-3.925,0.014
		c-1.859,0.008-1.897,0.04-1.899,1.845c-0.005,4.168,0.001,8.335-0.004,12.503C267.243,336.678,267.199,337.199,267.168,337.89z"/>
	<path style="fill:#FFFFFF;" d="M247.369,337.887c-0.852,0-1.513,0-2.151,0c-0.378-1.057-0.48-16.252-0.125-18.101
		c0.283-0.057,0.601-0.167,0.921-0.176c1.28-0.036,1.437,0.102,1.443,1.372c0.014,3.107,0.004,6.214,0.004,9.321
		c0,1.99,0.006,3.981-0.003,5.971C247.457,336.749,247.408,337.223,247.369,337.887z"/>
	<path style="fill:#FFFFFF;" d="M203.652,211.226c46.683,3.302,77.881-11.272,104.752-37.005
		C288.251,209.86,245.325,222.612,203.652,211.226"/>
	<path style="fill:#FFFFFF;" d="M95.371,290.131c-16.396,0-27.668-27.327-38.485-36.322v36.322h-9.564v-49.757h3.871
		c13.663,0,26.643,28.693,38.371,37.802v-37.802h9.564v49.757H95.371z"/>
	<path style="fill:#FFFFFF;" d="M145.356,239.464c-16.169,0-26.188,10.588-26.188,25.845c0,14.917,10.019,25.847,26.188,25.847
		c16.281,0,26.188-10.93,26.188-25.847C171.544,250.167,161.637,239.464,145.356,239.464z M145.356,281.933
		c-10.59,0-16.054-6.83-16.054-16.737c0-9.905,5.578-16.851,16.054-16.851c10.588,0,16.054,6.946,16.054,16.851
		C161.41,275.216,155.944,281.933,145.356,281.933z"/>
	<polygon style="fill:#FFFFFF;" points="211.85,290.473 207.296,290.473 183.157,240.374 194.202,240.374 209.573,274.76 
		224.944,240.374 236.103,240.374 	"/>
	<path style="fill:#FFFFFF;" d="M273.904,239.464c-16.168,0-26.188,10.588-26.188,25.845c0,14.917,10.02,25.847,26.188,25.847
		c16.283,0,26.188-10.93,26.188-25.847C300.091,250.167,290.186,239.464,273.904,239.464z M273.904,281.933
		c-10.588,0-16.054-6.83-16.054-16.737c0-9.905,5.58-16.851,16.054-16.851c10.59,0,16.056,6.946,16.056,16.851
		C289.959,275.216,284.493,281.933,273.904,281.933z"/>
	<polygon style="fill:#FFFFFF;" points="338.463,249.028 338.463,290.131 328.785,290.131 328.785,249.028 310.909,249.028 
		310.909,240.374 356.453,240.374 356.453,249.028 	"/>
	<path style="fill:#FFFFFF;" d="M393.344,291.156c-13.777,0-20.836-4.782-20.836-17.876v-32.906h36.208v8.995h-26.53V260.3h24.594
		v8.995h-24.594v4.099c0,6.718,3.644,8.54,11.614,8.54c7.059,0,10.931-0.455,15.03-1.139v8.881
		C404.616,290.473,401.087,291.156,393.344,291.156L393.344,291.156z"/>
	<path style="fill:#FFFFFF;" d="M448.794,291.156c-13.663,0-19.356-5.238-19.356-18.332v-32.45h9.678v32.564
		c0,6.832,2.505,8.995,10.361,8.995c6.832,0,11.158-0.569,15.257-1.025v8.767C460.522,290.473,456.423,291.156,448.794,291.156
		L448.794,291.156z"/>
</g>
</svg>
