<?xml version="1.0" encoding="iso-8859-1"?>
<!-- Generator: Adobe Illustrator 26.0.1, SVG Export Plug-In . SVG Version: 6.00 Build 0)  -->
<svg version="1.1" id="GeorgeSamuel.me" xmlns="http://www.w3.org/2000/svg" xmlns:xlink="http://www.w3.org/1999/xlink" x="0px"
	 y="0px" viewBox="0 0 512 512" style="enable-background:new 0 0 512 512;" xml:space="preserve">
<g id="www.GeorgeSamuel.me">
	<rect style="fill:#FFFFFF;" width="512" height="512"/>
	<circle style="fill:#FFFFFF;" cx="256" cy="256" r="256"/>
	<path style="fill:#D2A95A;" d="M187.472,177.316c0.025,15.472-0.075,28.802,0.076,42.131c0.028,2.473,0.33,4.929,0.662,7.379
		c0.229,1.689,0.326,3.394,0.74,5.059c0.454,1.824,0.868,3.659,1.264,5.496c0.193,0.893,0.544,1.727,0.842,2.58
		c1.149,3.291,2.327,6.571,3.947,9.671c1.82,3.484,3.772,6.885,5.998,10.135c1.599,2.335,3.365,4.522,5.198,6.667
		c0.95,1.111,1.866,2.251,2.8,3.376c0.111,0.134,0.215,0.292,0.358,0.379c1.1,0.673,1.937,1.687,3.038,2.353
		c0.674,0.408,1.181,0.992,1.657,1.582c1.216,1.505,2.634,2.776,4.22,3.867c0.35,0.241,0.677,0.503,0.921,0.842
		c0.297,0.413,0.131,0.745-0.392,0.752c-1.056,0.013-2.088-0.175-3.034-0.654c-1.097-0.555-2.246-0.941-3.43-1.248
		c-0.573-0.149-1.114-0.366-1.62-0.703c-0.518-0.346-1.082-0.633-1.714-0.755c-0.235-0.045-0.471-0.142-0.68-0.263
		c-1.787-1.03-3.743-1.705-5.568-2.659c-1.141-0.596-2.281-1.167-3.351-1.897c-0.941-0.642-1.982-1.137-2.962-1.734
		c-2.177-1.327-4.217-2.843-6.227-4.384c-1.399-1.073-2.837-2.142-4.039-3.463c-1.03-1.132-2.258-2.059-3.253-3.236
		c-1.595-1.887-3.172-3.785-4.685-5.739c-2.231-2.883-3.935-6.077-5.488-9.353c-0.701-1.478-1.42-2.953-1.97-4.5
		c-0.116-0.327-0.236-0.672-0.439-0.947c-0.665-0.901-0.92-1.937-1.091-3.012c-0.346-2.175-1.278-4.206-1.621-6.375
		c-0.461-2.92-1.083-5.809-1.462-8.746c-0.6-4.652-0.612-9.318-0.615-13.988c-0.013-20.343-0.008-40.686-0.004-61.028
		c0.001-2.756-0.012-5.514,0.07-8.269c0.077-2.577,0.476-5.125,0.868-7.673c0.296-1.927,0.834-3.808,1.014-5.756
		c0.051-0.549,0.223-1.094,0.394-1.623c0.772-2.385,1.344-4.837,2.378-7.135c0.2-0.444,0.37-0.908,0.49-1.379
		c0.59-2.329,1.852-4.346,2.962-6.431c1.245-2.338,2.66-4.578,4.173-6.749c1.393-1.998,2.797-3.994,4.52-5.735
		c0.832-0.841,1.459-1.851,2.274-2.716c0.766-0.813,1.584-1.572,2.418-2.293c0.739-0.639,1.475-1.272,2.125-1.996
		c1.103-1.227,2.515-2.095,3.697-3.232c0.292-0.281,0.715-0.427,1.082-0.627c1.166-0.636,2.235-1.414,3.241-2.273
		c0.321-0.274,0.651-0.53,1.007-0.744c2.747-1.648,5.479-3.323,8.316-4.815c0.558-0.293,1.126-0.553,1.728-0.741
		c0.333-0.104,0.694-0.163,0.989-0.335c2.223-1.297,4.795-1.665,7.116-2.696c0.613-0.272,1.271-0.427,1.922-0.477
		c2.239-0.172,4.358-0.902,6.54-1.33c0.995-0.195,1.993-0.34,3.001-0.373c3.314-0.111,6.631-0.109,9.946-0.064
		c3.773,0.052,7.497,0.507,11.168,1.408c0.91,0.223,1.847,0.36,2.78,0.461c1.542,0.166,2.997,0.616,4.425,1.189
		c0.258,0.104,0.514,0.24,0.784,0.285c2.396,0.401,4.506,1.639,6.808,2.333c1.23,0.371,2.422,1.055,3.574,1.706
		c1.94,1.096,3.952,2.064,5.815,3.298c1.275,0.845,2.535,1.709,3.782,2.598c1.678,1.197,3.271,2.494,4.755,3.906
		c1.658,1.578,3.431,3.05,4.813,4.91c0.662,0.891,1.388,1.751,2.186,2.521c1.191,1.15,1.991,2.594,3.047,3.845
		c0.803,0.952,1.457,2.031,2.213,3.032c0.834,1.105,1.48,2.359,2.148,3.581c1.254,2.293,2.704,4.496,3.667,6.928
		c1.009,2.552,2.158,5.061,2.754,7.768c0.224,1.017,0.636,1.991,0.936,2.993c0.503,1.677,0.703,3.413,0.849,5.145
		c0.12,1.425,0.486,2.811,0.537,4.248c0.055,1.564,0.276,3.121,0.332,4.685c0.061,1.743-0.037,3.491,0.028,5.233
		c0.265,7.112,0.053,14.231,0.268,21.339c0.315,10.432,0.135,20.86,0.047,31.288c-0.03,3.519,0.059,7.046-0.155,10.562
		c-0.163,2.675-0.098,5.352-0.173,8.026c-0.077,2.753-0.437,5.472-0.896,8.189c-0.488,2.887-1.794,5.397-3.246,7.862
		c-0.919,1.56-1.837,3.127-2.971,4.543c-1.001,1.249-1.933,2.604-3.139,3.625c-1.665,1.409-3.307,2.865-5.178,4.039
		c-1.868,1.173-3.815,2.179-5.818,3.067c-2.164,0.959-4.438,1.616-6.773,2.057c-1.591,0.301-3.194,0.251-4.797,0.237
		c-0.277-0.003-0.567,0.028-0.815-0.133c-0.282-0.182-0.446-0.366-0.266-0.768c0.563-1.25,1.224-2.415,2.297-3.311
		c0.959-0.8,1.535-1.874,2.065-2.978c0.15-0.312,0.308-0.645,0.546-0.885c1.271-1.278,1.862-2.914,2.512-4.535
		c0.896-2.236,1.376-4.606,2.257-6.846c0.138-0.352,0.181-0.742,0.262-1.115c0.648-2.992,1.176-6.006,1.56-9.041
		c0.166-1.31,0.275-2.632,0.266-3.962c-0.024-3.733,0.055-7.469-0.026-11.2c-0.329-15.105-0.136-30.212-0.103-45.317
		c0.011-5.194,0.055-10.393,0.127-15.589c0.046-3.29-0.367-6.531-0.951-9.758c-0.229-1.267-0.466-2.534-0.641-3.808
		c-0.201-1.46-0.679-2.842-1.086-4.246c-0.7-2.416-1.544-4.781-2.721-7.002c-0.945-1.782-2.023-3.491-3.218-5.128
		c-1.836-2.514-3.948-4.766-6.106-7.003c-1.833-1.901-3.912-3.442-6.049-4.934c-2.261-1.578-4.719-2.775-7.254-3.871
		c-1.517-0.656-3.048-1.131-4.634-1.51c-0.336-0.08-0.665-0.214-0.978-0.365c-1.509-0.727-3.144-0.873-4.772-1.044
		c-1.25-0.132-2.429-0.619-3.684-0.725c-0.068-0.006-0.135-0.048-0.203-0.05c-3.104-0.095-6.21-0.129-9.313,0.009
		c-2.609,0.117-5.164,0.715-7.757,0.994c-1.058,0.114-1.978,0.658-2.969,0.983c-0.794,0.26-1.56,0.592-2.395,0.73
		c-0.373,0.062-0.746,0.199-1.087,0.368c-2.215,1.102-4.551,1.975-6.626,3.342c-1.829,1.204-3.647,2.423-5.325,3.851
		c-1.115,0.948-2.138,1.992-3.255,2.939c-1.027,0.87-1.829,2-2.765,2.982c-1.299,1.362-2.295,2.965-3.55,4.369
		c-0.823,0.921-1.32,2.125-2.017,3.166c-1.285,1.919-2.307,3.986-3.198,6.095c-1.097,2.596-1.971,5.281-2.384,8.099
		c-0.309,2.109-0.428,4.22-0.481,6.349C187.289,150.154,187.582,164.808,187.472,177.316z"/>
	<path style="fill:#D2A95A;" d="M202.377,172.857c0-10.573-0.033-21.147,0.025-31.72c0.013-2.43,0.015-4.881,0.517-7.289
		c0.512-2.454,0.942-4.945,1.776-7.299c0.714-2.016,1.589-4.001,2.753-5.835c1.703-2.683,3.482-5.291,5.896-7.41
		c1.519-1.333,3.099-2.582,4.727-3.777c1.1-0.807,2.267-1.471,3.49-2.074c1.34-0.661,2.693-1.308,4.001-2.022
		c1.387-0.757,2.895-0.972,4.377-1.338c0.955-0.236,1.931-0.231,2.908-0.253c1.007-0.022,2.001-0.278,3.017-0.192
		c0.173,0.015,0.35-0.009,0.523,0.005c0.66,0.054,0.812,0.314,0.486,0.861c-0.16,0.268-0.351,0.519-0.549,0.762
		c-1.317,1.621-2.552,3.302-3.698,5.048c-0.076,0.116-0.147,0.24-0.241,0.341c-1.775,1.901-2.66,4.307-3.775,6.588
		c-0.875,1.79-1.606,3.629-2.263,5.508c-0.67,1.916-1.12,3.866-1.454,5.867c-0.4,2.404-0.714,4.817-0.96,7.237
		c-0.23,2.253-0.319,4.517-0.259,6.786c0.479,18.279,0.149,36.561,0.193,54.841c0.009,3.657-0.249,7.316-0.2,10.978
		c0.027,2.023,0.348,4.019,0.508,6.029c0.21,2.642,0.916,5.21,1.16,7.846c0.076,0.816,0.436,1.551,0.726,2.28
		c0.658,1.651,0.987,3.411,1.777,5.015c1.814,3.686,3.583,7.377,6.166,10.637c2.045,2.58,4.305,4.933,6.672,7.2
		c0.755,0.723,1.612,1.333,2.437,1.965c1.156,0.885,2.358,1.721,3.573,2.536c2.013,1.351,4.25,2.248,6.321,3.457
		c1.351,0.789,2.801,1.18,4.264,1.6c0.569,0.163,1.133,0.337,1.678,0.582c1.185,0.535,2.455,0.825,3.734,0.941
		c3.224,0.292,6.431,0.736,9.69,0.681c2.481-0.042,4.924-0.428,7.392-0.533c1.651-0.07,3.258-0.389,4.8-0.945
		c1.215-0.438,2.485-0.659,3.697-1.055c2.048-0.67,4.072-1.452,6.021-2.368c1.019-0.479,2.011-1.079,2.994-1.665
		c1.586-0.944,3.097-1.995,4.635-3.005c0.777-0.51,1.439-1.192,2.135-1.802c2.117-1.855,4.249-3.709,5.913-6.026
		c0.502-0.7,1.164-1.295,1.656-2.014c1.91-2.794,3.539-5.738,4.988-8.803c0.926-1.958,1.608-4.003,2.478-5.977
		c0.478-1.084,0.604-2.283,0.845-3.443c0.63-3.038,1.018-6.099,1.223-9.198c0.109-1.639,0.257-3.282,0.114-4.905
		c-0.25-2.823-0.022-5.652-0.216-8.465c-0.273-3.94-0.189-7.881-0.16-11.82c0.035-4.78-0.393-9.551-0.22-14.329
		c0.307-8.474,0.052-16.955,0.274-25.427c0.108-4.115,0.128-8.227,0.11-12.339c-0.012-2.818-0.257-5.634-0.398-8.451
		c-0.002-0.035,0.003-0.072-0.008-0.104c-0.686-1.998-0.601-4.126-1.041-6.164c-0.337-1.565-0.651-3.136-1.099-4.676
		c-0.135-0.465-0.197-0.955-0.257-1.437c-0.258-2.064-1.036-3.975-1.774-5.89c-0.864-2.242-1.593-4.542-2.664-6.698
		c-0.806-1.622-1.445-3.32-2.392-4.88c-2.114-3.481-4.278-6.919-6.752-10.166c-1.992-2.615-4.142-5.06-6.526-7.324
		c-1.055-1.002-2.085-2.041-3.101-3.088c-1.337-1.377-2.895-2.498-4.343-3.747c-0.29-0.25-0.562-0.522-0.83-0.796
		c-0.121-0.124-0.209-0.279-0.139-0.471c0.074-0.202,0.265-0.261,0.424-0.224c1.304,0.303,2.734,0.07,3.907,0.952
		c0.416,0.313,0.944,0.384,1.454,0.516c1.168,0.303,2.385,0.5,3.429,1.194c0.403,0.268,0.862,0.461,1.312,0.646
		c0.96,0.395,2.012,0.595,2.783,1.381c0.111,0.113,0.314,0.144,0.479,0.195c1.783,0.555,3.323,1.602,4.895,2.543
		c1.998,1.196,3.961,2.466,5.804,3.906c0.656,0.512,1.418,0.892,2.059,1.421c1.797,1.484,3.548,3.025,5.332,4.525
		c1.982,1.666,3.57,3.695,5.262,5.63c1.606,1.837,3.146,3.722,4.456,5.782c2.134,3.355,4.216,6.757,5.669,10.464
		c1.205,3.073,2.239,6.214,2.972,9.454c0.368,1.627,0.877,3.226,1.068,4.889c0.27,2.35,0.613,4.69,0.792,7.055
		c0.179,2.355,0.128,4.73,0.544,7.068c0.067,0.374,0.04,0.766,0.04,1.149c-0.004,18.808-0.01,37.617-0.016,56.425
		c0,1.256-0.014,2.513-0.004,3.769c0.013,1.535-0.136,3.056-0.345,4.575c-0.042,0.309-0.031,0.627-0.031,0.94
		c0,2.338,0.015,4.676,0.004,7.014c-0.013,2.827-0.378,5.621-0.785,8.413c-0.155,1.068-0.216,2.151-0.405,3.212
		c-0.612,3.439-1.695,6.746-2.767,10.064c-0.786,2.433-1.827,4.745-2.878,7.057c-0.617,1.358-1.387,2.65-2.127,3.95
		c-1.085,1.906-2.209,3.793-3.459,5.596c-0.75,1.083-1.557,2.134-2.415,3.134c-1.495,1.743-2.876,3.583-4.508,5.209
		c-1.703,1.698-3.521,3.269-5.289,4.895c-1.803,1.658-3.835,3.004-5.823,4.387c-1.35,0.939-2.622,2.095-4.262,2.6
		c-0.225,0.069-0.42,0.245-0.622,0.381c-0.347,0.233-0.666,0.522-1.038,0.702c-1.69,0.814-3.394,1.6-5.096,2.389
		c-0.22,0.102-0.486,0.123-0.686,0.251c-1.577,1.007-3.407,1.393-5.115,2.072c-1.124,0.447-2.268,0.863-3.476,1.101
		c-1.395,0.274-2.784,0.637-4.13,1.098c-1.574,0.539-3.197,0.681-4.823,0.848c-1.075,0.111-2.099,0.491-3.186,0.545
		c-0.342,0.017-0.688,0.092-1.037,0.098c-3.176,0.056-6.352,0.088-9.528,0.015c-1.326-0.03-2.605-0.426-3.934-0.5
		c-1.352-0.075-2.697-0.307-4.042-0.487c-0.517-0.069-1.073-0.086-1.532-0.297c-1.412-0.649-2.919-0.939-4.419-1.213
		c-1.729-0.316-3.321-1.011-4.978-1.525c-1.972-0.611-3.75-1.665-5.715-2.267c-0.607-0.186-1.085-0.628-1.649-0.899
		c-1.441-0.695-2.876-1.395-4.25-2.225c-1.636-0.988-3.24-2.022-4.85-3.05c-1.265-0.809-2.365-1.82-3.633-2.622
		c-1.137-0.719-2.168-1.639-3.14-2.58c-2.302-2.228-4.629-4.443-6.779-6.814c-1.747-1.927-3.376-3.971-4.792-6.18
		c-1.672-2.609-3.361-5.184-4.707-8.002c-1.429-2.993-2.694-6.039-3.83-9.146c-0.31-0.848-0.508-1.738-0.737-2.614
		c-0.404-1.549-0.892-3.084-1.166-4.656c-0.507-2.912-0.935-5.839-1.323-8.772c-0.362-2.735-0.534-5.468-0.598-8.223
		c-0.252-10.99-0.049-21.98-0.119-32.97C202.373,174.602,202.378,173.729,202.377,172.857z"/>
	<path style="fill:#622733;" d="M342.725,350.234c-5.864,0-11.727-0.001-17.591,0.002c-0.663,0-1.327,0.057-1.988,0.025
		c-0.853-0.04-1.225-0.47-1.053-1.309c0.429-2.095,1.75-4.099,4.554-4.019c3.732,0.106,7.468,0.038,11.203,0.041
		c0.913,0.001,1.057-0.15,0.891-1.039c-0.384-2.057-0.797-4.109-1.193-6.163c-0.264-1.37-0.539-2.736-0.996-4.06
		c-0.716-2.077-2.098-3.095-4.305-3.156c-0.593-0.016-1.185-0.049-1.778-0.077c-0.545-0.026-0.904-0.298-1.111-0.806
		c-0.531-1.301-0.358-2.604-0.001-3.897c0.158-0.57,0.649-0.674,1.174-0.654c1.711,0.065,3.417,0.179,5.074,0.654
		c0.768,0.221,1.549,0.391,2.266,0.789c2.111,1.17,3.317,2.996,4.036,5.244c0.895,2.8,1.425,5.675,1.911,8.563
		c0.185,1.1,0.422,2.191,0.611,3.29c0.123,0.715,0.54,1.123,1.229,1.24c0.41,0.07,0.832,0.09,1.249,0.09
		c4.258-0.002,8.516-0.022,12.774-0.014c1.237,0.002,2.429-0.263,3.615-0.536c1.003-0.231,1.702-0.927,2.192-1.818
		c0.55-1.001,0.773-2.085,0.774-3.222c0.003-3.071,0.011-6.141,0.016-9.212c0.002-1.326-0.018-2.652,0.011-3.978
		c0.031-1.431,0.276-1.721,1.668-2.124c0.992-0.287,2.01-0.226,3.015-0.146c0.657,0.052,0.97,0.434,1.055,1.106
		c0.039,0.309,0.015,0.626,0.014,0.94c-0.004,1.989-0.091,3.982,0.011,5.965c0.079,1.529,0.348,3.053,0.215,4.59
		c-0.148,1.701-0.334,3.399-0.533,5.094c-0.205,1.75,0.154,2.351,1.888,2.747c1.325,0.302,2.67,0.566,4.036,0.571
		c4.816,0.018,9.632,0.059,14.448-0.04c1.02-0.021,2.012-0.204,3.008-0.375c1.121-0.193,1.685-1.052,2.196-1.932
		c0.186-0.32-0.044-0.536-0.39-0.541c-0.203-0.002-0.416,0.047-0.611,0.114c-1.749,0.604-3.553,0.754-5.367,0.509
		c-4.057-0.547-7.1-3.129-8.172-7.081c-0.954-3.517-0.657-6.918,0.988-10.168c0.849-1.677,2.235-2.869,3.925-3.629
		c3.395-1.525,6.869-1.565,10.235,0.002c3.003,1.398,4.937,3.77,5.236,7.164c0.273,3.088,0.59,6.186,0.411,9.293
		c-0.122,2.121-0.29,4.244-0.773,6.325c-0.249,1.076-0.78,2.025-1.436,2.884c-0.993,1.302-2.35,2.076-3.97,2.305
		c-1.346,0.19-2.703,0.303-4.059,0.416c-2.607,0.217-5.216,0.327-7.834,0.384c-4.879,0.106-9.673-0.493-14.463-1.309
		c-2.108-0.359-4.229-0.409-6.295,0.378c-1.248,0.476-2.551,0.63-3.901,0.622c-6.038-0.035-12.076-0.015-18.113-0.015
		C342.725,350.254,342.725,350.244,342.725,350.234z M397.697,331.569c0-0.232,0.047-0.656-0.008-1.067
		c-0.32-2.378-1.227-4.182-3.74-4.653c-2.534-0.475-4.877,0.576-5.829,3.2c-0.611,1.682-0.634,3.322-0.104,5.009
		c0.243,0.774,0.544,1.49,1.118,2.091c1.442,1.511,3.236,1.629,5.125,1.312c1.336-0.224,2.237-1.048,2.823-2.249
		C397.618,334.116,397.753,332.952,397.697,331.569z"/>
	<path style="fill:#622733;" d="M171.02,344.974c5.967,0,11.935-0.001,17.902,0.001c1.26,0,2.505-0.119,3.75-0.318
		c2.274-0.363,3.586-1.713,4.112-3.898c0.304-1.263,0.368-2.559,0.363-3.846c-0.013-3.348,0.153-6.698-0.109-10.043
		c-0.035-0.448,0.013-0.907,0.07-1.356c0.122-0.956,0.402-1.306,1.332-1.492c0.99-0.198,1.994-0.344,2.999-0.445
		c0.797-0.081,0.975,0.116,1.057,0.921c0.011,0.104,0.018,0.209,0.017,0.313c-0.055,5.683,0.339,11.37-0.143,17.051
		c-0.133,1.572,0.23,2.093,1.741,2.485c1.284,0.333,2.598,0.6,3.924,0.612c2.861,0.024,5.723,0.086,8.583-0.045
		c0.803-0.037,1.595-0.154,2.39-0.275c2.788-0.423,4.062-2.196,4.414-5.049c0.064-0.516,0.029-1.046,0.029-1.569
		c-0.002-6.664-0.008-13.327-0.008-19.991c0-1.291,0.017-2.581,0.037-3.872c0.013-0.881,0.09-0.973,0.942-1.26
		c0.994-0.336,2.001-0.62,3.056-0.676c1.102-0.058,1.316,0.112,1.586,1.207c0.118,0.479,0.141,0.965,0.141,1.454
		c-0.003,7.431,0.022,14.863-0.029,22.294c-0.013,1.842-0.189,3.693-0.436,5.52c-0.322,2.38-1.417,4.369-3.458,5.737
		c-1.27,0.851-2.695,1.32-4.212,1.453c-3.82,0.335-7.633,0.824-11.482,0.659c-2.765-0.119-5.481-0.523-8.101-1.456
		c-0.23-0.082-0.477-0.121-0.697-0.222c-1.214-0.56-2.377-0.356-3.527,0.196c-1.897,0.91-3.913,1.188-5.996,1.178
		c-2.966-0.014-5.932,0.019-8.898,0.02c-10.434,0.002-20.868-0.001-31.303-0.003c-1.224,0-2.438-0.079-3.633-0.385
		c-1.826-0.468-3.057-1.587-3.768-3.317c-0.403-0.981-0.596-1.994-0.638-3.053c-0.385-9.73-0.117-19.465-0.178-29.197
		c-0.007-1.079,0.058-1.11,1.095-1.468c0.996-0.344,2.013-0.579,3.066-0.621c0.844-0.034,1.048,0.124,1.188,0.968
		c0.08,0.479,0.11,0.971,0.111,1.457c0.005,8.303,0.001,16.607,0.003,24.91c0,0.802-0.006,1.606,0.046,2.406
		c0.141,2.156,1.025,3.002,3.19,3.011c4.188,0.017,8.375,0.006,12.563,0.006c2.303,0,4.606,0,6.91,0
		C171.02,344.975,171.02,344.975,171.02,344.974z"/>
	<path style="fill:#622733;" d="M221.758,396.072c0,2.093-0.002,4.186,0.001,6.279c0.001,0.488,0.004,0.977,0.03,1.465
		c0.062,1.16,0.228,1.318,1.373,1.355c1.791,0.058,2.132,0.442,2,2.227c-0.041,0.556-0.054,1.115-0.085,1.672
		c-0.049,0.878-0.232,1.076-1.119,1.186c-0.276,0.034-0.558,0.054-0.836,0.042c-2.475-0.114-4.95-0.034-7.426-0.009
		c-0.487,0.005-0.975-0.052-1.461-0.091c-0.495-0.039-0.773-0.336-0.798-0.81c-0.052-0.974-0.105-1.952-0.081-2.926
		c0.017-0.692,0.412-1.054,1.106-1.187c0.136-0.026,0.277-0.029,0.416-0.041c1.521-0.138,1.577-0.195,1.576-1.686
		c-0.007-6.803-0.009-13.605-0.027-20.408c-0.004-1.643-0.028-1.643-1.626-1.797c-1.234-0.119-1.609-0.473-1.648-1.702
		c-0.074-2.317,0.126-2.584,2.359-2.951c1.664-0.274,3.279-0.125,4.863,0.336c1.373,0.4,2.492,1.249,3.368,2.374
		c0.513,0.658,1.001,1.351,1.393,2.086c2.07,3.883,4.459,7.568,6.863,11.247c0.991,1.516,2.103,2.956,2.952,4.564
		c0.016,0.031,0.031,0.063,0.051,0.091c0.162,0.227,0.323,0.517,0.645,0.436c0.351-0.089,0.304-0.434,0.281-0.701
		c-0.086-0.976-0.033-1.952-0.033-2.927c0-3.489-0.001-6.977-0.006-10.466c0-0.384-0.008-0.768-0.037-1.15
		c-0.082-1.068-0.202-1.178-1.254-1.212c-1.525-0.049-1.795-0.339-1.785-1.9c0.002-0.383-0.022-0.767-0.018-1.151
		c0.014-1.094,0.346-1.449,1.422-1.505c0.453-0.023,0.907-0.019,1.361-0.02c2.477-0.007,4.955-0.014,7.433-0.015
		c1.529-0.001,1.645,0.133,1.612,1.699c-0.011,0.557,0.028,1.115,0.023,1.673c-0.009,0.894-0.231,1.124-1.091,1.174
		c-1.723,0.098-1.756,0.098-1.774,1.791c-0.03,2.895-0.017,5.791-0.019,8.686c-0.003,5.512,0.002,11.024-0.006,16.536
		c-0.002,1.626-0.142,1.777-1.756,1.931c-0.83,0.079-1.657,0.215-2.501,0.059c-0.768-0.142-1.345-0.496-1.764-1.17
		c-3.515-5.656-7.041-11.305-10.567-16.953c-0.443-0.71-0.905-1.408-1.366-2.105c-0.442-0.667-0.944-1.296-1.2-2.075
		c-0.082-0.251-0.187-0.604-0.542-0.511c-0.339,0.089-0.283,0.453-0.262,0.716c0.096,1.186-0.009,2.371-0.005,3.556
		c0.005,1.43,0.001,2.861,0.001,4.291C221.783,396.072,221.771,396.072,221.758,396.072z"/>
	<path style="fill:#622733;" d="M314.668,344.78c0,3,0,6-0.001,9.001c0,0.384,0.009,0.768-0.015,1.151
		c-0.049,0.791-0.223,1.035-0.971,1.099c-2.019,0.173-3.994,0.654-6.01,0.834c-1.147,0.103-2.293,0.193-3.433,0.372
		c-3.877,0.609-7.743,0.463-11.526-0.526c-5.126-1.34-8.23-4.863-8.584-10.527c-0.082-1.321-0.027-2.651-0.03-3.976
		c-0.003-1.639,0.038-3.281-0.155-4.913c-0.319-2.7,0.637-4.915,2.524-6.798c0.616-0.615,1.185-1.277,1.784-1.908
		c0.212-0.224,0.431-0.527,0.785-0.411c0.373,0.122,0.319,0.5,0.327,0.805c0.015,0.628,0.013,1.256,0.013,1.884
		c-0.002,3.977-0.007,7.954-0.009,11.931c-0.001,1.367,0.209,2.696,0.545,4.028c0.629,2.494,2.29,3.898,4.604,4.71
		c2.708,0.95,5.499,0.824,8.287,0.609c1.494-0.115,2.979-0.351,4.468-0.529c1.315-0.157,1.895-0.725,1.938-2.015
		c0.039-1.185,0.027-2.372,0.004-3.558c-0.014-0.74-0.159-0.823-0.886-0.748c-1.593,0.164-3.149,0.672-4.772,0.549
		c-1.707-0.129-3.414-0.286-4.96-1.121c-2.608-1.409-4.307-3.557-4.87-6.461c-0.561-2.887-0.46-5.796,0.671-8.547
		c1.218-2.964,3.385-4.859,6.635-5.436c1.914-0.34,3.793-0.325,5.717-0.053c3.513,0.498,6.739,3.674,7.359,6.992
		c0.316,1.69,0.532,3.375,0.544,5.086c0.019,2.826,0.005,5.652,0.005,8.477C314.661,344.78,314.665,344.78,314.668,344.78z
		 M299.004,334.838c0,0.368-0.044,0.724,0.007,1.065c0.282,1.895,0.9,3.582,2.782,4.508c0.922,0.454,1.888,0.485,2.864,0.391
		c1.779-0.171,3.017-1.134,3.848-2.693c0.705-1.323,0.852-2.736,0.637-4.17c-0.31-2.068-1.234-3.651-3.278-4.629
		c-2.288-1.094-5.584,0.421-6.284,2.386C299.212,332.733,298.942,333.757,299.004,334.838z"/>
	<path style="fill:#622733;" d="M274.905,390.225c1.78,0,3.56,0.003,5.34-0.001c1.069-0.003,1.262-0.163,1.248-1.184
		c-0.03-2.198-0.05-4.395,0.027-6.593c0.029-0.824-0.225-1.049-1.042-1.094c-0.069-0.004-0.14,0.007-0.209,0.005
		c-1.64-0.039-1.744-0.148-1.744-1.835c0-0.558-0.02-1.118,0.014-1.674c0.043-0.713,0.253-0.926,0.94-1.023
		c0.241-0.034,0.488-0.032,0.732-0.033c2.827-0.01,5.654-0.018,8.481-0.024c0.244,0,0.49,0.007,0.73,0.042
		c0.465,0.068,0.795,0.322,0.807,0.813c0.023,0.975,0.021,1.952-0.001,2.928c-0.01,0.448-0.308,0.686-0.736,0.749
		c-0.206,0.031-0.417,0.029-0.626,0.035c-1.285,0.04-1.501,0.219-1.691,1.479c-0.046,0.307-0.078,0.634-0.025,0.936
		c0.214,1.213,0.166,2.435,0.166,3.655c0,3.803-0.006,7.607-0.015,11.41c-0.003,1.186,0.018,2.371-0.204,3.547
		c-0.07,0.37-0.048,0.768-0.007,1.146c0.137,1.279,0.637,1.75,1.943,1.879c0.939,0.093,1.178,0.291,1.221,1.211
		c0.042,0.905,0.023,1.814-0.015,2.719c-0.027,0.647-0.239,0.839-0.896,0.937c-0.24,0.036-0.487,0.038-0.731,0.038
		c-2.792,0-5.584-0.002-8.376-0.006c-0.244,0-0.49-0.001-0.732-0.03c-0.736-0.088-1.081-0.398-1.095-1.145
		c-0.016-0.87,0.033-1.739-0.046-2.611c-0.052-0.577,0.335-0.898,0.849-1.036c0.3-0.081,0.621-0.077,0.932-0.12
		c1.037-0.144,1.402-0.532,1.413-1.589c0.007-0.697-0.072-1.394-0.078-2.091c-0.016-1.675-0.014-3.35-0.016-5.025
		c-0.001-1.185-0.09-1.254-1.223-1.256c-3.173-0.006-6.353,0.186-9.511-0.312c-0.238-0.038-0.489-0.028-0.731-0.005
		c-1.369,0.126-1.924,0.623-2.156,1.985c-0.165,0.969-0.148,1.954-0.011,2.92c0.157,1.11,0.262,2.215,0.202,3.336
		c-0.017,0.31,0.013,0.63,0.074,0.935c0.144,0.714,0.489,0.995,1.311,1.13c1.511,0.248,1.631,0.414,1.508,1.977
		c-0.049,0.626-0.055,1.255-0.087,1.882c-0.044,0.869-0.177,1.033-1.07,1.047c-1.745,0.027-3.49,0.013-5.235,0.012
		c-1.361-0.001-2.723,0.009-4.083-0.018c-0.96-0.019-1.144-0.214-1.225-1.171c-0.053-0.625-0.094-1.252-0.128-1.878
		c-0.026-0.459,0.045-0.903,0.252-1.321c0.214-0.433,0.504-0.745,1.034-0.749c0.243-0.002,0.487-0.038,0.728-0.073
		c0.703-0.1,0.806-0.199,0.874-0.925c0.036-0.381,0.032-0.767,0.032-1.15c0.002-4.571,0.022-9.142-0.008-13.713
		c-0.011-1.678,0.179-3.344,0.186-5.019c0.003-0.662-0.017-1.327-0.084-1.985c-0.078-0.764-0.237-0.885-0.985-0.926
		c-0.278-0.015-0.56,0-0.835-0.035c-0.903-0.113-1.252-0.555-1.203-1.492c0.031-0.591,0.062-1.183,0.095-1.774
		c0.053-0.946,0.311-1.236,1.29-1.259c1.64-0.038,3.28-0.027,4.921-0.029c1.361-0.002,2.723-0.019,4.083,0.019
		c1.214,0.034,1.436,0.305,1.434,1.539c-0.001,0.628,0.016,1.256,0.005,1.883c-0.014,0.772-0.214,0.996-0.953,1.113
		c-0.137,0.022-0.278,0.023-0.417,0.033c-1.419,0.094-1.488,0.154-1.496,1.526c-0.012,1.989-0.016,3.978-0.008,5.966
		c0.005,1.189,0.233,1.391,1.419,1.387c1.815-0.006,3.629-0.002,5.444-0.002C274.905,390.235,274.905,390.23,274.905,390.225z"/>
	<path style="fill:#622733;" d="M323.526,392.553c0.029,3.385-0.279,6.365-1.022,9.286c-0.726,2.851-2.008,5.355-4.667,6.911
		c-1.059,0.619-2.181,1.121-3.387,1.346c-2.854,0.531-5.723,0.89-8.625,0.351c-0.376-0.07-0.761-0.105-1.143-0.124
		c-1.983-0.094-3.734-0.831-5.319-1.97c-1.49-1.071-2.441-2.587-3.115-4.246c-1.239-3.05-1.526-6.294-1.618-9.538
		c-0.08-2.824,0.138-5.645,0.724-8.422c0.473-2.243,1.241-4.359,2.76-6.126c1.356-1.579,3.072-2.591,5.082-3.119
		c2.73-0.717,5.517-0.86,8.307-0.663c2.113,0.15,4.239,0.384,6.184,1.376c2.535,1.294,3.997,3.457,4.724,6.098
		C323.236,386.715,323.593,389.801,323.526,392.553z M317.615,392.681c0-0.853,0.05-1.936-0.015-3.012
		c-0.055-0.901-0.234-1.795-0.375-2.69c-0.518-3.308-2.508-5.361-5.776-6.073c-1.769-0.385-3.472-0.017-5.176,0.317
		c-2.485,0.487-4.103,2.021-4.824,4.416c-0.939,3.12-1.439,6.303-1.021,9.577c0.022,0.172,0.013,0.348,0.021,0.522
		c0.094,2.064,0.41,4.09,1.076,6.051c0.767,2.258,2.379,3.629,4.696,3.939c1.752,0.234,3.55,0.176,5.325,0.027
		c1.221-0.103,2.274-0.602,3.188-1.42c1.52-1.358,2.085-3.189,2.443-5.082C317.571,397.163,317.795,395.045,317.615,392.681z"/>
	<path style="fill:#622733;" d="M105.891,393.745c-0.033-1.771,0.015-3.233,0.134-4.695c0.199-2.46,0.762-4.837,1.884-7.026
		c1.407-2.744,3.644-4.499,6.692-5.222c2.681-0.635,5.39-0.677,8.112-0.561c1.679,0.072,3.336,0.401,4.938,0.857
		c2.101,0.598,3.614,2.051,4.732,3.899c1.299,2.148,1.593,4.571,1.918,6.998c0.354,2.642,0.327,5.292,0.215,7.933
		c-0.108,2.543-0.534,5.062-1.379,7.483c-1.438,4.118-4.481,6.251-8.675,6.882c-1.272,0.191-2.547,0.39-3.844,0.432
		c-2.108,0.067-4.207-0.17-6.23-0.62c-3.901-0.867-6.381-3.384-7.478-7.243C106.033,399.778,105.781,396.628,105.891,393.745z
		 M128.807,393.084c0.09-2.702-0.176-5.186-0.844-7.628c-0.447-1.634-1.403-2.856-2.857-3.699c-2.759-1.6-5.593-1.651-8.393-0.206
		c-2.434,1.256-4.107,3.189-4.668,5.961c-0.892,4.404-0.88,8.807,0.222,13.158c0.572,2.257,1.883,4.022,4.221,4.83
		c0.807,0.279,1.638,0.337,2.468,0.405c1.537,0.126,3.092,0.073,4.575-0.307c2.424-0.622,3.777-2.376,4.417-4.718
		C128.66,398.27,128.984,395.614,128.807,393.084z"/>
	<path style="fill:#622733;" d="M205.56,410.271c-1.396,0-2.792,0.02-4.187-0.006c-1.444-0.027-1.499-0.089-1.543-1.575
		c-0.024-0.801-0.034-1.607,0.025-2.405c0.06-0.809,0.302-1.016,1.117-1.104c0.31-0.034,0.627,0,0.94-0.014
		c0.596-0.028,0.811-0.214,0.692-0.768c-0.293-1.371-0.757-2.686-1.601-3.83c-0.346-0.469-0.826-0.736-1.417-0.798
		c-2.577-0.271-5.158-0.24-7.735-0.047c-1.176,0.088-1.978,0.798-2.448,1.873c-0.251,0.575-0.493,1.154-0.744,1.728
		c-0.142,0.323-0.236,0.654-0.24,1.01c-0.006,0.522,0.208,0.876,0.744,0.975c0.343,0.063,0.691,0.094,1.033,0.16
		c0.716,0.139,1.008,0.38,1.039,1.099c0.04,0.938-0.022,1.881-0.068,2.82c-0.022,0.439-0.311,0.692-0.734,0.765
		c-0.342,0.059-0.69,0.119-1.035,0.12c-2.827,0.01-5.654,0.015-8.481,0.001c-1.124-0.006-1.23-0.132-1.289-1.278
		c-0.038-0.732-0.066-1.464-0.091-2.196c-0.028-0.839,0.097-1.182,0.882-1.292c1.492-0.208,2.075-1.194,2.527-2.437
		c1.536-4.226,3.097-8.442,4.657-12.659c1.064-2.877,2.143-5.748,3.209-8.624c0.4-1.078,0.794-2.158,1.171-3.244
		c0.43-1.238,0.983-1.676,2.293-1.732c0.871-0.037,1.743-0.098,2.615-0.015c0.982,0.094,1.665,0.55,2.099,1.481
		c1.019,2.188,1.693,4.501,2.549,6.748c0.782,2.051,1.508,4.124,2.252,6.19c0.744,2.066,1.472,4.138,2.219,6.204
		c0.759,2.098,1.542,4.188,2.295,6.289c0.326,0.91,0.957,1.397,1.88,1.626c1.4,0.347,1.48,0.525,1.325,1.972
		c-0.063,0.587-0.031,1.184-0.058,1.775c-0.044,0.976-0.199,1.169-1.181,1.192c-1.57,0.036-3.141,0.01-4.711,0.01
		C205.56,410.28,205.56,410.275,205.56,410.271z M195.258,395.197c0-0.007,0-0.015,0-0.022c0.871,0,1.743,0.027,2.612-0.006
		c1.427-0.054,1.609-0.275,1.185-1.646c-0.493-1.594-1.121-3.147-1.602-4.745c-0.37-1.231-0.938-2.394-1.195-3.662
		c-0.083-0.411,0.043-1.072-0.523-1.091c-0.458-0.016-0.619,0.579-0.777,1.004c-0.012,0.033-0.022,0.066-0.029,0.1
		c-0.322,1.542-1.059,2.944-1.512,4.44c-0.484,1.598-1.196,3.119-1.572,4.751c-0.165,0.716-0.061,0.855,0.696,0.871
		C193.446,395.212,194.352,395.197,195.258,395.197z"/>
	<path style="fill:#622733;" d="M367.094,410.299c-2.896,0-5.792,0.003-8.688-0.003c-0.628-0.001-1.258-0.002-1.882-0.059
		c-1.042-0.094-1.323-0.381-1.411-1.446c-0.055-0.659-0.067-1.325-0.056-1.986c0.015-0.919,0.445-1.41,1.341-1.59
		c0.17-0.034,0.346-0.041,0.519-0.056c1.3-0.109,1.374-0.181,1.372-1.527c-0.009-6.907-0.023-13.813-0.036-20.72
		c0-0.209-0.008-0.418-0.012-0.628c-0.01-0.545-0.292-0.833-0.829-0.884c-0.451-0.043-0.902-0.1-1.354-0.128
		c-0.594-0.037-0.898-0.377-0.927-0.932c-0.043-0.835-0.05-1.673-0.043-2.509c0.004-0.521,0.303-0.823,0.812-0.944
		c0.482-0.115,0.97-0.107,1.457-0.108c6.071-0.009,12.142-0.017,18.213-0.02c0.592,0,1.19-0.015,1.775,0.055
		c0.879,0.105,1.153,0.409,1.151,1.31c-0.005,1.674-0.044,3.348-0.096,5.021c-0.027,0.861-0.385,1.56-1.205,1.932
		c-0.925,0.419-1.848,0.329-2.709-0.166c-0.498-0.286-0.603-0.826-0.638-1.364c-0.027-0.417-0.031-0.836-0.078-1.251
		c-0.064-0.568-0.418-0.86-0.974-0.912c-0.208-0.02-0.418-0.02-0.627-0.02c-2.303,0.006-4.606,0.01-6.908,0.021
		c-1.426,0.007-1.596,0.184-1.481,1.573c0.151,1.812,0.079,3.625,0.053,5.438c-0.005,0.349-0.009,0.697-0.011,1.046
		c-0.003,0.467,0.25,0.711,0.697,0.749c0.347,0.029,0.697,0.032,1.045,0.032c2.094,0,4.187-0.009,6.281-0.004
		c1.683,0.003,2.272,0.604,2.238,2.281c-0.011,0.522-0.047,1.045-0.093,1.565c-0.059,0.679-0.449,1.089-1.108,1.209
		c-0.409,0.075-0.83,0.113-1.246,0.116c-1.919,0.012-3.838,0.006-5.757,0.007c-0.279,0-0.559-0.008-0.837,0.008
		c-1.072,0.063-1.314,0.288-1.261,1.34c0.118,2.371,0.123,4.74,0.006,7.111c-0.053,1.09,0.139,1.265,1.256,1.276
		c1.046,0.01,2.093-0.023,3.14-0.02c1.499,0.005,2.997-0.021,4.497,0.117c1.524,0.141,1.953-0.29,1.99-1.802
		c0.047-1.876,0.349-2.16,2.256-2.115c1.994,0.046,2.612,0.666,2.397,2.63c-0.156,1.428-0.234,2.826-0.043,4.264
		c0.196,1.474-0.449,2.071-2.033,2.079c-3.384,0.017-6.769,0.005-10.153,0.005C367.094,410.294,367.094,410.297,367.094,410.299z"/>
	<path style="fill:#622733;" d="M128.821,337.189c0-3.977-0.01-7.953,0.004-11.93c0.009-2.544,0.032-2.552,2.524-2.736
		c0.591-0.043,1.183-0.113,1.775-0.118c0.773-0.007,1.009,0.172,1.132,0.935c0.149,0.928,0.302,1.858,0.302,2.805
		c-0.004,7.57-0.011,15.139,0.004,22.709c0.002,1.089-0.281,2.145-0.285,3.227c-0.003,0.767,0.006,1.534,0.021,2.301
		c0.018,0.905-0.352,1.505-1.238,1.832c-1.199,0.441-2.457,0.511-3.698,0.667c-1.488,0.188-2.975,0.38-4.461,0.58
		c-1.558,0.209-3.145,0.184-4.702,0.041c-2.147-0.198-4.302-0.454-6.331-1.283c-3.272-1.336-4.968-3.907-5.691-7.242
		c-0.089-0.409-0.156-0.823-0.206-1.238c-0.507-4.161-0.79-8.345-0.533-12.524c0.137-2.23,0.174-4.456,0.232-6.684
		c0.026-1.027,0.395-1.825,1.211-2.421c1.141-0.834,1.922-2.013,2.907-2.996c0.329-0.329,0.607-0.964,1.14-0.732
		c0.501,0.218,0.316,0.871,0.317,1.338c0.008,6.244,0,12.488-0.001,18.732c0,0.907,0.01,1.814,0.022,2.721
		c0.016,1.275,0.332,2.487,0.818,3.654c0.573,1.377,1.644,2.219,3.026,2.697c1.98,0.685,4.026,0.843,6.095,0.666
		c1.459-0.124,2.914-0.307,4.366-0.506c1.087-0.149,1.219-0.295,1.242-1.414c0.034-1.639,0.016-3.279,0.017-4.918
		c0.002-2.721,0-5.442,0-8.163C128.826,337.189,128.823,337.189,128.821,337.189z"/>
	<path style="fill:#622733;" d="M254.001,339.874c0,2.546-0.018,5.092,0.007,7.638c0.015,1.541-0.153,3.059-0.365,4.581
		c-0.735,5.256-4.235,8.209-9.193,9.01c-1.063,0.172-2.154,0.194-3.233,0.23c-1.304,0.044-2.282-0.501-2.864-1.711
		c-0.392-0.815-0.87-1.587-1.02-2.506c-0.136-0.831-0.03-1.033,0.802-1.041c1.501-0.015,2.996-0.1,4.494-0.197
		c2.275-0.148,5.045-1.989,5.483-4.945c0.128-0.864-0.004-1.047-0.819-0.897c-2.558,0.472-5.001,0.105-7.303-1.07
		c-2.111-1.078-3.565-2.757-4.279-5.039c-0.76-2.428-1.109-4.905-0.664-7.431c0.695-3.939,2.629-6.984,6.554-8.361
		c1.644-0.577,3.413-0.73,5.163-0.601c1.564,0.115,3.119,0.351,4.677,0.538c0.242,0.029,0.484,0.072,0.721,0.126
		c1.591,0.361,1.872,0.758,1.861,2.364c-0.021,3.104-0.006,6.208-0.006,9.312C254.011,339.874,254.006,339.874,254.001,339.874z
		 M248.515,338.112c0-1.045-0.026-2.09,0.006-3.134c0.044-1.394-0.391-1.991-1.791-2.189c-1.806-0.255-3.437,0.227-4.652,1.59
		c-1.848,2.073-2.2,4.432-1.284,7.095c0.939,2.728,4.033,4.086,6.611,3.114c0.945-0.357,1.373-0.819,1.222-1.783
		C248.382,341.241,248.489,339.677,248.515,338.112z"/>
	<path style="fill:#622733;" d="M341.344,393.79c0,3.034,0,6.068,0.001,9.102c0,0.349-0.009,0.699,0.016,1.046
		c0.073,0.985,0.405,1.288,1.386,1.293c0.035,0,0.07-0.002,0.105-0.002c1.523-0.023,1.975,0.4,2.013,1.943
		c0.015,0.59,0.01,1.19-0.077,1.772c-0.157,1.046-0.474,1.321-1.512,1.348c-1.185,0.031-2.374,0.057-3.555-0.081
		c-0.942-0.11-1.878-0.106-2.818,0.003c-1.217,0.141-2.439,0.102-3.659,0.043c-0.901-0.044-1.044-0.175-1.083-1.044
		c-0.042-0.939-0.072-1.884-0.022-2.822c0.05-0.951,0.389-1.198,1.351-1.154c0.104,0.005,0.208,0.02,0.312,0.031
		c1.458,0.16,1.945-0.204,1.965-1.681c0.031-2.265,0.088-4.529-0.077-6.796c-0.166-2.295-0.167-4.603-0.011-6.899
		c0.156-2.301,0.103-4.6,0.105-6.901c0-0.208-0.018-0.419-0.05-0.625c-0.129-0.842-0.309-1.016-1.152-1.009
		c-1.151,0.01-2.3,0.011-3.451-0.04c-1.329-0.059-1.568,0.224-1.546,1.593c0.002,0.104,0.014,0.209,0.016,0.313
		c0.032,1.517-0.217,1.797-1.762,1.975c-0.591,0.068-1.182,0.086-1.77-0.047c-0.535-0.121-0.918-0.43-0.911-0.992
		c0.026-1.951-0.293-3.892-0.115-5.849c0.087-0.954,0.586-1.434,1.463-1.648c0.832-0.203,1.667-0.154,2.496-0.039
		c0.833,0.116,1.666,0.15,2.504,0.149c6.139-0.007,12.278-0.011,18.418-0.014c0.244,0,0.489-0.001,0.732,0.024
		c0.994,0.101,1.493,0.547,1.514,1.526c0.04,1.847,0.006,3.696,0.006,5.544c0,0.6-0.298,0.975-0.849,1.181
		c-1.079,0.404-2.131,0.257-3.151-0.185c-0.502-0.218-0.658-0.692-0.664-1.213c-0.005-0.453,0.017-0.907-0.008-1.358
		c-0.03-0.529-0.338-0.862-0.863-0.869c-1.324-0.018-2.649-0.005-3.973,0.022c-0.507,0.01-0.802,0.317-0.989,0.793
		c-0.261,0.665-0.342,1.344-0.341,2.048c0.006,3.173,0.003,6.347,0.003,9.521C341.342,393.79,341.343,393.79,341.344,393.79z"/>
	<path style="fill:#622733;" d="M161.977,401.401c0.943,0.233,1.116,0.343,1.118,1.212c0.006,2.162-0.033,4.325-0.108,6.485
		c-0.026,0.76-0.27,0.97-1.016,1.104c-0.409,0.073-0.833,0.085-1.251,0.085c-6.491,0.006-12.983,0.008-19.474,0.006
		c-0.453,0-0.907-0.028-1.359-0.053c-0.584-0.033-0.886-0.376-0.94-0.932c-0.085-0.867-0.169-1.736-0.209-2.606
		c-0.035-0.742,0.299-1.179,1.033-1.358c0.402-0.098,0.831-0.085,1.243-0.151c0.739-0.118,0.88-0.269,0.929-1.013
		c0.03-0.452,0.025-0.907,0.025-1.36c0.003-6.141,0.006-12.281,0.003-18.422c0-0.732-0.037-1.465-0.052-2.197
		c-0.012-0.553-0.29-0.827-0.844-0.844c-0.383-0.012-0.769-0.022-1.148-0.076c-0.699-0.101-0.955-0.315-1-0.987
		c-0.055-0.833-0.028-1.673-0.018-2.51c0.006-0.485,0.29-0.783,0.748-0.878c0.339-0.07,0.691-0.104,1.038-0.106
		c2.897-0.016,5.793-0.032,8.69-0.025c1.303,0.003,1.535,0.254,1.543,1.533c0.004,0.628,0,1.256-0.021,1.883
		c-0.03,0.869-0.249,1.094-1.125,1.161c-0.347,0.027-0.7-0.007-1.046,0.028c-0.715,0.071-0.92,0.262-1.003,0.965
		c-0.049,0.414-0.043,0.836-0.043,1.254c0.001,6.559,0.005,13.119,0.009,19.678c0.001,1.823,0.248,2.037,2.081,1.936
		c2.161-0.119,4.322-0.194,6.483,0.036c0.342,0.036,0.701,0.015,1.04-0.047c0.786-0.145,1.059-0.453,1.129-1.271
		c0.045-0.52,0.011-1.047,0.053-1.568c0.055-0.68,0.223-0.851,0.899-0.915c0.52-0.049,1.045-0.045,1.567-0.064
		C161.292,401.558,161.634,401.532,161.977,401.401z"/>
	<path style="fill:#622733;" d="M393.952,410.279c-3.209,0-6.418,0.016-9.627-0.007c-1.622-0.011-1.775-0.203-1.826-1.818
		c-0.018-0.556-0.081-1.111-0.123-1.667c-0.06-0.789,0.123-1.071,0.897-1.286c0.368-0.102,0.754-0.141,1.128-0.223
		c0.891-0.195,1.083-0.417,1.162-1.341c0.021-0.243,0.019-0.488,0.019-0.732c0.001-6.451,0.002-12.902-0.001-19.354
		c0-0.488-0.007-0.978-0.049-1.463c-0.07-0.815-0.221-0.956-1.014-1.029c-0.382-0.035-0.765-0.055-1.147-0.089
		c-0.54-0.047-0.835-0.373-0.848-0.888c-0.021-0.87-0.028-1.745,0.037-2.612c0.048-0.646,0.357-0.887,1.028-0.969
		c0.241-0.03,0.487-0.025,0.731-0.026c2.79-0.008,5.581-0.015,8.371-0.019c0.279,0,0.56-0.003,0.836,0.031
		c0.736,0.09,0.973,0.321,0.998,1.079c0.028,0.836,0.017,1.674-0.021,2.509c-0.03,0.66-0.233,0.856-0.885,0.938
		c-0.31,0.039-0.627,0.014-0.94,0.033c-0.928,0.055-1.222,0.327-1.35,1.258c-0.033,0.241-0.038,0.487-0.038,0.73
		c0.002,6.625,0.007,13.251,0.011,19.876c0,0.139,0,0.279,0.004,0.418c0.035,1.327,0.476,1.752,1.82,1.629
		c2.022-0.186,4.035-0.231,6.049,0.097c0.674,0.11,1.317-0.095,1.923-0.38c0.472-0.221,0.738-0.621,0.86-1.123
		c0.124-0.511,0.15-1.032,0.184-1.555c0.045-0.703,0.214-0.908,0.875-0.92c0.94-0.016,1.882,0.04,2.822,0.083
		c0.5,0.023,0.744,0.337,0.789,0.813c0.027,0.277,0.05,0.558,0.037,0.835c-0.067,1.428-0.145,2.855-0.222,4.282
		c-0.009,0.174-0.028,0.348-0.057,0.52c-0.305,1.843-0.82,2.331-2.701,2.35c-3.243,0.032-6.487,0.009-9.731,0.009
		C393.952,410.275,393.952,410.277,393.952,410.279z"/>
	<path style="fill:#622733;" d="M168.712,393.235c0-3.103,0.004-6.207-0.004-9.31c-0.001-0.522-0.016-1.049-0.084-1.565
		c-0.094-0.718-0.376-0.954-1.1-1.003c-0.278-0.019-0.559,0.005-0.837-0.014c-0.841-0.056-1.069-0.235-1.166-1.036
		c-0.105-0.868-0.037-1.741,0.033-2.61c0.043-0.532,0.359-0.816,0.884-0.854c0.417-0.03,0.836-0.045,1.254-0.047
		c2.581-0.013,5.162-0.02,7.743-0.029c0.035,0,0.07,0,0.105,0c1.699,0.037,1.973,0.35,1.859,2.084
		c-0.027,0.417,0.003,0.837-0.012,1.254c-0.032,0.885-0.303,1.165-1.197,1.241c-0.243,0.021-0.488,0-0.732,0.01
		c-0.93,0.036-1.096,0.182-1.129,1.106c-0.064,1.777-0.078,3.555,0.015,5.333c0.192,3.659,0.127,7.32,0.012,10.979
		c-0.052,1.639-0.084,3.276-0.072,4.915c0.01,1.293,0.284,1.563,1.595,1.69c0.173,0.017,0.35,0.012,0.521,0.041
		c0.787,0.135,1.194,0.573,1.108,1.374c-0.09,0.834-0.165,1.655-0.072,2.495c0.052,0.477-0.23,0.798-0.702,0.896
		c-0.305,0.064-0.621,0.102-0.933,0.102c-2.755,0.003-5.511-0.004-8.266-0.012c-0.314-0.001-0.629-0.009-0.94-0.045
		c-0.698-0.08-0.928-0.257-1.029-0.959c-0.144-1.003-0.146-2.021,0.04-3.02c0.151-0.816,0.465-1.034,1.307-1.039
		c0.174-0.001,0.348,0.032,0.522,0.032c0.682-0.002,1.058-0.254,1.184-0.928c0.101-0.543,0.107-1.109,0.108-1.665
		c0.009-3.138,0.004-6.276,0.004-9.415C168.725,393.235,168.719,393.235,168.712,393.235z"/>
	<path style="fill:#622733;" d="M265.085,331.352c0,5.685,0,11.369,0,17.054c0,1.669-0.693,2.264-2.359,1.997
		c-0.622-0.1-1.243-0.151-1.873-0.169c-1.211-0.034-1.425-0.266-1.469-1.512c-0.007-0.209-0.006-0.418-0.006-0.628
		c0-10.881,0.001-21.762,0.001-32.643c0-0.139,0-0.279,0.001-0.418c0.012-1.875,0.025-1.901,1.807-2.3
		c0.782-0.175,1.568-0.354,2.361-0.458c1.089-0.143,1.482,0.195,1.55,1.292c0.039,0.625,0.005,1.255,0.005,1.883
		c0,5.301,0,10.602,0,15.903C265.097,331.352,265.091,331.352,265.085,331.352z"/>
	<path style="fill:#D2A95A;" d="M262.014,430.448c0.767,0,1.535-0.01,2.302,0.003c0.676,0.012,1.129-0.318,1.402-0.902
		c0.206-0.44,0.429-0.887,0.539-1.356c0.304-1.295,0.923-2.479,1.269-3.757c0.083-0.308,0.172-0.619,0.568-0.656
		c0.441-0.042,0.65,0.26,0.746,0.6c0.355,1.27,1.035,2.44,1.179,3.775c0.011,0.103,0.043,0.204,0.069,0.305
		c0.45,1.738,0.726,1.952,2.521,1.967c1.256,0.01,2.511,0.025,3.767,0.04c0.244,0.003,0.5-0.03,0.729,0.032
		c0.284,0.076,0.689,0.026,0.789,0.392c0.085,0.311-0.235,0.476-0.418,0.675c-0.852,0.925-1.717,1.825-2.927,2.307
		c-0.59,0.235-1.022,0.729-1.485,1.14c-0.583,0.516-0.615,1.23-0.306,1.924c0.326,0.73,0.651,1.467,1.061,2.15
		c0.569,0.947,0.398,1.96,0.35,2.955c-0.021,0.44-0.405,0.561-0.883,0.26c-0.94-0.592-1.908-1.153-2.727-1.92
		c-0.254-0.238-0.493-0.493-0.744-0.735c-1.034-0.994-2.285-0.992-3.331,0.011c-0.378,0.362-0.769,0.716-1.099,1.119
		c-0.605,0.739-1.44,1.08-2.288,1.397c-0.623,0.233-0.937,0.025-0.966-0.642c-0.028-0.625-0.009-1.243,0.273-1.84
		c0.431-0.914,0.758-1.872,1.042-2.842c0.315-1.076,0.117-1.921-0.843-2.443c-1.334-0.726-2.424-1.735-3.57-2.687
		c-0.254-0.211-0.675-0.382-0.544-0.797c0.105-0.334,0.523-0.367,0.81-0.381c0.903-0.043,1.81-0.016,2.715-0.016
		C262.014,430.501,262.014,430.474,262.014,430.448z"/>
	<path style="fill:#D2A95A;" d="M235.755,441.57c0.196-0.78,0.108-1.761,0.698-2.639c0.418-0.622,0.635-1.393,0.871-2.12
		c0.315-0.969,0.007-1.792-0.818-2.391c-0.197-0.143-0.391-0.318-0.615-0.392c-1.367-0.447-2.186-1.559-3.123-2.53
		c-0.166-0.172-0.419-0.334-0.334-0.607c0.107-0.347,0.453-0.245,0.715-0.287c1.421-0.228,2.854-0.129,4.282-0.165
		c0.314-0.008,0.628-0.004,0.942-0.023c0.615-0.036,1.071-0.314,1.256-0.925c0.504-1.663,1.321-3.229,1.543-4.979
		c0.051-0.406,0.126-0.764,0.645-0.787c0.54-0.025,0.735,0.319,0.836,0.758c0.296,1.29,0.941,2.474,1.142,3.793
		c0.052,0.342,0.161,0.678,0.272,1.008c0.294,0.87,0.586,1.107,1.531,1.13c1.57,0.038,3.14,0.041,4.71,0.052
		c0.386,0.003,0.77-0.01,1.122,0.184c0.302,0.167,0.421,0.41,0.142,0.665c-1.046,0.952-1.86,2.194-3.318,2.639
		c-0.735,0.225-1.218,0.809-1.685,1.366c-0.394,0.47-0.314,1.059-0.113,1.595c0.28,0.749,0.527,1.531,0.937,2.207
		c0.532,0.877,0.522,1.867,0.771,2.798c0.136,0.509-0.346,0.816-0.867,0.611c-0.291-0.115-0.605-0.238-0.771-0.516
		c-0.325-0.541-0.836-0.816-1.372-1.084c-0.531-0.266-1.007-0.614-1.443-1.025c-1.181-1.117-2.285-1.066-3.463,0.009
		c-1.053,0.961-2.249,1.751-3.487,2.459C235.938,442.844,235.732,442.686,235.755,441.57z"/>
	<path style="fill:#D2A95A;" d="M288.171,430.431c0.901,0.296,1.762-0.024,2.629-0.014c0.504,0.006,0.866-0.219,1.032-0.717
		c0.431-1.29,1.008-2.518,1.57-3.753c0.2-0.439,0.262-0.938,0.437-1.391c0.193-0.5,0.468-0.544,0.871-0.189
		c0.269,0.237,0.429,0.537,0.534,0.88c0.244,0.799,0.509,1.591,0.762,2.387c0.063,0.199,0.107,0.404,0.171,0.602
		c0.655,2.021,1.422,2.564,3.545,2.297c1.196-0.151,2.361-0.031,3.538,0.068c0.286,0.024,0.576,0.063,0.676,0.384
		c0.104,0.334-0.132,0.508-0.375,0.665c-0.504,0.325-0.881,0.789-1.307,1.199c-0.51,0.491-1.11,0.833-1.739,1.141
		c-1.565,0.768-1.968,1.713-1.419,3.414c0.331,1.026,0.719,2.034,1.08,3.051c0.058,0.164,0.121,0.328,0.164,0.496
		c0.093,0.371,0.229,0.788-0.1,1.077c-0.271,0.238-0.59-0.029-0.889-0.094c-1.076-0.235-1.904-0.822-2.514-1.731
		c-0.32-0.475-0.789-0.797-1.258-1.084c-0.917-0.56-1.85-0.49-2.663,0.371c-1.025,1.087-2.32,1.765-3.497,2.623
		c-0.277,0.202-0.557,0.315-0.863,0.117c-0.284-0.183-0.193-0.469-0.178-0.754c0.085-1.567,0.701-2.957,1.396-4.323
		c0.384-0.755,0.277-1.662-0.329-2.323c-0.405-0.442-0.901-0.754-1.473-0.957c-0.743-0.263-1.328-0.731-1.795-1.375
		c-0.284-0.391-0.654-0.72-0.985-1.078c-0.146-0.158-0.275-0.335-0.209-0.56c0.072-0.244,0.298-0.269,0.508-0.279
		C286.394,430.543,287.304,430.647,288.171,430.431z"/>
	<path style="fill:#D2A95A;" d="M209.599,430.447c1.122-0.024,1.902,0.227,2.716,0c0.598-0.166,0.994-0.461,1.205-1.027
		c0.486-1.304,0.901-2.63,1.241-3.98c0.076-0.303,0.127-0.613,0.203-0.917c0.083-0.331,0.11-0.753,0.561-0.767
		c0.4-0.013,0.608,0.326,0.732,0.655c0.405,1.073,0.801,2.15,1.168,3.236c0.2,0.592,0.324,1.209,0.5,1.809
		c0.23,0.786,0.423,0.943,1.261,0.973c1.635,0.058,3.272,0.094,4.907,0.144c0.373,0.011,0.859-0.117,1.024,0.317
		c0.172,0.452-0.209,0.779-0.532,1.039c-0.891,0.715-1.686,1.56-2.777,2.011c-0.382,0.158-0.696,0.451-0.993,0.754
		c-0.842,0.859-0.969,1.433-0.43,2.532c0.4,0.816,0.687,1.674,1.032,2.51c0.272,0.659,0.292,1.361,0.277,2.057
		c-0.01,0.472-0.244,0.635-0.673,0.504c-0.196-0.06-0.402-0.153-0.552-0.287c-1.038-0.925-2.319-1.532-3.27-2.583
		c-0.646-0.714-1.509-0.82-2.399-0.422c-0.447,0.2-0.869,0.455-1.193,0.829c-0.855,0.991-1.991,1.626-3.009,2.411
		c-0.055,0.043-0.111,0.084-0.166,0.127c-0.205,0.158-0.429,0.241-0.679,0.126c-0.283-0.13-0.278-0.41-0.228-0.634
		c0.182-0.807,0.177-1.653,0.595-2.413c0.334-0.607,0.596-1.258,0.851-1.905c0.661-1.675,0.09-3.124-1.566-3.718
		c-1.352-0.485-2.233-1.513-3.19-2.464c-0.358-0.355-0.19-0.705,0.377-0.734C207.703,430.575,208.818,430.57,209.599,430.447z"/>
	<path style="fill:#622733;" d="M261.046,302.823c0,0.035-0.001,0.07,0,0.105c0.063,1.822,0.52,2.284,2.333,2.304
		c1.011,0.011,2.023-0.029,3.035-0.024c0.898,0.004,1.02,0.158,0.926,1.07c-0.117,1.137-0.813,1.851-2.103,2.132
		c-0.236,0.052-0.493,0.104-0.724,0.065c-2.505-0.42-5.007,0.139-7.51,0.006c-0.947-0.05-1.053-0.141-1.121-1.079
		c-0.064-0.876,0.255-1.424,1.082-1.798c1.45-0.656,1.429-0.697,1.201-2.351c-0.157-1.134,0.022-2.227,0.439-3.282
		c0.268-0.677,0.816-1.112,1.381-1.534c2.344-1.747,5.007-0.973,6.709,0.749c0.555,0.562,0.542,1.187,0.021,1.876
		c-0.405,0.536-1.057,0.722-1.677,0.418c-0.372-0.182-0.69-0.47-1.048-0.684c-1.563-0.931-2.855-0.22-2.938,1.608
		c-0.006,0.139-0.001,0.279-0.001,0.418C261.048,302.823,261.047,302.823,261.046,302.823z"/>
	<path style="fill:#622733;" d="M366.328,315.194c0-0.627-0.027-1.256,0.006-1.881c0.048-0.9,0.225-1.123,1.075-1.268
		c0.857-0.147,1.723-0.283,2.59-0.326c1.623-0.079,2.499,0.896,2.248,2.492c-0.127,0.804-0.128,1.587-0.015,2.389
		c0.199,1.408,0.049,1.606-1.363,1.917c-1.215,0.268-2.421,0.201-3.622-0.118c-0.586-0.156-0.895-0.503-0.896-1.114
		c0-0.697,0-1.393,0-2.09C366.344,315.194,366.336,315.194,366.328,315.194z"/>
	<path style="fill:#622733;" d="M124.473,315.247c0,0.661,0.031,1.323-0.008,1.981c-0.044,0.749-0.186,0.938-0.902,1.055
		c-0.925,0.151-1.862,0.276-2.797,0.307c-1.309,0.044-1.926-0.562-1.966-1.875c-0.032-1.042-0.014-2.087,0.017-3.129
		c0.035-1.189,0.596-1.811,1.781-1.885c1.082-0.068,2.143,0.188,3.196,0.408c0.531,0.111,0.667,0.579,0.683,1.052
		c0.024,0.695,0.006,1.391,0.006,2.086C124.48,315.247,124.476,315.247,124.473,315.247z"/>
	<path style="fill:#622733;" d="M395.92,313.31c0,0.349-0.003,0.697,0.001,1.046c0.015,1.57-0.711,2.336-2.299,2.321
		c-0.799-0.008-1.598-0.135-2.396-0.22c-0.507-0.054-0.818-0.339-0.95-0.837c-0.39-1.475-0.354-2.971-0.231-4.47
		c0.031-0.384,0.293-0.612,0.634-0.766c1.301-0.587,2.656-0.556,4.004-0.278c0.733,0.151,1.232,0.905,1.263,1.741
		c0.018,0.486-0.038,0.975-0.06,1.463C395.897,313.31,395.909,313.31,395.92,313.31z"/>
	<path style="fill:#622733;" d="M195.299,359.792c0,0.662,0.026,1.326-0.007,1.987c-0.035,0.698-0.238,0.966-0.899,1.085
		c-1.106,0.198-2.223,0.153-3.333-0.003c-0.435-0.061-0.693-0.327-0.743-0.757c-0.173-1.494-0.249-2.996-0.004-4.483
		c0.171-1.037,1.024-1.678,2.07-1.706c0.419-0.011,0.836,0.007,1.247,0.104c0.977,0.231,1.64,0.998,1.681,1.995
		c0.025,0.592,0.005,1.185,0.005,1.778C195.31,359.792,195.304,359.792,195.299,359.792z"/>
	<path style="fill:#622733;" d="M202.553,359.524c0,0.626,0.033,1.254-0.007,1.878c-0.074,1.131-0.429,1.495-1.537,1.561
		c-0.588,0.035-1.186,0.025-1.771-0.042c-1.126-0.128-1.991-1.123-1.872-2.235c0.129-1.207,0.34-2.41,0.587-3.6
		c0.181-0.87,0.393-1,1.304-1.026c0.625-0.018,1.255-0.025,1.877,0.03c0.971,0.086,1.5,0.681,1.495,1.664
		c-0.003,0.59-0.073,1.179-0.113,1.769C202.529,359.523,202.541,359.524,202.553,359.524z"/>
	<path style="fill:#622733;" d="M297.938,315.551c0-0.488-0.008-0.977,0.002-1.465c0.022-1.071,0.349-1.513,1.347-1.849
		c1.2-0.404,2.651-0.072,3.382,0.739c0.348,0.387,0.518,0.814,0.504,1.328c-0.021,0.767-0.014,1.535-0.052,2.301
		c-0.063,1.292-0.611,1.926-1.875,2.105c-0.8,0.113-1.6,0.012-2.376-0.237c-0.563-0.18-0.884-0.544-0.892-1.145
		c-0.008-0.593-0.002-1.185-0.002-1.778C297.964,315.551,297.951,315.551,297.938,315.551z"/>
	<path style="fill:#622733;" d="M310.306,315.465c0,0.557,0.02,1.114-0.005,1.67c-0.028,0.613-0.33,1.017-0.937,1.24
		c-0.915,0.337-1.845,0.385-2.777,0.196c-0.78-0.159-1.277-0.648-1.409-1.481c-0.154-0.968-0.164-1.942-0.179-2.916
		c-0.014-0.916,0.642-1.358,1.335-1.703c0.837-0.417,1.745-0.465,2.652-0.244c0.811,0.198,1.177,0.613,1.245,1.464
		c0.048,0.588,0.009,1.182,0.009,1.774C310.262,315.465,310.284,315.465,310.306,315.465z"/>
	<path style="fill:#D2A95A;" d="M161.977,401.401c-0.343,0.132-0.685,0.158-1.023-0.017
		C161.298,401.249,161.639,401.221,161.977,401.401z"/>
</g>
</svg>
