<svg width="129" height="129" viewBox="0 0 129 129" fill="none" xmlns="http://www.w3.org/2000/svg">
<circle cx="64.9316" cy="64.1719" r="63.1665" fill="#9E6C00" stroke="#21201E" stroke-width="1.66709"/>
<path d="M57.2221 51.6711C49.0687 52.3284 46.3865 57.7106 46.724 72.4187C43.5266 74.6569 42.2121 74.9233 38.3219 74.0174C36.6344 67.7469 37.1673 61.7252 41.1463 56.3251C45.0898 50.9783 51.2003 49.3796 57.6307 47.9053C55.2149 44.5125 52.2839 42.7184 48.7668 41.8835C46.422 41.3151 44.1838 41.8835 42.3897 43.5C40.8265 44.9033 39.2811 46.4487 38.1088 48.1895C35.7462 51.6889 32.5133 51.9376 28.8008 51.458C31.8916 42.2743 43.1358 37.496 58.128 39.0414C56.1385 34.867 53.1366 32.0426 48.9799 31.3676C45.1075 30.7459 41.0752 31.2255 36.5634 31.2255C43.0647 25.257 56.7602 26.6426 65.3577 33.7657C73.2269 27.9038 82.073 26.1807 92.0205 28.561C90.9724 31.1722 88.6632 31.0301 86.7625 31.4209C85.8211 31.6163 84.7908 31.3854 83.8138 31.2433C76.2822 30.142 72.2499 32.8065 69.8341 40.8177C70.8999 40.5868 71.7703 40.3736 72.6407 40.2315C76.3887 39.6098 80.1546 38.4374 83.9026 38.5085C91.452 38.6683 96.7455 42.9138 101.062 49.6283C99.1081 50.3922 97.5982 51.0316 96.0705 51.5823C93.9212 52.3461 92.4468 51.6356 90.9192 49.8592C88.8231 47.4257 86.5139 44.9566 83.8138 43.2868C78.6802 40.1427 73.9552 41.8658 70.7578 47.55C73.2979 47.9053 75.8025 48.1007 78.2361 48.6336C88.2369 50.854 94.1166 61.1745 91.1501 71.0154C90.6705 72.5963 89.8001 73.5378 88.308 73.8042C86.5316 74.124 84.702 74.1772 82.5171 74.3726C82.5171 72.472 82.4816 70.9621 82.5171 69.4522C82.677 65.0824 81.8421 60.9613 79.2486 57.3554C77.3124 54.6553 74.9144 52.577 70.9887 51.9376C71.4328 53.1632 71.8058 53.9981 72.0545 54.8863C72.765 57.3731 72.6229 59.8955 70.6689 61.6186C68.786 63.2706 68.6262 65.1357 68.6439 67.3206C68.6972 75.1365 68.6617 82.9346 68.6439 90.7504C68.6439 97.2518 67.2762 98.2999 60.1886 96.7367C60.1886 95.3512 60.1886 93.8413 60.1886 92.3136C60.1886 84.0714 60.1886 75.847 60.1886 67.6048C60.1886 65.4555 60.1531 63.5015 58.359 61.7784C56.6537 60.1265 56.4583 57.7106 56.6714 55.3836C56.778 54.158 57.009 52.9323 57.1866 51.6711H57.2221Z" fill="white"/>
</svg>
