<svg width="129" height="129" viewBox="0 0 129 129" fill="none" xmlns="http://www.w3.org/2000/svg">
<circle cx="64.9316" cy="64.1719" r="63.1665" fill="#6C7695" stroke="#21201E" stroke-width="1.66709"/>
<path d="M66.046 44.8331C71.2012 45.3395 76.3745 45.7556 81.5117 46.3887C83.0311 46.5877 84.5506 47.2569 85.9615 47.9624C87.1915 48.5955 87.6618 49.6446 87.3181 51.2183C86.3051 55.9937 85.2741 60.7872 84.6772 65.6168C84.1526 69.9038 82.5246 73.6843 80.4445 77.3201C78.6899 80.3952 75.7595 82.2945 72.4312 82.7105C67.3122 83.3617 62.1026 83.6511 56.9474 83.5064C52.6242 83.3798 49.314 80.9197 47.5775 76.8317C46.3475 73.9195 44.9728 70.9891 44.412 67.9321C43.4714 62.8312 43.0373 57.6398 42.5308 52.4664C42.1871 49.1201 42.6574 48.505 45.8772 47.4197C52.4253 45.2129 59.2266 45.2853 66.046 44.7969V44.8331ZM50.2546 55.234C50.2546 57.9473 50.2908 60.2445 50.2546 62.5418C50.1642 67.9502 52.57 72.2553 56.0068 76.1805C62.7538 83.9043 73.6974 80.5761 76.7544 72.3458C78.7803 66.8649 78.6899 61.1308 79.4496 55.2521H50.2546V55.234ZM78.8888 51.6163C78.4185 49.4276 77.1162 48.4508 75.4882 48.4689C68.5964 48.5593 61.7228 48.7764 54.831 49.0839C53.8904 49.12 52.986 49.8255 52.0635 50.2234C61.0173 52.177 69.7903 52.5569 78.8888 51.5982V51.6163Z" fill="white"/>
</svg>
