<svg width="129" height="129" viewBox="0 0 129 129" fill="none" xmlns="http://www.w3.org/2000/svg">
<circle cx="64.9316" cy="64.1719" r="63.1665" fill="#0076DB" stroke="#21201E" stroke-width="1.66709"/>
<path d="M73.5026 87.5495V71.7081C68.8726 70.4837 64.6891 69.323 60.48 68.2643C58.4647 67.7541 56.424 67.6649 54.549 68.8C52.9929 69.7439 51.6664 69.272 50.9011 67.8817C50.0976 66.4149 49.3196 64.7313 49.2303 63.1114C49.0007 58.7493 49.192 54.3489 49.1027 49.974C49.0645 48.0098 49.9701 46.7343 51.7047 46.3644C53.6562 45.9435 55.7225 45.6629 57.6867 45.867C59.7785 46.0838 61.781 47.1042 63.86 47.4996C66.4365 47.997 69.0639 48.2394 71.6787 48.5072C72.2144 48.5582 72.7756 48.2393 73.4898 48.0608C72.7373 46.4409 71.768 45.0889 71.5001 43.6094C71.1685 41.8237 72.7628 41.0201 74.1021 40.4844C74.3827 39.362 74.625 38.4054 74.9439 37.1172C75.7347 37.6912 76.3597 37.9973 76.7933 38.4692C77.9285 39.7447 78.9872 41.0839 80.0586 42.4104C80.8621 43.3925 81.0789 44.515 80.1733 45.4588C79.0892 46.5685 79.2295 47.8695 79.2295 49.1704C79.2295 60.2798 79.255 71.3765 79.2805 82.4859C79.2805 82.69 79.2805 82.8941 79.2805 83.0981C79.2805 87.4603 78.528 88.1107 73.5026 87.5495ZM73.3113 54.5275C69.2042 53.4561 65.4799 52.5122 61.7682 51.4918C59.5744 50.8923 57.3806 50.6117 55.174 51.3388C54.1791 51.6704 53.2353 52.1423 53.2225 53.3923C53.197 56.4024 53.2225 59.4125 53.2225 62.7798C57.1765 62.142 60.3524 63.5961 63.6177 64.6547C66.7553 65.6624 69.9058 66.0195 73.3113 65.3562V54.5275Z" fill="white"/>
</svg>
