<svg width="129" height="129" viewBox="0 0 129 129" fill="none" xmlns="http://www.w3.org/2000/svg">
<circle cx="64.9316" cy="64.1719" r="63.1665" fill="#473866" stroke="#21201E" stroke-width="1.66709"/>
<path d="M78.8168 40.1372C79.4301 39.0508 79.9733 38.1045 80.8495 36.5625C82.5317 44.956 85.2827 52.4908 86.2115 61.0595C84.0561 60.8492 82.041 60.674 79.7455 60.4462C79.0621 56.2757 75.7328 55.1192 72.2457 53.7875C70.1079 55.6274 70.4409 57.6951 71.4397 59.8153C72.456 61.9531 73.56 64.0383 74.8391 66.5441C76.3461 66.3689 78.1159 66.2112 79.8857 65.9483C84.0561 65.335 84.8797 66.071 84.4592 70.3991C84.2489 72.6245 83.6531 74.8149 83.5129 77.0403C83.2326 81.8241 80.6217 84.7328 76.3636 86.4325C75.0844 86.9407 73.8228 87.4839 71.8778 88.29C72.1406 86.1522 72.1406 84.5051 72.6137 83.0156C72.8941 82.1395 73.9104 80.8954 74.6288 80.8778C79.0796 80.7727 80.2011 77.8113 80.7794 74.2542C81.0072 72.9225 81.2174 71.5732 81.4803 69.926C77.9056 70.0662 75.0845 71.3629 73.1745 73.746C69.775 78.0041 65.517 80.0367 60.19 80.4572C54.425 80.8953 49.1506 79.511 43.6484 76.5847C44.437 73.7285 45.1729 70.9774 45.9965 67.9635C48.5023 68.8396 50.5524 69.6632 52.6727 70.2765C57.2812 71.6082 60.2075 69.5405 60.6807 64.6867C60.7683 63.7229 60.6281 62.7241 60.7157 61.7428C60.9435 59.0969 61.1538 56.4509 61.5568 53.84C62.0299 50.7034 63.7997 48.478 66.7611 47.2339C67.4795 46.936 68.1629 46.5155 68.7762 45.3765C67.7774 45.2889 66.6034 44.8158 65.7973 45.1662C63.1339 46.3052 60.4178 47.4968 58.0873 49.1614C55.4939 51.0364 52.7954 52.298 49.6588 52.5258C48.9228 52.5784 48.1518 52.1929 46.6624 51.8249C56.0546 43.3263 66.1303 38.8405 78.7993 40.1196L78.8168 40.1372Z" fill="white"/>
</svg>
