<?xml version="1.0" encoding="utf-8"?>
<!-- Generator: Adobe Illustrator 26.0.1, SVG Export Plug-In . SVG Version: 6.00 Build 0)  -->
<svg version="1.1" id="GeorgeSamuel.me" xmlns="http://www.w3.org/2000/svg" xmlns:xlink="http://www.w3.org/1999/xlink" x="0px"
	 y="0px" viewBox="0 0 512 512" style="enable-background:new 0 0 512 512;" xml:space="preserve">
<style type="text/css">
	.st0{fill:#111111;}
	.st1{fill:#FFFFFF;}
</style>
<g id="www.GeorgeSamuel.me_00000090295785344589072880000010111213298143432864_">
	<rect class="st0" width="512" height="512"/>
	<circle class="st0" cx="256" cy="256" r="256"/>
	<g id="www.GeorgeSamuel.me">
		<path class="st1" d="M356.9,345.9c-1.5-14-16.2-18.4-17.7-19.2c-8.1-2.9-13.3-11.1-13.3-19.9c0-5.2,2.9-10.3,8.1-11.1
			c0.7,0,4.4-0.7,4.4-0.7c5.9-0.7,12.5,2.2,15.5,7.4c0.7,1.5,1.5,3.7,1.5,5.9c0,0,0.7,0,0.7,0.7c0-2.2-0.7-4.4-2.2-6.6
			c-2.9-5.9-9.6-9.6-16.2-8.9l0,0c-4.4,0-8.1,1.5-11.8,3.7c-4.4,2.9-6.6,8.9-6.6,14v1.5c1.5,9.6,8.1,17.7,18.4,19.9
			c8.9,2.9,14,11.1,13.3,19.9c0.7,5.2-2.9,9.6-8.1,11.1c-0.7,0-1.5,0.7-2.2,0.7c-0.7,0-2.2,0-2.9,0c-5.9,0.7-12.5-2.2-15.5-8.1
			c-0.7-1.5-1.5-3.7-2.2-5.9c0,0-0.7,0-0.7-0.7c0,2.2,0.7,4.4,2.2,6.6c2.9,5.9,9.6,9.6,16.2,8.9l0,0c5.2,0,9.6-1.5,12.5-5.2
			c2.9-3.7,5.2-8.1,5.2-12.5v-0.7C356.9,346.6,356.9,346.6,356.9,345.9"/>
		<path class="st1" d="M172.6,365c-8.1,0-14.8-6.6-14.8-14.8v-22.1h-5.9v17C151.9,356.9,161.5,365.8,172.6,365L172.6,365z"/>
		<path class="st1" d="M197.6,293.5v51.6c0.7,7.4-3.7,14.8-10.3,17.7c-1.5,0.7-3.7,1.5-5.9,2.2v0.7c2.2-0.7,4.4-1.5,6.6-2.2
			c6.6-3.7,11.1-10.3,10.3-18.4L197.6,293.5L197.6,293.5z"/>
		<rect x="151.9" y="305.3" class="st1" width="5.9" height="5.9"/>
		<rect x="151.9" y="316.4" class="st1" width="5.9" height="5.9"/>
		<path class="st1" d="M416.7,294.2h22.1c0,0,0.7,0,0.7-0.7c0,0,0,0-0.7,0L416.7,294.2L416.7,294.2z"/>
		<rect x="416.7" y="293.5" class="st1" width="22.1" height="1.5"/>
		<rect x="416.7" y="328.9" class="st1" width="11.8" height="1.5"/>
		<rect x="416.7" y="364.3" class="st1" width="22.1" height="1.5"/>
		<path class="st1" d="M401.9,293.5v72.3h5.9v-72.3H401.9L401.9,293.5z"/>
		<path class="st1" d="M73,293.5v72.3h1.5v-72.3H73z"/>
		<path class="st1" d="M94.4,293.5H79.6v0.7L94.4,293.5c2.2,0.7,3.7,0.7,5.2,1.5c0.7,0,1.5,0.7,2.2,0.7c5.2,2.2,7.4,8.1,7.4,17.7
			c0,7.4,0,12.5-3.7,15.5c-2.2,2.9-5.9,4.4-9.6,4.4H79.6v0.7h16.2h0.7l0,0h0.7h0.7l0,0c9.6-2.2,16.2-10.3,16.2-19.9
			C114.3,303.1,105.5,293.5,94.4,293.5"/>
		<path class="st1" d="M260.3,365.8L260.3,365.8v-37.6h-5.9v37.6l0,0l0,0H260.3L260.3,365.8z"/>
		<rect x="268.4" y="364.3" class="st1" width="22.1" height="1.5"/>
		<rect x="254.4" y="293.5" class="st1" width="5.9" height="5.9"/>
		<rect x="254.4" y="305.3" class="st1" width="5.9" height="5.9"/>
		<rect x="254.4" y="316.4" class="st1" width="5.9" height="5.9"/>
		<path class="st1" d="M319.3,253.7c-2.2,0-10.3,0-12.5-0.7c-1.5,0-11.8,0-13.3,0c-1.5,0-11.1,0-12.5,0h-11.1
			c28.8-7.4,46.5-37.6,39.1-66.4c-6.6-24.3-28-40.6-53.1-40.6h-47.2v5.2h25.1c-27.3,12.5-39.1,45-26.6,72.3
			c8.8,19.2,28,31.7,49.4,31.7H267l0,0h14.8c0,0,10.3,0,12.5,0c2.2,0,10.3,0,13.3,0C309,254.4,317.1,254.4,319.3,253.7
			c0.7,0.7,4.4,0,4.4,0H319.3 M221.2,238.2c-19.9-19.9-19.9-51.6,0-70.8s51.6-19.9,70.8,0c19.9,19.9,19.9,51.6,0,70.8
			c-9.6,9.6-22.1,14.8-35.4,14.8l0,0C243.4,252.9,230.8,247.8,221.2,238.2"/>
		<rect x="198.4" y="146" class="st1" width="5.2" height="5.2"/>
		<rect x="188.8" y="146" class="st1" width="5.2" height="5.2"/>
	</g>
</g>
</svg>
