<svg width="500" height="500" viewBox="0 0 500 500" fill="none" xmlns="http://www.w3.org/2000/svg">
<path d="M18 162H34V146H26C23.8783 146 21.8434 146.843 20.3431 148.343C18.8428 149.843 18 151.878 18 154" fill="#21201E"/>
<path d="M34 162H18V178H34V162Z" fill="#21201E"/>
<path d="M34 178H18V194H34V178Z" fill="#21201E"/>
<path d="M34 194H18V202C18 204.122 18.8428 206.157 20.3431 207.657C21.8434 209.157 23.8783 210 26 210C28.1217 210 30.1566 209.157 31.6569 207.657C33.1572 206.157 34 204.122 34 202" fill="#21201E"/>
<path d="M18 306H34V298C34 295.878 33.1572 293.843 31.6569 292.343C30.1566 290.843 28.1217 290 26 290C23.8783 290 21.8434 290.843 20.3431 292.343C18.8428 293.843 18 295.878 18 298" fill="#21201E"/>
<path d="M34 306H18V322H34V306Z" fill="#21201E"/>
<path d="M34 338V322H18V330C18 332.122 18.8429 334.157 20.3431 335.657C21.8434 337.157 23.8783 338 26 338" fill="#21201E"/>
<path d="M34 146V162H42C44.1217 162 46.1566 161.157 47.6569 159.657C49.1571 158.157 50 156.122 50 154C50 151.878 49.1571 149.843 47.6569 148.343C46.1566 146.843 44.1217 146 42 146" fill="#21201E"/>
<path d="M50 178H34V194H50V178Z" fill="#21201E"/>
<path d="M34 226H50V218C50 215.878 49.1572 213.843 47.6569 212.343C46.1566 210.843 44.1217 210 42 210C39.8783 210 37.8434 210.843 36.3431 212.343C34.8428 213.843 34 215.878 34 218" fill="#21201E"/>
<path d="M50 226H34V242H50V226Z" fill="#21201E"/>
<path d="M50 258V242H34V250C34 252.122 34.8429 254.157 36.3431 255.657C37.8434 257.157 39.8783 258 42 258" fill="#21201E"/>
<path d="M34 306V322H50V314C50 311.878 49.1571 309.843 47.6569 308.343C46.1566 306.843 44.1217 306 42 306" fill="#21201E"/>
<path d="M50 322H34V338H50V322Z" fill="#21201E"/>
<path d="M50 178V194H58C60.1217 194 62.1566 193.157 63.6569 191.657C65.1571 190.157 66 188.122 66 186C66 183.878 65.1571 181.843 63.6569 180.343C62.1566 178.843 60.1217 178 58 178" fill="#21201E"/>
<path d="M50 226V242H66V234C66 231.878 65.1571 229.843 63.6569 228.343C62.1566 226.843 60.1217 226 58 226" fill="#21201E"/>
<path d="M66 242H50V258H66V242Z" fill="#21201E"/>
<path d="M58 290C62.4183 290 66 286.418 66 282C66 277.582 62.4183 274 58 274C53.5817 274 50 277.582 50 282C50 286.418 53.5817 290 58 290Z" fill="#21201E"/>
<path d="M66 322H50V338H66V322Z" fill="#21201E"/>
<path d="M66 338H50V346C50 348.122 50.8428 350.157 52.3431 351.657C53.8434 353.157 55.8783 354 58 354C60.1217 354 62.1566 353.157 63.6569 351.657C65.1572 350.157 66 348.122 66 346" fill="#21201E"/>
<path d="M82 178V162H74C71.8783 162 69.8434 162.843 68.3431 164.343C66.8429 165.843 66 167.878 66 170C66 172.122 66.8429 174.157 68.3431 175.657C69.8434 177.157 71.8783 178 74 178" fill="#21201E"/>
<path d="M66 210H82V202C82 199.878 81.1572 197.843 79.6569 196.343C78.1566 194.843 76.1217 194 74 194C71.8783 194 69.8434 194.843 68.3431 196.343C66.8428 197.843 66 199.878 66 202" fill="#21201E"/>
<path d="M82 210H66V218C66 220.122 66.8428 222.157 68.3431 223.657C69.8434 225.157 71.8783 226 74 226C76.1217 226 78.1566 225.157 79.6569 223.657C81.1572 222.157 82 220.122 82 218" fill="#21201E"/>
<path d="M66 242V258H74C76.1217 258 78.1566 257.157 79.6569 255.657C81.1571 254.157 82 252.122 82 250C82 247.878 81.1571 245.843 79.6569 244.343C78.1566 242.843 76.1217 242 74 242" fill="#21201E"/>
<path d="M74 306C78.4183 306 82 302.418 82 298C82 293.582 78.4183 290 74 290C69.5817 290 66 293.582 66 298C66 302.418 69.5817 306 74 306Z" fill="#21201E"/>
<path d="M82 322H66V338H82V322Z" fill="#21201E"/>
<path d="M82 162V178H90C92.1217 178 94.1566 177.157 95.6569 175.657C97.1571 174.157 98 172.122 98 170C98 167.878 97.1571 165.843 95.6569 164.343C94.1566 162.843 92.1217 162 90 162" fill="#21201E"/>
<path d="M98 242V226H90C87.8783 226 85.8434 226.843 84.3431 228.343C82.8429 229.843 82 231.878 82 234C82 236.122 82.8429 238.157 84.3431 239.657C85.8434 241.157 87.8783 242 90 242" fill="#21201E"/>
<path d="M82 274H98V266C98 263.878 97.1572 261.843 95.6569 260.343C94.1566 258.843 92.1217 258 90 258C87.8783 258 85.8434 258.843 84.3431 260.343C82.8428 261.843 82 263.878 82 266" fill="#21201E"/>
<path d="M98 274H82V282C82 284.122 82.8428 286.157 84.3431 287.657C85.8434 289.157 87.8783 290 90 290C92.1217 290 94.1566 289.157 95.6569 287.657C97.1572 286.157 98 284.122 98 282" fill="#21201E"/>
<path d="M82 322V338H90C92.1217 338 94.1566 337.157 95.6569 335.657C97.1571 334.157 98 332.122 98 330C98 327.878 97.1571 325.843 95.6569 324.343C94.1566 322.843 92.1217 322 90 322" fill="#21201E"/>
<path d="M98 226H114V210H106C103.878 210 101.843 210.843 100.343 212.343C98.8428 213.843 98 215.878 98 218" fill="#21201E"/>
<path d="M114 226H98V242H114V226Z" fill="#21201E"/>
<path d="M114 258V242H98V250C98 252.122 98.8429 254.157 100.343 255.657C101.843 257.157 103.878 258 106 258" fill="#21201E"/>
<path d="M114 322V306H106C103.878 306 101.843 306.843 100.343 308.343C98.8429 309.843 98 311.878 98 314C98 316.122 98.8429 318.157 100.343 319.657C101.843 321.157 103.878 322 106 322" fill="#21201E"/>
<path d="M122 162C126.418 162 130 158.418 130 154C130 149.582 126.418 146 122 146C117.582 146 114 149.582 114 154C114 158.418 117.582 162 122 162Z" fill="#21201E"/>
<path d="M122 194C126.418 194 130 190.418 130 186C130 181.582 126.418 178 122 178C117.582 178 114 181.582 114 186C114 190.418 117.582 194 122 194Z" fill="#21201E"/>
<path d="M130 210H114V226H130V210Z" fill="#21201E"/>
<path d="M114 242V258H122C124.122 258 126.157 257.157 127.657 255.657C129.157 254.157 130 252.122 130 250C130 247.878 129.157 245.843 127.657 244.343C126.157 242.843 124.122 242 122 242" fill="#21201E"/>
<path d="M122 290C126.418 290 130 286.418 130 282C130 277.582 126.418 274 122 274C117.582 274 114 277.582 114 282C114 286.418 117.582 290 122 290Z" fill="#21201E"/>
<path d="M114 306V322H122C124.122 322 126.157 321.157 127.657 319.657C129.157 318.157 130 316.122 130 314C130 311.878 129.157 309.843 127.657 308.343C126.157 306.843 124.122 306 122 306" fill="#21201E"/>
<path d="M130 354V338H122C119.878 338 117.843 338.843 116.343 340.343C114.843 341.843 114 343.878 114 346C114 348.122 114.843 350.157 116.343 351.657C117.843 353.157 119.878 354 122 354" fill="#21201E"/>
<path d="M130 210H146V194H138C135.878 194 133.843 194.843 132.343 196.343C130.843 197.843 130 199.878 130 202" fill="#21201E"/>
<path d="M146 210H130V226H146V210Z" fill="#21201E"/>
<path d="M130 338H146V322H138C135.878 322 133.843 322.843 132.343 324.343C130.843 325.843 130 327.878 130 330" fill="#21201E"/>
<path d="M146 338H130V354H138C140.122 354 142.157 353.157 143.657 351.657C145.157 350.157 146 348.122 146 346" fill="#21201E"/>
<path d="M154 50C158.418 50 162 46.4183 162 42C162 37.5817 158.418 34 154 34C149.582 34 146 37.5817 146 42C146 46.4183 149.582 50 154 50Z" fill="#21201E"/>
<path d="M146 130H162V122C162 119.878 161.157 117.843 159.657 116.343C158.157 114.843 156.122 114 154 114C151.878 114 149.843 114.843 148.343 116.343C146.843 117.843 146 119.878 146 122" fill="#21201E"/>
<path d="M162 130H146V146H162V130Z" fill="#21201E"/>
<path d="M162 146H146V154C146 156.122 146.843 158.157 148.343 159.657C149.843 161.157 151.878 162 154 162C156.122 162 158.157 161.157 159.657 159.657C161.157 158.157 162 156.122 162 154" fill="#21201E"/>
<path d="M146 194V210H162V202C162 199.878 161.157 197.843 159.657 196.343C158.157 194.843 156.122 194 154 194" fill="#21201E"/>
<path d="M162 210H146V226H162V210Z" fill="#21201E"/>
<path d="M146 274H162V266C162 263.878 161.157 261.843 159.657 260.343C158.157 258.843 156.122 258 154 258C151.878 258 149.843 258.843 148.343 260.343C146.843 261.843 146 263.878 146 266" fill="#21201E"/>
<path d="M162 274H146V282C146 284.122 146.843 286.157 148.343 287.657C149.843 289.157 151.878 290 154 290C156.122 290 158.157 289.157 159.657 287.657C161.157 286.157 162 284.122 162 282" fill="#21201E"/>
<path d="M146 322H162V314C162 311.878 161.157 309.843 159.657 308.343C158.157 306.843 156.122 306 154 306C151.878 306 149.843 306.843 148.343 308.343C146.843 309.843 146 311.878 146 314" fill="#21201E"/>
<path d="M162 322H146V338H154C156.122 338 158.157 337.157 159.657 335.657C161.157 334.157 162 332.122 162 330" fill="#21201E"/>
<path d="M162 370V354H154C151.878 354 149.843 354.843 148.343 356.343C146.843 357.843 146 359.878 146 362C146 364.122 146.843 366.157 148.343 367.657C149.843 369.157 151.878 370 154 370" fill="#21201E"/>
<path d="M146 466H162V450H154C151.878 450 149.843 450.843 148.343 452.343C146.843 453.843 146 455.878 146 458" fill="#21201E"/>
<path d="M162 466H146V474C146 476.122 146.843 478.157 148.343 479.657C149.843 481.157 151.878 482 154 482C156.122 482 158.157 481.157 159.657 479.657C161.157 478.157 162 476.122 162 474" fill="#21201E"/>
<path d="M170 66C174.418 66 178 62.4183 178 58C178 53.5817 174.418 50 170 50C165.582 50 162 53.5817 162 58C162 62.4183 165.582 66 170 66Z" fill="#21201E"/>
<path d="M162 178H178V170C178 167.878 177.157 165.843 175.657 164.343C174.157 162.843 172.122 162 170 162C167.878 162 165.843 162.843 164.343 164.343C162.843 165.843 162 167.878 162 170" fill="#21201E"/>
<path d="M178 194V178H162V186C162 188.122 162.843 190.157 164.343 191.657C165.843 193.157 167.878 194 170 194" fill="#21201E"/>
<path d="M162 210V226H170C172.122 226 174.157 225.157 175.657 223.657C177.157 222.157 178 220.122 178 218C178 215.878 177.157 213.843 175.657 212.343C174.157 210.843 172.122 210 170 210" fill="#21201E"/>
<path d="M178 258V242H170C167.878 242 165.843 242.843 164.343 244.343C162.843 245.843 162 247.878 162 250C162 252.122 162.843 254.157 164.343 255.657C165.843 257.157 167.878 258 170 258" fill="#21201E"/>
<path d="M162 354H178V346C178 343.878 177.157 341.843 175.657 340.343C174.157 338.843 172.122 338 170 338C167.878 338 165.843 338.843 164.343 340.343C162.843 341.843 162 343.878 162 346" fill="#21201E"/>
<path d="M178 354H162V370H178V354Z" fill="#21201E"/>
<path d="M178 418V402H170C167.878 402 165.843 402.843 164.343 404.343C162.843 405.843 162 407.878 162 410C162 412.122 162.843 414.157 164.343 415.657C165.843 417.157 167.878 418 170 418" fill="#21201E"/>
<path d="M162 450H178V442C178 439.878 177.157 437.843 175.657 436.343C174.157 434.843 172.122 434 170 434C167.878 434 165.843 434.843 164.343 436.343C162.843 437.843 162 439.878 162 442" fill="#21201E"/>
<path d="M178 450H162V466H170C172.122 466 174.157 465.157 175.657 463.657C177.157 462.157 178 460.122 178 458" fill="#21201E"/>
<path d="M178 34H194V26C194 23.8783 193.157 21.8434 191.657 20.3431C190.157 18.8428 188.122 18 186 18C183.878 18 181.843 18.8428 180.343 20.3431C178.843 21.8434 178 23.8783 178 26" fill="#21201E"/>
<path d="M194 50V34H178V42C178 44.1217 178.843 46.1566 180.343 47.6569C181.843 49.1571 183.878 50 186 50" fill="#21201E"/>
<path d="M178 98H194V82H186C183.878 82 181.843 82.8428 180.343 84.3431C178.843 85.8434 178 87.8783 178 90" fill="#21201E"/>
<path d="M194 98H178V114H194V98Z" fill="#21201E"/>
<path d="M194 114H178V130H194V114Z" fill="#21201E"/>
<path d="M194 130H178V146H194V130Z" fill="#21201E"/>
<path d="M194 146H178V154C178 156.122 178.843 158.157 180.343 159.657C181.843 161.157 183.878 162 186 162C188.122 162 190.157 161.157 191.657 159.657C193.157 158.157 194 156.122 194 154" fill="#21201E"/>
<path d="M178 178V194H194V186C194 183.878 193.157 181.843 191.657 180.343C190.157 178.843 188.122 178 186 178" fill="#21201E"/>
<path d="M194 210V194H178V202C178 204.122 178.843 206.157 180.343 207.657C181.843 209.157 183.878 210 186 210" fill="#21201E"/>
<path d="M178 242H194V234C194 231.878 193.157 229.843 191.657 228.343C190.157 226.843 188.122 226 186 226C183.878 226 181.843 226.843 180.343 228.343C178.843 229.843 178 231.878 178 234" fill="#21201E"/>
<path d="M194 242H178V258H194V242Z" fill="#21201E"/>
<path d="M194 258H178V266C178 268.122 178.843 270.157 180.343 271.657C181.843 273.157 183.878 274 186 274C188.122 274 190.157 273.157 191.657 271.657C193.157 270.157 194 268.122 194 266" fill="#21201E"/>
<path d="M194 322V306H186C183.878 306 181.843 306.843 180.343 308.343C178.843 309.843 178 311.878 178 314C178 316.122 178.843 318.157 180.343 319.657C181.843 321.157 183.878 322 186 322" fill="#21201E"/>
<path d="M178 354V370H194V362C194 359.878 193.157 357.843 191.657 356.343C190.157 354.843 188.122 354 186 354" fill="#21201E"/>
<path d="M194 386V370H178V378C178 380.122 178.843 382.157 180.343 383.657C181.843 385.157 183.878 386 186 386" fill="#21201E"/>
<path d="M194 402H178V418H194V402Z" fill="#21201E"/>
<path d="M194 34V50H210V42C210 39.8783 209.157 37.8434 207.657 36.3431C206.157 34.8429 204.122 34 202 34" fill="#21201E"/>
<path d="M210 50H194V58C194 60.1217 194.843 62.1566 196.343 63.6569C197.843 65.1572 199.878 66 202 66C204.122 66 206.157 65.1572 207.657 63.6569C209.157 62.1566 210 60.1217 210 58" fill="#21201E"/>
<path d="M194 82V98H202C204.122 98 206.157 97.1571 207.657 95.6569C209.157 94.1566 210 92.1217 210 90C210 87.8783 209.157 85.8434 207.657 84.3431C206.157 82.8429 204.122 82 202 82" fill="#21201E"/>
<path d="M210 130H194V146H210V130Z" fill="#21201E"/>
<path d="M194 194V210H210V202C210 199.878 209.157 197.843 207.657 196.343C206.157 194.843 204.122 194 202 194" fill="#21201E"/>
<path d="M210 210H194V218C194 220.122 194.843 222.157 196.343 223.657C197.843 225.157 199.878 226 202 226C204.122 226 206.157 225.157 207.657 223.657C209.157 222.157 210 220.122 210 218" fill="#21201E"/>
<path d="M210 242H194V258H210V242Z" fill="#21201E"/>
<path d="M202 290C206.418 290 210 286.418 210 282C210 277.582 206.418 274 202 274C197.582 274 194 277.582 194 282C194 286.418 197.582 290 202 290Z" fill="#21201E"/>
<path d="M194 306V322H210V314C210 311.878 209.157 309.843 207.657 308.343C206.157 306.843 204.122 306 202 306" fill="#21201E"/>
<path d="M210 322H194V338H210V322Z" fill="#21201E"/>
<path d="M210 354V338H194V346C194 348.122 194.843 350.157 196.343 351.657C197.843 353.157 199.878 354 202 354" fill="#21201E"/>
<path d="M210 370H194V386H210V370Z" fill="#21201E"/>
<path d="M194 402V418H210V410C210 407.878 209.157 405.843 207.657 404.343C206.157 402.843 204.122 402 202 402" fill="#21201E"/>
<path d="M210 418H194V426C194 428.122 194.843 430.157 196.343 431.657C197.843 433.157 199.878 434 202 434C204.122 434 206.157 433.157 207.657 431.657C209.157 430.157 210 428.122 210 426" fill="#21201E"/>
<path d="M210 114H226V106C226 103.878 225.157 101.843 223.657 100.343C222.157 98.8428 220.122 98 218 98C215.878 98 213.843 98.8428 212.343 100.343C210.843 101.843 210 103.878 210 106" fill="#21201E"/>
<path d="M226 114H210V130H226V114Z" fill="#21201E"/>
<path d="M226 130H210V146H226V130Z" fill="#21201E"/>
<path d="M226 242H210V258H226V242Z" fill="#21201E"/>
<path d="M210 338V354H226V346C226 343.878 225.157 341.843 223.657 340.343C222.157 338.843 220.122 338 218 338" fill="#21201E"/>
<path d="M226 354H210V370H226V354Z" fill="#21201E"/>
<path d="M226 370H210V386H226V370Z" fill="#21201E"/>
<path d="M226 466V450H218C215.878 450 213.843 450.843 212.343 452.343C210.843 453.843 210 455.878 210 458C210 460.122 210.843 462.157 212.343 463.657C213.843 465.157 215.878 466 218 466" fill="#21201E"/>
<path d="M242 50V34H234C231.878 34 229.843 34.8429 228.343 36.3431C226.843 37.8434 226 39.8783 226 42C226 44.1217 226.843 46.1566 228.343 47.6569C229.843 49.1571 231.878 50 234 50" fill="#21201E"/>
<path d="M226 82H242V74C242 71.8783 241.157 69.8434 239.657 68.3431C238.157 66.8428 236.122 66 234 66C231.878 66 229.843 66.8428 228.343 68.3431C226.843 69.8434 226 71.8783 226 74" fill="#21201E"/>
<path d="M242 98V82H226V90C226 92.1217 226.843 94.1566 228.343 95.6569C229.843 97.1571 231.878 98 234 98" fill="#21201E"/>
<path d="M226 130V146H242V138C242 135.878 241.157 133.843 239.657 132.343C238.157 130.843 236.122 130 234 130" fill="#21201E"/>
<path d="M242 162V146H226V154C226 156.122 226.843 158.157 228.343 159.657C229.843 161.157 231.878 162 234 162" fill="#21201E"/>
<path d="M226 210H242V194H234C231.878 194 229.843 194.843 228.343 196.343C226.843 197.843 226 199.878 226 202" fill="#21201E"/>
<path d="M242 210H226V218C226 220.122 226.843 222.157 228.343 223.657C229.843 225.157 231.878 226 234 226C236.122 226 238.157 225.157 239.657 223.657C241.157 222.157 242 220.122 242 218" fill="#21201E"/>
<path d="M226 242V258H242V250C242 247.878 241.157 245.843 239.657 244.343C238.157 242.843 236.122 242 234 242" fill="#21201E"/>
<path d="M242 274V258H226V266C226 268.122 226.843 270.157 228.343 271.657C229.843 273.157 231.878 274 234 274" fill="#21201E"/>
<path d="M226 306H242V290H234C231.878 290 229.843 290.843 228.343 292.343C226.843 293.843 226 295.878 226 298" fill="#21201E"/>
<path d="M242 306H226V322H242V306Z" fill="#21201E"/>
<path d="M242 322H226V330C226 332.122 226.843 334.157 228.343 335.657C229.843 337.157 231.878 338 234 338C236.122 338 238.157 337.157 239.657 335.657C241.157 334.157 242 332.122 242 330" fill="#21201E"/>
<path d="M226 370V386H234C236.122 386 238.157 385.157 239.657 383.657C241.157 382.157 242 380.122 242 378C242 375.878 241.157 373.843 239.657 372.343C238.157 370.843 236.122 370 234 370" fill="#21201E"/>
<path d="M226 418H242V410C242 407.878 241.157 405.843 239.657 404.343C238.157 402.843 236.122 402 234 402C231.878 402 229.843 402.843 228.343 404.343C226.843 405.843 226 407.878 226 410" fill="#21201E"/>
<path d="M242 418H226V426C226 428.122 226.843 430.157 228.343 431.657C229.843 433.157 231.878 434 234 434C236.122 434 238.157 433.157 239.657 431.657C241.157 430.157 242 428.122 242 426" fill="#21201E"/>
<path d="M226 450V466H242V458C242 455.878 241.157 453.843 239.657 452.343C238.157 450.843 236.122 450 234 450" fill="#21201E"/>
<path d="M242 466H226V474C226 476.122 226.843 478.157 228.343 479.657C229.843 481.157 231.878 482 234 482C236.122 482 238.157 481.157 239.657 479.657C241.157 478.157 242 476.122 242 474" fill="#21201E"/>
<path d="M242 34V50H258V42C258 39.8783 257.157 37.8434 255.657 36.3431C254.157 34.8429 252.122 34 250 34" fill="#21201E"/>
<path d="M258 66V50H242V58C242 60.1217 242.843 62.1566 244.343 63.6569C245.843 65.1571 247.878 66 250 66" fill="#21201E"/>
<path d="M258 82H242V98H258V82Z" fill="#21201E"/>
<path d="M250 130C254.418 130 258 126.418 258 122C258 117.582 254.418 114 250 114C245.582 114 242 117.582 242 122C242 126.418 245.582 130 250 130Z" fill="#21201E"/>
<path d="M242 146V162H258V154C258 151.878 257.157 149.843 255.657 148.343C254.157 146.843 252.122 146 250 146" fill="#21201E"/>
<path d="M258 162H242V170C242 172.122 242.843 174.157 244.343 175.657C245.843 177.157 247.878 178 250 178C252.122 178 254.157 177.157 255.657 175.657C257.157 174.157 258 172.122 258 170" fill="#21201E"/>
<path d="M258 194H242V210H258V194Z" fill="#21201E"/>
<path d="M242 258V274H250C252.122 274 254.157 273.157 255.657 271.657C257.157 270.157 258 268.122 258 266C258 263.878 257.157 261.843 255.657 260.343C254.157 258.843 252.122 258 250 258" fill="#21201E"/>
<path d="M258 290H242V306H258V290Z" fill="#21201E"/>
<path d="M242 354H258V338H250C247.878 338 245.843 338.843 244.343 340.343C242.843 341.843 242 343.878 242 346" fill="#21201E"/>
<path d="M258 370V354H242V362C242 364.122 242.843 366.157 244.343 367.657C245.843 369.157 247.878 370 250 370" fill="#21201E"/>
<path d="M250 402C254.418 402 258 398.418 258 394C258 389.582 254.418 386 250 386C245.582 386 242 389.582 242 394C242 398.418 245.582 402 250 402Z" fill="#21201E"/>
<path d="M274 50H258V66H274V50Z" fill="#21201E"/>
<path d="M274 66H258V82H274V66Z" fill="#21201E"/>
<path d="M274 82H258V98H274V82Z" fill="#21201E"/>
<path d="M274 98H258V106C258 108.122 258.843 110.157 260.343 111.657C261.843 113.157 263.878 114 266 114C268.122 114 270.157 113.157 271.657 111.657C273.157 110.157 274 108.122 274 106" fill="#21201E"/>
<path d="M266 146C270.418 146 274 142.418 274 138C274 133.582 270.418 130 266 130C261.582 130 258 133.582 258 138C258 142.418 261.582 146 266 146Z" fill="#21201E"/>
<path d="M274 194H258V210H274V194Z" fill="#21201E"/>
<path d="M274 210H258V226H274V210Z" fill="#21201E"/>
<path d="M274 226H258V242H274V226Z" fill="#21201E"/>
<path d="M274 258V242H258V250C258 252.122 258.843 254.157 260.343 255.657C261.843 257.157 263.878 258 266 258" fill="#21201E"/>
<path d="M258 290V306H274V298C274 295.878 273.157 293.843 271.657 292.343C270.157 290.843 268.122 290 266 290" fill="#21201E"/>
<path d="M274 306H258V322H274V306Z" fill="#21201E"/>
<path d="M274 322H258V338H274V322Z" fill="#21201E"/>
<path d="M274 338H258V354H274V338Z" fill="#21201E"/>
<path d="M274 354H258V370H274V354Z" fill="#21201E"/>
<path d="M274 370H258V378C258 380.122 258.843 382.157 260.343 383.657C261.843 385.157 263.878 386 266 386C268.122 386 270.157 385.157 271.657 383.657C273.157 382.157 274 380.122 274 378" fill="#21201E"/>
<path d="M258 418H274V410C274 407.878 273.157 405.843 271.657 404.343C270.157 402.843 268.122 402 266 402C263.878 402 261.843 402.843 260.343 404.343C258.843 405.843 258 407.878 258 410" fill="#21201E"/>
<path d="M274 418H258V434H274V418Z" fill="#21201E"/>
<path d="M274 434H258V450H274V434Z" fill="#21201E"/>
<path d="M274 450H258V466H274V450Z" fill="#21201E"/>
<path d="M274 466H258V474C258 476.122 258.843 478.157 260.343 479.657C261.843 481.157 263.878 482 266 482C268.122 482 270.157 481.157 271.657 479.657C273.157 478.157 274 476.122 274 474" fill="#21201E"/>
<path d="M274 34H290V18H282C279.878 18 277.843 18.8428 276.343 20.3431C274.843 21.8434 274 23.8783 274 26" fill="#21201E"/>
<path d="M290 34H274V50H290V34Z" fill="#21201E"/>
<path d="M290 50H274V66H282C284.122 66 286.157 65.1572 287.657 63.6569C289.157 62.1566 290 60.1217 290 58" fill="#21201E"/>
<path d="M282 130C286.418 130 290 126.418 290 122C290 117.582 286.418 114 282 114C277.582 114 274 117.582 274 122C274 126.418 277.582 130 282 130Z" fill="#21201E"/>
<path d="M274 162H290V146H282C279.878 146 277.843 146.843 276.343 148.343C274.843 149.843 274 151.878 274 154" fill="#21201E"/>
<path d="M290 178V162H274V170C274 172.122 274.843 174.157 276.343 175.657C277.843 177.157 279.878 178 282 178" fill="#21201E"/>
<path d="M274 194V210H290V202C290 199.878 289.157 197.843 287.657 196.343C286.157 194.843 284.122 194 282 194" fill="#21201E"/>
<path d="M290 210H274V226H282C284.122 226 286.157 225.157 287.657 223.657C289.157 222.157 290 220.122 290 218" fill="#21201E"/>
<path d="M274 242V258H282C284.122 258 286.157 257.157 287.657 255.657C289.157 254.157 290 252.122 290 250C290 247.878 289.157 245.843 287.657 244.343C286.157 242.843 284.122 242 282 242" fill="#21201E"/>
<path d="M282 290C286.418 290 290 286.418 290 282C290 277.582 286.418 274 282 274C277.582 274 274 277.582 274 282C274 286.418 277.582 290 282 290Z" fill="#21201E"/>
<path d="M282 402C286.418 402 290 398.418 290 394C290 389.582 286.418 386 282 386C277.582 386 274 389.582 274 394C274 398.418 277.582 402 282 402Z" fill="#21201E"/>
<path d="M274 418V434H290V426C290 423.878 289.157 421.843 287.657 420.343C286.157 418.843 284.122 418 282 418" fill="#21201E"/>
<path d="M290 434H274V450H290V434Z" fill="#21201E"/>
<path d="M290 450H274V466H282C284.122 466 286.157 465.157 287.657 463.657C289.157 462.157 290 460.122 290 458" fill="#21201E"/>
<path d="M306 18H290V34H306V18Z" fill="#21201E"/>
<path d="M306 82V66H298C295.878 66 293.843 66.8429 292.343 68.3431C290.843 69.8434 290 71.8783 290 74C290 76.1217 290.843 78.1566 292.343 79.6569C293.843 81.1571 295.878 82 298 82" fill="#21201E"/>
<path d="M290 146H306V138C306 135.878 305.157 133.843 303.657 132.343C302.157 130.843 300.122 130 298 130C295.878 130 293.843 130.843 292.343 132.343C290.843 133.843 290 135.878 290 138" fill="#21201E"/>
<path d="M306 146H290V162H306V146Z" fill="#21201E"/>
<path d="M306 162H290V178H298C300.122 178 302.157 177.157 303.657 175.657C305.157 174.157 306 172.122 306 170" fill="#21201E"/>
<path d="M306 322V306H298C295.878 306 293.843 306.843 292.343 308.343C290.843 309.843 290 311.878 290 314C290 316.122 290.843 318.157 292.343 319.657C293.843 321.157 295.878 322 298 322" fill="#21201E"/>
<path d="M306 354V338H298C295.878 338 293.843 338.843 292.343 340.343C290.843 341.843 290 343.878 290 346C290 348.122 290.843 350.157 292.343 351.657C293.843 353.157 295.878 354 298 354" fill="#21201E"/>
<path d="M306 418V402H298C295.878 402 293.843 402.843 292.343 404.343C290.843 405.843 290 407.878 290 410C290 412.122 290.843 414.157 292.343 415.657C293.843 417.157 295.878 418 298 418" fill="#21201E"/>
<path d="M306 482V466H298C295.878 466 293.843 466.843 292.343 468.343C290.843 469.843 290 471.878 290 474C290 476.122 290.843 478.157 292.343 479.657C293.843 481.157 295.878 482 298 482" fill="#21201E"/>
<path d="M322 18H306V34H322V18Z" fill="#21201E"/>
<path d="M322 34H306V42C306 44.1217 306.843 46.1566 308.343 47.6569C309.843 49.1572 311.878 50 314 50C316.122 50 318.157 49.1572 319.657 47.6569C321.157 46.1566 322 44.1217 322 42" fill="#21201E"/>
<path d="M322 66H306V82H322V66Z" fill="#21201E"/>
<path d="M322 98V82H306V90C306 92.1217 306.843 94.1566 308.343 95.6569C309.843 97.1571 311.878 98 314 98" fill="#21201E"/>
<path d="M314 130C318.418 130 322 126.418 322 122C322 117.582 318.418 114 314 114C309.582 114 306 117.582 306 122C306 126.418 309.582 130 314 130Z" fill="#21201E"/>
<path d="M322 226V210H314C311.878 210 309.843 210.843 308.343 212.343C306.843 213.843 306 215.878 306 218C306 220.122 306.843 222.157 308.343 223.657C309.843 225.157 311.878 226 314 226" fill="#21201E"/>
<path d="M306 258H322V250C322 247.878 321.157 245.843 319.657 244.343C318.157 242.843 316.122 242 314 242C311.878 242 309.843 242.843 308.343 244.343C306.843 245.843 306 247.878 306 250" fill="#21201E"/>
<path d="M322 258H306V266C306 268.122 306.843 270.157 308.343 271.657C309.843 273.157 311.878 274 314 274C316.122 274 318.157 273.157 319.657 271.657C321.157 270.157 322 268.122 322 266" fill="#21201E"/>
<path d="M306 306H322V298C322 295.878 321.157 293.843 319.657 292.343C318.157 290.843 316.122 290 314 290C311.878 290 309.843 290.843 308.343 292.343C306.843 293.843 306 295.878 306 298" fill="#21201E"/>
<path d="M322 306H306V322H322V306Z" fill="#21201E"/>
<path d="M322 322H306V338H322V322Z" fill="#21201E"/>
<path d="M322 338H306V354H314C316.122 354 318.157 353.157 319.657 351.657C321.157 350.157 322 348.122 322 346" fill="#21201E"/>
<path d="M322 402H306V418H322V402Z" fill="#21201E"/>
<path d="M322 418H306V434H322V418Z" fill="#21201E"/>
<path d="M322 434H306V442C306 444.122 306.843 446.157 308.343 447.657C309.843 449.157 311.878 450 314 450C316.122 450 318.157 449.157 319.657 447.657C321.157 446.157 322 444.122 322 442" fill="#21201E"/>
<path d="M322 466H306V482H322V466Z" fill="#21201E"/>
<path d="M338 18H322V34H338V18Z" fill="#21201E"/>
<path d="M338 66H322V82H338V66Z" fill="#21201E"/>
<path d="M338 82H322V98H338V82Z" fill="#21201E"/>
<path d="M338 114V98H322V106C322 108.122 322.843 110.157 324.343 111.657C325.843 113.157 327.878 114 330 114" fill="#21201E"/>
<path d="M338 146V130H330C327.878 130 325.843 130.843 324.343 132.343C322.843 133.843 322 135.878 322 138C322 140.122 322.843 142.157 324.343 143.657C325.843 145.157 327.878 146 330 146" fill="#21201E"/>
<path d="M322 178H338V170C338 167.878 337.157 165.843 335.657 164.343C334.157 162.843 332.122 162 330 162C327.878 162 325.843 162.843 324.343 164.343C322.843 165.843 322 167.878 322 170" fill="#21201E"/>
<path d="M338 194V178H322V186C322 188.122 322.843 190.157 324.343 191.657C325.843 193.157 327.878 194 330 194" fill="#21201E"/>
<path d="M322 210V226H330C332.122 226 334.157 225.157 335.657 223.657C337.157 222.157 338 220.122 338 218C338 215.878 337.157 213.843 335.657 212.343C334.157 210.843 332.122 210 330 210" fill="#21201E"/>
<path d="M322 370H338V354H330C327.878 354 325.843 354.843 324.343 356.343C322.843 357.843 322 359.878 322 362" fill="#21201E"/>
<path d="M338 386V370H322V378C322 380.122 322.843 382.157 324.343 383.657C325.843 385.157 327.878 386 330 386" fill="#21201E"/>
<path d="M338 402H322V418H338V402Z" fill="#21201E"/>
<path d="M338 466H322V482H338V466Z" fill="#21201E"/>
<path d="M338 18V34H346C348.122 34 350.157 33.1571 351.657 31.6569C353.157 30.1566 354 28.1217 354 26C354 23.8783 353.157 21.8434 351.657 20.3431C350.157 18.8429 348.122 18 346 18" fill="#21201E"/>
<path d="M338 66H354V58C354 55.8783 353.157 53.8434 351.657 52.3431C350.157 50.8428 348.122 50 346 50C343.878 50 341.843 50.8428 340.343 52.3431C338.843 53.8434 338 55.8783 338 58" fill="#21201E"/>
<path d="M354 66H338V82H354V66Z" fill="#21201E"/>
<path d="M354 82H338V98H354V82Z" fill="#21201E"/>
<path d="M354 98H338V114H354V98Z" fill="#21201E"/>
<path d="M354 114H338V130H354V114Z" fill="#21201E"/>
<path d="M354 130H338V146H346C348.122 146 350.157 145.157 351.657 143.657C353.157 142.157 354 140.122 354 138" fill="#21201E"/>
<path d="M354 178H338V194H354V178Z" fill="#21201E"/>
<path d="M338 242H354V234C354 231.878 353.157 229.843 351.657 228.343C350.157 226.843 348.122 226 346 226C343.878 226 341.843 226.843 340.343 228.343C338.843 229.843 338 231.878 338 234" fill="#21201E"/>
<path d="M354 242H338V258H354V242Z" fill="#21201E"/>
<path d="M354 274V258H338V266C338 268.122 338.843 270.157 340.343 271.657C341.843 273.157 343.878 274 346 274" fill="#21201E"/>
<path d="M346 306C350.418 306 354 302.418 354 298C354 293.582 350.418 290 346 290C341.582 290 338 293.582 338 298C338 302.418 341.582 306 346 306Z" fill="#21201E"/>
<path d="M338 338H354V322H346C343.878 322 341.843 322.843 340.343 324.343C338.843 325.843 338 327.878 338 330" fill="#21201E"/>
<path d="M354 338H338V354H354V338Z" fill="#21201E"/>
<path d="M354 354H338V370H354V354Z" fill="#21201E"/>
<path d="M354 370H338V386H354V370Z" fill="#21201E"/>
<path d="M354 386H338V402H354V386Z" fill="#21201E"/>
<path d="M354 402H338V418H354V402Z" fill="#21201E"/>
<path d="M338 450H354V434H346C343.878 434 341.843 434.843 340.343 436.343C338.843 437.843 338 439.878 338 442" fill="#21201E"/>
<path d="M354 450H338V466H354V450Z" fill="#21201E"/>
<path d="M354 466H338V482H346C348.122 482 350.157 481.157 351.657 479.657C353.157 478.157 354 476.122 354 474" fill="#21201E"/>
<path d="M370 162V146H362C359.878 146 357.843 146.843 356.343 148.343C354.843 149.843 354 151.878 354 154C354 156.122 354.843 158.157 356.343 159.657C357.843 161.157 359.878 162 362 162" fill="#21201E"/>
<path d="M354 178V194H370V186C370 183.878 369.157 181.843 367.657 180.343C366.157 178.843 364.122 178 362 178" fill="#21201E"/>
<path d="M370 194H354V202C354 204.122 354.843 206.157 356.343 207.657C357.843 209.157 359.878 210 362 210C364.122 210 366.157 209.157 367.657 207.657C369.157 206.157 370 204.122 370 202" fill="#21201E"/>
<path d="M370 258H354V274H370V258Z" fill="#21201E"/>
<path d="M370 290V274H354V282C354 284.122 354.843 286.157 356.343 287.657C357.843 289.157 359.878 290 362 290" fill="#21201E"/>
<path d="M370 322H354V338H370V322Z" fill="#21201E"/>
<path d="M370 338H354V354H370V338Z" fill="#21201E"/>
<path d="M370 402H354V418H370V402Z" fill="#21201E"/>
<path d="M370 418H354V434H370V418Z" fill="#21201E"/>
<path d="M370 434H354V450H362C364.122 450 366.157 449.157 367.657 447.657C369.157 446.157 370 444.122 370 442" fill="#21201E"/>
<path d="M370 146V162H386V154C386 151.878 385.157 149.843 383.657 148.343C382.157 146.843 380.122 146 378 146" fill="#21201E"/>
<path d="M386 178V162H370V170C370 172.122 370.843 174.157 372.343 175.657C373.843 177.157 375.878 178 378 178" fill="#21201E"/>
<path d="M386 226V210H378C375.878 210 373.843 210.843 372.343 212.343C370.843 213.843 370 215.878 370 218C370 220.122 370.843 222.157 372.343 223.657C373.843 225.157 375.878 226 378 226" fill="#21201E"/>
<path d="M370 258H386V242H378C375.878 242 373.843 242.843 372.343 244.343C370.843 245.843 370 247.878 370 250" fill="#21201E"/>
<path d="M386 258H370V274H386V258Z" fill="#21201E"/>
<path d="M386 274H370V290H378C380.122 290 382.157 289.157 383.657 287.657C385.157 286.157 386 284.122 386 282" fill="#21201E"/>
<path d="M370 322H386V314C386 311.878 385.157 309.843 383.657 308.343C382.157 306.843 380.122 306 378 306C375.878 306 373.843 306.843 372.343 308.343C370.843 309.843 370 311.878 370 314" fill="#21201E"/>
<path d="M386 322H370V338H386V322Z" fill="#21201E"/>
<path d="M386 338H370V354H386V338Z" fill="#21201E"/>
<path d="M378 386C382.418 386 386 382.418 386 378C386 373.582 382.418 370 378 370C373.582 370 370 373.582 370 378C370 382.418 373.582 386 378 386Z" fill="#21201E"/>
<path d="M386 402H370V418H386V402Z" fill="#21201E"/>
<path d="M386 162V178H394C396.122 178 398.157 177.157 399.657 175.657C401.157 174.157 402 172.122 402 170C402 167.878 401.157 165.843 399.657 164.343C398.157 162.843 396.122 162 394 162" fill="#21201E"/>
<path d="M386 210H402V194H394C391.878 194 389.843 194.843 388.343 196.343C386.843 197.843 386 199.878 386 202" fill="#21201E"/>
<path d="M402 210H386V226H402V210Z" fill="#21201E"/>
<path d="M402 226H386V242H402V226Z" fill="#21201E"/>
<path d="M402 242H386V258H402V242Z" fill="#21201E"/>
<path d="M402 258H386V274H402V258Z" fill="#21201E"/>
<path d="M402 322H386V338H402V322Z" fill="#21201E"/>
<path d="M402 338H386V354H402V338Z" fill="#21201E"/>
<path d="M402 402H386V418H402V402Z" fill="#21201E"/>
<path d="M402 418H386V426C386 428.122 386.843 430.157 388.343 431.657C389.843 433.157 391.878 434 394 434C396.122 434 398.157 433.157 399.657 431.657C401.157 430.157 402 428.122 402 426" fill="#21201E"/>
<path d="M394 482C398.418 482 402 478.418 402 474C402 469.582 398.418 466 394 466C389.582 466 386 469.582 386 474C386 478.418 389.582 482 394 482Z" fill="#21201E"/>
<path d="M418 194H402V210H418V194Z" fill="#21201E"/>
<path d="M418 210H402V226H418V210Z" fill="#21201E"/>
<path d="M418 226H402V242H418V226Z" fill="#21201E"/>
<path d="M418 242H402V258H418V242Z" fill="#21201E"/>
<path d="M418 258H402V274H418V258Z" fill="#21201E"/>
<path d="M418 274H402V290H418V274Z" fill="#21201E"/>
<path d="M418 290H402V306H418V290Z" fill="#21201E"/>
<path d="M418 306H402V322H418V306Z" fill="#21201E"/>
<path d="M418 322H402V338H418V322Z" fill="#21201E"/>
<path d="M418 338H402V354H418V338Z" fill="#21201E"/>
<path d="M418 354H402V370H418V354Z" fill="#21201E"/>
<path d="M418 370H402V386H418V370Z" fill="#21201E"/>
<path d="M418 386H402V402H418V386Z" fill="#21201E"/>
<path d="M418 402H402V418H410C412.122 418 414.157 417.157 415.657 415.657C417.157 414.157 418 412.122 418 410" fill="#21201E"/>
<path d="M434 178V162H426C423.878 162 421.843 162.843 420.343 164.343C418.843 165.843 418 167.878 418 170C418 172.122 418.843 174.157 420.343 175.657C421.843 177.157 423.878 178 426 178" fill="#21201E"/>
<path d="M418 194V210H434V202C434 199.878 433.157 197.843 431.657 196.343C430.157 194.843 428.122 194 426 194" fill="#21201E"/>
<path d="M434 210H418V226H434V210Z" fill="#21201E"/>
<path d="M418 242V258H426C428.122 258 430.157 257.157 431.657 255.657C433.157 254.157 434 252.122 434 250C434 247.878 433.157 245.843 431.657 244.343C430.157 242.843 428.122 242 426 242" fill="#21201E"/>
<path d="M418 274V290H426C428.122 290 430.157 289.157 431.657 287.657C433.157 286.157 434 284.122 434 282C434 279.878 433.157 277.843 431.657 276.343C430.157 274.843 428.122 274 426 274" fill="#21201E"/>
<path d="M434 322H418V338H434V322Z" fill="#21201E"/>
<path d="M434 338H418V354H434V338Z" fill="#21201E"/>
<path d="M434 386H418V402H434V386Z" fill="#21201E"/>
<path d="M418 434H434V418H426C423.878 418 421.843 418.843 420.343 420.343C418.843 421.843 418 423.878 418 426" fill="#21201E"/>
<path d="M434 434H418V450H434V434Z" fill="#21201E"/>
<path d="M434 466V450H418V458C418 460.122 418.843 462.157 420.343 463.657C421.843 465.157 423.878 466 426 466" fill="#21201E"/>
<path d="M434 162V178H450V170C450 167.878 449.157 165.843 447.657 164.343C446.157 162.843 444.122 162 442 162" fill="#21201E"/>
<path d="M450 178H434V186C434 188.122 434.843 190.157 436.343 191.657C437.843 193.157 439.878 194 442 194C444.122 194 446.157 193.157 447.657 191.657C449.157 190.157 450 188.122 450 186" fill="#21201E"/>
<path d="M450 210H434V226H450V210Z" fill="#21201E"/>
<path d="M450 226H434V234C434 236.122 434.843 238.157 436.343 239.657C437.843 241.157 439.878 242 442 242C444.122 242 446.157 241.157 447.657 239.657C449.157 238.157 450 236.122 450 234" fill="#21201E"/>
<path d="M434 306H450V298C450 295.878 449.157 293.843 447.657 292.343C446.157 290.843 444.122 290 442 290C439.878 290 437.843 290.843 436.343 292.343C434.843 293.843 434 295.878 434 298" fill="#21201E"/>
<path d="M450 306H434V322H450V306Z" fill="#21201E"/>
<path d="M450 322H434V338H450V322Z" fill="#21201E"/>
<path d="M450 338H434V354H450V338Z" fill="#21201E"/>
<path d="M450 354H434V370H450V354Z" fill="#21201E"/>
<path d="M450 370H434V386H450V370Z" fill="#21201E"/>
<path d="M450 386H434V402H450V386Z" fill="#21201E"/>
<path d="M450 402H434V418H450V402Z" fill="#21201E"/>
<path d="M450 418H434V434H450V418Z" fill="#21201E"/>
<path d="M450 434H434V450H450V434Z" fill="#21201E"/>
<path d="M450 450H434V466H442C444.122 466 446.157 465.157 447.657 463.657C449.157 462.157 450 460.122 450 458" fill="#21201E"/>
<path d="M458 162C462.418 162 466 158.418 466 154C466 149.582 462.418 146 458 146C453.582 146 450 149.582 450 154C450 158.418 453.582 162 458 162Z" fill="#21201E"/>
<path d="M466 210H450V226H466V210Z" fill="#21201E"/>
<path d="M450 258H466V242H458C455.878 242 453.843 242.843 452.343 244.343C450.843 245.843 450 247.878 450 250" fill="#21201E"/>
<path d="M466 258H450V266C450 268.122 450.843 270.157 452.343 271.657C453.843 273.157 455.878 274 458 274C460.122 274 462.157 273.157 463.657 271.657C465.157 270.157 466 268.122 466 266" fill="#21201E"/>
<path d="M466 322H450V338H466V322Z" fill="#21201E"/>
<path d="M466 338H450V354H466V338Z" fill="#21201E"/>
<path d="M466 354H450V370H466V354Z" fill="#21201E"/>
<path d="M466 402H450V418H466V402Z" fill="#21201E"/>
<path d="M466 418H450V434H466V418Z" fill="#21201E"/>
<path d="M466 434H450V450H466V434Z" fill="#21201E"/>
<path d="M458 482C462.418 482 466 478.418 466 474C466 469.582 462.418 466 458 466C453.582 466 450 469.582 450 474C450 478.418 453.582 482 458 482Z" fill="#21201E"/>
<path d="M474 178C478.418 178 482 174.418 482 170C482 165.582 478.418 162 474 162C469.582 162 466 165.582 466 170C466 174.418 469.582 178 474 178Z" fill="#21201E"/>
<path d="M466 210H482V202C482 199.878 481.157 197.843 479.657 196.343C478.157 194.843 476.122 194 474 194C471.878 194 469.843 194.843 468.343 196.343C466.843 197.843 466 199.878 466 202" fill="#21201E"/>
<path d="M482 210H466V226H474C476.122 226 478.157 225.157 479.657 223.657C481.157 222.157 482 220.122 482 218" fill="#21201E"/>
<path d="M466 242V258H474C476.122 258 478.157 257.157 479.657 255.657C481.157 254.157 482 252.122 482 250C482 247.878 481.157 245.843 479.657 244.343C478.157 242.843 476.122 242 474 242" fill="#21201E"/>
<path d="M466 290H482V282C482 279.878 481.157 277.843 479.657 276.343C478.157 274.843 476.122 274 474 274C471.878 274 469.843 274.843 468.343 276.343C466.843 277.843 466 279.878 466 282" fill="#21201E"/>
<path d="M482 290H466V298C466 300.122 466.843 302.157 468.343 303.657C469.843 305.157 471.878 306 474 306C476.122 306 478.157 305.157 479.657 303.657C481.157 302.157 482 300.122 482 298" fill="#21201E"/>
<path d="M466 322V338H474C476.122 338 478.157 337.157 479.657 335.657C481.157 334.157 482 332.122 482 330C482 327.878 481.157 325.843 479.657 324.343C478.157 322.843 476.122 322 474 322" fill="#21201E"/>
<path d="M466 354V370H474C476.122 370 478.157 369.157 479.657 367.657C481.157 366.157 482 364.122 482 362C482 359.878 481.157 357.843 479.657 356.343C478.157 354.843 476.122 354 474 354" fill="#21201E"/>
<path d="M466 402V418H482V410C482 407.878 481.157 405.843 479.657 404.343C478.157 402.843 476.122 402 474 402" fill="#21201E"/>
<path d="M482 418H466V434H482V418Z" fill="#21201E"/>
<path d="M482 434H466V450H474C476.122 450 478.157 449.157 479.657 447.657C481.157 446.157 482 444.122 482 442" fill="#21201E"/>
<path fill-rule="evenodd" clip-rule="evenodd" d="M74 18C59.1522 18.0133 44.9175 23.9225 34.4255 34.4285C23.9336 44.9345 18.0434 59.1772 18.05 74.025C18.0566 88.8728 23.9595 103.11 34.4609 113.607C44.9622 124.103 59.2022 130 74.05 130C88.8978 130 103.138 124.103 113.639 113.607C124.14 103.11 130.043 88.8728 130.05 74.025C130.057 59.1772 124.166 44.9345 113.674 34.4285C103.183 23.9225 88.9478 18.0133 74.1 18H74ZM74 34C84.6043 34.0133 94.7694 38.2368 102.261 45.7422C109.752 53.2476 113.957 63.4206 113.95 74.025C113.943 84.6293 109.726 94.797 102.225 102.293C94.7247 109.789 84.5543 114 73.95 114C63.3457 114 53.1753 109.789 45.6746 102.293C38.1738 94.797 33.9566 84.6293 33.95 74.025C33.9434 63.4206 38.1479 53.2476 45.6392 45.7422C53.1306 38.2368 63.2957 34.0133 73.9 34H74Z" fill="#21201E"/>
<path d="M74 98C87.2548 98 98 87.2548 98 74C98 60.7452 87.2548 50 74 50C60.7452 50 50 60.7452 50 74C50 87.2548 60.7452 98 74 98Z" fill="#21201E"/>
<path fill-rule="evenodd" clip-rule="evenodd" d="M482 74C481.987 59.1522 476.077 44.9175 465.571 34.4255C455.065 23.9336 440.823 18.0434 425.975 18.05C411.127 18.0567 396.89 23.9595 386.393 34.4609C375.897 44.9622 370 59.2022 370 74.05C370 88.8978 375.897 103.138 386.393 113.639C396.89 124.14 411.127 130.043 425.975 130.05C440.823 130.057 455.065 124.166 465.571 113.675C476.077 103.183 481.987 88.9478 482 74.1V74ZM466 74C465.987 84.6043 461.763 94.7694 454.258 102.261C446.752 109.752 436.579 113.957 425.975 113.95C415.371 113.943 405.203 109.726 397.707 102.225C390.211 94.7247 386 84.5543 386 73.95C386 63.3457 390.211 53.1753 397.707 45.6746C405.203 38.1738 415.371 33.9566 425.975 33.95C436.579 33.9434 446.752 38.1479 454.258 45.6392C461.763 53.1306 465.987 63.2957 466 73.9V74Z" fill="#21201E"/>
<path d="M402 74C402 87.2548 412.745 98 426 98C439.255 98 450 87.2548 450 74C450 60.7452 439.255 50 426 50C412.745 50 402 60.7452 402 74Z" fill="#21201E"/>
<path fill-rule="evenodd" clip-rule="evenodd" d="M18 426C18.0133 440.848 23.9225 455.083 34.4285 465.574C44.9345 476.066 59.1772 481.957 74.025 481.95C88.8728 481.943 103.11 476.04 113.607 465.539C124.103 455.038 130 440.798 130 425.95C130 411.102 124.103 396.862 113.607 386.361C103.11 375.86 88.8728 369.957 74.025 369.95C59.1772 369.943 44.9345 375.834 34.4285 386.326C23.9225 396.817 18.0133 411.052 18 425.9V426ZM34 426C34.0133 415.396 38.2368 405.231 45.7422 397.739C53.2476 390.248 63.4206 386.043 74.025 386.05C84.6293 386.057 94.797 390.274 102.293 397.775C109.789 405.275 114 415.446 114 426.05C114 436.654 109.789 446.825 102.293 454.325C94.797 461.826 84.6293 466.043 74.025 466.05C63.4206 466.057 53.2476 461.852 45.7422 454.361C38.2368 446.869 34.0133 436.704 34 426.1V426Z" fill="#21201E"/>
<path d="M98 426C98 412.745 87.2548 402 74 402C60.7452 402 50 412.745 50 426C50 439.255 60.7452 450 74 450C87.2548 450 98 439.255 98 426Z" fill="#21201E"/>
</svg>
