<svg width="500" height="500" viewBox="0 0 500 500" fill="none" xmlns="http://www.w3.org/2000/svg">
<mask id="mask0_8270_12497" style="mask-type:luminance" maskUnits="userSpaceOnUse" x="18" y="18" width="464" height="464">
<path d="M18 162H34V146H26C23.8783 146 21.8434 146.843 20.3431 148.343C18.8428 149.843 18 151.878 18 154" fill="white"/>
<path d="M34 162H18V178H34V162Z" fill="white"/>
<path d="M34 194V178H18L18 186C18 188.122 18.8429 190.157 20.3431 191.657C21.8434 193.157 23.8783 194 26 194" fill="white"/>
<path d="M34 226V210H26C23.8783 210 21.8434 210.843 20.3431 212.343C18.8429 213.843 18 215.878 18 218C18 220.122 18.8429 222.157 20.3431 223.657C21.8434 225.157 23.8783 226 26 226" fill="white"/>
<path d="M18 306H34V298C34 295.878 33.1572 293.843 31.6569 292.343C30.1566 290.843 28.1217 290 26 290C23.8783 290 21.8434 290.843 20.3431 292.343C18.8428 293.843 18 295.878 18 298" fill="white"/>
<path d="M34 306H18V322H34V306Z" fill="white"/>
<path d="M34 338V322H18L18 330C18 332.122 18.8429 334.157 20.3431 335.657C21.8434 337.157 23.8783 338 26 338" fill="white"/>
<path d="M34 146V162H42C44.1217 162 46.1566 161.157 47.6569 159.657C49.1571 158.157 50 156.122 50 154C50 151.878 49.1571 149.843 47.6569 148.343C46.1566 146.843 44.1217 146 42 146" fill="white"/>
<path d="M50 178H34V194H50V178Z" fill="white"/>
<path d="M50 194H34V210H50V194Z" fill="white"/>
<path d="M50 210H34V226H50V210Z" fill="white"/>
<path d="M50 226H34V242H50V226Z" fill="white"/>
<path d="M50 242H34V258H50V242Z" fill="white"/>
<path d="M50 258H34V274H50V258Z" fill="white"/>
<path d="M50 290V274H34V282C34 284.122 34.8429 286.157 36.3431 287.657C37.8434 289.157 39.8783 290 42 290" fill="white"/>
<path d="M34 306V322H50V314C50 311.878 49.1571 309.843 47.6569 308.343C46.1566 306.843 44.1217 306 42 306" fill="white"/>
<path d="M50 322H34V338H50V322Z" fill="white"/>
<path d="M50 178V194H66V186C66 183.878 65.1571 181.843 63.6569 180.343C62.1566 178.843 60.1217 178 58 178" fill="white"/>
<path d="M66 194H50V210H66V194Z" fill="white"/>
<path d="M50 226V242H66V234C66 231.878 65.1571 229.843 63.6569 228.343C62.1566 226.843 60.1217 226 58 226" fill="white"/>
<path d="M66 242H50V258H66V242Z" fill="white"/>
<path d="M66 258H50V274H66V258Z" fill="white"/>
<path d="M66 274H50V290H58C60.1217 290 62.1566 289.157 63.6569 287.657C65.1572 286.157 66 284.122 66 282" fill="white"/>
<path d="M66 322H50V338H66V322Z" fill="white"/>
<path d="M66 338H50V346C50 348.122 50.8428 350.157 52.3431 351.657C53.8434 353.157 55.8783 354 58 354C60.1217 354 62.1566 353.157 63.6569 351.657C65.1572 350.157 66 348.122 66 346" fill="white"/>
<path d="M82 178V162H74C71.8783 162 69.8434 162.843 68.3431 164.343C66.8429 165.843 66 167.878 66 170C66 172.122 66.8429 174.157 68.3431 175.657C69.8434 177.157 71.8783 178 74 178" fill="white"/>
<path d="M66 194V210H82V202C82 199.878 81.1571 197.843 79.6569 196.343C78.1566 194.843 76.1217 194 74 194" fill="white"/>
<path d="M82 210H66V218C66 220.122 66.8428 222.157 68.3431 223.657C69.8434 225.157 71.8783 226 74 226C76.1217 226 78.1566 225.157 79.6569 223.657C81.1572 222.157 82 220.122 82 218" fill="white"/>
<path d="M66 242V258H74C76.1217 258 78.1566 257.157 79.6569 255.657C81.1571 254.157 82 252.122 82 250C82 247.878 81.1571 245.843 79.6569 244.343C78.1566 242.843 76.1217 242 74 242" fill="white"/>
<path d="M74 306C78.4183 306 82 302.418 82 298C82 293.582 78.4183 290 74 290C69.5817 290 66 293.582 66 298C66 302.418 69.5817 306 74 306Z" fill="white"/>
<path d="M82 322H66V338H82V322Z" fill="white"/>
<path d="M82 162V178H90C92.1217 178 94.1566 177.157 95.6569 175.657C97.1571 174.157 98 172.122 98 170C98 167.878 97.1571 165.843 95.6569 164.343C94.1566 162.843 92.1217 162 90 162" fill="white"/>
<path d="M90 242C94.4183 242 98 238.418 98 234C98 229.582 94.4183 226 90 226C85.5817 226 82 229.582 82 234C82 238.418 85.5817 242 90 242Z" fill="white"/>
<path d="M82 274H98V266C98 263.878 97.1572 261.843 95.6569 260.343C94.1566 258.843 92.1217 258 90 258C87.8783 258 85.8434 258.843 84.3431 260.343C82.8428 261.843 82 263.878 82 266" fill="white"/>
<path d="M98 274H82V282C82 284.122 82.8428 286.157 84.3431 287.657C85.8434 289.157 87.8783 290 90 290C92.1217 290 94.1566 289.157 95.6569 287.657C97.1572 286.157 98 284.122 98 282" fill="white"/>
<path d="M82 322V338H90C92.1217 338 94.1566 337.157 95.6569 335.657C97.1571 334.157 98 332.122 98 330C98 327.878 97.1571 325.843 95.6569 324.343C94.1566 322.843 92.1217 322 90 322" fill="white"/>
<path d="M114 194V178H106C103.878 178 101.843 178.843 100.343 180.343C98.8429 181.843 98 183.878 98 186C98 188.122 98.8429 190.157 100.343 191.657C101.843 193.157 103.878 194 106 194" fill="white"/>
<path d="M114 226V210H106C103.878 210 101.843 210.843 100.343 212.343C98.8429 213.843 98 215.878 98 218C98 220.122 98.8429 222.157 100.343 223.657C101.843 225.157 103.878 226 106 226" fill="white"/>
<path d="M114 258V242H106C103.878 242 101.843 242.843 100.343 244.343C98.8429 245.843 98 247.878 98 250C98 252.122 98.8429 254.157 100.343 255.657C101.843 257.157 103.878 258 106 258" fill="white"/>
<path d="M114 322V306H106C103.878 306 101.843 306.843 100.343 308.343C98.8429 309.843 98 311.878 98 314C98 316.122 98.8429 318.157 100.343 319.657C101.843 321.157 103.878 322 106 322" fill="white"/>
<path d="M122 162C126.418 162 130 158.418 130 154C130 149.582 126.418 146 122 146C117.582 146 114 149.582 114 154C114 158.418 117.582 162 122 162Z" fill="white"/>
<path d="M114 178V194H122C124.122 194 126.157 193.157 127.657 191.657C129.157 190.157 130 188.122 130 186C130 183.878 129.157 181.843 127.657 180.343C126.157 178.843 124.122 178 122 178" fill="white"/>
<path d="M130 210H114V226H130V210Z" fill="white"/>
<path d="M114 242V258H122C124.122 258 126.157 257.157 127.657 255.657C129.157 254.157 130 252.122 130 250C130 247.878 129.157 245.843 127.657 244.343C126.157 242.843 124.122 242 122 242" fill="white"/>
<path d="M122 290C126.418 290 130 286.418 130 282C130 277.582 126.418 274 122 274C117.582 274 114 277.582 114 282C114 286.418 117.582 290 122 290Z" fill="white"/>
<path d="M114 306V322H122C124.122 322 126.157 321.157 127.657 319.657C129.157 318.157 130 316.122 130 314C130 311.878 129.157 309.843 127.657 308.343C126.157 306.843 124.122 306 122 306" fill="white"/>
<path d="M130 354V338H122C119.878 338 117.843 338.843 116.343 340.343C114.843 341.843 114 343.878 114 346C114 348.122 114.843 350.157 116.343 351.657C117.843 353.157 119.878 354 122 354" fill="white"/>
<path d="M130 210H146V194H138C135.878 194 133.843 194.843 132.343 196.343C130.843 197.843 130 199.878 130 202" fill="white"/>
<path d="M146 210H130V226H146V210Z" fill="white"/>
<path d="M130 338H146V322H138C135.878 322 133.843 322.843 132.343 324.343C130.843 325.843 130 327.878 130 330" fill="white"/>
<path d="M146 338H130V354H138C140.122 354 142.157 353.157 143.657 351.657C145.157 350.157 146 348.122 146 346" fill="white"/>
<path d="M154 50C158.418 50 162 46.4183 162 42C162 37.5817 158.418 34 154 34C149.582 34 146 37.5817 146 42C146 46.4183 149.582 50 154 50Z" fill="white"/>
<path d="M146 130H162V122C162 119.878 161.157 117.843 159.657 116.343C158.157 114.843 156.122 114 154 114C151.878 114 149.843 114.843 148.343 116.343C146.843 117.843 146 119.878 146 122" fill="white"/>
<path d="M162 130H146V146H162V130Z" fill="white"/>
<path d="M162 146H146V162H162V146Z" fill="white"/>
<path d="M162 178V162H146V170C146 172.122 146.843 174.157 148.343 175.657C149.843 177.157 151.878 178 154 178" fill="white"/>
<path d="M146 194V210H162V202C162 199.878 161.157 197.843 159.657 196.343C158.157 194.843 156.122 194 154 194" fill="white"/>
<path d="M162 210H146V226H162V210Z" fill="white"/>
<path d="M162 226H146V234C146 236.122 146.843 238.157 148.343 239.657C149.843 241.157 151.878 242 154 242C156.122 242 158.157 241.157 159.657 239.657C161.157 238.157 162 236.122 162 234" fill="white"/>
<path d="M162 274V258H154C151.878 258 149.843 258.843 148.343 260.343C146.843 261.843 146 263.878 146 266C146 268.122 146.843 270.157 148.343 271.657C149.843 273.157 151.878 274 154 274" fill="white"/>
<path d="M146 322H162V314C162 311.878 161.157 309.843 159.657 308.343C158.157 306.843 156.122 306 154 306C151.878 306 149.843 306.843 148.343 308.343C146.843 309.843 146 311.878 146 314" fill="white"/>
<path d="M162 322H146V338H154C156.122 338 158.157 337.157 159.657 335.657C161.157 334.157 162 332.122 162 330" fill="white"/>
<path d="M162 370V354H154C151.878 354 149.843 354.843 148.343 356.343C146.843 357.843 146 359.878 146 362C146 364.122 146.843 366.157 148.343 367.657C149.843 369.157 151.878 370 154 370" fill="white"/>
<path d="M146 466H162V450H154C151.878 450 149.843 450.843 148.343 452.343C146.843 453.843 146 455.878 146 458" fill="white"/>
<path d="M162 466H146V474C146 476.122 146.843 478.157 148.343 479.657C149.843 481.157 151.878 482 154 482C156.122 482 158.157 481.157 159.657 479.657C161.157 478.157 162 476.122 162 474" fill="white"/>
<path d="M178 82V66H170C167.878 66 165.843 66.8429 164.343 68.3431C162.843 69.8434 162 71.8783 162 74C162 76.1217 162.843 78.1566 164.343 79.6569C165.843 81.1571 167.878 82 170 82" fill="white"/>
<path d="M162 162V178H178V170C178 167.878 177.157 165.843 175.657 164.343C174.157 162.843 172.122 162 170 162" fill="white"/>
<path d="M178 194V178H162V186C162 188.122 162.843 190.157 164.343 191.657C165.843 193.157 167.878 194 170 194" fill="white"/>
<path d="M162 210V226H170C172.122 226 174.157 225.157 175.657 223.657C177.157 222.157 178 220.122 178 218C178 215.878 177.157 213.843 175.657 212.343C174.157 210.843 172.122 210 170 210" fill="white"/>
<path d="M162 258H178V242H170C167.878 242 165.843 242.843 164.343 244.343C162.843 245.843 162 247.878 162 250" fill="white"/>
<path d="M178 258H162V274H170C172.122 274 174.157 273.157 175.657 271.657C177.157 270.157 178 268.122 178 266" fill="white"/>
<path d="M162 354H178V338H170C167.878 338 165.843 338.843 164.343 340.343C162.843 341.843 162 343.878 162 346" fill="white"/>
<path d="M178 354H162V370H178V354Z" fill="white"/>
<path d="M178 370H162V386H178V370Z" fill="white"/>
<path d="M178 386H162V402H178V386Z" fill="white"/>
<path d="M178 418V402H162V410C162 412.122 162.843 414.157 164.343 415.657C165.843 417.157 167.878 418 170 418" fill="white"/>
<path d="M162 450H178V442C178 439.878 177.157 437.843 175.657 436.343C174.157 434.843 172.122 434 170 434C167.878 434 165.843 434.843 164.343 436.343C162.843 437.843 162 439.878 162 442" fill="white"/>
<path d="M178 450H162V466H170C172.122 466 174.157 465.157 175.657 463.657C177.157 462.157 178 460.122 178 458" fill="white"/>
<path d="M178 34H194V26C194 23.8783 193.157 21.8434 191.657 20.3431C190.157 18.8428 188.122 18 186 18C183.878 18 181.843 18.8428 180.343 20.3431C178.843 21.8434 178 23.8783 178 26" fill="white"/>
<path d="M194 34H178V50H194V34Z" fill="white"/>
<path d="M194 50H178V66H194V50Z" fill="white"/>
<path d="M194 66H178V82H194V66Z" fill="white"/>
<path d="M194 82H178V98H194V82Z" fill="white"/>
<path d="M194 98H178V114H194V98Z" fill="white"/>
<path d="M194 114H178V130H194V114Z" fill="white"/>
<path d="M194 146V130H178V138C178 140.122 178.843 142.157 180.343 143.657C181.843 145.157 183.878 146 186 146" fill="white"/>
<path d="M178 178V194H186C188.122 194 190.157 193.157 191.657 191.657C193.157 190.157 194 188.122 194 186C194 183.878 193.157 181.843 191.657 180.343C190.157 178.843 188.122 178 186 178" fill="white"/>
<path d="M178 242H194V234C194 231.878 193.157 229.843 191.657 228.343C190.157 226.843 188.122 226 186 226C183.878 226 181.843 226.843 180.343 228.343C178.843 229.843 178 231.878 178 234" fill="white"/>
<path d="M194 242H178V258H194V242Z" fill="white"/>
<path d="M194 322V306H186C183.878 306 181.843 306.843 180.343 308.343C178.843 309.843 178 311.878 178 314C178 316.122 178.843 318.157 180.343 319.657C181.843 321.157 183.878 322 186 322" fill="white"/>
<path d="M178 338V354H194V346C194 343.878 193.157 341.843 191.657 340.343C190.157 338.843 188.122 338 186 338" fill="white"/>
<path d="M194 354H178V370H194V354Z" fill="white"/>
<path d="M194 370H178V386H194V370Z" fill="white"/>
<path d="M194 386H178V402H194V386Z" fill="white"/>
<path d="M194 402H178V418H186C188.122 418 190.157 417.157 191.657 415.657C193.157 414.157 194 412.122 194 410" fill="white"/>
<path d="M194 34V50H202C204.122 50 206.157 49.1571 207.657 47.6569C209.157 46.1566 210 44.1217 210 42C210 39.8783 209.157 37.8434 207.657 36.3431C206.157 34.8429 204.122 34 202 34" fill="white"/>
<path d="M194 66V82H210V74C210 71.8783 209.157 69.8434 207.657 68.3431C206.157 66.8429 204.122 66 202 66" fill="white"/>
<path d="M210 82H194V98H202C204.122 98 206.157 97.1572 207.657 95.6569C209.157 94.1566 210 92.1217 210 90" fill="white"/>
<path d="M194 130V146H210V138C210 135.878 209.157 133.843 207.657 132.343C206.157 130.843 204.122 130 202 130" fill="white"/>
<path d="M210 146H194V154C194 156.122 194.843 158.157 196.343 159.657C197.843 161.157 199.878 162 202 162C204.122 162 206.157 161.157 207.657 159.657C209.157 158.157 210 156.122 210 154" fill="white"/>
<path d="M202 226C206.418 226 210 222.418 210 218C210 213.582 206.418 210 202 210C197.582 210 194 213.582 194 218C194 222.418 197.582 226 202 226Z" fill="white"/>
<path d="M210 242H194V258H210V242Z" fill="white"/>
<path d="M194 306V322H202C204.122 322 206.157 321.157 207.657 319.657C209.157 318.157 210 316.122 210 314C210 311.878 209.157 309.843 207.657 308.343C206.157 306.843 204.122 306 202 306" fill="white"/>
<path d="M210 370H194V386H210V370Z" fill="white"/>
<path d="M202 434C206.418 434 210 430.418 210 426C210 421.582 206.418 418 202 418C197.582 418 194 421.582 194 426C194 430.418 197.582 434 202 434Z" fill="white"/>
<path d="M210 114H226V106C226 103.878 225.157 101.843 223.657 100.343C222.157 98.8428 220.122 98 218 98C215.878 98 213.843 98.8428 212.343 100.343C210.843 101.843 210 103.878 210 106" fill="white"/>
<path d="M226 114H210V122C210 124.122 210.843 126.157 212.343 127.657C213.843 129.157 215.878 130 218 130C220.122 130 222.157 129.157 223.657 127.657C225.157 126.157 226 124.122 226 122" fill="white"/>
<path d="M226 242H210V258H226V242Z" fill="white"/>
<path d="M226 274V258H210V266C210 268.122 210.843 270.157 212.343 271.657C213.843 273.157 215.878 274 218 274" fill="white"/>
<path d="M210 354H226V346C226 343.878 225.157 341.843 223.657 340.343C222.157 338.843 220.122 338 218 338C215.878 338 213.843 338.843 212.343 340.343C210.843 341.843 210 343.878 210 346" fill="white"/>
<path d="M226 354H210V370H226V354Z" fill="white"/>
<path d="M226 370H210V386H226V370Z" fill="white"/>
<path d="M226 466V450H218C215.878 450 213.843 450.843 212.343 452.343C210.843 453.843 210 455.878 210 458C210 460.122 210.843 462.157 212.343 463.657C213.843 465.157 215.878 466 218 466" fill="white"/>
<path d="M242 50V34H234C231.878 34 229.843 34.8429 228.343 36.3431C226.843 37.8434 226 39.8783 226 42C226 44.1217 226.843 46.1566 228.343 47.6569C229.843 49.1571 231.878 50 234 50" fill="white"/>
<path d="M226 82H242V74C242 71.8783 241.157 69.8434 239.657 68.3431C238.157 66.8428 236.122 66 234 66C231.878 66 229.843 66.8428 228.343 68.3431C226.843 69.8434 226 71.8783 226 74" fill="white"/>
<path d="M242 98V82H226V90C226 92.1217 226.843 94.1566 228.343 95.6569C229.843 97.1571 231.878 98 234 98" fill="white"/>
<path d="M226 146H242V138C242 135.878 241.157 133.843 239.657 132.343C238.157 130.843 236.122 130 234 130C231.878 130 229.843 130.843 228.343 132.343C226.843 133.843 226 135.878 226 138" fill="white"/>
<path d="M242 146H226V162H242V146Z" fill="white"/>
<path d="M242 162H226V170C226 172.122 226.843 174.157 228.343 175.657C229.843 177.157 231.878 178 234 178C236.122 178 238.157 177.157 239.657 175.657C241.157 174.157 242 172.122 242 170" fill="white"/>
<path d="M226 210H242V194H234C231.878 194 229.843 194.843 228.343 196.343C226.843 197.843 226 199.878 226 202" fill="white"/>
<path d="M242 210H226V226H242V210Z" fill="white"/>
<path d="M242 226H226V242H242V226Z" fill="white"/>
<path d="M242 242H226V258H242V242Z" fill="white"/>
<path d="M242 258H226V274H242V258Z" fill="white"/>
<path d="M226 306H242V290H234C231.878 290 229.843 290.843 228.343 292.343C226.843 293.843 226 295.878 226 298" fill="white"/>
<path d="M242 306H226V322H242V306Z" fill="white"/>
<path d="M242 322H226V330C226 332.122 226.843 334.157 228.343 335.657C229.843 337.157 231.878 338 234 338C236.122 338 238.157 337.157 239.657 335.657C241.157 334.157 242 332.122 242 330" fill="white"/>
<path d="M226 370V386H234C236.122 386 238.157 385.157 239.657 383.657C241.157 382.157 242 380.122 242 378C242 375.878 241.157 373.843 239.657 372.343C238.157 370.843 236.122 370 234 370" fill="white"/>
<path d="M226 418H242V410C242 407.878 241.157 405.843 239.657 404.343C238.157 402.843 236.122 402 234 402C231.878 402 229.843 402.843 228.343 404.343C226.843 405.843 226 407.878 226 410" fill="white"/>
<path d="M242 418H226V426C226 428.122 226.843 430.157 228.343 431.657C229.843 433.157 231.878 434 234 434C236.122 434 238.157 433.157 239.657 431.657C241.157 430.157 242 428.122 242 426" fill="white"/>
<path d="M226 450V466H242V458C242 455.878 241.157 453.843 239.657 452.343C238.157 450.843 236.122 450 234 450" fill="white"/>
<path d="M242 466H226V474C226 476.122 226.843 478.157 228.343 479.657C229.843 481.157 231.878 482 234 482C236.122 482 238.157 481.157 239.657 479.657C241.157 478.157 242 476.122 242 474" fill="white"/>
<path d="M242 34V50H258V42C258 39.8783 257.157 37.8434 255.657 36.3431C254.157 34.8429 252.122 34 250 34" fill="white"/>
<path d="M258 66V50H242V58C242 60.1217 242.843 62.1566 244.343 63.6569C245.843 65.1571 247.878 66 250 66" fill="white"/>
<path d="M258 82H242V98H258V82Z" fill="white"/>
<path d="M258 98H242V114H258V98Z" fill="white"/>
<path d="M258 114H242V122C242 124.122 242.843 126.157 244.343 127.657C245.843 129.157 247.878 130 250 130C252.122 130 254.157 129.157 255.657 127.657C257.157 126.157 258 124.122 258 122" fill="white"/>
<path d="M242 146V162H250C252.122 162 254.157 161.157 255.657 159.657C257.157 158.157 258 156.122 258 154C258 151.878 257.157 149.843 255.657 148.343C254.157 146.843 252.122 146 250 146" fill="white"/>
<path d="M258 194H242V210H258V194Z" fill="white"/>
<path d="M242 258V274H250C252.122 274 254.157 273.157 255.657 271.657C257.157 270.157 258 268.122 258 266C258 263.878 257.157 261.843 255.657 260.343C254.157 258.843 252.122 258 250 258" fill="white"/>
<path d="M258 290H242V306H258V290Z" fill="white"/>
<path d="M258 354V338H250C247.878 338 245.843 338.843 244.343 340.343C242.843 341.843 242 343.878 242 346C242 348.122 242.843 350.157 244.343 351.657C245.843 353.157 247.878 354 250 354" fill="white"/>
<path d="M250 402C254.418 402 258 398.418 258 394C258 389.582 254.418 386 250 386C245.582 386 242 389.582 242 394C242 398.418 245.582 402 250 402Z" fill="white"/>
<path d="M266 34C270.418 34 274 30.4183 274 26C274 21.5817 270.418 18 266 18C261.582 18 258 21.5817 258 26C258 30.4183 261.582 34 266 34Z" fill="white"/>
<path d="M274 50H258V66H274V50Z" fill="white"/>
<path d="M274 66H258V82H274V66Z" fill="white"/>
<path d="M274 82H258V98H274V82Z" fill="white"/>
<path d="M274 98H258V114H266C268.122 114 270.157 113.157 271.657 111.657C273.157 110.157 274 108.122 274 106" fill="white"/>
<path d="M266 146C270.418 146 274 142.418 274 138C274 133.582 270.418 130 266 130C261.582 130 258 133.582 258 138C258 142.418 261.582 146 266 146Z" fill="white"/>
<path d="M258 178H274V170C274 167.878 273.157 165.843 271.657 164.343C270.157 162.843 268.122 162 266 162C263.878 162 261.843 162.843 260.343 164.343C258.843 165.843 258 167.878 258 170" fill="white"/>
<path d="M274 178H258V194H274V178Z" fill="white"/>
<path d="M274 194H258V210H274V194Z" fill="white"/>
<path d="M274 210H258V218C258 220.122 258.843 222.157 260.343 223.657C261.843 225.157 263.878 226 266 226C268.122 226 270.157 225.157 271.657 223.657C273.157 222.157 274 220.122 274 218" fill="white"/>
<path d="M258 290V306H274V298C274 295.878 273.157 293.843 271.657 292.343C270.157 290.843 268.122 290 266 290" fill="white"/>
<path d="M274 306H258V322H274V306Z" fill="white"/>
<path d="M274 322H258V338H274V322Z" fill="white"/>
<path d="M274 338H258V354H266C268.122 354 270.157 353.157 271.657 351.657C273.157 350.157 274 348.122 274 346" fill="white"/>
<path d="M266 386C270.418 386 274 382.418 274 378C274 373.582 270.418 370 266 370C261.582 370 258 373.582 258 378C258 382.418 261.582 386 266 386Z" fill="white"/>
<path d="M258 418H274V410C274 407.878 273.157 405.843 271.657 404.343C270.157 402.843 268.122 402 266 402C263.878 402 261.843 402.843 260.343 404.343C258.843 405.843 258 407.878 258 410" fill="white"/>
<path d="M274 418H258V434H274V418Z" fill="white"/>
<path d="M274 434H258V450H274V434Z" fill="white"/>
<path d="M274 450H258V466H274V450Z" fill="white"/>
<path d="M274 466H258V474C258 476.122 258.843 478.157 260.343 479.657C261.843 481.157 263.878 482 266 482C268.122 482 270.157 481.157 271.657 479.657C273.157 478.157 274 476.122 274 474" fill="white"/>
<path d="M274 50V66H290V58C290 55.8783 289.157 53.8434 287.657 52.3431C286.157 50.8429 284.122 50 282 50" fill="white"/>
<path d="M290 66H274V82H282C284.122 82 286.157 81.1572 287.657 79.6569C289.157 78.1566 290 76.1217 290 74" fill="white"/>
<path d="M282 130C286.418 130 290 126.418 290 122C290 117.582 286.418 114 282 114C277.582 114 274 117.582 274 122C274 126.418 277.582 130 282 130Z" fill="white"/>
<path d="M274 194V210H282C284.122 210 286.157 209.157 287.657 207.657C289.157 206.157 290 204.122 290 202C290 199.878 289.157 197.843 287.657 196.343C286.157 194.843 284.122 194 282 194" fill="white"/>
<path d="M274 242H290V234C290 231.878 289.157 229.843 287.657 228.343C286.157 226.843 284.122 226 282 226C279.878 226 277.843 226.843 276.343 228.343C274.843 229.843 274 231.878 274 234" fill="white"/>
<path d="M290 242H274V250C274 252.122 274.843 254.157 276.343 255.657C277.843 257.157 279.878 258 282 258C284.122 258 286.157 257.157 287.657 255.657C289.157 254.157 290 252.122 290 250" fill="white"/>
<path d="M282 290C286.418 290 290 286.418 290 282C290 277.582 286.418 274 282 274C277.582 274 274 277.582 274 282C274 286.418 277.582 290 282 290Z" fill="white"/>
<path d="M290 402V386H282C279.878 386 277.843 386.843 276.343 388.343C274.843 389.843 274 391.878 274 394C274 396.122 274.843 398.157 276.343 399.657C277.843 401.157 279.878 402 282 402" fill="white"/>
<path d="M274 418V434H290V426C290 423.878 289.157 421.843 287.657 420.343C286.157 418.843 284.122 418 282 418" fill="white"/>
<path d="M290 434H274V450H290V434Z" fill="white"/>
<path d="M290 450H274V466H282C284.122 466 286.157 465.157 287.657 463.657C289.157 462.157 290 460.122 290 458" fill="white"/>
<path d="M290 34H306V18H298C295.878 18 293.843 18.8428 292.343 20.3431C290.843 21.8434 290 23.8783 290 26" fill="white"/>
<path d="M306 50V34H290V42C290 44.1217 290.843 46.1566 292.343 47.6569C293.843 49.1571 295.878 50 298 50" fill="white"/>
<path d="M290 178H306V170C306 167.878 305.157 165.843 303.657 164.343C302.157 162.843 300.122 162 298 162C295.878 162 293.843 162.843 292.343 164.343C290.843 165.843 290 167.878 290 170" fill="white"/>
<path d="M306 178H290V186C290 188.122 290.843 190.157 292.343 191.657C293.843 193.157 295.878 194 298 194C300.122 194 302.157 193.157 303.657 191.657C305.157 190.157 306 188.122 306 186" fill="white"/>
<path d="M306 322V306H298C295.878 306 293.843 306.843 292.343 308.343C290.843 309.843 290 311.878 290 314C290 316.122 290.843 318.157 292.343 319.657C293.843 321.157 295.878 322 298 322" fill="white"/>
<path d="M298 354C302.418 354 306 350.418 306 346C306 341.582 302.418 338 298 338C293.582 338 290 341.582 290 346C290 350.418 293.582 354 298 354Z" fill="white"/>
<path d="M290 386H306V378C306 375.878 305.157 373.843 303.657 372.343C302.157 370.843 300.122 370 298 370C295.878 370 293.843 370.843 292.343 372.343C290.843 373.843 290 375.878 290 378" fill="white"/>
<path d="M306 386H290V402H306V386Z" fill="white"/>
<path d="M306 418V402H290V410C290 412.122 290.843 414.157 292.343 415.657C293.843 417.157 295.878 418 298 418" fill="white"/>
<path d="M306 482V466H298C295.878 466 293.843 466.843 292.343 468.343C290.843 469.843 290 471.878 290 474C290 476.122 290.843 478.157 292.343 479.657C293.843 481.157 295.878 482 298 482" fill="white"/>
<path d="M322 18H306V34H322V18Z" fill="white"/>
<path d="M322 34H306V50H322V34Z" fill="white"/>
<path d="M322 50H306V58C306 60.1217 306.843 62.1566 308.343 63.6569C309.843 65.1572 311.878 66 314 66C316.122 66 318.157 65.1572 319.657 63.6569C321.157 62.1566 322 60.1217 322 58" fill="white"/>
<path d="M322 98V82H314C311.878 82 309.843 82.8429 308.343 84.3431C306.843 85.8434 306 87.8783 306 90C306 92.1217 306.843 94.1566 308.343 95.6569C309.843 97.1571 311.878 98 314 98" fill="white"/>
<path d="M306 130H322V122C322 119.878 321.157 117.843 319.657 116.343C318.157 114.843 316.122 114 314 114C311.878 114 309.843 114.843 308.343 116.343C306.843 117.843 306 119.878 306 122" fill="white"/>
<path d="M322 130H306V146H322V130Z" fill="white"/>
<path d="M322 162V146H306V154C306 156.122 306.843 158.157 308.343 159.657C309.843 161.157 311.878 162 314 162" fill="white"/>
<path d="M306 210H322V194H314C311.878 194 309.843 194.843 308.343 196.343C306.843 197.843 306 199.878 306 202" fill="white"/>
<path d="M322 210H306V218C306 220.122 306.843 222.157 308.343 223.657C309.843 225.157 311.878 226 314 226C316.122 226 318.157 225.157 319.657 223.657C321.157 222.157 322 220.122 322 218" fill="white"/>
<path d="M306 258H322V250C322 247.878 321.157 245.843 319.657 244.343C318.157 242.843 316.122 242 314 242C311.878 242 309.843 242.843 308.343 244.343C306.843 245.843 306 247.878 306 250" fill="white"/>
<path d="M322 258H306V266C306 268.122 306.843 270.157 308.343 271.657C309.843 273.157 311.878 274 314 274C316.122 274 318.157 273.157 319.657 271.657C321.157 270.157 322 268.122 322 266" fill="white"/>
<path d="M306 306H322V298C322 295.878 321.157 293.843 319.657 292.343C318.157 290.843 316.122 290 314 290C311.878 290 309.843 290.843 308.343 292.343C306.843 293.843 306 295.878 306 298" fill="white"/>
<path d="M322 306H306V322H322V306Z" fill="white"/>
<path d="M322 322H306V330C306 332.122 306.843 334.157 308.343 335.657C309.843 337.157 311.878 338 314 338C316.122 338 318.157 337.157 319.657 335.657C321.157 334.157 322 332.122 322 330" fill="white"/>
<path d="M306 402V418H322V410C322 407.878 321.157 405.843 319.657 404.343C318.157 402.843 316.122 402 314 402" fill="white"/>
<path d="M322 418H306V434H322V418Z" fill="white"/>
<path d="M322 434H306V442C306 444.122 306.843 446.157 308.343 447.657C309.843 449.157 311.878 450 314 450C316.122 450 318.157 449.157 319.657 447.657C321.157 446.157 322 444.122 322 442" fill="white"/>
<path d="M322 466H306V482H322V466Z" fill="white"/>
<path d="M338 18H322V34H338V18Z" fill="white"/>
<path d="M322 82H338V66H330C327.878 66 325.843 66.8428 324.343 68.3431C322.843 69.8434 322 71.8783 322 74" fill="white"/>
<path d="M338 82H322V98H338V82Z" fill="white"/>
<path d="M338 114V98H322V106C322 108.122 322.843 110.157 324.343 111.657C325.843 113.157 327.878 114 330 114" fill="white"/>
<path d="M322 146V162H338V154C338 151.878 337.157 149.843 335.657 148.343C334.157 146.843 332.122 146 330 146" fill="white"/>
<path d="M338 162H322V178H338V162Z" fill="white"/>
<path d="M338 178H322V194H338V178Z" fill="white"/>
<path d="M338 194H322V210H330C332.122 210 334.157 209.157 335.657 207.657C337.157 206.157 338 204.122 338 202" fill="white"/>
<path d="M322 354H338V338H330C327.878 338 325.843 338.843 324.343 340.343C322.843 341.843 322 343.878 322 346" fill="white"/>
<path d="M338 354H322V370H338V354Z" fill="white"/>
<path d="M338 386V370H322V378C322 380.122 322.843 382.157 324.343 383.657C325.843 385.157 327.878 386 330 386" fill="white"/>
<path d="M338 466H322V482H338V466Z" fill="white"/>
<path d="M338 18V34H346C348.122 34 350.157 33.1571 351.657 31.6569C353.157 30.1566 354 28.1217 354 26C354 23.8783 353.157 21.8434 351.657 20.3431C350.157 18.8429 348.122 18 346 18" fill="white"/>
<path d="M338 66V82H354V74C354 71.8783 353.157 69.8434 351.657 68.3431C350.157 66.8429 348.122 66 346 66" fill="white"/>
<path d="M354 82H338V98H354V82Z" fill="white"/>
<path d="M354 98H338V114H354V98Z" fill="white"/>
<path d="M354 114H338V130H354V114Z" fill="white"/>
<path d="M354 130H338V138C338 140.122 338.843 142.157 340.343 143.657C341.843 145.157 343.878 146 346 146C348.122 146 350.157 145.157 351.657 143.657C353.157 142.157 354 140.122 354 138" fill="white"/>
<path d="M354 178H338V194H354V178Z" fill="white"/>
<path d="M338 242H354V234C354 231.878 353.157 229.843 351.657 228.343C350.157 226.843 348.122 226 346 226C343.878 226 341.843 226.843 340.343 228.343C338.843 229.843 338 231.878 338 234" fill="white"/>
<path d="M354 242H338V258H354V242Z" fill="white"/>
<path d="M354 274V258H338V266C338 268.122 338.843 270.157 340.343 271.657C341.843 273.157 343.878 274 346 274" fill="white"/>
<path d="M346 306C350.418 306 354 302.418 354 298C354 293.582 350.418 290 346 290C341.582 290 338 293.582 338 298C338 302.418 341.582 306 346 306Z" fill="white"/>
<path d="M338 338H354V322H346C343.878 322 341.843 322.843 340.343 324.343C338.843 325.843 338 327.878 338 330" fill="white"/>
<path d="M354 338H338V354H354V338Z" fill="white"/>
<path d="M354 354H338V370H354V354Z" fill="white"/>
<path d="M354 370H338V386H354V370Z" fill="white"/>
<path d="M354 386H338V402H354V386Z" fill="white"/>
<path d="M354 418V402H338V410C338 412.122 338.843 414.157 340.343 415.657C341.843 417.157 343.878 418 346 418" fill="white"/>
<path d="M338 450H354V434H346C343.878 434 341.843 434.843 340.343 436.343C338.843 437.843 338 439.878 338 442" fill="white"/>
<path d="M354 450H338V466H354V450Z" fill="white"/>
<path d="M354 466H338V482H346C348.122 482 350.157 481.157 351.657 479.657C353.157 478.157 354 476.122 354 474" fill="white"/>
<path d="M370 162V146H362C359.878 146 357.843 146.843 356.343 148.343C354.843 149.843 354 151.878 354 154C354 156.122 354.843 158.157 356.343 159.657C357.843 161.157 359.878 162 362 162" fill="white"/>
<path d="M370 178H354V194H370V178Z" fill="white"/>
<path d="M370 194H354V202C354 204.122 354.843 206.157 356.343 207.657C357.843 209.157 359.878 210 362 210C364.122 210 366.157 209.157 367.657 207.657C369.157 206.157 370 204.122 370 202" fill="white"/>
<path d="M370 258H354V274H370V258Z" fill="white"/>
<path d="M370 290V274H354V282C354 284.122 354.843 286.157 356.343 287.657C357.843 289.157 359.878 290 362 290" fill="white"/>
<path d="M370 322H354V338H370V322Z" fill="white"/>
<path d="M370 338H354V354H370V338Z" fill="white"/>
<path d="M370 402H354V418H370V402Z" fill="white"/>
<path d="M370 418H354V434H370V418Z" fill="white"/>
<path d="M370 434H354V450H362C364.122 450 366.157 449.157 367.657 447.657C369.157 446.157 370 444.122 370 442" fill="white"/>
<path d="M370 146V162H378C380.122 162 382.157 161.157 383.657 159.657C385.157 158.157 386 156.122 386 154C386 151.878 385.157 149.843 383.657 148.343C382.157 146.843 380.122 146 378 146" fill="white"/>
<path d="M370 178V194H378C380.122 194 382.157 193.157 383.657 191.657C385.157 190.157 386 188.122 386 186C386 183.878 385.157 181.843 383.657 180.343C382.157 178.843 380.122 178 378 178" fill="white"/>
<path d="M370 226H386V210H378C375.878 210 373.843 210.843 372.343 212.343C370.843 213.843 370 215.878 370 218" fill="white"/>
<path d="M386 226H370V242H386V226Z" fill="white"/>
<path d="M386 242H370V258H386V242Z" fill="white"/>
<path d="M386 258H370V274H386V258Z" fill="white"/>
<path d="M386 274H370V290H378C380.122 290 382.157 289.157 383.657 287.657C385.157 286.157 386 284.122 386 282" fill="white"/>
<path d="M370 322H386V314C386 311.878 385.157 309.843 383.657 308.343C382.157 306.843 380.122 306 378 306C375.878 306 373.843 306.843 372.343 308.343C370.843 309.843 370 311.878 370 314" fill="white"/>
<path d="M386 322H370V338H386V322Z" fill="white"/>
<path d="M386 338H370V354H386V338Z" fill="white"/>
<path d="M378 386C382.418 386 386 382.418 386 378C386 373.582 382.418 370 378 370C373.582 370 370 373.582 370 378C370 382.418 373.582 386 378 386Z" fill="white"/>
<path d="M386 402H370V418H386V402Z" fill="white"/>
<path d="M386 210H402V194H394C391.878 194 389.843 194.843 388.343 196.343C386.843 197.843 386 199.878 386 202" fill="white"/>
<path d="M402 210H386V226H394C396.122 226 398.157 225.157 399.657 223.657C401.157 222.157 402 220.122 402 218" fill="white"/>
<path d="M386 242V258H402V250C402 247.878 401.157 245.843 399.657 244.343C398.157 242.843 396.122 242 394 242" fill="white"/>
<path d="M402 258H386V274H402V258Z" fill="white"/>
<path d="M402 322H386V338H402V322Z" fill="white"/>
<path d="M402 338H386V354H402V338Z" fill="white"/>
<path d="M402 402H386V418H402V402Z" fill="white"/>
<path d="M402 418H386V426C386 428.122 386.843 430.157 388.343 431.657C389.843 433.157 391.878 434 394 434C396.122 434 398.157 433.157 399.657 431.657C401.157 430.157 402 428.122 402 426" fill="white"/>
<path d="M394 482C398.418 482 402 478.418 402 474C402 469.582 398.418 466 394 466C389.582 466 386 469.582 386 474C386 478.418 389.582 482 394 482Z" fill="white"/>
<path d="M418 178V162H410C407.878 162 405.843 162.843 404.343 164.343C402.843 165.843 402 167.878 402 170C402 172.122 402.843 174.157 404.343 175.657C405.843 177.157 407.878 178 410 178" fill="white"/>
<path d="M418 194H402V210H418V194Z" fill="white"/>
<path d="M402 258V274H418V266C418 263.878 417.157 261.843 415.657 260.343C414.157 258.843 412.122 258 410 258" fill="white"/>
<path d="M418 274H402V290H418V274Z" fill="white"/>
<path d="M418 290H402V306H418V290Z" fill="white"/>
<path d="M418 306H402V322H418V306Z" fill="white"/>
<path d="M418 322H402V338H418V322Z" fill="white"/>
<path d="M418 338H402V354H418V338Z" fill="white"/>
<path d="M418 354H402V370H418V354Z" fill="white"/>
<path d="M418 370H402V386H418V370Z" fill="white"/>
<path d="M418 386H402V402H418V386Z" fill="white"/>
<path d="M418 402H402V418H410C412.122 418 414.157 417.157 415.657 415.657C417.157 414.157 418 412.122 418 410" fill="white"/>
<path d="M434 162H418V178H434V162Z" fill="white"/>
<path d="M434 194H418V210H434V194Z" fill="white"/>
<path d="M426 258C430.418 258 434 254.418 434 250C434 245.582 430.418 242 426 242C421.582 242 418 245.582 418 250C418 254.418 421.582 258 426 258Z" fill="white"/>
<path d="M418 274V290H426C428.122 290 430.157 289.157 431.657 287.657C433.157 286.157 434 284.122 434 282C434 279.878 433.157 277.843 431.657 276.343C430.157 274.843 428.122 274 426 274" fill="white"/>
<path d="M434 322H418V338H434V322Z" fill="white"/>
<path d="M434 338H418V354H434V338Z" fill="white"/>
<path d="M434 386H418V402H434V386Z" fill="white"/>
<path d="M418 434H434V418H426C423.878 418 421.843 418.843 420.343 420.343C418.843 421.843 418 423.878 418 426" fill="white"/>
<path d="M434 434H418V450H434V434Z" fill="white"/>
<path d="M434 466V450H418V458C418 460.122 418.843 462.157 420.343 463.657C421.843 465.157 423.878 466 426 466" fill="white"/>
<path d="M434 162V178H450V170C450 167.878 449.157 165.843 447.657 164.343C446.157 162.843 444.122 162 442 162" fill="white"/>
<path d="M450 178H434V194H450V178Z" fill="white"/>
<path d="M450 194H434V210H450V194Z" fill="white"/>
<path d="M450 210H434V226H450V210Z" fill="white"/>
<path d="M450 226H434V234C434 236.122 434.843 238.157 436.343 239.657C437.843 241.157 439.878 242 442 242C444.122 242 446.157 241.157 447.657 239.657C449.157 238.157 450 236.122 450 234" fill="white"/>
<path d="M434 306H450V298C450 295.878 449.157 293.843 447.657 292.343C446.157 290.843 444.122 290 442 290C439.878 290 437.843 290.843 436.343 292.343C434.843 293.843 434 295.878 434 298" fill="white"/>
<path d="M450 306H434V322H450V306Z" fill="white"/>
<path d="M450 322H434V338H450V322Z" fill="white"/>
<path d="M450 338H434V354H450V338Z" fill="white"/>
<path d="M450 354H434V370H450V354Z" fill="white"/>
<path d="M450 370H434V386H450V370Z" fill="white"/>
<path d="M450 386H434V402H450V386Z" fill="white"/>
<path d="M450 402H434V418H450V402Z" fill="white"/>
<path d="M450 418H434V434H450V418Z" fill="white"/>
<path d="M450 434H434V450H450V434Z" fill="white"/>
<path d="M450 450H434V466H442C444.122 466 446.157 465.157 447.657 463.657C449.157 462.157 450 460.122 450 458" fill="white"/>
<path d="M458 162C462.418 162 466 158.418 466 154C466 149.582 462.418 146 458 146C453.582 146 450 149.582 450 154C450 158.418 453.582 162 458 162Z" fill="white"/>
<path d="M466 194H450V210H466V194Z" fill="white"/>
<path d="M450 258H466V242H458C455.878 242 453.843 242.843 452.343 244.343C450.843 245.843 450 247.878 450 250" fill="white"/>
<path d="M466 258H450V266C450 268.122 450.843 270.157 452.343 271.657C453.843 273.157 455.878 274 458 274C460.122 274 462.157 273.157 463.657 271.657C465.157 270.157 466 268.122 466 266" fill="white"/>
<path d="M450 354V370H466V362C466 359.878 465.157 357.843 463.657 356.343C462.157 354.843 460.122 354 458 354" fill="white"/>
<path d="M466 370H450V386H458C460.122 386 462.157 385.157 463.657 383.657C465.157 382.157 466 380.122 466 378" fill="white"/>
<path d="M466 402H450V418H466V402Z" fill="white"/>
<path d="M466 434H450V450H466V434Z" fill="white"/>
<path d="M458 482C462.418 482 466 478.418 466 474C466 469.582 462.418 466 458 466C453.582 466 450 469.582 450 474C450 478.418 453.582 482 458 482Z" fill="white"/>
<path d="M474 178C478.418 178 482 174.418 482 170C482 165.582 478.418 162 474 162C469.582 162 466 165.582 466 170C466 174.418 469.582 178 474 178Z" fill="white"/>
<path d="M466 194V210H482V202C482 199.878 481.157 197.843 479.657 196.343C478.157 194.843 476.122 194 474 194" fill="white"/>
<path d="M482 210H466V218C466 220.122 466.843 222.157 468.343 223.657C469.843 225.157 471.878 226 474 226C476.122 226 478.157 225.157 479.657 223.657C481.157 222.157 482 220.122 482 218" fill="white"/>
<path d="M466 242V258H474C476.122 258 478.157 257.157 479.657 255.657C481.157 254.157 482 252.122 482 250C482 247.878 481.157 245.843 479.657 244.343C478.157 242.843 476.122 242 474 242" fill="white"/>
<path d="M466 290H482V282C482 279.878 481.157 277.843 479.657 276.343C478.157 274.843 476.122 274 474 274C471.878 274 469.843 274.843 468.343 276.343C466.843 277.843 466 279.878 466 282" fill="white"/>
<path d="M482 290H466V298C466 300.122 466.843 302.157 468.343 303.657C469.843 305.157 471.878 306 474 306C476.122 306 478.157 305.157 479.657 303.657C481.157 302.157 482 300.122 482 298" fill="white"/>
<path d="M474 338C478.418 338 482 334.418 482 330C482 325.582 478.418 322 474 322C469.582 322 466 325.582 466 330C466 334.418 469.582 338 474 338Z" fill="white"/>
<path d="M466 402V418H482V410C482 407.878 481.157 405.843 479.657 404.343C478.157 402.843 476.122 402 474 402" fill="white"/>
<path d="M482 418H466V434H482V418Z" fill="white"/>
<path d="M482 434H466V450H474C476.122 450 478.157 449.157 479.657 447.657C481.157 446.157 482 444.122 482 442" fill="white"/>
</mask>
<g mask="url(#mask0_8270_12497)">
<path d="M500 0H0V500H500V0Z" fill="#21201E"/>
</g>
<mask id="mask1_8270_12497" style="mask-type:luminance" maskUnits="userSpaceOnUse" x="18" y="18" width="113" height="112">
<path fill-rule="evenodd" clip-rule="evenodd" d="M74.0008 18C59.153 18.0133 44.9182 23.9225 34.4263 34.4285C23.9344 44.9345 18.0442 59.1772 18.0508 74.025C18.0574 88.8728 23.9603 103.11 34.4616 113.607C44.963 124.103 59.203 130 74.0508 130C88.8986 130 103.139 124.103 113.64 113.607C124.141 103.11 130.044 88.8728 130.051 74.025C130.057 59.1772 124.167 44.9345 113.675 34.4285C103.183 23.9225 88.9486 18.0133 74.1008 18H74.0008ZM74.0008 34C84.6051 34.0133 94.7702 38.2368 102.262 45.7422C109.753 53.2476 113.957 63.4206 113.951 74.025C113.944 84.6293 109.727 94.797 102.226 102.293C94.7255 109.789 84.5551 114 73.9508 114C63.3465 114 53.1761 109.789 45.6754 102.293C38.1746 94.797 33.9574 84.6293 33.9508 74.025C33.9442 63.4206 38.1486 53.2476 45.64 45.7422C53.1314 38.2368 63.2965 34.0133 73.9008 34H74.0008Z" fill="white"/>
</mask>
<g mask="url(#mask1_8270_12497)">
<path d="M130 18H18V130H130V18Z" fill="#21201E"/>
</g>
<mask id="mask2_8270_12497" style="mask-type:luminance" maskUnits="userSpaceOnUse" x="50" y="50" width="48" height="48">
<path d="M74 98C87.2548 98 98 87.2548 98 74C98 60.7452 87.2548 50 74 50C60.7452 50 50 60.7452 50 74C50 87.2548 60.7452 98 74 98Z" fill="white"/>
</mask>
<g mask="url(#mask2_8270_12497)">
<path d="M98 50H50V98H98V50Z" fill="#21201E"/>
</g>
<mask id="mask3_8270_12497" style="mask-type:luminance" maskUnits="userSpaceOnUse" x="370" y="18" width="112" height="113">
<path fill-rule="evenodd" clip-rule="evenodd" d="M482 73.9969C481.987 59.1491 476.077 44.9143 465.571 34.4224C455.065 23.9304 440.823 18.0403 425.975 18.0469C411.127 18.0535 396.89 23.9564 386.393 34.4577C375.897 44.959 370 59.1991 370 74.0468C370 88.8946 375.897 103.135 386.393 113.636C396.89 124.137 411.127 130.04 425.975 130.047C440.823 130.053 455.065 124.163 465.571 113.671C476.077 103.179 481.987 88.9447 482 74.0969V73.9969ZM466 73.9969C465.987 84.6012 461.763 94.7663 454.258 102.258C446.752 109.749 436.579 113.953 425.975 113.947C415.371 113.94 405.203 109.723 397.707 102.222C390.211 94.7216 386 84.5512 386 73.9469C386 63.3425 390.211 53.1722 397.707 45.6714C405.203 38.1707 415.371 33.9535 425.975 33.9469C436.579 33.9402 446.752 38.1447 454.258 45.6361C461.763 53.1274 465.987 63.2925 466 73.8969V73.9969Z" fill="white"/>
</mask>
<g mask="url(#mask3_8270_12497)">
<path d="M482 18H370V130H482V18Z" fill="#21201E"/>
</g>
<mask id="mask4_8270_12497" style="mask-type:luminance" maskUnits="userSpaceOnUse" x="402" y="50" width="48" height="48">
<path d="M402 74C402 87.2548 412.745 98 426 98C439.255 98 450 87.2548 450 74C450 60.7452 439.255 50 426 50C412.745 50 402 60.7452 402 74Z" fill="white"/>
</mask>
<g mask="url(#mask4_8270_12497)">
<path d="M450 50H402V98H450V50Z" fill="#21201E"/>
</g>
<mask id="mask5_8270_12497" style="mask-type:luminance" maskUnits="userSpaceOnUse" x="18" y="369" width="112" height="113">
<path fill-rule="evenodd" clip-rule="evenodd" d="M18 426.003C18.0133 440.851 23.9225 455.086 34.4285 465.578C44.9345 476.07 59.1772 481.96 74.025 481.953C88.8728 481.946 103.11 476.044 113.607 465.542C124.103 455.041 130 440.801 130 425.953C130 411.105 124.103 396.865 113.607 386.364C103.11 375.863 88.8728 369.96 74.025 369.953C59.1772 369.947 44.9345 375.837 34.4285 386.329C23.9225 396.821 18.0133 411.055 18 425.903V426.003ZM34 426.003C34.0133 415.399 38.2368 405.234 45.7422 397.742C53.2476 390.251 63.4206 386.047 74.025 386.053C84.6293 386.06 94.797 390.277 102.293 397.778C109.789 405.278 114 415.449 114 426.053C114 436.657 109.789 446.828 102.293 454.329C94.797 461.829 84.6293 466.046 74.025 466.053C63.4206 466.06 53.2476 461.855 45.7422 454.364C38.2368 446.873 34.0133 436.707 34 426.103V426.003Z" fill="white"/>
</mask>
<g mask="url(#mask5_8270_12497)">
<path d="M130 370H18V482H130V370Z" fill="#21201E"/>
</g>
<mask id="mask6_8270_12497" style="mask-type:luminance" maskUnits="userSpaceOnUse" x="50" y="402" width="48" height="48">
<path d="M98 426C98 412.745 87.2548 402 74 402C60.7452 402 50 412.745 50 426C50 439.255 60.7452 450 74 450C87.2548 450 98 439.255 98 426Z" fill="white"/>
</mask>
<g mask="url(#mask6_8270_12497)">
<path d="M98 402H50V450H98V402Z" fill="#21201E"/>
</g>
</svg>
