<?xml version="1.0" encoding="iso-8859-1"?>
<!-- Generator: Adobe Illustrator 26.0.1, SVG Export Plug-In . SVG Version: 6.00 Build 0)  -->
<svg version="1.1" id="GeorgeSamuel.me" xmlns="http://www.w3.org/2000/svg" xmlns:xlink="http://www.w3.org/1999/xlink" x="0px"
	 y="0px" viewBox="0 0 512 512" style="enable-background:new 0 0 512 512;" xml:space="preserve">
<rect style="fill:#00009C;" width="512" height="512"/>
<g id="www.GeorgeSamuel.me">
	<path style="fill:#3162BA;" d="M431.718,320.338c-6.091-19.171-9.985-39.839-9.985-60.507
		c-16.874,39.839-42.135,101.943-71.29,97.35c-16.874-3.095-18.372-34.447-14.578-65.1C324.384,318.141,313.6,345,300.62,361.774
		c-0.799,1.498-2.296,3.095-3.095,3.794c-4.593,6.889-10.684,12.281-18.372,15.276c-0.799,0-1.498,0-2.296,0.799
		c-2.296,0-4.593,0-6.889-0.799c-7.688-3.794-13.779-11.482-16.075-19.969c-0.799-2.296-1.498-4.593-2.296-6.091
		c-0.799-3.095-0.799-6.091-1.498-9.186c-4.593,8.387-10.684,16.874-16.874,23.763c-19.17,20.668-42.934,35.246-69.693,43.633
		c-23.763,7.688-53.617,13.779-77.381,0.799c-24.562-12.98-28.356-42.934-17.673-68.195c3.794-9.186,6.091-3.794,4.593,6.889
		c-0.799,3.794-0.799,7.688-1.498,11.482c-1.498,65.1,92.757,34.447,118.717,18.372c13.779-8.387,26.06-19.171,36.743-31.452
		c13.779-16.874,22.266-36.743,24.562-58.21c5.392-49.024-51.321-48.226-78.18-46.728c-0.799,0-1.498,0-2.296-0.799
		c-3.095,9.186-6.091,17.673-9.985,26.06c-6.091,16.874-12.281,31.452-19.17,48.226c-5.392,15.276-12.98,30.653-21.467,44.432
		c-4.593,7.688-9.186,4.593-8.387-3.794c2.296-16.075,6.889-31.452,13.779-45.929c6.091-16.075,12.281-31.452,18.372-46.728
		c12.98-30.653,22.965-62.803,30.653-95.753c2.296-9.985,14.578-8.387,12.98,2.296c-1.498,11.482-3.794,23.763-6.889,35.246
		c9.186-12.281,17.673-25.261,24.562-38.341c7.688-13.779,23.763-51.321,3.794-62.104c-16.874-9.186-39.04,5.392-51.321,16.874
		c-16.075,13.779-29.854,29.854-41.336,47.527c-5.392,7.688-9.186,3.095-6.091-3.095c11.482-22.266,27.558-42.135,46.728-57.511
		c16.075-12.98,42.135-30.653,62.104-16.075c22.266,16.874,13.779,51.321,3.095,73.587c-10.684,19.969-22.266,39.839-35.246,58.21
		c26.06,0,58.21,3.794,72.788,29.854c1.498,3.095,3.095,5.392,3.794,8.387c6.091-18.372,13.779-34.447,19.171-46.728
		c14.578-36.743,33.748-71.989,55.215-105.737c3.794-5.392,9.186,0.799,5.392,6.091c-36.044,66.697-59.009,118.018-73.587,180.822
		c-0.799,5.392-2.296,10.684-2.296,12.98v0.799c-2.296,12.281-1.498,25.261,2.296,36.743c0.799,1.498,1.498,3.095,3.095,4.593l0,0
		c6.091,5.392,14.578-3.794,18.372-9.985c10.684-14.578,19.969-30.653,27.558-46.728c14.578-29.155,26.06-59.009,35.246-90.461
		c2.296-9.985,13.779-7.688,12.98,3.794c-1.498,18.372-4.593,36.044-8.387,53.617c-2.296,12.281-16.874,85.768,6.091,62.803
		c24.562-24.562,40.637-64.401,56.713-100.345c3.095-6.091,10.684-5.392,12.281,3.095c3.095,26.859,3.794,52.12,11.482,78.18
		C447.893,322.634,436.311,331.82,431.718,320.338"/>
	<path style="fill:#FFFFFF;" d="M169.722,261.329c6.091-3.794,9.186-9.985,9.186-17.673v-9.985c0-10.684-3.794-28.356-31.452-28.356
		H54v119.516h95.054c20.668,0,33.748-10.684,33.748-27.558v-13.779C184.299,274.409,178.109,265.123,169.722,261.329
		 M158.239,244.455c0,4.593-1.498,10.684-12.281,10.684h-71.29v-29.155h71.29c2.296,0,11.482,0.799,11.482,8.387L158.239,244.455z
		 M74.668,273.61h69.693c13.779,0,16.874,2.296,16.874,12.98v8.387c0,7.688-2.296,11.482-15.276,11.482h-71.29V273.61z
		 M227.932,305.76h81.974v19.171H207.264V206.214h20.668V305.76z M458.577,206.214v87.365c0,27.558-16.075,32.949-40.637,32.949
		h-49.024c-25.261,0-40.637-5.392-40.637-32.949v-87.365h20.668v87.365c0,8.387,1.498,13.779,19.969,13.779h49.025
		c18.372,0,19.969-5.392,19.969-13.779v-87.365L458.577,206.214L458.577,206.214z"/>
</g>
</svg>
