<?xml version="1.0" encoding="iso-8859-1"?>
<!-- Generator: Adobe Illustrator 28.0.0, SVG Export Plug-In . SVG Version: 6.00 Build 0)  -->
<svg version="1.1" id="GeorgeSamuel.me" xmlns="http://www.w3.org/2000/svg" xmlns:xlink="http://www.w3.org/1999/xlink" x="0px"
	 y="0px" viewBox="0 0 512 512" style="enable-background:new 0 0 512 512;" xml:space="preserve">
<g id="www.GeorgeSamuel.me_00000023964819581775327030000016673744628695816873_">
	<rect style="fill:#FFFFFF;" width="512" height="512"/>
	<circle style="fill:#FFFFFF;" cx="256" cy="256" r="256"/>
	<g id="www.GeorgeSamuel.me">
		<path id="path1422" style="fill:#579EA9;" d="M102.82,313.608c0.706-0.861,1.372-2.18,4.969-3.055
			c0,0,122.072-41.462,284.474-33.172c0,0,9.218-0.337,6.718,3.694c-1.47,2.367-4.209,2.518-9.418,2.784c0,0-1.767,0.276-8.676,0.2
			c0,0,16.61,6.447-48.948,5.106c0,0,5.79,5.905-18.32,4.205c0,0-67.232-3.064-203.114,21.57
			C110.506,314.941,99.819,317.25,102.82,313.608"/>
		<path id="path1426" d="M240.711,179.486c0,0-8.085-10.195-6.718,1.558c0,0,1.101,24.518-2.944,55.031
			c-0.457-1.186-1.083-2.398-1.94-3.592c0,0-7.047-9.395-14.95-6.789c0,0-10.083,3.175-15.922,18.391c0,0-4.12,10.519-2.948,18.44
			c0,0-0.391,20.807,24.936,6.105c0,0,2.682-1.63,5.821-4.818c-0.608,2.597-1.598,4.298-1.696,6.971c0,0-0.906,5.492,1.607,6.873
			c0.959,0.529,1.989-0.2,4.223-5.541c0,0,18.005-46.195,18.968-65.266C249.147,206.851,255.474,197.384,240.711,179.486
			 M209.315,262.623c0,0-1.865-1.239-1.745-6.82c0,0,0.519-9.697,7.109-17.463c0,0,1.834-2.322,3.33-2.611
			c0.497-0.088,1.305,0.639,1.687,3.601c0.089,0.729-2.003,0.88-1.243,3.197c0,0,3.508,8.867,10.892,4.871
			c-0.311,1.816-0.639,3.65-0.99,5.492C224.509,258.227,216.419,267.458,209.315,262.623 M302.908,225.113
			c0,0,14.639,15.589,14.035,26.392c0,0-1.994,15.03-26.863,14.515c0,0-6.154-0.915-0.111-4.862c0,0,16.171-5.23,5.581-24.665
			c0,0-10.017,11.753-16.642,18.258l0.044,0.05c-18.95,18.493-22.68,11.704-22.68,11.704c-7.215-10.328-1.931-32.919-1.931-32.919
			c2.802-11.957,8.991-7.73,8.991-7.73c9.036,1.47,5.652,9.284,5.652,9.284c-1.146,6.003-2.611,5.341-2.611,5.341
			c-2.793,2.256-3.379,12.144-3.379,12.144c1.123,5.457-3.73,13.041,10.297,0.866c3.335-3.339,20.14-22.263,22.818-29.709
			c0,0,2.797-7.251,6.798,1.328 M281.205,202.034c-0.253,2.34-1.505,4.293-3.201,5.328c-2.433,1.834-7.464,4.964-9.085,4.542
			c-1.638-0.427,0.213-5.617,0.302-7.073c0.098-1.643,0.093-2.846,0.426-4.36c0.528-3.539,3.361-6.101,6.469-5.772
			C279.322,195.042,281.6,198.322,281.205,202.034 M384.478,222.206c4.338-5.737,7.375-3.144,7.375-3.144
			c0.413,0.227,1.279-0.05,1.638-0.075c5.759-0.439,1.03,5.222,1.03,5.222c-4.853,6.598-9.249,18.924-9.249,18.924
			c-1.11,2.793-2.18,7.286-2.18,7.286c-1.754,7.482,6.127,2.189,6.127,2.189c1.128-0.799,2.162-1.936,2.695-2.433
			c0.901-0.852,1.683-0.95,1.683-0.95c1.647-0.235-1.154-8.805-1.154-8.805c-1.194-3.388-0.986-3.539-0.986-3.539
			c-0.768-4.16,1.545-5.23,1.545-5.23c2.464-1.505,4.449,2.438,4.449,2.438c2.207,3.352,4.165,12.188,4.165,12.188
			c1.874,7.828-3.992,7.215-3.992,7.215c-2.433,0.48-6.594,4.613-6.594,4.613c-6.474,5.359-15.505,5.883-15.505,5.883
			c-8.96,0.315-8.245-7.579-8.245-7.579C367.214,247.865,384.478,222.206,384.478,222.206 M348.415,233.461
			c4.134,2.886,11.06,9.284,9.915,15.953c0,0-1.994,15.03-26.867,14.519c0,0-2.708-0.146-2.762-1.825
			c0.004-1.239,0.519-2.225,2.655-3.042c0,0,16.175-5.23,5.581-24.665c0,0-4.001,3.095-9.613,7.451c0,0-3.921,4.32-3.636-1.816
			c0,0,0.342-3.392,1.798-4.702c0,0,9.022-5.324,12.011-13.64c1.501-5.492,9.542-10.132,10.323-5.51
			c0.351,2.082-2.042,3.388-3.224,4.862C341.906,224.421,345.36,231.534,348.415,233.461 M188.1,263.472
			c0,0-0.044-0.288-0.302-0.524c-0.67-0.462-3.956,1.021-7.22,2.984c-0.519,0.311-0.99,0.582-1.425,0.826
			c-1.199,0.741-2.353,1.487-2.819,1.887c0,0-2.1,1.674-1.869-2.087c0.004-0.05,0.004-0.101,0.009-0.151h-0.004
			c0.04-0.834,0.2-1.896,0.253-3.037c0,0,2.877-11.496,4.125-14.715c0,0,0.679-3.028,1.754-6.482c0,0,4.902-5.102-4.103-6.753
			c0,0-4.307-10.581-8.938,6.087c-0.004-0.004-0.004-0.004-0.004-0.004c-0.324-1.718-1.891-4.356-4.316-5.399
			c-0.484-0.279-1.168-0.483-2.122-0.564c-0.36-0.038-0.599,0.063-1.394-0.05c0,0-4.311-1.487-8.938,4.294
			c-4.915,5.412-19.261,22.609-15.989,37.013c0,0,1.772,7.455,8.401,7.415c0,0,8.76,0.101,15.385-6.181c0,0,1.985-1.75,4.112-4.351
			c0.079,0.884,0.222,1.861,0.475,2.819c0.04,0.191,0.084,0.373,0.133,0.555c0,0,0.249,1.674,1.616,2.93
			c1.003,0.933,2.624,1.638,5.208,1.288c0.258-0.05,0.528-0.126,0.808-0.204c0,0,9.271-2.242,9.045-6.181
			c-0.116-1.949,0.591-2.34,0.591-2.34s0.591-0.323,0.382-1.008c0,0,7.397-4.946,7.149-8.072 M161.366,268.945
			c-0.764,1.23-1.496,2.615-3.472,3.881c0,0-10.146,6.212-9.791-2.562c0,0,0.337-4.858,2.011-9.378c0,0,4.671-11.873,11.913-18.795
			c0.666-0.671,1.243-0.737,1.612-0.23c1.012,1.381,1.186,2.957,1.954,4.245c0.2,0.342,0.422,0.697,0.662,1.035
			c-0.861,4.453-3.09,12.894-3.463,19.279C162.516,267.299,161.881,268.124,161.366,268.945 M90.634,220.81
			c1.949,3.552-0.653,9.2-0.653,9.2c-11.247,23.004-25.309,77.329-28.119,88.407l0.058-0.013c0,0-0.07,0.174-0.178,0.483
			c-0.253,0.994-0.386,1.532-0.386,1.532c-0.186,0.822-0.382,1.55-0.577,2.238c-0.311,1.705-0.546,3.845-0.493,6.296l-0.035-0.013
			c0.093,2.939-0.035,5.954-0.919,6.363c-2.531,1.154-3.836-2.229-4.533-5.914c-2.478-0.578-4.516-3.787-4.516-3.787
			c-9.116-6.109-2.3-23.089-2.3-23.089c6.194-24.589,36.884-76.446,36.884-76.446c3.597-5.799,5.088-6.487,5.768-5.253
			 M137.27,307.748c4.866,6.789,8.592,11.58,7.57,12.473c-3.312,2.882-18.213-8.76-18.213-8.76
			c-25.921-21.495-37.377-48.895-39.886-55.546c-0.369-0.973,0.364-1.843,0.364-1.843c0.888-0.982,2.296-1.527,6.056-1.954
			c-0.014,0,0.014,0.004,0,0c-1.971-0.945-2.589-1.194-2.415-1.852c0.377-1.075,4.009-1.043,4.009-1.043
			c2.864-0.133,4.946-0.311,4.946-0.311c4.2-0.448,6.336-0.834,6.336-0.834c8.942-1.43,12.45-5.319,12.45-5.319
			c8.845-8.965-5.364-17.947-5.364-17.947c-36.027-20.7-65.035-10.887-65.035-10.887c-1.572,0.453-2.78,0.462-4.507-0.101
			c-3.779-1.261,2.939-6.611,2.939-6.611c17.867-14.799,27.24-10.368,27.24-10.368c34.709,2.304,49.983,20.451,49.983,20.451
			c12.095,12.801,8.96,23.004,7.335,25.97c-5.919,10.825-19.941,11.096-19.941,11.096c-2.185,0.126-4.098,0.182-5.79,0.186
			c1.612,1.838,2.793,5.044,2.793,5.044c2.691,8.445,29.127,48.157,29.127,48.157 M462.331,258.087c0,0,19.008,15.669-4.578,14.874
			c0,0-4.582,0.346-7.397-9.093c0,0-8.103-18.515-7.513-25.513c-0.799,0.892-5.288,6.305-7.855,12.281
			c-1.487,3.454-2.091,4.658-4.218,7.961c-1.168,1.661-2.282,3.152-3.326,4.116c-10.412,9.653-11.424-2.677-11.424-2.677
			c-2.153-10.51,3.246-27.378,3.246-27.378c3.916-11.642,9.68-6.851,9.68-6.851c7.979,2.082,4.751,9.777,4.751,9.777
			c-1.705,5.87-3.237,4.596-3.237,4.596c-1.971,1.305-2.509,4.116-2.646,5.892c0,0-0.746,6.514,2.167,1.523
			c2.194-4.458,6.438-11.882,9.528-14.248c0,0,4.547-4.844,7.206-0.852C446.715,232.495,458.18,255.53,462.331,258.087"/>
		<path id="path1430" style="fill:#579EA9;" d="M410.016,278.343c4.964,0.306,10.545,0.373,18.285,1.124
			c4.014,0.386,10.217,0.386,11.096,2.997c0.804,2.393-2.22,4.849-7.624,5.897c-2.74,0.532-4.467,0.982-6.94,0.897
			c-2.922-0.101-9.173,0.126-9.351-3.246c-0.137-2.105-4.223-2.087-6.953-2.198c-5.461-0.213-4.902-1.758-3.712-3.619
			c0.71-1.142,2.202-1.878,5.199-1.852"/>
		<path d="M220.103,336.289c-0.18,0-0.311-0.099-0.391-0.298l-4.031-8.268h-4.446c-0.119,0-0.179,0.059-0.179,0.179v8.089
			c0,0.198-0.1,0.298-0.3,0.298h-2.075c-0.201,0-0.301-0.099-0.301-0.298v-19.629c0-0.198,0.099-0.298,0.298-0.298h7.333
			c0.953,0,1.817,0.139,2.592,0.416c0.775,0.278,1.441,0.669,1.997,1.175c0.556,0.506,0.989,1.121,1.297,1.844
			c0.307,0.724,0.462,1.521,0.462,2.394c0,1.369-0.357,2.528-1.07,3.48c-0.714,0.951-1.686,1.625-2.915,2.022l4.312,8.535
			c0.059,0.099,0.069,0.184,0.03,0.253c-0.04,0.07-0.109,0.104-0.208,0.104H220.103z M215.948,325.255
			c1.185,0,2.104-0.292,2.756-0.877c0.652-0.585,0.978-1.412,0.978-2.483s-0.327-1.898-0.978-2.483
			c-0.652-0.585-1.571-0.877-2.756-0.877h-4.712c-0.119,0-0.179,0.059-0.179,0.179v6.364c0,0.119,0.06,0.178,0.179,0.178H215.948z"
			/>
		<path d="M230.301,316.362c0-0.198,0.1-0.298,0.301-0.298h2.075c0.2,0,0.3,0.099,0.3,0.298v19.629c0,0.198-0.1,0.298-0.3,0.298
			h-2.075c-0.201,0-0.301-0.099-0.301-0.298V316.362z"/>
		<path d="M245.826,336.289c-0.198,0-0.298-0.099-0.298-0.298v-7.97l-5.978-11.629c-0.08-0.218,0-0.328,0.238-0.328h2.112
			c0.178,0,0.327,0.099,0.446,0.298l4.521,8.655h0.059l4.491-8.655c0.079-0.198,0.218-0.298,0.417-0.298h2.052
			c0.238,0,0.317,0.11,0.238,0.328l-5.978,11.629v7.97c0,0.198-0.1,0.298-0.298,0.298H245.826z"/>
		<path d="M264.206,316.362c0.059-0.198,0.178-0.298,0.357-0.298h1.933c0.198,0,0.328,0.099,0.387,0.298l6.93,19.629
			c0.059,0.198-0.01,0.298-0.208,0.298h-2.082c-0.198,0-0.328-0.099-0.387-0.298l-1.547-4.401h-8.178l-1.547,4.401
			c-0.08,0.198-0.208,0.298-0.387,0.298h-2.081c-0.198,0-0.268-0.099-0.208-0.298L264.206,316.362z M268.727,329.121l-3.183-9.16
			h-0.059l-3.212,9.16H268.727z"/>
		<path d="M280.594,316.362c0-0.198,0.098-0.298,0.297-0.298h6.811c3.47,0,5.671,1.438,6.603,4.313
			c0.079,0.277,0.154,0.565,0.223,0.863c0.07,0.297,0.129,0.664,0.179,1.1s0.083,0.962,0.104,1.576
			c0.019,0.615,0.03,1.369,0.03,2.261c0,0.892-0.011,1.646-0.03,2.261c-0.021,0.615-0.054,1.14-0.104,1.576
			c-0.05,0.437-0.109,0.804-0.179,1.101c-0.069,0.298-0.144,0.585-0.223,0.862c-0.932,2.875-3.133,4.313-6.603,4.313h-6.811
			c-0.198,0-0.297-0.099-0.297-0.298V316.362z M283.27,333.643c0,0.119,0.061,0.178,0.179,0.178h3.706
			c1.225,0,2.212-0.213,2.964-0.639c0.75-0.426,1.294-1.135,1.63-2.126c0.059-0.179,0.117-0.387,0.177-0.624
			c0.061-0.238,0.104-0.541,0.134-0.908c0.029-0.367,0.054-0.818,0.074-1.353c0.019-0.536,0.03-1.199,0.03-1.993
			c0-0.793-0.011-1.457-0.03-1.992c-0.019-0.536-0.045-0.986-0.074-1.354c-0.03-0.367-0.074-0.669-0.134-0.906
			c-0.059-0.238-0.117-0.447-0.177-0.624c-0.336-0.991-0.88-1.7-1.63-2.126c-0.752-0.427-1.739-0.64-2.964-0.64h-3.706
			c-0.119,0-0.179,0.059-0.179,0.179V333.643z"/>
		<path d="M302.692,316.362c0-0.198,0.099-0.298,0.3-0.298h2.075c0.201,0,0.3,0.099,0.3,0.298v8.298
			c0,0.119,0.061,0.178,0.179,0.178h8.744c0.12,0,0.179-0.059,0.179-0.178v-8.298c0-0.198,0.099-0.298,0.3-0.298h2.075
			c0.201,0,0.301,0.099,0.301,0.298v19.629c0,0.198-0.1,0.298-0.301,0.298h-2.075c-0.201,0-0.3-0.099-0.3-0.298v-8.505
			c0-0.12-0.059-0.179-0.179-0.179h-8.744c-0.119,0-0.179,0.059-0.179,0.179v8.505c0,0.198-0.099,0.298-0.3,0.298h-2.075
			c-0.201,0-0.3-0.099-0.3-0.298V316.362z"/>
		<path d="M341.624,316.362c0.059-0.198,0.178-0.298,0.356-0.298h1.934c0.197,0,0.327,0.099,0.386,0.298l6.931,19.629
			c0.059,0.198-0.011,0.298-0.208,0.298h-2.083c-0.198,0-0.327-0.099-0.386-0.298l-1.547-4.401h-8.18l-1.547,4.401
			c-0.079,0.198-0.208,0.298-0.386,0.298h-2.082c-0.198,0-0.269-0.099-0.208-0.298L341.624,316.362z M346.144,329.121l-3.183-9.16
			h-0.059l-3.212,9.16H346.144z"/>
		<path d="M358.011,316.362c0-0.198,0.099-0.298,0.3-0.298h2.075c0.201,0,0.3,0.099,0.3,0.298v19.629c0,0.198-0.099,0.298-0.3,0.298
			h-2.075c-0.201,0-0.3-0.099-0.3-0.298V316.362z"/>
		<path d="M380.945,336.289c-0.18,0-0.311-0.099-0.391-0.298l-4.031-8.268h-4.445c-0.119,0-0.179,0.059-0.179,0.179v8.089
			c0,0.198-0.099,0.298-0.3,0.298h-2.075c-0.201,0-0.3-0.099-0.3-0.298v-19.629c0-0.198,0.098-0.298,0.298-0.298h7.333
			c0.952,0,1.816,0.139,2.592,0.416c0.775,0.278,1.44,0.669,1.997,1.175c0.557,0.506,0.989,1.121,1.297,1.844
			c0.307,0.724,0.461,1.521,0.461,2.394c0,1.369-0.357,2.528-1.07,3.48c-0.714,0.951-1.686,1.625-2.915,2.022l4.313,8.535
			c0.059,0.099,0.069,0.184,0.029,0.253c-0.04,0.07-0.109,0.104-0.208,0.104H380.945z M376.79,325.255
			c1.185,0,2.103-0.292,2.756-0.877c0.652-0.585,0.979-1.412,0.979-2.483s-0.327-1.898-0.979-2.483
			c-0.652-0.585-1.571-0.877-2.756-0.877h-4.712c-0.119,0-0.179,0.059-0.179,0.179v6.364c0,0.119,0.06,0.178,0.179,0.178H376.79z"/>
		<path d="M391.443,336.289c-0.201,0-0.3-0.099-0.3-0.298v-19.629c0-0.198,0.098-0.298,0.297-0.298h7.198
			c0.971,0,1.854,0.144,2.647,0.432c0.793,0.287,1.467,0.693,2.022,1.219c0.555,0.526,0.986,1.161,1.294,1.904
			c0.307,0.744,0.461,1.572,0.461,2.483c0,0.912-0.154,1.74-0.46,2.483c-0.306,0.744-0.737,1.378-1.29,1.904
			c-0.554,0.526-1.226,0.933-2.017,1.22c-0.79,0.288-1.67,0.431-2.639,0.431h-4.657c-0.119,0-0.179,0.059-0.179,0.179v7.673
			c0,0.198-0.099,0.298-0.3,0.298H391.443z M398.502,325.671c1.245,0,2.213-0.317,2.904-0.951c0.692-0.634,1.038-1.507,1.038-2.618
			c0-1.11-0.346-1.982-1.038-2.616c-0.691-0.635-1.659-0.952-2.904-0.952h-4.504c-0.119,0-0.179,0.059-0.179,0.179v6.781
			c0,0.119,0.061,0.178,0.179,0.178H398.502z"/>
		<path d="M419.01,336.616c-1.705,0-3.148-0.396-4.328-1.19c-1.18-0.793-2.027-1.973-2.543-3.539
			c-0.099-0.298-0.184-0.605-0.253-0.922s-0.123-0.689-0.163-1.116c-0.04-0.426-0.069-0.937-0.09-1.531
			c-0.019-0.595-0.029-1.309-0.029-2.142c0-0.833,0.01-1.547,0.029-2.141c0.021-0.595,0.05-1.105,0.09-1.532
			c0.04-0.426,0.094-0.798,0.163-1.116c0.069-0.316,0.154-0.624,0.253-0.921c0.516-1.567,1.363-2.746,2.543-3.54
			c1.18-0.793,2.622-1.19,4.328-1.19c1.726,0,3.178,0.397,4.358,1.19c1.179,0.794,2.027,1.973,2.543,3.54
			c0.099,0.297,0.183,0.605,0.253,0.921c0.069,0.318,0.123,0.69,0.163,1.116c0.04,0.427,0.069,0.937,0.09,1.532
			c0.019,0.594,0.029,1.308,0.029,2.141c0,0.833-0.01,1.547-0.029,2.142c-0.021,0.594-0.05,1.105-0.09,1.531
			c-0.04,0.427-0.094,0.799-0.163,1.116c-0.07,0.317-0.154,0.624-0.253,0.922c-0.516,1.566-1.364,2.746-2.543,3.539
			C422.188,336.22,420.736,336.616,419.01,336.616z M419.01,334.148c1.13,0,2.052-0.258,2.766-0.773
			c0.714-0.516,1.228-1.26,1.547-2.232c0.059-0.178,0.114-0.401,0.163-0.669c0.05-0.267,0.099-0.599,0.149-0.996
			c0.05-0.396,0.083-0.863,0.104-1.398c0.019-0.535,0.029-1.17,0.029-1.904c0-0.733-0.01-1.367-0.029-1.904
			c-0.021-0.535-0.054-1.001-0.104-1.398c-0.05-0.396-0.099-0.729-0.149-0.996c-0.05-0.267-0.104-0.491-0.163-0.669
			c-0.318-0.972-0.833-1.715-1.547-2.23c-0.714-0.516-1.636-0.773-2.766-0.773s-2.048,0.258-2.751,0.773
			c-0.704,0.516-1.215,1.259-1.532,2.23c-0.059,0.178-0.114,0.402-0.163,0.669s-0.099,0.6-0.149,0.996
			c-0.05,0.397-0.085,0.863-0.104,1.398c-0.019,0.536-0.029,1.17-0.029,1.904c0,0.733,0.01,1.369,0.029,1.904
			c0.019,0.535,0.054,1.002,0.104,1.398c0.05,0.397,0.099,0.729,0.149,0.996c0.05,0.269,0.104,0.491,0.163,0.669
			c0.317,0.972,0.828,1.716,1.532,2.232C416.963,333.891,417.88,334.148,419.01,334.148z"/>
		<path d="M446.021,336.289c-0.18,0-0.311-0.099-0.391-0.298l-4.031-8.268h-4.446c-0.119,0-0.178,0.059-0.178,0.179v8.089
			c0,0.198-0.1,0.298-0.3,0.298h-2.075c-0.201,0-0.301-0.099-0.301-0.298v-19.629c0-0.198,0.099-0.298,0.298-0.298h7.333
			c0.954,0,1.818,0.139,2.592,0.416c0.776,0.278,1.441,0.669,1.998,1.175c0.555,0.506,0.989,1.121,1.296,1.844
			c0.307,0.724,0.462,1.521,0.462,2.394c0,1.369-0.357,2.528-1.071,3.48c-0.714,0.951-1.686,1.625-2.914,2.022l4.312,8.535
			c0.059,0.099,0.069,0.184,0.03,0.253c-0.04,0.07-0.109,0.104-0.208,0.104H446.021z M441.865,325.255
			c1.186,0,2.105-0.292,2.757-0.877c0.651-0.585,0.978-1.412,0.978-2.483s-0.327-1.898-0.978-2.483
			c-0.652-0.585-1.571-0.877-2.757-0.877h-4.712c-0.119,0-0.178,0.059-0.178,0.179v6.364c0,0.119,0.059,0.178,0.178,0.178H441.865z"
			/>
		<path d="M460.562,336.289c-0.201,0-0.3-0.099-0.3-0.298v-17.279c0-0.12-0.059-0.179-0.179-0.179h-5.532
			c-0.198,0-0.298-0.099-0.298-0.298v-1.873c0-0.198,0.099-0.298,0.298-0.298h14.097c0.198,0,0.298,0.099,0.298,0.298v1.873
			c0,0.198-0.099,0.298-0.298,0.298h-5.532c-0.119,0-0.178,0.059-0.178,0.179v17.279c0,0.198-0.1,0.298-0.301,0.298H460.562z"/>
	</g>
</g>
</svg>
