<?xml version="1.0" encoding="utf-8"?>
<!-- Generator: Adobe Illustrator 26.0.1, SVG Export Plug-In . SVG Version: 6.00 Build 0)  -->
<svg version="1.1" id="GeorgeSamuel.me" xmlns="http://www.w3.org/2000/svg" xmlns:xlink="http://www.w3.org/1999/xlink" x="0px"
	 y="0px" viewBox="0 0 512 512" style="enable-background:new 0 0 512 512;" xml:space="preserve">
<style type="text/css">
	.st0{fill:#111111;}
	.st1{fill:#FC1700;}
	.st2{fill:#FFFFFF;}
</style>
<g id="www.GeorgeSamuel.me_00000026123515809946125780000007160820124278777219_">
	<rect class="st0" width="512" height="512"/>
	<circle class="st0" cx="256" cy="256" r="256"/>
	<g id="www.GeorgeSamuel.me">
		<path id="Path_7102" class="st1" d="M272.6,295.8l26.9,29.4c-0.5,0.2-1,0.2-1.5,0.3c-7.9,0.2-15.7,0.2-23.6,0.3
			c-11.6,0-23.3,0-34.9,0.2c-1.4,0-2.8-0.6-3.8-1.7c-6.5-7.2-13.2-14.4-19.7-21.7L197.1,282c-5.6-6.3-11.5-12.5-17.1-18.8
			c-3.3-3.6-6.2-7.2-9.2-10.9l-0.5-1c0.7,0,1.4-0.2,1.9-0.2c5.5,0,10.8,0,16.2-0.2l38.7-0.5l34-0.5c8.4-0.2,16.8-0.2,25.1-0.5
			c3.7,0,7.1-2,8.9-5.3c1-1.9,1.7-4,2.1-6.2c1.4-6.8,1-13.9-1-20.5c-1.2-5.2-6.2-8.7-11.5-8c-10.1,0.2-20.4,0.5-30.4,0.7
			c-5.1,0.2-10.3,0.2-15.4,0.2c-9.6,0.2-19,0.3-28.6,0.5c-7.9,0.2-15.6,0.3-23.4,0.5l-28.9,0.5l-25.3,0.5l-27.2,0.5
			c-5.6,0.2-11.5,0.2-17.1,0.3s-11.5,0.2-17.1,0.5c-1.3,0.2-2.6-0.4-3.4-1.5c-8.2-10.6-16.6-21.2-25-31.6c-2.7-3.4-5.3-6.8-8-10.3
			c-0.4-0.4-0.7-0.9-0.9-1.4c2.9-0.2,5.3-0.3,7.9-0.3c5.6-0.2,11.1-0.2,16.6-0.3l36.3-0.5c9.1-0.2,18-0.3,27-0.5l28.6-0.5
			c8.9-0.2,17.8-0.3,26.5-0.5c14.2-0.3,28.6-0.5,42.8-0.9c9.2-0.2,18.3-0.3,27.5-0.5c14-0.2,28.2-0.7,42.2-0.7
			c16-0.3,31.2,7.4,40.4,20.5c7.5,10.1,12.2,22.1,13.3,34.7c1.6,12.1,0.5,24.4-3.3,36.1c-3.1,9.8-8.5,18.6-15.7,25.8
			c-7,7-16,11.6-25.8,13c-7.3,0.9-14.6,1.2-21.9,1h-3.6L272.6,295.8z"/>
		<path id="Path_7103" class="st2" d="M300.1,398.8l-55.4-60.5c0.8-0.1,1.7-0.2,2.6-0.2c19.2-0.2,38.1-0.2,57.3-0.3
			c1.5-0.1,3,0.6,3.9,1.7c12.3,13.5,24.5,26.9,36.8,40.4c8.2,8.9,16.4,17.8,24.5,26.7c0.5,0.5,0.9,1,1.2,1.4
			c-78.3,62.4-192.3,49.5-254.7-28.8c-34.9-43.8-47.6-101.3-34.4-155.7c14.4-0.7,28.9-0.5,43.8-1c-10.6,32.5-8.9,67.8,4.8,99.2
			C158.8,386.9,232.1,420.3,300.1,398.8L300.1,398.8z"/>
		<path id="Path_7104" class="st2" d="M106.6,166.2c14.8-22.5,34.5-41.4,57.5-55.4c57.9-35.2,130.6-35.1,188.5,0.2
			c81,49.1,110.4,152.5,67.4,236.9l-1.5-1.5c-9.1-9.9-18.3-20-27.5-29.9c-1.4-1.2-1.8-3.3-1-5c3.8-10.3,6.1-21.1,7-32
			c4.4-45.3-13.7-89.9-48.4-119.4c-18.2-16-40.5-26.7-64.3-31.1c-11.4-2.2-23-2.9-34.5-2.1c-25.4,1.6-49.8,10.1-70.6,24.6
			c-5.5,3.7-10.6,7.9-15.4,12.5c-0.8,0.9-2,1.3-3.3,1.2c-7.2,0-14.5,0.2-21.7,0.2c-9.6,0.2-19.3,0.3-28.9,0.5
			C108.7,166,108,166,106.6,166.2z"/>
	</g>
</g>
</svg>
