<svg width="115" height="124" viewBox="0 0 115 124" fill="none" xmlns="http://www.w3.org/2000/svg">
<path d="M43.0666 16.4887L24.8507 4.27025C24.8507 4.27025 23.0656 2.61861 18.5265 9.0993C15.3461 12.5639 12.1598 16.0352 8.97313 19.4995C9.71996 21.6365 11.2545 23.3248 12.8493 24.801L23.9135 32.2161L5.28989 45.1382C5.28989 45.1382 1.29815 47.9057 6.50269 51.3967L23.745 62.959C23.745 62.959 25.1871 65.2882 32.5579 56.6236L43.6468 46.6078L59.5911 57.2975L76.5472 40.7523L62.5865 29.5731L75.7036 21.5879C75.7036 21.5879 80.0078 19.9381 72.6752 15.473L55.769 4.10691L43.0666 16.4887Z" fill="#008FF1"/>
<path fill-rule="evenodd" clip-rule="evenodd" d="M5.13531 45.8479C5.13557 45.8477 5.13581 45.8476 5.24214 45.9916L5.13531 45.8479L22.6032 33.7277L12.7361 27.1148L12.6706 27.0542C11.0417 25.5465 9.33574 23.7019 8.49628 21.2999L8.3009 20.7409L8.67413 20.3351C11.8157 16.9198 14.957 13.4977 18.0929 10.0815L18.1881 9.97779C20.4694 6.73087 22.163 5.35872 23.4199 4.86626C24.0727 4.61046 24.6352 4.58166 25.0994 4.68605C25.3271 4.73723 25.5136 4.81677 25.6587 4.8985C25.7307 4.93906 25.7913 4.97954 25.8409 5.01634C25.8463 5.02031 25.8515 5.02424 25.8566 5.02812L43.3457 16.759L56.0487 4.37662L73.6232 16.192C75.4961 17.3346 76.7209 18.3518 77.4635 19.2778C78.2253 20.2276 78.5294 21.1519 78.3902 21.9996C78.2578 22.8049 77.7577 23.3264 77.3815 23.6186C77.186 23.7705 76.9992 23.88 76.8604 23.9522C76.7906 23.9886 76.7311 24.0165 76.686 24.0365C76.6858 24.0366 76.6862 24.0364 76.686 24.0365L64.7818 31.2833L78.521 42.2851L60.2406 60.1226L44.2717 49.4164L33.7701 58.9018C30.0933 63.2172 27.7821 64.9398 26.2855 65.5244C25.5149 65.8255 24.8612 65.8636 24.3137 65.6822C24.0418 65.5921 23.8285 65.4575 23.6695 65.3194C23.6396 65.2934 23.612 65.2677 23.5866 65.2425L6.46305 53.7598C5.05861 52.8178 4.15887 51.8486 3.68589 50.8562C3.20072 49.8384 3.21476 48.9012 3.45058 48.1353C3.67886 47.3938 4.10866 46.8251 4.45265 46.4563C4.62831 46.268 4.79144 46.1214 4.91313 46.02C4.97422 45.9691 5.02558 45.929 5.06375 45.9001C5.08286 45.8857 5.09872 45.874 5.11092 45.8652L5.12645 45.8541L5.13207 45.8502L5.13433 45.8486L5.13531 45.8479ZM24.8612 63.7908C24.9551 63.7879 25.1331 63.763 25.4173 63.6519C26.4795 63.237 28.5641 61.8016 32.2365 57.4846L32.2736 57.4409L43.9499 46.8945L59.8697 57.5677L75.5013 42.3149L61.3191 30.9583L75.6628 22.2264L75.7306 22.2005L75.7319 22.1999L75.7428 22.1952C75.7572 22.1889 75.7827 22.1771 75.816 22.1597C75.8839 22.1244 75.9762 22.0701 76.0695 21.9975C76.2713 21.8408 76.3889 21.6708 76.4161 21.5055C76.4363 21.3826 76.4416 21.0573 75.9481 20.442C75.4384 19.8064 74.4581 18.9473 72.677 17.8627L72.6554 17.8495L56.4173 6.93256L43.7156 19.3137L24.811 6.63329C24.7559 6.62651 24.589 6.62084 24.2897 6.73812C23.5253 7.03763 22.0672 8.06901 19.8262 11.2686L19.7931 11.3159L19.6263 11.4976C16.6182 14.7746 13.6045 18.0577 10.5902 21.3351C11.2903 22.9407 12.51 24.2977 13.8911 25.583L26.1518 33.7999L6.37562 47.5217C6.37588 47.5215 6.376 47.5215 6.37562 47.5217L6.37431 47.5227L6.35695 47.5356C6.33919 47.549 6.30987 47.5717 6.27198 47.6033C6.1957 47.6669 6.08764 47.7637 5.97039 47.8894C5.72857 48.1486 5.48572 48.49 5.36663 48.8768C5.25508 49.2391 5.24704 49.6484 5.47719 50.1312C5.71953 50.6397 6.27265 51.3256 7.47047 52.129L24.8612 63.7908Z" fill="#21201E"/>
<path fill-rule="evenodd" clip-rule="evenodd" d="M88.2602 52.0763C87.8018 51.7292 87.6789 51.0999 87.9857 50.6704C88.2927 50.2405 88.9136 50.1734 89.3726 50.5204L88.8655 51.2304C89.3726 50.5204 89.3733 50.5209 89.374 50.5214L89.382 50.5275L89.4017 50.5426C89.4182 50.5554 89.4415 50.5734 89.4713 50.5968C89.5309 50.6437 89.6165 50.7119 89.7262 50.8017C89.9458 50.9814 90.2619 51.2475 90.6594 51.6015C91.4543 52.3096 92.5751 53.3699 93.8996 54.7947C96.5485 57.6444 100.014 61.9541 103.316 67.822C109.928 79.5711 115.856 97.5165 113.327 122.404C113.271 122.947 112.781 123.302 112.232 123.198C111.682 123.094 111.282 122.569 111.337 122.027C113.823 97.5661 107.994 80.053 101.594 68.6808C98.3906 62.9881 95.0368 58.8214 92.4929 56.0848C91.2211 54.7165 90.1521 53.7062 89.4064 53.042C89.0335 52.7099 88.7416 52.4644 88.5456 52.304C88.4476 52.2238 88.3737 52.1649 88.3256 52.1271C88.3015 52.1082 88.284 52.0946 88.2731 52.0862L88.2619 52.0776L88.2602 52.0763Z" fill="#21201E"/>
<path fill-rule="evenodd" clip-rule="evenodd" d="M77.6537 65.9187C77.2203 65.5391 77.1461 64.9062 77.4881 64.5049C77.83 64.1036 78.4587 64.0859 78.8923 64.4655L78.273 65.1921C78.8923 64.4655 78.8919 64.4652 78.8923 64.4655L78.8976 64.4702L78.9105 64.4815L78.958 64.5236C78.9992 64.5602 79.0593 64.614 79.1372 64.6844C79.2928 64.8251 79.5192 65.0321 79.8064 65.3011C80.3808 65.8389 81.199 66.625 82.1813 67.6242C84.1447 69.6214 86.7703 72.4764 89.4184 75.9089C94.6864 82.7374 100.17 92.0124 100.503 101.427C100.523 101.979 100.091 102.402 99.5395 102.372C98.9877 102.342 98.5245 101.871 98.5049 101.319C98.1954 92.578 93.0633 83.7625 87.8765 77.0394C85.2972 73.6962 82.7356 70.9102 80.8187 68.9603C79.8608 67.986 79.0655 67.222 78.5114 66.7032C78.2345 66.4438 78.0179 66.2459 77.8717 66.1136C77.7985 66.0475 77.743 65.9979 77.7063 65.9652L77.6655 65.9291L77.656 65.9207L77.6537 65.9187Z" fill="#21201E"/>
</svg>
