<svg width="84" height="129" viewBox="0 0 84 129" fill="none" xmlns="http://www.w3.org/2000/svg">
<path d="M47.3537 126.475L57.4518 84.0435L44.3471 89.9338C44.3471 89.9338 25.2681 52.5906 79.4053 38.1555C79.4053 38.1555 76.1878 2.35371 76.1872 2.33712C76.1902 2.41452 67.1159 4.11945 66.5882 4.24849C58.8254 6.13313 51.3963 8.66203 44.5377 11.7755C14.3575 25.4844 -0.289263 52.4497 7.9008 78.4703C8.68384 80.9604 9.62144 83.4547 10.6041 85.9172C11.0743 87.1009 17.2725 99.2994 18.4542 98.7134L4.51524 105.591L47.3537 126.475Z" fill="#E1C557"/>
<path fill-rule="evenodd" clip-rule="evenodd" d="M51.0583 128.902L5.24587 106.568L19.5998 99.4856C19.3991 99.2363 19.1937 98.9577 18.988 98.6634C18.2021 97.5388 17.281 95.9946 16.3983 94.4242C14.643 91.3011 12.9438 87.9008 12.6783 87.2333C11.6911 84.7594 10.7428 82.2378 9.94862 79.7123C1.56247 53.0682 16.6188 25.6958 47.0756 11.8612C53.9908 8.72205 61.4763 6.17447 69.2928 4.27677C69.5187 4.22185 70.9522 3.94527 72.6264 3.62227C73.1813 3.51521 73.7626 3.40304 74.3351 3.29216C75.5022 3.06615 76.6496 2.84234 77.5044 2.67035C77.9327 2.5842 78.2827 2.512 78.5237 2.45944C78.6458 2.43281 78.731 2.41314 78.7819 2.4003C78.8016 2.39531 78.8085 2.39328 78.8066 2.39384C78.8058 2.39409 78.8033 2.39485 78.7995 2.39608C78.7981 2.39653 78.7615 2.40789 78.7137 2.42992C78.695 2.43854 78.6293 2.46897 78.555 2.52436C78.5186 2.55142 78.4447 2.61032 78.3731 2.70554C78.307 2.79352 78.1762 3.00172 78.1881 3.3102L80.1874 3.36528C80.1866 3.34553 80.6503 8.5064 81.2281 14.9387C81.4089 16.951 81.6009 19.0878 81.7933 21.2294L83.4021 39.1319C83.4021 39.1322 83.4021 39.1323 82.4058 39.1561L83.4021 39.1319L83.4732 39.923L82.7223 40.1232C55.9021 47.2745 47.4775 60.0045 45.5604 70.697C44.5931 76.0917 45.2632 81.0607 46.1814 84.6901C46.64 86.5027 47.1587 87.9741 47.5605 88.9877C47.6512 89.2166 47.7359 89.422 47.8126 89.6026L61.92 83.2616L51.0583 128.902ZM47.3476 90.9344C46.4627 91.3412 46.4623 91.3404 46.4618 91.3395L46.4606 91.337L46.4567 91.3294L46.444 91.3041C46.4376 91.2912 46.4296 91.2751 46.4202 91.2558C46.4139 91.243 46.407 91.2288 46.3994 91.2132C46.3616 91.135 46.3078 91.0219 46.241 90.8757C46.1075 90.5833 45.9218 90.1584 45.7066 89.6156C45.2765 88.5306 44.7276 86.9717 44.2434 85.0579C43.2761 81.2343 42.56 75.9653 43.5902 70.2199C45.6487 58.7387 54.6052 45.7152 81.3387 38.3919L79.5174 18.1243C78.9957 12.3189 78.5124 6.93994 78.3007 4.57516C78.2115 4.59328 78.1186 4.61206 78.0223 4.63145C77.16 4.80495 76.0064 5.02994 74.8393 5.25596C74.233 5.37338 73.6287 5.48998 73.0578 5.60015C72.5216 5.7036 72.0149 5.80137 71.5638 5.88879C71.1015 5.97834 70.7054 6.05552 70.4088 6.11424C70.2604 6.14363 70.1384 6.16809 70.0461 6.18703C70 6.19651 69.9626 6.20432 69.9339 6.2105L69.8995 6.21801L69.8895 6.2203L69.8862 6.22108L69.8846 6.22146C62.1757 8.09302 54.8028 10.6033 48.001 13.6909C18.0974 27.2742 3.86019 53.8324 11.854 79.2294C12.6258 81.6837 13.5527 84.1508 14.5307 86.6016L14.5313 86.6031C14.7371 87.1211 16.3714 90.4105 18.1275 93.5348C19.0009 95.0888 19.8803 96.5583 20.6036 97.5932C20.9705 98.1181 21.2656 98.4852 21.4762 98.693C21.5616 98.7773 21.6026 98.8046 21.6022 98.8051C21.6022 98.8052 21.5986 98.8031 21.5918 98.7996C21.5685 98.7875 21.2906 98.6506 20.9637 98.8126L20.9653 98.8118L21.9458 100.615M47.3476 90.9344L46.4627 91.3412L46.9255 92.247L58.9847 86.8267L49.6502 126.05L9.78571 106.616L21.9429 100.617" fill="#21201E"/>
<path fill-rule="evenodd" clip-rule="evenodd" d="M15.4029 52.3717C14.8978 52.1151 14.6699 51.5108 14.8938 51.022L15.8083 51.4865C14.8938 51.022 14.894 51.0215 14.8943 51.0209L14.8951 51.0191L14.8977 51.0135L14.9067 50.9941C14.9144 50.9775 14.9256 50.9538 14.9402 50.923C14.9695 50.8614 15.0126 50.7717 15.07 50.6556C15.1846 50.4234 15.3558 50.0853 15.5859 49.654C16.0459 48.7914 16.7414 47.5558 17.6897 46.049C19.5859 43.036 22.4953 38.9348 26.5581 34.5631C34.6831 25.8201 47.4379 15.978 65.934 11.6215C66.4629 11.4969 67.0212 11.8319 67.1811 12.3698C67.341 12.9076 67.042 13.4446 66.5131 13.5692C48.4644 17.8203 36.0116 27.4238 28.0652 35.9745C24.0922 40.2497 21.25 44.2573 19.4034 47.1915C18.4804 48.6583 17.8067 49.8558 17.3655 50.683C17.1449 51.0966 16.9824 51.4175 16.876 51.6331C16.8228 51.7409 16.7836 51.8223 16.7582 51.8759L16.7303 51.935L16.724 51.9485L16.7228 51.9511L16.7228 51.9512L16.7227 51.9515C16.4986 52.4401 15.9079 52.6282 15.4029 52.3717Z" fill="#21201E"/>
<path fill-rule="evenodd" clip-rule="evenodd" d="M27.483 47.4998C27.0189 47.1703 26.8857 46.544 27.1855 46.1011C33.0209 37.4798 42.0221 31.1697 49.6046 27.023C53.4044 24.9449 56.8687 23.399 59.4363 22.3698C60.7201 21.8553 61.783 21.4686 62.555 21.2084C62.9403 21.0785 63.2578 20.9786 63.4969 20.9096C63.6157 20.8753 63.722 20.8467 63.8111 20.8256L63.8137 20.8249C63.872 20.8111 64.0104 20.7783 64.1482 20.7743C64.6983 20.7586 65.1864 21.1932 65.2386 21.7451C65.2883 22.2704 64.9249 22.7127 64.4154 22.7675C64.4094 22.7688 64.402 22.7705 64.3931 22.7726C64.3446 22.7841 64.2701 22.8038 64.1672 22.8335C63.9628 22.8924 63.6731 22.9833 63.3047 23.1074C62.5693 23.3552 61.5394 23.7296 60.2846 24.2325C57.7749 25.2385 54.3786 26.7538 50.6522 28.7917C43.1822 32.8769 34.4682 39.0177 28.8661 47.2945C28.5663 47.7374 27.947 47.8294 27.483 47.4998ZM64.435 22.7635C64.4349 22.7636 64.4328 22.764 64.4289 22.7646C64.4331 22.7638 64.4351 22.7635 64.435 22.7635Z" fill="#21201E"/>
</svg>
