<svg width="96" height="87" viewBox="0 0 96 87" fill="none" xmlns="http://www.w3.org/2000/svg">
<path d="M95.5116 63.3022C95.5116 63.3022 95.4916 63.2322 95.4816 63.1922C95.4816 63.1522 95.4616 63.1122 95.4516 63.0822C95.4416 63.0422 95.4316 62.9922 95.4116 62.9522C95.4116 62.9222 95.3916 62.8822 95.3816 62.8522C95.3716 62.8122 95.3616 62.7722 95.3416 62.7322C95.3416 62.6922 95.3216 62.6622 95.3116 62.6222C95.3116 62.5822 95.2916 62.5522 95.2816 62.5122C95.2816 62.4722 95.2616 62.4322 95.2516 62.4022C95.2416 62.3622 95.2316 62.3222 95.2216 62.2822C95.2116 62.2422 95.2016 62.2022 95.1816 62.1622C95.1816 62.1222 95.1616 62.0922 95.1516 62.0622C95.1416 62.0222 95.1316 61.9822 95.1216 61.9422C95.1216 61.9022 95.1016 61.8722 95.0916 61.8322C95.0816 61.7922 95.0716 61.7522 95.0516 61.7122C95.0016 61.5222 94.8916 61.3622 94.7316 61.2622L67.8716 45.1422L83.3916 35.8222C83.6616 35.6622 83.7916 35.3222 83.7216 34.9922C83.7216 34.9622 83.7016 34.9422 83.6916 34.9122C83.6916 34.9122 83.6916 34.8922 83.6916 34.8822C83.6916 34.8522 83.6716 34.8322 83.6616 34.8022C83.6616 34.7922 83.6616 34.7822 83.6616 34.7722C83.6616 34.7422 83.6416 34.7222 83.6316 34.6922C83.6316 34.6822 83.6316 34.6722 83.6316 34.6622C83.6316 34.6322 83.6116 34.6022 83.5916 34.5722C83.5916 34.5722 83.5916 34.5622 83.5916 34.5522C83.5916 34.5222 83.5716 34.5022 83.5616 34.4722C83.5616 34.4622 83.5616 34.4522 83.5616 34.4422C83.5616 34.4122 83.5416 34.3822 83.5216 34.3522C83.5216 34.3522 83.5216 34.3422 83.5216 34.3322C83.5216 34.3022 83.5016 34.2822 83.4916 34.2522C83.4916 34.2522 83.4916 34.2322 83.4916 34.2222C83.4916 34.1922 83.4716 34.1722 83.4616 34.1422C83.4616 34.1322 83.4616 34.1222 83.4616 34.1122C83.4616 34.0822 83.4416 34.0622 83.4316 34.0322C83.4316 34.0222 83.4316 34.0122 83.4316 34.0022C83.4316 33.9722 83.4116 33.9522 83.4016 33.9222C83.4016 33.9222 83.4016 33.9022 83.4016 33.8922C83.4016 33.8622 83.3816 33.8322 83.3616 33.8022C83.3616 33.8022 83.3616 33.7922 83.3616 33.7822C83.3616 33.7522 83.3416 33.7322 83.3316 33.7022C83.3316 33.6922 83.3316 33.6822 83.3316 33.6722C83.3316 33.6422 83.3116 33.6222 83.3016 33.5922C83.3016 33.5922 83.3016 33.5722 83.3016 33.5622C83.3016 33.5322 83.2816 33.5122 83.2716 33.4822C83.2716 33.4722 83.2716 33.4622 83.2716 33.4522C83.2716 33.4222 83.2516 33.3922 83.2316 33.3622C83.2316 33.3622 83.2316 33.3522 83.2316 33.3422C83.1616 33.0122 82.9016 32.7822 82.5916 32.7722L66.5016 32.3222L76.8616 5.53219C76.9316 5.34219 76.9216 5.15219 76.8616 4.97219C76.8616 4.93219 76.8416 4.90219 76.8316 4.86219C76.8316 4.82219 76.8116 4.78219 76.8016 4.75219C76.8016 4.71219 76.7816 4.67219 76.7616 4.62219C76.7616 4.59219 76.7416 4.56219 76.7316 4.52219C76.7316 4.48219 76.7116 4.44219 76.6916 4.39219C76.6916 4.35219 76.6716 4.32219 76.6616 4.29219C76.6616 4.25219 76.6416 4.22219 76.6316 4.18219C76.6316 4.14219 76.6116 4.10219 76.6016 4.07219C76.6016 4.03219 76.5816 3.99219 76.5716 3.96219C76.5716 3.92219 76.5516 3.88219 76.5316 3.84219C76.5316 3.80219 76.5116 3.77219 76.5016 3.74219C76.5016 3.70219 76.4816 3.66219 76.4716 3.63219C76.4716 3.59219 76.4516 3.56219 76.4416 3.52219C76.4416 3.48219 76.4216 3.44219 76.4016 3.39219C76.3716 3.22219 76.2816 3.06219 76.1416 2.95219C76.0216 2.86219 75.8816 2.81219 75.7416 2.81219C75.5816 2.81219 75.4316 2.87219 75.3016 2.99219L54.9016 22.8322L51.3916 4.57219C51.3916 4.57219 51.3716 4.52219 51.3616 4.50219V4.47219C51.3616 4.47219 51.3416 4.42219 51.3316 4.40219V4.36219C51.3316 4.36219 51.3016 4.31219 51.3016 4.29219V4.25219C51.3016 4.25219 51.2716 4.18219 51.2616 4.15219C51.2616 4.15219 51.2416 4.09219 51.2416 4.07219V4.03219C51.2416 4.03219 51.2116 3.98219 51.2116 3.96219V3.92219C51.2116 3.92219 51.1816 3.87219 51.1816 3.85219V3.82219C51.1816 3.82219 51.1516 3.76219 51.1416 3.73219V3.71219C51.1416 3.71219 51.1216 3.66219 51.1116 3.64219V3.60219C51.1116 3.60219 51.0816 3.55219 51.0816 3.53219V3.49219C51.0816 3.49219 51.0616 3.44219 51.0516 3.42219V3.38219C51.0516 3.38219 51.0216 3.32219 51.0116 3.29219V3.27219C51.0116 3.27219 50.9916 3.22219 50.9816 3.20219V3.16219C50.9816 3.16219 50.9616 3.11219 50.9516 3.09219V3.05219C50.9516 3.05219 50.9216 3.00219 50.9216 2.98219V2.94219C50.8516 2.62219 50.6216 2.39219 50.3316 2.35219C50.3016 2.35219 50.2816 2.35219 50.2516 2.35219C49.9916 2.35219 49.7616 2.52219 49.6416 2.78219L40.0216 25.7122L16.9716 0.952187C16.8416 0.812187 16.6816 0.742188 16.5016 0.742188C16.3916 0.742188 16.2716 0.772188 16.1716 0.842188C15.9116 1.00219 15.7816 1.33219 15.8416 1.66219L23.0216 37.7122L1.13156 52.1522C0.881562 52.3222 0.751562 52.6522 0.821562 52.9722C0.821562 53.0022 0.841562 53.0322 0.851562 53.0522C0.851562 53.0522 0.851562 53.0722 0.851562 53.0822C0.851562 53.1122 0.871562 53.1422 0.881562 53.1622C0.881562 53.1622 0.881562 53.1822 0.881562 53.1922C0.881562 53.2222 0.901562 53.2422 0.911562 53.2722C0.911562 53.2822 0.911562 53.2922 0.911562 53.3022C0.911562 53.3322 0.931562 53.3522 0.941562 53.3822C0.941562 53.3922 0.941562 53.4022 0.941562 53.4122C0.941562 53.4422 0.961562 53.4722 0.981562 53.5122C0.981562 53.5122 0.981562 53.5122 0.981562 53.5222C0.981562 53.5522 1.00156 53.5722 1.01156 53.6022C1.01156 53.6122 1.01156 53.6222 1.01156 53.6322C1.01156 53.6622 1.03156 53.6922 1.04156 53.7122C1.04156 53.7222 1.04156 53.7322 1.04156 53.7422C1.04156 53.7722 1.06156 53.8022 1.07156 53.8222C1.07156 53.8222 1.07156 53.8422 1.07156 53.8522C1.07156 53.8822 1.09156 53.9122 1.11156 53.9522C1.11156 53.9522 1.11156 53.9622 1.11156 53.9722C1.11156 54.0022 1.13156 54.0322 1.14156 54.0522C1.14156 54.0522 1.14156 54.0722 1.14156 54.0822C1.14156 54.1122 1.16156 54.1422 1.17156 54.1622C1.17156 54.1622 1.17156 54.1822 1.17156 54.1922C1.17156 54.2222 1.19156 54.2522 1.20156 54.2722C1.20156 54.2822 1.20156 54.2922 1.20156 54.3022C1.20156 54.3322 1.22156 54.3622 1.23156 54.3822C1.23156 54.3822 1.23156 54.4022 1.23156 54.4122C1.23156 54.4422 1.25156 54.4722 1.27156 54.5122C1.27156 54.5122 1.27156 54.5122 1.27156 54.5222C1.27156 54.5522 1.29156 54.5722 1.30156 54.6022C1.30156 54.6122 1.30156 54.6222 1.30156 54.6322C1.37156 54.9522 1.61156 55.1822 1.91156 55.2022L20.4416 56.5522L6.34156 83.3822C6.22156 83.6022 6.22156 83.8722 6.32156 84.0922C6.33156 84.1322 6.34156 84.1722 6.35156 84.2122C6.36156 84.2522 6.37156 84.2822 6.38156 84.3222C6.39156 84.3622 6.40156 84.4022 6.41156 84.4322C6.42156 84.4722 6.43156 84.5222 6.45156 84.5622C6.45156 84.5922 6.46156 84.6322 6.48156 84.6622C6.49156 84.7022 6.50156 84.7422 6.51156 84.7722C6.52156 84.8122 6.53156 84.8522 6.54156 84.8922C6.55156 84.9322 6.56156 84.9722 6.58156 85.0122C6.59156 85.0422 6.60156 85.0822 6.61156 85.1122C6.62156 85.1522 6.63156 85.1922 6.64156 85.2322C6.65156 85.2722 6.66156 85.3022 6.67156 85.3422C6.68156 85.3822 6.69156 85.4222 6.70156 85.4522C6.71156 85.4922 6.72156 85.5422 6.74156 85.5822C6.74156 85.6122 6.75156 85.6522 6.77156 85.6822C6.80156 85.7922 6.85156 85.9022 6.93156 85.9922C7.06156 86.1322 7.23156 86.2122 7.41156 86.2122C7.53156 86.2122 7.64156 86.1822 7.75156 86.1122L40.8816 64.6422L51.4816 85.3222C51.6016 85.5622 51.8316 85.7022 52.0616 85.7022C52.1016 85.7022 52.1316 85.7022 52.1716 85.6922C52.4516 85.6422 52.6616 85.4022 52.7216 85.0922L56.7116 61.8622C56.7116 61.8622 94.8716 64.3622 94.8916 64.3622C95.1916 64.3622 95.4516 64.1422 95.5316 63.8222C95.5816 63.6422 95.5616 63.4622 95.4916 63.3022H95.5116Z" fill="#21201E"/>
<path d="M23.6509 37.5753L16.3621 1L40.0508 26.3987L50.0748 2.52481L54.1738 23.8601L75.5857 3.03173L64.1942 32.4939L82.4199 33.0008L64.6524 43.6705L94.2624 61.4492L55.5414 58.9065L51.4387 82.7804L40.5055 61.4492L6.7928 83.2873L22.2834 53.8292L1.32617 52.3043L23.6509 37.5753Z" fill="#D36A57"/>
<path d="M56.064 33.5003C56.0273 33.3571 55.9951 33.2291 55.9676 33.1166C55.9492 33.004 55.9401 32.8914 55.9401 32.7788C55.9401 32.4923 56.0181 32.2518 56.1741 32.0573C56.3393 31.8629 56.5826 31.7656 56.9038 31.7656C58.3266 31.7656 59.1068 32.1443 59.2445 32.9016C59.4097 33.8637 59.5611 34.8308 59.6988 35.8031C59.8365 36.7753 59.9558 37.7629 60.0568 38.7659C60.1669 39.7586 60.2495 40.7718 60.3046 41.8055C60.3689 42.8289 60.401 43.8779 60.401 44.9525C60.401 45.1572 60.3918 45.3568 60.3735 45.5513C60.3551 45.7355 60.3184 45.9043 60.2633 46.0579C60.2082 46.2011 60.1302 46.3188 60.0292 46.4109C59.9375 46.503 59.809 46.5491 59.6437 46.5491L58.4872 46.3649C58.2485 46.3342 58.0787 46.2574 57.9778 46.1346C57.886 46.0016 57.8309 45.8173 57.8125 45.582C57.7391 43.7091 57.5555 41.7492 57.2618 39.7023C56.9681 37.6555 56.5688 35.5881 56.064 33.5003ZM58.9002 52.398C58.6341 52.398 58.3816 52.352 58.143 52.2598C57.9135 52.178 57.7116 52.0552 57.5372 51.8914C57.372 51.7379 57.2389 51.5537 57.1379 51.3388C57.0369 51.1238 56.9864 50.8884 56.9864 50.6326C56.9864 50.2028 57.1379 49.8548 57.4408 49.5887C57.7529 49.3226 58.1659 49.1896 58.68 49.1896C58.9186 49.1896 59.1481 49.2407 59.3684 49.3431C59.5887 49.4352 59.7814 49.5631 59.9466 49.7269C60.121 49.8906 60.2587 50.0851 60.3597 50.3102C60.4607 50.5251 60.5111 50.7503 60.5111 50.9857C60.5111 51.4258 60.3643 51.7686 60.0706 52.0142C59.786 52.2701 59.3959 52.398 58.9002 52.398Z" fill="white"/>
<path d="M41.8 46.0169C41.8 45.8429 41.8183 45.6485 41.8551 45.4336C41.8918 45.2186 41.9101 44.9832 41.9101 44.7274C41.9101 44.5534 41.8413 44.4204 41.7036 44.3283C41.5751 44.2361 41.4282 44.1338 41.263 44.0212C41.0978 43.9086 40.9463 43.7654 40.8087 43.5914C40.6802 43.4174 40.6159 43.1667 40.6159 42.8392C40.6159 42.6038 40.671 42.3684 40.7811 42.133C40.9005 41.8976 41.0703 41.6827 41.2906 41.4882C41.8321 41.0379 42.392 40.6337 42.9703 40.2755C43.5577 39.9173 44.1406 39.6153 44.7189 39.3697C45.3063 39.1241 45.8846 38.9348 46.4537 38.8017C47.0228 38.6687 47.5689 38.6021 48.0921 38.6021C48.9733 38.6021 49.7994 38.7864 50.5704 39.1548C51.3506 39.513 52.0253 40.0094 52.5944 40.6439C53.1726 41.2682 53.627 42.0051 53.9574 42.8545C54.297 43.6937 54.4668 44.5943 54.4668 45.5564C54.4668 46.4979 54.2879 47.3934 53.9299 48.2429C53.5811 49.0821 53.1084 49.819 52.5117 50.4535C51.9151 51.088 51.2129 51.5895 50.4052 51.9579C49.6066 52.3366 48.7622 52.5259 47.8718 52.5259C46.9998 52.5259 46.1921 52.3622 45.4486 52.0347C44.7051 51.7072 44.0626 51.2569 43.521 50.6838C42.9795 50.1004 42.5572 49.4147 42.2543 48.6267C41.9514 47.8284 41.8 46.9585 41.8 46.0169ZM48.1747 49.7627C48.5602 49.7627 48.9595 49.6757 49.3726 49.5017C49.7856 49.3277 50.1619 49.077 50.5016 48.7495C50.8504 48.4117 51.1349 48.0024 51.3552 47.5214C51.5847 47.0403 51.6994 46.4979 51.6994 45.8941C51.6994 45.28 51.5984 44.7069 51.3965 44.1747C51.1946 43.6426 50.9146 43.182 50.5566 42.7931C50.2078 42.394 49.7902 42.0818 49.3037 41.8567C48.8264 41.6315 48.3078 41.5189 47.7479 41.5189C46.729 41.5189 45.9488 41.8157 45.4073 42.4093C44.8657 42.9927 44.595 43.8933 44.595 45.1112C44.595 45.7764 44.6822 46.3956 44.8566 46.9687C45.0401 47.5316 45.2925 48.0228 45.6138 48.4424C45.9351 48.8518 46.3114 49.1742 46.7428 49.4096C47.1834 49.645 47.6607 49.7627 48.1747 49.7627Z" fill="white"/>
<path d="M29.5462 35.2299C29.7389 35.0969 29.9363 35.0048 30.1382 34.9536C30.3401 34.9024 30.5283 34.8769 30.7027 34.8769C30.9322 34.8769 31.1387 34.9229 31.3223 35.015C31.5059 35.0969 31.6619 35.2044 31.7904 35.3374C31.9189 35.4704 32.0153 35.624 32.0795 35.7979C32.153 35.9617 32.1897 36.1254 32.1897 36.2892C32.1897 36.5143 32.1209 36.7293 31.9832 36.934C31.8547 37.1386 31.6711 37.3126 31.4324 37.4559C30.9551 37.7629 30.5559 38.0239 30.2346 38.2388C29.9133 38.4538 29.638 38.6482 29.4085 38.8222C29.1882 38.9962 28.9954 39.1599 28.8302 39.3134C28.665 39.4669 28.4998 39.6358 28.3346 39.82C28.0959 40.0657 27.8664 40.3471 27.6461 40.6644C27.4259 40.9816 27.2285 41.2989 27.0541 41.6162C26.8889 41.9232 26.7512 42.22 26.6411 42.5065C26.5401 42.7931 26.4896 43.0285 26.4896 43.2127C26.4896 43.3662 26.5263 43.489 26.5998 43.5811C26.6732 43.6733 26.7787 43.7193 26.9164 43.7193C27.0633 43.7193 27.2239 43.663 27.3983 43.5504C27.9582 43.2025 28.5457 42.8903 29.1607 42.614C29.7848 42.3377 30.4136 42.1023 31.0469 41.9078C31.6803 41.7134 32.3136 41.5701 32.947 41.478C33.5803 41.3756 34.1953 41.3245 34.7919 41.3245C35.7373 41.3245 36.6047 41.4422 37.3941 41.6776C38.1835 41.9027 38.8627 42.22 39.4318 42.6294C40.0009 43.0387 40.4415 43.5351 40.7536 44.1184C41.0657 44.6916 41.2217 45.321 41.2217 46.0067C41.2217 46.7743 41.0244 47.5111 40.6297 48.2173C40.235 48.9235 39.6934 49.5426 39.005 50.0748C38.3166 50.607 37.5043 51.0317 36.568 51.349C35.6318 51.6663 34.6221 51.8249 33.539 51.8249C32.0979 51.8249 30.7761 51.656 29.5737 51.3183C28.3805 50.9908 27.3524 50.5302 26.4896 49.9367C25.636 49.3431 24.9705 48.6369 24.4932 47.8182C24.0251 46.9892 23.791 46.0834 23.791 45.1009C23.791 44.1287 23.9103 43.1769 24.149 42.2456C24.3968 41.304 24.7594 40.4136 25.2367 39.5744C25.7232 38.725 26.3244 37.9369 27.0403 37.2103C27.7563 36.4734 28.5916 35.8133 29.5462 35.2299ZM38.4543 46.544C38.4543 46.196 38.3533 45.8788 38.1514 45.5922C37.9586 45.3056 37.6833 45.06 37.3253 44.8553C36.9765 44.6506 36.5497 44.492 36.0448 44.3794C35.5492 44.2668 34.9984 44.2106 34.3926 44.2106C33.2453 44.2106 32.1209 44.3897 31.0194 44.7479C29.9271 45.0958 28.8991 45.6024 27.9353 46.2677C27.7058 46.4314 27.5911 46.631 27.5911 46.8664C27.5911 47.0301 27.6737 47.199 27.8389 47.373C28.0041 47.5367 28.229 47.6953 28.5136 47.8489C28.7981 48.0024 29.1331 48.1508 29.5186 48.294C29.9042 48.4373 30.3126 48.5601 30.744 48.6625C31.1754 48.7648 31.6206 48.8467 32.0795 48.9081C32.5385 48.9695 32.9883 49.0002 33.4288 49.0002C34.1356 49.0002 34.7919 48.9388 35.3977 48.816C36.0127 48.683 36.5451 48.509 36.9948 48.294C37.4538 48.0689 37.8118 47.8079 38.0688 47.5111C38.3258 47.2143 38.4543 46.8919 38.4543 46.544Z" fill="white"/>
</svg>
