<?xml version="1.0" encoding="utf-8"?>
<!-- Generator: Adobe Illustrator 26.0.1, SVG Export Plug-In . SVG Version: 6.00 Build 0)  -->
<svg version="1.1" id="George_Samuel" xmlns="http://www.w3.org/2000/svg" xmlns:xlink="http://www.w3.org/1999/xlink" x="0px"
	 y="0px" viewBox="0 0 512 512" style="enable-background:new 0 0 512 512;" xml:space="preserve">
<style type="text/css">
	.st0{fill:#FFFFFF;}
	.st1{fill:#EC1C23;}
</style>
<g id="www.GeorgeSamuel.me">
	<rect class="st0" width="512" height="512"/>
	<circle class="st0" cx="256" cy="256" r="256"/>
	<g>
		<path class="st1" d="M391.6,413.7v-33.5c0-0.8,0-0.8,0.8-0.8h22.8c0.8,0,0.8,0,0.8,0.8v33.5H391.6z"/>
		<path class="st1" d="M233.2,304.7c8.4,12.2,16.8,24.4,24.4,36.6c8.4,12.2,16,24.4,25.1,36.6l0,0H61c0,0,0,0-0.8,0v-0.8
			c5.3-9.9,11.4-19.8,16.8-29.7l22.8-41.1c3.8-7.6,8.4-14.5,12.2-22.1c0,0,0,0,0-0.8s1.5-1.5,2.3-1.5h28.2c0,0.8-0.8,0.8-0.8,1.5
			c-5.3,9.9-10.7,19.8-16,29.7L106,349.7c-0.8,0.8-1.5,2.3-1.5,3v0.8c0,0,0,0,0.8,0h124.9h0.8c-3-3.8-5.3-8.4-8.4-12.2
			c-3-3.8-5.3-7.6-8.4-12.2c-3-3.8-5.3-7.6-8.4-12.2l-8.4-12.2c-3-3.8-5.3-7.6-8.4-12.2c-3-3.8-5.3-7.6-8.4-12.2c0.8,0,1.5,0,1.5,0
			h31.2c5.3,0,9.9-2.3,12.2-6.9c3.8-6.1,1.5-13.7-4.6-17.5l0,0c-1.5-0.8-3.8-1.5-5.3-1.5h-87.6c0-0.8,0.8-0.8,0.8-1.5l15.2-26.7
			l29.7-54.8c10.7-19,21.3-38.8,32.7-58.6l7.6-13.7l0.8-0.8l0,0c0,0,0,0.8,0.8,0.8l140.1,252.1c0,0,0,0,0,0.8v0.8h96
			c0,1.5,0,22.8,0,24.4H332.9c-6.1,0-12.9,0-19,0c-0.8,0-1.5,0-2.3-1.5c-5.3-7.6-9.9-14.5-15.2-22.1c0,0-0.8-0.8-0.8-1.5
			c0.8,0,0.8,0,1.5,0h29.7v-0.8c-37.3-66.3-73.9-133.3-111.2-200.3c-0.8,0.8-0.8,0.8-0.8,1.5l-16,30.5c-7.6,14.5-16,28.9-23.6,44.2
			c0,0.8-0.8,0.8-0.8,1.5h45.7c7.6,0,16,2.3,22.8,6.9c3.8,2.3,7.6,6.1,10.7,9.9c3.8,4.6,6.1,9.9,6.1,16c0.8,5.3,0,11.4-1.5,16.8
			c-2.3,11.4-10.7,20.6-21.3,24.4C234.7,304,233.9,304.7,233.2,304.7z"/>
		<path class="st1" d="M391.6,335.2v-16.8c0,0,0-0.8,0.8-0.8l0,0h22.8c0.8,0,0.8,0,0.8,0.8v32c0,1.5,0,1.5-1.5,1.5h-21.3
			c-1.5,0-1.5,0-1.5-1.5V335.2L391.6,335.2z"/>
	</g>
</g>
</svg>
