<?xml version="1.0" encoding="utf-8"?>
<!-- Generator: Adobe Illustrator 26.0.1, SVG Export Plug-In . SVG Version: 6.00 Build 0)  -->
<svg version="1.1" id="GeorgeSamuel.me" xmlns="http://www.w3.org/2000/svg" xmlns:xlink="http://www.w3.org/1999/xlink" x="0px"
	 y="0px" viewBox="0 0 512 512" style="enable-background:new 0 0 512 512;" xml:space="preserve">
<style type="text/css">
	.st0{fill:#111111;}
	.st1{fill:#9B9B99;}
	.st2{fill:#E0889E;}
</style>
<g id="www.GeorgeSamuel.me_00000058567936312977967860000008266735160796366497_">
	<rect class="st0" width="512" height="512"/>
	<circle class="st0" cx="256" cy="256" r="256"/>
	<g id="www.GeorgeSamuel.me">
		<path id="Path_11260" class="st1" d="M420.2,285.7c0.6,13.3-2.9,26.4-9.8,37.7c-6.9,11.1-16.4,20.4-25.9,29.6l-129,125.4
			c-36.8-34.9-73.2-70.2-109.1-105.9c11.6,2.8,23.6,3.2,35.3,1.3c3.8-0.6,7.8-1.5,11.5-0.3c2.9,1,5.3,3.2,7.5,5.4l51.8,50.2
			c0.9,0.8,1.9,1.7,3.1,1.6c0.8-0.2,1.6-0.7,2.2-1.3l102.2-98.5c9.9-9.5,20.1-19.6,24.1-32.8c6.5-21.4-5.6-44-26.9-50.5
			c-4.8-1.5-9.9-2-14.9-1.6c-19.1,1.5-34.3,15.8-47.8,29.4L252.6,317c-15.6,15.6-31.8,31.6-52.2,40c-29,11.8-65,5.2-87.2-17
			c-22.2-22.2-28.8-58.8-14.9-86.9c7.5-15.1,19.9-27.2,32.1-38.9l93.1-89.3c9.3-8.9,20.2-18.5,33.1-17.6c10.6,0.7,19.3,8.3,27,15.6
			c28,26.3,55.5,53,82.5,80.3c-12.1-2.9-24.6-3-36.7-0.4c-3,0.7-6.1,1.5-9.1,0.5c-2.3-0.7-4.2-2.5-6-4.2l-56.9-55.3
			c-0.8-0.8-1.8-1.6-2.9-1.5c-0.8,0.2-1.5,0.6-2.1,1.3l-102.2,98.3c-9.4,9.1-19.2,18.7-23.5,31.1c-5.5,16,0.1,35.1,12.9,46.1
			c12.8,11.1,32,13.9,47.7,7.6c11.9-4.8,21.3-14,30.4-23l47.1-46.5c16.4-16.3,33.7-33,55.6-40.4c22.7-7.4,47.5-3.9,67.2,9.5
			C407.3,239.9,419.2,261.9,420.2,285.7z"/>
		<path id="Path_11261" class="st2" d="M288.9,66.9c-0.4,18.8-16.2,36.9-38,34.3c-14.3-1.7-26.8-13.3-29.6-27.4
			c-2.8-14.1,4.4-29.6,16.9-36.6c12.5-7,29.5-5,40.1,4.8C285.3,48.3,289.1,57.4,288.9,66.9z"/>
	</g>
</g>
</svg>
