<?xml version="1.0" encoding="utf-8"?>
<!-- Generator: Adobe Illustrator 28.1.0, SVG Export Plug-In . SVG Version: 6.00 Build 0)  -->
<svg version="1.1" id="GeorgeSamuel.me" xmlns="http://www.w3.org/2000/svg" xmlns:xlink="http://www.w3.org/1999/xlink" x="0px"
	 y="0px" viewBox="0 0 512 512" style="enable-background:new 0 0 512 512;" xml:space="preserve">
<style type="text/css">
	.st0{fill:#FFFFFF;}
	.st1{fill:none;}
	.st2{fill:#D7D2A1;}
	.st3{fill:#97614D;}
	.st4{fill:#97624E;}
</style>
<rect class="st0" width="512" height="512.1"/>
<g id="www.GeorgeSamuel.me">
	<rect y="0.1" class="st1" width="512" height="512"/>
	<circle class="st0" cx="256" cy="255.9" r="256"/>
	<path class="st2" d="M142.4,214.7c-3.6-21.9,4.3-39.3,17.5-56.1c10.5-13.2,21.6-25.8,26.3-42.4c0.2-0.8,0.6-5.1,2.1-3.5
		c2.1,2.2,4.2,4.3,6.3,6.5c3.9,4.1,7.9,8.1,11.7,12.3c7,7.5,13.7,15.2,19.5,23.6c13.4,19.5,18.5,42.2,17.8,65.7
		c-0.1,2,0.5,6,0.6,1.7c0.7-22.6-2-45-13.1-65.1c-11-19.9-28.3-35.8-43.9-52.1c-0.1,0.1-0.2,0.3-0.2,0.4
		c-4.3,21.6-19.9,36.3-32.3,53.5c-13.1,18.1-16.3,38.9-12.7,60.8c0.2,1.2,0.4-0.9,0.4-1.1C142.6,217.6,142.6,216.1,142.4,214.7"/>
	<path class="st2" d="M272,217.9c-3.6-21.9,4.3-39.3,17.5-56c10.5-13.2,21.6-25.8,26.3-42.4c0.2-0.8,0.6-5.1,2.1-3.5
		c2.1,2.2,4.2,4.3,6.3,6.5c3.9,4.1,7.9,8.1,11.8,12.3c7,7.5,13.7,15.2,19.5,23.6c13.4,19.5,18.5,42.2,17.8,65.7
		c-0.1,2,0.5,6,0.6,1.7c0.7-22.6-2-45-13.1-65c-11-19.9-28.3-35.8-43.9-52.1c-0.1,0.1-0.2,0.3-0.2,0.4
		c-4.3,21.6-19.9,36.3-32.3,53.5c-13.2,18.2-16.3,38.9-12.6,60.8c0.2,1.2,0.4-0.9,0.4-1.1C272.2,220.8,272.3,219.3,272,217.9"/>
	<path class="st2" d="M203.7,219.9c-2-13.6-1.3-26.7,3.4-39.6c3.1-8.5,7.8-16.2,12.9-23.7c10.4-15.2,21.7-29.5,26.6-47.7
		c0.6-2.1,1-4.3,1.4-6.4c0-0.2,5.3,5.4,5.8,6c3.9,4.6,7.9,9.3,11.8,13.9c7,8.5,13.8,17.2,19.7,26.5c12.9,20.4,18.9,43.5,19.7,67.5
		c0.1,3.5,0.1,7.1,0,10.6c-0.1,2,0.5,6,0.6,1.7c0.6-25.5-2.2-50.9-13.5-74c-10.9-22.2-28.2-40.5-44-59.2c-0.1,0.1-0.2,0.3-0.2,0.4
		c-4,23.6-19.1,40.6-31.6,60.1c-13.6,21.1-16.6,44.7-12.9,69.3c0.2,1.2,0.4-0.9,0.4-1.1C203.9,222.8,203.9,221.3,203.7,219.9"/>
	<polyline class="st3" points="214.5,145.3 220.8,137 227.1,146.2 221.7,153.4 	"/>
	<polyline class="st3" points="286.9,150.3 293.2,142.1 299.5,151.2 294.1,158.5 	"/>
	<path class="st3" d="M80.9,290.9c0,5.1-2.9,9.7-8.6,13.8c-5.3,3.7-10.6,5.6-16,5.7c-7,0-13.5-2.4-19.7-7.2
		c-0.1-0.1-0.2-0.2-0.2-0.3c0-0.1,0.1-0.2,0.3-0.4c1-0.6,2.5-1.7,4.6-3.5c4.3,5.9,10,8.8,17.1,8.8c3.3,0,6-0.6,8.2-1.7
		c2.2-1.1,4-2.6,5.6-4.5c2.1-2.6,3.1-5.3,3.1-8.3c0-0.8-0.1-1.7-0.3-2.6c-1-5-4.3-7.5-10-7.5c-1.8,0-4.7,0.4-8.9,1.2
		c-3.1,0.7-5.6,1-7.6,1c-1.3,0-2.6-0.1-3.6-0.3c-4.1-1-6.3-3.3-6.7-7c-0.6-6,1.8-10.8,7-14.2c4-2.6,8.3-4,12.8-4
		c5.2,0,10,1.7,14.3,5.1c0.1,0.1,0.2,0.2,0.2,0.3c0,0.2-0.1,0.3-0.3,0.3c-1,0.6-2.5,1.9-4.6,3.6c-0.5-1.2-1.7-2.7-3.6-4.4
		c-2.5-2.1-5.1-3.2-7.7-3.2c-2.6,0.1-5.1,0.9-7.5,2.4c-3.1,2.1-4.8,5-5.3,8.7c-0.2,2.2,0.3,4.1,1.7,5.9c1.8,2.3,4.9,3.5,9.3,3.5
		c1.3,0,2.7-0.1,4.2-0.3c3.9-0.5,7.1-0.7,9.7-0.7C76.8,281.3,80.9,284.5,80.9,290.9"/>
	<path class="st3" d="M113.3,282.8l-7.6-14.8c-0.2-0.5-0.5-0.9-0.7-1.4c-1.2,2.5-3.8,7.9-7.7,16.1
		C103.2,283.2,108.5,283.2,113.3,282.8 M141.8,306.1c-0.5,0.6-1.7,1.6-3.6,3c-1.5,0.9-3.4,1.3-5.8,1.3c-2.1,0-3.9-0.6-5.5-1.8
		c-1.6-1.2-3.1-3.3-4.5-6.2c-1.5-3.4-3.8-8.5-6.9-15.2c-6.1-0.5-13-0.5-20.6,0.1c-4.5,9.6-7.6,16.3-9.1,20c1-1.3,2.3-1.9,4-1.7
		c2.1,0.2,3.6,0.3,4.6,0.1c1.6-0.2,3-1.2,4.3-2.8c0.2-0.2,0.4-0.3,0.6-0.2c0.2,0.2,0.3,0.4,0.1,0.7c-2.9,4.7-6.4,7-10.5,7
		c-0.6,0-1.5-0.2-2.6-0.5c-1.1-0.3-1.9-0.5-2.5-0.5c-0.9,0-2.1,0.3-3.7,0.9c-0.1-0.1-0.1-0.2-0.1-0.4c1.5-0.6,2.9-2.3,4.5-5
		c2.6-4.7,5.8-11.4,9.9-20c4.6-10,7.8-16.9,9.4-20.7c-11.8-21.9-26-33.1-42.4-33.7c-0.3,0.1-0.5,0-0.6-0.2c-0.1-0.2,0.1-0.4,0.4-0.4
		c1.5-0.2,2.9-0.2,4.4-0.2c8.7,0,17.1,3.7,25.3,11.1c6.6,6,12.3,13.5,17.1,22.7c6.6,12.5,10.5,19.9,11.5,22.3
		c3.8,8.3,7,14.2,9.6,17.7c2.5,3.3,4.6,5,6.5,5.1c1.1,0.1,2.1-0.3,3.1-1c0.8-0.6,1.6-1.3,2.4-2.1c0.2-0.2,0.5-0.2,0.7,0
		C142.1,305.7,142.1,305.9,141.8,306.1"/>
	<path class="st3" d="M176.3,270.3c0-2.5-1-4.5-3.1-5.8c-2.1-1.3-4.6-1.9-7.5-1.8c-5.4,0.3-9.6,2.4-12.7,6.4
		c-0.1,1.1-0.1,2.9-0.2,5.3c-0.1,1.3-0.1,3.7-0.2,7.1c2.4-0.2,4.6,0,6.5,0.8c3.6,0.4,6.8,0,9.5-1
		C173.7,279.2,176.3,275.6,176.3,270.3 M273.5,336.2c-10,9-19.5,14.1-28.4,15.3c-2.1,0.3-4.1,0.4-6.2,0.4
		c-11.9,0-23.6-4.6-35.2-13.8c-8-6.3-16.8-15.8-26.4-28.4c-3.3-4.5-6.7-8.9-10-13.4c-3.3-4.3-5.8-7.1-7.6-8.5
		c-2.5-1.9-4.8-3.2-7-3.9v1.1c0,3.6,0.1,8.4,0.4,14.4c0.2,3-0.3,5.2-1.4,6.7c0.9-0.4,1.7-0.5,2.5-0.5c1.8,0.1,3.1,0,3.9-0.1
		c1.3-0.3,2.5-1.2,3.6-2.6c0.2-0.3,0.4-0.3,0.6-0.2c0.2,0.2,0.2,0.4,0,0.6c-2.6,4.7-5.9,7.1-9.8,7.1c-0.6,0-1.4-0.2-2.4-0.5
		c-1-0.3-1.8-0.5-2.3-0.5c-0.5,0-1,0.1-1.5,0.3c-0.6,0.2-1.2,0.4-1.9,0.6c-0.1-0.1-0.1-0.3-0.1-0.4c1.7-0.8,2.7-2.2,3-4.5
		c0.6-5,0.9-11.8,0.9-20.5v-1.6c-1.4,0.1-3,0.5-4.9,1.1l0.4-1.3c0.9-0.2,2.4-0.6,4.4-1.2c-0.1-6.8-0.4-12-1-15.6
		c-0.5-2.6-1.9-4-4.2-4c-2,0-3.8,0.7-5.3,2.1c-0.2,0.2-0.4,0.2-0.6,0c-0.2-0.2-0.1-0.4,0.1-0.7c2.9-2.7,5.9-4,9-4
		c2.7,0,4.6,0.8,5.8,2.5c0.6,0.8,0.9,2.1,1.1,3.7c4.2-4.2,9.4-6.3,15.8-6.3c5.1,0,8.9,1.1,11.4,3.3c1.9,1.7,2.9,3.9,2.9,6.5
		c0,4.3-2.4,7.9-7.1,10.8c-4.1,2.5-8.6,3.8-13.3,3.8c2,1.7,5.5,5.9,10.5,12.7c6.3,8.5,11.3,14.9,15.1,19.3
		c17.4,20.2,34.8,30.3,52.2,30.3c10.7,0,21.6-3.7,32.7-11.1c0.2-0.1,0.3-0.1,0.4,0C273.7,335.8,273.6,336,273.5,336.2"/>
	<path class="st3" d="M223.4,282.8l-7.6-14.8c-0.2-0.5-0.5-0.9-0.7-1.4c-1.2,2.5-3.8,7.9-7.7,16.1
		C213.2,283.2,218.6,283.2,223.4,282.8 M251.9,306.1c-0.5,0.6-1.7,1.6-3.6,3c-1.5,0.9-3.4,1.3-5.8,1.3c-2.1,0-3.9-0.6-5.5-1.8
		c-1.6-1.2-3.1-3.3-4.5-6.2c-1.5-3.4-3.8-8.5-6.9-15.2c-6.1-0.5-13-0.5-20.6,0.1c-4.5,9.6-7.6,16.3-9.1,20c1-1.3,2.3-1.9,4-1.7
		c2.1,0.2,3.6,0.3,4.6,0.1c1.6-0.2,3-1.2,4.3-2.8c0.2-0.2,0.4-0.3,0.6-0.2c0.2,0.2,0.3,0.4,0.1,0.7c-2.9,4.7-6.4,7-10.5,7
		c-0.6,0-1.5-0.2-2.6-0.5c-1.1-0.3-1.9-0.5-2.5-0.5c-0.9,0-2.1,0.3-3.7,0.9c-0.1-0.1-0.1-0.2-0.1-0.4c1.4-0.6,2.9-2.3,4.5-5
		c2.6-4.7,5.8-11.4,9.9-20c4.6-10,7.8-16.9,9.4-20.7c-11.8-21.9-26-33.1-42.4-33.7c-0.3,0.1-0.5,0-0.6-0.2c-0.1-0.2,0.1-0.4,0.4-0.4
		c1.5-0.2,2.9-0.2,4.4-0.2c8.7,0,17.1,3.7,25.3,11.1c6.6,6,12.3,13.5,17.1,22.7c6.6,12.5,10.5,19.9,11.5,22.3
		c3.8,8.3,7,14.2,9.6,17.7c2.5,3.3,4.6,5,6.5,5.1c1.1,0.1,2.1-0.3,3.1-1c0.8-0.6,1.6-1.3,2.4-2.1c0.2-0.2,0.5-0.2,0.7,0
		C252.2,305.7,252.2,305.9,251.9,306.1"/>
	<path class="st3" d="M293.1,260.3c-1.6,1.3-3,2.9-4.1,4.8c-1.9,3.2-5.7,9.9-11.2,20c-5.7,10.4-10.7,19.3-15,26.7
		c-5.6,9.4-13.2,14.1-22.7,14.1c-3.7,0-6.6-1.3-8.6-3.8c-0.2-0.3-0.2-0.6,0.1-0.8c0.2-0.2,0.5-0.2,0.7,0c1.9,1.9,4.4,2.9,7.4,2.9
		c4.6,0,9-1.7,13.3-5.1c2.8-2.2,5.8-5.8,8.9-10.9c1.4-2.2,2.9-4.9,4.6-7.9c-0.9-1.5-2.6-4.8-5.1-10c-1.6-3.5-3.3-7-4.9-10.5
		c-1.3-3-3.9-8.1-7.8-15.2c-1.7-2.9-3.4-4.9-4.9-5.9c-1.5-1-3.3-1.5-5.2-1.5c-3.5,0-6.2,1.2-8.2,3.6c-0.2,0-0.4,0-0.6-0.2
		c-0.2-0.2-0.1-0.4,0.1-0.7c4.5-4,8.6-6.1,12.6-6.1c4.3,0,7.6,2.3,9.8,6.9c2.8,6,5.7,12.3,8.7,18.8c3.3,7.3,6.1,12.7,8.4,16
		c4.7-8.9,10.5-19.5,17.4-31.8c-1.1,0.6-2.3,0.8-3.6,0.8h-2.7c-2.6-0.1-4.9,0.7-7,2.3c-0.2-0.1-0.3-0.2-0.3-0.3
		c4-4.4,7.6-6.5,10.8-6.3c0.8,0.1,2.1,0.2,3.9,0.3c2.4,0.1,4.1,0,5.1-0.3C293,260.1,293,260.2,293.1,260.3"/>
	<path class="st3" d="M373.5,290.9c0,5.1-2.9,9.7-8.6,13.8c-5.3,3.7-10.6,5.6-16,5.7c-7,0-13.5-2.4-19.7-7.2
		c-0.1-0.1-0.2-0.2-0.2-0.3c0-0.1,0.1-0.2,0.3-0.4c1-0.6,2.5-1.7,4.6-3.5c4.3,5.9,10,8.8,17.1,8.8c3.3,0,6-0.6,8.2-1.7
		c2.2-1.1,4.1-2.6,5.6-4.5c2.1-2.6,3.1-5.3,3.1-8.3c0-0.8-0.1-1.7-0.3-2.6c-1-5-4.3-7.5-10-7.5c-1.8,0-4.7,0.4-8.9,1.2
		c-3,0.7-5.6,1-7.6,1c-1.4,0-2.6-0.1-3.6-0.3c-4.1-1-6.3-3.3-6.7-7c-0.6-6,1.8-10.8,7-14.2c4-2.6,8.3-4,12.8-4
		c5.2,0,10,1.7,14.3,5.1c0.1,0.1,0.2,0.2,0.2,0.3c0,0.2-0.1,0.3-0.3,0.3c-1,0.6-2.5,1.9-4.6,3.6c-0.5-1.2-1.7-2.7-3.6-4.4
		c-2.5-2.1-5.1-3.2-7.7-3.2c-2.6,0.1-5.1,0.9-7.5,2.4c-3.1,2.1-4.8,5-5.3,8.7c-0.2,2.2,0.3,4.1,1.7,5.9c1.8,2.3,4.9,3.5,9.3,3.5
		c1.3,0,2.7-0.1,4.2-0.3c3.9-0.5,7.1-0.7,9.7-0.7C369.4,281.3,373.5,284.5,373.5,290.9"/>
	<path class="st3" d="M420.3,271.3c0,4.9-2.2,9-6.7,12.3c-4.1,3.1-8.7,4.6-13.7,4.6c-2.9,0-6-0.5-9.2-1.4c0.7-0.6,1.2-1.3,1.6-1.9
		c1.9,0.6,4.1,1,6.5,1c2.6,0,5-0.4,7-1.3c5-2.2,7.6-6.4,7.6-12.7c0-3-1-5.3-3.1-6.9c-2.1-1.6-4.5-2.3-7.4-2.1
		c-5.4,0.3-9.5,2.8-12.5,7.5c-0.1,0.8-0.1,2.1-0.1,3.9c0,0.4-0.1,1.9-0.2,4.4c-0.1,2.5-0.2,4.7-0.2,6.4c0,3.6,0.2,8.4,0.5,14.4
		c0.1,3-0.4,5.2-1.6,6.7c0.9-0.5,1.7-0.6,2.5-0.6c1.8,0.1,3.1,0.1,3.9-0.1c1.3-0.2,2.5-1.1,3.6-2.5c0.2-0.3,0.4-0.3,0.6-0.2
		c0.2,0.1,0.2,0.3,0,0.6c-2.6,4.7-5.9,7.1-9.7,7.1c-0.6,0-1.5-0.2-2.5-0.5c-1-0.3-1.8-0.5-2.3-0.4c-0.8,0-2,0.3-3.4,0.9
		c-0.2-0.1-0.2-0.3-0.1-0.5c1.7-0.7,2.7-2.2,3-4.5c0.6-4.9,0.9-11.7,0.9-20.3c0-8.3-0.3-14.6-1.1-18.8c-0.4-2.7-1.8-4-4.2-4
		c-1.9,0-3.7,0.8-5.2,2.4c-0.2,0.2-0.4,0.2-0.6,0c-0.2-0.2-0.1-0.5,0.1-0.8c2.9-2.7,5.9-4,9-4c2.6,0,4.6,0.9,5.8,2.6
		c0.6,0.9,1,2.5,1.1,4.8c4.2-4.9,9.4-7.3,15.8-7.3c5,0,8.8,1.2,11.3,3.7C419.4,265.7,420.3,268.2,420.3,271.3"/>
	<path class="st3" d="M446.7,282.8l-7.6-14.8c-0.2-0.5-0.5-0.9-0.7-1.4c-1.2,2.5-3.8,7.9-7.7,16.1
		C436.6,283.2,442,283.2,446.7,282.8 M475.3,306.1c-0.5,0.6-1.7,1.6-3.6,3c-1.5,0.9-3.4,1.3-5.8,1.3c-2.1,0-3.9-0.6-5.5-1.8
		c-1.6-1.2-3.1-3.3-4.5-6.2c-1.5-3.4-3.8-8.5-6.9-15.2c-6.1-0.5-13-0.5-20.6,0.1c-4.5,9.6-7.6,16.3-9.2,20c1-1.3,2.3-1.9,4-1.7
		c2.1,0.2,3.6,0.3,4.6,0.1c1.6-0.2,3-1.2,4.3-2.8c0.2-0.2,0.4-0.3,0.6-0.2c0.2,0.2,0.3,0.4,0.1,0.7c-2.9,4.7-6.4,7-10.5,7
		c-0.6,0-1.5-0.2-2.6-0.5c-1.1-0.3-1.9-0.5-2.5-0.5c-0.9,0-2.1,0.3-3.7,0.9c-0.1-0.1-0.1-0.2-0.1-0.4c1.5-0.6,3-2.3,4.5-5
		c2.6-4.7,5.8-11.4,9.9-20c4.7-10,7.8-16.9,9.4-20.7c-11.8-21.9-26-33.1-42.4-33.7c-0.3,0.1-0.5,0-0.6-0.2c-0.1-0.2,0.1-0.4,0.4-0.4
		c1.5-0.2,2.9-0.2,4.4-0.2c8.7,0,17.1,3.7,25.3,11.1c6.6,6,12.3,13.5,17.1,22.7c6.6,12.5,10.5,19.9,11.5,22.3
		c3.8,8.3,7,14.2,9.6,17.7c2.5,3.3,4.6,5,6.5,5.1c1.1,0.1,2.1-0.3,3.1-1c0.8-0.6,1.6-1.3,2.4-2.1c0.2-0.2,0.5-0.2,0.7,0
		C475.5,305.7,475.5,305.9,475.3,306.1"/>
	<path class="st4" d="M470.5,304.3l-1.4-2V302c0,0,1.1,0.1,1.1-0.8c0-0.5-0.5-0.6-1-0.6h-0.8v3.5H468l0-4h1.3c0.9,0,1.5,0.3,1.5,1
		c0,0.8-0.6,1-1,1.1l1.3,1.7L470.5,304.3z M469.2,298.9c-1.8,0-3.2,1.4-3.2,3.2c0,1.8,1.4,3.2,3.2,3.2c1.8,0,3.2-1.4,3.2-3.2
		C472.4,300.3,471,298.9,469.2,298.9 M469.2,305.7c-2,0-3.6-1.6-3.6-3.6c0-2,1.6-3.6,3.6-3.6c2,0,3.6,1.6,3.6,3.6
		C472.8,304.1,471.2,305.7,469.2,305.7"/>
	<path class="st3" d="M137.5,415.9c2.7-1.9,3.2-3.3,3.2-6.4v-18.1h1.3v17.6c0,4-0.7,5.9-4,7.9L137.5,415.9z"/>
	<path class="st3" d="M145.4,403.1c0-4,2.4-6.5,5.8-6.5c3,0,5.1,2.2,5,6.2h-9.6c-0.1,4.1,2.2,6.4,5.7,6.4c1.2,0,2.5-0.2,4-1l0,1
		c-1.2,0.6-2.5,1-4,1C148,410.4,145.4,407.6,145.4,403.1 M155,401.9c0-2.6-1.6-4.3-4-4.3c-2.3,0-4.2,1.6-4.3,4.3H155z"/>
	<path class="st3" d="M159.1,403.8c0-4.5,2.7-7.2,6.8-7.2c1.1,0,2,0.2,2.9,0.4v-7.1l1.2-0.1V410l-1.1,0.1v-1.9
		c-1.1,1.4-2.7,2.1-4.2,2.1C161.6,410.3,159.1,408.2,159.1,403.8 M168.8,407.1v-8.9c-0.9-0.4-2-0.6-3-0.6c-3.3,0-5.5,2.1-5.5,6
		c0,3.9,2.3,5.6,4.4,5.6C166.1,409.3,167.5,408.7,168.8,407.1"/>
	<path class="st3" d="M173.2,403.8c0-4.5,2.7-7.2,6.8-7.2c1.1,0,2,0.2,2.9,0.4v-7.1l1.2-0.1V410l-1.1,0.1v-1.9
		c-1.1,1.4-2.7,2.1-4.2,2.1C175.8,410.3,173.2,408.2,173.2,403.8 M182.9,407.1v-8.9c-0.9-0.4-2-0.6-3-0.6c-3.3,0-5.5,2.1-5.5,6
		c0,3.9,2.3,5.6,4.4,5.6C180.3,409.3,181.7,408.7,182.9,407.1"/>
	<path class="st3" d="M187.2,407.1c0-1.9,1.4-4.1,7.8-4.2v-1.3c0-2.1-0.5-3.8-3.3-3.8c-1.2,0-2.4,0.3-3.8,1.1l-0.1-1
		c1.2-0.8,2.7-1.2,4-1.2c3.5,0,4.4,2,4.4,4.5v5.8c0,1.6,0.1,2.2,1.4,2.3c0.3,0,0.6,0,0.8,0l-0.1,0.8c-0.4,0.1-0.8,0.2-1.2,0.2
		c-1.2,0-1.9-0.6-2-1.7c-1.2,1.2-2.6,1.7-4.1,1.7C188.9,410.3,187.2,409,187.2,407.1 M195,407.7v-3.8c-5.2,0-6.6,1.5-6.6,3.1
		c0,1.4,1.1,2.3,2.9,2.3C192.7,409.3,193.9,408.8,195,407.7"/>
	<path class="st3" d="M200.9,390l1.2-0.1v8.6c1.2-1.3,2.6-1.9,4.1-1.9c3.3,0,4.5,2.2,4.5,5.1v8.2h-1.2v-7.8c0-2.2-0.6-4.5-3.5-4.5
		c-1.3,0-2.7,0.6-3.9,2V410h-1.2V390z"/>
	<polygon class="st3" points="219.9,391.3 221.4,391.3 229.3,408.6 237.4,391.3 239,391.3 239.7,410 238.5,410 237.8,393.2 
		229.8,410 228.6,410 221,393.2 220.3,410 219.1,410 	"/>
	<path class="st3" d="M242.6,407.1c0-1.9,1.4-4.1,7.8-4.2v-1.3c0-2.1-0.5-3.8-3.3-3.8c-1.2,0-2.4,0.3-3.8,1.1l-0.1-1
		c1.2-0.8,2.7-1.2,4-1.2c3.5,0,4.4,2,4.4,4.5v5.8c0,1.6,0.1,2.2,1.4,2.3c0.3,0,0.6,0,0.8,0l-0.1,0.8c-0.4,0.1-0.8,0.2-1.2,0.2
		c-1.2,0-1.9-0.6-2-1.7c-1.2,1.2-2.6,1.7-4.1,1.7C244.3,410.3,242.6,409,242.6,407.1 M250.5,407.7v-3.8c-5.2,0-6.6,1.5-6.6,3.1
		c0,1.4,1.1,2.3,2.9,2.3C248.1,409.3,249.3,408.8,250.5,407.7"/>
	<path class="st3" d="M255.7,403.8c0-4.5,2.7-7.2,6.8-7.2c1.1,0,2,0.2,2.9,0.4v-7.1l1.2-0.1V410l-1.1,0.1v-1.9
		c-1.1,1.4-2.7,2.1-4.2,2.1C258.2,410.3,255.7,408.2,255.7,403.8 M265.4,407.1v-8.9c-0.9-0.4-2-0.6-3-0.6c-3.3,0-5.5,2.1-5.5,6
		c0,3.9,2.3,5.6,4.4,5.6C262.7,409.3,264.1,408.7,265.4,407.1"/>
	<path class="st3" d="M270.1,392.4c0-0.6,0.4-0.9,1-0.9c0.6,0,0.9,0.4,0.9,1c0,0.6-0.4,0.9-1,0.9
		C270.5,393.4,270.1,393.1,270.1,392.4 M270.5,397l1.2-0.1V410h-1.2V397z"/>
	<path class="st3" d="M275.7,397l1.1-0.1v1.7c1.2-1.4,2.6-2,4.1-2c3.3,0,4.5,2.2,4.5,5.3v8.1h-1.2v-7.7c0-2.9-0.9-4.6-3.5-4.6
		c-1.3,0-2.7,0.6-3.9,2V410h-1.2L275.7,397L275.7,397z"/>
	<path class="st3" d="M288.5,407.1c0-1.9,1.4-4.1,7.8-4.2v-1.3c0-2.1-0.5-3.8-3.3-3.8c-1.2,0-2.5,0.3-3.8,1.1l-0.1-1
		c1.2-0.8,2.7-1.2,4-1.2c3.5,0,4.4,2,4.4,4.5v5.8c0,1.6,0.1,2.2,1.4,2.3c0.3,0,0.6,0,0.8,0l-0.1,0.8c-0.4,0.1-0.8,0.2-1.2,0.2
		c-1.2,0-1.9-0.6-2-1.7c-1.2,1.2-2.6,1.7-4.1,1.7C290.2,410.3,288.5,409,288.5,407.1 M296.3,407.7v-3.8c-5.2,0-6.6,1.5-6.6,3.1
		c0,1.4,1.1,2.3,2.9,2.3C294,409.3,295.1,408.8,296.3,407.7"/>
	<path class="st3" d="M302.2,390l1.2-0.1v8.6c1.2-1.3,2.6-1.9,4.1-1.9c3.3,0,4.5,2.2,4.5,5.1v8.2h-1.2v-7.8c0-2.2-0.6-4.5-3.5-4.5
		c-1.3,0-2.7,0.6-3.9,2V410h-1.2V390z"/>
	<path class="st3" d="M328.9,406l-2.8-3.8c-1.5,0-2.9,0-4.4,0v7.8h-1.3v-18.7h3.6c3.8,0,6.8,1.7,6.8,5.5c0,2.1-1.2,4.1-3.4,5
		l2.6,3.5c1.9,2.5,3.3,3.5,5,3.8l-0.2,1C332.6,410,331.2,409.1,328.9,406 M324,392.5h-2.2v8.6c1.4,0.1,2.9,0.1,3.9,0.1
		c1.8,0,3.9-1.7,3.9-4.2C329.5,393.8,327.1,392.5,324,392.5"/>
	<path class="st3" d="M341.9,410.3c-3.7,0-6-3-6-7c0-3.8,2.4-6.6,6.2-6.6c3.7,0,5.9,2.8,5.9,6.5C348,407.5,345.5,410.3,341.9,410.3
		 M342,397.7c-3.1,0-4.8,2.4-4.8,5.5c0,3.2,1.7,6.1,4.7,6.1h0.2c2.8,0,4.7-2.5,4.7-6C346.8,400.3,345.2,397.7,342,397.7"/>
	<path class="st3" d="M350.4,407.1c0-1.9,1.4-4.1,7.8-4.2v-1.3c0-2.1-0.5-3.8-3.3-3.8c-1.2,0-2.5,0.3-3.8,1.1l-0.1-1
		c1.2-0.8,2.7-1.2,4-1.2c3.5,0,4.4,2,4.4,4.5v5.8c0,1.6,0.1,2.2,1.4,2.3c0.3,0,0.6,0,0.8,0l-0.1,0.8c-0.4,0.1-0.8,0.2-1.2,0.2
		c-1.2,0-1.9-0.6-2-1.7c-1.2,1.2-2.6,1.7-4.1,1.7C352.1,410.3,350.4,409,350.4,407.1 M358.3,407.7v-3.8c-5.2,0-6.6,1.5-6.6,3.1
		c0,1.4,1.1,2.3,2.9,2.3C355.9,409.3,357.1,408.8,358.3,407.7"/>
	<path class="st3" d="M363.5,403.8c0-4.5,2.7-7.2,6.8-7.2c1.1,0,2,0.2,2.9,0.4v-7.1l1.2-0.1V410l-1.1,0.1v-1.9
		c-1.1,1.4-2.7,2.1-4.2,2.1C366,410.3,363.5,408.2,363.5,403.8 M373.1,407.1v-8.9c-0.9-0.4-2-0.6-3-0.6c-3.3,0-5.5,2.1-5.5,6
		c0,3.9,2.3,5.6,4.4,5.6C370.5,409.3,371.9,408.7,373.1,407.1"/>
</g>
</svg>
