<svg width="160" height="239" viewBox="0 0 160 239" fill="none" xmlns="http://www.w3.org/2000/svg">
<path d="M90.4727 162.634C90.4727 162.634 33.9927 215.624 18.9527 205.954C3.90266 196.284 67.1727 147.024 90.4727 162.634Z" fill="#21201E"/>
<path d="M90.4727 162.634C90.4727 162.634 33.9927 215.624 18.9527 205.954C3.90266 196.284 67.1727 147.024 90.4727 162.634Z" fill="#21201E"/>
<path d="M0.603427 238.983L0.603429 189.853C0.993429 189.723 1.36343 189.593 1.73343 189.473C4.65343 188.543 7.09343 188.133 8.34343 187.963C8.51343 187.933 8.66344 187.913 8.78344 187.903C9.09344 187.863 9.26343 187.853 9.26343 187.853C9.33343 187.523 9.45343 187.133 9.60343 186.683C10.4634 184.093 12.3734 180.033 12.3734 180.033L12.3734 180.023C12.3734 180.023 12.3334 179.973 12.2934 179.923C12.2234 179.823 12.1034 179.653 11.9334 179.423C11.8434 179.303 11.7534 179.173 11.6534 179.023C11.5334 178.843 11.3934 178.643 11.2434 178.423C11.0934 178.203 10.9334 177.963 10.7534 177.693C10.6634 177.563 10.5734 177.433 10.4834 177.283C10.1934 176.863 9.88344 176.393 9.55344 175.883C7.30344 172.443 3.98343 167.103 0.60343 160.693L0.603432 130.913C0.643432 130.003 0.653432 129.083 0.603432 128.153C0.883432 128.143 0.753432 128.133 0.603432 128.133C0.443432 128.123 0.273432 128.123 0.603432 128.113C2.50343 128.083 4.61343 128.113 6.90343 128.223C14.1634 128.593 23.3134 129.803 33.8234 132.813C36.2334 133.503 38.6934 134.273 41.2334 135.163C42.1934 135.493 43.1534 135.843 44.1334 136.213L44.1534 136.193C57.5434 141.193 72.6034 149.113 88.4834 161.503C88.8934 161.823 89.3134 162.153 89.7234 162.473C89.8834 162.603 90.0534 162.733 90.2134 162.873C90.4034 163.013 90.5834 163.163 90.7734 163.313C90.7734 163.313 85.6734 172.423 75.2134 176.343C75.2134 176.343 74.3034 179.423 71.7634 183.973C71.7334 184.023 71.7034 184.073 71.6734 184.123C71.5734 184.323 71.4534 184.513 71.3434 184.713C71.3334 184.733 71.3234 184.753 71.3134 184.773C68.5634 189.523 64.1334 195.663 57.2834 201.563C55.7134 202.923 54.0034 204.263 52.1634 205.573C51.8234 205.813 51.4834 206.043 51.1434 206.283C50.7934 206.513 50.4534 206.753 50.0934 206.983C49.7434 207.223 49.3834 207.453 49.0234 207.683C48.2934 208.143 47.5434 208.603 46.7834 209.053C45.8434 209.613 44.8634 210.153 43.8534 210.693C43.4534 210.913 43.0434 211.123 42.6234 211.333L41.9034 211.693C41.7234 211.783 41.5434 211.873 41.3634 211.963C39.5334 212.853 37.6134 213.693 35.5934 214.483C34.2534 215.023 32.8734 215.533 31.4434 216.003C31.1934 216.093 30.9534 216.183 30.7034 216.263C21.9934 219.113 9.69343 230.333 0.603427 238.983Z" fill="#E39C82"/>
<path opacity="0.2" d="M43.1258 173.903C30.4958 184.133 25.7758 210.143 30.2158 211.003C33.6358 211.663 38.5858 212.483 41.9658 211.683C69.0258 198.093 74.9258 176.733 74.9258 176.733C70.1758 172.283 52.3358 166.443 43.1258 173.903Z" fill="white"/>
<path d="M12.3628 180.023C12.3628 180.023 12.3328 179.973 12.2928 179.923C12.2128 179.823 12.0928 179.653 11.9328 179.423C11.8428 179.303 11.7528 179.173 11.6528 179.023C11.5328 178.843 11.3928 178.643 11.2428 178.423C11.0928 178.203 10.9328 177.963 10.7528 177.693C10.6628 177.563 10.5728 177.433 10.4828 177.283C10.1928 176.863 9.88282 176.393 9.55282 175.883C7.30282 172.443 3.9828 167.103 0.602805 160.693L0.602806 130.913C0.642806 130.003 0.652806 129.083 0.602806 128.153C0.882806 128.143 0.752806 128.133 0.602806 128.133C0.442806 128.123 0.272806 128.123 0.602806 128.113C2.50281 128.083 4.61281 128.113 6.90281 128.223C14.1628 128.593 23.3128 129.803 33.8228 132.813C36.2328 133.503 38.6928 134.273 41.2328 135.163C42.1928 135.493 43.1528 135.843 44.1328 136.213C42.4928 136.383 40.9428 136.663 39.4628 137.053C38.1828 137.383 36.9728 137.793 35.8128 138.283C35.4328 138.433 35.0528 138.603 34.6828 138.783C34.2128 138.993 33.7528 139.233 33.3028 139.473C14.3928 149.673 12.4128 179.183 12.3628 180.023Z" fill="#D36A57"/>
<path opacity="0.2" d="M0.605583 206.965L0.605584 189.855C0.995584 189.725 1.36559 189.595 1.73559 189.475C4.65559 188.545 7.09559 188.135 8.34559 187.965C8.51559 187.935 8.66559 187.915 8.78559 187.905C9.09559 187.865 9.26559 187.855 9.26559 187.855L9.26559 187.865C9.26559 187.865 11.8956 193.715 0.605583 206.965Z" fill="white"/>
<path d="M12.3731 180.032C12.3731 180.032 15.5131 170.852 22.4531 168.832L12.3731 180.032Z" fill="#D36A57"/>
<path d="M12.3731 180.032C12.3731 180.032 15.5131 170.852 22.4531 168.832" stroke="#D36A57" stroke-linecap="round" stroke-linejoin="round"/>
<path opacity="0.2" d="M3.43371 232.974C5.29371 232.634 20.9537 220.014 21.7937 217.784C22.6337 215.554 16.0537 215.314 13.1737 218.084C9.13371 221.974 -1.10629 233.804 3.43371 232.984L3.43371 232.974Z" fill="white"/>
<path d="M35.6055 214.503C35.6055 214.503 32.0655 216.473 26.7055 216.693C21.3455 216.903 24.3855 202.223 24.3855 202.223L35.6055 214.503Z" fill="#D36A57"/>
<path d="M35.6055 214.503C35.6055 214.503 32.0655 216.473 26.7055 216.693C21.3455 216.903 24.3855 202.223 24.3855 202.223" stroke="#D36A57" stroke-linecap="round" stroke-linejoin="round"/>
<path d="M6.9425 120.765C4.6525 120.725 2.53249 120.605 0.602488 120.445C-0.017512 120.385 1.18249 120.335 0.602488 120.275C0.842488 116.625 0.602488 115.825 0.602489 108.825L0.602489 88.8855C7.79249 77.7355 14.6625 69.8455 14.8525 69.6355C14.8525 69.6355 12.9125 64.2455 12.5525 61.8055C12.5325 61.7155 12.5225 61.6355 12.5125 61.5555C12.5125 61.5555 6.64249 60.5255 0.602491 56.9255L0.602493 0.605465C0.962493 0.985465 1.3425 1.40546 1.7525 1.85546C2.0425 2.18546 2.34249 2.52546 2.66249 2.87546C2.97249 3.23546 3.3025 3.61547 3.6425 3.99547C3.9825 4.38547 4.3325 4.78546 4.6925 5.20546C8.1025 9.14547 12.4525 14.2255 17.0625 19.1355C17.3125 19.3955 17.5525 19.6455 17.7925 19.9055C18.7725 20.9355 19.7525 21.9555 20.7525 22.9555C26.2125 28.4255 31.8025 33.2155 36.5225 35.2655C36.7925 35.3855 37.0625 35.5055 37.3225 35.6255C37.3425 35.6255 37.3525 35.6455 37.3725 35.6455C38.4725 36.1355 39.5425 36.6455 40.5725 37.1555C40.7925 37.2755 41.0125 37.3855 41.2225 37.4855L41.2225 37.4955C43.1625 38.4755 44.9925 39.4955 46.7225 40.5555C53.5925 44.7355 58.9525 49.4155 63.1125 54.0455C63.6025 54.5855 64.0725 55.1355 64.5325 55.6755C64.9925 56.2155 65.4325 56.7555 65.8625 57.2955C66.2825 57.8255 66.6925 58.3655 67.0925 58.8955C68.0825 60.2255 68.9825 61.5355 69.7925 62.8055C69.9625 63.0555 70.1125 63.3055 70.2725 63.5655C70.5825 64.0655 70.8825 64.5555 71.1625 65.0455C71.7425 66.0155 72.2525 66.9655 72.7225 67.8855C72.9625 68.3355 73.1825 68.7855 73.3925 69.2255C73.5025 69.4455 73.6025 69.6555 73.7025 69.8655C74.1025 70.7255 74.4625 71.5355 74.7825 72.2955C74.8625 72.4855 74.9425 72.6755 75.0125 72.8555C75.3025 73.5955 75.5625 74.2855 75.7925 74.9055C76.4625 76.8155 76.8225 78.1855 76.9625 78.8155C77.0025 78.9755 77.0325 79.0855 77.0425 79.1455C77.0425 79.1455 77.0458 79.1521 77.0525 79.1655L77.0525 79.1955C87.1025 84.0855 91.3125 93.6255 91.3125 93.6255C90.9725 93.8455 90.6325 94.0655 90.3025 94.2855C72.7825 105.675 56.5525 112.405 42.3725 116.245L42.3525 116.245C28.2625 120.045 16.2125 120.975 6.9425 120.765Z" fill="#E39C82"/>
<path d="M75.7947 74.9037C76.6747 77.3637 77.0147 78.9337 77.0547 79.1637C77.0547 79.1637 77.0513 79.1571 77.0447 79.1438C68.0147 60.5638 55.1947 48.8038 45.6347 42.0437C43.6447 40.6437 41.8047 39.4537 40.1647 38.4637C35.5747 35.6937 32.5847 34.4937 32.5847 34.4937L32.5847 34.4837C31.9547 33.9937 12.5547 18.6637 0.604683 3.52375L0.604683 0.593747C0.964683 0.973747 1.34469 1.39375 1.75469 1.85375C2.04469 2.18375 2.35468 2.52375 2.66468 2.87375C2.98468 3.23375 3.31469 3.61375 3.64469 3.99375C3.98469 4.38375 4.33469 4.78375 4.69469 5.20375C8.11469 9.14375 12.4547 14.2237 17.0647 19.1337C17.3147 19.3937 17.5547 19.6437 17.7947 19.9037C18.7747 20.9337 19.7647 21.9537 20.7547 22.9537C26.2147 28.4237 31.8047 33.2137 36.5247 35.2637C36.7947 35.3837 37.0647 35.5037 37.3247 35.6237C37.3447 35.6237 37.3547 35.6437 37.3747 35.6437C38.4747 36.1337 39.5447 36.6437 40.5747 37.1537C40.7847 37.2637 40.9947 37.3637 41.1947 37.4637C41.2047 37.4737 41.2147 37.4837 41.2247 37.4837L41.2247 37.4937C43.1647 38.4738 44.9947 39.4937 46.7247 40.5537C53.5947 44.7337 58.9547 49.4137 63.1147 54.0438C63.6047 54.5838 64.0847 55.1338 64.5347 55.6738C64.9947 56.2138 65.4347 56.7538 65.8647 57.2938C66.2947 57.8238 66.7047 58.3637 67.0947 58.8937C68.0847 60.2237 68.9847 61.5337 69.7947 62.8037C69.9647 63.0537 70.1147 63.3038 70.2747 63.5638C70.5847 64.0638 70.8847 64.5537 71.1647 65.0437C71.7447 66.0137 72.2547 66.9638 72.7247 67.8838C72.9647 68.3338 73.1847 68.7837 73.3947 69.2237C73.5047 69.4437 73.6047 69.6537 73.7047 69.8637C74.1147 70.7237 74.4747 71.5337 74.7847 72.2937C74.8647 72.4837 74.9447 72.6738 75.0147 72.8538C75.3147 73.5938 75.5747 74.2837 75.7947 74.9037Z" fill="#F8F9FC"/>
<path d="M77.0625 79.1941C77.0625 79.1941 77.0625 79.1941 77.0525 79.1741L77.0525 79.1641L77.0625 79.1941Z" fill="#F8F9FC"/>
<path d="M6.94547 120.763C4.65547 120.723 2.53546 120.603 0.605459 120.443C0.285459 120.413 0.455459 120.383 0.605459 120.363C0.755459 120.333 0.885459 120.303 0.605459 120.273C0.645459 119.603 0.645459 118.923 0.605459 118.243L0.60546 88.8828C4.20546 83.3028 7.71546 78.5528 10.3555 75.1528C10.6855 74.7328 11.0055 74.3228 11.3055 73.9428C11.4555 73.7528 11.6055 73.5728 11.7455 73.3928C12.0355 73.0328 12.3055 72.7028 12.5555 72.3928C13.0555 71.7728 13.4955 71.2528 13.8455 70.8328C14.0155 70.6228 14.1755 70.4328 14.3055 70.2828C14.6355 69.8928 14.8255 69.6628 14.8555 69.6328C14.8555 70.2728 13.6055 110.553 42.3555 116.243C28.2655 120.043 16.2155 120.973 6.94547 120.763Z" fill="#D36A57"/>
<path opacity="0.2" d="M45.1425 79.0246C33.5325 67.6546 31.2825 41.3246 35.7825 40.8746C39.2525 40.5346 42.6725 41.0346 45.9525 42.1546C71.7925 57.8746 77.0625 79.1946 77.0625 79.1946C71.9125 83.1746 53.6025 87.3146 45.1425 79.0246Z" fill="white"/>
<path opacity="0.2" d="M12.5148 61.5523C12.5148 61.5523 6.64477 60.5223 0.604767 56.9223L0.604768 35.1523C0.924768 35.5123 1.25478 35.8923 1.58478 36.3023C16.4748 54.5823 12.5148 61.5423 12.5148 61.5423L12.5148 61.5523Z" fill="white"/>
<path d="M14.8638 69.6328C14.8638 69.6328 17.1237 79.0628 23.8437 81.7328L14.8638 69.6328Z" fill="#D36A57"/>
<path d="M14.8638 69.6328C14.8638 69.6328 17.1237 79.0628 23.8437 81.7328" stroke="#D36A57" stroke-linecap="round" stroke-linejoin="round"/>
<path opacity="0.2" d="M10.3962 17.3239C12.2462 17.7539 27.2962 31.0739 28.0362 33.3439C28.7762 35.6139 22.1862 35.5439 19.4362 32.6439C15.5862 28.5739 5.89618 16.2839 10.3862 17.3239L10.3962 17.3239Z" fill="white"/>
<path d="M41.2361 37.4955C41.2361 37.4955 37.8961 35.1955 32.5861 34.4855C27.2661 33.7755 28.9161 48.6655 28.9161 48.6655L41.2461 37.4955L41.2361 37.4955Z" fill="#D36A57"/>
<path d="M41.2344 37.4955C41.2344 37.4955 37.8944 35.1955 32.5844 34.4855C27.2644 33.7755 28.9144 48.6655 28.9144 48.6655" stroke="#D36A57" stroke-linecap="round" stroke-linejoin="round"/>
<path d="M10.6052 186.973C10.2752 186.883 9.94515 186.783 9.60515 186.683C6.69515 185.833 3.62515 184.693 0.605151 183.433L0.605156 66.573C6.15516 64.213 10.8252 62.443 12.5552 61.803C13.0252 61.633 13.2752 61.543 13.2752 61.543C13.4452 64.693 14.1252 67.553 15.2352 70.133C16.7952 73.783 19.2052 76.893 22.2252 79.543C40.6852 95.773 81.8752 94.683 90.3052 94.283C91.2852 94.233 91.8252 94.193 91.8252 94.193C91.8252 94.193 94.1752 100.303 93.9852 107.323L93.9852 107.333L93.9452 108.853L93.9052 110.463L93.6752 119.363L92.9452 147.463C92.9452 147.463 93.1452 156.363 90.4752 162.633C90.2252 162.583 89.9752 162.523 89.7252 162.473C83.8152 161.213 78.2952 160.463 73.1452 160.143C27.3352 157.153 10.6052 186.973 10.6052 186.973Z" fill="#F8F9FC"/>
<path d="M31.5844 132.482L38.6344 133.512C38.6044 133.332 38.5844 133.102 38.5544 132.842C38.5244 132.582 38.5144 132.352 38.5144 132.172L39.8744 132.372C39.8744 132.572 39.9144 132.762 39.9844 132.942C40.0544 133.142 40.1544 133.322 40.2744 133.492C40.3944 133.662 40.5344 133.812 40.7044 133.942C40.8644 134.062 41.0444 134.152 41.2344 134.192L41.2344 135.632L31.5844 134.222L31.5844 132.482Z" fill="#2E4096"/>
<path d="M40.7144 145.825C41.0644 145.545 41.2344 145.135 41.2344 144.605L41.2344 144.255C41.2344 143.755 41.0544 143.275 40.7144 142.915C40.3744 142.525 39.9044 142.285 39.2944 142.195L37.3944 141.905L37.3944 143.545L39.2544 143.825C39.6844 143.875 39.8944 144.005 39.8944 144.215L39.8944 144.255C39.8944 144.455 39.6844 144.525 39.2544 144.475L36.5744 144.075C36.6844 143.935 36.7744 143.785 36.8444 143.615C36.9144 143.475 36.9444 143.305 36.9444 143.145L36.9444 143.105C36.9444 142.585 36.7744 142.225 36.4244 142.015C36.0744 141.805 35.6044 141.655 35.0144 141.575L33.4644 141.365C33.1644 141.325 32.8944 141.295 32.6544 141.285C32.4444 141.265 32.2444 141.285 32.0444 141.345C31.8844 141.385 31.7544 141.485 31.6544 141.615C31.5544 141.795 31.5044 142.005 31.5244 142.215L31.5244 142.275C31.5244 142.455 31.5644 142.645 31.6244 142.815C31.7044 143.015 31.7944 143.205 31.9044 143.385L31.5844 143.345L31.5844 144.985L39.2744 146.095C39.8944 146.195 40.3744 146.105 40.7144 145.825ZM33.1144 143.565C32.8344 143.485 32.7044 143.355 32.7044 143.185L32.7044 143.145C32.7044 142.945 32.9144 142.885 33.3444 142.965L35.1244 143.205C35.5544 143.285 35.7644 143.415 35.7644 143.595L35.7644 143.735C35.7644 143.735 35.7444 143.825 35.7244 143.865C35.6944 143.895 35.6544 143.925 35.6144 143.935L33.1144 143.565Z" fill="#2E4096"/>
<path d="M37.3953 148.955L39.2553 149.225C39.4053 149.255 39.5653 149.245 39.7153 149.225C39.8353 149.195 39.8953 149.125 39.8953 149.015L39.8953 148.975C39.8953 148.915 39.8753 148.865 39.8453 148.815C39.8153 148.765 39.7653 148.735 39.7153 148.715C39.5753 148.645 39.4153 148.595 39.2553 148.575L38.4253 148.435C38.0653 148.365 37.6953 148.445 37.3953 148.655C37.1153 148.865 36.8453 149.085 36.5853 149.315C36.3053 149.565 36.0153 149.775 35.6953 149.965C35.3753 150.155 34.9553 150.215 34.4553 150.155L33.4653 149.995C32.9253 149.945 32.4253 149.695 32.0453 149.295C31.7053 148.925 31.5153 148.445 31.5253 147.945L31.5253 147.605C31.5253 147.075 31.7053 146.675 32.0453 146.395C32.3953 146.115 32.8653 146.025 33.4653 146.125L35.3653 146.385L35.3653 147.855L33.5053 147.575C33.0753 147.535 32.8653 147.625 32.8653 147.855L32.8653 147.935C32.8653 148.175 33.0753 148.325 33.5053 148.395L34.3353 148.515C34.5753 148.555 34.8253 148.535 35.0553 148.455C35.2653 148.375 35.4653 148.265 35.6353 148.115C35.8253 147.965 35.9953 147.805 36.1653 147.645C36.3453 147.475 36.5353 147.315 36.7353 147.175C36.9453 147.035 37.1853 146.925 37.4253 146.845C37.7153 146.765 38.0153 146.745 38.3053 146.805L39.2953 146.945C39.8253 147.015 40.3253 147.265 40.6953 147.655C40.8653 147.835 41.0053 148.045 41.0953 148.285C41.1853 148.525 41.2353 148.775 41.2253 149.025L41.2253 149.205C41.2253 149.735 41.0553 150.135 40.7053 150.425C40.3553 150.705 39.8853 150.805 39.2953 150.695L37.3953 150.425L37.3953 148.955Z" fill="#2E4096"/>
<path d="M37.3936 153.553L39.2536 153.823C39.4036 153.853 39.5636 153.843 39.7136 153.823C39.8336 153.793 39.8936 153.723 39.8936 153.613L39.8936 153.573C39.8936 153.513 39.8736 153.463 39.8436 153.413C39.8136 153.373 39.7636 153.333 39.7136 153.313C39.5736 153.243 39.4136 153.193 39.2536 153.173L38.4236 153.043C38.0636 152.973 37.6936 153.053 37.3936 153.263C37.1136 153.473 36.8436 153.693 36.5736 153.923C36.3036 154.173 36.0036 154.383 35.6836 154.573C35.3636 154.763 34.9436 154.823 34.4436 154.763L33.4536 154.603C32.9136 154.553 32.4136 154.303 32.0336 153.903C31.6936 153.533 31.5036 153.053 31.5136 152.543L31.5136 152.203C31.5136 151.673 31.6936 151.273 32.0336 150.993C32.3836 150.713 32.8536 150.623 33.4536 150.723L35.3536 150.983L35.3536 152.453L33.4936 152.183C33.0636 152.143 32.8536 152.233 32.8536 152.453L32.8536 152.523C32.8536 152.763 33.0636 152.913 33.4936 152.983L34.3236 153.103C34.5636 153.143 34.8136 153.123 35.0436 153.043C35.2536 152.963 35.4536 152.853 35.6236 152.703C35.8036 152.553 35.9836 152.393 36.1536 152.223C36.3336 152.053 36.5236 151.893 36.7236 151.763C36.9336 151.623 37.1736 151.513 37.4136 151.433C37.7036 151.353 38.0036 151.333 38.2936 151.393L39.2836 151.533C39.8136 151.603 40.3136 151.853 40.6836 152.243C40.8536 152.423 40.9936 152.633 41.0836 152.873C41.1736 153.113 41.2236 153.363 41.2136 153.613L41.2136 153.793C41.2136 154.323 41.0436 154.723 40.6936 155.013C40.3436 155.293 39.8736 155.393 39.2836 155.303L37.3836 155.023L37.3836 153.553L37.3936 153.553Z" fill="#2E4096"/>
<path d="M40.7144 140.984C41.0644 140.664 41.2344 140.224 41.2344 139.674L41.2344 137.314L39.4644 137.054L31.5744 135.914L31.5744 137.664L33.1444 137.884L33.1444 138.524C33.1444 138.844 33.1944 139.174 33.3044 139.474C33.3544 139.634 33.4244 139.794 33.5144 139.944C33.7644 140.344 34.1944 140.594 34.8144 140.694L39.2344 141.334C39.8744 141.424 40.3644 141.304 40.7144 140.984ZM38.9644 139.534L35.3544 138.994C35.0244 138.964 34.7944 138.894 34.6844 138.784C34.6144 138.724 34.5844 138.654 34.5844 138.564L34.5844 138.104L35.8144 138.284L39.7944 138.854L39.7944 139.274C39.7944 139.534 39.5144 139.624 38.9644 139.524L38.9644 139.534Z" fill="#2E4096"/>
<path d="M82.5352 108.705C82.5352 108.705 67.3552 123.395 80.4952 142.175C80.4952 142.175 67.3752 135.595 67.3752 123.195C67.3752 112.145 78.0152 108.695 82.5252 108.695L82.5352 108.705Z" fill="#D2D5EC"/>
<path d="M14.7227 159.602C14.7227 159.602 9.27265 152.082 6.26265 139.972C5.38265 136.402 4.70265 132.442 4.45265 128.152C4.30265 125.632 4.29265 123.002 4.46265 120.272C4.70265 116.622 5.26265 112.792 6.26265 108.822C7.73265 102.942 10.1527 96.7623 13.8427 90.4023C13.8427 90.4023 12.8226 104.412 12.6026 120.762C12.5726 123.212 12.5627 125.712 12.5627 128.222C12.6027 139.612 13.1427 151.272 14.7227 159.602Z" fill="#D2D5EC"/>
<path d="M92.9436 147.462C92.9436 147.462 80.4536 139.472 80.5036 127.442C80.5236 121.752 82.3836 117.522 84.7236 114.442C88.6736 109.222 93.9836 107.332 93.9836 107.332C97.6336 109.402 103.034 111.392 107.564 112.882C112.244 114.402 118.184 115.412 118.184 115.412L114.814 140.832C108.524 142.332 92.9436 147.452 92.9436 147.452L92.9436 147.462Z" fill="#E39C82"/>
<path d="M92.9431 147.463C92.9431 147.463 80.4431 139.473 80.5031 127.443C80.5231 121.753 82.3931 117.523 84.7231 114.443C85.3331 116.103 85.7031 117.673 85.4831 118.633C84.8131 121.503 80.6431 127.253 80.5131 127.443C80.7431 127.283 88.1031 122.193 90.7331 120.843C98.7131 116.773 107.423 112.953 107.583 112.883C112.263 114.413 118.203 115.413 118.203 115.413L114.833 140.833C108.543 142.333 92.9631 147.453 92.9631 147.453L92.9431 147.463Z" fill="#D36A57"/>
<path d="M93.9836 107.332C97.6336 109.402 103.034 111.392 107.564 112.882C112.244 114.402 118.184 115.412 118.184 115.412C105.204 116.442 93.9836 107.332 93.9836 107.332Z" fill="#F8F9FC"/>
<path opacity="0.2" d="M93.6332 108.703C93.6332 108.703 102.153 112.953 103.253 113.353C104.353 113.763 96.8732 113.003 95.6632 112.723C94.4532 112.443 93.4332 109.733 93.6332 108.703Z" fill="white"/>
<path d="M85.3761 134.105C85.3761 134.105 90.466 136.945 91.516 139.195C92.566 141.435 91.9661 144.855 91.9661 144.855C91.9661 144.855 86.1261 136.805 85.3761 134.115L85.3761 134.105Z" fill="#E39C82"/>
<path d="M127.025 109.104C127.025 109.104 132.285 101.234 137.435 100.604C141.495 100.114 149.305 102.354 151.315 109.104C151.315 109.104 144.835 107.374 143.585 109.104C142.215 110.984 142.485 112.724 142.485 112.724C142.485 112.724 152.835 108.704 156.885 112.724C159.845 115.664 160.445 125.414 159.665 130.734C159.665 130.734 155.085 122.824 153.625 122.104C153.625 122.104 157.025 138.734 155.795 143.754C154.665 148.354 145.455 149.764 145.455 149.764C145.455 149.764 144.635 152.224 143.265 152.544C141.895 152.854 126.305 150.434 121.665 146.224C117.025 142.024 127.015 109.114 127.015 109.114L127.025 109.104Z" fill="#21201E"/>
<path opacity="0.1" d="M142.185 116.914C142.185 116.914 143.355 130.154 149.715 135.604C149.715 135.604 135.045 137.734 133.915 123.334C133.915 123.334 136.105 125.954 140.215 126.324C140.215 126.324 136.545 119.094 142.195 116.924L142.185 116.914Z" fill="white"/>
<path opacity="0.1" d="M132.023 146.676C132.023 146.676 136.723 144.706 140.203 148.746C140.203 148.746 135.623 146.836 132.023 146.676Z" fill="white"/>
<path opacity="0.1" d="M131.544 150.124C131.544 150.124 134.624 147.754 137.934 150.344C137.934 150.344 134.224 149.624 131.544 150.124Z" fill="white"/>
<path opacity="0.1" d="M148.915 116.344C148.915 116.344 143.605 120.364 150.125 127.574C150.125 127.574 147.585 120.104 148.915 116.344Z" fill="white"/>
<path d="M126.203 143.754C126.203 143.754 130.773 145.474 129.573 149.064C129.003 150.784 121.023 151.684 119.613 148.764C118.533 146.534 121.023 144.274 121.023 144.274L126.193 143.754L126.203 143.754Z" fill="#D36A57"/>
<path d="M123.304 145.602C124.104 145.132 126.874 146.982 127.154 147.972C127.424 148.972 124.584 146.762 123.944 146.092C123.944 146.092 124.964 148.392 123.654 148.802C122.564 149.132 121.984 148.052 121.974 147.702C121.964 147.352 123.574 148.372 123.604 147.672C123.644 146.972 122.994 145.782 123.314 145.602L123.304 145.602Z" fill="#7C85C1"/>
<path d="M126.203 110.716C126.203 110.716 130.773 108.996 129.573 105.406C129.003 103.686 121.023 102.796 119.613 105.706C118.533 107.936 121.023 110.196 121.023 110.196L126.193 110.716L126.203 110.716Z" fill="#D36A57"/>
<path d="M123.303 108.856C124.103 109.326 126.873 107.476 127.153 106.486C127.433 105.486 124.583 107.696 123.943 108.366C123.943 108.366 124.963 106.066 123.653 105.656C122.563 105.326 121.983 106.406 121.973 106.756C121.963 107.106 123.573 106.086 123.603 106.786C123.643 107.486 122.993 108.676 123.313 108.856L123.303 108.856Z" fill="#7C85C1"/>
<path d="M120.614 144.703C115.624 144.683 111.244 144.573 110.534 144.123C108.974 143.143 100.064 136.263 99.9537 134.253C99.9037 133.403 99.8337 131.143 99.8237 128.663C99.8237 125.273 99.9337 121.463 100.464 120.223C100.954 119.073 103.674 116.223 106.424 113.843C106.424 113.843 106.434 113.843 106.464 113.823C108.834 111.753 111.204 110.043 112.174 110.043C113.184 110.043 116.244 110.043 119.834 110.053C126.574 110.073 135.164 110.113 135.564 110.113C135.564 110.113 134.834 113.993 134.484 118.953C134.284 118.703 134.094 118.473 133.924 118.243C132.744 116.653 132.284 115.553 132.284 115.553C132.064 116.503 131.874 117.423 131.734 118.293C128.754 135.723 139.594 138.433 139.594 138.433C139.594 139.793 135.914 144.843 135.914 144.843C133.524 144.633 126.634 144.733 120.624 144.703L120.614 144.703Z" fill="#E39C82"/>
<path opacity="0.2" d="M120.615 144.705C115.625 144.685 111.245 144.575 110.535 144.125C108.975 143.145 100.065 136.265 99.955 134.255C99.905 133.405 99.835 131.145 99.825 128.675C99.825 125.285 99.935 121.475 100.465 120.235C100.515 120.105 100.605 119.965 100.705 119.795C102.385 117.165 110.205 110.065 112.175 110.055C113.185 110.055 116.245 110.055 119.835 110.065C119.835 110.065 119.725 110.555 119.565 111.245C119.245 112.565 118.685 114.625 118.205 115.415C117.465 116.625 110.215 119.165 110.215 119.165C110.215 119.165 112.755 120.665 113.695 121.705C114.635 122.735 114.105 131.665 114.085 133.255C114.075 134.855 109.645 137.205 109.645 137.205C109.645 137.205 115.955 137.765 117.075 138.425C118.205 139.085 120.625 144.715 120.625 144.715L120.615 144.705Z" fill="#21201E"/>
<path d="M109.395 132.435L109.395 122.785C108.055 123.325 105.435 125.075 105.635 127.735C105.835 130.405 108.225 131.975 109.395 132.435Z" fill="#E8DFCE"/>
<path d="M112.552 111.415C113.142 111.285 116.002 111.225 119.552 111.235C125.332 111.255 132.883 111.265 135.273 110.255C134.813 110.655 133.993 112.215 133.913 118.245C134.093 118.475 134.272 118.705 134.472 118.955C134.822 113.995 135.562 110.115 135.562 110.115C135.562 110.115 126.713 110.075 119.813 110.045C116.223 110.035 113.172 110.025 112.152 110.035C110.192 110.035 102.363 117.145 100.683 119.775C102.013 118.695 109.312 112.095 112.532 111.395L112.552 111.415Z" fill="#F8F9FC"/>
<path d="M121.993 136.243C121.003 136.133 120.263 135.533 120.333 134.903C120.403 134.273 121.263 133.833 122.253 133.943C123.243 134.053 123.983 134.653 123.913 135.283C123.843 135.913 122.983 136.353 121.993 136.243Z" fill="#21201E"/>
<path d="M122.556 134.642C122.346 134.622 122.196 134.372 122.226 134.082C122.256 133.792 122.456 133.582 122.666 133.612C122.876 133.642 123.026 133.882 122.996 134.172C122.966 134.452 122.766 134.672 122.556 134.642Z" fill="white"/>
<path d="M125.626 131.562C125.626 131.562 127.306 131.562 128.016 132.262C128.406 132.652 129.046 137.302 128.726 138.212C128.126 139.902 125.506 139.632 125.506 139.632C125.506 139.632 125.716 132.982 125.626 131.572L125.626 131.562Z" fill="#21201E"/>
<path d="M121.993 118.642C121.003 118.752 120.263 119.352 120.333 119.982C120.403 120.612 121.263 121.052 122.253 120.942C123.243 120.832 123.983 120.232 123.913 119.602C123.843 118.972 122.983 118.532 121.993 118.642Z" fill="#21201E"/>
<path d="M122.556 120.253C122.346 120.273 122.196 120.523 122.226 120.813C122.256 121.093 122.456 121.313 122.666 121.283C122.876 121.253 123.026 121.013 122.996 120.723C122.966 120.433 122.766 120.223 122.556 120.253Z" fill="white"/>
<path d="M125.626 123.324C125.626 123.324 127.306 123.324 128.016 122.624C128.406 122.244 129.046 117.584 128.726 116.674C128.126 114.984 125.506 115.254 125.506 115.254C125.506 115.254 125.716 121.904 125.626 123.314L125.626 123.324Z" fill="#21201E"/>
<path d="M115.795 124.346C111.675 125.126 112.925 127.366 114.935 129.466C116.805 131.426 117.455 130.346 117.365 129.426C117.365 129.426 128.745 130.286 128.435 128.256C128.205 126.776 119.555 123.616 115.795 124.336L115.795 124.346Z" fill="#D36A57"/>
</svg>
