<svg width="47" height="48" viewBox="0 0 47 48" fill="none" xmlns="http://www.w3.org/2000/svg">
<path d="M42.11 43.3937H42.1596C44.3655 43.3937 44.8488 42.5756 44.8488 42.2781C44.8488 41.3113 44.3779 34.3951 44.3779 33.9736C44.3779 33.6018 44.477 33.3043 44.6257 33.0069C44.8736 32.5359 45.4436 31.3707 45.8774 30.4535L46.497 30.2676C46.4722 30.7138 46.4598 31.0857 46.4598 31.4823C46.4598 32.9573 46.6829 36.1427 46.6829 38.225C46.6829 40.3074 46.5218 41.7699 46.2863 42.5756C45.7287 44.4596 44.3531 47.0501 41.2549 47.0501C41.0071 47.0501 40.8956 46.7526 40.8956 46.356C40.8956 45.2901 41.5895 43.3937 42.11 43.3937Z" fill="#21201E"/>
<path d="M41.4284 36.7996L40.0776 38.82C39.6439 38.3862 38.541 37.8408 37.8098 37.7664L39.1358 35.7461C40.0157 35.9444 40.7716 36.2667 41.4284 36.7996ZM37.9213 37.0971L36.5581 39.1175C36.112 38.6837 35.0091 38.1507 34.2903 38.0639L35.6163 36.056C36.4962 36.2419 37.2521 36.5765 37.9213 37.0971ZM42.11 43.3937C42.3579 43.3937 42.457 43.6787 42.457 44.0878C42.457 45.1537 41.7754 47.0501 41.2425 47.0501C38.9871 47.0501 38.07 45.9098 37.7478 45.005C37.2521 45.8478 36.1988 47.0501 33.4848 47.0501C33.2369 47.0501 33.1378 46.7774 33.1378 46.3684C33.1378 45.3024 33.8194 43.3937 34.3523 43.3937C36.9299 43.3937 37.7478 42.4888 38.1196 40.704L39.0738 40.4313C39.0243 40.6172 38.9871 41.1006 38.9871 41.2246C38.9871 42.8607 40.2511 43.3937 42.11 43.3937Z" fill="#21201E"/>
<path d="M22.0712 41.6088L21.2533 41.0139C21.8234 38.3614 22.8767 37.2087 24.3638 37.2087C26.5697 37.2087 30.1636 39.229 33.4476 39.353L32.2083 42.0178C31.8366 41.9559 31.4772 41.9311 31.3161 41.9311C30.808 41.9311 30.2503 42.3649 29.5068 42.8607C30.2751 43.3193 32.0844 43.3937 34.0672 43.3937H34.3399C34.6001 43.3937 34.6993 43.6539 34.6993 44.0754C34.6993 45.0917 34.0548 47.0501 33.5344 47.0501H32.5306C29.767 47.0501 28.5154 45.6743 27.9577 44.2613C25.5287 46.0957 22.8891 47.0501 19.8653 47.0501H19.5927C19.3448 47.0501 19.2333 46.765 19.2333 46.356C19.2333 45.3024 19.9273 43.3937 20.4602 43.3937H20.7948C24.6241 43.3937 27.7346 42.3649 29.3457 41.3981C27.4868 41.0387 25.2685 40.0223 23.7938 40.0223C22.9015 40.0223 22.2943 40.6048 22.0712 41.6088Z" fill="#21201E"/>
<path d="M12.8387 37.283L11.4879 39.3034C11.0542 38.8696 9.95125 38.3242 9.22009 38.2498L10.5461 36.2295C11.426 36.4278 12.1819 36.7501 12.8387 37.283ZM9.33162 37.5805L7.96844 39.6009C7.5223 39.167 6.41936 38.6341 5.70059 38.5473L7.0266 36.5394C7.90647 36.7253 8.66242 37.0599 9.33162 37.5805ZM20.3734 43.3937C20.6337 43.3937 20.7948 43.6663 20.7948 44.0754C20.7948 45.1413 20.0512 47.0501 19.5183 47.0501C17.0522 47.0377 16.2839 45.7982 16.0856 44.8191C14.6852 46.3188 11.5747 47.5583 6.93985 47.5583C1.61104 47.5583 0 45.5379 0 42.9227C0 41.9559 0.173496 40.7784 0.520489 39.7744L1.62343 39.3902C1.4995 39.7868 1.3384 40.4685 1.3384 41.0634C1.3384 42.6004 2.61484 43.9266 7.83212 43.9266C11.5499 43.9266 14.3134 43.1705 15.466 42.3277C15.8873 42.0178 16.2219 41.4973 16.4821 40.9147L17.5603 40.7784C17.3496 41.237 17.3372 41.6584 17.3372 41.8443C17.3372 43.0838 18.7996 43.3937 20.3734 43.3937Z" fill="#21201E"/>
<path d="M46.6829 0.910832C46.6333 1.30746 46.6209 1.72889 46.6209 2.3982C46.6209 4.70363 46.844 9.84745 46.844 11.3844C46.844 15.3879 45.9145 17.0612 45.3941 18.1891L44.6629 18.375C44.7992 17.8916 44.7992 16.5654 44.7992 15.735C44.7992 15.0408 44.4274 5.79436 44.4274 4.59207C44.4274 3.86078 45.2206 2.79483 46.0633 1.13394L46.6829 0.910832Z" fill="#21201E"/>
<path d="M41.763 4.24502L40.2759 6.46368C39.8174 5.96789 38.6525 5.34815 37.9089 5.24899L39.3341 3.00555C40.2883 3.22865 41.0814 3.62528 41.763 4.24502ZM40.4866 13.2312C40.4866 13.0453 40.2883 11.7314 38.8384 10.3308L40.1396 7.70316C41.3541 8.73192 41.9737 10.2937 41.9737 11.6571C41.9737 12.909 41.7878 14.1484 41.0195 15.4499C40.2511 16.7389 38.7764 17.6809 36.4962 17.6809C36.2483 17.6809 36.1368 17.4082 36.1368 16.9868C36.1368 15.9333 36.8308 14.0245 37.3637 14.0245C39.867 14.0245 40.4866 13.4419 40.4866 13.2312Z" fill="#21201E"/>
<path d="M33.8194 7.40568L32.3323 9.62434C31.8737 9.12855 30.7088 8.50881 29.9653 8.40966L31.3904 6.16621C32.3447 6.38931 33.1378 6.78594 33.8194 7.40568ZM37.3513 14.0245C37.5991 14.0245 37.6983 14.3096 37.6983 14.7186C37.6983 15.7845 37.0167 17.6809 36.4838 17.6809C35.6039 17.6809 35.071 17.4454 34.7364 17.2347C34.3647 21.6968 32.2579 23.7544 30.2379 23.7544C28.5154 23.7544 27.4372 22.0811 26.6689 21.3994L26.483 20.7176C26.8424 20.8044 27.4372 20.8416 27.7966 20.8416C31.9357 20.8416 33.4104 17.495 33.4104 17.1356C33.4104 16.8381 32.5306 15.4499 31.1054 13.8262L32.419 11.1737C33.7078 13.3676 35.7774 14.0245 37.3513 14.0245Z" fill="#21201E"/>
<path d="M26.1732 20.8044C25.4544 21.9819 23.5211 23.4569 20.6956 23.4569C17.4116 23.4569 16.2591 21.3622 16.2591 18.7965C16.2591 17.433 16.5689 15.9828 17.1637 14.5079L18.2295 14.1112C17.9073 15.1276 17.647 16.0448 17.647 16.8629C17.647 18.2883 18.3906 19.5401 21.2657 19.5401C24.4754 19.5401 25.9501 17.9536 25.9501 17.4826C25.9501 15.7845 25.4544 5.24899 25.4544 4.5177C25.4544 4.15826 25.5535 3.8236 25.7518 3.41457C26.0988 2.73286 26.3714 2.42299 27.053 1.13394L27.6603 0.898438C27.5983 1.05957 27.5735 1.49339 27.5735 2.12552C27.5735 4.24502 27.8957 10.4052 27.8957 13.4171C27.8957 15.6978 27.4744 18.6601 26.1732 20.8044Z" fill="#21201E"/>
</svg>
