<svg width="40" height="99" viewBox="0 0 40 99" fill="none" xmlns="http://www.w3.org/2000/svg">
<path d="M26.5989 98.887L29.9371 65.1003L23.0047 70.6621C23.0047 70.6621 10.4838 43.01 39.6458 27.7399C39.6458 27.7399 35.9742 0.106614 35.9729 0.09375C35.9787 0.153783 31.0528 2.15694 30.768 2.2967C26.5766 4.34209 22.6037 6.86421 18.9772 9.79891C3.01937 22.7195 -3.65105 44.8037 2.25209 64.4517C2.81661 66.332 3.46677 68.2041 4.14018 70.048C4.46269 70.9345 8.53391 79.9699 9.15612 79.4257L1.81477 85.8185L26.5989 98.887Z" fill="#E1C557"/>
<path fill-rule="evenodd" clip-rule="evenodd" d="M1.81282 85.8185L26.5969 98.887L29.9351 65.1003L23.0027 70.6621C23.0027 70.6621 22.7582 70.1222 22.4172 69.1517C20.3175 63.1763 14.5565 40.8763 39.6439 27.7399C39.6439 27.7399 36.9684 7.60403 36.1844 1.70139C36.05 0.68927 35.971 0.093753 35.971 0.093753C35.9731 0.115428 35.3323 0.390403 34.4991 0.739528C33.8818 0.998205 33.1589 1.29759 32.5137 1.5648C31.6179 1.93581 30.8718 2.24479 30.766 2.29671C26.5747 4.34209 22.6018 6.86421 18.9752 9.79891C3.01742 22.7195 -3.653 44.8037 2.25014 64.4517C2.81465 66.332 3.46482 68.2041 4.13823 70.048C4.37865 70.7089 6.70235 75.8983 8.12743 78.2718C8.61363 79.0815 8.99523 79.5635 9.15381 79.426L1.81282 85.8185ZM10.1684 80.5905L4.5266 85.5033L25.2857 96.4495L28.037 68.6033L22.4167 73.1123L21.5957 71.2992L23.0027 70.6621C21.5957 71.2992 21.5949 71.2974 21.5949 71.2974L21.5938 71.295L21.5907 71.2882L21.5813 71.267C21.5756 71.2541 21.5684 71.2377 21.5597 71.2176C21.5566 71.2105 21.5533 71.2028 21.5498 71.1948C21.5233 71.1335 21.4862 71.0461 21.4402 70.9339C21.3481 70.7094 21.2202 70.3853 21.0699 69.9713C20.7694 69.1438 20.3783 67.9546 20.0049 66.4827C19.2595 63.5446 18.5765 59.4477 18.8456 54.8373C19.3778 45.7219 23.6363 34.7605 37.972 26.8841L35.9144 11.397C35.4334 7.77693 34.9842 4.39607 34.7094 2.32563C34.5006 2.41274 34.2853 2.50226 34.0697 2.59179C33.7358 2.7304 33.412 2.86451 33.1062 2.99116C32.8166 3.11109 32.5431 3.22433 32.2926 3.32837C32.0421 3.43239 31.8296 3.52103 31.6716 3.58761C31.5641 3.63294 31.5004 3.66038 31.4688 3.67396C31.4465 3.68358 31.4403 3.68625 31.4462 3.68339L31.4434 3.68476C27.3554 5.67968 23.4814 8.13923 19.9468 10.9995C4.48246 23.5205 -1.99574 44.952 3.72933 64.0073C4.28167 65.847 4.92065 67.688 5.58902 69.5181L5.58968 69.5199C5.71924 69.8761 6.78377 72.2899 7.91884 74.5898C8.48221 75.7313 9.03602 76.7894 9.47502 77.5155C9.7027 77.8921 9.85774 78.1089 9.93742 78.2003C9.94035 78.2037 9.94294 78.2066 9.9452 78.2091C9.95294 78.2177 9.95659 78.2209 9.95659 78.2209C9.95659 78.2209 9.95265 78.2163 9.9452 78.2091M8.1399 78.2609L8.13738 78.2631ZM8.1399 78.2609L10.1709 80.5883L10.1684 80.5905" fill="#21201E"/>
<path fill-rule="evenodd" clip-rule="evenodd" d="M5.006 43.599C4.59189 43.497 4.33893 43.0785 4.441 42.6644L5.15333 42.84C4.441 42.6644 4.441 42.6644 4.441 42.6644L4.4426 42.6579L4.44646 42.6426L4.46102 42.5855C4.4738 42.5359 4.49277 42.4635 4.51816 42.3694C4.56894 42.1812 4.64541 41.9062 4.74946 41.5544C4.95754 40.8507 5.27601 39.8388 5.71992 38.5968C6.60736 36.1137 7.99808 32.7051 10.0134 28.9976C14.0375 21.5949 20.5909 12.9292 30.6698 8.11938C31.0547 7.93569 31.5156 8.09882 31.6993 8.48374C31.883 8.86866 31.7198 9.32961 31.3349 9.51331C21.6681 14.1265 15.3157 22.4773 11.3704 29.7352C9.40111 33.358 8.04127 36.6908 7.17433 39.1166C6.74103 40.3289 6.43135 41.3133 6.23057 41.9923C6.1302 42.3318 6.05707 42.5948 6.00935 42.7716C5.9855 42.8601 5.96799 42.927 5.95662 42.9711L5.94411 43.0201L5.94125 43.0315L5.94066 43.0338" fill="#21201E"/>
<path fill-rule="evenodd" clip-rule="evenodd" d="M4.8491 53.4126C4.42766 53.4781 4.03291 53.1895 3.96741 52.7681L4.7305 52.6495C3.96741 52.7681 3.96741 52.7681 3.96741 52.7681L3.96677 52.7639L3.96532 52.7544L3.96018 52.7199C3.9558 52.6902 3.94958 52.6471 3.94194 52.5919C3.92667 52.4815 3.90569 52.3224 3.8823 52.1241C3.83559 51.7278 3.77906 51.173 3.73953 50.5362C3.66147 49.2787 3.64517 47.6384 3.93234 46.2652C4.01965 45.8477 4.42885 45.5801 4.84632 45.6674C5.2638 45.7547 5.53145 46.1639 5.44415 46.5813C5.20045 47.7467 5.20528 49.2195 5.28107 50.4405C5.31846 51.0429 5.37203 51.5686 5.41619 51.9432C5.43825 52.1302 5.45789 52.279 5.47189 52.3802C5.47888 52.4308 5.48446 52.4694 5.48821 52.4949L5.49243 52.5232L5.49341 52.5296L5.4936 52.5308C5.55901 52.9522 5.2705 53.347 4.8491 53.4126Z" fill="#21201E"/>
<path fill-rule="evenodd" clip-rule="evenodd" d="M11.414 38.9389C11.0163 38.7848 10.8189 38.3374 10.973 37.9397C13.7417 30.7959 18.3908 25.1982 22.3838 21.3852C24.3827 19.4763 26.2249 18.0074 27.599 17.0082C28.2859 16.5088 28.8585 16.1248 29.2779 15.8607C29.4869 15.729 29.6623 15.6244 29.7974 15.5492C29.8642 15.512 29.9278 15.4783 29.9844 15.4512L29.9886 15.4492C30.0193 15.4343 30.1333 15.379 30.2613 15.3565C30.6814 15.2828 31.0817 15.5636 31.1554 15.9837C31.2222 16.3646 30.9976 16.7292 30.6419 16.8489C30.6226 16.8585 30.5919 16.8746 30.5484 16.8988C30.4452 16.9563 30.295 17.0454 30.1008 17.1676C29.7139 17.4113 29.1698 17.7756 28.5073 18.2574C27.1824 19.2208 25.3942 20.6461 23.4505 22.5022C19.5582 26.219 15.0733 31.6341 12.4132 38.4978C12.259 38.8955 11.8117 39.093 11.414 38.9389ZM30.67 16.8359C30.67 16.8359 30.6646 16.8386 30.6556 16.8422C30.6658 16.8374 30.67 16.8359 30.67 16.8359Z" fill="#21201E"/>
</svg>
