<?xml version="1.0" encoding="utf-8"?>
<!-- Generator: Adobe Illustrator 26.0.1, SVG Export Plug-In . SVG Version: 6.00 Build 0)  -->
<svg version="1.1" id="GeorgeSamuel.me" xmlns="http://www.w3.org/2000/svg" xmlns:xlink="http://www.w3.org/1999/xlink" x="0px"
	 y="0px" viewBox="0 0 512 512" style="enable-background:new 0 0 512 512;" xml:space="preserve">
<style type="text/css">
	.st0{fill:#111111;}
	.st1{fill:#FFFFFF;}
	.st2{fill:#F05C32;}
	.st3{fill:#F35B2D;}
</style>
<g id="www.GeorgeSamuel.me">
	<rect class="st0" width="512" height="512"/>
	<circle class="st0" cx="256" cy="256" r="256"/>
	<path id="Path_11601" class="st1" d="M315.3,224.6c-2.9,0.1-5.8-1.1-7.8-3.2c-2.1-2.1-3.2-4.9-3.2-7.9h65.8c0.1,3-1.1,5.8-3.3,7.9
		c-2,2.1-4.8,3.2-7.7,3.2H315.3z M304.3,269v-33.3h65.8c0,6.1-4.9,11.1-11,11.1c0,0,0,0,0,0h-43.9V269H304.3z"/>
	<path id="Path_11602" class="st1" d="M381.1,269v-55.5h11V269H381.1z"/>
	<path id="Path_11603" class="st1" d="M430.5,269v-44.4H414c-2.9,0.1-5.8-1.1-7.8-3.2c-2.1-2.1-3.2-4.9-3.2-7.9h65.9
		c0.1,3-1.1,5.8-3.3,7.9c-2,2.1-4.8,3.2-7.7,3.2h-16.5V269H430.5z"/>
	<path id="Path_11604" class="st1" d="M75.1,344.9c6.8-0.2,13.4-2.1,19.3-5.5c5.7-3.3,10.8-6.5,15.2-9.6c4.8-3.3,9.3-7.2,13.2-11.5
		c4-4.3,7.6-8.9,11-13.8c0.9-2.2,1.7-4.4,2.6-6.7c-0.1,0.5-0.2,1-0.3,1.5c-0.8,4.3-1.3,8.7-1.6,13.1c0.2,0,0.3,0.1,0.3,0.5
		c2,0.9,4.7,0.8,8-0.3c3.4-1.1,6.2-1.9,8.6-2.4c0.5-0.4,1-0.9,1.3-1.4c0.4-0.5,0.8-1,1.3-1.4c2.1-4.7,3.7-9.7,4.9-14.7
		c1.1-5,2.6-10,4.3-14.9c1.6-4.9,3.3-9.8,5.3-14.4c1.9-4.7,4-9.2,6.1-13.6c3.5-4.7,6.9-9.6,10.1-14.6c3.2-5.1,6.7-9.9,10.6-14.5
		c-2.3,8.5-4.8,16.9-7.6,25.2c0,0.6,0,1.2-0.1,1.8c-0.2,0.6-0.4,1.1-0.7,1.7c-0.2,0.4-0.1,0.6,0.1,0.7s0.3,0.4,0.1,0.7
		c-1.2,5-2.5,10.9-3.8,17.7c-1.2,6.3-2,12.7-2.4,19.2c-0.2,3.1,0,6.2,0.5,9.2c0.5,3,1.6,5,3.4,6c0.4-0.1,0.5,0,0.5,0.1
		c1,0.1,2-0.2,2.8-0.8c0.8-0.6,1.8-0.9,2.8-0.8c2.3-2.4,4.5-4.9,6.5-7.5c2.1-2.6,4-5.4,5.7-8.3c0.6-0.1,1.2-0.5,1.5-1.1
		c0.3-0.6,0.7-1.1,1.2-1.5l0-2.8c1.3-3,2.9-5.9,4.7-8.7c0.3,3.7,1.4,7.2,3.3,10.4c3.2,5.2,8.2,7.9,15.1,8.3c2.7,0.2,5.3,0,7.9-0.7
		c2.4-0.6,4.9-1.4,7.2-2.3c0.3-0.5,0.8-0.8,1.3-1c0.5-0.1,1-0.4,1.3-0.8c2.7-0.9,5.1-2.3,7.2-4.2c2-1.9,4.5-3.2,7.2-3.8
		c4.2-3.2,8.2-6.2,12-8.9c0.4-1.5,1.3-2.7,2.5-3.6c1.1-0.7,2.2-1.5,3.2-2.4c-0.6-0.1-1.1,0-1.3,0.3c-0.2,0.3-0.5,0.3-0.8-0.2
		c0-1,0.5-2,1.3-2.7c0.7-0.5,1.3-1.3,1.6-2.2c-0.3-0.5-0.6-0.5-1,0s-0.6,0.6-1,0.3c0-0.6-0.1-1-0.4-1.2c-0.2-0.2-0.2-0.6,0.1-1.2
		c-0.5,0.3-0.6,0.1-0.4-0.7c0.2-0.5,0.3-1.1,0.1-1.7c0.3-0.3,0.5-0.6,0.7-0.9c0.2-0.3,0.5-0.6,0.7-0.9c0-2,0.9-3.8,2.4-5.1
		c1.6-1.5,3-3.2,4.3-5c-0.8,0-1.6,0.4-2.2,1c-0.4,0.5-0.9,0.9-1.4,1.3c0.2-1,0.5-1.9,1.1-2.7c0.6-0.7,0.5-1.7-0.1-2.4
		c-0.1,0.5-0.6,0.7-1.1,0.6c-0.5-0.1-1,0.1-1.3,0.4c-3.7,3.2-7.3,6.5-10.8,9.9c-3.6,3.4-7.3,6.7-11.3,9.7c-4,3.1-8.4,5.6-13.1,7.6
		c-5.1,2.1-10.5,3.3-16,3.6c0.3-0.8,0.4-1.2,0.1-1.1c-0.2,0.1-0.6,0.2-1.1,0.4c-0.1-0.6-0.3-1.2-0.6-1.8c-0.2-0.4-0.4-0.7-0.6-1.1
		c0.2-0.5,0.3-1.1,0.2-1.7c1.1-3.9,3-7.6,5.4-10.9c2.3-3.1,5.1-5.7,8.3-7.9c3.3-2.4,7.1-4.2,11.2-5.1c4.2-1,8.3-2.5,12.1-4.4
		c-0.6-1.9-0.4-3.4,0.6-4.6c1.1-1.2,2.1-2.4,3-3.7c0.1-0.7-0.1-1.4-0.6-1.9c-0.5-0.4-0.8-0.9-1.1-1.4c-3.7-1.2-7.7-1.5-11.5-1
		c-4.2,0.5-8.6,0.9-13.2,1.2c-0.5-0.3-0.9-0.6-1.4-0.8c-0.4-0.2-0.8-0.5-1.2-0.8c-1-2.8-0.8-5.1,0.6-6.7c1.5-1.8,3.5-3.1,5.6-3.8
		c2.6-0.9,5.2-1.6,7.9-2.1c2.9-0.5,5.4-1,7.4-1.6c1.5,0.3,3.1,0.3,4.7,0.1c1.3-0.2,2.5-0.4,3.7-0.9c0.8-0.5,0.8-0.9,0.1-1.2
		c-0.7-0.3-0.9-0.5-0.6-0.7c1.2-0.3,2.2-1.1,2.8-2.1c0.6-1.1,1.7-1.5,3.5-1.2c0.8-1,1.5-1.9,2.2-2.6c0.6-0.7,1.8-1,3.6-0.7
		c-0.1-0.4,0.1-0.8,0.4-1c0.3-0.2,0.4-0.6,0.4-1c-1.9-2.3-4.4-4-7.2-4.9c-3.2-1.1-6.5-1.8-9.8-2c-3.6-0.3-7.3-0.1-10.9,0.4
		c-3.6,0.5-7.2,1.3-10.7,2.5c-6.7,1.8-12.4,6-16.2,11.8c-4.1,6-6,13.1-5.6,21.2c0.3,1.7,0.8,3.4,1.7,4.9c0.8,1.3,1.7,2.6,2.6,3.9
		c-3.1,3.9-5.9,8-8.4,12.3c-1.1,2-2.2,4-3.1,6.1c-0.6,0.8-1.2,1.5-1.8,2.3c-3,4-6.1,8-9.3,11.9c0-0.8-0.1-1.6-0.3-2.4
		c-0.2-0.7-0.4-1.4-0.5-2c1.4-3.8,2.6-7.7,3.4-11.7c0.9-4.3,1.5-8.6,1.8-12.9c1.2-2.4,2.1-5,2.6-7.6c0.5-2.6,1.1-5.4,1.8-8.5
		c1.8-3,3-6.3,3.7-9.8c0.7-3.6,1.3-7.2,1.8-10.9c-0.4-2.3-1.4-4.4-3-6.1c-1.5-1.5-3.1-2.8-4.9-3.9l-3.1,0.7c-0.8,0.1-1.5,0.5-2,1.2
		c0.3,0.1,0.6,0,0.8-0.3c0.2-0.3,0.4-0.3,0.5,0c-0.6,0.1-1.2,0.4-1.6,0.9c-0.4,0.5-1,0.9-1.6,1.1c-0.4-0.8-1.1-1.4-1.9-1.9
		c-1.6,0.5-3.1,1.2-4.4,2.3c-1.1,0.9-2.1,1.9-3.1,3c-0.9,1.1-1.8,2.2-2.7,3.4c-0.8,1.2-1.8,2.3-2.9,3.2c-1.8,2.3-3.6,4.6-5.6,7
		c-1.9,2.4-3.7,4.5-5.3,6.4c0.3-1.5,0.4-2.9,0.4-4.4c-0.1-1-0.2-2-0.2-3c0,0.2,0.1,0.2,0.3,0.2l0.5-0.1c0.2-0.4,0-0.7-0.4-1.1
		c-0.3-0.2-0.5-0.6-0.3-0.9c0-0.1,0.1-0.2,0.2-0.2c0-0.3,0.2-0.6,0.7-0.8s0.7-0.4,0.7-0.8c-0.9,0.4-1.3,0.2-1.3-0.5
		c0.9-0.4,1.2-0.9,1.1-1.6c-0.2-0.7,0.3-1.1,1.3-1.2c-0.9-1.2-1-2.9-0.3-4.3c0.7-1.4,0.6-3-0.3-4.3c0.2,0,0.3-0.1,0.4-0.2
		c0.2-0.2,0.4-0.2,0.7-0.3c0-0.4-0.2-0.8-0.5-1c-0.3-0.3-0.4-0.7-0.1-1c0,0,0.1-0.1,0.1-0.1c0.2,0,0.3,0.1,0.4,0.3
		c0.1,0.2,0.3,0.2,0.7,0c-0.5-1.4-0.5-3,0.2-4.4c0.7-1.7,0.9-3,0.5-3.9c1.9-6.4,3.9-12.4,5.9-18.2c2.1-6.1,3.7-12.3,4.8-18.7
		c0.2-0.4,0-0.5-0.4-0.4s-0.5-0.1-0.1-0.7c0.8-4,1.4-8.1,1.8-12.1c0.4-3.4,0.2-6.8-0.6-10.1c-0.7,2.5-1.7,4.8-3.2,7
		c-1.4,2.1-2.6,4.3-3.7,6.6c-0.3,0-0.6,0.2-0.7,0.5c-0.1,0.3-0.5,0.4-1.2,0.4c-0.4,1.1-0.7,2.1-1.1,3c-0.4,1.1-1.1,2.1-1.9,3
		c0-2.2-0.4-3.7-1.1-4.3c-3.2,6.1-6,12.4-8.3,19c-2.4,6.7-4.5,13.4-6.6,20.4s-3.8,13.8-5.5,20.8c-1.7,6.9-3.3,13.6-5.1,19.9
		c-0.3,2-0.7,4.2-1,6.6c-0.2,2.2-1,4.2-2.1,6.1c0.2,2-0.1,4-0.6,5.9c-0.6,2.2-0.9,4.4-0.9,6.7c-0.8,0.9-1.4,2.1-1.6,3.3
		c-0.1,1.1-0.6,2.1-1.3,3c0.5,0.6,0.6,1.6,0.2,2.3c-0.3,0.8-0.8,1.5-1.5,2.1c0.5-0.1,0.8,0.1,0.8,0.6c-0.9,2.2-1.5,4.5-1.7,6.9
		c-0.2,2.5-0.7,4.9-1.4,7.3c-0.3,1.4-0.7,2.7-1,3.8l-0.2,0.5c0.1-1.1,0.1-2.2,0.1-3.4c0-4.6-0.5-9.2-1.6-13.7
		c-1-4.1-2.4-8.1-4.1-11.9c-1.6-3.6-3.4-7.1-5.4-10.4c-1.9-3.2-3.7-6.4-5.4-9.5c-0.8-2.2-1.9-4.3-3.2-6.3c-1.4-2.1-2.7-4.4-3.7-6.7
		c-1.1-2.4-2-4.8-2.7-7.4c-0.8-2.7-1.3-5.5-1.6-8.4c-0.8-6-0.4-12,1.1-17.8c1.3-5,3.9-9.5,7.5-13.1c1.4-1.2,3-2.4,4.8-3.8
		c1.8-1.3,3.8-2.5,5.8-3.3c1.9-0.9,4-1.3,6.2-1.3c2.2,0,4.3,0.7,6,2c0.2,1.1,0.6,2.2,1.4,3c-0.6,0.4-1.1,1.1-1.1,1.8
		c-0.1,0.8-0.5,1.5-1.1,2.1c-1.1,4.7-2.7,9.3-4.8,13.7c-2,4.2-3.9,8.5-5.7,12.8c0.9,0.3,1.8,0.2,2.6-0.2c0.7-0.4,1.3-0.9,1.8-1.5
		c0.5-0.6,1-1.1,1.5-1.7c0.5-0.6,1.1-1.1,1.8-1.4c0-0.1,0.1-0.2,0.2-0.2c0,0,0,0,0,0c0,0.1-0.1,0.2-0.2,0.2c0,0,0,0,0,0v0.5
		c1-0.7,1.9-1.6,2.6-2.6c0.8-1,1.7-2,2.6-3c0.9-0.9,1.9-1.7,3.1-2.3c1.3-0.6,2.8-0.9,4.2-0.8c1.2-1.6,2.5-3.3,3.9-4.9
		c1.4-1.7,2.6-3.4,3.8-5.3c1.2-1.9,2.1-4,2.7-6.2c0.7-2.6,1.1-5.2,1-7.9c-1.3-3.8-3.1-7.4-5.3-10.7c-2-3.3-5.1-5.9-8.7-7.5
		c-1.1-0.4-2.3-0.7-3.5-0.8c-1.1-0.1-2.4-0.3-3.8-0.5c-1.1-0.3-2.1-0.6-3.1-0.9c-1-0.3-2-0.5-3.1-0.5c-0.7,0-1.5,0.2-2.2,0.5
		c-0.7,0.3-1.4,0.6-2.2,0.9c-1.7,0.7-3.3,1.4-4.8,2c-1.5,0.6-2.9,1.5-4.1,2.7c-4.2,2-8.3,4.3-12.1,7c-3.7,2.6-6.7,6.2-8.7,10.2
		c-3.7,4.1-6.6,8.9-8.7,14c-2.4,6.1-3.7,12.5-3.9,19c-0.4,6.7,0.5,13.5,2.4,19.9c1.7,5.6,3.8,11,6.3,16.2c1,0.7,1.9,1.7,2.4,2.9
		c0.5,1.2,1.5,2.1,2.6,2.6c0.1,0.5,0.3,1,0.6,1.5c0.3,0.5,0.4,1.2,0.3,1.8c0.7,0.6,1.2,1.4,1.4,2.3c0.4,0.4,0.7,0.7,1.1,1
		c0.5,0.4,0.8,0.7,1.1,1c2.1,2.9,3.7,6.1,4.9,9.4c1.5,4,2.5,8.1,3.1,12.3c0.6,4.4,0.7,8.8,0.3,13.3c-0.3,4.3-1.5,8.5-3.3,12.5
		c-1,1.6-2.1,3-3.3,4.4c-1.3,1.4-2,3.2-2.2,5.1c-1.9,2.8-4.1,5.4-6.5,7.8c-2.7,2.8-5.7,5.2-9,7.3c-3.3,2.1-7,3.6-10.8,4.5
		c-4,0.9-8.3,0.7-12.2-0.5c-1.4-1.2-2.7-2.4-3.9-3.5c-1.3-1.3-2.1-3-2.3-4.8c-0.3-0.3-0.8-0.5-1.3-0.4c-0.5,0-0.9-0.1-1-0.4
		c0-0.6,0.1-1.1,0.2-1.7c0.2-0.5,0.2-1.1,0.2-1.7c-1.4-1.9-2.4-4.1-2.9-6.4c-0.5-2.5-0.7-5-0.6-7.6c0.2-2.6,0.5-5.3,1-7.9
		c0.5-2.6,1-5.1,1.5-7.5c0.5-2.4,1-4.7,1.6-6.8s1.3-4.3,2.1-6.4c0.2-0.4,0.2-0.8,0.2-1.2c0-0.4,0.1-0.8,0.2-1.2
		c1.4-3.2,2.9-6.4,4.5-9.4s3.2-6.2,4.9-9.5c1.4-2.1,2.7-4.3,4-6.6c1.3-2.3,2.5-4.5,3.8-6.8c0.3-0.8,0.7-1.6,1.3-2.3
		c0.5-0.6,0.7-1.5,0.6-2.3c-0.8-0.1-1.6,0.3-1.9,1c-0.5,0.8-1.1,1.5-1.7,2.2c-0.6,0.8-1.2,1.6-1.8,2.3c-0.6,0.7-1.1,1.4-1.6,2.1
		c-1.9,2-3.6,4.2-5.3,6.4c-0.3,0.5-0.6,0.5-0.9,0c-0.3-0.5-0.6-0.3-0.9,0.5c0.2-0.9,0.6-1.8,1.1-2.5c0.6-0.6,0.7-1.5,0.2-2.3
		c-1.1,0.2-2.2,0.7-3.1,1.4c-0.9,0.8-1.6,1.6-2.3,2.6c-0.7,1-1.4,2-2.1,3.1c-0.6,1-1.4,1.9-2.4,2.6c-0.7,0-1.4,0.1-2.1,0.3
		c-1.1,1.5-2.1,2.9-3,4.4c-1,1.6-1.6,3.3-2.1,5.1c-0.8,0.9-1.4,1.9-1.9,2.9c-0.5,1.1-1.1,2.1-1.7,3.2c-0.3,1.4-0.6,2.7-1,4.1
		c-0.4,1.5-1.1,2.9-1.9,4.1c-1.4,4.2-2.6,8.7-3.8,13.4c-1.2,5.1-1.9,10.3-2.2,15.5c-0.3,5.3-0.1,10.6,0.7,15.9
		c0.7,4.7,1.9,9.2,3.7,13.6c-0.2,0.8-0.1,1.7,0.3,2.5c0.4,0.8,0.4,1.7,0.1,2.5c1.3,1.8,2.7,3.5,4.2,5.2c1.2,1.5,2.9,2.5,4.7,2.9
		c-0.1,0,0,0.1,0.1,0.2c0.2,0.2,0.3,0.2,0.3-0.1c2.7,1.5,5.4,2.7,8.3,3.7C68.3,344.7,71.7,345.1,75.1,344.9z M179.1,192.3
		c0,0.2-0.2,0.3-0.5,0.4C178.6,192.5,178.7,192.4,179.1,192.3z M177.6,204.7c0,0.2-0.2,0.3-0.5,0.4
		C177,204.9,177.2,204.7,177.6,204.7z M142.2,190.2c-0.2,0-0.1-0.1,0.2-0.3C142.4,190.1,142.4,190.2,142.2,190.2z"/>
	<path id="Path_11605" class="st2" d="M135,205.3c0.1,0,0.3-0.1,0.3-0.3c0,0,0,0,0,0C134.9,205.2,134.8,205.3,135,205.3z"/>
	<path id="Path_11606" class="st2" d="M117.3,311.2c0.2,0.6,0.3,0.5,0.3-0.1C117.6,310.6,117.5,310.6,117.3,311.2z"/>
	<path id="Path_11607" class="st2" d="M284.2,284.9c0.1-0.1,0.2-0.2,0.3-0.3C284.3,284.7,284.2,284.8,284.2,284.9z"/>
	<path id="Path_11608" class="st2" d="M291,273.5c-0.1-0.1-0.1,0.1-0.1,0.4C291,273.8,291.1,273.6,291,273.5z"/>
	<path id="Path_11609" class="st2" d="M284.5,284.7c0.1,0,0.2,0,0.3,0C284.8,284.5,284.7,284.5,284.5,284.7z"/>
	<path id="Path_11610" class="st3" d="M266.5,290.7c0.1-0.4,0-0.8-0.2-1.2c-3.2,0.7-6.7,1.5-10,2.2c0.1,0.3,0.1,0.9,0.2,1.2
		C259.8,292.2,263.3,291.4,266.5,290.7z"/>
	<path id="Path_11611" class="st3" d="M232.5,297.4l-0.3-0.8c-3,0.6-5.9,1.2-9.1,1.9l0.6,1.4C226.4,298.9,229.5,298,232.5,297.4z"/>
	<path id="Path_11612" class="st3" d="M218.6,300.9l-0.4-1.1c-5.5,1.3-11,2.9-16.8,4.3l0.5,1.1C207.3,303.9,212.7,302.3,218.6,300.9
		z"/>
	<path id="Path_11613" class="st3" d="M282.8,294.6c6.3-1,11.9-1.7,17.6-2.6C294.5,291.6,286.2,292.9,282.8,294.6z"/>
	<path id="Path_11614" class="st3" d="M207.8,321.1l10.7-2.7c0.7-0.2,1.1-0.9,0.9-1.6c0-0.1,0-0.1-0.1-0.2l0,0
		C215.5,317.9,211.1,317.5,207.8,321.1z"/>
	<path id="Path_11615" class="st3" d="M277.7,296.1c-9.4,1.3-18.5,2.5-28.2,3.9c0.6-0.9,1.2-1.9,1.7-2.9c-11.2,2.4-21.3,4.9-31.7,7
		c-10.5,1.8-20.2,5.4-30.5,6.8l-0.5-1.1l6.3-2.6c-0.1-0.3,0-0.7-0.1-0.9c-8,2.3-16.4,4.5-24.3,7.1c-4.3,1.1-9.3,1.6-12.4,5.7
		c0.1,0.3-0.9,0.1-1.2,0.2c-3.2,0.7-6.4,0.7-9.4,2c-19.7,8.1-39.5,16-59.1,24.4c-11,5-21.5,11-31.3,18c-3.2,2.3-1.9,4-1.3,6.3
		c-2.6,2.1-5.1,4.2-7.7,6.3c6,2.3,11.9,4.6,17.7,7.2c1.3,0.6,2.6,1.1,3.9,1.7c1.2-0.8,2.5-1.6,3.8-2.4c3.3-2,6.6-4.3,10.2-6.4
		c4-2.6,8.4-5.4,12.8-7.8c4.3-2.7,8.3-4.7,13.6-5c5.6-0.4,11-3.6,16.3-5.4c0.3-0.1,0.3-0.8,0.8-1.3c-2.1,0.2-3.6,0.5-5.1,0.8
		l-0.6-1.4c2.6-1.4,5.6-4.2,8.3-4c4.1,0.6,6.4-1.7,9.1-3.4c6.1-3.8,12-8.1,18.3-10.7c10.4-4.3,21.1-7.1,31.8-10.5
		c2.2-0.7,4.2-1.7,6.2-2.9c4.7-2.6,8.9-6.3,13.9-8.3c3.8-1.6,8.5-1.9,12.7-2.7c2.7-0.5,5.2-0.5,7.8-1.3c4.8-1.6,9.3-3.8,14.2-5.2
		c8.5-1.9,16.9-3.1,24.5-7.2c0.3-0.1,0.7,0,1.3,0.1c-0.7,0.9-1.7,1.6-2.7,2.1c0.4,0.3,0.7,0.8,0.8,1.3c3.3-2,6.7-4,9.9-6.3
		C277.6,296.7,277.6,296.4,277.7,296.1z M165.6,316.9l6.8-2.8C171.3,318.4,168.1,316.9,165.6,316.9L165.6,316.9z M182,313.1
		c-1.4,0.6-3.1,1-4.5,1.5l-0.4-1.1l5.5-2.3C182.3,312.3,182.2,313,182,313.1L182,313.1z M184.7,326.7c0.8-1.9,0.9-3.3,1.6-3.9
		c2.4-1.3,9.5-2.6,13.2-2.2L184.7,326.7z"/>
</g>
</svg>
