<?xml version="1.0" encoding="utf-8"?>
<!-- Generator: Adobe Illustrator 26.0.1, SVG Export Plug-In . SVG Version: 6.00 Build 0)  -->
<svg version="1.1" id="GeorgeSamuel.me" xmlns="http://www.w3.org/2000/svg" xmlns:xlink="http://www.w3.org/1999/xlink" x="0px"
	 y="0px" viewBox="0 0 512 512" style="enable-background:new 0 0 512 512;" xml:space="preserve">
<style type="text/css">
	.st0{fill:#FFFFFF;}
</style>
<g id="www.GeorgeSamuel.me_00000085217660648805767650000015668263125095924141_">
	<rect class="st0" width="512" height="512"/>
	<circle class="st0" cx="256" cy="256" r="256"/>
	<g id="www.GeorgeSamuel.me">
		<path id="Path_5281" d="M480.7,255.8c-9.5,0-19.1,0-28.6,0c-0.9,0-1.8,0-2.7,0c-0.5,0-0.6-0.1-0.7-0.6c-0.3-3.4-0.7-6.9-0.9-10.3
			c-0.3-4.2-0.2-8.5,0.2-12.7c0.3-2.5,0.5-5.1,0.7-7.7c0-0.6,0.2-0.9,0.9-0.8c0.8,0,1.6,0,2.4,0c0.4,0,0.6,0.2,0.6,0.6
			c0.3,3.8,0.8,7.7,1,11.5c0.2,4.3,0.1,8.5-0.3,12.8c-0.1,0.8-0.1,1.6-0.2,2.4c-0.1,0.4,0.1,0.6,0.5,0.6c0.2,0,0.4,0,0.7,0h26.5
			V255.8z"/>
		<path id="Path_5282" d="M391.5,255.8c-5.4,0-10.7,0-16.1,0c-0.6,0-0.9-0.1-1-0.8c-0.3-3.7-0.6-7.4-0.9-11.2
			c-0.3-4.5-0.1-8.9,0.3-13.3c0.2-2,0.4-4.1,0.6-6.1c0-0.6,0.3-0.7,0.8-0.7c10.3,0,20.6,0,31,0c1.6,0,1.5-0.3,1.5,1.4
			c0,0.7,0,1.4,0,2.1c0,0.6-0.2,0.8-0.8,0.8c-1.2,0-2.5,0-3.7,0c-7.9,0-15.8,0-23.6,0c-0.7,0-0.9,0.1-0.9,0.8
			c0.2,2.6,0.4,5.3,0.6,7.9c0,0.2,0.4,0.4,0.6,0.4c0.8,0.1,1.7,0,2.5,0c5.6,0,11.2,0,16.8,0c0.6,0,0.8,0.2,0.8,0.8
			c0,0.9,0,1.7,0,2.6c0,0.6-0.2,0.8-0.8,0.8c-2.3,0-4.6,0-6.9,0c-4.1,0-8.2,0-12.3,0c-0.6,0-0.8,0.2-0.8,0.8
			c-0.2,2.8-0.4,5.6-0.6,8.3c-0.1,1,0,1,0.9,1c9.3,0,18.7,0,28,0c0.8,0,1,0.3,1,1c-0.1,0.8-0.1,1.6,0,2.4c0,0.7-0.2,1-1,1
			C402.3,255.8,396.9,255.8,391.5,255.8z"/>
		<path id="Path_5283" d="M66,227.6l-2.6,3.7c-0.2-0.1-0.4-0.2-0.6-0.3c-6.5-4.1-13.3-5.2-20.7-2.8c-1,0.4-1.9,0.9-2.7,1.5
			c-1.2,1-1.2,2.2,0.1,3.2c1.4,1,3.1,1.7,4.8,2.1c3.8,1,7.6,1.8,11.3,2.8c2.9,0.8,5.8,1.5,8.3,3.3c1.1,0.9,2.1,1.9,3,3
			c1.1,1.5,1.2,3.5,0.1,5.1c-1.5,2.5-3.7,4.4-6.4,5.5c-2.9,1.2-6.1,1.9-9.3,2c-6.4,0.3-12.8-1.4-18.3-4.8c-1.4-0.8-1.4-0.8-0.5-2.2
			c0.3-0.4,0.6-0.9,0.9-1.3l0.9-1.3c0.2,0.1,0.3,0.2,0.5,0.2c2.8,2.2,6.2,3.7,9.7,4.4c1.7,0.4,3.4,0.6,5.2,0.7
			c3.4,0.2,6.8-0.7,9.7-2.5c0.2-0.1,0.4-0.3,0.6-0.5c1.9-1.8,1.7-3.7-0.7-4.9c-2.1-1-4.4-1.8-6.7-2.2c-4.8-1-9.5-2.4-14-4.2
			c-1.6-0.7-3.1-1.7-4.4-2.9c-2.2-2.3-2.2-4.8,0-7.1c2.3-2.2,5.1-3.8,8.2-4.4c3.8-0.9,7.8-1,11.7-0.4c3.9,0.6,7.7,1.9,11.1,3.9
			C65.5,227.2,65.7,227.4,66,227.6z"/>
		<path id="Path_5284" d="M125.3,257.5c-2.1-0.2-4.2-0.8-6.1-1.9c-4.7-2.6-9-6-12.6-10c-1-1.1-1.8-2.3-2.6-3.6
			c-0.8-1.3-0.9-3-0.1-4.3c1.3-2.3,2.9-4.3,4.9-6.1c3.3-3.3,7.2-6,11.3-8.1c1.7-0.8,3.4-1.6,5.3-1.4c1.2,0.2,2.4,0.5,3.6,1
			c3.7,1.7,7.1,4,10.2,6.7c2.2,1.8,4.2,3.9,5.9,6.2c2.1,3,2.1,4.6-0.1,7.5c-3.2,4.1-7.1,7.7-11.5,10.4c-2,1.4-4.3,2.5-6.7,3.2
			C126.3,257.4,125.7,257.4,125.3,257.5z M125,252.3c0.3,0,0.7,0,1-0.1c0.5-0.1,1-0.2,1.4-0.4c4.8-1.8,9.1-5,12.1-9.1
			c0.9-0.9,1.3-2.1,1.1-3.4c-0.3-1.1-0.8-2.1-1.5-3c-2.7-3.5-6.2-6.2-10.2-8.1c-2.2-1.1-4.7-1.3-7-0.3c-3,1.3-5.8,3.1-8.2,5.3
			c-1.6,1.4-3,3.1-4,5c-0.5,0.9-0.5,2-0.1,2.9c0.3,0.7,0.7,1.4,1.2,2c2.6,3.4,5.9,6.1,9.7,7.9C121.9,251.7,123.4,252.2,125,252.3z"
			/>
		<path id="Path_5285" d="M203.2,223.7c5.1,0,10.2,0,15.3,0c0.5,0,0.8,0.1,0.7,0.7c0,0.9,0,1.8,0,2.8c0,0.7-0.2,0.9-0.9,0.9
			c-7.4,0-14.7,0-22.1,0c-1.3,0-2.6,0-4,0c-0.8,0-0.9,0.2-0.8,0.9c0.2,1.8,0.3,3.7,0.5,5.5c0.1,0.8,0.1,1.6,0.1,2.5
			c0,0.5,0.1,0.7,0.7,0.7c5.7,0,11.3,0,17,0c0.6,0,0.8,0.1,0.8,0.7c0,0.9,0,1.9,0,2.8c0,0.6-0.2,0.8-0.8,0.8c-5.6,0-11.2,0-16.8,0
			c-0.8,0-0.9,0.2-0.9,0.9c-0.2,3.3-0.5,6.6-0.7,9.9c-0.1,0.8-0.2,1.7-0.3,2.5c0,0.4-0.2,0.6-0.6,0.6c-0.9,0-1.8,0-2.7,0
			c-0.2-0.1-0.4-0.3-0.5-0.5c-0.3-3.6-0.7-7.2-0.9-10.8c-0.2-2.8-0.2-5.6-0.1-8.3c0.1-2.9,0.4-5.7,0.7-8.6c0.1-1.1,0.2-2.1,0.3-3.2
			c0-0.5,0.2-0.7,0.8-0.7C193,223.7,198.1,223.7,203.2,223.7z"/>
		<path id="Path_5286" d="M318.8,223.7c6,0,12,0,18,0c0.6,0,0.8,0.2,0.8,0.8c0,0.9,0,1.8,0,2.8c0,0.6-0.2,0.8-0.8,0.8
			c-4.9,0-9.8,0-14.7,0c-0.9,0-0.9,0-0.8,0.9c0.6,5.6,0.7,11.2,0.4,16.8c-0.2,3.2-0.6,6.4-0.9,9.6c-0.1,0.2-0.3,0.4-0.5,0.5
			c-0.9,0-1.8,0-2.7,0c-0.4,0-0.6-0.2-0.6-0.6c-0.3-3.2-0.7-6.5-0.9-9.7c-0.3-4.6-0.3-9.3,0.2-13.9c0.1-1,0.1-1.9,0.2-2.9
			c0.1-0.5-0.1-0.7-0.6-0.6c-1.5,0-2.9,0-4.4,0c-3.5,0-7.1,0-10.6,0c-0.6,0-0.9-0.1-0.8-0.8c0.1-0.9,0.1-1.8,0-2.7
			c0-0.6,0.2-0.9,0.8-0.9C306.8,223.7,312.8,223.7,318.8,223.7L318.8,223.7z"/>
		<path id="Path_5287" d="M256.6,238.9c0.3-3.6,0.7-8,1-12.4c0.1-0.7,0.2-1.4,0.2-2.2c0-0.5,0.2-0.7,0.7-0.7c0.8,0,1.6,0,2.5,0
			c0.4,0,0.6,0.1,0.6,0.5c0.8,6,1.2,12,1.1,18.1c-0.1,3-0.4,6.1-0.6,9.1c-0.1,1.3-0.3,2.6-0.4,3.9c0,0.4-0.2,0.6-0.6,0.6
			c-0.8,0-1.7,0-2.5,0c-0.3,0.1-0.6-0.1-0.6-0.4c0,0,0-0.1,0-0.1c-0.3-3-0.6-5.9-0.8-8.9C256.8,244.2,256.8,241.9,256.6,238.9z"/>
		<path id="Path_5288" d="M130.7,277.5c1.1,0.1,2.1,0.2,3.1,0.4c2.1,0.3,3.7,2,4,4.1c0.3,2.2,0.3,4.3-1.5,6
			c-0.6,0.5-1.2,0.9-1.9,1.1c-2.4,0.8-5,0.8-7.3,0c-1.8-0.5-3.2-2.1-3.3-4c-0.2-1.4-0.1-2.7,0.3-4c0.5-1.6,1.9-2.7,3.5-3
			C128.5,277.7,129.6,277.7,130.7,277.5z M130.7,278.8c-0.9,0.1-1.8,0.3-2.7,0.5c-1.4,0.3-2.5,1.5-2.7,2.9c-0.1,1-0.1,1.9,0,2.9
			c0.1,1.4,1.2,2.6,2.5,2.9c1.6,0.5,3.3,0.6,5,0.2c1.5-0.2,2.8-1.3,3.2-2.7c0.4-1.3,0.3-2.6-0.1-3.9c-0.4-1.2-1.3-2-2.5-2.3
			C132.6,279,131.6,278.9,130.7,278.8z"/>
		<path id="Path_5289" d="M344.8,277.5c1.1,0.1,2,0.2,3,0.4c2.2,0.3,3.9,2,4.1,4.2c0.2,1.3,0.2,2.7-0.2,4c-0.6,1.7-2.1,3-3.9,3.3
			c-2.1,0.5-4.3,0.4-6.4-0.2c-2.1-0.6-3.6-2.5-3.6-4.7c0-1.1,0.1-2.2,0.3-3.3c0.5-1.7,1.8-2.9,3.6-3.2
			C342.6,277.8,343.7,277.6,344.8,277.5z M345,278.7c-1.1,0.2-2,0.3-2.9,0.5c-1.3,0.2-2.4,1.3-2.6,2.6c-0.2,1.2-0.1,2.5,0,3.7
			c0.2,1.2,1.1,2.1,2.3,2.4c1.6,0.5,3.4,0.6,5,0.2c1.4-0.1,2.7-1.1,3.2-2.4c0.5-1.4,0.5-3-0.1-4.5c-0.3-0.9-1-1.5-1.9-1.8
			C347,279.1,345.9,278.9,345,278.7z"/>
		<path id="Path_5290" d="M369.8,284.3l4.6,5c-0.9,0.4-1.9,0.2-2.5-0.6c-1.1-1.3-2.2-2.5-3.3-3.8c-0.2-0.2-0.6-0.4-0.9-0.4
			c-1.1,0-2.2,0-3.3,0c-0.5,0-0.6,0.2-0.6,0.7c0,1.2,0,2.4,0,3.6c0,0.7-0.4,0.7-0.9,0.7c-0.5,0-0.8,0-0.8-0.7c0-3.4,0-6.8,0-10.2
			c0-0.7,0.2-0.9,0.9-0.8c2.2,0.1,4.4,0.1,6.6,0.1c0.6,0,1.3,0.2,1.9,0.4c1.2,0.5,2,1.8,1.8,3.1c-0.2,1.2-1.1,2.3-2.3,2.6
			C370.7,284.1,370.4,284.2,369.8,284.3z M366.8,283.4l0,0.1c1.2-0.2,2.4-0.2,3.6-0.5c0.8-0.2,1.4-1,1.5-1.9c0-0.9-0.6-1.6-1.5-1.9
			c-0.3-0.1-0.6-0.2-0.9-0.2c-1.7-0.1-3.4-0.1-5.1-0.1c-0.5,0-0.6,0.2-0.6,0.6c0,1,0,2.1,0,3.1c0,0.5,0.2,0.7,0.7,0.7
			C365.3,283.4,366.1,283.4,366.8,283.4L366.8,283.4z"/>
		<path id="Path_5291" d="M298.2,279.1c0,1.2,0,2.2,0,3.3c0,0.1,0.4,0.4,0.6,0.4c2.2,0,4.3,0,6.5,0c0.4,0,0.8-0.2,0.8,0.5
			c0,0.7-0.4,0.6-0.9,0.6c-2.3,0-4.7,0-7.1,0v3c0,1.4-0.2,1.3,1.3,1.3c2.6,0,5.1,0,7.7,0c0.5,0,0.7,0.2,0.7,0.7
			c0,0.5-0.2,0.6-0.7,0.6c-3.3,0-6.5,0-9.8,0c-0.6,0-0.8-0.2-0.8-0.8c0-3.4,0-6.7,0-10.1c0-0.6,0.2-0.8,0.8-0.8c3,0,6.1,0,9.1,0
			c0.4,0,0.7,0,0.8,0.6c0.1,0.6-0.1,0.7-0.6,0.7C303.9,279.1,301.1,279.1,298.2,279.1z"/>
		<path id="Path_5292" d="M286.7,289.4c-1.1,0.1-2,0.2-2.7-0.8c-1-1.3-2-2.5-3.1-3.6c-0.2-0.2-0.5-0.4-0.9-0.4c-1.1,0-2.2,0-3.3,0
			c-0.6,0-0.7,0.2-0.7,0.7c0,1.2,0,2.3,0,3.5c0,0.8-0.4,0.7-0.9,0.7c-0.5,0-0.7-0.2-0.7-0.7c0-3.4,0-6.7,0-10.1
			c0-0.8,0.2-0.9,0.9-0.9c2.3,0.1,4.7,0.1,7,0.2c0.7,0.1,1.3,0.3,1.9,0.7c1,0.7,1.5,1.9,1.1,3.1c-0.2,1.1-1.1,2-2.2,2.2
			c-0.4,0.1-0.7,0.2-1.2,0.3L286.7,289.4z M279,283.4L279,283.4c0.8,0,1.6,0,2.4-0.1c0.8,0,1.6-0.3,2.2-1c0.7-0.8,0.6-2.1-0.3-2.8
			c-0.3-0.3-0.8-0.4-1.2-0.4c-1.8-0.2-3.7-0.1-5.5-0.2c-0.5,0-0.5,0.3-0.5,0.6c0,1.1,0,2.1,0,3.2c0,0.5,0.2,0.7,0.6,0.6
			C277.4,283.4,278.2,283.4,279,283.4L279,283.4z"/>
		<path id="Path_5293" d="M169.1,283.5c0-1.7,0-3.3,0-5c0-0.5,0.1-0.8,0.7-0.8c3.1,0,6.1,0,9.2,0c0.5,0,0.8,0.1,0.8,0.7
			c0,0.7-0.4,0.6-0.8,0.6c-2.6,0-5.2,0-7.8,0c-0.5,0-0.6,0.2-0.6,0.6c0,0.8,0,1.6,0,2.4c0,0.5,0.2,0.7,0.7,0.7c2.2,0,4.4,0,6.6,0
			c0.4,0,0.8-0.1,0.8,0.5c0,0.6-0.3,0.7-0.8,0.7c-2.2,0-4.4,0-6.6,0c-0.5,0-0.6,0.2-0.6,0.6c0,0.9,0,1.9,0,2.8
			c0,0.6,0.1,0.8,0.7,0.8c2.7,0,5.5,0,8.2,0c0.5,0,0.7,0.1,0.7,0.6c0,0.6-0.2,0.7-0.7,0.7c-3.3,0-6.5,0-9.8,0
			c-0.6,0-0.7-0.2-0.7-0.7C169.1,287,169.1,285.3,169.1,283.5z"/>
		<path id="Path_5294" d="M100,283.6c0-1.7,0-3.4,0-5.2c0-0.6,0.2-0.7,0.7-0.7s0.8,0.1,0.8,0.7c0,1.2,0,2.3,0,3.5
			c0,0.5,0.1,0.8,0.7,0.8c2.8,0,5.7,0,8.5,0c0.5,0,0.6-0.3,0.6-0.7c0-1.2,0-2.4,0-3.6c0-0.7,0.4-0.7,0.9-0.7c0.6,0,0.6,0.3,0.6,0.7
			c0,3.4,0,6.9,0,10.3c0,0.6-0.3,0.6-0.8,0.7c-0.5,0-0.8-0.1-0.7-0.7c0-1.4,0-2.7,0-4.1c0-0.5-0.2-0.7-0.7-0.7c-2.8,0-5.6,0-8.4,0
			c-0.6,0-0.7,0.2-0.7,0.7c0,1.4,0,2.7,0,4.1c0,0.7-0.4,0.6-0.8,0.6c-0.4,0-0.7,0-0.7-0.6C100,287.1,100,285.3,100,283.6L100,283.6z
			"/>
		<path id="Path_5295" d="M251.1,287.2c0.8,0.3,1.6,0.7,2.3,1c0.4,0.2,0.5,0.4,0.3,0.8c-0.2,0.4-0.4,0.5-0.8,0.3
			c-0.7-0.4-1.5-0.8-2.3-1.1c-0.3-0.1-0.7-0.1-1,0.1c-1.6,1.1-3.5,1.5-5.4,1.1c-1.2-0.1-2.1-0.9-2.4-2c-0.3-1.2,0.2-2.4,1.2-3
			c0.4-0.3,0.9-0.4,1-0.8c0.1-0.3-0.3-0.8-0.5-1.2c-0.5-1.2,0-2.5,1.2-3c0.3-0.1,0.7-0.2,1-0.2c0.8,0,1.7,0,2.5,0.2
			c0.8,0.1,1.4,0.6,1.6,1.4c0.2,0.9-0.5,1.5-1.1,1.8c-0.8,0.4-1.6,0.8-2.5,1.2c0.3,0.3,0.6,0.6,0.9,0.8c0.8,0.5,1.5,1,2.3,1.5
			c0.2,0.3,0.6,0.3,0.9,0c0.1-0.1,0.1-0.2,0.2-0.2c0.3-0.5,0.6-1.1,0.8-1.6c0.2-0.6,0.6-0.5,1-0.4c0.1,0,0.2,0.6,0.1,0.8
			C252,285.6,251.6,286.3,251.1,287.2z M248.9,287.4c-1.3-1-2.5-1.9-3.8-2.8c-0.2-0.1-0.4-0.1-0.6,0c-0.3,0.2-0.6,0.4-0.8,0.7
			c-0.7,0.6-0.8,1.6-0.2,2.3c0.3,0.3,0.6,0.5,1,0.6C246,288.7,247.7,288.4,248.9,287.4L248.9,287.4z M246.4,280.1
			c-0.3,0.1-0.7,0.2-1,0.3c-0.7,0.3-1,1.1-0.7,1.7c0,0,0,0.1,0.1,0.1c0.4,0.9,0.6,1,1.6,0.6c0.3-0.1,0.5-0.2,0.8-0.3
			c0.6-0.3,1.4-0.6,1.3-1.5C248.4,280.5,247.5,280.1,246.4,280.1L246.4,280.1z"/>
		<path id="Path_5296" d="M403.9,287.2c1.6,0.8,3.3,1.2,5.1,1.1c0.8-0.1,1.5-0.2,2.3-0.4c0.4-0.1,0.7-0.4,1-0.6
			c0.6-0.4,0.8-1.3,0.3-1.9c-0.2-0.3-0.4-0.4-0.7-0.5c-1.1-0.4-2.1-0.6-3.2-0.9c-1-0.2-2-0.4-2.9-0.7c-1.1-0.2-1.9-1.1-2-2.2
			c-0.1-1.1,0.5-2.1,1.5-2.6c1-0.6,2.2-0.9,3.4-0.8c1.5,0.1,3.1,0.4,4.6,0.6c0.6,0.1,0.4,0.5,0.4,0.9c-0.1,0.5-0.4,0.4-0.7,0.3
			c-1.9-0.6-3.9-0.7-5.9-0.3c-0.1,0-0.2,0.1-0.4,0.1c-0.8,0.3-1.5,1.1-1.4,1.6c0.1,0.8,0.8,1.2,1.4,1.3c1.4,0.3,2.8,0.6,4.2,0.9
			c0.6,0.1,1.3,0.3,1.8,0.6c1.4,0.6,2,2.1,1.5,3.5c-0.2,0.4-0.5,0.8-0.8,1.1c-1.2,0.9-2.6,1.4-4.1,1.4c-1.6,0.1-3.2-0.2-4.7-0.7
			C403.5,288.5,403.4,288.4,403.9,287.2z"/>
		<path id="Path_5297" d="M210.6,287.2c1.9,1,4.1,1.3,6.2,1c0.8-0.1,1.5-0.5,2.1-0.9c0.7-0.4,0.9-1.2,0.5-1.9
			c-0.2-0.3-0.5-0.6-0.9-0.7c-1.1-0.3-2.2-0.6-3.3-0.8c-1.1-0.3-2.2-0.6-3.3-0.9c-1.8-0.6-1.7-3-0.7-3.9c0.8-0.8,1.8-1.3,2.9-1.4
			c2-0.3,4-0.1,5.9,0.4c0.6,0.2,0.4,0.6,0.4,0.9c-0.1,0.5-0.4,0.4-0.8,0.3c-1.8-0.6-3.8-0.7-5.7-0.3c-0.2,0-0.4,0.1-0.6,0.2
			c-0.7,0.3-1.4,0.7-1.3,1.6c0,0.9,0.7,1.1,1.4,1.3c1.4,0.3,2.7,0.5,4.1,0.8c0.6,0.1,1.2,0.3,1.8,0.6c1.4,0.5,2.1,2,1.6,3.4
			c-0.2,0.5-0.5,1-1,1.3c-0.9,0.7-2,1.2-3.2,1.3c-1.8,0.2-3.7,0-5.4-0.6C210.2,288.5,210.2,288.4,210.6,287.2z"/>
		<path id="Path_5298" d="M317.9,287.4c1.3,0.3,2.5,0.7,3.8,0.9c1.2,0.2,2.5,0.1,3.7-0.4c0.3-0.1,0.7-0.3,0.9-0.6
			c0.6-0.4,0.8-1.3,0.3-1.9c-0.2-0.3-0.4-0.4-0.8-0.5c-1.1-0.3-2.3-0.6-3.5-0.8c-1.1-0.2-2.2-0.6-3.3-1c-1.2-0.5-1.7-1.8-1.2-3
			c0-0.1,0.1-0.2,0.2-0.3c0.4-0.9,1.2-1.5,2.2-1.7c2.3-0.6,4.8-0.6,7.1,0.2c0.6,0.2,0.4,0.6,0.3,0.9c-0.1,0.2-0.4,0.3-0.6,0.3
			c-1.4-0.2-2.8-0.5-4.2-0.5c-0.9,0-1.8,0.3-2.6,0.6c-0.7,0.2-1.1,1-0.9,1.7c0.2,0.5,0.6,0.9,1.1,1c1.5,0.4,3,0.6,4.4,0.9
			c0.6,0.1,1.2,0.3,1.8,0.6c2.5,1.1,1.8,3.8,0.3,4.9c-1.1,0.8-2.4,1.1-3.7,1.1c-1.6-0.1-3.2-0.3-4.8-0.7
			C317.5,288.6,317.5,288.4,317.9,287.4z"/>
		<path id="Path_5299" d="M388.6,277.8c1.9,0,3.7,0,5.6,0c0.5,0,0.7,0.2,0.7,0.7c0,0.5-0.1,0.7-0.6,0.7c-1.4,0-2.8,0-4.3,0
			c-0.5,0-0.7,0.1-0.7,0.7c0,3,0,5.9,0,8.9c0,0.7-0.4,0.7-0.9,0.7c-0.6,0-0.7-0.2-0.7-0.8c0-2.9,0-5.9,0-8.8c0-0.6-0.2-0.7-0.7-0.7
			c-1.4,0-2.8,0-4.2,0c-0.3,0-0.8,0.1-0.7-0.5c0.1-0.4,0-0.9,0.8-0.9C384.9,277.8,386.8,277.8,388.6,277.8L388.6,277.8z"/>
		<path id="Path_5300" d="M152.9,277.8c1.9,0,3.7,0,5.6,0c0.6,0,0.7,0.2,0.7,0.7c0,0.5-0.2,0.7-0.7,0.7c-1.4,0-2.8,0-4.2,0
			c-0.6,0-0.7,0.1-0.7,0.7c0,2.9,0,5.9,0,8.8c0,0.7-0.3,0.8-0.8,0.8c-0.6,0-0.7-0.2-0.7-0.8c0-2.9,0-5.9,0-8.8
			c0-0.5-0.2-0.7-0.7-0.7c-1.4,0-2.8,0-4.3,0c-0.3,0-0.7,0-0.6-0.5c0.1-0.4-0.1-0.9,0.7-0.9C149.1,277.8,151,277.8,152.9,277.8
			L152.9,277.8z"/>
		<path id="Path_5301" d="M190.6,283.6c0-1.7,0-3.4,0-5.2c0-0.7,0.4-0.7,0.8-0.7c0.6,0,0.7,0.2,0.7,0.7c0,2.9,0,5.8,0,8.7
			c0,0.6,0.2,0.9,0.8,0.9c2.5,0,5,0,7.5,0c0.5,0,0.7,0.1,0.7,0.7c0,0.5-0.1,0.8-0.7,0.8c-3,0-6,0-9,0c-0.7,0-0.9-0.2-0.9-0.9
			C190.7,286.9,190.6,285.2,190.6,283.6z"/>
	</g>
</g>
</svg>
