<?xml version="1.0" encoding="utf-8"?>
<!-- Generator: Adobe Illustrator 26.0.1, SVG Export Plug-In . SVG Version: 6.00 Build 0)  -->
<svg version="1.1" id="George_Samuel" xmlns="http://www.w3.org/2000/svg" xmlns:xlink="http://www.w3.org/1999/xlink" x="0px"
	 y="0px" viewBox="0 0 512 512" style="enable-background:new 0 0 512 512;" xml:space="preserve">
<style type="text/css">
	.st0{fill:#111111;}
	.st1{fill:#A7A9AC;}
	.st2{fill:#E64825;}
	.st3{fill:#E54B25;}
	.st4{fill:#F4A61E;}
	.st5{fill:#EB7524;}
	.st6{fill:#E85924;}
</style>
<g id="www.GeorgeSamuel.me_00000173849212648420011510000016721646336751429017_">
	<rect class="st0" width="512" height="512"/>
	<circle class="st0" cx="256" cy="256" r="256"/>
	<g id="www.GeorgeSamuel.me">
		<path id="Path_9157" class="st1" d="M277.5,256.2v22.6c0.2,5-0.2,10-1.1,15c-2.8,11.2-11.5,20-22.6,23c-11.2,2.8-23-0.7-30.9-9.2
			c-4.6-5-7.5-11.4-8.4-18.2c-1.3-9,1-18.1,6.4-25.5c5.4-7.3,13.8-11.9,22.8-12.5c9.1-0.6,18,3.2,23.8,10.3v-23.2c-0.6-4-0.6-8,0-12
			c1.1-2.8,6.2-1.7,9.2-1.7c0.4,0,0.7,0.1,0.9,0.4c0.1,0.1,0.2,0.4,0.2,0.6L277.5,256.2z M267,284.5c0.1-6.1-2.1-12-6.2-16.5
			c-8-8.2-21.1-8.5-29.4-0.6c-2.8,2.7-4.8,6.1-5.8,9.9c-1.9,6.2-1.3,12.9,1.7,18.7c3.9,7.7,12,12.4,20.6,12
			c8.8-1.4,15.9-7.8,18.1-16.5C266.8,289.3,267.1,286.9,267,284.5L267,284.5z"/>
		<path id="Path_9158" class="st1" d="M318.8,284.8v-0.6c0.1-12,6.6-23,17-29c10.8-5.7,23.9-4.6,33.7,2.6
			c10.1,8.1,14.8,21.2,12.4,33.9c-2,9.8-8.3,18.2-17.2,22.8c-10.1,4.8-22.1,4-31.4-2.2C324.2,306.1,318.8,295.8,318.8,284.8z
			 M350.6,307.6c6.4-0.1,12.3-3.1,16.3-8c4.1-5.4,5.8-12.4,4.7-19.1c-1.2-7-5.4-13.1-11.6-16.7c-18.5-10.1-35.6,12.7-28.8,29.8
			c3,7.6,9.9,12.9,18,13.8C349.6,307.6,350.1,307.7,350.6,307.6L350.6,307.6z"/>
		<path id="Path_9159" class="st1" d="M90.5,270.8h-3.6c-0.5,0-1,0-1.5-0.2c-0.5-0.5-0.9-1.2-1.1-1.9c-1.9-4.3-6-7.3-10.7-7.9
			c-4-0.8-8-0.4-11.8,1.1c-2,0.7-3.9,1.9-5.2,3.6c-1.3,1.8-1.7,4.1-0.9,6.2c1.3,1.8,3.1,3.1,5.2,3.7c6,1.9,12.4,2.2,18.3,3.6
			c6.2,1,11.9,4.3,15.7,9.4c4,7.2,2.6,16.2-3.4,21.9c-5.8,5.5-13.7,8.4-21.7,7.9c-6.5,0-12.8-2.1-18.2-5.8
			c-5.4-3.7-8.8-9.6-9.4-16.1l9-0.2c0.4,0,0.9,0,1.3,0.2c0.4,0.4,0.6,0.8,0.7,1.3c1.5,4.1,4.7,7.4,8.8,9c4.1,1.5,8.5,1.9,12.7,1.1
			c3.4-0.4,6.5-1.8,9-4.1c2.6-2.3,3.4-6,1.9-9.2c-1.5-2.3-3.7-3.9-6.4-4.5c-6-1.9-12.4-2.1-18.5-3.4c-6.3-0.8-11.9-4.5-15.2-9.9
			c-2.5-5.7-1.6-12.2,2.2-17c9.6-9.6,24.3-11.8,36.3-5.4c6.4,3.2,10.7,9.6,11,16.8L90.5,270.8z"/>
		<path id="Path_9160" class="st1" d="M150.3,273.4v-10.1c0-1.7-0.9-8.8,0.2-10.1c1.5-1.5,8.2-0.2,10.1-0.2l-0.2,33.1
			c-0.2,3.8,0.2,7.6,1.3,11.2c2.3,6.1,8.1,10.1,14.6,10.3c6.5,0,12.3-3.9,14.8-9.9c1.2-3.8,1.8-7.8,1.5-11.8l-0.2-32
			c0-0.2,0-0.4,0.2-0.6c0.3-0.2,0.6-0.4,0.9-0.4c3.2-0.1,6.4-0.1,9.5,0.2l0.2,31.1c0.5,6.4-0.4,12.8-2.6,18.7
			c-4.4,8.9-13.5,14.6-23.4,14.6c-10.8,0.3-20.7-5.9-25.1-15.7c-1.7-5.4-2.4-11-2.1-16.7L150.3,273.4z"/>
		<path id="Path_9161" class="st1" d="M120.2,280.1v12c-0.4,4,0.5,8.1,2.6,11.6c3.1,3.1,7.4,4.7,11.8,4.1v8c0.1,0.5-0.1,1-0.4,1.3
			c-0.4,0.3-1,0.5-1.5,0.4c-5.9,0.3-11.7-1.5-16.5-5.1c-3-2.9-5-6.7-5.8-10.9c-0.7-4.1-1-8.3-0.9-12.5v-44.9c0-3-0.2-3.4,2.8-3.6
			c2.5-0.1,5-0.1,7.5,0.2l0.2,13.3h13.1c0.3,0,0.7,0,0.9,0.2c0.2,0.4,0.4,0.6,0.2,0.9l-0.2,8.8H121c-0.3,0-0.6,0-0.9,0.2
			c-0.3,0.3-0.4,0.7-0.4,1.1L120.2,280.1z"/>
		<path id="Path_9162" class="st1" d="M304.3,285.8v30.9c0,0.6-0.2,0.7-0.7,0.7h-9.2c-0.6,0-0.7-0.2-0.7-0.7v-61.6
			c0-0.6,0.2-0.7,0.7-0.7h9.2c0.6,0,0.7,0.2,0.7,0.7V285.8z"/>
		<path id="Path_9163" class="st2" d="M379.8,360.8h-16.6c-0.6,0-0.7-0.2-0.7-0.6v-24.3c0-0.2,0.2-0.6,0.4-0.6h16.1
			c0.6,0,0.7,0.2,0.7,0.7v1.5c0,0.7-0.2,0.7-0.7,0.7h-12.7c-0.7,0-0.7,0-0.7,0.7v6.2c0,0.7,0.2,0.7,0.7,0.7h11.4
			c0.6,0,0.7,0.2,0.7,0.7v1.7c0,0.6-0.2,0.7-0.7,0.7h-11.2c-0.7,0-0.7,0-0.7,0.7v7.3c0,0.6,0.2,0.6,0.7,0.6h12.5
			c0.9,0,0.9,0,0.9,0.9C379.8,359.5,379.8,360.1,379.8,360.8z"/>
		<path id="Path_9164" class="st2" d="M328.5,361c-0.6,0-1.3,0.2-1.7-0.2c-0.4-0.4-0.4-0.9-0.6-1.5l-2.1-6c-0.7-2.2-1.7-4.7-2.4-6.9
			c-0.6-1.5-1.1-3-1.5-4.3c-0.7-1.9-1.3-3.9-2.1-5.8c-0.2-0.4,0-0.6,0.4-0.6h2.2c0.2,0,0.4,0.2,0.6,0.4c0.4,0.7,0.6,1.5,0.9,2.4
			c0.4,1.1,0.7,2.4,1.1,3.6c0.6,1.5,0.9,3,1.5,4.3c0.6,1.3,0.9,3,1.5,4.7c0.6,1.5,1.1,3.2,1.7,4.9c0,0.2,0,0.2,0.2,0.4l0.4,0.4
			c0.2-0.2,0.4-0.2,0.4-0.4c0.6-1.7,1.1-3.4,1.7-4.9c0.7-2.4,1.5-4.7,2.4-7.1c0.6-1.5,1.1-3.2,1.7-4.7c0.4-1,0.7-2,0.9-3
			c0-0.4,0.4-0.7,0.7-0.6h2.1c0.4,0,0.6,0.2,0.4,0.6l-1.7,5.1c-0.6,1.5-0.9,3-1.5,4.5c-0.6,1.5-0.9,2.8-1.5,4.3
			c-0.6,1.7-1.1,3.2-1.7,4.9c-0.6,1.4-1.1,2.8-1.5,4.3c-0.2,0.6-0.4,0.9-0.6,1.5c-0.2,0.6-0.4,0.6-0.7,0.4
			C329.5,361.3,329,361.1,328.5,361L328.5,361z"/>
		<path id="Path_9165" class="st2" d="M42.4,348.3v-11.8c0-0.9,0-0.9,0.9-0.9h14.6c0.7,0,0.9,0.2,0.9,0.9v1.5c0,0.7-0.2,0.7-0.7,0.7
			H46.3c-0.7,0-0.9,0-0.9,0.9v6c0,0.7,0.2,0.7,0.7,0.7h10.5c0.6,0,0.7,0.2,0.7,0.7v1.7c0,0.6-0.2,0.7-0.7,0.7H46.1
			c-0.7,0-0.9,0-0.9,0.9v10.3c0,0.6-0.2,0.7-0.7,0.7h-1.9c-0.6,0-0.6-0.2-0.6-0.6v-4.1C42.3,354,42.4,351.1,42.4,348.3L42.4,348.3z"
			/>
		<path id="Path_9166" class="st2" d="M250.7,348.3v-11.8c0-0.9,0-0.9,0.9-0.9h14.6c0.7,0,0.9,0.2,0.9,0.9v1.5
			c0,0.6-0.2,0.7-0.7,0.7h-11.8c-0.7,0-0.9,0-0.9,0.9v6c0,0.7,0.2,0.7,0.7,0.7h10.5c0.6,0,0.7,0.2,0.7,0.7v1.5
			c0,0.6-0.2,0.7-0.7,0.7h-10.5c-0.7,0-0.9,0-0.9,0.9v10.3c0,0.6-0.2,0.7-0.7,0.7h-1.9c-0.6,0-0.6-0.2-0.6-0.6v-4.3L250.7,348.3
			L250.7,348.3z"/>
		<path id="Path_9167" class="st2" d="M112.4,348.3v-12c0-0.9,0-0.9,0.9-0.9h14.6c0.7,0,0.9,0.2,0.9,0.9v1.7c0,0.4-0.2,0.6-0.4,0.6
			h-12.4c-0.6,0-0.7,0.2-0.7,0.7v6.4c0,0.6,0.2,0.7,0.7,0.7h10.5c0.9,0,1.1,0.2,0.9,1.1v1.1c0,0.7-0.2,0.7-0.7,0.7h-10.5
			c-0.7,0-0.7,0-0.7,0.7v10.3c0,0.7,0,0.7-0.7,0.7h-1.7c-0.6,0-0.6-0.2-0.6-0.6C112.4,356.3,112.4,352.4,112.4,348.3L112.4,348.3z"
			/>
		<path id="Path_9168" class="st2" d="M200,355.4v-4.5c0-0.6-0.2-1.2-0.6-1.7c-1.5-2.4-2.8-5.1-4.3-7.5c-1.1-1.9-2.1-3.6-3.2-5.4
			c-0.4-0.6-0.2-0.7,0.4-0.7h2.1c0.3,0,0.7,0.1,0.9,0.4c0.6,1.1,1.3,2.2,2.1,3.6c0.7,1.1,1.3,2.3,1.9,3.6l1.7,3
			c0.2,0.2,0.2,0.4,0.4,0.6h0.4c1.1-1.9,2.1-3.9,3.2-5.8c0.9-1.5,1.7-3.2,2.6-4.7c0.3-0.2,0.6-0.4,0.9-0.6h2.1
			c0.6,0,0.7,0.2,0.4,0.7c-0.4,0.9-0.9,1.7-1.5,2.4c-0.9,1.7-2.1,3.4-3,5.1c-0.9,1.7-1.9,3.4-2.8,4.9c-0.5,0.7-0.8,1.6-0.7,2.4v9.2
			c0,0.6-0.2,0.7-0.6,0.6h-1.9c-0.6,0-0.6-0.2-0.6-0.6C199.8,358.6,199.9,357,200,355.4L200,355.4z"/>
		<path id="Path_9169" class="st1" d="M298.9,244.8h-4.3c-0.7,0-0.9-0.2-0.9-0.9v-7.1c0-2.5,1.8-4.7,4.3-5.1c2-0.4,4.1,0.5,5.2,2.2
			c0.6,1,0.9,2.1,0.9,3.2v6.7c0,0.6-0.2,0.7-0.7,0.7L298.9,244.8z"/>
		<path id="Path_9170" class="st2" d="M162.1,349.8v10.5c0,0.6-0.2,0.6-0.6,0.6h-2.1c-0.4,0-0.4-0.2-0.4-0.4v-21.2
			c0-0.9,0-0.9-0.9-0.9h-5.8c-0.7,0-0.9-0.2-0.9-0.9v-1.3c0-0.7,0.2-0.7,0.9-0.7h16.5c0.7,0,0.9,0,0.9,0.9v1.3c0,0.7,0,0.9-0.9,0.9
			H163c-0.9,0-0.9,0-0.9,0.9V349.8z"/>
		<path id="Path_9171" class="st2" d="M82.4,348.3v-11.8c0-0.9,0-0.9,0.9-0.9h1.5c0.3,0,0.5,0.1,0.6,0.4c0,0,0,0.1,0,0.1v24.3
			c0,0.6-0.2,0.7-0.7,0.7h-1.9c-0.6,0-0.6-0.2-0.6-0.6C82.4,356.3,82.4,352.2,82.4,348.3L82.4,348.3z"/>
		<path id="Path_9172" class="st2" d="M291.6,348.3v-11.8c0-0.9,0-0.9,0.9-0.9h1.5c0.2,0,0.6,0.2,0.6,0.4v24.5
			c0,0.4-0.2,0.7-0.6,0.6h-1.9c-0.3,0-0.5-0.1-0.6-0.4c0,0,0-0.1,0-0.1L291.6,348.3L291.6,348.3z"/>
		<path id="Path_9173" class="st3" d="M431.8,256.9v-4.1c0-0.4-0.2-0.9,0.2-1.1c0.4-0.2,0.9-0.2,1.3-0.2c0.6,0,1.1-0.2,1.5-0.2
			c4.2-0.2,8.4,0.4,12.4,1.7c2.8,0.9,5.4,2.3,7.9,3.9c6.7,4.8,11.4,11.8,13.3,19.8c2.3,10.1,0,20.8-6.4,29
			c-6.6,8.1-16.6,12.6-26.9,12.2c-10.4-0.7-19.8-6.5-25.1-15.5c0.8,0.7,1.6,1.4,2.4,2.1c6.9,5.6,15.9,8,24.7,6.5
			c8.8-1.6,16.3-7.3,20.2-15.3c3.7-8.2,2.9-17.7-2.2-25.1c-5.4-7.3-14.6-10.7-23.4-8.6C431.8,260.3,431.9,258.6,431.8,256.9z"/>
		<path id="Path_9174" class="st4" d="M468.1,278.3c0.2,0.4,0.4,0.6,0.4,0.9c1.7,9.8-1.1,19.8-7.5,27.3c-11.1,13.2-30.8,14.9-44,3.8
			c-0.8-0.7-1.5-1.4-2.3-2.1c-0.8-0.7-1.5-1.5-2.1-2.4c-0.7-0.8-1.3-1.6-1.7-2.6c0.7,0.6,1.3,1.3,1.9,2.1l2.1,2.1
			c1.5,1.3,3.1,2.4,4.9,3.4c3.4,1.9,7.2,3.2,11,3.7c1.4,0.2,2.7,0.2,4.1,0.2c9.4-0.2,18.2-4.6,24-12c5.7-7.5,7.5-17.3,4.9-26.4
			c0.6-0.2,0.6,0.9,0.9,1.3C465.3,278.8,467.4,277.5,468.1,278.3z"/>
		<path id="Path_9175" class="st5" d="M468.3,278.1l-2.4,0.2c-0.3,0-0.7,0-0.9-0.2c-0.6-0.4-0.2-1.5-0.9-1.7l-0.4,0.6
			c-2.1-6.4-6.2-12-11.8-15.7c-5.6-3.8-12.2-5.6-18.9-5.2c-0.2,0-0.2,0-0.4,0.2c0,0.2-0.2,0.2-0.2,0.4v5.1c0.4,0.4,1.1-0.4,1.5,0
			l-1.1,0.4h-0.4c-0.2,0-0.2-0.4-0.2-0.6v-7.5c0-0.7-0.2-1.7,0.7-2.1c1-0.3,2.1-0.3,3.2-0.2c4.2-0.1,8.4,0.7,12.3,2.2
			c2.6,0.9,5.1,2.3,7.3,3.9C462.4,262.7,466.9,270,468.3,278.1z"/>
		<path id="Path_9176" class="st3" d="M434.1,261.4h-1.5v-5.1c0.2-0.4,0.6-0.4,0.9-0.4c2.1-0.2,4.1,0,6.2,0.4c4,0.6,7.9,2,11.4,4.1
			c5.5,3.4,9.7,8.4,12.2,14.4c1,2.1,1.5,4.4,1.5,6.7c-0.1,0.7,0.1,1.4,0.4,2.1c-0.2,0-0.4,0.2-0.2,0.4v3l-0.2,3.4
			c-0.4,0-0.6-0.6-0.6-1.1l-0.2-5.4c0-0.2,0-0.2-0.2-0.4c-0.1-0.1-0.4-0.2-0.6-0.2h-2.8c-0.1-6.1-2.6-11.9-6.9-16.3
			c-4.4-4.2-10.3-6.6-16.5-6.5c-0.7,0-1.4,0-2.1,0.2L434.1,261.4z"/>
		<path id="Path_9177" class="st5" d="M446.2,312.5L446.2,312.5c-9.8,3.9-20.9,2.6-29.4-3.6c-0.8-0.6-1.7-1.2-2.4-1.9
			c-0.3-0.4-0.7-0.7-1.1-0.9c-0.2-0.2-0.9-0.9-0.2-0.7c0.4,0,0.9,0.7,1.1,0.9c0.4,0.4,0.9,0.6,1.3,0.9c0.8,0.6,1.7,1.1,2.6,1.5
			c5.3,2.8,11.4,3.9,17.4,3.2c8.4-1.1,15.9-5.9,20.4-13.1l-2.4,3.9c1.2,0.3,2.5,0.4,3.7,0.2c-2.8,4.1-6.8,7.2-11.4,9
			C446,312.1,446.2,312.3,446.2,312.5z"/>
		<path id="Path_9178" class="st6" d="M446.6,312c-0.2,0-0.2-0.2-0.2-0.4c0-0.2,0.2-0.2,0.4-0.4c4.5-1.2,8.2-4.2,10.5-8.2
			c-1.1,0.2-2.1,0.2-3.2,0c-0.2,0-0.4,0-0.4-0.2v-0.4c0.4-0.7,0.8-1.3,1.3-1.9c2.5-3.1,4.2-6.9,4.9-10.9c0.2-1.6,0.3-3.1,0.4-4.7
			c0-0.6-0.2-1.1,0.6-1.3c0.7-0.2,1.5-0.2,2.2,0c0.2,0,0.4,0,0.4,0.2s0.2,0.2,0.2,0.4l0.2,4.1c0,0.9,0.2,1.7,0.7,2.4
			c-2.2,8.6-7.7,15.9-15.3,20.4c-0.6,0.5-1.5,0.7-2.2,0.6C446.9,311.9,446.7,311.9,446.6,312z"/>
		<path id="Path_9179" class="st6" d="M465.3,215.4L465.3,215.4c-9.7,3.8-20.2,5-30.5,3.6c-2.4-0.4-4.9-0.7-7.1-0.9
			c-2.7-0.2-5.4,0.7-7.3,2.6c-1.6,1.9-2.6,4.3-2.8,6.7c-0.2,2.1,0.2,4.3,1.1,6.2l-0.4-1.1c4.2,18.2,6.7,36.7,7.7,55.4
			c3.2-18,3-36.5-0.4-54.5c-0.6-2.6-0.9-5.8,1.1-7.3c1.7-1,3.7-1.3,5.6-0.7c9.3,0.9,18.8-0.4,27.5-3.7c1.5-0.4,2.8-1.2,3.9-2.2
			C464.8,218.2,465.3,216.8,465.3,215.4z M436.1,219.5L436.1,219.5z M418.9,233.5c0.1,0,0.3-0.1,0.4-0.2
			C419.1,233.4,419.1,233.5,418.9,233.5z"/>
		<path id="Path_9180" class="st5" d="M421.2,246.8l-0.9-5.2c1,0,1.9-0.6,2.2-1.5c0.4-0.9,0.5-1.9,0.4-2.8c-0.2-2.4-1.1-4.7-1.5-7.1
			c-0.3-2,0-4.1,0.9-6c1.5-1.6,3.6-2.4,5.8-2.2c5.7,0.6,11.5,0.4,17.2-0.6l-1.1-0.4l0.6-0.9l-4.5-0.4c8.5,0.2,16.9-1.3,24.9-4.3
			c-5.5,3.9-12.1,6.1-18.9,6.4c-1.4,0-2.7,0.4-3.7,1.3c-0.4,0.4-0.6,0.9-0.9,1.3c-1,0.8-2.3,1.1-3.6,0.9l-6.2-0.2
			c-2.2-0.4-4.6,0.3-6.2,1.9c-0.7,1.6-0.9,3.4-0.6,5.1c0.6,3.2,1.3,6.4,1.9,9.5c0,0.4,0.2,1.3,0.2,1.7c0,0.6-0.4,0.9-0.6,1.5
			c-0.2,1-1,1.7-2.1,1.9c0.4,3.6,0.6,7.1,0.7,10.7l-0.7-0.7l-1.7,0.6L421.2,246.8z"/>
		<path id="Path_9181" class="st4" d="M439.1,225.5c0-0.2,0.4-0.2,0.6-0.4h0.6c0.7,0,1.3,0,1.7-0.9c0.2-0.6,0.9-0.9,0.6-1.7
			c0-0.2,0.2-0.4,0.4-0.4c0.8-0.2,1.6-0.2,2.4-0.2c1.7-0.2,3.4-0.4,5.2-0.7l3.4-0.6c0.5-0.2,1-0.3,1.5-0.4c2.6-0.7,5-1.7,7.3-3.2
			l2.2-1.7c0.2,0,0.4,0,0.2,0.4c-0.3,1.7-1.4,3.2-2.8,4.1c-1.3,0.9-2.8,1.7-4.3,2.2c-1.1,0.4-2.2,0.7-3.6,1.1
			c-1.8,0.6-3.7,0.9-5.6,1.1c-1.9,0.4-3.7,0.6-5.6,0.7c-1.2,0.2-2.5,0.3-3.7,0.2C439.7,225.3,439.5,225.5,439.1,225.5z"/>
		<path id="Path_9182" class="st4" d="M426,286.9v0.9c-0.2-2.6-0.4-5.2-0.6-7.9c-0.6-7.7-1.3-15.3-2.4-22.8c0.3,0,0.6,0,0.9-0.2
			c0.3-0.2,0.6-0.4,0.9-0.4c0.4,0,0.6,0.4,0.4,0.7c0,0.2,0.2,0.2,0.4,0c0-0.2,0.2-0.4,0-0.4l-0.7-9.7v-0.6c0-0.2,0.2-0.2,0.4-0.2
			s0.2,0.4,0,0.4c0.5-0.3,1-0.8,1.3-1.3c0.2-0.2,0.4-1.5,0.7-1.3c0.4,0.2,0.2,1.9,0.4,2.2c0,0.7,0.2,1.7,0.2,2.4
			c0.2,3.2,0.4,6.5,0.4,9.7c0.1,6.6-0.3,13.1-0.9,19.6c-0.2,1.7-0.4,3.2-0.6,4.9c-0.2,0.7-0.2,1.7-0.4,2.4
			C426.2,286,426,286.4,426,286.9z"/>
		<path id="Path_9183" class="st3" d="M427.5,221.9c-1.1,0-2.2,0.2-3.2,0.6c-1.7,0.8-2.9,2.3-3.2,4.1c-0.3,1.8-0.2,3.7,0.4,5.4
			c0,0.2,0.2,0.4,0.2,0.6c0,0.2-0.2,0.4-0.4,0.4c-0.2,0-0.2-0.2-0.4-0.2c-0.4-0.2-0.6,0-0.9,0c-0.2,0.2-0.6,0.4-0.7,0.6
			c-0.3,0.3-0.6,0.4-0.9,0.6c-0.2-0.2,0-0.6-0.2-0.7c-0.9-2.1-1.2-4.5-0.7-6.7c0.6-4.4,4.2-7.9,8.6-8.4c2.1,0,4.2,0.4,6.2,0.9
			c2.1,0.2,3.9,0.4,6,0.4c-0.2,0.9-0.6,1.8-1.3,2.4c-0.4,0.2-0.9,0.3-1.3,0.4c-1.6,0.2-3.2,0.2-4.9,0.2
			C429.6,222.1,428.6,222,427.5,221.9z"/>
		<path id="Path_9184" class="st6" d="M418.7,233.7c0.2-0.9,1.7-1.1,2.4-0.9c0.3,0,0.5,0.2,0.7,0.4c0,0.1,0.1,0.3,0.2,0.4
			c0.4,1.9,0.7,3.7,0.9,5.4v0.7c-0.2,0.2-0.2,0.4-0.4,0.6c-0.6,0.4-1.3,0.9-1.9,1.3c-0.2,0-0.4,0.2-0.6,0.2s0-0.2,0-0.4
			c-0.6-2.2-0.9-4.3-1.5-6.4c-0.2-0.3-0.2-0.6-0.2-0.9C418.3,233.9,418.5,233.7,418.7,233.7z"/>
		<path id="Path_9185" class="st6" d="M434.4,222.5c0.2,0,0.4-0.4,0.6-0.4c0.2-0.1,0.5-0.2,0.7-0.2c0.5,0,1-0.1,1.5-0.4
			c0.4-0.4,0.4-1.1,0.9-1.5c0.4-0.3,0.9-0.3,1.3-0.2l5.1,0.4c0.2,0,0.2,0,0.2,0.2c0.2,0.2-0.4,0.4-0.4,0.7c0,0.4,0.2,0.4,0.6,0.4
			c0.4,0,0.6,0.2,0.6,0.4c0,0.2-0.4,0.4-0.6,0.4L434.4,222.5z"/>
		<path id="Path_9186" class="st3" d="M422.8,257.1c1.5,9.9,2.4,19.8,3,29.8c0,0.3,0.1,0.6,0.4,0.7c0.2,0,0.4-0.4,0.2-0.4
			c0.2,0.4,0.1,0.8-0.2,1.1c-0.2,0-0.2,0.2-0.4,0.2c-0.9-18.8-3.6-37.5-7.9-55.8c-0.5-1.9-0.8-3.8-0.7-5.8c0.2-2,0.9-3.8,2.1-5.4
			c0.6-0.7,1.3-1.3,2.1-1.9c0.8-0.6,1.7-1.1,2.6-1.5c0.9-0.3,1.9-0.5,2.8-0.6c2.2,0.1,4.4,0.3,6.5,0.7c10.9,1.7,22,0.5,32.2-3.6
			c0.2-0.2,0.4-0.2,0.7,0c0.2,0.3,0.2,0.6,0.2,0.9c-0.7,3.6-4.5,5.6-8,6.9c-8.9,2.8-18.2,3.8-27.5,3c-0.9-0.1-1.8-0.1-2.6,0.2
			c-1.3,0.6-2.3,1.9-2.4,3.4c-0.2,1.4,0,2.9,0.4,4.3c3.4,17.6,3.5,35.7,0.4,53.3c2.6-17.1,2.4-34.5-0.6-51.5
			c-0.5-1.8-0.8-3.6-0.7-5.4c0.1-1.9,1.1-3.6,2.8-4.5c1.3-0.4,2.8-0.5,4.1-0.2c9.1,1,18.3-0.2,26.9-3.4c1.5-0.6,3-1.3,4.3-2.2
			c1.3-1,2.1-2.6,2.1-4.3c-10.7,4.1-22.4,5.3-33.7,3.4c-1.8-0.4-3.7-0.6-5.6-0.6c-4.2,0.4-7.7,3.5-8.6,7.7c-0.3,2.7-0.1,5.4,0.7,8
			C420.2,241.6,421.7,249.3,422.8,257.1z"/>
		<path id="Path_9187" class="st3" d="M436.1,163.4c0,3.2-1.9,6.2-4.9,7.5c-0.4,0.2-0.9,0.2-1.3,0c-0.4-0.4-0.6-0.9-0.6-1.5
			c-0.4-5-3.6-9.4-8.2-11.2c-4.6-1.9-9.6-2.2-14.4-0.9c-4.7,1.3-9.2,3.2-13.5,5.6c-0.3,0.2-0.6,0.2-0.9,0.2
			c-0.7-0.4,1.7-1.9,2.1-2.1l3.4-2.2c2.2-1.5,4.5-2.9,6.9-4.1c4.2-2.3,8.9-3.6,13.7-3.9c4.9-0.2,9.6,1.3,13.5,4.3
			C434.4,157,436,160.1,436.1,163.4L436.1,163.4z"/>
		<path id="Path_9188" class="st3" d="M415.7,151.2c0.4-0.6,1.5-0.6,2.1-0.6c4-0.2,8,0.7,11.6,2.6c3.5,2.1,5.9,5.7,6.4,9.7
			c0.2,1.5-0.2,3-0.9,4.3c-0.9,1.5-2.3,2.7-3.9,3.4c-0.2,0-0.2,0.2-0.4,0.2s-0.4-0.4-0.4-0.7c-0.3-2.8-1.1-5.5-2.4-8
			c-1.1-2.6-2.7-5-4.5-7.1c-1-1-2.1-1.8-3.4-2.4C418.5,152,417.1,151.5,415.7,151.2z"/>
		<path id="Path_9189" class="st4" d="M415.7,151.4c0.6,0,1.1,0,1.7,0.2c2.8,0.7,5.3,2.5,6.9,4.9c1.5,1.9,2.7,4.1,3.6,6.4
			c-1.5-1.7-3.2-3.1-5.1-4.3c-4.6-2.4-9.9-3-15-1.7c-5,1.3-9.8,3.2-14.2,5.8l0.4-0.6c0.2-0.2,0.6-0.4,0.9-0.7
			c0.6-0.4,1.1-0.9,1.7-1.3c1.2-0.9,2.4-1.7,3.7-2.4c2.5-1.6,5.1-2.9,7.9-4.1l0.4-0.2C410.8,152,413.2,151.3,415.7,151.4z"/>
		<path id="Path_9190" class="st4" d="M415,194.6c0.4,0,0.8,0.2,1.1,0.4c0.6,0.2,1.5,0.4,1.9,0.6c1.9,0.9,3.7,2,5.4,3.2
			c0.2,0.2,0.9,1.1,1.1,1.3c2.1,1.7,4.1,3.7,6.4,5.2c3.5,2.5,7.5,4,11.8,4.3c2.5,0.4,5.1,0.4,7.7,0c7.7-1.1,6-0.6,9-1.1
			c1-0.3,2.1-0.4,3.2-0.4c1.1,0,2.1,0.5,2.8,1.3c0.1,0.1,0.2,0.2,0.2,0.4c0,0.6-0.4,0.7-0.7,0.9c-7.8,3-16.1,4.4-24.5,4.1
			c-8.5,0.3-16.8-3-22.8-9l0.4-6.6c0.2-1.1,0-2.2-0.7-3c-0.4-0.2-0.7-0.6-1.1-0.6c-0.2-0.2-1.1-0.4-1.1-0.7
			C414.8,195,414.8,194.6,415,194.6z"/>
		<path id="Path_9191" class="st5" d="M414.8,193.9l2.1-2.6c-0.7,1.3-1.5,2.4-2.2,3.7c0,0.2,0.2,0.2,0.4,0.4
			c0.9,0.6,1.7,0.6,2.2,1.5c0.4,0.5,0.5,1.1,0.6,1.7c0,2.1-0.2,4.3-0.4,6.4c0,0.4,0,0.7-0.4,0.9c-3.4-3.5-6.9-6.8-10.7-9.9
			c-3.2-2.6-7-4.4-11-5.2c-0.7-0.2-1.4-0.3-2.1-0.4c-9.3-1.5-18.8,0.9-26.4,6.5c3.4-3.9,7.7-7,12.5-8.8c6-1.9,15.3-3.9,15.2-1.9
			c0,0.4,1.9-0.9,2.1-0.9c0.6,0,4.7,0.2,5.2,0.2c2.2,0.2-0.4,0.9,1.9,1.5c2.1,0.6,5.8,1.7,7.7,2.2c0.9,0.4,1.5,0.2,2.4,0.6
			c0.7,0.3,1.3,0.7,1.9,1.1C416.3,191.4,414.6,193.9,414.8,193.9z"/>
		<path id="Path_9192" class="st3" d="M345.2,219.5c-0.2-0.2-0.4,0-0.6-0.2c-2.8-1.7,2.8-12.2,6-16.7c1.7-2.4,3.7-4.7,5.8-6.7
			c2.1-2.1,4.1-4.1,6.4-6c2.2-1.7,4.5-3.4,6.9-4.9c2.4-1.5,4.9-2.9,7.5-4.1c2.5-1.3,5.2-2.4,7.9-3.4c2.6-1.1,5.4-1.7,8-2.6
			c2.8-0.7,5.4-1.5,8.2-2.1c2.8-0.6,5.6-0.9,8.4-1.3c2.8-0.4,5.6-0.4,8.4-0.6h0.6c-3,9.5-1.3,19.9,4.7,27.9
			c-9.4-6.1-20.1-9.7-31.3-10.7c-11.3-0.9-22.3,3.9-29.2,12.9c-2.4,3.4-3.2,7.7-2.2,11.8c-4.3,1.9-8.8,4.1-13.3,6
			C346.9,219.1,345.5,219.7,345.2,219.5L345.2,219.5z"/>
		<path id="Path_9193" class="st6" d="M344.6,219.5L344.6,219.5c0.2-0.3,0.6-0.3,0.9-0.1c0,0,0,0,0.1,0.1c0.7,0,1.4-0.2,2.1-0.4
			c3.6-1.5,7.3-3.2,11-4.7l1.1-0.6c0.4-0.4,1.5-1.1,1.1-1.5c1,3.2,3.2,5.8,6.2,7.3c2.8,1.3,5.7,2.3,8.6,3.2
			c9.4,3.2,17.7,9.1,23.8,17c-2.1-1.9-3.9-3.9-6-5.8l-12.5,5.4c-0.4,0.2-0.9,0.9-1.3,0.9s-0.6-0.2-0.9-0.4c-2.3-1.1-4.7-2.1-7.1-2.8
			c-3.7-1.1-7.3-2.1-11-3c-3.7-0.9-7.2-2.6-10.3-4.9c-1-0.9-1.8-1.9-2.6-3c-0.7-1.1-1.3-2.3-1.7-3.6c-0.2-0.6-0.6-0.7-0.6-1.5
			c-0.2-0.4-0.2-0.7-0.2-1.1C344.6,220.1,344.6,219.9,344.6,219.5z"/>
		<path id="Path_9194" class="st5" d="M409.2,257.7c-2-2.8-4.5-5.3-7.3-7.3c-0.2-0.2-0.6-0.4-0.7-0.2c-0.2,0.2-0.2,0.2-0.2,0.4v9.9
			c-0.2,0.2-1.1,0.6-1.3,0.4c-1.9-3.9-4.3-7.5-7.3-10.7c0.4-0.2,0-0.9,0.4-1.1c0.2,0-0.2-0.7-0.2-0.9c0-0.9-0.4,0-0.4-0.9
			c0-0.6,0.6-0.9,0.2-1.5s-0.7,0-1.3-0.2c-2.8-1.5-4.9-1.7-7.7-3.2c-0.9-0.4-1.5-0.9-2.1-1.1c-0.2-0.2-1.7-0.7-1.7-0.9
			c0.5-0.5,1.2-0.9,1.9-1.1l3.7-1.5l7.3-3.2c0.4-0.2,0.7-0.7,1.1-0.6c0.4,0,0.7,0.6,0.9,0.7l2.8,2.8l2.8,3.4l2.8,3.9
			C405.7,248.8,407.7,253.1,409.2,257.7z"/>
		<path id="Path_9195" class="st6" d="M382.4,242c0-0.2,0.2-0.2,0.4-0.2c0.5,0,0.9,0.2,1.3,0.4c0.9,0.2,1.8,0.4,2.6,0.7
			c1.7,0.5,3.4,1.2,5.1,2.1c0.5,0.2,1,0.5,1.3,0.9c0.2,0.5,0.3,1.1,0.4,1.7v2.8c0,0.2,0,0.4-0.2,0.4c-0.2,0-0.2,0-0.2-0.2
			c-3.1-3.2-6.6-6-10.3-8.4C382.6,242.1,382.5,242.1,382.4,242z"/>
		<path id="Path_9196" class="st4" d="M409.2,257.7L409.2,257.7c0.5,1.1,0.8,2.2,0.9,3.4c3.5,15.9-0.4,32.6-10.7,45.3
			c-0.2-0.7-0.6-1.4-1.1-1.9c3.8-6.5,6-13.8,6.4-21.3c0.3-7.5-1.3-15-4.7-21.7c0.4,0,0.9-0.9,0.9-1.1V253c0-0.6-0.4-2.2,0-2.6
			c0.9-1.1,5.8,4.5,6.6,5.2C408.1,256.3,408.7,257,409.2,257.7z"/>
		<path id="Path_9197" class="st5" d="M398.3,304.7c0.2,0,0.2-0.2,0.4,0c0.2,0.2,0.7,0.7,0.7,0.9v0.7c0,0.2-0.2,0.4-0.4,0.4
			c-2.9,3.4-6.2,6.5-9.7,9.2c-0.1,0.1-0.2,0.2-0.4,0.2c-0.1,0-0.2-0.1-0.2-0.2c0-0.1,0.1-0.2,0.2-0.2c0,0,0,0,0,0
			c2-1.9,3.9-3.9,5.6-6c0.7-0.9,1.3-1.7,2.1-2.6c0.4-0.4,0.6-1.1,0.9-1.5C397.7,305.2,397.9,304.8,398.3,304.7z"/>
		<path id="Path_9198" class="st3" d="M464.2,208.1c-1.1-0.4-2.3-0.4-3.4,0c-5,1.2-10.2,1.8-15.3,1.9c-9.2-0.4-17.8-5.1-23-12.7
			c-5.1-7.7-6.3-17.3-3.4-26c-3.4,0-6.7,0.2-10.1,0.6c-5.7,0.6-11.2,1.7-16.7,3.4c-5.4,1.6-10.7,3.8-15.7,6.4c-5,2.6-9.9,5.6-14.4,9
			c-4.3,3.2-8.1,6.9-11.2,11.2c-1.5,2.2-2.9,4.5-4.1,6.9c-1.1,2.4-1.9,4.9-2.8,7.3c5.8-14.4,16.7-26.2,30.5-33.3
			c13.8-6.9,28.9-10.7,44.4-11.2c-3.1,9.3-1.5,19.5,4.3,27.3c6,7.7,15.3,12,25.1,11.6c5.7-1.4,11.7-1.4,17.4,0.2
			C465.7,209.5,465.1,208.5,464.2,208.1z"/>
		<path id="Path_9199" class="st3" d="M425.3,211.3c-8.2-4.5-13.8-12.5-21.9-17.4c-11.5-6.5-25.9-5.3-36.1,3.2
			c-5.5,3.9-7.8,10.9-5.6,17.2c2.6,5.4,9.4,7.1,15,9c18.2,7,31.3,23.2,34.2,42.5c2.5,19.4-5.9,38.7-21.7,50.2
			c19.1-16.6,21.2-45.6,4.6-64.7c-5.3-6.1-12.1-10.7-19.8-13.3c-5.8-2.1-12-2.8-17.6-5.2c-5.9-2.1-10.3-7-11.8-13.1
			c0.8,5.8,4.6,10.8,10.1,12.9c5.5,1.9,11,3.5,16.7,4.9c16.5,5.3,28.8,19.1,32.2,36.1c3,17-3.7,34.3-17.4,44.9
			c17.6-11,27.3-31,25.1-51.6c-2.9-20.5-17-37.6-36.5-44.4c-4.6-0.8-8.8-3-12-6.4c-1.9-3-2.3-6.7-1.1-10.1c1.2-3.3,3.4-6.1,6.2-8.2
			c11-8.8,26.5-9.4,38.2-1.5c5.6,3.9,9.7,9.7,15.3,13.5c12,8.2,28.1,6.4,42.1,2.6c0.8-0.2,1.5-0.6,2.1-1.1c0-0.2,0-0.2,0.2-0.4
			C452.4,214.8,437.4,217.8,425.3,211.3z"/>
	</g>
</g>
</svg>
