<?xml version="1.0" encoding="iso-8859-1"?>
<!-- Generator: Adobe Illustrator 26.0.1, SVG Export Plug-In . SVG Version: 6.00 Build 0)  -->
<svg version="1.1" id="GeorgeSamuel.me" xmlns="http://www.w3.org/2000/svg" xmlns:xlink="http://www.w3.org/1999/xlink" x="0px"
	 y="0px" viewBox="0 0 512 512" style="enable-background:new 0 0 512 512;" xml:space="preserve">
<g id="www.GeorgeSamuel.me_00000175305268697780759260000004404420609229886877_">
	<rect style="fill:#FFFFFF;" width="512" height="512"/>
	<circle style="fill:#FFFFFF;" cx="256" cy="256" r="256"/>
	<g id="www.GeorgeSamuel.me">
		<path d="M358.181,269.753c0.058-0.3,0.131-0.599,0.171-0.902c0.592-4.415,1.186-8.831,1.765-13.248
			c0.504-3.841,0.983-7.686,1.49-11.527c0.35-2.652,0.74-5.3,1.091-7.952c0.218-1.651,0.396-3.308,0.595-4.962
			c0.025-0.204,0.074-0.406,0.095-0.611c0.04-0.394,0.262-0.545,0.644-0.539c0.769,0.012,1.539,0.01,2.308,0.009
			c4.953-0.003,9.907-0.007,14.86-0.011c0.775-0.001,0.816,0.085,0.907,0.857c0.21,1.782,0.471,3.558,0.703,5.337
			c0.332,2.542,0.655,5.085,0.987,7.627c0.225,1.725,0.459,3.449,0.689,5.173c0.255,1.909,0.508,3.819,0.765,5.728
			c0.326,2.43,0.66,4.859,0.982,7.29c0.392,2.967,0.77,5.935,1.161,8.902c0.319,2.411,0.654,4.821,0.972,7.232
			c0.188,1.426,0.35,2.856,0.539,4.281c0.049,0.368-0.111,0.466-0.436,0.465c-3.284-0.004-6.567-0.009-9.851,0.001
			c-0.421,0.001-0.552-0.204-0.6-0.571c-0.327-2.544-0.659-5.088-0.995-7.631c-0.316-2.392-0.648-4.783-0.96-7.175
			c-0.474-3.638-0.928-7.278-1.409-10.915c-0.375-2.838-0.787-5.672-1.166-8.509c-0.196-1.464-0.355-2.932-0.534-4.398
			c-0.031-0.251-0.075-0.501-0.114-0.751c-0.047-0.002-0.094-0.003-0.142-0.005c-0.092,0.615-0.19,1.229-0.274,1.845
			c-0.432,3.153-0.869,6.306-1.289,9.46c-0.516,3.877-1.014,7.755-1.528,11.632c-0.346,2.616-0.716,5.229-1.055,7.846
			c-0.372,2.876-0.732,5.754-1.069,8.635c-0.056,0.478-0.314,0.528-0.684,0.527c-2.214-0.003-4.428-0.001-6.642-0.002
			c-3.527,0-7.055,0-10.583-0.001c-0.761,0-0.744-0.003-0.843-0.768c-0.409-3.154-0.835-6.306-1.246-9.46
			c-0.481-3.693-0.946-7.388-1.431-11.08c-0.373-2.839-0.767-5.676-1.15-8.514c-0.44-3.264-0.877-6.528-1.318-9.792
			c-0.019-0.138-0.057-0.273-0.106-0.498c-0.07,0.133-0.106,0.173-0.112,0.217c-0.342,2.596-0.68,5.193-1.022,7.79
			c-0.425,3.229-0.854,6.458-1.281,9.687c-0.436,3.302-0.868,6.604-1.307,9.905c-0.35,2.635-0.712,5.269-1.062,7.905
			c-0.18,1.353-0.361,2.707-0.507,4.064c-0.044,0.407-0.199,0.551-0.598,0.55c-3.246-0.006-6.492-0.008-9.738,0.011
			c-0.564,0.003-0.618-0.296-0.558-0.72c0.278-1.964,0.574-3.925,0.835-5.892c0.357-2.69,0.678-5.385,1.033-8.075
			c0.353-2.671,0.738-5.338,1.092-8.009c0.354-2.672,0.683-5.347,1.033-8.02c0.345-2.635,0.704-5.268,1.051-7.903
			c0.372-2.821,0.737-5.642,1.104-8.464c0.232-1.781,0.475-3.561,0.689-5.345c0.054-0.451,0.318-0.469,0.665-0.468
			c3.434,0.007,6.867,0.007,10.301,0.006c2.27-0.001,4.541-0.009,6.811-0.015c0.754-0.002,0.827,0.081,0.921,0.801
			c0.317,2.431,0.656,4.86,0.977,7.291c0.352,2.669,0.686,5.341,1.038,8.011c0.358,2.709,0.732,5.416,1.092,8.125
			c0.236,1.779,0.45,3.561,0.691,5.339c0.357,2.633,0.732,5.263,1.091,7.896c0.078,0.575,0.117,1.155,0.185,1.732
			c0.022,0.187,0.078,0.369,0.118,0.554C358.077,269.754,358.129,269.754,358.181,269.753z"/>
		<path d="M96.047,269.947c0.034-0.382,0.05-0.766,0.104-1.144c0.273-1.927,0.574-3.85,0.831-5.779
			c0.36-2.709,0.678-5.423,1.035-8.132c0.352-2.671,0.742-5.338,1.095-8.009c0.36-2.728,0.684-5.461,1.042-8.189
			c0.363-2.764,0.742-5.526,1.144-8.284c0.022-0.15,0.306-0.357,0.482-0.372c0.559-0.047,1.124-0.014,1.687-0.015
			c5.197-0.005,10.395-0.003,15.592-0.025c0.557-0.002,0.801,0.159,0.87,0.737c0.378,3.139,0.781,6.275,1.194,9.41
			c0.377,2.856,0.788,5.708,1.168,8.564c0.516,3.875,1.01,7.753,1.524,11.628c0.424,3.19,0.863,6.378,1.366,9.602
			c0.061-0.208,0.15-0.413,0.179-0.625c0.613-4.564,1.216-9.13,1.826-13.694c0.588-4.397,1.189-8.791,1.77-13.189
			c0.395-2.987,0.765-5.978,1.144-8.967c0.113-0.892,0.23-1.783,0.323-2.677c0.065-0.634,0.186-0.767,0.842-0.768
			c2.571-0.001,5.141,0.003,7.712,0.004c0.638,0,1.276,0.005,1.914-0.011c0.471-0.012,0.577,0.227,0.52,0.641
			c-0.66,4.838-1.316,9.676-1.971,14.515c-0.547,4.043-1.101,8.085-1.635,12.13c-0.657,4.973-1.297,9.949-1.942,14.924
			c-0.438,3.377-0.879,6.754-1.306,10.132c-0.051,0.406-0.253,0.546-0.631,0.543c-0.882-0.006-1.764-0.001-2.646-0.001
			c-4.879,0-9.757,0.001-14.636,0c-0.734,0-0.765-0.071-0.846-0.786c-0.208-1.84-0.447-3.678-0.686-5.514
			c-0.362-2.783-0.731-5.566-1.103-8.348c-0.511-3.82-1.039-7.639-1.54-11.461c-0.477-3.637-0.923-7.278-1.397-10.916
			c-0.132-1.011-0.313-2.016-0.498-3.19c-0.083,0.259-0.131,0.357-0.144,0.458c-0.411,3.06-0.826,6.119-1.226,9.181
			c-0.506,3.879-0.99,7.761-1.502,11.639c-0.615,4.657-1.251,9.311-1.873,13.967c-0.198,1.484-0.392,2.969-0.557,4.458
			c-0.042,0.383-0.184,0.518-0.559,0.518c-5.836-0.006-11.671-0.007-17.507-0.001c-0.427,0-0.602-0.201-0.651-0.599
			c-0.493-3.956-0.981-7.913-1.494-11.866c-0.371-2.857-0.787-5.709-1.165-8.565c-0.482-3.636-0.943-7.274-1.42-10.911
			c-0.377-2.877-0.765-5.752-1.148-8.628c-0.477-3.58-0.954-7.159-1.435-10.738c-0.047-0.352-0.116-0.702-0.186-1.051
			c-0.068-0.338,0.071-0.504,0.404-0.515c0.3-0.01,0.6-0.007,0.9-0.007c2.871-0.004,5.741-0.006,8.612-0.012
			c0.962-0.002,1.008,0.1,1.097,1.045c0.143,1.525,0.361,3.044,0.561,4.563c0.324,2.468,0.662,4.934,0.989,7.402
			c0.572,4.321,1.135,8.643,1.711,12.963c0.319,2.392,0.66,4.782,0.985,7.173c0.285,2.095,0.56,4.191,0.843,6.286
			c0.023,0.173,0.076,0.343,0.115,0.514C95.966,269.951,96.006,269.949,96.047,269.947z"/>
		<path d="M57.333,282.897c-4.447,0-8.895-0.011-13.342,0.007c-1.236,0.005-2.137-0.497-2.678-1.592
			c-0.16-0.324-0.27-0.711-0.272-1.07c-0.021-4.236-0.011-8.473-0.028-12.709c-0.002-0.479,0.201-0.633,0.636-0.632
			c3.227,0.009,6.455,0.021,9.682,0.013c0.533-0.001,0.621,0.281,0.614,0.713c-0.021,1.33-0.017,2.661-0.055,3.99
			c-0.013,0.456,0.166,0.587,0.592,0.586c3.227-0.012,6.455-0.017,9.682-0.005c0.471,0.002,0.676-0.136,0.674-0.636
			c-0.013-3.036-0.012-6.073,0.001-9.109c0.003-0.64-0.415-0.592-0.835-0.592c-4.841,0.002-9.683,0.003-14.524,0.004
			c-1.126,0-2.252,0.012-3.378-0.005c-1.231-0.019-2.246-0.454-2.786-1.635c-0.158-0.347-0.276-0.748-0.277-1.125
			c-0.015-8.791-0.013-17.583-0.01-26.374c0.001-1.404,1.299-2.697,2.714-2.698c8.932-0.005,17.864-0.007,26.796-0.004
			c1.889,0.001,3.05,1.167,3.051,3.052c0.001,3.618-0.008,7.236-0.01,10.853c0,0.45,0.015,0.899,0.025,1.349
			c0.013,0.614-0.086,0.725-0.708,0.726c-1.801,0.001-3.603-0.008-5.404-0.008c-1.295,0-2.59,0.004-3.884,0.014
			c-0.695,0.005-0.827-0.109-0.822-0.802c0.008-1.237,0.007-2.475,0.048-3.711c0.018-0.533-0.164-0.718-0.704-0.715
			c-3.208,0.015-6.417,0.004-9.625-0.005c-0.402-0.001-0.606,0.095-0.604,0.569c0.012,2.98-0.009,5.961-0.011,8.941
			c-0.001,0.822,0.031,0.844,0.858,0.844c4.597,0,9.195,0.041,13.792-0.015c3.215-0.04,5.614,1.75,6.573,4.339
			c0.299,0.807,0.447,1.716,0.451,2.58c0.036,7.273,0.023,14.546,0.021,21.819c0,1.258-0.451,2.276-1.657,2.82
			c-0.296,0.134-0.646,0.207-0.972,0.208c-4.541,0.013-9.082,0.009-13.623,0.009C57.333,282.891,57.333,282.894,57.333,282.897z"/>
		<path d="M315.961,256.532c0.708,0.39,1.563,0.738,2.272,1.276c1.611,1.225,2.532,2.805,2.516,4.938
			c-0.047,6.485-0.018,12.97,0.001,19.455c0.002,0.54-0.157,0.711-0.703,0.707c-3.115-0.024-6.229-0.015-9.344-0.016
			c-0.75,0-0.775-0.034-0.774-0.806c0.005-5.473-0.028-10.946,0.028-16.419c0.018-1.71-1.4-3.46-3.108-3.745
			c-0.074-0.012-0.147-0.041-0.221-0.041c-2.383-0.002-4.766,0-7.148-0.004c-0.382-0.001-0.471,0.221-0.469,0.546
			c0.006,0.862,0.003,1.724,0.004,2.587c0.006,5.773,0.008,11.546,0.025,17.319c0.001,0.408-0.106,0.575-0.532,0.573
			c-3.227-0.011-6.455-0.011-9.682-0.002c-0.444,0.001-0.586-0.188-0.585-0.611c0.014-16.813,0.023-33.625,0.029-50.438
			c0-0.412-0.015-0.825-0.046-1.236c-0.031-0.411,0.151-0.594,0.551-0.592c0.225,0.001,0.45-0.003,0.675-0.003
			c8.125,0,16.249-0.003,24.374,0.003c3.185,0.002,5.628,1.73,6.633,4.737c0.197,0.591,0.262,1.25,0.265,1.877
			c0.02,4.592-0.021,9.185,0.019,13.776c0.018,2.065-0.932,3.596-2.463,4.801C317.556,255.781,316.668,256.138,315.961,256.532z
			 M304.55,240.792c0-0.002,0-0.005,0-0.007c-1.613,0-3.227,0.003-4.84-0.002c-0.416-0.001-0.71,0.047-0.707,0.602
			c0.02,2.999,0.016,5.998-0.003,8.997c-0.004,0.561,0.207,0.763,0.758,0.754c1.369-0.021,2.739,0.002,4.109-0.008
			c0.9-0.007,1.802-0.003,2.698-0.071c1.841-0.138,3.469-2.009,3.395-3.776c-0.083-1.983-0.03-3.973-0.016-5.96
			c0.003-0.418-0.13-0.546-0.554-0.54C307.777,240.807,306.163,240.792,304.55,240.792z"/>
		<path d="M265.931,243.212c-0.118,0.882-0.233,1.765-0.353,2.647c-0.558,4.079-1.128,8.157-1.675,12.238
			c-0.468,3.488-0.906,6.979-1.365,10.468c-0.505,3.84-1.021,7.678-1.529,11.518c-0.098,0.743-0.194,1.486-0.26,2.232
			c-0.038,0.426-0.239,0.585-0.652,0.584c-3.264-0.005-6.529-0.007-9.794,0.005c-0.511,0.002-0.534-0.271-0.478-0.657
			c0.223-1.537,0.446-3.074,0.653-4.614c0.374-2.783,0.735-5.567,1.104-8.35c0.362-2.727,0.734-5.452,1.094-8.179
			c0.506-3.84,0.999-7.682,1.508-11.522c0.475-3.581,0.976-7.159,1.446-10.741c0.348-2.653,0.671-5.31,0.994-7.966
			c0.097-0.794,0.147-0.859,0.92-0.859c3.715,0.002,7.43,0.006,11.144,0.006c1.914,0,3.827-0.011,5.741-0.011
			c0.882,0,0.869,0.032,0.973,0.899c0.233,1.949,0.504,3.893,0.76,5.84c0.369,2.801,0.736,5.603,1.106,8.404
			c0.341,2.576,0.687,5.151,1.027,7.727c0.411,3.117,0.816,6.236,1.227,9.353c0.411,3.114,0.825,6.227,1.241,9.34
			c0.328,2.449,0.66,4.896,0.993,7.344c0.146,1.073,0.299,2.146,0.449,3.219c0.094,0.675,0.016,0.762-0.642,0.762
			c-3.114-0.003-6.229-0.003-9.343-0.003c-0.857,0-0.849-0.004-0.961-0.859c-0.462-3.545-0.935-7.089-1.397-10.634
			c-0.618-4.75-1.222-9.503-1.847-14.252c-0.374-2.838-0.784-5.671-1.166-8.508c-0.222-1.651-0.42-3.306-0.63-4.959
			c-0.02-0.16-0.056-0.318-0.085-0.477C266.069,243.209,266,243.211,265.931,243.212z"/>
		<path d="M179.953,242.907c-0.209,1.46-0.429,2.918-0.624,4.379c-0.575,4.304-1.139,8.609-1.708,12.913
			c-0.557,4.212-1.121,8.422-1.673,12.635c-0.418,3.191-0.829,6.382-1.224,9.576c-0.051,0.413-0.272,0.484-0.605,0.484
			c-0.807-0.001-1.614,0-2.42,0.001c-2.345,0-4.691,0.001-7.036,0c-0.953,0-0.936-0.012-0.805-0.947
			c0.359-2.558,0.692-5.12,1.032-7.68c0.392-2.949,0.779-5.899,1.169-8.848c0.358-2.709,0.714-5.419,1.073-8.128
			c0.521-3.933,1.047-7.865,1.565-11.798c0.648-4.917,1.296-9.833,1.923-14.753c0.073-0.574,0.31-0.738,0.872-0.736
			c5.591,0.017,11.182,0.01,16.773,0.007c1.008-0.001,0.969-0.001,1.088,1c0.202,1.689,0.47,3.37,0.692,5.057
			c0.376,2.858,0.728,5.718,1.106,8.575c0.326,2.465,0.683,4.925,1.011,7.39c0.417,3.135,0.817,6.272,1.229,9.408
			c0.56,4.266,1.123,8.532,1.687,12.798c0.361,2.724,0.719,5.449,1.096,8.171c0.073,0.526-0.249,0.489-0.579,0.489
			c-2.552-0.001-5.103-0.004-7.655-0.004c-0.675,0-1.352-0.013-2.026,0.015c-0.439,0.018-0.594-0.189-0.646-0.586
			c-0.546-4.213-1.096-8.426-1.652-12.638c-0.561-4.248-1.132-8.495-1.694-12.744c-0.459-3.469-0.913-6.938-1.364-10.407
			c-0.133-1.02-0.249-2.042-0.377-3.062c-0.025-0.198-0.071-0.393-0.107-0.589C180.036,242.891,179.995,242.899,179.953,242.907z"/>
		<path d="M403.807,246.541c0.253-0.792,0.518-1.58,0.756-2.376c0.915-3.062,1.822-6.125,2.729-9.189
			c0.424-1.434,0.851-2.868,1.254-4.308c0.131-0.467,0.356-0.664,0.871-0.661c3.264,0.02,6.529,0.007,9.793,0.006
			c0.772,0,0.812,0.092,0.592,0.806c-0.793,2.571-1.565,5.149-2.337,7.727c-0.611,2.04-1.21,4.084-1.813,6.127
			c-0.683,2.311-1.359,4.624-2.048,6.932c-0.941,3.152-1.895,6.299-2.838,9.45c-0.53,1.772-1.053,3.547-1.566,5.324
			c-0.071,0.247-0.093,0.517-0.093,0.776c0.004,5.06,0.01,10.12,0.031,15.179c0.002,0.416-0.137,0.577-0.546,0.577
			c-3.223,0-6.447,0.006-9.67,0.018c-0.495,0.002-0.627-0.229-0.624-0.698c0.022-5.059,0.077-10.12-0.002-15.178
			c-0.017-1.106-0.492-2.214-0.815-3.303c-1.866-6.31-3.746-12.615-5.629-18.92c-1.402-4.693-2.815-9.383-4.224-14.075
			c-0.183-0.609-0.094-0.74,0.542-0.741c3.283-0.007,6.566-0.001,9.849-0.022c0.507-0.003,0.747,0.207,0.881,0.667
			c0.621,2.134,1.25,4.267,1.89,6.396c0.838,2.791,1.69,5.577,2.531,8.367c0.111,0.367,0.191,0.743,0.286,1.115
			C403.673,246.539,403.74,246.54,403.807,246.541z"/>
		<path d="M223.822,261.851c0,6.822-0.006,13.643,0.013,20.465c0.001,0.503-0.174,0.595-0.616,0.593
			c-3.171-0.015-6.342-0.019-9.513-0.002c-0.491,0.003-0.658-0.155-0.657-0.643c0.017-13.271,0.025-26.541,0.028-39.812
			c0-0.52,0.133-1.218-0.141-1.509c-0.256-0.272-0.972-0.138-1.485-0.14c-2.721-0.009-5.441-0.005-8.162-0.002
			c-1.111,0.001-1.113-0.029-1.108-1.126c0.015-2.905,0.003-5.811-0.004-8.716c-0.002-0.925,0.012-0.942,0.94-0.942
			c10.189-0.002,20.377-0.005,30.566-0.01c0.992,0,0.968,0.016,0.961,1.008c-0.021,2.98-0.014,5.96,0.005,8.94
			c0.005,0.754-0.023,0.836-0.801,0.836c-3.096,0.002-6.192,0.004-9.287-0.013c-0.491-0.003-0.754,0.079-0.753,0.667
			c0.016,6.803,0.01,13.605,0.01,20.408C223.82,261.851,223.821,261.851,223.822,261.851z"/>
		<path style="fill:#F6D90C;" d="M442.675,256.518c-0.192,0.607-0.403,1.281-0.618,1.954c-0.085,0.266-0.188,0.526-0.266,0.794
			c-0.486,1.665-0.965,3.331-1.452,4.996c-0.283,0.968-0.581,1.931-0.866,2.898c-0.385,1.308-0.757,2.62-1.149,3.926
			c-0.471,1.571-0.958,3.137-1.439,4.705c-0.011,0.036-0.031,0.069-0.041,0.104c-0.383,1.444-0.746,2.894-1.157,4.33
			c-0.225,0.789-0.513,1.561-0.815,2.324c-0.053,0.135-0.317,0.265-0.482,0.263c-0.689-0.01-1.377-0.102-2.066-0.109
			c-1.782-0.016-3.565-0.007-5.347,0.004c-0.297,0.002-0.6,0.031-0.888,0.101c-0.416,0.101-0.608-0.083-0.55-0.452
			c0.082-0.512,0.236-1.014,0.379-1.515c0.447-1.561,0.898-3.121,1.358-4.678c0.127-0.43,0.29-0.849,0.439-1.271
			c0.05-0.141,0.124-0.274,0.164-0.418c0.375-1.348,0.724-2.704,1.122-4.046c0.44-1.485,0.943-2.952,1.383-4.438
			c0.403-1.36,0.757-2.735,1.139-4.101c0.106-0.378,0.241-0.747,0.352-1.124c0.268-0.911,0.525-1.826,0.796-2.736
			c0.137-0.461,0.382-0.911,0.416-1.377c0.032-0.445-0.125-0.911-0.241-1.358c-0.083-0.321-0.258-0.618-0.353-0.937
			c-0.585-1.968-1.16-3.939-1.738-5.91c-0.541-1.846-1.088-3.691-1.62-5.54c-0.398-1.383-0.749-2.781-1.171-4.157
			c-0.433-1.409-0.928-2.799-1.396-4.198c-0.03-0.089-0.06-0.177-0.086-0.267c-0.268-0.95-0.537-1.899-0.802-2.85
			c-0.055-0.198-0.123-0.396-0.141-0.598c-0.06-0.672,0.083-0.791,0.745-0.682c0.239,0.039,0.485,0.057,0.727,0.057
			c2.214,0.005,4.428,0.004,6.641,0.002c0.149,0,0.325,0.03,0.444-0.035c0.588-0.322,0.764,0.049,0.9,0.503
			c0.594,1.982,1.192,3.963,1.778,5.948c0.593,2.008,1.159,4.024,1.764,6.028c0.708,2.343,1.458,4.673,2.168,7.016
			c0.385,1.27,0.715,2.557,1.086,3.832c0.162,0.556,0.377,1.097,0.544,1.652C442.461,255.572,442.546,255.993,442.675,256.518z"/>
		<path style="fill:#F6D90C;" d="M444.181,282.716c-1.276,0-2.552,0.002-3.828-0.001c-0.599-0.001-0.81-0.219-0.664-0.733
			c0.486-1.706,0.988-3.408,1.487-5.11c0.579-1.973,1.166-3.943,1.741-5.917c0.507-1.738,1.003-3.479,1.501-5.219
			c0.334-1.166,0.651-2.337,0.999-3.499c0.498-1.659,1.046-3.303,1.519-4.969c0.359-1.265-0.159-2.432-0.546-3.602
			c-0.053-0.159-0.146-0.306-0.191-0.467c-0.717-2.516-1.419-5.037-2.149-7.55c-0.359-1.237-0.781-2.456-1.151-3.69
			c-0.398-1.324-0.758-2.659-1.154-3.984c-0.509-1.701-1.042-3.395-1.553-5.095c-0.199-0.663-0.379-1.332-0.539-2.005
			c-0.106-0.442,0.14-0.693,0.7-0.696c1.031-0.005,2.062,0.03,3.093,0.033c1.576,0.005,3.152-0.007,4.728-0.004
			c0.719,0.001,0.895,0.169,1.098,0.87c0.546,1.886,1.116,3.765,1.661,5.652c0.41,1.42,0.781,2.851,1.195,4.27
			c0.388,1.328,0.818,2.643,1.215,3.968c0.409,1.362,0.789,2.733,1.204,4.093c0.463,1.519,0.964,3.026,1.424,4.546
			c0.183,0.607,0.206,1.277,0.465,1.845c0.544,1.197-0.144,2.221-0.373,3.293c-0.26,1.221-0.684,2.408-1.052,3.605
			c-0.681,2.215-1.389,4.422-2.053,6.642c-0.391,1.307-0.69,2.641-1.081,3.948c-0.454,1.518-0.976,3.015-1.442,4.53
			c-0.153,0.499-0.202,1.028-0.335,1.534c-0.265,1.01-0.558,2.014-0.833,3.021c-0.125,0.459-0.556,0.72-1.259,0.723
			c-1.275,0.005-2.551,0.001-3.826,0.001C444.181,282.737,444.181,282.726,444.181,282.716z"/>
		<path style="fill:#F6D90C;" d="M461.697,282.701c-2.287,0-4.575,0-6.862,0.001c-0.131,0-0.264-0.004-0.393,0.014
			c-0.698,0.098-0.854-0.058-0.753-0.764c0.008-0.056,0.013-0.113,0.03-0.166c0.48-1.513,0.971-3.022,1.439-4.538
			c0.358-1.16,0.679-2.331,1.03-3.493c0.512-1.694,1.045-3.381,1.548-5.078c0.132-0.446,0.151-0.927,0.288-1.372
			c0.421-1.371,0.879-2.73,1.31-4.098c0.134-0.427,0.221-0.869,0.34-1.301c0.336-1.223,0.666-2.448,1.023-3.666
			c0.14-0.478,0.435-0.926,0.497-1.408c0.056-0.44-0.075-0.917-0.184-1.362c-0.119-0.485-0.32-0.949-0.466-1.428
			c-0.501-1.644-0.998-3.289-1.484-4.937c-0.132-0.448-0.203-0.914-0.339-1.361c-0.429-1.412-0.88-2.817-1.311-4.228
			c-0.131-0.427-0.219-0.868-0.338-1.299c-0.124-0.449-0.254-0.897-0.396-1.341c-0.091-0.284-0.23-0.553-0.309-0.839
			c-0.392-1.423-0.744-2.857-1.163-4.271c-0.434-1.466-0.931-2.913-1.393-4.37c-0.062-0.194-0.112-0.399-0.124-0.601
			c-0.042-0.707,0.099-0.801,0.803-0.674c0.403,0.073,0.82,0.098,1.23,0.096c2.269-0.007,4.537-0.025,6.805-0.05
			c0.458-0.005,0.551,0.32,0.648,0.645c0.333,1.11,0.662,2.221,0.986,3.333c0.507,1.737,0.996,3.479,1.516,5.212
			c0.414,1.378,0.88,2.741,1.293,4.12c0.434,1.45,0.822,2.914,1.25,4.365c0.412,1.396,0.847,2.786,1.279,4.177
			c0.389,1.25,0.807,2.49,1.174,3.746c0.208,0.71,0.086,1.406-0.269,2.062c-0.124,0.229-0.232,0.475-0.302,0.725
			c-0.382,1.365-0.737,2.737-1.126,4.099c-0.411,1.438-0.852,2.867-1.278,4.3c-0.421,1.414-0.835,2.83-1.261,4.243
			c-0.457,1.518-0.937,3.03-1.384,4.551c-0.401,1.361-0.757,2.736-1.16,4.097c-0.248,0.838-0.451,1.713-0.863,2.469
			c-0.183,0.336-0.831,0.419-1.269,0.617C461.739,282.852,461.718,282.777,461.697,282.701z"/>
		<path d="M152.429,243.383c-3.708,0-6.691-2.977-6.682-6.669c0.009-3.657,3.013-6.69,6.623-6.688
			c3.674,0.002,6.7,2.926,6.787,6.403C159.263,240.641,155.806,243.514,152.429,243.383z"/>
		<path d="M152.36,269.557c3.509-0.106,6.623,2.784,6.79,6.214c0.199,4.09-2.904,6.89-6.153,7.118
			c-4.161,0.293-7.105-2.922-7.249-6.366C145.592,272.807,148.595,269.542,152.36,269.557z"/>
		<path d="M152.484,263.131c-3.516,0.099-6.638-2.835-6.731-6.325c-0.101-3.771,2.763-6.908,6.401-7.012
			c3.754-0.107,6.862,2.732,7.003,6.287C159.318,260.149,156.156,263.18,152.484,263.131z"/>
	</g>
</g>
</svg>
