<?xml version="1.0" encoding="iso-8859-1"?>
<!-- Generator: Adobe Illustrator 28.1.0, SVG Export Plug-In . SVG Version: 6.00 Build 0)  -->
<svg version="1.1" id="GeorgeSamuel.me" xmlns="http://www.w3.org/2000/svg" xmlns:xlink="http://www.w3.org/1999/xlink" x="0px"
	 y="0px" viewBox="0 0 512 512" style="enable-background:new 0 0 512 512;" xml:space="preserve">
<g id="www.GeorgeSamuel.me_00000058589798499383271340000005153352780765355707_">
	<rect x="0" style="fill:#FFFFFF;" width="512" height="512"/>
	<circle style="fill:#FFFFFF;" cx="256" cy="256" r="256"/>
	<g id="www.GeorgeSamuel.me">
		<path d="M236.284,326.966c5.238-6.616,9.554-12.573,14.507-17.944c1.136-1.232,4.633-1.052,6.735-0.448
			c3.013,0.866,6.089,2.283,8.532,4.226c9.448,7.513,9.371,7.637,17.467-1.612c2.936-3.354,5.795-6.776,10.472-12.255
			c-12.457,0-22.518,0-33.433,0c3.166-5.961,15.628-7.39,6.594-17.834c10.667-1.377,18.549,1.126,25.332,8.141
			c2.161,2.235,6.928,5.306,8.15,4.486c4.215-2.828,9.346-6.694,10.497-11.111c1.666-6.394-4.501-8.182-9.906-8.339
			c-23.257-0.675-46.521-1.12-69.779-1.778c-8.548-0.242-17.101-0.67-25.619-1.404c-2.093-0.18-4.054-1.892-6.076-2.9
			c1.143-1.918,2.03-4.059,3.474-5.715c5.65-6.483,12.533-7.946,21.309-7.662c36.327,1.177,72.696,1.917,109.035,1.503
			c18.044-0.206,36.407-1.492,52.961-10.571c1.182-0.648,3.326-0.892,4.354-0.252c5.971,3.72,8.637,9.207,7.849,16.309
			c-0.708,6.382-3.555,10.035-10.572,10.568c-8.779,0.667-17.485,2.281-26.223,3.481c-12.763,1.752-24.191,6.142-33.485,15.581
			c-21.829,22.168-42.532,45.175-56.882,73.137c-1.584,3.086-3.356,6.179-4.253,9.482c-0.777,2.86-0.434,6.024-0.586,9.054
			c3.219-0.573,6.484-0.976,9.634-1.808c1.169-0.309,1.942-1.959,3.121-2.415c3.055-1.181,6.236-2.039,9.367-3.026
			c-0.087,4.022,0.901,8.525-0.614,11.908c-1.142,2.549-5.601,3.505-8.384,5.455c-3.559,2.494-7.438,4.82-10.24,8.037
			c-4.076,4.68-8.585,4.908-12.575,1.401c-11.489-10.098-19.746-15.545-9.97-35.618c1.584-3.252,2.477-6.841,2.348-12.122
			c-3.953,1.484-7.909,2.96-11.859,4.454c-8.514,3.219-10.195,2.493-13.127-5.72c-1.686-4.722-3.357-9.45-5.105-14.377
			c1.094-0.31,2.068-0.927,2.506-0.661c15.846,9.628,29.143,1.258,42.497-6.096c1.38-0.76,3.172-3.544,2.782-4.193
			c-0.938-1.563-3.05-3.371-4.704-3.386c-6.331-0.056-12.672,0.496-19,0.949C241.072,326.059,238.757,326.582,236.284,326.966z"/>
		<path d="M291.357,74.042c1.596,0.129,4.753,0.099,7.791,0.682c11.886,2.283,15.779,7.993,10.389,18.663
			c-13.467,26.664-27.946,52.816-42.053,79.156c-1.811,3.382-3.82,6.659-6.862,11.934c5.06-0.594,7.813-0.791,10.52-1.254
			c34.089-5.836,68.33-10.047,102.849-5.06c6.6,0.954,13.4,5.086,18.655,9.486c5.043,4.223,3.421,9.319-2.929,10.487
			c-12.734,2.344-25.648,3.709-38.488,5.479c-0.269-0.621-0.537-1.243-0.806-1.864c2.672-2.146,5.344-4.291,9.644-7.743
			c-4.46-0.847-7.328-1.936-10.159-1.846c-33.782,1.069-67.004,5.587-99.44,15.572c-7.253,2.233-15.149,3.065-22.757,3.106
			c-3.007,0.016-7.796-3.373-8.601-6.136c-0.975-3.344,0.092-9.139,2.547-11.342c27.461-24.65,44.93-56.037,60.863-88.517
			c2.348-4.787,4.662-9.678,6.172-14.765C290.075,85.425,290.349,80.44,291.357,74.042z"/>
		<path d="M213.546,115.648c-13.446,5.649-25.477,11.496-38.063,15.666c-6.543,2.168-14.277,2.695-21.098,1.609
			c-9.912-1.578-12.834-9.217-6.743-17.137c5.646-7.342,12.335-14.086,19.438-20.055c8.98-7.546,18.784-14.125,28.368-20.929
			c2.345-1.665,5.273-3.687,7.835-3.56c2.991,0.147,5.874,2.469,8.804,3.847c-1.243,2.301-2.023,5.076-3.808,6.823
			c-8.78,8.59-17.881,16.853-26.736,25.368c-1.77,1.702-2.962,4.005-4.421,6.03c0.432,0.638,0.864,1.276,1.295,1.913
			c4.824-1.831,9.636-3.692,14.473-5.486c9.992-3.705,19.975-7.437,30.015-11.006c1.975-0.702,4.183-0.913,6.3-1.028
			c10.375-0.559,14.454,4.543,9.767,13.692c-7.169,13.996-14.039,28.484-23.491,40.894c-15.02,19.719-31.702,38.23-48.482,56.516
			c-4.81,5.242-12.017,8.984-18.838,11.394c-3.559,1.258-8.669-1.875-13.078-3.025c1.635-3.851,2.295-8.718,5.071-11.379
			c12.707-12.178,26.733-23.039,38.907-35.697C193.925,154.648,205.028,136.398,213.546,115.648z"/>
		<path d="M150.896,296.346c4.734-2.129,9.406-4.41,14.214-6.355c11.091-4.487,21.991-9.734,33.454-12.933
			c10.634-2.967,15.435,2.877,11.93,13.348c-9.797,29.27-25.983,55.011-44.81,79.184c-6.239,8.011-12.402,16.281-19.82,23.107
			c-5.264,4.843-12.34,8.05-19.102,10.745c-2.291,0.913-6.744-1.312-8.923-3.427c-1.008-0.978,0.329-5.698,1.888-7.738
			c3.869-5.059,8.191-9.858,12.838-14.222c24.421-22.93,42.326-49.965,53.532-83.987c-3.908,2.2-6.157,3.66-8.563,4.788
			c-11.567,5.421-22.971,11.29-34.875,15.845c-4.667,1.786-10.68,1.509-15.741,0.49c-8.936-1.799-11.608-8.24-7.384-16.374
			c1.95-3.755,4.279-7.609,7.34-10.439c12.54-11.596,25.341-22.917,38.28-34.067c2.053-1.769,5.363-3.055,7.992-2.898
			c2.476,0.148,5.512,2.023,6.927,4.083c0.695,1.012-1.275,4.564-2.809,6.277c-7.841,8.757-15.991,17.237-23.891,25.942
			c-1.692,1.865-2.798,4.262-4.173,6.415C149.766,294.868,150.331,295.607,150.896,296.346z"/>
		<path d="M290.293,147.548c4.888-0.179,10.073-1.489,14.603-0.301c9.57,2.51,18.095,5.289,28.126-0.537
			c8.762-5.088,18.725-2.249,27.132,3.574c1.588,1.1,3.855,3.63,3.481,4.637c-0.708,1.911-2.923,4.196-4.831,4.536
			c-4.109,0.732-8.426,0.214-12.648,0.417c-9.153,0.439-18.467,0.102-27.407,1.75C307.019,163.788,296.82,160.583,290.293,147.548z"
			/>
		<path d="M262.412,237.645c5.793-1.431,10.561-3.773,15.189-3.524c11.494,0.621,22.617,1.236,33.904-2.794
			c7.443-2.657,15.454-0.703,21.911,4.483c1.884,1.513,2.923,4.077,4.349,6.159c-2.466,1.241-4.929,3.496-7.398,3.503
			c-4.439,0.011-8.929-1.124-13.311-2.15c-6.613-1.549-12.478-1.911-18.942,2.13C287.299,252.211,271.946,249.002,262.412,237.645z"
			/>
		<path d="M216.241,309.606c2.725-4.865,4.151-8.717,6.659-11.641c7.248-8.448,16.943-12.796,27.747-14.541
			c1.99-0.321,4.775,0.665,6.207,2.06c0.696,0.679-0.392,4.067-1.538,5.568c-2.081,2.724-4.924,4.849-7.244,7.41
			c-4.608,5.087-9.425,10.044-13.475,15.555c-2.539,3.455-4.782,7.404-9.29,4.781C221.798,316.756,219.357,312.878,216.241,309.606z
			"/>
		<path d="M159.94,435.565c-2.029,0.844-5.21,2.166-8.39,3.489c-0.487-1.098-0.974-2.195-1.461-3.293
			c3.284-1.555,6.569-3.11,10.054-4.76c-1.008-1.734-2.444-4.203-3.838-6.602c-7.295,2.981-5.56,16.415-18.015,14.128
			c3.357-5.932,6.074-10.733,8.693-15.361c-1.981-1.747-3.759-3.314-5.537-4.881c2.182-0.856,4.658-1.307,6.494-2.639
			c7.211-5.232,13.816,0.898,22.828,0.255c-2.701,3.27-4.279,5.181-6.279,7.602c2.066,4.19,4.491,9.107,6.916,14.025
			c-0.43,0.704-0.859,1.408-1.289,2.112C167.131,438.446,164.147,437.25,159.94,435.565z"/>
		<path d="M241.603,414.738c7.824-2.563,7.771,2.726,7.777,7.576c3.831,0,6.933,0,10.441,0c0.495-2.482,0.947-4.748,1.511-7.571
			c2.095,0,4.294,0,8.007,0c-0.391,7.467-0.163,14.75-1.566,21.703c-0.351,1.739-5.954,2.418-10.966,4.251
			c2.044-5.323,3.168-8.248,4.655-12.122c-4.531-0.258-7.901-0.449-11.227-0.638c-3.139,3.512,2.682,13.815-8.633,10.954
			C241.603,430.651,241.603,422.533,241.603,414.738z"/>
		<path d="M237.028,421.563c-4.116-0.584-8.222-1.262-12.352-1.727c-5.15-0.58-9.466,0.652-9.173,6.873
			c0.272,5.782,4.776,7.399,9.649,7.296c2.546-0.054,5.031-1.778,7.609-2.006c1.358-0.12,2.857,1.354,4.601,2.271
			c-7.395,6.007-16.881,6.841-23.452,2.582c-6.023-3.903-8.184-15.699-3.847-21.293c0.447-0.577,1.293-1.224,1.939-1.21
			c7.161,0.16,14.346,0.17,21.457,0.891c1.723,0.175,3.197,2.803,4.786,4.303C237.84,420.218,237.434,420.891,237.028,421.563z"/>
		<path d="M136.911,416.967c-2.797,1.351-5.594,2.702-9.404,4.541c0,3.074,0.141,7.226-0.055,11.362
			c-0.111,2.338-0.776,4.65-1.191,6.973c-2.323-2.056-5.939-3.737-6.669-6.255c-1.133-3.908-0.299-8.386-0.299-12.781
			c-1.298-0.461-2.363-0.632-3.18-1.176c-1.315-0.875-2.465-1.996-3.686-3.013c1.382-0.849,2.735-2.372,4.149-2.431
			c6.332-0.266,12.681-0.116,19.024-0.116C136.038,415.037,136.475,416.002,136.911,416.967z"/>
		<path d="M172.847,414.63c6.439,0,10.851,0,14.262,0c0,7.881,0,15.663,0,24.135c-3.518,0-8.019,0-13.499,0
			C178.788,430.873,179.579,423.4,172.847,414.63z"/>
		<path d="M271.824,439.421c4.47-8.089,7.708-14.648,1.747-21.514c-0.191-0.22,1.835-3.43,3.085-3.63
			c3.33-0.532,6.802-0.181,8.39-0.181c0.719,7.891,1.514,14.942,1.838,22.014c0.048,1.051-2.015,2.988-3.283,3.159
			C280.256,439.718,276.811,439.421,271.824,439.421z"/>
		<path d="M162.009,405.976c-2.623-1.644-4.693-2.942-6.763-4.241c1.494-1.93,2.773-4.092,4.535-5.734
			c2.319-2.16,5.465-3.54,7.451-5.925c3.066-3.683,5.638-3.415,8.498-0.179c2.952,3.34,4.723,7.446,0.359,10.322
			C172.043,402.884,166.99,404.02,162.009,405.976z"/>
		<path d="M186.937,217.349c-2.236-1.535-4.977-2.528-5.907-4.415c-0.498-1.011,1.894-3.772,3.389-5.361
			c1.987-2.113,4.915-3.491,6.47-5.829c3.226-4.848,6.283-4.081,9.61-0.533c3.508,3.741,4.058,7.962-0.515,10.863
			C196.283,214.422,191.757,215.468,186.937,217.349z"/>
		<path d="M188.142,369.981c2.363,1.428,4.815,2.91,7.267,4.392c-2.154,1.645-4.18,3.508-6.497,4.878
			c-2.713,1.605-5.562,3.317-8.573,3.976c-2.457,0.538-5.239-0.404-7.876-0.69c0.914-2.922,0.955-7.127,2.939-8.477
			C178.693,371.821,183.233,371.419,188.142,369.981z"/>
		<path d="M210.274,179.822c2.529,1.437,4.773,2.713,7.017,3.988c-1.748,1.701-3.313,3.666-5.288,5.041
			c-2.807,1.955-5.754,3.97-8.951,5.015c-2.185,0.714-4.896-0.183-7.372-0.359c0.263-2.858-0.514-7.254,0.992-8.271
			C200.435,182.695,205.234,181.688,210.274,179.822z"/>
	</g>
</g>
</svg>
