<?xml version="1.0" encoding="utf-8"?>
<!-- Generator: Adobe Illustrator 26.0.1, SVG Export Plug-In . SVG Version: 6.00 Build 0)  -->
<svg version="1.1" id="George_Samuel" xmlns="http://www.w3.org/2000/svg" xmlns:xlink="http://www.w3.org/1999/xlink" x="0px"
	 y="0px" viewBox="0 0 512 512" style="enable-background:new 0 0 512 512;" xml:space="preserve">
<style type="text/css">
	.st0{fill:#111111;}
	.st1{fill:#FFFFFF;}
</style>
<g id="www.GeorgeSamuel.me_00000134243651419841284950000006436926971744732329_">
	<rect class="st0" width="512" height="512"/>
	<g id="www.GeorgeSamuel.me">
		<path id="Path_6785" class="st1" d="M247,330.1c-0.1,4.7-3.5,9.1-8,10.4c-4.5,1.3-9.8-0.7-12.4-4.7c-1.3,4.5-6.6,6.9-11.2,6.2
			c-4.6-0.7-8.5-3.8-11.8-7.1c-1.2,6.2-8.9,9.3-15,7.8c-6.1-1.5-10.9-6.2-15-11c1.2,4.8-3.3,9.7-8.2,10.2c-4.9,0.5-9.7-2.6-12.5-6.7
			c-1,4.6-6.2,7.3-10.9,7c-4.7-0.3-8.9-2.9-12.9-5.4c-0.6,11.5-9.4,22.1-20.6,24.8c-11.2,2.8-23.8-2.4-30.1-12.1
			c-6.2-9.7-5.7-23.2,1.1-32.5c2.7-3.7,6.2-6.7,9-10.3c2.8-3.6,5-8.1,4.1-12.6c4.6,1.2,6.8,6.9,6.1,11.6c-0.7,4.7-3.3,9-5,13.4
			c-1.7,4.5-2.4,9.9,0.6,13.7c4.3,5.5,14,3.6,17.7-2.3c3.7-5.9,2.4-13.8-0.8-20c-2.5-4.7-6-10.3-3.3-14.8c2.5-4.2,8.6-4.2,13.5-3.7
			c0.8,0.1,1.8,0.2,2.3,0.9c0.5,0.6,0.4,1.5,0.3,2.3c-1.3,11.2,2.3,22.9,9.6,31.4c0.9,1.1,2.1,2.2,3.5,2.3c3.1,0.3,4.5-4,3.7-7
			c-1.3-4.7-5-8.1-7.7-12.1c-2.7-4-4.3-9.7-1.3-13.4c3-3.8,8.8-3.4,13.5-2c0.9,0.3,2,0.7,2.3,1.6c0.3,0.7,0.1,1.5-0.1,2.3
			c-2.2,9,0.5,19.1,7.1,25.7c1,1,2.1,1.9,3.5,2c3.1,0.1,4.5-4.1,3.6-7.1c-1.1-4-4.3-7.1-6.6-10.5c-2.3-3.4-3.8-8.2-1.6-11.6
			c2.5-3.9,8.3-4,12.8-2.7c0.8,0.2,1.6,0.5,2.1,1.2c0.6,0.8,0.5,2,0.3,3c-1.5,12.4,6.4,25.3,18.1,29.5c1.6,0.6,3.6,0.9,4.9-0.2
			c0.8-0.8,1.1-2,1-3.2c0-5.5-4.2-10-7.1-14.7c-3-4.7-4.6-11.6-0.4-15.2c2.7-2.3,6.6-2.3,10.1-2.1c0.8,0,1.6,0.1,2.2,0.6
			c0.9,0.8,0.8,2.2,0.7,3.4c-1.1,9.7,1.6,19.4,7.5,27.2c1.6,2.2,4.8,4.3,6.8,2.4c1-0.9,1.1-2.4,0.9-3.7c-0.7-4.6-4-8.2-6.5-12.1
			c-2.5-3.9-4.3-9.1-1.8-13c2.7-4.1,8.7-4.4,13.5-3.3c1,0.2,2.2,0.6,2.7,1.4c0.7,1.1,0.3,2.4,0.1,3.6c-1.9,8.2,0.7,17.4,6.7,23.4
			c1.1,1.2,2.6,2.3,4.3,2c2.3-0.4,3.1-3.2,3.3-5.5c0.4-4.5-0.1-9.1-1.3-13.5c-0.6-2.1-1.4-4.3-1.2-6.5c0.1-2.2,1.5-4.6,3.7-5
			c3.5-0.6,5.7,3.5,6.7,6.9c1.7,5.8,3.5,11.7,6.6,16.8c3.1,5.2,7.9,9.6,13.8,11c5.9,1.3,12.8-1.2,15.4-6.7
			c-8.4-1.4-16.9-3.7-23.7-8.9c-6.8-5.2-11.5-13.8-9.9-22.2c1.2-6.5,7-12.3,13.7-13c7.6-0.8,15.7,5.8,20.9,10.8
			c0.7-1.4,1.3-2.8,1.6-4.4c4.3,7.3,7.2,15.4,8.3,23.8c1.2,8.4,0.5,17.3-3.7,24.6c-4.3,7.3-12.8,12.4-21.1,11
			c-7.6-1.3-13.3-7.5-18.3-13.3L247,330.1z M275.6,311.3c0.7,0,1.4-0.1,2-0.3c0.3-0.1,0.7-0.3,0.9-0.7c0.2-0.4-0.1-0.8-0.3-1.2
			c-1.3-2.1-4-4.8-6.7-4.4c-0.6,0-1.1,0.4-1.5,0.8c-0.4,0.6-0.2,1.4,0.1,2.1C271,309.8,273.2,311.3,275.6,311.3L275.6,311.3z"/>
		<path id="Path_6786" class="st1" d="M286.8,71.3l0,0.6c0.1,1.9,0.2,3.9,0.4,5.8c0.1,1,0.3,2,0.7,3c0.6,1.1,1.5,1.9,2.5,2.7
			c4.9,4,9.6,8.3,14.2,12.7c0.3,0.3,0.7,0.8,0.5,1.2c-0.2,0.5-1.1,0.4-1.6,0.2c-17.2-6.9-36.5-6.1-54.6-10.3
			c-6.9-1.6-13.5-3.9-20.5-5.2c-8-1.5-16.3-1.5-24.4-1.4c-1.7,0-3.7-0.1-4.6-1.5c-0.9-1.4-0.2-3.4,1.2-4.4c1.3-1,3-1.3,4.7-1.5
			l19.2-3c0.6-0.1,1.1-0.2,1.6-0.5c0.6-0.4,0.9-1.2,1.2-1.9l6.8-17.7c0.5-1.4,1.1-2.8,2.1-4c1.3-1.5,3.3-2.2,5.2-2.7
			c6.2-1.7,12.8-1.7,19.2-0.7c3.2,0.5,6.4,1.3,9.5,2.4c2.8,0.9,5.2,2.2,7.9,3.3c3.9,1.6,6.5,5.4,7.6,9.4
			C286.9,62.1,286.6,66.7,286.8,71.3z"/>
		<path id="Path_6787" class="st1" d="M403.7,340.4c-5.6,3.5-13.3,2.4-18.7-1.4c-2.8-2-5.1-4.7-6.3-7.9c-1.2-3.2-1.1-6.9,0.5-9.9
			c2.2-4,6.6-6.1,9.1-10c2-3.2,2.3-7.2,0.8-10.8c-0.5-1.3-1.1-3.1,0.1-3.7c0.3-0.1,0.6-0.2,1-0.2c6.8-0.3,13.4,2.8,18.3,7.5
			c4.9,4.7,8.3,10.7,10.8,17c1.2,2.9,2.3,6,4.8,7.9c1,0.8,2.6,1.2,3.3,0.1c0.2-0.3,0.3-0.8,0.3-1.2c0.4-7-4.5-13-6.5-19.7
			c-0.8-2.6-1.2-5.5-0.1-7.9c2.5-5.5,9.8-3.1,13.9-1.1c0.4,0.2,0.7,0.4,1,0.7c0.6,0.8,0.3,1.9,0,2.9c-1.5,5-0.8,10.4,0.3,15.5
			c1.1,5.1,2.5,10.2,2.4,15.4c-0.1,3.7-1.2,7.9-4.5,9.7c-2.5,1.4-5.8,0.9-8.3-0.4c-2.5-1.4-4.6-3.5-6.5-5.6
			c-1.1,8.1-5.1,16.5-12.3,20.3c-5.9,3.1-13,2.7-19.4,0.8c-5.4-1.6-10.5-4.3-14.9-7.9c2.5-0.4,5,0.4,7.5,0.9c4.7,1,9.7,0.9,14.1-0.9
			c4.4-1.8,8.2-5.5,9.5-10.1L403.7,340.4z M400.3,323.4v0.1c0,1.6,0.7,3.4,2.2,4c1.6,0.7,3.6-0.2,4.6-1.7c1-1.5,1.1-3.4,0.8-5.2
			c-0.3-2-1.1-3.9-2.3-5.6c-0.4-0.6-4.1-4.5-4.3-2.3c0,0.4,0.1,0.8,0.3,1.2c0.5,1.5,0.2,3.2-0.3,4.8
			C400.9,320.3,400.3,321.8,400.3,323.4L400.3,323.4z"/>
		<path id="Path_6788" class="st1" d="M334.4,350.8c-8.1,0-16.2-2-22.9-6.5c-6.8-4.6-11.9-11.7-13.4-19.8c-1.5-8,1-16.9,7-22.5
			c10.3-9.7,34.4-10.8,38.1,6.2c1.4,6.2-1.3,13.1-6.5,16.8c-1.1,0.8-3,1.2-3.5,0c-0.4-1,0.6-1.9,1.3-2.7c1.8-2.1,1.5-5.6-0.3-7.6
			c-1.8-2.1-5-2.8-7.6-2c-2.7,0.8-4.8,3-5.9,5.5c-1.1,2.6-1.2,5.5-0.2,8.2c1.9,4.8,7.1,7.5,12.1,8.4c8.2,1.5,16.7-0.3,23.5-5.2
			c6.7-4.9,11.2-12.4,12.3-20.6c0.1-0.5,0.1-1.1,0.5-1.6c0.3-0.4,1-0.6,1.4-0.3c0.2,0.2,0.3,0.4,0.3,0.6c3.9,10.2,0.9,22.5-6.4,30.6
			c-7.3,8.1-18.5,12.4-29.4,12.5L334.4,350.8z"/>
		<path id="Path_6789" class="st1" d="M273.4,149.6l-0.1,0.1c-0.5-0.2-0.7-0.9-0.8-1.5c-1-7.4-0.9-14.9,0.3-22.3
			c-0.4-0.2-0.7,0.1-1,0.4c-5.9,6.4-8.9,14.9-11.7,23.1c-1.1-0.4-1.3-1.9-1.2-3.1c0.3-3.5,0.8-7,1.6-10.5c-0.4-0.2-0.8,0.2-0.9,0.6
			c-2.6,5.4-3.4,11.5-4,17.5c-0.1,0.8-0.5,1.8-1.3,1.6c-0.3-0.1-0.5-0.3-0.6-0.6c-1.7-2.8-1.4-6.3-1.1-9.6l1.1-9.5
			c-2,1.5-2.4,4.3-2.7,6.8l-1.4,14.2c-1.6-2.5-2.2-5.5-2.3-8.5c-0.2-5.1,0.6-10.1,2.5-14.8l-3.3,2.8c-0.2,0.2-0.6,0.4-0.9,0.4
			c-0.2-0.1-0.4-0.3-0.6-0.5c-0.8-1.5,0.3-3.3,1.2-4.7c2.4-3.8,3.7-8.1,3.7-12.6c0-1.2,0-2.4,0.5-3.4c0.3-0.7,0.9-1.2,1.4-1.8
			c2.3-2.6,3.5-6.1,4-9.5c0.5-3.4,0.4-7,0.5-10.4c0-0.3,0-0.7,0.3-1c0.3-0.3,0.8-0.3,1.3-0.3l22.2,1.1c8.4,0.4,16.9,1.8,22,9.3
			c0.3,0.5,0.6,1,0.6,1.5c-0.1,0.7-0.6,1.2-1.1,1.6c-7,6.5-11.4,15.3-12.5,24.7c0,0.4-0.1,0.8-0.3,1.1c-0.2,0.3-0.8,0.4-1,0.2
			c-0.1-0.2-0.2-0.4-0.2-0.6l-1.2-7c-0.7-0.1-1.1,0.6-1.4,1.2c-2.2,4.7-3.8,9.7-4.5,14.9c-0.2,1.4-0.4,2.8-1.2,3.9
			c-0.5-0.6-0.7-1.4-0.8-2.1l-1.5-9.6c-1.8,4.6-2.8,9.5-2.8,14.4C274.1,148.1,274,149.1,273.4,149.6z"/>
		<path id="Path_6790" class="st1" d="M175.7,384.1c2-2.8,4-5.7,6.8-7.7c4.5-3.3,11.4-3.5,14,2.2c0.8,1.8,1.1,3.8,1.2,5.8
			c0.2,5.4-1,10.8-2.8,15.8c-1.9,5.1-4.5,10.1-8.6,13.6c-4.1,3.5-10,5.4-15.1,3.7c-0.6-0.2-1.4-0.4-1.9,0c-0.2,0.2-0.4,0.5-0.5,0.8
			c-0.5,1.5-0.7,3.1-0.6,4.7c0.1,1.3,0.3,2.8-0.6,3.9c-0.5,0.6-1.3,0.9-2,1.2c-1.6,0.5-3.2,0.7-4.9,0.7c-2,0-4.4-0.7-5.2-2.6
			c-0.4-1.1-0.2-2.3,0-3.5c1.9-10.1,3.8-20.3,5.8-30.4c0.9-4.4,1.8-8.9,1.7-13.4c0-0.8,0-1.6,0.4-2.2c0.4-0.7,1.2-1.1,2-1.3
			c1.5-0.5,3-0.7,4.5-0.7c1.7,0,3.6,0.4,4.7,1.7C176.3,378.5,175.2,381.5,175.7,384.1L175.7,384.1z M183.7,386
			c-0.5,0-1.1,0.5-1.7,1.2c-3.9,5.4-7.3,11.1-10.2,17c-0.2,0.5-0.4,0.9-0.4,1.5c0.1,0.6,0.4,1,0.8,1.4c1.3,1.4,3.2,2.6,5.1,2.1
			c1.7-0.5,2.7-2.1,3.5-3.7c2.6-5.6,4-11.7,3.8-17.9C184.6,386.4,184.2,385.9,183.7,386L183.7,386z"/>
		<path id="Path_6791" class="st1" d="M324.4,388c-2.9,2.9-4.9,6.4-6.8,10c-3.2,6-6.1,12.4-6,19.1c0,1,0,2.2-0.7,2.9
			c-0.4,0.4-1,0.5-1.5,0.6c-1.9,0.4-3.8,0.8-5.8,0.6c-1.9-0.2-3.9-1.3-4.6-3.1c-0.6-1.4-0.4-3-0.1-4.5c1.9-10.7,5.2-21.3,5.1-32.2
			c0-1.1,0-2.3,0.7-3.2c0.5-0.6,1.3-0.9,2.1-1.1c1.4-0.4,2.8-0.6,4.3-0.6c2.3,0,5,0.7,5.6,2.9c0.5,1.7-0.4,3.7,0.7,5
			c1.9-2.3,3.8-4.7,6.3-6.4c3.7-2.6,10.4-3.7,12.9,1.2c0.8,1.7,1,3.7,0.9,5.5c-0.2,7.5-2.9,14.7-3.6,22.1c-0.2,2.4-0.2,4.8,0.6,7.1
			c0.4,1,0.9,2.1,0.6,3.2c-0.3,1.2-1.6,1.9-2.8,2.4c-2.9,1.1-6.4,1.6-8.7-0.4c-1.3-1.1-1.9-2.8-2.1-4.4c-0.2-1.7,0-3.4,0.2-5
			l2.9-21.9L324.4,388z"/>
		<path id="Path_6792" class="st1" d="M240.6,193.1c-0.7-0.6-0.8-1.5-1-2.4c-1.7-10.9-3.2-21.9-4.5-32.8c-0.5-4.5-1-9-3-13
			c-2.1-4.2-5.7-7.5-8.4-11.3c-3.6-5-5.8-11-9.5-15.9c-1.5-2.1-3.4-4.2-3.6-6.8c2.8,0.5,5.1,2.1,7.5,3.7c3.8,2.5,7.8,4.9,11.8,7
			c0.7,0.4,1.8,0.6,2-0.2c0.1-0.3-0.1-0.7-0.2-1l-4.2-7.6c-0.4-0.7-0.8-1.6-0.7-2.4c0.3-2,1.9-1.1,2.7-0.2c1.4,1.6,2.7,3.3,4.1,4.9
			l7.9,9.6c0.6,0.7,1.2,1.5,1.6,2.4c0.4,1.1,0.4,2.3,0.3,3.5c0,5.2,0.9,10.3,1.9,15.4l3.9,20.7c0.2,1.3,0.5,2.6,0.2,3.9
			c-0.2,1-0.8,1.9-1.4,2.8C244.4,179.7,241.9,186.3,240.6,193.1L240.6,193.1z"/>
		<path id="Path_6793" class="st1" d="M156.7,391.2c0,5.4-1.9,10.7-4.6,15.3c-3,5.1-7.2,9.8-12.6,12.1c-5.5,2.3-12.4,1.7-16.6-2.5
			c-2.5-2.5-3.8-6.1-4.1-9.6c-0.3-3.5,0.4-7.1,1.5-10.5c1.9-6.2,5-12.2,10.1-16.2c5-4,11.4-5.4,17.6-3.5c5.6,1.7,8.5,8.8,8.7,14.2
			C156.7,390.6,156.7,390.9,156.7,391.2z M131.1,402.9c0,1.4,0.1,2.8,0.4,4.2c0.3,2,1.3,4.4,3.4,4.6c2,0.2,3.5-1.7,4.4-3.5
			c2.6-5.1,4.1-10.6,4.4-16.3c0.1-1.7,0.1-3.4-0.3-5.1c-0.7-2.5-3.1-5.8-5.8-3.5c-0.8,0.7-1.4,1.6-1.8,2.6
			C132.9,391.1,131,397,131.1,402.9z"/>
		<path id="Path_6794" class="st1" d="M140.9,357.9c0.4,0.4,0,1.6-0.6,2.5c-5.1,8.8-15.3,14.5-25.5,14.3c-0.7,0-1.5,0-2,0.4
			c-0.4,0.3-0.5,0.9-0.7,1.4c-2.1,8.1-3.9,16.3-5.4,24.5c-0.9,4.7-1.7,9.4-1.5,14.1c0,0.7,0.1,1.4-0.2,2.1c-0.4,0.7-1.1,1.1-1.8,1.3
			c-1.8,0.7-3.8,1.1-5.7,1.1c-1.2,0-2.5-0.2-3.4-1.1c-1.3-1.3-0.9-3.4-0.5-5.2c2.8-11.9,5.1-23.9,6.9-36c0.1-0.5,0.1-1.1-0.2-1.5
			c-0.3-0.4-0.9-0.4-1.4-0.4c-7.7,0.2-15.1,2.8-21.2,7.4c-0.7,0.5-1.7,0.9-2.1,0.2c-0.2-0.3-0.1-0.7,0.1-1c2.3-6.5,7.3-11.7,13.8-14
			c8.8-3.2,18.5-0.7,27.8-1.3c6.6-0.4,13.1-2.5,18.5-6.3c1.2-0.9,2.5-2,3.9-2.5C140.3,357.7,140.7,357.7,140.9,357.9z"/>
		<path id="Path_6795" class="st1" d="M272.2,409.9c0-2.2,0.3-4.4,0.6-6.5l1.6-11.3c0.1-0.4,0.1-1-0.3-1.2c-0.2-0.2-0.6-0.1-0.8,0
			l-3.7,0.9c-0.7,0.2-1.5,0.3-2-0.2c-0.4-0.4-0.4-1-0.3-1.5c0.1-1.3,0.2-2.5,0.7-3.7c0.5-1.2,1.4-2.2,2.6-2.6c1.4-0.5,3.1,0,4.4-0.7
			c1.2-0.7,1.7-2.2,1.9-3.5c0.5-2.4,0.6-4.8,0.4-7.2c-0.1-1.1-0.2-2.2,0.3-3.1c0.5-0.8,1.5-1.3,2.4-1.6c3.7-1.2,9.2-1.4,10.1,3.4
			c0.3,1.8-0.1,3.6-0.5,5.4c-0.4,1.8-0.9,3.6-0.8,5.4c0,0.2,0.1,0.4,0.2,0.6c0.2,0.2,0.4,0.3,0.7,0.3c2,0.2,4,0.1,5.9-0.4
			c0.7-0.2,1.4-0.4,2.2-0.3c0.7,0,1.5,0.4,1.8,1.1c0.2,0.5,0.2,1,0.1,1.5c-0.4,2.2-2,4.1-3.9,5.1c-1.9,1.1-4.2,1.4-6.4,1.3
			c-0.8-0.1-1.7-0.2-2.2,0.4c-0.4,0.3-0.5,0.9-0.6,1.4c-1.2,5.1-1.7,10.2-1.6,15.4c0,0.9,0.1,1.9,0.7,2.6c1,1.2,3,0.8,4.4,0
			c1.4-0.7,2.9-1.7,4.4-1.4c1.3,0.3,2.2,1.6,2.3,2.9c0.2,1.3-0.3,2.6-1.1,3.7c-1.3,2-3.4,3.4-5.6,4.5c-2.3,1.1-4.7,1.8-7.2,1.7
			c-2.5,0-5-0.9-6.9-2.5c-2.1-1.9-3.2-4.8-3.5-7.6C272.2,411.3,272.2,410.6,272.2,409.9z"/>
		<path id="Path_6796" class="st1" d="M353.5,420.4c-0.8,0-1.7-0.1-2.5-0.2c-2.6-0.4-5.2-1.3-7.2-3.1c-2-1.8-3.2-4.4-3.7-7
			c-0.5-2.6-0.4-5.4,0-8.1c1-6.9,3.8-13.6,8.6-18.6c3.3-3.4,7.5-5.8,12.1-6.9c4.2-1,9.6-1.2,12.1,2.9c1.1,1.9,1.5,4.2,1.2,6.3
			c-0.4,4.4-2.9,8.4-6.3,11.1c-3.4,2.7-7.7,4.3-12.1,4.8c-1.2,0.2-2.7,0.3-3.3,1.4c-0.3,0.5-0.3,1.1-0.3,1.6c-0.1,2.8,0.5,6,2.9,7.4
			c2.1,1.3,4.9,0.8,7.2-0.1c2.1-0.8,4-2,5.8-3.4c0.5-0.4,1.1-0.9,1.7-1c0.8-0.1,1.7,0.4,2.1,1.1c0.4,0.7,0.5,1.6,0.4,2.5
			c-0.3,2-1.8,3.6-3.4,4.8c-2.9,2.2-6.5,3.3-10.1,3.9C357.1,420.2,355.3,420.4,353.5,420.4z M362.8,386.8c0-0.2,0-0.5,0-0.7
			c0-0.7-0.1-1.3-0.4-1.9c-0.9-1.6-3.5-1.2-4.6-0.2c-0.8,0.7-1.3,1.7-1.8,2.7c-1.1,2.3-2,4.6-2.6,7.1c-0.1,0.3-0.1,0.6-0.1,1
			c0.1,0.5,0.6,0.8,1.1,0.8c0.5,0,1,0,1.5-0.2c2-0.6,4.1-1.4,5.4-3.1C362.5,390.8,362.8,388.8,362.8,386.8z"/>
		<path id="Path_6797" class="st1" d="M238.4,368.3c0.9,0,1.8,0,2.7,0c2.4-0.1,4.9-0.3,7.3-0.6c0.7-0.1,2.4-0.7,3-0.3
			c0.8,0.6,0.7,2.2,0.4,3c-0.9,3.1-4.1,5.2-7.3,5.8c-3.2,0.7-6.5,0.2-9.8,0.1c-0.7,0-1.5,0-2,0.4c-0.6,0.4-0.7,1.2-0.9,1.9
			l-2.3,11.5c-0.1,0.4-0.2,0.9,0.1,1.2c0.2,0.2,0.6,0.3,0.9,0.3c3.8,0.3,7.7,0,11.4-1c0.5-0.1,1.1-0.2,1.4,0.2
			c0.1,0.1,0.1,0.3,0.1,0.4c0.2,2.8-1.2,5.5-3.6,6.8c-3.1,1.7-6.8,0.9-10.3,1.5c-0.5,0.1-1.1,0.2-1.5,0.6c-0.5,0.5-0.7,1.1-0.8,1.8
			c-1.2,5.3-1.9,10.7-2.3,16.1c-0.1,0.9-0.1,2-0.8,2.6c-0.4,0.4-1,0.7-1.6,0.9c-1.8,0.6-3.7,0.8-5.6,0.7c-1.4-0.1-2.9-0.4-3.8-1.5
			c-1.2-1.4-0.7-3.5-0.3-5.3c2-7.6,3.6-15.3,5-23c0.7-4.2,1.4-8.5,1.8-12.8c0.2-1.6,0.3-3.3-0.2-4.9c-0.2-0.6-0.4-1.2-0.3-1.8
			c0.2-0.8,0.9-1.4,1.7-1.8C226.1,368.1,232.4,368.3,238.4,368.3z"/>
		<path id="Path_6798" class="st1" d="M287.4,144.8c1.3,0,1.1,4.9,1.1,5.8c0.2,2.5,0.6,5.1,1,7.6c0.9,5.3,2.2,10.6,3.9,15.7
			c4.3,13.1,11,25.3,16.7,37.8c5.7,12.6,10.5,25.9,10.6,39.7c0.1,6.6-1,13.3-0.2,19.9c0.8,6.6,3.9,13.4,9.8,16.3
			c-3.2-0.1-6.4,2.3-9.4,1.1c-1.5-0.6-2.5-2-3.3-3.3c-4.1-7-4.9-15.4-4.8-23.5c0.1-8.1,1.1-16.2,0.1-24.3
			c-2.1-18-13.6-33.4-20.1-50.4c-3.5-9.2-5.6-18.9-6.2-28.7C286.7,156.9,285.8,145,287.4,144.8L287.4,144.8z"/>
		<path id="Path_6799" class="st1" d="M390.2,375.5c4.2-1.7,8.9-2,12.7,0.1c1.3,0.7,2.4,1.9,2.7,3.3c0.6,2.6-1.4,5.1-3.4,6.9
			c-0.3,0.3-0.7,0.7-1.2,0.6c-0.3,0-0.6-0.2-0.9-0.5c-1.2-1-2.3-2.3-3.7-3.1s-3.2-1.2-4.6-0.3c-1.3,0.8-1.7,2.6-1.4,4.1
			c0.4,1.5,1.4,2.7,2.6,3.7s2.5,1.8,3.7,2.7c4,3.1,6.4,8.3,5.8,13.3c-0.7,4.9-4.2,9.1-8.6,11.3c-4.4,2.2-9.6,2.6-14.5,1.8
			c-2.3-0.4-4.9-1.2-5.9-3.4c-1.1-2.4,0.3-5.2,1.9-7.3c0.7-0.9,1.6-1.9,2.8-1.8c1.4,0.1,2.2,1.6,3,2.7c1.3,1.8,3.4,3,5.5,2.9
			c2.2-0.1,4.2-1.9,4.3-4.1c0-1.4-0.7-2.7-1.6-3.7c-0.9-1-2.1-1.8-3.2-2.6c-2.2-1.6-4.2-3.5-5.5-5.9c-2.7-5.1-1.5-11.8,2.4-16.1
			C384.9,378.3,387.5,376.6,390.2,375.5z"/>
		<path id="Path_6800" class="st1" d="M415.3,419.3c-1.8-0.1-3.5-0.4-5.2-0.9c-2.1-0.6-4.2-1.8-4.8-3.9c-0.4-1.3,0-2.7,0.7-3.8
			c0.7-1.1,1.7-2.1,2.7-3c0.7-0.6,1.5-1.3,2.4-0.9c0.5,0.2,0.7,0.6,1,1c1.5,2.4,3.7,4.9,6.5,5c2.7,0.1,4.9-2,5-4.7
			c0-0.5-0.1-1.1-0.2-1.6c-0.5-1.6-1.9-2.9-3.2-4c-2.7-2.1-5.6-4-7.4-6.9c-2.9-4.8-1.7-11.4,2-15.6c4.5-5,13.4-7.9,19.7-4.7
			c1.4,0.7,2.6,1.9,2.8,3.4c0.4,2.1-1.1,4.2-3,5.4c-0.5,0.3-1.1,0.6-1.6,0.6c-0.8-0.1-1.4-0.7-2-1.3c-1-1-2.3-1.9-3.7-2.2
			c-1.4-0.3-3,0-4,1.1c-1.3,1.3-1.3,3.5-0.5,5.2c0.8,1.7,2.3,2.9,3.8,3.9c1.5,1,3.2,1.9,4.5,3.2c4.1,3.8,4.9,10.5,2.3,15.5
			c-2.5,5-7.9,8.2-13.4,9.1C418.3,419.3,416.8,419.4,415.3,419.3z"/>
		<path id="Path_6801" class="st1" d="M242.2,112.1c-2-0.1-4-0.4-5.8-1.1c-0.4-0.2-0.9-0.4-1.2-0.7c-0.8-1.1,0.2-2.5,0.4-3.9
			c0.3-3-3.7-4.7-4.2-7.7c-0.2-0.9,0-1.9-0.4-2.7c-0.8-1.4-2.9-1.3-3.9-2.6c-0.8-1.2-0.3-2.8,0.4-4.1c0.6-1.2,1.3-2.4,2.1-3.5
			c0.2-0.3,0.5-0.7,0.8-0.8c0.4-0.2,0.8-0.1,1.2,0c4.9,1,9.9,1.9,14.7,3.2c2,0.5,5,0.8,6.5,2.2c1.4,1.4,1.4,3.5,1.3,5.3l-0.6,10.3
			c-0.1,1.1-0.1,2.1-0.6,3.1c-1.1,2.1-3.8,2.6-6.2,2.8C245.2,112.1,243.7,112.2,242.2,112.1z"/>
		<path id="Path_6802" class="st1" d="M276.9,160.1c1.2-0.1,1.3,4.6,1.4,5.4c0.4,2.8,0.9,5.6,1.6,8.3c4.7,19.9,17.7,37.3,20.9,57.5
			c1.3,8.1,0.9,16.4,1.8,24.5c0.6,5.2,2.2,11.1,7,13.2c0.3,0.2,0.7,0.3,0.9,0.6c0.5,0.8-0.6,1.7-1.5,1.9c-4.9,1.1-9.7-2.9-11.4-7.6
			c-1.7-4.7-1.2-9.8-0.8-14.8c0.6-8.8,0.5-17.8-1.6-26.4c-4.1-16.3-15.4-30.2-18.4-46.7c-0.5-2.6-0.7-5.1-0.8-7.7
			c0-1.4,0-2.7,0.1-4.1c0.1-0.8-0.1-3.5,0.5-4C276.6,160.2,276.8,160.1,276.9,160.1z"/>
		<path id="Path_6803" class="st1" d="M260.6,377.8c2.7,0,5.1,0.9,5.6,3.9c0.3,1.7-0.1,3.4-0.6,5.1c-1.8,7-3.1,14.1-4,21.2
			c-0.3,2.6-0.5,5.3,0.4,7.7c0.4,1.2,1.1,2.5,0.5,3.6c-0.3,0.5-0.8,0.9-1.3,1.1c-2,1-4.2,1.5-6.4,1.2c-1.7-0.2-3.5-0.8-4.4-2.3
			c-0.7-1.1-0.8-2.5-0.8-3.8c0-9,2.9-17.8,4.2-26.7c0.3-2.1,0.5-4.2,0.1-6.2c-0.2-1-0.5-2.1,0.1-2.9c0.3-0.3,0.6-0.5,1-0.7
			C256.7,378.4,258.7,377.9,260.6,377.8z"/>
		<path id="Path_6804" class="st1" d="M263.7,157c0.9,0.3,0.8,2.2,0.9,2.8c0.3,2.8,0.7,5.5,1.1,8.3c0.9,5.5,2.1,10.9,4.3,16
			c3.4,8.1,8.9,15.2,11.3,23.6c2.5,8.7,1.4,18,2.6,26.9c0.5,4.2,1.8,8.6,5.1,11.2c0.8,0.6,1.6,1.1,2.2,1.8c0.6,0.7,0.9,1.9,0.3,2.6
			c-0.7,0.9-2.1,0.8-3.2,0.4c-2.4-0.8-4.5-2.4-6.1-4.4c-2.2-2.9-3-6.6-3.3-10.2c-0.5-6.5,0.5-13.1-0.3-19.6
			c-1.2-9.1-6-17.2-9.7-25.6c-4.4-10-7.4-20.9-6.5-31.8c0.1-0.7,0.2-2.1,1.1-2.1C263.6,157,263.7,157,263.7,157z"/>
		<path id="Path_6805" class="st1" d="M250,189.7c0.1-2.7,0.7-5.3,1.6-7.9c1.7-4.6,4.8-8.9,4.2-13.8c-0.3-2.2-1.3-4.2-2.2-6.3
			c-0.2-0.4-0.3-0.8-0.2-1.3c0.7-1.9,3.6,2.1,3.9,2.7c1,1.8,1.6,3.8,1.7,5.9c0.2,3.5-0.8,6.9-1.8,10.3c-1,3.4-2.1,6.7-2.4,10.2
			c-0.4,7,2.9,13.7,4.5,20.5c1.6,7,1.3,14.5,4.4,21c0.8,1.8,1.9,3.5,3.2,5.1c0.3,0.3,0.6,0.7,0.6,1.1c0.1,0.4-0.2,0.9-0.6,0.9
			c-0.2,0-0.3-0.1-0.4-0.1c-2.9-1.4-5.7-3.2-7.4-6c-1.6-2.7-2-5.9-2.4-9c-0.8-6.2-2.1-12.2-3.8-18.2c-1.1-3.9-2.5-7.8-2.8-11.8
			C250,191.9,250,190.8,250,189.7z"/>
		<path id="Path_6806" class="st1" d="M247.9,340.3c6.5,0.2,12.9,3.3,18,7.3c0.3,0.2,0.6,0.5,0.6,0.8c0,0.6-0.9,0.7-1.6,0.6
			c-4.8-0.8-9.9,0-14.5,1.7c-4.6,1.7-8.9,4.2-13,6.9c-0.5,0.3-1,0.7-1.6,0.8s-1.3-0.2-1.5-0.7c-0.1-0.3-0.1-0.6-0.1-0.8
			c0.2-3,0.5-5.9,0.8-8.9c0.1-1.1,0.3-2.2,0.8-3.1c0.8-1.5,2.3-2.4,3.9-3C242.4,340.8,245.2,340.3,247.9,340.3z"/>
		<path id="Path_6807" class="st1" d="M404.5,292.2c0-0.2,0-0.4,0-0.6c0.2-2.6,0.4-5.2,0.7-7.8c0.1-1.3,0.2-2.6,1-3.6
			c0.6-0.8,1.6-1.4,2.5-1.8c9.3-4.2,20.2-0.1,27.6,6c0.1,0.1,0.2,0.2,0.3,0.4c0.2,0.4-0.1,0.9-0.5,1.1c-0.4,0.2-0.9,0.1-1.3,0.1
			c-9.8-1.2-19.7,1.4-27.6,7.4c-0.6,0.4-1.2,0.9-1.9,0.6C404.7,293.7,404.5,292.9,404.5,292.2z"/>
		<path id="Path_6808" class="st1" d="M209.4,273.7c7.5-0.3,14.8,3.7,20.1,8.9c0.2,0.1,0.3,0.3,0.4,0.5c0.1,0.4-0.3,0.9-0.7,1
			c-0.4,0.1-0.9,0-1.4-0.1c-8.2-1.9-16.8-0.8-24.3,3c-0.9,0.5-2.2,0.8-2.7,0c-0.2-0.3-0.2-0.7-0.1-1.1c0.2-2.7,0.7-5.5,1.4-8.1
			c0.2-0.8,0.5-1.7,1-2.3c0.8-0.9,2-1.3,3.1-1.5C207.2,273.9,208.3,273.7,209.4,273.7z"/>
		<path id="Path_6809" class="st1" d="M261.3,268.8c0,1-0.1,2.1-0.4,3.1c-1.3,4-5.6,6.2-9.6,4.9c-0.6-0.2-1.3-0.5-1.8-0.9
			c-1.5-1-2.6-2.5-3.3-4.2c-1.3-3-1.1-6.7,0.9-9.4c1.9-2.5,5-3.6,8-2.9c3.3,0.8,5.1,3.7,5.9,6.8C261.1,267.1,261.2,268,261.3,268.8z
			"/>
		<path id="Path_6810" class="st1" d="M349.6,349.7c3.2,0.1,6.3,2.4,7.6,5.8c1,2.9,0.6,6.1-1.2,8.6c-1.1,1.5-2.7,2.7-4.5,3.1
			c-2,0.4-4.1-0.3-5.7-1.6c-4.1-3.1-4.8-9-1.7-13c0.1-0.1,0.2-0.3,0.3-0.4C345.9,350.4,347.8,349.7,349.6,349.7z"/>
		<path id="Path_6811" class="st1" d="M175.5,280.3c0-0.5,0-0.9,0.1-1.4c0.3-2,1.3-3.9,3-5.1c4.7-3.5,10.1,1.5,11.1,6.2
			c0.6,3-0.6,6.4-3.3,7.9c-2.5,1.5-6,1-8.1-1C176.4,285.2,175.5,282.8,175.5,280.3z"/>
		<path id="Path_6812" class="st1" d="M197,110c0.2-0.5,0.3-1.1,0.6-1.6c1.3-2,3.2-3.5,5.4-4.3c1-0.3,2.1-0.2,3,0.3
			c1.2,0.7,2,1.7,2.7,2.8c0.5,0.7,0.5,1.6,0.2,2.4c-0.5,1.1-0.9,2.3-1.5,3.3c-0.6,1-0.6,2-0.3,3c0.2,0.5,0.3,1,0.3,1.5
			c0.1,1.1-0.5,1.9-1.6,2.1c-1.1,0.2-2.2-0.1-3.1-0.8c-1.1-0.9-2.2-1.8-3.1-2.9C198.1,114.3,197.1,112.3,197,110z"/>
		<path id="Path_6813" class="st1" d="M217.7,81.7c2.9,0.2,5.8,0.6,8.7,1.2c0.7,0.2,1.5,0.4,1.6,1.1c0.1,0.3-0.1,0.6-0.2,0.9
			l-2.3,5.3c-0.1,0.3-0.3,0.6-0.6,0.9c-0.5,0.4-1.3,0.2-1.9-0.2c-3.1-1.9-6-3.1-9.5-4.3c-2.9-1-5.9-1.7-8.9-2.3
			c-0.5-0.1-1.1-0.3-1.2-0.8c-0.1-0.6,0.7-1,1.3-1.1C209.1,81.7,213.4,81.4,217.7,81.7z"/>
		<path id="Path_6814" class="st1" d="M194.3,91.6c0.9,0.1,1.9,0.2,2.8,0.4c1.2,0.3,1.6,0.7,1.6,2c0,0.3,0,0.5,0,0.8
			c-0.1,1.4,0.2,2.5,1.2,3.6c1.9,2.1,1.4,4.8-0.8,6.2c-0.7,0.4-1.2,1-1.9,1.3c-1.3,0.6-2,0.2-2.2-1.2c-0.3-1.5-0.3-1.4-1.8-1.7
			c-1.3-0.3-2.2-0.8-2.8-2.2c-0.7-1.7-0.8-3.4-0.7-5.1C189.8,93.3,191.8,91.7,194.3,91.6z"/>
		<path id="Path_6815" class="st1" d="M224.9,111.6c-0.4,1.5-0.8,2.8-2,3.6c-0.5,0.4-1,0.5-1.6,0.1c-2.4-1.5-4.8-2.8-7.2-4.3
			c-2.4-1.4-3.8-3.7-5-6.1c-0.2-0.4-0.1-0.9,0-1.3c1.1-2.3,4.6-2.6,6.2-0.8c1.3,1.4,2.8,2.7,4.3,3.9c0.8,0.6,1.7,1,2.6,1.3
			c0.8,0.2,1.1,0.7,1.4,1.3C224.3,110.1,224.6,110.9,224.9,111.6z"/>
		<path id="Path_6816" class="st1" d="M261.2,374.2c-0.3,0-0.7,0-1-0.1c-1-0.1-2.1-0.4-2.7-1.2c-0.5-0.7-0.6-1.5-0.7-2.4
			c-0.1-1,0-1.9,0-2.9c0-0.6,0.1-1.3,0.4-1.8c0.4-0.8,1.3-1.2,2.1-1.5c3.6-1.4,9.9-1.4,9.6,4c-0.1,2-1.4,3.7-3.1,4.7
			C264.5,373.9,262.9,374.2,261.2,374.2z"/>
		<path id="Path_6817" class="st1" d="M186.3,117.5c-0.2-0.1-0.8-0.3-1-0.6c-0.2-0.3,0.1-0.9,0.3-1.3c1.5-2.4,3.4-4.4,5.9-5.7
			c0.8-0.4,1.7-0.8,2.6-1.1c0.6-0.2,1.2-0.1,1.6,0.4c0.4,0.5,0.1,1-0.1,1.5c-0.4,0.7-0.7,1.4-1.1,2.1
			C193.5,114.7,188.8,117.5,186.3,117.5z"/>
		<path id="Path_6818" class="st1" d="M195.7,113.7c0.5,0.5,0.9,0.8,1.1,1.2c0.5,1,1,2,1.2,3.1c0.4,2.4,0.4,4.9-1,7.1
			c-0.4,0.6-0.7,1.3-1.6,1.2c-0.9-0.1-1.3-0.6-1.6-1.5c-0.5-1.7-0.4-3.4-0.3-5.2C193.7,117.4,194.8,115.8,195.7,113.7z"/>
		<path id="Path_6819" class="st1" d="M178.4,100c-0.3-0.2-0.9-0.3-1.1-0.6c-0.2-0.2,0-0.9,0.2-1.1c1.6-1.6,2.9-3.4,5-4.5
			c0.4-0.2,0.8-0.4,1.3-0.5c0.9-0.3,1.8-0.5,2.7-0.7c0.1-0.1,0.3-0.1,0.4-0.1c0.6-0.1,1.3-0.2,1.7,0.4c0.5,0.7,0,1.2-0.4,1.7
			c-0.8,0.9-1.5,1.9-2.4,2.7c-1.4,1.3-3.2,1.7-4.9,2.3C180.1,99.6,179.3,99.8,178.4,100z"/>
		<path id="Path_6820" class="st1" d="M210.3,96.7c0,1.5,0,2.9-1.1,4.1c-1,1.1-2.2,1.4-3.5,1.2c-0.9-0.1-1.5-1.2-1.5-2.3
			c0-1.7,0.4-3.1,1.9-4.1c0.5-0.3,0.8-0.9,1.3-1.2c0.5-0.3,1-0.6,1.5-0.7c0.9-0.1,1.2,0.2,1.4,1.1c0,0.1,0,0.2,0,0.3L210.3,96.7z"/>
		<path id="Path_6821" class="st1" d="M204.4,122.4c2.2,2.2,4.9,3.4,6.8,5.6c0.2,0.2,0.5,0.5,0.6,0.7c0.1,0.4,0.2,0.9,0,1.2
			c-0.2,0.2-0.7,0.3-1.1,0.3c-1.2-0.2-2.5-0.5-3.7-0.8c-1.3-0.3-2.3-1.6-2.1-2.9c0.1-0.6-0.1-1-0.3-1.4
			C203.9,124.3,203.8,123.5,204.4,122.4z"/>
		<path id="Path_6822" class="st1" d="M215.7,127c1.3,1.1,2.6,2.1,3.7,3.2c0.8,0.8,1.6,1.7,1.8,2.9c0.1,0.5,0,0.9-0.5,1.1
			c-1.7,0.7-4.2,0.2-4.8-1.7C215.3,130.9,214.7,129.1,215.7,127z"/>
	</g>
</g>
</svg>
