<?xml version="1.0" encoding="utf-8"?>
<!-- Generator: Adobe Illustrator 28.0.0, SVG Export Plug-In . SVG Version: 6.00 Build 0)  -->
<svg version="1.1" id="GeorgeSamuel.me" xmlns="http://www.w3.org/2000/svg" xmlns:xlink="http://www.w3.org/1999/xlink" x="0px"
	 y="0px" viewBox="0 0 512 512" style="enable-background:new 0 0 512 512;" xml:space="preserve">
<style type="text/css">
	.st0{fill:#FFFFFF;}
	.st1{fill:#5E4D46;}
</style>
<rect y="0" class="st0" width="512" height="512"/>
<circle class="st0" cx="256" cy="256" r="256"/>
<path class="st1" d="M174.5,209.5c0,0.1,0,0.2,0.1,0.2c1.8,2.1,2.9,4.6,4.2,7.1c2.7,5.3,5.5,10.7,8.2,16c1.4,2.6,3,5.1,5.3,7.1
	c0.1,0.1,0.1,0.2,0.2,0.3c-0.7,0.3-1.3,0.1-1.9,0.2c-0.4,0-0.7,0-1.1,0c-0.6,0.1-1-0.2-1.4-0.7c-1.3-1.7-2.6-3.5-3.5-5.4
	c-2.3-4.5-4.6-9.1-7-13.6c-1.2-2.3-2.4-4.7-3.7-7c-1.4-2.5-3.4-4.3-6.3-5.2c-0.6-0.2-1.2-0.2-1.8-0.2c-4.1,0-8.2,0-12.3,0
	c-1.1,0-1.1,0-1.1,1.2c0,9.8,0,19.5,0,29.3c0,1.6,0,1.6-1.5,1.6c-1.2,0-1.2,0-1.2-1.3c0-15.4,0-30.7,0-46.1c0-9.1,0-18.3,0-27.4
	c0-0.1,0-0.2,0-0.3c0-1.1,0-1.1,1.1-1.1c7.1,0,14.1,0,21.2,0c5,0,9.8,1,14.3,3.2c4.5,2.2,8.1,5.4,10.4,9.9c2.7,5.4,2.9,11,0.5,16.6
	c-1.9,4.4-5.2,7.7-9.2,10.1c-2.6,1.5-5.3,2.6-8.2,3.3c-0.1,0-0.3,0.1-0.4,0.3c0.2,0.4,0.7,0.5,1.1,0.6c2,1,3.8,2.2,5.4,3.7
	c1.3,1.3,2.3,2.7,3.2,4.3c2.9,5.2,5.7,10.5,8.7,15.6c1.6,2.8,3.4,5.4,5.8,7.5c0.2,0.1,0.3,0.3,0.5,0.5c0.1,0.1,0.1,0.2,0.2,0.4
	c-1.2,0.1-2.4,0.1-3.5,0c-0.3,0-0.5-0.4-0.8-0.6c-1.8-1.8-3.2-3.8-4.4-6c-3-5.4-6-10.8-9-16.2c-1.9-3.4-4.8-5.8-8.4-7.2
	c-1.1-0.4-2.1-0.9-3.3-0.9c-0.1-0.1-0.2-0.1-0.2,0C174.3,209.4,174.4,209.5,174.5,209.5z M152.3,186.2
	C152.3,186.2,152.3,186.2,152.3,186.2c0,6,0,12,0,18c0,1.2,0,1.2,1.1,1.2c5.2-0.1,10.5,0.1,15.7,0c4.1-0.1,7.5-1.5,10.3-4.4
	c3.5-3.6,5.3-8,5.7-13c0.3-4.6-0.4-9-2.8-13c-1.4-2.4-3.2-4.4-5.5-5.9c-2.3-1.6-4.9-2.2-7.7-2.3c-5.2,0-10.4,0-15.6,0
	c-0.2,0-0.4,0-0.5,0c-0.4,0-0.7,0.2-0.7,0.7c0,0.3,0,0.7,0,1C152.3,174.4,152.3,180.3,152.3,186.2z M180.7,168.1
	c0,0.1-0.1,0.1-0.1,0.2c5,4.9,7.4,10.7,7.4,17.7c0,6.9-2.4,12.9-7.3,17.8c0.2,0.1,0.3,0.1,0.3,0.1c0.1,0,0.2,0,0.3-0.1
	c4.6-1.6,8.5-4.1,11.4-8.1c3.8-5.3,4.1-12.5,0.8-18.1c-2.5-4.1-6.1-6.8-10.5-8.6C182.3,168.7,181.5,168.4,180.7,168.1z"/>
<path class="st1" d="M191.3,341.1c-0.6-1-1-2-1.3-3c-0.1-0.3,0.1-0.6,0.2-0.9c2.1-4.5,4.1-9,6.2-13.6c2.7-5.9,5.3-11.7,8-17.6
	c2-4.5,4.1-9,6.2-13.5c2.8-6.1,5.6-12.3,8.4-18.4c2.1-4.7,4.3-9.3,6.4-14c2.4-5.4,4.9-10.7,7.3-16.1c2.1-4.5,4.1-9,6.2-13.6
	c2.8-6.2,5.6-12.3,8.4-18.5c1.9-4.2,3.9-8.5,5.8-12.7c2.9-6.4,5.8-12.9,8.8-19.3c1.4-3.1,2.9-6.3,4.3-9.4c0.1-0.2,0.1-0.4,0.4-0.5
	c0.3,0.2,0.4,0.5,0.5,0.8c3.3,7.6,6.5,15.2,9.8,22.8c2.1,4.9,4.3,9.8,6.4,14.7c2.2,5.1,4.4,10.3,6.7,15.4c2.1,4.9,4.2,9.7,6.3,14.6
	c0.2,0.4,0.3,0.7,0.5,1.1c0.2,0.6,0.2,0.7-0.4,0.8c-2.2,0.2-2.2,0.2-3.1-1.8c-2-4.7-4.1-9.3-6.1-14c-0.8-1.7-1.5-3.5-2.3-5.2
	c-0.2-0.5-0.5-0.7-1-0.7c-0.3,0-0.6,0-0.9,0c-11.4,0-22.7,0-34.1,0c-0.3,0-0.7,0-1,0c-0.5,0-0.7,0.2-0.9,0.6c-1,2.2-2,4.3-3,6.5
	c-1.7,3.7-3.4,7.5-5.1,11.2c-2.8,6.2-5.7,12.5-8.5,18.7c-2,4.5-4.1,9-6.2,13.5c-3.2,7.1-6.4,14.1-9.6,21.2
	c-1.9,4.2-3.8,8.4-5.7,12.6c-2.2,4.9-4.5,9.8-6.7,14.7c-2.1,4.6-4.2,9.1-6.3,13.7c-1.3,2.8-2.5,5.6-3.8,8.4
	C192,340.1,191.8,340.6,191.3,341.1z M266.5,177.1c-0.5,0.3-0.6,0.7-0.7,1c-1,2.3-2.1,4.5-3.1,6.8c-3.2,7-6.4,14-9.6,21.1
	c-1.4,3-2.7,6-4.1,9c-0.3,0.7-0.2,0.8,0.5,0.9c0.1,0,0.3,0,0.4,0c10.7,0,21.4,0,32.1,0c0.3,0,0.5,0,0.8,0c0.3,0,0.4-0.2,0.3-0.5
	c-0.1-0.2-0.1-0.3-0.2-0.5c-2.4-5.4-4.7-10.9-7.1-16.3c-2-4.7-4.1-9.5-6.2-14.2C268.6,181.9,267.6,179.6,266.5,177.1z"/>
<path class="st1" d="M160.9,271.7c1-0.2,1.8-0.1,2.6-0.1c0.5,0,0.6,0.4,0.7,0.7c1.5,3.4,3,6.8,4.5,10.3c2.2,5,4.4,10,6.5,15
	c1.9,4.3,3.7,8.5,5.6,12.8c1.6,3.7,3.2,7.4,4.8,11.1c0.1,0.2,0.1,0.5,0.4,0.6c0.4-0.2,0.5-0.7,0.7-1.1c2.2-4.7,4.3-9.5,6.5-14.2
	c2.8-6.1,5.5-12.1,8.3-18.2c1.8-3.9,3.6-7.8,5.4-11.8c2.7-6,5.5-12.1,8.2-18.1c2-4.5,4.1-8.9,6.1-13.4c2.4-5.4,4.9-10.7,7.3-16.1
	c2.1-4.6,4.2-9.2,6.3-13.8c2.3-5.1,4.6-10.1,6.9-15.2c2.2-4.7,4.3-9.5,6.5-14.2c3.2-7,6.4-14,9.6-21.1c0.3-0.7,0.7-1.1,1.6-1
	c0.4,0,0.8,0,1.2,0c0.7,0,0.8,0.1,0.5,0.8c-0.5,1-1,2.1-1.4,3.1c-2.8,6.2-5.7,12.4-8.5,18.7c-3.6,7.9-7.2,15.8-10.8,23.7
	c-3.2,7.1-6.5,14.3-9.7,21.4c-2,4.5-4.1,8.9-6.1,13.4c-2.8,6.1-5.6,12.3-8.4,18.4c-2.2,4.7-4.3,9.4-6.5,14.2
	c-2.5,5.5-5,11.1-7.5,16.6c-3.5,7.7-7,15.5-10.5,23.2c-1.6,3.6-3.3,7.1-4.9,10.7c-0.2,0.4-0.3,0.7-0.7,1.1
	C177.6,310,169.3,290.9,160.9,271.7z"/>
<path class="st1" d="M69.3,203.8c0-11.7,0-23.4,0-35.1c0-1.8,0-1.8-1.8-1.8c-7.1,0-14.2,0-21.3,0c-0.2,0-0.4,0-0.5,0
	c-0.7,0-0.8-0.1-0.9-0.8c0-0.4,0-0.8,0-1.2c0-0.6,0.3-0.8,0.8-0.8c0.6,0,1.2,0,1.9,0c19.3,0,38.5,0,57.8,0c1.8,0,1.6,0.1,1.6,1.6
	c0,0.2,0,0.4,0,0.7c0,0.3-0.2,0.5-0.5,0.5c-0.4,0-0.7,0-1.1,0c-6.9,0-13.8,0-20.7,0c-2.2,0-2.1,0-2.1,2.1c0,23.4,0,46.7,0,70.1
	c0,0.1,0,0.3,0,0.4c0,0.8-0.1,0.9-0.8,0.9c-2.4,0-2,0.2-2-1.8c0-23.4,0-46.7,0-70.1c0-0.1,0-0.1,0-0.2c0-1.3-0.1-1.4-1.4-1.4
	c-1.5,0-3.1,0-4.6,0c-0.3,0-0.6,0-0.9,0.1c-0.4,0-0.7,0.2-0.7,0.7c0,0.2,0,0.4,0,0.7c0,23.5,0,47.1,0,70.6c0,1.4,0.3,1.5-1.5,1.5
	c-1.3,0-1.3,0-1.3-1.4c0-5.5,0-11,0-16.5C69.3,216.3,69.3,210,69.3,203.8z"/>
<path class="st1" d="M164.5,304.7c-5.5,12.1-11,24.1-16.5,36.2c-0.6-0.7-30-68-30.3-69.2c0.8-0.2,1.7-0.1,2.5-0.1
	c0.4,0,0.5,0.3,0.7,0.6c1.4,3.3,2.9,6.6,4.3,9.9c2.7,6.3,5.5,12.5,8.2,18.8c2.3,5.3,4.6,10.6,6.9,15.9c2.3,5.3,4.6,10.6,6.9,15.9
	c0.2,0.4,0.3,0.8,0.6,1.1c0.4,0,0.5-0.4,0.6-0.7c1.4-3,2.7-5.9,4.1-8.9c2-4.4,4-8.8,6-13.2c1.4-3,2.7-5.9,4.1-8.9
	c0.4-0.9,0.4-1.6,0-2.5c-3.1-7-6.2-14-9.2-21c-0.9-2-1.8-4-2.7-6c-0.4-1-0.4-1,0.6-1c2.1-0.1,2.1-0.1,2.9,1.9
	c2.3,5.2,4.6,10.4,6.9,15.7c3.6,8.2,7.2,16.5,10.9,24.7c2.6,5.8,5.1,11.6,7.7,17.5c2.3,5.1,4.5,10.3,6.7,15.4
	c0.1,0.2,0.1,0.3,0.2,0.5c0.1,0.3,0,0.5-0.3,0.5c-0.7,0-1.5,0-2.2,0c-0.5,0-0.6-0.4-0.7-0.8c-0.9-2-1.8-4-2.7-6
	c-2-4.6-4-9.2-6.1-13.8c-2.3-5.1-4.5-10.2-6.8-15.4c-0.9-2-1.8-4.1-2.7-6.1C165.1,305.4,165,305,164.5,304.7z"/>
<path class="st1" d="M302,347.7c-0.8,0-1.6,0-2.3,0c-0.4,0-0.6-0.2-0.8-0.6c-1.7-3.9-3.3-7.7-5-11.6c-1.2-2.6-2.3-5.3-3.5-8
	c-0.3-0.7-0.7-1-1.5-0.9c-11.7,0-23.4,0-35,0c-0.8,0-1.2,0.3-1.5,1c-2.1,4.8-4.3,9.5-6.5,14.3c-0.8,1.7-1.6,3.4-2.4,5.2
	c-0.2,0.4-0.4,0.6-0.9,0.6c-0.6,0-1.2,0-1.9,0c-0.5,0-0.6-0.2-0.4-0.6c0.7-1.6,1.4-3.1,2.1-4.7c3.2-7,6.4-14,9.6-21
	c3.4-7.4,6.8-14.8,10.2-22.3c2.9-6.4,5.8-12.9,8.8-19.3c0.2-0.4,0.3-0.8,0.5-1.2c0.1-0.2,0.2-0.4,0.4-0.4c0.2,0,0.2,0.2,0.3,0.4
	c0.5,1.2,1,2.4,1.6,3.6c2.1,4.9,4.3,9.9,6.4,14.8c2.5,5.7,5,11.5,7.4,17.2c2.8,6.4,5.6,12.9,8.4,19.3c1.9,4.4,3.8,8.7,5.7,13.1
	C301.9,347,302.1,347.3,302,347.7z M271.7,285.2c-5.8,12.8-11.7,25.6-17.5,38.4c0.5,0.3,0.8,0.2,1.2,0.2c10.7,0,21.5,0,32.2,0
	c0.1,0,0.3,0,0.4,0c0.6,0,0.7-0.1,0.5-0.7c-0.3-0.7-0.6-1.4-0.9-2.1c-2.2-5.2-4.5-10.3-6.7-15.5c-2.8-6.5-5.7-13.1-8.5-19.6
	C272.2,285.7,272.2,285.4,271.7,285.2z"/>
<path class="st1" d="M466.3,240.3c-1,0.1-2.1,0.1-3.1,0c-0.4,0-0.6-0.3-0.9-0.6c-3.6-4.1-7.3-8.2-10.9-12.3c-2.7-3-5.4-6-8.1-9.1
	c-3.9-4.3-7.7-8.7-11.6-13c-2.6-2.9-5.1-5.7-7.7-8.6c-3.4-3.8-6.8-7.6-10.1-11.4c-2.3-2.6-4.7-5.2-7-7.9c-0.1-0.1-0.1-0.2-0.2-0.2
	c-0.3-0.3-0.6-0.2-0.6,0.2c-0.1,0.9-0.1,1.8-0.1,2.7c0,19.3,0,38.6,0,58c0,0.5,0,1.1,0,1.6c0,0.4-0.2,0.6-0.6,0.6c-0.5,0-1,0-1.5,0
	c-0.5,0-0.7-0.3-0.6-0.7c0-0.2,0-0.4,0-0.7c0-22.7,0-45.5,0-68.2c0-0.4-0.2-1.1,0.2-1.2c0.5-0.2,0.8,0.4,1,0.8
	c3.1,3.5,6.2,7,9.3,10.5c2.2,2.4,4.3,4.8,6.5,7.3c2.8,3.1,5.5,6.2,8.2,9.3c2,2.2,4,4.4,5.9,6.6c2.6,3,5.2,5.9,7.9,8.9
	c2.1,2.4,4.2,4.7,6.3,7c3.3,3.7,6.6,7.4,9.8,11.1c2.5,2.8,5,5.6,7.4,8.4C466,239.6,466.3,239.8,466.3,240.3z"/>
<path class="st1" d="M466.5,230.2c-0.7-0.8-1.5-1.6-2.2-2.4c-2.1-2.3-4.1-4.7-6.2-7c-3.3-3.7-6.6-7.5-10-11.2
	c-2.1-2.3-4.2-4.6-6.2-6.9c-2.7-3-5.3-6-8-9c-1.4-1.6-2.9-3.2-4.3-4.8c-3.4-3.8-6.7-7.6-10.1-11.3c-2.7-3-5.4-6-8-9
	c-1.1-1.2-2.2-2.5-3.3-3.7c-0.1-0.2-0.4-0.3-0.3-0.6c0.1-0.3,0.4-0.2,0.7-0.2c1.8-0.2,3.3,0.1,4.3,1.8c4.7,5.3,9.4,10.6,14.1,15.8
	c2.6,2.9,5.2,5.8,7.8,8.8c3.8,4.3,7.7,8.6,11.5,13c2.3,2.6,4.7,5.2,7,7.9c3.1,3.5,6.3,7,9.4,10.6c0.3,0.3,0.6,0.7,1.1,1
	c0.2-0.4,0.1-0.8,0.1-1.2c0-12.1,0-24.2,0-36.2c0-6.6,0-13.2,0-19.8c0-0.3,0-0.6,0-0.9c0-0.4,0.2-0.7,0.6-0.7c0.1,0,0.1,0,0.2,0
	c2.3,0,1.9,0,1.9,1.8c0,20.5,0,41,0,61.5c0,0.9,0,1.9,0,2.8C466.7,230.2,466.6,230.2,466.5,230.2z"/>
<path class="st1" d="M370.9,310.5c0.5-0.3,0.7-0.9,1-1.3c4-6.2,8-12.5,12-18.8c3.9-6,7.7-12.1,11.6-18.1c0.3-0.5,0.6-0.7,1.1-0.7
	c0.8,0,1.7,0,2.7,0c-0.8,1.3-1.6,2.5-2.3,3.6c-5.5,8.6-11,17.2-16.5,25.8c-2.6,4-5.1,8.1-7.7,12.1c-0.4,0.7-0.5,1.3-0.5,2.1
	c0,5.1,0,10.1,0,15.2c0,5.4,0,10.8,0,16.1c0,0.3,0,0.5,0,0.8c0,0.3-0.2,0.5-0.5,0.5c0,0-0.1,0-0.1,0c-2.1,0.3-2.2,0.1-2.2-2
	c0-10.3,0-20.6,0-30.9c0-0.8-0.2-1.5-0.6-2.2c-2.3-3.6-4.6-7.1-6.9-10.7c-5.7-8.9-11.3-17.8-17-26.6c-0.8-1.2-1.5-2.4-2.4-3.7
	c1.1-0.2,2.1-0.2,3-0.1c0.4,0,0.6,0.4,0.7,0.7c2.6,4,5.2,8.1,7.8,12.1c5.3,8.3,10.7,16.6,16,25C370.4,309.8,370.6,310.2,370.9,310.5
	z"/>
<path class="st1" d="M108.4,271.6c0.2,0,0.4,0,0.5,0c0.7-0.1,1.1,0.2,1.4,0.9c3.2,7.2,6.4,14.5,9.6,21.7c3.5,7.8,6.9,15.7,10.3,23.5
	c3.4,7.8,6.9,15.6,10.3,23.4c0.8,1.8,1.6,3.7,2.4,5.5c0.1,0.2,0.2,0.4,0.2,0.6c0.1,0.3-0.1,0.5-0.4,0.5c-0.7,0-1.4,0-2.1,0
	c-0.4,0-0.6-0.4-0.7-0.7c-1.1-2.5-2.2-5-3.3-7.4c-2.2-5.1-4.5-10.2-6.7-15.4c-3.4-7.7-6.7-15.3-10.1-23c-2.4-5.4-4.7-10.7-7.1-16.1
	c-1.8-4.1-3.7-8.3-5.5-12.5c-0.5-1.1-0.5-1.1,0.7-1.1C108.1,271.6,108.2,271.6,108.4,271.6C108.4,271.6,108.4,271.6,108.4,271.6z"/>
<path class="st1" d="M276.8,271.7c0.9-0.2,1.7-0.1,2.5-0.1c0.5,0,0.6,0.4,0.8,0.8c1,2.4,2.1,4.8,3.1,7.1c2.3,5.2,4.5,10.3,6.8,15.5
	c2.5,5.8,5,11.6,7.6,17.4c1.9,4.3,3.8,8.6,5.7,13c2.1,4.9,4.3,9.8,6.4,14.7c1,2.3,2,4.6,3,6.8c0.4,0.8,0.4,0.8-0.5,0.9
	c-2.1,0.1-2.1,0.1-3-1.8c-2.3-5.4-4.7-10.7-7-16.1c-2.2-5-4.4-10-6.6-15.1c-2.6-6-5.2-11.9-7.8-17.9c-1.7-3.8-3.4-7.6-5-11.5
	c-1.9-4.4-3.9-8.9-5.8-13.3C276.9,272,276.9,271.9,276.8,271.7z"/>
<path class="st1" d="M306.1,240.3c-0.1,0-0.3,0-0.4,0c-0.7,0.1-1.1-0.2-1.4-0.9c-0.9-2.1-1.8-4.2-2.7-6.2c-2.2-4.9-4.3-9.9-6.5-14.8
	c-1.8-4.1-3.6-8.3-5.4-12.4c-2.2-5.1-4.5-10.2-6.7-15.3c-2.3-5.3-4.6-10.6-6.9-15.9c-1.4-3.2-2.8-6.4-4.2-9.7
	c-0.1-0.2-0.2-0.4-0.3-0.6c-0.1-0.3,0-0.5,0.3-0.5c0.7,0,1.3,0,2,0c0.5,0,0.7,0.4,0.9,0.8c0.9,2.1,1.8,4.2,2.7,6.2
	c2.3,5.2,4.5,10.3,6.8,15.5c1.8,4.2,3.6,8.3,5.4,12.5c1.8,4.1,3.6,8.3,5.4,12.4c2.2,5.1,4.4,10.1,6.6,15.2c1.8,4.2,3.7,8.4,5.5,12.6
	c0.1,0.2,0.2,0.3,0.2,0.5c0.2,0.4,0,0.6-0.4,0.6C306.8,240.3,306.5,240.3,306.1,240.3C306.1,240.3,306.1,240.3,306.1,240.3z"/>
<path class="st1" d="M331.9,271.7c1.1-0.2,2-0.1,2.9-0.1c0.5,0,0.7,0.4,0.9,0.8c1.8,2.8,3.6,5.5,5.3,8.3c2.8,4.4,5.6,8.8,8.4,13.1
	c4.1,6.4,8.1,12.7,12.2,19c0.3,0.5,0.5,1,0.5,1.5c0,10.8,0,21.6,0,32.4c0,0.9,0,1-0.9,1c-2.2,0-1.9,0.2-1.9-1.8c0-10,0-20,0-30
	c0-1-0.2-1.9-0.8-2.8c-2.6-4.1-5.3-8.2-7.9-12.3c-4.7-7.4-9.5-14.9-14.2-22.3c-1.3-2.1-2.7-4.2-4-6.3
	C332.1,272.1,332,272,331.9,271.7z"/>
<path class="st1" d="M139.2,202.2c0-12.2,0-24.4,0-36.6c0-1.7-0.2-1.6,1.6-1.6c0.2,0,0.4,0,0.5,0c0.5,0,0.7,0.3,0.6,0.7
	c0,0.2,0,0.4,0,0.7c0,24.4,0,48.7,0,73.1c0,1.8,0.4,1.8-1.8,1.8c-0.9,0-0.9-0.1-0.9-1c0-2.1,0-4.2,0-6.4
	C139.2,222.7,139.2,212.4,139.2,202.2z"/>
<path class="st1" d="M348.1,202.2c0,12.3,0,24.5,0,36.8c0,1.4,0,1.4-1.4,1.3c-1.3-0.1-1.3-0.1-1.3-1.4c0-24.5,0-49,0-73.6
	c0-0.3-0.1-0.5,0-0.8c0.3-0.9,1.1-0.4,1.7-0.5c0.4-0.1,0.9-0.1,1,0.6c0,0.3,0,0.5,0,0.8C348.2,177.7,348.2,189.9,348.1,202.2
	C348.2,202.2,348.2,202.2,348.1,202.2z"/>
<path class="st1" d="M358.5,202.2c0,12.2,0,24.4,0,36.6c0,1.6,0.2,1.5-1.5,1.5c-0.2,0-0.4,0-0.7,0c-0.4,0-0.5-0.2-0.5-0.5
	c0-0.3,0-0.6,0-0.9c0-24.5,0-49,0-73.5c0-0.2,0-0.4,0-0.7c0-0.6,0.4-0.7,0.8-0.6c0.6,0.1,1.4-0.3,1.8,0.4c0.1,0.2,0.1,0.6,0.1,1
	c0,11.6,0,23.3,0,34.9C358.5,201,358.5,201.6,358.5,202.2C358.5,202.2,358.5,202.2,358.5,202.2z"/>
</svg>
