<svg width="54" height="51" viewBox="0 0 54 51" fill="none" xmlns="http://www.w3.org/2000/svg">
<path d="M21.4306 17.9148C15.544 18.249 13.5572 22.0178 13.6492 32.4409C11.3222 33.9778 10.3688 34.1391 7.57579 33.4383C6.42377 28.9702 6.86514 24.7117 9.7899 20.9503C12.6881 17.2242 17.1084 16.1933 21.7618 15.253C20.0528 12.8109 17.9578 11.4903 15.4303 10.8461C13.7456 10.4069 12.1253 10.7733 10.813 11.8901C9.66949 12.8564 8.54359 13.928 7.68047 15.1448C5.94008 17.5869 3.60783 17.708 0.9375 17.3095C3.2609 10.8564 11.4191 7.65268 22.2159 8.98862C20.8244 5.99743 18.6892 3.94811 15.696 3.40208C12.9109 2.89922 9.99672 3.17424 6.74038 3.10103C11.4899 -1.02017 21.3538 0.184712 27.4776 5.3687C33.211 1.34301 39.6117 0.268358 46.7595 2.11598C45.976 3.94592 44.311 3.80849 42.9373 4.05484C42.2534 4.1787 41.5139 3.99822 40.8142 3.88062C35.3959 2.97613 32.4608 4.80345 30.6345 10.4349C31.4024 10.2892 32.0347 10.1532 32.6621 10.0635C35.37 9.68631 38.0981 8.91565 40.8004 9.02452C46.2439 9.25737 50.0175 12.3531 53.0614 17.1787C51.6439 17.6881 50.548 18.1189 49.4437 18.4823C47.8874 18.9887 46.8301 18.4598 45.745 17.1754C44.2569 15.4155 42.6168 13.6316 40.6878 12.4036C37.0198 10.0936 33.5909 11.2396 31.2288 15.2111C33.0567 15.5059 34.864 15.6828 36.6083 16.1005C43.8012 17.834 47.9334 25.2403 45.6928 32.1647C45.3325 33.2803 44.6937 33.9319 43.613 34.0929C42.3299 34.2893 41.0064 34.2978 39.43 34.4012C39.4503 33.0568 39.4368 31.9838 39.4821 30.9187C39.6426 27.8243 39.0799 24.892 37.2494 22.2965C35.878 20.3502 34.1728 18.8422 31.3488 18.3242C31.6575 19.1995 31.9169 19.7956 32.0884 20.4304C32.5732 22.2032 32.4493 23.9867 31.0225 25.1774C29.6505 26.3157 29.514 27.6386 29.5073 29.1824C29.4676 34.7184 29.3634 40.2452 29.2694 45.7802C29.2002 50.3881 28.2066 51.1045 23.1114 49.884L23.154 46.7499C23.2354 40.9087 23.3186 35.0858 23.4058 29.246C23.4257 27.7232 23.4195 26.3368 22.1435 25.0906C20.9285 23.8944 20.8121 22.179 20.9885 20.5326C21.0774 19.668 21.2577 18.8012 21.3948 17.9123L21.4178 17.9177L21.4306 17.9148Z" fill="#31ABFF"/>
</svg>
