<?xml version="1.0" encoding="utf-8"?>
<!-- Generator: Adobe Illustrator 26.0.1, SVG Export Plug-In . SVG Version: 6.00 Build 0)  -->
<svg version="1.1" id="George_Samuel" xmlns="http://www.w3.org/2000/svg" xmlns:xlink="http://www.w3.org/1999/xlink" x="0px"
	 y="0px" viewBox="0 0 512 512" style="enable-background:new 0 0 512 512;" xml:space="preserve">
<style type="text/css">
	.st0{fill:#111111;}
	.st1{fill:#FFFFFF;}
	.st2{fill:#0DAEEC;}
</style>
<g id="www.GeorgeSamuel.me_00000008852128866976461170000011924790494121917604_">
	<rect class="st0" width="512" height="512"/>
	<circle class="st0" cx="256" cy="256" r="256"/>
	<g id="www.GeorgeSamuel.me">
		<path id="Path_9201" class="st1" d="M136.7,181.5c4.1,32.2-0.3,64.7,0.2,97.1s6.9,66.6,28.5,90.1c24.1,26.3,62.3,33.6,97.4,32
			c28.3-1.2,58.2-7.8,79.1-27.7c24-22.6,31.9-58.3,32.9-91.7s-4-67.2-0.7-100.4c13.8,11.1,26.3,23.7,37.3,37.6
			c11.1,14.2,17.4,31.6,17.9,49.6c-0.7,15.9-6,31.2-15.2,44.2c-9.1,12.7-19.4,24.5-30.7,35.3l-63.1,63.5
			c-10.5,11.8-22.9,21.8-36.8,29.4c-19.4,9.1-42,8.3-60.7-2.1c-11.4-7.1-21.7-15.9-30.5-26.1l-42.4-43.8l-21.3-21.9
			c-7.1-7.3-13.8-15-21.3-21.9c-1.3-1.2-2.7-2.1-3.9-3.3c-1.3-1.4-2.6-2.8-3.7-4.3c-2.4-3-4.5-6.2-6.4-9.6c-3.8-6.8-6.6-14-8.3-21.6
			c-3.2-13.5-2.7-27.6,1.5-40.9C94.9,218.5,116.3,199.2,136.7,181.5z"/>
		<path id="Path_9202" class="st1" d="M228.8,103.2l-14.2-0.3L244.2,73c3.7-3.9,8.6-7.9,13.8-6.8c2.9,1,5.4,2.7,7.4,5.1l31.4,31.4
			l-14.2,0.8V276c0,11-0.8,23.6-9.5,30.2c-5.7,3.7-12.5,5.3-19.2,4.6c-7.5,0.3-14.7-2.8-19.6-8.4c-4.3-6.3-6.2-13.9-5.4-21.4
			L228.8,103.2z"/>
		<path id="Path_9203" class="st2" d="M320.1,141.1h10.3l0.3,128.4c0,20.9-0.3,43.4-12.1,60.6c-7.4,10.3-17.8,18.1-29.9,22.3
			c-12,4.1-24.7,5.8-37.3,5.1c-23.6-1-47.8-9.6-60.4-30.9c-3.7-6.4-6.3-13.4-7.8-20.6c-2.1-11.6-2.8-23.5-2.4-35.3V151.3
			c-0.4-3.2,0.4-6.4,2-9.1c2-2.5,6.8-2.9,8.1,0c0.3,1,0.5,2,0.5,3l-0.2,126.2c-0.3,10.6,0.3,21.2,2,31.7
			c1.7,10.5,6.5,20.3,13.7,28.2c12.7,10.9,29,16.6,45.7,15.9c10.6,0.5,21.2-0.7,31.4-3.7c10.2-3.1,19.2-9.3,25.6-17.7
			c10.1-14,10.5-32.4,10.5-49.6L320.1,141.1L320.1,141.1z"/>
	</g>
</g>
</svg>
