<svg width="257" height="257" viewBox="0 0 257 257" fill="none" xmlns="http://www.w3.org/2000/svg">
<g clip-path="url(#clip0_8210_9973)">
<path d="M66.2501 245.205C65.4477 245.493 64.7618 245.741 63.6229 246.139C66.5607 240.85 68.5666 235.505 71.9573 230.49C72.9409 231.631 73.8857 232.689 74.9339 233.911C73.3939 236.467 74.5586 238.679 75.7104 241.056C77.6129 241.097 78.3764 239.833 78.8294 238.225C79.2824 236.59 79.6577 234.956 80.1494 233.005C79.3082 232.373 78.3506 231.617 77.3411 230.916C74.9728 229.254 74.8822 228.457 77.0434 226.355C78.1564 225.269 79.4377 224.39 80.5118 223.264C82.8025 220.846 85.4297 220.53 88.3416 221.67C89.2216 222.013 90.1016 222.316 91.4346 222.824C90.3475 223.841 89.5969 224.72 88.691 225.283C88.1604 225.613 87.0862 225.792 86.7109 225.462C84.4202 223.387 82.5178 224.431 80.6283 226.053C79.9165 226.657 79.2047 227.275 78.3247 228.031C80.1883 229.666 82.1942 230.325 84.2261 229.955C87.8498 229.309 90.917 230.257 93.7771 232.579C96.8701 235.107 98.902 238.363 100.351 242.553C98.669 243.694 97.0513 244.82 95.2912 246.043C94.4242 244.381 93.7641 242.952 92.9747 241.605C91.2534 238.693 88.8592 238.39 86.4262 240.767C85.9473 241.234 85.572 241.839 85.0802 242.32C83.7731 243.625 82.479 244.944 81.0942 246.139C79.4506 247.582 77.5482 247.939 75.5034 247.183C75.0116 247.005 74.481 246.895 73.6527 247.211C74.1186 247.733 74.4939 248.543 75.0504 248.75C76.9011 249.409 78.8035 250.082 80.7318 250.302C82.8801 250.536 84.8085 251.154 86.4909 252.542C86.8921 252.871 87.0991 253.435 87.6815 254.355C79.1271 254.41 72.035 251.978 66.2371 245.246V245.219L66.2501 245.205Z" fill="#6B4E46"/>
<path d="M16.9551 180.123L21.0576 175.259C24.8754 177.128 27.632 180.205 29.5215 184.176C30.3239 185.852 30.8804 187.666 31.5921 189.397C32.1228 190.702 32.6534 192.007 33.3393 193.216C34.517 195.263 36.6135 195.14 37.7136 193.01C39.0466 190.455 40.3149 190.001 42.7738 191.224C44.3268 191.993 44.2362 193.711 44.6503 195.098C45.0515 196.445 43.9385 196.857 43.1103 197.365C42.735 197.599 42.3079 197.819 41.9843 198.135C40.8196 199.248 40.949 201.144 42.3338 201.927C43.4338 202.545 44.6244 202.957 45.8021 203.356C47.6657 203.988 49.5682 204.469 51.4447 205.101C55.5084 206.474 58.498 209.332 61.2028 213.028L57.165 217.823C56.9061 217.74 56.6861 217.727 56.5955 217.617C53.3083 213.234 49.0635 210.514 43.9127 209.291C42.1785 208.879 40.4831 208.261 38.8395 207.56C37.0665 206.804 36.8594 206.268 37.1312 204.29C37.403 202.339 37.7006 200.402 38.0371 197.956C36.0182 198.561 34.3487 199.042 32.6922 199.564C30.4533 200.264 29.8968 200.127 28.8097 197.942C27.9296 196.198 27.192 194.37 26.5708 192.502C24.9401 187.583 22.1706 183.681 17.9128 181.03C17.7057 180.892 17.5245 180.659 16.968 180.137H16.9421L16.9551 180.123Z" fill="#6B4E46"/>
<path d="M2.31799 130.03C1.68385 129.44 1.12735 128.917 0.234375 128.079C6.01932 128.134 11.3772 127.31 17.1751 127.914C16.7351 129.398 16.3468 130.786 15.8809 132.366C13.0337 132.229 11.8043 134.399 10.4454 136.653C11.3642 138.425 12.7749 138.494 14.315 138.109C15.868 137.71 17.408 137.243 19.2328 136.707C19.3234 135.622 19.4658 134.358 19.5434 133.08C19.7116 130.072 20.3199 129.591 23.1153 130.525C24.5648 131.006 25.9237 131.734 27.3731 132.16C30.4921 133.053 32.058 135.32 32.5887 138.562C32.744 139.538 32.9381 140.499 33.1969 141.983C31.8251 141.489 30.725 141.241 29.8062 140.692C29.2626 140.362 28.5767 139.469 28.6673 138.961C29.2109 135.828 27.412 134.592 25.1472 133.671C24.293 133.314 23.4389 132.97 22.3776 132.545C21.9765 135.073 22.4424 137.243 23.7495 138.933C26.0919 141.942 26.8425 145.226 26.3896 149.031C25.8719 153.139 24.2283 156.643 21.5364 160.078C19.7634 159.102 18.0422 158.182 16.1656 157.165C17.0974 155.53 17.9257 154.211 18.6245 152.823C20.1387 149.787 19.181 147.424 16.0362 146.38C15.415 146.174 14.7291 146.132 14.0949 145.926C12.3737 145.377 10.6525 144.841 8.98297 144.168C6.977 143.371 5.74754 141.805 5.33341 139.551C5.22987 139.002 5.04869 138.466 4.38866 137.862C4.19454 138.549 3.71569 139.304 3.83217 139.922C4.22042 141.956 4.62162 144.044 5.41106 145.926C6.2911 148.015 6.757 150.103 6.47228 152.343C6.40757 152.865 6.0452 153.345 5.59224 154.348C1.26971 146.503 -0.296237 138.782 2.30505 130.072L2.31799 130.03Z" fill="#6B4E46"/>
<path d="M30.7509 52.1848L36.7688 53.5174C37.1571 57.9689 36.0182 62.0219 33.7275 65.7452C32.7569 67.3252 31.5663 68.7403 30.505 70.2654C29.7156 71.4057 28.9003 72.546 28.2661 73.7826C27.179 75.8846 28.3308 77.7531 30.6215 77.6982C33.3652 77.6432 34.3746 78.5912 34.5946 81.4627C34.7499 83.2763 33.3004 84.0456 32.3816 85.131C31.4757 86.1752 30.5956 85.3646 29.7544 84.8563C29.3662 84.6227 28.9909 84.3479 28.5767 84.2105C27.0755 83.7022 25.6001 84.7601 25.6519 86.4225C25.7037 87.7415 25.9625 89.0467 26.2213 90.3381C26.6355 92.3715 27.192 94.3637 27.619 96.3971C28.5379 100.821 27.6967 104.998 26.0272 109.326L20.087 108.007C20.0352 107.732 19.9187 107.526 19.9705 107.388C21.9117 102.181 22.0023 96.9191 20.4234 91.5747C19.8928 89.7748 19.5564 87.9063 19.2975 86.0378C19.0257 84.0319 19.3622 83.5785 21.1094 82.8366C22.8306 82.1084 24.5648 81.4077 26.7261 80.5147C25.2248 78.9622 23.9954 77.657 22.753 76.4067C21.0576 74.7031 20.8893 74.1123 22.1317 72.024C23.1153 70.3478 24.2412 68.7403 25.4578 67.2428C28.6544 63.2859 30.4533 58.7932 30.4921 53.5449C30.4921 53.2839 30.5956 52.9954 30.7509 52.226V52.1848Z" fill="#6B4E46"/>
<path d="M64.2959 13.6604C64.4641 12.7811 64.6194 12.0117 64.8523 10.7752C67.6995 16.1197 71.0514 20.6399 73.4586 26.2729C72.035 26.6026 70.702 26.9461 69.1749 27.3033C67.8548 24.6242 65.4735 24.5692 62.9629 24.4456C61.9793 26.1767 62.6264 27.5094 63.7135 28.7322C64.8135 29.9549 65.9653 31.1365 67.3113 32.5654C68.2431 32.112 69.3431 31.6036 70.4173 31.0266C72.9668 29.6802 73.6527 29.9962 74.2869 33.0325C74.6233 34.5987 74.701 36.22 75.0763 37.7725C75.9046 41.0973 74.8433 43.6528 72.4621 45.7686C71.7503 46.4006 71.0514 47.0463 69.9773 48.0356C69.6925 46.5243 69.3561 45.3977 69.3431 44.271C69.3431 43.6116 69.7314 42.5399 70.1843 42.3613C73.0186 41.2897 73.1221 39.0227 72.7338 36.4673C72.6044 35.5055 72.4491 34.5438 72.2679 33.3622C70.0031 34.2553 68.4631 35.7666 67.7383 37.8274C66.4571 41.4958 64.1535 43.8314 60.8145 45.3015C57.2038 46.8952 53.5284 47.1288 49.387 46.3594C49.2835 44.2298 49.1799 42.1964 49.0764 39.957C50.8753 39.9982 52.3636 40.0944 53.8519 40.0394C57.0873 39.9158 58.5368 37.8549 57.812 34.4476C57.6567 33.7744 57.3591 33.1287 57.2167 32.428C56.8026 30.5732 56.3885 28.7184 56.0908 26.8499C55.7284 24.6104 56.4014 22.687 58.045 21.1894C58.4462 20.8185 58.7956 20.3788 58.9509 19.472C58.2909 19.6369 57.4367 19.5819 56.9967 19.9941C55.5214 21.368 54.0331 22.7832 52.8942 24.4318C51.6259 26.2866 50.1635 27.7567 48.1964 28.6085C47.7305 28.8146 47.161 28.7184 46.1257 28.8009C50.3576 20.9146 55.8837 15.5976 64.2829 13.6467H64.2959V13.6604Z" fill="#6B4E46"/>
<path d="M142.024 0.883081L143.939 7.0794C140.497 9.6486 136.627 10.6516 132.434 10.4043C130.661 10.2943 128.901 9.90965 127.141 9.68982C125.808 9.52495 124.488 9.36008 123.155 9.38756C120.89 9.44252 119.945 11.4347 121.136 13.5093C122.547 16.0098 122.275 17.3974 120.062 19.0461C118.664 20.0903 117.305 19.156 115.959 18.84C114.665 18.5378 114.872 17.315 114.872 16.2846C114.872 15.8174 114.911 15.3228 114.807 14.8694C114.484 13.2345 112.879 12.3964 111.546 13.2895C110.498 13.9901 109.566 14.8832 108.647 15.7625C107.198 17.1639 105.852 18.6614 104.402 20.0766C101.257 23.1266 97.4266 24.4456 93.0653 25.0776L91.1758 18.9637C91.3699 18.7713 91.4864 18.5653 91.6287 18.5515C96.8443 17.7272 101.193 15.1854 104.752 11.05C105.955 9.66234 107.314 8.41209 108.699 7.24427C110.2 5.98027 110.744 6.07645 112.206 7.31296C113.656 8.53574 115.105 9.78599 116.917 11.311C117.435 9.154 117.887 7.38166 118.276 5.59558C118.819 3.19124 119.208 2.75159 121.537 2.83403C123.401 2.90272 125.264 3.12255 127.102 3.4935C131.929 4.45524 136.498 3.86446 140.794 1.28151C141.014 1.15786 141.299 1.11665 141.998 0.855604V0.828125H142.011L142.024 0.883081Z" fill="#6B4E46"/>
<path d="M190.206 12.4651C191.008 12.1766 191.694 11.9293 192.846 11.5309C189.908 16.8204 187.902 22.1649 184.511 27.1797C183.528 26.0393 182.583 24.9814 181.535 23.7586C183.075 21.2032 181.91 18.9912 180.758 16.6143C178.856 16.5731 178.092 17.8371 177.639 19.4446C177.186 21.0795 176.798 22.7145 176.319 24.6654C177.161 25.2974 178.118 26.053 179.128 26.7537C181.509 28.4162 181.587 29.213 179.425 31.3151C178.312 32.4005 177.031 33.2935 175.957 34.4064C173.666 36.8245 171.039 37.1405 168.127 36.0001C167.247 35.6567 166.367 35.3407 165.034 34.846C166.121 33.8294 166.872 32.9501 167.778 32.3868C168.308 32.057 169.383 31.8784 169.758 32.2081C172.049 34.2827 173.951 33.2386 175.84 31.6036C176.552 30.9991 177.264 30.3809 178.144 29.6252C176.28 27.9903 174.275 27.3308 172.243 27.7017C168.619 28.3475 165.552 27.3995 162.692 25.0776C159.586 22.5496 157.567 19.2934 156.117 15.103C157.8 13.9489 159.417 12.8361 161.177 11.6133C162.045 13.2757 162.705 14.7046 163.494 16.051C165.215 18.9637 167.622 19.2659 170.043 16.8891C170.521 16.422 170.897 15.8174 171.389 15.3366C172.696 14.0314 173.99 12.7124 175.375 11.5171C177.031 10.0745 178.921 9.7173 180.965 10.4729C181.457 10.6516 182.001 10.7615 182.816 10.4455C182.35 9.92339 181.975 9.11278 181.418 8.90669C179.568 8.24722 177.665 7.574 175.737 7.35418C173.589 7.12062 171.66 6.50236 169.978 5.11471C169.577 4.78498 169.37 4.22167 168.787 3.30115C177.342 3.2462 184.434 5.67802 190.232 12.4102V12.4376L190.206 12.4651Z" fill="#6B4E46"/>
<path d="M239.514 77.5471L235.411 82.4107C231.593 80.5422 228.837 77.4646 226.947 73.494C226.145 71.8179 225.588 70.0043 224.877 68.2732C224.346 66.968 223.815 65.6628 223.129 64.4537C221.952 62.4066 219.855 62.5303 218.755 64.6598C217.422 67.2153 216.154 67.6687 213.695 66.4459C212.142 65.6765 212.233 63.9591 211.818 62.5715C211.417 61.2251 212.53 60.8129 213.358 60.3045C213.734 60.071 214.161 59.8511 214.484 59.5351C215.649 58.4223 215.52 56.5263 214.135 55.7432C213.035 55.1249 211.844 54.7127 210.667 54.3143C208.803 53.6823 206.901 53.2014 205.024 52.5694C200.96 51.1955 197.971 48.3515 195.266 44.642L199.304 39.8471C199.563 39.9295 199.783 39.9432 199.873 40.0532C203.16 44.4359 207.405 47.1563 212.556 48.379C214.29 48.7912 215.986 49.4232 217.629 50.1101C219.402 50.8658 219.609 51.4016 219.338 53.38C219.066 55.331 218.781 57.2682 218.432 59.7138C220.451 59.1092 222.12 58.6284 223.777 58.1063C226.015 57.4056 226.572 57.543 227.659 59.7275C228.526 61.4861 229.277 63.2997 229.898 65.1682C231.529 70.0868 234.298 73.9886 238.556 76.6403C238.776 76.7777 238.944 77.0112 239.501 77.5333H239.527L239.514 77.5471Z" fill="#6B4E46"/>
<path d="M254.151 127.64C254.785 128.23 255.341 128.753 256.234 129.591C250.449 129.536 245.092 130.36 239.294 129.756C239.734 128.272 240.122 126.884 240.588 125.304C243.435 125.441 244.665 123.271 246.023 121.017C245.105 119.245 243.694 119.176 242.154 119.561C240.601 119.96 239.061 120.427 237.236 120.963C237.145 122.048 237.003 123.312 236.925 124.59C236.757 127.598 236.149 128.079 233.353 127.145C231.904 126.664 230.545 125.936 229.096 125.51C225.977 124.617 224.411 122.35 223.88 119.108C223.725 118.132 223.531 117.171 223.272 115.687C224.644 116.181 225.744 116.429 226.663 116.978C227.206 117.308 227.892 118.201 227.801 118.709C227.258 121.842 229.057 123.078 231.322 123.999C232.176 124.356 233.03 124.7 234.091 125.125C234.492 122.597 234.026 120.427 232.719 118.737C230.377 115.728 229.613 112.444 230.079 108.639C230.584 104.531 232.24 101.027 234.932 97.5924C236.705 98.5678 238.427 99.4884 240.303 100.505C239.371 102.14 238.556 103.459 237.844 104.847C236.33 107.883 237.288 110.246 240.433 111.29C241.054 111.496 241.74 111.538 242.374 111.744C244.095 112.293 245.816 112.829 247.486 113.502C249.492 114.299 250.721 115.865 251.135 118.119C251.239 118.668 251.42 119.204 252.08 119.808C252.274 119.121 252.753 118.366 252.637 117.748C252.248 115.714 251.847 113.626 251.058 111.744C250.178 109.655 249.725 107.567 249.996 105.327C250.061 104.805 250.424 104.324 250.877 103.322C255.199 111.167 256.765 118.888 254.164 127.598L254.151 127.64Z" fill="#6B4E46"/>
<path d="M225.718 205.485L219.7 204.153C219.312 199.701 220.451 195.648 222.741 191.925C223.712 190.345 224.902 188.93 225.964 187.405C226.753 186.264 227.568 185.124 228.203 183.887C229.29 181.785 228.138 179.917 225.847 179.972C223.104 180.027 222.094 179.079 221.874 176.207C221.719 174.394 223.168 173.624 224.087 172.539C224.993 171.495 225.873 172.305 226.714 172.814C227.103 173.047 227.478 173.322 227.892 173.459C229.38 173.968 230.869 172.91 230.817 171.247C230.765 169.929 230.506 168.623 230.247 167.332C229.833 165.298 229.277 163.306 228.85 161.273C227.931 156.849 228.772 152.672 230.442 148.344L236.369 149.663C236.421 149.938 236.537 150.144 236.485 150.282C234.544 155.489 234.453 160.751 236.032 166.095C236.563 167.895 236.899 169.777 237.158 171.632C237.43 173.638 237.094 174.091 235.346 174.833C233.625 175.562 231.891 176.262 229.73 177.155C231.231 178.708 232.46 180.013 233.703 181.263C235.398 182.967 235.554 183.558 234.324 185.646C233.34 187.322 232.215 188.93 230.998 190.427C227.801 194.384 226.003 198.877 225.964 204.125C225.964 204.386 225.86 204.675 225.705 205.444V205.471L225.718 205.485Z" fill="#6B4E46"/>
<path d="M192.16 243.996C191.992 244.875 191.849 245.645 191.603 246.881C188.756 241.537 185.404 237.016 182.997 231.383C184.421 231.054 185.754 230.71 187.281 230.353C188.601 233.046 190.982 233.087 193.493 233.211C194.477 231.48 193.829 230.147 192.742 228.924C191.642 227.701 190.49 226.52 189.145 225.091C188.213 225.544 187.113 226.053 186.039 226.63C183.489 227.976 182.803 227.66 182.169 224.624C181.832 223.057 181.755 221.436 181.38 219.884C180.551 216.559 181.612 214.003 183.994 211.888C184.706 211.256 185.404 210.61 186.479 209.621C186.763 211.132 187.113 212.259 187.113 213.385C187.113 214.045 186.724 215.116 186.271 215.295C183.437 216.367 183.334 218.634 183.722 221.189C183.851 222.151 184.007 223.112 184.175 224.294C186.44 223.401 187.98 221.876 188.705 219.829C189.986 216.16 192.289 213.825 195.628 212.355C199.239 210.775 202.915 210.527 207.056 211.297C207.159 213.426 207.263 215.46 207.366 217.699C205.568 217.658 204.079 217.562 202.591 217.617C199.356 217.74 197.906 219.801 198.631 223.209C198.786 223.882 199.084 224.528 199.226 225.228C199.64 227.083 200.067 228.938 200.352 230.806C200.714 233.046 200.041 234.969 198.398 236.467C197.997 236.838 197.647 237.277 197.492 238.184C198.152 238.019 199.006 238.074 199.446 237.662C200.922 236.288 202.41 234.873 203.549 233.211C204.817 231.356 206.279 229.886 208.247 229.034C208.699 228.828 209.282 228.924 210.317 228.842C206.085 236.728 200.559 242.045 192.16 243.996Z" fill="#6B4E46"/>
<path d="M114.432 256.787L112.517 250.591C115.959 248.008 119.829 247.018 124.022 247.266C125.795 247.376 127.555 247.76 129.315 247.966C130.648 248.131 131.968 248.296 133.301 248.269C135.566 248.214 136.511 246.222 135.32 244.147C133.909 241.646 134.181 240.259 136.394 238.61C137.792 237.566 139.151 238.5 140.497 238.816C141.791 239.118 141.584 240.341 141.584 241.372C141.584 241.839 141.545 242.333 141.648 242.787C141.972 244.422 143.577 245.246 144.91 244.367C145.958 243.666 146.89 242.787 147.809 241.894C149.245 240.492 150.604 238.995 152.054 237.58C155.211 234.53 159.029 233.211 163.391 232.579L165.28 238.693C165.086 238.885 164.969 239.091 164.827 239.105C159.612 239.929 155.263 242.471 151.704 246.606C150.501 247.994 149.142 249.244 147.757 250.412C146.256 251.662 145.712 251.58 144.25 250.343C142.8 249.121 141.351 247.884 139.539 246.345C139.021 248.502 138.568 250.275 138.18 252.061C137.637 254.465 137.235 254.905 134.919 254.822C133.055 254.754 131.192 254.534 129.354 254.163C124.527 253.201 119.958 253.792 115.661 256.375C115.441 256.498 115.157 256.54 114.458 256.801V256.828H114.445L114.432 256.787Z" fill="#6B4E46"/>
</g>
<defs>
<clipPath id="clip0_8210_9973">
<rect width="256" height="256" fill="white" transform="translate(0.234375 0.828125)"/>
</clipPath>
</defs>
</svg>
