<svg width="525" height="548" viewBox="0 0 525 548" fill="none" xmlns="http://www.w3.org/2000/svg">
<g clip-path="url(#clip0_8250_28270)">
<path d="M289.991 528.503C295.829 529.441 298.621 526.029 300.858 515.382C303.479 514.323 304.447 514.359 307.026 515.684C307.156 520.487 305.769 524.734 302.062 527.934C298.39 531.104 293.828 531.195 289.064 531.147C290.192 534.008 291.945 535.805 294.276 537.015C295.829 537.832 297.493 537.807 299.028 536.954C300.362 536.216 301.708 535.369 302.823 534.317C305.072 532.205 307.386 532.587 309.912 533.573C306.194 539.653 297.493 541.147 287.223 537.444C287.919 540.796 289.548 543.343 292.358 544.547C294.973 545.666 297.889 546.017 301.053 546.791C295.48 549.967 286.095 546.604 281.255 539.991C274.739 542.853 268.234 542.562 261.653 539.132C262.827 537.432 264.427 537.934 265.826 537.983C266.522 538.007 267.207 538.352 267.868 538.618C272.974 540.711 276.256 539.489 279.301 534.141C278.516 534.123 277.867 534.129 277.23 534.081C274.491 533.881 271.652 534.081 269.031 533.379C263.754 531.957 260.755 527.989 258.855 522.411C260.354 522.199 261.523 522 262.691 521.867C264.332 521.685 265.247 522.454 266.021 523.996C267.083 526.108 268.287 528.285 269.904 529.955C272.98 533.107 276.592 532.683 279.791 529.138C278.068 528.443 276.338 527.868 274.721 527.069C268.069 523.742 265.678 515.297 269.42 508.727C270.023 507.674 270.796 507.142 271.888 507.209C273.186 507.287 274.485 507.565 276.049 507.801C275.73 509.169 275.5 510.264 275.223 511.34C274.373 514.456 274.266 517.571 275.482 520.614C276.386 522.895 277.72 524.801 280.37 525.938C280.264 524.976 280.145 524.311 280.116 523.633C280.033 521.722 280.559 519.931 282.223 519.023C283.823 518.158 284.248 516.846 284.608 515.267C285.889 509.628 287.229 504.026 288.557 498.4C289.655 493.718 290.788 493.204 295.504 495.551L290.599 516.519C290.239 518.068 289.932 519.477 290.9 521.032C291.821 522.514 291.549 524.287 291.006 525.926C290.723 526.791 290.357 527.632 290.021 528.509H289.997L289.991 528.503Z" fill="white"/>
<path d="M216.899 524.691C217.69 524.044 218.569 523.517 219.514 523.124C220.464 522.731 221.467 522.465 222.495 522.35C223.451 522.229 224.419 522.283 225.363 522.501L227.86 516.089C226.975 515.871 225.889 515.671 224.596 515.49C223.303 515.302 222.199 515.163 221.296 515.078L234.317 481.757L225.989 479.706L208.198 525.314L215.104 527.014C215.518 526.113 216.132 525.32 216.899 524.697V524.691Z" fill="white"/>
<path d="M160.116 510.832C161.078 512.841 162.819 514.153 165.345 514.783L167.045 515.2C169.424 515.805 171.933 515.472 174.046 514.262C176.271 513.034 177.947 510.99 179.087 508.122L182.67 499.181L174.819 497.251L171.378 506.017C170.634 508.049 169.761 508.939 168.757 508.685L168.568 508.636C167.618 508.4 167.5 507.269 168.255 505.248L173.219 492.617C173.786 493.288 174.418 493.899 175.108 494.438C175.74 494.952 176.472 495.321 177.257 495.521L177.446 495.569C179.901 496.174 181.837 495.745 183.248 494.287C184.659 492.829 185.892 490.693 186.949 487.88L189.764 480.548C190.296 479.126 190.733 477.844 191.069 476.682C191.382 475.696 191.523 474.662 191.482 473.621C191.453 472.804 191.146 472.024 190.614 471.401C189.871 470.687 188.938 470.215 187.935 470.034L187.651 469.961C186.754 469.755 185.833 469.719 184.93 469.846C183.903 469.979 182.888 470.215 181.914 470.56L182.481 468.999L174.63 467.069L160.511 503.452C159.295 506.356 159.171 508.818 160.133 510.832H160.116ZM179.665 476.235C180.356 474.994 181.111 474.48 181.932 474.68L182.121 474.728C183.065 474.958 183.106 476.071 182.239 478.068L179.057 486.531C178.195 488.521 177.316 489.411 176.436 489.193L175.787 489.036C175.569 488.981 175.374 488.854 175.232 488.673C175.091 488.497 175.02 488.273 175.014 488.049L179.659 476.241L179.665 476.235Z" fill="white"/>
<path d="M148.96 490.88L141.953 489.156L138.465 498.133C137.308 500.922 137.202 503.342 138.158 505.381C139.114 507.42 140.85 508.751 143.37 509.374L144.244 509.591C145.448 509.906 146.693 509.979 147.915 509.803C149.137 509.628 150.317 509.216 151.374 508.587C153.682 507.208 155.453 505.078 156.385 502.544L158.18 497.873C158.782 496.5 159.059 495.006 159 493.506C158.917 492.229 158.658 490.965 158.233 489.749C157.814 488.587 157.288 487.468 156.663 486.403C156.061 485.375 155.506 484.322 155.004 483.233C154.526 482.205 154.207 481.11 154.066 479.991C153.942 478.769 154.125 477.535 154.603 476.403L156.126 472.459C156.94 470.45 157.914 469.585 159.047 469.864L159.425 469.954C160.488 470.215 160.682 471.364 160.004 473.409L156.556 482.199L163.563 483.923L166.969 474.921C168.102 472.12 168.202 469.7 167.276 467.668C166.349 465.635 164.625 464.31 162.105 463.687L160.499 463.294C158.097 462.683 155.559 463.034 153.428 464.268C151.079 465.623 149.314 467.789 148.446 470.372L146.557 475.018C145.666 477.414 145.495 479.513 146.038 481.316C146.569 483.094 147.272 484.812 148.133 486.452C148.96 488 149.703 489.591 150.37 491.219C151.002 492.937 150.955 494.836 150.235 496.506L148.629 500.426C148.352 501.176 147.95 501.878 147.443 502.489C147.283 502.713 147.065 502.888 146.811 502.991C146.557 503.094 146.28 503.118 146.008 503.064L145.82 503.015C145.312 502.888 145.046 502.538 145.029 501.89C145.04 501.122 145.2 500.36 145.501 499.652L148.948 490.862L148.96 490.88Z" fill="white"/>
<path d="M116.2 499.979C117.157 502.024 118.898 503.355 121.418 503.978L122.268 504.189C123.472 504.504 124.718 504.577 125.946 504.401C127.173 504.226 128.348 503.814 129.41 503.185C131.718 501.806 133.489 499.676 134.428 497.142L136.222 492.471C136.818 491.098 137.102 489.604 137.042 488.103C136.966 486.821 136.706 485.557 136.275 484.347C135.856 483.185 135.331 482.066 134.711 481.001C134.103 479.973 133.548 478.914 133.052 477.831C132.574 476.803 132.255 475.708 132.114 474.589C131.99 473.367 132.173 472.133 132.651 471.001L134.174 467.057C134.988 465.048 135.962 464.183 137.096 464.462L137.456 464.552C138.518 464.813 138.713 465.968 138.034 468.007L134.587 476.797L141.593 478.521L145.005 469.525C146.133 466.724 146.233 464.304 145.312 462.272C144.391 460.233 142.668 458.908 140.147 458.291L138.536 457.898C136.133 457.287 133.595 457.638 131.459 458.866C129.115 460.221 127.35 462.399 126.495 464.982L124.606 469.628C123.714 472.024 123.543 474.123 124.086 475.926C124.617 477.698 125.32 479.416 126.182 481.056C127.008 482.61 127.752 484.195 128.419 485.823C129.05 487.541 129.003 489.44 128.283 491.11L126.677 495.03C126.4 495.786 125.999 496.482 125.491 497.099C125.332 497.323 125.113 497.499 124.859 497.601C124.606 497.704 124.328 497.728 124.057 497.674L123.868 497.626C123.36 497.499 123.095 497.148 123.077 496.5C123.089 495.726 123.248 494.964 123.549 494.256L126.996 485.466L119.949 483.73L116.46 492.707C115.339 495.508 115.25 497.928 116.206 499.973L116.2 499.979Z" fill="white"/>
<path d="M183.254 516.476C184.393 518.563 186.288 519.936 188.944 520.583L200.195 523.348L217.926 477.716L209.609 475.671L206.723 483.094L203.695 482.35C201.316 481.691 198.807 481.733 196.464 482.477C194.292 483.215 192.598 485.042 191.382 487.952L183.289 508.853C182.121 511.848 182.109 514.395 183.26 516.476H183.254ZM192.202 509.616L198.89 492.586C199.734 490.118 200.726 489.023 201.859 489.301L204.049 489.839L194.475 514.492L192.498 514.008C191.234 513.699 191.146 512.235 192.22 509.622H192.208L192.202 509.616Z" fill="white"/>
<path d="M87.6731 449.193C90.6008 454.456 94.9392 454.565 104.46 449.72C106.904 451.159 107.482 451.958 108.078 454.85C104.496 457.947 100.393 459.484 95.6416 458.51C90.9372 457.542 88.0213 453.948 85.0877 450.101C83.6062 452.787 83.3288 455.316 83.86 457.935C84.2082 459.683 85.2648 461.008 86.8703 461.704C88.2692 462.309 89.7508 462.865 91.2501 463.101C94.2604 463.585 95.4173 465.678 96.2378 468.316C89.2845 469.127 82.7149 463.089 79.132 452.551C77.013 455.195 76.0804 458.092 76.9126 461.093C77.6918 463.882 79.2383 466.435 80.6195 469.466C74.7228 466.979 71.435 457.36 73.4655 449.363C67.2205 445.927 63.3838 440.536 61.8964 433.12C63.9269 433.005 64.5407 434.596 65.3789 435.745C65.7921 436.314 65.9574 437.076 66.164 437.778C67.7518 443.174 70.7267 445.043 76.706 444.148C76.2279 443.507 75.8206 442.986 75.4606 442.448C73.9082 440.131 71.9839 437.971 70.8861 435.437C68.6785 430.325 69.8354 425.443 72.9047 420.44C74.0026 421.51 74.8821 422.321 75.7085 423.174C76.8654 424.378 76.8536 425.588 76.1571 427.167C75.2068 429.339 74.2978 431.662 74.0321 433.991C73.5481 438.419 76.1217 441.045 80.8201 441.407C80.2771 439.593 79.6337 437.85 79.2383 436.054C77.6268 428.649 82.5791 421.468 89.9279 420.373C91.1084 420.198 91.9938 420.488 92.6254 421.401C93.3809 422.49 93.9712 423.7 94.768 425.104C93.5226 425.703 92.5486 426.199 91.5511 426.646C88.6411 427.911 86.2033 429.762 84.6391 432.636C83.4645 434.783 82.8388 437.04 83.6239 439.877C84.2909 439.193 84.7218 438.685 85.2294 438.238C86.6401 436.979 88.3342 436.283 90.0577 437.052C91.7164 437.796 92.9854 437.318 94.408 436.622C99.5019 434.136 104.619 431.71 109.737 429.272C113.993 427.233 115.097 427.82 116.242 433.065L113.349 434.45C107.96 437.04 102.577 439.617 97.1822 442.206C95.7774 442.884 94.5083 443.519 93.9298 445.261C93.3691 446.925 91.8521 447.814 90.2643 448.401C89.4321 448.715 88.5585 448.945 87.679 449.224L87.6672 449.199L87.6731 449.193Z" fill="white"/>
<path d="M45.0029 388.25C45.9886 388.479 46.939 388.861 47.8244 389.369C48.7215 389.883 49.542 390.524 50.2739 391.274C50.9645 391.964 51.5253 392.775 51.9444 393.664L58.39 391.668C58.0064 390.821 57.481 389.828 56.814 388.679C56.1529 387.53 55.5686 386.556 55.0728 385.775L88.6114 375.437L84.9872 367.487L39.1062 381.668L42.1165 388.256C43.0609 388.026 44.0526 388.02 45.0029 388.244V388.25Z" fill="white"/>
<path d="M20.1707 334.106C19.2381 336.126 19.3207 338.34 20.4186 340.76L21.1564 342.382C22.1776 344.662 23.9956 346.465 26.2386 347.409C28.5642 348.425 31.1672 348.492 34.0654 347.621L43.12 344.916L39.6965 337.421L30.8603 340.131C28.8475 340.803 27.6257 340.657 27.1889 339.696L27.1062 339.514C26.6931 338.607 27.484 337.802 29.4968 337.149L42.2287 333.247C42.0694 334.118 41.9985 335.007 42.0162 335.896C42.0162 336.719 42.1933 337.542 42.5298 338.292L42.6124 338.474C43.6808 340.821 45.2155 342.103 47.2105 342.321C49.2056 342.539 51.5962 342.2 54.3999 341.293L61.7487 338.976C63.1653 338.516 64.4166 338.062 65.5086 337.608C66.4589 337.245 67.3325 336.713 68.0999 336.036C68.7019 335.503 69.1092 334.771 69.2509 333.955C69.3335 332.914 69.1151 331.873 68.6193 330.954L68.4953 330.682C68.094 329.835 67.545 329.072 66.8839 328.425C66.1402 327.681 65.3315 327.022 64.458 326.447L65.9985 325.927L62.575 318.431L26.0202 329.804C23.0512 330.639 21.0915 332.073 20.153 334.1L20.1707 334.106ZM58.7501 328.201C60.1254 327.977 60.9872 328.262 61.3473 329.048L61.4299 329.23C61.8431 330.131 61.0167 330.857 58.9567 331.402L50.516 334.13C48.456 334.68 47.2341 334.535 46.8505 333.688L46.5672 333.071C46.4727 332.86 46.4491 332.624 46.4963 332.4C46.5435 332.176 46.6675 331.976 46.8387 331.837L58.7442 328.201H58.7501Z" fill="white"/>
<path d="M28.4404 312.726L25.3887 306.041L16.3636 308.842C13.5127 309.653 11.6061 311.08 10.644 313.113C9.68187 315.152 9.7527 317.372 10.8506 319.78L11.2343 320.614C11.7478 321.77 12.4679 322.816 13.3651 323.688C14.2623 324.559 15.3071 325.242 16.4522 325.702C18.9431 326.694 21.6701 326.779 24.1905 325.95L28.8713 324.474C30.2938 324.099 31.6042 323.391 32.7139 322.411C33.6406 321.546 34.4433 320.554 35.0985 319.453C35.7183 318.394 36.2495 317.275 36.6686 316.107C37.0759 314.982 37.5363 313.881 38.0498 312.804C38.5338 311.782 39.1713 310.844 39.9386 310.028C40.7945 309.162 41.8511 308.545 43.008 308.225L46.9628 306.985C48.9992 306.386 50.2682 306.628 50.764 307.711L50.9293 308.068C51.3897 309.084 50.6342 309.955 48.6568 310.687L39.8029 313.409L42.8545 320.094L51.8442 317.215C54.6893 316.374 56.5958 314.946 57.5697 312.937C58.5437 310.929 58.4787 308.721 57.3809 306.313L56.6785 304.777C55.6455 302.472 53.798 300.657 51.5255 299.719C49.0287 298.685 46.2722 298.618 43.7635 299.532L39.0415 300.917C36.6568 301.697 34.9509 302.865 33.9121 304.426C32.885 305.956 32.0114 307.59 31.3031 309.308C30.6361 310.935 29.8865 312.526 29.066 314.069C28.1511 315.648 26.6696 316.791 24.946 317.257L20.9559 318.418C20.2062 318.666 19.4271 318.781 18.642 318.757C18.3705 318.769 18.1049 318.703 17.8629 318.564C17.6268 318.424 17.432 318.213 17.308 317.965L17.2254 317.783C17.0011 317.299 17.1133 316.864 17.5914 316.452C18.1875 315.98 18.8663 315.63 19.5983 315.436L28.4522 312.72L28.4404 312.726Z" fill="white"/>
<path d="M1.0699 292.151C0.107777 294.19 0.172705 296.416 1.27059 298.824L1.64246 299.635C2.15598 300.79 2.8761 301.837 3.7733 302.714C4.67049 303.585 5.71526 304.275 6.86036 304.729C9.35126 305.721 12.0783 305.805 14.5987 304.983L19.2795 303.507C20.6961 303.131 22.0124 302.424 23.1221 301.438C24.0488 300.579 24.8515 299.58 25.5067 298.479C26.1265 297.421 26.6577 296.301 27.0827 295.14C27.49 294.015 27.9504 292.908 28.4639 291.831C28.9479 290.808 29.5854 289.871 30.3527 289.054C31.2086 288.189 32.2652 287.572 33.4221 287.251L37.3828 286.017C39.4192 285.418 40.6882 285.66 41.184 286.743L41.3434 287.088C41.8097 288.104 41.0483 288.975 39.0709 289.707L30.217 292.43L33.2686 299.115L42.2583 296.235C45.0975 295.394 47.004 293.966 47.9838 291.958C48.9637 289.949 48.8987 287.741 47.8009 285.334L47.0985 283.797C46.0655 281.492 44.218 279.677 41.9455 278.733C39.4487 277.705 36.6922 277.644 34.1835 278.57L29.4615 279.955C27.0768 280.736 25.3709 281.903 24.3321 283.464C23.3109 284.995 22.4373 286.628 21.7231 288.34C21.0561 289.968 20.3065 291.559 19.4801 293.107C18.5652 294.686 17.0896 295.83 15.3601 296.295L11.37 297.457C10.6203 297.705 9.84118 297.82 9.05023 297.796C8.77871 297.808 8.51309 297.741 8.27109 297.602C8.03498 297.463 7.8402 297.257 7.71624 297.003L7.6336 296.822C7.40931 296.338 7.52145 295.902 7.99957 295.491C8.59573 295.019 9.28043 294.668 10.0065 294.474L18.8604 291.752L15.791 285.025L6.76592 287.826C3.92677 288.673 2.03203 290.113 1.064 292.157L1.0699 292.151Z" fill="white"/>
<path d="M30.2936 356.162C29.4083 358.376 29.5499 360.754 30.7068 363.283L35.6119 374.027L81.4811 359.786L77.8569 351.843L70.396 354.16L69.0738 351.268C68.094 348.951 66.4943 346.967 64.4698 345.557C62.5514 344.275 60.1018 344.057 57.1269 344.898L36.1372 351.443C33.121 352.375 31.179 353.954 30.2995 356.174L30.2936 356.162ZM41.1072 359.054L58.2661 353.791C60.6803 352.932 62.1323 353.041 62.6222 354.117L63.5785 356.204L38.8052 363.906L37.9434 362.018C37.3945 360.814 38.451 359.828 41.1131 359.06V359.048L41.1072 359.054Z" fill="white"/>
<path d="M22.0244 237.62C19.8346 243.246 22.4612 246.791 32.0884 251.401C32.5134 254.257 32.2655 255.219 30.4297 257.499C25.8316 256.562 22.1012 254.226 19.8818 249.81C17.686 245.436 18.6068 240.857 19.7165 236.108C16.7475 236.598 14.6462 237.953 12.9757 240.01C11.8542 241.377 11.506 243.053 11.9782 244.771C12.3855 246.271 12.8931 247.802 13.6427 249.151C15.1479 251.867 14.2743 254.093 12.775 256.398C7.82275 251.329 8.33037 242.303 14.1385 232.865C10.7977 232.811 8.00573 233.876 6.24085 236.41C4.59992 238.776 3.61419 241.607 2.16805 244.602C0.391363 238.328 5.6742 229.695 13.0407 226.332C11.7716 219.187 13.4893 212.75 18.2172 206.931C19.5689 208.485 18.7367 209.968 18.3825 211.359C18.2054 212.049 17.7273 212.654 17.32 213.259C14.1917 217.893 14.6226 221.444 19.0377 225.678C19.2325 224.898 19.3683 224.251 19.5571 223.622C20.354 220.929 20.8026 218.05 22.0539 215.582C24.5803 210.627 29.0249 208.51 34.7505 207.85C34.6206 209.399 34.5498 210.609 34.414 211.801C34.2192 213.476 33.2866 214.22 31.6457 214.65C29.3968 215.243 27.0594 215.963 25.1115 217.203C21.4283 219.574 21.0328 223.277 23.6831 227.263C24.7278 225.697 25.6545 224.099 26.7819 222.66C31.4273 216.755 39.992 216.247 45.4106 221.444C46.2783 222.278 46.6088 223.168 46.3019 224.245C45.9418 225.527 45.387 226.761 44.8144 228.274C43.5867 227.651 42.595 227.179 41.627 226.658C38.8469 225.116 35.9133 224.317 32.7495 224.85C30.3825 225.249 28.2694 226.156 26.593 228.552C27.5316 228.661 28.1868 228.685 28.8419 228.812C30.6777 229.157 32.2655 230.082 32.7554 231.946C33.2217 233.736 34.3786 234.456 35.7952 235.164C40.8715 237.699 45.9064 240.282 50.959 242.859C55.1676 244.995 55.4096 246.247 52.1218 250.433L49.2591 248.981C43.9231 246.271 38.599 243.573 33.263 240.863C31.87 240.155 30.595 239.538 28.9069 240.161C27.2896 240.748 25.6663 240.089 24.2261 239.181C23.4647 238.709 22.7504 238.153 21.989 237.62L22.0008 237.596L22.0244 237.62Z" fill="white"/>
<path d="M41.9161 165.431C42.3529 166.362 42.6598 167.361 42.8192 168.395C42.9845 169.436 43.0081 170.494 42.89 171.547C42.7897 172.527 42.5241 173.489 42.105 174.378L47.6475 178.298C48.0489 177.464 48.4857 176.423 48.9461 175.171C49.4065 173.925 49.7902 172.848 50.0735 171.964L78.8723 192.388L82.6795 184.523L43.256 156.598L40.104 163.12C40.8713 163.731 41.4852 164.523 41.9102 165.425L41.9161 165.431Z" fill="white"/>
<path d="M67.7343 111.782C65.6153 112.296 63.9743 113.742 62.8174 116.132L62.0442 117.735C60.9404 119.973 60.6984 122.556 61.3772 124.94C62.0501 127.432 63.6261 129.568 66.0934 131.34L73.8022 136.912L77.3851 129.495L69.812 124.105C68.0471 122.907 67.3979 121.843 67.8583 120.893L67.9468 120.717C68.3777 119.822 69.4874 119.955 71.2405 121.159L82.1544 128.927C81.387 129.344 80.6669 129.84 79.9999 130.409C79.3683 130.923 78.8548 131.576 78.4948 132.314L78.4062 132.49C77.2847 134.813 77.2611 136.84 78.3354 138.57C79.4097 140.306 81.1627 142.012 83.6064 143.688L89.9576 148.128C91.1913 148.975 92.3187 149.695 93.3398 150.288C94.2075 150.82 95.1578 151.189 96.1554 151.383C96.9345 151.534 97.7491 151.401 98.4633 151.008C99.3074 150.427 99.9685 149.598 100.358 148.63L100.488 148.364C100.883 147.517 101.125 146.604 101.202 145.666C101.308 144.607 101.302 143.543 101.202 142.49L102.56 143.403L106.143 135.987L74.6758 113.785C72.1849 111.927 69.871 111.25 67.7402 111.764L67.7343 111.782ZM96.2911 139.011C97.3182 139.973 97.6428 140.844 97.2651 141.625L97.1765 141.8C96.7456 142.696 95.6773 142.484 93.9773 141.177L86.6345 136.114C84.9345 134.807 84.2793 133.736 84.6866 132.901L84.9817 132.29C85.0821 132.085 85.2473 131.921 85.448 131.818C85.6487 131.722 85.8789 131.691 86.0914 131.74L96.2911 139.011Z" fill="white"/>
<path d="M89.1962 105.073L92.3954 98.4548L84.6334 92.9678C82.237 91.1892 79.9586 90.548 77.8041 91.0501C75.6497 91.5522 73.9969 92.992 72.8459 95.3695L72.4445 96.1983C71.8779 97.3296 71.5355 98.5576 71.4234 99.822C71.3171 101.086 71.447 102.351 71.813 103.549C72.6098 106.162 74.2448 108.406 76.4465 109.901L80.4898 112.732C81.6585 113.639 83.022 114.25 84.4623 114.529C85.6959 114.734 86.9591 114.752 88.2045 114.595C89.4027 114.432 90.5833 114.16 91.7343 113.772C92.844 113.397 93.9714 113.083 95.1165 112.823C96.1966 112.575 97.3122 112.502 98.4101 112.605C99.6025 112.75 100.736 113.21 101.698 113.942L105.11 116.337C106.839 117.596 107.441 118.763 106.928 119.834L106.756 120.191C106.272 121.195 105.133 121.135 103.345 120.003L95.748 114.601L92.5488 121.219L100.352 126.628C102.766 128.382 105.045 129.023 107.187 128.552C109.33 128.08 110.971 126.652 112.122 124.268L112.854 122.75C113.969 120.487 114.2 117.874 113.503 115.466C112.736 112.823 111.071 110.572 108.805 109.132L104.803 106.21C102.725 104.789 100.765 104.147 98.9236 104.287C97.1175 104.42 95.3231 104.74 93.57 105.236C91.9114 105.714 90.235 106.108 88.541 106.41C86.7643 106.658 84.9699 106.192 83.5414 105.097L80.1652 102.623C79.51 102.175 78.9374 101.625 78.4652 100.977C78.2822 100.772 78.1701 100.512 78.1288 100.233C78.0874 99.9551 78.1288 99.6708 78.2409 99.4106L78.3294 99.2352C78.5596 98.7573 78.961 98.5697 79.5749 98.6968C80.3068 98.8783 80.9974 99.2049 81.5995 99.6708L89.1962 105.073Z" fill="white"/>
<path d="M87.8266 70.3186C85.6662 70.8207 84.0135 72.2605 82.8625 74.6441L82.4729 75.4487C81.9063 76.58 81.5639 77.8141 81.4518 79.0724C81.3455 80.3368 81.4754 81.6011 81.8413 82.805C82.6382 85.4184 84.2732 87.6628 86.4749 89.1631L90.5182 91.9943C91.6869 92.8957 93.0504 93.5128 94.4906 93.785C95.7243 93.9907 96.9874 94.0149 98.2329 93.8516C99.4311 93.6882 100.612 93.416 101.763 93.0288C102.872 92.6537 104.006 92.3331 105.145 92.073C106.225 91.825 107.341 91.7524 108.439 91.8552C109.631 92.0004 110.764 92.4602 111.732 93.1922L115.144 95.5939C116.873 96.8522 117.475 98.0197 116.962 99.0905L116.797 99.4293C116.313 100.434 115.173 100.373 113.385 99.2418L105.788 93.8395L102.589 100.458L110.392 105.866C112.806 107.614 115.085 108.256 117.227 107.79C119.37 107.324 121.017 105.896 122.168 103.513L122.906 101.988C124.021 99.7257 124.252 97.1123 123.555 94.7046C122.788 92.0609 121.111 89.8165 118.845 88.3827L114.843 85.4608C112.765 84.0391 110.805 83.3979 108.964 83.537C107.158 83.6761 105.369 83.9907 103.616 84.4868C101.957 84.9647 100.275 85.3579 98.5811 85.6604C96.8045 85.9084 95.0101 85.4426 93.5816 84.3476L90.2112 81.8734C89.5561 81.4257 88.9835 80.8752 88.5113 80.2279C88.3283 80.0222 88.2162 79.762 88.1748 79.4838C88.1335 79.2055 88.1748 78.9212 88.2811 78.6671L88.3696 78.4916C88.5998 78.0137 89.0012 77.8262 89.6151 77.9532C90.347 78.1347 91.0376 78.4674 91.6456 78.9272L99.2422 84.3295L102.459 77.6749L94.6972 72.1879C92.2831 70.4396 89.9987 69.8165 87.8443 70.3186H87.8266Z" fill="white"/>
<path d="M57.2216 133.646C54.9786 134.324 53.255 135.909 52.0509 138.413L46.9156 149.043L86.3805 176.913L90.1759 169.055L83.7597 164.518L85.1409 161.656C86.2978 159.43 86.8114 156.907 86.6284 154.403C86.41 152.067 85.0524 149.968 82.5497 148.105L64.47 135.364C61.8787 133.531 59.4646 132.957 57.2216 133.64V133.646ZM61.7489 144.112L76.4582 154.584C78.6185 155.982 79.439 157.21 78.9255 158.28L77.9279 160.349L56.6077 145.298L57.5108 143.429C58.0834 142.237 59.5 142.473 61.743 144.124V144.112H61.7489Z" fill="white"/>
<path d="M142.491 53.1074C136.836 54.8618 135.768 59.1751 138.253 69.762C136.34 71.8854 135.449 72.2786 132.568 72.2362C130.42 67.9652 129.871 63.5248 131.854 58.9937C133.82 54.5049 137.887 52.3935 142.201 50.3185C139.976 48.2435 137.633 47.4026 135.024 47.3542C133.283 47.3119 131.789 48.0741 130.768 49.526C129.877 50.7844 129.027 52.1455 128.466 53.5914C127.333 56.4952 125.09 57.1788 122.398 57.4147C123.177 50.2883 130.384 45.0675 141.204 43.8334C139.162 41.1231 136.612 39.5502 133.572 39.7136C130.744 39.8709 127.97 40.8509 124.783 41.5587C128.46 36.223 138.341 35.0796 145.495 38.8848C150.152 33.4099 156.137 30.7783 163.522 30.9417C163.179 32.9925 161.527 33.2526 160.246 33.8334C159.608 34.1237 158.847 34.1177 158.138 34.1661C152.655 34.5472 150.217 37.1123 149.733 43.2828C150.447 42.9501 151.032 42.6597 151.622 42.4178C154.172 41.3833 156.651 39.9435 159.307 39.405C164.661 38.3343 169.046 40.5787 173.119 44.759C171.856 45.618 170.888 46.3197 169.896 46.955C168.498 47.8442 167.346 47.5599 165.995 46.5133C164.141 45.0796 162.135 43.6579 159.974 42.8715C155.872 41.4014 152.797 43.3917 151.409 48.0015C153.257 47.8624 155.057 47.6083 156.852 47.6144C164.254 47.6507 169.979 54.1963 169.389 61.7825C169.294 63.0045 168.822 63.8212 167.807 64.2447C166.603 64.7529 165.316 65.0796 163.805 65.5635C163.516 64.1903 163.256 63.1013 163.055 62.0064C162.5 58.8182 161.279 55.9689 158.9 53.7668C157.117 52.1153 155.11 50.99 152.242 51.1413C152.743 51.958 153.133 52.5024 153.446 53.1074C154.325 54.7952 154.615 56.6404 153.499 58.1951C152.425 59.6833 152.596 61.0626 152.944 62.6355C154.178 68.2798 155.347 73.9301 156.527 79.5865C157.519 84.2931 156.716 85.261 151.474 85.2429L150.796 82.0426C149.532 76.0777 148.275 70.131 147.018 64.1661C146.687 62.6113 146.363 61.2018 144.834 60.2399C143.376 59.3143 142.868 57.5962 142.662 55.8781C142.55 54.9767 142.526 54.0511 142.455 53.1134H142.479L142.491 53.1074Z" fill="white"/>
<path d="M209.957 24.0329C209.521 24.9646 208.948 25.8357 208.263 26.604C207.573 27.3844 206.782 28.068 205.902 28.6246C205.094 29.157 204.196 29.5441 203.252 29.7619L203.718 36.6464C204.61 36.4467 205.672 36.1503 206.912 35.7389C208.151 35.3336 209.208 34.9646 210.064 34.6439L212.437 70.4515L220.806 68.6004L217.53 19.5986L210.589 21.1412C210.595 22.1334 210.382 23.1255 209.957 24.0269V24.0329Z" fill="white"/>
<path d="M266.982 11.2742C265.271 9.89489 263.14 9.48352 260.602 10.0461L258.896 10.4273C256.499 10.9354 254.38 12.3571 252.981 14.3897C251.5 16.4829 250.851 19.0782 251.04 22.1635L251.594 31.8126L259.486 30.0582L258.872 20.6269C258.683 18.4672 259.091 17.2754 260.106 17.0576L260.295 17.0153C261.251 16.8035 261.835 17.7715 262.012 19.9312L262.892 33.5186C262.095 33.1617 261.269 32.8955 260.419 32.714C259.634 32.5325 258.813 32.5265 258.022 32.6958L257.833 32.7382C255.366 33.2887 253.802 34.5349 253.153 36.4768C252.503 38.4188 252.291 40.887 252.533 43.8937L253.1 51.7521C253.218 53.2645 253.377 54.6196 253.56 55.8114C253.696 56.8398 254.009 57.8319 254.481 58.7515C254.853 59.4714 255.461 60.04 256.204 60.3667C257.172 60.6813 258.217 60.6934 259.197 60.403L259.48 60.3425C260.372 60.1308 261.222 59.7557 261.983 59.2354C262.857 58.6607 263.665 57.9953 264.403 57.2512L264.556 58.9088L272.448 57.1544L269.768 18.0982C269.633 14.9463 268.706 12.6717 266.988 11.2803L266.982 11.2742ZM264.019 51.135C263.925 52.5567 263.465 53.3613 262.632 53.5428L262.443 53.5851C261.493 53.7969 260.985 52.8108 260.926 50.6329L260.206 41.5948C260.141 39.417 260.555 38.2252 261.44 38.0316L262.089 37.8864C262.308 37.838 262.538 37.8683 262.738 37.965C262.939 38.0618 263.104 38.2312 263.199 38.4309L264.008 51.135H264.019Z" fill="white"/>
<path d="M285.481 24.2923L292.523 22.7315L291.868 13.0884C291.732 10.0576 290.8 7.83735 289.076 6.42174C287.352 5.00614 285.222 4.58266 282.689 5.14528L281.81 5.33886C280.594 5.59295 279.437 6.08297 278.41 6.78472C277.383 7.48647 276.498 8.38181 275.807 9.42235C274.308 11.6909 273.623 14.4012 273.847 17.0993L274.207 22.1023C274.249 23.6026 274.626 25.0787 275.317 26.4036C275.931 27.5167 276.698 28.5451 277.601 29.4465C278.469 30.3056 279.419 31.0799 280.429 31.7635C281.408 32.4229 282.353 33.1247 283.262 33.8809C284.13 34.5947 284.879 35.4356 285.481 36.3854C286.113 37.432 286.467 38.6238 286.514 39.8579L286.815 44.0866C286.933 46.2584 286.42 47.4683 285.281 47.7224L284.903 47.8071C283.834 48.043 283.173 47.0932 282.92 44.9517L282.306 35.4961L275.264 37.0569L276.002 46.6818C276.167 49.7066 277.1 51.9329 278.794 53.3546C280.488 54.7762 282.601 55.1997 285.139 54.6371L286.756 54.2801C289.182 53.7659 291.319 52.3201 292.718 50.2572C294.258 47.9946 294.937 45.2541 294.619 42.5439L294.353 37.5167C294.14 34.9638 293.408 32.9976 292.157 31.6123C290.929 30.2451 289.566 29.011 288.096 27.916C286.697 26.8875 285.351 25.7865 284.065 24.6189C282.766 23.3485 282.005 21.6183 281.946 19.7974L281.727 15.5506C281.656 14.746 281.727 13.9414 281.922 13.161C281.969 12.8888 282.093 12.6347 282.276 12.429C282.465 12.2233 282.701 12.0781 282.973 12.0055L283.162 11.9632C283.669 11.8482 284.059 12.0539 284.348 12.6226C284.667 13.3243 284.844 14.0805 284.867 14.8488L285.481 24.2983V24.2923Z" fill="white"/>
<path d="M311.146 1.52194C309.416 0.106329 307.285 -0.323193 304.753 0.23942L303.897 0.426958C302.681 0.681041 301.525 1.17106 300.497 1.87281C299.465 2.57457 298.585 3.46991 297.894 4.51044C296.401 6.77904 295.705 9.48926 295.935 12.1874L296.295 17.1904C296.336 18.6907 296.714 20.1608 297.405 21.4917C298.018 22.6109 298.786 23.6332 299.689 24.5346C300.557 25.3937 301.501 26.168 302.516 26.8516C303.496 27.505 304.446 28.2128 305.355 28.969C306.223 29.6828 306.973 30.5237 307.575 31.4735C308.206 32.5201 308.56 33.7119 308.608 34.946L308.903 39.1747C309.021 41.3465 308.507 42.5564 307.368 42.8105L307.008 42.8891C305.94 43.125 305.279 42.1753 305.025 40.0337L304.411 30.5782L297.369 32.139L298.107 41.7639C298.278 44.7887 299.205 47.0149 300.899 48.4366C302.593 49.8583 304.706 50.2878 307.238 49.7252L308.856 49.3682C311.282 48.848 313.418 47.4082 314.817 45.3453C316.352 43.0827 317.025 40.3362 316.7 37.626L316.435 32.5987C316.222 30.0458 315.49 28.0797 314.239 26.6943C313.011 25.3332 311.648 24.093 310.178 23.0041C308.779 21.9756 307.433 20.8746 306.146 19.701C304.848 18.4366 304.086 16.7064 304.027 14.8795L303.815 10.6387C303.744 9.83409 303.815 9.02949 304.01 8.24909C304.057 7.97686 304.181 7.72278 304.364 7.51709C304.553 7.31141 304.789 7.16621 305.054 7.09362L305.243 7.05127C305.751 6.93633 306.14 7.14202 306.43 7.71068C306.748 8.41243 306.925 9.16863 306.955 9.94298L307.569 19.3985L314.652 17.8256L313.997 8.18255C313.826 5.15775 312.875 2.94359 311.146 1.52194Z" fill="white"/>
<path d="M243.75 16.4765C241.837 15.1032 239.547 14.71 236.885 15.3029L225.576 17.8135L228.917 66.8152L237.275 64.958L236.732 56.9846L239.777 56.3071C242.197 55.8473 244.44 54.6858 246.235 52.9798C247.882 51.3464 248.631 48.9508 248.495 45.7868L246.943 23.3549C246.725 20.1365 245.656 17.8377 243.744 16.4705L243.75 16.4765ZM238.591 26.6338L239.777 44.952C240.061 47.5533 239.63 48.981 238.496 49.2351L236.295 49.7251L234.483 23.2581L236.472 22.8165C237.741 22.5322 238.443 23.8086 238.579 26.6398H238.591V26.6338Z" fill="white"/>
<path d="M358.349 34.5956C353.485 31.1595 349.525 32.9925 343.002 41.5829C340.193 41.3712 339.331 40.9114 337.572 38.5702C339.49 34.1843 342.536 30.978 347.229 29.7439C351.874 28.5218 356.029 30.4638 360.297 32.6295C360.492 29.5503 359.671 27.1546 358.083 25.0252C357.033 23.6035 355.516 22.8836 353.775 22.9683C352.258 23.0409 350.687 23.2042 349.235 23.658C346.314 24.5594 344.395 23.1921 342.536 21.1776C348.456 17.3543 356.932 19.877 364.618 27.7777C365.409 24.4505 365.019 21.4257 363 19.0966C361.117 16.9308 358.638 15.3156 356.118 13.2043C362.481 12.8231 369.517 20.0282 371.075 28.1347C378.158 28.4553 383.896 31.6071 388.376 37.6265C386.599 38.6368 385.371 37.4692 384.126 36.8098C383.512 36.4831 383.04 35.8661 382.556 35.3276C378.843 31.1716 375.372 30.8146 370.361 34.2811C371.063 34.6501 371.648 34.9344 372.197 35.2551C374.581 36.6525 377.22 37.7414 379.286 39.5382C383.441 43.1619 384.462 48.0742 383.813 53.9483C382.373 53.4704 381.234 53.1316 380.13 52.7324C378.577 52.1637 378.076 51.0687 378.034 49.3325C377.969 46.955 377.804 44.4565 377.06 42.2363C375.62 38.0318 372.191 36.8098 367.805 38.5702C369.062 39.9616 370.379 41.2442 371.494 42.69C376.081 48.6428 374.658 57.318 368.502 61.5708C367.51 62.2544 366.595 62.3875 365.639 61.8431C364.5 61.1957 363.449 60.367 362.139 59.4595C363.006 58.3706 363.673 57.4873 364.387 56.6343C366.471 54.2024 367.888 51.4498 368.082 48.1649C368.23 45.7088 367.841 43.3978 365.934 41.1897C365.621 42.1032 365.45 42.7566 365.184 43.3797C364.446 45.1401 363.213 46.5194 361.336 46.592C359.53 46.6586 358.585 47.6507 357.599 48.9151C354.064 53.422 350.481 57.8806 346.904 62.3573C343.935 66.0899 342.689 66.0475 339.437 61.837L341.456 59.3022C345.222 54.5714 348.976 49.8588 352.736 45.128C353.716 43.8939 354.589 42.7566 354.371 40.9296C354.17 39.1812 355.162 37.7051 356.348 36.471C356.968 35.8177 357.659 35.2248 358.331 34.5835L358.349 34.6017V34.5956Z" fill="white"/>
<path d="M422.593 70.5305C421.607 70.7604 420.592 70.845 419.571 70.7785C418.544 70.712 417.528 70.5002 416.56 70.1493C415.646 69.8348 414.796 69.3568 414.04 68.7398L409.076 73.404C409.778 73.9908 410.676 74.6563 411.762 75.3943C412.848 76.1324 413.78 76.7555 414.559 77.2334L388.724 101.462L395.358 107.016L430.691 73.8396L425.19 69.2419C424.434 69.8711 423.549 70.3127 422.593 70.5365V70.5305Z" fill="white"/>
<path d="M467.884 108.268C467.866 106.036 466.857 104.076 464.844 102.388L463.492 101.256C461.61 99.6533 459.207 98.8427 456.787 98.9879C454.267 99.1089 451.882 100.204 449.645 102.279L442.633 108.74L448.889 113.967L455.701 107.596C457.23 106.096 458.393 105.685 459.19 106.356L459.337 106.483C460.093 107.119 459.721 108.189 458.186 109.678L448.364 118.855C448.14 117.996 447.827 117.167 447.431 116.374C447.083 115.63 446.576 114.971 445.95 114.445L445.802 114.318C443.843 112.678 441.918 112.206 440.03 112.896C438.141 113.586 436.128 114.959 433.985 117.022L428.348 122.376C427.268 123.416 426.33 124.384 425.539 125.279C424.836 126.03 424.276 126.895 423.868 127.851C423.55 128.595 423.496 129.442 423.709 130.24C424.075 131.214 424.712 132.055 425.545 132.66L425.769 132.847C426.489 133.428 427.304 133.876 428.171 134.16C429.151 134.499 430.166 134.735 431.193 134.862L430.025 136.017L436.281 141.244L464.401 114.741C466.721 112.666 467.878 110.506 467.866 108.262L467.884 108.268ZM435.626 130.748C434.481 131.559 433.584 131.686 432.929 131.141L432.781 131.014C432.026 130.385 432.462 129.363 434.086 127.953L440.531 121.74C442.155 120.331 443.317 119.919 444.02 120.506L444.533 120.936C444.704 121.081 444.828 121.287 444.876 121.511C444.923 121.734 444.899 121.964 444.805 122.17L435.62 130.742L435.626 130.748Z" fill="white"/>
<path d="M469.489 131.208L475.073 135.872L482.02 129.332C484.246 127.33 485.361 125.201 485.367 122.938C485.367 120.675 484.37 118.703 482.357 117.021L481.66 116.441C480.71 115.624 479.618 115.007 478.438 114.614C477.263 114.227 476.029 114.075 474.802 114.172C472.139 114.39 469.643 115.521 467.724 117.391L464.13 120.802C463.008 121.77 462.123 122.992 461.538 124.372C461.072 125.557 460.771 126.816 460.641 128.098C460.529 129.326 460.529 130.573 460.641 131.807C460.747 132.998 460.801 134.196 460.795 135.4C460.795 136.538 460.612 137.663 460.269 138.74C459.862 139.901 459.177 140.93 458.268 141.728L455.228 144.608C453.647 146.054 452.401 146.398 451.498 145.642L451.197 145.394C450.353 144.686 450.666 143.561 452.136 142.024L458.965 135.636L453.381 130.972L446.499 137.566C444.291 139.587 443.175 141.722 443.152 143.966C443.122 146.211 444.12 148.171 446.127 149.853L447.408 150.923C449.314 152.545 451.746 153.355 454.19 153.192C456.875 153.017 459.39 151.849 461.261 149.907L464.932 146.562C466.75 144.801 467.795 142.986 468.067 141.117C468.344 139.284 468.439 137.421 468.356 135.557C468.267 133.797 468.267 132.031 468.356 130.27C468.515 128.437 469.359 126.755 470.717 125.564L473.822 122.744C474.388 122.188 475.049 121.74 475.764 121.413C476 121.28 476.271 121.22 476.543 121.244C476.814 121.268 477.08 121.365 477.298 121.534L477.446 121.662C477.853 122 477.936 122.436 477.682 123.023C477.346 123.712 476.879 124.329 476.307 124.832L469.483 131.22L469.489 131.208Z" fill="white"/>
<path d="M502.857 137.572C502.857 135.303 501.859 133.331 499.847 131.649L499.168 131.08C498.217 130.264 497.125 129.64 495.945 129.253C494.77 128.866 493.531 128.715 492.309 128.812C489.647 129.029 487.15 130.161 485.232 132.024L481.637 135.436C480.516 136.404 479.63 137.626 479.052 139.005C478.579 140.191 478.278 141.449 478.154 142.732C478.042 143.96 478.042 145.206 478.154 146.44C478.267 147.638 478.32 148.836 478.308 150.034C478.308 151.171 478.125 152.296 477.783 153.373C477.375 154.535 476.691 155.563 475.782 156.362L472.736 159.235C471.154 160.681 469.909 161.026 469.005 160.27L468.722 160.028C467.872 159.32 468.185 158.195 469.661 156.658L476.49 150.27L470.906 145.605L464.024 152.193C461.822 154.214 460.706 156.349 460.677 158.594C460.647 160.838 461.633 162.798 463.646 164.48L464.933 165.551C466.839 167.172 469.271 167.983 471.721 167.826C474.406 167.644 476.915 166.47 478.78 164.522L482.452 161.177C484.27 159.417 485.314 157.602 485.586 155.732C485.857 153.899 485.952 152.036 485.869 150.179C485.781 148.412 485.781 146.652 485.869 144.885C486.029 143.052 486.873 141.371 488.23 140.179L491.335 137.36C491.902 136.803 492.563 136.356 493.283 136.023C493.519 135.89 493.79 135.829 494.062 135.853C494.334 135.878 494.599 135.974 494.818 136.144L494.965 136.271C495.372 136.61 495.455 137.045 495.201 137.632C494.865 138.328 494.398 138.939 493.826 139.441L486.997 145.829L492.61 150.53L499.557 143.99C501.753 141.97 502.857 139.822 502.863 137.553L502.857 137.572Z" fill="white"/>
<path d="M449.426 92.896C449.285 90.5064 448.157 88.4314 446.044 86.6649L437.078 79.1694L401.78 112.4L408.409 117.941L414.152 112.539L416.566 114.56C418.432 116.211 420.71 117.288 423.136 117.657C425.409 117.959 427.705 117.064 430.03 114.983L446.174 99.7562C448.494 97.5784 449.58 95.2916 449.426 92.902V92.896ZM438.465 95.098L425.231 107.469C423.425 109.321 422.068 109.865 421.165 109.109L419.417 107.651L438.477 89.6958L440.053 91.0146C441.056 91.8555 440.525 93.2106 438.447 95.092H438.459L438.465 95.098Z" fill="white"/>
<path d="M507.06 196.023C506.653 189.979 502.786 187.953 492.156 188.08C490.562 185.696 490.385 184.722 491.07 181.849C495.615 180.651 499.959 181.092 503.825 184.081C507.656 187.045 508.76 191.582 509.775 196.35C512.242 194.589 513.565 192.435 514.196 189.84C514.627 188.11 514.232 186.446 513.081 185.103C512.077 183.936 510.973 182.78 509.728 181.897C507.219 180.118 507.066 177.723 507.444 174.982C514.055 177.348 517.413 185.708 516.18 196.791C519.208 195.351 521.273 193.155 521.793 190.082C522.271 187.221 521.958 184.232 521.994 180.893C526.255 185.757 525.146 195.884 519.928 202.187C524.101 208.062 525.275 214.625 523.475 221.97C521.598 221.171 521.716 219.465 521.451 218.056C521.315 217.36 521.492 216.598 521.604 215.872C522.46 210.306 520.565 207.299 514.798 205.442C514.958 206.235 515.105 206.882 515.2 207.523C515.619 210.3 516.433 213.101 516.357 215.872C516.18 221.461 513.075 225.345 508.187 228.485C507.65 227.033 507.202 225.908 506.818 224.777C506.281 223.18 506.806 222.097 508.105 220.977C509.881 219.447 511.682 217.759 512.909 215.769C515.223 211.994 514.013 208.485 509.935 206.071C509.657 207.947 509.498 209.804 509.09 211.601C507.408 218.987 499.906 223.252 492.823 220.977C491.684 220.608 491.011 219.955 490.834 218.848C490.615 217.529 490.592 216.174 490.468 214.559C491.843 214.577 492.929 214.559 494.021 214.601C497.173 214.752 500.16 214.172 502.786 212.278C504.752 210.869 506.275 209.108 506.765 206.21C505.874 206.531 505.271 206.797 504.628 206.973C502.828 207.481 501.004 207.354 499.776 205.89C498.596 204.48 497.25 204.347 495.674 204.347C490.031 204.323 484.394 204.232 478.751 204.154C474.053 204.099 473.309 203.077 474.495 197.844L495.532 198.08C497.085 198.098 498.495 198.086 499.753 196.773C500.957 195.527 502.704 195.4 504.386 195.575C505.272 195.666 506.157 195.847 507.066 195.987V196.011L507.06 196.023Z" fill="white"/>
<path d="M519.703 269.907C518.912 269.26 518.215 268.498 517.631 267.638C517.041 266.773 516.569 265.83 516.232 264.831C515.908 263.906 515.736 262.92 515.736 261.934L509.084 260.869C509.072 261.801 509.125 262.932 509.238 264.263C509.35 265.594 509.462 266.731 509.58 267.657L474.991 262.061L474.89 270.839L522.229 278.467L522.306 271.19C521.356 270.978 520.464 270.542 519.703 269.913V269.907Z" fill="white"/>
<path d="M519.154 329.725C520.848 328.322 521.71 326.283 521.746 323.621L521.763 321.83C521.811 319.32 520.931 316.888 519.308 315.043C517.643 313.095 515.324 311.873 512.349 311.377L503.046 309.786L502.958 318.062L512.065 319.55C514.161 319.84 515.2 320.518 515.188 321.576V321.776C515.176 322.78 514.119 323.149 512.03 322.841L498.908 320.693C499.422 319.979 499.865 319.211 500.219 318.4C500.567 317.656 500.756 316.84 500.768 316.011V315.811C500.797 313.222 499.959 311.383 498.259 310.3C496.559 309.217 494.251 308.461 491.341 308.031L483.739 306.852C482.269 306.634 480.947 306.489 479.772 306.41C478.763 306.313 477.748 306.41 476.768 306.676C476 306.888 475.322 307.366 474.849 308.037C474.336 308.939 474.094 309.973 474.147 311.02V311.322C474.147 312.26 474.318 313.192 474.637 314.069C474.991 315.067 475.446 316.023 475.983 316.924L474.371 316.706L474.283 324.982L512.036 330.996C515.07 331.564 517.437 331.141 519.137 329.731L519.154 329.725ZM481.897 317.892C480.563 317.481 479.908 316.84 479.914 315.974V315.775C479.926 314.777 480.976 314.492 483.066 314.916L491.825 316.21C493.915 316.628 494.954 317.305 494.942 318.237V318.921C494.93 319.15 494.853 319.374 494.712 319.556C494.576 319.737 494.381 319.858 494.163 319.913L481.897 317.898V317.892Z" fill="white"/>
<path d="M502.657 345.309L502.58 352.689L511.9 354.178C514.816 354.716 517.136 354.28 518.865 352.871C520.595 351.461 521.474 349.429 521.504 346.773L521.515 345.847C521.545 344.577 521.338 343.313 520.902 342.127C520.465 340.941 519.81 339.858 518.971 338.939C517.148 336.936 514.722 335.648 512.107 335.273L507.267 334.522C505.826 334.226 504.345 334.281 502.928 334.674C501.73 335.037 500.585 335.581 499.528 336.277C498.519 336.954 497.569 337.729 496.695 338.588C495.851 339.417 494.971 340.203 494.051 340.947C493.183 341.655 492.209 342.212 491.176 342.611C490.037 343.01 488.827 343.101 487.646 342.871L483.556 342.23C481.466 341.867 480.427 341.086 480.439 339.888V339.489C480.457 338.37 481.508 337.922 483.597 338.14L492.728 339.628L492.805 332.248L483.485 330.844C480.569 330.336 478.243 330.772 476.514 332.151C474.785 333.53 473.911 335.545 473.881 338.201L473.864 339.895C473.816 342.429 474.714 344.885 476.366 346.743C478.179 348.787 480.634 350.07 483.278 350.36L488.119 351.213C490.598 351.57 492.628 351.274 494.228 350.33C495.798 349.405 497.279 348.322 498.649 347.094C499.941 345.926 501.287 344.825 502.68 343.797C504.174 342.78 505.992 342.405 507.739 342.756L511.823 343.488C512.603 343.597 513.352 343.845 514.055 344.214C514.302 344.323 514.515 344.504 514.674 344.734C514.828 344.964 514.916 345.242 514.922 345.521V345.72C514.916 346.253 514.633 346.597 514.025 346.761C513.287 346.924 512.526 346.93 511.788 346.785L502.663 345.297L502.657 345.309Z" fill="white"/>
<path d="M518.605 376.017C520.335 374.607 521.22 372.569 521.25 369.913L521.261 369.018C521.291 367.747 521.084 366.483 520.648 365.297C520.211 364.111 519.556 363.029 518.717 362.109C516.893 360.107 514.468 358.818 511.853 358.443L507.012 357.693C505.572 357.402 504.091 357.451 502.674 357.844C501.476 358.207 500.331 358.745 499.274 359.447C498.265 360.125 497.315 360.899 496.441 361.752C495.597 362.587 494.717 363.379 493.797 364.117C492.929 364.825 491.955 365.388 490.922 365.781C489.783 366.18 488.573 366.271 487.392 366.041L483.302 365.394C481.212 365.031 480.173 364.251 480.185 363.053V362.672C480.203 361.546 481.254 361.099 483.343 361.323L492.474 362.811L492.551 355.43L483.231 354.021C480.315 353.519 477.995 353.954 476.26 355.327C474.53 356.701 473.651 358.715 473.621 361.377L473.604 363.077C473.557 365.612 474.454 368.068 476.101 369.931C477.913 371.97 480.374 373.252 483.024 373.531L487.864 374.384C490.344 374.741 492.374 374.45 493.974 373.5C495.544 372.575 497.019 371.492 498.389 370.264C499.681 369.096 501.027 367.995 502.426 366.967C503.92 365.95 505.738 365.575 507.485 365.926L511.569 366.658C512.348 366.767 513.098 367.015 513.801 367.384C514.048 367.493 514.261 367.675 514.42 367.904C514.574 368.134 514.662 368.407 514.668 368.691V368.891C514.662 369.423 514.379 369.768 513.771 369.925C513.033 370.088 512.272 370.094 511.534 369.949L502.403 368.461L502.32 375.89L511.64 377.378C514.556 377.88 516.876 377.42 518.605 376.011V376.017Z" fill="white"/>
<path d="M519.372 305.351C521.108 303.748 521.987 301.546 522.017 298.757L522.147 286.9L474.79 279.338L474.695 288.104L482.398 289.338L482.363 292.532C482.263 295.055 482.865 297.553 484.092 299.725C485.279 301.734 487.392 303.016 490.432 303.585L512.112 307.021C515.223 307.523 517.643 306.967 519.372 305.351ZM510.861 297.934L493.177 295.043C490.638 294.746 489.375 294.002 489.387 292.81L489.411 290.506L514.993 294.583L514.969 296.67C514.957 298.001 513.582 298.418 510.861 297.922V297.934Z" fill="white"/>
<path d="M476.637 415.829C480.988 411.733 480.126 407.371 473.403 398.938C474.229 396.174 474.861 395.423 477.482 394.183C481.23 397.075 483.597 400.832 483.732 405.799C483.862 410.717 481.088 414.431 478.084 418.218C480.964 419.102 483.431 418.811 485.81 417.698C487.398 416.96 488.419 415.611 488.726 413.851C488.992 412.32 489.186 410.717 489.08 409.162C488.874 406.047 490.603 404.425 492.929 403.016C495.248 409.785 490.963 417.692 481.737 423.615C484.724 425.145 487.687 425.429 490.355 423.929C492.84 422.532 494.924 420.414 497.491 418.364C496.441 424.806 488.024 430.233 479.961 429.985C478.084 436.99 473.804 442.024 467.081 445.157C466.52 443.155 467.896 442.187 468.805 441.092C469.253 440.547 469.944 440.215 470.564 439.852C475.345 437.069 476.454 433.675 474.276 427.898C473.775 428.515 473.373 429.041 472.936 429.519C471.077 431.588 469.454 433.984 467.288 435.653C462.914 438.999 458.015 438.926 452.572 436.972C453.346 435.635 453.924 434.576 454.55 433.56C455.435 432.138 456.592 431.878 458.251 432.223C460.523 432.689 462.937 433.082 465.216 432.828C469.537 432.326 471.461 429.168 470.758 424.395C469.153 425.345 467.642 426.367 466.019 427.166C459.337 430.42 451.404 427.069 448.724 419.979C448.293 418.835 448.376 417.892 449.102 417.057C449.969 416.065 450.991 415.2 452.148 414.086C452.992 415.194 453.682 416.059 454.331 416.96C456.179 419.586 458.487 421.612 461.568 422.538C463.87 423.233 466.16 423.354 468.681 421.939C467.884 421.425 467.299 421.11 466.762 420.705C465.251 419.573 464.212 418.037 464.561 416.143C464.897 414.322 464.165 413.161 463.179 411.89C459.679 407.353 456.238 402.78 452.773 398.212C449.887 394.419 450.2 393.179 454.934 390.868L456.899 393.451C460.559 398.261 464.212 403.064 467.872 407.88C468.828 409.132 469.714 410.257 471.502 410.451C473.208 410.638 474.389 411.963 475.303 413.415C475.787 414.177 476.201 415 476.661 415.817L476.643 415.835L476.637 415.829Z" fill="white"/>
<path d="M428.159 472.029C428.159 470.995 428.307 469.96 428.596 468.956C428.885 467.946 429.316 466.978 429.865 466.089C430.367 465.248 431.016 464.504 431.766 463.887L428.431 457.891C427.717 458.466 426.884 459.21 425.94 460.13C424.996 461.049 424.199 461.848 423.567 462.519L406.267 431.309L399.508 436.7L423.207 479.392L428.809 474.915C428.378 474.02 428.153 473.034 428.159 472.029Z" fill="white"/>
<path d="M382.184 508.884C384.315 509.368 386.404 508.787 388.458 507.154L389.834 506.053C391.775 504.528 393.086 502.308 393.481 499.858C393.93 497.311 393.416 494.692 391.941 491.993L387.354 483.548L380.986 488.636L385.53 496.863C386.617 498.727 386.746 499.979 385.932 500.626L385.778 500.747C385.005 501.364 384.067 500.747 382.998 498.884L376.452 487.033C377.32 486.996 378.176 486.869 379.02 486.658C379.805 486.47 380.543 486.113 381.186 485.611L381.34 485.49C383.335 483.899 384.214 482.084 383.978 480.039C383.742 478.001 382.886 475.684 381.399 473.082L377.562 466.258C376.812 464.946 376.098 463.796 375.425 462.804C374.87 461.939 374.168 461.183 373.348 460.566C372.71 460.082 371.919 459.84 371.11 459.876C370.107 460.027 369.163 460.475 368.395 461.171L368.165 461.352C367.451 461.939 366.849 462.659 366.377 463.464C365.834 464.371 365.385 465.327 365.037 466.325L364.198 464.897L357.83 469.985L376.783 503.984C378.241 506.767 380.041 508.4 382.172 508.89L382.184 508.884ZM367.982 471.649C367.469 470.324 367.539 469.398 368.212 468.866L368.366 468.745C369.133 468.134 370.007 468.793 370.986 470.729L375.461 478.551C376.44 480.487 376.576 481.739 375.856 482.314L375.331 482.732C375.154 482.871 374.935 482.949 374.711 482.949C374.487 482.949 374.274 482.871 374.097 482.732L367.988 471.643L367.982 471.649Z" fill="white"/>
<path d="M360.008 505.381L354.33 509.918L359.005 518.315C360.409 520.983 362.192 522.574 364.341 523.082C366.495 523.591 368.59 523.028 370.639 521.395L371.347 520.826C372.333 520.058 373.165 519.102 373.796 518.013C374.428 516.924 374.847 515.726 375.024 514.48C375.414 511.77 374.888 509.023 373.537 506.694L371.093 502.344C370.42 501.007 369.458 499.852 368.272 498.963C367.245 498.231 366.123 497.65 364.931 497.239C363.786 496.851 362.605 496.573 361.401 496.41C360.244 496.252 359.093 496.035 357.954 495.762C356.874 495.508 355.841 495.079 354.896 494.492C353.881 493.827 353.061 492.913 352.5 491.824L350.44 488.146C349.413 486.24 349.366 484.922 350.286 484.19L350.593 483.948C351.455 483.258 352.453 483.821 353.592 485.635L358.149 493.881L363.833 489.344L359.093 481.001C357.659 478.346 355.882 476.755 353.751 476.228C351.62 475.702 349.537 476.259 347.494 477.892L346.19 478.932C344.224 480.475 342.908 482.726 342.524 485.206C342.094 487.928 342.643 490.699 344.077 493.004L346.444 497.414C347.713 499.622 349.206 501.068 350.924 501.758C352.606 502.441 354.359 502.949 356.148 503.282C357.842 503.585 359.524 503.978 361.177 504.462C362.883 505.024 364.299 506.246 365.126 507.868L367.121 511.6C367.522 512.29 367.805 513.046 367.953 513.839C368.03 514.105 368.024 514.389 367.941 514.655C367.858 514.922 367.705 515.163 367.498 515.345L367.345 515.466C366.932 515.793 366.495 515.787 365.999 515.399C365.415 514.909 364.937 514.304 364.582 513.621L360.026 505.381H360.008Z" fill="white"/>
<path d="M346.526 537.305C348.681 537.813 350.782 537.251 352.83 535.617L353.521 535.067C354.507 534.299 355.345 533.343 355.976 532.254C356.608 531.165 357.027 529.961 357.204 528.721C357.594 526.011 357.068 523.264 355.723 520.935L353.279 516.585C352.606 515.248 351.638 514.093 350.457 513.204C349.43 512.466 348.309 511.885 347.111 511.48C345.966 511.092 344.785 510.814 343.587 510.651C342.424 510.499 341.273 510.282 340.134 510.003C339.054 509.749 338.021 509.32 337.076 508.733C336.061 508.068 335.241 507.154 334.674 506.065L332.614 502.387C331.587 500.481 331.54 499.163 332.46 498.431L332.75 498.201C333.611 497.511 334.615 498.074 335.748 499.888L340.305 508.134L345.989 503.597L341.249 495.254C339.815 492.605 338.038 491.014 335.907 490.481C333.783 489.949 331.693 490.506 329.651 492.139L328.346 493.185C326.381 494.728 325.064 496.979 324.675 499.459C324.25 502.181 324.811 504.952 326.245 507.251L328.612 511.661C329.881 513.869 331.374 515.315 333.092 516.005C334.774 516.682 336.527 517.196 338.31 517.523C340.01 517.832 341.686 518.219 343.345 518.703C345.051 519.265 346.467 520.487 347.294 522.109L349.283 525.835C349.684 526.525 349.968 527.281 350.121 528.074C350.198 528.34 350.192 528.624 350.109 528.89C350.027 529.156 349.873 529.398 349.666 529.58L349.513 529.701C349.1 530.028 348.663 530.022 348.167 529.634C347.583 529.144 347.105 528.539 346.751 527.856L342.194 519.61L336.474 524.178L341.149 532.574C342.583 535.224 344.378 536.797 346.532 537.305H346.526Z" fill="white"/>
<path d="M400.913 493.863C403.221 494.25 405.446 493.585 407.595 491.867L416.72 484.577L392.962 441.915L386.216 447.305L390.082 454.244L387.626 456.21C385.637 457.705 384.108 459.743 383.217 462.085C382.426 464.287 382.763 466.779 384.226 469.568L395.123 489.084C396.681 491.885 398.611 493.482 400.919 493.863H400.913ZM401.261 482.417L392.437 466.44C391.079 464.22 390.861 462.744 391.782 462.012L393.558 460.596L406.397 483.633L404.791 484.916C403.77 485.732 402.595 484.898 401.273 482.405H401.261V482.417Z" fill="white"/>
</g>
<defs>
<clipPath id="clip0_8250_28270">
<rect width="524.22" height="548" fill="white" transform="translate(0.394531)"/>
</clipPath>
</defs>
</svg>
