<svg width="218" height="112" viewBox="0 0 218 112" fill="none" xmlns="http://www.w3.org/2000/svg">
<g clip-path="url(#clip0_8250_28272)">
<path d="M216.681 74.2826C216.231 72.0446 215.331 69.8379 214.05 67.7777C214 67.694 213.95 67.6208 213.9 67.5372C213.86 67.464 213.82 67.4012 213.77 67.3385C213.73 67.2757 213.69 67.213 213.66 67.1502C213.6 67.0456 213.53 66.9515 213.47 66.847C213.44 66.8051 213.41 66.7528 213.38 66.711C213.34 66.6482 213.31 66.596 213.27 66.5332C213.22 66.4495 213.17 66.3763 213.12 66.2927C213.08 66.2299 213.04 66.1567 212.99 66.094C212.95 66.0312 212.92 65.9685 212.88 65.9057C212.83 65.8325 212.79 65.7489 212.74 65.6756C212.7 65.6024 212.65 65.5397 212.61 65.4665C212.57 65.4037 212.53 65.341 212.5 65.2782C212.439 65.1737 212.369 65.0795 212.309 64.975C212.279 64.9331 212.249 64.8913 212.219 64.839C211.539 63.72 210.739 62.6428 209.848 61.6179C212.309 59.0871 214.03 55.9706 214.7 52.7495C215.461 49.1729 214.921 45.4394 213.18 42.2392C212.96 41.8314 212.72 41.434 212.469 41.0366C212.419 40.9634 212.379 40.8797 212.329 40.8065C212.289 40.7333 212.249 40.6705 212.199 40.5973C212.159 40.5346 212.129 40.4823 212.089 40.4195C212.019 40.315 211.959 40.2104 211.889 40.1058C211.859 40.064 211.839 40.0221 211.809 39.9803C211.769 39.9176 211.739 39.8548 211.699 39.7921C211.649 39.7189 211.609 39.6352 211.559 39.562C211.519 39.4992 211.479 39.426 211.429 39.3633C211.389 39.3005 211.359 39.2378 211.319 39.175C211.269 39.1018 211.229 39.0182 211.179 38.945C211.139 38.8718 211.099 38.809 211.049 38.7358C211.009 38.6731 210.979 38.6208 210.939 38.558C210.869 38.4534 210.809 38.3489 210.739 38.2443C210.709 38.2024 210.689 38.1606 210.659 38.1188C208.928 35.3892 206.317 33.0362 203.206 31.4361C199.874 29.721 196.063 28.853 192.171 28.8948C191.871 28.0373 191.511 27.1588 191.091 26.3012C190.86 25.8306 190.6 25.3809 190.34 24.9208C190.11 24.5234 189.87 24.126 189.62 23.7495C189.58 23.6867 189.54 23.624 189.5 23.5612C189.39 23.3834 189.28 23.2057 189.17 23.0383C189.15 23.0069 189.13 22.9756 189.11 22.9442C189.02 22.7978 188.94 22.6514 188.85 22.5154C188.81 22.4527 188.77 22.3899 188.73 22.3272C188.639 22.1808 188.559 22.0344 188.469 21.8984C188.429 21.8357 188.389 21.7624 188.349 21.6997C188.239 21.5219 188.129 21.3441 188.019 21.1768C187.999 21.1454 187.979 21.1036 187.959 21.0722C187.439 20.2669 186.879 19.4826 186.268 18.7505C185.148 17.4015 183.787 16.1569 182.247 15.0589C180.666 13.9398 179.015 13.03 177.325 12.3921C173.853 11.0221 169.962 10.426 166.06 10.656C165.25 10.7083 164.429 10.8024 163.629 10.9279C160.668 11.3881 157.827 12.3189 155.185 13.6784L154.315 14.1281L153.755 13.396C150.854 9.47428 146.992 6.21138 142.59 3.95244C137.928 1.58893 132.786 0.417635 127.724 0.553589C126.223 0.574505 124.693 0.71046 123.202 0.950994C119.571 1.51573 116.099 2.64519 112.938 4.30802C108.606 6.49374 104.684 9.74618 101.603 13.7098L101.433 13.9294L101.193 13.7934C96.961 11.1476 92.2891 9.33832 87.6871 8.56443C85.2361 8.13565 82.7751 7.94741 80.334 8.01015C78.9635 8.05199 77.5629 8.17748 76.1823 8.3971C75.1419 8.56443 74.0914 8.77359 73.061 9.03504C70.65 9.65206 68.379 10.5201 66.2981 11.6077C64.1873 12.7372 62.2565 14.0863 60.5357 15.6445C57.1443 18.6982 54.5132 22.5363 52.9025 26.7823L52.8825 26.8137L52.7725 26.7823C49.0609 25.8515 45.2393 25.6424 41.7178 26.1966C41.3577 26.2489 41.0075 26.3221 40.6574 26.3849C36.6057 27.1902 32.9742 28.9157 30.173 31.3629C28.7924 32.5656 27.6119 33.9879 26.6515 35.5879C25.7211 37.1148 25.0508 38.7881 24.6907 40.566C24.3405 42.2497 24.2205 44.0171 24.3505 45.8368C24.4306 46.778 24.5506 47.646 24.7207 48.4408C24.8007 48.8801 24.9208 49.3089 25.0408 49.7795L25.2309 50.4069L25.381 50.8462C25.401 50.9403 25.421 51.0553 25.421 51.1704C25.421 51.275 25.421 51.3795 25.401 51.4946C24.9008 51.9129 24.3405 52.2894 23.8203 52.5508L23.4602 52.7286L22.4598 53.2934C21.5994 53.8267 20.9191 54.3078 20.3689 54.7993C19.0683 55.9288 18.0079 57.236 17.2276 58.7002C15.6269 61.6807 15.3268 65.1109 16.4072 68.1333C16.6873 68.9281 17.0675 69.702 17.5277 70.434C17.5777 70.5177 17.6377 70.6118 17.6978 70.6955C17.7278 70.7373 17.7578 70.7792 17.7778 70.8314C17.8278 70.9047 17.8678 70.9883 17.9178 71.0615C17.9579 71.1347 17.9979 71.1975 18.0479 71.2707C18.0879 71.3334 18.1279 71.3962 18.1679 71.4589C18.218 71.5321 18.258 71.6053 18.308 71.689C18.348 71.7622 18.388 71.825 18.4381 71.8982C18.4781 71.9609 18.5181 72.0237 18.5581 72.0864C18.6081 72.1596 18.6482 72.2433 18.6982 72.3165C18.7482 72.4001 18.8082 72.4943 18.8682 72.5779C18.8983 72.6198 18.9283 72.6616 18.9583 72.7139C19.0083 72.7871 19.0483 72.8603 19.0983 72.944C19.1384 73.0172 19.1784 73.0799 19.2284 73.1531C19.2684 73.2159 19.3084 73.2786 19.3484 73.3414C20.639 75.4957 22.6798 77.3468 25.1909 78.5913C28.1321 80.0554 31.5336 80.6202 34.845 80.2227C34.6349 82.8791 35.035 85.4831 36.0254 87.5747C36.2055 87.9826 36.4256 88.38 36.6657 88.7565C36.7157 88.8401 36.7758 88.9238 36.8258 89.0075C36.8558 89.0493 36.8858 89.1016 36.9158 89.1434C36.9558 89.2166 37.0059 89.3003 37.0559 89.3735C37.0959 89.4363 37.1359 89.5095 37.1759 89.5722C37.2159 89.635 37.256 89.6977 37.296 89.7709C37.336 89.8441 37.386 89.9173 37.436 89.9905C37.4761 90.0637 37.5161 90.1265 37.5661 90.1997C37.6061 90.2624 37.6461 90.3252 37.6861 90.3984C37.7262 90.4716 37.7762 90.5448 37.8262 90.618C37.8762 90.7017 37.9362 90.7853 37.9863 90.8795C38.0163 90.9318 38.0463 90.9736 38.0763 91.0154C38.1163 91.0886 38.1663 91.1618 38.2164 91.235C38.2564 91.3082 38.3064 91.371 38.3464 91.4442C38.3864 91.5069 38.4265 91.5697 38.4665 91.6324C39.8871 94.0587 42.3081 95.9934 45.4094 97.1124C46.5599 97.5308 47.8304 97.8236 49.191 98.0014C45.6395 100.49 41.1276 102.415 35.7753 103.659L29.7528 105.061L30.243 105.176L29.8829 105.259L30.3831 105.374L30.0229 105.458L30.5331 105.583L30.153 105.667L30.6432 105.782L30.273 105.866L30.7632 105.981L30.3931 106.065L30.9033 106.19L30.5231 106.274L31.0133 106.389L30.6432 106.472L31.1334 106.587L30.7732 106.671L31.2835 106.797L30.9033 106.88L31.3935 106.995L31.0233 107.079L31.5136 107.194L31.1534 107.278L31.6636 107.403L31.2835 107.487L31.7737 107.602L31.4035 107.685L31.8937 107.801L31.5236 107.884L32.0338 108.01L31.6536 108.093L37.7061 109.557C37.9663 109.62 44.0788 111.063 52.2523 109.788C59.5053 108.658 65.998 105.782 71.5704 101.254C72.2306 102.017 72.9209 102.718 73.6612 103.345C76.5224 105.834 80.204 107.393 84.2957 107.863C86.2065 108.093 88.2174 108.052 90.3683 107.727C92.3991 107.414 94.2999 106.891 96.0406 106.18C97.8114 105.447 99.5221 104.517 101.163 103.387C102.653 102.31 104.074 101.045 105.375 99.6224L106.365 98.5452L107.155 99.7583C109.466 103.304 112.598 106.18 116.199 108.072C120.081 110.154 124.493 111.22 128.614 111.053C129.515 111.022 130.425 110.938 131.335 110.802H131.355C132.546 110.624 133.746 110.331 134.917 109.955C136.798 109.338 138.669 108.376 140.459 107.068C142.06 105.897 143.531 104.464 144.821 102.833C145.431 102.07 146.002 101.243 146.532 100.365C147.062 99.4969 147.532 98.5766 147.872 97.7608L148.393 96.485L149.573 97.3739C152.314 99.5701 155.326 101.285 158.527 102.498C160.368 103.147 162.028 103.607 163.659 103.889C165.1 104.119 167.02 104.36 168.981 104.245C169.862 104.193 170.722 104.109 171.512 103.983C172.473 103.837 173.373 103.628 174.233 103.356C176.004 102.77 177.575 102.007 178.875 101.086C181.517 99.225 183.587 96.4954 184.868 93.1802C187.349 94.0692 189.88 94.6548 192.401 94.9163C194.692 95.1463 197.073 95.0627 199.474 94.6862C199.714 94.6443 199.954 94.6025 200.194 94.5711C205.467 93.6404 210.249 91.0677 213.3 87.512C214.941 85.5982 216.061 83.4961 216.601 81.2686C217.151 79.156 217.191 76.8134 216.701 74.293L216.681 74.2826Z" fill="#21201E"/>
<path d="M213.109 71.405C212.258 67.1381 209.667 63.1327 206.106 60.0789L205.035 59.1586L206.066 58.1337C208.667 55.6866 210.468 52.6014 211.148 49.3385C211.838 46.0861 211.358 42.6768 209.757 39.7485C208.177 36.8098 205.556 34.3313 202.384 32.7103C199.223 31.0788 195.571 30.284 191.98 30.3677L189.759 30.42L189.259 28.3598C188.939 26.8329 188.358 25.2537 187.628 23.7792C186.888 22.3046 185.977 20.8927 184.897 19.6169C183.827 18.341 182.566 17.1906 181.175 16.2076C179.795 15.2245 178.264 14.3669 176.634 13.7395C173.372 12.4531 169.751 11.9093 166.169 12.1289C162.588 12.359 159.096 13.3525 155.995 14.9526L153.774 16.0925L152.323 14.1892C149.642 10.5707 145.961 7.39144 141.739 5.22663C137.507 3.06183 132.655 1.88007 127.763 2.01602C122.881 2.11015 118.009 3.35465 113.757 5.57175C109.455 7.74702 105.794 10.8949 102.963 14.5343L101.862 15.9461L100.241 14.9735C96.3798 12.5577 91.998 10.7694 87.3761 9.97457C85.0751 9.57717 82.7241 9.38892 80.4031 9.44121C78.0722 9.50396 75.7612 9.83862 73.5302 10.4034C71.3093 10.9785 69.1484 11.7838 67.1676 12.8192C65.1867 13.8754 63.356 15.1617 61.7253 16.6259C58.4739 19.5646 55.9729 23.2353 54.4922 27.178L54.002 28.5689L52.3413 28.1506C48.6398 27.2198 44.7181 27.0316 41.0466 27.7741C37.3751 28.5062 33.9636 30.0853 31.3525 32.3652C30.052 33.5051 28.9715 34.8333 28.1112 36.2451C27.2408 37.6569 26.6506 39.1943 26.3304 40.7943C25.9903 42.3944 25.9003 44.0468 26.0203 45.6887C26.0903 46.5149 26.2004 47.3411 26.3704 48.1463C26.4605 48.5542 26.5605 48.9516 26.6606 49.349L26.8406 49.9347L26.9307 50.217V50.2484L26.9707 50.3425L27.0007 50.4785C27.0507 50.6563 27.0807 50.855 27.0908 51.0641C27.1108 51.472 27.0307 51.8694 26.9107 52.204C26.2904 52.7792 25.4901 53.3649 24.6397 53.7937L24.3196 53.9505L24.1795 54.0237L23.9194 54.1701L23.4092 54.4525C22.7389 54.8604 22.0987 55.2996 21.5284 55.8016C20.3679 56.7951 19.4175 57.9873 18.7172 59.2946C17.3166 61.8882 17.0165 64.9419 17.9869 67.6505C18.9273 70.3592 21.1683 72.6913 24.0195 74.1031C26.8707 75.5254 30.2921 76.0169 33.4834 75.4418L37.4551 74.7201L36.7348 78.3072C36.1546 81.1832 36.3346 84.3834 37.5351 86.9456C38.7056 89.5392 41.0566 91.4634 44.0379 92.5511C45.5185 93.0844 47.1492 93.3668 48.7899 93.4923C50.4305 93.6178 52.1112 93.4923 53.7519 93.1995C54.7624 93.0321 55.7428 92.7916 56.7032 92.4674C53.792 97.0271 47.9395 102.277 36.1646 105.017C36.1646 105.017 54.5723 109.483 69.8387 95.8767C70.7091 97.0898 71.7195 98.2193 72.85 99.1919C75.4811 101.482 78.9025 102.873 82.534 103.291C84.3448 103.511 86.2056 103.448 88.0363 103.176C89.8571 102.894 91.6679 102.423 93.3586 101.733C95.0493 101.033 96.6599 100.154 98.1406 99.1292C99.6012 98.0833 100.922 96.8702 102.112 95.5734L104.623 92.8439L106.634 95.9185C108.695 99.0769 111.566 101.848 115.088 103.699C118.569 105.571 122.611 106.628 126.572 106.471C128.553 106.408 130.504 106.052 132.345 105.456C134.186 104.86 135.876 103.929 137.417 102.821C138.958 101.702 140.318 100.353 141.489 98.8782C142.079 98.1356 142.609 97.3617 143.089 96.5565C143.57 95.7721 144.02 94.9041 144.33 94.1511L145.661 90.9092L148.672 93.1681C151.193 95.1865 154.064 96.8702 157.165 98.0415C158.726 98.5958 160.327 99.0664 161.957 99.3488C163.588 99.5998 165.259 99.7776 166.889 99.6834C168.52 99.5998 170.141 99.3697 171.661 98.8886C173.172 98.3866 174.603 97.7278 175.863 96.8389C178.384 95.0505 180.215 92.4465 181.335 89.581L181.896 88.1378L183.486 88.713C185.777 89.5392 188.168 90.1143 190.599 90.3653C193.04 90.6059 195.501 90.4595 197.892 90.0411C202.664 89.194 207.116 86.8933 210.018 83.5258C211.458 81.8421 212.509 79.9178 213.029 77.8471C213.569 75.7764 213.519 73.5907 213.109 71.4677L213.089 71.4886L213.109 71.405Z" fill="#618792"/>
<path d="M1.49883 84.4379C1.10866 84.4379 0.778526 84.1346 0.738509 83.7268C0.738509 83.6431 -0.0818352 75.2976 0.968606 65.237C1.94902 55.898 4.80021 43.1078 12.7736 35.2539C13.0837 34.9506 13.5639 34.961 13.854 35.2852C14.1441 35.6094 14.1241 36.1114 13.824 36.4147C-0.852158 50.8572 2.21913 83.2352 2.25915 83.5594C2.29916 83.9987 1.99904 84.3856 1.57886 84.4379C1.54885 84.4379 1.52884 84.4379 1.49883 84.4379Z" fill="#21201E"/>
<path d="M153.234 45.1476C150.432 44.8652 148.242 46.9254 146.671 52.0394L148.102 53.3675C148.702 51.4328 149.952 50.4079 151.633 50.5753C154.274 50.8472 158.536 53.3048 161.837 54.3506C158.626 55.9402 152.583 57.373 145.37 56.6305L144.74 56.5677C144.74 56.5677 144.71 56.5677 144.7 56.5677C144.69 56.5677 144.68 56.5572 144.67 56.5572H144.55C143.48 56.4317 140.048 56.0866 138.978 54.9467C139.998 53.127 140.688 51.2341 140.828 49.8118C141.149 46.3502 139.018 43.5161 134.956 43.1082C129.054 42.5017 122.671 47.9817 118.249 52.7819C116.548 51.8198 116.058 50.2406 116.198 48.7556C116.218 48.5882 116.318 47.7307 116.438 47.4483L114.667 47.7621C113.327 51.2446 111.686 53.2002 107.014 52.7192C107.014 52.7192 107.014 52.7192 107.004 52.7192C107.004 52.7192 107.004 52.7192 106.994 52.7192C102.042 52.2172 99.291 50.1883 94.7891 40.4101C93.0784 42.0833 91.2376 44.5828 90.9475 45.2103C87.1059 45.0116 83.9046 44.9384 82.484 46.0469C79.8128 48.1385 76.8016 52.3845 76.4414 56.2435C76.3914 56.8291 76.5715 63.1249 76.1213 68.0297C76.0313 69.0023 75.7211 72.0979 75.5511 72.924L76.7616 72.7776C77.2618 72.0142 78.0621 71.0102 78.5723 70.0795C79.5427 68.2807 80.0529 66.3878 80.233 64.3589C80.6032 60.3849 80.3331 54.246 80.5532 51.8302C82.564 51.5374 84.4348 51.6106 87.7762 51.9034C87.1559 53.2421 86.8158 54.5598 86.6857 55.9821C86.3656 59.4227 87.8562 62.602 92.128 63.0412C96.6299 63.5014 98.5707 59.8829 99.4511 57.5089C100.371 58.492 102.252 59.4959 104.683 59.7469C104.683 59.7469 104.683 59.7469 104.693 59.7469C104.693 59.7469 104.693 59.7469 104.703 59.7469C109.135 60.1966 111.636 58.9521 113.527 56.5572C114.868 59.1299 118.049 61.1065 123.301 61.6398C128.643 62.1837 132.365 61.1588 134.956 59.4541C136.086 61.7653 138.778 63.219 141.929 63.5432L142.399 63.5955C142.399 63.5955 142.419 63.5955 142.429 63.5955C142.429 63.5955 142.439 63.5955 142.449 63.5955L142.959 63.6478C148.372 64.2021 153.054 62.9785 157.565 60.3849C162.127 57.7495 164.088 55.6369 165.819 55.8043C166.119 55.8356 166.439 55.9193 167.129 56.1075L169.951 51.0982C163.698 49.9164 157.275 45.545 153.244 45.1266L153.234 45.1476ZM94.509 57.3939C90.8675 57.0174 89.8371 54.7271 90.0772 52.144C90.2072 50.774 91.1076 48.6824 92.2581 47.1973C92.6682 48.1281 93.9488 50.0314 95.5094 52.5309C96.9 54.8108 97.7004 55.8566 97.6803 56.0553C97.6403 56.5154 96.4098 57.603 94.519 57.4043L94.509 57.3939ZM136.867 53.1479C136.787 54.0264 133.165 55.7206 126.282 55.0199C124.111 54.8003 122.261 54.4343 120.78 53.9114C124.171 50.6589 128.923 48.1699 132.735 48.5569C135.976 48.8915 136.997 51.8721 136.877 53.1375L136.867 53.1479Z" fill="#E8DFCE"/>
<path d="M158.116 42.5428L161.328 38.4642C160.157 37.1151 158.737 36.1844 156.986 35.5569L153.885 39.6983C155.265 40.0329 157.346 41.4761 158.116 42.5428Z" fill="#E8DFCE"/>
</g>
<defs>
<clipPath id="clip0_8250_28272">
<rect width="216.61" height="110.527" fill="white" transform="translate(0.433594 0.542969)"/>
</clipPath>
</defs>
</svg>
