<svg width="121" height="116" viewBox="0 0 121 116" fill="none" xmlns="http://www.w3.org/2000/svg">
<g clip-path="url(#clip0_8195_111773)">
<g clip-path="url(#clip1_8195_111773)">
<rect width="120.455" height="115" transform="translate(0.544922 0.594727)" fill="white"/>
<path d="M33.0647 109.358C32.7061 109.479 32.3995 109.583 31.8904 109.751C33.2036 107.524 34.1003 105.273 35.6159 103.162C36.0556 103.642 36.4779 104.087 36.9465 104.602C36.258 105.678 36.7787 106.61 37.2936 107.61C38.1439 107.628 38.4853 107.096 38.6877 106.419C38.8902 105.73 39.058 105.042 39.2778 104.221C38.9018 103.954 38.4737 103.636 38.0225 103.341C36.9638 102.641 36.9233 102.306 37.8894 101.421C38.3869 100.964 38.9596 100.593 39.4398 100.119C40.4637 99.1008 41.6381 98.9678 42.9397 99.4479C43.3331 99.5926 43.7264 99.7198 44.3223 99.9339C43.8363 100.362 43.5008 100.732 43.0959 100.969C42.8587 101.108 42.3785 101.183 42.2108 101.045C41.1868 100.171 40.3364 100.611 39.4918 101.293C39.1737 101.548 38.8555 101.808 38.4621 102.126C39.2951 102.815 40.1918 103.092 41.1001 102.936C42.7198 102.664 44.0909 103.064 45.3694 104.041C46.752 105.106 47.6602 106.477 48.3081 108.241C47.5561 108.721 46.8329 109.196 46.0462 109.71C45.6586 109.01 45.3636 108.409 45.0107 107.842C44.2413 106.615 43.1711 106.488 42.0835 107.489C41.8695 107.686 41.7017 107.94 41.4819 108.143C40.8976 108.692 40.3191 109.248 39.7001 109.751C38.9654 110.358 38.115 110.509 37.201 110.191C36.9812 110.115 36.744 110.069 36.3737 110.202C36.582 110.422 36.7498 110.763 36.9985 110.85C37.8258 111.128 38.6762 111.411 39.5381 111.504C40.4984 111.602 41.3604 111.862 42.1124 112.447C42.2918 112.586 42.3843 112.823 42.6446 113.21C38.8208 113.233 35.6506 112.209 33.059 109.375V109.363L33.0647 109.358Z" fill="#809A73"/>
<path d="M11.0298 81.9543L12.8637 79.9065C14.5702 80.6932 15.8024 81.9891 16.647 83.6609C17.0057 84.3667 17.2545 85.1303 17.5726 85.8592C17.8098 86.4087 18.047 86.9583 18.3536 87.4674C18.88 88.3293 19.8172 88.2773 20.3089 87.3806C20.9048 86.3046 21.4717 86.1137 22.5708 86.6286C23.265 86.9525 23.2245 87.6756 23.4096 88.2599C23.589 88.8268 23.0915 89.0004 22.7212 89.2144C22.5535 89.3128 22.3626 89.4053 22.2179 89.5384C21.6973 90.007 21.7551 90.8053 22.3741 91.135C22.8659 91.3953 23.3981 91.5689 23.9245 91.7366C24.7575 92.0028 25.6079 92.2052 26.4468 92.4713C28.2632 93.0498 29.5996 94.2531 30.8086 95.8092L29.0037 97.8282C28.888 97.7935 28.7897 97.7877 28.7492 97.7414C27.2798 95.896 25.3823 94.7506 23.0799 94.2357C22.3047 94.0622 21.5469 93.8019 20.8122 93.5068C20.0197 93.1887 19.9271 92.963 20.0486 92.13C20.1701 91.3086 20.3031 90.4929 20.4535 89.4632C19.5511 89.7177 18.8048 89.9202 18.0643 90.14C17.0635 90.435 16.8148 90.3772 16.3289 89.4574C15.9355 88.7227 15.6057 87.9533 15.3281 87.1666C14.5992 85.0956 13.3612 83.4526 11.4579 82.3362C11.3654 82.2783 11.2844 82.18 11.0356 81.9601H11.024L11.0298 81.9543Z" fill="#809A73"/>
<path d="M4.48704 60.8625C4.20358 60.6138 3.95483 60.3939 3.55566 60.0411C6.14154 60.0642 8.53651 59.7171 11.1282 59.9716C10.9315 60.5964 10.7579 61.1807 10.5497 61.846C9.27699 61.7881 8.72742 62.7021 8.12 63.6509C8.53073 64.3971 9.16129 64.426 9.8497 64.2641C10.5439 64.0963 11.2323 63.8996 12.048 63.674C12.0885 63.217 12.1521 62.6848 12.1868 62.1468C12.262 60.8799 12.5339 60.6774 13.7835 61.0708C14.4314 61.2733 15.0388 61.5798 15.6867 61.7592C17.0809 62.1352 17.7809 63.0897 18.0181 64.455C18.0875 64.8657 18.1743 65.2706 18.29 65.8954C17.6768 65.6871 17.185 65.583 16.7743 65.3516C16.5313 65.2128 16.2247 64.8368 16.2652 64.6227C16.5082 63.3038 15.7041 62.7831 14.6917 62.3955C14.3099 62.2451 13.9281 62.1005 13.4537 61.9212C13.2744 62.9856 13.4827 63.8996 14.0669 64.6111C15.114 65.878 15.4495 67.2606 15.2471 68.8631C15.0157 70.5928 14.281 72.0679 13.0777 73.5141C12.2852 73.1034 11.5158 72.7158 10.677 72.2877C11.0935 71.5993 11.4637 71.044 11.7761 70.4597C12.4529 69.1812 12.0248 68.1862 10.6191 67.7466C10.3414 67.6598 10.0348 67.6424 9.75136 67.5557C8.98196 67.3243 8.21256 67.0987 7.4663 66.8152C6.56963 66.4797 6.02006 65.8202 5.83494 64.8715C5.78866 64.6401 5.70767 64.4145 5.41264 64.1599C5.32586 64.4492 5.11182 64.7673 5.16388 65.0277C5.33743 65.8838 5.51677 66.7631 5.86965 67.5557C6.26303 68.435 6.47128 69.3143 6.34401 70.2572C6.31509 70.4771 6.15311 70.6795 5.95064 71.1018C4.01846 67.7986 3.31848 64.5475 4.48126 60.8799L4.48704 60.8625Z" fill="#809A73"/>
<path d="M17.1966 28.0852L19.8866 28.6463C20.0602 30.5206 19.5511 32.2272 18.5271 33.7949C18.0933 34.4601 17.5611 35.056 17.0867 35.6981C16.7338 36.1783 16.3693 36.6584 16.0859 37.1791C15.5999 38.0641 16.1148 38.8509 17.1388 38.8278C18.3652 38.8046 18.8164 39.2038 18.9147 40.4128C18.9842 41.1764 18.3362 41.5004 17.9255 41.9574C17.5206 42.3971 17.1272 42.0557 16.7512 41.8417C16.5776 41.7434 16.4098 41.6277 16.2247 41.5698C15.5537 41.3558 14.8942 41.8012 14.9173 42.5012C14.9405 43.0565 15.0562 43.6061 15.1719 44.1499C15.357 45.0061 15.6057 45.8449 15.7966 46.701C16.2074 48.5638 15.8313 50.3224 15.0851 52.1446L12.4298 51.5893C12.4067 51.4736 12.3546 51.3868 12.3777 51.329C13.2455 49.1365 13.286 46.9209 12.5802 44.6705C12.343 43.9127 12.1926 43.1259 12.0769 42.3392C11.9554 41.4946 12.1058 41.3037 12.8868 40.9913C13.6562 40.6847 14.4314 40.3897 15.3975 40.0137C14.7264 39.36 14.1769 38.8104 13.6215 38.284C12.8637 37.5666 12.7885 37.3179 13.3438 36.4386C13.7835 35.7328 14.2868 35.056 14.8305 34.4254C16.2594 32.7594 17.0635 30.8677 17.0809 28.6579C17.0809 28.5479 17.1272 28.4265 17.1966 28.1025V28.0852Z" fill="#809A73"/>
<path d="M32.1912 11.8642C32.2664 11.494 32.3358 11.17 32.44 10.6494C33.7127 12.8997 35.211 14.803 36.287 17.1748C35.6506 17.3136 35.0548 17.4583 34.3721 17.6087C33.7821 16.4806 32.7176 16.4575 31.5954 16.4054C31.1557 17.1343 31.445 17.6954 31.9309 18.2103C32.4226 18.7252 32.9375 19.2227 33.5391 19.8243C33.9556 19.6334 34.4474 19.4193 34.9275 19.1764C36.0671 18.6095 36.3737 18.7425 36.6572 20.021C36.8076 20.6805 36.8423 21.3631 37.0101 22.0168C37.3803 23.4167 36.906 24.4927 35.8415 25.3836C35.5234 25.6497 35.211 25.9216 34.7308 26.3381C34.6035 25.7018 34.4531 25.2274 34.4474 24.753C34.4474 24.4754 34.6209 24.0241 34.8234 23.9489C36.0903 23.4977 36.1366 22.5432 35.963 21.4672C35.9052 21.0623 35.8357 20.6573 35.7547 20.1598C34.7424 20.5358 34.054 21.1722 33.73 22.0399C33.1573 23.5845 32.1276 24.5679 30.6351 25.1869C29.0211 25.858 27.3781 25.9563 25.5269 25.6323C25.4807 24.7357 25.4344 23.8795 25.3881 22.9366C26.1922 22.9539 26.8575 22.9944 27.5228 22.9713C28.969 22.9192 29.6169 22.0515 29.293 20.6168C29.2235 20.3334 29.0905 20.0615 29.0268 19.7664C28.8417 18.9855 28.6566 18.2045 28.5235 17.4178C28.3616 16.4748 28.6624 15.6649 29.3971 15.0344C29.5764 14.8782 29.7326 14.6931 29.802 14.3113C29.507 14.3807 29.1252 14.3575 28.9285 14.5311C28.269 15.1096 27.6037 15.7054 27.0947 16.3996C26.5277 17.1806 25.874 17.7996 24.9947 18.1582C24.7865 18.245 24.5319 18.2045 24.0691 18.2392C25.9608 14.9187 28.431 12.6799 32.1854 11.8585H32.1912V11.8642Z" fill="#809A73"/>
<path d="M66.9357 6.48426L67.7919 9.09326C66.2531 10.175 64.5234 10.5973 62.649 10.4932C61.8565 10.4469 61.0697 10.285 60.283 10.1924C59.6871 10.123 59.0971 10.0536 58.5012 10.0651C57.4888 10.0883 57.0665 10.9271 57.5988 11.8006C58.2293 12.8535 58.1078 13.4377 57.1186 14.1319C56.4938 14.5716 55.8864 14.1782 55.2848 14.0452C54.7063 13.9179 54.7988 13.403 54.7988 12.9692C54.7988 12.7725 54.8162 12.5642 54.7699 12.3733C54.6253 11.6849 53.908 11.332 53.3121 11.708C52.8435 12.0031 52.427 12.3791 52.0163 12.7493C51.3684 13.3394 50.7667 13.9699 50.1188 14.5658C48.7131 15.85 47.0007 16.4054 45.0512 16.6715L44.2066 14.0972C44.2934 14.0162 44.3454 13.9295 44.4091 13.9237C46.7404 13.5766 48.6841 12.5064 50.275 10.7651C50.813 10.1808 51.4204 9.6544 52.0394 9.16268C52.7105 8.63047 52.9534 8.67096 53.6071 9.1916C54.2551 9.70646 54.903 10.2329 55.7129 10.875C55.9443 9.96678 56.1467 9.22053 56.3203 8.46849C56.5633 7.45613 56.7368 7.27101 57.7781 7.30572C58.6111 7.33464 59.4442 7.4272 60.2656 7.5834C62.4234 7.98834 64.4655 7.73959 66.3861 6.65202C66.4845 6.59996 66.6117 6.5826 66.9241 6.47269V6.46112H66.9299L66.9357 6.48426Z" fill="#809A73"/>
<path d="M88.4731 11.3609C88.8318 11.2395 89.1384 11.1353 89.6532 10.9676C88.34 13.1948 87.4434 15.4451 85.9277 17.5566C85.4881 17.0765 85.0657 16.631 84.5972 16.1162C85.2856 15.0402 84.7649 14.1088 84.2501 13.108C83.3997 13.0906 83.0584 13.6229 82.8559 14.2997C82.6534 14.9881 82.4799 15.6765 82.2658 16.498C82.6419 16.7641 83.0699 17.0822 83.5212 17.3773C84.5856 18.0772 84.6203 18.4128 83.6542 19.2979C83.1567 19.7549 82.584 20.1309 82.1039 20.5995C81.0799 21.6176 79.9056 21.7507 78.604 21.2705C78.2106 21.1259 77.8172 20.9928 77.2213 20.7846C77.7073 20.3565 78.0428 19.9863 78.4478 19.7491C78.6849 19.6102 79.1651 19.535 79.3329 19.6739C80.3568 20.5474 81.2072 20.1078 82.0518 19.4193C82.37 19.1648 82.6881 18.9045 83.0815 18.5863C82.2485 17.8979 81.3518 17.6202 80.4436 17.7764C78.8238 18.0483 77.4527 17.6492 76.1743 16.6715C74.7859 15.6071 73.8834 14.2361 73.2355 12.4717C73.9876 11.9857 74.7107 11.5171 75.4974 11.0023C75.885 11.7023 76.1801 12.3039 76.5329 12.8708C77.3023 14.0972 78.3783 14.2245 79.4601 13.2237C79.6742 13.027 79.8419 12.7725 80.0618 12.57C80.646 12.0204 81.2245 11.4651 81.8435 10.9618C82.584 10.3544 83.4286 10.204 84.3426 10.5221C84.5625 10.5973 84.8054 10.6436 85.1699 10.5106C84.9616 10.2907 84.7939 9.94943 84.5451 9.86265C83.7179 9.58498 82.8675 9.30152 82.0055 9.20896C81.0452 9.11061 80.1832 8.85029 79.4312 8.26602C79.2519 8.12718 79.1593 7.89 78.899 7.50241C82.7228 7.47927 85.893 8.5032 88.4847 11.3378V11.3494L88.4731 11.3609Z" fill="#809A73"/>
<path d="M110.514 38.7641L108.68 40.812C106.973 40.0252 105.741 38.7294 104.897 37.0576C104.538 36.3518 104.289 35.5882 103.971 34.8593C103.734 34.3097 103.497 33.7602 103.19 33.2511C102.664 32.3891 101.726 32.4412 101.235 33.3379C100.639 34.4139 100.072 34.6048 98.9728 34.0899C98.2786 33.7659 98.3191 33.0428 98.134 32.4586C97.9546 31.8916 98.4521 31.7181 98.8224 31.504C98.9901 31.4057 99.181 31.3131 99.3257 31.1801C99.8463 30.7115 99.7885 29.9132 99.1695 29.5835C98.6778 29.3231 98.1455 29.1496 97.6191 28.9818C96.7861 28.7157 95.9357 28.5132 95.0969 28.2471C93.2804 27.6686 91.9441 26.4712 90.735 24.9092L92.5399 22.8903C92.6556 22.925 92.754 22.9308 92.7945 22.9771C94.2638 24.8225 96.1613 25.9679 98.4637 26.4827C99.2389 26.6563 99.9967 26.9224 100.731 27.2116C101.524 27.5298 101.617 27.7554 101.495 28.5884C101.374 29.4099 101.246 30.2256 101.09 31.2553C101.993 31.0008 102.739 30.7983 103.479 30.5785C104.48 30.2834 104.729 30.3413 105.215 31.2611C105.602 32.0015 105.938 32.7652 106.216 33.5519C106.944 35.6229 108.182 37.2658 110.086 38.3823C110.184 38.4402 110.259 38.5385 110.508 38.7583H110.52L110.514 38.7641Z" fill="#809A73"/>
<path d="M117.057 59.8559C117.34 60.1047 117.589 60.3245 117.988 60.6774C115.402 60.6543 113.007 61.0014 110.415 60.7468C110.612 60.122 110.786 59.5378 110.994 58.8725C112.267 58.9304 112.816 58.0163 113.424 57.0676C113.013 56.3214 112.382 56.2924 111.694 56.4544C111 56.6222 110.311 56.8189 109.496 57.0445C109.455 57.5015 109.392 58.0337 109.357 58.5717C109.282 59.8386 109.01 60.0411 107.76 59.6477C107.112 59.4452 106.505 59.1386 105.857 58.9593C104.463 58.5833 103.763 57.6287 103.526 56.2635C103.456 55.8528 103.369 55.4478 103.254 54.8231C103.867 55.0313 104.359 55.1354 104.769 55.3668C105.012 55.5057 105.319 55.8817 105.278 56.0957C105.035 57.4147 105.84 57.9354 106.852 58.3229C107.234 58.4733 107.616 58.618 108.09 58.7973C108.269 57.7329 108.061 56.8189 107.477 56.1073C106.43 54.8404 106.088 53.4578 106.297 51.8554C106.522 50.1257 107.263 48.6506 108.466 47.2043C109.258 47.6151 110.028 48.0026 110.867 48.4307C110.45 49.1191 110.086 49.6745 109.768 50.2588C109.091 51.5372 109.519 52.5322 110.925 52.9719C111.202 53.0587 111.509 53.076 111.792 53.1628C112.562 53.3942 113.331 53.6198 114.077 53.9033C114.974 54.2388 115.524 54.8983 115.709 55.847C115.755 56.0784 115.836 56.304 116.131 56.5585C116.218 56.2693 116.432 55.9511 116.38 55.6908C116.206 54.8346 116.027 53.9553 115.674 53.1628C115.281 52.2835 115.078 51.4042 115.2 50.4612C115.229 50.2414 115.391 50.0389 115.593 49.6166C117.525 52.9198 118.225 56.1709 117.062 59.8386L117.057 59.8559Z" fill="#809A73"/>
<path d="M104.347 92.6333L101.657 92.0722C101.483 90.1979 101.993 88.4913 103.016 86.9236C103.45 86.2583 103.983 85.6625 104.457 85.0204C104.81 84.5402 105.174 84.0601 105.458 83.5394C105.944 82.6543 105.429 81.8676 104.405 81.8907C103.178 81.9138 102.727 81.5147 102.629 80.3056C102.559 79.542 103.207 79.2181 103.618 78.7611C104.023 78.3214 104.416 78.6627 104.792 78.8768C104.966 78.9751 105.134 79.0908 105.319 79.1487C105.984 79.3627 106.649 78.9173 106.626 78.2173C106.603 77.6619 106.487 77.1124 106.372 76.5686C106.187 75.7124 105.938 74.8736 105.747 74.0174C105.336 72.1547 105.712 70.3961 106.459 68.5738L109.108 69.1292C109.131 69.2449 109.183 69.3316 109.16 69.3895C108.292 71.582 108.252 73.7976 108.958 76.0479C109.195 76.8058 109.345 77.5983 109.461 78.3793C109.582 79.2239 109.432 79.4148 108.651 79.7271C107.882 80.0337 107.106 80.3288 106.14 80.7048C106.811 81.3585 107.361 81.9081 107.916 82.4345C108.674 83.1518 108.744 83.4006 108.194 84.2799C107.754 84.9856 107.251 85.6625 106.707 86.293C105.278 87.9591 104.474 89.8508 104.457 92.0606C104.457 92.1705 104.411 92.292 104.341 92.6159V92.6275L104.347 92.6333Z" fill="#809A73"/>
<path d="M89.3466 108.848C89.2714 109.219 89.2078 109.543 89.0979 110.063C87.8252 107.813 86.3269 105.91 85.2509 103.538C85.8872 103.399 86.4831 103.254 87.1657 103.104C87.7558 104.238 88.8202 104.255 89.9425 104.307C90.3821 103.578 90.0929 103.017 89.6069 102.502C89.1152 101.988 88.6004 101.49 87.9987 100.888C87.5822 101.079 87.0905 101.293 86.6103 101.536C85.4707 102.103 85.1641 101.97 84.8806 100.692C84.7302 100.032 84.6955 99.3496 84.5278 98.6959C84.1575 97.296 84.6319 96.22 85.6963 95.3291C86.0145 95.063 86.3269 94.7911 86.807 94.3746C86.9343 95.0109 87.0905 95.4853 87.0905 95.9596C87.0905 96.2373 86.9169 96.6885 86.7145 96.7637C85.4476 97.215 85.4013 98.1695 85.5748 99.2455C85.6327 99.6504 85.7021 100.055 85.7773 100.553C86.7897 100.177 87.4781 99.5347 87.802 98.6728C88.3748 97.1282 89.4045 96.1448 90.897 95.5258C92.511 94.8605 94.1539 94.7564 96.0051 95.0803C96.0514 95.977 96.0977 96.8332 96.144 97.7761C95.3398 97.7588 94.6746 97.7183 94.0093 97.7414C92.5631 97.7935 91.9151 98.6612 92.2391 100.096C92.3085 100.379 92.4416 100.651 92.5052 100.946C92.6903 101.727 92.8812 102.508 93.0085 103.295C93.1705 104.238 92.8697 105.048 92.135 105.678C91.9556 105.834 91.7995 106.02 91.73 106.401C92.0251 106.332 92.4069 106.355 92.6036 106.182C93.263 105.603 93.9283 105.007 94.4374 104.307C95.0043 103.526 95.658 102.907 96.5373 102.549C96.7398 102.462 97.0001 102.502 97.4629 102.468C95.5712 105.788 93.1011 108.027 89.3466 108.848Z" fill="#809A73"/>
<path d="M54.6022 114.234L53.746 111.625C55.2848 110.538 57.0145 110.121 58.8888 110.225C59.6813 110.272 60.4681 110.434 61.2549 110.52C61.8507 110.59 62.4408 110.659 63.0366 110.648C64.049 110.624 64.4713 109.786 63.9391 108.912C63.3085 107.859 63.43 107.275 64.4192 106.581C65.044 106.141 65.6514 106.534 66.2531 106.668C66.8316 106.795 66.739 107.31 66.739 107.744C66.739 107.94 66.7216 108.148 66.7679 108.339C66.9125 109.028 67.6299 109.375 68.2257 109.005C68.6943 108.71 69.1108 108.339 69.5216 107.963C70.1637 107.373 70.7711 106.743 71.419 106.147C72.8306 104.863 74.5371 104.307 76.4867 104.041L77.3313 106.615C77.2445 106.696 77.1924 106.783 77.1288 106.789C74.7974 107.136 72.8537 108.206 71.2628 109.948C70.7248 110.532 70.1174 111.058 69.4984 111.55C68.8274 112.076 68.5844 112.042 67.9307 111.521C67.2828 111.006 66.6349 110.486 65.825 109.838C65.5936 110.746 65.3911 111.492 65.2176 112.244C64.9746 113.257 64.7953 113.442 63.7597 113.407C62.9267 113.378 62.0937 113.285 61.2722 113.129C59.1144 112.724 57.0723 112.973 55.1517 114.061C55.0534 114.113 54.9261 114.13 54.6137 114.24V114.252H54.6079L54.6022 114.234Z" fill="#809A73"/>
<path d="M58.3073 25.2748C58.3073 25.2748 55.6936 23.0896 53.9958 25.7362C52.2979 28.3829 53.7301 31.7786 54.2375 33.1269C54.7448 34.4751 56.2429 41.1886 56.2429 41.1886C56.2429 41.1886 56.5425 42.3152 58.7397 43.8133C60.937 45.3114 60.5375 41.0958 60.5375 41.0958L58.3073 25.2748Z" fill="#21201E"/>
<path d="M96.5734 114.831L84.4097 114.982L83.7026 114.99L45.4159 115.464L41.4569 115.513L24.9727 115.717H24.9717C24.9717 115.717 25.0026 114.894 25.0785 113.435C25.0905 113.201 25.1035 112.951 25.1185 112.686C25.1435 112.222 25.1724 111.71 25.2064 111.155C25.2204 110.917 25.2353 110.671 25.2513 110.418C25.2573 110.334 25.2623 110.248 25.2673 110.162C25.3212 109.3 25.3842 108.354 25.4571 107.337C25.472 107.133 25.487 106.926 25.502 106.717C25.518 106.508 25.533 106.296 25.549 106.081C25.5649 105.866 25.5819 105.65 25.5989 105.429C25.6159 105.209 25.6328 104.987 25.6508 104.762C25.6688 104.537 25.6868 104.309 25.7048 104.08C25.7237 103.85 25.7427 103.617 25.7617 103.383C26.4029 95.6424 27.5125 85.3974 29.3651 76.0912C29.505 75.3861 29.6678 74.7079 29.8515 74.0548C29.9244 73.7931 30.0013 73.5364 30.0812 73.2837C30.1611 73.03 30.244 72.7814 30.3299 72.5367C30.4588 72.1691 30.5946 71.8106 30.7374 71.46C30.9272 70.9936 31.1279 70.5422 31.3406 70.1058C31.4994 69.7792 31.6642 69.4606 31.835 69.15C32.0048 68.8394 32.1806 68.5367 32.3624 68.2421C32.4233 68.1442 32.4842 68.0464 32.5451 67.9505C32.668 67.7577 32.7928 67.568 32.9207 67.3822C32.9846 67.2893 33.0485 67.1974 33.1134 67.1066C33.436 66.6501 33.7726 66.2157 34.1201 65.8012C34.1901 65.7183 34.26 65.6354 34.3299 65.5545C34.6105 65.2289 34.8982 64.9173 35.1928 64.6167C35.2667 64.5418 35.3406 64.4679 35.4145 64.394C42.162 57.7055 51.7839 57.31 53.0603 57.0004C53.0782 56.9954 53.0962 56.9914 53.1152 56.9864C53.1781 56.9704 53.242 56.9514 53.3059 56.9315C53.3359 56.9225 53.3649 56.9125 53.3948 56.9025C53.4248 56.8925 53.4548 56.8825 53.4847 56.8715C53.5147 56.8606 53.5446 56.8496 53.5736 56.8376L53.6635 56.8016C53.6915 56.7906 53.7204 56.7787 53.7484 56.7657C54.052 56.6338 54.3596 56.4611 54.6622 56.2443C54.7122 56.2084 54.7621 56.1714 54.812 56.1325C54.842 56.1095 54.873 56.0855 54.9039 56.0606C54.9649 56.0116 55.0258 55.9617 55.0857 55.9088C55.1157 55.8828 55.1456 55.8568 55.1756 55.8289C55.2056 55.8019 55.2345 55.7749 55.2635 55.748C55.2944 55.719 55.3244 55.69 55.3544 55.6601C55.4133 55.6021 55.4712 55.5422 55.5301 55.4803C55.5601 55.4493 55.5881 55.4184 55.616 55.3864C55.645 55.3545 55.673 55.3215 55.7019 55.2895C55.7309 55.2566 55.7589 55.2236 55.7868 55.1897C55.8148 55.1557 55.8427 55.1218 55.8697 55.0868C55.8717 55.0858 55.8727 55.0848 55.8727 55.0838C55.8997 55.0498 55.9256 55.0159 55.9526 54.9809C56.7276 53.9672 57.3498 52.563 57.6005 50.7133C58.1339 46.7773 57.5736 38.1553 57.5736 38.1553L60.7595 40.0289L66.9288 43.6563C66.8299 46.1381 66.7929 48.1336 66.8868 49.7566C67.0406 52.4162 67.547 54.0791 68.7175 55.2526H68.7185C68.8044 55.3395 68.8943 55.4234 68.9872 55.5033C69.0331 55.5452 69.0811 55.5852 69.129 55.6231C69.1769 55.6631 69.2259 55.702 69.2768 55.74C69.3267 55.7789 69.3787 55.8169 69.4306 55.8528C69.4825 55.8908 69.5365 55.9277 69.5904 55.9627C69.8611 56.1445 70.1567 56.3122 70.4793 56.469C70.4813 56.47 70.4833 56.471 70.4843 56.472C70.5472 56.503 70.6111 56.534 70.676 56.5629C70.743 56.5949 70.8109 56.6258 70.8798 56.6548C70.9487 56.6858 71.0186 56.7157 71.0895 56.7447C71.1574 56.7737 71.2263 56.8016 71.2973 56.8296C71.3732 56.8596 71.4501 56.8895 71.529 56.9195C71.6878 56.9794 71.8526 57.0383 72.0223 57.0963C72.0833 57.1182 72.1452 57.1382 72.2081 57.1592C72.4079 57.2251 72.6156 57.291 72.8293 57.3559C72.8952 57.3749 72.9612 57.3949 73.0281 57.4139C73.053 57.4218 73.078 57.4288 73.103 57.4358C73.2068 57.4658 73.3127 57.4967 73.4206 57.5267C73.5824 57.5707 73.7472 57.6156 73.916 57.6605C74.7609 57.8843 75.6807 58.1569 76.6465 58.4835C76.8872 58.5654 77.1309 58.6503 77.3776 58.7382C77.6243 58.8271 77.873 58.9189 78.1236 59.0148C78.3743 59.1107 78.627 59.2096 78.8817 59.3124C85.2447 61.8842 92.5495 66.752 93.693 75.3401C95.1562 86.3322 96.5714 114.831 96.5714 114.831H96.5734Z" fill="#D2BEA6"/>
<path d="M96.5734 115.728H92.8141H84.4097H83.7026H68.4259H64.5518H45.4159H44.0546H41.4569H33.424H24.9717C24.9717 115.728 24.9817 116.241 25.0056 115.728C25.0156 115.506 25.0276 114.451 25.0426 114.141C25.0536 113.928 25.0646 113.697 25.0775 113.446C25.0905 113.212 25.1035 112.962 25.1175 112.697C25.1435 112.233 25.1724 111.721 25.2054 111.166C25.2204 110.928 25.2353 110.682 25.2503 110.429C25.2563 110.345 25.2613 110.259 25.2663 110.173C25.3212 109.311 25.3842 108.365 25.4561 107.348C25.471 107.144 25.486 106.937 25.501 106.728C25.517 106.519 25.532 106.307 25.548 106.092C25.5509 106.047 25.5549 106.001 25.5589 105.955C25.5709 105.786 25.5849 105.614 25.5979 105.44C25.6049 105.347 25.6119 105.253 25.6199 105.159C25.6298 105.032 25.6398 104.903 25.6498 104.773C25.6678 104.548 25.6858 104.32 25.7038 104.091C25.7227 103.861 25.7417 103.628 25.7607 103.394C25.9255 101.405 26.1212 99.2519 26.3519 96.9917C26.3789 96.7291 26.4059 96.4644 26.4348 96.1978C26.7085 93.5831 27.0301 90.8376 27.4056 88.0481C27.4406 87.7844 27.4775 87.5208 27.5145 87.2561C27.886 84.5545 28.3105 81.82 28.7929 79.1314C28.8398 78.8677 28.8877 78.6041 28.9367 78.3404C29.0745 77.5893 29.2163 76.8433 29.3641 76.1022C29.504 75.3971 29.6668 74.719 29.8505 74.0658C29.9234 73.8042 30.0003 73.5475 30.0802 73.2948C30.1601 73.0411 30.243 72.7924 30.3289 72.5477C30.4578 72.1802 30.5946 71.8217 30.7364 71.4711C30.9002 71.0676 31.074 70.6751 31.2558 70.2936C31.2827 70.2347 31.3117 70.1757 31.3396 70.1168C31.4375 69.9151 31.5374 69.7173 31.6413 69.5216C31.7042 69.3997 31.7681 69.2799 31.834 69.161C32.0048 68.8504 32.1806 68.5478 32.3614 68.2532C32.4223 68.1553 32.4832 68.0574 32.5441 67.9616C32.668 67.7688 32.7928 67.579 32.9197 67.3933C32.9836 67.3004 33.0475 67.2085 33.1124 67.1176C33.436 66.6612 33.7726 66.2268 34.1191 65.8123C34.1891 65.7294 34.259 65.6465 34.3289 65.5656C34.6105 65.24 34.8982 64.9284 35.1918 64.6278C35.2657 64.5529 35.3396 64.479 35.4135 64.4051C36.4352 63.3914 37.5238 62.5235 38.6384 61.7774C39.023 61.5197 39.4105 61.278 39.799 61.0493C45.7345 57.5587 52.0425 57.2581 53.0593 57.0114C53.0772 57.0074 53.0952 57.0035 53.1142 56.9975C53.1192 56.9955 53.1242 56.9945 53.1292 56.9925C53.1871 56.9775 53.246 56.9605 53.3049 56.9425C53.3349 56.9325 53.3639 56.9236 53.3938 56.9136C53.4238 56.9036 53.4538 56.8926 53.4837 56.8826C53.5127 56.8716 53.5426 56.8606 53.5726 56.8486L53.6625 56.8127C53.6915 56.8017 53.7194 56.7897 53.7474 56.7767C53.8283 56.7418 53.9102 56.7028 53.9921 56.6619C54.2148 56.549 54.4395 56.4142 54.6612 56.2554C54.7112 56.2194 54.7611 56.1825 54.811 56.1435C54.841 56.1206 54.872 56.0966 54.9029 56.0716C54.9639 56.0237 55.0248 55.9728 55.0847 55.9198C55.1147 55.8939 55.1446 55.8679 55.1746 55.8399C55.2046 55.814 55.2335 55.787 55.2625 55.759C55.2934 55.7301 55.3234 55.7011 55.3534 55.6711C55.4133 55.6132 55.4722 55.5533 55.5291 55.4914C55.5591 55.4604 55.5871 55.4294 55.615 55.3975C55.644 55.3665 55.673 55.3336 55.7009 55.3006C55.7299 55.2677 55.7579 55.2347 55.7858 55.2007C55.8148 55.1668 55.8417 55.1328 55.8687 55.0979C55.8707 55.0969 55.8717 55.0959 55.8717 55.0949C55.8987 55.0609 55.9256 55.027 55.9526 54.992C63.4541 58.1969 67.4431 56.1765 68.7165 55.2637H68.7175C68.8034 55.3496 68.8933 55.4334 68.9862 55.5143C69.0321 55.5553 69.08 55.5952 69.128 55.6342C69.1769 55.6741 69.2259 55.7121 69.2758 55.751C69.3267 55.789 69.3777 55.8269 69.4296 55.8639C69.4825 55.9008 69.5355 55.9378 69.5894 55.9738C69.8611 56.1545 70.1567 56.3223 70.4783 56.4801C70.4803 56.4811 70.4823 56.4821 70.4833 56.4831C70.5462 56.5141 70.6101 56.544 70.675 56.574C70.742 56.606 70.8099 56.6369 70.8788 56.6659C70.9477 56.6968 71.0176 56.7268 71.0885 56.7558C71.0885 56.7558 71.0895 56.7558 71.0925 56.7568C71.1444 56.7797 71.1974 56.8017 71.2513 56.8217C71.2663 56.8287 71.2813 56.8347 71.2963 56.8407C71.3722 56.8706 71.4491 56.9006 71.528 56.9305C71.6868 56.9905 71.8516 57.0494 72.0213 57.1073C72.0823 57.1293 72.1442 57.1493 72.2071 57.1702C72.4069 57.2362 72.6146 57.3021 72.8283 57.367C72.8363 57.369 72.8453 57.372 72.8533 57.374C72.9112 57.391 72.9681 57.4079 73.0271 57.4249C73.052 57.4329 73.077 57.4399 73.102 57.4469C73.2058 57.4769 73.3117 57.5078 73.4196 57.5378C73.5814 57.5817 73.7462 57.6267 73.915 57.6716C74.7599 57.8953 75.6797 58.168 76.6455 58.4946C76.8862 58.5755 77.1309 58.6604 77.3766 58.7492H77.3776C77.6243 58.8381 77.873 58.93 78.1236 59.0259H78.1246C78.3753 59.1218 78.628 59.2206 78.8827 59.3235C80.3438 59.9138 81.8539 60.6249 83.3281 61.4758C83.7306 61.7065 84.1301 61.9492 84.5256 62.2019C87.4838 64.0945 90.1924 66.5843 91.9182 69.8182C92.0521 70.0679 92.1799 70.3216 92.3008 70.5802C92.9789 72.0264 93.4623 73.6124 93.694 75.3512C93.8218 76.313 93.9497 77.4096 94.0765 78.6091C94.1035 78.8687 94.1305 79.1334 94.1574 79.4031C94.2034 79.8515 94.2483 80.3119 94.2933 80.7843C94.2933 80.7863 94.2942 80.7873 94.2942 80.7893C94.492 82.8667 94.6848 85.1597 94.8705 87.5447C94.8905 87.8094 94.9115 88.0751 94.9314 88.3417C95.1352 91.0203 95.3289 93.7958 95.5067 96.4974C95.5237 96.764 95.5417 97.0307 95.5587 97.2954C95.7464 100.193 95.9162 102.985 96.06 105.457C96.075 105.728 96.091 105.994 96.106 106.256C96.3377 110.286 96.4965 114.652 96.5504 115.728C96.5654 116.002 96.5724 115.728 96.5724 115.728H96.5734Z" fill="#6B4E46"/>
<path d="M67.6871 83.6231L68.2171 80.0331C68.1271 80.0431 68.0071 80.0631 67.8771 80.0731C67.7471 80.0831 67.6271 80.0931 67.5371 80.0931L67.6371 79.4031C67.7371 79.4031 67.8371 79.3831 67.9271 79.3531C68.0271 79.3131 68.1271 79.2631 68.2071 79.2031C68.2971 79.1431 68.3671 79.0731 68.4371 78.9831C68.4971 78.9031 68.5471 78.8131 68.5571 78.7131H69.2971L68.5771 83.6231H67.6871Z" fill="#E8DFCE"/>
<path d="M74.4778 78.9731C74.3378 78.8031 74.1278 78.7131 73.8578 78.7131H73.6778C73.4278 78.7131 73.1778 78.8031 72.9978 78.9731C72.8078 79.1531 72.6778 79.3931 72.6378 79.7031L72.4878 80.6631H73.3178L73.4578 79.7231C73.4878 79.5031 73.5578 79.3931 73.6578 79.3931H73.6778C73.7878 79.3931 73.8178 79.5031 73.7978 79.7231L73.5878 81.0831C73.5178 81.0331 73.4378 80.9831 73.3578 80.9531C73.2778 80.9131 73.1978 80.8931 73.1178 80.8931H73.0978C72.8378 80.8931 72.6478 80.9831 72.5378 81.1631C72.4378 81.3331 72.3578 81.5731 72.3178 81.8831L72.2078 82.6631C72.1878 82.8231 72.1778 82.9531 72.1678 83.0831C72.1578 83.1831 72.1678 83.2931 72.1978 83.3931C72.2178 83.4731 72.2678 83.5431 72.3378 83.5831C72.4278 83.6431 72.5378 83.6631 72.6378 83.6531H72.6678C72.7678 83.6531 72.8578 83.6331 72.9478 83.6031C73.0478 83.5631 73.1478 83.5131 73.2378 83.4631L73.2178 83.6231H74.0578L74.0978 83.3631L74.6178 79.7131C74.6678 79.3931 74.6278 79.1531 74.4778 78.9731ZM73.3278 82.8431C73.2878 82.9831 73.2278 83.0531 73.1378 83.0531H73.1178C73.0178 83.0531 72.9878 82.9431 73.0278 82.7331L73.1478 81.8231C73.1878 81.6031 73.2578 81.4931 73.3478 81.4931H73.4178C73.4178 81.4931 73.4678 81.5031 73.4778 81.5131C73.4978 81.5331 73.5178 81.5531 73.5178 81.5731L73.3278 82.8431Z" fill="#E8DFCE"/>
<path d="M76.0778 80.6618L76.2178 79.7118C76.2278 79.6318 76.2278 79.5518 76.2178 79.4818C76.1978 79.4218 76.1678 79.3918 76.1078 79.3918H76.0878C76.0878 79.3918 76.0278 79.4018 76.0078 79.4218C75.9878 79.4418 75.9678 79.4618 75.9578 79.4818C75.9178 79.5518 75.8978 79.6318 75.8878 79.7118L75.8178 80.1318C75.7878 80.3118 75.8178 80.5018 75.9278 80.6518C76.0378 80.7918 76.1478 80.9318 76.2678 81.0618C76.3978 81.2018 76.5078 81.3518 76.5978 81.5118C76.6978 81.6718 76.7278 81.8818 76.6978 82.1418L76.6178 82.6418C76.5878 82.9118 76.4678 83.1718 76.2578 83.3618C76.0678 83.5318 75.8278 83.6318 75.5678 83.6318H75.3978C75.1278 83.6318 74.9278 83.5418 74.7878 83.3618C74.6478 83.1818 74.5978 82.9418 74.6478 82.6418L74.7778 81.6718H75.5278L75.3878 82.6218C75.3678 82.8418 75.4178 82.9518 75.5278 82.9518H75.5678C75.6878 82.9518 75.7678 82.8418 75.7978 82.6218L75.8578 82.2018C75.8778 82.0818 75.8678 81.9518 75.8278 81.8318C75.7878 81.7218 75.7278 81.6218 75.6578 81.5318C75.5778 81.4418 75.4978 81.3418 75.4178 81.2618C75.3278 81.1718 75.2478 81.0718 75.1778 80.9718C75.1078 80.8618 75.0478 80.7418 75.0078 80.6218C74.9678 80.4718 74.9578 80.3218 74.9878 80.1718L75.0578 79.6718C75.0878 79.4018 75.2178 79.1518 75.4178 78.9518C75.5078 78.8618 75.6178 78.7918 75.7378 78.7518C75.8578 78.7018 75.9878 78.6818 76.1178 78.6818H76.2078C76.4778 78.6818 76.6778 78.7718 76.8278 78.9518C76.9678 79.1318 77.0178 79.3718 76.9678 79.6718L76.8278 80.6418H76.0778V80.6618Z" fill="#E8DFCE"/>
<path d="M78.4177 80.6618L78.5577 79.7118C78.5677 79.6318 78.5677 79.5518 78.5577 79.4818C78.5377 79.4218 78.5077 79.3918 78.4477 79.3918H78.4276C78.4276 79.3918 78.3677 79.4018 78.3477 79.4218C78.3277 79.4418 78.3077 79.4618 78.2977 79.4818C78.2577 79.5518 78.2376 79.6318 78.2276 79.7118L78.1577 80.1318C78.1277 80.3118 78.1577 80.5018 78.2677 80.6518C78.3777 80.7918 78.4877 80.9318 78.6077 81.0618C78.7377 81.2018 78.8477 81.3518 78.9377 81.5118C79.0377 81.6718 79.0676 81.8818 79.0376 82.1418L78.9576 82.6418C78.9276 82.9118 78.8077 83.1718 78.5977 83.3618C78.4077 83.5318 78.1677 83.6318 77.9077 83.6318H77.7377C77.4677 83.6318 77.2677 83.5418 77.1277 83.3618C76.9877 83.1818 76.9377 82.9418 76.9877 82.6418L77.1176 81.6718H77.8676L77.7276 82.6218C77.7076 82.8418 77.7576 82.9518 77.8676 82.9518H77.9077C78.0277 82.9518 78.1077 82.8418 78.1377 82.6218L78.1977 82.2018C78.2177 82.0818 78.2077 81.9518 78.1677 81.8318C78.1277 81.7218 78.0677 81.6218 77.9977 81.5318C77.9177 81.4418 77.8376 81.3518 77.7576 81.2618C77.6676 81.1718 77.5877 81.0718 77.5177 80.9718C77.4477 80.8618 77.3877 80.7418 77.3477 80.6218C77.3077 80.4718 77.2977 80.3218 77.3277 80.1718L77.3976 79.6718C77.4276 79.4018 77.5576 79.1518 77.7576 78.9518C77.8476 78.8618 77.9577 78.7918 78.0777 78.7518C78.1977 78.7018 78.3276 78.6818 78.4576 78.6818H78.5477C78.8177 78.6818 79.0177 78.7718 79.1677 78.9518C79.3177 79.1318 79.3576 79.3718 79.3176 79.6718L79.1776 80.6418H78.4276L78.4177 80.6618Z" fill="#E8DFCE"/>
<path d="M72.0175 78.9831C71.8575 78.8031 71.6275 78.7131 71.3475 78.7131H70.1475L69.4375 83.6231H70.3275L70.4375 82.8231H70.7675C71.0175 82.8331 71.2675 82.7731 71.4875 82.6431C71.6875 82.5131 71.8175 82.2931 71.8675 81.9831L72.1975 79.7331C72.2375 79.4031 72.1875 79.1531 72.0175 78.9831ZM71.2775 79.8731L71.0075 81.7031C70.9775 81.9631 70.9075 82.1031 70.7875 82.1031H70.5475L70.9375 79.4431H71.1475C71.2775 79.4431 71.3275 79.5831 71.2775 79.8731Z" fill="#E8DFCE"/>
<path d="M57.9502 39.6736C57.9502 39.6736 58.2159 44.0032 61.3419 48.0061C63.3863 50.6238 65.6005 50.3012 66.8879 49.7639C66.793 48.1409 66.831 46.1454 66.9288 43.6636L60.7597 40.0362L57.9492 39.6736H57.9502Z" fill="#21201E"/>
<path d="M55.485 35.2514C56.258 35.1515 56.7653 35.3543 57.067 35.556C57.018 31.5012 57.4205 26.5654 57.4205 26.5654H72.5343L72.4944 35.4891C72.4944 35.4891 72.4664 35.9306 72.4944 38.731C72.5283 42.1347 69.7629 47.3241 66.0566 47.3241C60.3568 47.3241 58.2654 43.1394 57.4625 39.9015C56.5626 40.1003 55.1554 40.2171 54.671 39.1774C53.9379 37.6044 54.0827 35.4322 55.485 35.2514Z" fill="#D2BEA6"/>
<path d="M63.7755 38.4352C64.0215 38.4352 64.2209 38.2358 64.2209 37.9897C64.2209 37.7437 64.0215 37.5443 63.7755 37.5443C63.5295 37.5443 63.3301 37.7437 63.3301 37.9897C63.3301 38.2358 63.5295 38.4352 63.7755 38.4352Z" fill="#21201E"/>
<path d="M68.4298 38.4352C68.6758 38.4352 68.8752 38.2358 68.8752 37.9897C68.8752 37.7437 68.6758 37.5443 68.4298 37.5443C68.1838 37.5443 67.9844 37.7437 67.9844 37.9897C67.9844 38.2358 68.1838 38.4352 68.4298 38.4352Z" fill="#21201E"/>
<path d="M65.6242 35.0063C65.6242 35.0063 65.3485 35.0802 64.1111 35.0802C62.8737 35.0802 62.3234 35.2001 62.3454 35.0802C62.4422 34.5659 64.6494 34.3072 65.018 34.3621C65.3865 34.417 65.776 34.6747 65.6232 35.0063H65.6242Z" fill="#21201E"/>
<path d="M67.5702 35.0063C67.5702 35.0063 67.8458 35.0802 69.0833 35.0802C70.3207 35.0802 70.871 35.2001 70.849 35.0802C70.7521 34.5659 68.5449 34.3072 68.1764 34.3621C67.8079 34.417 67.4184 34.6747 67.5712 35.0063H67.5702Z" fill="#21201E"/>
<path d="M56.711 35.1314L57.6269 38.3353C57.6269 38.3353 57.6948 34.5012 58.1362 32.0593C58.5777 29.6164 59.9339 29.0061 61.3082 28.7684C61.3491 28.7615 61.3951 28.7615 61.445 28.7684H71.3684C71.3684 28.7684 74.2458 27.8266 71.4134 24.6177C71.1307 24.4739 69.4938 24.1613 69.1752 24.0744C65.2881 23.0227 59.3597 21.5037 58.307 25.2729C58.307 25.2729 56.712 23.8926 56.1697 27.0606C55.6264 30.2266 56.713 35.1314 56.713 35.1314H56.711Z" fill="#21201E"/>
<path d="M66.4772 41.0963C66.5002 41.0824 66.6151 41.0634 66.7079 41.0484C67.0235 40.9965 67.417 40.9326 67.479 40.7098C67.5129 40.591 67.444 40.4602 67.2692 40.3093C66.619 39.7511 66.7329 38.5216 66.7339 38.5096L66.5991 38.4966C66.5941 38.5496 66.4772 39.809 67.1813 40.4132C67.3062 40.5211 67.3661 40.613 67.3491 40.6739C67.3102 40.8127 66.9047 40.8796 66.687 40.9156C66.5302 40.9415 66.4453 40.9565 66.4033 40.9845L66.4782 41.0973L66.4772 41.0963Z" fill="#21201E"/>
<path d="M66.4992 41.7672C66.4992 41.7672 65.3456 41.6534 64.5566 41.183C64.5566 41.183 64.7494 42.5722 66.4992 41.7672Z" fill="#21201E"/>
<path d="M72.5358 34.3548C72.5358 34.3548 72.0934 31.4955 70.4654 29.8675C70.4654 29.8675 66.4495 28.4204 64.522 33.1693C62.5944 37.9193 56.7139 35.1338 56.7139 35.1338L57.4829 34.7443C57.4829 34.7443 61.8733 36.3363 63.3874 33.2602C63.3874 33.2602 61.4469 35.9019 57.0674 34.3548L57.9513 26.8823L72.8824 25.9814C72.8824 25.9814 74.2446 28.9806 72.5358 34.3548Z" fill="#21201E"/>
<path d="M56.5744 25.7075C56.5744 25.7075 54.8436 22.7912 57.3404 20.9935C59.8373 19.1957 64.7311 20.1445 66.1792 20.9935C67.6274 21.8424 70.4498 19.1957 72.5342 21.4429C74.6185 23.69 72.3214 27.8847 72.3214 27.8847L56.5744 25.7075Z" fill="#21201E"/>
<path d="M70.4636 29.8675C70.4636 29.8675 69.7035 34.6674 72.6608 35.9458C72.6608 35.9458 74.7711 30.6865 72.8805 25.9814L70.4636 29.8675Z" fill="#21201E"/>
<path d="M45.415 115.474L41.4561 115.523C42.6146 103.255 46.2909 70.9176 46.3778 70.1576C46.3259 70.9126 44.2176 101.868 45.415 115.474Z" fill="#21201E"/>
<path d="M84.4095 115.946L83.7024 115.954L80.0391 71.8467L84.4095 115.946Z" fill="#21201E"/>
<path d="M94.2933 80.7832C91.8424 65.948 77.8412 59.2954 72.8535 57.3729C72.9114 57.3898 72.9684 57.4068 73.0273 57.4238C73.0523 57.4318 73.0772 57.4388 73.1022 57.4458C73.2061 57.4757 73.3119 57.5067 73.4198 57.5367C73.5816 57.5806 73.7464 57.6255 73.9152 57.6705C74.7601 57.8942 75.6799 58.1669 76.6457 58.4934C76.8864 58.5743 77.1311 58.6592 77.3768 58.7481C77.6235 58.837 77.8722 58.9289 78.1228 59.0248C78.3735 59.1206 78.6262 59.2195 78.8809 59.3224C80.342 59.9126 81.8521 60.6237 83.3262 61.4747C83.7287 61.7054 84.1282 61.9481 84.5237 62.2007C87.482 64.0933 90.1905 66.5832 91.9163 69.8171C92.0502 70.0668 92.178 70.3204 92.2989 70.5791C92.977 72.0253 93.4604 73.6113 93.6921 75.3501C93.8199 76.3119 93.9478 77.4085 94.0746 78.6079C94.1016 78.8676 94.1285 79.1323 94.1555 79.4019C94.2014 79.8504 94.2464 80.3108 94.2913 80.7832H94.2933Z" fill="#21201E"/>
<path d="M71.2523 56.8217L67.8086 61.7355C67.6498 61.9622 67.3163 61.9672 67.1505 61.7464L64.339 58.0002L61.8242 61.8373C61.6974 62.0321 61.4327 62.08 61.245 61.9432L53.9932 56.6619C54.2159 56.549 54.4406 56.4142 54.6623 56.2554C54.7123 56.2194 54.7622 56.1825 54.8121 56.1435C54.8421 56.1206 54.8731 56.0966 54.904 56.0716C54.9649 56.0237 55.0259 55.9728 55.0858 55.9198C55.1157 55.8939 55.1457 55.8679 55.1757 55.8399C55.2056 55.814 55.2346 55.787 55.2636 55.759C55.2945 55.7301 55.3245 55.7011 55.3544 55.6711C55.4144 55.6132 55.4733 55.5533 55.5302 55.4914C55.5602 55.4604 55.5881 55.4294 55.6161 55.3975C55.6451 55.3665 55.674 55.3336 55.702 55.3006C55.731 55.2677 55.7589 55.2347 55.7869 55.2007C55.8159 55.1668 55.8428 55.1328 55.8698 55.0979C55.8718 55.0969 55.8728 55.0959 55.8728 55.0949C55.8997 55.0609 55.9267 55.027 55.9537 54.992C63.4552 58.1969 67.4441 56.1765 68.7175 55.2637H68.7185C68.8044 55.3496 68.8943 55.4334 68.9872 55.5143C69.0331 55.5553 69.081 55.5952 69.129 55.6342C69.1779 55.6741 69.2268 55.7121 69.2768 55.751C69.3277 55.789 69.3787 55.8269 69.4306 55.8639C69.4835 55.9009 69.5365 55.9378 69.5904 55.9738C69.862 56.1545 70.1577 56.3223 70.4793 56.4801C70.4813 56.4811 70.4833 56.4821 70.4843 56.4831C70.5472 56.5141 70.6111 56.544 70.676 56.574C70.7429 56.606 70.8108 56.6369 70.8798 56.6659C70.9487 56.6968 71.0186 56.7268 71.0895 56.7558C71.0895 56.7558 71.0905 56.7558 71.0935 56.7568C71.1454 56.7797 71.1984 56.8017 71.2523 56.8217Z" fill="#6B4E46"/>
<path d="M71.2785 56.9557L67.8898 61.7906C67.7949 61.9264 67.6401 62.0073 67.4743 62.0073C67.3085 62.0073 67.1667 61.9334 67.0698 61.8045L64.3443 58.1721L62.97 60.2685L62.6834 60.7069L61.9074 61.8904C61.8135 62.0333 61.6557 62.1191 61.4829 62.1191C61.3761 62.1191 61.2722 62.0852 61.1853 62.0223L53.9375 56.744C54.0234 56.7539 54.1113 56.7599 54.1992 56.7599C54.2321 56.7599 54.2641 56.7589 54.296 56.7579L61.3032 61.8605C61.3561 61.8994 61.418 61.9194 61.4829 61.9194C61.5878 61.9194 61.6837 61.8675 61.7396 61.7806L62.6734 60.3564L62.9601 59.9189L64.3323 57.8246L67.2296 61.6847C67.2876 61.7626 67.3775 61.8075 67.4743 61.8075C67.5762 61.8075 67.6681 61.7596 67.726 61.6767L71.0109 56.9886C71.1017 56.9837 71.1906 56.9717 71.2785 56.9557Z" fill="#21201E"/>
<path d="M64.5824 114.785L64.2838 114.794L62.6848 60.7034L62.6748 60.3529L62.9614 59.9154L62.9714 60.265L64.5824 114.785Z" fill="#21201E"/>
<path d="M66.2845 109.133C66.5603 109.133 66.7839 108.91 66.7839 108.634C66.7839 108.358 66.5603 108.135 66.2845 108.135C66.0087 108.135 65.7852 108.358 65.7852 108.634C65.7852 108.91 66.0087 109.133 66.2845 109.133Z" fill="#21201E"/>
<path d="M65.9144 97.6063C66.1902 97.6063 66.4138 97.3828 66.4138 97.107C66.4138 96.8312 66.1902 96.6076 65.9144 96.6076C65.6386 96.6076 65.415 96.8312 65.415 97.107C65.415 97.3828 65.6386 97.6063 65.9144 97.6063Z" fill="#21201E"/>
<path d="M65.5462 86.0704C65.822 86.0704 66.0456 85.8468 66.0456 85.571C66.0456 85.2952 65.822 85.0717 65.5462 85.0717C65.2704 85.0717 65.0469 85.2952 65.0469 85.571C65.0469 85.8468 65.2704 86.0704 65.5462 86.0704Z" fill="#21201E"/>
<path d="M65.1771 74.5435C65.4529 74.5435 65.6765 74.3199 65.6765 74.0441C65.6765 73.7683 65.4529 73.5447 65.1771 73.5447C64.9013 73.5447 64.6777 73.7683 64.6777 74.0441C64.6777 74.3199 64.9013 74.5435 65.1771 74.5435Z" fill="#21201E"/>
<path d="M64.8089 63.0165C65.0847 63.0165 65.3083 62.7929 65.3083 62.5171C65.3083 62.2413 65.0847 62.0178 64.8089 62.0178C64.5331 62.0178 64.3096 62.2413 64.3096 62.5171C64.3096 62.7929 64.5331 63.0165 64.8089 63.0165Z" fill="#21201E"/>
</g>
</g>
<defs>
<clipPath id="clip0_8195_111773">
<rect width="120.455" height="115" fill="white" transform="translate(0.544922 0.594727)"/>
</clipPath>
<clipPath id="clip1_8195_111773">
<rect width="120.455" height="115" fill="white" transform="translate(0.544922 0.594727)"/>
</clipPath>
</defs>
</svg>
