<svg width="24" height="25" viewBox="0 0 24 25" fill="none" xmlns="http://www.w3.org/2000/svg">
<g clip-path="url(#clip0_8195_111774)">
<path d="M8 5.84277C7.59 5.84277 7.25 5.50277 7.25 5.09277V2.09277C7.25 1.68277 7.59 1.34277 8 1.34277C8.41 1.34277 8.75 1.68277 8.75 2.09277V5.09277C8.75 5.50277 8.41 5.84277 8 5.84277Z" fill="#6B4E46"/>
<path d="M16 5.84277C15.59 5.84277 15.25 5.50277 15.25 5.09277V2.09277C15.25 1.68277 15.59 1.34277 16 1.34277C16.41 1.34277 16.75 1.68277 16.75 2.09277V5.09277C16.75 5.50277 16.41 5.84277 16 5.84277Z" fill="#6B4E46"/>
<path d="M15 13.8428H7C6.59 13.8428 6.25 13.5028 6.25 13.0928C6.25 12.6828 6.59 12.3428 7 12.3428H15C15.41 12.3428 15.75 12.6828 15.75 13.0928C15.75 13.5028 15.41 13.8428 15 13.8428Z" fill="#6B4E46"/>
<path d="M12 17.8428H7C6.59 17.8428 6.25 17.5028 6.25 17.0928C6.25 16.6828 6.59 16.3428 7 16.3428H12C12.41 16.3428 12.75 16.6828 12.75 17.0928C12.75 17.5028 12.41 17.8428 12 17.8428Z" fill="#6B4E46"/>
<path d="M15 22.8428H9C3.38 22.8428 2.25 20.1928 2.25 15.9128V9.74277C2.25 5.00277 3.85 3.07277 7.96 2.84277H16C16.01 2.84277 16.03 2.84277 16.04 2.84277C20.15 3.07277 21.75 5.00277 21.75 9.74277V15.9128C21.75 20.1928 20.62 22.8428 15 22.8428ZM8 4.34277C5.2 4.50277 3.75 5.38277 3.75 9.74277V15.9128C3.75 19.7428 4.48 21.3428 9 21.3428H15C19.52 21.3428 20.25 19.7428 20.25 15.9128V9.74277C20.25 5.39277 18.81 4.50277 15.98 4.34277H8Z" fill="#6B4E46"/>
</g>
<defs>
<clipPath id="clip0_8195_111774">
<rect width="24" height="24" fill="white" transform="translate(0 0.0947266)"/>
</clipPath>
</defs>
</svg>
