<svg width="548" height="310" viewBox="0 0 548 310" fill="none" xmlns="http://www.w3.org/2000/svg">
<g clip-path="url(#clip0_8250_28271)">
<path d="M364.272 174.072C355.358 174.072 347.525 172.367 340.752 168.947C334.099 165.413 328.907 160.518 325.185 154.264C321.464 148.01 319.603 140.7 319.603 132.334V78.5692C319.603 70.2028 321.464 62.8822 325.185 56.6388C328.907 50.3849 334.099 45.5533 340.752 42.1335C347.515 38.7137 355.358 37.0091 364.272 37.0091C373.185 37.0091 380.969 38.7137 387.621 42.1335C394.384 45.5533 399.636 50.3849 403.358 56.6388C407.08 62.8927 408.94 70.2028 408.94 78.5692V132.334C408.94 140.7 407.08 148.01 403.358 154.264C399.636 160.518 394.394 165.402 387.621 168.947C380.969 172.367 373.185 174.072 364.272 174.072ZM364.272 143.472C366.643 143.472 368.443 142.886 369.684 141.704C371.034 140.522 371.715 139.288 371.715 137.992V73.0788C371.715 71.4264 371.034 70.0668 369.684 69.0106C368.443 67.9543 366.643 67.421 364.272 67.421C361.901 67.421 359.87 68.0066 358.519 69.1884C357.279 70.2446 356.658 71.5414 356.658 73.0788V137.992C356.658 139.529 357.279 140.826 358.519 141.882C359.87 142.938 361.791 143.472 364.272 143.472ZM397.095 294.517H360.21L469.336 39.2994H506.391L397.095 294.517ZM502.33 296.818C493.416 296.818 485.583 295.102 478.81 291.683C472.157 288.148 466.965 283.253 463.243 277C459.522 270.746 457.661 263.436 457.661 255.069V201.304C457.661 192.928 459.522 185.68 463.243 179.552C466.965 173.298 472.157 168.466 478.81 165.047C485.573 161.512 493.416 159.744 502.33 159.744C511.243 159.744 519.027 161.512 525.679 165.047C532.452 168.466 537.694 173.298 541.416 179.552C545.138 185.68 546.998 192.938 546.998 201.304V255.069C546.998 263.436 545.138 270.746 541.416 277C537.694 283.253 532.452 288.137 525.679 291.683C519.027 295.102 511.243 296.818 502.33 296.818ZM502.33 266.04C504.701 266.04 506.501 265.506 507.742 264.45C509.092 263.394 509.773 262.086 509.773 260.56V195.824C509.773 194.172 509.092 192.813 507.742 191.756C506.501 190.7 504.701 190.167 502.33 190.167C499.959 190.167 497.988 190.752 496.747 191.934C495.507 192.99 494.886 194.287 494.886 195.824V260.56C494.886 262.097 495.507 263.394 496.747 264.45C497.988 265.506 499.849 266.04 502.33 266.04Z" fill="#7C85C1"/>
<path d="M235.178 298.408C220.512 298.408 207.717 295.343 196.772 289.215C185.947 283.087 177.484 274.532 171.391 263.572C165.409 252.487 162.428 239.404 162.428 224.313V109.525C162.428 94.4345 165.419 81.4038 171.391 70.4334C177.484 59.3479 185.937 50.7409 196.772 44.6125C207.717 38.4841 220.512 35.4199 235.178 35.4199C249.844 35.4199 262.42 38.4841 273.244 44.6125C284.189 50.7409 292.642 59.3479 298.625 70.4334C304.717 81.4038 307.759 94.4241 307.759 109.525V224.313C307.759 239.404 304.707 252.497 298.625 263.572C292.642 274.542 284.189 283.087 273.244 289.215C262.42 295.343 249.724 298.408 235.178 298.408ZM235.178 249.6C238.219 249.6 240.82 248.837 242.961 247.299C245.102 245.762 246.743 243.702 247.863 241.108C248.994 238.515 249.554 235.45 249.554 231.916V101.922C249.554 98.2622 248.994 95.1457 247.863 92.5521C246.733 89.9585 245.102 87.9505 242.961 86.5387C240.82 85.0014 238.219 84.238 235.178 84.238C232.137 84.238 229.366 85.0014 227.225 86.5387C225.084 87.9505 223.443 90.0212 222.323 92.7299C221.192 95.3235 220.632 98.3877 220.632 101.922V231.916C220.632 235.45 221.192 238.577 222.323 241.286C223.453 243.88 225.084 245.94 227.225 247.477C229.366 248.889 232.017 249.6 235.178 249.6Z" fill="#7C85C1"/>
<path d="M79.3546 298.228C64.4683 298.228 51.6629 295.394 40.9484 289.736C30.2339 284.079 21.9405 276.005 16.078 265.505C10.3256 254.89 7.39435 242.215 7.28431 227.48V211.563H61.9372L62.1073 231.015C62.1073 234.79 62.7276 238.032 63.9681 240.741C65.2086 243.449 66.9594 245.52 69.2103 246.932C71.5813 248.343 74.4025 249.055 77.6738 249.055C80.9452 249.055 83.7064 248.343 85.9673 246.932C88.3383 245.394 90.1391 243.334 91.3796 240.741C92.6201 238.032 93.2404 234.727 93.2404 230.837V203.249C93.2404 197.235 91.6597 192.696 88.4984 189.632C85.4571 186.453 80.9952 184.853 75.1328 184.853H56.3549V142.048H74.1224C77.954 142.048 81.1153 141.4 83.5963 140.103C86.1874 138.691 88.1082 136.683 89.3487 134.09C90.6993 131.496 91.3796 128.369 91.3796 124.719V98.7207C91.3796 95.1859 90.8194 92.1739 89.6889 89.7059C88.5584 87.1123 86.8677 85.1671 84.6168 83.8703C82.4759 82.4585 79.8748 81.7473 76.8335 81.7473C73.7922 81.7473 71.1911 82.4585 69.0502 83.8703C66.9093 85.1671 65.2186 87.1123 63.9781 89.7059C62.8476 92.2994 62.2874 95.3636 62.2874 98.8985V120.473H11.1759V101.021C11.286 87.5829 13.9971 76.0268 19.2993 66.3531C24.7116 56.5644 32.4349 49.0242 42.4791 43.7115C52.5133 38.2838 64.5884 35.5752 78.6843 35.5752C92.7802 35.5752 104.575 38.1688 114.379 43.3559C124.303 48.4281 131.857 55.7382 137.049 65.2864C142.351 74.7195 145.002 86.1606 145.002 99.5991V111.27C145.002 120.233 143.652 128.191 140.94 135.146C138.349 141.985 134.398 147.643 129.095 152.119C123.903 156.48 117.421 159.429 109.637 160.967V162.201C122.943 163.738 133.207 169.04 140.43 178.118C147.653 187.08 151.255 199.222 151.255 214.554V227.637C151.255 242.257 148.374 254.869 142.631 265.484C136.879 275.974 128.645 284.058 117.931 289.715C107.216 295.373 94.3609 298.207 79.3546 298.207V298.228Z" fill="#7C85C1"/>
<path d="M501.329 296.816C492.155 296.816 483.952 295.017 476.939 291.482C469.946 287.77 464.444 282.572 460.542 276.025C456.64 269.468 454.66 261.719 454.66 252.986V199.222C454.66 190.489 456.64 182.792 460.552 176.35C464.454 169.803 469.966 164.668 476.929 161.092C483.932 157.431 492.145 155.57 501.329 155.57C510.513 155.57 518.676 157.431 525.589 161.102C532.632 164.658 538.205 169.803 542.116 176.36C546.018 182.792 547.999 190.489 547.999 199.222V252.986C547.999 261.719 546.018 269.468 542.116 276.025C538.215 282.582 532.652 287.77 525.579 291.472C518.666 295.027 510.513 296.826 501.339 296.826L501.329 296.816ZM501.329 159.743C492.776 159.743 485.162 161.458 478.71 164.825C472.417 168.057 467.455 172.679 463.943 178.567C460.432 184.34 458.661 191.284 458.661 199.211V252.976C458.661 260.913 460.442 267.92 463.943 273.798C467.455 279.686 472.427 284.371 478.72 287.717C485.142 290.97 492.766 292.622 501.329 292.622C509.893 292.622 517.446 290.97 523.799 287.707C530.191 284.371 535.213 279.686 538.715 273.798C542.216 267.92 543.997 260.913 543.997 252.976V199.211C543.997 191.284 542.226 184.34 538.725 178.577C535.213 172.69 530.201 168.067 523.809 164.836C517.436 161.447 509.883 159.732 501.329 159.732V159.743ZM397.386 294.515H356.118L467.035 35.1144H508.472L397.386 294.515ZM362.291 290.332H394.794L502.3 39.2976H469.636L362.301 290.332H362.291ZM501.329 266.038C498.388 266.038 496.077 265.337 494.476 263.967C492.776 262.513 491.885 260.61 491.885 258.456V193.721C491.885 191.587 492.766 189.694 494.436 188.251C496.047 186.745 498.368 185.971 501.329 185.971C504.29 185.971 506.411 186.661 508.012 188.031C509.793 189.433 510.773 191.409 510.773 193.721V258.456C510.773 259.983 510.283 262.189 507.942 264.019C506.411 265.337 504.16 266.027 501.329 266.027V266.038ZM501.329 190.165C499.368 190.165 497.948 190.573 497.097 191.388L497.017 191.462C496.237 192.131 495.887 192.832 495.887 193.731V258.466C495.887 259.376 496.237 260.077 497.017 260.736C497.888 261.478 499.338 261.855 501.329 261.855C503.21 261.855 504.611 261.478 505.471 260.736C506.631 259.826 506.771 259.041 506.771 258.466V193.731C506.771 192.738 506.391 192.006 505.541 191.336C504.611 190.541 503.21 190.165 501.329 190.165ZM363.271 174.07C354.097 174.07 345.894 172.271 338.881 168.736C331.888 165.024 326.386 159.826 322.484 153.279C318.582 146.722 316.602 138.973 316.602 130.24V76.4758C316.602 67.7434 318.582 59.994 322.484 53.4368C326.386 46.8796 331.898 41.7447 338.861 38.1576C345.884 34.6124 354.087 32.8136 363.261 32.8136C372.435 32.8136 380.588 34.6124 387.491 38.1576C394.564 41.7343 400.137 46.8692 404.038 53.4368C407.94 59.994 409.921 67.7434 409.921 76.4758V130.24C409.921 138.973 407.94 146.722 404.038 153.279C400.137 159.826 394.574 165.024 387.501 168.726C380.588 172.282 372.435 174.08 363.261 174.08L363.271 174.07ZM363.271 37.0073C354.708 37.0073 347.084 38.6596 340.622 41.933C334.349 45.1541 329.387 49.7765 325.886 55.6539C322.384 61.5418 320.603 68.5486 320.603 76.4758V130.24C320.603 138.178 322.384 145.185 325.886 151.062C329.397 156.95 334.369 161.635 340.662 164.982C347.084 168.224 354.708 169.887 363.271 169.887C371.835 169.887 379.388 168.234 385.741 164.972C392.133 161.635 397.155 156.95 400.657 151.062C404.158 145.175 405.939 138.168 405.939 130.24V76.4758C405.939 68.5382 404.158 61.5313 400.657 55.6539C397.155 49.7765 392.143 45.1541 385.751 41.933C379.388 38.6701 371.835 37.0073 363.271 37.0073ZM363.271 143.47C360.36 143.47 358.019 142.79 356.318 141.462C354.558 139.956 353.657 138.053 353.657 135.898V70.9854C353.657 68.831 354.558 66.9276 356.248 65.474C357.949 63.9889 360.32 63.236 363.271 63.236C366.222 63.236 368.353 63.9262 369.954 65.2962C371.735 66.6976 372.715 68.6741 372.715 70.9854V135.898C372.715 137.843 371.795 139.632 369.964 141.221C368.413 142.696 366.142 143.47 363.271 143.47ZM363.271 67.4192C361.28 67.4192 359.78 67.848 358.799 68.7055C358.009 69.3853 357.659 70.086 357.659 70.9854V135.898C357.659 136.808 358.009 137.509 358.789 138.168C359.72 138.889 361.25 139.287 363.271 139.287C365.122 139.287 366.483 138.879 367.343 138.063C368.283 137.247 368.724 136.536 368.724 135.898V70.9854C368.724 69.9918 368.343 69.2598 367.493 68.5905C366.563 67.7957 365.162 67.4192 363.281 67.4192H363.271Z" fill="#21201E"/>
<path d="M233.179 299.452C218.253 299.452 205.017 296.272 193.832 290.008C182.718 283.712 173.914 274.823 167.671 263.57C161.539 252.202 158.438 238.649 158.438 223.255V108.467C158.438 93.0732 161.539 79.5823 167.671 68.3504C173.924 56.9721 182.728 48.0096 193.832 41.7243C205.027 35.4495 218.263 32.2703 233.189 32.2703C248.115 32.2703 261.141 35.4495 272.205 41.7243C283.43 48.0096 292.234 56.9721 298.376 68.3609C304.609 79.5719 307.77 93.0836 307.77 108.478V223.265C307.77 238.659 304.609 252.213 298.366 263.57C292.234 274.823 283.43 283.723 272.195 290.019C261.131 296.283 247.995 299.462 233.179 299.462V299.452ZM233.179 36.4535C218.923 36.4535 206.318 39.4654 195.713 45.4055C185.279 51.3143 176.995 59.733 171.123 70.4211C165.35 81.0046 162.419 93.8157 162.419 108.467V223.255C162.419 237.917 165.35 250.78 171.133 261.489C176.995 272.041 185.269 280.408 195.723 286.327C206.318 292.257 218.923 295.268 233.179 295.268C247.435 295.268 259.81 292.257 270.295 286.327C280.859 280.408 289.122 272.052 294.885 261.489C300.777 250.77 303.759 237.917 303.759 223.265V108.478C303.759 93.8262 300.777 81.036 294.895 70.442C289.122 59.7435 280.849 51.3248 270.305 45.416C259.82 39.4758 247.325 36.4639 233.179 36.4639V36.4535ZM233.179 250.634C229.647 250.634 226.616 249.807 224.155 248.186C221.654 246.398 219.773 244.024 218.493 241.096C217.242 238.094 216.622 234.664 216.622 230.858V100.864C216.622 97.0472 217.252 93.6588 218.493 90.8038C219.763 87.7396 221.674 85.3447 224.155 83.7132C226.566 81.9877 229.627 81.0883 233.179 81.0883C236.73 81.0883 239.622 81.9877 242.093 83.7551C244.494 85.3447 246.405 87.6664 247.695 90.626C248.936 93.481 249.566 96.9217 249.566 100.864V230.858C249.566 234.675 248.936 238.063 247.695 240.918C246.415 243.857 244.534 246.231 242.093 247.967C239.622 249.734 236.62 250.634 233.179 250.634ZM233.179 85.2715C230.448 85.2715 228.147 85.9199 226.356 87.2062C224.485 88.4403 223.125 90.1658 222.154 92.5084C221.134 94.851 220.624 97.6538 220.624 100.875V230.868C220.624 234.1 221.134 236.975 222.154 239.412C223.125 241.64 224.505 243.386 226.356 244.714C228.107 245.865 230.418 246.471 233.179 246.471C235.94 246.471 238.011 245.844 239.832 244.537C241.683 243.208 243.063 241.472 244.044 239.203C245.044 236.892 245.554 234.089 245.554 230.868V100.875C245.554 97.5388 245.044 94.6733 244.044 92.3725C243.073 90.1345 241.713 88.4612 239.892 87.2585C238.011 85.9094 235.83 85.282 233.179 85.282V85.2715Z" fill="#21201E"/>
<path d="M78.3524 298.23C63.2161 298.23 49.9905 295.302 39.0459 289.519C28.0313 283.704 19.3877 275.275 13.3451 264.472C7.43265 253.575 4.39137 240.44 4.27132 225.411V207.382H62.9059L63.096 228.904C63.096 232.366 63.6563 235.336 64.7567 237.752C65.8372 240.105 67.2978 241.841 69.2286 243.054C71.2394 244.257 73.7605 244.884 76.6617 244.884C79.5629 244.884 81.9939 244.267 83.9248 243.054C85.9656 241.736 87.4963 239.979 88.5767 237.72C89.6672 235.336 90.2274 232.314 90.2274 228.747V201.159C90.2274 195.7 88.8868 191.747 86.1257 189.07C83.4345 186.257 79.4129 184.855 74.1206 184.855H53.3419V137.867H73.1102C76.6117 137.867 79.5029 137.282 81.6938 136.142C83.8947 134.939 85.4954 133.276 86.5559 131.059C87.7764 128.727 88.3766 125.903 88.3766 122.62V96.6209C88.3766 93.4103 87.8764 90.6807 86.876 88.5055C85.9056 86.2779 84.525 84.6883 82.6442 83.6007L82.5442 83.5379C80.7334 82.3457 78.4725 81.7391 75.8314 81.7391C73.1903 81.7391 70.9293 82.3457 69.1185 83.5379C67.2377 84.6778 65.8372 86.2988 64.7667 88.5369C63.7963 90.7749 63.2861 93.5776 63.2861 96.7987V120.465H8.17296V98.9217C8.28301 85.1589 11.1142 73.1531 16.5565 63.218C22.1488 53.1156 30.2222 45.2198 40.5666 39.7502C50.8309 34.2075 63.3161 31.3838 77.6721 31.3838C92.0282 31.3838 104.223 34.082 114.277 39.3946C124.502 44.6132 132.415 52.2789 137.787 62.1617C143.23 71.8459 146.001 83.7471 146.001 97.5098V109.181C146.001 118.374 144.58 126.667 141.789 133.841C139.088 140.973 134.896 146.966 129.354 151.661C125.482 154.924 120.88 157.445 115.628 159.191C126.213 161.638 134.716 166.836 140.969 174.69C148.462 183.987 152.253 196.694 152.253 212.464V225.547C152.253 240.46 149.262 253.543 143.37 264.43C137.437 275.244 128.854 283.673 117.829 289.498C106.884 295.281 93.5988 298.21 78.3524 298.21V298.23ZM8.28301 211.575V225.401C8.39305 239.697 11.2643 252.142 16.8166 262.401C22.4389 272.472 30.5323 280.347 40.8467 285.796C51.231 291.276 63.8463 294.058 78.3524 294.058C92.8585 294.058 105.644 291.276 116.028 285.796C126.333 280.347 134.366 272.472 139.898 262.391C145.451 252.152 148.262 239.77 148.262 225.579V212.496C148.262 197.739 144.78 185.943 137.907 177.409C131.055 168.792 121.14 163.688 108.425 162.224L106.644 162.015V157.173L108.275 156.849C115.698 155.384 121.941 152.55 126.853 148.43C131.855 144.205 135.636 138.777 138.087 132.314C140.689 125.621 142.009 117.861 142.009 109.212V97.5412C142.009 84.5419 139.428 73.3518 134.336 64.2847C129.364 55.1235 122.021 48.033 112.517 43.17C103.003 38.1397 91.2979 35.5984 77.6921 35.5984C64.0864 35.5984 52.1114 38.2547 42.4073 43.5046C32.7533 48.6081 25.2301 55.9497 20.0379 65.3305C14.9358 74.6277 12.2947 85.9537 12.1846 98.9635V116.313H59.2744V96.8301C59.2744 93.0129 59.9047 89.6245 61.1452 86.7694C62.5858 83.7471 64.5666 81.4882 67.0377 79.9927C69.4287 78.4135 72.4099 77.5873 75.8214 77.5873C79.2328 77.5873 82.174 78.403 84.625 80.0031C87.2261 81.5195 89.207 83.7889 90.5075 86.7799C91.748 89.4885 92.3783 92.8351 92.3783 96.6627V122.661C92.3783 126.656 91.608 130.149 90.1074 133.036C88.7168 135.953 86.4858 138.286 83.5246 139.907C80.7434 141.36 77.252 142.092 73.1202 142.092H57.3536V180.714H74.1306C80.5233 180.714 85.4954 182.523 88.9068 186.1C92.4183 189.509 94.2291 194.613 94.2291 201.201V228.789C94.2291 232.972 93.5388 236.612 92.1682 239.592C90.7476 242.562 88.6768 244.926 86.0056 246.662C83.4245 248.283 80.2832 249.099 76.6617 249.099C73.0402 249.099 69.8689 248.293 67.2077 246.704C64.5866 245.062 62.5558 242.678 61.1552 239.603C59.7946 236.622 59.0943 233.046 59.0943 228.978L58.9443 211.617H8.28301V211.575Z" fill="#21201E"/>
<path d="M362.994 171.698C354.08 171.698 346.247 169.994 339.474 166.574C332.821 163.039 327.629 158.145 323.907 151.891C320.186 145.647 318.325 138.327 318.325 129.96V76.1957C318.325 67.8293 320.186 60.5087 323.907 54.2653C327.629 48.0114 332.821 43.1798 339.474 39.76C346.247 36.3402 354.08 34.6356 362.994 34.6356C371.907 34.6356 379.691 36.3402 386.344 39.76C393.116 43.1798 398.359 48.0114 402.08 54.2653C405.802 60.5192 407.662 67.8293 407.662 76.1957V129.96C407.662 138.327 405.802 145.647 402.08 151.891C398.359 158.145 393.116 163.029 386.344 166.574C379.691 169.994 371.907 171.698 362.994 171.698ZM362.994 141.098C365.365 141.098 367.165 140.513 368.406 139.331C369.757 138.149 370.437 136.915 370.437 135.618V70.7053C370.437 69.0529 369.757 67.6934 368.406 66.6371C367.165 65.5809 365.365 65.0475 362.994 65.0475C360.623 65.0475 358.592 65.6331 357.241 66.8149C356.001 67.8712 355.381 69.1679 355.381 70.7053V135.618C355.381 137.156 356.001 138.452 357.241 139.509C358.592 140.565 360.513 141.098 362.994 141.098ZM395.818 292.143H358.932L468.058 36.9259H505.113L395.818 292.143ZM501.052 294.444C492.138 294.444 484.305 292.729 477.532 289.32C470.879 285.785 465.687 280.89 461.965 274.637C458.244 268.383 456.383 261.073 456.383 252.706V198.941C456.383 190.575 458.244 183.317 461.965 177.189C465.687 170.935 470.879 166.103 477.532 162.684C484.305 159.149 492.138 157.381 501.052 157.381C509.965 157.381 517.749 159.149 524.401 162.684C531.174 166.103 536.416 170.935 540.138 177.189C543.86 183.317 545.72 190.575 545.72 198.941V252.706C545.72 261.073 543.86 268.383 540.138 274.637C536.416 280.89 531.174 285.774 524.401 289.32C517.749 292.739 509.965 294.444 501.052 294.444ZM501.052 263.666C503.423 263.666 505.223 263.133 506.464 262.076C507.815 261.02 508.495 259.723 508.495 258.186V193.451C508.495 191.799 507.815 190.439 506.464 189.383C505.223 188.327 503.413 187.793 501.052 187.793C498.691 187.793 496.71 188.379 495.469 189.561C494.229 190.617 493.609 191.914 493.609 193.451V258.186C493.609 259.723 494.229 261.02 495.469 262.076C496.71 263.133 498.571 263.666 501.052 263.666Z" fill="white"/>
<path d="M233.896 296.034C219.23 296.034 206.435 292.97 195.49 286.842C184.666 280.713 176.202 272.159 170.11 261.199C164.127 250.113 161.146 237.03 161.146 221.939V107.152C161.146 92.061 164.137 79.0304 170.11 68.0599C176.202 56.9744 184.656 48.3675 195.49 42.2391C206.435 36.1107 219.23 33.0465 233.896 33.0465C248.562 33.0465 261.138 36.1107 271.962 42.2391C282.907 48.3675 291.36 56.9744 297.343 68.0599C303.435 79.0304 306.477 92.0506 306.477 107.152V221.939C306.477 237.03 303.435 250.123 297.343 261.199C291.36 272.169 282.907 280.713 271.962 286.842C261.138 292.97 248.442 296.034 233.896 296.034ZM233.896 247.216C236.938 247.216 239.539 246.453 241.68 244.915C243.82 243.378 245.461 241.318 246.582 238.724C247.712 236.131 248.272 233.066 248.272 229.532V99.5385C248.272 95.8782 247.712 92.7617 246.582 90.1681C245.451 87.5746 243.82 85.5666 241.68 84.1548C239.539 82.6175 236.938 81.854 233.896 81.854C230.855 81.854 228.084 82.6175 225.943 84.1548C223.802 85.5666 222.161 87.6373 221.041 90.3459C219.91 92.9395 219.35 96.0037 219.35 99.5385V229.532C219.35 233.066 219.91 236.193 221.041 238.902C222.171 241.496 223.802 243.556 225.943 245.093C228.084 246.505 230.735 247.216 233.896 247.216Z" fill="white"/>
<path d="M78.0728 295.853C63.1865 295.853 50.3811 293.019 39.6666 287.361C28.9522 281.703 20.6587 273.63 14.7962 263.13C9.0438 252.515 6.11257 239.84 6.00252 225.104V209.187H60.6555L60.8255 228.639C60.8255 232.415 61.4458 235.657 62.6863 238.365C63.9268 241.074 65.6776 243.145 67.9285 244.556C70.2995 245.968 73.1207 246.679 76.3921 246.679C79.6634 246.679 82.4246 245.968 84.6855 244.556C87.0565 243.019 88.8573 240.959 90.0978 238.365C91.3383 235.657 91.9586 232.352 91.9586 228.461V200.873C91.9586 194.86 90.3779 190.321 87.2166 187.257C84.1753 184.078 79.7135 182.478 73.851 182.478H55.0731V139.673H72.8406C76.6722 139.673 79.8335 139.025 82.3145 137.728C84.9056 136.316 86.8264 134.308 88.067 131.714C89.4175 129.121 90.0978 125.994 90.0978 122.344V96.3454C90.0978 92.8106 89.5376 89.7987 88.4071 87.3201C87.2766 84.7265 85.5859 82.7813 83.335 81.4846C81.1941 80.0727 78.593 79.3616 75.5517 79.3616C72.5104 79.3616 69.9093 80.0727 67.7684 81.4846C65.6275 82.7813 63.9368 84.7265 62.6963 87.3201C61.5658 89.9137 61.0056 92.9779 61.0056 96.5127V118.088H9.89415V98.6357C10.0042 85.1971 12.7153 73.641 18.0176 63.9674C23.4298 54.1787 31.1531 46.6384 41.1973 41.3258C51.2315 35.8981 63.3066 33.1894 77.4025 33.1894C91.4984 33.1894 103.293 35.783 113.097 40.9702C123.022 46.0423 130.585 53.3525 135.767 62.9007C141.069 72.3338 143.72 83.7749 143.72 97.2134V108.885C143.72 117.847 142.37 125.806 139.659 132.76C137.068 139.6 133.116 145.258 127.814 149.744C122.621 154.105 116.139 157.054 108.355 158.591V159.826C121.661 161.363 131.925 166.665 139.148 175.743C146.361 184.705 149.973 196.847 149.973 212.178V225.261C149.973 239.882 147.092 252.494 141.349 263.109C135.597 273.609 127.363 281.682 116.649 287.34C105.934 292.998 93.0791 295.832 78.0728 295.832V295.853Z" fill="white"/>
<path d="M497.05 293.396C487.876 293.396 479.673 291.598 472.66 288.063C465.667 284.35 460.165 279.153 456.263 272.606C452.361 266.049 450.38 258.299 450.38 249.567V195.802C450.38 187.07 452.361 179.373 456.273 172.931C460.165 166.384 465.677 161.249 472.64 157.672C479.643 154.012 487.856 152.151 497.04 152.151C506.224 152.151 514.387 154.012 521.29 157.683C528.333 161.239 533.905 166.384 537.817 172.941C541.719 179.373 543.7 187.07 543.7 195.802V249.567C543.7 258.299 541.719 266.049 537.817 272.606C533.916 279.163 528.353 284.361 521.28 288.052C514.367 291.608 506.214 293.396 497.04 293.396H497.05ZM497.05 156.323C488.496 156.323 480.883 158.038 474.431 161.406C468.138 164.637 463.176 169.26 459.674 175.137C456.163 180.91 454.392 187.854 454.392 195.792V249.556C454.392 257.494 456.173 264.501 459.674 270.378C463.186 276.266 468.158 280.951 474.451 284.298C480.873 287.54 488.496 289.203 497.06 289.203C505.624 289.203 513.177 287.55 519.529 284.288C525.912 280.951 530.944 276.266 534.446 270.378C537.947 264.501 539.728 257.484 539.728 249.556V195.792C539.728 187.865 537.957 180.92 534.456 175.158C530.944 169.26 525.932 164.648 519.539 161.416C513.167 158.028 505.614 156.323 497.06 156.323H497.05ZM393.106 291.096H351.839L462.756 31.6951H504.193L393.106 291.096ZM358.012 286.912H390.515L498.02 35.8783H465.357L358.022 286.912H358.012ZM497.05 262.619C494.109 262.619 491.798 261.928 490.197 260.558C488.496 259.105 487.606 257.201 487.606 255.047V190.312C487.606 188.178 488.486 186.285 490.157 184.832C491.768 183.326 494.089 182.552 497.05 182.552C500.011 182.552 502.132 183.242 503.733 184.612C505.514 186.014 506.494 187.99 506.494 190.301V255.036C506.494 256.563 506.004 258.77 503.663 260.6C502.122 261.918 499.881 262.608 497.05 262.608V262.619ZM497.05 186.746C495.089 186.746 493.669 187.153 492.808 187.969L492.728 188.042C491.948 188.712 491.598 189.412 491.598 190.312V255.047C491.598 255.957 491.948 256.657 492.728 257.316C493.599 258.059 495.049 258.435 497.04 258.435C498.921 258.435 500.321 258.059 501.192 257.316C502.342 256.406 502.482 255.633 502.482 255.047V190.312C502.482 189.318 502.102 188.586 501.252 187.917C500.321 187.122 498.921 186.746 497.04 186.746H497.05ZM358.992 170.651C349.818 170.651 341.615 168.852 334.602 165.317C327.609 161.605 322.107 156.407 318.205 149.86C314.303 143.303 312.322 135.554 312.322 126.821V73.0565C312.322 64.3241 314.303 56.5747 318.205 50.0175C322.107 43.4604 327.619 38.3255 334.582 34.7384C341.605 31.1931 349.808 29.3943 358.982 29.3943C368.156 29.3943 376.309 31.1931 383.212 34.7384C390.285 38.315 395.858 43.4499 399.759 50.0175C403.661 56.5747 405.642 64.3241 405.642 73.0565V126.821C405.642 135.554 403.661 143.303 399.759 149.86C395.858 156.417 390.295 161.615 383.222 165.307C376.309 168.862 368.156 170.661 358.982 170.661L358.992 170.651ZM358.992 33.5775C350.428 33.5775 342.805 35.2299 336.343 38.5033C330.07 41.7243 325.108 46.3468 321.606 52.2242C318.105 58.112 316.324 65.1189 316.324 73.0461V126.811C316.324 134.748 318.105 141.755 321.606 147.633C325.118 153.531 330.09 158.206 336.383 161.552C342.815 164.794 350.428 166.457 358.992 166.457C367.556 166.457 375.109 164.805 381.461 161.542C387.844 158.206 392.876 153.521 396.378 147.633C399.879 141.755 401.66 134.738 401.66 126.811V73.0461C401.66 65.1084 399.879 58.1016 396.378 52.2242C392.876 46.3468 387.864 41.7243 381.471 38.5033C375.109 35.2404 367.556 33.5775 358.992 33.5775ZM358.992 140.051C356.081 140.051 353.74 139.371 352.039 138.043C350.278 136.537 349.378 134.633 349.378 132.479V67.5661C349.378 65.4117 350.278 63.5084 351.969 62.0547C353.67 60.5697 356.041 59.8167 358.992 59.8167C361.943 59.8167 364.074 60.5069 365.675 61.8769C367.456 63.2783 368.436 65.2549 368.436 67.5661V132.479C368.436 134.424 367.516 136.212 365.685 137.802C364.134 139.277 361.863 140.051 358.992 140.051ZM358.992 63.9999C357.001 63.9999 355.501 64.4287 354.52 65.2862C353.73 65.966 353.38 66.6667 353.38 67.5661V132.479C353.38 133.389 353.73 134.09 354.51 134.748C355.441 135.47 356.971 135.867 358.992 135.867C360.833 135.867 362.203 135.46 363.064 134.644C363.994 133.828 364.444 133.117 364.444 132.479V67.5661C364.444 66.5726 364.064 65.8405 363.214 65.1712C362.283 64.3764 360.883 63.9999 359.002 63.9999H358.992Z" fill="#21201E"/>
<path d="M229.896 294.987C214.97 294.987 201.725 291.807 190.55 285.543C179.435 279.247 170.631 270.358 164.389 259.105C158.256 247.737 155.155 234.173 155.155 218.789V104.002C155.155 88.6186 158.256 75.1173 164.389 63.8853C170.641 52.507 179.445 43.555 190.55 37.2592C201.745 30.9844 214.98 27.8052 229.906 27.8052C244.833 27.8052 257.858 30.9844 268.923 37.2592C280.147 43.5445 288.951 52.507 295.094 63.8958C301.326 75.1068 304.488 88.6186 304.488 104.013V218.8C304.488 234.194 301.326 247.758 295.084 259.105C288.951 270.358 280.137 279.258 268.913 285.553C257.848 291.818 244.723 294.997 229.896 294.997V294.987ZM229.896 31.9884C215.63 31.9884 203.035 35.0003 192.441 40.9405C181.996 46.8492 173.723 55.2679 167.85 65.956C162.078 76.55 159.147 89.3506 159.147 104.002V218.789C159.147 233.452 162.078 246.315 167.86 257.024C173.723 267.576 181.996 275.943 192.451 281.862C203.035 287.791 215.64 290.803 229.906 290.803C244.172 290.803 256.538 287.791 267.022 281.862C277.586 275.943 285.85 267.587 291.612 257.024C297.505 246.304 300.486 233.452 300.486 218.8V104.013C300.486 89.3611 297.505 76.5709 291.622 65.9769C285.85 55.2784 277.576 46.8597 267.032 40.9509C256.548 35.0108 244.052 31.9989 229.906 31.9989L229.896 31.9884ZM229.896 246.169C226.365 246.169 223.334 245.342 220.873 243.721C218.371 241.933 216.491 239.559 215.21 236.631C213.96 233.64 213.339 230.199 213.339 226.392V96.3993C213.339 92.5717 213.97 89.1937 215.21 86.3387C216.481 83.285 218.392 80.8796 220.873 79.2482C223.284 77.5226 226.335 76.6232 229.896 76.6232C233.458 76.6232 236.339 77.5226 238.81 79.29C241.221 80.8796 243.122 83.2013 244.412 86.1609C245.653 89.016 246.283 92.4566 246.283 96.3993V226.392C246.283 230.21 245.653 233.598 244.412 236.453C243.132 239.381 241.251 241.755 238.81 243.502C236.339 245.269 233.338 246.169 229.896 246.169ZM229.896 80.8064C227.165 80.8064 224.864 81.4548 223.073 82.7411C221.203 83.9752 219.842 85.7008 218.872 88.0434C217.851 90.386 217.351 93.1887 217.351 96.4098V226.403C217.351 229.634 217.861 232.51 218.872 234.947C219.842 237.175 221.223 238.921 223.073 240.249C224.824 241.4 227.135 242.006 229.896 242.006C232.657 242.006 234.728 241.368 236.549 240.072C238.4 238.743 239.78 237.007 240.761 234.738C241.761 232.427 242.272 229.624 242.272 226.403V96.4098C242.272 93.0737 241.761 90.2082 240.761 87.9074C239.79 85.6694 238.43 83.9961 236.609 82.7934C234.728 81.4444 232.547 80.8169 229.896 80.8169V80.8064Z" fill="#21201E"/>
<path d="M74.0711 294.811C58.9347 294.811 45.7092 291.882 34.7646 286.099C23.75 280.285 15.1063 271.855 9.0638 261.052C3.16133 250.155 0.12005 237.02 0 221.992V203.962H58.6346L58.8247 225.485C58.8247 228.946 59.3849 231.916 60.4854 234.332C61.5658 236.685 63.0265 238.421 64.9573 239.634C66.9681 240.837 69.4892 241.454 72.3904 241.454C75.2916 241.454 77.7226 240.837 79.6534 239.634C81.6943 238.317 83.2249 236.56 84.3054 234.301C85.3958 231.916 85.9561 228.894 85.9561 225.328V197.739C85.9561 192.28 84.6155 188.327 81.8544 185.65C79.1632 182.837 75.1415 181.435 69.8493 181.435H49.0706V134.448H68.8389C72.3404 134.448 75.2316 133.872 77.4225 132.722C79.6234 131.519 81.2241 129.856 82.2845 127.639C83.505 125.307 84.1053 122.484 84.1053 119.2V93.2011C84.1053 89.9905 83.6051 87.261 82.6047 85.0857C81.6343 82.8581 80.2537 81.2685 78.3729 80.1809L78.2728 80.1181C76.4621 78.9259 74.2011 78.3194 71.56 78.3194C68.9189 78.3194 66.658 78.9259 64.8472 80.1181C62.9664 81.2581 61.5658 82.8791 60.4954 85.1171C59.525 87.3551 59.0148 90.1578 59.0148 93.3789V117.045H3.89163V95.5019C4.01168 81.7391 6.83287 69.7333 12.2752 59.7982C17.8675 49.6958 25.9409 41.8 36.2852 36.3304C46.5495 30.7981 59.0448 27.9849 73.4008 27.9849C87.7568 27.9849 99.9519 30.6831 110.006 35.9958C120.23 41.2143 128.144 48.8801 133.516 58.7629C138.958 68.447 141.729 80.3482 141.729 94.111V105.782C141.729 114.975 140.309 123.268 137.518 130.442C134.817 137.574 130.625 143.567 125.082 148.263C121.211 151.525 116.609 154.046 111.357 155.792C121.941 158.24 130.445 163.437 136.697 171.291C144.191 180.588 147.992 193.295 147.992 209.065V222.148C147.992 237.072 145.001 250.145 139.108 261.031C133.176 271.845 124.592 280.274 113.568 286.099C102.623 291.882 89.3375 294.811 74.0911 294.811H74.0711ZM4.00168 208.145V221.971C4.11173 236.267 6.98293 248.712 12.5353 258.961C18.1576 269.032 26.251 276.907 36.5653 282.355C46.9497 287.835 59.565 290.617 74.0711 290.617C88.5772 290.617 101.363 287.835 111.747 282.355C122.061 276.907 130.085 269.032 135.617 258.95C141.169 248.712 143.98 236.33 143.98 222.138V209.055C143.98 194.309 140.499 182.502 133.626 173.968C126.773 165.351 116.859 160.247 104.144 158.783L102.363 158.574V153.732L103.994 153.408C111.407 151.944 117.659 149.12 122.571 144.989C127.574 140.764 131.355 135.336 133.806 128.873C136.407 122.18 137.728 114.42 137.728 105.772V94.1005C137.728 81.1012 135.147 69.9111 130.055 60.844C125.082 51.6828 117.739 44.5923 108.225 39.7293C98.7214 34.699 87.0065 32.1577 73.4008 32.1577C59.7951 32.1577 47.8201 34.814 38.116 40.0639C28.4619 45.1675 20.9388 52.509 15.7466 61.8898C10.6445 71.187 8.00336 82.513 7.89331 95.5228V112.873H54.9831V93.3894C54.9831 89.5722 55.6133 86.1838 56.8539 83.3288C58.2945 80.3064 60.2753 78.0475 62.7463 76.552C65.1373 74.9728 68.1186 74.1466 71.53 74.1466C74.9415 74.1466 77.8827 74.9623 80.3337 76.5624C82.9348 78.0788 84.9156 80.3587 86.2162 83.3392C87.4567 86.0478 88.087 89.3944 88.087 93.222V119.221C88.087 123.216 87.3166 126.709 85.816 129.595C84.4254 132.513 82.1945 134.845 79.2332 136.466C76.4521 137.92 72.9606 138.652 68.8289 138.652H53.0623V177.273H69.8393C76.222 177.273 81.2041 179.082 84.6155 182.659C88.127 186.068 89.9377 191.161 89.9377 197.76V225.349C89.9377 229.532 89.2475 233.171 87.8769 236.152C86.4563 239.122 84.3854 241.485 81.7143 243.221C79.1332 244.842 75.9919 245.658 72.3704 245.658C68.7488 245.658 65.5775 244.853 62.9164 243.263C60.2953 241.621 58.2645 239.237 56.8639 236.162C55.5033 233.182 54.803 229.605 54.803 225.526L54.6529 208.166H4.00168V208.145Z" fill="#21201E"/>
<path d="M358.992 168.561C350.078 168.561 342.245 166.856 335.472 163.437C328.819 159.902 323.627 155.007 319.906 148.753C316.184 142.51 314.323 135.189 314.323 126.823V73.0583C314.323 64.6919 316.184 57.3713 319.906 51.1279C323.627 44.874 328.819 40.0424 335.472 36.6226C342.245 33.2028 350.078 31.4982 358.992 31.4982C367.906 31.4982 375.689 33.2028 382.342 36.6226C389.115 40.0424 394.357 44.874 398.078 51.1279C401.8 57.3818 403.661 64.6919 403.661 73.0583V126.823C403.661 135.189 401.8 142.51 398.078 148.753C394.357 155.007 389.115 159.891 382.342 163.437C375.689 166.856 367.906 168.561 358.992 168.561ZM358.992 137.961C361.363 137.961 363.164 137.375 364.404 136.193C365.755 135.012 366.435 133.778 366.435 132.481V67.5679C366.435 65.9155 365.755 64.556 364.404 63.4997C363.164 62.4434 361.363 61.9101 358.992 61.9101C356.621 61.9101 354.59 62.4957 353.24 63.6775C351.999 64.7337 351.379 66.0305 351.379 67.5679V132.481C351.379 134.018 351.999 135.315 353.24 136.371C354.59 137.427 356.511 137.961 358.992 137.961ZM391.816 289.006H354.93L464.056 33.7885H501.112L391.816 289.006ZM497.05 291.307C488.136 291.307 480.303 289.592 473.53 286.182C466.877 282.647 461.685 277.753 457.964 271.499C454.242 265.245 452.381 257.935 452.381 249.569V195.804C452.381 187.438 454.242 180.18 457.964 174.051C461.685 167.797 466.877 162.966 473.53 159.546C480.303 156.011 488.136 154.244 497.05 154.244C505.964 154.244 513.747 156.011 520.4 159.546C527.173 162.966 532.415 167.797 536.136 174.051C539.858 180.18 541.719 187.438 541.719 195.804V249.569C541.719 257.935 539.858 265.245 536.136 271.499C532.415 277.753 527.173 282.637 520.4 286.182C513.747 289.602 505.964 291.307 497.05 291.307ZM497.05 260.529C499.421 260.529 501.222 259.995 502.462 258.939C503.813 257.883 504.493 256.586 504.493 255.049V190.314C504.493 188.661 503.813 187.302 502.462 186.245C501.222 185.189 499.411 184.656 497.05 184.656C494.689 184.656 492.708 185.241 491.468 186.423C490.227 187.479 489.607 188.776 489.607 190.314V255.049C489.607 256.586 490.227 257.883 491.468 258.939C492.708 259.995 494.569 260.529 497.05 260.529Z" fill="#2E4096"/>
<path d="M229.895 292.897C215.228 292.897 202.433 289.833 191.488 283.704C180.664 277.576 172.2 269.021 166.108 258.061C160.125 246.976 157.144 233.893 157.144 218.802V104.015C157.144 88.9236 160.135 75.8929 166.108 64.9225C172.2 53.837 180.654 45.23 191.488 39.1016C202.433 32.9733 215.228 29.9091 229.895 29.9091C244.561 29.9091 257.136 32.9733 267.961 39.1016C278.905 45.23 287.359 53.837 293.341 64.9225C299.434 75.8929 302.475 88.9132 302.475 104.015V218.802C302.475 233.893 299.434 246.986 293.341 258.061C287.359 269.032 278.905 277.576 267.961 283.704C257.136 289.833 244.441 292.897 229.895 292.897ZM229.895 244.079C232.936 244.079 235.537 243.315 237.678 241.778C239.819 240.241 241.459 238.18 242.58 235.587C243.71 232.993 244.271 229.929 244.271 226.394V96.4011C244.271 92.7408 243.71 89.6243 242.58 87.0307C241.449 84.4371 239.819 82.4292 237.678 81.0174C235.537 79.48 232.936 78.7166 229.895 78.7166C226.853 78.7166 224.082 79.48 221.941 81.0174C219.8 82.4292 218.16 84.4999 217.039 87.2085C215.909 89.8021 215.348 92.8663 215.348 96.4011V226.394C215.348 229.929 215.909 233.056 217.039 235.765C218.17 238.358 219.8 240.418 221.941 241.956C224.082 243.368 226.733 244.079 229.895 244.079Z" fill="#2E4096"/>
<path d="M74.0711 292.717C59.1848 292.717 46.3795 289.883 35.665 284.225C24.9505 278.568 16.657 270.494 10.7945 259.994C5.04212 249.379 2.11089 236.704 2.00084 221.969V206.052H56.6538L56.8238 225.504C56.8238 229.279 57.4441 232.521 58.6846 235.23C59.9251 237.938 61.6759 240.009 63.9268 241.421C66.2978 242.833 69.119 243.544 72.3904 243.544C75.6618 243.544 78.4229 242.833 80.6839 241.421C83.0549 239.883 84.8556 237.823 86.0961 235.23C87.3367 232.521 87.9569 229.216 87.9569 225.326V197.738C87.9569 191.724 86.3763 187.186 83.2149 184.121C80.1736 180.942 75.7118 179.342 69.8493 179.342H51.0714V136.537H68.8389C72.6705 136.537 75.8318 135.889 78.3129 134.592C80.904 133.18 82.8248 131.172 84.0653 128.579C85.4158 125.985 86.0961 122.858 86.0961 119.208V93.2098C86.0961 89.675 85.5359 86.6631 84.4054 84.195C83.275 81.6014 81.5842 79.6562 79.3333 78.3594C77.1924 76.9476 74.5913 76.2364 71.55 76.2364C68.5087 76.2364 65.9077 76.9476 63.7668 78.3594C61.6259 79.6562 59.9352 81.6014 58.6946 84.195C57.5642 86.7886 57.0039 89.8528 57.0039 93.3876V114.962H5.89247V95.5105C6.00252 82.072 8.71366 70.5159 14.0159 60.8422C19.4282 51.0535 27.1514 43.5133 37.1956 38.2006C47.2298 32.7729 59.3049 30.0643 73.4008 30.0643C87.4967 30.0643 99.2917 32.6579 109.096 37.8451C119.02 42.9172 126.583 50.2273 131.765 59.7755C137.068 69.2086 139.719 80.6497 139.719 94.0883V105.759C139.719 114.722 138.368 122.68 135.657 129.635C133.066 136.475 129.114 142.132 123.812 146.619C118.62 150.98 112.137 153.929 104.354 155.466V156.7C117.659 158.238 127.924 163.54 135.147 172.617C142.36 181.58 145.971 193.722 145.971 209.053V222.136C145.971 236.757 143.09 249.369 137.348 259.984C131.595 270.484 123.362 278.557 112.647 284.215C101.933 289.873 89.0774 292.707 74.0711 292.707V292.717Z" fill="#2E4096"/>
<path fill-rule="evenodd" clip-rule="evenodd" d="M229.312 0.675002C229.399 1.09859 229.141 1.51549 228.736 1.60617C202.816 7.40703 185.265 13.1471 173.517 18.4819C161.751 23.825 155.888 28.7252 153.232 32.7907C150.621 36.7865 151.087 40.0049 152.138 42.2321C152.675 43.3694 153.377 44.2685 153.948 44.8853C154.233 45.1926 154.483 45.4265 154.658 45.5816C154.746 45.659 154.815 45.7165 154.861 45.7535C154.883 45.772 154.9 45.7852 154.911 45.7933L154.921 45.8014L154.922 45.8023C154.922 45.8023 154.922 45.8022 154.922 45.8023C155.257 46.0558 155.333 46.5455 155.091 46.8965C154.849 47.2479 154.38 47.3274 154.044 47.074L154.482 46.4378C154.044 47.074 154.043 47.0735 154.042 47.0728L154.04 47.0711L154.033 47.066L154.012 47.0497C153.995 47.036 153.97 47.0169 153.94 46.9923C153.88 46.9432 153.795 46.8723 153.69 46.7802C153.482 46.5962 153.195 46.3268 152.871 45.9769C152.224 45.2795 151.417 44.2493 150.793 42.9263C149.521 40.2328 149.052 36.4065 151.993 31.9059C154.888 27.475 161.063 22.4272 172.919 17.0431C184.794 11.6508 202.451 5.88447 228.422 0.0722291C228.827 -0.0184552 229.226 0.251416 229.312 0.675002Z" fill="#21201E"/>
<path fill-rule="evenodd" clip-rule="evenodd" d="M421.923 275.322C421.922 275.321 421.922 275.321 421.501 275.928L421.922 275.321C421.586 275.067 421.117 275.145 420.874 275.496C420.631 275.847 420.706 276.337 421.041 276.591C421.041 276.592 421.041 276.591 421.041 276.591L421.051 276.598L421.085 276.625C421.115 276.648 421.162 276.684 421.222 276.732C421.343 276.828 421.521 276.971 421.744 277.157C422.191 277.53 422.82 278.075 423.542 278.758C424.991 280.13 426.797 282.044 428.267 284.239C429.743 286.443 430.834 288.862 430.952 291.254C431.066 293.595 430.254 296.008 427.728 298.28C425.17 300.58 420.85 302.736 413.971 304.431C407.103 306.123 397.744 307.341 385.166 307.812C360.01 308.754 322.066 306.707 265.602 299.556C265.19 299.504 264.816 299.81 264.767 300.24C264.717 300.67 265.01 301.061 265.421 301.113C321.918 308.268 359.951 310.326 385.22 309.38C397.854 308.906 407.319 307.681 414.316 305.958C421.302 304.237 425.888 302.004 428.707 299.469C431.557 296.905 432.591 294.036 432.45 291.173C432.313 288.362 431.048 285.655 429.496 283.339C427.938 281.013 426.044 279.011 424.55 277.596C423.8 276.886 423.147 276.321 422.68 275.931C422.446 275.736 422.258 275.585 422.128 275.482C422.063 275.431 422.013 275.391 421.978 275.364L421.938 275.333L421.927 275.325L421.923 275.322Z" fill="#21201E"/>
</g>
<defs>
<clipPath id="clip0_8250_28271">
<rect width="547.999" height="309.541" fill="white" transform="translate(0 0.0546875)"/>
</clipPath>
</defs>
</svg>
