<svg width="1464" height="129" viewBox="0 0 1464 129" fill="none" xmlns="http://www.w3.org/2000/svg">
<g clip-path="url(#clip0_8210_9972)">
<path d="M41.7395 79.5624L41.8491 84.098C38.9049 85.0817 35.9658 84.9143 33.0628 83.8581C31.8352 83.4109 30.669 82.7814 29.4643 82.2596C28.5588 81.8704 27.653 81.473 26.7094 81.2081C25.1037 80.7618 24.0374 81.8892 24.4551 83.5234C24.9547 85.4845 24.4825 86.3591 22.5819 86.9806C21.383 87.3795 20.6127 86.4609 19.7294 85.9725C18.871 85.4917 19.2718 84.7256 19.4773 84.0465C19.5684 83.7319 19.6923 83.4165 19.7174 83.0953C19.8129 81.9419 18.8458 81.0445 17.7268 81.3511C16.8448 81.5944 16.0074 81.9845 15.1784 82.3828C13.8781 83.0061 12.621 83.7189 11.3126 84.3506C8.47617 85.7099 5.50975 85.7734 2.29938 85.2672L2.19141 80.7973C2.37019 80.7108 2.49087 80.601 2.58987 80.6151C6.44292 81.1797 10.0171 80.411 13.3645 78.4227C14.4911 77.7543 15.7031 77.2153 16.9165 76.7338C18.2276 76.217 18.5935 76.3891 19.3857 77.5291C20.1692 78.653 20.9365 79.7855 21.9077 81.1925C22.706 79.866 23.3786 78.781 24.018 77.6803C24.8865 76.1959 25.2513 75.9816 26.876 76.5343C28.1775 76.9797 29.4486 77.5245 30.6725 78.1608C33.8862 79.8262 37.2298 80.4031 40.7868 79.6019C40.9668 79.5647 41.173 79.5926 41.7235 79.5793L41.7395 79.5624Z" fill="#E8DFCE"/>
<path d="M73.0251 69.3695C73.3175 68.821 73.5767 68.3431 73.9946 67.5645C74.9335 71.7251 76.3945 75.4451 76.9602 79.7021C75.8841 79.6232 74.8783 79.5602 73.7321 79.4744C73.3415 77.4053 71.6692 76.8693 69.9163 76.2479C68.8736 77.1901 69.0643 78.216 69.5873 79.2601C70.1193 80.3127 70.6943 81.3381 71.3616 82.5708C72.1101 82.4654 72.9897 82.3656 73.8681 82.2133C75.9381 81.8577 76.3572 82.2144 76.1998 84.3753C76.1218 85.4863 75.8514 86.5845 75.8083 87.6947C75.7263 90.0809 74.4608 91.5611 72.3603 92.459C71.7292 92.7275 71.1073 93.0133 70.1482 93.4382C70.2534 92.3702 70.2336 91.5497 70.4513 90.8021C70.5804 90.3624 71.0717 89.7304 71.4293 89.7131C73.645 89.6071 74.168 88.1186 74.4132 86.3398C74.5107 85.6737 74.5992 84.9991 74.7103 84.1755C72.9314 84.2883 71.5418 84.9681 70.6191 86.1782C68.977 88.34 66.8805 89.4037 64.2322 89.6773C61.3659 89.9649 58.722 89.3388 55.9462 87.9474C56.3046 86.5152 56.638 85.136 57.012 83.6249C58.2707 84.0311 59.3018 84.4167 60.3653 84.6967C62.6768 85.3046 64.1096 84.2394 64.2868 81.816C64.3189 81.3349 64.237 80.8391 64.2689 80.3492C64.3505 79.0285 64.4234 77.708 64.5927 76.4027C64.7906 74.8346 65.6454 73.7049 67.1055 73.0495C67.4598 72.8925 67.7951 72.6748 68.0869 72.1001C67.5884 72.0685 66.9979 71.8469 66.6006 72.0312C65.2876 72.6306 63.9491 73.2568 62.8082 74.114C61.539 75.0791 60.2101 75.74 58.6504 75.8912C58.2845 75.9263 57.8958 75.7435 57.1495 75.5782C61.7256 71.232 66.6903 68.8763 73.0162 69.361L73.0251 69.3695Z" fill="#E8DFCE"/>
<path d="M130.487 77.4186L130.597 81.9541C127.652 82.9378 124.713 82.7704 121.81 81.7142C120.583 81.267 119.417 80.6375 118.212 80.1157C117.306 79.7266 116.401 79.3291 115.457 79.0642C113.851 78.6179 112.785 79.7453 113.203 81.3795C113.702 83.3406 113.23 84.2153 111.329 84.8367C110.131 85.2356 109.36 84.317 108.477 83.8286C107.619 83.3478 108.019 82.5818 108.225 81.9026C108.316 81.588 108.44 81.2726 108.465 80.9514C108.56 79.7981 107.593 78.9006 106.474 79.2072C105.592 79.4505 104.755 79.8407 103.926 80.2389C102.626 80.8622 101.369 81.575 100.06 82.2067C97.2237 83.566 94.2573 83.6295 91.0469 83.1233L90.9389 78.6535C91.1177 78.5669 91.2384 78.4571 91.3374 78.4712C95.1905 79.0358 98.7646 78.2671 102.112 76.2789C103.239 75.6104 104.451 75.0714 105.664 74.5899C106.975 74.0731 107.341 74.2452 108.133 75.3853C108.917 76.5091 109.684 77.6416 110.655 79.0486C111.454 77.7221 112.126 76.6371 112.766 75.5364C113.634 74.052 113.999 73.8377 115.624 74.3904C116.925 74.8358 118.196 75.3806 119.42 76.017C122.634 77.6823 125.977 78.2592 129.534 77.458C129.714 77.4208 129.921 77.4487 130.471 77.4354L130.487 77.4186Z" fill="#E8DFCE"/>
<path d="M161.773 67.2257C162.065 66.6771 162.324 66.1993 162.742 65.4206C163.681 69.5812 165.142 73.3012 165.708 77.5582C164.632 77.4794 163.626 77.4163 162.48 77.3305C162.089 75.2614 160.417 74.7254 158.664 74.104C157.621 75.0462 157.812 76.0721 158.335 77.1162C158.867 78.1688 159.442 79.1942 160.109 80.4269C160.858 80.3215 161.737 80.2217 162.616 80.0695C164.686 79.7138 165.105 80.0705 164.947 82.2314C164.869 83.3424 164.599 84.4406 164.556 85.5508C164.474 87.937 163.208 89.4173 161.108 90.3151C160.477 90.5836 159.855 90.8694 158.896 91.2943C159.001 90.2263 158.981 89.4059 159.199 88.6583C159.328 88.2185 159.819 87.5865 160.177 87.5692C162.393 87.4632 162.916 85.9747 163.161 84.1959C163.258 83.5298 163.347 82.8552 163.458 82.0316C161.679 82.1444 160.289 82.8243 159.367 84.0343C157.725 86.1961 155.628 87.2598 152.98 87.5334C150.113 87.821 147.47 87.1949 144.694 85.8035C145.052 84.3713 145.386 82.9922 145.76 81.481C147.018 81.8872 148.049 82.2728 149.113 82.5528C151.424 83.1607 152.857 82.0955 153.034 79.6721C153.066 79.191 152.985 78.6952 153.016 78.2054C153.098 76.8847 153.171 75.5642 153.34 74.2588C153.538 72.6908 154.393 71.561 155.853 70.9056C156.207 70.7486 156.543 70.5309 156.834 69.9562C156.336 69.9246 155.745 69.7031 155.348 69.8873C154.035 70.4867 152.697 71.1129 151.556 71.9701C150.287 72.9352 148.958 73.5961 147.398 73.7474C147.032 73.7824 146.643 73.5997 145.897 73.4343C150.473 69.0881 155.438 66.7324 161.764 67.2171L161.773 67.2257Z" fill="#E8DFCE"/>
<path d="M219.235 75.2747L219.344 79.8103C216.4 80.794 213.461 80.6265 210.558 79.5703C209.33 79.1231 208.164 78.4936 206.959 77.9719C206.054 77.5827 205.148 77.1853 204.204 76.9203C202.599 76.474 201.533 77.6015 201.95 79.2356C202.45 81.1967 201.978 82.0714 200.077 82.6928C198.878 83.0917 198.108 82.1731 197.224 81.6847C196.366 81.2039 196.767 80.4379 196.972 79.7587C197.063 79.4441 197.187 79.1287 197.213 78.8075C197.308 77.6542 196.341 76.7567 195.222 77.0633C194.34 77.3066 193.503 77.6968 192.674 78.095C191.373 78.7183 190.116 79.4311 188.808 80.0629C185.971 81.4221 183.005 81.4856 179.794 80.9794L179.686 76.5096C179.865 76.423 179.986 76.3132 180.085 76.3273C183.938 76.8919 187.512 76.1232 190.86 74.135C191.986 73.4665 193.198 72.9275 194.412 72.446C195.723 71.9293 196.089 72.1013 196.881 73.2414C197.664 74.3652 198.432 75.4977 199.403 76.9048C200.201 75.5783 200.874 74.4932 201.513 73.3926C202.382 71.9082 202.746 71.6938 204.371 72.2465C205.673 72.6919 206.944 73.2367 208.168 73.8731C211.381 75.5384 214.725 76.1153 218.282 75.3141C218.462 75.2769 218.668 75.3048 219.219 75.2915L219.235 75.2747Z" fill="#E8DFCE"/>
<path d="M250.52 65.0818C250.813 64.5332 251.072 64.0554 251.49 63.2768C252.429 67.4373 253.89 71.1574 254.455 75.4143C253.379 75.3355 252.373 75.2725 251.227 75.1866C250.837 73.1175 249.164 72.5815 247.411 71.9601C246.369 72.9023 246.559 73.9282 247.082 74.9723C247.614 76.0249 248.189 77.0503 248.857 78.2831C249.605 78.1776 250.485 78.0778 251.363 77.9256C253.433 77.5699 253.852 77.9266 253.695 80.0875C253.617 81.1985 253.346 82.2967 253.303 83.4069C253.221 85.7931 251.956 87.2734 249.855 88.1712C249.224 88.4398 248.602 88.7255 247.643 89.1504C247.748 88.0824 247.729 87.262 247.946 86.5144C248.076 86.0746 248.567 85.4427 248.924 85.4253C251.14 85.3194 251.663 83.8308 251.908 82.052C252.006 81.3859 252.094 80.7113 252.205 79.8877C250.426 80.0005 249.037 80.6804 248.114 81.8904C246.472 84.0523 244.376 85.116 241.727 85.3895C238.861 85.6771 236.217 85.051 233.441 83.6596C233.8 82.2275 234.133 80.8483 234.507 79.3371C235.766 79.7434 236.797 80.1289 237.86 80.4089C240.172 81.0168 241.605 79.9516 241.782 77.5282C241.814 77.0471 241.732 76.5513 241.764 76.0615C241.846 74.7408 241.918 73.4203 242.088 72.1149C242.286 70.5469 243.141 69.4171 244.601 68.7618C244.955 68.6047 245.29 68.387 245.582 67.8123C245.083 67.7807 244.493 67.5592 244.096 67.7434C242.783 68.3428 241.444 68.969 240.303 69.8262C239.034 70.7914 237.705 71.4523 236.146 71.6035C235.78 71.6385 235.391 71.4558 234.645 71.2904C239.221 66.9442 244.185 64.5885 250.511 65.0732L250.52 65.0818Z" fill="#E8DFCE"/>
<path d="M307.982 73.1308L308.092 77.6664C305.148 78.6501 302.208 78.4826 299.305 77.4264C298.078 76.9793 296.912 76.3497 295.707 75.828C294.801 75.4388 293.896 75.0414 292.952 74.7764C291.346 74.3301 290.28 75.4576 290.698 77.0918C291.197 79.0528 290.725 79.9275 288.825 80.5489C287.626 80.9478 286.855 80.0292 285.972 79.5408C285.114 79.06 285.514 78.294 285.72 77.6149C285.811 77.3003 285.935 76.9848 285.96 76.6636C286.056 75.5103 285.088 74.6129 283.969 74.9194C283.087 75.1627 282.25 75.5529 281.421 75.9511C280.121 76.5745 278.864 77.2872 277.555 77.919C274.719 79.2783 271.752 79.3417 268.542 78.8355L268.434 74.3657C268.613 74.2792 268.734 74.1694 268.833 74.1834C272.686 74.748 276.26 73.9793 279.607 71.9911C280.734 71.3226 281.946 70.7836 283.159 70.3021C284.47 69.7854 284.836 69.9574 285.628 71.0975C286.412 72.2213 287.179 73.3538 288.15 74.7609C288.949 73.4344 289.621 72.3493 290.261 71.2487C291.129 69.7643 291.494 69.5499 293.119 70.1026C294.42 70.548 295.691 71.0928 296.915 71.7292C300.129 73.3945 303.472 73.9714 307.029 73.1702C307.209 73.133 307.416 73.1609 307.966 73.1476L307.982 73.1308Z" fill="#E8DFCE"/>
<path d="M339.268 62.9379C339.56 62.3894 339.819 61.9115 340.237 61.1329C341.176 65.2934 342.637 69.0135 343.203 73.2704C342.127 73.1916 341.121 73.1286 339.975 73.0427C339.584 70.9736 337.912 70.4376 336.159 69.8162C335.116 70.7584 335.307 71.7843 335.83 72.8284C336.362 73.8811 336.937 74.9064 337.604 76.1392C338.353 76.0338 339.232 75.9339 340.111 75.7817C342.181 75.426 342.6 75.7827 342.442 77.9436C342.364 79.0546 342.094 80.1528 342.051 81.263C341.969 83.6492 340.703 85.1295 338.603 86.0274C337.972 86.2959 337.35 86.5816 336.391 87.0065C336.496 85.9385 336.476 85.1181 336.694 84.3705C336.823 83.9307 337.314 83.2988 337.672 83.2814C339.888 83.1755 340.411 81.6869 340.656 79.9081C340.753 79.242 340.842 78.5674 340.953 77.7438C339.174 77.8567 337.784 78.5365 336.862 79.7465C335.22 81.9084 333.123 82.9721 330.475 83.2456C327.609 83.5332 324.965 82.9072 322.189 81.5158C322.547 80.0836 322.881 78.7044 323.255 77.1932C324.513 77.5995 325.544 77.985 326.608 78.265C328.919 78.8729 330.352 77.8078 330.529 75.3844C330.562 74.9032 330.48 74.4074 330.512 73.9176C330.593 72.5969 330.666 71.2764 330.835 69.971C331.033 68.403 331.888 67.2732 333.348 66.6179C333.702 66.4608 334.038 66.2432 334.33 65.6684C333.831 65.6368 333.241 65.4153 332.843 65.5995C331.53 66.1989 330.192 66.8251 329.051 67.6824C327.782 68.6475 326.453 69.3084 324.893 69.4596C324.527 69.4946 324.138 69.3119 323.392 69.1465C327.968 64.8003 332.933 62.4446 339.259 62.9294L339.268 62.9379Z" fill="#E8DFCE"/>
<path d="M396.73 70.9869L396.839 75.5225C393.895 76.5062 390.956 76.3388 388.053 75.2826C386.825 74.8354 385.659 74.2058 384.454 73.6841C383.549 73.2949 382.643 72.8975 381.7 72.6325C380.094 72.1863 379.028 73.3137 379.445 74.9479C379.945 76.909 379.473 77.7836 377.572 78.405C376.373 78.8039 375.603 77.8853 374.72 77.3969C373.861 76.9162 374.262 76.1501 374.468 75.471C374.559 75.1564 374.683 74.841 374.708 74.5197C374.803 73.3664 373.836 72.469 372.717 72.7755C371.835 73.0188 370.998 73.409 370.169 73.8072C368.868 74.4306 367.611 75.1433 366.303 75.7751C363.466 77.1344 360.5 77.1978 357.29 76.6916L357.182 72.2218C357.36 72.1353 357.481 72.0255 357.58 72.0395C361.433 72.6042 365.007 71.8354 368.355 69.8472C369.481 69.1787 370.693 68.6397 371.907 68.1582C373.218 67.6415 373.584 67.8135 374.376 68.9536C375.159 70.0775 375.927 71.2099 376.898 72.617C377.696 71.2905 378.369 70.2055 379.008 69.1048C379.877 67.6204 380.241 67.406 381.866 67.9587C383.168 68.4041 384.439 68.9489 385.663 69.5853C388.876 71.2506 392.22 71.8276 395.777 71.0264C395.957 70.9891 396.163 71.017 396.714 71.0037L396.73 70.9869Z" fill="#E8DFCE"/>
<path d="M428.015 60.794C428.308 60.2455 428.567 59.7676 428.985 58.989C429.924 63.1496 431.385 66.8696 431.95 71.1265C430.874 71.0477 429.868 70.9847 428.722 70.8988C428.332 68.8297 426.659 68.2937 424.906 67.6724C423.864 68.6145 424.055 69.6405 424.578 70.6846C425.11 71.7372 425.684 72.7625 426.352 73.9953C427.1 73.8899 427.98 73.79 428.858 73.6378C430.928 73.2821 431.347 73.6388 431.19 75.7997C431.112 76.9108 430.842 78.009 430.799 79.1191C430.716 81.5053 429.451 82.9856 427.35 83.8835C426.719 84.152 426.098 84.4377 425.138 84.8626C425.244 83.7946 425.224 82.9742 425.441 82.2266C425.571 81.7868 426.062 81.1549 426.419 81.1375C428.635 81.0316 429.158 79.543 429.403 77.7642C429.501 77.0982 429.589 76.4235 429.7 75.5999C427.922 75.7128 426.532 76.3926 425.609 77.6026C423.967 79.7645 421.871 80.8282 419.222 81.1018C416.356 81.3893 413.712 80.7633 410.936 79.3719C411.295 77.9397 411.628 76.5605 412.002 75.0493C413.261 75.4556 414.292 75.8412 415.355 76.1211C417.667 76.729 419.1 75.6639 419.277 73.2405C419.309 72.7594 419.227 72.2635 419.259 71.7737C419.341 70.453 419.414 69.1325 419.583 67.8272C419.781 66.2591 420.636 65.1293 422.096 64.474C422.45 64.317 422.785 64.0993 423.077 63.5246C422.579 63.4929 421.988 63.2714 421.591 63.4557C420.278 64.055 418.939 64.6812 417.798 65.5385C416.529 66.5036 415.2 67.1645 413.641 67.3157C413.275 67.3507 412.886 67.168 412.14 67.0026C416.716 62.6564 421.68 60.3008 428.006 60.7855L428.015 60.794Z" fill="#E8DFCE"/>
<path d="M485.477 68.843L485.587 73.3786C482.643 74.3623 479.704 74.1949 476.801 73.1387C475.573 72.6915 474.407 72.0619 473.202 71.5402C472.297 71.151 471.391 70.7536 470.447 70.4886C468.841 70.0424 467.775 71.1698 468.193 72.804C468.692 74.7651 468.22 75.6397 466.32 76.2611C465.121 76.6601 464.35 75.7414 463.467 75.253C462.609 74.7723 463.009 74.0062 463.215 73.3271C463.306 73.0125 463.43 72.6971 463.455 72.3758C463.551 71.2225 462.583 70.3251 461.465 70.6316C460.583 70.8749 459.745 71.2651 458.916 71.6633C457.616 72.2867 456.359 72.9994 455.05 73.6312C452.214 74.9905 449.247 75.0539 446.037 74.5478L445.929 70.0779C446.108 69.9914 446.229 69.8816 446.328 69.8956C450.181 70.4603 453.755 69.6916 457.102 67.7033C458.229 67.0348 459.441 66.4958 460.654 66.0143C461.965 65.4976 462.331 65.6696 463.123 66.8097C463.907 67.9336 464.674 69.066 465.645 70.4731C466.444 69.1466 467.116 68.0616 467.756 66.9609C468.624 65.4765 468.989 65.2622 470.614 65.8149C471.915 66.2603 473.186 66.805 474.41 67.4414C477.624 69.1067 480.968 69.6837 484.525 68.8825C484.705 68.8452 484.911 68.8732 485.461 68.8599L485.477 68.843Z" fill="#E8DFCE"/>
<path d="M516.763 58.6501C517.055 58.1016 517.315 57.6237 517.732 56.8451C518.671 61.0057 520.132 64.7257 520.698 68.9826C519.622 68.9038 518.616 68.8408 517.47 68.755C517.079 66.6859 515.407 66.1499 513.654 65.5285C512.611 66.4707 512.802 67.4966 513.325 68.5407C513.857 69.5933 514.432 70.6187 515.099 71.8514C515.848 71.746 516.728 71.6461 517.606 71.4939C519.676 71.1383 520.095 71.4949 519.938 73.6559C519.86 74.7669 519.589 75.8651 519.546 76.9752C519.464 79.3614 518.198 80.8417 516.098 81.7396C515.467 82.0081 514.845 82.2939 513.886 82.7188C513.991 81.6507 513.971 80.8303 514.189 80.0827C514.318 79.6429 514.809 79.011 515.167 78.9936C517.383 78.8877 517.906 77.3991 518.151 75.6204C518.248 74.9543 518.337 74.2797 518.448 73.4561C516.669 73.5689 515.28 74.2487 514.357 75.4587C512.715 77.6206 510.618 78.6843 507.97 78.9579C505.104 79.2454 502.46 78.6194 499.684 77.228C500.042 75.7958 500.376 74.4166 500.75 72.9054C502.008 73.3117 503.04 73.6973 504.103 73.9772C506.415 74.5851 507.847 73.52 508.025 71.0966C508.057 70.6155 507.975 70.1196 508.007 69.6298C508.088 68.3091 508.161 66.9886 508.33 65.6833C508.528 64.1152 509.383 62.9854 510.843 62.3301C511.198 62.1731 511.533 61.9554 511.825 61.3807C511.326 61.349 510.736 61.1275 510.338 61.3118C509.025 61.9112 507.687 62.5374 506.546 63.3946C505.277 64.3597 503.948 65.0206 502.388 65.1718C502.022 65.2069 501.634 65.0241 500.887 64.8588C505.463 60.5125 510.428 58.1569 516.754 58.6416L516.763 58.6501Z" fill="#E8DFCE"/>
<path d="M574.225 66.6991L574.334 71.2347C571.39 72.2184 568.451 72.051 565.548 70.9948C564.321 70.5476 563.154 69.9181 561.95 69.3963C561.044 69.0071 560.138 68.6097 559.195 68.3448C557.589 67.8985 556.523 69.0259 556.94 70.6601C557.44 72.6212 556.968 73.4958 555.067 74.1173C553.868 74.5162 553.098 73.5975 552.215 73.1092C551.356 72.6284 551.757 71.8623 551.963 71.1832C552.054 70.8686 552.178 70.5532 552.203 70.2319C552.298 69.0786 551.331 68.1812 550.212 68.4878C549.33 68.731 548.493 69.1212 547.664 69.5195C546.363 70.1428 545.106 70.8556 543.798 71.4873C540.961 72.8466 537.995 72.91 534.785 72.4039L534.677 67.934C534.855 67.8475 534.976 67.7377 535.075 67.7518C538.928 68.3164 542.502 67.5477 545.85 65.5594C546.976 64.8909 548.188 64.3519 549.402 63.8705C550.713 63.3537 551.079 63.5257 551.871 64.6658C552.654 65.7897 553.422 66.9221 554.393 68.3292C555.191 67.0027 555.864 65.9177 556.503 64.817C557.372 63.3326 557.737 63.1183 559.361 63.671C560.663 64.1164 561.934 64.6612 563.158 65.2975C566.371 66.9628 569.715 67.5398 573.272 66.7386C573.452 66.7014 573.658 66.7293 574.209 66.716L574.225 66.6991Z" fill="#E8DFCE"/>
<path d="M605.51 56.5062C605.803 55.9577 606.062 55.4798 606.48 54.7012C607.419 58.8618 608.88 62.5818 609.445 66.8387C608.369 66.7599 607.364 66.6969 606.217 66.6111C605.827 64.542 604.155 64.006 602.402 63.3846C601.359 64.3268 601.55 65.3527 602.073 66.3968C602.605 67.4494 603.18 68.4748 603.847 69.7075C604.595 69.6021 605.475 69.5023 606.353 69.35C608.423 68.9944 608.842 69.351 608.685 71.512C608.607 72.623 608.337 73.7212 608.294 74.8314C608.212 77.2175 606.946 78.6978 604.846 79.5957C604.214 79.8642 603.593 80.15 602.633 80.5749C602.739 79.5069 602.719 78.6864 602.937 77.9388C603.066 77.4991 603.557 76.8671 603.915 76.8497C606.13 76.7438 606.653 75.2553 606.898 73.4765C606.996 72.8104 607.084 72.1358 607.196 71.3122C605.417 71.425 604.027 72.1048 603.104 73.3149C601.462 75.4767 599.366 76.5404 596.717 76.814C593.851 77.1016 591.207 76.4755 588.431 75.0841C588.79 73.6519 589.123 72.2727 589.497 70.7616C590.756 71.1678 591.787 71.5534 592.851 71.8334C595.162 72.4413 596.595 71.3761 596.772 68.9527C596.804 68.4716 596.722 67.9758 596.754 67.4859C596.836 66.1652 596.909 64.8447 597.078 63.5394C597.276 61.9713 598.131 60.8416 599.591 60.1862C599.945 60.0292 600.28 59.8115 600.572 59.2368C600.074 59.2052 599.483 58.9836 599.086 59.1679C597.773 59.7673 596.434 60.3935 595.294 61.2507C594.024 62.2158 592.695 62.8767 591.136 63.0279C590.77 63.063 590.381 62.8802 589.635 62.7149C594.211 58.3687 599.176 56.013 605.501 56.4977L605.51 56.5062Z" fill="#E8DFCE"/>
<path d="M662.972 64.5553L663.082 69.0908C660.138 70.0745 657.199 69.9071 654.296 68.8509C653.068 68.4037 651.902 67.7742 650.697 67.2524C649.792 66.8632 648.886 66.4658 647.942 66.2009C646.336 65.7546 645.27 66.882 645.688 68.5162C646.187 70.4773 645.715 71.352 643.815 71.9734C642.616 72.3723 641.845 71.4537 640.962 70.9653C640.104 70.4845 640.505 69.7184 640.71 69.0393C640.801 68.7247 640.925 68.4093 640.95 68.0881C641.046 66.9348 640.079 66.0373 638.96 66.3439C638.078 66.5872 637.24 66.9774 636.411 67.3756C635.111 67.9989 633.854 68.7117 632.545 69.3434C629.709 70.7027 626.743 70.7662 623.532 70.26L623.424 65.7901C623.603 65.7036 623.724 65.5938 623.823 65.6079C627.676 66.1725 631.25 65.4038 634.597 63.4156C635.724 62.7471 636.936 62.2081 638.149 61.7266C639.46 61.2098 639.826 61.3819 640.619 62.5219C641.402 63.6458 642.169 64.7783 643.141 66.1853C643.939 64.8588 644.612 63.7738 645.251 62.6731C646.119 61.1887 646.484 60.9744 648.109 61.5271C649.41 61.9725 650.681 62.5173 651.905 63.1536C655.119 64.819 658.463 65.3959 662.02 64.5947C662.2 64.5575 662.406 64.5854 662.956 64.5721L662.972 64.5553Z" fill="#E8DFCE"/>
<path d="M694.258 54.3624C694.55 53.8138 694.81 53.336 695.227 52.5573C696.166 56.7179 697.627 60.4379 698.193 64.6949C697.117 64.6161 696.111 64.553 694.965 64.4672C694.574 62.3981 692.902 61.8621 691.149 61.2407C690.106 62.1829 690.297 63.2088 690.82 64.2529C691.352 65.3055 691.927 66.3309 692.594 67.5636C693.343 67.4582 694.223 67.3584 695.101 67.2062C697.171 66.8505 697.59 67.2072 697.433 69.3681C697.355 70.4791 697.084 71.5773 697.041 72.6875C696.959 75.0737 695.694 76.5539 693.593 77.4518C692.962 77.7203 692.34 78.0061 691.381 78.431C691.486 77.363 691.466 76.5425 691.684 75.795C691.813 75.3552 692.305 74.7232 692.662 74.7059C694.878 74.5999 695.401 73.1114 695.646 71.3326C695.743 70.6665 695.832 69.9919 695.943 69.1683C694.164 69.2811 692.775 69.961 691.852 71.171C690.21 73.3328 688.113 74.3965 685.465 74.6701C682.599 74.9577 679.955 74.3316 677.179 72.9402C677.537 71.508 677.871 70.1288 678.245 68.6177C679.503 69.0239 680.535 69.4095 681.598 69.6895C683.91 70.2974 685.342 69.2322 685.52 66.8088C685.552 66.3277 685.47 65.8319 685.502 65.342C685.583 64.0213 685.656 62.7009 685.826 61.3955C686.023 59.8275 686.878 58.6977 688.338 58.0423C688.693 57.8853 689.028 57.6676 689.32 57.0929C688.821 57.0613 688.231 56.8397 687.833 57.024C686.52 57.6234 685.182 58.2496 684.041 59.1068C682.772 60.0719 681.443 60.7328 679.883 60.8841C679.517 60.9191 679.129 60.7364 678.382 60.571C682.958 56.2248 687.923 53.8691 694.249 54.3538L694.258 54.3624Z" fill="#E8DFCE"/>
<path d="M751.72 62.4114L751.829 66.9469C748.885 67.9306 745.946 67.7632 743.043 66.707C741.816 66.2598 740.649 65.6303 739.445 65.1086C738.539 64.7194 737.633 64.3219 736.69 64.057C735.084 63.6107 734.018 64.7381 734.435 66.3723C734.935 68.3334 734.463 69.2081 732.562 69.8295C731.363 70.2284 730.593 69.3098 729.71 68.8214C728.851 68.3406 729.252 67.5746 729.458 66.8954C729.549 66.5808 729.673 66.2654 729.698 65.9442C729.793 64.7909 728.826 63.8934 727.707 64.2C726.825 64.4433 725.988 64.8335 725.159 65.2317C723.858 65.855 722.601 66.5678 721.293 67.1996C718.457 68.5588 715.49 68.6223 712.28 68.1161L712.172 63.6463C712.351 63.5597 712.471 63.4499 712.57 63.464C716.423 64.0286 719.997 63.2599 723.345 61.2717C724.472 60.6032 725.683 60.0642 726.897 59.5827C728.208 59.0659 728.574 59.238 729.366 60.3781C730.15 61.5019 730.917 62.6344 731.888 64.0414C732.686 62.715 733.359 61.6299 733.998 60.5292C734.867 59.0449 735.232 58.8305 736.856 59.3832C738.158 59.8286 739.429 60.3734 740.653 61.0098C743.867 62.6751 747.21 63.252 750.767 62.4508C750.947 62.4136 751.153 62.4415 751.704 62.4282L751.72 62.4114Z" fill="#E8DFCE"/>
<path d="M783.005 52.2185C783.298 51.6699 783.557 51.1921 783.975 50.4134C784.914 54.574 786.375 58.2941 786.941 62.551C785.864 62.4722 784.859 62.4091 783.713 62.3233C783.322 60.2542 781.65 59.7182 779.897 59.0968C778.854 60.039 779.045 61.0649 779.568 62.109C780.1 63.1616 780.675 64.187 781.342 65.4198C782.09 65.3143 782.97 65.2145 783.849 65.0623C785.918 64.7066 786.338 65.0633 786.18 67.2242C786.102 68.3352 785.832 69.4334 785.789 70.5436C785.707 72.9298 784.441 74.4101 782.341 75.3079C781.71 75.5764 781.088 75.8622 780.129 76.2871C780.234 75.2191 780.214 74.3987 780.432 73.6511C780.561 73.2113 781.052 72.5794 781.41 72.562C783.625 72.4561 784.148 70.9675 784.394 69.1887C784.491 68.5226 784.58 67.848 784.691 67.0244C782.912 67.1372 781.522 67.8171 780.599 69.0271C778.957 71.1889 776.861 72.2526 774.213 72.5262C771.346 72.8138 768.702 72.1877 765.927 70.7963C766.285 69.3641 766.618 67.985 766.992 66.4738C768.251 66.8801 769.282 67.2656 770.346 67.5456C772.657 68.1535 774.09 67.0883 774.267 64.6649C774.299 64.1838 774.217 63.688 774.249 63.1982C774.331 61.8775 774.404 60.557 774.573 59.2516C774.771 57.6836 775.626 56.5538 777.086 55.8984C777.44 55.7414 777.775 55.5237 778.067 54.949C777.569 54.9174 776.978 54.6959 776.581 54.8801C775.268 55.4795 773.929 56.1057 772.789 56.9629C771.519 57.9281 770.19 58.589 768.631 58.7402C768.265 58.7752 767.876 58.5925 767.13 58.4271C771.706 54.0809 776.671 51.7252 782.997 52.2099L783.005 52.2185Z" fill="#E8DFCE"/>
<path d="M840.467 60.2675L840.577 64.8031C837.633 65.7868 834.694 65.6193 831.791 64.5631C830.563 64.1159 829.397 63.4864 828.192 62.9647C827.287 62.5755 826.381 62.1781 825.437 61.9131C823.832 61.4668 822.765 62.5943 823.183 64.2285C823.683 66.1895 823.21 67.0642 821.31 67.6856C820.111 68.0845 819.341 67.1659 818.457 66.6775C817.599 66.1967 818 65.4307 818.205 64.7516C818.296 64.4369 818.42 64.1215 818.445 63.8003C818.541 62.647 817.574 61.7495 816.455 62.0561C815.573 62.2994 814.735 62.6896 813.906 63.0878C812.606 63.7112 811.349 64.4239 810.041 65.0557C807.204 66.415 804.238 66.4784 801.027 65.9722L800.919 61.5024C801.098 61.4158 801.219 61.306 801.318 61.3201C805.171 61.8847 808.745 61.116 812.092 59.1278C813.219 58.4593 814.431 57.9203 815.644 57.4388C816.956 56.9221 817.321 57.0941 818.114 58.2342C818.897 59.358 819.664 60.4905 820.636 61.8976C821.434 60.5711 822.107 59.486 822.746 58.3854C823.614 56.901 823.979 56.6866 825.604 57.2393C826.905 57.6847 828.177 58.2295 829.4 58.8659C832.614 60.5312 835.958 61.1081 839.515 60.3069C839.695 60.2697 839.901 60.2976 840.451 60.2843L840.467 60.2675Z" fill="#E8DFCE"/>
<path d="M871.753 50.0746C872.045 49.5261 872.305 49.0482 872.723 48.2696C873.661 52.4301 875.122 56.1502 875.688 60.4071C874.612 60.3283 873.606 60.2653 872.46 60.1794C872.069 58.1103 870.397 57.5743 868.644 56.9529C867.602 57.8951 867.792 58.921 868.315 59.9651C868.847 61.0178 869.422 62.0431 870.09 63.2759C870.838 63.1705 871.718 63.0706 872.596 62.9184C874.666 62.5627 875.085 62.9194 874.928 65.0803C874.85 66.1913 874.579 67.2895 874.536 68.3997C874.454 70.7859 873.189 72.2662 871.088 73.1641C870.457 73.4326 869.835 73.7183 868.876 74.1432C868.981 73.0752 868.961 72.2548 869.179 71.5072C869.308 71.0674 869.8 70.4355 870.157 70.4181C872.373 70.3122 872.896 68.8236 873.141 67.0448C873.239 66.3787 873.327 65.7041 873.438 64.8805C871.659 64.9933 870.27 65.6732 869.347 66.8832C867.705 69.0451 865.608 70.1088 862.96 70.3823C860.094 70.6699 857.45 70.0439 854.674 68.6524C855.032 67.2203 855.366 65.8411 855.74 64.3299C856.999 64.7362 858.03 65.1217 859.093 65.4017C861.405 66.0096 862.838 64.9445 863.015 62.521C863.047 62.0399 862.965 61.5441 862.997 61.0543C863.078 59.7336 863.151 58.4131 863.321 57.1077C863.519 55.5397 864.373 54.4099 865.833 53.7546C866.188 53.5975 866.523 53.3798 866.815 52.8051C866.316 52.7735 865.726 52.552 865.328 52.7362C864.016 53.3356 862.677 53.9618 861.536 54.819C860.267 55.7842 858.938 56.4451 857.378 56.5963C857.012 56.6313 856.624 56.4486 855.877 56.2832C860.454 51.937 865.418 49.5813 871.744 50.0661L871.753 50.0746Z" fill="#E8DFCE"/>
<path d="M929.215 58.1236L929.325 62.6592C926.38 63.6429 923.441 63.4755 920.538 62.4192C919.311 61.9721 918.144 61.3425 916.94 60.8208C916.034 60.4316 915.129 60.0342 914.185 59.7692C912.579 59.3229 911.513 60.4504 911.931 62.0846C912.43 64.0456 911.958 64.9203 910.057 65.5417C908.858 65.9406 908.088 65.022 907.205 64.5336C906.346 64.0528 906.747 63.2868 906.953 62.6077C907.044 62.2931 907.168 61.9776 907.193 61.6564C907.288 60.5031 906.321 59.6057 905.202 59.9122C904.32 60.1555 903.483 60.5457 902.654 60.9439C901.354 61.5673 900.096 62.28 898.788 62.9118C895.952 64.2711 892.985 64.3345 889.775 63.8283L889.667 59.3585C889.846 59.272 889.966 59.1622 890.065 59.1762C893.918 59.7409 897.493 58.9721 900.84 56.9839C901.967 56.3154 903.179 55.7764 904.392 55.2949C905.703 54.7782 906.069 54.9502 906.861 56.0903C907.645 57.2141 908.412 58.3466 909.383 59.7537C910.181 58.4272 910.854 57.3421 911.493 56.2415C912.362 54.7571 912.727 54.5427 914.352 55.0954C915.653 55.5408 916.924 56.0856 918.148 56.722C921.362 58.3873 924.705 58.9642 928.262 58.1631C928.442 58.1258 928.648 58.1537 929.199 58.1404L929.215 58.1236Z" fill="#E8DFCE"/>
<path d="M960.501 47.9307C960.793 47.3822 961.052 46.9043 961.47 46.1257C962.409 50.2863 963.87 54.0063 964.436 58.2632C963.36 58.1844 962.354 58.1214 961.208 58.0355C960.817 55.9664 959.145 55.4304 957.392 54.809C956.349 55.7512 956.54 56.7772 957.063 57.8213C957.595 58.8739 958.17 59.8992 958.837 61.132C959.586 61.0266 960.465 60.9267 961.344 60.7745C963.414 60.4188 963.833 60.7755 963.675 62.9364C963.597 64.0474 963.327 65.1457 963.284 66.2558C963.202 68.642 961.936 70.1223 959.836 71.0202C959.205 71.2887 958.583 71.5744 957.624 71.9993C957.729 70.9313 957.709 70.1109 957.927 69.3633C958.056 68.9235 958.547 68.2916 958.905 68.2742C961.12 68.1683 961.643 66.6797 961.889 64.9009C961.986 64.2348 962.075 63.5602 962.186 62.7366C960.407 62.8495 959.017 63.5293 958.095 64.7393C956.453 66.9012 954.356 67.9649 951.708 68.2384C948.841 68.526 946.198 67.9 943.422 66.5086C943.78 65.0764 944.114 63.6972 944.487 62.186C945.746 62.5923 946.777 62.9778 947.841 63.2578C950.152 63.8657 951.585 62.8006 951.762 60.3772C951.794 59.8961 951.712 59.4002 951.744 58.9104C951.826 57.5897 951.899 56.2692 952.068 54.9638C952.266 53.3958 953.121 52.266 954.581 51.6107C954.935 51.4537 955.271 51.236 955.562 50.6612C955.064 50.6296 954.473 50.4081 954.076 50.5924C952.763 51.1917 951.425 51.8179 950.284 52.6752C949.014 53.6403 947.686 54.3012 946.126 54.4524C945.76 54.4874 945.371 54.3047 944.625 54.1393C949.201 49.7931 954.166 47.4375 960.492 47.9222L960.501 47.9307Z" fill="#E8DFCE"/>
<path d="M1017.96 55.9797L1018.07 60.5153C1015.13 61.499 1012.19 61.3316 1009.29 60.2754C1008.06 59.8282 1006.89 59.1986 1005.69 58.6769C1004.78 58.2877 1003.88 57.8903 1002.93 57.6253C1001.33 57.1791 1000.26 58.3065 1000.68 59.9407C1001.18 61.9018 1000.71 62.7764 998.805 63.3978C997.606 63.7968 996.836 62.8781 995.952 62.3897C995.094 61.909 995.495 61.1429 995.7 60.4638C995.791 60.1492 995.915 59.8338 995.94 59.5125C996.036 58.3592 995.069 57.4618 993.95 57.7683C993.068 58.0116 992.23 58.4018 991.401 58.8C990.101 59.4234 988.844 60.1361 987.536 60.7679C984.699 62.1272 981.733 62.1906 978.522 61.6845L978.414 57.2146C978.593 57.1281 978.714 57.0183 978.813 57.0323C982.666 57.597 986.24 56.8282 989.588 54.84C990.714 54.1715 991.926 53.6325 993.139 53.151C994.451 52.6343 994.817 52.8063 995.609 53.9464C996.392 55.0703 997.16 56.2027 998.131 57.6098C998.929 56.2833 999.602 55.1983 1000.24 54.0976C1001.11 52.6132 1001.47 52.3989 1003.1 52.9515C1004.4 53.3969 1005.67 53.9417 1006.9 54.5781C1010.11 56.2434 1013.45 56.8204 1017.01 56.0192C1017.19 55.9819 1017.4 56.0098 1017.95 55.9965L1017.96 55.9797Z" fill="#E8DFCE"/>
<path d="M1049.25 45.7868C1049.54 45.2383 1049.8 44.7604 1050.22 43.9818C1051.16 48.1424 1052.62 51.8624 1053.18 56.1193C1052.11 56.0405 1051.1 55.9775 1049.96 55.8916C1049.56 53.8225 1047.89 53.2865 1046.14 52.6652C1045.1 53.6073 1045.29 54.6333 1045.81 55.6774C1046.34 56.73 1046.92 57.7554 1047.58 58.9881C1048.33 58.8827 1049.21 58.7828 1050.09 58.6306C1052.16 58.2749 1052.58 58.6316 1052.42 60.7925C1052.34 61.9036 1052.07 63.0018 1052.03 64.1119C1051.95 66.4981 1050.68 67.9784 1048.58 68.8763C1047.95 69.1448 1047.33 69.4305 1046.37 69.8554C1046.48 68.7874 1046.46 67.967 1046.67 67.2194C1046.8 66.7796 1047.29 66.1477 1047.65 66.1303C1049.87 66.0244 1050.39 64.5358 1050.64 62.757C1050.73 62.091 1050.82 61.4164 1050.93 60.5927C1049.15 60.7056 1047.76 61.3854 1046.84 62.5954C1045.2 64.7573 1043.1 65.821 1040.46 66.0946C1037.59 66.3821 1034.95 65.7561 1032.17 64.3647C1032.53 62.9325 1032.86 61.5533 1033.23 60.0421C1034.49 60.4484 1035.52 60.834 1036.59 61.1139C1038.9 61.7218 1040.33 60.6567 1040.51 58.2333C1040.54 57.7522 1040.46 57.2563 1040.49 56.7665C1040.57 55.4458 1040.65 54.1253 1040.82 52.82C1041.01 51.2519 1041.87 50.1221 1043.33 49.4668C1043.68 49.3098 1044.02 49.0921 1044.31 48.5174C1043.81 48.4857 1043.22 48.2642 1042.82 48.4485C1041.51 49.0479 1040.17 49.6741 1039.03 50.5313C1037.76 51.4964 1036.43 52.1573 1034.87 52.3085C1034.51 52.3436 1034.12 52.1608 1033.37 51.9954C1037.95 47.6492 1042.91 45.2936 1049.24 45.7783L1049.25 45.7868Z" fill="#E8DFCE"/>
<path d="M1106.71 53.8358L1106.82 58.3714C1103.88 59.3551 1100.94 59.1877 1098.03 58.1315C1096.81 57.6843 1095.64 57.0547 1094.43 56.533C1093.53 56.1438 1092.62 55.7464 1091.68 55.4815C1090.07 55.0352 1089.01 56.1626 1089.43 57.7968C1089.93 59.7579 1089.45 60.6325 1087.55 61.2539C1086.35 61.6529 1085.58 60.7342 1084.7 60.2458C1083.84 59.7651 1084.24 58.999 1084.45 58.3199C1084.54 58.0053 1084.66 57.6899 1084.69 57.3686C1084.78 56.2153 1083.82 55.3179 1082.7 55.6245C1081.82 55.8677 1080.98 56.2579 1080.15 56.6561C1078.85 57.2795 1077.59 57.9922 1076.28 58.624C1073.45 59.9833 1070.48 60.0467 1067.27 59.5406L1067.16 55.0707C1067.34 54.9842 1067.46 54.8744 1067.56 54.8884C1071.41 55.4531 1074.99 54.6844 1078.34 52.6961C1079.46 52.0276 1080.67 51.4886 1081.89 51.0071C1083.2 50.4904 1083.56 50.6624 1084.36 51.8025C1085.14 52.9264 1085.91 54.0588 1086.88 55.4659C1087.68 54.1394 1088.35 53.0544 1088.99 51.9537C1089.86 50.4693 1090.22 50.255 1091.85 50.8077C1093.15 51.2531 1094.42 51.7979 1095.64 52.4342C1098.86 54.0995 1102.2 54.6765 1105.76 53.8753C1105.94 53.8381 1106.14 53.866 1106.69 53.8527L1106.71 53.8358Z" fill="#E8DFCE"/>
<path d="M1138 43.6429C1138.29 43.0944 1138.55 42.6165 1138.97 41.8379C1139.9 45.9985 1141.37 49.7185 1141.93 53.9754C1140.85 53.8966 1139.85 53.8336 1138.7 53.7478C1138.31 51.6787 1136.64 51.1427 1134.89 50.5213C1133.84 51.4635 1134.03 52.4894 1134.56 53.5335C1135.09 54.5861 1135.66 55.6115 1136.33 56.8442C1137.08 56.7388 1137.96 56.639 1138.84 56.4867C1140.91 56.1311 1141.33 56.4877 1141.17 58.6487C1141.09 59.7597 1140.82 60.8579 1140.78 61.9681C1140.7 64.3542 1139.43 65.8345 1137.33 66.7324C1136.7 67.0009 1136.08 67.2867 1135.12 67.7116C1135.22 66.6436 1135.2 65.8231 1135.42 65.0755C1135.55 64.6357 1136.04 64.0038 1136.4 63.9864C1138.62 63.8805 1139.14 62.392 1139.38 60.6132C1139.48 59.9471 1139.57 59.2725 1139.68 58.4489C1137.9 58.5617 1136.51 59.2415 1135.59 60.4515C1133.95 62.6134 1131.85 63.6771 1129.2 63.9507C1126.34 64.2383 1123.69 63.6122 1120.92 62.2208C1121.28 60.7886 1121.61 59.4094 1121.98 57.8983C1123.24 58.3045 1124.27 58.6901 1125.34 58.9701C1127.65 59.5779 1129.08 58.5128 1129.26 56.0894C1129.29 55.6083 1129.21 55.1125 1129.24 54.6226C1129.32 53.3019 1129.39 51.9814 1129.56 50.6761C1129.76 49.108 1130.62 47.9782 1132.08 47.3229C1132.43 47.1659 1132.77 46.9482 1133.06 46.3735C1132.56 46.3419 1131.97 46.1203 1131.57 46.3046C1130.26 46.904 1128.92 47.5302 1127.78 48.3874C1126.51 49.3525 1125.18 50.0134 1123.62 50.1646C1123.26 50.1997 1122.87 50.0169 1122.12 49.8516C1126.7 45.5054 1131.66 43.1497 1137.99 43.6344L1138 43.6429Z" fill="#E8DFCE"/>
<path d="M1195.46 51.6919L1195.57 56.2275C1192.62 57.2112 1189.68 57.0438 1186.78 55.9876C1185.55 55.5404 1184.39 54.9109 1183.18 54.3891C1182.28 53.9999 1181.37 53.6025 1180.43 53.3376C1178.82 52.8913 1177.76 54.0187 1178.17 55.6529C1178.67 57.614 1178.2 58.4886 1176.3 59.1101C1175.1 59.509 1174.33 58.5904 1173.45 58.102C1172.59 57.6212 1172.99 56.8551 1173.2 56.176C1173.29 55.8614 1173.41 55.546 1173.44 55.2248C1173.53 54.0714 1172.56 53.174 1171.44 53.4806C1170.56 53.7239 1169.73 54.114 1168.9 54.5123C1167.6 55.1356 1166.34 55.8484 1165.03 56.4801C1162.19 57.8394 1159.23 57.9029 1156.02 57.3967L1155.91 52.9268C1156.09 52.8403 1156.21 52.7305 1156.31 52.7446C1160.16 53.3092 1163.74 52.5405 1167.08 50.5522C1168.21 49.8838 1169.42 49.3448 1170.63 48.8633C1171.95 48.3465 1172.31 48.5186 1173.1 49.6586C1173.89 50.7825 1174.65 51.915 1175.63 53.322C1176.42 51.9955 1177.1 50.9105 1177.74 49.8098C1178.6 48.3254 1178.97 48.1111 1180.59 48.6638C1181.9 49.1092 1183.17 49.654 1184.39 50.2903C1187.6 51.9556 1190.95 52.5326 1194.5 51.7314C1194.68 51.6942 1194.89 51.7221 1195.44 51.7088L1195.46 51.6919Z" fill="#E8DFCE"/>
<path d="M1226.74 41.499C1227.04 40.9505 1227.29 40.4726 1227.71 39.694C1228.65 43.8546 1230.11 47.5746 1230.68 51.8316C1229.6 51.7527 1228.6 51.6897 1227.45 51.6039C1227.06 49.5348 1225.39 48.9988 1223.63 48.3774C1222.59 49.3196 1222.78 50.3455 1223.31 51.3896C1223.84 52.4422 1224.41 53.4676 1225.08 54.7003C1225.83 54.5949 1226.71 54.4951 1227.59 54.3428C1229.66 53.9872 1230.08 54.3438 1229.92 56.5048C1229.84 57.6158 1229.57 58.714 1229.53 59.8242C1229.44 62.2103 1228.18 63.6906 1226.08 64.5885C1225.45 64.857 1224.83 65.1428 1223.87 65.5677C1223.97 64.4997 1223.95 63.6792 1224.17 62.9316C1224.3 62.4919 1224.79 61.8599 1225.15 61.8426C1227.36 61.7366 1227.89 60.2481 1228.13 58.4693C1228.23 57.8032 1228.32 57.1286 1228.43 56.305C1226.65 56.4178 1225.26 57.0976 1224.34 58.3077C1222.7 60.4695 1220.6 61.5332 1217.95 61.8068C1215.08 62.0944 1212.44 61.4683 1209.66 60.0769C1210.02 58.6447 1210.36 57.2655 1210.73 55.7544C1211.99 56.1606 1213.02 56.5462 1214.08 56.8262C1216.39 57.4341 1217.83 56.3689 1218.01 53.9455C1218.04 53.4644 1217.96 52.9686 1217.99 52.4787C1218.07 51.158 1218.14 49.8375 1218.31 48.5322C1218.51 46.9641 1219.36 45.8344 1220.82 45.179C1221.18 45.022 1221.51 44.8043 1221.81 44.2296C1221.31 44.198 1220.72 43.9764 1220.32 44.1607C1219.01 44.7601 1217.67 45.3863 1216.53 46.2435C1215.26 47.2086 1213.93 47.8695 1212.37 48.0207C1212 48.0558 1211.61 47.873 1210.87 47.7077C1215.44 43.3615 1220.41 41.0058 1226.73 41.4905L1226.74 41.499Z" fill="#E8DFCE"/>
<path d="M1284.21 49.5481L1284.31 54.0836C1281.37 55.0673 1278.43 54.8999 1275.53 53.8437C1274.3 53.3965 1273.13 52.767 1271.93 52.2452C1271.02 51.8561 1270.12 51.4586 1269.18 51.1937C1267.57 50.7474 1266.5 51.8748 1266.92 53.509C1267.42 55.4701 1266.95 56.3448 1265.05 56.9662C1263.85 57.3651 1263.08 56.4465 1262.2 55.9581C1261.34 55.4773 1261.74 54.7113 1261.94 54.0321C1262.03 53.7175 1262.16 53.4021 1262.18 53.0809C1262.28 51.9276 1261.31 51.0301 1260.19 51.3367C1259.31 51.58 1258.47 51.9702 1257.64 52.3684C1256.34 52.9917 1255.09 53.7045 1253.78 54.3362C1250.94 55.6955 1247.98 55.759 1244.77 55.2528L1244.66 50.783C1244.84 50.6964 1244.96 50.5866 1245.06 50.6007C1248.91 51.1653 1252.48 50.3966 1255.83 48.4084C1256.96 47.7399 1258.17 47.2009 1259.38 46.7194C1260.69 46.2026 1261.06 46.3747 1261.85 47.5148C1262.63 48.6386 1263.4 49.7711 1264.37 51.1781C1265.17 49.8516 1265.84 48.7666 1266.48 47.6659C1267.35 46.1815 1267.72 45.9672 1269.34 46.5199C1270.64 46.9653 1271.91 47.5101 1273.14 48.1465C1276.35 49.8118 1279.7 50.3887 1283.25 49.5875C1283.43 49.5503 1283.64 49.5782 1284.19 49.5649L1284.21 49.5481Z" fill="#E8DFCE"/>
<path d="M1315.49 39.3552C1315.78 38.8066 1316.04 38.3288 1316.46 37.5501C1317.4 41.7107 1318.86 45.4307 1319.43 49.6877C1318.35 49.6089 1317.34 49.5458 1316.2 49.46C1315.81 47.3909 1314.13 46.8549 1312.38 46.2335C1311.34 47.1757 1311.53 48.2016 1312.05 49.2457C1312.58 50.2983 1313.16 51.3237 1313.83 52.5564C1314.58 52.451 1315.46 52.3512 1316.33 52.199C1318.4 51.8433 1318.82 52.2 1318.67 54.3609C1318.59 55.4719 1318.32 56.5701 1318.27 57.6803C1318.19 60.0665 1316.93 61.5468 1314.83 62.4446C1314.19 62.7131 1313.57 62.9989 1312.61 63.4238C1312.72 62.3558 1312.7 61.5354 1312.92 60.7878C1313.05 60.348 1313.54 59.716 1313.9 59.6987C1316.11 59.5927 1316.63 58.1042 1316.88 56.3254C1316.98 55.6593 1317.06 54.9847 1317.18 54.1611C1315.4 54.2739 1314.01 54.9538 1313.08 56.1638C1311.44 58.3256 1309.35 59.3893 1306.7 59.6629C1303.83 59.9505 1301.19 59.3244 1298.41 57.933C1298.77 56.5008 1299.1 55.1217 1299.48 53.6105C1300.74 54.0167 1301.77 54.4023 1302.83 54.6823C1305.14 55.2902 1306.58 54.225 1306.75 51.8016C1306.78 51.3205 1306.7 50.8247 1306.73 50.3349C1306.82 49.0141 1306.89 47.6937 1307.06 46.3883C1307.26 44.8203 1308.11 43.6905 1309.57 43.0351C1309.93 42.8781 1310.26 42.6604 1310.55 42.0857C1310.05 42.0541 1309.46 41.8326 1309.07 42.0168C1307.75 42.6162 1306.41 43.2424 1305.27 44.0996C1304 45.0647 1302.68 45.7256 1301.12 45.8769C1300.75 45.9119 1300.36 45.7292 1299.62 45.5638C1304.19 41.2176 1309.16 38.8619 1315.48 39.3466L1315.49 39.3552Z" fill="#E8DFCE"/>
<path d="M1372.95 47.4042L1373.06 51.9398C1370.12 52.9235 1367.18 52.756 1364.28 51.6998C1363.05 51.2526 1361.88 50.6231 1360.68 50.1014C1359.77 49.7122 1358.87 49.3148 1357.92 49.0498C1356.32 48.6035 1355.25 49.731 1355.67 51.3651C1356.17 53.3262 1355.7 54.2009 1353.8 54.8223C1352.6 55.2212 1351.83 54.3026 1350.94 53.8142C1350.08 53.3334 1350.48 52.5674 1350.69 51.8882C1350.78 51.5736 1350.91 51.2582 1350.93 50.937C1351.03 49.7837 1350.06 48.8862 1348.94 49.1928C1348.06 49.4361 1347.22 49.8263 1346.39 50.2245C1345.09 50.8478 1343.83 51.5606 1342.53 52.1924C1339.69 53.5516 1336.72 53.6151 1333.51 53.1089L1333.4 48.6391C1333.58 48.5525 1333.7 48.4427 1333.8 48.4568C1337.66 49.0214 1341.23 48.2527 1344.58 46.2645C1345.7 45.596 1346.92 45.057 1348.13 44.5755C1349.44 44.0588 1349.81 44.2308 1350.6 45.3709C1351.38 46.4947 1352.15 47.6272 1353.12 49.0343C1353.92 47.7078 1354.59 46.6227 1355.23 45.5221C1356.1 44.0377 1356.46 43.8233 1358.09 44.376C1359.39 44.8214 1360.66 45.3662 1361.89 46.0026C1365.1 47.6679 1368.44 48.2448 1372 47.4436C1372.18 47.4064 1372.39 47.4343 1372.94 47.421L1372.95 47.4042Z" fill="#E8DFCE"/>
<path d="M1404.24 37.2113C1404.53 36.6627 1404.79 36.1849 1405.21 35.4062C1406.15 39.5668 1407.61 43.2869 1408.17 47.5438C1407.1 47.465 1406.09 47.402 1404.95 47.3161C1404.55 45.247 1402.88 44.711 1401.13 44.0896C1400.09 45.0318 1400.28 46.0577 1400.8 47.1018C1401.33 48.1544 1401.91 49.1798 1402.57 50.4126C1403.32 50.3071 1404.2 50.2073 1405.08 50.0551C1407.15 49.6994 1407.57 50.0561 1407.41 52.217C1407.34 53.328 1407.06 54.4262 1407.02 55.5364C1406.94 57.9226 1405.67 59.4029 1403.57 60.3007C1402.94 60.5693 1402.32 60.855 1401.36 61.2799C1401.47 60.2119 1401.45 59.3915 1401.66 58.6439C1401.79 58.2041 1402.28 57.5722 1402.64 57.5548C1404.86 57.4489 1405.38 55.9603 1405.63 54.1815C1405.72 53.5154 1405.81 52.8408 1405.92 52.0172C1404.14 52.13 1402.75 52.8099 1401.83 54.0199C1400.19 56.1818 1398.09 57.2455 1395.45 57.519C1392.58 57.8066 1389.94 57.1805 1387.16 55.7891C1387.52 54.357 1387.85 52.9778 1388.23 51.4666C1389.48 51.8729 1390.51 52.2584 1391.58 52.5384C1393.89 53.1463 1395.32 52.0811 1395.5 49.6577C1395.53 49.1766 1395.45 48.6808 1395.48 48.191C1395.56 46.8703 1395.64 45.5498 1395.81 44.2444C1396 42.6764 1396.86 41.5466 1398.32 40.8913C1398.67 40.7342 1399.01 40.5165 1399.3 39.9418C1398.8 39.9102 1398.21 39.6887 1397.81 39.8729C1396.5 40.4723 1395.16 41.0985 1394.02 41.9557C1392.75 42.9209 1391.42 43.5818 1389.86 43.733C1389.5 43.768 1389.11 43.5853 1388.36 43.4199C1392.94 39.0737 1397.9 36.718 1404.23 37.2027L1404.24 37.2113Z" fill="#E8DFCE"/>
<path d="M1461.7 45.2603L1461.81 49.7959C1458.87 50.7796 1455.93 50.6121 1453.02 49.5559C1451.8 49.1088 1450.63 48.4792 1449.43 47.9575C1448.52 47.5683 1447.61 47.1709 1446.67 46.9059C1445.06 46.4596 1444 47.5871 1444.42 49.2213C1444.92 51.1823 1444.44 52.057 1442.54 52.6784C1441.34 53.0773 1440.57 52.1587 1439.69 51.6703C1438.83 51.1895 1439.23 50.4235 1439.44 49.7444C1439.53 49.4297 1439.65 49.1143 1439.68 48.7931C1439.77 47.6398 1438.81 46.7424 1437.69 47.0489C1436.81 47.2922 1435.97 47.6824 1435.14 48.0806C1433.84 48.704 1432.58 49.4167 1431.27 50.0485C1428.44 51.4078 1425.47 51.4712 1422.26 50.965L1422.15 46.4952C1422.33 46.4087 1422.45 46.2989 1422.55 46.3129C1426.4 46.8775 1429.98 46.1088 1433.33 44.1206C1434.45 43.4521 1435.66 42.9131 1436.88 42.4316C1438.19 41.9149 1438.55 42.0869 1439.35 43.227C1440.13 44.3508 1440.9 45.4833 1441.87 46.8904C1442.67 45.5639 1443.34 44.4788 1443.98 43.3782C1444.85 41.8938 1445.21 41.6794 1446.84 42.2321C1448.14 42.6775 1449.41 43.2223 1450.63 43.8587C1453.85 45.524 1457.19 46.1009 1460.75 45.2997C1460.93 45.2625 1461.13 45.2904 1461.68 45.2771L1461.7 45.2603Z" fill="#E8DFCE"/>
</g>
<defs>
<clipPath id="clip0_8210_9972">
<rect width="1460.59" height="93.2649" fill="white" transform="translate(0.789062 35.4414) rotate(-1.38383)"/>
</clipPath>
</defs>
</svg>
