<svg width="177" height="119" viewBox="0 0 177 119" fill="none" xmlns="http://www.w3.org/2000/svg">
<g clip-path="url(#clip0_8250_28273)">
<path d="M176.392 103.305L159.595 22.6002H159.565L159.505 22.3178H159.475L159.415 22.0459H159.385L159.325 21.7635H159.295L159.235 21.4916H159.215L159.155 21.2092H159.125L159.065 20.9373H159.035L158.975 20.655H158.945L158.885 20.3831H158.855L158.795 20.1112H158.775L158.715 19.8288H158.685L158.625 19.5569H158.595L158.535 19.2745H158.505L158.445 19.0026H158.415L158.355 18.7202H158.325L158.265 18.4483L93.0573 28.9168C94.3779 18.4379 101.431 8.28314 101.521 8.15764L104.172 4.3823L103.832 4.44505L104.072 4.09993L103.762 4.16268L104.002 3.82803L103.662 3.89077L103.902 3.54566L103.572 3.60841L103.812 3.27375L103.492 3.3365L103.732 2.99138L103.392 3.06459L103.632 2.71948L103.312 2.78222L103.552 2.43711L103.222 2.49986L103.462 2.1652L103.132 2.22795L103.372 1.89329L103.042 1.95604L103.282 1.61093L102.961 1.67367L103.202 1.33902L102.881 1.40177L103.122 1.05665L102.781 1.12986L103.022 0.784744L102.691 0.847492L102.931 0.502377L102.621 0.565125L102.861 0.230469L98.4596 1.09848C71.3482 6.42161 67.4266 25.2879 66.8563 31.0084L0.398438 41.456L2.88948 114.798H2.96952V115.07H3.04955V115.352H3.12958V115.624H3.20962V115.907H3.28965V116.178H3.35968V116.461H3.43971V116.733H3.51975V117.005H3.59978V117.287H3.67981V117.559H3.74984V117.841H3.82988V118.113H3.90991V118.396H3.98994V118.667H4.06998V118.95L176.242 103.294L176.392 103.305Z" fill="#21201E"/>
<path d="M101.959 0.765625C101.959 0.765625 91.2649 15.9507 93.1657 29.1278L160.084 18.3874L176.09 95.3375L7.75981 110.648L5.38881 40.893L71.6966 30.4664C71.6966 30.4664 71.1464 6.7999 101.949 0.765625H101.959Z" fill="#E1C555"/>
<path d="M42.5751 72.3374C42.7652 72.3164 42.8752 72.5465 42.9052 72.8812C42.9853 73.7492 42.5951 75.3702 42.1949 75.412C41.2746 75.5061 40.6743 75.2029 40.2241 74.6904C40.1441 75.9454 39.874 77.2631 39.4238 78.288C38.9736 79.3129 37.573 80.6933 35.3521 80.9339C32.781 81.2058 31.7005 79.6057 31.5005 77.4932C31.3904 76.3742 31.5205 75.1506 31.8606 73.8956L32.6609 73.4773C32.4809 74.3348 32.3608 75.1087 32.4308 75.7781C32.5409 76.9493 33.2312 77.9115 35.4721 77.671C37.9932 77.399 39.0236 75.9768 38.9936 75.5898C38.8535 74.1989 37.603 65.6024 37.543 65.0063C37.513 64.7135 37.563 64.4311 37.683 64.0755C37.9031 63.4899 38.1733 63.0506 38.5234 62.099L38.9936 61.848C38.9936 62.0885 38.9936 62.4441 39.0436 62.9042C39.1837 64.3161 39.5338 66.8364 39.974 69.8797C40.2641 71.94 40.7643 72.5465 42.5751 72.3478V72.3374ZM48.6677 71.689C48.8577 71.6681 48.9578 71.8981 48.9978 72.2328C49.0878 73.1113 48.6977 74.7218 48.2875 74.7636C46.5168 74.9519 45.7064 74.0943 45.3863 73.3832C45.0661 74.1152 44.3358 75.1924 42.2049 75.4225C42.0149 75.4434 41.9148 75.2238 41.8748 74.8891C41.7848 74.0106 42.1649 72.3897 42.5851 72.3478C44.606 72.1282 45.1762 71.3229 45.3263 69.8274L46.0566 69.5242C46.0366 69.681 46.0466 70.0784 46.0566 70.183C46.1866 71.5216 47.2271 71.8563 48.6777 71.6994L48.6677 71.689ZM48.5776 77.3363L47.6772 79.1037C47.2971 78.7795 46.3967 78.4344 45.8165 78.4344L46.6968 76.667C47.4071 76.7506 48.0174 76.9598 48.5776 77.3363ZM45.8465 77.8697L44.9361 79.6371C44.5559 79.3233 43.6455 78.9782 43.0753 78.9677L43.9557 77.2108C44.656 77.284 45.2762 77.5036 45.8465 77.8697ZM51.859 70.8523C52.6393 71.5216 54.4701 71.8249 55.4405 71.7203C55.5606 71.7099 55.6206 71.6262 55.6106 71.5112C55.5305 70.6955 54.27 68.6457 53.2096 68.7607C52.5793 68.8235 51.959 70.4131 51.859 70.8523ZM48.6677 71.689C50.4084 71.5007 50.8186 70.8314 51.2888 69.5555C51.899 67.8613 52.5193 66.7423 53.6197 66.6273C54.5101 66.5332 55.2504 67.2234 56.4009 68.7503C57.6514 70.4131 58.2117 70.6641 59.6623 70.5072C59.8624 70.4863 59.9524 70.7164 59.9924 71.051C60.0824 71.9295 59.6923 73.54 59.2821 73.5819C58.1516 73.7074 57.1112 73.1636 56.4409 72.055C56.2208 73.174 55.7506 74.178 54.9803 74.2512C53.8999 74.3662 52.1891 74.042 51.0687 73.1635C50.5384 74.1152 49.7581 74.5963 48.2875 74.7532C48.0974 74.7741 47.9874 74.5649 47.9474 74.2198C47.8573 73.3413 48.2475 71.7203 48.6577 71.6785L48.6677 71.689ZM59.6723 70.4968C60.1625 70.4445 60.6327 70.3922 61.1129 70.2981C60.3926 69.5869 60.0724 68.6039 59.9924 67.7568C59.8123 65.9684 60.6227 64.3474 62.3934 64.1592C63.814 64.0023 65.3347 65.3828 65.6648 66.0835C65.6948 66.324 65.7548 66.6168 65.7848 66.8574C65.1446 66.575 64.0741 66.324 62.9136 66.4495C61.433 66.6064 60.8628 67.4953 60.8828 67.7045C60.9528 68.3738 61.9432 69.7229 63.5839 69.5451C64.3943 69.4614 66.165 68.949 66.9453 68.6352L67.0954 68.698C66.9153 69.6392 66.6652 70.434 66.3351 71.2184C64.3442 72.4419 62.2334 73.2263 59.2821 73.5505C59.092 73.5714 58.982 73.3518 58.942 73.0067C58.8719 72.2537 59.2021 70.5281 59.6623 70.4758L59.6723 70.4968ZM74.1183 62.329L75.2388 59.6413C77.0296 62.1303 78.2401 65.09 78.5002 67.7463C78.6502 69.2732 78.3901 70.9778 77.8799 71.8877L77.3297 72.2014C77.4197 71.6785 77.4197 70.9674 77.3797 70.4758C77.1496 68.1437 76.1292 64.9226 74.1183 62.329ZM89.2547 63.4167L87.7941 66.3972C87.2138 65.8429 85.7632 65.2468 84.8428 65.2364L86.2134 62.2558C87.3739 62.4023 88.3643 62.7787 89.2647 63.4167H89.2547ZM99.9492 62.2663L98.4886 65.2468C97.9083 64.6926 96.4577 64.0965 95.5373 64.086L96.9079 61.1055C98.0684 61.2519 99.0588 61.6284 99.9592 62.2663H99.9492ZM110.644 61.1159L109.183 64.0965C108.603 63.5422 107.152 62.9461 106.232 62.9356L107.602 59.9551C108.763 60.1015 109.753 60.478 110.654 61.1159H110.644ZM127.431 68.8339C126.961 69.8588 125.56 71.2288 123.349 71.4694C120.778 71.7413 119.697 70.1307 119.497 68.0287C119.387 66.9097 119.517 65.6965 119.858 64.4416L120.658 64.0232C120.488 64.8808 120.358 65.6547 120.428 66.324C120.538 67.4953 121.228 68.4574 123.479 68.2169C126 67.945 127.031 66.5227 126.991 66.1358C126.85 64.7448 125.61 56.1484 125.56 55.5523C125.53 55.2594 125.58 54.9771 125.7 54.6215C125.92 54.0358 126.11 53.7535 126.54 52.6449L127.001 52.4044C126.961 52.5403 126.981 52.8959 127.031 53.4188C127.201 55.1548 127.951 60.1747 128.191 62.6428C128.371 64.5148 128.281 66.9724 127.441 68.8444L127.431 68.8339ZM130.772 61.848C130.812 62.2663 131.442 62.8519 133.043 62.6846C133.433 62.6428 134.234 62.5487 134.884 62.3395C134.524 61.3146 133.733 60.0701 132.453 60.2061C131.312 60.3316 130.732 61.4401 130.772 61.848ZM133.063 65.4455C131.182 65.6442 130.142 64.9226 129.932 62.7474C129.722 60.6453 130.542 58.1458 132.593 57.9262C134.514 57.7171 135.834 59.9342 136.144 63.1239C136.555 67.328 134.724 70.4968 132.453 70.7373C131.192 70.8732 130.242 69.681 129.462 69.1058L129.261 68.562C129.562 68.5934 129.982 68.5725 130.272 68.5411C133.813 68.1646 135.314 65.571 135.254 64.9645C135.254 64.8808 135.224 64.7448 135.204 64.5775C134.754 65.0168 133.893 65.341 133.063 65.4351V65.4455ZM140.026 49.999L140.116 50.2187C139.986 50.4906 139.496 51.2958 139.496 51.2958C138.395 51.5259 137.315 51.8083 136.334 52.3939L136.354 52.0697C136.434 51.8187 136.595 51.5468 136.745 51.4318C136.915 51.2854 137.215 51.1599 137.345 51.0867C136.645 50.9194 136.294 50.4069 136.244 49.9363C136.114 48.5768 137.115 47.6878 137.965 47.5937C138.565 47.531 139.136 47.8342 139.206 48.5558C139.226 48.7545 139.206 48.9532 139.186 49.1415L138.876 49.4343C138.755 48.9532 138.355 48.8277 137.935 48.8696C137.375 48.9323 136.805 49.4029 136.835 49.6121C136.855 49.8317 137.435 50.3651 138.695 50.2291C139.026 50.1977 139.606 50.1141 140.026 49.9886V49.999ZM138.385 52.5194L138.836 52.1743C139.616 55.6987 140.116 57.5916 140.256 59.0139C140.366 60.1119 140.256 60.9277 139.886 61.9839C140.076 62.0153 140.576 61.9839 141.096 61.9316C143.237 61.7016 143.447 61.0532 143.427 60.8754C143.327 60.0701 142.517 54.3391 142.487 54.0463C142.457 53.743 142.487 53.5234 142.557 53.2619C142.677 52.8541 143.007 51.7874 143.247 50.9403L143.718 50.6056C143.828 51.7037 144.348 55.1235 144.558 57.2151C144.748 59.2021 144.768 60.4257 144.558 61.3669C144.248 62.8833 143.387 64.5775 141.227 64.8181C139.656 64.9854 138.745 64.2324 137.795 62.4336L137.825 61.7329C137.965 61.848 138.555 61.9526 138.986 61.963C138.976 61.5656 138.956 61.1787 138.916 60.7917C138.645 58.0935 137.825 55.8555 137.785 55.4372C137.745 55.0712 137.795 54.747 137.885 54.4123C138.035 53.8999 138.175 53.2619 138.375 52.5194H138.385Z" fill="#21201E"/>
</g>
<defs>
<clipPath id="clip0_8250_28273">
<rect width="175.994" height="118.719" fill="white" transform="translate(0.398438 0.230469)"/>
</clipPath>
</defs>
</svg>
