<svg width="195" height="81" viewBox="0 0 195 81" fill="none" xmlns="http://www.w3.org/2000/svg">
<g clip-path="url(#clip0_8205_4696)">
<path d="M60.8202 24.6425C60.8202 24.6425 59.6498 22.8979 57.5749 23.3252C55.5 23.7524 53.9749 23.6812 53.0527 23.6456C52.1306 23.61 49.8784 23.6456 49.2754 24.3043C48.6724 24.9629 48.034 25.4436 48.5128 28.0961C48.9739 30.7485 47.8567 33.4544 47.2537 34.7717C46.6508 36.089 45.569 37.531 42.235 37.5666C38.901 37.6022 35.301 34.4691 34.2015 33.7036C33.102 32.9559 30.1404 32.1371 27.037 33.4722C27.037 33.4722 25.9197 34.0774 24.7316 33.2586C23.5434 32.4575 18.2054 29.36 14.5168 34.6115C14.5168 34.6115 12.9739 37.2462 13.435 39.24C13.435 39.24 9.09018 40.6997 7.8488 43.1741C6.58969 45.6664 6.87343 47.856 6.87343 47.856L7.17491 48.034C7.17491 48.034 2.10299 58.0742 1.92565 59.3737C1.73058 60.6911 2.70594 62.6315 2.70594 62.6315C2.70594 62.6315 0.826141 66.1384 0.843875 67.1353C0.843875 68.1322 2.40447 76.054 2.77688 78.1012C3.14929 80.1306 3.27343 80.718 4.1956 80.7715C5.10003 80.8249 6.9621 80.3798 6.03993 79.3117C6.03993 79.3117 5.63205 78.9913 5.2419 79.2939C5.2419 79.2939 3.48624 71.9062 3.73452 71.3721C3.73452 71.3721 4.26654 66.7615 5.38378 64.8745C6.50102 62.9875 7.29905 61.6702 8.20348 61.0115C9.10792 60.3528 9.97688 58.8575 10.0301 56.4899C10.0301 56.4899 13.3818 59.0533 13.967 60.8691C14.5523 62.6849 14.9601 66.7259 15.7936 67.883C16.6271 69.0223 24.4478 74.0424 25.0153 74.9681C25.5651 75.8938 27.9591 75.3775 28.7749 75.0393C29.5907 74.7011 29.502 73.8288 27.9237 73.6864C26.3454 73.5261 20.7946 69.1469 19.9079 67.794C19.0212 66.441 17.3897 60.2282 17.4784 59.6942C17.5848 59.1601 18.1877 59.4093 17.8153 57.0951C17.4252 54.7809 17.1591 53.6594 17.1591 53.6594C17.1591 53.6594 19.8725 54.3002 21.8587 54.3893C23.8271 54.4783 30.7966 52.5913 30.7966 52.5913C30.7966 52.5913 30.6015 58.1276 30.6547 59.5162C30.7079 60.9047 32.7119 69.3249 32.9601 70.393C33.2084 71.4433 33.1375 73.7042 33.7227 73.5795C34.3079 73.4371 39.3089 72.636 37.305 72.2266C35.301 71.8172 35.4784 72.547 35.301 71.8172C35.1237 71.0695 33.1375 63.8776 33.3148 63.4503C33.4922 63.0231 33.9 57.4868 34.0064 56.7391C34.1128 55.9914 33.6695 52.2886 34.7513 51.4164C35.833 50.5441 38.0853 51.7902 41.0468 54.1578C44.0084 56.5255 45.5513 56.8815 46.5266 59.1245C47.502 61.3497 49.2399 68.1322 49.9138 68.5951C50.5877 69.0579 50.836 69.3249 53.638 68.4348C56.4399 67.5447 53.1237 67.0285 52.5562 67.0819C52.0064 67.1353 50.7651 64.9279 50.5345 64.376C50.304 63.8242 48.7079 57.9318 48.6015 57.736C48.4951 57.558 48.1404 54.9233 46.2961 54.1934C44.4518 53.4636 39.8587 48.6037 39.8587 47.8382C39.8587 47.0905 40.8695 45.4172 40.8695 45.4172C40.8695 45.4172 41.6853 45.0077 44.1858 44.7585C46.6685 44.4915 49.6301 43.1563 50.8715 40.5039C52.1306 37.8514 55.0922 29.5736 55.6951 29.3066C56.2981 29.0395 61.1394 28.2563 61.6005 27.7578C62.0616 27.2772 61.1217 24.9629 60.8557 24.6603L60.8202 24.6425Z" fill="#21201E"/>
<path d="M129.542 12.8581C129.542 12.8581 128.496 11.3094 126.651 11.6832C124.807 12.0571 123.442 12.0037 122.626 11.968C121.792 11.9502 119.788 11.968 119.256 12.5555C118.724 13.143 118.157 13.5702 118.565 15.9378C118.973 18.3055 117.979 20.7265 117.447 21.9014C116.915 23.0763 115.94 24.3581 112.978 24.3937C109.999 24.4293 106.807 21.6344 105.832 20.9579C104.856 20.2815 102.214 19.5694 99.4474 20.7621C99.4474 20.7621 98.4543 21.2962 97.3903 20.5841C96.3263 19.872 91.5735 17.1128 88.2928 21.7946C88.2928 21.7946 86.9095 24.1444 87.3351 25.9068C87.3351 25.9068 83.4691 27.2064 82.3519 29.4316C81.2346 31.639 81.4829 33.5972 81.4829 33.5972L81.7489 33.7574C81.7489 33.7574 77.2445 42.6939 77.0672 43.851C76.8898 45.0081 77.7588 46.7527 77.7588 46.7527C77.7588 46.7527 76.0918 49.868 76.1095 50.7759C76.1095 51.666 77.5105 58.7155 77.8297 60.549C78.1667 62.3648 78.2731 62.8811 79.0888 62.9345C79.9046 62.9879 81.5539 62.5784 80.7381 61.6171C80.7381 61.6171 80.3657 61.3323 80.0287 61.6171C80.0287 61.6171 78.4681 55.0305 78.6809 54.5677C78.6809 54.5677 79.1598 50.4554 80.1529 48.7821C81.146 47.0909 81.8553 45.9338 82.6711 45.3463C83.4691 44.7589 84.2494 43.4238 84.3026 41.3231C84.3026 41.3231 87.2819 43.6018 87.8139 45.2217C88.346 46.8417 88.7006 50.4554 89.4455 51.4701C90.1903 52.4848 97.1598 56.9531 97.6563 57.7898C98.1529 58.6265 100.281 58.1458 101.008 57.861C101.735 57.5583 101.646 56.7929 100.245 56.6505C98.8445 56.508 93.8967 52.6095 93.0987 51.3989C92.3184 50.1884 90.8465 44.6521 90.9351 44.1892C91.0238 43.7264 91.5736 43.94 91.2366 41.875C90.8997 39.81 90.6514 38.8131 90.6514 38.8131C90.6514 38.8131 93.0809 39.3828 94.8366 39.454C96.5923 39.5252 102.799 37.8518 102.799 37.8518C102.799 37.8518 102.622 42.7829 102.675 44.0112C102.728 45.2573 104.502 52.7519 104.732 53.6954C104.963 54.6389 104.892 56.6505 105.406 56.5258C105.92 56.4012 110.372 55.6892 108.598 55.3153C106.825 54.9415 106.984 55.6002 106.825 54.9415C106.665 54.2828 104.892 47.8742 105.051 47.4826C105.211 47.0909 105.583 42.1598 105.672 41.5012C105.761 40.8247 105.371 37.5314 106.328 36.7481C107.286 35.9648 109.29 37.0863 111.932 39.2047C114.575 41.3231 115.94 41.6436 116.809 43.6196C117.678 45.6134 119.221 51.6304 119.824 52.0576C120.427 52.467 120.64 52.6985 123.14 51.9152C125.641 51.1319 122.679 50.6513 122.182 50.7047C121.686 50.7403 120.586 48.7821 120.374 48.2836C120.161 47.7852 118.742 42.5337 118.653 42.3734C118.565 42.2132 118.245 39.8634 116.596 39.2225C114.947 38.5639 110.868 34.238 110.85 33.5616C110.85 32.8851 111.755 31.3898 111.755 31.3898C111.755 31.3898 112.482 31.0337 114.699 30.8023C116.915 30.5709 119.54 29.3782 120.657 27.0105C121.775 24.6429 124.417 17.273 124.967 17.0416C125.499 16.8101 129.808 16.0981 130.234 15.6708C130.659 15.2258 129.808 13.1786 129.577 12.9115L129.542 12.8581Z" fill="#21201E"/>
<path d="M194.004 1.96441C194.004 1.96441 193.1 0.611477 191.468 0.931908C189.837 1.25234 188.649 1.21674 187.939 1.18113C187.212 1.16333 185.456 1.18113 184.978 1.69738C184.517 2.19583 184.02 2.58747 184.375 4.67028C184.747 6.75308 183.86 8.87149 183.399 9.90399C182.92 10.9365 182.069 12.058 179.462 12.0936C176.855 12.1292 174.036 9.67257 173.185 9.06731C172.316 8.47985 170.01 7.83899 167.581 8.88929C167.581 8.88929 166.712 9.35214 165.772 8.72908C164.832 8.10602 160.664 5.68498 157.774 9.77938C157.774 9.77938 156.568 11.8444 156.94 13.3931C156.94 13.3931 153.553 14.5325 152.578 16.4728C151.602 18.4132 151.815 20.14 151.815 20.14L152.046 20.2824C152.046 20.2824 148.091 28.133 147.931 29.1477C147.789 30.1624 148.534 31.6933 148.534 31.6933C148.534 31.6933 147.08 34.4348 147.08 35.2181C147.08 36.0014 148.304 42.1964 148.587 43.7807C148.871 45.3829 148.978 45.8279 149.687 45.8813C150.396 45.9169 151.851 45.5787 151.123 44.7242C151.123 44.7242 150.804 44.475 150.503 44.7242C150.503 44.7242 149.137 38.9387 149.332 38.5292C149.332 38.5292 149.758 34.9333 150.627 33.4557C151.496 31.9782 152.134 30.9457 152.826 30.4294C153.535 29.9132 154.209 28.7383 154.262 26.8869C154.262 26.8869 156.869 28.8807 157.348 30.3048C157.809 31.7289 158.128 34.8977 158.785 35.7878C159.441 36.6778 165.559 40.5942 165.985 41.3241C166.428 42.054 168.29 41.6445 168.928 41.3775C169.567 41.1105 169.496 40.434 168.254 40.3094C167.031 40.1848 162.686 36.7668 161.994 35.6987C161.303 34.6306 160.026 29.7886 160.097 29.3613C160.168 28.9519 160.647 29.1477 160.363 27.3319C160.061 25.5161 159.849 24.6438 159.849 24.6438C159.849 24.6438 161.977 25.1423 163.519 25.2135C165.062 25.2847 170.507 23.8072 170.507 23.8072C170.507 23.8072 170.365 28.133 170.4 29.2189C170.436 30.3048 171.996 36.8915 172.209 37.7103C172.404 38.547 172.351 40.3094 172.794 40.2026C173.255 40.0958 177.157 39.4727 175.596 39.1345C174.036 38.814 174.178 39.3837 174.036 38.814C173.894 38.2266 172.351 32.6012 172.475 32.263C172.617 31.9248 172.936 27.5989 173.007 27.0115C173.078 26.424 172.741 23.5223 173.592 22.8459C174.426 22.1694 176.199 23.1485 178.505 24.9999C180.828 26.8513 182.016 27.1361 182.779 28.8807C183.541 30.6252 184.907 35.9124 185.421 36.2862C185.953 36.66 186.148 36.8559 188.329 36.1616C190.528 35.4673 187.921 35.0579 187.478 35.0935C187.053 35.1291 186.077 33.4023 185.9 32.9751C185.722 32.5478 184.481 27.9372 184.392 27.7948C184.304 27.6523 184.038 25.6051 182.584 25.0177C181.147 24.448 177.547 20.6385 177.547 20.051C177.547 19.4635 178.345 18.1462 178.345 18.1462C178.345 18.1462 178.984 17.8258 180.934 17.63C182.885 17.4163 185.19 16.3838 186.166 14.3188C187.141 12.236 189.464 5.77399 189.943 5.56037C190.422 5.34674 194.199 4.74148 194.572 4.34985C194.944 3.97601 194.199 2.16023 194.004 1.92881V1.96441Z" fill="#21201E"/>
</g>
<defs>
<clipPath id="clip0_8205_4696">
<rect width="193.831" height="79.8929" fill="white" transform="translate(0.84375 0.882812)"/>
</clipPath>
</defs>
</svg>
