<svg width="417" height="393" viewBox="0 0 417 393" fill="none" xmlns="http://www.w3.org/2000/svg">
<g clip-path="url(#clip0_8202_113638)">
<path d="M107.796 374.559C106.496 374.998 105.364 375.373 103.512 375.999C108.282 367.898 111.557 359.713 117.076 352.015C118.685 353.764 120.209 355.382 121.921 357.253C119.424 361.173 121.304 364.559 123.184 368.198C126.28 368.254 127.524 366.318 128.263 363.857C129.002 361.36 129.62 358.843 130.415 355.859C129.049 354.896 127.487 353.727 125.85 352.651C121.987 350.097 121.856 348.89 125.364 345.654C127.169 343.989 129.264 342.632 131.004 340.911C134.737 337.197 139.012 336.73 143.745 338.46C145.167 338.984 146.598 339.461 148.778 340.228C147 341.79 145.784 343.137 144.306 344.007C143.436 344.522 141.687 344.793 141.088 344.279C137.365 341.098 134.278 342.707 131.201 345.195C130.041 346.121 128.881 347.066 127.459 348.226C130.49 350.733 133.745 351.734 137.057 351.182C142.959 350.191 147.936 351.64 152.604 355.205C157.646 359.068 160.948 364.072 163.305 370.499C160.564 372.258 157.945 373.969 155.064 375.84C153.651 373.287 152.575 371.107 151.294 369.049C148.497 364.578 144.587 364.129 140.639 367.758C139.863 368.478 139.245 369.404 138.45 370.143C136.327 372.145 134.213 374.156 131.968 375.999C129.283 378.216 126.205 378.749 122.866 377.59C122.061 377.309 121.192 377.15 119.854 377.636C120.612 378.441 121.22 379.685 122.136 379.994C125.148 381.013 128.245 382.033 131.378 382.37C134.877 382.734 138.011 383.679 140.742 385.793C141.388 386.289 141.734 387.168 142.679 388.562C128.759 388.637 117.225 384.923 107.787 374.596V374.568L107.796 374.559Z" fill="white"/>
<path d="M27.601 274.841L34.2707 267.386C40.4913 270.248 44.9627 274.963 48.0309 281.043C49.3312 283.616 50.2479 286.384 51.3985 289.05C52.2685 291.043 53.1197 293.054 54.2423 294.897C56.1505 298.04 59.5649 297.834 61.3609 294.579C63.5218 290.669 65.5985 289.977 69.5928 291.847C72.1185 293.017 71.9688 295.655 72.6517 297.778C73.3065 299.845 71.5011 300.472 70.1447 301.258C69.5273 301.623 68.8444 301.95 68.3206 302.427C66.4216 304.139 66.6274 307.039 68.8818 308.236C70.6685 309.181 72.6049 309.817 74.5319 310.425C77.5627 311.389 80.659 312.137 83.7179 313.101C90.3314 315.196 95.1957 319.574 99.5922 325.242L93.0161 332.586C92.5952 332.455 92.2397 332.445 92.0994 332.277C86.758 325.551 79.8545 321.388 71.473 319.527C68.648 318.9 65.8884 317.937 63.2131 316.88C60.3226 315.729 59.9952 314.897 60.4442 311.875C60.8839 308.882 61.3609 305.907 61.9222 302.175C58.6388 303.101 55.9167 303.83 53.2226 304.635C49.5838 305.711 48.6764 305.505 46.8991 302.156C45.4772 299.471 44.2611 296.684 43.2509 293.812C40.6036 286.282 36.0948 280.304 29.1725 276.226C28.8264 276.01 28.5364 275.655 27.6291 274.85H27.5823L27.601 274.841Z" fill="white"/>
<path d="M3.78472 198.07C2.75574 197.162 1.85772 196.367 0.398438 195.076C9.80893 195.161 18.5272 193.898 27.9564 194.833C27.2455 197.106 26.6 199.23 25.8423 201.653C21.2026 201.447 19.2101 204.768 16.9931 208.219C18.4898 210.932 20.791 211.044 23.2979 210.446C25.8236 209.838 28.3212 209.117 31.3053 208.304C31.4549 206.648 31.6888 204.702 31.8011 202.738C32.0817 198.117 33.0545 197.396 37.6195 198.818C39.9674 199.548 42.1844 200.68 44.5511 201.335C49.6305 202.71 52.1749 206.18 53.0448 211.138C53.3068 212.625 53.6061 214.103 54.027 216.376C51.7914 215.609 50.014 215.244 48.5173 214.393C47.638 213.897 46.5248 212.522 46.6745 211.746C47.5632 206.938 44.6353 205.058 40.9403 203.636C39.5558 203.093 38.1527 202.56 36.4408 201.905C35.786 205.778 36.5437 209.108 38.6765 211.699C42.4931 216.311 43.7185 221.353 42.9702 227.181C42.1376 233.476 39.4623 238.836 35.0751 244.103C32.1846 242.615 29.3876 241.203 26.3288 239.631C27.8348 237.134 29.1818 235.113 30.3231 232.971C32.7926 228.313 31.2304 224.702 26.1136 223.102C25.094 222.793 23.9902 222.719 22.9518 222.401C20.1549 221.559 17.3579 220.735 14.6451 219.716C11.3805 218.5 9.38799 216.096 8.71447 212.635C8.55545 211.793 8.25611 210.97 7.171 210.053C6.85295 211.11 6.07654 212.26 6.27298 213.205C6.89973 216.33 7.56389 219.519 8.83608 222.401C10.2673 225.609 11.0156 228.799 10.5573 232.223C10.445 233.027 9.85571 233.766 9.12607 235.291C2.10093 223.27 -0.45281 211.428 3.77537 198.089L3.79407 198.07H3.78472Z" fill="white"/>
<path d="M50.0421 78.7642L59.8361 80.8128C60.4628 87.6321 58.62 93.8528 54.8876 99.5589C53.3067 101.972 51.3704 104.152 49.6398 106.481C48.3489 108.23 47.0393 109.97 45.9916 111.869C44.2236 115.087 46.1039 117.95 49.8269 117.875C54.289 117.791 55.926 119.25 56.3001 123.637C56.5527 126.415 54.1954 127.603 52.6987 129.25C51.2301 130.849 49.7895 129.605 48.4331 128.819C47.8064 128.464 47.189 128.043 46.5155 127.828C44.0833 127.042 41.6699 128.67 41.7634 131.223C41.8383 133.244 42.2592 135.236 42.6895 137.22C43.3724 140.325 44.2704 143.384 44.9626 146.509C46.45 153.281 45.0936 159.689 42.3808 166.321L32.7271 164.301C32.6336 163.87 32.4558 163.562 32.54 163.356C35.6925 155.367 35.8515 147.304 33.2697 139.119C32.3997 136.359 31.8572 133.487 31.4362 130.644C30.9872 127.566 31.5391 126.874 34.3922 125.742C37.1985 124.629 40.0142 123.553 43.5314 122.178C41.0899 119.792 39.0975 117.8 37.0582 115.873C34.308 113.263 34.0367 112.365 36.0386 109.157C37.6475 106.584 39.4623 104.133 41.4454 101.823C46.6371 95.7611 49.565 88.8762 49.6398 80.8315C49.6492 80.4292 49.8176 79.9989 50.0608 78.8109L50.0327 78.7642H50.0421Z" fill="white"/>
<path d="M104.625 19.7474C104.896 18.4003 105.139 17.231 105.523 15.3228C110.153 23.5078 115.607 30.4301 119.517 39.0641C117.197 39.5786 115.027 40.0931 112.557 40.6357C110.415 36.5198 106.542 36.4449 102.445 36.2485C100.846 38.9051 101.903 40.9444 103.671 42.8152C105.467 44.6955 107.328 46.5009 109.526 48.6804C111.042 47.9789 112.838 47.2118 114.587 46.3325C118.731 44.2652 119.844 44.7516 120.883 49.4101C121.425 51.8048 121.556 54.2931 122.174 56.6691C123.521 61.7579 121.79 65.6867 117.927 68.9233C116.767 69.8962 115.635 70.8877 113.876 72.4031C113.418 70.0832 112.857 68.362 112.838 66.6408C112.838 65.6306 113.465 63.9842 114.213 63.7223C118.825 62.0852 118.984 58.6148 118.366 54.6953C118.151 53.2267 117.908 51.7487 117.618 49.9339C113.932 51.309 111.435 53.6289 110.256 56.772C108.17 62.3846 104.419 65.9673 99.0028 68.2311C93.1376 70.6632 87.1508 71.028 80.4063 69.8587C80.2473 66.6034 80.0789 63.4791 79.9012 60.0554C82.8197 60.1115 85.2425 60.2705 87.6653 60.1863C92.9318 59.9992 95.2798 56.8374 94.1105 51.6084C93.8673 50.57 93.3808 49.5785 93.1376 48.5214C92.4735 45.6777 91.7812 42.8433 91.3042 39.9809C90.7242 36.5478 91.8093 33.6105 94.4753 31.3C95.1207 30.7388 95.6914 30.0652 95.9439 28.6714C94.8682 28.924 93.4837 28.8305 92.7634 29.4759C90.3687 31.5806 87.9459 33.7509 86.0844 36.2859C84.0171 39.1296 81.6317 41.3747 78.4325 42.6843C77.6842 42.993 76.7488 42.8527 75.065 42.9836C81.9591 30.8884 90.9393 22.7595 104.606 19.7567H104.634L104.625 19.7474Z" fill="white"/>
<path d="M231.077 0.14998L234.192 9.65402C228.598 13.6016 222.293 15.1263 215.483 14.7428C212.602 14.5838 209.74 13.9944 206.868 13.6577C204.707 13.4145 202.546 13.1526 200.385 13.19C196.709 13.2742 195.175 16.333 197.102 19.5135C199.403 23.3395 198.964 25.4816 195.353 28.0073C193.08 29.6162 190.863 28.1663 188.683 27.6986C186.569 27.2309 186.925 25.36 186.925 23.7885C186.925 23.0682 186.981 22.3198 186.822 21.6276C186.288 19.13 183.679 17.8484 181.508 19.2142C179.796 20.2899 178.281 21.6463 176.784 23.0121C174.436 25.1542 172.238 27.4647 169.871 29.6256C164.745 34.3028 158.525 36.3233 151.425 37.2962L148.347 27.9231C148.665 27.6238 148.852 27.3151 149.077 27.287C157.57 26.0242 164.633 22.1234 170.433 15.7998C172.388 13.667 174.605 11.7588 176.859 9.97207C179.301 8.04507 180.18 8.17603 182.575 10.075C184.941 11.9458 187.289 13.8541 190.236 16.2021C191.078 12.8906 191.807 10.1779 192.453 7.44639C193.342 3.76077 193.978 3.0779 197.757 3.20886C200.788 3.32111 203.819 3.65787 206.812 4.22849C214.66 5.69712 222.088 4.78975 229.085 0.832849C229.44 0.636407 229.898 0.570926 231.049 0.187397L231.068 0.140625L231.077 0.14998Z" fill="white"/>
<path d="M309.467 17.9139C310.767 17.4743 311.899 17.1001 313.751 16.4733C308.98 24.5742 305.706 32.7593 300.187 40.458C298.578 38.7087 297.054 37.0904 295.342 35.2195C297.839 31.3 295.959 27.9137 294.079 24.2749C290.983 24.2188 289.739 26.1551 289 28.6153C288.261 31.1129 287.643 33.6293 286.848 36.6133C288.214 37.5768 289.776 38.7461 291.413 39.8219C295.276 42.3756 295.407 43.5823 291.899 46.8189C290.094 48.484 287.999 49.8404 286.259 51.5616C282.526 55.2753 278.251 55.743 273.518 54.0124C272.096 53.4886 270.665 53.0115 268.485 52.2445C270.263 50.6823 271.479 49.3353 272.957 48.4653C273.827 47.9508 275.576 47.6795 276.175 48.194C279.898 51.3745 282.985 49.7656 286.062 47.2773C287.222 46.3512 288.382 45.4064 289.804 44.2465C286.773 41.7395 283.518 40.7386 280.206 41.2905C274.304 42.2821 269.327 40.8321 264.659 37.2681C259.617 33.4048 256.315 28.4002 253.958 21.9737C256.699 20.2151 259.318 18.5032 262.199 16.6324C263.612 19.1861 264.688 21.3657 265.969 23.4236C268.766 27.895 272.676 28.344 276.624 24.7145C277.4 23.9943 278.018 23.0682 278.813 22.3292C280.936 20.3273 283.05 18.3162 285.295 16.4733C287.98 14.2564 291.058 13.7232 294.397 14.8831C295.201 15.1637 296.071 15.3228 297.409 14.8363C296.651 14.0319 296.043 12.7877 295.127 12.479C292.115 11.4594 289.018 10.4398 285.885 10.103C282.386 9.7382 279.252 8.79341 276.521 6.67932C275.875 6.18354 275.529 5.30423 274.584 3.91043C288.504 3.83559 300.038 7.54928 309.476 17.8765V17.9046L309.467 17.9139Z" fill="white"/>
<path d="M389.671 117.632L383.002 125.087C376.781 122.225 372.31 117.51 369.241 111.43C367.941 108.857 367.024 106.088 365.874 103.422C365.004 101.43 364.153 99.4186 363.03 97.5757C361.122 94.4327 357.707 94.6385 355.911 97.8938C353.75 101.804 351.674 102.496 347.68 100.625C345.154 99.456 345.304 96.818 344.621 94.6946C343.966 92.6273 345.771 92.0005 347.128 91.2148C347.745 90.85 348.428 90.5225 348.952 90.0455C350.851 88.3336 350.645 85.4338 348.39 84.2364C346.604 83.2916 344.667 82.6555 342.74 82.0475C339.71 81.084 336.613 80.3356 333.554 79.3721C326.941 77.2768 322.077 72.8989 317.68 67.2302L324.256 59.887C324.677 60.0179 325.033 60.0273 325.173 60.1957C330.514 66.9215 337.418 71.0842 345.799 72.9457C348.624 73.5724 351.384 74.5359 354.059 75.593C356.95 76.7436 357.277 77.5761 356.828 80.5976C356.388 83.591 355.911 86.5657 355.35 90.298C358.633 89.372 361.356 88.6423 364.05 87.8379C367.689 86.7621 368.596 86.9679 370.373 90.3168C371.795 93.0015 373.011 95.7891 374.021 98.6609C376.669 106.191 381.178 112.169 388.1 116.247C388.446 116.462 388.736 116.818 389.643 117.622H389.69L389.671 117.632Z" fill="white"/>
<path d="M413.487 194.403C414.516 195.31 415.414 196.105 416.874 197.396C407.463 197.312 398.745 198.575 389.316 197.639C390.027 195.366 390.672 193.243 391.43 190.82C396.07 191.026 398.062 187.705 400.279 184.253C398.782 181.541 396.481 181.428 393.974 182.027C391.449 182.635 388.951 183.355 385.967 184.169C385.817 185.825 385.583 187.771 385.471 189.735C385.19 194.356 384.218 195.076 379.653 193.654C377.305 192.925 375.088 191.793 372.721 191.138C367.642 189.763 365.097 186.293 364.227 181.335C363.965 179.847 363.666 178.369 363.245 176.096C365.481 176.863 367.258 177.228 368.755 178.079C369.634 178.575 370.747 179.95 370.598 180.727C369.709 185.535 372.637 187.415 376.332 188.837C377.716 189.38 379.119 189.913 380.831 190.568C381.486 186.695 380.728 183.365 378.596 180.773C374.779 176.162 373.554 171.12 374.302 165.292C375.135 158.997 377.81 153.636 382.197 148.37C385.088 149.857 387.885 151.27 390.943 152.841C389.437 155.339 388.09 157.359 386.949 159.502C384.48 164.16 386.042 167.771 391.159 169.371C392.178 169.679 393.282 169.754 394.32 170.072C397.117 170.914 399.914 171.737 402.627 172.757C405.892 173.973 407.884 176.377 408.558 179.838C408.717 180.68 409.016 181.503 410.101 182.42C410.419 181.363 411.196 180.212 410.999 179.267C410.372 176.143 409.708 172.953 408.436 170.072C407.005 166.864 406.257 163.674 406.715 160.25C406.827 159.446 407.416 158.707 408.146 157.182C415.171 169.202 417.725 181.045 413.497 194.384L413.478 194.403H413.487Z" fill="white"/>
<path d="M367.23 313.708L357.436 311.66C356.809 304.841 358.652 298.62 362.384 292.914C363.965 290.5 365.902 288.321 367.632 285.991C368.923 284.242 370.233 282.502 371.281 280.603C373.048 277.385 371.168 274.523 367.445 274.598C362.983 274.682 361.346 273.223 360.972 268.836C360.719 266.057 363.077 264.869 364.573 263.223C366.042 261.623 367.483 262.867 368.839 263.653C369.466 264.009 370.083 264.43 370.757 264.645C373.189 265.431 375.602 263.803 375.509 261.249C375.434 259.229 375.013 257.236 374.583 255.253C373.9 252.147 373.002 249.088 372.309 245.964C370.822 239.192 372.179 232.784 374.891 226.152L384.545 228.172C384.639 228.602 384.816 228.911 384.732 229.117C381.58 237.106 381.421 245.169 384.002 253.354C384.872 256.114 385.415 258.985 385.836 261.829C386.285 264.907 385.733 265.599 382.88 266.731C380.074 267.844 377.258 268.92 373.741 270.295C376.182 272.68 378.175 274.673 380.214 276.6C382.964 279.21 383.235 280.108 381.234 283.316C379.625 285.889 377.81 288.339 375.827 290.65C370.635 296.712 367.707 303.596 367.632 311.641C367.623 312.043 367.455 312.474 367.211 313.662L367.239 313.708H367.23Z" fill="white"/>
<path d="M312.647 372.725C312.376 374.072 312.133 375.242 311.749 377.15C307.119 368.965 301.665 362.043 297.755 353.408C300.075 352.894 302.245 352.379 304.715 351.837C306.857 355.953 310.73 356.028 314.827 356.224C316.427 353.567 315.369 351.528 313.601 349.657C311.805 347.777 309.944 345.972 307.746 343.792C306.23 344.494 304.434 345.261 302.685 346.14C298.541 348.207 297.428 347.721 296.389 343.063C295.847 340.668 295.716 338.18 295.099 335.804C293.752 330.715 295.482 326.786 299.345 323.549C300.505 322.576 301.637 321.585 303.396 320.069C303.854 322.389 304.415 324.111 304.434 325.832C304.434 326.842 303.807 328.488 303.059 328.75C298.447 330.387 298.288 333.858 298.906 337.777C299.121 339.246 299.364 340.724 299.654 342.539C303.34 341.164 305.837 338.844 307.016 335.701C309.102 330.088 312.853 326.505 318.269 324.242C324.135 321.809 330.121 321.445 336.866 322.614C337.025 325.869 337.193 328.994 337.371 332.417C334.452 332.361 332.03 332.202 329.607 332.286C324.34 332.473 321.992 335.635 323.162 340.864C323.405 341.903 323.891 342.894 324.134 343.951C324.799 346.795 325.491 349.629 325.968 352.492C326.548 355.925 325.463 358.862 322.797 361.173C322.151 361.734 321.581 362.407 321.328 363.801C322.404 363.549 323.788 363.642 324.509 362.997C326.903 360.892 329.326 358.722 331.188 356.187C333.255 353.343 335.64 351.098 338.84 349.788C339.588 349.48 340.523 349.62 342.207 349.489C335.313 361.584 326.333 369.713 312.666 372.716H312.638L312.647 372.725Z" fill="white"/>
<path d="M186.195 392.313L183.08 382.809C188.674 378.862 194.979 377.337 201.789 377.72C204.67 377.879 207.532 378.469 210.404 378.806C212.565 379.049 214.726 379.311 216.887 379.273C220.563 379.189 222.097 376.13 220.17 372.95C217.869 369.124 218.309 366.982 221.919 364.456C224.192 362.847 226.409 364.297 228.589 364.765C230.703 365.232 230.348 367.103 230.348 368.675C230.348 369.395 230.291 370.143 230.451 370.836C230.984 373.333 233.594 374.615 235.764 373.249C237.476 372.173 238.991 370.817 240.488 369.451C242.836 367.309 245.034 364.999 247.401 362.838C252.527 358.16 258.747 356.14 265.847 355.167L268.925 364.54C268.607 364.839 268.42 365.148 268.195 365.176C259.702 366.439 252.639 370.34 246.839 376.663C244.884 378.796 242.667 380.705 240.413 382.491C237.971 384.418 237.092 384.287 234.697 382.388C232.331 380.517 229.983 378.609 227.036 376.261C226.194 379.573 225.465 382.285 224.819 385.017C223.931 388.703 223.294 389.385 219.515 389.254C216.484 389.142 213.454 388.805 210.46 388.235C202.612 386.766 195.185 387.674 188.187 391.63C187.832 391.827 187.374 391.892 186.223 392.276L186.204 392.323L186.195 392.313Z" fill="white"/>
</g>
<defs>
<clipPath id="clip0_8202_113638">
<rect width="416.475" height="392.182" fill="white" transform="translate(0.398438 0.140625)"/>
</clipPath>
</defs>
</svg>
