<svg width="1440" height="249" viewBox="0 0 1440 249" fill="none" xmlns="http://www.w3.org/2000/svg">
<g clip-path="url(#clip0_8205_4697)">
<mask id="mask0_8205_4697" style="mask-type:alpha" maskUnits="userSpaceOnUse" x="0" y="0" width="1440" height="249">
<path d="M0 59.3439C0 59.3439 241.182 10.1834 269.787 6.2779C298.392 2.37236 323.166 -14.7888 485.22 32.8182C647.273 80.4251 747.364 73.3981 753.73 74.4434L930.396 9.92211C930.396 9.92211 964.711 -5.16287 1014.92 13.5663C1065.12 32.2955 1268.96 57.0064 1440 25.0071V248.93H0V59.3439Z" fill="url(#paint0_linear_8205_4697)"/>
</mask>
<g mask="url(#mask0_8205_4697)">
<rect width="1440" height="150.654" transform="matrix(-1 0 0 1 1439.75 96.9141)" fill="url(#paint1_linear_8205_4697)"/>
</g>
</g>
<defs>
<linearGradient id="paint0_linear_8205_4697" x1="356.524" y1="249.423" x2="1661.78" y2="-261.046" gradientUnits="userSpaceOnUse">
<stop stop-color="#FFDBAB"/>
<stop offset="0.25" stop-color="#FDD8A8"/>
<stop offset="0.41" stop-color="#F6D1A0"/>
<stop offset="0.53" stop-color="#ECC491"/>
<stop offset="0.61" stop-color="#E3B985"/>
<stop offset="0.64" stop-color="#DBAD7D"/>
<stop offset="0.71" stop-color="#CB966D"/>
<stop offset="0.79" stop-color="#C08562"/>
<stop offset="0.88" stop-color="#BA7C5C"/>
<stop offset="1" stop-color="#B8795A"/>
</linearGradient>
<linearGradient id="paint1_linear_8205_4697" x1="720" y1="0" x2="720" y2="150.654" gradientUnits="userSpaceOnUse">
<stop stop-color="#D2BEA6" stop-opacity="0"/>
<stop offset="1" stop-color="#D2BEA6"/>
</linearGradient>
<clipPath id="clip0_8205_4697">
<rect width="1440" height="248.867" fill="white" transform="translate(0 0.0625)"/>
</clipPath>
</defs>
</svg>
