<?xml version="1.0" encoding="iso-8859-1"?>
<!-- Generator: Adobe Illustrator 26.0.1, SVG Export Plug-In . SVG Version: 6.00 Build 0)  -->
<svg version="1.1" id="GeorgeSamuel.me" xmlns="http://www.w3.org/2000/svg" xmlns:xlink="http://www.w3.org/1999/xlink" x="0px"
	 y="0px" viewBox="0 0 512 512" style="enable-background:new 0 0 512 512;" xml:space="preserve">
<g id="www.GeorgeSamuel.me_00000034054842739317030360000017279940234222193556_">
	<rect style="fill:#FFFFFF;" width="512" height="512"/>
	<circle style="fill:#FFFFFF;" cx="256" cy="256" r="256"/>
	<g id="www.GeorgeSamuel.me">
		<linearGradient id="SVGID_1_" gradientUnits="userSpaceOnUse" x1="256.3499" y1="71.2158" x2="256.3499" y2="136.4439">
			<stop  offset="0" style="stop-color:#C12E84"/>
			<stop  offset="1" style="stop-color:#F17878"/>
		</linearGradient>
		<path style="fill:url(#SVGID_1_);" d="M256.266,136.437c-10.752,0-21.505-0.014-32.257,0.007
			c-4.457,0.009-8.495-1.246-12.109-3.844c-3.102-2.23-5.351-5.139-6.889-8.633c-2.093-4.757-4.25-9.487-6.352-14.24
			c-0.732-1.655-1.584-3.262-2.07-5.019c-1.114-4.028-0.469-7.795,1.753-11.293c3.34-5.257,6.718-10.489,10.08-15.732
			c2.206-3.44,5.302-5.646,9.335-6.273c4.311-0.671,8.221,0.392,11.531,3.344c1.293,1.154,2.28,2.543,3.082,4.07
			c4.674,8.902,9.351,17.802,14.021,26.707c2.781,5.302,5.549,10.61,8.325,15.914c0.397,0.758,0.793,1.516,1.211,2.262
			c0.342,0.611,0.539,0.61,0.878-0.029c0.98-1.842,1.94-3.695,2.908-5.542c4.575-8.727,9.149-17.454,13.727-26.18
			c2.32-4.421,4.639-8.843,6.975-13.256c2.199-4.154,5.627-6.743,10.275-7.328c5.589-0.703,10.188,1.254,13.361,6.016
			c2.77,4.157,5.405,8.404,8.101,12.61c0.72,1.123,1.451,2.239,2.165,3.366c2.768,4.361,3.041,8.908,0.957,13.604
			c-2.538,5.72-5.094,11.432-7.661,17.139c-2.471,5.494-6.515,9.304-12.229,11.283c-2.118,0.733-4.308,1.054-6.554,1.052
			C277.977,136.431,267.122,136.437,256.266,136.437z"/>
		
			<linearGradient id="SVGID_00000161632395968523897810000004835857472687064764_" gradientUnits="userSpaceOnUse" x1="206.083" y1="171.1149" x2="306.6361" y2="171.1149">
			<stop  offset="0" style="stop-color:#F17778"/>
			<stop  offset="1" style="stop-color:#E1647D"/>
		</linearGradient>
		<path style="fill:url(#SVGID_00000161632395968523897810000004835857472687064764_);" d="M256.289,146.782
			c9.998,0,19.997-0.008,29.995,0.006c2.374,0.003,4.693,0.38,6.937,1.195c3.774,1.37,6.876,3.657,9.266,6.867
			c2.784,3.74,4.213,7.967,4.147,12.638c-0.051,3.595-1.038,6.968-2.942,10.018c-2.536,4.062-5.071,8.13-7.77,12.084
			c-4.597,6.735-13.68,7.6-19.656,2.934c-1.694-1.323-2.911-3.053-3.946-4.937c-4.249-7.733-8.534-15.447-12.803-23.169
			c-0.894-1.617-1.772-3.243-2.67-4.857c-0.402-0.723-0.62-0.725-1.015-0.01c-1.985,3.593-3.957,7.194-5.943,10.787
			c-2.746,4.969-5.5,9.934-8.252,14.9c-0.68,1.227-1.328,2.473-2.048,3.675c-4.082,6.814-13.159,8.495-19.53,4.049
			c-1.332-0.93-2.472-2.057-3.351-3.429c-2.676-4.177-5.423-8.311-7.986-12.556c-2.163-3.583-2.943-7.538-2.536-11.728
			c0.525-5.4,2.868-9.868,6.869-13.47c2.485-2.237,5.393-3.694,8.667-4.444c1.884-0.432,3.78-0.559,5.701-0.558
			C237.045,146.786,246.667,146.782,256.289,146.782z"/>
		<path style="fill:#513151;" d="M271.006,288.799c0.311-0.261,0.227-0.475,0.227-0.668c0-10.41-0.002-20.819-0.005-31.229
			c0-0.442,0.003-0.845,0.301-1.253c0.287-0.392-0.127-1.036,0.363-1.429c0.26-1.538,1.341-2.533,2.398-3.512
			c0.792-0.734,1.775-1.105,2.841-1.398c0.873-0.24,1.725-0.412,2.586-0.308c1.74,0.212,3.398,0.64,4.737,1.936
			c0.741,0.717,1.268,1.58,1.891,2.373c0.262,0.334,0.441,0.931,0.426,1.293c-0.047,1.106,0.479,2.076,0.477,3.179
			c-0.039,19.518-0.012,39.036-0.053,58.554c-0.004,1.891-0.758,3.531-2.636,4.417c-0.265,0.125-0.509,0.17-0.781,0.171
			c-0.548,0.002-1.097-0.021-1.643,0.006c-0.804,0.04-1.446-0.315-2-0.824c-0.68-0.624-1.418-1.226-1.945-1.969
			c-1.653-2.33-4.033-3.978-5.77-6.191c-1.612-2.053-3.714-3.623-5.287-5.659c-1.744-2.258-4.046-3.965-5.786-6.177
			c-1.699-2.16-3.894-3.826-5.583-5.948c-1.667-2.095-3.795-3.738-5.432-5.815c-1.721-2.184-3.818-3.973-5.684-5.998
			c-0.184-0.199-0.371-0.377-0.446-0.668c-0.073-0.284-0.122-0.272-0.658-0.557c-0.169,0.286-0.084,0.599-0.084,0.89
			c-0.005,10.204-0.002,20.408-0.007,30.613c0,0.568,0.144,1.17-0.315,1.661c-0.057,0.061-0.054,0.196-0.049,0.296
			c0.071,1.594-0.783,2.723-1.829,3.791c-0.792,0.809-1.605,1.556-2.696,1.932c-0.816,0.281-1.602,0.584-2.503,0.649
			c-1.799,0.129-3.415-0.366-4.91-1.242c-0.844-0.494-1.568-1.247-2.08-2.084c-0.367-0.602-0.871-1.134-0.981-1.937
			c-0.128-0.934-0.627-1.806-0.626-2.79c0.003-19.792-0.007-39.584,0.021-59.376c0.002-1.315,0.443-2.557,1.445-3.525
			c1.037-1.002,2.59-1.172,4.012-0.783c0.913,0.25,1.454,0.807,2.049,1.39c1.051,1.03,2.172,2.005,3.106,3.134
			c2.135,2.578,4.715,4.739,6.852,7.285c1.983,2.363,4.414,4.28,6.321,6.667c2.035,2.546,4.632,4.539,6.654,7.05
			c1.808,2.245,4.101,4.009,5.873,6.239c2.028,2.552,4.495,4.65,6.696,7.016C270.703,288.225,270.833,288.496,271.006,288.799z"/>
		<path style="fill:#513151;" d="M300.156,275.412c0-6.54,0.029-13.08-0.029-19.619c-0.009-1.061,0.426-1.885,0.841-2.751
			c0.533-1.115,1.255-2.077,2.442-2.602c0.367-0.162,0.57-0.543,0.971-0.722c1.555-0.695,3.212-0.986,4.829-0.675
			c1.346,0.26,2.7,0.778,3.727,1.857c0.866,0.91,1.82,1.739,2.219,2.99c0.261,0.819,0.626,1.584,0.624,2.498
			c-0.025,12.463-0.017,24.926-0.015,37.389c0,0.503,0.026,0.964,0.282,1.465c0.256,0.502,0.387,1.176,0.421,1.713
			c0.057,0.916,0.523,1.594,0.858,2.346c0.67,1.502,1.685,2.777,2.948,3.816c0.772,0.635,1.617,1.309,2.5,1.647
			c0.878,0.337,1.738,0.799,2.722,0.991c0.903,0.176,1.786,0.282,2.692,0.309c0.215,0.006,0.38,0.1,0.556,0.22
			c0.401,0.273,0.93,0.293,1.269,0.069c0.551-0.365,1.11-0.287,1.676-0.286c1.336,0.002,2.543-0.474,3.791-0.866
			c1.282-0.402,2.292-1.232,3.351-1.944c0.837-0.562,1.601-1.32,2.129-2.293c0.362-0.667,0.896-1.251,1.147-1.996
			c0.442-1.315,1.167-2.557,1.045-4.02c-0.011-0.134-0.037-0.318,0.035-0.401c0.538-0.622,0.343-1.364,0.343-2.061
			c0.009-12.121,0.006-24.241,0.008-36.362c0-0.401-0.09-0.817,0.265-1.156c0.101-0.097,0.132-0.324,0.111-0.48
			c-0.064-0.475,0.089-0.873,0.376-1.226c0.701-0.86,1.164-1.854,2.17-2.544c1.079-0.741,2.218-1.32,3.414-1.623
			c1.033-0.262,2.21-0.369,3.298,0.147c0.416,0.197,0.889,0.338,1.323,0.444c0.965,0.234,1.726,0.772,2.365,1.43
			c0.882,0.908,1.565,1.945,1.97,3.215c0.248,0.779,0.307,1.51,0.307,2.277c0.007,12.668,0.006,25.337,0.004,38.005
			c0,0.469,0.11,0.968-0.303,1.35c-0.044,0.04-0.074,0.132-0.062,0.19c0.211,1.07-0.455,2.04-0.365,3.082
			c0.051,0.588-0.3,1.046-0.464,1.519c-0.323,0.927-0.648,1.875-0.956,2.804c-0.321,0.969-0.707,1.887-1.236,2.73
			c-0.655,1.045-1.247,2.122-1.976,3.135c-1.431,1.99-3.29,3.541-4.992,5.245c-0.711,0.712-1.568,1.349-2.509,1.833
			c-1.011,0.52-1.891,1.312-2.962,1.694c-1.563,0.558-3.004,1.497-4.723,1.59c-0.572,0.586-1.488,0.133-2.074,0.684
			c-0.044,0.041-0.132,0.066-0.192,0.055c-1.342-0.241-2.581,0.444-3.909,0.414c-2.156-0.048-4.314-0.011-6.471-0.014
			c-0.405-0.001-0.827,0.072-1.16-0.271c-0.062-0.064-0.195-0.107-0.284-0.092c-1.005,0.172-1.964-0.168-2.863-0.458
			c-0.728-0.235-1.494-0.266-2.214-0.58c-0.814-0.355-1.729-0.489-2.543-0.887c-1.055-0.516-2.187-0.925-3.139-1.589
			c-1.125-0.786-2.3-1.499-3.368-2.39c-1.096-0.915-2.217-1.801-3.147-2.873c-0.65-0.75-1.299-1.527-1.783-2.415
			c-0.256-0.469-0.599-0.906-0.911-1.317c-1.031-1.361-1.627-2.943-2.358-4.44c-0.417-0.855-0.649-1.867-0.923-2.822
			c-0.179-0.623-0.211-1.257-0.372-1.851c-0.168-0.619-0.182-1.278-0.378-1.843c-0.697-2.011-0.293-4.052-0.322-6.069
			C300.106,285.822,300.156,280.616,300.156,275.412z"/>
		<path style="fill:#513151;" d="M394.72,320.925c-0.89,0-1.781,0.014-2.671-0.005c-0.668-0.014-1.354,0.143-1.975-0.321
			c-0.181-0.135-0.531-0.046-0.804-0.058c-0.469-0.02-0.962,0.1-1.362-0.29c-0.082-0.08-0.258-0.093-0.389-0.087
			c-1.355,0.052-2.493-0.679-3.739-1.018c-1.901-0.518-3.503-1.677-5.295-2.426c-0.475-0.199-0.827-0.58-1.241-0.852
			c-0.72-0.473-1.433-1.002-2.121-1.54c-1.158-0.904-2.289-1.834-3.218-2.948c-0.966-1.159-1.785-2.453-1.725-4.083
			c0.02-0.547,0.007-1.096,0.002-1.644c-0.011-1.131,0.319-2.102,0.943-3.09c0.801-1.268,1.823-2.104,3.151-2.73
			c1.379-0.65,2.845-0.854,4.242-0.545c1.408,0.311,2.824,0.836,3.863,2.024c0.913,1.044,2.117,1.751,3.221,2.577
			c0.883,0.661,1.828,1.165,2.822,1.545c1.139,0.435,2.25,1.041,3.53,1.013c0.102-0.002,0.225-0.028,0.304,0.018
			c1.216,0.701,2.541,0.237,3.81,0.361c0.271,0.027,0.549,0.015,0.769-0.2c0.128-0.125,0.292-0.169,0.468-0.176
			c1.903-0.073,3.42-0.982,4.663-2.325c0.801-0.865,1.397-1.896,1.32-3.167c-0.014-0.239-0.041-0.487,0.004-0.718
			c0.235-1.197-0.379-2.163-0.871-3.149c-0.159-0.319-0.479-0.589-0.783-0.8c-2.377-1.656-4.969-2.943-7.593-4.126
			c-1.157-0.521-2.276-1.17-3.467-1.572c-2.693-0.911-5.085-2.428-7.624-3.638c-0.962-0.459-1.824-1.247-2.759-1.828
			c-1.061-0.66-1.781-1.69-2.777-2.363c-0.621-0.419-0.886-1.051-1.406-1.5c-0.542-0.469-1.109-0.95-1.509-1.533
			c-0.813-1.186-1.493-2.459-2.06-3.787c-0.338-0.792-0.546-1.62-0.796-2.438c-0.658-2.158-0.166-4.33-0.336-6.484
			c-0.105-1.328,0.331-2.549,0.69-3.806c0.388-1.361,0.892-2.651,1.582-3.871c0.393-0.695,0.772-1.41,1.348-1.986
			c1.089-1.089,2.197-2.161,3.253-3.281c0.432-0.459,0.997-0.77,1.497-1.012c1.197-0.58,2.139-1.602,3.536-1.868
			c0.685-0.13,1.359-0.536,2.032-0.82c0.723-0.305,1.487-0.335,2.215-0.58c0.997-0.336,2.072-0.62,3.173-0.441
			c2.019-0.768,4.117-0.199,6.172-0.368c0.271-0.022,0.544-0.011,0.775,0.191c0.097,0.085,0.25,0.179,0.363,0.163
			c1.17-0.165,2.261,0.366,3.398,0.377c0.524,0.005,0.877,0.316,1.333,0.427c2.058,0.5,3.999,1.343,5.812,2.409
			c0.701,0.412,1.351,1.04,2.032,1.487c1.11,0.728,1.907,1.735,2.87,2.584c0.915,0.807,1.331,1.882,1.747,3.004
			c0.273,0.738,0.255,1.444,0.333,2.176c0.091,0.852-0.361,1.557-0.511,2.34c-0.283,1.482-1.499,2.281-2.488,3.212
			c-0.473,0.445-1.129,0.794-1.76,0.946c-0.771,0.186-1.493,0.525-2.348,0.519c-1.264-0.01-2.357-0.447-3.468-0.914
			c-0.603-0.254-1.121-0.633-1.541-1.135c-0.51-0.609-1.229-0.962-1.879-1.343c-0.489-0.286-0.844-0.742-1.438-0.922
			c-1.332-0.404-2.597-0.934-4.021-1.122c-1.042-0.138-1.973-0.131-3.004,0.013c-1.049,0.146-2.08,0.277-2.958,0.833
			c-1.289,0.815-2.466,1.766-2.776,3.422c-0.084,0.447-0.521,0.845-0.338,1.338c0.379,1.019,0.576,2.088,1.399,2.948
			c1.439,1.503,3.244,2.374,5.035,3.311c1.278,0.669,2.636,1.156,3.949,1.727c1.166,0.508,2.268,1.182,3.461,1.579
			c2.41,0.803,4.545,2.154,6.812,3.234c0.944,0.45,1.764,1.214,2.685,1.759c0.839,0.496,1.489,1.236,2.37,1.688
			c0.495,0.253,0.848,0.783,1.262,1.192c1.083,1.068,1.987,2.259,2.868,3.51c0.761,1.081,0.877,2.395,1.681,3.396
			c-0.157,0.806,0.259,1.532,0.475,2.233c0.685,2.218,0.176,4.457,0.341,6.675c0.034,0.458,0.137,0.96-0.301,1.34
			c-0.08,0.07-0.089,0.259-0.078,0.389c0.082,0.976-0.506,1.785-0.667,2.672c-0.167,0.92-0.834,1.602-0.908,2.548
			c-0.039,0.501-0.691,0.78-0.848,1.349c-0.182,0.66-0.826,1.073-1.148,1.635c-0.455,0.793-1.092,1.376-1.697,2.01
			c-0.867,0.909-1.933,1.552-2.954,2.263c-1.02,0.71-1.988,1.508-3.159,1.947c-1.245,0.467-2.503,0.924-3.72,1.435
			c-0.898,0.378-1.902,0.046-2.719,0.656c-0.203,0.151-0.599,0.043-0.906,0.054c-0.403,0.015-0.815-0.064-1.168,0.251
			c-0.25,0.222-0.59,0.128-0.893,0.13C396.98,320.929,395.85,320.925,394.72,320.925z"/>
		<path style="fill:#513151;" d="M123.911,289.195c0.033-0.73,0.456-1.3,0.711-1.936c0.443-1.104,0.946-2.185,1.305-3.331
			c0.225-0.716,0.578-1.41,0.852-2.128c0.568-1.487,1.231-2.939,1.848-4.406c0.41-0.975,0.873-1.967,1.204-2.954
			c0.403-1.203,1.126-2.246,1.464-3.487c0.207-0.761,0.625-1.535,0.932-2.303c0.442-1.106,1.018-2.166,1.275-3.346
			c0.034-0.155,0.181-0.282,0.249-0.434c0.612-1.367,1.226-2.729,1.674-4.167c0.214-0.687,0.531-1.376,0.844-2.012
			c0.518-1.052,0.721-2.229,1.387-3.213c0.47-0.694,0.509-1.576,0.949-2.3c0.898-1.478,2.041-2.682,3.621-3.428
			c1.535-0.724,3.184-0.966,4.828-0.726c1.142,0.167,2.23,0.701,3.212,1.353c0.307,0.203,0.528,0.529,0.934,0.585
			c0.086,0.012,0.197,0.106,0.231,0.19c0.474,1.139,1.54,1.851,1.921,3.144c0.456,1.544,0.252,3.037,0.249,4.54
			c-0.002,0.747-0.589,1.475-0.798,2.242c-0.344,1.259-1.233,2.284-1.461,3.591c-0.061,0.349-0.283,0.682-0.48,0.992
			c-0.881,1.393-1.359,2.98-2.029,4.466c-0.491,1.09-1.168,2.139-1.457,3.285c-0.316,1.25-1.235,2.221-1.398,3.522
			c-0.05,0.403-0.412,0.763-0.618,1.15c-0.725,1.355-1.233,2.812-1.847,4.214c-0.482,1.099-1.169,2.143-1.454,3.29
			c-0.311,1.252-1.26,2.206-1.407,3.514c-0.045,0.401-0.408,0.764-0.614,1.151c-0.72,1.355-1.238,2.807-1.849,4.207
			c-0.48,1.1-1.046,2.167-1.484,3.285c-0.827,2.111-1.758,4.171-2.71,6.229c-0.385,0.832-0.851,1.669-1.108,2.551
			c-0.371,1.271-1.171,2.34-1.579,3.554c-0.458,1.364-1.206,2.591-1.628,3.962c-0.166,0.539-0.524,1.015-0.746,1.54
			c-0.481,1.135-0.893,2.297-1.504,3.377c-0.313,0.553-0.696,0.944-1.269,1.238c-0.786,0.403-1.53,0.731-2.464,0.771
			c-1.169,0.05-2.092-0.452-3.043-0.933c-0.346-0.175-0.657-0.504-0.84-0.879c-0.791-1.619-1.48-3.29-2.202-4.935
			c-0.568-1.296-1.234-2.577-1.646-3.955c-0.19-0.635-0.653-1.188-0.843-1.822c-0.372-1.247-1.249-2.275-1.467-3.588
			c-0.063-0.378-0.352-0.72-0.544-1.075c-0.905-1.677-1.584-3.465-2.361-5.197c-0.578-1.289-1.085-2.647-1.678-3.932
			c-0.712-1.544-1.357-3.124-2.061-4.671c-0.524-1.152-1.181-2.266-1.563-3.458c-0.385-1.199-1.177-2.207-1.488-3.375
			c-0.323-1.212-1.186-2.172-1.351-3.44c-0.06-0.465-0.455-0.886-0.7-1.326c-0.718-1.286-1.168-2.696-1.764-4.034
			c-0.5-1.124-1.131-2.205-1.519-3.365c-0.419-1.252-1.176-2.344-1.58-3.563c-0.29-0.874-0.808-1.622-1.064-2.475
			c-0.39-1.298-1.123-2.423-1.63-3.65c-0.239-0.578-0.349-1.211-0.761-1.712c-0.176-0.214-0.122-0.453-0.123-0.685
			c-0.006-1.027,0.011-2.055-0.005-3.082c-0.017-1.152,0.493-2.143,1.091-3.036c0.366-0.546,0.551-1.27,1.19-1.615
			c0.797-0.43,1.495-1.012,2.309-1.426c1.409-0.718,2.922-0.988,4.421-0.712c1.593,0.293,3.136,0.769,4.396,2.016
			c1.115,1.105,1.958,2.351,2.504,3.753c0.614,1.577,1.385,3.085,1.968,4.665c0.566,1.533,1.222,3.017,1.859,4.516
			c0.65,1.529,1.252,3.078,1.918,4.605c0.54,1.239,1.05,2.505,1.524,3.773c0.585,1.562,1.338,3.048,1.922,4.6
			c0.575,1.529,1.273,3.006,1.841,4.523c0.568,1.517,1.379,2.949,1.722,4.555c0.075,0.349,0.357,0.649,0.492,0.992
			c0.206,0.523,0.636,0.946,0.62,1.576C123.232,288.912,123.486,289.139,123.911,289.195z"/>
		<path style="fill:#513151;" d="M191.912,320.925c-5.375,0-10.749-0.026-16.124,0.025c-0.916,0.009-1.759-0.22-2.538-0.537
			c-0.487-0.198-1.017-0.24-1.502-0.533c-1.488-0.899-2.885-1.838-3.77-3.41c-0.241-0.428-0.682-0.77-0.811-1.264
			c-0.175-0.67-0.617-1.262-0.578-1.993c0.011-0.205,0.035-0.44-0.126-0.584c-0.334-0.301-0.258-0.683-0.258-1.052
			c-0.002-8.593-0.002-17.185,0-25.778c0-0.404-0.084-0.827,0.275-1.153c0.065-0.059,0.088-0.184,0.099-0.282
			c0.189-1.595,0.946-2.91,2.005-4.074c0.14-0.154,0.274-0.302,0.295-0.523c0.018-0.182,0.127-0.333,0.273-0.417
			c1.29-0.749,2.303-1.987,3.887-2.221c0.616-0.571,1.546-0.131,2.187-0.686c0.143-0.123,0.463-0.052,0.701-0.053
			c10.646-0.002,21.293-0.042,31.939,0.041c1.686,0.013,3.334,0.599,4.648,1.881c0.82,0.8,1.409,1.713,1.906,2.714
			c0.015,0.03,0.052,0.057,0.053,0.086c0.024,1.042,0.727,2.008,0.444,3.065c-0.43,1.603-0.713,3.288-2.128,4.438
			c-0.678,0.552-1.144,1.357-2.036,1.656c-0.821,0.276-1.604,0.609-2.515,0.606c-8.01-0.025-16.021-0.015-24.032-0.014
			c-1.425,0-2.392,0.952-2.395,2.394c-0.009,3.731,0.01,7.463-0.014,11.194c-0.004,0.665,0.358,1.139,0.645,1.659
			c0.136,0.246,0.404,0.35,0.705,0.335c0.273-0.014,0.548-0.001,0.821-0.001c7.771,0,15.542-0.025,23.313,0.016
			c2.14,0.011,4.062,0.672,5.62,2.292c0.706,0.734,1.285,1.569,1.528,2.46c0.256,0.939,0.757,1.923,0.49,2.947
			c-0.366,1.406-0.59,2.872-1.628,4.025c-0.759,0.843-1.729,1.791-2.548,2.135c-0.761,0.32-1.527,0.623-2.402,0.619
			C202.867,320.912,197.389,320.925,191.912,320.925z"/>
		<path style="fill:#513151;" d="M307.814,370.755c-0.758-0.981-0.718-1.994-1.132-2.865c-0.095-0.201-0.062-0.469-0.063-0.706
			c-0.006-0.856,0.026-1.713-0.007-2.568c-0.059-1.526,0.256-2.958,0.701-4.426c0.571-1.888,1.742-3.285,3.17-4.448
			c1.148-0.936,2.56-1.426,4.061-1.811c1.848-0.474,3.658-0.292,5.466-0.25c1.267,0.029,2.533,0.544,3.673,1.21
			c0.782,0.457,1.619,0.874,2.242,1.515c1.125,1.158,1.941,2.505,2.463,4.085c0.236,0.715,0.106,1.551,0.658,2.183
			c0.122,0.14,0.042,0.463,0.043,0.701c0.003,1.199,0.011,2.397-0.004,3.596c-0.008,0.599,0.044,1.171-0.3,1.769
			c-0.259,0.45-0.206,1.077-0.402,1.633c-0.338,0.959-0.733,1.844-1.34,2.666c-0.337,0.457-0.548,1.011-1.021,1.366
			c-1.152,0.865-2.335,1.633-3.726,2.13c-0.726,0.26-1.548,0.143-2.203,0.64c-0.159,0.121-0.463,0.066-0.701,0.066
			c-5.959,0.003-11.918-0.016-17.876,0.026c-0.689,0.005-1.285-0.274-1.827-0.493c-0.979-0.396-2.027-0.767-2.834-1.513
			c-0.336-0.311-0.583-0.358-0.962-0.042c-0.981,0.819-2.108,1.317-3.344,1.71c-0.851,0.271-1.653,0.301-2.488,0.307
			c-2.603,0.019-5.207-0.042-7.807,0.033c-0.924,0.027-1.723-0.291-2.541-0.547c-1.012-0.317-1.983-0.783-2.759-1.558
			c-0.274-0.273-0.544-0.239-0.801,0.028c-0.775,0.805-1.843,1.183-2.817,1.526c-0.771,0.272-1.632,0.556-2.539,0.543
			c-3.39-0.046-6.78-0.019-10.171-0.018c-1.227,0-1.133,0.041-1.601,1.182c-0.378,0.921-0.523,1.917-1.017,2.793
			c-0.941,1.668-2.115,3.082-3.764,4.135c-1.277,0.816-2.612,1.289-4.101,1.395c-0.206,0.015-0.406,0.023-0.569,0.181
			c-0.268,0.258-0.543,0.25-0.813-0.006c-0.359-0.34-0.866-0.177-1.305-0.482c-1.413-0.983-1.436-2.35-1.339-3.81
			c0.015-0.224,0.115-0.383,0.27-0.529c0.175-0.164,0.374-0.316,0.502-0.512c0.548-0.843,1.464-1.087,2.321-1.295
			c1.37-0.331,2.261-1.128,2.84-2.356c0.235-0.499,0.148-0.672-0.424-0.686c-1.027-0.026-2.058-0.066-3.081,0.006
			c-0.945,0.066-1.791-0.316-2.652-0.525c-2.137-0.518-3.776-1.92-5.142-3.577c-0.695-0.843-1.074-1.915-1.501-2.937
			c-0.338-0.809-0.157-1.711-0.423-2.454c-0.316-0.88-0.435-1.75-0.279-2.58c0.207-1.095,0.152-2.24,0.433-3.271
			c0.333-1.225,0.645-2.516,1.392-3.616c0.3-0.441,1.409-1.81,1.859-2.141c0.485-0.357,0.971-0.75,1.409-1.127
			c0.954-0.823,2.201-0.769,3.195-1.375c0.153-0.093,0.403-0.031,0.608-0.032c0.993-0.002,1.988,0.035,2.979-0.009
			c2.039-0.091,3.846,0.67,5.49,1.7c1.263,0.791,2.169,2.048,2.711,3.475c0.305,0.803,1.018,1.476,0.83,2.446
			c0.552,0.755,0.17,1.682,0.411,2.451c0.651,2.082,0.205,4.19,0.345,6.278c0.051,0.764,0.027,0.784,0.842,0.786
			c3.116,0.008,6.233,0.009,9.349,0c0.989-0.003,1.964-1.032,1.965-2.05c0.004-3.151,0.064-6.303-0.028-9.451
			c-0.043-1.453,1.601-3.066,2.964-2.992c1.017,0.056,1.956,0.127,2.7,0.898c0.56,0.58,0.882,1.237,0.87,2.082
			c-0.032,2.363-0.108,4.731,0.019,7.087c0.097,1.8,0.763,3.395,2.588,4.233c0.299,0.137,0.57,0.194,0.874,0.194
			c2.603,0.002,5.205,0.007,7.808-0.002c1.01-0.003,1.998-1.003,2-2.014c0.005-3.082,0.025-6.165-0.014-9.246
			c-0.012-0.925,0.676-1.521,0.888-2.325c0.825-0.255,1.473-0.918,2.434-0.9c0.939,0.017,1.686,0.302,2.384,0.924
			c0.615,0.548,0.838,1.138,0.815,1.964c-0.061,2.122-0.022,4.246-0.019,6.369c0.001,0.403-0.071,0.814,0.271,1.157
			c0.175,0.175,0.108,0.454,0.113,0.692c0.044,1.86,1.592,3.379,3.446,3.381C304.155,370.757,305.83,370.755,307.814,370.755z
			 M322.241,365.413c0-0.41-0.056-0.83,0.012-1.228c0.129-0.758-0.24-1.454-0.529-2.004c-0.597-1.138-1.81-1.727-3.018-2.043
			c-1.348-0.352-2.584,0.209-3.706,0.948c-0.276,0.182-0.579,0.45-0.682,0.745c-0.283,0.811-1.021,1.468-0.848,2.441
			c0.019,0.11-0.066,0.273-0.154,0.36c-0.317,0.313-0.314,0.747-0.197,1.057c0.226,0.602,0.234,1.266,0.456,1.822
			c0.496,1.241,1.144,2.367,2.578,2.917c0.884,0.34,1.751,0.432,2.571,0.262c0.569-0.118,1.262-0.172,1.753-0.651
			c1.104-1.075,1.875-2.29,1.765-3.911C322.227,365.892,322.24,365.652,322.241,365.413z M253.346,367.355
			c-0.046-1.181,0.021-2.439-0.331-3.72c-0.258-0.937-0.689-1.725-1.146-2.536c-0.328-0.582-0.974-0.531-1.484-0.759
			c-0.731-0.327-1.366-0.302-2.121,0.029c-0.739,0.324-1.193,0.897-1.707,1.42c-0.523,0.532-0.884,1.182-0.823,1.988
			c0.026,0.337,0.055,0.686-0.233,0.96c-0.163,0.155-0.163,0.373-0.146,0.578c0.052,0.628-0.057,1.236,0.289,1.878
			c0.259,0.481,0.141,1.175,0.483,1.705c0.609,0.942,1.389,1.733,2.534,1.83c1.326,0.112,2.668,0.01,4.003,0.034
			c0.556,0.01,0.705-0.238,0.689-0.746C253.327,369.161,253.346,368.305,253.346,367.355z"/>
		<path style="fill:#513151;" d="M287.4,428.873c0.291-0.307,0.305-0.626,0.378-0.904c1.086-4.1,2.159-8.203,3.239-12.305
			c0.601-2.282,1.203-4.563,1.817-6.841c0.207-0.768,0.223-0.774,1.047-0.776c2.568-0.006,5.137-0.005,7.705-0.001
			c1.082,0.002,1.084,0.01,1.084,1.079c0,9.589,0,19.178,0,28.767c0,0.377-0.011,0.754,0.006,1.13
			c0.019,0.428-0.169,0.642-0.598,0.642c-1.61,0.001-3.219,0-4.829,0.005c-0.38,0.001-0.574-0.164-0.561-0.555
			c0.007-0.205,0.004-0.411,0.004-0.616c0.002-7.089,0.003-14.178,0.005-21.267c0-0.338,0-0.677,0-1.103
			c-0.482,0.263-0.498,0.675-0.582,1.004c-0.949,3.712-1.874,7.429-2.807,11.145c-0.9,3.582-1.805,7.163-2.695,10.748
			c-0.108,0.435-0.338,0.646-0.783,0.645c-1.678-0.003-3.356-0.01-5.034,0.004c-0.497,0.004-0.618-0.29-0.718-0.692
			c-0.451-1.827-0.927-3.648-1.387-5.473c-0.827-3.284-1.649-6.568-2.472-9.853c-0.549-2.19-1.094-4.381-1.646-6.57
			c-0.063-0.249-0.063-0.537-0.353-0.745c-0.268,0.332-0.178,0.677-0.178,0.995c0.001,7.089,0.007,14.178,0.012,21.267
			c0,0.171-0.001,0.342,0.002,0.514c0.008,0.394-0.206,0.55-0.575,0.55c-1.61,0-3.219-0.001-4.829,0.001
			c-0.419,0.001-0.642-0.178-0.614-0.619c0.011-0.171,0.004-0.342,0.004-0.514c0-9.794,0-19.589,0-29.383
			c0-0.103-0.004-0.206-0.001-0.308c0.022-0.759,0.035-0.773,0.836-0.797c0.24-0.007,0.479-0.001,0.719-0.001
			c2.363,0,4.726-0.004,7.089,0.002c0.993,0.002,0.977,0.016,1.231,0.971c1.084,4.065,2.182,8.126,3.267,12.191
			c0.574,2.148,1.13,4.3,1.699,6.449C286.986,428.047,287.034,428.462,287.4,428.873z"/>
		<path style="fill:#513151;" d="M201.591,365.979c0-2.26,0.07-4.523-0.026-6.779c-0.061-1.435,1.62-2.995,2.909-2.94
			c1.051,0.045,2.033,0.113,2.781,0.933c0.507,0.556,0.835,1.188,0.828,1.992c-0.023,3.013,0.008,6.027-0.023,9.04
			c-0.008,0.772,0.328,1.358,0.748,1.928c0.32,0.434,0.736,0.689,1.32,0.61c0.336-0.045,0.684,0.001,1.026-0.01
			c0.63-0.021,1.295,0.155,1.785-0.485c0.484-0.632,0.846-1.262,0.838-2.105c-0.028-2.91,0.083-5.825-0.048-8.73
			c-0.073-1.615,1.585-3.286,3.204-3.186c1.48,0.092,2.509,0.579,3.146,1.936c0.16,0.34,0.176,0.647,0.177,0.98
			c0.005,2.876,0.038,5.753-0.022,8.629c-0.016,0.755,0.329,1.375,0.518,2.031c0.175,0.605,0.965,0.844,1.595,0.907
			c0.881,0.088,1.78,0.052,2.668,0.012c0.744-0.034,1.687-1.19,1.688-2.011c0.003-3.116,0.09-6.236-0.037-9.347
			c-0.064-1.554,1.606-3.202,3.146-3.146c1.368,0.05,2.307,0.609,3.162,1.543c0.213,0.232,0.226,0.479,0.226,0.755
			c-0.001,3.835,0.028,7.671-0.023,11.505c-0.011,0.817-0.391,1.615-0.779,2.344c-0.876,1.648-2.097,3.059-3.78,3.842
			c-1.241,0.577-2.557,1.183-4.037,1.026c-0.643-0.068-1.3-0.027-1.951-0.008c-1.731,0.051-3.207-0.63-4.555-1.622
			c-0.373-0.275-0.601-0.316-0.967-0.006c-0.751,0.637-1.666,0.941-2.586,1.285c-1.742,0.652-3.508,0.175-5.254,0.323
			c-0.121,0.01-0.254-0.077-0.376-0.131c-1.078-0.477-1.737-0.304-1.87,0.779c-0.103,0.842-0.873,1.202-0.969,1.952
			c-1.001,0.686-1.186,2.184-2.523,2.535c-0.787,0.953-1.908,1.375-2.989,1.843c-0.791,0.343-1.58,0.725-2.492,0.656
			c-0.365-0.028-0.708,0.054-1.078,0.197c-0.832,0.321-1.728,0.301-2.58-0.006c-0.186-0.067-0.36-0.237-0.562-0.189
			c-0.786,0.187-1.49-0.194-2.146-0.447c-0.99-0.382-1.97-0.847-2.862-1.471c-0.666-0.466-1.305-0.942-1.892-1.512
			c-1.287-1.252-1.933-2.893-2.803-4.399c0.133-0.932-0.482-1.716-0.453-2.665c0.083-2.668,0.11-5.345-0.009-8.01
			c-0.052-1.175,0.554-1.839,1.333-2.33c1.259-0.793,2.657-0.753,3.942,0.012c0.467,0.278,0.986,0.676,0.868,1.391
			c0.617,0.819,0.35,1.768,0.37,2.665c0.033,1.437,0.062,2.879-0.008,4.314c-0.058,1.188,0.259,2.261,0.79,3.274
			c0.445,0.849,1.182,1.423,1.982,1.974c1.235,0.851,2.588,0.816,3.917,0.659c0.671-0.079,1.365-0.388,2.021-0.778
			c1.061-0.632,1.611-1.583,2.1-2.589c0.357-0.736,0.639-1.519,0.622-2.395C201.563,370.362,201.592,368.17,201.591,365.979z"/>
		<path style="fill:#513151;" d="M190.408,263.455c-5.89,0-11.78,0.003-17.67-0.002c-1.253-0.001-2.377-0.423-3.337-1.206
			c-0.348-0.284-0.831-0.301-1.108-0.697c-0.667-0.952-1.318-1.877-1.759-2.996c-0.469-1.19-0.379-2.359-0.279-3.503
			c0.089-1.021,0.39-2.097,1.17-2.911c0.279-0.291,0.488-0.758,0.737-0.93c0.991-0.683,1.76-1.614,3.103-1.908
			c2.651-0.58,5.293-0.279,7.931-0.296c9.485-0.062,18.971-0.03,28.457-0.019c1.937,0.002,3.56,0.77,4.994,2.071
			c0.833,0.756,1.529,1.661,1.766,2.665c0.293,1.243,1.045,2.553,0.18,3.903c-0.193,0.301,0.083,0.766-0.123,1.1
			c-0.508,0.826-0.851,1.734-1.587,2.446c-0.975,0.943-2.072,1.526-3.345,1.973c-0.748,0.263-1.445,0.304-2.178,0.305
			C201.709,263.46,196.058,263.455,190.408,263.455z"/>
		<path style="fill:#513151;" d="M232.563,422.512c1.986,0,3.972-0.007,5.958,0.003c0.864,0.004,0.876,0.02,0.878,0.851
			c0.005,3.664-0.008,7.327,0.014,10.991c0.004,0.619-0.246,1.024-0.702,1.39c-1.73,1.392-3.697,2.341-5.777,3.054
			c-2.939,1.008-5.959,1.6-9.075,1.245c-3.721-0.424-7.146-1.575-9.778-4.432c-1.828-1.984-2.993-4.34-3.652-6.921
			c-0.986-3.862-0.985-7.756,0.306-11.542c1.797-5.267,5.536-8.442,10.981-9.526c3.236-0.644,6.48-0.517,9.648,0.451
			c3.971,1.214,6.376,3.952,7.459,7.908c0.178,0.65,0.114,0.744-0.581,0.89c-1.64,0.345-3.286,0.662-4.927,1.002
			c-0.542,0.112-0.776-0.085-0.954-0.619c-0.664-1.987-1.916-3.476-3.947-4.161c-1.515-0.512-3.081-0.578-4.667-0.321
			c-4.268,0.69-6.271,3.6-6.963,6.975c-0.617,3.011-0.502,5.992,0.431,8.923c1.229,3.86,4.188,5.998,8.245,5.991
			c2.108-0.004,4.044-0.615,5.835-1.703c1.591-0.968,1.587-0.975,1.586-2.832c0-0.479,0.011-0.959-0.001-1.438
			c-0.019-0.747-0.081-0.811-0.825-0.83c-0.547-0.014-1.096-0.002-1.643-0.002c-1.301,0-2.602,0.007-3.903-0.003
			c-0.899-0.007-0.904-0.017-0.908-0.925c-0.005-1.198-0.008-2.397,0.001-3.595c0.006-0.796,0.015-0.817,0.8-0.821
			C228.454,422.504,230.509,422.512,232.563,422.512z"/>
		<path style="fill:#513151;" d="M240.898,408.219c0.203-0.261,0.497-0.171,0.759-0.172c1.918-0.006,3.836,0.024,5.753-0.017
			c0.639-0.014,0.991,0.23,1.302,0.757c2.051,3.478,4.126,6.943,6.193,10.412c0.07,0.118,0.138,0.237,0.209,0.353
			c0.486,0.79,0.603,0.798,1.062,0.019c0.972-1.651,1.932-3.31,2.898-4.964c1.122-1.92,2.267-3.828,3.357-5.766
			c0.325-0.579,0.696-0.826,1.375-0.81c1.848,0.044,3.698,0.012,5.547,0.018c0.259,0.001,0.597-0.111,0.736,0.198
			c0.111,0.248-0.151,0.428-0.276,0.625c-3.537,5.579-7.068,11.161-10.619,16.731c-0.367,0.575-0.517,1.151-0.513,1.829
			c0.023,3.698,0.011,7.397,0.012,11.095c0,0.137-0.01,0.275,0.004,0.411c0.053,0.511-0.131,0.751-0.686,0.743
			c-1.678-0.023-3.356-0.019-5.034-0.005c-0.533,0.005-0.716-0.214-0.706-0.74c0.026-1.438,0.011-2.876,0.011-4.315
			c0.001-2.397-0.021-4.794,0.013-7.191c0.011-0.754-0.179-1.383-0.584-2.018c-3.554-5.568-7.085-11.151-10.624-16.728
			C240.997,408.539,240.872,408.414,240.898,408.219z"/>
		<path style="fill:#513151;" d="M295.669,380.647c1.471,0,2.949,0.087,4.411-0.028c1.174-0.092,1.847,0.588,2.3,1.383
			c1.085,1.905,0.355,3.389-1.138,4.613c-0.051,0.042-0.122,0.1-0.177,0.093c-0.932-0.115-1.719,0.503-2.672,0.452
			c-1.808-0.096-3.626-0.066-5.437-0.012c-0.964,0.029-1.894-0.086-2.766-0.44c-0.704-0.286-1.107-0.991-1.653-1.499
			c-0.325-0.302-0.145-0.711-0.186-1.073c-0.004-0.034,0-0.068,0-0.103c0.002-1.724,0.016-1.71,1.219-2.911
			c0.374-0.374,0.764-0.493,1.275-0.485C292.454,380.663,294.062,380.647,295.669,380.647z"/>
		<path style="fill:#513151;" d="M317.644,350.979c-1.137,0.213-2.113-0.341-2.988-1.261c-0.526-0.553-0.59-1.277-0.757-1.913
			c-0.155-0.59-0.272-1.339,0.239-1.955c0.228-0.274,0.344-0.651,0.468-0.997c0.126-0.35,0.364-0.564,0.683-0.712
			c0.092-0.042,0.233-0.031,0.286-0.097c0.831-1.047,2.017-0.773,3.032-0.64c0.817,0.107,1.609,0.501,2.231,1.285
			c0.488,0.617,0.563,1.34,0.956,1.952c0.143,0.223,0.134,0.624,0.048,0.897c-0.228,0.725-0.438,1.488-0.837,2.12
			c-0.497,0.789-1.27,1.301-2.27,1.32C318.428,350.984,318.121,350.979,317.644,350.979z"/>
		<path style="fill:#513151;" d="M275.477,350.979c-0.506-0.102-1.083,0.072-1.703-0.234c-1.048-0.516-1.613-1.281-1.769-2.384
			c-0.051-0.357-0.399-0.533-0.409-0.914c-0.013-0.503,0.448-2.034,0.812-2.408c0.358-0.367,0.704-0.748,1.093-1.08
			c1.042-0.887,3.646-0.873,4.656,0.04c0.152,0.137,0.337,0.264,0.428,0.437c0.476,0.91,1.12,1.73,1.059,2.875
			c-0.111,2.053-1.668,3.904-3.675,3.669C275.834,350.965,275.696,350.979,275.477,350.979z"/>
	</g>
</g>
</svg>
