<?xml version="1.0" encoding="utf-8"?>
<!-- Generator: Adobe Illustrator 26.0.1, SVG Export Plug-In . SVG Version: 6.00 Build 0)  -->
<svg version="1.1" id="GeorgeSamuel.me" xmlns="http://www.w3.org/2000/svg" xmlns:xlink="http://www.w3.org/1999/xlink" x="0px"
	 y="0px" viewBox="0 0 512 512" style="enable-background:new 0 0 512 512;" xml:space="preserve">
<style type="text/css">
	.st0{fill:#FFFFFF;}
	.st1{fill:url(#SVGID_1_);}
	.st2{fill:url(#SVGID_00000080900731164536502550000009710630160453022655_);}
	.st3{fill:url(#SVGID_00000084516429932815842600000014997840195664323212_);}
	.st4{fill:url(#SVGID_00000178895254284069882590000008250169549332033685_);}
	.st5{fill:#EC008C;}
</style>
<g id="www.GeorgeSamuel.me_00000067956152380751248950000005612659162350487220_">
	<rect class="st0" width="512" height="512"/>
	<circle class="st0" cx="256" cy="256" r="256"/>
	<g id="www.GeorgeSamuel.me">
		<linearGradient id="SVGID_1_" gradientUnits="userSpaceOnUse" x1="219.8705" y1="216.0951" x2="387.5287" y2="119.2976">
			<stop  offset="0" style="stop-color:#EF4830"/>
			<stop  offset="0.3571" style="stop-color:#F37430"/>
			<stop  offset="0.4281" style="stop-color:#F6916A"/>
			<stop  offset="0.7201" style="stop-color:#F05A83"/>
			<stop  offset="1" style="stop-color:#D70688"/>
		</linearGradient>
		<path class="st1" d="M343.6,77.6c2.6,0.5,5.3,0.9,7.9,1.6c7.4,2.1,13.7,6,19.2,11.3c0.2,0.2,0.3,0.4,0.6,0.6
			c-0.1,0.1-0.2,0.2-0.3,0.2c-10.8,4-18.2,11.4-22.3,22.2c-4.6,12.2-8.3,24.7-11.7,37.3c-4.4,15.9-8.4,31.9-12.9,47.8
			c-3.1,11-7,21.8-12.6,31.8c-3.2,5.7-6.8,11.1-12,15.1c-10.4,7.9-22,12-35.2,11c-5.8-0.4-11.6-1.1-17-3.2c-3.5-1.4-6.7-3.2-9.2-6.1
			c-0.2-0.3-0.4-0.5-0.6-0.9c1.7-0.2,3.3-0.3,4.8-0.6c7.4-1.5,13-5.8,17.8-11.3c5.9-6.9,9.7-15,12.6-23.6c3.3-9.8,5.5-20,7.5-30.1
			c3.1-15.7,6-31.4,9.3-47.1c1.9-9.1,4.3-18.2,8.4-26.6c3.9-8,8.8-15.3,16-20.8c6.5-5.1,14-7.7,22.2-8.4c0.4,0,0.8-0.2,1.2-0.2
			C339.3,77.6,341.4,77.6,343.6,77.6z"/>
		
			<linearGradient id="SVGID_00000137818678964855707910000002874127476337287608_" gradientUnits="userSpaceOnUse" x1="136.3321" y1="216.1287" x2="303.9498" y2="119.3546">
			<stop  offset="0" style="stop-color:#E01076"/>
			<stop  offset="0.3571" style="stop-color:#F15D34"/>
			<stop  offset="0.4281" style="stop-color:#F48473"/>
			<stop  offset="0.7201" style="stop-color:#F99E5F"/>
			<stop  offset="1" style="stop-color:#FFC619"/>
		</linearGradient>
		<path style="fill:url(#SVGID_00000137818678964855707910000002874127476337287608_);" d="M260,77.6c2.6,0.5,5.2,0.9,7.7,1.6
			c7.4,2.1,13.7,6,19.3,11.2c0.2,0.2,0.4,0.4,0.6,0.6c-2.1,1-4.1,1.8-6.1,3c-7.1,4.1-12.4,9.8-15.6,17.4c-4,9.5-7,19.4-9.7,29.4
			c-4.8,17.4-9.4,34.8-14.1,52.2c-3.1,11.3-6.7,22.4-11.8,32.9c-2.9,5.9-6.1,11.7-10.8,16.4c-7.8,7.7-17.2,12.5-28.2,13.9
			c-9.1,1.2-18.1,0.4-26.9-2.5c-3.6-1.2-6.9-3-9.5-5.8c-0.3-0.3-0.6-0.6-0.8-1c-0.1-0.1-0.2-0.3-0.3-0.5c8.9-0.1,15.7-4.3,21.5-10.6
			c2-2.2,3.8-4.6,5.4-7.1c5.1-7.8,8.2-16.5,10.7-25.5c3.4-12.3,5.6-24.9,8-37.4c2.8-14.8,5.3-29.7,9.5-44.3
			c2.7-9.7,6.7-18.8,12.9-26.8c7.8-10.1,18.1-15.9,30.9-16.9c0.3,0,0.7-0.1,1-0.2C255.8,77.6,257.9,77.6,260,77.6z"/>
		
			<linearGradient id="SVGID_00000124141476896181892550000014078694929342958267_" gradientUnits="userSpaceOnUse" x1="101.0689" y1="186.5845" x2="182.9307" y2="186.5845">
			<stop  offset="0" style="stop-color:#842890"/>
			<stop  offset="1" style="stop-color:#E3038D"/>
		</linearGradient>
		<path style="fill:url(#SVGID_00000124141476896181892550000014078694929342958267_);" d="M101.1,149.4c4.1-4.6,8.4-8.9,13.9-11.6
			c5.1-2.4,10.6-3.1,16.2-2.9c10,0.3,18.5,4.3,26.3,10.2c13.1,9.9,20.9,23.3,25.3,38.9c0.4,1.5,0.1,3.3-0.1,4.9
			c-1.6,12.2-5.2,23.8-11.1,34.7c-1.9,3.5-4.1,6.9-6.9,9.8c-2.2,2.3-4.7,4.1-7.9,4.7c-2.6,0.5-5,0-7.1-1.3c-1.7-1-3.3-2.2-4.8-3.6
			c-5.5-5.4-8.8-12-10.3-19.5c-1.7-8.9-3.2-17.8-4.9-26.7c-1.5-7.6-3.1-15.2-4.9-22.7c-1.1-4.5-3.4-8.5-7.1-11.5
			c-4.5-3.7-9.7-4.5-15.3-3.5C101.9,149.3,101.5,149.3,101.1,149.4z"/>
		<path d="M409.1,318.7c-5.7,0-11.2,0-16.8,0c0,0.4-0.1,0.7-0.1,0.9c0,7.3,0,14.5,0,21.8c0,1.4,0.2,2.8,0.5,4.2
			c1.1,4.9,4.5,7.4,9.5,6.8c2.1-0.2,4.3-0.8,6.4-1.3c0.5-0.1,0.9-0.3,1.5-0.4c0.4,2.8,0.7,5.4,1.1,8.4c-2.4,0.5-4.7,1.1-7,1.5
			c-3.3,0.6-6.6,0.7-9.9,0c-6.9-1.4-10.9-5.8-12.3-12.5c-0.5-2.4-0.7-5-0.8-7.5c-0.1-6.6,0-13.2,0-19.7c0-0.5,0-1,0-1.6
			c-6.5,0-12.9,0-19.5,0c0,13.4,0,26.8,0,40.4c-3.7,0-7.3,0-11.1,0c0-13.5,0-26.9,0-40.4c-8.5,0-16.8,0-25.2,0c0,13.4,0,26.9,0,40.4
			c-3.7,0-7.2,0-10.9,0c0-13.4,0-26.9,0-40.4c-3.1,0-6,0-9,0c0-2.8,0-5.6,0-8.4c3,0,6,0,9.2,0c0-1.8-0.1-3.4,0-5
			c0.2-2.8,0.2-5.7,0.8-8.5c1.6-7.2,6.3-11.4,13.6-12.4c5.4-0.7,10.6,0.3,15.9,2c-0.4,2.5-0.8,5.1-1.2,7.5c-2.3-0.5-4.4-1.1-6.5-1.4
			c-6.7-1-11.4,2.9-11.7,9.6c-0.2,2.7,0,5.3,0,8.1c18.6,0,37,0,55.7,0c0-5,0-10,0-15.1c3.7,0,7.3,0,11,0c0,5,0,10,0,15.1
			c5.7,0,11.3,0,16.9,0C409.1,313.4,409.1,316,409.1,318.7z"/>
		
			<linearGradient id="SVGID_00000116937378806660490860000018410705145131048331_" gradientUnits="userSpaceOnUse" x1="343.7592" y1="154.9157" x2="411.927" y2="154.9157">
			<stop  offset="0" style="stop-color:#842890"/>
			<stop  offset="1" style="stop-color:#E3038D"/>
		</linearGradient>
		<path style="fill:url(#SVGID_00000116937378806660490860000018410705145131048331_);" d="M343.8,152c1.9-2.9,4.2-5.2,6.7-7.2
			c7-5.8,15.2-8.9,24.2-9.7c8.8-0.8,17.3,0,25.5,3.3c3.5,1.4,6.6,3.3,9.4,5.8c2.5,2.4,3,5,1.6,8.1c-1.7,4-4.3,7.4-7.1,10.6
			c-3.4,3.9-7.1,7.5-11.5,10.4c-3.9,2.6-4.9,2.5-8.2-0.6c-4-3.8-7.9-7.8-12-11.5c-4.3-3.9-9-7.2-14.6-9c-4.3-1.4-8.6-1.6-13-0.3
			C344.5,151.9,344.2,151.9,343.8,152z"/>
		<path d="M233.6,315.7c0-10.3,0-20.5,0-30.7c1.6,0,3.1,0,4.7,0c0,0.6,0,1.2,0,1.7c0,21.1,0,42.2,0,63.3c0,1,0,2.1,0.2,3.1
			c0.3,2.3,1.4,3.2,3.7,3.3c0.8,0,1.5,0,2.4,0c0.1,1.1,0.1,2.3,0.2,3.5c-2.4,0.4-4.6,0.6-6.9-0.2c-2.3-0.9-3.2-2.8-3.5-5.1
			c-0.2-1.9-0.3-3.7-0.4-5.7c-0.1,0.1-0.3,0.2-0.3,0.4c-3.5,7.6-9.8,10.9-17.8,11.1c-12.1,0.4-20.9-7-23-19.1
			c-1.1-6-0.8-11.8,1.5-17.5c4.4-10.4,14.5-14.9,24.2-14c5.1,0.5,9.7,2.3,13.9,5.2C232.8,315.3,233.1,315.4,233.6,315.7z
			 M233.8,330.5c-0.1,0-0.2,0-0.3,0c0-2.9,0-5.7,0-8.6c0-0.5-0.3-1.3-0.7-1.6c-5.2-4.1-11.1-6.4-17.8-6c-7,0.5-12.5,3.7-15.5,10.1
			c-3.7,8-3.2,16.1,1.2,23.8c1.8,3.1,4.5,5.3,7.9,6.6c10.6,4.1,21.7-1.7,24.2-12.8C233.6,338.3,233.5,334.4,233.8,330.5z"/>
		<path d="M289.8,333.2c0-3,0.2-5.9,0-8.9c-0.3-4.2-2.7-7.1-6.6-8.7c-4.1-1.7-8.3-2-12.7-1.7c-4.5,0.3-8.8,1.4-13.1,3.6
			c-0.3-1.3-0.7-2.4-0.9-3.6c0-0.3,0.4-0.7,0.8-0.9c3.5-1.8,7.2-2.7,11-3.2c4.9-0.6,9.8-0.6,14.6,0.9c7.8,2.3,11.6,7.5,11.7,15.6
			c0,7.9-0.1,15.7-0.1,23.6c0,1.1,0,2.3,0.2,3.4c0.4,2.8,1.7,3.8,4.5,3.8c0.5,0,0.9,0,1.5-0.1c0.1,1.1,0.1,2.1,0.2,3.3
			c-2.9,0.3-5.7,0.9-8.1-1.1c-2.3-2-2-4.9-2.2-7.6c-0.1,0-0.2,0-0.2,0c-3.1,4.8-7.7,7.2-13,8.3c-5.3,1.1-10.5,1.3-15.6-1
			c-5-2.3-8.5-5.9-9.1-11.6c-0.8-8.2,3.6-14.5,11.5-17c6.2-1.9,12.3-1.2,18.4,0.4C285,331.4,287.3,332.3,289.8,333.2z M289.8,341.5
			c0-0.8-0.1-1.6,0-2.3c0.1-1.1-0.3-1.7-1.3-2.1c-5.7-2.6-11.6-4.1-17.8-3.7c-4,0.3-7.6,1.5-10.5,4.4c-4.9,4.9-4.2,15.7,5.8,18.1
			c6.1,1.5,12,0.5,17.3-2.8C287.6,350.4,290.3,346.7,289.8,341.5z"/>
		<path d="M101.1,288.4c1.8,0,3.4,0,5,0c0.3,0,0.7,0.4,0.8,0.8c3.8,9.4,7.6,18.7,11.3,28.1c4.4,10.9,8.8,21.7,13.1,32.6
			c0.1,0.2,0.2,0.4,0.4,0.7c0.6-1.6,1.2-3.1,1.8-4.6c7.5-18.7,14.9-37.4,22.4-56.2c0.4-1.1,1-1.5,2.1-1.4c1.2,0.1,2.5,0,3.9,0
			c-0.2,0.7-0.2,1.1-0.4,1.6c-9.5,23-19,46-28.5,69c-0.3,0.8-0.7,0.9-1.5,1c-1,0.1-1.2-0.4-1.5-1.2c-8.5-20.5-17.1-41.1-25.6-61.6
			c-1-2.4-2-4.8-3-7.2C101.4,289.6,101.3,289.1,101.1,288.4z"/>
		<path class="st5" d="M276.1,410.8c1.5-0.7,3-1.4,4.4-2.2c3.1-1.7,6.2-3.4,9.3-5.1c0.7-0.4,1.6-0.4,2.4-0.6c0,0.1,0.1,0.2,0.1,0.3
			c1.4-1.6,2.7-3.3,4.1-4.9c0.9-1,1.9-1.8,2.9-2.7c0.4-0.3,0.9-0.6,1.4-0.6c0.6,0,1.5,0.2,1.8,0.7c0.5,0.7,0.1,1.6-0.7,2.1
			c-4.4,2.3-6.6,6.6-9.3,10.3c-0.4,0.6-0.4,1.4-0.7,2.1c0.7-0.1,1.5-0.1,2.1-0.4c3.9-2.4,7.8-4.8,11.7-7.3c0.2-0.1,0.6-0.5,0.5-0.6
			c-0.2-1.3,0.7-1.7,1.6-2c2.4-0.8,4.8-1.5,7.2-2.1c0.9-0.2,1.5-0.6,1.9-1.4c2.4-4.2,5-8.3,8.4-11.7c1.1-1.1,2.3-2,3.6-2.8
			c1.2-0.8,2.6-0.9,3.9-0.4c0.4,0.1,0.8,0.6,0.9,0.9c0,0.3-0.5,0.7-0.7,1.1c-0.1,0.1-0.2,0.1-0.3,0.2c-3,0.4-4.9,2.5-6.6,4.7
			c-1.9,2.4-3.8,4.9-5.6,7.4c0.1,0.1,0.1,0.2,0.2,0.4c1.2-0.2,2.4-0.5,3.6-0.7c2.3-0.4,4.5-1,6.8-1.3c1.5-0.2,2.5-0.2,2.6,1.7
			c0.4-0.2,0.8-0.5,1.2-0.7c2-0.6,4-1.4,6.1-1.7c1.8-0.3,2.9,1.5,2.1,3.2c-0.3,0.6-0.8,1.2-1.3,1.7c-2.9,2.9-6.2,5.3-10,7
			c-1.1,0.5-2.3,0.8-3.4,1.1c-1.4,0.3-2.8,2-2.7,3.5c0.1,1.1,1,1.9,2.2,1.6c1.3-0.3,2.6-0.7,3.9-1.3c2.9-1.4,5.7-2.9,8.6-4.3
			c0.5-0.2,1.2-0.1,1.8-0.1c-0.1,0.7-0.3,1.4-0.5,2.1c-0.1,0.2-0.4,0.3-0.6,0.5c-3.5,1.8-6.9,3.7-10.4,5.5c-1.5,0.8-3.2,1.1-5,0.8
			c-2.4-0.4-3.6-1.9-3.2-4.3c0.3-1.6,0.8-3.1,1.6-4.6c1.6-3.2,4.1-5.6,6.9-7.9c0.4-0.3,0.8-0.6,1.1-1.2c-2.2,0.5-4.3,0.9-6.5,1.4
			c-2,0.5-4.1,1-6.1,1.5c-0.5,0.1-1,0.5-1.3,0.9c-4.5,7.7-9.1,15.3-13.5,23.1c-1.4,2.5-2.8,5.2-3.1,8.2c-0.1,0.9-0.7,1.7-1.7,1.6
			c-1-0.1-1.4-1.1-1.2-2c0.2-1.3,0.4-2.7,1-3.8c2.1-4.3,4.2-8.6,6.5-12.7c2.5-4.4,5.3-8.7,8-13.1c0.2-0.2,0.3-0.5,0.5-0.9
			c-2.1,0.5-4,0.9-5.8,1.4c-0.4,0.1-0.6,1-1,1.4c-5.2,4.2-10.5,8.1-16.5,10.8c-0.2,0.1-0.5,0.2-0.7,0.3c-1.1,0.4-2.3,0.6-3.2-0.4
			c-0.9-1-0.3-2,0.2-3c0.9-1.9,2-3.7,3.1-5.8c-0.7,0.4-1.2,0.7-1.8,1c-4.1,2.5-8.3,4.9-12.5,7.3c-0.8,0.5-1.7,0.8-2.6,1.1
			c-1.5,0.5-2.7-0.8-2.2-2.2c0.8-2.1,1.7-4.1,2.8-6c4.1-6.9,8.4-13.8,12.7-20.6c0.6-1,1.4-1.9,2.3-2.8c0.3-0.3,1-0.6,1.2-0.4
			c0.4,0.3,0.7,0.9,0.7,1.4c-0.1,0.6-0.4,1.3-0.8,1.9c-3.3,5.3-6.7,10.5-9.9,15.8c-1.7,2.8-3.2,5.6-4.8,8.5
			C276,410.6,276,410.7,276.1,410.8z M330.4,402.8c2.7-0.4,7.2-3.4,8.5-5.6C335.5,398.1,332.9,400.1,330.4,402.8z"/>
		<path class="st5" d="M217.5,401.4c1.7-0.2,3.4-0.4,5.1-0.5c0.6,0,1.3,0.3,2.1,0.5c0.8-0.9,1.7-2.1,2.8-3.3c0.5-0.5,1.1-1,1.6-1.4
			c0.7-0.5,1.4-0.4,2,0.2c0.6,0.6,0.2,1.2-0.2,1.7c-1.9,2.4-3.8,4.7-5.6,7.1c-0.8,1-1.5,2-2.1,3.1c-0.2,0.4-0.2,1,0,1.4
			c0.1,0.2,0.9,0.2,1.3,0c1.2-0.6,2.5-1.3,3.6-2.1c4-3,7.5-6.4,10.5-10.4c0.7-0.9,1.2-1.9,1.7-3c0.4-0.8,0.9-1.3,1.8-0.9
			c1,0.4,0.7,1.2,0.4,1.8c-0.3,0.7-0.6,1.3-1,1.9c-3.9,5.7-8.4,10.8-14.2,14.6c-1.6,1.1-3.4,1.9-5.3,2.5c-2.6,0.8-4.2-0.9-3.2-3.4
			c0.8-2.1,2.1-4,3.3-6c0.4-0.8,1.1-1.4,1.6-2.1c-2.2,0.4-4.4,0.8-6.5,1.3c-0.4,0.1-0.7,0.6-1,0.9c-3,3.1-5.9,6.3-8.9,9.3
			c-0.7,0.7-1.7,1.3-2.6,1.9c-1.9,1-3.4,0.2-3.4-1.9c0-1.3,0.1-2.8,0.6-4c1.7-4.3,4.1-8.3,6.9-11.9c1-1.3,2.4-2.4,3.8-3.2
			c2.4-1.3,4.4-0.2,4.8,2.5C217.4,399.1,217.4,400.2,217.5,401.4z M204.4,413.4c0.7-0.3,1-0.4,1.3-0.6c3.4-3.1,6.5-6.5,8.3-10.9
			c0.3-0.8,0.3-1.8,0.2-2.6c-0.1-1.2-0.9-1.5-1.9-0.8c-0.7,0.5-1.3,1.2-1.9,1.9c-2.6,3.4-4.3,7.3-5.9,11.3
			C204.4,412.1,204.4,412.6,204.4,413.4z"/>
		<path d="M174,311c1.5,0,2.9,0,4.5,0c0,16.2,0,32.4,0,48.6c-1.5,0-2.9,0-4.5,0C174,343.5,174,327.3,174,311z"/>
		<path class="st5" d="M185.2,415.9c-3.9,0.1-6.3-0.6-8.5-2.2c-1.9-1.4-2.3-2.7-1.1-4.7c4.2-7.4,8.4-14.7,12.8-22
			c0.9-1.6,2.2-2.9,3.4-4.3c0.5-0.5,1.2-1.2,1.8-0.5c0.4,0.5,0.6,1.5,0.4,2.2c-0.2,0.9-0.9,1.6-1.4,2.4c-4.2,6.9-8.4,13.7-12.6,20.7
			c-1.9,3.2-0.7,5.2,3.1,5.1c2.9-0.1,5.7-0.8,8.5-1.3c2-0.4,4-1.1,6.1-1.6c1.4-0.4,2.1,0.1,1.9,1.2c-0.1,0.4-0.5,0.8-0.8,1
			C194.1,413.9,189.2,415.6,185.2,415.9z"/>
		<path class="st5" d="M243.3,414.9c-3.6-0.2-5.1-2-4.3-5.5c0.5-2.4,1.8-4.5,3.3-6.4c2.4-3.1,5.3-5.5,8.6-7.6c1.9-1.2,4.1-1.9,6.4-2
			c1.8-0.1,2.9,1.6,2.1,3.2c-0.3,0.6-0.8,1.2-1.3,1.7c-2.9,2.9-6.2,5.3-10,7c-1.1,0.5-2.2,0.8-3.4,1.1c-1.5,0.3-2.8,2.1-2.6,3.6
			c0.1,1.1,1,1.8,2.1,1.5c1.3-0.3,2.6-0.7,3.7-1.3c2.9-1.4,5.8-2.9,8.7-4.3c0.5-0.2,1.2-0.1,1.8-0.1c-0.1,0.7-0.3,1.4-0.5,2.1
			c0,0.1-0.2,0.2-0.4,0.3c-3.8,2-7.6,4-11.5,5.9C245.3,414.6,244.2,414.7,243.3,414.9z M246.5,402.8c2.7-0.4,7.2-3.5,8.5-5.6
			C251.6,398.1,249,400.1,246.5,402.8z"/>
		<path d="M349.6,295.4c0-3.8,2.7-6.5,6.7-6.5c3.9,0,6.6,2.7,6.6,6.4c0,3.9-2.8,6.7-6.7,6.7C352.4,302,349.6,299.3,349.6,295.4z"/>
		<path d="M179.6,293.3c0,2-1.3,3.4-3.2,3.5c-1.9,0.1-3.4-1.5-3.4-3.5c0-2,1.3-3.4,3.2-3.4C178.2,289.9,179.6,291.3,179.6,293.3z"/>
		<path class="st5" d="M308.8,383.6c0.9,0.2,1.7,0.3,2.4,0.7c0.3,0.2,0.6,0.7,0.6,1.1c0,0.3-0.4,0.7-0.7,0.9c-0.3,0.2-0.6,0.3-1,0.3
			c-1,0.1-1.8,0.6-2.5,1.4c-0.4,0.4-1.4,0.8-1.7,0.6c-0.8-0.6-1.6-1.5-2.1-2.4c-0.1-0.2,0.7-1.2,1.2-1.5
			C306.3,384.2,307.6,383.9,308.8,383.6z"/>
	</g>
</g>
</svg>
