<svg width="76" height="27" viewBox="0 0 76 27" fill="none" xmlns="http://www.w3.org/2000/svg">
<path d="M75.4393 13.4877C75.3593 13.4877 75.2693 13.4677 75.1893 13.4177C31.9093 -11.7023 1.70928 8.97769 1.40928 9.18769C1.18928 9.34769 0.879304 9.29769 0.719304 9.06769C0.559304 8.84769 0.619299 8.5277 0.839299 8.3777C1.1393 8.1677 31.8593 -12.8823 75.6993 12.5577C75.9393 12.6977 76.0193 12.9977 75.8793 13.2377C75.7893 13.3977 75.6193 13.4877 75.4493 13.4877H75.4393Z" fill="#21201E"/>
<path d="M10.2688 26.9339C10.0988 26.9339 9.9388 26.8439 9.8388 26.6939C9.6988 26.4539 9.77878 26.1539 10.0088 26.0139C10.0688 25.9739 16.1788 22.3539 24.2988 19.6139C31.8288 17.0739 42.6888 14.7939 51.6688 18.3439C51.9288 18.4439 52.0488 18.7339 51.9488 18.9939C51.8488 19.2539 51.5588 19.3739 51.2988 19.2739C34.6288 12.6739 10.7588 26.7339 10.5088 26.8739C10.4288 26.9239 10.3388 26.9439 10.2588 26.9439L10.2688 26.9339Z" fill="#21201E"/>
</svg>
